ply
format ascii 1.0
element vertex 657
property float x
property float y
property float z
element face 682
property list uchar int vertex_index
end_header
-18.840448 -57.969337 -6.499952
-15.125685 -63.9021 0.706499
-6.559803 -80.136436 -1.729447
-27.559677 -66.125626 -5.194213
-35.277695 -41.365887 -10.725772
-16.012005 -47.079796 -7.246388
-20.062887 -41.290447 -10.044857
-28.107143 -49.047066 -5.17836
-20.085224 -52.009926 -3.863981
-10.066086 -59.267448 -1.614816
-3.750568 -69.29039 3.548649
-13.023493 -70.989395 -3.702371
-10.217953 -86.21981 -12.741697
-16.305161 -73.945396 -10.446157
-23.142553 -60.469727 -7.809002
-15.963327 -52.388847 -7.443072
-18.205858 -44.67749 -9.45711
-21.424313 -49.809643 -7.22391
-24.46575 -45.598232 -6.563477
-23.721645 -53.818207 -5.403732
-22.861855 -59.353722 -0.0803
-18.366131 -58.374195 -0.953189
-13.448103 -55.937977 -1.552036
-9.705516 -60.76017 1.099427
-4.70935 -74.985626 1.060899
-7.901212 -70.597458 -0.092959
-8.483955 -74.626389 -4.107711
-11.82839 -93.994217 -10.195417
-8.124084 -91.463219 -12.316227
-18.882221 -77.442421 -7.996717
-21.754623 -69.378693 -8.399527
-18.888704 -65.084572 -11.308554
-24.828718 -61.271618 -8.951258
-28.050404 -56.447063 -6.896549
-3.16589 -85.048325 -3.961052
-19.860086 -84.876213 -8.39855
-27.878651 -42.422859 -8.591564
-32.39621 -45.174908 -6.927153
-17.247095 -49.934399 -5.582662
-12.40151 -52.91674 -4.03517
-14.188173 -58.736328 -4.372842
-6.73465 -64.809944 0.938453
-11.374059 -65.474739 -1.792465
-15.168948 -64.517853 -4.948683
-4.494155 -89.486046 -10.111514
-9.080882 -85.571495 -7.210886
-16.282757 -82.535141 -10.536107
-13.550962 -79.44416 -11.211981
-11.428938 -77.597252 -6.248965
-13.080116 -71.321617 -8.792501
-17.701214 -66.5261 -7.133218
-21.59808 -60.932606 -5.142735
-26.731592 -55.987267 -5.073353
-31.844797 -51.406147 -6.397187
-17.385735 -55.610218 -7.350358
-19.074944 -51.898582 -8.334477
-20.407995 -54.047585 -7.214697
-22.499619 -51.889313 -6.185512
-21.35985 -56.152489 -5.924058
-19.967337 -62.050316 -0.183097
-20.757727 -58.924511 -0.683517
-16.553196 -61.329784 -0.215395
-13.722033 -60.108543 0.018865
-11.676145 -62.617561 1.07687
-3.980258 -80.17556 -1.116755
-3.549775 -77.984749 0.985895
-5.796716 -77.618202 -0.546135
-7.185938 -74.958817 -1.085872
-8.271963 -77.496056 -2.772476
-22.497244 -71.71489 -5.516994
-24.358303 -67.711197 -6.200551
-23.34812 -65.136688 -8.990996
-25.984943 -63.964832 -6.828746
-27.163748 -60.694069 -7.237996
-28.723455 -62.895008 -6.122791
-16.055668 -42.793266 -8.151519
-19.109856 -42.943195 -9.654087
-21.203497 -40.194344 -10.966395
-26.291876 -47.471375 -5.686788
-26.22254 -43.967083 -7.43398
-28.33823 -45.494312 -6.29845
-30.272879 -43.607571 -7.425233
-30.390268 -46.973724 -5.840241
-13.54379 -98.092232 -13.758135
-21.391512 -52.624695 -2.709862
-18.716621 -51.134197 -4.836906
-10.701582 -56.827961 -1.097547
-12.260342 -54.2537 -2.661781
-11.183344 -55.994347 -2.810133
-12.53433 -55.490578 -4.434018
-11.950815 -58.89978 -2.892904
-3.234046 -72.234055 4.760355
-6.161608 -64.779144 2.833682
-5.062174 -66.761765 2.231561
-10.509347 -71.11351 -1.964907
-9.613039 -68.453842 -1.002923
-12.278026 -68.237953 -2.246353
-13.543335 -65.012566 -3.18141
-14.236647 -67.696457 -3.690096
-9.142802 -89.019997 -12.696313
-6.223264 -90.44841 -12.804912
-7.478398 -88.249207 -11.839935
-6.688859 -87.800346 -8.722205
-9.410704 -85.427353 -10.585609
-17.726143 -83.990921 -9.247659
-18.001001 -75.689941 -9.828604
-15.161794 -77.525558 -9.614714
-12.981868 -79.467209 -8.010065
-13.277659 -75.910477 -8.517176
-11.051055 -74.8508 -8.678236
-14.568596 -72.678757 -9.857744
-20.887945 -61.953838 -9.927661
-17.678507 -65.431625 -9.320646
-20.488747 -63.562141 -8.072573
-19.718273 -64.300209 -5.774468
-22.828312 -61.59193 -6.361197
-30.387461 -54.217232 -6.402609
-15.315512 -49.393105 -7.333199
-16.872026 -45.780842 -8.631548
-17.808872 -48.992832 -8.770678
-20.003403 -47.565422 -8.66278
-21.166227 -45.375038 -7.89707
-22.45607 -43.630993 -8.04384
-22.823771 -47.581463 -6.483028
-24.281734 -49.660213 -5.588314
-25.800812 -51.386303 -5.032253
-22.568287 -56.123951 -0.568732
-21.15897 -55.789062 -1.841369
-19.212215 -55.387978 -2.656863
-17.242689 -54.687294 -3.299714
-15.774992 -57.62204 -1.243844
-11.706328 -58.301552 0.095683
-9.310448 -59.694794 -0.086785
-3.185799 -75.262405 3.171298
-3.882489 -72.151344 2.398541
-5.24416 -69.778725 1.390678
-6.127978 -72.674522 0.234864
-8.452625 -72.716248 -1.976304
-10.271723 -72.689705 -4.321806
-9.957197 -95.389977 -11.756433
-7.744507 -94.473358 -12.074953
-9.801495 -92.989059 -10.755268
-10.673028 -89.60202 -10.645136
-21.184658 -75.540451 -5.706052
-20.021688 -73.616707 -7.615505
-19.51189 -71.782692 -10.688456
-17.814617 -69.674843 -11.218966
-20.910786 -67.071465 -11.126052
-22.156818 -62.156548 -10.911452
-23.3624 -59.420746 -8.926632
-25.329628 -58.029671 -7.238943
-25.824213 -58.382122 -8.113561
-28.686878 -58.066582 -7.296528
-22.760166 -62.405922 0.068949
-3.331704 -82.891586 -1.235996
-4.494553 -82.36322 -3.199834
-19.146065 -86.947296 -8.619535
-30.14024 -64.891479 -6.423284
-15.937436 -41.490517 -9.462811
-23.910103 -42.293564 -9.001379
-25.322477 -41.058098 -10.226194
-29.427555 -40.939262 -9.949997
-31.904028 -41.813694 -8.889996
-34.067741 -43.217178 -8.638515
-15.314298 -53.260811 -3.64161
-14.05834 -51.39669 -4.18501
-14.049295 -49.968941 -5.547187
-13.617147 -52.239952 -5.673739
-14.822657 -55.318756 -5.790639
-16.326723 -58.789917 -6.187425
-7.718507 -62.449593 1.481235
-8.484049 -62.340919 -0.432633
-7.2125 -67.589897 0.269352
-8.730921 -65.559769 -0.656928
-10.474213 -62.512779 -2.039166
-12.936295 -62.16349 -3.096804
-14.677686 -62.114616 -4.774948
-17.146463 -61.437298 -5.724833
-5.957673 -93.081062 -12.251371
-4.225694 -91.794937 -10.146346
-3.62857 -87.59343 -7.209969
-5.091311 -85.204269 -5.925574
-7.770507 -83.311203 -4.042207
-17.511433 -86.792953 -10.121283
-15.74003 -85.985603 -11.587442
-13.831343 -84.31543 -12.253111
-15.456555 -80.76429 -11.977201
-11.628996 -82.229568 -12.294011
-10.989395 -82.250061 -9.394018
-10.11548 -79.642883 -3.443696
-8.95889 -76.758156 -6.046711
-9.65341 -73.589119 -6.956438
-13.111227 -71.92347 -6.397808
-16.026211 -68.466011 -10.159528
-15.882878 -68.981857 -7.83417
-15.888692 -69.601242 -5.124474
-16.811785 -66.227135 -4.95214
-18.3958 -63.004784 -4.972678
-20.338779 -59.606701 -5.21052
-22.859394 -57.468315 -5.201044
-25.341404 -54.971382 -4.947987
-27.618753 -52.510162 -4.965201
-27.458197 -56.114708 -6.012649
-29.1745 -53.329216 -5.399185
-30.178045 -50.145489 -5.502876
-25.95899 -66.918411 -5.697382
-25.135506 -68.860016 -5.281945
-26.736193 -68.06723 -4.778777
-34.727461 -39.591093 -11.614144
-34.217116 -40.711489 -10.665306
-35.741528 -40.291747 -11.769392
-34.727461 -39.591093 -11.614144
-16.033836 -44.936531 -7.698954
-16.472028 -43.571951 -7.578801
-16.450196 -45.715216 -7.126235
-18.552829 -39.879879 -10.702821
-18.076313 -40.706253 -10.507435
-19.586371 -42.116821 -9.849472
-19.00116 -39.32432 -11.251102
-18.552829 -39.879879 -10.702821
-20.633192 -40.742396 -10.505626
-19.571465 -38.776268 -11.71187
-19.00116 -39.32432 -11.251102
-20.260224 -50.568016 -3.29609
-20.913367 -50.8754 -2.719031
-20.738368 -52.317311 -3.286922
-19.927269 -50.026077 -3.960338
-20.260224 -50.568016 -3.29609
-19.400923 -51.572062 -4.350443
-19.242967 -49.588213 -4.446801
-19.927269 -50.026077 -3.960338
-4.046458 -69.449264 4.348728
-3.788197 -70.921097 4.954581
-3.492307 -70.762223 4.154502
-4.252484 -68.127732 3.772858
-4.046458 -69.449264 4.348728
-4.406371 -68.026077 2.890105
-4.908288 -66.863419 3.114314
-4.252484 -68.127732 3.772858
-24.139348 -59.629257 -6.998455
-23.982228 -60.190359 -6.274552
-22.985433 -61.030828 -7.0851
-22.715071 -57.738836 -0.324516
-23.045945 -56.292463 0.295322
-23.192729 -57.907349 0.539538
-12.429191 -88.878002 -10.358465
-11.464514 -90.337944 -9.724697
-11.481015 -88.531098 -11.266095
-12.429191 -88.878002 -10.358465
-22.769425 -74.662773 -4.997329
-22.139582 -76.334412 -5.409586
-29.333118 -58.993729 -7.305931
-27.925313 -59.380325 -7.267262
-28.571554 -60.307473 -7.276666
-29.881681 -57.655367 -7.978614
-29.333118 -58.993729 -7.305931
-22.539131 -63.83863 0.171541
-23.785186 -62.504795 0.597665
-20.8797 -63.556576 0.153418
-22.539131 -63.83863 0.171541
-3.248797 -83.969955 -2.598524
-3.639616 -84.328121 -1.408842
-3.55671 -85.406491 -2.77137
-27.232876 -41.134371 -10.06067
-25.954789 -40.45199 -10.877985
-26.600564 -41.740479 -9.408879
-28.653103 -41.681061 -9.270781
-28.007328 -40.392572 -10.739887
-27.232876 -41.134371 -10.06067
-12.823084 -98.034393 -12.668066
-12.82838 -97.628659 -13.65716
-17.57619 -47.749264 -5.872126
-18.103511 -48.33983 -5.402204
-16.69715 -49.192501 -5.907578
-17.57619 -47.749264 -5.872126
-4.191047 -89.936402 -8.358171
-4.056816 -91.090847 -8.375587
-4.359924 -90.640491 -10.12893
-4.061362 -88.539738 -8.660742
-3.758254 -88.990094 -6.907399
-4.191047 -89.936402 -8.358171
-18.342843 -78.704037 -8.829087
-19.565704 -78.013801 -7.547811
-14.503758 -80.104225 -11.594591
-16.33949 -79.69212 -11.472105
-15.386693 -79.032055 -11.089495
-11.42006 -79.90313 -5.996839
-12.196525 -80.838108 -6.877389
-12.205403 -78.53223 -7.129515
-10.772209 -78.620068 -4.846331
-10.763331 -80.925945 -4.594205
-11.42006 -79.90313 -5.996839
-26.036498 -55.479325 -5.01067
-24.818269 -56.781712 -5.081012
-25.513363 -57.289654 -5.143695
-32.171471 -49.804806 -6.473276
-31.338096 -49.174477 -6.02612
-31.011421 -50.775818 -5.950031
-30.588017 -63.339447 -7.204839
-30.628552 -64.031734 -7.912302
-3.765016 -79.080154 -0.06543
-3.358173 -79.452072 1.03764
-3.573415 -80.547477 -0.013684
-12.042196 -92.534042 -9.499837
-13.185654 -92.968354 -9.035343
-24.204976 -70.861863 -4.940167
-23.425718 -72.749992 -4.9028
-23.427774 -69.713043 -5.858773
-24.204976 -70.861863 -4.940167
-25.135506 -68.860016 -5.281945
-29.351407 -61.407942 -6.719063
-28.571554 -60.307473 -7.276666
-27.943601 -61.794539 -6.680394
-3.446 -86.606808 -3.981053
-3.55671 -85.406491 -2.77137
-15.28104 -41.538054 -7.666106
-15.697399 -42.316738 -7.093388
-16.472028 -43.571951 -7.578801
-15.430071 -40.868097 -8.204598
-15.28104 -41.538054 -7.666106
-17.765985 -41.47204 -10.071677
-17.313986 -42.339187 -9.973189
-18.657857 -43.810343 -9.555599
-17.765985 -41.47204 -10.071677
-18.076313 -40.706253 -10.507435
-19.956525 -38.391956 -12.277294
-19.571465 -38.776268 -11.71187
-21.725183 -39.751839 -11.506566
-19.956525 -38.391956 -12.277294
-14.526079 -97.99234 -14.721323
-14.459084 -98.23687 -13.280131
-14.00932 -97.420441 -14.407636
-14.526079 -97.99234 -14.721323
-12.82838 -97.628659 -13.65716
-14.00932 -97.420441 -14.407636
-21.082809 -51.371403 -1.962946
-21.817079 -52.861441 -1.886219
-21.082809 -51.371403 -1.962946
-20.913367 -50.8754 -2.719031
-18.838274 -48.939729 -5.029326
-19.242967 -49.588213 -4.446801
-17.981858 -50.534298 -5.209784
-18.103511 -48.33983 -5.402204
-18.838274 -48.939729 -5.029326
-4.348598 -72.629975 5.100551
-3.498961 -74.002583 4.869946
-4.348598 -72.629975 5.100551
-3.788197 -70.921097 4.954581
-5.458004 -65.872108 3.415375
-6.635773 -65.20066 3.375834
-5.611891 -65.770454 2.532622
-5.458004 -65.872108 3.415375
-4.908288 -66.863419 3.114314
-19.014941 -83.284367 -8.089811
-18.793115 -84.433567 -8.823104
-20.081913 -83.727013 -7.665256
-18.195939 -82.735965 -8.792301
-19.014941 -83.284367 -8.089811
-17.474246 -82.008075 -9.436525
-17.00445 -83.263031 -9.891883
-18.195939 -82.735965 -8.792301
-17.611713 -77.154945 -10.397806
-18.052323 -78.031185 -9.481863
-18.441611 -76.566181 -8.912661
-16.19211 -78.072754 -10.290861
-17.611713 -77.154945 -10.397806
-16.581398 -76.60775 -9.721659
-14.356378 -78.484859 -10.413348
-15.386693 -79.032055 -11.089495
-16.19211 -78.072754 -10.290861
-23.561723 -60.091985 -5.787617
-22.946607 -59.762324 -5.178387
-22.213196 -61.262268 -5.751966
-23.561723 -60.091985 -5.787617
-23.982228 -60.190359 -6.274552
-25.933867 -57.388027 -5.63063
-25.513363 -57.289654 -5.143695
-30.619761 -54.937224 -6.91111
-29.218933 -55.332148 -6.649579
-29.451233 -56.052139 -7.158079
-31.463748 -53.509571 -7.100542
-30.619761 -54.937224 -6.91111
-32.192416 -52.104028 -7.097831
-31.116129 -52.811689 -6.399898
-31.463748 -53.509571 -7.100542
-32.742044 -50.497816 -7.17458
-32.192416 -52.104028 -7.097831
-22.477612 -54.807764 0.149157
-22.955269 -54.976276 1.013211
-23.045945 -56.292463 0.295322
-22.405467 -54.611069 -0.815654
-22.477612 -54.807764 0.149157
-21.700809 -54.443624 -1.451972
-22.405467 -54.611069 -0.815654
-21.863629 -55.956507 -1.205051
-21.275241 -54.206879 -2.275616
-21.817079 -52.861441 -1.886219
-21.700809 -54.443624 -1.451972
-3.344267 -78.276687 2.089485
-3.358173 -79.452072 1.03764
-3.162279 -76.915515 3.182186
-3.344267 -78.276687 2.089485
-3.367787 -76.623577 2.078597
-3.474838 -75.516758 4.075418
-3.162279 -76.915515 3.182186
-3.209923 -73.74823 3.965826
-3.498961 -74.002583 4.869946
-3.474838 -75.516758 4.075418
-8.850852 -94.931668 -11.915693
-8.19765 -95.522309 -11.557547
-9.303995 -95.980618 -11.398286
-11.028748 -92.031464 -9.779763
-10.814943 -93.491638 -10.475343
-12.042196 -92.534042 -9.499837
-10.237261 -91.295539 -10.700202
-11.028748 -92.031464 -9.779763
-11.464514 -90.337944 -9.724697
-10.715902 -88.240086 -12.291683
-9.907915 -89.311008 -11.670725
-11.481015 -88.531098 -11.266095
-11.253477 -86.839992 -12.314376
-9.680377 -87.619903 -12.719005
-10.715902 -88.240086 -12.291683
-20.716922 -77.062816 -6.402478
-22.139582 -76.334412 -5.409586
-20.03344 -76.491436 -6.851384
-19.565704 -78.013801 -7.547811
-20.716922 -77.062816 -6.402478
-21.840951 -73.62767 -5.611523
-22.769425 -74.662773 -4.997329
-23.425718 -72.749992 -4.9028
-29.76947 -56.861898 -7.358069
-29.451233 -56.052139 -7.158079
-28.368641 -57.256822 -7.096539
-29.76947 -56.861898 -7.358069
-29.881681 -57.655367 -7.978614
-23.681771 -59.446814 0.495942
-23.192729 -57.907349 0.539538
-23.630927 -60.972914 0.570566
-23.785186 -62.504795 0.597665
-22.811011 -60.879822 -0.005675
-23.681771 -59.446814 0.495942
-23.630927 -60.972914 0.570566
-19.483285 -63.378773 0.027395
-21.363751 -62.228119 -0.057074
-20.8797 -63.556576 0.153418
-17.062459 -64.304665 0.472193
-17.546511 -62.976208 0.261701
-19.483285 -63.378773 0.027395
-3.655413 -83.161774 -0.190668
-3.639616 -84.328121 -1.408842
-3.249138 -81.90549 -0.073305
-3.655413 -83.161774 -0.190668
-3.655981 -81.533573 -1.176376
-3.573415 -80.547477 -0.013684
-3.249138 -81.90549 -0.073305
-20.213822 -86.984005 -9.166268
-18.849085 -88.091659 -7.98171
-20.424785 -86.037872 -9.136191
-20.213822 -86.984005 -9.166268
-20.781796 -85.00233 -9.025698
-19.503076 -85.911755 -8.509042
-20.424785 -86.037872 -9.136191
-21.480731 -83.902016 -8.019519
-20.781796 -85.00233 -9.025698
-20.081913 -83.727013 -7.665256
-21.480731 -83.902016 -8.019519
-28.429967 -67.117512 -5.322335
-26.736193 -68.06723 -4.778777
-29.720248 -66.500439 -5.93687
-28.849958 -65.508553 -5.808749
-28.429967 -67.117512 -5.322335
-30.505992 -65.549507 -7.327441
-29.720248 -66.500439 -5.93687
-30.628552 -64.031734 -7.912302
-30.505992 -65.549507 -7.327441
-15.370955 -40.216723 -8.860245
-15.430071 -40.868097 -8.204598
-15.996552 -42.141891 -8.807165
-16.179776 -40.745701 -9.976039
-17.071647 -43.084003 -9.459961
-17.313986 -42.339187 -9.973189
-15.624409 -39.637297 -9.418737
-16.179776 -40.745701 -9.976039
-15.370955 -40.216723 -8.860245
-15.624409 -39.637297 -9.418737
-23.078487 -40.801449 -10.524058
-21.725183 -39.751839 -11.506566
-22.5568 -41.243954 -9.983887
-23.784674 -40.183716 -11.136465
-23.078487 -40.801449 -10.524058
-24.61629 -41.675831 -9.613786
-24.252575 -39.653458 -11.813355
-23.784674 -40.183716 -11.136465
-24.252575 -39.653458 -11.813355
-25.954789 -40.45199 -10.877985
-28.517227 -39.684042 -11.496371
-28.007328 -40.392572 -10.739887
-30.000658 -40.126747 -10.766506
-28.517227 -39.684042 -11.496371
-31.238895 -40.563963 -10.236505
-30.000658 -40.126747 -10.766506
-30.665792 -41.376478 -9.419996
-32.530282 -40.935392 -9.747419
-31.238895 -40.563963 -10.236505
-33.612139 -41.637135 -9.621678
-32.530282 -40.935392 -9.747419
-32.985884 -42.515436 -8.764256
-34.672718 -42.291533 -9.682143
-34.217116 -40.711489 -10.665306
-33.612139 -41.637135 -9.621678
-13.935927 -97.834305 -12.140093
-14.459084 -98.23687 -13.280131
-13.935927 -97.834305 -12.140093
-12.823084 -98.034393 -12.668066
-10.208315 -96.187626 -11.84932
-9.303995 -95.980618 -11.398286
-10.891165 -95.35682 -12.029041
-10.208315 -96.187626 -11.84932
-11.826762 -94.65894 -11.248534
-10.892793 -94.692097 -10.975925
-10.891165 -95.35682 -12.029041
-13.059446 -93.834992 -10.337204
-11.826762 -94.65894 -11.248534
-13.185654 -92.968354 -9.035343
-13.059446 -93.834992 -10.337204
-16.079605 -47.7652 -6.739441
-16.450196 -45.715216 -7.126235
-15.102773 -49.923647 -5.208752
-16.69715 -49.192501 -5.907578
-15.652718 -50.665544 -4.883836
-15.09825 -49.209772 -5.889841
-15.102773 -49.923647 -5.208752
-14.053818 -50.682816 -4.866098
-15.03065 -48.524369 -6.396788
-16.079605 -47.7652 -6.739441
-15.09825 -49.209772 -5.889841
-15.03931 -65.145516 0.983406
-17.062459 -64.304665 0.472193
-13.07367 -64.366799 1.540549
-15.03931 -65.145516 0.983406
-11.348899 -63.724529 1.725734
-13.400915 -63.25983 0.891684
-13.07367 -64.366799 1.540549
-10.01752 -63.029083 1.896381
-11.348899 -63.724529 1.725734
-9.032205 -62.100387 1.907659
-10.690831 -61.688866 1.088148
-10.01752 -63.029083 1.896381
-7.260252 -64.109875 2.774787
-6.635773 -65.20066 3.375834
-8.038701 -62.945099 2.098563
-7.260252 -64.109875 2.774787
-6.940057 -63.614368 2.157459
-8.712011 -61.604882 1.290331
-9.032205 -62.100387 1.907659
-8.038701 -62.945099 2.098563
-7.175906 -95.003746 -11.287979
-8.19765 -95.522309 -11.557547
-6.282489 -94.307598 -11.376188
-7.175906 -95.003746 -11.287979
-6.85109 -93.77721 -12.163162
-5.620276 -93.576344 -10.689812
-6.282489 -94.307598 -11.376188
-4.754287 -92.933281 -9.6373
-5.620276 -93.576344 -10.689812
-5.091684 -92.438 -11.198859
-4.578748 -92.156834 -7.995422
-4.754287 -92.933281 -9.6373
-4.578748 -92.156834 -7.995422
-4.056816 -91.090847 -8.375587
-3.677339 -87.87936 -5.605512
-3.758254 -88.990094 -6.907399
-3.39723 -86.320877 -5.58551
-3.446 -86.606808 -3.981053
-3.677339 -87.87936 -5.605512
-17.488116 -87.86224 -8.431623
-18.849085 -88.091659 -7.98171
-16.6708 -87.785068 -9.182497
-17.488116 -87.86224 -8.431623
-18.328749 -86.870125 -9.370409
-15.848394 -87.473468 -10.096538
-16.6708 -87.785068 -9.182497
-14.962692 -87.069794 -10.829617
-15.848394 -87.473468 -10.096538
-16.625732 -86.389278 -10.854363
-14.014516 -86.722889 -11.737248
-14.962692 -87.069794 -10.829617
-13.060172 -85.887803 -12.070082
-14.014516 -86.722889 -11.737248
-14.785687 -85.150517 -11.920276
-12.024648 -85.26762 -12.497404
-11.253477 -86.839992 -12.314376
-13.060172 -85.887803 -12.070082
-17.043111 -81.250396 -10.098782
-17.474246 -82.008075 -9.436525
-18.342843 -78.704037 -8.829087
-18.052323 -78.031185 -9.481863
-16.63001 -80.364971 -10.819329
-16.33949 -79.69212 -11.472105
-15.869656 -81.649715 -11.256654
-17.043111 -81.250396 -10.098782
-16.63001 -80.364971 -10.819329
-11.200289 -82.229534 -7.569365
-11.985632 -80.858635 -8.702041
-12.196525 -80.838108 -6.877389
-10.246033 -83.890251 -6.477799
-10.035139 -83.910778 -8.302452
-11.200289 -82.229534 -7.569365
-9.590845 -82.760105 -4.89346
-8.425695 -84.441349 -5.626546
-10.246033 -83.890251 -6.477799
-8.942994 -81.477043 -3.742952
-9.590845 -82.760105 -4.89346
-10.763331 -80.925945 -4.594205
-23.577264 -58.030178 -5.207541
-22.228737 -59.20046 -5.171889
-22.946607 -59.762324 -5.178387
-24.100399 -56.219848 -5.074516
-23.577264 -58.030178 -5.207541
-24.818269 -56.781712 -5.081012
-25.232886 -58.409229 -6.713425
-24.139348 -59.629257 -6.998455
-24.23609 -59.249699 -7.523973
-26.29717 -57.451748 -6.100278
-25.232886 -58.409229 -6.713425
-26.393912 -57.07219 -6.625796
-27.094894 -56.050988 -5.543001
-25.933867 -57.388027 -5.63063
-26.29717 -57.451748 -6.100278
-31.444207 -47.588594 -6.194803
-30.284157 -48.559607 -5.671558
-31.338096 -49.174477 -6.02612
-32.447178 -46.689187 -6.738259
-31.393239 -46.074316 -6.383697
-31.444207 -47.588594 -6.194803
-32.171471 -49.804806 -6.473276
-32.742044 -50.497816 -7.17458
-33.331786 -45.76911 -7.519693
-32.447178 -46.689187 -6.738259
-34.167551 -44.790245 -8.375374
-33.231976 -44.196043 -7.782834
-33.331786 -45.76911 -7.519693
-34.766613 -43.828901 -9.436221
-34.167551 -44.790245 -8.375374
-35.37159 -42.903256 -10.479849
-34.672718 -42.291533 -9.682143
-34.766613 -43.828901 -9.436221
-29.879624 -62.341212 -7.054593
-29.431847 -63.893243 -6.273038
-30.588017 -63.339447 -7.204839
-29.351407 -61.407942 -6.719063
-29.879624 -62.341212 -7.054593
-35.806496 -41.77665 -11.743566
-35.37159 -42.903256 -10.479849
-35.741528 -40.291747 -11.769392
-35.806496 -41.77665 -11.743566
3 0 56 54
3 0 58 56
3 1 61 59
3 1 63 61
3 2 66 64
3 2 68 66
3 3 205 207
3 205 70 206
3 205 206 207
3 3 72 70
3 3 74 72
3 4 208 209
3 4 210 211
3 5 212 214
3 212 75 213
3 212 213 214
3 6 215 217
3 217 216 76
3 215 216 217
3 6 218 219
3 6 220 222
3 220 77 221
3 220 221 222
3 7 80 78
3 7 82 80
3 8 223 225
3 225 224 84
3 223 224 225
3 8 226 227
3 8 228 230
3 228 85 229
3 228 229 230
3 9 88 86
3 9 90 88
3 10 231 233
3 233 232 91
3 231 232 233
3 10 234 235
3 10 236 238
3 236 93 237
3 236 237 238
3 11 96 94
3 11 98 96
3 12 101 99
3 12 103 101
3 13 106 105
3 13 108 106
3 13 110 108
3 14 113 111
3 14 115 113
3 14 239 241
3 241 240 115
3 239 240 241
3 15 119 117
3 17 120 55
3 17 121 120
3 17 123 121
3 19 124 57
3 19 125 124
3 20 242 244
3 242 126 243
3 242 243 244
3 21 127 60
3 21 128 127
3 21 130 128
3 23 131 62
3 23 132 131
3 24 133 65
3 24 134 133
3 24 136 134
3 26 137 67
3 26 138 137
3 27 141 139
3 245 142 246
3 248 247 142
3 249 143 250
3 30 144 69
3 30 145 144
3 30 147 145
3 32 148 71
3 32 149 148
3 32 151 149
3 251 152 252
3 253 252 73
3 251 252 253
3 255 254 152
3 256 153 257
3 259 258 153
3 34 260 262
3 260 154 261
3 260 261 262
3 34 155 154
3 16 158 118
3 18 159 122
3 36 160 79
3 36 263 265
3 265 264 160
3 263 264 265
3 36 266 268
3 266 161 267
3 266 267 268
3 37 162 81
3 37 163 162
3 270 269 83
3 38 271 272
3 38 273 274
3 22 164 129
3 39 165 87
3 39 166 165
3 39 167 166
3 40 168 89
3 40 169 168
3 41 170 92
3 41 171 170
3 25 172 135
3 42 173 95
3 42 174 173
3 42 175 174
3 43 176 97
3 43 177 176
3 28 178 140
3 44 179 100
3 44 275 277
3 277 276 179
3 275 276 277
3 44 278 280
3 278 180 279
3 278 279 280
3 45 181 102
3 45 182 181
3 35 183 156
3 46 184 104
3 46 185 184
3 29 281 282
3 47 283 285
3 283 186 284
3 283 284 285
3 47 187 186
3 47 188 187
3 48 286 288
3 288 287 107
3 286 287 288
3 48 289 291
3 289 189 290
3 289 290 291
3 48 190 189
3 49 191 109
3 49 192 191
3 31 193 146
3 50 194 112
3 50 195 194
3 50 196 195
3 51 197 114
3 51 198 197
3 51 199 198
3 52 292 294
3 292 200 293
3 292 293 294
3 52 201 200
3 33 202 150
3 53 203 116
3 53 204 203
3 53 295 297
3 297 296 204
3 295 296 297
3 299 298 157
3 54 55 15
3 56 55 54
3 56 17 55
3 56 57 17
3 58 57 56
3 58 19 57
3 59 60 20
3 61 60 59
3 61 21 60
3 61 62 21
3 63 62 61
3 63 23 62
3 64 300 302
3 300 65 301
3 300 301 302
3 66 65 64
3 66 24 65
3 66 67 24
3 68 67 66
3 68 26 67
3 304 303 27
3 305 69 306
3 70 307 309
3 307 69 308
3 307 308 309
3 70 30 69
3 70 71 30
3 72 71 70
3 72 32 71
3 72 73 32
3 74 73 72
3 74 310 312
3 312 311 73
3 310 311 312
3 313 34 314
3 75 315 317
3 315 316 317
3 75 318 319
3 76 320 322
3 322 321 16
3 320 321 322
3 324 323 76
3 77 325 326
3 77 327 328
3 78 79 18
3 80 79 78
3 80 36 79
3 80 81 36
3 82 81 80
3 82 37 81
3 329 83 330
3 331 83 332
3 334 333 83
3 84 335 336
3 338 337 84
3 85 339 340
3 85 341 343
3 341 38 342
3 341 342 343
3 86 87 22
3 88 87 86
3 88 39 87
3 88 89 39
3 90 89 88
3 90 40 89
3 91 344 345
3 347 346 91
3 348 92 349
3 93 350 352
3 350 92 351
3 350 351 352
3 93 41 92
3 94 95 25
3 96 95 94
3 96 42 95
3 96 97 42
3 98 97 96
3 98 43 97
3 99 100 28
3 101 100 99
3 101 44 100
3 101 102 44
3 103 102 101
3 103 45 102
3 353 104 354
3 355 354 35
3 353 354 355
3 356 104 357
3 358 46 359
3 360 359 104
3 358 359 360
3 105 361 363
3 363 362 29
3 361 362 363
3 106 364 366
3 366 365 105
3 364 365 366
3 106 367 369
3 367 47 368
3 367 368 369
3 106 107 47
3 108 107 106
3 108 48 107
3 108 109 48
3 110 109 108
3 110 49 109
3 111 112 31
3 113 112 111
3 113 50 112
3 113 114 50
3 115 114 113
3 115 51 114
3 115 370 372
3 372 371 51
3 370 371 372
3 374 373 115
3 375 52 376
3 377 116 378
3 379 378 33
3 377 378 379
3 380 116 381
3 382 53 383
3 384 383 116
3 382 383 384
3 386 385 53
3 117 118 5
3 119 118 117
3 119 16 118
3 55 119 15
3 120 119 55
3 120 16 119
3 120 76 16
3 121 76 120
3 121 6 76
3 121 122 6
3 123 122 121
3 123 18 122
3 57 123 17
3 124 123 57
3 124 18 123
3 124 78 18
3 125 78 124
3 125 7 78
3 126 387 389
3 387 388 389
3 126 390 391
3 60 126 20
3 127 126 60
3 127 392 394
3 394 393 126
3 392 393 394
3 127 395 397
3 395 84 396
3 395 396 397
3 128 84 127
3 128 8 84
3 128 129 8
3 130 129 128
3 130 22 129
3 62 130 21
3 131 130 62
3 131 22 130
3 131 86 22
3 132 86 131
3 132 9 86
3 65 398 399
3 133 400 402
3 402 401 65
3 400 401 402
3 133 403 404
3 133 405 407
3 405 91 406
3 405 406 407
3 134 91 133
3 134 10 91
3 134 135 10
3 136 135 134
3 136 25 135
3 67 136 24
3 137 136 67
3 137 25 136
3 137 94 25
3 138 94 137
3 138 11 94
3 139 408 410
3 408 140 409
3 408 409 410
3 141 140 139
3 141 28 140
3 411 141 412
3 413 412 27
3 411 412 413
3 142 414 416
3 414 141 415
3 414 415 416
3 142 28 141
3 142 99 28
3 417 99 418
3 419 418 142
3 417 418 419
3 420 12 421
3 422 421 99
3 420 421 422
3 143 423 424
3 143 425 427
3 425 29 426
3 425 426 427
3 69 428 430
3 428 143 429
3 428 429 430
3 144 143 69
3 144 29 143
3 144 105 29
3 145 105 144
3 145 13 105
3 145 146 13
3 147 146 145
3 147 31 146
3 71 147 30
3 148 147 71
3 148 31 147
3 148 111 31
3 149 111 148
3 149 14 111
3 149 150 14
3 151 150 149
3 151 33 150
3 73 151 32
3 152 151 73
3 152 33 151
3 152 431 433
3 433 432 33
3 431 432 433
3 435 434 152
3 436 20 437
3 153 438 439
3 153 440 442
3 440 20 441
3 440 441 442
3 153 59 20
3 443 59 444
3 445 444 153
3 443 444 445
3 446 1 447
3 448 447 59
3 446 447 448
3 154 449 450
3 154 451 452
3 154 453 455
3 453 64 454
3 453 454 455
3 155 64 154
3 155 2 64
3 456 156 457
3 458 156 459
3 460 35 461
3 462 461 156
3 460 461 462
3 463 35 464
3 466 465 35
3 467 3 468
3 469 157 470
3 471 470 3
3 469 470 471
3 472 157 473
3 475 474 157
3 118 75 5
3 158 75 118
3 158 476 478
3 478 477 75
3 476 477 478
3 479 158 480
3 481 480 16
3 479 480 481
3 482 158 483
3 485 484 158
3 122 77 6
3 159 77 122
3 159 486 488
3 488 487 77
3 486 487 488
3 79 159 18
3 160 159 79
3 160 489 491
3 491 490 159
3 489 490 491
3 160 492 493
3 495 494 160
3 161 496 497
3 161 498 499
3 81 161 36
3 162 161 81
3 162 500 502
3 502 501 161
3 500 501 502
3 162 503 504
3 163 505 507
3 507 506 162
3 505 506 507
3 163 508 510
3 508 4 509
3 508 509 510
3 83 511 512
3 514 513 83
3 515 139 516
3 517 139 518
3 519 27 520
3 521 520 139
3 519 520 521
3 522 27 523
3 525 524 27
3 526 5 527
3 129 85 8
3 164 85 129
3 164 38 85
3 87 164 22
3 165 164 87
3 165 38 164
3 165 528 530
3 530 529 38
3 528 529 530
3 166 531 533
3 533 532 165
3 531 532 533
3 166 534 536
3 534 5 535
3 534 535 536
3 166 117 5
3 167 117 166
3 167 15 117
3 89 167 39
3 168 167 89
3 168 15 167
3 168 54 15
3 169 54 168
3 169 0 54
3 537 1 538
3 539 1 540
3 541 63 542
3 543 542 1
3 541 542 543
3 544 63 545
3 546 23 547
3 548 547 63
3 546 547 548
3 92 549 550
3 170 551 553
3 553 552 92
3 551 552 553
3 170 554 556
3 554 23 555
3 554 555 556
3 170 132 23
3 171 132 170
3 171 9 132
3 135 93 10
3 172 93 135
3 172 41 93
3 95 172 25
3 173 172 95
3 173 41 172
3 173 171 41
3 174 171 173
3 174 9 171
3 174 90 9
3 175 90 174
3 175 40 90
3 97 175 42
3 176 175 97
3 176 40 175
3 176 169 40
3 177 169 176
3 177 0 169
3 140 557 558
3 178 559 561
3 561 560 140
3 559 560 561
3 178 562 563
3 100 178 28
3 179 178 100
3 179 564 566
3 566 565 178
3 564 565 566
3 179 567 568
3 570 569 179
3 180 571 572
3 180 573 575
3 573 34 574
3 573 574 575
3 102 180 44
3 181 180 102
3 181 34 180
3 181 155 34
3 182 155 181
3 182 2 155
3 156 576 577
3 183 578 580
3 580 579 156
3 578 579 580
3 183 581 582
3 104 183 35
3 184 183 104
3 184 583 585
3 585 584 183
3 583 584 585
3 184 586 587
3 185 588 590
3 590 589 184
3 588 589 590
3 185 591 593
3 591 12 592
3 591 592 593
3 594 46 595
3 597 596 29
3 186 598 599
3 186 600 602
3 600 46 601
3 600 601 602
3 186 185 46
3 187 185 186
3 187 12 185
3 187 103 12
3 188 103 187
3 188 45 103
3 107 188 47
3 603 188 604
3 605 604 107
3 603 604 605
3 606 45 607
3 608 607 188
3 606 607 608
3 609 182 610
3 611 610 45
3 609 610 611
3 189 612 614
3 612 182 613
3 612 613 614
3 189 2 182
3 189 68 2
3 190 68 189
3 190 26 68
3 109 190 48
3 191 190 109
3 191 26 190
3 191 138 26
3 192 138 191
3 192 11 138
3 146 110 13
3 193 110 146
3 193 49 110
3 112 193 31
3 194 193 112
3 194 49 193
3 194 192 49
3 195 192 194
3 195 11 192
3 195 98 11
3 196 98 195
3 196 43 98
3 114 196 50
3 197 196 114
3 197 43 196
3 197 177 43
3 198 177 197
3 198 0 177
3 198 58 0
3 199 58 198
3 199 19 58
3 615 199 616
3 617 616 51
3 615 616 617
3 200 618 620
3 618 199 619
3 618 619 620
3 200 19 199
3 200 125 19
3 201 125 200
3 201 7 125
3 150 621 623
3 623 622 14
3 621 622 623
3 202 624 626
3 626 625 150
3 624 625 626
3 202 627 629
3 627 52 628
3 627 628 629
3 116 202 33
3 203 202 116
3 203 52 202
3 203 201 52
3 204 201 203
3 204 7 201
3 204 82 7
3 630 82 631
3 632 631 204
3 630 631 632
3 633 37 634
3 635 634 82
3 633 634 635
3 637 636 53
3 638 37 639
3 640 163 641
3 642 641 37
3 640 641 642
3 643 163 644
3 645 4 646
3 647 646 163
3 645 646 647
3 157 74 3
3 648 74 649
3 650 649 157
3 648 649 650
3 652 651 74
3 653 4 654
3 656 655 4
