ply
format ascii 1.0
element vertex 283
property float x
property float y
property float z
element face 242
property list uchar int vertex_index
end_header
33.76878 1.3765 -17.474247
25.087528 -6.34914 -34.370319
29.694996 -0.398632 -13.549463
26.231098 2.672539 -36.622627
22.103561 -9.322348 -30.195551
32.321529 0.459575 -14.668363
34.418251 -1.487789 -21.896082
34.328632 3.134687 -21.683659
32.827393 2.241545 -26.131107
29.76479 1.399878 -27.926279
26.783228 -0.508207 -28.73555
26.246958 -1.503384 -35.316448
31.530981 -1.709933 -36.348946
31.598059 3.738086 -15.26308
30.948284 3.620448 -14.122584
33.360828 0.895701 -15.912111
34.059563 -1.275486 -17.925983
34.551346 -0.420815 -19.735638
27.802719 -6.42867 -33.645714
28.710413 -3.185969 -15.055529
30.257452 -3.086409 -15.099704
34.470558 4.135471 -18.956339
34.115051 3.49755 -28.568958
32.340748 3.719126 -29.981812
31.382019 1.954185 -27.310083
30.469471 3.736674 -31.081793
27.173498 2.137046 -32.277382
25.771008 1.134794 -32.623775
25.903687 -1.558151 -29.982395
24.891577 -0.077195 -33.397419
24.434885 -1.967994 -33.548897
26.440899 0.780574 -36.226036
23.75687 -5.963489 -33.452843
30.933569 0.033752 -14.015402
31.586166 -2.461273 -15.732671
32.808796 -1.904888 -16.671204
33.944244 -2.508354 -20.397152
27.883419 3.748334 -38.22089
32.38221 3.792488 -16.304249
33.256233 3.899309 -17.583895
33.827728 2.139112 -19.59907
35.198524 3.542617 -26.243439
33.806664 2.530344 -24.248417
34.051533 0.82347 -22.145823
33.4133 0.213567 -23.946747
32.089828 -0.278379 -25.249586
30.856945 -0.992311 -26.381451
28.806997 3.113481 -31.976025
28.06835 0.69045 -28.171534
24.229235 -4.006332 -33.599056
25.756155 -3.934808 -34.730946
28.811502 1.363328 -36.872654
28.976324 -1.123837 -35.602657
28.576145 -3.640196 -34.270439
31.629009 -4.321279 -34.876431
24.957847 -7.526008 -34.087629
24.074242 -7.15224 -33.591881
26.445124 -6.388905 -34.008016
26.315443 -7.565773 -33.725326
24.957847 -7.526008 -34.087629
28.511967 1.196775 -13.151479
29.171081 1.430007 -13.335448
29.006466 -0.628907 -13.383458
28.511967 1.196775 -13.151479
29.976224 -1.742521 -14.324583
29.287694 -1.972796 -14.158579
29.006466 -0.628907 -13.383458
31.831824 5.214811 -31.301262
33.055532 4.755648 -30.812389
30.896186 5.223585 -31.851253
31.405109 3.7279 -30.531803
31.831824 5.214811 -31.301262
26.001053 1.903666 -34.623201
26.090733 2.756441 -34.271593
26.320778 3.525314 -36.271019
24.012322 -6.132155 -32.761364
23.445164 -6.822688 -32.359126
31.102598 1.985459 -13.990794
30.415976 3.565896 -13.717904
31.634906 2.040011 -14.395473
31.627549 0.246664 -14.341883
30.408618 1.772548 -13.664313
31.102598 1.985459 -13.990794
33.906921 -1.744566 -22.870154
33.669918 -2.254849 -22.120689
34.181247 -1.998072 -21.146617
31.944033 5.18648 -16.095569
31.39876 5.096511 -15.973259
30.960583 6.490503 -15.764578
21.691524 -10.166574 -29.794331
22.096415 -10.113528 -29.327905
29.478553 -4.566817 -16.26307
29.881673 -4.082692 -16.520352
31.932064 -3.402471 -16.965279
32.372982 -2.954745 -17.395314
35.504236 4.256944 -28.128307
36.00206 4.023549 -26.769336
28.033015 4.567047 -33.479115
28.887754 5.034355 -32.875388
28.376516 -1.245977 -28.19604
29.019076 -0.646648 -27.914032
27.425789 0.091122 -28.453542
28.090952 -1.71172 -28.982822
28.376516 -1.245977 -28.19604
27.221836 -2.836957 -30.308059
25.53577 -2.167293 -30.650348
29.324545 2.538809 -38.204817
28.347461 2.555831 -37.546772
28.860504 3.731311 -38.878935
30.253653 -1.416885 -35.975802
30.071007 0.005825 -36.682907
31.348335 -0.287223 -37.056051
31.273172 3.679267 -14.692832
30.233549 4.956872 -14.627079
30.558436 5.01569 -15.197327
22.283592 -9.659094 -30.955985
22.582259 -8.638844 -31.504497
27.883237 -7.724384 -33.307791
26.315443 -7.565773 -33.725326
29.624405 -6.621513 -33.532371
27.883237 -7.724384 -33.307791
28.514174 -2.022576 -14.136491
27.68228 -2.055693 -14.027672
29.483933 -3.136189 -15.077616
28.514174 -2.022576 -14.136491
29.287694 -1.972796 -14.158579
30.655192 -4.032912 -16.542439
29.881673 -4.082692 -16.520352
29.483933 -3.136189 -15.077616
35.232872 4.060545 -19.425055
34.465992 4.969933 -17.687226
35.228306 4.895007 -18.155942
35.081527 3.857168 -20.989276
35.232872 4.060545 -19.425055
35.010565 3.356775 -22.352936
34.399595 3.635079 -20.319999
35.081527 3.857168 -20.989276
33.942684 4.64486 -30.105961
34.962499 4.23441 -29.291066
33.227899 3.608338 -29.275385
33.942684 4.64486 -30.105961
33.055532 4.755648 -30.812389
26.791978 3.257567 -34.098396
27.216265 4.078829 -33.629793
26.472253 1.63592 -32.450579
26.791978 3.257567 -34.098396
26.090733 2.756441 -34.271593
25.029715 -1.426815 -32.357861
25.53577 -2.167293 -30.650348
25.397632 -0.817673 -31.689907
24.663231 -1.022595 -33.473158
24.801369 -2.372214 -32.433599
25.029715 -1.426815 -32.357861
31.752447 -1.290769 -37.733683
31.348335 -0.287223 -37.056051
32.16442 -2.35731 -38.543332
31.942954 -2.776473 -37.158594
31.752447 -1.290769 -37.733683
22.76185 -9.589056 -29.970039
22.096415 -10.113528 -29.327905
22.61851 -8.502118 -30.73048
22.76185 -9.589056 -29.970039
22.582259 -8.638844 -31.504497
22.61851 -8.502118 -30.73048
23.408913 -6.959414 -33.133143
23.445164 -6.822688 -32.359126
24.422199 -6.156315 -33.911581
24.074242 -7.15224 -33.591881
23.408913 -6.959414 -33.133143
29.865634 4.969847 -14.274981
30.233549 4.956872 -14.627079
29.865634 4.969847 -14.274981
30.415976 3.565896 -13.717904
29.790368 1.646199 -13.568417
30.408618 1.772548 -13.664313
30.314282 -0.18244 -13.782432
29.171081 1.430007 -13.335448
29.790368 1.646199 -13.568417
32.984297 -2.676553 -17.86458
32.372982 -2.954745 -17.395314
32.197481 -2.18308 -16.201937
33.552021 -2.978286 -19.727554
32.984297 -2.676553 -17.86458
33.37652 -2.206621 -18.534178
33.862613 -2.922572 -21.568623
33.552021 -2.978286 -19.727554
33.862613 -2.922572 -21.568623
33.669918 -2.254849 -22.120689
26.591231 4.180227 -37.563398
26.320778 3.525314 -36.271019
27.417392 4.718125 -38.362529
27.057258 3.210437 -37.421758
26.591231 4.180227 -37.563398
28.080642 4.817246 -39.223947
27.417392 4.718125 -38.362529
28.860504 3.731311 -38.878935
28.080642 4.817246 -39.223947
31.006684 5.06931 -15.452674
30.558436 5.01569 -15.197327
31.990134 3.765287 -15.783665
31.006684 5.06931 -15.452674
31.39876 5.096511 -15.973259
21.691524 -10.166574 -29.794331
22.283592 -9.659094 -30.955985
28.034751 -3.43365 -14.891365
27.68228 -2.055693 -14.027672
28.034751 -3.43365 -14.891365
29.478553 -4.566817 -16.26307
31.267707 -3.71504 -16.648795
30.921809 -2.773841 -15.416187
31.932064 -3.402471 -16.965279
30.655192 -4.032912 -16.542439
31.267707 -3.71504 -16.648795
33.696142 5.251442 -17.513567
34.465992 4.969933 -17.687226
33.08898 5.133361 -16.827345
33.696142 5.251442 -17.513567
33.863395 4.01739 -18.270117
32.381045 5.239891 -16.735392
33.08898 5.133361 -16.827345
32.819221 3.845899 -16.944072
31.944033 5.18648 -16.095569
32.381045 5.239891 -16.735392
35.44551 3.56074 -24.632826
36.00206 4.023549 -26.769336
34.763578 3.338652 -23.963549
35.010565 3.356775 -22.352936
35.44551 3.56074 -24.632826
34.656788 3.520084 -27.406198
35.504236 4.256944 -28.128307
34.962499 4.23441 -29.291066
32.74271 -1.139861 -24.546906
33.906921 -1.744566 -22.870154
33.254039 -0.883084 -23.572834
32.126269 -1.496827 -25.112839
32.74271 -1.139861 -24.546906
31.473386 -0.635345 -25.815518
31.768512 -1.905336 -26.065895
32.126269 -1.496827 -25.112839
29.718992 5.345951 -32.428272
30.896186 5.223585 -31.851253
29.638234 3.425077 -31.528909
29.718992 5.345951 -32.428272
28.887754 5.034355 -32.875388
27.990247 2.625263 -32.126704
28.033015 4.567047 -33.479115
27.216265 4.078829 -33.629793
30.413374 -1.488028 -27.018991
29.462647 -0.150931 -27.276492
29.019076 -0.646648 -27.914032
31.768512 -1.905336 -26.065895
30.413374 -1.488028 -27.018991
27.651181 -2.236693 -29.606244
28.090952 -1.71172 -28.982822
26.343457 -1.033179 -29.358973
27.651181 -2.236693 -29.606244
27.221836 -2.836957 -30.308059
24.603792 -3.224978 -32.815931
24.801369 -2.372214 -32.433599
24.500967 -4.244147 -32.841011
24.603792 -3.224978 -32.815931
24.33206 -2.987163 -33.573977
24.248505 -5.153576 -32.83447
24.500967 -4.244147 -32.841011
23.993052 -4.98491 -33.525949
24.012322 -6.132155 -32.761364
24.248505 -5.153576 -32.83447
29.988596 1.249408 -37.317905
29.324545 2.538809 -38.204817
28.893913 0.119746 -36.237656
29.988596 1.249408 -37.317905
30.071007 0.005825 -36.682907
31.53755 -5.567818 -34.14773
29.624405 -6.621513 -33.532371
29.715864 -5.374975 -34.261072
31.991968 -4.082147 -36.422337
31.579995 -3.015606 -35.612688
31.942954 -2.776473 -37.158594
31.977129 -5.49933 -36.07782
31.991968 -4.082147 -36.422337
31.88567 -6.745869 -35.349119
31.53755 -5.567818 -34.14773
31.977129 -5.49933 -36.07782
3 0 15 13
3 0 17 15
3 1 55 56
3 1 57 59
3 57 18 58
3 57 58 59
3 2 60 61
3 2 62 63
3 2 64 66
3 64 20 65
3 64 65 66
3 67 23 68
3 69 25 70
3 71 70 23
3 69 70 71
3 3 72 74
3 72 27 73
3 72 73 74
3 3 29 27
3 3 31 29
3 75 32 76
3 5 77 79
3 79 78 14
3 77 78 79
3 5 80 82
3 80 33 81
3 80 81 82
3 5 35 33
3 6 36 16
3 6 83 85
3 85 84 36
3 83 84 85
3 86 38 87
3 86 87 88
3 4 89 90
3 92 91 19
3 94 93 34
3 7 39 21
3 7 40 39
3 95 41 96
3 8 42 22
3 8 43 42
3 8 44 43
3 9 45 24
3 9 46 45
3 97 47 98
3 10 48 26
3 10 99 101
3 101 100 48
3 99 100 101
3 10 102 103
3 105 104 28
3 11 49 30
3 11 50 49
3 106 51 107
3 108 107 37
3 106 107 108
3 12 109 111
3 109 52 110
3 109 110 111
3 12 53 52
3 12 54 53
3 13 112 114
3 112 14 113
3 112 113 114
3 15 14 13
3 15 5 14
3 15 16 5
3 17 16 15
3 17 6 16
3 116 115 4
3 18 117 118
3 18 119 120
3 121 19 122
3 20 123 125
3 123 19 124
3 123 124 125
3 20 126 128
3 128 127 19
3 126 127 128
3 129 21 130
3 129 130 131
3 132 21 133
3 134 7 135
3 136 135 21
3 134 135 136
3 137 22 138
3 23 139 141
3 139 22 140
3 139 140 141
3 23 8 22
3 23 24 8
3 25 24 23
3 25 9 24
3 142 26 143
3 27 144 146
3 144 26 145
3 144 145 146
3 27 10 26
3 27 28 10
3 29 28 27
3 29 147 149
3 149 148 28
3 147 148 149
3 29 150 152
3 150 30 151
3 150 151 152
3 31 30 29
3 31 11 30
3 153 12 154
3 157 156 12
3 155 156 157
3 158 4 159
3 160 4 161
3 163 162 4
3 32 164 165
3 32 166 168
3 166 1 167
3 166 167 168
3 14 169 170
3 172 171 14
3 33 173 174
3 33 175 177
3 175 2 176
3 175 176 177
3 33 34 2
3 35 34 33
3 35 178 180
3 180 179 34
3 178 179 180
3 16 35 5
3 36 35 16
3 36 181 183
3 183 182 35
3 181 182 183
3 36 184 185
3 187 186 36
3 188 3 189
3 190 37 191
3 192 191 3
3 190 191 192
3 193 37 194
3 196 195 37
3 197 13 198
3 38 199 201
3 199 13 200
3 199 200 201
3 38 0 13
3 203 202 4
3 19 204 205
3 207 206 19
3 34 20 2
3 208 20 209
3 210 209 34
3 208 209 210
3 212 211 20
3 21 213 214
3 39 215 217
3 217 216 21
3 215 216 217
3 39 218 219
3 39 220 222
3 220 38 221
3 220 221 222
3 40 38 39
3 40 0 38
3 41 223 224
3 41 225 227
3 225 7 226
3 225 226 227
3 22 228 230
3 228 41 229
3 228 229 230
3 42 41 22
3 42 7 41
3 42 40 7
3 43 40 42
3 43 0 40
3 43 17 0
3 44 17 43
3 44 6 17
3 24 44 8
3 45 44 24
3 45 6 44
3 45 231 233
3 233 232 6
3 231 232 233
3 46 234 236
3 236 235 45
3 234 235 236
3 46 237 238
3 239 25 240
3 47 241 243
3 241 25 242
3 241 242 243
3 47 9 25
3 26 244 246
3 244 47 245
3 244 245 246
3 48 47 26
3 48 9 47
3 48 46 9
3 247 46 248
3 249 248 48
3 247 248 249
3 251 250 46
3 28 252 254
3 254 253 10
3 252 253 254
3 256 255 28
3 30 257 258
3 49 259 261
3 261 260 30
3 259 260 261
3 49 262 263
3 49 264 266
3 264 32 265
3 264 265 266
3 50 32 49
3 50 1 32
3 37 31 3
3 51 31 37
3 51 11 31
3 267 51 268
3 52 269 271
3 269 51 270
3 269 270 271
3 52 11 51
3 52 50 11
3 53 50 52
3 53 1 50
3 53 18 1
3 54 18 53
3 54 272 274
3 274 273 18
3 272 273 274
3 275 54 276
3 277 276 12
3 275 276 277
3 278 54 279
3 282 281 54
3 280 281 282
