ply
format ascii 1.0
element vertex 412
property float x
property float y
property float z
element face 436
property list uchar int vertex_index
end_header
43.138824 -29.697422 21.654692
58.209145 -26.415277 28.041006
58.229534 -20.319414 20.343973
34.787563 -23.741686 20.744196
46.543926 -34.646843 27.620752
42.894363 -22.018707 19.050335
50.908318 -21.811922 17.226109
50.305691 -25.820166 25.092615
52.68681 -31.734577 32.52702
60.720924 -27.016895 36.642014
36.586109 -33.874916 19.5443
56.611279 -23.603487 24.771109
54.00119 -23.590832 22.465584
54.080482 -26.463327 27.264444
51.373253 -29.367809 28.32139
55.64389 -28.710968 30.268768
58.745502 -30.677505 38.535652
43.210747 -25.666943 21.334839
38.52853 -27.298355 22.121296
39.379772 -31.832172 22.269016
32.43021 -24.112963 18.153728
44.183563 -31.364038 25.577078
41.981506 -34.881813 23.200933
46.825615 -21.757479 18.510269
46.996948 -25.350113 20.115431
55.03933 -21.165478 18.057621
50.482208 -24.303661 20.455389
46.957504 -27.550838 22.636566
47.456116 -29.649612 26.939915
49.106747 -33.3675 30.515335
60.33083 -27.075924 31.641163
57.4562 -29.297806 34.430916
38.606152 -22.929516 20.311314
34.381977 -29.262623 21.03945
57.149498 -25.312933 26.679569
55.263783 -24.980536 26.117893
56.172035 -26.581324 27.614475
54.853951 -27.88348 28.406219
56.953808 -27.632359 29.245813
42.989681 -28.020666 20.672476
40.88509 -28.588955 21.575079
41.195808 -30.534962 22.139978
33.341267 -23.947735 19.694469
31.978405 -26.769085 17.973598
32.729439 -26.748663 19.554615
45.207172 -32.99118 26.66222
44.210857 -34.615814 25.297316
45.83659 -35.921387 25.744558
48.874767 -21.847683 17.864553
47.057549 -23.369114 19.761066
48.855621 -23.198051 19.171656
59.224648 -19.316635 18.347361
57.578716 -19.684933 17.24951
56.738384 -20.494137 19.108749
52.084923 -24.741299 23.795551
52.305958 -23.769423 21.294161
50.282143 -25.335238 22.3251
48.647682 -26.254065 21.029408
48.681873 -26.467707 23.66247
46.989967 -28.123407 25.057896
48.873688 -27.614202 25.917582
52.075294 -30.74342 30.160873
50.061241 -31.099039 29.48407
50.735798 -32.630913 31.63508
60.872242 -27.009399 33.976536
59.186951 -28.102667 32.949047
59.569355 -28.09992 35.386967
56.828564 -32.07494 36.988026
40.535088 -22.468496 19.430111
36.834953 -30.992565 21.790997
36.322746 -28.49176 21.919273
35.236122 -31.785397 20.51075
34.388222 -31.776718 18.585821
36.022629 -33.704666 17.25028
41.224022 -36.103935 20.910206
57.120625 -21.836588 22.658628
55.813515 -21.773388 21.695009
55.352684 -23.481716 23.663345
53.720592 -24.580053 25.121077
52.189678 -26.04953 26.436264
50.830181 -27.689005 26.829004
52.829437 -27.882605 27.656673
53.512768 -29.180111 29.260733
54.17878 -30.243967 31.15593
59.794075 -28.631552 38.008003
59.98996 -29.505825 40.109413
43.195259 -23.501244 20.829155
40.709766 -24.156401 21.091831
40.842468 -26.328491 21.869877
38.783554 -29.709024 22.065964
37.786999 -33.106823 21.358326
60.486603 -19.019741 19.766834
59.224632 -20.259493 21.774784
57.879265 -21.716427 24.020725
57.80901 -23.748804 26.003546
58.987171 -25.097485 27.209167
31.710428 -26.613556 15.948761
43.426048 -30.045864 24.079319
41.847115 -31.825378 23.702011
42.859467 -33.149124 24.704441
43.625599 -35.999126 23.368748
44.815502 -21.739445 18.878269
45.147011 -23.368755 20.473278
45.126129 -25.531788 20.661018
44.988258 -27.680532 20.053129
52.99482 -21.805851 17.252071
54.240807 -21.884979 20.786823
52.591164 -22.348272 19.904522
50.770527 -23.031641 19.171501
48.819111 -24.940872 19.988087
46.943718 -27.180521 20.1359
45.084362 -28.773911 21.854849
45.224426 -28.902445 24.448734
45.709393 -30.403559 26.238621
46.600227 -32.057587 27.722464
49.411507 -29.380487 27.620382
48.244926 -31.427414 28.641541
47.722443 -33.949291 29.161072
59.973957 -25.554302 28.58075
59.692482 -24.979935 31.739712
60.538269 -25.807993 30.508448
59.303997 -26.976999 29.785358
58.183006 -28.054428 30.954159
56.753479 -29.259424 32.346687
55.109932 -30.584204 33.2873
57.865131 -29.756836 36.683685
55.892956 -31.104696 35.453411
53.697563 -32.67321 34.433624
36.736889 -23.426233 20.959335
38.422825 -25.185883 21.350491
36.27166 -25.982838 21.479628
34.270023 -26.582798 20.896976
33.090416 -29.469229 19.375254
40.542339 -33.574608 22.797573
39.319935 -34.906738 21.063532
38.484169 -35.526146 18.629526
34.064415 -23.844711 20.219333
34.460997 -22.438648 20.453965
35.184145 -22.335624 20.978828
49.891542 -21.829802 17.545331
49.989431 -20.747791 17.668785
51.006207 -20.72991 17.349563
52.320902 -32.941723 32.97349
51.345396 -33.389891 32.52752
51.711304 -32.182745 32.08105
60.682045 -26.434562 36.057135
60.444593 -26.467491 37.495251
60.796583 -27.013147 35.309275
60.757704 -26.430814 34.724396
60.682045 -26.434562 36.057135
41.714726 -22.243601 19.240223
41.800345 -21.153208 18.946479
42.979982 -20.928313 18.756591
59.95583 -28.92715 40.922007
60.20521 -28.483178 39.800956
61.41796 -18.222546 20.030352
60.89658 -18.38691 19.375107
59.26725 -19.993015 22.576092
60.140215 -19.415186 21.666295
60.182833 -19.148709 22.467602
58.594566 -20.721483 23.699062
58.551948 -20.98796 22.897754
59.26725 -19.993015 22.576092
58.130324 -23.539552 26.617133
57.849156 -22.57981 25.770449
58.719404 -24.213893 27.219943
58.39809 -24.423144 26.606357
58.130324 -23.539552 26.617133
32.878267 -22.713532 18.286408
33.30473 -22.61816 19.101384
32.253965 -24.179519 17.167226
32.878267 -22.713532 18.286408
32.070319 -25.363259 17.051244
31.894074 -25.429816 16.064743
32.253965 -24.179519 17.167226
32.309545 -27.730911 16.75194
32.25041 -27.941401 17.70099
44.574934 -36.486736 23.396496
43.918228 -35.30747 24.333032
44.867563 -35.79508 24.36078
45.567019 -37.183511 22.084107
44.617683 -36.695901 22.056359
44.574934 -36.486736 23.396496
46.845146 -20.702497 18.291159
47.87912 -20.688685 18.272788
45.820559 -21.748462 18.694269
45.84009 -20.69348 18.47516
46.845146 -20.702497 18.291159
55.248974 -20.468907 17.386356
56.518667 -19.728634 16.982301
56.309023 -20.425206 17.653565
54.017075 -21.485664 17.654846
54.226719 -20.789093 16.983581
55.248974 -20.468907 17.386356
49.190331 -34.604557 30.375542
48.498178 -34.895453 29.69841
48.414595 -33.658395 29.838203
59.885666 -25.022163 29.144186
59.658579 -24.797891 28.456179
59.639698 -25.125455 32.944544
58.863737 -24.875664 32.290186
60.43455 -26.441958 31.074806
60.665325 -25.840873 31.686048
60.561605 -26.474839 32.252405
55.484585 -32.448994 35.620205
56.36076 -31.589818 36.220719
55.952389 -32.934117 36.387512
54.386888 -33.233251 35.110312
54.79526 -31.888953 34.943517
55.484585 -32.448994 35.620205
53.703467 -34.005592 34.414165
54.386888 -33.233251 35.110312
38.9734 -21.701895 20.732864
39.8902 -21.509028 20.097496
37.67152 -23.177875 20.635324
38.038769 -21.950254 21.056875
38.9734 -21.701895 20.732864
34.351211 -31.416814 17.563904
35.300354 -32.232382 16.86824
40.043804 -35.750095 19.552526
40.271979 -35.505336 20.986869
40.995847 -36.348693 19.475862
39.625921 -36.059799 18.335522
38.902052 -35.216442 19.846529
40.043804 -35.750095 19.552526
33.760258 -22.535546 19.871755
34.460997 -22.438648 20.453965
32.885739 -24.030349 18.924098
33.30473 -22.61816 19.101384
33.760258 -22.535546 19.871755
32.625927 -27.93119 18.491499
32.25041 -27.941401 17.70099
32.353922 -26.758874 18.764106
45.68043 -36.447867 24.584401
44.867563 -35.79508 24.36078
45.023724 -35.268601 25.520937
48.903696 -20.733787 17.94993
49.989431 -20.747791 17.668785
47.850191 -21.802581 18.187411
47.87912 -20.688685 18.272788
48.903696 -20.733787 17.94993
58.401682 -19.500784 17.798436
58.605245 -18.798283 17.742825
59.428212 -18.614134 18.29175
50.638207 -33.837027 31.797568
49.823681 -34.20532 31.237696
49.921273 -32.999206 31.075207
50.638207 -33.837027 31.797568
51.345396 -33.389891 32.52752
60.832312 -26.441576 33.420091
60.757704 -26.430814 34.724396
60.601536 -27.042662 32.80885
60.561605 -26.474839 32.252405
60.832312 -26.441576 33.420091
57.464395 -32.61322 37.548085
57.787033 -31.376222 37.761839
58.422865 -31.914503 38.321897
56.984838 -33.434873 36.730947
57.464395 -32.61322 37.548085
55.952389 -32.934117 36.387512
56.984838 -33.434873 36.730947
40.854668 -21.278517 19.656894
41.800345 -21.153208 18.946479
39.57062 -22.699006 19.870712
39.8902 -21.509028 20.097496
40.854668 -21.278517 19.656894
36.117558 -33.196356 16.20047
35.300354 -32.232382 16.86824
35.205426 -32.740692 17.91805
42.303812 -36.495472 20.861353
41.602764 -35.492874 22.055569
42.682554 -35.884411 22.006716
42.177605 -36.548876 19.414364
42.303812 -36.495472 20.861353
40.995847 -36.348693 19.475862
42.177605 -36.548876 19.414364
36.037824 -22.242148 21.184231
35.184145 -22.335624 20.978828
47.24843 -35.882914 26.813092
47.420868 -35.530659 28.012076
52.072913 -20.796218 17.032593
51.006207 -20.72991 17.349563
60.570692 -27.238713 38.067257
60.444593 -26.467491 37.495251
60.107267 -28.046042 38.750252
60.257499 -27.824224 37.325009
60.570692 -27.238713 38.067257
59.892018 -29.068689 39.058708
60.107267 -28.046042 38.750252
60.20521 -28.483178 39.800956
59.842472 -30.071806 40.896916
59.95583 -28.92715 40.922007
59.681195 -30.6394 39.991583
59.842472 -30.071806 40.896916
59.058965 -31.22524 39.204702
59.367731 -30.091665 39.322533
59.681195 -30.6394 39.991583
58.422865 -31.914503 38.321897
59.058965 -31.22524 39.204702
60.265602 -18.535356 18.66537
59.428212 -18.614134 18.29175
59.855626 -19.168188 19.057097
60.265602 -18.535356 18.66537
60.89658 -18.38691 19.375107
60.771201 -18.79531 20.66232
61.41796 -18.222546 20.030352
61.702557 -17.998116 20.925838
59.855618 -19.639617 20.770809
60.771201 -18.79531 20.66232
60.140215 -19.415186 21.666295
57.884283 -21.563621 24.779038
58.594566 -20.721483 23.699062
58.599585 -20.568677 24.457375
57.844138 -22.732616 25.012135
57.884283 -21.563621 24.779038
57.849156 -22.57981 25.770449
31.770579 -26.60984 14.802289
31.894074 -25.429816 16.064743
32.373069 -27.458783 14.752742
31.770579 -26.60984 14.802289
32.175557 -27.653147 15.739522
31.844417 -26.69132 16.96118
32.309545 -27.730911 16.75194
32.373069 -27.458783 14.752742
32.175557 -27.653147 15.739522
43.504601 -36.443067 22.090624
42.682554 -35.884411 22.006716
42.803553 -35.440469 23.284841
43.504601 -36.443067 22.090624
44.617683 -36.695901 22.056359
46.894762 -36.520185 25.874995
46.190258 -35.284115 26.682655
47.24843 -35.882914 26.813092
46.88154 -36.757283 24.607061
46.894762 -36.520185 25.874995
45.68043 -36.447867 24.584401
46.88154 -36.757283 24.607061
43.899299 -20.891441 18.536721
42.979982 -20.928313 18.756591
44.859869 -20.75181 18.450688
45.84009 -20.69348 18.47516
43.854933 -21.879076 18.964302
43.899299 -20.891441 18.536721
44.859869 -20.75181 18.450688
57.578323 -18.693179 17.723357
58.605245 -18.798283 17.742825
57.578323 -18.693179 17.723357
56.518667 -19.728634 16.982301
53.116163 -20.793183 17.045574
54.226719 -20.789093 16.983581
51.951569 -21.808886 17.23909
52.072913 -20.796218 17.032593
53.116163 -20.793183 17.045574
48.010126 -35.181883 28.782236
47.420868 -35.530659 28.012076
47.133184 -34.298067 28.390912
48.010126 -35.181883 28.782236
48.498178 -34.895453 29.69841
49.190331 -34.604557 30.375542
49.823681 -34.20532 31.237696
59.165186 -24.569482 27.770387
58.719404 -24.213893 27.219943
59.480564 -25.325893 27.894959
59.165186 -24.569482 27.770387
59.658579 -24.797891 28.456179
58.964924 -24.465981 31.328693
58.863737 -24.875664 32.290186
59.744929 -24.73498 30.723668
58.964924 -24.465981 31.328693
60.242431 -25.426844 32.301679
59.639698 -25.125455 32.944544
60.115375 -25.393964 31.12408
60.242431 -25.426844 32.301679
60.665325 -25.840873 31.686048
60.167822 -25.149009 30.108035
59.744929 -24.73498 30.723668
60.115375 -25.393964 31.12408
60.256113 -25.681148 29.544599
59.885666 -25.022163 29.144186
60.167822 -25.149009 30.108035
52.826279 -33.41104 33.926792
52.320902 -32.941723 32.97349
53.192187 -32.203893 33.480322
52.826279 -33.41104 33.926792
53.703467 -34.005592 34.414165
37.012487 -22.084422 21.291801
38.038769 -21.950254 21.056875
35.762226 -23.583959 20.851765
36.037824 -22.242148 21.184231
37.012487 -22.084422 21.291801
32.806415 -29.291473 18.401819
32.625927 -27.93119 18.491499
32.909927 -28.108946 19.464934
33.702309 -30.26307 17.958621
33.739319 -30.622974 18.980538
34.351211 -31.416814 17.563904
32.806415 -29.291473 18.401819
33.702309 -30.26307 17.958621
39.523451 -35.757133 16.942433
39.625921 -36.059799 18.335522
38.33672 -35.348875 17.293968
39.523451 -35.757133 16.942433
37.38769 -34.52326 17.751354
37.535139 -34.700531 19.086913
38.33672 -35.348875 17.293968
37.10595 -34.438135 16.604344
36.304369 -33.789791 18.39729
37.38769 -34.52326 17.751354
37.231919 -33.809551 15.424009
37.10595 -34.438135 16.604344
36.117558 -33.196356 16.20047
37.231919 -33.809551 15.424009
3 1 36 34
3 1 38 36
3 0 41 39
3 3 136 138
3 136 42 137
3 136 137 138
3 3 44 42
3 4 47 45
3 6 139 141
3 139 48 140
3 139 140 141
3 6 50 48
3 2 53 51
3 7 56 54
3 7 58 56
3 7 60 58
3 8 63 61
3 8 142 144
3 144 143 63
3 142 143 144
3 9 145 146
3 9 147 149
3 147 64 148
3 147 148 149
3 9 66 64
3 5 150 152
3 150 68 151
3 150 151 152
3 10 71 69
3 10 73 71
3 11 77 75
3 13 78 35
3 13 79 78
3 13 81 79
3 15 82 37
3 15 83 82
3 153 85 154
3 17 88 86
3 19 89 40
3 19 90 89
3 155 91 156
3 157 92 158
3 157 158 159
3 160 93 161
3 162 161 92
3 160 161 162
3 163 94 164
3 165 95 166
3 167 166 94
3 165 166 167
3 20 168 169
3 20 170 171
3 20 172 174
3 172 96 173
3 172 173 174
3 176 175 43
3 21 99 97
3 177 100 178
3 179 178 46
3 177 178 179
3 182 181 100
3 180 181 182
3 23 183 184
3 23 185 187
3 185 101 186
3 185 186 187
3 23 102 101
3 24 103 49
3 24 104 103
3 25 188 190
3 190 189 52
3 188 189 190
3 25 191 193
3 191 105 192
3 191 192 193
3 12 106 76
3 26 107 55
3 26 108 107
3 26 109 108
3 27 110 57
3 27 111 110
3 27 112 111
3 28 113 59
3 28 114 113
3 14 115 80
3 29 116 62
3 29 117 116
3 29 194 196
3 196 195 117
3 194 195 196
3 197 118 198
3 199 119 200
3 30 201 203
3 201 120 202
3 201 202 203
3 30 121 120
3 30 122 121
3 31 123 65
3 31 124 123
3 16 125 84
3 204 126 205
3 206 205 67
3 204 205 206
3 207 127 208
3 209 208 126
3 207 208 209
3 211 210 127
3 32 212 213
3 32 214 216
3 214 128 215
3 214 215 216
3 18 129 87
3 33 130 70
3 33 131 130
3 33 132 131
3 218 217 72
3 22 133 98
3 219 134 220
3 221 220 74
3 219 220 221
3 222 135 223
3 224 223 134
3 222 223 224
3 34 35 11
3 36 35 34
3 36 13 35
3 36 37 13
3 38 37 36
3 38 15 37
3 39 40 17
3 41 40 39
3 41 19 40
3 42 225 226
3 42 227 229
3 227 20 228
3 227 228 229
3 42 43 20
3 44 43 42
3 44 230 232
3 232 231 43
3 230 231 232
3 45 46 21
3 47 46 45
3 47 233 235
3 235 234 46
3 233 234 235
3 48 236 237
3 48 238 240
3 238 23 239
3 238 239 240
3 48 49 23
3 50 49 48
3 50 24 49
3 51 241 243
3 241 52 242
3 241 242 243
3 53 52 51
3 53 25 52
3 54 55 12
3 56 55 54
3 56 26 55
3 56 57 26
3 58 57 56
3 58 27 57
3 58 59 27
3 60 59 58
3 60 28 59
3 61 62 14
3 63 62 61
3 63 29 62
3 63 244 246
3 246 245 29
3 244 245 246
3 248 247 63
3 64 249 250
3 64 251 253
3 251 30 252
3 251 252 253
3 64 65 30
3 66 65 64
3 66 31 65
3 254 67 255
3 256 255 16
3 254 255 256
3 257 67 258
3 260 259 67
3 68 261 262
3 68 263 265
3 263 32 264
3 263 264 265
3 69 70 18
3 71 70 69
3 71 33 70
3 71 72 33
3 73 72 71
3 73 266 268
3 268 267 72
3 266 267 268
3 269 74 270
3 271 270 22
3 269 270 271
3 272 74 273
3 275 274 74
3 276 3 277
3 279 278 4
3 280 6 281
3 75 76 2
3 77 76 75
3 77 12 76
3 35 77 11
3 78 77 35
3 78 12 77
3 78 54 12
3 79 54 78
3 79 7 54
3 79 80 7
3 81 80 79
3 81 14 80
3 37 81 13
3 82 81 37
3 82 14 81
3 82 61 14
3 83 61 82
3 83 8 61
3 282 9 283
3 284 84 285
3 286 285 9
3 284 285 286
3 85 287 289
3 287 84 288
3 287 288 289
3 85 16 84
3 290 85 291
3 292 85 293
3 294 16 295
3 296 295 85
3 294 295 296
3 298 297 16
3 86 87 5
3 88 87 86
3 88 18 87
3 40 88 17
3 89 88 40
3 89 18 88
3 89 69 18
3 90 69 89
3 90 10 69
3 299 51 300
3 91 301 303
3 301 51 302
3 301 302 303
3 91 2 51
3 304 91 305
3 304 305 306
3 92 307 309
3 307 91 308
3 307 308 309
3 92 2 91
3 92 75 2
3 93 75 92
3 93 11 75
3 310 93 311
3 310 311 312
3 94 313 315
3 313 93 314
3 313 314 315
3 94 11 93
3 94 34 11
3 95 34 94
3 95 1 34
3 96 316 317
3 96 318 319
3 43 96 20
3 320 96 321
3 322 321 43
3 320 321 322
3 324 323 96
3 97 98 0
3 99 98 97
3 99 22 98
3 46 99 21
3 100 99 46
3 100 22 99
3 100 325 327
3 327 326 22
3 325 326 327
3 329 328 100
3 330 47 331
3 332 331 4
3 330 331 332
3 333 47 334
3 336 335 47
3 337 5 338
3 101 339 340
3 101 341 343
3 341 5 342
3 341 342 343
3 101 86 5
3 102 86 101
3 102 17 86
3 49 102 23
3 103 102 49
3 103 17 102
3 103 39 17
3 104 39 103
3 104 0 39
3 52 344 345
3 347 346 52
3 105 348 349
3 105 350 352
3 350 6 351
3 350 351 352
3 76 53 2
3 106 53 76
3 106 25 53
3 55 106 12
3 107 106 55
3 107 25 106
3 107 105 25
3 108 105 107
3 108 6 105
3 108 50 6
3 109 50 108
3 109 24 50
3 57 109 26
3 110 109 57
3 110 24 109
3 110 104 24
3 111 104 110
3 111 0 104
3 111 97 0
3 112 97 111
3 112 21 97
3 59 112 27
3 113 112 59
3 113 21 112
3 113 45 21
3 114 45 113
3 114 4 45
3 80 60 7
3 115 60 80
3 115 28 60
3 62 115 14
3 116 115 62
3 116 28 115
3 116 114 28
3 117 114 116
3 117 4 114
3 117 353 355
3 355 354 4
3 353 354 355
3 357 356 117
3 359 358 29
3 360 95 361
3 118 362 364
3 362 95 363
3 362 363 364
3 118 1 95
3 119 365 366
3 119 367 368
3 369 119 370
3 120 371 373
3 371 119 372
3 371 372 373
3 120 374 376
3 376 375 119
3 374 375 376
3 120 377 379
3 377 118 378
3 377 378 379
3 121 118 120
3 121 1 118
3 121 38 1
3 122 38 121
3 122 15 38
3 65 122 30
3 123 122 65
3 123 15 122
3 123 83 15
3 124 83 123
3 124 8 83
3 84 66 9
3 125 66 84
3 125 31 66
3 67 125 16
3 126 125 67
3 126 31 125
3 126 124 31
3 127 124 126
3 127 8 124
3 127 380 382
3 382 381 8
3 380 381 382
3 384 383 127
3 128 385 386
3 128 387 389
3 387 3 388
3 387 388 389
3 87 68 5
3 129 68 87
3 129 32 68
3 70 129 18
3 130 129 70
3 130 32 129
3 130 128 32
3 131 128 130
3 131 3 128
3 131 44 3
3 132 44 131
3 132 390 392
3 392 391 44
3 390 391 392
3 72 132 33
3 393 132 394
3 395 394 72
3 393 394 395
3 397 396 132
3 98 41 0
3 133 41 98
3 133 19 41
3 74 133 22
3 134 133 74
3 134 19 133
3 134 90 19
3 135 90 134
3 135 10 90
3 398 135 399
3 400 135 401
3 402 10 403
3 404 403 135
3 402 403 404
3 405 73 406
3 407 406 10
3 405 406 407
3 408 73 409
3 411 410 73
