ply
format ascii 1.0
element vertex 551
property float x
property float y
property float z
element face 623
property list uchar int vertex_index
end_header
-5.768526 16.687021 23.434734
-8.194005 5.416205 37.057507
-6.430344 -9.63243 31.311136
-7.957753 -20.07555 38.917122
-11.780729 -1.847551 41.690292
-6.614561 -7.250777 40.906242
-6.77506 -22.625999 31.291742
-3.427007 -22.407253 27.417307
-4.539658 12.858805 31.143457
-5.068969 3.933039 29.195312
-4.073333 -0.46828 34.037636
-3.635872 -14.17352 35.84985
-5.060375 -26.335297 37.205025
-2.46651 18.563824 20.555225
-5.517169 -28.34972 30.437256
-8.529433 -28.246588 29.51651
-6.069181 9.606306 34.961891
-4.396354 6.276919 32.609547
-4.585342 3.350723 36.74295
-7.460348 -13.389627 39.503838
-4.521485 -10.344784 38.939842
-4.817496 -16.939627 39.332428
-4.119331 -20.580416 37.121918
-4.936402 -23.68807 40.852268
-5.730879 -2.86871 30.801296
-3.125049 -8.531089 29.64686
-10.00289 1.392217 39.019222
-6.492175 -0.925539 39.632027
-9.669023 -4.792019 40.282433
-11.022622 -15.92657 38.374214
-6.962028 -16.393068 31.49242
-5.380548 -15.829394 29.422245
-7.026937 -22.217562 29.056376
-5.814446 -28.76145 27.206512
-6.235804 14.971738 26.79372
-5.020587 10.594688 26.547459
-6.449614 8.72714 29.362341
-6.262609 2.165499 31.553356
-5.989698 -4.736158 32.864754
-4.308943 -3.711964 38.623177
-3.672353 -7.365137 34.865807
-5.069435 -11.794782 32.790138
-4.094074 -18.334946 32.41497
-4.000992 -24.32234 32.753006
-4.438185 -29.44957 33.633865
-6.649451 22.476517 20.131496
-5.151166 20.680656 25.163624
-6.36161 18.450796 29.809347
-8.56423 14.173434 32.77813
-9.265259 -25.351971 38.839363
-6.704255 -28.534367 40.95451
-4.349102 17.647909 22.070221
-3.510896 14.864416 23.481115
-6.973989 7.672578 36.101101
-4.995209 6.626577 35.909019
-5.831073 4.544976 37.397415
-7.973052 -16.364155 38.761692
-6.215437 -14.946264 39.210167
-6.397179 -18.561924 39.425781
-4.75128 -20.406534 40.1604
-6.134929 -22.129374 40.440205
-6.065583 -6.23101 31.240173
-4.487648 -5.610263 30.369518
-5.162959 -9.041522 30.442715
-10.949501 -0.34053 40.245167
-9.704291 -1.771103 39.806816
-11.073107 -3.342952 40.668488
-10.43543 -13.14646 39.67667
-12.199356 -14.421147 39.34148
-6.918367 -19.613394 31.431519
-7.301377 -19.167265 30.284298
-7.769817 -22.316725 30.360346
-7.632225 -28.450104 28.233118
-4.946169 13.948242 28.751194
-6.491312 11.843119 28.065395
-5.27788 10.826849 29.718466
-4.277853 2.989502 33.434143
-4.997271 4.31443 31.931849
-4.955865 1.007148 32.573536
-6.284208 -1.194925 32.304268
-4.742728 -2.445584 33.108086
-6.522389 -4.265447 40.36573
-5.025064 -2.124172 39.679207
-5.029412 -5.493958 40.301254
-3.833174 -12.14018 37.499447
-4.054898 -8.895503 36.995167
-3.496793 -10.92534 35.265404
-3.868795 -9.509033 33.418621
-3.563953 -12.948328 33.524956
-4.436533 -15.032965 32.544094
-3.628045 -16.243607 33.977337
-4.73826 -23.463886 37.347347
-4.315057 -22.373831 34.736115
-4.618171 -25.339556 34.834763
-4.103112 -27.067719 33.001305
-4.834152 -28.026297 35.288311
-6.3366 22.506695 27.039967
-5.311095 20.03808 27.869818
-7.49596 20.752926 28.745708
-9.340381 12.250645 34.246246
-12.709669 -28.730108 37.145912
-11.717773 -26.00263 37.140511
-10.287797 -27.875443 38.709881
-7.952773 -27.098272 40.550255
-9.020986 -29.429901 40.51474
-4.907346 7.385163 27.989727
-2.633955 8.325595 26.823984
-2.611969 4.801628 28.184784
-4.496827 -19.091537 28.358521
-3.390758 -15.612836 28.658947
-2.178414 -18.9091 27.584192
-6.380091 -25.575207 30.972134
-8.1254 -25.361002 30.50275
-7.861623 -28.31538 30.499592
-5.08092 11.283733 33.22982
-4.459009 9.5418 31.754358
-4.714891 8.118784 33.88916
-4.470207 4.818024 34.770164
-4.392655 1.482136 35.587261
-6.992063 -10.407982 40.509449
-5.256982 -8.788279 40.418186
-5.761761 -11.913819 39.792549
-4.617916 -13.543645 38.989754
-3.926346 -15.450689 38.086338
-3.965057 -17.484369 36.497101
-4.000561 -18.825392 38.760262
-4.133733 -21.995747 39.361637
-4.846254 -24.960066 39.434471
-5.396151 0.552377 30.092808
-3.110736 1.313728 29.203583
-3.767931 -2.177643 29.959965
-1.87176 -5.032589 29.424042
-2.004412 -25.934002 26.473759
-1.137183 -22.466078 26.302958
-9.299147 3.247479 37.878887
-7.040534 2.248424 38.344917
-8.203606 0.147938 39.153191
-8.154383 -3.045078 39.897137
-8.088801 -6.029133 40.641518
-8.71138 -11.830947 40.030327
-9.236247 -14.740099 39.05571
-9.686388 -17.806438 38.065071
-6.83255 -13.011793 31.40357
-5.956912 -12.540489 30.353827
-6.724231 -15.943285 30.303656
-6.208773 -19.075638 29.165503
-5.38598 -22.244848 28.066885
-7.940236 -25.247913 29.196674
-6.47709 -25.455647 27.981989
-4.636825 -25.770426 27.144165
-3.584342 -29.125225 26.46406
-6.661882 15.838124 24.938084
-5.447118 13.694031 25.037813
-6.550386 12.73863 26.357996
-6.233893 9.631739 27.76733
-6.092797 6.399295 29.128046
-5.196017 7.62997 30.771763
-6.201579 5.480386 30.551474
-6.274159 3.159969 30.261913
-6.465503 -0.250922 31.092243
-6.514398 -3.652999 31.792439
-6.482184 -7.088387 32.16378
-5.214069 1.260897 38.621758
-4.41695 -0.214886 37.807011
-4.361445 -2.080309 36.376034
-4.319785 -7.022727 38.979637
-4.18841 -5.562016 36.846119
-3.949986 -4.026004 34.578377
-4.324687 -6.004373 33.383953
-5.605935 -8.244967 32.966053
-6.497031 -10.613812 32.274452
-6.18742 -14.022379 32.291882
-5.688909 -17.374393 32.050724
-5.340949 -20.497185 31.705475
-3.86182 -19.430195 34.463264
-3.944801 -21.4268 32.549995
-4.885283 -23.446587 31.403107
-4.359694 -26.222559 31.234665
-3.982422 -28.804707 31.319117
-1.698801 22.142399 17.212795
-3.465846 21.542456 18.881357
-4.865964 20.581602 20.235779
-6.206521 19.633846 21.685659
-6.111995 24.481613 21.145977
-6.740267 21.524271 22.564381
-6.856584 18.644415 23.875446
-5.777636 17.832047 25.842575
-4.806732 17.102406 28.196844
-5.222069 15.824041 30.700846
-8.409666 18.609074 30.21113
-7.488097 16.374538 31.308285
-6.177767 13.97125 32.574947
-7.374336 11.880375 33.996113
-8.378633 9.976503 35.165562
-9.418309 8.199292 36.260742
-14.032049 -15.493906 40.052906
-13.253713 -16.713757 38.301151
-11.874293 -18.424868 37.363762
-10.257347 -20.612865 37.718761
-10.956438 -23.32123 37.533882
-8.438364 -22.902111 39.139019
-6.975718 -24.723686 40.643044
-5.857027 -26.288263 41.021549
-5.458241 -27.305359 39.689884
-6.173395 -29.53422 39.856434
-5.400878 -28.659611 37.867321
-5.091238 -29.960804 36.328186
-2.825781 11.655122 25.189146
-4.220702 -12.2093 29.572613
-1.897246 -11.919328 28.664572
-12.699897 -13.786856 40.098517
-11.94088 -13.092581 39.95368
-7.326351 22.59552 27.28747
-6.577414 23.741928 26.352302
-7.906032 21.718635 28.140341
-6.91628 21.62981 27.892837
-7.326351 22.59552 27.28747
-12.021432 -29.52018 38.030922
-13.122498 -30.122564 37.461378
-12.434261 -30.912636 38.346388
-10.810496 -29.092847 38.812906
-11.498733 -28.302776 37.927897
-12.021432 -29.52018 38.030922
-10.177091 -29.870076 39.715336
-9.654391 -28.652672 39.612311
-10.810496 -29.092847 38.812906
-1.690959 17.317715 20.403221
-1.865309 18.82674 19.764465
-2.002023 -8.350069 29.100963
-1.375378 -6.600819 28.989553
-2.498405 -6.781839 29.535451
-1.251372 -25.897229 25.693297
-1.541924 -27.604603 25.940487
-9.316893 -11.123139 40.339753
-8.466332 -10.355986 40.441235
-4.27592 -30.393056 32.763403
-4.048039 -30.070625 31.606029
-4.210304 -29.127139 32.476491
-2.952208 23.23167 17.089208
-2.10551 23.563114 16.284757
-3.83573 22.931699 17.92349
-2.582324 21.842427 18.047076
-2.952208 23.23167 17.089208
-5.757708 21.52906 20.183637
-5.230216 22.01893 19.338372
-6.121959 22.966388 19.28623
-5.9685 25.490762 22.063136
-5.902399 25.959734 20.59934
-5.945716 21.102463 23.864002
-5.969351 22.615125 23.340516
-5.1748 22.193317 24.640138
-9.530475 18.476348 30.474691
-9.016157 19.570412 29.6682
-8.026163 15.273986 32.043208
-8.390349 16.321311 31.498654
-8.928416 15.220759 32.233576
-9.18558 10.269493 35.428122
-8.859507 11.113574 34.705904
-9.666454 11.406564 34.968463
-9.705418 9.380888 35.975712
-8.898471 9.087898 35.713152
-9.18558 10.269493 35.428122
-14.515346 -16.734413 39.621237
-14.428117 -16.21631 40.796537
-14.126178 -17.344338 38.745359
-13.642881 -16.103832 39.177028
-14.515346 -16.734413 39.621237
-12.256433 -19.785854 37.152731
-13.011562 -18.849597 37.385794
-11.44796 -20.879853 37.33023
-11.06582 -19.518867 37.541262
-12.256433 -19.785854 37.152731
-5.831741 -30.112813 39.315546
-6.322484 -30.620307 40.130249
-5.445482 -29.675508 38.320989
-5.787136 -29.096916 38.861877
-5.831741 -30.112813 39.315546
-5.290662 -30.326105 37.551422
-5.246058 -29.310208 37.097753
-5.445482 -29.675508 38.320989
-1.764767 8.711373 25.958174
-1.688437 6.94592 26.731849
-1.946993 1.644089 28.582823
-2.14162 -0.100158 29.068514
-1.543205 -13.608159 28.07931
-2.644002 -13.766082 28.66176
-2.289961 -15.454913 28.076498
-1.247784 -11.735971 27.84572
-1.543205 -13.608159 28.07931
-0.909584 -20.549377 26.168057
-0.738785 -22.331021 25.314611
-2.994724 16.643818 22.078093
-2.053427 17.101776 21.320594
-3.407806 18.105866 21.312723
-2.57562 15.252071 22.783539
-2.994724 16.643818 22.078093
-3.929999 16.256162 22.775668
-2.328569 13.699758 23.458104
-2.57562 15.252071 22.783539
-6.237041 -29.689994 30.30159
-4.997843 -29.61771 30.303968
-11.058917 -12.455238 40.121275
-10.178918 -11.780895 40.162924
-11.317393 -13.783803 39.509075
-11.058917 -12.455238 40.121275
-11.94088 -13.092581 39.95368
-8.093792 -29.899747 28.400703
-8.080829 -28.348346 28.874814
-8.542396 -29.797989 29.0424
-7.385889 -30.0797 27.795017
-8.093792 -29.899747 28.400703
-6.476999 -30.235373 27.281714
-6.723336 -28.605777 27.719815
-7.385889 -30.0797 27.795017
-5.418515 -30.419728 26.786592
-6.476999 -30.235373 27.281714
-6.761093 23.997439 19.362838
-6.121959 22.966388 19.28623
-5.767518 23.106337 25.578309
-6.577414 23.741928 26.352302
-5.743883 21.593675 26.101796
-5.1748 22.193317 24.640138
-5.767518 23.106337 25.578309
-9.279077 14.201137 33.069305
-8.928416 15.220759 32.233576
-9.667153 13.239743 33.803364
-8.952306 13.212039 33.512188
-9.279077 14.201137 33.069305
-9.898368 12.438801 34.679428
-9.667153 13.239743 33.803364
-9.666454 11.406564 34.968463
-9.898368 12.438801 34.679428
-13.889321 -29.306638 36.919115
-13.122498 -30.122564 37.461378
-13.457978 -27.843356 36.717808
-13.889321 -29.306638 36.919115
-12.213721 -27.366369 37.143211
-12.962031 -26.479617 36.715107
-13.457978 -27.843356 36.717808
-1.677444 5.183936 27.41225
-1.688437 6.94592 26.731849
-2.622962 6.563612 27.504384
-1.683789 -17.103046 27.539121
-2.289961 -15.454913 28.076498
-2.784586 -17.260968 28.121569
-11.942858 -3.352416 41.845596
-12.061492 -2.590277 42.516861
-1.690959 17.317715 20.403221
-2.053427 17.101776 21.320594
-7.409268 -29.672824 30.332758
-6.689396 -28.33255 30.468424
-6.237041 -29.689994 30.30159
-8.229246 -29.687938 30.127669
-7.409268 -29.672824 30.332758
-8.563151 -29.653541 29.636128
-8.195528 -28.280984 30.008051
-8.229246 -29.687938 30.127669
-8.542396 -29.797989 29.0424
-8.563151 -29.653541 29.636128
-2.470217 -1.845843 29.446705
-2.14162 -0.100158 29.068514
-3.439334 -0.431958 29.581774
-1.522131 -3.273316 29.178743
-2.470217 -1.845843 29.446705
-2.819846 -3.605116 29.692003
-1.163169 -4.833163 28.681534
-1.522131 -3.273316 29.178743
-1.163169 -4.833163 28.681534
-1.375378 -6.600819 28.989553
-0.817758 -24.163266 25.607897
-1.570797 -24.20004 26.388359
-1.251372 -25.897229 25.693297
-0.738785 -22.331021 25.314611
-0.817758 -24.163266 25.607897
-11.589047 -4.100117 41.334694
-11.426918 -2.595251 41.17939
-11.942858 -3.352416 41.845596
-11.072045 -4.825992 40.914114
-11.589047 -4.100117 41.334694
-10.370003 -5.550526 40.721086
-10.371065 -4.067486 40.47546
-11.072045 -4.825992 40.914114
-9.699955 -6.188999 40.625238
-10.370003 -5.550526 40.721086
-8.909844 -6.807555 40.804781
-8.878912 -5.410576 40.461975
-9.699955 -6.188999 40.625238
-8.155043 -7.455079 40.74683
-8.909844 -6.807555 40.804781
-7.417923 -8.065901 40.879192
-7.351681 -6.639955 40.77388
-8.155043 -7.455079 40.74683
-7.606674 -9.644503 40.680796
-6.803312 -8.829379 40.707845
-7.417923 -8.065901 40.879192
-7.851722 -11.119464 40.269888
-7.606674 -9.644503 40.680796
-8.466332 -10.355986 40.441235
-9.573405 -12.488703 39.853499
-9.316893 -11.123139 40.339753
-10.178918 -11.780895 40.162924
-2.331889 -29.200215 25.935637
-1.541924 -27.604603 25.940487
-2.794377 -27.529613 26.46891
-4.303463 -30.601616 26.415366
-4.699394 -28.943337 26.835286
-5.418515 -30.419728 26.786592
-2.979522 -30.789164 25.950839
-4.303463 -30.601616 26.415366
-2.331889 -29.200215 25.935637
-2.979522 -30.789164 25.950839
-4.230469 -29.845204 30.744899
-4.997843 -29.61771 30.303968
-4.749796 -28.577213 30.878186
-4.230469 -29.845204 30.744899
-4.048039 -30.070625 31.606029
-1.224597 22.241815 16.298071
-2.10551 23.563114 16.284757
-1.156273 20.695211 17.115403
-1.224597 22.241815 16.298071
-1.481454 20.616027 18.09325
-1.156273 20.695211 17.115403
-2.364977 20.316056 18.927531
-1.481454 20.616027 18.09325
-2.582324 21.842427 18.047076
-2.966178 20.05314 19.718291
-1.865309 18.82674 19.764465
-2.364977 20.316056 18.927531
-4.530157 22.499358 18.661161
-3.83573 22.931699 17.92349
-4.165905 21.062029 19.558568
-4.530157 22.499358 18.661161
-5.230216 22.01893 19.338372
-6.492366 24.999987 19.870079
-5.902399 25.959734 20.59934
-6.380723 23.479065 20.638737
-6.761093 23.997439 19.362838
-6.492366 24.999987 19.870079
-5.655215 24.093795 22.631314
-5.9685 25.490762 22.063136
-6.426131 23.002942 21.855179
-5.655215 24.093795 22.631314
-5.969351 22.615125 23.340516
-8.559304 20.642338 28.935488
-7.906032 21.718635 28.140341
-7.952813 19.681 29.478419
-8.559304 20.642338 28.935488
-9.016157 19.570412 29.6682
-8.851134 17.438579 30.950076
-9.530475 18.476348 30.474691
-7.948881 17.491806 30.759708
-8.851134 17.438579 30.950076
-8.390349 16.321311 31.498654
-10.018551 8.503418 36.766534
-9.705418 9.380888 35.975712
-9.974305 7.131568 36.846187
-10.018551 8.503418 36.766534
-9.362154 5.740024 37.24457
-8.806157 6.807748 36.659125
-9.974305 7.131568 36.846187
-9.914725 4.655661 37.65526
-8.746576 4.331842 37.468197
-9.362154 5.740024 37.24457
-10.162821 3.719052 38.305828
-9.914725 4.655661 37.65526
-10.514693 2.791421 38.875996
-9.651018 2.319848 38.449055
-10.162821 3.719052 38.305828
-10.723721 1.869249 39.678674
-10.514693 2.791421 38.875996
-11.197026 1.002876 40.291647
-10.476195 0.525844 39.632194
-10.723721 1.869249 39.678674
-11.235945 0.145701 41.135462
-11.197026 1.002876 40.291647
-11.651559 -0.60781 41.858024
-11.365115 -1.09404 40.96773
-11.235945 0.145701 41.135462
-11.660194 -1.370452 42.744978
-11.651559 -0.60781 41.858024
-12.061492 -2.590277 42.516861
-11.660194 -1.370452 42.744978
-14.106363 -14.976958 41.138468
-14.428117 -16.21631 40.796537
-13.616243 -14.323235 40.454229
-14.106363 -14.976958 41.138468
-13.115703 -14.957527 39.697193
-12.699897 -13.786856 40.098517
-13.616243 -14.323235 40.454229
-13.701272 -17.994042 37.854488
-14.126178 -17.344338 38.745359
-12.564003 -17.569313 37.832456
-13.701272 -17.994042 37.854488
-13.011562 -18.849597 37.385794
-12.539581 -25.046385 36.827864
-12.962031 -26.479617 36.715107
-12.158914 -23.705686 37.024549
-12.539581 -25.046385 36.827864
-11.337105 -24.66193 37.337196
-11.797505 -22.234035 37.237791
-12.999981 -22.618491 36.728459
-12.158914 -23.705686 37.024549
-10.606893 -21.967047 37.626322
-11.44796 -20.879853 37.33023
-11.797505 -22.234035 37.237791
-9.393443 -30.522634 40.49329
-10.177091 -29.870076 39.715336
-10.549548 -30.962809 39.693886
-8.32996 -30.043405 40.673794
-9.393443 -30.522634 40.49329
-8.702417 -31.136138 40.652344
-7.171594 -29.595638 40.893679
-7.862621 -28.982134 40.734625
-8.32996 -30.043405 40.673794
-6.906165 -30.095565 40.344641
-6.322484 -30.620307 40.130249
-6.438825 -29.034294 40.405472
-7.171594 -29.595638 40.893679
-6.906165 -30.095565 40.344641
-5.02251 -30.983373 36.925452
-5.290662 -30.326105 37.551422
-5.033454 -30.684793 35.550598
-5.02251 -30.983373 36.925452
-4.706928 -30.429177 34.203437
-4.764711 -29.705187 34.981026
-5.033454 -30.684793 35.550598
-4.27592 -30.393056 32.763403
-4.706928 -30.429177 34.203437
-1.986012 12.095111 24.31212
-2.328569 13.699758 23.458104
-3.168338 13.259769 24.33513
-1.86068 10.376137 25.140756
-2.729868 9.990358 26.006565
-1.764767 8.711373 25.958174
-1.986012 12.095111 24.31212
-1.86068 10.376137 25.140756
-1.697609 3.38804 28.073424
-2.861353 3.057678 28.694184
-1.946993 1.644089 28.582823
-1.677444 5.183936 27.41225
-1.697609 3.38804 28.073424
-1.388121 -10.044189 28.609818
-2.002023 -8.350069 29.100963
-2.511147 -10.225209 29.155716
-1.388121 -10.044189 28.609818
-1.247784 -11.735971 27.84572
-1.430199 -18.770888 26.808675
-1.657799 -20.687589 26.943575
-0.909584 -20.549377 26.168057
-1.683789 -17.103046 27.539121
-1.430199 -18.770888 26.808675
3 0 52 51
3 1 55 53
3 3 58 56
3 3 60 58
3 2 63 61
3 4 66 64
3 210 68 211
3 6 71 69
3 8 75 73
3 10 78 76
3 10 80 78
3 5 83 81
3 11 86 84
3 11 88 86
3 11 90 88
3 12 93 91
3 12 95 93
3 212 96 213
3 214 98 215
3 216 215 96
3 214 215 216
3 217 100 218
3 217 218 219
3 220 102 221
3 222 221 100
3 220 221 222
3 223 104 224
3 225 224 102
3 223 224 225
3 9 107 105
3 7 110 108
3 13 226 227
3 14 113 111
3 16 116 114
3 18 117 54
3 18 118 117
3 19 121 119
3 21 122 57
3 21 123 122
3 21 125 123
3 23 126 59
3 23 127 126
3 24 130 128
3 25 131 62
3 25 228 230
3 230 229 131
3 228 229 230
3 232 231 132
3 26 136 134
3 28 137 65
3 28 138 137
3 233 139 234
3 29 140 67
3 29 141 140
3 30 144 142
3 32 145 70
3 32 146 145
3 15 147 112
3 33 148 72
3 33 149 148
3 33 150 149
3 34 153 151
3 36 154 74
3 36 155 154
3 17 156 115
3 37 157 77
3 37 158 157
3 37 159 158
3 38 160 79
3 38 161 160
3 27 162 135
3 39 163 82
3 39 164 163
3 20 165 120
3 40 166 85
3 40 167 166
3 40 168 167
3 41 169 87
3 41 170 169
3 41 171 170
3 42 172 89
3 42 173 172
3 22 174 124
3 43 175 92
3 43 176 175
3 43 177 176
3 44 178 94
3 44 235 237
3 237 236 178
3 235 236 237
3 238 179 239
3 240 180 241
3 242 241 179
3 240 241 242
3 45 243 245
3 243 181 244
3 243 244 245
3 45 182 181
3 246 183 247
3 46 248 250
3 248 184 249
3 248 249 250
3 46 185 184
3 46 186 185
3 47 187 97
3 47 188 187
3 251 189 252
3 48 253 255
3 253 190 254
3 253 254 255
3 48 191 190
3 48 192 191
3 256 193 257
3 258 257 99
3 256 257 258
3 259 194 260
3 261 260 193
3 259 260 261
3 262 195 263
3 264 196 265
3 266 265 195
3 264 265 266
3 267 197 268
3 269 198 270
3 271 270 197
3 269 270 271
3 49 199 101
3 49 200 199
3 49 201 200
3 50 202 103
3 50 203 202
3 272 204 273
3 274 205 275
3 276 275 204
3 274 275 276
3 277 206 278
3 279 278 205
3 277 278 279
3 35 207 152
3 281 280 106
3 283 282 129
3 31 208 143
3 284 209 285
3 286 285 109
3 284 285 286
3 288 287 209
3 290 289 133
3 51 291 293
3 293 292 13
3 291 292 293
3 52 294 296
3 296 295 51
3 294 295 296
3 52 297 298
3 300 299 14
3 53 54 16
3 55 54 53
3 55 18 54
3 56 57 19
3 58 57 56
3 58 21 57
3 58 59 21
3 60 59 58
3 60 23 59
3 61 62 24
3 63 62 61
3 63 25 62
3 64 65 26
3 66 65 64
3 66 28 65
3 301 67 302
3 68 303 305
3 303 67 304
3 303 304 305
3 68 29 67
3 69 70 30
3 71 70 69
3 71 32 70
3 306 72 307
3 308 307 15
3 306 307 308
3 309 72 310
3 311 33 312
3 313 312 72
3 311 312 313
3 315 314 33
3 73 74 34
3 75 74 73
3 75 36 74
3 76 77 17
3 78 77 76
3 78 37 77
3 78 79 37
3 80 79 78
3 80 38 79
3 81 82 27
3 83 82 81
3 83 39 82
3 84 85 20
3 86 85 84
3 86 40 85
3 86 87 40
3 88 87 86
3 88 41 87
3 88 89 41
3 90 89 88
3 90 42 89
3 91 92 22
3 93 92 91
3 93 43 92
3 93 94 43
3 95 94 93
3 95 44 94
3 316 45 317
3 96 318 319
3 96 320 322
3 320 46 321
3 320 321 322
3 96 97 46
3 98 97 96
3 98 47 97
3 323 48 324
3 325 99 326
3 327 326 48
3 325 326 327
3 328 99 329
3 331 330 99
3 100 332 333
3 100 334 335
3 100 336 338
3 336 101 337
3 336 337 338
3 102 101 100
3 102 49 101
3 102 103 49
3 104 103 102
3 104 50 103
3 105 106 35
3 107 106 105
3 107 339 341
3 341 340 106
3 339 340 341
3 108 109 31
3 110 109 108
3 110 342 344
3 344 343 109
3 342 343 344
3 346 345 4
3 348 347 13
3 111 112 6
3 113 112 111
3 113 15 112
3 349 113 350
3 351 350 14
3 349 350 351
3 352 113 353
3 354 15 355
3 356 355 113
3 354 355 356
3 358 357 15
3 114 115 8
3 116 115 114
3 116 17 115
3 54 116 16
3 117 116 54
3 117 17 116
3 117 76 17
3 118 76 117
3 118 10 76
3 119 120 5
3 121 120 119
3 121 20 120
3 57 121 19
3 122 121 57
3 122 20 121
3 122 84 20
3 123 84 122
3 123 11 84
3 123 124 11
3 125 124 123
3 125 22 124
3 59 125 21
3 126 125 59
3 126 22 125
3 126 91 22
3 127 91 126
3 127 12 91
3 128 129 9
3 130 129 128
3 130 359 361
3 361 360 129
3 359 360 361
3 62 130 24
3 131 130 62
3 131 362 364
3 364 363 130
3 362 363 364
3 131 365 366
3 368 367 131
3 132 133 7
3 369 133 370
3 371 370 132
3 369 370 371
3 373 372 133
3 134 135 1
3 136 135 134
3 136 27 135
3 65 136 26
3 137 136 65
3 137 27 136
3 137 81 27
3 138 81 137
3 138 5 81
3 374 66 375
3 376 375 4
3 374 375 376
3 377 66 378
3 379 28 380
3 381 380 66
3 379 380 381
3 382 28 383
3 384 138 385
3 386 385 28
3 384 385 386
3 387 138 388
3 389 5 390
3 391 390 138
3 389 390 391
3 392 119 393
3 394 393 5
3 392 393 394
3 139 395 397
3 395 119 396
3 395 396 397
3 139 19 119
3 67 398 400
3 398 139 399
3 398 399 400
3 140 139 67
3 140 19 139
3 140 56 19
3 141 56 140
3 141 3 56
3 142 143 2
3 144 143 142
3 144 31 143
3 70 144 30
3 145 144 70
3 145 31 144
3 145 108 31
3 146 108 145
3 146 7 108
3 112 71 6
3 147 71 112
3 147 32 71
3 72 147 15
3 148 147 72
3 148 32 147
3 148 146 32
3 149 146 148
3 149 7 146
3 149 132 7
3 150 132 149
3 150 401 403
3 403 402 132
3 401 402 403
3 404 150 405
3 406 405 33
3 404 405 406
3 407 150 408
3 410 409 150
3 151 152 0
3 153 152 151
3 153 35 152
3 74 153 34
3 154 153 74
3 154 35 153
3 154 105 35
3 155 105 154
3 155 9 105
3 115 75 8
3 156 75 115
3 156 36 75
3 77 156 17
3 157 156 77
3 157 36 156
3 157 155 36
3 158 155 157
3 158 9 155
3 158 128 9
3 159 128 158
3 159 24 128
3 79 159 37
3 160 159 79
3 160 24 159
3 160 61 24
3 161 61 160
3 161 2 61
3 135 55 1
3 162 55 135
3 162 18 55
3 82 162 27
3 163 162 82
3 163 18 162
3 163 118 18
3 164 118 163
3 164 10 118
3 120 83 5
3 165 83 120
3 165 39 83
3 85 165 20
3 166 165 85
3 166 39 165
3 166 164 39
3 167 164 166
3 167 10 164
3 167 80 10
3 168 80 167
3 168 38 80
3 87 168 40
3 169 168 87
3 169 38 168
3 169 161 38
3 170 161 169
3 170 2 161
3 170 142 2
3 171 142 170
3 171 30 142
3 89 171 41
3 172 171 89
3 172 30 171
3 172 69 30
3 173 69 172
3 173 6 69
3 124 90 11
3 174 90 124
3 174 42 90
3 92 174 22
3 175 174 92
3 175 42 174
3 175 173 42
3 176 173 175
3 176 6 173
3 176 111 6
3 177 111 176
3 177 14 111
3 94 177 43
3 178 177 94
3 178 14 177
3 178 411 413
3 413 412 14
3 411 412 413
3 415 414 178
3 179 416 417
3 179 418 419
3 179 420 421
3 180 422 424
3 424 423 179
3 422 423 424
3 180 425 427
3 425 13 426
3 425 426 427
3 428 180 429
3 181 430 432
3 430 180 431
3 430 431 432
3 181 13 180
3 181 51 13
3 182 51 181
3 182 0 51
3 183 433 434
3 183 435 437
3 435 45 436
3 435 436 437
3 438 183 439
3 184 440 442
3 440 183 441
3 440 441 442
3 184 45 183
3 184 182 45
3 185 182 184
3 185 0 182
3 185 151 0
3 186 151 185
3 186 34 151
3 97 186 46
3 187 186 97
3 187 34 186
3 187 73 34
3 188 73 187
3 188 8 73
3 443 98 444
3 189 445 447
3 445 98 446
3 445 446 447
3 189 47 98
3 448 189 449
3 190 450 452
3 450 189 451
3 450 451 452
3 190 47 189
3 190 188 47
3 191 188 190
3 191 8 188
3 191 114 8
3 192 114 191
3 192 16 114
3 99 192 48
3 193 192 99
3 193 16 192
3 193 53 16
3 194 53 193
3 194 1 53
3 453 194 454
3 455 194 456
3 457 1 458
3 459 458 194
3 457 458 459
3 460 134 461
3 462 461 1
3 460 461 462
3 463 134 464
3 465 26 466
3 467 466 134
3 465 466 467
3 468 26 469
3 470 64 471
3 472 471 26
3 470 471 472
3 473 64 474
3 475 4 476
3 477 476 64
3 475 476 477
3 478 4 479
3 481 480 4
3 195 482 483
3 195 484 485
3 195 486 488
3 486 68 487
3 486 487 488
3 196 68 195
3 196 29 68
3 489 196 490
3 197 491 493
3 491 196 492
3 491 492 493
3 197 29 196
3 197 141 29
3 198 141 197
3 198 3 141
3 101 494 495
3 199 496 498
3 498 497 101
3 496 497 498
3 199 499 501
3 499 500 501
3 199 502 504
3 502 198 503
3 502 503 504
3 200 198 199
3 200 3 198
3 200 60 3
3 201 60 200
3 201 23 60
3 103 201 49
3 202 201 103
3 202 23 201
3 202 127 23
3 203 127 202
3 203 12 127
3 505 104 506
3 505 506 507
3 508 104 509
3 508 509 510
3 511 50 512
3 513 512 104
3 511 512 513
3 204 514 515
3 204 516 518
3 516 50 517
3 516 517 518
3 204 203 50
3 205 203 204
3 205 12 203
3 205 95 12
3 206 95 205
3 206 44 95
3 519 206 520
3 521 206 522
3 523 44 524
3 525 524 206
3 523 524 525
3 527 526 44
3 152 52 0
3 207 52 152
3 207 528 530
3 530 529 52
3 528 529 530
3 106 207 35
3 531 207 532
3 533 532 106
3 531 532 533
3 535 534 207
3 129 107 9
3 536 107 537
3 538 537 129
3 536 537 538
3 540 539 107
3 143 63 2
3 208 63 143
3 208 25 63
3 109 208 31
3 209 208 109
3 209 25 208
3 209 541 543
3 543 542 25
3 541 542 543
3 545 544 209
3 133 110 7
3 546 110 547
3 548 547 133
3 546 547 548
3 550 549 110
