ply
format ascii 1.0
element vertex 251
property float x
property float y
property float z
element face 241
property list uchar int vertex_index
end_header
47.314735 -18.558365 1.707057
37.833565 -29.241507 12.487432
56.214062 -13.808377 1.510248
42.432102 -23.26827 7.542353
33.035709 -28.30401 13.556723
35.315926 -27.541803 9.248703
40.11438 -26.068939 10.3375
47.361977 -22.489532 7.179688
44.454647 -26.29269 7.791732
32.522415 -29.113718 17.428383
51.170242 -14.251417 4.081695
51.903847 -10.88328 0.487921
57.489014 -9.273268 0.698893
41.002041 -25.286175 1.616395
38.217117 -26.670361 5.425817
44.605057 -20.807779 4.614203
49.410088 -18.655273 6.022879
36.212486 -32.688046 15.15066
42.084366 -30.701687 8.816952
35.33033 -28.986969 13.345965
36.483036 -28.010326 11.576088
39.075996 -27.660496 11.44756
42.57312 -26.062283 9.736067
41.205677 -27.953053 10.318624
45.811211 -21.051294 0.012295
46.590691 -19.864777 -1.853751
48.38139 -17.833263 -0.271585
53.627453 -13.847984 3.28331
54.174141 -11.69043 2.476035
56.768494 -11.576828 1.219023
39.077457 -25.912838 8.172535
36.770649 -27.085094 7.315024
40.323494 -25.115435 6.360281
41.548225 -24.484932 4.583957
43.490059 -21.94976 6.194264
46.896717 -19.117544 6.107083
45.933556 -20.852434 7.283967
55.288921 -7.758283 -0.973941
52.767097 -9.291646 -1.42904
34.049683 -27.937119 11.325089
37.759827 -26.934092 9.904699
41.28764 -24.600155 9.031168
44.975914 -22.606346 8.227903
43.97757 -24.268442 9.05522
46.148586 -24.306887 7.501239
32.640686 -28.692738 15.530283
34.708229 -29.937634 14.845416
48.775311 -15.843924 3.334949
49.641418 -14.756861 1.286039
51.501904 -12.445401 2.404157
54.48896 -9.774202 1.008164
42.335022 -24.127193 -0.028882
44.305523 -22.555843 1.390468
39.662525 -26.085964 3.47083
42.933735 -23.666134 2.891206
45.792507 -19.87653 3.138855
47.819588 -17.413919 4.738561
50.352734 -16.46023 5.189419
52.595814 -16.099766 3.989047
48.436909 -20.673498 6.722127
51.439606 -18.444294 4.359778
34.314201 -31.05691 16.541988
36.913788 -31.064499 13.495718
39.094208 -32.101147 11.728838
40.058609 -29.94227 10.63651
43.056145 -28.415796 7.927203
50.704243 -13.727591 -0.679175
52.125175 -10.178021 -4.601077
55.625982 -6.583637 -1.992959
56.94695 -6.033125 -1.447007
33.542696 -28.120565 12.440906
32.940207 -27.271622 12.490453
32.433219 -27.455067 13.60627
46.081609 -25.508316 6.585767
46.928579 -24.515414 6.44052
45.301617 -25.299788 7.646485
46.779105 -19.147605 -2.773737
47.932364 -18.191225 -2.0725
32.581551 -28.903228 16.479333
32.309545 -27.730911 16.75194
32.25041 -27.941401 17.70099
57.815323 -8.034757 0.181276
56.315296 -8.285224 0.335912
55.988987 -9.523735 0.853529
41.668532 -24.706684 0.793756
40.489514 -24.764606 0.409809
39.823023 -25.344098 1.232447
34.328686 -27.029401 9.104769
32.843351 -26.55022 10.120035
33.830591 -27.062622 10.263969
36.392555 -26.523072 6.130672
35.669321 -26.730439 7.075276
37.493883 -26.877727 6.37042
37.061954 -26.439137 5.12453
36.392555 -26.523072 6.130672
38.939821 -26.378163 4.448323
37.784659 -26.146938 4.147036
37.061954 -26.439137 5.12453
52.574863 -18.474236 3.459326
50.810131 -19.445801 4.392767
53.235926 -17.297458 3.239707
52.574863 -18.474236 3.459326
35.263343 -31.872478 15.846324
34.351211 -31.416814 17.563904
35.300354 -32.232382 16.86824
40.589287 -31.401417 10.272895
40.217606 -32.470995 11.138179
41.712685 -31.771265 9.682237
52.203277 -10.745666 -2.066656
53.084796 -8.291728 -2.348371
52.763835 -8.734915 -3.93439
51.882317 -11.188853 -3.652674
46.200951 -20.458036 -0.920728
45.159277 -21.252733 -1.650631
44.769537 -21.845991 -0.717608
48.827713 -17.175468 -1.281417
47.932364 -18.191225 -2.0725
47.486041 -18.84902 -1.062668
32.625927 -27.93119 18.491499
32.25041 -27.941401 17.70099
39.132492 -25.604376 2.20577
39.823023 -25.344098 1.232447
48.771316 -21.46842 5.802722
48.161137 -22.567328 6.007035
36.117558 -33.196356 16.20047
35.300354 -32.232382 16.86824
43.393534 -30.919511 8.640977
41.712685 -31.771265 9.682237
43.814259 -29.886205 7.846651
43.393534 -30.919511 8.640977
54.36507 -7.350319 -2.220509
54.028009 -8.524964 -1.201491
55.625982 -6.583637 -1.992959
53.084796 -8.291728 -2.348371
54.36507 -7.350319 -2.220509
58.263964 -12.693048 1.179093
57.943598 -13.985826 1.485549
33.19747 -27.26028 11.302162
32.940207 -27.271622 12.490453
34.682805 -27.739461 10.286896
33.830591 -27.062622 10.263969
33.19747 -27.26028 11.302162
47.554441 -23.476005 6.167811
48.161137 -22.567328 6.007035
46.755282 -23.39821 7.340464
47.554441 -23.476005 6.167811
46.928579 -24.515414 6.44052
45.38784 -20.590785 -2.548988
45.159277 -21.252733 -1.650631
45.38784 -20.590785 -2.548988
46.779105 -19.147605 -2.773737
32.373069 -27.458783 14.752742
32.433219 -27.455067 13.60627
31.770579 -26.60984 14.802289
32.175557 -27.653147 15.739522
32.309545 -27.730911 16.75194
32.838197 -28.498374 14.543503
32.373069 -27.458783 14.752742
32.175557 -27.653147 15.739522
56.715277 -7.277264 -0.655141
54.888941 -8.766243 0.017112
56.315296 -8.285224 0.335912
56.94695 -6.033125 -1.447007
56.715277 -7.277264 -0.655141
58.54118 -11.577274 1.03348
56.491278 -12.692602 1.364635
58.263964 -12.693048 1.179093
58.661701 -10.330777 0.850968
58.54118 -11.577274 1.03348
59.021962 -9.178997 0.590903
57.128754 -10.425048 0.958958
58.661701 -10.330777 0.850968
59.044321 -7.952609 0.249433
59.021962 -9.178997 0.590903
60.577269 -7.858337 0.141442
57.815323 -8.034757 0.181276
59.044321 -7.952609 0.249433
41.157061 -24.349036 -0.464193
40.489514 -24.764606 0.409809
43.031442 -23.383941 -0.738197
41.157061 -24.349036 -0.464193
44.073116 -22.589243 -0.008294
44.769537 -21.845991 -0.717608
43.031442 -23.383941 -0.738197
35.056047 -26.801046 8.13793
34.328686 -27.029401 9.104769
36.043287 -27.313448 8.281864
35.056047 -26.801046 8.13793
35.669321 -26.730439 7.075276
38.462734 -26.004271 3.132988
37.784659 -26.146938 4.147036
40.332283 -25.68607 2.543613
39.132492 -25.604376 2.20577
38.462734 -26.004271 3.132988
49.308782 -20.560403 5.573942
47.899443 -21.581515 6.950907
48.771316 -21.46842 5.802722
49.938257 -19.558896 5.540953
49.308782 -20.560403 5.573942
50.810131 -19.445801 4.392767
53.81403 -16.125194 3.054341
52.01771 -17.27203 4.174412
53.235926 -17.297458 3.239707
55.623154 -14.979499 1.814942
54.404938 -14.954071 2.749648
53.81403 -16.125194 3.054341
57.943598 -13.985826 1.485549
55.623154 -14.979499 1.814942
32.806415 -29.291473 18.401819
32.625927 -27.93119 18.491499
33.702309 -30.26307 17.958621
34.351211 -31.416814 17.563904
33.418308 -30.085314 16.985186
32.806415 -29.291473 18.401819
33.702309 -30.26307 17.958621
37.326847 -33.301241 14.374199
36.117558 -33.196356 16.20047
37.231919 -33.809551 15.424009
38.767708 -33.007791 12.663288
40.217606 -32.470995 11.138179
37.653347 -32.394596 13.439749
37.326847 -33.301241 14.374199
38.767708 -33.007791 12.663288
44.300148 -28.74326 7.401776
42.570256 -29.558742 8.372077
43.814259 -29.886205 7.846651
44.811402 -27.649693 6.868666
44.300148 -28.74326 7.401776
45.510652 -26.588141 6.800931
43.755396 -27.354243 7.859468
44.811402 -27.649693 6.868666
46.081609 -25.508316 6.585767
45.510652 -26.588141 6.800931
49.98914 -15.122632 -1.485212
48.827713 -17.175468 -1.281417
49.542817 -15.780427 -0.47538
51.17185 -12.963638 -1.691723
51.73567 -11.509619 -1.054107
52.203277 -10.745666 -2.066656
49.98914 -15.122632 -1.485212
51.17185 -12.963638 -1.691723
50.910172 -12.510689 -4.39122
51.882317 -11.188853 -3.652674
51.0093 -11.534681 -5.237718
50.910172 -12.510689 -4.39122
52.865377 -7.521264 -4.701246
52.763835 -8.734915 -3.93439
52.209865 -9.065798 -5.472226
52.865377 -7.521264 -4.701246
51.0093 -11.534681 -5.237718
52.209865 -9.065798 -5.472226
3 1 21 19
3 1 23 21
3 0 26 24
3 2 29 27
3 3 32 30
3 3 34 32
3 3 36 34
3 69 68 37
3 4 70 72
3 70 39 71
3 70 71 72
3 6 40 20
3 6 41 40
3 6 43 41
3 8 44 22
3 8 73 75
3 75 74 44
3 73 74 75
3 77 76 25
3 9 78 80
3 78 45 79
3 78 79 80
3 9 46 45
3 10 49 47
3 12 50 28
3 12 81 83
3 83 82 50
3 81 82 83
3 13 84 86
3 84 51 85
3 84 85 86
3 13 52 51
3 5 87 89
3 87 88 89
3 14 90 92
3 92 91 31
3 90 91 92
3 14 93 94
3 14 95 97
3 95 53 96
3 95 96 97
3 15 54 33
3 15 55 54
3 15 56 55
3 16 57 35
3 16 58 57
3 7 59 42
3 98 60 99
3 101 100 60
3 17 102 104
3 102 61 103
3 102 103 104
3 17 62 61
3 18 105 107
3 105 63 106
3 105 106 107
3 18 64 63
3 18 65 64
3 11 66 48
3 109 108 38
3 110 67 111
3 19 20 4
3 21 20 19
3 21 6 20
3 21 22 6
3 23 22 21
3 23 8 22
3 24 112 114
3 112 25 113
3 112 113 114
3 26 25 24
3 26 115 117
3 117 116 25
3 115 116 117
3 118 9 119
3 27 28 10
3 29 28 27
3 29 12 28
3 120 13 121
3 30 31 5
3 32 31 30
3 32 14 31
3 32 33 14
3 34 33 32
3 34 15 33
3 34 35 15
3 36 35 34
3 36 16 35
3 123 122 7
3 124 17 125
3 126 18 127
3 129 128 18
3 37 38 11
3 130 38 131
3 132 131 37
3 130 131 132
3 134 133 38
3 136 135 2
3 39 137 138
3 39 139 141
3 139 5 140
3 139 140 141
3 20 39 4
3 40 39 20
3 40 5 39
3 40 30 5
3 41 30 40
3 41 3 30
3 41 42 3
3 43 42 41
3 43 7 42
3 22 43 6
3 44 43 22
3 44 7 43
3 44 142 144
3 144 143 7
3 142 143 144
3 146 145 44
3 25 147 148
3 150 149 25
3 151 4 152
3 151 152 153
3 45 154 155
3 45 156 158
3 156 4 157
3 156 157 158
3 45 19 4
3 46 19 45
3 46 1 19
3 47 48 0
3 49 48 47
3 49 11 48
3 28 49 10
3 50 49 28
3 50 11 49
3 50 37 11
3 159 37 160
3 161 160 50
3 159 160 161
3 163 162 37
3 164 29 165
3 166 165 2
3 164 165 166
3 167 29 168
3 169 12 170
3 171 170 29
3 169 170 171
3 172 12 173
3 172 173 174
3 176 175 12
3 51 177 178
3 51 179 180
3 51 181 183
3 181 24 182
3 181 182 183
3 52 24 51
3 52 0 24
3 31 184 186
3 186 185 5
3 184 185 186
3 188 187 31
3 53 189 190
3 53 191 193
3 191 13 192
3 191 192 193
3 33 53 14
3 54 53 33
3 54 13 53
3 54 52 13
3 55 52 54
3 55 0 52
3 55 47 0
3 56 47 55
3 56 10 47
3 35 56 15
3 57 56 35
3 57 10 56
3 57 27 10
3 58 27 57
3 58 2 27
3 42 36 3
3 59 36 42
3 59 16 36
3 194 59 195
3 196 195 7
3 194 195 196
3 60 197 199
3 197 59 198
3 197 198 199
3 60 16 59
3 60 58 16
3 200 58 201
3 202 201 60
3 200 201 202
3 203 2 204
3 205 204 58
3 203 204 205
3 207 206 2
3 208 9 209
3 61 210 211
3 61 212 214
3 212 9 213
3 212 213 214
3 61 46 9
3 62 46 61
3 62 1 46
3 215 17 216
3 215 216 217
3 63 218 219
3 63 220 222
3 220 17 221
3 220 221 222
3 63 62 17
3 64 62 63
3 64 1 62
3 64 23 1
3 65 23 64
3 65 8 23
3 223 65 224
3 225 224 18
3 223 224 225
3 226 65 227
3 228 8 229
3 230 229 65
3 228 229 230
3 232 231 8
3 48 26 0
3 66 26 48
3 66 233 235
3 235 234 26
3 233 234 235
3 38 66 11
3 236 66 237
3 238 237 38
3 236 237 238
3 240 239 66
3 67 241 242
3 67 243 244
3 245 67 246
3 247 67 248
3 250 249 67
