ply
format ascii 1.0
element vertex 241
property float x
property float y
property float z
element face 197
property list uchar int vertex_index
end_header
7.188937 56.350758 -10.928152
5.464002 33.989296 -21.724279
7.077578 45.952354 -16.809587
7.966302 51.366402 -14.214073
5.533392 26.681355 -17.942659
7.897255 27.138809 -14.240202
5.485424 34.024837 -16.647404
8.294917 39.717537 -14.784831
6.128155 40.357647 -19.674503
6.688409 59.294563 -9.132227
9.820325 53.514717 -10.002401
9.362786 51.114262 -11.603834
7.652769 53.872101 -12.560137
6.570859 30.219349 -19.732925
5.837429 26.556934 -20.808891
4.853947 30.089634 -23.034882
9.360814 30.099884 -11.456432
8.091536 45.993225 -14.577528
9.586245 42.568245 -13.671618
8.001602 43.066917 -16.032101
7.797781 40.058674 -17.176781
6.675941 43.12199 -18.18429
8.585553 48.658531 -13.060349
7.651462 48.548584 -15.591748
6.174016 23.58275 -16.111691
7.017128 20.680605 -15.388596
6.322618 23.543125 -18.34107
5.496568 22.86372 -20.99762
4.570196 21.57102 -23.152088
6.033868 61.996746 -10.385254
5.768665 59.266289 -12.505371
6.309841 56.767006 -14.220335
6.071037 58.880974 -15.722609
7.451643 23.96731 -14.090899
5.932748 26.953608 -16.079401
5.37648 30.256104 -17.5581
6.982705 33.926624 -18.734243
6.775567 36.990814 -15.781433
7.208237 37.10656 -18.191189
5.751932 37.26038 -20.813421
6.953758 54.187599 -16.060711
5.927559 48.265705 -18.455067
8.401801 56.353638 -9.389235
8.151537 57.825541 -8.491273
6.938673 57.82266 -10.03019
8.504631 54.932738 -10.465277
9.717495 54.935617 -8.92636
8.401801 56.353638 -9.389235
4.85099 33.639672 -23.105502
4.545962 31.689841 -23.760804
5.158974 32.039465 -22.37958
8.852227 30.149786 -12.651946
9.10461 31.83374 -12.427504
4.986723 24.288394 -22.257759
5.666999 24.710327 -20.903256
5.157153 26.135001 -22.163395
4.523537 23.642044 -23.334993
5.033382 22.21737 -22.074854
4.986723 24.288394 -22.257759
4.479147 23.008766 -24.236052
4.523537 23.642044 -23.334993
6.287928 61.348543 -11.974354
6.767095 62.36854 -10.748021
6.155327 59.983314 -13.034413
5.901267 60.631518 -11.445312
6.287928 61.348543 -11.974354
6.306513 59.790657 -14.643031
5.919851 59.073632 -14.11399
6.155327 59.983314 -13.034413
7.724302 25.757115 -13.059518
8.118917 27.178026 -12.985371
7.674449 25.553059 -14.165551
7.501495 24.171366 -12.984866
7.724302 25.757115 -13.059518
5.430952 32.14047 -17.102752
5.545154 30.340787 -16.626246
5.599626 32.225153 -16.170898
7.63864 40.065468 -14.035608
8.284304 41.490822 -13.479001
8.940581 41.142891 -14.228224
6.997849 38.549055 -14.561443
7.63864 40.065468 -14.035608
7.535242 38.354175 -15.283132
6.238174 37.185693 -15.059743
6.997849 38.549055 -14.561443
6.591988 55.423231 -16.89301
6.631799 55.477303 -15.140523
6.27003 56.712935 -15.972822
5.731138 49.428768 -19.471341
6.238575 49.715042 -18.026039
7.239907 18.886913 -14.593277
6.820154 20.360831 -16.525005
7.760317 59.550455 -7.518955
6.763254 60.986328 -8.289357
7.760317 59.550455 -7.518955
8.151537 57.825541 -8.491273
10.005029 53.060577 -8.145975
9.717495 54.935617 -8.92636
10.608653 51.813055 -9.257583
10.005029 53.060577 -8.145975
9.591556 52.314489 -10.803118
10.379884 50.612827 -10.0583
10.608653 51.813055 -9.257583
4.665413 27.901351 -23.27639
5.157153 26.135001 -22.163395
5.345688 28.323284 -21.921886
4.449129 29.499576 -24.246451
4.665413 27.901351 -23.27639
4.449129 29.499576 -24.246451
4.545962 31.689841 -23.760804
8.850696 28.658563 -11.593485
8.192922 29.086517 -10.736515
8.850696 28.658563 -11.593485
8.852227 30.149786 -12.651946
8.120448 28.669248 -14.043831
8.118917 27.178026 -12.985371
6.805542 28.782139 -14.967297
8.120448 28.669248 -14.043831
5.758197 33.927141 -15.783097
5.599626 32.225153 -16.170898
8.83889 44.280735 -14.124573
10.107489 43.9166 -12.878664
9.360135 45.62909 -13.331618
8.903647 30.525617 -10.464126
8.192922 29.086517 -10.736515
9.838875 31.721165 -11.410245
8.903647 30.525617 -10.464126
9.10461 31.83374 -12.427504
9.838875 31.721165 -11.410245
10.284923 49.41493 -10.974219
10.379884 50.612827 -10.0583
9.896307 48.187065 -11.702476
10.284923 49.41493 -10.974219
8.97417 49.886397 -12.332092
9.607143 46.961742 -12.573029
9.896307 48.187065 -11.702476
8.338545 47.325878 -13.818938
9.360135 45.62909 -13.331618
9.607143 46.961742 -12.573029
6.595572 22.131678 -15.750144
6.954733 20.831474 -14.37972
6.533177 22.282547 -14.741267
6.472899 21.792091 -18.001241
6.820154 20.360831 -16.525005
6.669873 22.111865 -16.864833
6.059874 21.452389 -19.329517
6.472899 21.792091 -18.001241
5.909593 23.203423 -19.669345
5.696948 20.854464 -20.332758
6.059874 21.452389 -19.329517
5.233761 20.208115 -21.409992
5.696948 20.854464 -20.332758
5.033382 22.21737 -22.074854
4.985081 19.423824 -22.184172
5.233761 20.208115 -21.409992
4.77127 20.998197 -23.693072
4.985081 19.423824 -22.184172
4.77127 20.998197 -23.693072
4.479147 23.008766 -24.236052
6.689967 63.097974 -9.563175
6.767095 62.36854 -10.748021
6.435983 62.337419 -8.91587
6.689967 63.097974 -9.563175
6.361139 60.645654 -9.758741
6.763254 60.986328 -8.289357
6.435983 62.337419 -8.91587
6.150628 57.769919 -16.723959
6.27003 56.712935 -15.972822
6.190439 57.82399 -14.971472
6.969027 59.055273 -16.133771
6.306513 59.790657 -14.643031
6.628493 58.496055 -17.232193
6.969027 59.055273 -16.133771
6.150628 57.769919 -16.723959
6.628493 58.496055 -17.232193
7.07468 22.706802 -12.811651
7.501495 24.171366 -12.984866
7.17199 22.474827 -13.730871
7.07468 22.706802 -12.811651
6.812829 23.77503 -15.101295
6.533177 22.282547 -14.741267
7.17199 22.474827 -13.730871
5.823289 28.689539 -15.886897
6.915002 27.046208 -15.159802
6.805542 28.782139 -14.967297
5.654614 28.604856 -16.818751
5.823289 28.689539 -15.886897
5.545154 30.340787 -16.626246
9.103507 42.584083 -12.665514
10.107489 43.9166 -12.878664
9.103507 42.584083 -12.665514
8.284304 41.490822 -13.479001
6.403268 35.410129 -15.350112
6.238174 37.185693 -15.059743
6.130496 35.507825 -16.214419
5.758197 33.927141 -15.783097
6.403268 35.410129 -15.350112
6.522627 53.953209 -17.716183
6.591988 55.423231 -16.89301
6.751674 52.675989 -16.828862
6.522627 53.953209 -17.716183
7.257946 51.26539 -15.905542
7.46003 52.777 -15.137392
6.751674 52.675989 -16.828862
7.100526 49.856482 -16.59438
7.808882 49.957493 -14.902911
7.257946 51.26539 -15.905542
6.789511 48.407145 -17.023408
7.100526 49.856482 -16.59438
6.238575 49.715042 -18.026039
5.584665 47.964328 -19.734738
5.731138 49.428768 -19.471341
5.645336 46.997047 -18.927435
5.584665 47.964328 -19.734738
6.220346 45.840372 -18.104695
6.502568 47.109029 -17.632327
5.645336 46.997047 -18.927435
6.019527 44.42519 -18.792046
6.87676 44.537172 -17.496938
6.220346 45.840372 -18.104695
5.780813 43.124718 -19.620584
6.019527 44.42519 -18.792046
5.50692 41.742546 -20.365691
6.402048 41.739818 -18.929397
5.780813 43.124718 -19.620584
5.321276 40.262642 -21.157581
5.50692 41.742546 -20.365691
5.133165 38.714008 -21.72704
5.940043 38.809013 -20.243962
5.321276 40.262642 -21.157581
5.076754 37.088688 -22.33021
5.133165 38.714008 -21.72704
4.932789 35.453146 -22.78564
5.607967 35.624838 -21.26885
5.076754 37.088688 -22.33021
4.85099 33.639672 -23.105502
4.932789 35.453146 -22.78564
7.135034 19.235133 -13.747035
6.954733 20.831474 -14.37972
7.135034 19.235133 -13.747035
7.239907 18.886913 -14.593277
3 0 42 44
3 44 43 9
3 42 43 44
3 0 45 47
3 45 10 46
3 45 46 47
3 0 12 10
3 1 15 13
3 1 48 50
3 50 49 15
3 48 49 50
3 52 51 16
3 2 19 17
3 2 21 19
3 3 22 11
3 3 23 22
3 4 26 24
3 53 27 54
3 55 54 14
3 53 54 55
3 56 28 57
3 58 57 27
3 56 57 58
3 60 59 28
3 61 29 62
3 63 30 64
3 65 64 29
3 63 64 65
3 66 32 67
3 68 67 30
3 66 67 68
3 5 69 70
3 5 71 73
3 71 33 72
3 71 72 73
3 5 34 33
3 6 74 76
3 74 35 75
3 74 75 76
3 6 36 35
3 7 77 79
3 79 78 18
3 77 78 79
3 7 80 81
3 7 82 84
3 82 37 83
3 82 83 84
3 8 38 20
3 8 39 38
3 85 40 86
3 87 86 31
3 85 86 87
3 88 41 89
3 91 90 25
3 9 92 93
3 95 94 9
3 10 96 97
3 10 98 99
3 10 100 102
3 100 11 101
3 100 101 102
3 12 11 10
3 12 3 11
3 13 14 4
3 15 14 13
3 15 103 105
3 105 104 14
3 103 104 105
3 15 106 107
3 109 108 15
3 16 110 111
3 113 112 16
3 114 5 115
3 117 116 5
3 118 6 119
3 17 120 122
3 120 18 121
3 120 121 122
3 19 18 17
3 19 7 18
3 19 20 7
3 21 20 19
3 21 8 20
3 123 16 124
3 125 16 126
3 128 127 16
3 11 129 130
3 22 131 133
3 133 132 11
3 131 132 133
3 22 134 135
3 22 136 138
3 136 17 137
3 136 137 138
3 23 17 22
3 23 2 17
3 24 139 141
3 139 25 140
3 139 140 141
3 26 25 24
3 26 142 144
3 144 143 25
3 142 143 144
3 14 26 4
3 27 26 14
3 27 145 147
3 147 146 26
3 145 146 147
3 27 148 149
3 28 150 152
3 152 151 27
3 150 151 152
3 28 153 154
3 28 155 156
3 158 157 28
3 29 159 160
3 29 161 162
3 29 163 165
3 163 9 164
3 163 164 165
3 30 9 29
3 30 0 9
3 30 31 0
3 32 31 30
3 32 166 168
3 168 167 31
3 166 167 168
3 169 32 170
3 171 32 172
3 174 173 32
3 33 175 176
3 33 177 178
3 33 179 181
3 179 24 180
3 179 180 181
3 34 24 33
3 34 4 24
3 182 34 183
3 184 183 5
3 182 183 184
3 35 185 187
3 185 34 186
3 185 186 187
3 35 4 34
3 35 13 4
3 36 13 35
3 36 1 13
3 18 188 189
3 191 190 18
3 37 192 193
3 37 194 196
3 194 6 195
3 194 195 196
3 20 37 7
3 38 37 20
3 38 6 37
3 38 36 6
3 39 36 38
3 39 1 36
3 31 12 0
3 40 12 31
3 40 3 12
3 197 40 198
3 199 40 200
3 201 3 202
3 203 202 40
3 201 202 203
3 204 23 205
3 206 205 3
3 204 205 206
3 41 207 209
3 207 23 208
3 207 208 209
3 41 2 23
3 210 41 211
3 212 41 213
3 214 2 215
3 216 215 41
3 214 215 216
3 217 21 218
3 219 218 2
3 217 218 219
3 220 21 221
3 222 8 223
3 224 223 21
3 222 223 224
3 225 8 226
3 227 39 228
3 229 228 8
3 227 228 229
3 230 39 231
3 232 1 233
3 234 233 39
3 232 233 234
3 236 235 1
3 25 237 238
3 240 239 25
