ply
format ascii 1.0
element vertex 780
property float x
property float y
property float z
element face 845
property list uchar int vertex_index
end_header
-53.71516 -18.292202 -26.573938
-38.992455 -0.463291 -39.144894
-45.071728 -18.124628 -30.889538
-47.711708 -58.551983 -7.824346
-48.957573 -41.384983 -23.889023
-32.873718 -2.383291 -43.127495
-47.481049 -65.120605 -5.347575
-55.684986 -31.116171 -28.504175
-49.644699 -30.772684 -26.353893
-53.544533 -18.87282 -34.913872
-46.365898 -8.606184 -34.485191
-43.61039 -9.558275 -41.804718
-37.252754 -8.069107 -34.639336
-40.782822 -17.265039 -23.380718
-56.734474 -52.735737 -15.764522
-49.553478 -50.557171 -14.802447
-43.014366 -38.955479 -21.490011
-42.937439 -30.965521 -20.791815
-52.833424 -29.070995 -23.763361
-54.152779 -24.042288 -27.787262
-55.311035 -24.505392 -31.204981
-54.192284 -18.804081 -31.474705
-43.286125 -3.584273 -38.010597
-46.81953 -8.398522 -40.041714
-41.546406 -4.373875 -42.453835
-32.687157 -3.478176 -39.185555
-34.534584 -6.810571 -40.53413
-47.80027 -62.208241 -6.480618
-42.091286 -61.826927 -5.327167
-42.39164 -58.1903 -6.67486
-53.280231 -43.13623 -24.646841
-53.65559 -47.460777 -21.094349
-49.737278 -45.076508 -18.620697
-44.92606 -48.122814 -12.768309
-46.180775 -42.074848 -16.93545
-45.982689 -39.462475 -22.232622
-47.827511 -24.026163 -28.533951
-46.626568 -30.173309 -22.956493
-45.383549 -23.490978 -24.542442
-43.34623 -16.518225 -26.440739
-36.479179 -0.779887 -43.274803
-30.090628 -0.554875 -37.09922
-51.222313 -62.509144 -6.281444
-52.12328 -60.413689 -9.397002
-55.965191 -39.748367 -18.114485
-52.423473 -34.723553 -19.091253
-54.358845 -36.347942 -24.873089
-53.767357 -37.818275 -27.519199
-49.964153 -36.873341 -26.029272
-53.269653 -31.209858 -28.976612
-51.682213 -24.545792 -31.28299
-48.995316 -18.312004 -34.039761
-49.560993 -14.123388 -30.041616
-50.923458 -13.592901 -36.202564
-48.501019 -13.796679 -38.944862
-43.810184 -14.147141 -36.593483
-37.528584 -5.65294 -43.444481
-39.998905 -8.76829 -38.532482
-42.003838 -11.501798 -31.986328
-39.023663 -11.012857 -28.298611
-53.949791 -58.155891 -13.45872
-58.030968 -46.998196 -20.61167
-54.34441 -54.037361 -18.423241
-48.820862 -54.838829 -11.176042
-46.504677 -35.838142 -24.362251
-54.645893 -20.130905 -24.871958
-53.227802 -23.000835 -25.175579
-54.114025 -21.048183 -27.350208
-54.738747 -21.450184 -29.686682
-53.569359 -18.829977 -29.055471
-42.500069 -0.958507 -36.43858
-41.493969 -2.144256 -38.601749
-42.815788 -3.944228 -40.341026
-40.373222 -2.641523 -41.070557
-32.929642 -3.790626 -36.618153
-47.964359 -60.171764 -6.984228
-45.327477 -61.512402 -5.85304
-45.074585 -59.728691 -6.290406
-42.217049 -60.20269 -5.93182
-45.205666 -58.073498 -6.753146
-51.114403 -42.775623 -24.605129
-51.454895 -44.291782 -22.418804
-49.750927 -42.957298 -21.173977
-47.98365 -43.582661 -17.49197
-47.982582 -41.485851 -20.618176
-46.19384 -40.560913 -19.71814
-47.436363 -40.238251 -23.215948
-46.68615 -20.797102 -29.74078
-46.476067 -23.67872 -26.657446
-45.422768 -20.406973 -27.614298
-44.409538 -20.072054 -25.445827
-44.248245 -17.165546 -28.651657
-33.324001 3.050696 -39.786572
-28.752085 1.619648 -42.071075
-30.361444 -0.107023 -40.554192
-52.727257 -62.069019 -5.345222
-51.531128 -61.846581 -8.085362
-52.967915 -30.474873 -18.473003
-53.443459 -32.844326 -24.261898
-55.252831 -34.145252 -26.556015
-55.292549 -37.439056 -26.519039
-55.366386 -34.835384 -28.059912
-53.826893 -35.078938 -28.208624
-55.090668 -31.349789 -29.312845
-54.517876 -21.593319 -33.104019
-53.842628 -24.467258 -31.918432
-52.769341 -21.62447 -33.476448
-50.744743 -21.129959 -32.523071
-51.548523 -18.660618 -35.195339
-45.594555 -5.506593 -33.337437
-46.899235 -8.329395 -31.080658
-48.544613 -10.816462 -28.819103
-47.741432 -11.561978 -32.257271
-50.238411 -13.995718 -33.442078
-48.246895 -11.390035 -35.502602
-45.649902 -8.899907 -41.651627
-47.749825 -10.952585 -40.102814
-45.979897 -11.522922 -40.699596
-45.934235 -14.327451 -38.316002
-43.884705 -11.935529 -39.648273
-34.451462 -1.379259 -44.062687
-36.931843 -3.370002 -44.180965
-34.927773 -4.180427 -43.524803
-35.975704 -7.629987 -37.766766
-37.177071 -7.157283 -39.258854
-38.527447 -8.051695 -36.521248
-41.037987 -9.945165 -35.425869
-39.762432 -8.999998 -33.024517
-40.674644 -10.794239 -29.804043
-38.237953 -9.075306 -31.441433
-56.497734 -52.352165 -11.817966
-56.395031 -54.397804 -13.247107
-55.737316 -56.286018 -14.838072
-55.020092 -41.109112 -19.480326
-57.380547 -43.141106 -19.602865
-56.385052 -44.190838 -20.781326
-51.931416 -49.051262 -18.258709
-54.421288 -50.524605 -20.002682
-51.996357 -52.136433 -16.826626
-51.432087 -54.737984 -15.085553
-49.080597 -52.913239 -13.226057
-45.957157 -53.631409 -9.851023
-46.627411 -51.662331 -11.864391
-42.802235 -47.937141 -13.483986
-42.519005 -40.184315 -19.132971
-50.120064 -33.881763 -25.903549
-48.349937 -36.399147 -24.936533
-48.685402 -33.788689 -24.378958
-45.063423 -30.576687 -21.380108
-44.978741 -33.450848 -22.221464
-41.953537 -20.765945 -22.225155
-54.560467 -24.245163 -20.855318
-52.707848 -27.65066 -20.880722
-52.65741 -25.208334 -23.194523
-53.434742 -26.494808 -26.052103
-54.964611 -27.488369 -28.19042
-55.500111 -27.946558 -29.752735
-55.309319 -24.419907 -29.510584
-55.238991 -21.50411 -31.665241
-54.542267 -18.986134 -33.570076
-44.039993 -3.079358 -34.907806
-45.331795 -5.618867 -36.628647
-46.435951 -8.47096 -37.559303
-45.196831 -5.911988 -39.369499
-44.332169 -6.13934 -41.509262
-42.738441 -6.853843 -43.016212
-32.250816 -3.160065 -41.443218
-47.802834 -63.727467 -5.974149
-46.052444 -65.045059 -5.312823
-45.604233 -63.395714 -5.557359
-39.938042 -63.437614 -6.513383
-40.380058 -61.316998 -7.479105
-40.621307 -58.973061 -8.545305
-54.293213 -42.556137 -23.319601
-54.949181 -45.046974 -22.125957
-53.05064 -45.316353 -22.764263
-51.289452 -46.435993 -20.056904
-49.393745 -47.725655 -16.480877
-47.247597 -49.237251 -13.414401
-47.501621 -46.182293 -15.01536
-45.567123 -44.983738 -14.230115
-43.388187 -44.430519 -14.553751
-44.138569 -41.873573 -16.521667
-44.409306 -40.036785 -18.955072
-44.628666 -38.914619 -21.388409
-48.812054 -27.514277 -27.288095
-48.182884 -30.451813 -24.705526
-47.208466 -27.205761 -25.705896
-45.943424 -26.948895 -23.647543
-44.595131 -27.245829 -21.865673
-44.173141 -23.80418 -22.608883
-43.324158 -20.14204 -23.513708
-42.134712 -16.519735 -24.515335
-36.792637 1.757337 -39.415565
-37.876694 -0.534118 -41.440533
-35.577785 1.442277 -41.117271
-34.121986 1.109598 -42.490791
-31.928665 -0.614832 -42.270416
-31.567114 -1.467086 -40.801525
-31.866278 -1.881384 -38.424202
-48.489754 -65.22258 -4.887517
-49.1166 -63.860687 -5.942359
-49.609486 -62.699657 -6.704206
-49.929379 -60.970764 -7.644786
-50.29282 -59.314953 -8.979945
-57.251953 -38.578663 -17.363781
-56.238548 -36.18314 -17.249029
-54.283478 -37.505981 -18.134386
-53.38208 -38.471363 -20.514015
-52.031017 -31.550335 -21.203991
-52.725487 -35.435711 -22.224592
-54.478466 -39.851734 -24.931059
-53.488728 -40.573479 -26.21347
-51.116035 -40.242077 -26.28867
-48.943867 -39.34206 -25.784893
-51.846386 -37.493919 -27.308781
-51.900188 -34.488548 -27.370417
-51.241199 -31.042871 -27.943516
-54.502827 -28.053308 -30.547466
-52.639019 -27.864544 -29.92075
-50.508579 -27.699921 -28.894703
-49.581604 -24.302128 -30.109655
-48.431938 -20.676657 -31.133001
-46.77589 -18.306326 -32.713234
-50.933647 -13.034451 -26.663532
-51.503197 -16.463408 -27.812922
-51.960865 -16.385136 -31.047871
-52.935497 -16.217392 -33.844109
-52.989738 -16.059526 -36.019222
-48.662853 -10.926758 -38.199745
-50.387428 -13.384455 -38.227779
-51.296307 -16.075821 -37.12566
-48.719589 -16.380093 -36.879993
-46.292347 -16.346003 -35.585552
-44.417854 -16.1766 -33.776558
-38.905041 -2.843688 -43.294647
-39.662376 -5.085667 -43.822681
-40.611546 -7.634074 -42.753365
-35.665417 -5.995465 -41.872211
-38.967426 -7.395216 -40.903358
-41.593651 -9.639689 -40.175545
-42.13427 -11.506842 -37.781757
-42.688808 -13.03774 -34.49538
-43.503597 -14.856659 -31.444202
-42.774197 -13.719991 -29.1115
-41.520073 -13.352402 -27.008518
-39.89859 -13.756704 -25.558691
-53.368916 -59.398895 -11.385094
-51.089043 -58.387623 -10.690704
-58.013561 -41.963558 -18.498398
-58.754089 -45.700375 -19.23859
-57.829945 -50.203941 -18.673243
-56.35804 -47.59684 -21.509274
-56.775219 -51.159405 -20.254761
-56.511864 -54.252563 -17.888914
-53.855408 -56.4636 -16.134701
-51.533428 -56.493263 -12.90419
-48.465881 -56.899403 -9.168158
-45.746422 -55.760429 -8.020021
-42.733948 -55.551556 -7.996603
-44.139137 -50.879181 -11.514501
-47.389046 -38.473564 -25.318113
-45.852879 -38.087685 -24.653852
-44.747028 -37.655811 -23.635042
-46.663979 -33.395096 -23.114105
-44.640762 -35.726158 -24.165657
-43.483589 -37.696911 -22.894482
-39.608622 -0.209097 -37.833376
-38.265027 0.914715 -38.092331
-40.243212 -1.303773 -38.873322
-40.859379 -1.049579 -37.561803
-39.608622 -0.209097 -37.833376
-33.122053 -4.942021 -35.847327
-32.207105 -4.289425 -35.175719
-27.860295 1.780021 -40.913568
-27.950214 2.652249 -41.95021
-28.701589 1.273956 -40.434103
-27.860295 1.780021 -40.913568
-54.146338 -28.770801 -18.699368
-54.618412 -30.129616 -17.987109
-55.468908 -32.630712 -27.530095
-54.769897 -32.234594 -26.477052
-54.985975 -30.720053 -27.451132
-46.962782 -65.84003 -5.087767
-47.263813 -65.617912 -4.809964
-56.564752 -53.566771 -14.505814
-56.241085 -52.710026 -13.518628
-56.410806 -51.878992 -14.777335
-55.440569 -42.998949 -21.058256
-55.702572 -42.649975 -20.130826
-54.758089 -41.458086 -20.407756
-42.304377 -49.808816 -14.425334
-42.282538 -48.12751 -14.427568
-42.055526 -40.105476 -20.902187
-41.807846 -40.719894 -19.723667
-42.766686 -39.569897 -20.311491
-42.393274 -39.370087 -21.952144
-42.055526 -40.105476 -20.902187
-43.10915 -32.327621 -21.274968
-44.172142 -32.133204 -21.569114
-44.000431 -30.771104 -21.085961
-42.062771 -32.546233 -21.576337
-43.10915 -32.327621 -21.274968
-41.964035 -31.321701 -21.360563
-42.062771 -32.546233 -21.576337
-40.664479 -19.571449 -22.695089
-41.249836 -21.321902 -22.117307
-41.368179 -19.015492 -22.802937
-40.10944 -17.946837 -23.13991
-40.664479 -19.571449 -22.695089
-53.486734 -23.484139 -22.8889
-53.608939 -24.726748 -22.024921
-54.438263 -23.002554 -21.719297
-32.911484 -4.479817 -39.650025
-32.693314 -4.320761 -40.778856
-32.468986 -3.31912 -40.314386
-42.336986 -62.671972 -5.148605
-43.955082 -62.51471 -5.411542
-43.709381 -61.669664 -5.590103
-41.064352 -63.627308 -5.597806
-42.336986 -62.671972 -5.148605
-41.014664 -62.632271 -5.920275
-39.98773 -64.432652 -6.190914
-41.064352 -63.627308 -5.597806
-35.583929 2.896564 -39.12339
-36.109943 3.458114 -38.553861
-34.976503 2.739034 -39.974243
-36.185211 1.599807 -40.266418
-35.583929 2.896564 -39.12339
-33.300315 1.794503 -41.789497
-33.722994 2.080147 -41.138682
-32.901323 2.765052 -40.437387
-33.482322 0.871249 -42.813265
-33.300315 1.794503 -41.789497
-31.283737 -0.001908 -42.213863
-31.72691 0.560497 -42.155689
-31.102961 -0.428034 -41.479417
-31.747889 -1.040959 -41.53597
-31.283737 -0.001908 -42.213863
-30.536006 -1.598859 -36.106464
-31.423831 -2.262113 -36.768955
-30.978453 -1.218129 -37.761711
-49.031508 -64.94223 -4.49263
-47.930662 -65.295166 -4.21034
-50.941307 -63.13126 -5.795001
-51.693779 -62.911198 -5.32689
-51.974785 -62.289081 -5.813333
-50.169456 -63.184916 -6.111902
-49.88845 -63.807032 -5.625458
-50.941307 -63.13126 -5.795001
-56.967821 -34.281385 -17.416508
-57.588949 -35.795795 -17.35036
-53.353476 -36.114767 -18.61282
-54.360565 -35.469455 -17.734716
-53.430563 -34.078242 -18.21315
-54.073145 -37.671081 -23.952371
-53.256466 -37.214966 -22.628122
-53.542166 -35.891827 -23.548841
-54.418655 -38.099838 -24.902074
-54.132955 -39.422978 -23.981355
-54.073145 -37.671081 -23.952371
-35.100001 -6.403018 -41.20317
-34.52624 -5.459558 -42.010576
-33.960823 -5.867111 -41.341535
-45.430599 -65.963478 -5.113268
-44.786369 -65.161923 -5.023706
-55.931683 -52.984686 -10.916259
-56.521836 -53.987371 -11.53883
-53.659353 -58.777393 -12.421907
-54.546259 -58.500957 -12.071742
-54.836697 -57.879455 -13.108555
-43.001165 -54.320726 -8.885426
-44.345552 -54.591482 -8.923813
-44.61277 -53.360653 -9.812635
-41.804844 -55.850479 -8.930018
-43.001165 -54.320726 -8.885426
-43.910265 -35.878842 -23.380844
-44.809752 -34.588503 -23.193561
-44.079255 -34.741186 -22.408748
-43.331679 -36.864218 -22.745256
-44.062176 -36.711534 -23.530069
-43.910265 -35.878842 -23.380844
-42.608839 -37.910736 -22.708199
-43.331679 -36.864218 -22.745256
-53.936847 -21.56587 -25.023768
-53.77193 -22.38039 -23.879428
-54.480976 -20.945425 -23.727618
-41.362429 -0.456705 -36.480219
-42.42103 0.241158 -35.687472
-41.997019 -1.551381 -37.520164
-41.362429 -0.456705 -36.480219
-40.859379 -1.049579 -37.561803
-33.129958 -4.741784 -37.212154
-33.008715 -4.585559 -38.495856
-32.8084 -3.634401 -37.901854
-33.129958 -4.741784 -37.212154
-33.122053 -4.942021 -35.847327
-32.877979 4.880966 -39.202929
-33.849611 3.543244 -39.308893
-32.247839 4.060391 -39.43395
-32.877979 4.880966 -39.202929
-32.901323 2.765052 -40.437387
-32.247839 4.060391 -39.43395
-29.130221 2.257942 -42.156021
-27.950214 2.652249 -41.95021
-29.695447 1.115333 -42.114193
-29.130221 2.257942 -42.156021
-29.556764 0.756312 -41.312634
-30.500127 0.251997 -41.355751
-29.695447 1.115333 -42.114193
-29.506268 0.41062 -39.675662
-29.556764 0.756312 -41.312634
-28.701589 1.273956 -40.434103
-29.37086 0.186694 -37.948176
-30.226036 -0.330949 -38.826706
-29.506268 0.41062 -39.675662
-53.202062 -61.057272 -5.5684
-53.379402 -61.919605 -4.920316
-52.911225 -61.659488 -6.207312
-53.202062 -61.057272 -5.5684
-52.158752 -61.879551 -6.675423
-51.974785 -62.289081 -5.813333
-52.911225 -61.659488 -6.207312
-52.31316 -61.54827 -7.577382
-51.376721 -62.177863 -7.183403
-52.158752 -61.879551 -6.675423
-52.454502 -61.024975 -8.525367
-52.31316 -61.54827 -7.577382
-52.750578 -60.308529 -9.181187
-51.827204 -61.130135 -8.741182
-52.454502 -61.024975 -8.525367
-53.702784 -31.953902 -17.904025
-54.618412 -30.129616 -17.987109
-52.695694 -32.599213 -18.782128
-53.430563 -34.078242 -18.21315
-53.702784 -31.953902 -17.904025
-53.865212 -31.584131 -25.329994
-53.138441 -30.957661 -24.012629
-53.560194 -29.697465 -25.080725
-54.348145 -33.494789 -25.408956
-53.865212 -31.584131 -25.329994
-54.769897 -32.234594 -26.477052
-46.699602 -5.226316 -32.255726
-45.818753 -4.110057 -33.168147
-47.351942 -6.637717 -31.127336
-46.699602 -5.226316 -32.255726
-46.246895 -6.917994 -32.209047
-48.204211 -7.873273 -30.128645
-47.351942 -6.637717 -31.127336
-47.721924 -9.572928 -29.94988
-49.026899 -9.116806 -28.997867
-48.204211 -7.873273 -30.128645
-56.292437 -51.687206 -12.804057
-56.021593 -50.722237 -11.888793
-56.446382 -53.374984 -12.532536
-56.292437 -51.687206 -12.804057
-56.241085 -52.710026 -13.518628
-56.470484 -55.010191 -12.2534
-56.521836 -53.987371 -11.53883
-56.446382 -53.374984 -12.532536
-56.059317 -56.000412 -13.002749
-56.470484 -55.010191 -12.2534
-55.730459 -56.944519 -13.798231
-56.059317 -56.000412 -13.002749
-56.066174 -55.341911 -14.04259
-54.843553 -57.220954 -14.148396
-54.836697 -57.879455 -13.108555
-55.730459 -56.944519 -13.798231
-44.947897 -52.376114 -10.819319
-44.61277 -53.360653 -9.812635
-46.292284 -52.64687 -10.857707
-42.546118 -49.449543 -13.163386
-43.60803 -49.542379 -12.805547
-43.864148 -48.029978 -13.126148
-42.546118 -49.449543 -13.163386
-42.304377 -49.808816 -14.425334
-41.596145 -41.866453 -18.774532
-42.340666 -41.290548 -18.115152
-41.596145 -41.866453 -18.774532
-41.807846 -40.719894 -19.723667
-44.129801 -33.570284 -21.989792
-45.021082 -32.013768 -21.800786
-44.172142 -32.133204 -21.569114
-44.079255 -34.741186 -22.408748
-44.129801 -33.570284 -21.989792
-41.466515 -23.122371 -21.931932
-42.277824 -22.68797 -21.89812
-41.466515 -23.122371 -21.931932
-41.249836 -21.321902 -22.117307
-53.634158 -25.947912 -20.86802
-54.016304 -27.358695 -19.903227
-54.942614 -25.655946 -19.890525
-52.942606 -24.104585 -24.185051
-53.486734 -23.484139 -22.8889
-53.77193 -22.38039 -23.879428
-53.860853 -28.409371 -26.225096
-53.560194 -29.697465 -25.080725
-53.134083 -27.782902 -24.907732
-54.625788 -28.906152 -27.294255
-53.860853 -28.409371 -26.225096
-54.199676 -26.991588 -27.121261
-55.324798 -29.30227 -28.347297
-54.985975 -30.720053 -27.451132
-54.625788 -28.906152 -27.294255
-43.617546 -0.421623 -35.434363
-42.42103 0.241158 -35.687472
-44.387508 -1.482049 -34.668976
-43.617546 -0.421623 -35.434363
-43.270031 -2.018933 -35.673193
-45.041472 -2.89644 -33.953331
-44.387508 -1.482049 -34.668976
-44.817274 -4.292975 -34.122622
-45.818753 -4.110057 -33.168147
-45.041472 -2.89644 -33.953331
-32.818939 -4.041857 -41.79608
-33.13039 -3.653471 -42.638218
-32.562267 -2.771678 -42.285357
-32.818939 -4.041857 -41.79608
-32.693314 -4.320761 -40.778856
-33.835197 -6.146014 -40.324312
-33.960823 -5.867111 -41.341535
-32.911484 -4.479817 -39.650025
-33.008715 -4.585559 -38.495856
-34.213059 -7.232816 -39.555004
-33.835197 -6.146014 -40.324312
-34.933619 -7.642524 -38.171322
-35.255144 -7.220279 -39.150448
-34.213059 -7.232816 -39.555004
-35.518023 -8.276879 -37.122895
-34.933619 -7.642524 -38.171322
-36.156548 -8.49644 -35.559179
-36.614229 -7.849547 -36.203051
-35.518023 -8.276879 -37.122895
-36.653303 -8.800174 -34.139196
-36.156548 -8.49644 -35.559179
-44.562264 -64.33725 -5.145974
-44.786369 -65.161923 -5.023706
-45.828339 -64.220386 -5.435091
-44.09346 -63.456366 -5.263701
-45.465855 -62.454058 -5.705199
-43.955082 -62.51471 -5.411542
-44.562264 -64.33725 -5.145974
-44.09346 -63.456366 -5.263701
-39.442978 -65.62439 -7.176496
-39.98773 -64.432652 -6.190914
-39.596322 -64.351505 -7.696905
-39.442978 -65.62439 -7.176496
-39.817329 -63.291197 -8.179766
-39.596322 -64.351505 -7.696905
-40.15905 -62.377306 -6.996244
-40.397228 -61.955057 -8.759267
-39.817329 -63.291197 -8.179766
-40.517853 -60.783089 -9.292367
-40.397228 -61.955057 -8.759267
-40.500682 -60.145029 -8.012205
-40.717147 -59.535231 -9.838748
-40.517853 -60.783089 -9.292367
-56.904967 -50.754973 -16.272457
-56.410806 -51.878992 -14.777335
-54.621197 -43.801555 -22.722779
-54.722634 -43.427017 -21.730571
-54.394649 -42.181598 -22.327393
-42.575513 -46.374199 -14.96245
-42.282538 -48.12751 -14.427568
-43.095211 -46.18383 -14.018868
-42.547216 -44.83432 -15.149328
-42.575513 -46.374199 -14.96245
-42.922407 -43.555847 -16.133286
-42.547216 -44.83432 -15.149328
-43.763378 -43.152046 -15.537709
-43.150448 -42.135177 -16.8095
-42.922407 -43.555847 -16.133286
-43.285816 -41.216784 -18.026202
-43.150448 -42.135177 -16.8095
-44.273938 -40.955179 -17.73837
-43.464156 -40.11055 -19.044021
-42.340666 -41.290548 -18.115152
-43.285816 -41.216784 -18.026202
-43.676752 -27.619543 -21.443092
-42.847906 -29.479388 -20.906163
-43.766285 -29.105675 -21.328744
-43.465757 -25.898718 -21.814698
-43.676752 -27.619543 -21.443092
-44.384136 -25.525005 -22.237278
-43.387626 -24.207088 -22.089984
-43.465757 -25.898718 -21.814698
-42.963135 -22.376018 -22.542397
-43.387626 -24.207088 -22.089984
-43.748649 -21.97311 -23.061295
-42.638847 -20.453992 -22.869432
-42.277824 -22.68797 -21.89812
-42.963135 -22.376018 -22.542397
-37.165118 2.025028 -38.227666
-36.109943 3.458114 -38.553861
-37.892546 0.647023 -39.28023
-38.265027 0.914715 -38.092331
-37.165118 2.025028 -38.227666
-34.450893 2.246487 -40.451921
-34.976503 2.739034 -39.974243
-33.849611 3.543244 -39.308893
-33.64706 -0.373179 -43.599213
-34.286724 -0.13483 -43.276739
-33.482322 0.871249 -42.813265
-32.858188 -0.875195 -43.131617
-33.66259 -1.881275 -43.595091
-33.64706 -0.373179 -43.599213
-32.385662 0.009034 -42.703077
-31.72691 0.560497 -42.155689
-32.401191 -1.499061 -42.698955
-32.858188 -0.875195 -43.131617
-32.385662 0.009034 -42.703077
-30.964279 -0.787054 -40.677858
-31.102961 -0.428034 -41.479417
-30.500127 0.251997 -41.355751
-31.955513 -3.216735 -35.865931
-32.39796 -2.836005 -37.521178
-31.423831 -2.262113 -36.768955
-32.207105 -4.289425 -35.175719
-31.955513 -3.216735 -35.865931
-47.768165 -65.668899 -4.579935
-47.930662 -65.295166 -4.21034
-47.985401 -65.171593 -5.117546
-47.263813 -65.617912 -4.809964
-47.768165 -65.668899 -4.579935
-52.446106 -62.818548 -4.793822
-53.379402 -61.919605 -4.920316
-52.446106 -62.818548 -4.793822
-51.693779 -62.911198 -5.32689
-49.575027 -64.487978 -5.098038
-49.031508 -64.94223 -4.49263
-48.803177 -64.541633 -5.414938
-49.575027 -64.487978 -5.098038
-49.88845 -63.807032 -5.625458
-58.095652 -36.993557 -17.407736
-58.125611 -38.208359 -16.772365
-56.74525 -37.380902 -17.306405
-58.095652 -36.993557 -17.407736
-57.588949 -35.795795 -17.35036
-55.3381 -34.808035 -17.292038
-56.967821 -34.281385 -17.416508
-55.261013 -36.844561 -17.691707
-55.3381 -34.808035 -17.292038
-54.360565 -35.469455 -17.734716
-53.939083 -40.139212 -20.924601
-54.758089 -41.458086 -20.407756
-54.201086 -39.790238 -19.997171
-52.837881 -29.062766 -19.676862
-54.146338 -28.770801 -18.699368
-54.016304 -27.358695 -19.903227
-53.584762 -38.732792 -21.772834
-53.053784 -36.953537 -21.369304
-53.256466 -37.214966 -22.628122
-53.939083 -40.139212 -20.924601
-53.584762 -38.732792 -21.772834
-54.040329 -40.775179 -23.175626
-54.394649 -42.181598 -22.327393
-54.38584 -41.203936 -24.12533
-54.040329 -40.775179 -23.175626
-54.132955 -39.422978 -23.981355
-55.973685 -24.219946 -20.297712
-54.942614 -25.655946 -19.890525
-55.525463 -22.664325 -21.067514
-55.973685 -24.219946 -20.297712
-54.438263 -23.002554 -21.719297
-55.525463 -22.664325 -21.067514
-55.511942 -19.81117 -24.253643
-54.480976 -20.945425 -23.727618
-55.127396 -18.826334 -24.934142
-55.511942 -19.81117 -24.253643
-54.662029 -17.906982 -25.785132
-54.180526 -19.211554 -25.722948
-55.127396 -18.826334 -24.934142
-28.799726 -1.372254 -36.412973
-29.37086 0.186694 -37.948176
-29.090699 -2.271254 -35.862007
-28.799726 -1.372254 -36.412973
-30.536006 -1.598859 -36.106464
-29.090699 -2.271254 -35.862007
-53.726923 -16.696635 -25.792964
-54.662029 -17.906982 -25.785132
-50.154702 -10.259957 -28.273584
-49.026899 -9.116806 -28.997867
-51.349218 -11.368952 -27.195798
-50.154702 -10.259957 -28.273584
-49.73913 -11.925456 -27.741318
-52.875534 -12.432157 -26.41014
-51.349218 -11.368952 -27.195798
-52.336167 -14.06776 -25.837761
-52.875534 -12.432157 -26.41014
-52.620942 -15.782239 -26.412456
-52.336167 -14.06776 -25.837761
-51.218422 -14.74893 -27.238227
-52.609178 -17.377805 -27.19343
-53.726923 -16.696635 -25.792964
-52.620942 -15.782239 -26.412456
-34.157418 -4.552039 -42.836872
-33.900745 -3.281859 -43.326149
-33.13039 -3.653471 -42.638218
-35.296595 -5.087946 -42.698507
-34.157418 -4.552039 -42.836872
-34.52624 -5.459558 -42.010576
-37.145902 -9.303273 -32.540245
-37.745354 -8.572207 -33.040385
-36.653303 -8.800174 -34.139196
-37.496559 -9.893941 -31.112823
-37.145902 -9.303273 -32.540245
-37.889414 -10.862717 -29.541412
-38.630808 -10.044082 -29.870022
-37.496559 -9.893941 -31.112823
-38.244881 -11.784326 -28.084122
-37.889414 -10.862717 -29.541412
-38.682344 -13.156249 -26.714162
-39.461126 -12.38478 -26.928651
-38.244881 -11.784326 -28.084122
-39.161577 -14.370847 -25.283632
-38.682344 -13.156249 -26.714162
-39.603693 -16.125015 -24.194646
-40.340706 -15.510872 -24.469704
-39.161577 -14.370847 -25.283632
-40.10944 -17.946837 -23.13991
-39.603693 -16.125015 -24.194646
-46.24848 -65.802257 -5.070391
-46.962782 -65.84003 -5.087767
-46.766746 -65.082832 -5.330199
-46.24848 -65.802257 -5.070391
-45.430599 -65.963478 -5.113268
-56.141033 -51.361114 -11.093102
-56.021593 -50.722237 -11.888793
-56.141033 -51.361114 -11.093102
-55.931683 -52.984686 -10.916259
-53.443563 -59.586123 -10.095212
-52.750578 -60.308529 -9.181187
-54.066381 -59.078726 -11.089258
-54.546259 -58.500957 -12.071742
-52.746098 -59.906292 -10.391048
-53.443563 -59.586123 -10.095212
-54.066381 -59.078726 -11.089258
-57.268833 -39.955129 -16.835811
-58.125611 -38.208359 -16.772365
-57.649637 -41.647577 -17.403119
-57.268833 -39.955129 -16.835811
-57.632757 -40.27111 -17.931089
-57.740274 -43.431604 -17.784035
-57.649637 -41.647577 -17.403119
-58.110539 -45.300013 -18.154131
-57.740274 -43.431604 -17.784035
-58.383825 -43.831967 -18.868494
-57.914774 -47.237291 -18.009491
-58.110539 -45.300013 -18.154131
-57.452702 -49.489075 -17.726817
-57.914774 -47.237291 -18.009491
-58.292017 -47.952158 -18.955917
-57.28221 -51.469839 -17.218882
-56.904967 -50.754973 -16.272457
-57.452702 -49.489075 -17.726817
-55.667117 -44.618906 -21.453641
-55.440569 -42.998949 -21.058256
-54.722634 -43.427017 -21.730571
-40.748524 -57.561232 -9.204369
-41.677627 -57.262309 -8.270954
-41.804844 -55.850479 -8.930018
-40.717147 -59.535231 -9.838748
-40.748524 -57.561232 -9.204369
-43.70376 -51.984539 -10.644374
-44.947897 -52.376114 -10.819319
-45.383274 -51.270756 -11.689446
-43.214569 -50.920563 -12.178643
-44.532598 -49.500997 -12.141405
-43.60803 -49.542379 -12.805547
-42.792963 -52.214325 -11.495195
-43.214569 -50.920563 -12.178643
-43.70376 -51.984539 -10.644374
-42.792963 -52.214325 -11.495195
-42.627886 -38.740803 -22.65438
-42.393274 -39.370087 -21.952144
-43.248978 -38.326195 -22.192246
-42.627886 -38.740803 -22.65438
-42.608839 -37.910736 -22.708199
-41.964035 -31.321701 -21.360563
-42.847906 -29.479388 -20.906163
3 0 67 65
3 0 69 67
3 1 267 268
3 1 269 271
3 269 71 270
3 269 270 271
3 1 73 71
3 273 272 74
3 3 77 75
3 3 79 77
3 4 82 80
3 4 84 82
3 4 86 84
3 2 89 87
3 2 91 89
3 274 93 275
3 277 276 93
3 278 97 279
3 7 280 282
3 280 99 281
3 280 281 282
3 7 101 99
3 7 103 101
3 9 106 104
3 9 108 106
3 10 110 109
3 10 112 110
3 10 114 112
3 11 117 115
3 11 119 117
3 5 122 120
3 12 125 123
3 12 127 125
3 12 129 127
3 6 283 284
3 14 285 287
3 285 131 286
3 285 286 287
3 14 132 131
3 288 135 289
3 290 289 133
3 288 289 290
3 15 138 136
3 15 140 138
3 15 142 140
3 292 291 143
3 16 293 295
3 295 294 144
3 293 294 295
3 16 296 297
3 8 147 145
3 17 298 300
3 300 299 148
3 298 299 300
3 17 301 302
3 17 303 304
3 13 305 307
3 307 306 150
3 305 306 307
3 13 308 309
3 310 153 311
3 312 311 151
3 310 311 312
3 19 154 66
3 19 155 154
3 19 157 155
3 21 158 68
3 21 159 158
3 22 160 70
3 22 161 160
3 22 163 161
3 24 164 72
3 24 165 164
3 25 313 315
3 315 314 166
3 313 314 315
3 27 169 167
3 28 316 318
3 318 317 76
3 316 317 318
3 28 319 320
3 28 321 323
3 321 170 322
3 321 322 323
3 29 171 78
3 29 172 171
3 30 175 173
3 32 176 81
3 32 177 176
3 32 179 177
3 34 180 83
3 34 181 180
3 34 182 181
3 35 183 85
3 35 184 183
3 36 187 185
3 38 188 88
3 38 189 188
3 38 190 189
3 39 191 90
3 39 192 191
3 324 193 325
3 326 195 327
3 328 327 193
3 326 327 328
3 329 196 330
3 331 330 92
3 329 330 331
3 333 332 196
3 334 197 335
3 336 198 337
3 338 337 197
3 336 337 338
3 41 199 94
3 41 339 341
3 341 340 199
3 339 340 341
3 342 200 343
3 42 344 346
3 346 345 95
3 344 345 346
3 42 347 349
3 347 201 348
3 347 348 349
3 42 202 201
3 43 203 96
3 43 204 203
3 350 206 351
3 45 352 354
3 352 207 353
3 352 353 354
3 45 208 207
3 18 209 152
3 46 210 98
3 46 355 357
3 357 356 210
3 355 356 357
3 46 358 360
3 358 211 359
3 358 359 360
3 47 212 100
3 47 213 212
3 47 215 213
3 49 216 102
3 49 217 216
3 20 218 156
3 50 219 105
3 50 220 219
3 50 221 220
3 51 222 107
3 51 223 222
3 52 224 111
3 52 225 224
3 52 226 225
3 53 227 113
3 53 228 227
3 23 229 162
3 54 230 116
3 54 231 230
3 54 232 231
3 55 233 118
3 55 234 233
3 40 235 194
3 56 236 121
3 56 237 236
3 26 361 363
3 361 238 362
3 361 362 363
3 57 239 124
3 57 240 239
3 57 241 240
3 58 242 126
3 58 243 242
3 58 244 243
3 59 245 128
3 59 246 245
3 365 364 168
3 367 366 130
3 60 368 370
3 368 247 369
3 368 369 370
3 60 248 247
3 44 249 205
3 61 250 134
3 61 251 250
3 31 252 174
3 62 253 137
3 62 254 253
3 62 255 254
3 63 256 139
3 63 257 256
3 63 258 257
3 371 259 372
3 373 372 141
3 371 372 373
3 375 374 259
3 33 260 178
3 48 261 214
3 64 262 146
3 64 263 262
3 37 264 186
3 376 265 377
3 378 377 149
3 376 377 378
3 379 266 380
3 381 380 265
3 379 380 381
3 383 382 266
3 65 384 386
3 384 66 385
3 384 385 386
3 67 66 65
3 67 19 66
3 67 68 19
3 69 68 67
3 69 21 68
3 387 70 388
3 71 389 391
3 389 70 390
3 389 390 391
3 71 22 70
3 71 72 22
3 73 72 71
3 73 24 72
3 74 392 394
3 394 393 25
3 392 393 394
3 396 395 74
3 75 76 27
3 77 76 75
3 77 28 76
3 77 78 28
3 79 78 77
3 79 29 78
3 80 81 30
3 82 81 80
3 82 32 81
3 82 83 32
3 84 83 82
3 84 34 83
3 84 85 34
3 86 85 84
3 86 35 85
3 87 88 36
3 89 88 87
3 89 38 88
3 89 90 38
3 91 90 89
3 91 39 90
3 397 92 398
3 399 92 400
3 402 401 92
3 93 403 404
3 93 405 406
3 93 407 409
3 407 94 408
3 407 408 409
3 410 94 411
3 412 411 93
3 410 411 412
3 413 41 414
3 415 414 94
3 413 414 415
3 416 95 417
3 418 95 419
3 420 42 421
3 422 421 95
3 420 421 422
3 423 96 424
3 425 424 42
3 423 424 425
3 426 96 427
3 428 43 429
3 430 429 96
3 428 429 430
3 97 431 432
3 97 433 435
3 433 45 434
3 433 434 435
3 436 98 437
3 438 437 18
3 436 437 438
3 99 439 441
3 439 98 440
3 439 440 441
3 99 46 98
3 99 100 46
3 101 100 99
3 101 47 100
3 101 102 47
3 103 102 101
3 103 49 102
3 104 105 20
3 106 105 104
3 106 50 105
3 106 107 50
3 108 107 106
3 108 51 107
3 109 442 443
3 110 444 446
3 446 445 109
3 444 445 446
3 110 447 448
3 110 449 451
3 449 111 450
3 449 450 451
3 112 111 110
3 112 52 111
3 112 113 52
3 114 113 112
3 114 53 113
3 115 116 23
3 117 116 115
3 117 54 116
3 117 118 54
3 119 118 117
3 119 55 118
3 120 121 40
3 122 121 120
3 122 56 121
3 123 124 26
3 125 124 123
3 125 57 124
3 125 126 57
3 127 126 125
3 127 58 126
3 127 128 58
3 129 128 127
3 129 59 128
3 452 130 453
3 131 454 456
3 454 130 455
3 454 455 456
3 131 457 459
3 459 458 130
3 457 458 459
3 131 460 461
3 132 462 464
3 464 463 131
3 462 463 464
3 132 465 467
3 465 60 466
3 465 466 467
3 133 134 44
3 135 134 133
3 135 61 134
3 136 137 31
3 138 137 136
3 138 62 137
3 138 139 62
3 140 139 138
3 140 63 139
3 140 141 63
3 142 141 140
3 142 468 470
3 470 469 141
3 468 469 470
3 143 471 473
3 473 472 33
3 471 472 473
3 475 474 143
3 144 476 477
3 479 478 144
3 145 146 48
3 147 146 145
3 147 64 146
3 148 149 37
3 480 149 481
3 482 481 148
3 480 481 482
3 484 483 149
3 150 485 486
3 488 487 150
3 151 489 491
3 489 152 490
3 489 490 491
3 153 152 151
3 153 18 152
3 66 492 494
3 492 153 493
3 492 493 494
3 154 153 66
3 154 18 153
3 154 495 497
3 497 496 18
3 495 496 497
3 155 498 500
3 500 499 154
3 498 499 500
3 155 501 503
3 501 7 502
3 501 502 503
3 155 156 7
3 157 156 155
3 157 20 156
3 68 157 19
3 158 157 68
3 158 20 157
3 158 104 20
3 159 104 158
3 159 9 104
3 70 504 505
3 160 506 508
3 508 507 70
3 506 507 508
3 160 509 510
3 160 511 513
3 511 109 512
3 511 512 513
3 161 109 160
3 161 10 109
3 161 162 10
3 163 162 161
3 163 23 162
3 72 163 22
3 164 163 72
3 164 23 163
3 164 115 23
3 165 115 164
3 165 11 115
3 166 514 516
3 516 515 5
3 514 515 516
3 518 517 166
3 519 26 520
3 522 521 25
3 523 26 524
3 525 123 526
3 527 526 26
3 525 526 527
3 528 123 529
3 530 12 531
3 532 531 123
3 530 531 532
3 534 533 12
3 167 168 6
3 169 168 167
3 169 535 537
3 537 536 168
3 535 536 537
3 76 169 27
3 538 169 539
3 540 539 76
3 538 539 540
3 542 541 169
3 170 543 544
3 170 545 546
3 78 170 28
3 171 170 78
3 171 547 549
3 549 548 170
3 547 548 549
3 171 550 551
3 172 552 554
3 554 553 171
3 552 553 554
3 172 555 556
3 557 14 558
3 173 559 561
3 559 174 560
3 559 560 561
3 175 174 173
3 175 31 174
3 81 175 30
3 176 175 81
3 176 31 175
3 176 136 31
3 177 136 176
3 177 15 136
3 177 178 15
3 179 178 177
3 179 33 178
3 83 179 32
3 180 179 83
3 180 33 179
3 180 143 33
3 181 143 180
3 181 562 564
3 564 563 143
3 562 563 564
3 181 565 566
3 182 567 569
3 569 568 181
3 567 568 569
3 182 570 571
3 85 182 34
3 183 182 85
3 183 572 574
3 574 573 182
3 572 573 574
3 183 575 577
3 575 144 576
3 575 576 577
3 184 144 183
3 184 16 144
3 185 186 8
3 187 186 185
3 187 37 186
3 88 187 36
3 188 187 88
3 188 37 187
3 188 148 37
3 189 148 188
3 189 17 148
3 189 578 580
3 580 579 17
3 578 579 580
3 190 581 583
3 583 582 189
3 581 582 583
3 190 584 585
3 90 190 38
3 191 190 90
3 191 586 588
3 588 587 190
3 586 587 588
3 191 589 591
3 589 150 590
3 589 590 591
3 192 150 191
3 192 13 150
3 193 592 593
3 193 594 596
3 594 1 595
3 594 595 596
3 193 194 1
3 195 194 193
3 195 40 194
3 92 597 599
3 597 195 598
3 597 598 599
3 196 195 92
3 196 40 195
3 196 120 40
3 600 120 601
3 602 601 196
3 600 601 602
3 603 5 604
3 605 604 120
3 603 604 605
3 197 606 607
3 197 608 610
3 608 5 609
3 608 609 610
3 197 166 5
3 198 166 197
3 198 25 166
3 94 611 613
3 611 198 612
3 611 612 613
3 199 198 94
3 199 25 198
3 199 74 25
3 614 74 615
3 616 615 199
3 614 615 616
3 618 617 74
3 200 619 620
3 200 621 623
3 621 6 622
3 621 622 623
3 95 624 625
3 627 626 95
3 628 200 629
3 201 630 632
3 630 200 631
3 630 631 632
3 201 6 200
3 201 167 6
3 202 167 201
3 202 27 167
3 96 202 42
3 203 202 96
3 203 27 202
3 203 75 27
3 204 75 203
3 204 3 75
3 633 205 634
3 206 635 637
3 635 205 636
3 635 636 637
3 206 44 205
3 638 206 639
3 207 640 642
3 640 206 641
3 640 641 642
3 207 44 206
3 207 133 44
3 208 133 207
3 208 643 645
3 645 644 133
3 643 644 645
3 152 646 648
3 646 97 647
3 646 647 648
3 209 97 152
3 209 45 97
3 98 209 18
3 210 209 98
3 210 45 209
3 210 208 45
3 649 208 650
3 651 650 210
3 649 650 651
3 653 652 208
3 654 173 655
3 211 656 658
3 656 173 657
3 656 657 658
3 211 30 173
3 100 211 46
3 212 211 100
3 212 30 211
3 212 80 30
3 213 80 212
3 213 4 80
3 213 214 4
3 215 214 213
3 215 48 214
3 102 215 47
3 216 215 102
3 216 48 215
3 216 145 48
3 217 145 216
3 217 8 145
3 156 103 7
3 218 103 156
3 218 49 103
3 105 218 20
3 219 218 105
3 219 49 218
3 219 217 49
3 220 217 219
3 220 8 217
3 220 185 8
3 221 185 220
3 221 36 185
3 107 221 50
3 222 221 107
3 222 36 221
3 222 87 36
3 223 87 222
3 223 2 87
3 659 151 660
3 661 151 662
3 664 663 151
3 665 65 666
3 667 65 668
3 669 0 670
3 671 670 65
3 669 670 671
3 672 41 673
3 674 41 675
3 677 676 41
3 678 0 679
3 111 680 681
3 224 682 684
3 684 683 111
3 682 683 684
3 224 685 686
3 224 687 688
3 225 689 691
3 691 690 224
3 689 690 691
3 225 692 694
3 692 0 693
3 692 693 694
3 225 69 0
3 226 69 225
3 226 21 69
3 113 226 52
3 227 226 113
3 227 21 226
3 227 159 21
3 228 159 227
3 228 9 159
3 162 114 10
3 229 114 162
3 229 53 114
3 116 229 23
3 230 229 116
3 230 53 229
3 230 228 53
3 231 228 230
3 231 9 228
3 231 108 9
3 232 108 231
3 232 51 108
3 118 232 54
3 233 232 118
3 233 51 232
3 233 223 51
3 234 223 233
3 234 2 223
3 194 73 1
3 235 73 194
3 235 24 73
3 121 235 40
3 236 235 121
3 236 24 235
3 236 165 24
3 237 165 236
3 237 11 165
3 695 122 696
3 697 696 5
3 695 696 697
3 238 698 700
3 698 122 699
3 698 699 700
3 238 56 122
3 124 238 26
3 239 238 124
3 239 56 238
3 239 237 56
3 240 237 239
3 240 11 237
3 240 119 11
3 241 119 240
3 241 55 119
3 126 241 57
3 242 241 126
3 242 55 241
3 242 234 55
3 243 234 242
3 243 2 234
3 243 91 2
3 244 91 243
3 244 39 91
3 128 244 58
3 245 244 128
3 245 39 244
3 245 192 39
3 246 192 245
3 246 13 192
3 701 129 702
3 703 702 12
3 701 702 703
3 704 129 705
3 706 59 707
3 708 707 129
3 706 707 708
3 709 59 710
3 711 246 712
3 713 712 59
3 711 712 713
3 714 246 715
3 716 13 717
3 718 717 246
3 716 717 718
3 720 719 13
3 168 721 723
3 723 722 6
3 721 722 723
3 725 724 168
3 130 726 727
3 729 728 130
3 730 43 731
3 247 732 733
3 247 734 736
3 734 43 735
3 734 735 736
3 247 204 43
3 248 204 247
3 248 3 204
3 205 737 738
3 249 739 741
3 741 740 205
3 739 740 741
3 249 742 743
3 134 249 44
3 250 249 134
3 250 744 746
3 746 745 249
3 744 745 746
3 250 747 748
3 251 749 751
3 751 750 250
3 749 750 751
3 251 752 754
3 752 14 753
3 752 753 754
3 174 755 757
3 755 135 756
3 755 756 757
3 252 135 174
3 252 61 135
3 137 252 31
3 253 252 137
3 253 61 252
3 253 251 61
3 254 251 253
3 254 14 251
3 254 132 14
3 255 132 254
3 255 60 132
3 139 255 62
3 256 255 139
3 256 60 255
3 256 248 60
3 257 248 256
3 257 3 248
3 257 79 3
3 258 79 257
3 258 29 79
3 141 258 63
3 259 258 141
3 259 29 258
3 259 172 29
3 758 172 759
3 760 759 259
3 758 759 760
3 762 761 172
3 178 142 15
3 260 142 178
3 260 763 765
3 765 764 142
3 763 764 765
3 766 260 767
3 768 767 33
3 766 767 768
3 769 260 770
3 772 771 260
3 214 86 4
3 261 86 214
3 261 35 86
3 146 261 48
3 262 261 146
3 262 35 261
3 262 184 35
3 263 184 262
3 263 16 184
3 186 147 8
3 264 147 186
3 264 64 147
3 149 264 37
3 265 264 149
3 265 64 264
3 265 263 64
3 266 263 265
3 266 16 263
3 266 773 775
3 775 774 16
3 773 774 775
3 777 776 266
3 779 778 17
