ply
format ascii 1.0
element vertex 734
property float x
property float y
property float z
element face 812
property list uchar int vertex_index
end_header
-11.605218 -8.899723 47.882778
-9.101554 -10.86822 57.406494
-9.797683 11.349635 50.460411
-11.640224 25.575525 32.920212
-13.200437 -13.152565 40.855553
-7.051669 0.199392 65.963966
-7.893767 22.607866 49.808983
-5.493735 -9.827198 51.400482
-11.988548 -19.269966 46.325794
-6.698237 13.230044 61.397064
-8.065084 1.271519 58.411041
-9.928471 1.807102 49.609657
-11.741622 14.553088 34.491673
-10.53779 8.611588 42.520447
-12.283579 -5.013696 45.058727
-12.174225 -7.783107 42.283192
-13.212247 -11.077444 44.622551
-6.536281 -13.8194 67.71167
-6.422235 -10.533215 54.003868
-5.160821 -16.245068 51.521465
-5.213391 -16.330883 55.397583
-6.801227 18.901752 60.996376
-8.454124 -4.363411 60.701923
-6.176402 0.469392 62.77993
-6.543922 -4.513095 57.672768
-6.00506 -4.087154 54.355022
-13.456266 22.976309 28.931528
-10.651285 18.343622 30.738251
-13.504004 19.546743 33.839245
-10.518351 14.833887 46.109222
-11.502684 12.930357 42.03437
-9.585402 10.296801 45.645943
-10.222914 4.872027 46.050831
-8.408766 6.623402 49.989559
-15.566432 -21.189148 42.759918
-9.922407 -10.415331 40.649178
-9.48661 -10.390939 61.342773
-5.871511 -15.878145 60.099129
-6.036041 -14.536466 63.959023
-10.659686 21.735323 37.592648
-8.378604 23.591209 40.532921
-7.78332 19.612953 45.341896
-9.138576 17.066116 50.423622
-8.550943 -9.277471 50.295624
-11.707739 -14.235629 47.933823
-8.414885 -15.304438 49.937561
-8.633298 -20.370682 48.810112
-6.160254 23.68837 55.436695
-7.849036 17.899841 55.916546
-8.156221 12.127215 55.718697
-6.636572 7.371478 65.472694
-7.652944 7.664883 61.153137
-8.948251 6.812345 55.231396
-8.400707 1.935926 53.48888
-7.954302 -3.696004 51.554138
-9.898935 -3.208029 48.694923
-9.992527 10.562483 35.690681
-12.452918 16.081553 38.162476
-11.473658 11.632311 38.701576
-11.064533 7.023634 38.915344
-11.391756 3.287629 42.144958
-10.908696 0.158372 45.925148
-14.049171 -15.997437 43.812542
-14.998644 -17.97492 39.189568
-12.638573 -21.146841 36.9417
-11.921081 -6.883479 46.528233
-12.746539 -8.179365 45.090355
-12.620715 -10.033281 46.474709
-8.118814 -10.701222 55.391186
-6.244959 -13.767975 54.520599
-7.465304 -13.999664 56.509369
-9.467061 -7.315163 58.630077
-7.516088 -4.498153 59.202953
-8.351501 -7.188939 56.71751
-6.966156 -7.304838 55.224007
-13.473915 24.273243 31.165783
-13.70974 21.269552 31.398457
-12.925476 22.590811 33.500782
-10.638525 13.254399 48.199059
-10.50104 12.428465 45.962395
-9.582104 10.876507 47.893494
-8.335749 8.629825 47.484169
-8.680868 9.037004 49.971832
-12.490985 -10.543245 41.889198
-11.135794 -9.073454 41.32666
-11.682404 -11.764016 40.56588
-9.303488 -10.04272 63.206261
-7.809486 -12.739097 62.599487
-7.848318 -12.272703 64.387413
-5.965472 -15.872763 68.955803
-5.502681 -16.205624 67.117966
-10.116748 -7.187748 63.641632
-9.973219 -7.299595 62.070454
-7.668965 24.234373 47.068356
-7.197233 22.523882 44.913734
-7.687847 21.085785 47.327179
-8.467175 18.465153 47.84153
-8.110514 19.664606 50.000877
-6.909061 -9.449675 50.736313
-8.611525 -12.338936 50.382912
-6.965714 -12.517196 50.732693
-5.218563 -19.188334 51.630562
-6.373013 -18.617363 49.730515
-5.354869 -17.798637 61.217262
-5.322074 -18.395258 58.8536
-6.417614 24.06802 57.73872
-6.632878 16.147997 61.573936
-6.734177 18.42481 58.664696
-7.300633 15.571302 58.80352
-8.365335 14.939873 55.919411
-7.469247 12.614977 58.572899
-7.339723 6.978323 66.76944
-6.65212 3.507977 66.547615
-7.032302 0.966827 60.886749
-7.266916 3.972437 63.195812
-8.820025 4.007277 60.798798
-8.820617 7.401617 58.255463
-9.351955 4.13725 57.241993
-8.833254 4.32215 54.505909
-8.333651 1.626731 55.789818
-5.148763 -6.906471 52.440601
-6.675683 -3.925103 52.806145
-6.093961 -6.592042 51.279102
-7.601036 -6.393744 50.532982
-11.349785 16.249863 32.607784
-9.292602 16.268084 31.689022
-9.993925 14.228841 33.360481
-10.456355 12.626957 35.11261
-10.346752 19.886652 39.672066
-11.613868 18.790451 38.006145
-11.343828 16.976751 40.03698
-11.291853 10.63544 42.220901
-11.854634 12.100959 40.258984
-11.089905 10.073204 40.786327
-10.50992 9.605736 39.027962
-10.57754 7.761223 40.823895
-11.274237 5.150889 40.581169
-10.749049 6.007685 42.543625
-10.191877 3.420675 47.87257
-10.746607 2.518507 46.060394
-10.585264 0.980254 47.822147
-10.516821 -1.449058 47.504055
-10.267054 -0.699672 49.376411
-11.824064 -16.802057 47.140774
-13.047956 -15.143008 46.002911
-13.185648 -17.641193 45.19529
-16.392847 -22.072948 40.51115
-15.719856 -19.493145 40.863918
-15.834215 -20.597212 38.548164
-14.148831 -19.274326 37.407825
-12.342255 -3.333003 43.34343
-12.104987 -4.857282 42.0009
-12.613109 -6.378472 43.552906
-12.889208 -9.386303 43.524284
-13.494308 -12.150808 42.648952
-7.85695 -11.847444 66.285698
-7.212542 -13.578918 69.340836
-6.748574 -15.641751 70.618408
-7.545056 25.46826 49.843838
-5.200305 -10.256506 52.800575
-5.454081 -13.008974 51.400566
-5.290844 -13.377515 52.946289
-4.772811 -16.38813 53.331665
-6.878401 13.54923 63.654133
-7.230877 -1.966601 63.356758
-6.151525 0.146433 64.642044
-6.435536 -2.348533 61.852592
-5.80165 -2.109797 60.190113
-6.055003 -1.525389 58.285179
-6.692802 -1.149968 56.305824
-6.025495 -4.2472 56.114452
-5.585335 -7.418152 53.882118
-9.622649 20.53175 29.125269
-12.329682 20.401453 29.623577
-12.966135 18.429768 31.799154
-12.992846 16.727535 34.110542
-10.149223 16.127911 43.93058
-10.914663 13.769922 44.001373
-10.293561 9.269607 43.913765
-10.372425 6.715967 44.120377
-9.342352 7.485457 45.702244
-9.182811 5.769559 47.811382
-9.241735 4.349635 49.941299
-12.809198 -21.578831 46.482208
-13.902143 -20.2314 44.782635
-11.070984 -6.309032 41.15974
-9.730886 -7.585978 40.968044
-8.221284 -8.881025 40.852142
-9.463635 -10.764883 59.531494
-7.858727 -13.965268 58.95586
-7.761488 -13.446478 60.794353
-5.91836 -15.193454 62.130943
-5.353174 -17.213999 63.268047
-6.140487 -14.14639 65.828354
-5.39928 -16.616282 65.259338
-8.438097 0.373873 66.844856
-8.510447 -1.558784 64.213745
-9.230988 -4.115818 61.954426
-9.813192 -7.407076 60.353649
-10.979309 23.690245 35.309502
-9.487501 22.822126 39.105949
-6.813715 24.258869 42.321896
-8.082934 21.389217 42.885418
-8.727377 18.477459 43.411106
-9.35293 17.159546 45.69606
-10.16638 15.911349 48.125202
-10.084831 14.176071 50.656921
-10.261301 -9.123528 49.307823
-11.749619 -11.54275 48.110542
-10.385374 -12.019699 49.51466
-10.234326 -14.764238 49.188896
-10.113525 -17.46196 48.174629
-6.619311 -15.875455 50.409039
-8.23538 -17.99078 48.852684
-10.354074 -19.803837 47.574425
-5.759518 -16.170816 57.711731
-6.846417 -18.08527 71.856712
-6.680277 25.83205 52.528515
-6.98656 23.081457 52.715515
-6.355294 21.349226 58.425148
-6.739677 20.86664 55.701244
-7.668249 20.236652 52.817711
-8.607333 17.440609 53.036243
-9.079292 14.530409 53.203808
-9.073777 11.785757 52.930641
-6.62021 10.622833 63.661613
-6.485423 3.734825 64.959244
-6.731331 7.697365 63.546242
-6.938727 10.422005 61.091358
-7.393729 9.954219 58.180347
-7.867403 9.44047 55.416573
-8.357633 9.108433 52.602642
-8.645298 6.696784 52.514748
-8.819307 4.43505 52.002129
-9.115919 1.860439 51.502003
-7.282485 -0.932375 54.318462
-8.327074 -0.983973 52.627136
-9.499594 -0.958048 51.052879
-9.073517 -3.4042 50.213463
-9.149368 -6.258216 49.437073
-10.520101 -6.139392 48.171364
-12.185311 20.782398 35.882771
-12.795929 17.936016 36.202148
-12.73171 15.18707 36.210892
-12.10066 14.365831 40.047478
-12.359964 13.553083 38.262581
-11.739368 13.060443 36.585548
-10.60634 11.135934 36.952827
-10.618793 8.807543 37.272327
-10.530302 6.063844 37.431633
-11.026495 4.190625 38.732769
-11.444551 2.346281 40.338127
-11.52239 0.631931 42.025757
-10.850046 4.045669 44.197559
-11.051537 1.568397 44.064232
-11.53966 -0.893353 43.799664
-11.544396 -2.532821 45.376991
-11.16256 -4.256246 46.922001
-12.81322 -12.607492 46.387169
-13.733472 -13.55858 44.356472
-14.180677 -14.46001 42.22403
-14.697611 -18.618561 43.202431
-14.824185 -16.938715 41.540169
-11.986024 26.621131 31.653317
-10.832457 27.224817 32.452006
-12.55707 24.924384 32.042997
-12.90287 25.96999 30.776103
-11.986024 26.621131 31.653317
-12.699897 -13.786856 40.098517
-11.94088 -13.092581 39.95368
-12.44142 -12.458291 40.710717
-8.546926 -10.978218 64.667373
-8.575903 -11.157711 63.796837
-9.274511 -9.863226 64.076797
-5.876784 -17.065733 68.60239
-5.957972 -16.968782 69.500305
-9.681141 -8.43574 64.294483
-10.293996 -7.185519 64.527607
-9.274511 -9.863226 64.076797
-9.710118 -8.615234 63.423946
-9.681141 -8.43574 64.294483
-6.108719 -20.015403 50.975063
-5.864759 -20.077634 52.071501
-6.280162 -18.861107 60.513422
-6.17198 -18.639547 61.745857
-7.132328 23.896927 58.228064
-6.522136 25.249673 57.252093
-6.851895 1.853684 66.25579
-7.257805 3.420924 67.058895
-7.457579 1.766631 66.767071
-10.73215 17.413663 40.912414
-10.84529 18.431702 39.854523
-10.233612 18.868613 40.729957
-16.208714 -21.998325 38.391789
-16.113531 -21.33508 39.529657
-16.488029 -22.736193 39.373282
-15.385669 -21.349334 37.754902
-16.208714 -21.998325 38.391789
-7.777218 -13.671046 69.871979
-8.066289 -12.617186 69.310207
-7.545234 -14.702462 70.510765
-6.980558 -14.610335 69.979622
-7.777218 -13.671046 69.871979
-7.459591 26.872985 49.719622
-7.339196 26.179485 48.527501
-5.109305 -17.753208 54.715344
-4.889015 -17.781832 53.682384
-4.993101 -16.359507 54.364624
-7.472614 13.387157 64.0647
-7.128512 14.838566 63.401434
-12.991823 24.00394 27.625345
-13.520096 24.595483 28.622084
-12.381353 22.711337 28.317034
-12.991823 24.00394 27.625345
-12.892974 21.688881 29.277552
-11.818061 21.423909 28.663059
-12.381353 22.711337 28.317034
-10.209155 10.894638 44.775391
-10.666974 11.96047 44.933617
-10.043221 11.362633 45.804169
-9.939481 9.783204 44.779854
-10.563234 10.381042 43.909302
-10.209155 10.894638 44.775391
-13.756358 -22.097153 45.581306
-13.131946 -22.723869 46.619554
-9.316893 -11.123139 40.339753
-8.466332 -10.355986 40.441235
-9.071846 -9.648178 40.75066
-5.712855 -17.643452 65.857502
-5.450981 -16.410953 66.188652
-5.764556 -17.438123 66.786816
-5.958479 -17.853984 64.856426
-5.712855 -17.643452 65.857502
-9.231609 0.401709 67.235889
-8.966456 1.748942 67.379234
-9.356511 -2.838904 63.615982
-9.29564 -1.539233 64.54892
-9.716781 -4.11742 62.486322
-8.870717 -2.837301 63.084086
-9.356511 -2.838904 63.615982
-8.933052 23.206668 39.819435
-8.897654 24.201853 38.5364
-8.343205 24.586395 39.249886
-8.767757 22.182913 40.930962
-9.322205 21.798371 40.217476
-8.933052 23.206668 39.819435
-6.69131 24.905667 43.463667
-6.659289 25.747642 42.131911
-9.929886 -21.181023 48.46221
-10.790274 -20.897601 47.844366
-9.493686 -20.08726 48.192268
-5.2939 -18.587285 57.622879
-6.27385 -19.459581 58.105618
-7.677475 -18.307077 72.330829
-7.595389 -17.042503 71.71978
-6.420266 24.76021 53.982605
-6.31718 26.028334 53.805284
-6.057168 24.956494 55.259374
-6.57826 20.125489 59.710762
-6.826559 21.39895 59.234205
-7.049525 20.175213 60.519819
-6.916683 8.901594 65.319992
-7.268259 8.705016 65.968365
-6.988148 7.1749 66.121067
-6.628391 8.997155 64.567154
-6.908502 10.527272 64.414451
-6.916683 8.901594 65.319992
-9.530475 18.476348 30.474691
-9.016157 19.570412 29.6682
-10.136967 19.437686 29.93176
-8.390349 16.321311 31.498654
-8.928416 15.220759 32.233576
-9.18558 10.269493 35.428122
-9.666454 11.406564 34.968463
-9.705418 9.380888 35.975712
-9.18558 10.269493 35.428122
-11.801672 13.648094 41.040924
-11.588051 14.820269 41.040933
-11.289063 14.102532 42.03438
-14.515346 -16.734413 39.621237
-14.428117 -16.21631 40.796537
-14.911414 -17.456817 40.364869
-14.126178 -17.344338 38.745359
-14.515346 -16.734413 39.621237
-12.256433 -19.785854 37.152731
-13.011562 -18.849597 37.385794
-13.393702 -20.210583 37.174762
-11.44796 -20.879853 37.33023
-12.256433 -19.785854 37.152731
-13.52892 25.24395 29.739212
-12.90287 25.96999 30.776103
-13.46509 23.624776 30.048656
-13.520096 24.595483 28.622084
-13.52892 25.24395 29.739212
-11.058917 -12.455238 40.121275
-10.178918 -11.780895 40.162924
-10.802405 -11.089673 40.607529
-11.058917 -12.455238 40.121275
-11.94088 -13.092581 39.95368
-5.645389 -17.232163 67.683472
-5.734077 -16.039193 68.036884
-5.876784 -17.065733 68.60239
-5.764556 -17.438123 66.786816
-5.645389 -17.232163 67.683472
-10.616549 -5.853754 64.070099
-10.293996 -7.185519 64.527607
-10.159661 -5.653386 63.329926
-10.616549 -5.853754 64.070099
-10.044984 -7.243671 62.856043
-10.087897 -5.709309 62.544337
-10.159661 -5.653386 63.329926
-7.48685 24.991609 39.98165
-8.343205 24.586395 39.249886
-7.433099 23.379128 45.991045
-6.883069 24.038173 44.759586
-7.118935 24.893419 45.836897
-6.685944 -19.729917 50.02504
-5.795788 -18.902849 50.680538
-6.108719 -20.015403 50.975063
-7.816087 -20.606577 49.564838
-7.503156 -19.494022 49.270314
-6.685944 -19.729917 50.02504
-9.109133 -21.320763 49.222637
-7.816087 -20.606577 49.564838
-6.263764 -19.159418 59.331591
-5.338471 -18.096947 60.035431
-6.280162 -18.861107 60.513422
-6.27385 -19.459581 58.105618
-6.263764 -19.159418 59.331591
-6.185849 25.14632 56.410387
-6.522136 25.249673 57.252093
-6.288934 23.878195 56.587708
-6.057168 24.956494 55.259374
-6.185849 25.14632 56.410387
-7.601606 5.156097 67.169808
-8.117057 6.670928 66.840226
-6.995921 5.24315 66.658527
-7.601606 5.156097 67.169808
-7.257805 3.420924 67.058895
-9.279077 14.201137 33.069305
-8.928416 15.220759 32.233576
-9.643263 15.248463 32.524752
-9.667153 13.239743 33.803364
-9.279077 14.201137 33.069305
-9.898368 12.438801 34.679428
-9.667153 13.239743 33.803364
-10.22514 13.427899 34.236545
-10.224441 11.59472 35.401646
-9.666454 11.406564 34.968463
-9.898368 12.438801 34.679428
-14.542977 -20.687891 37.184732
-14.991523 -19.935769 37.977995
-15.385669 -21.349334 37.754902
-13.787848 -21.624148 36.951669
-13.393702 -20.210583 37.174762
-14.542977 -20.687891 37.184732
-12.223621 -4.095142 42.672165
-11.942858 -3.352416 41.845596
-12.061492 -2.590277 42.516861
-8.588567 -10.672648 66.518074
-8.551242 -10.765588 65.616516
-8.011964 -11.687899 67.136738
-8.588567 -10.672648 66.518074
-7.35163 -12.673877 67.849724
-7.196616 -12.833422 66.998684
-8.011964 -11.687899 67.136738
-7.689761 -12.553636 68.664307
-8.066289 -12.617186 69.310207
-6.874411 -13.699159 68.526253
-7.35163 -12.673877 67.849724
-7.689761 -12.553636 68.664307
-6.349523 -16.853276 70.331608
-5.957972 -16.968782 69.500305
-6.357023 -15.757257 69.787105
-7.401151 25.562542 47.139759
-7.118935 24.893419 45.836897
-7.60701 24.851317 48.456097
-7.401151 25.562542 47.139759
-7.339196 26.179485 48.527501
-5.111891 -19.181933 52.831833
-4.995687 -17.788232 52.481113
-4.889015 -17.781832 53.682384
-5.864759 -20.077634 52.071501
-5.111891 -19.181933 52.831833
-7.444104 18.772126 61.427179
-7.049525 20.175213 60.519819
-7.089925 17.514827 62.072555
-7.444104 18.772126 61.427179
-7.00575 16.13795 62.361336
-6.717052 17.524874 61.285156
-7.089925 17.514827 62.072555
-6.75564 14.848613 62.614035
-7.00575 16.13795 62.361336
-7.128512 14.838566 63.401434
-10.464544 21.489058 28.413905
-8.969376 21.608047 28.330121
-10.976166 20.466601 29.374423
-10.464544 21.489058 28.413905
-11.818061 21.423909 28.663059
-10.612333 15.701309 42.982484
-10.134847 16.989243 42.859215
-10.995052 14.522315 43.017881
-10.612333 15.701309 42.982484
-10.531943 14.948916 43.965976
-11.208673 13.35014 43.017871
-11.289063 14.102532 42.03438
-10.995052 14.522315 43.017881
-10.873785 12.631199 43.953106
-10.707852 13.099193 44.981884
-10.666974 11.96047 44.933617
-11.167796 12.211417 42.969605
-11.208673 13.35014 43.017871
-10.873785 12.631199 43.953106
-11.06238 11.063958 43.06287
-11.397268 11.782898 42.127635
-11.167796 12.211417 42.969605
-10.792707 9.952523 43.067333
-11.06238 11.063958 43.06287
-10.563234 10.381042 43.909302
-14.30283 -21.423437 44.73152
-13.355671 -20.905116 45.632421
-13.756358 -22.097153 45.581306
-15.134975 -21.902311 43.720162
-14.734288 -20.710274 43.771276
-14.30283 -21.423437 44.73152
-15.799894 -22.428713 42.68084
-15.134975 -21.902311 43.720162
-16.213102 -22.870613 41.556455
-15.97964 -21.631048 41.635534
-15.799894 -22.428713 42.68084
-16.668083 -23.454282 40.41602
-16.213102 -22.870613 41.556455
-16.488029 -22.736193 39.373282
-16.668083 -23.454282 40.41602
-11.589047 -4.100117 41.334694
-11.942858 -3.352416 41.845596
-11.072045 -4.825992 40.914114
-11.589047 -4.100117 41.334694
-11.587985 -5.583157 41.58032
-10.370003 -5.550526 40.721086
-11.072045 -4.825992 40.914114
-9.699955 -6.188999 40.625238
-10.370003 -5.550526 40.721086
-10.400935 -6.947505 41.063892
-8.909844 -6.807555 40.804781
-9.699955 -6.188999 40.625238
-8.155043 -7.455079 40.74683
-8.909844 -6.807555 40.804781
-8.976085 -8.233501 40.910093
-7.417923 -8.065901 40.879192
-8.155043 -7.455079 40.74683
-7.606674 -9.644503 40.680796
-7.417923 -8.065901 40.879192
-7.606674 -9.644503 40.680796
-8.466332 -10.355986 40.441235
-9.316893 -11.123139 40.339753
-10.178918 -11.780895 40.162924
-6.171133 -18.347228 62.771249
-6.17198 -18.639547 61.745857
-5.354021 -17.506318 62.242655
-7.852634 -12.060073 65.336556
-8.546926 -10.978218 64.667373
-8.551242 -10.765588 65.616516
-5.935426 -18.152842 63.860781
-5.376227 -16.91514 64.263693
-5.958479 -17.853984 64.856426
-6.171133 -18.347228 62.771249
-5.935426 -18.152842 63.860781
-8.150794 1.853872 67.207515
-8.966456 1.748942 67.379234
-7.744883 0.286633 66.404411
-7.457579 1.766631 66.767071
-8.150794 1.853872 67.207515
-9.259464 -0.572905 65.864475
-9.231609 0.401709 67.235889
-8.474272 -0.592456 65.529301
-9.259464 -0.572905 65.864475
-9.29564 -1.539233 64.54892
-9.602104 -5.707707 62.01244
-9.716781 -4.11742 62.486322
-10.087897 -5.709309 62.544337
-10.609538 25.99322 33.714077
-10.832457 27.224817 32.452006
-10.27908 25.05058 34.908722
-11.309767 24.632885 34.114857
-10.609538 25.99322 33.714077
-10.237045 24.145408 36.067879
-10.27908 25.05058 34.908722
-10.077234 23.167947 37.209452
-10.819498 22.712784 36.451075
-10.237045 24.145408 36.067879
-9.491141 23.711348 37.966103
-8.897654 24.201853 38.5364
-10.073594 22.278725 38.349299
-10.077234 23.167947 37.209452
-9.491141 23.711348 37.966103
-9.751831 20.330634 40.500534
-9.917127 21.354389 39.389008
-9.322205 21.798371 40.217476
-10.233612 18.868613 40.729957
-9.751831 20.330634 40.500534
-6.704406 25.32544 40.876137
-6.659289 25.747642 42.131911
-7.596159 23.925039 41.427408
-7.48685 24.991609 39.98165
-6.704406 25.32544 40.876137
-7.005474 23.391376 43.617815
-6.69131 24.905667 43.463667
-6.883069 24.038173 44.759586
-8.619922 21.081916 42.10721
-8.767757 22.182913 40.930962
-8.230769 22.490213 41.70917
-8.942144 19.626038 42.370054
-8.619922 21.081916 42.10721
-8.405155 19.933338 43.148262
-9.423924 18.164017 42.599477
-8.942144 19.626038 42.370054
-9.4383 17.302685 43.670843
-10.134847 16.989243 42.859215
-9.423924 18.164017 42.599477
-12.017836 -21.785097 47.298257
-11.581636 -20.691334 47.028317
-10.790274 -20.897601 47.844366
-13.131946 -22.723869 46.619554
-12.017836 -21.785097 47.298257
-9.929886 -21.181023 48.46221
-9.109133 -21.320763 49.222637
-5.512621 -17.475064 57.051945
-5.540796 -17.283037 58.282666
-5.2939 -18.587285 57.622879
-5.239558 -17.555098 55.894871
-5.486454 -16.25085 56.554657
-5.512621 -17.475064 57.051945
-5.109305 -17.753208 54.715344
-5.239558 -17.555098 55.894871
-7.546467 -15.820743 71.100628
-7.545234 -14.702462 70.510765
-6.797496 -16.863511 71.23756
-7.546467 -15.820743 71.100628
-7.595389 -17.042503 71.71978
-6.398445 -18.075036 70.95076
-6.349523 -16.853276 70.331608
-6.797496 -16.863511 71.23756
-7.020506 -19.529087 72.327106
-7.677475 -18.307077 72.330829
-6.593793 -19.431339 71.490994
-7.020506 -19.529087 72.327106
-6.398445 -18.075036 70.95076
-6.593793 -19.431339 71.490994
-6.764652 27.290109 52.373953
-6.31718 26.028334 53.805284
-7.027202 27.05488 51.06196
-6.764652 27.290109 52.373953
-7.112666 25.650155 51.186177
-7.459591 26.872985 49.719622
-7.027202 27.05488 51.06196
-6.857719 22.758347 58.890991
-7.132328 23.896927 58.228064
-6.386454 22.708623 58.081934
-6.857719 22.758347 58.890991
-6.826559 21.39895 59.234205
-7.931524 8.399033 66.107048
-8.117057 6.670928 66.840226
-7.931524 8.399033 66.107048
-7.268259 8.705016 65.968365
-7.037598 11.99047 64.410711
-7.472614 13.387157 64.0647
-6.749306 12.086032 63.657873
-7.037598 11.99047 64.410711
-6.908502 10.527272 64.414451
-8.559304 20.642338 28.935488
-8.969376 21.608047 28.330121
-8.559304 20.642338 28.935488
-9.016157 19.570412 29.6682
-8.851134 17.438579 30.950076
-9.530475 18.476348 30.474691
-9.971944 17.305853 31.213636
-8.851134 17.438579 30.950076
-8.390349 16.321311 31.498654
-11.209635 16.125729 41.035685
-10.73215 17.413663 40.912414
-11.722244 15.671291 40.042229
-11.209635 16.125729 41.035685
-11.588051 14.820269 41.040933
-10.018551 8.503418 36.766534
-9.705418 9.380888 35.975712
-10.30566 9.685013 36.481504
-9.974305 7.131568 36.846187
-10.018551 8.503418 36.766534
-10.574548 7.435694 37.35198
-9.362154 5.740024 37.24457
-9.974305 7.131568 36.846187
-9.914725 4.655661 37.65526
-9.362154 5.740024 37.24457
-10.162821 3.719052 38.305828
-9.914725 4.655661 37.65526
-10.778399 5.127235 38.082201
-10.514693 2.791421 38.875996
-10.162821 3.719052 38.305828
-10.723721 1.869249 39.678674
-10.514693 2.791421 38.875996
-11.235523 3.268453 39.535448
-11.197026 1.002876 40.291647
-10.723721 1.869249 39.678674
-11.235945 0.145701 41.135462
-11.197026 1.002876 40.291647
-11.48347 1.489106 41.181942
-11.651559 -0.60781 41.858024
-11.235945 0.145701 41.135462
-11.660194 -1.370452 42.744978
-11.651559 -0.60781 41.858024
-11.531025 -0.130711 42.912711
-11.940957 -2.113178 43.571547
-12.061492 -2.590277 42.516861
-11.660194 -1.370452 42.744978
-14.106363 -14.976958 41.138468
-14.502431 -15.699362 41.882099
-14.428117 -16.21631 40.796537
-13.616243 -14.323235 40.454229
-13.690557 -13.806287 41.539791
-14.106363 -14.976958 41.138468
-12.699897 -13.786856 40.098517
-13.616243 -14.323235 40.454229
-13.701272 -17.994042 37.854488
-14.126178 -17.344338 38.745359
-14.573738 -18.624623 38.298697
-13.701272 -17.994042 37.854488
-13.011562 -18.849597 37.385794
-12.999981 -22.618491 36.728459
-13.787848 -21.624148 36.951669
-11.797505 -22.234035 37.237791
-12.999981 -22.618491 36.728459
-11.44796 -20.879853 37.33023
-11.797505 -22.234035 37.237791
3 0 67 65
3 1 70 68
3 1 73 71
3 1 68 73
3 3 263 264
3 3 265 267
3 265 75 266
3 265 266 267
3 3 77 75
3 2 80 78
3 2 82 80
3 4 85 83
3 4 268 270
3 270 269 85
3 268 269 270
3 271 88 272
3 273 272 86
3 271 272 273
3 275 274 89
3 276 91 277
3 278 86 279
3 280 279 91
3 278 279 280
3 6 95 93
3 6 97 95
3 7 100 98
3 282 281 101
3 284 283 103
3 285 105 286
3 9 108 106
3 9 110 108
3 5 287 289
3 287 112 288
3 287 288 289
3 10 115 113
3 10 117 115
3 10 119 117
3 7 122 120
3 7 98 122
3 12 126 124
3 12 127 126
3 290 130 291
3 292 291 128
3 290 291 292
3 13 133 131
3 13 135 133
3 13 137 135
3 11 140 138
3 11 142 140
3 8 145 143
3 293 148 294
3 295 294 146
3 293 294 295
3 297 296 148
3 14 152 150
3 16 153 66
3 16 154 153
3 298 156 299
3 300 157 301
3 302 301 156
3 300 301 302
3 303 158 304
3 18 161 159
3 20 162 69
3 20 305 307
3 307 306 162
3 305 306 307
3 308 163 309
3 22 166 164
3 24 167 72
3 24 168 167
3 24 170 168
3 18 171 74
3 18 159 171
3 26 310 311
3 26 312 313
3 26 314 316
3 314 173 315
3 314 315 316
3 28 174 76
3 28 175 174
3 29 177 176
3 31 317 319
3 319 318 79
3 317 318 319
3 31 320 322
3 320 178 321
3 320 321 322
3 31 180 178
3 33 181 81
3 33 182 181
3 324 323 183
3 15 185 151
3 35 186 84
3 35 187 186
3 35 325 327
3 327 326 187
3 325 326 327
3 36 190 188
3 38 191 87
3 38 192 191
3 17 193 155
3 328 194 329
3 330 329 90
3 328 329 330
3 332 331 194
3 333 195 334
3 335 196 336
3 337 197 338
3 339 338 196
3 337 338 339
3 36 198 92
3 36 188 198
3 40 340 342
3 340 200 341
3 340 341 342
3 40 343 345
3 345 344 200
3 343 344 345
3 346 201 347
3 41 202 94
3 41 203 202
3 41 204 203
3 42 205 96
3 42 206 205
3 43 209 207
3 45 210 99
3 45 211 210
3 19 212 160
3 46 213 102
3 46 214 213
3 46 348 350
3 350 349 214
3 348 349 350
3 37 215 189
3 352 351 104
3 353 216 354
3 47 355 357
3 355 217 356
3 355 356 357
3 47 218 217
3 21 358 360
3 358 219 359
3 358 359 360
3 48 220 107
3 48 221 220
3 48 222 221
3 49 223 109
3 49 224 223
3 50 361 363
3 363 362 111
3 361 362 363
3 50 364 366
3 364 225 365
3 364 365 366
3 23 226 165
3 51 227 114
3 51 228 227
3 51 229 228
3 52 230 116
3 52 231 230
3 52 232 231
3 53 233 118
3 53 234 233
3 25 235 169
3 54 236 121
3 54 237 236
3 54 238 237
3 43 239 123
3 43 207 239
3 27 367 369
3 369 368 172
3 367 368 369
3 371 370 125
3 56 372 373
3 56 374 375
3 39 241 199
3 57 242 129
3 57 243 242
3 30 376 378
3 376 244 377
3 376 377 378
3 58 245 132
3 58 246 245
3 58 247 246
3 59 248 134
3 59 249 248
3 59 250 249
3 60 251 136
3 60 252 251
3 32 253 179
3 61 254 139
3 61 255 254
3 61 256 255
3 55 257 141
3 55 240 257
3 44 258 208
3 62 259 144
3 62 260 259
3 34 261 184
3 63 262 147
3 63 379 381
3 381 380 262
3 379 380 381
3 63 382 383
3 64 384 386
3 386 385 149
3 384 385 386
3 64 387 388
3 65 66 14
3 67 66 65
3 67 16 66
3 68 69 18
3 70 69 68
3 70 20 69
3 71 72 22
3 73 72 71
3 73 24 72
3 73 74 24
3 68 74 73
3 68 18 74
3 75 389 390
3 75 391 393
3 391 26 392
3 391 392 393
3 75 76 26
3 77 76 75
3 77 28 76
3 78 79 29
3 80 79 78
3 80 31 79
3 80 81 31
3 82 81 80
3 82 33 81
3 83 84 15
3 85 84 83
3 85 35 84
3 85 394 396
3 396 395 35
3 394 395 396
3 398 397 85
3 86 87 36
3 88 87 86
3 88 38 87
3 89 90 17
3 399 90 400
3 401 400 89
3 399 400 401
3 403 402 90
3 91 404 405
3 91 406 407
3 91 408 410
3 408 92 409
3 408 409 410
3 86 92 91
3 86 36 92
3 411 40 412
3 93 413 415
3 413 94 414
3 413 414 415
3 95 94 93
3 95 41 94
3 95 96 41
3 97 96 95
3 97 42 96
3 98 99 43
3 100 99 98
3 100 45 99
3 101 102 19
3 416 102 417
3 418 417 101
3 416 417 418
3 419 46 420
3 421 420 102
3 419 420 421
3 423 422 46
3 103 104 37
3 424 104 425
3 426 425 103
3 424 425 426
3 428 427 104
3 105 429 430
3 105 431 433
3 431 47 432
3 431 432 433
3 106 107 21
3 108 107 106
3 108 48 107
3 108 109 48
3 110 109 108
3 110 49 109
3 434 111 435
3 112 436 438
3 436 111 437
3 436 437 438
3 112 50 111
3 113 114 23
3 115 114 113
3 115 51 114
3 115 116 51
3 117 116 115
3 117 52 116
3 117 118 52
3 119 118 117
3 119 53 118
3 120 121 25
3 122 121 120
3 122 54 121
3 122 123 54
3 98 123 122
3 98 43 123
3 124 125 27
3 126 125 124
3 126 439 441
3 441 440 125
3 439 440 441
3 126 442 443
3 127 444 446
3 446 445 126
3 444 445 446
3 127 447 449
3 447 56 448
3 447 448 449
3 128 129 39
3 130 129 128
3 130 57 129
3 131 132 30
3 133 132 131
3 133 58 132
3 133 134 58
3 135 134 133
3 135 59 134
3 135 136 59
3 137 136 135
3 137 60 136
3 138 139 32
3 140 139 138
3 140 61 139
3 140 141 61
3 142 141 140
3 142 55 141
3 143 144 44
3 145 144 143
3 145 62 144
3 146 147 34
3 148 147 146
3 148 63 147
3 148 149 63
3 450 149 451
3 452 451 148
3 450 451 452
3 453 64 454
3 455 454 149
3 453 454 455
3 150 456 458
3 456 151 457
3 456 457 458
3 152 151 150
3 152 15 151
3 66 152 14
3 153 152 66
3 153 15 152
3 153 83 15
3 154 83 153
3 154 4 83
3 459 155 460
3 461 155 462
3 463 17 464
3 465 464 155
3 463 464 465
3 156 466 467
3 156 468 470
3 468 17 469
3 468 469 470
3 156 89 17
3 157 89 156
3 157 471 473
3 473 472 89
3 471 472 473
3 474 93 475
3 158 476 478
3 476 93 477
3 476 477 478
3 158 6 93
3 159 160 7
3 161 160 159
3 161 19 160
3 69 161 18
3 162 161 69
3 162 19 161
3 162 101 19
3 479 101 480
3 481 480 162
3 479 480 481
3 483 482 101
3 484 21 485
3 486 21 487
3 488 106 489
3 490 489 21
3 488 489 490
3 163 491 493
3 491 106 492
3 491 492 493
3 163 9 106
3 164 165 5
3 166 165 164
3 166 23 165
3 72 166 22
3 167 166 72
3 167 23 166
3 167 113 23
3 168 113 167
3 168 10 113
3 168 169 10
3 170 169 168
3 170 25 169
3 74 170 24
3 171 170 74
3 171 25 170
3 171 120 25
3 159 120 171
3 159 7 120
3 494 172 495
3 173 496 498
3 496 172 497
3 496 497 498
3 173 27 172
3 76 173 26
3 174 173 76
3 174 27 173
3 174 124 27
3 175 124 174
3 175 12 124
3 176 499 500
3 177 501 503
3 503 502 176
3 501 502 503
3 177 504 506
3 504 30 505
3 504 505 506
3 79 177 29
3 507 177 508
3 509 508 79
3 507 508 509
3 510 30 511
3 512 511 177
3 510 511 512
3 513 131 514
3 515 514 30
3 513 514 515
3 178 516 518
3 516 131 517
3 516 517 518
3 178 13 131
3 178 179 13
3 180 179 178
3 180 32 179
3 81 180 31
3 181 180 81
3 181 32 180
3 181 138 32
3 182 138 181
3 182 11 138
3 183 184 8
3 519 184 520
3 521 520 183
3 519 520 521
3 522 34 523
3 524 523 184
3 522 523 524
3 525 34 526
3 527 146 528
3 529 528 34
3 527 528 529
3 530 146 531
3 533 532 146
3 151 534 535
3 185 536 538
3 538 537 151
3 536 537 538
3 185 539 540
3 84 185 15
3 186 185 84
3 186 541 543
3 543 542 185
3 541 542 543
3 186 544 545
3 187 546 548
3 548 547 186
3 546 547 548
3 187 549 550
3 187 551 552
3 554 553 187
3 556 555 35
3 188 189 1
3 190 189 188
3 190 37 189
3 87 190 36
3 191 190 87
3 191 37 190
3 191 103 37
3 192 103 191
3 192 557 559
3 559 558 103
3 557 558 559
3 155 560 562
3 560 88 561
3 560 561 562
3 193 88 155
3 193 38 88
3 90 193 17
3 194 193 90
3 194 38 193
3 194 192 38
3 563 192 564
3 565 564 194
3 563 564 565
3 567 566 192
3 195 568 569
3 195 570 572
3 570 5 571
3 570 571 572
3 573 195 574
3 196 575 577
3 575 195 576
3 575 576 577
3 196 5 195
3 196 164 5
3 197 164 196
3 197 22 164
3 92 578 580
3 578 197 579
3 578 579 580
3 198 197 92
3 198 22 197
3 198 71 22
3 188 71 198
3 188 1 71
3 581 3 582
3 583 199 584
3 585 584 3
3 583 584 585
3 586 199 587
3 588 39 589
3 590 589 199
3 588 589 590
3 200 591 592
3 200 593 595
3 593 39 594
3 593 594 595
3 200 128 39
3 596 128 597
3 598 597 200
3 596 597 598
3 600 599 128
3 201 601 602
3 201 603 605
3 603 40 604
3 603 604 605
3 94 606 608
3 606 201 607
3 606 607 608
3 202 201 94
3 202 40 201
3 202 609 611
3 611 610 40
3 609 610 611
3 203 612 614
3 614 613 202
3 612 613 614
3 203 615 616
3 203 617 619
3 617 176 618
3 617 618 619
3 204 176 203
3 204 29 176
3 96 204 41
3 205 204 96
3 205 29 204
3 205 78 29
3 206 78 205
3 206 2 78
3 207 208 0
3 209 208 207
3 209 44 208
3 99 209 43
3 210 209 99
3 210 44 209
3 210 143 44
3 211 143 210
3 211 8 143
3 160 100 7
3 212 100 160
3 212 45 100
3 102 212 19
3 213 212 102
3 213 45 212
3 213 211 45
3 214 211 213
3 214 8 211
3 214 183 8
3 620 183 621
3 622 621 214
3 620 621 622
3 624 623 183
3 626 625 46
3 189 70 1
3 215 70 189
3 215 20 70
3 104 215 37
3 627 215 628
3 629 628 104
3 627 628 629
3 630 20 631
3 632 631 215
3 630 631 632
3 634 633 20
3 635 157 636
3 216 637 639
3 637 157 638
3 637 638 639
3 216 640 642
3 642 641 157
3 640 641 642
3 643 216 644
3 645 216 646
3 648 647 216
3 217 649 650
3 217 651 652
3 217 653 655
3 653 158 654
3 653 654 655
3 218 158 217
3 218 6 158
3 656 105 657
3 219 658 660
3 658 105 659
3 658 659 660
3 219 47 105
3 107 219 21
3 220 219 107
3 220 47 219
3 220 218 47
3 221 218 220
3 221 6 218
3 221 97 6
3 222 97 221
3 222 42 97
3 109 222 48
3 223 222 109
3 223 42 222
3 223 206 42
3 224 206 223
3 224 2 206
3 111 661 662
3 664 663 111
3 665 163 666
3 225 667 669
3 667 163 668
3 667 668 669
3 225 9 163
3 165 112 5
3 226 112 165
3 226 50 112
3 114 226 23
3 227 226 114
3 227 50 226
3 227 225 50
3 228 225 227
3 228 9 225
3 228 110 9
3 229 110 228
3 229 49 110
3 116 229 51
3 230 229 116
3 230 49 229
3 230 224 49
3 231 224 230
3 231 2 224
3 231 82 2
3 232 82 231
3 232 33 82
3 118 232 52
3 233 232 118
3 233 33 232
3 233 182 33
3 234 182 233
3 234 11 182
3 169 119 10
3 235 119 169
3 235 53 119
3 121 235 25
3 236 235 121
3 236 53 235
3 236 234 53
3 237 234 236
3 237 11 234
3 237 142 11
3 238 142 237
3 238 55 142
3 123 238 54
3 239 238 123
3 239 55 238
3 239 240 55
3 207 240 239
3 207 0 240
3 172 670 671
3 673 672 172
3 125 674 676
3 676 675 27
3 674 675 676
3 678 677 125
3 199 77 3
3 241 77 199
3 241 28 77
3 129 241 39
3 242 241 129
3 242 28 241
3 242 175 28
3 243 175 242
3 243 12 175
3 679 130 680
3 244 681 683
3 681 130 682
3 681 682 683
3 244 57 130
3 132 244 30
3 245 244 132
3 245 57 244
3 245 243 57
3 246 243 245
3 246 12 243
3 246 127 12
3 247 127 246
3 247 56 127
3 134 247 58
3 248 247 134
3 248 56 247
3 248 684 686
3 686 685 56
3 684 685 686
3 249 687 689
3 689 688 248
3 687 688 689
3 249 690 691
3 249 692 693
3 250 694 696
3 696 695 249
3 694 695 696
3 250 697 698
3 136 250 59
3 251 250 136
3 251 699 701
3 701 700 250
3 699 700 701
3 251 702 703
3 252 704 706
3 706 705 251
3 704 705 706
3 252 707 708
3 179 137 13
3 253 137 179
3 253 60 137
3 139 253 32
3 254 253 139
3 254 60 253
3 254 252 60
3 255 252 254
3 255 709 711
3 711 710 252
3 709 710 711
3 255 712 714
3 712 150 713
3 712 713 714
3 256 150 255
3 256 14 150
3 141 256 61
3 257 256 141
3 257 14 256
3 257 65 14
3 240 65 257
3 240 0 65
3 208 67 0
3 258 67 208
3 258 16 67
3 144 258 44
3 259 258 144
3 259 16 258
3 259 154 16
3 260 154 259
3 260 4 154
3 184 145 8
3 261 145 184
3 261 62 145
3 147 261 34
3 262 261 147
3 262 62 261
3 262 260 62
3 715 260 716
3 717 716 262
3 715 716 717
3 718 4 719
3 720 719 260
3 718 719 720
3 722 721 4
3 149 723 725
3 725 724 63
3 723 724 725
3 727 726 149
3 728 64 729
3 730 64 731
3 733 732 64
