ply
format ascii 1.0
element vertex 775
property float x
property float y
property float z
element face 807
property list uchar int vertex_index
end_header
47.736862 -20.401623 -27.536579
47.049847 -5.089583 -38.271751
48.83461 -55.424683 -14.815598
56.320385 -29.736822 -25.502083
38.740807 1.089698 -37.225578
44.971199 -63.33062 -10.246037
40.78896 -63.881264 -12.676365
56.471142 -18.927759 -22.831827
54.797905 -33.222538 -17.312588
31.869328 -0.033768 -41.786507
40.346478 -5.754767 -41.819092
48.033226 -13.655563 -37.974426
56.714344 -57.535809 -11.940449
58.504112 -46.793831 -20.106853
53.294121 -43.931068 -21.286316
53.154835 -26.576931 -29.141205
55.934387 -16.328505 -32.953888
39.830334 -63.308228 -15.610944
29.837589 3.714289 -39.53698
42.911304 -2.133166 -38.453236
40.482628 -1.973183 -43.869804
45.100056 -5.003535 -43.19965
44.350986 -9.164528 -39.92334
49.607227 -8.709524 -40.915169
54.542259 -47.962364 -8.131082
50.69437 -58.610943 -9.668406
53.325359 -56.720512 -15.090494
56.968132 -53.127937 -16.774426
54.472973 -53.036449 -19.383774
56.16449 -46.688461 -22.442642
51.295403 -49.759888 -17.440037
56.227226 -24.389673 -24.614983
55.079185 -19.038296 -27.504925
59.150383 -23.393696 -29.577152
56.937519 -21.638823 -32.447609
56.682014 -28.91711 -29.287222
44.997784 -0.697563 -33.505997
54.990303 -24.598621 -19.972813
35.028118 1.614956 -43.011902
40.931892 -6.4976 -34.723591
44.154747 -11.31232 -32.824574
47.271435 -16.984392 -31.54804
45.820683 -28.251469 -21.293453
45.352348 -63.314613 -6.993146
52.256847 -62.18523 -7.509073
55.342186 -55.578838 -8.815294
54.442505 -50.309875 -12.592215
57.380096 -44.908863 -15.470746
57.400208 -40.091911 -16.069998
56.287476 -41.181053 -19.11314
56.034027 -40.27108 -21.96137
55.351269 -37.565697 -24.402735
50.779541 -40.968132 -20.521708
53.750511 -35.600044 -26.69483
50.974533 -32.39904 -25.278282
48.490253 -30.199747 -23.473129
49.691891 -23.706333 -27.27832
47.08551 -6.94704 -31.632141
50.935951 -13.171652 -29.763147
50.770496 -10.801226 -36.347359
53.338615 -14.674698 -37.591026
51.483959 -18.951471 -32.745491
45.107994 -3.414349 -38.67775
44.375191 -3.449549 -41.41153
46.910316 -4.807744 -41.066669
47.419098 -6.550772 -42.129108
49.025887 -6.380076 -40.038071
53.907555 -50.994392 -6.987164
48.168095 -56.733437 -12.349396
50.420479 -56.760895 -12.594458
50.948174 -56.318859 -15.394238
53.77058 -55.813526 -17.617558
51.420967 -54.704842 -17.415318
52.862617 -51.749565 -18.627939
50.141308 -53.124176 -16.405228
56.381035 -26.890512 -25.307795
57.895741 -23.931679 -27.25292
58.366566 -26.616379 -27.560833
59.007591 -26.409134 -29.734295
57.422199 -29.356937 -27.646963
42.291832 -63.960106 -12.495765
56.514854 -29.073877 -17.376663
56.544079 -24.973516 -18.426907
54.514721 -28.722961 -18.423046
53.744396 -27.99914 -20.336073
53.443359 -32.650723 -18.636478
31.048162 2.15801 -40.690758
31.165689 1.135487 -37.763157
31.973913 -0.871606 -39.11842
36.899834 0.947639 -40.2085
40.213997 -4.312327 -44.190269
37.973488 -2.508022 -44.465221
38.049629 -4.342658 -42.678772
38.698036 -4.718574 -39.630348
40.721638 -6.154371 -38.361168
46.09367 -11.145098 -38.72028
44.286495 -10.468132 -36.346294
45.902885 -12.88199 -35.405354
45.866371 -13.749621 -32.215149
47.334641 -15.480093 -35.111782
40.511597 -13.681608 -25.643438
42.068005 -15.725215 -24.197283
45.167931 -67.011642 -10.390729
45.121685 -63.465332 -8.440649
54.292358 -58.919941 -10.833662
51.89962 -60.809704 -8.705646
55.53595 -60.428539 -9.329191
55.527607 -59.867104 -7.699905
56.930138 -56.63612 -10.205641
55.161732 -53.193886 -10.796744
56.112823 -54.486645 -12.548165
58.144844 -50.001472 -18.723557
56.909168 -48.523476 -16.711081
58.57859 -46.111759 -17.793621
58.570717 -42.703266 -16.440409
57.861366 -43.652382 -18.297386
56.600964 -40.697525 -17.468548
57.799694 -44.08551 -20.167469
54.613056 -45.499908 -22.194294
56.697792 -43.547173 -22.82645
55.956951 -42.379372 -23.647165
55.918934 -38.565327 -23.104898
54.344616 -41.133507 -23.6506
48.098698 -42.227013 -17.420776
49.741035 -39.540943 -20.158741
52.114388 -38.453671 -23.778574
52.349163 -33.861546 -26.281153
46.391209 -32.660107 -21.125986
47.170094 -29.104675 -22.279457
45.070538 -31.878235 -20.596096
48.909706 -7.325657 -29.091152
55.718121 -18.095724 -30.253372
52.811455 -16.322495 -28.777462
52.799294 -14.911054 -31.657953
50.484291 -11.985527 -33.071178
53.217018 -13.580218 -34.915154
52.959484 -12.428932 -37.709293
55.202942 -15.338951 -35.500439
55.389484 -24.662928 -31.187531
54.323414 -20.286802 -32.778847
53.058258 -22.810474 -30.670605
50.478279 -21.355164 -30.165075
51.300037 -25.148441 -28.205276
39.697426 -63.516956 -13.597384
39.729675 -66.07399 -15.285319
56.948719 -33.296936 -17.065186
29.943569 4.970984 -41.573265
31.465984 3.156008 -42.548054
40.782982 -0.559303 -38.066612
39.60516 -0.698973 -40.971779
41.89373 -2.022392 -41.497169
42.709572 -3.504337 -43.675308
42.375286 -5.843287 -43.528866
42.314991 -7.185668 -40.822224
44.571857 -7.170126 -42.565052
46.81958 -8.954249 -41.279282
49.044361 -11.44816 -40.091362
55.232262 -44.731781 -9.335875
46.64296 -59.938393 -8.651012
48.90036 -57.912727 -10.20808
52.324287 -57.497395 -12.102954
55.04591 -57.759178 -13.83452
56.851757 -55.809803 -14.639911
55.888603 -56.421074 -16.581219
56.621723 -53.801262 -18.810379
57.406158 -50.355888 -20.865519
57.567585 -47.120201 -21.811449
55.553673 -49.710377 -21.354488
53.745697 -48.453117 -20.249783
52.147835 -46.630157 -19.016434
56.044006 -22.0807 -24.019283
55.098389 -19.128273 -24.889498
56.512245 -21.600838 -26.634363
57.704407 -21.135824 -28.84614
58.257977 -20.058573 -30.975163
57.396564 -18.674358 -33.222298
58.596882 -22.720381 -31.371067
57.444897 -25.749424 -30.969671
55.107666 -28.003674 -29.650303
43.492302 -1.489266 -35.989632
45.374626 -3.639183 -35.728996
58.659523 -19.451012 -22.008511
56.508461 -22.207392 -21.805668
54.911781 -24.52877 -22.331621
54.503052 -27.373037 -23.045343
54.711712 -30.438503 -23.464998
33.244408 3.53544 -42.371746
32.818645 1.276791 -43.612263
37.84203 -0.350213 -43.650536
35.459606 -0.663155 -44.31041
33.251934 -1.613405 -42.839581
36.78968 -5.981483 -34.274437
40.700401 -7.722034 -31.049911
42.53603 -8.062102 -37.43932
42.623405 -8.945854 -33.524696
42.42281 -10.054224 -29.882023
44.014076 -12.493219 -29.042877
45.58757 -15.098221 -28.546555
44.641304 -16.315544 -25.343122
46.947796 -18.105204 -28.84226
46.152985 -25.829838 -22.164717
47.961296 -60.821259 -7.686434
48.584667 -61.892414 -7.000937
48.715805 -61.937126 -5.686977
52.57777 -60.782127 -5.58375
53.959984 -54.229633 -7.248872
53.998878 -51.832397 -9.085136
54.065998 -48.930531 -10.398654
54.415718 -45.652042 -11.876788
55.729012 -51.855389 -14.81629
55.272636 -47.265144 -14.358908
56.733204 -43.40897 -13.395689
59.361206 -41.954697 -14.623227
56.250721 -37.273758 -16.890024
55.244385 -37.677246 -17.989096
57.37019 -44.189125 -21.595356
56.05233 -41.190948 -20.52812
54.540932 -37.319763 -19.271404
54.376381 -36.123566 -20.801472
54.750946 -34.787407 -22.490788
55.351799 -33.71801 -24.256367
50.803154 -44.997475 -18.036413
49.428596 -43.465523 -17.522686
51.97039 -42.277527 -20.740091
53.067024 -39.735466 -23.793898
54.728004 -36.770054 -25.831654
55.972633 -33.051758 -26.468399
55.339794 -32.443813 -27.950928
53.658562 -30.976231 -28.06459
52.217766 -29.527191 -27.232574
49.789696 -31.255085 -24.470587
50.429226 -28.015549 -26.358541
49.04224 -26.799686 -25.227179
47.703781 -25.72171 -23.834621
48.346043 -22.627745 -26.154926
45.765556 -3.699554 -32.508244
46.90247 -6.262488 -35.130257
53.966248 -16.45439 -25.937134
52.281544 -13.74821 -26.924557
50.609669 -10.763423 -27.885639
48.840572 -10.103365 -30.515162
48.451199 -9.162694 -33.874249
49.024487 -7.827349 -37.28709
50.916054 -9.432298 -38.957573
51.540016 -11.653957 -39.509624
50.746292 -13.931082 -38.390419
55.358959 -17.742336 -34.954552
52.498421 -16.938702 -35.823231
49.790401 -16.116796 -35.695473
49.101692 -18.338423 -32.599327
48.733589 -20.15851 -29.551636
53.892769 -52.548828 -6.202424
54.484869 -51.156644 -6.180378
41.540396 -63.920685 -12.586065
42.442158 -65.339146 -13.602363
41.690722 -65.299724 -13.692663
40.91572 -62.320683 -11.783923
41.667156 -62.360104 -11.693623
41.540396 -63.920685 -12.586065
40.391226 -62.221632 -12.296198
40.91572 -62.320683 -11.783923
32.03707 -1.614857 -41.098175
32.089362 -2.033776 -39.764132
31.92162 -0.452687 -40.452464
37.82032 1.018668 -38.717039
36.883314 2.303825 -38.517886
37.803801 2.374855 -37.026425
40.329437 -11.899623 -26.957547
39.703553 -12.981345 -26.500417
41.231144 -12.943196 -26.279179
40.329437 -11.899623 -26.957547
49.241363 -38.698622 -20.069294
48.29384 -40.208023 -18.812639
50.528385 -38.142698 -21.805699
49.241363 -38.698622 -20.069294
45.214905 -33.873593 -20.890284
45.7505 -34.077862 -20.747036
44.554569 -33.482656 -20.625338
45.730874 -32.269171 -20.861041
45.214905 -33.873593 -20.890284
50.443866 -7.550499 -28.47609
49.703188 -5.860592 -29.245634
56.259699 -17.531619 -23.559047
57.375616 -17.46465 -22.981886
39.493225 -67.482906 -14.784332
40.353588 -66.148529 -14.786518
57.835815 -33.287659 -16.859027
57.895254 -31.447551 -17.108145
30.737735 5.125903 -41.504137
29.781564 5.918536 -41.033918
31.498943 4.218415 -41.991532
30.704777 4.063496 -42.060659
30.737735 5.125903 -41.504137
55.793663 -46.668917 -7.951368
55.170504 -48.131989 -7.363079
54.88726 -46.347072 -8.733479
56.138665 -45.053625 -8.553765
55.793663 -46.668917 -7.951368
48.070636 -57.925491 -10.308181
47.147391 -58.956272 -9.948463
44.245043 -1.093414 -34.747815
43.721008 0.047518 -35.32189
44.473749 0.44337 -34.080072
39.741122 -61.705821 -14.698894
39.674667 -61.810185 -13.692114
39.76388 -63.412592 -14.604164
59.630329 -19.626497 -21.411322
59.575813 -17.989664 -22.113768
56.333657 -23.381332 -20.066215
57.110545 -23.568779 -19.293261
55.767191 -24.786068 -19.19986
55.749382 -23.403007 -20.88924
57.092736 -22.185717 -20.982642
56.333657 -23.381332 -20.066215
53.977463 -29.44619 -22.069555
54.123724 -27.686089 -21.690708
53.598135 -29.759241 -20.71492
54.081793 -30.978923 -22.279383
54.607382 -28.90577 -23.25517
53.977463 -29.44619 -22.069555
29.324545 2.538809 -38.204817
28.860504 3.731311 -38.878935
30.071007 0.005825 -36.682907
31.348335 -0.287223 -37.056051
34.136263 2.575198 -42.691824
34.134598 3.288569 -41.13035
35.026453 2.328327 -41.450428
35.577084 -1.740535 -43.725838
36.716547 -1.585589 -44.387816
36.834024 -2.662968 -43.803244
34.473247 -2.21566 -42.990424
34.35577 -1.13828 -43.574995
35.577084 -1.740535 -43.725838
33.652832 -2.35531 -41.605993
34.473247 -2.21566 -42.990424
36.814456 -5.097109 -35.706459
36.065292 -6.177431 -35.100952
39.805246 -6.41523 -33.638502
39.984453 -5.684125 -35.324924
40.816147 -7.109817 -32.886751
39.689501 -7.027447 -31.801662
39.805246 -6.41523 -33.638502
42.736414 -17.075212 -23.528423
42.914614 -15.075788 -25.061782
44.201263 -15.370952 -25.634701
44.023063 -17.370376 -24.101343
44.448677 -64.827675 -6.999678
44.994112 -65.11256 -7.775548
45.301504 -63.152577 -6.417174
44.448677 -64.827675 -6.999678
54.838232 -56.761648 -7.62988
54.930943 -58.905781 -7.072185
55.434897 -57.722971 -8.257599
54.651085 -54.904235 -8.032083
54.147131 -56.087046 -6.846669
54.838232 -56.761648 -7.62988
58.557423 -39.877789 -15.71641
59.142678 -41.183466 -15.901616
57.985462 -41.397588 -16.255204
58.558201 -38.191107 -15.702734
58.557423 -39.877789 -15.71641
57.482602 -38.263115 -15.942476
58.558201 -38.191107 -15.702734
49.426979 -45.656708 -16.82242
50.240729 -46.451538 -17.197004
49.139975 -30.727416 -23.971858
48.74608 -32.23774 -23.031296
48.096359 -31.710071 -22.532567
46.425533 -5.323297 -32.070192
46.683723 -3.743387 -31.371304
47.3437 -5.36713 -30.933253
54.853152 -49.648003 -6.79112
54.484869 -51.156644 -6.180378
54.224907 -49.478378 -7.559123
55.170504 -48.131989 -7.363079
54.853152 -49.648003 -6.79112
49.294287 -56.747166 -12.471927
48.830696 -57.349575 -11.50137
47.704504 -57.335846 -11.378839
45.902783 0.85345 -33.574038
44.473749 0.44337 -34.080072
43.213106 -65.107117 -13.530627
42.442158 -65.339146 -13.602363
43.061234 -63.512884 -12.514215
43.213106 -65.107117 -13.530627
42.512802 -62.30028 -11.655031
43.061234 -63.512884 -12.514215
42.512802 -62.30028 -11.655031
41.667156 -62.360104 -11.693623
40.014674 -61.64497 -15.807951
39.808211 -63.397312 -16.419686
56.529466 -27.023696 -17.901785
57.656424 -25.302327 -18.023309
57.641811 -27.352508 -17.498187
53.447616 -32.085032 -19.865122
53.598135 -29.759241 -20.71492
53.593878 -30.324931 -19.486275
31.752447 -1.290769 -37.733683
31.348335 -0.287223 -37.056051
31.569801 0.13194 -38.440788
32.16442 -2.35731 -38.543332
31.752447 -1.290769 -37.733683
32.16442 -2.35731 -38.543332
32.089362 -2.033776 -39.764132
35.962311 1.994668 -40.048727
36.883314 2.303825 -38.517886
35.963976 1.281297 -41.610201
35.026453 2.328327 -41.450428
35.962311 1.994668 -40.048727
36.872095 -3.580287 -42.910019
36.834024 -2.662968 -43.803244
38.011559 -3.42534 -43.571996
37.253584 -3.877479 -41.514046
36.872095 -3.580287 -42.910019
37.577787 -4.065437 -39.989834
37.253584 -3.877479 -41.514046
38.373833 -4.530616 -41.15456
37.768635 -4.465654 -38.384414
37.577787 -4.065437 -39.989834
38.867525 -4.794612 -37.778303
37.768635 -4.465654 -38.384414
39.879326 -5.512511 -37.143713
38.867525 -4.794612 -37.778303
39.709837 -5.436473 -38.995758
40.826765 -6.325985 -36.542379
39.984453 -5.684125 -35.324924
39.879326 -5.512511 -37.143713
40.039217 -14.831181 -25.540752
39.703553 -12.981345 -26.500417
40.701092 -15.692569 -24.523343
40.039217 -14.831181 -25.540752
41.289801 -14.703412 -24.920361
41.479296 -16.714372 -23.800266
40.701092 -15.692569 -24.523343
42.009348 -13.964999 -25.556102
41.289801 -14.703412 -24.920361
41.231144 -12.943196 -26.279179
42.914614 -15.075788 -25.061782
42.009348 -13.964999 -25.556102
44.901904 -66.961074 -9.47434
45.093422 -68.732269 -10.246595
44.878781 -65.187919 -8.4993
44.901904 -66.961074 -9.47434
45.144808 -65.238487 -9.415689
45.237016 -63.389972 -7.716897
44.994112 -65.11256 -7.775548
44.878781 -65.187919 -8.4993
47.472672 -41.551058 -17.443656
46.6049 -43.011172 -16.370055
48.919866 -40.883978 -18.789758
47.472672 -41.551058 -17.443656
48.29384 -40.208023 -18.812639
51.715061 -37.599062 -23.615616
50.927712 -38.997307 -21.968657
50.528385 -38.142698 -21.805699
52.533123 -36.172248 -25.073744
52.93245 -37.026857 -25.236702
51.715061 -37.599062 -23.615616
51.832449 -35.302999 -24.866906
53.049837 -34.730795 -26.487991
52.533123 -36.172248 -25.073744
51.219677 -34.372275 -24.485263
51.832449 -35.302999 -24.866906
50.532362 -33.641022 -23.983828
51.661848 -33.130293 -25.779718
51.219677 -34.372275 -24.485263
47.046837 -32.94025 -21.358995
45.7505 -34.077862 -20.747036
47.440731 -31.429927 -22.299557
48.096359 -31.710071 -22.532567
47.046837 -32.94025 -21.358995
48.255798 -5.556438 -29.662758
49.703188 -5.860592 -29.245634
47.997608 -7.136349 -30.361646
47.3437 -5.36713 -30.933253
48.255798 -5.556438 -29.662758
40.88323 -65.052166 -13.482042
41.690722 -65.299724 -13.692663
40.337463 -64.870012 -13.942551
40.243193 -63.69911 -13.136875
40.88323 -65.052166 -13.482042
39.71355 -64.795473 -14.441351
40.337463 -64.870012 -13.942551
40.353588 -66.148529 -14.786518
38.510116 -67.309551 -14.637673
39.493225 -67.482906 -14.784332
38.968757 -66.051941 -15.701898
38.510116 -67.309551 -14.637673
39.019087 -64.66906 -15.86471
39.780005 -64.691109 -15.448131
38.968757 -66.051941 -15.701898
39.808211 -63.397312 -16.419686
39.019087 -64.66906 -15.86471
57.678321 -29.336022 -17.263883
57.641811 -27.352508 -17.498187
56.731786 -31.185406 -17.220925
57.678321 -29.336022 -17.263883
57.895254 -31.447551 -17.108145
29.057727 4.800223 -39.881992
28.860504 3.731311 -38.878935
29.110717 5.428571 -40.900135
29.781564 5.918536 -41.033918
29.890579 4.342636 -40.555122
29.057727 4.800223 -39.881992
29.110717 5.428571 -40.900135
56.920456 -43.498457 -9.24412
56.138665 -45.053625 -8.553765
56.220007 -43.339357 -10.212882
56.920456 -43.498457 -9.24412
46.018691 -59.969105 -9.169929
45.80708 -61.634507 -9.448524
45.18281 -61.665219 -9.967441
47.77166 -58.92556 -9.429546
46.018691 -59.969105 -9.169929
47.147391 -58.956272 -9.948463
49.66042 -57.336811 -11.401269
48.070636 -57.925491 -10.308181
48.830696 -57.349575 -11.50137
39.01222 2.914719 -36.676876
37.803801 2.374855 -37.026425
39.672453 1.737503 -36.655586
39.01222 2.914719 -36.676876
40.69354 0.913003 -37.076103
39.761894 0.265198 -37.646095
39.672453 1.737503 -36.655586
41.398535 -0.117122 -37.005209
40.69354 0.913003 -37.076103
42.462696 -0.904054 -37.198521
41.847143 -1.346235 -38.259924
41.398535 -0.117122 -37.005209
42.753195 -0.582104 -35.966719
43.721008 0.047518 -35.32189
43.201803 -1.811216 -37.221434
42.462696 -0.904054 -37.198521
42.753195 -0.582104 -35.966719
45.345123 -68.5596 -11.306
45.093422 -68.732269 -10.246595
45.371289 -66.612064 -11.434907
45.345123 -68.5596 -11.306
45.272922 -64.771553 -11.362561
45.069565 -65.171131 -10.318383
45.371289 -66.612064 -11.434907
44.813444 -63.124108 -11.046414
45.272922 -64.771553 -11.362561
45.18281 -61.665219 -9.967441
44.813444 -63.124108 -11.046414
46.776537 -57.304406 -11.457251
47.704504 -57.335846 -11.378839
47.192564 -56.317299 -12.145654
46.776537 -57.304406 -11.457251
47.525821 -55.662922 -13.378755
48.501352 -56.07906 -13.582497
47.192564 -56.317299 -12.145654
48.070219 -54.834818 -14.215594
47.525821 -55.662922 -13.378755
39.845459 -62.039478 -12.756708
40.391226 -62.221632 -12.296198
40.243193 -63.69911 -13.136875
39.845459 -62.039478 -12.756708
39.674667 -61.810185 -13.692114
39.741122 -61.705821 -14.698894
40.014674 -61.64497 -15.807951
58.469807 -17.726276 -22.570228
59.575813 -17.989664 -22.113768
57.565332 -19.189386 -22.420169
57.375616 -17.46465 -22.981886
58.469807 -17.726276 -22.570228
58.094159 -23.463895 -18.6923
57.656424 -25.302327 -18.023309
58.094159 -23.463895 -18.6923
57.110545 -23.568779 -19.293261
58.168267 -20.807527 -21.084063
59.630329 -19.626497 -21.411322
57.583992 -20.829202 -21.907089
58.168267 -20.807527 -21.084063
57.092736 -22.185717 -20.982642
29.988596 1.249408 -37.317905
29.324545 2.538809 -38.204817
30.501639 2.424888 -38.650069
29.988596 1.249408 -37.317905
30.071007 0.005825 -36.682907
33.233314 4.33133 -40.625086
34.134598 3.288569 -41.13035
32.388155 4.408131 -41.903378
33.233314 4.33133 -40.625086
32.355196 3.345724 -42.4599
31.498943 4.218415 -41.991532
32.388155 4.408131 -41.903378
32.728372 -2.404676 -41.624712
32.03707 -1.614857 -41.098175
32.560631 -0.823586 -42.313044
32.728372 -2.404676 -41.624712
33.652832 -2.35531 -41.605993
36.285209 -7.520064 -34.352536
36.065292 -6.177431 -35.100952
36.829765 -7.323448 -33.14591
36.285209 -7.520064 -34.352536
37.913347 -5.426067 -35.100347
36.814456 -5.097109 -35.706459
37.73414 -6.157172 -33.413925
37.913347 -5.426067 -35.100347
36.829765 -7.323448 -33.14591
37.73414 -6.157172 -33.413925
39.601198 -8.289894 -30.397001
39.689501 -7.027447 -31.801662
40.423839 -8.919836 -29.660784
39.601198 -8.289894 -30.397001
41.285044 -10.085931 -29.076839
40.423839 -8.919836 -29.660784
41.561605 -8.888129 -30.465967
42.186751 -11.129504 -28.398472
41.285044 -10.085931 -29.076839
42.982383 -12.349001 -27.978899
42.186751 -11.129504 -28.398472
43.218443 -11.273722 -29.46245
43.88765 -13.45979 -27.484579
42.982383 -12.349001 -27.978899
44.674397 -14.762291 -27.236418
43.88765 -13.45979 -27.484579
44.800823 -13.79572 -28.794716
45.114437 -15.706882 -26.944839
44.201263 -15.370952 -25.634701
44.674397 -14.762291 -27.236418
41.955679 -18.016895 -23.129748
41.479296 -16.714372 -23.800266
41.955679 -18.016895 -23.129748
42.736414 -17.075212 -23.528423
44.524231 -19.254628 -23.585013
44.023063 -17.370376 -24.101343
46.189083 -18.358584 -26.43985
46.07201 -21.297668 -24.681742
44.524231 -19.254628 -23.585013
44.069388 -32.831547 -20.563659
44.554569 -33.482656 -20.625338
44.408585 -31.037399 -20.395606
44.069388 -32.831547 -20.563659
44.783658 -29.224016 -20.744284
45.445611 -30.064852 -20.944775
44.408585 -31.037399 -20.395606
45.043949 -27.277171 -20.956922
44.783658 -29.224016 -20.744284
45.2101 -26.066355 -21.392554
45.986834 -27.040653 -21.729085
45.043949 -27.277171 -20.956922
45.280072 -24.011775 -21.99581
45.2101 -26.066355 -21.392554
46.07201 -21.297668 -24.681742
46.944924 -23.11573 -24.850648
45.280072 -24.011775 -21.99581
46.917664 -62.441477 -6.42107
45.301504 -63.152577 -6.417174
46.968508 -62.603514 -6.997041
46.983232 -62.463833 -5.76409
46.917664 -62.441477 -6.42107
48.650236 -61.91477 -6.343957
46.842335 -62.168281 -5.037325
46.983232 -62.463833 -5.76409
48.775898 -61.176235 -4.917476
46.842335 -62.168281 -5.037325
50.70688 -60.598736 -4.865862
48.775898 -61.176235 -4.917476
50.646788 -61.359627 -5.635364
52.367645 -59.826141 -4.910413
50.70688 -60.598736 -4.865862
53.456024 -59.363293 -6.014108
54.052689 -60.324616 -6.641827
54.930943 -58.905781 -7.072185
52.367645 -59.826141 -4.910413
53.456024 -59.363293 -6.014108
53.698519 -55.611776 -6.135218
54.147131 -56.087046 -6.846669
53.918983 -54.166449 -6.333278
53.698519 -55.611776 -6.135218
53.933769 -52.612012 -7.118018
53.892769 -52.548828 -6.202424
53.918983 -54.166449 -6.333278
55.811735 -43.799488 -11.483338
56.220007 -43.339357 -10.212882
54.82399 -45.191912 -10.606331
56.970478 -42.677952 -12.242789
55.811735 -43.799488 -11.483338
55.574461 -44.530506 -12.636239
58.140152 -41.950359 -13.183068
56.970478 -42.677952 -12.242789
59.454153 -41.223223 -13.796837
58.140152 -41.950359 -13.183068
58.047205 -42.681833 -14.009458
60.325176 -40.517785 -14.290247
59.454153 -41.223223 -13.796837
59.537922 -40.809182 -14.993025
58.965962 -42.328981 -15.531818
59.142678 -41.183466 -15.901616
60.325176 -40.517785 -14.290247
59.537922 -40.809182 -14.993025
57.08298 -38.565922 -16.641751
57.482602 -38.263115 -15.942476
57.000586 -40.394718 -16.769273
56.907858 -36.854039 -16.352489
57.08298 -38.565922 -16.641751
56.425843 -38.985641 -17.179286
57.486817 -35.27607 -16.771446
56.907858 -36.854039 -16.352489
56.59972 -35.285347 -16.977605
57.835815 -33.287659 -16.859027
57.486817 -35.27607 -16.771446
53.914127 -33.821454 -20.94762
53.447616 -32.085032 -19.865122
53.90987 -34.387144 -19.718975
54.10141 -33.153374 -21.792277
53.914127 -33.821454 -20.94762
54.563664 -35.455486 -21.64613
54.731329 -32.612955 -22.977893
54.081793 -30.978923 -22.279383
54.10141 -33.153374 -21.792277
48.723568 -53.684565 -15.01041
49.487959 -54.274429 -15.610413
48.070219 -54.834818 -14.215594
49.466713 -52.110183 -15.744891
48.723568 -53.684565 -15.01041
50.043761 -50.428039 -16.262296
50.718356 -51.442032 -16.922632
49.466713 -52.110183 -15.744891
50.486853 -48.832745 -16.898816
50.043761 -50.428039 -16.262296
50.913069 -47.267879 -17.687015
51.721619 -48.195022 -18.228236
50.486853 -48.832745 -16.898816
51.475494 -45.813816 -18.526423
50.913069 -47.267879 -17.687015
50.240729 -46.451538 -17.197004
47.303793 -43.610273 -16.314057
46.6049 -43.011172 -16.370055
47.968742 -44.229529 -16.365012
47.303793 -43.610273 -16.314057
48.763647 -42.846268 -17.471731
48.7397 -44.890732 -16.565556
47.968742 -44.229529 -16.365012
50.115875 -44.231499 -17.77955
49.426979 -45.656708 -16.82242
48.7397 -44.890732 -16.565556
49.875473 -33.102417 -23.667124
50.532362 -33.641022 -23.983828
49.283054 -32.530439 -23.263276
48.74608 -32.23774 -23.031296
50.382115 -31.827063 -24.874434
49.875473 -33.102417 -23.667124
49.283054 -32.530439 -23.263276
46.008002 -0.534139 -32.599291
45.902783 0.85345 -33.574038
46.391887 -2.035135 -32.100414
46.683723 -3.743387 -31.371304
45.38167 -2.198558 -33.00712
46.008002 -0.534139 -32.599291
46.391887 -2.035135 -32.100414
55.573323 -17.631876 -24.587882
56.259699 -17.531619 -23.559047
55.784765 -19.028016 -23.860663
55.007252 -16.294935 -25.1117
55.573323 -17.631876 -24.587882
54.532319 -17.791331 -25.413316
54.576081 -14.999216 -25.731886
55.007252 -16.294935 -25.1117
53.733728 -13.646127 -26.225597
54.576081 -14.999216 -25.731886
53.123896 -15.1013 -26.430846
53.087006 -12.240429 -26.738073
53.733728 -13.646127 -26.225597
52.251068 -10.748036 -27.218615
53.087006 -12.240429 -26.738073
51.445606 -12.255816 -27.405098
51.293848 -9.269382 -27.873333
52.251068 -10.748036 -27.218615
49.759687 -9.04454 -28.488396
50.443866 -7.550499 -28.47609
51.293848 -9.269382 -27.873333
3 1 64 62
3 1 66 64
3 251 67 252
3 2 70 68
3 2 72 70
3 2 74 72
3 3 77 75
3 3 79 77
3 6 253 255
3 253 80 254
3 253 254 255
3 6 256 258
3 258 257 80
3 256 257 258
3 6 259 260
3 8 83 81
3 8 85 83
3 9 88 86
3 9 261 263
3 263 262 88
3 261 262 263
3 4 264 266
3 264 89 265
3 264 265 266
3 10 92 90
3 10 93 92
3 10 94 93
3 11 97 95
3 11 99 97
3 267 100 268
3 270 269 100
3 5 103 102
3 12 106 104
3 12 108 106
3 12 110 108
3 13 113 111
3 13 115 113
3 13 117 115
3 14 120 118
3 14 122 120
3 271 124 272
3 274 273 124
3 275 127 276
3 277 129 278
3 279 278 127
3 277 278 279
3 280 130 281
3 7 282 283
3 16 133 131
3 16 135 133
3 16 137 135
3 15 140 138
3 15 142 140
3 284 144 285
3 286 145 287
3 288 146 289
3 290 147 291
3 292 291 146
3 290 291 292
3 19 150 148
3 21 151 63
3 21 152 151
3 21 154 152
3 23 155 65
3 23 156 155
3 24 293 294
3 24 295 297
3 295 157 296
3 295 296 297
3 298 159 299
3 26 160 69
3 26 161 160
3 26 163 161
3 28 164 71
3 28 165 164
3 28 167 165
3 30 168 73
3 30 169 168
3 31 172 170
3 33 173 76
3 33 174 173
3 33 176 174
3 35 177 78
3 35 178 177
3 36 300 302
3 300 179 301
3 300 301 302
3 36 180 179
3 17 303 305
3 305 304 143
3 303 304 305
3 306 181 307
3 37 308 310
3 310 309 82
3 308 309 310
3 37 311 313
3 311 182 312
3 311 312 313
3 37 183 182
3 314 184 315
3 316 315 84
3 314 315 316
3 317 185 318
3 319 318 184
3 317 318 319
3 18 320 321
3 323 322 87
3 38 324 326
3 324 186 325
3 324 325 326
3 38 187 186
3 20 188 149
3 327 189 328
3 329 328 91
3 327 328 329
3 330 190 331
3 332 331 189
3 330 331 332
3 334 333 190
3 335 191 336
3 39 337 338
3 39 339 341
3 339 192 340
3 339 340 341
3 22 193 153
3 40 194 96
3 40 195 194
3 40 196 195
3 41 197 98
3 41 199 197
3 343 342 101
3 344 198 345
3 43 346 347
3 43 348 349
3 25 201 158
3 44 202 105
3 44 203 202
3 44 204 203
3 45 350 352
3 352 351 107
3 350 351 352
3 45 353 355
3 353 205 354
3 353 354 355
3 45 206 205
3 46 207 109
3 46 208 207
3 27 209 162
3 47 210 112
3 47 211 210
3 47 212 211
3 48 356 358
3 358 357 114
3 356 357 358
3 48 359 360
3 48 361 362
3 49 213 116
3 49 214 213
3 29 215 166
3 50 216 119
3 50 217 216
3 50 218 217
3 51 219 121
3 51 220 219
3 363 221 364
3 52 222 123
3 52 223 222
3 52 224 223
3 53 225 125
3 53 226 225
3 53 227 226
3 54 228 126
3 54 229 228
3 55 365 367
3 365 230 366
3 365 366 367
3 55 231 230
3 55 232 231
3 42 233 128
3 42 200 233
3 57 368 370
3 368 235 369
3 368 369 370
3 57 236 235
3 32 237 171
3 58 238 132
3 58 239 238
3 58 240 239
3 59 241 134
3 59 242 241
3 59 243 242
3 60 244 136
3 60 245 244
3 34 246 175
3 61 247 139
3 61 248 247
3 61 249 248
3 56 250 141
3 56 234 250
3 62 63 19
3 64 63 62
3 64 21 63
3 64 65 21
3 66 65 64
3 66 23 65
3 67 371 372
3 67 373 375
3 373 24 374
3 373 374 375
3 68 376 378
3 376 69 377
3 376 377 378
3 70 69 68
3 70 26 69
3 70 71 26
3 72 71 70
3 72 28 71
3 72 73 28
3 74 73 72
3 74 30 73
3 75 76 31
3 77 76 75
3 77 33 76
3 77 78 33
3 79 78 77
3 79 35 78
3 379 36 380
3 80 381 382
3 80 383 384
3 80 385 386
3 388 387 80
3 390 389 17
3 81 391 393
3 391 82 392
3 391 392 393
3 83 82 81
3 83 37 82
3 83 84 37
3 85 84 83
3 85 394 396
3 396 395 84
3 394 395 396
3 86 87 18
3 88 87 86
3 88 397 399
3 399 398 87
3 397 398 399
3 88 400 401
3 403 402 88
3 89 404 405
3 89 406 408
3 406 38 407
3 406 407 408
3 90 91 20
3 92 91 90
3 92 409 411
3 411 410 91
3 409 410 411
3 92 412 413
3 93 414 416
3 416 415 92
3 414 415 416
3 93 417 418
3 93 419 420
3 94 421 423
3 423 422 93
3 421 422 423
3 94 424 426
3 424 39 425
3 424 425 426
3 95 96 22
3 97 96 95
3 97 40 96
3 97 98 40
3 99 98 97
3 99 41 98
3 100 427 428
3 100 429 430
3 100 431 433
3 431 101 432
3 431 432 433
3 434 101 435
3 436 435 100
3 434 435 436
3 438 437 101
3 102 439 440
3 103 441 443
3 443 442 102
3 441 442 443
3 103 444 446
3 444 43 445
3 444 445 446
3 104 105 25
3 106 105 104
3 106 44 105
3 106 107 44
3 108 107 106
3 108 45 107
3 108 109 45
3 110 109 108
3 110 46 109
3 111 112 27
3 113 112 111
3 113 47 112
3 113 114 47
3 115 114 113
3 115 48 114
3 115 116 48
3 117 116 115
3 117 49 116
3 118 119 29
3 120 119 118
3 120 50 119
3 120 121 50
3 122 121 120
3 122 51 121
3 447 123 448
3 124 449 451
3 449 123 450
3 449 450 451
3 124 52 123
3 124 125 52
3 452 125 453
3 454 453 124
3 452 453 454
3 455 53 456
3 457 456 125
3 455 456 457
3 458 126 459
3 460 459 53
3 458 459 460
3 461 126 462
3 463 54 464
3 465 464 126
3 463 464 465
3 127 466 467
3 127 468 470
3 468 55 469
3 468 469 470
3 127 128 55
3 129 128 127
3 129 42 128
3 130 471 472
3 130 473 475
3 473 57 474
3 473 474 475
3 131 132 32
3 133 132 131
3 133 58 132
3 133 134 58
3 135 134 133
3 135 59 134
3 135 136 59
3 137 136 135
3 137 60 136
3 138 139 34
3 140 139 138
3 140 61 139
3 140 141 61
3 142 141 140
3 142 56 141
3 476 6 477
3 478 143 479
3 480 479 6
3 478 479 480
3 144 481 483
3 481 143 482
3 481 482 483
3 144 17 143
3 484 144 485
3 486 144 487
3 488 17 489
3 490 489 144
3 488 489 490
3 492 491 17
3 493 81 494
3 145 495 497
3 495 81 496
3 495 496 497
3 145 8 81
3 498 18 499
3 146 500 501
3 146 502 504
3 502 18 503
3 502 503 504
3 146 86 18
3 147 86 146
3 147 9 86
3 148 149 4
3 150 149 148
3 150 20 149
3 63 150 19
3 151 150 63
3 151 20 150
3 151 90 20
3 152 90 151
3 152 10 90
3 152 153 10
3 154 153 152
3 154 22 153
3 65 154 21
3 155 154 65
3 155 22 154
3 155 95 22
3 156 95 155
3 156 11 95
3 157 505 506
3 157 507 508
3 509 158 510
3 511 510 5
3 509 510 511
3 159 512 514
3 512 158 513
3 512 513 514
3 159 25 158
3 69 515 517
3 515 159 516
3 515 516 517
3 160 159 69
3 160 25 159
3 160 104 25
3 161 104 160
3 161 12 104
3 161 162 12
3 163 162 161
3 163 27 162
3 71 163 26
3 164 163 71
3 164 27 163
3 164 111 27
3 165 111 164
3 165 13 111
3 165 166 13
3 167 166 165
3 167 29 166
3 73 167 28
3 168 167 73
3 168 29 167
3 168 118 29
3 169 118 168
3 169 14 118
3 170 171 7
3 172 171 170
3 172 32 171
3 76 172 31
3 173 172 76
3 173 32 172
3 173 131 32
3 174 131 173
3 174 16 131
3 174 175 16
3 176 175 174
3 176 34 175
3 78 176 33
3 177 176 78
3 177 34 176
3 177 138 34
3 178 138 177
3 178 15 138
3 518 4 519
3 520 4 521
3 522 148 523
3 524 523 4
3 522 523 524
3 525 148 526
3 527 19 528
3 529 528 148
3 527 528 529
3 179 530 531
3 179 532 534
3 532 19 533
3 532 533 534
3 179 62 19
3 180 62 179
3 180 1 62
3 535 102 536
3 537 102 538
3 539 5 540
3 541 540 102
3 539 540 541
3 542 5 543
3 545 544 5
3 546 68 547
3 548 68 549
3 550 2 551
3 552 551 68
3 550 551 552
3 554 553 2
3 143 555 557
3 557 556 6
3 555 556 557
3 559 558 143
3 561 560 17
3 181 562 563
3 181 564 566
3 564 7 565
3 564 565 566
3 82 567 568
3 570 569 82
3 571 181 572
3 182 573 575
3 573 181 574
3 573 574 575
3 182 7 181
3 182 170 7
3 183 170 182
3 183 31 170
3 84 183 37
3 184 183 84
3 184 31 183
3 184 75 31
3 185 75 184
3 185 3 75
3 87 576 578
3 578 577 18
3 576 577 578
3 580 579 87
3 186 581 582
3 186 583 584
3 186 585 587
3 585 147 586
3 585 586 587
3 187 147 186
3 187 9 147
3 149 89 4
3 188 89 149
3 188 38 89
3 91 188 20
3 189 188 91
3 189 38 188
3 189 187 38
3 190 187 189
3 190 9 187
3 190 588 590
3 590 589 9
3 588 589 590
3 592 591 190
3 191 593 594
3 191 595 596
3 597 191 598
3 599 191 600
3 602 601 191
3 192 603 604
3 192 605 606
3 153 94 10
3 193 94 153
3 193 39 94
3 96 193 22
3 194 193 96
3 194 39 193
3 194 192 39
3 195 192 194
3 195 607 609
3 609 608 192
3 607 608 609
3 195 610 611
3 196 612 614
3 614 613 195
3 612 613 614
3 196 615 616
3 98 196 40
3 197 196 98
3 197 617 619
3 619 618 196
3 617 618 619
3 197 620 622
3 620 198 621
3 620 621 622
3 199 198 197
3 199 0 198
3 101 623 624
3 626 625 101
3 198 627 628
3 198 629 631
3 629 0 630
3 629 630 631
3 632 129 633
3 634 129 635
3 636 42 637
3 638 637 129
3 636 637 638
3 639 42 640
3 641 200 642
3 643 642 42
3 641 642 643
3 644 200 645
3 646 0 647
3 648 647 200
3 646 647 648
3 158 103 5
3 201 103 158
3 201 43 103
3 105 201 25
3 202 201 105
3 202 43 201
3 202 649 651
3 651 650 43
3 649 650 651
3 203 652 654
3 654 653 202
3 652 653 654
3 203 655 656
3 203 657 658
3 204 659 661
3 661 660 203
3 659 660 661
3 204 662 663
3 107 204 44
3 664 204 665
3 666 665 107
3 664 665 666
3 668 667 204
3 205 669 670
3 205 671 672
3 205 673 675
3 673 67 674
3 673 674 675
3 206 67 205
3 206 24 67
3 109 206 45
3 207 206 109
3 207 24 206
3 207 157 24
3 208 157 207
3 208 676 678
3 678 677 157
3 676 677 678
3 162 110 12
3 209 110 162
3 209 46 110
3 112 209 27
3 210 209 112
3 210 46 209
3 210 208 46
3 211 208 210
3 211 679 681
3 681 680 208
3 679 680 681
3 211 682 683
3 212 684 686
3 686 685 211
3 684 685 686
3 212 687 688
3 114 212 47
3 689 212 690
3 691 690 114
3 689 690 691
3 693 692 212
3 116 694 696
3 696 695 48
3 694 695 696
3 213 697 699
3 699 698 116
3 697 698 699
3 213 700 701
3 213 702 704
3 702 145 703
3 702 703 704
3 214 145 213
3 214 8 145
3 166 117 13
3 215 117 166
3 215 49 117
3 119 215 29
3 216 215 119
3 216 49 215
3 216 214 49
3 217 214 216
3 217 8 214
3 217 85 8
3 218 85 217
3 218 705 707
3 707 706 85
3 705 706 707
3 121 218 50
3 219 218 121
3 219 708 710
3 710 709 218
3 708 709 710
3 219 711 713
3 711 185 712
3 711 712 713
3 220 185 219
3 220 3 185
3 714 74 715
3 716 715 2
3 714 715 716
3 717 74 718
3 719 30 720
3 721 720 74
3 719 720 721
3 722 30 723
3 724 169 725
3 726 725 30
3 724 725 726
3 221 727 729
3 727 169 728
3 727 728 729
3 221 14 169
3 123 730 731
3 222 732 734
3 734 733 123
3 732 733 734
3 222 735 736
3 222 737 739
3 737 221 738
3 737 738 739
3 223 221 222
3 223 14 221
3 223 122 14
3 224 122 223
3 224 51 122
3 125 224 52
3 225 224 125
3 225 51 224
3 225 220 51
3 226 220 225
3 226 3 220
3 226 79 3
3 227 79 226
3 227 35 79
3 126 227 53
3 228 227 126
3 228 35 227
3 228 178 35
3 229 178 228
3 229 15 178
3 740 54 741
3 230 742 743
3 230 744 746
3 744 54 745
3 744 745 746
3 230 229 54
3 231 229 230
3 231 15 229
3 231 142 15
3 232 142 231
3 232 56 142
3 128 232 55
3 233 232 128
3 233 56 232
3 233 234 56
3 200 234 233
3 200 0 234
3 747 36 748
3 235 749 750
3 235 751 753
3 751 36 752
3 751 752 753
3 235 180 36
3 236 180 235
3 236 1 180
3 171 754 756
3 756 755 7
3 754 755 756
3 237 757 759
3 759 758 171
3 757 758 759
3 237 760 761
3 132 237 32
3 238 237 132
3 238 762 764
3 764 763 237
3 762 763 764
3 238 765 766
3 239 767 769
3 769 768 238
3 767 768 769
3 239 770 771
3 239 772 774
3 772 130 773
3 772 773 774
3 240 130 239
3 240 57 130
3 134 240 58
3 241 240 134
3 241 57 240
3 241 236 57
3 242 236 241
3 242 1 236
3 242 66 1
3 243 66 242
3 243 23 66
3 136 243 59
3 244 243 136
3 244 23 243
3 244 156 23
3 245 156 244
3 245 11 156
3 175 137 16
3 246 137 175
3 246 60 137
3 139 246 34
3 247 246 139
3 247 60 246
3 247 245 60
3 248 245 247
3 248 11 245
3 248 99 11
3 249 99 248
3 249 41 99
3 141 249 61
3 250 249 141
3 250 41 249
3 250 199 41
3 234 199 250
3 234 0 199
