ply
format ascii 1.0
element vertex 414
property float x
property float y
property float z
element face 409
property list uchar int vertex_index
end_header
-30.790691 -79.356888 -11.45785
-21.608641 -80.030533 -6.119654
-17.146034 -96.571022 -15.906466
-28.244839 -86.203751 -16.930134
-39.419323 -75.649658 -15.124295
-35.676994 -73.07029 -16.306149
-29.351376 -74.610748 -13.254129
-36.019547 -66.542458 -15.65737
-15.374377 -98.381508 -12.802127
-18.666899 -98.783134 -15.758034
-29.038504 -89.884491 -15.81749
-35.68565 -80.886581 -14.106648
-24.354193 -73.785095 -4.288605
-23.183655 -97.370171 -14.59833
-23.095236 -84.663528 -11.73874
-26.62804 -80.828751 -7.844196
-28.323269 -75.727364 -7.062066
-30.333878 -69.226288 -7.490773
-12.112971 -97.165085 -13.556185
-17.250164 -94.00885 -10.651777
-23.127344 -94.934532 -17.076639
-23.600338 -91.131668 -12.587336
-22.632986 -87.638336 -13.21359
-29.205938 -83.367905 -13.599306
-35.418617 -77.063904 -14.072355
-41.503448 -71.186203 -17.279774
-40.858685 -68.201736 -13.32034
-39.559654 -69.34124 -17.831406
-36.014915 -69.878738 -16.312611
-17.397263 -99.787315 -11.711122
-25.912708 -70.008835 -4.36334
-26.98885 -82.580246 -11.41582
-25.137213 -82.88839 -9.815135
-28.658306 -80.161789 -9.842939
-29.002466 -71.632957 -13.552394
-29.035938 -75.307419 -10.021105
-29.391516 -72.288101 -10.115545
-29.11198 -72.640854 -7.123038
-30.37347 -69.368271 -10.602175
-30.685236 -66.621536 -11.085165
-15.508367 -97.892448 -15.684511
-14.474849 -96.74865 -15.057137
-14.260641 -95.561272 -12.84476
-17.349342 -95.798294 -13.320783
-23.623392 -96.737953 -16.889677
-26.430195 -94.671265 -16.648748
-28.517162 -87.87043 -16.137514
-26.337315 -89.887657 -14.051379
-25.624994 -88.525597 -14.985339
-23.310259 -89.334702 -12.673317
-24.959888 -87.153091 -15.618225
-25.051636 -85.300034 -14.783518
-28.688635 -84.570389 -15.43088
-37.683514 -78.272781 -14.698725
-35.476204 -78.891434 -13.305616
-37.450294 -76.54982 -15.825007
-37.906425 -74.774307 -16.701553
-40.205574 -73.869713 -16.57015
-39.94482 -66.942963 -11.290126
-41.440388 -63.887321 -12.485799
-42.140343 -65.533447 -14.631475
-20.30374 -82.577812 -6.931963
-18.665735 -81.48101 -8.336943
-17.222425 -78.619949 -10.967009
-32.762123 -75.962814 -13.817827
-30.323902 -76.890343 -12.074743
-32.182552 -73.474266 -15.20434
-31.928289 -70.652634 -15.628963
-32.321823 -67.844681 -15.650909
-16.736023 -97.722717 -8.711088
-16.670227 -99.086647 -10.565153
-16.623142 -98.923782 -14.607315
-17.673838 -97.727448 -16.994944
-29.07778 -91.926407 -15.552908
-32.002697 -87.506065 -16.878138
-31.622015 -85.436394 -17.092823
-32.25124 -83.473221 -15.935852
-39.118179 -77.249451 -13.713407
-23.094507 -77.128372 -5.113119
-20.249186 -78.585182 -7.098904
-21.3529 -98.743797 -11.773189
-21.28158 -87.020714 -9.713
-21.703505 -85.128448 -9.652846
-23.101377 -82.927818 -7.640488
-24.009596 -80.776825 -6.223614
-29.040537 -78.035118 -9.694643
-27.588373 -78.620331 -6.995908
-25.354664 -78.359901 -5.347938
-26.457653 -75.156448 -4.899469
-27.864328 -71.726501 -4.883954
-29.300257 -68.109398 -5.450456
-30.871744 -66.207535 -8.231599
-14.328064 -97.576378 -10.522052
-11.825134 -95.323662 -12.30165
-21.126852 -98.377792 -15.594913
-20.60672 -97.348808 -17.280415
-19.958721 -95.815155 -16.588291
-26.155117 -92.381027 -15.370386
-23.099625 -92.994225 -14.983106
-20.080639 -94.677246 -14.253458
-20.670021 -92.950851 -11.46567
-20.943142 -90.618515 -10.380877
-21.335251 -88.638657 -9.882362
-22.728012 -86.04866 -12.638262
-25.710789 -83.953796 -13.119673
-29.887915 -81.842682 -11.890389
-32.774208 -82.12104 -13.590866
-33.009686 -80.287621 -11.89514
-33.239063 -77.9767 -12.351193
-35.352535 -75.535881 -15.403116
-38.959328 -72.328995 -17.476889
-42.301701 -68.013535 -17.973495
-39.353416 -70.909897 -12.082304
-40.411457 -72.343605 -14.320379
-41.579315 -69.736458 -15.429792
-43.005207 -66.959801 -16.460081
-17.803465 -79.965652 -9.661457
-39.581803 -67.366901 -17.694163
-41.13323 -66.937397 -18.365413
-25.135506 -68.860016 -5.281945
-26.736193 -68.06723 -4.778777
-29.573203 -70.588459 -11.828362
-29.196991 -71.960529 -11.833969
-29.378677 -70.260887 -13.546786
-30.06418 -69.128544 -12.071677
-29.882493 -70.828186 -10.35886
-29.573203 -70.588459 -11.828362
-30.158847 -67.879509 -12.167272
-30.06418 -69.128544 -12.071677
-27.586758 -94.24165 -15.68204
-26.339772 -95.563469 -15.907322
-41.126688 -61.992361 -11.808995
-40.927393 -63.240219 -11.262614
-41.657359 -62.724749 -13.056961
-41.126688 -61.992361 -11.808995
-35.783057 -65.127674 -15.645018
-33.934195 -65.778786 -15.641787
-34.170685 -67.193569 -15.654139
-16.271125 -99.941708 -9.230684
-15.950797 -99.39492 -8.217058
-33.898174 -86.079376 -16.519672
-33.896333 -87.095142 -16.555765
-33.707833 -85.044541 -16.627015
-31.812356 -86.47123 -16.985481
-33.898174 -86.079376 -16.519672
-33.490232 -84.138836 -16.236922
-33.707833 -85.044541 -16.627015
-39.560154 -78.216015 -13.547951
-38.427089 -78.62973 -13.754568
-22.769425 -74.662773 -4.997329
-22.139582 -76.334412 -5.409586
-23.72435 -75.456733 -4.700862
-30.580063 -65.224867 -11.369782
-30.04307 -65.467201 -12.555273
-12.107674 -97.57082 -12.567092
-12.82838 -97.628659 -13.65716
-11.286202 -97.07518 -12.749196
-12.107674 -97.57082 -12.567092
-11.969053 -96.244373 -12.928918
-11.142284 -96.154469 -12.121928
-11.286202 -97.07518 -12.749196
-15.770333 -93.842308 -10.565383
-14.275572 -94.618519 -11.661875
-15.755403 -94.785061 -11.748269
-17.4448 -92.86251 -9.546129
-15.770333 -93.842308 -10.565383
-43.152664 -64.835137 -16.16885
-42.572775 -66.246624 -15.545778
-42.720232 -64.12196 -15.254547
-43.5818 -65.466986 -17.158486
-43.152664 -64.835137 -16.16885
-18.342843 -78.704037 -8.829087
-19.026325 -79.275417 -8.38018
-19.565704 -78.013801 -7.547811
-16.33949 -79.69212 -11.472105
-15.386693 -79.032055 -11.089495
-37.809433 -67.63565 -16.934765
-37.787284 -69.609989 -17.072009
-39.581803 -67.366901 -17.694163
-37.811749 -65.967511 -16.607145
-36.017231 -68.210598 -15.984991
-37.809433 -67.63565 -16.934765
-37.565508 -64.443985 -16.709619
-37.811749 -65.967511 -16.607145
-17.623416 -100.228584 -9.859527
-16.634643 -100.292042 -9.803669
-18.442159 -99.684288 -11.900911
-17.623416 -100.228584 -9.859527
-19.076977 -99.182198 -13.924367
-18.032081 -99.285224 -13.734578
-18.442159 -99.684288 -11.900911
-24.204976 -70.861863 -4.940167
-23.425718 -72.749992 -4.9028
-25.13345 -71.896965 -4.325972
-24.204976 -70.861863 -4.940167
-25.135506 -68.860016 -5.281945
-30.314729 -66.506142 -12.408766
-30.529353 -67.994903 -10.84367
-30.158847 -67.879509 -12.167272
-30.04307 -65.467201 -12.555273
-30.314729 -66.506142 -12.408766
-14.526079 -97.99234 -14.721323
-14.459084 -98.23687 -13.280131
-15.441372 -98.136978 -14.243319
-14.00932 -97.420441 -14.407636
-14.526079 -97.99234 -14.721323
-14.991608 -97.320549 -15.370824
-13.29391 -96.956868 -14.306661
-12.82838 -97.628659 -13.65716
-14.00932 -97.420441 -14.407636
-24.93637 -96.596813 -16.027786
-23.403523 -97.054062 -15.744003
-24.716501 -96.912922 -14.882113
-25.026794 -95.704609 -16.769213
-24.93637 -96.596813 -16.027786
-26.339772 -95.563469 -15.907322
-40.179609 -64.76804 -10.664777
-39.599711 -66.10418 -10.085276
-40.692604 -65.415142 -11.887963
-40.179609 -64.76804 -10.664777
-40.927393 -63.240219 -11.262614
-42.007336 -63.547811 -14.129799
-41.790366 -64.710384 -13.558637
-41.657359 -62.724749 -13.056961
-42.720232 -64.12196 -15.254547
-42.007336 -63.547811 -14.129799
-19.014941 -83.284367 -8.089811
-20.081913 -83.727013 -7.665256
-18.195939 -82.735965 -8.792301
-19.014941 -83.284367 -8.089811
-19.484738 -82.029411 -7.634453
-17.474246 -82.008075 -9.436525
-18.195939 -82.735965 -8.792301
-17.611713 -77.154945 -10.397806
-18.052323 -78.031185 -9.481863
-16.19211 -78.072754 -10.290861
-17.611713 -77.154945 -10.397806
-15.386693 -79.032055 -11.089495
-16.19211 -78.072754 -10.290861
-31.038356 -68.366749 -14.596044
-29.378677 -70.260887 -13.546786
-30.662145 -69.738819 -14.601651
-32.170281 -66.573014 -15.719653
-31.038356 -68.366749 -14.596044
-32.170281 -66.573014 -15.719653
-33.934195 -65.778786 -15.641787
-35.783057 -65.127674 -15.645018
-37.565508 -64.443985 -16.709619
-15.983695 -98.712955 -7.290026
-15.932284 -98.004661 -6.187754
-16.703125 -98.404682 -9.63812
-15.983695 -98.712955 -7.290026
-15.950797 -99.39492 -8.217058
-17.033745 -99.436981 -11.138137
-16.271125 -99.941708 -9.230684
-16.634643 -100.292042 -9.803669
-30.549453 -91.37851 -15.16667
-28.91055 -92.869221 -15.13412
-30.636367 -90.806362 -15.96577
-30.549453 -91.37851 -15.16667
-30.616729 -89.785404 -16.098061
-29.058142 -90.905449 -15.685199
-30.636367 -90.806362 -15.96577
-32.098826 -88.596191 -16.628385
-33.896333 -87.095142 -16.555765
-30.520601 -88.695278 -16.347814
-30.616729 -89.785404 -16.098061
-32.098826 -88.596191 -16.628385
-33.804844 -83.15725 -15.658437
-31.936628 -84.454808 -16.514337
-33.490232 -84.138836 -16.236922
-35.522049 -81.86393 -14.743835
-33.968445 -82.179901 -15.02125
-33.804844 -83.15725 -15.658437
-36.710825 -80.448296 -13.951188
-35.522049 -81.86393 -14.743835
-37.709757 -79.141395 -14.247227
-36.684582 -79.579681 -14.402686
-36.710825 -80.448296 -13.951188
-38.400847 -77.761116 -14.206066
-37.709757 -79.141395 -14.247227
-38.427089 -78.62973 -13.754568
-20.716922 -77.062816 -6.402478
-21.671847 -77.856777 -6.106012
-22.139582 -76.334412 -5.409586
-19.565704 -78.013801 -7.547811
-20.716922 -77.062816 -6.402478
-22.769425 -74.662773 -4.997329
-23.425718 -72.749992 -4.9028
-21.745584 -99.0704 -9.818528
-20.779477 -99.448547 -9.831608
-22.066208 -98.032353 -11.147022
-21.745584 -99.0704 -9.818528
-22.981586 -97.34554 -12.559592
-22.268278 -98.056984 -13.185759
-22.066208 -98.032353 -11.147022
-24.1231 -96.960243 -13.587987
-22.981586 -97.34554 -12.559592
-24.716501 -96.912922 -14.882113
-24.1231 -96.960243 -13.587987
-20.213822 -86.984005 -9.166268
-19.916843 -88.128368 -8.528443
-20.424785 -86.037872 -9.136191
-20.213822 -86.984005 -9.166268
-21.492542 -86.074581 -9.682923
-20.781796 -85.00233 -9.025698
-20.424785 -86.037872 -9.136191
-21.480731 -83.902016 -8.019519
-20.781796 -85.00233 -9.025698
-22.402441 -84.028133 -8.646667
-21.702559 -82.752815 -7.286226
-20.081913 -83.727013 -7.665256
-21.480731 -83.902016 -8.019519
-28.429967 -67.117512 -5.322335
-26.736193 -68.06723 -4.778777
-27.606482 -69.059117 -4.906898
-29.720248 -66.500439 -5.93687
-28.429967 -67.117512 -5.322335
-30.505992 -65.549507 -7.327441
-29.720248 -66.500439 -5.93687
-30.086 -67.158467 -6.841027
-30.994304 -64.689762 -8.81646
-30.505992 -65.549507 -7.327441
-30.673317 -65.017866 -9.942999
-30.77849 -66.414535 -9.658382
-30.580063 -65.224867 -11.369782
-30.994304 -64.689762 -8.81646
-30.673317 -65.017866 -9.942999
-16.439326 -96.972908 -7.743076
-15.932284 -98.004661 -6.187754
-15.235347 -96.899739 -8.648559
-16.439326 -96.972908 -7.743076
-15.532044 -97.649548 -9.61657
-13.924075 -97.045521 -9.428638
-15.235347 -96.899739 -8.648559
-13.935927 -97.834305 -12.140093
-14.851221 -97.978943 -11.66209
-14.459084 -98.23687 -13.280131
-13.215221 -97.776466 -11.050025
-13.935927 -97.834305 -12.140093
-13.924075 -97.045521 -9.428638
-13.215221 -97.776466 -11.050025
-10.891165 -95.35682 -12.029041
-11.142284 -96.154469 -12.121928
-11.826762 -94.65894 -11.248534
-10.891165 -95.35682 -12.029041
-13.057818 -94.499714 -11.39032
-13.042887 -95.442467 -12.573205
-14.275572 -94.618519 -11.661875
-11.826762 -94.65894 -11.248534
-13.057818 -94.499714 -11.39032
-20.419978 -99.162529 -11.931944
-20.779477 -99.448547 -9.831608
-20.306953 -98.979526 -13.842806
-20.419978 -99.162529 -11.931944
-21.239876 -98.560795 -13.684051
-19.896876 -98.580463 -15.676474
-19.076977 -99.182198 -13.924367
-20.306953 -98.979526 -13.842806
-27.753988 -93.298836 -16.100828
-27.586758 -94.24165 -15.68204
-28.91055 -92.869221 -15.13412
-19.291289 -91.167343 -9.410678
-17.4448 -92.86251 -9.546129
-19.096653 -92.313682 -10.516327
-19.487343 -90.177414 -9.161421
-19.291289 -91.167343 -9.410678
-21.139197 -89.628586 -10.131619
-19.943678 -88.93734 -8.613124
-19.487343 -90.177414 -9.161421
-21.308416 -87.829685 -9.797681
-19.916843 -88.128368 -8.528443
-19.943678 -88.93734 -8.613124
-42.504254 -66.273544 -18.436457
-41.13323 -66.937397 -18.365413
-40.930678 -68.677388 -17.902451
-39.404895 -77.013768 -12.729144
-39.560154 -78.216015 -13.547951
-39.243501 -75.952156 -13.222773
-39.404895 -77.013768 -12.729144
-39.394073 -75.152259 -13.928217
-39.268751 -76.449555 -14.418851
-39.243501 -75.952156 -13.222773
-39.478145 -68.463925 -10.581193
-39.599711 -66.10418 -10.085276
-39.182444 -70.447392 -10.977282
-39.478145 -68.463925 -10.581193
-39.649118 -68.92643 -11.686215
-39.305549 -72.272557 -11.337215
-39.182444 -70.447392 -10.977282
-39.36112 -72.782379 -12.407221
-39.305549 -72.272557 -11.337215
-39.890141 -73.499233 -13.526259
-39.36112 -72.782379 -12.407221
-39.882436 -71.626751 -13.201342
-39.91539 -73.996632 -14.722337
-39.394073 -75.152259 -13.928217
-39.890141 -73.499233 -13.526259
-43.230047 -65.993853 -17.915194
-42.653454 -67.486668 -17.216788
-43.5818 -65.466986 -17.158486
-42.504254 -66.273544 -18.436457
-43.230047 -65.993853 -17.915194
-17.043111 -81.250396 -10.098782
-17.474246 -82.008075 -9.436525
-18.2346 -80.723331 -8.9992
-17.512945 -79.2928 -10.314233
-18.342843 -78.704037 -8.829087
-18.052323 -78.031185 -9.481863
-16.63001 -80.364971 -10.819329
-17.512945 -79.2928 -10.314233
-16.33949 -79.69212 -11.472105
-17.043111 -81.250396 -10.098782
-16.63001 -80.364971 -10.819329
3 118 117 27
3 120 119 30
3 0 33 31
3 121 36 122
3 123 122 34
3 121 122 123
3 124 38 125
3 126 125 36
3 124 125 126
3 128 127 38
3 2 41 40
3 2 43 41
3 129 45 130
3 3 48 46
3 3 50 48
3 3 52 50
3 4 55 53
3 4 57 55
3 131 59 132
3 134 133 59
3 1 62 61
3 5 66 64
3 7 67 28
3 7 68 67
3 7 135 137
3 137 136 68
3 135 136 137
3 138 70 139
3 9 71 29
3 9 72 71
3 140 74 141
3 142 75 143
3 144 143 74
3 142 143 144
3 146 145 75
3 147 77 148
3 12 149 151
3 151 150 78
3 149 150 151
3 14 82 81
3 15 83 32
3 15 84 83
3 6 85 65
3 16 86 35
3 16 87 86
3 16 88 87
3 17 89 37
3 17 90 89
3 17 91 90
3 153 152 39
3 8 92 69
3 18 154 155
3 18 156 157
3 18 158 160
3 158 93 159
3 158 159 160
3 19 161 163
3 163 162 42
3 161 162 163
3 19 164 165
3 13 94 80
3 20 95 44
3 20 96 95
3 10 97 73
3 21 98 47
3 21 99 98
3 21 100 99
3 22 101 49
3 22 102 101
3 22 103 102
3 23 104 51
3 23 105 104
3 11 106 76
3 24 107 54
3 24 108 107
3 24 109 108
3 25 110 56
3 25 111 110
3 26 112 58
3 26 113 112
3 26 114 113
3 166 115 167
3 168 167 60
3 166 167 168
3 170 169 115
3 171 116 172
3 173 172 79
3 171 172 173
3 175 174 63
3 27 28 5
3 176 28 177
3 178 177 27
3 176 177 178
3 179 7 180
3 181 180 28
3 179 180 181
3 183 182 7
3 184 29 185
3 186 29 187
3 188 9 189
3 190 189 29
3 188 189 190
3 30 191 193
3 193 192 12
3 191 192 193
3 195 194 30
3 31 32 14
3 33 32 31
3 33 15 32
3 34 35 6
3 36 35 34
3 36 16 35
3 36 37 16
3 38 37 36
3 38 17 37
3 38 39 17
3 196 39 197
3 198 197 38
3 196 197 198
3 200 199 39
3 40 201 203
3 203 202 8
3 201 202 203
3 41 204 206
3 206 205 40
3 204 205 206
3 41 207 209
3 207 18 208
3 207 208 209
3 41 42 18
3 43 42 41
3 43 19 42
3 210 44 211
3 212 211 13
3 210 211 212
3 45 213 215
3 213 44 214
3 213 214 215
3 45 20 44
3 46 47 10
3 48 47 46
3 48 21 47
3 48 49 21
3 50 49 48
3 50 22 49
3 50 51 22
3 52 51 50
3 52 23 51
3 53 54 11
3 55 54 53
3 55 24 54
3 55 56 24
3 57 56 55
3 57 25 56
3 216 58 217
3 59 218 220
3 218 58 219
3 218 219 220
3 59 26 58
3 59 60 26
3 221 60 222
3 223 222 59
3 221 222 223
3 225 224 60
3 61 226 227
3 62 228 230
3 230 229 61
3 228 229 230
3 62 231 232
3 233 63 234
3 235 63 236
3 238 237 63
3 64 65 0
3 66 65 64
3 66 6 65
3 28 66 5
3 67 66 28
3 67 6 66
3 67 34 6
3 68 34 67
3 68 239 241
3 241 240 34
3 239 240 241
3 68 242 243
3 245 244 68
3 247 246 7
3 248 69 249
3 70 250 252
3 250 69 251
3 250 251 252
3 70 8 69
3 29 253 255
3 253 70 254
3 253 254 255
3 71 70 29
3 71 8 70
3 71 40 8
3 72 40 71
3 72 2 40
3 256 73 257
3 258 73 259
3 260 10 261
3 262 261 73
3 260 261 262
3 74 263 264
3 74 265 267
3 265 10 266
3 265 266 267
3 74 46 10
3 75 46 74
3 75 3 46
3 75 76 3
3 268 76 269
3 270 269 75
3 268 269 270
3 271 11 272
3 273 272 76
3 271 272 273
3 274 11 275
3 276 53 277
3 278 277 11
3 276 277 278
3 77 279 281
3 279 53 280
3 279 280 281
3 77 4 53
3 78 79 1
3 282 79 283
3 284 283 78
3 282 283 284
3 286 285 79
3 288 287 12
3 289 80 290
3 291 80 292
3 293 13 294
3 295 294 80
3 293 294 295
3 296 13 297
3 299 298 13
3 81 300 301
3 82 302 304
3 304 303 81
3 302 303 304
3 82 305 306
3 32 82 14
3 83 82 32
3 83 307 309
3 309 308 82
3 307 308 309
3 83 310 312
3 310 61 311
3 310 311 312
3 84 61 83
3 84 1 61
3 65 33 0
3 85 33 65
3 85 15 33
3 35 85 6
3 86 85 35
3 86 15 85
3 86 84 15
3 87 84 86
3 87 1 84
3 87 78 1
3 88 78 87
3 88 12 78
3 37 88 16
3 89 88 37
3 89 12 88
3 89 30 12
3 90 30 89
3 90 313 315
3 315 314 30
3 313 314 315
3 90 316 317
3 91 318 320
3 320 319 90
3 318 319 320
3 91 321 322
3 39 91 17
3 323 91 324
3 325 324 39
3 323 324 325
3 327 326 91
3 69 328 329
3 92 330 332
3 332 331 69
3 330 331 332
3 92 333 334
3 335 92 336
3 337 336 8
3 335 336 337
3 338 92 339
3 341 340 92
3 93 342 343
3 93 344 345
3 42 93 18
3 346 93 347
3 348 347 42
3 346 347 348
3 350 349 93
3 80 351 352
3 94 353 355
3 355 354 80
3 353 354 355
3 94 356 358
3 356 9 357
3 356 357 358
3 44 94 13
3 95 94 44
3 95 9 94
3 95 72 9
3 96 72 95
3 96 2 72
3 73 359 361
3 359 45 360
3 359 360 361
3 97 45 73
3 97 20 45
3 47 97 10
3 98 97 47
3 98 20 97
3 98 96 20
3 99 96 98
3 99 2 96
3 99 43 2
3 100 43 99
3 100 19 43
3 49 100 21
3 101 100 49
3 101 19 100
3 101 362 364
3 364 363 19
3 362 363 364
3 102 365 367
3 367 366 101
3 365 366 367
3 102 368 369
3 102 370 372
3 370 81 371
3 370 371 372
3 103 81 102
3 103 14 81
3 51 103 22
3 104 103 51
3 104 14 103
3 104 31 14
3 105 31 104
3 105 0 31
3 76 52 3
3 106 52 76
3 106 23 52
3 54 106 11
3 107 106 54
3 107 23 106
3 107 105 23
3 108 105 107
3 108 0 105
3 108 64 0
3 109 64 108
3 109 5 64
3 56 109 24
3 110 109 56
3 110 5 109
3 110 27 5
3 111 27 110
3 111 373 375
3 375 374 27
3 373 374 375
3 376 77 377
3 378 77 379
3 380 4 381
3 382 381 77
3 380 381 382
3 58 383 384
3 112 385 387
3 387 386 58
3 385 386 387
3 112 388 389
3 112 390 391
3 113 392 394
3 394 393 112
3 392 393 394
3 113 395 397
3 395 4 396
3 395 396 397
3 113 57 4
3 114 57 113
3 114 25 57
3 60 114 26
3 115 114 60
3 115 25 114
3 115 111 25
3 398 111 399
3 400 399 115
3 398 399 400
3 402 401 111
3 79 62 1
3 116 62 79
3 116 403 405
3 405 404 62
3 403 404 405
3 63 406 408
3 406 116 407
3 406 407 408
3 409 116 410
3 411 410 63
3 409 410 411
3 413 412 116
