ply
format ascii 1.0
element vertex 634
property float x
property float y
property float z
element face 629
property list uchar int vertex_index
end_header
-44.391331 -75.948067 14.787341
-36.244152 -83.423508 26.565063
-41.55114 -70.408524 11.812872
-34.030117 -78.1698 39.271351
-42.192223 -79.216553 21.258133
-40.906799 -81.081581 6.551746
-47.905766 -74.393044 6.766906
-32.745697 -78.63237 16.681274
-36.325352 -86.945312 14.733853
-35.628986 -81.779884 9.830777
-26.981588 -85.701653 1.690971
-43.003609 -78.073837 9.897253
-46.716179 -79.603149 7.211955
-47.820488 -75.82695 11.157013
-34.010368 -81.021683 33.153503
-32.344368 -81.130783 29.047113
-33.108986 -77.148422 23.882992
-34.794628 -81.837875 22.318356
-35.099525 -82.914536 16.274273
-37.132698 -84.922325 20.846828
-43.232704 -77.325745 18.144733
-39.844559 -81.981094 15.438312
-39.273266 -78.098221 12.91378
-37.058311 -78.884262 7.72582
-26.213434 -96.249008 10.943656
-23.147028 -91.396057 1.182851
-42.469261 -73.556679 18.175831
-40.983456 -70.219666 16.992697
-41.062561 -67.113388 15.08163
-37.5397 -77.525406 29.096384
-39.146606 -81.540749 23.883028
-39.930485 -75.485855 26.06513
-41.077732 -74.437294 22.391083
-28.378424 -90.887024 13.00605
-31.326412 -73.238838 19.361403
-29.476543 -81.637207 12.415277
-31.469894 -86.298813 12.308125
-32.860138 -89.883377 11.471244
-39.963531 -84.153183 17.562622
-36.679192 -86.260674 11.18123
-31.569885 -86.726303 8.277861
-30.784668 -82.627899 5.544107
-43.554729 -76.601326 11.964562
-45.810562 -77.675133 10.882826
-46.185596 -75.96698 12.766972
-35.003544 -82.399612 29.864277
-32.674519 -82.128197 31.606625
-34.175671 -83.128738 28.027243
-33.987812 -81.76767 25.774548
-35.250286 -83.385231 24.828146
-36.100834 -83.591209 21.936752
-36.840336 -84.142349 23.784414
-43.394207 -76.591873 16.31493
-41.230255 -78.26693 15.553227
-41.548126 -76.829544 13.460185
-40.450859 -77.245308 10.815325
-27.827799 -95.050888 10.199286
-41.235027 -71.839378 20.366032
-41.469299 -72.119537 17.388226
-41.455547 -70.11216 19.63106
-42.144989 -67.723602 17.490808
-39.965797 -75.758553 30.135202
-38.99881 -76.015602 27.675364
-41.411846 -74.742104 28.50824
-42.206318 -72.835815 24.671902
-41.62656 -72.132713 22.685278
-41.796673 -74.040039 20.330166
-39.494545 -82.535423 4.318062
-40.808582 -84.233253 3.418978
-48.375557 -76.956757 7.042806
-46.953209 -79.370201 5.134428
-43.641891 -76.146187 4.443583
-31.64179 -77.339066 33.688637
-32.997108 -77.892822 20.207226
-32.359619 -75.232597 21.321705
-31.465551 -76.29203 17.693708
-30.384119 -77.863968 14.596222
-28.535297 -79.710541 12.779418
-31.576715 -79.686203 14.057875
-35.577152 -85.063858 15.864471
-33.290943 -84.107643 13.847231
-34.06094 -86.52343 13.461655
-34.692516 -88.612686 12.667265
-41.029659 -80.337204 22.759123
-39.885937 -83.003868 20.963718
-41.592781 -81.849106 19.476976
-37.736378 -82.139992 12.342296
-38.173988 -83.980179 13.035269
-36.077133 -84.232368 10.222959
-34.224255 -86.291084 8.936568
-33.631409 -83.98439 8.146287
-30.862347 -84.661903 6.842528
-33.442059 -81.860794 7.723923
-38.931648 -79.69413 6.802983
-35.588371 -79.929054 5.423203
-37.545933 -81.057053 4.690066
-35.855228 -82.951263 2.476751
-25.421156 -91.204491 -0.40129
-27.117228 -88.207504 -0.392646
-29.25915 -85.294823 -0.289163
-43.899151 -69.725296 20.505863
-44.111263 -74.096367 28.061901
-42.346382 -79.824478 8.170398
-45.265064 -79.29509 9.060328
-47.712624 -77.546532 9.264761
-49.053959 -74.859291 9.139066
-41.036068 -67.989609 11.36039
-33.977318 -79.723892 36.181152
-32.260296 -80.796089 35.066231
-31.550003 -80.20372 32.781467
-31.780224 -78.346497 29.82456
-31.848774 -76.22892 27.337864
-32.800049 -79.203934 26.634907
-34.02079 -79.692238 23.249866
-34.065086 -80.081924 19.594387
-34.290638 -80.60154 16.537731
-35.422424 -81.950829 19.545481
-36.377083 -84.197655 18.877707
-37.409454 -85.502975 17.743389
-43.055061 -78.088791 19.710966
-42.368755 -80.57814 18.174614
-42.015274 -79.64521 16.955349
-39.383717 -80.263901 14.36528
-37.274788 -79.671379 11.770475
-35.640099 -79.652061 9.080049
-37.942253 -78.011665 10.207409
-39.936081 -78.382278 8.573503
-22.224125 -94.538498 1.039703
-44.351261 -74.724869 17.030958
-45.703941 -74.806831 15.044485
-43.68499 -73.417885 15.785772
-42.223797 -72.17202 14.580203
-40.988525 -70.456955 14.188457
-41.97953 -68.85891 18.599817
-40.816147 -68.577042 16.271738
-40.573341 -68.424751 13.549212
-41.063145 -66.524216 12.617745
-35.772205 -78.8162 33.696556
-35.90522 -79.811684 30.994205
-36.977928 -81.159027 27.760614
-37.847862 -82.722588 25.270823
-38.15815 -79.257721 26.229229
-39.529747 -78.316689 24.747156
-40.619881 -77.555069 23.682192
-42.318787 -74.003395 26.538548
-40.451942 -74.738312 24.396168
-41.483498 -76.760155 22.167627
-42.577629 -76.044266 20.439447
-43.172302 -75.404076 18.719135
-27.656254 -93.955322 12.54504
-29.392277 -92.5569 11.772093
-39.457809 -85.515289 1.156855
-45.289989 -81.786201 5.440686
-46.816898 -74.460419 12.447908
-47.502808 -73.76857 10.305923
-47.72945 -72.620995 8.233498
-31.89747 -74.20224 25.012655
-26.384766 -82.030426 12.370165
-27.46487 -83.982346 12.07187
-32.53952 -81.762894 14.068149
-30.4767 -83.725494 12.131093
-28.606085 -86.362686 12.401097
-29.610056 -88.755203 12.705336
-30.655081 -90.462631 12.357945
-31.014166 -91.093246 10.426515
-38.252869 -84.158615 22.648504
-38.679012 -85.027229 19.504812
-38.49398 -85.977699 16.09878
-40.251492 -83.199448 16.256222
-38.63493 -85.285416 14.476667
-36.896065 -87.584702 12.841093
-34.771141 -88.406181 10.523343
-32.411201 -88.842636 9.517385
-29.994167 -89.880363 8.990907
-28.777613 -87.710953 7.688123
-28.50304 -83.93779 3.497655
-33.906246 -80.151031 6.530401
-31.822794 -81.549881 4.28891
-24.281437 -94.460861 -0.732307
-27.081542 -94.39233 9.177446
-28.548947 -94.008347 9.936974
-42.399111 -70.285454 20.901854
-41.345287 -70.975769 19.998546
-42.288851 -71.149063 21.26934
-41.115784 -75.360882 30.197983
-39.97093 -75.903485 31.054809
-41.838808 -74.852657 29.384501
-40.688822 -75.250328 29.321721
-41.115784 -75.360882 30.197983
-42.484617 -71.29573 22.428964
-43.014431 -71.856296 23.366168
-42.288851 -71.149063 21.26934
-41.430794 -71.986045 21.525655
-42.484617 -71.29573 22.428964
-41.633396 -82.010841 5.990822
-40.927269 -82.737763 4.87398
-40.200672 -81.808502 5.434904
-47.323092 -75.509968 6.103566
-47.557987 -76.791824 6.241516
-48.140662 -75.674901 6.904856
-46.469389 -74.224671 6.216734
-47.323092 -75.509968 6.103566
-42.650387 -71.138123 11.085228
-42.165375 -71.365891 12.063097
-33.319269 -77.334457 40.43282
-34.229654 -76.892452 40.914442
-31.831252 -75.542752 34.73139
-31.608653 -76.17511 32.613618
-27.049408 -86.954578 0.649162
-25.956685 -88.355541 0.672649
-25.888864 -87.102615 1.714457
-41.935205 -66.632217 10.250637
-41.610996 -67.677811 10.539091
-41.360277 -66.944016 11.071936
-24.905439 -96.41095 10.240334
-24.043257 -96.792946 10.929562
-25.351252 -96.631004 11.632884
-42.984696 -68.666809 18.975636
-42.939341 -69.292103 19.55284
-43.944506 -69.100003 19.928659
-36.692003 -77.812828 33.73522
-35.687376 -78.320453 35.028067
-36.72246 -78.668545 30.045295
-36.863703 -78.560231 31.341501
-37.680943 -77.417091 30.392591
-43.520719 -73.481251 26.181284
-43.215025 -74.049881 27.300224
-44.416957 -73.527737 26.94296
-28.017339 -92.421173 12.775545
-26.916127 -92.871368 12.951576
-27.277211 -91.33722 13.18208
-38.750332 -84.787193 1.68358
-38.132036 -85.278771 0.600936
-41.426857 -84.542664 2.614087
-42.153772 -83.875965 3.725449
-46.003084 -80.694675 6.32632
-44.633207 -81.539096 6.329208
-45.346302 -80.44757 7.214842
-46.159941 -80.367847 4.393195
-46.054688 -79.03812 4.456637
-42.193918 -75.403854 3.668965
-42.675035 -74.786175 4.625056
-45.720331 -73.942329 12.985485
-46.260419 -74.633625 13.746196
-45.163853 -74.115535 14.283773
-46.742161 -72.974972 9.859974
-46.446814 -73.524369 10.734883
-46.855482 -72.401184 8.823762
-47.616129 -73.194783 9.269711
-46.742161 -72.974972 9.859974
-31.443703 -72.669128 21.164886
-31.960307 -73.666008 22.145037
-31.843015 -74.235717 20.341554
-30.875549 -71.675903 20.491636
-31.443703 -72.669128 21.164886
-30.434114 -72.587349 19.011927
-30.875549 -71.675903 20.491636
-31.75761 -90.173004 11.914594
-31.512212 -89.550972 12.442308
-32.61474 -89.261345 11.998957
-29.371019 -84.085262 5.674771
-29.409859 -85.102264 6.323982
-30.823507 -83.644901 6.193318
-29.643854 -83.282845 4.520881
-28.230205 -84.740207 4.651545
-29.371019 -84.085262 5.674771
-32.715033 -81.76532 3.792413
-33.705582 -80.739467 4.856056
-34.597822 -80.954906 4.359559
-31.021771 -82.484364 3.045034
-32.715033 -81.76532 3.792413
-35.297554 -83.692615 1.441176
-36.949041 -83.50518 2.343528
-26.279742 -92.657483 -1.056379
-26.851254 -91.166672 -1.031575
-26.41801 -95.084236 9.246814
-25.610827 -95.683296 9.618999
-27.020616 -95.649948 10.571471
-26.41801 -95.084236 9.246814
-27.081542 -94.39233 9.177446
-42.667412 -67.270309 17.991284
-43.067425 -68.099155 18.421131
-42.138796 -67.127426 16.846034
-42.667412 -67.270309 17.991284
-41.597582 -66.822319 15.641445
-41.603775 -67.418495 16.286219
-42.138796 -67.127426 16.846034
-41.344929 -66.40131 14.474055
-41.597582 -66.822319 15.641445
-38.893991 -76.533665 30.912
-39.97093 -75.903485 31.054809
-38.752749 -76.64198 29.615793
-37.680943 -77.417091 30.392591
-38.893991 -76.533665 30.912
-43.30431 -72.207847 24.35948
-43.464485 -72.89746 25.247961
-41.916439 -72.484264 23.67859
-43.30431 -72.207847 24.35948
-43.014431 -71.856296 23.366168
-27.596168 -89.873596 13.141868
-27.277211 -91.33722 13.18208
-40.151564 -83.384338 3.86852
-39.425718 -84.146175 2.814642
-38.768699 -83.29726 3.264184
-41.584288 -83.586678 4.424437
-40.151564 -83.384338 3.86852
-40.927269 -82.737763 4.87398
-42.153772 -83.875965 3.725449
-41.584288 -83.586678 4.424437
-46.846813 -77.998547 5.287327
-47.664383 -78.163479 6.088617
-47.557987 -76.791824 6.241516
-46.054688 -79.03812 4.456637
-46.846813 -77.998547 5.287327
-45.191154 -76.386539 4.941904
-44.399029 -77.426113 4.111214
-44.337452 -75.101242 5.055072
-45.191154 -76.386539 4.941904
-42.675035 -74.786175 4.625056
-44.337452 -75.101242 5.055072
-31.740792 -76.385231 35.664762
-31.661827 -78.144836 34.911024
-31.740792 -76.385231 35.664762
-31.831252 -75.542752 34.73139
-30.598494 -75.679009 16.956854
-30.528924 -74.152412 17.790702
-31.395982 -74.765434 18.527555
-30.057778 -76.464978 15.408112
-30.598494 -75.679009 16.956854
-30.924835 -77.077999 16.144965
-29.084833 -77.672802 14.359915
-30.057778 -76.464978 15.408112
-29.459708 -78.787255 13.68782
-28.160422 -78.596089 13.451514
-29.084833 -77.672802 14.359915
-33.215142 -87.581372 12.994162
-31.919618 -87.469063 12.417397
-32.765417 -86.411122 12.88489
-33.530929 -88.626 12.596967
-33.215142 -87.581372 12.994162
-34.376728 -87.568058 13.06446
-33.776327 -89.248031 12.069254
-32.61474 -89.261345 11.998957
-33.530929 -88.626 12.596967
-35.576603 -81.518906 3.992991
-34.597822 -80.954906 4.359559
-36.567152 -80.493054 5.056634
-36.700581 -82.004158 3.583408
-34.731251 -82.466011 2.886334
-35.576603 -81.518906 3.992991
-38.768699 -83.29726 3.264184
-36.949041 -83.50518 2.343528
-37.674886 -82.743343 3.397407
-25.108649 -89.854035 0.668327
-24.284092 -91.300274 0.390781
-23.971584 -89.949817 1.460398
-26.269192 -89.705997 -0.396968
-25.108649 -89.854035 0.668327
-25.956685 -88.355541 0.672649
-27.699291 -89.668179 -1.027254
-26.851254 -91.166672 -1.031575
-26.269192 -89.705997 -0.396968
-28.333858 -88.159817 -1.128213
-27.699291 -89.668179 -1.027254
-29.404819 -86.703476 -1.076472
-28.333858 -88.159817 -1.128213
-28.188189 -86.751163 -0.340904
-30.395889 -85.402088 -0.796752
-29.404819 -86.703476 -1.076472
-44.949478 -70.111962 21.660167
-43.620913 -70.092022 21.339256
-44.572035 -69.302155 21.049348
-44.949478 -70.111962 21.660167
-43.944506 -69.100003 19.928659
-44.572035 -69.302155 21.049348
-44.167799 -73.923038 29.0934
-43.188517 -74.529789 29.161332
-45.052374 -73.343593 27.699871
-44.167799 -73.923038 29.0934
-44.416957 -73.527737 26.94296
-45.052374 -73.343593 27.699871
-43.161403 -80.558235 7.694064
-42.441612 -81.186786 6.884738
-41.62659 -80.453029 7.361072
-44.620745 -80.293541 8.139029
-43.161403 -80.558235 7.694064
-43.805723 -79.559784 8.615363
-45.990622 -79.449119 8.136142
-45.346302 -80.44757 7.214842
-44.620745 -80.293541 8.139029
-41.768825 -68.81577 10.694163
-42.026361 -70.025227 10.920403
-41.293604 -69.199067 11.586631
-41.768825 -68.81577 10.694163
-41.610996 -67.677811 10.539091
-33.219784 -79.42416 37.171695
-33.246184 -78.647114 38.716795
-34.003717 -78.946846 37.726252
-32.361273 -79.960258 36.614235
-33.219784 -79.42416 37.171695
-33.118807 -80.259991 35.623691
-31.97108 -79.873348 35.599821
-32.361273 -79.960258 36.614235
-31.615934 -79.577164 34.457439
-31.97108 -79.873348 35.599821
-31.90515 -80.499904 33.923849
-31.595897 -78.771393 33.235052
-31.661827 -78.144836 34.911024
-31.615934 -79.577164 34.457439
-31.67787 -76.678826 30.68158
-31.608653 -76.17511 32.613618
-31.711007 -77.842782 31.756599
-31.814499 -77.287709 28.581212
-31.712145 -75.620037 29.438232
-31.67787 -76.678826 30.68158
-24.905439 -96.41095 10.240334
-25.610827 -95.683296 9.618999
-21.46135 -94.925659 2.124977
-22.020848 -95.964264 1.187002
-22.110174 -93.565494 2.44572
-21.46135 -94.925659 2.124977
-22.571625 -91.994274 2.517294
-22.685576 -92.967277 1.111277
-22.110174 -93.565494 2.44572
-23.438682 -90.492134 2.724981
-22.571625 -91.994274 2.517294
-23.971584 -89.949817 1.460398
-23.438682 -90.492134 2.724981
-26.369222 -86.264634 2.933019
-25.888864 -87.102615 1.714457
-44.154377 -73.421063 14.654416
-45.163853 -74.115535 14.283773
-44.694465 -74.112358 15.415128
-43.42378 -72.79813 14.051632
-44.154377 -73.421063 14.654416
-42.954393 -72.794952 15.182987
-42.501703 -72.247638 13.446762
-43.42378 -72.79813 14.051632
-41.884068 -71.390106 13.250889
-42.501703 -72.247638 13.446762
-41.606161 -71.314487 14.38433
-41.269832 -70.432739 13.000664
-42.165375 -71.365891 12.063097
-41.884068 -71.390106 13.250889
-42.677349 -69.918728 20.068462
-42.399111 -70.285454 20.901854
-43.620913 -70.092022 21.339256
-42.062259 -68.291256 18.045313
-42.984696 -68.666809 18.975636
-43.067425 -68.099155 18.421131
-41.373815 -66.211319 11.700614
-41.360277 -66.944016 11.071936
-41.049606 -67.256912 11.989068
-41.34522 -66.106724 13.242112
-41.062853 -66.818802 13.849687
-41.344929 -66.40131 14.474055
-41.518497 -65.750431 12.18278
-41.34522 -66.106724 13.242112
-41.373815 -66.211319 11.700614
-41.518497 -65.750431 12.18278
-34.778042 -77.221325 39.356499
-34.229654 -76.892452 40.914442
-34.816332 -77.997253 37.815464
-34.778042 -77.221325 39.356499
-34.789932 -78.7743 36.270364
-34.003717 -78.946846 37.726252
-34.816332 -77.997253 37.815464
-34.874761 -79.270046 34.938854
-34.789932 -78.7743 36.270364
-35.687376 -78.320453 35.028067
-36.797196 -78.062489 32.692677
-36.692003 -77.812828 33.73522
-35.838712 -79.313942 32.345381
-36.797196 -78.062489 32.692677
-36.863703 -78.560231 31.341501
-42.761555 -74.419235 28.28507
-41.838808 -74.852657 29.384501
-43.188517 -74.529789 29.161332
-42.262552 -73.419605 25.605225
-43.520719 -73.481251 26.181284
-43.464485 -72.89746 25.247961
-25.823296 -95.4315 12.039967
-25.351252 -96.631004 11.632884
-24.961113 -95.813496 12.729195
-26.544705 -94.284656 12.84066
-26.916127 -92.871368 12.951576
-26.934844 -95.102165 11.744348
-25.823296 -95.4315 12.039967
-26.544705 -94.284656 12.84066
-29.331187 -92.761353 10.723377
-28.548947 -94.008347 9.936974
-28.610038 -93.803894 10.985689
-39.214851 -85.778488 0.085515
-38.132036 -85.278771 0.600936
-40.400227 -85.475865 0.42136
-39.214851 -85.778488 0.085515
-40.133195 -84.874271 2.287917
-38.750332 -84.787193 1.68358
-39.425718 -84.146175 2.814642
-40.75147 -85.183682 1.483026
-40.133195 -84.874271 2.287917
-41.426857 -84.542664 2.614087
-40.400227 -85.475865 0.42136
-40.75147 -85.183682 1.483026
-41.633396 -82.010841 5.990822
-42.441612 -81.186786 6.884738
-43.824991 -82.363152 5.435291
-44.633207 -81.539096 6.329208
-44.394475 -82.652439 4.736303
-43.824991 -82.363152 5.435291
-45.328331 -81.575848 4.546324
-46.121599 -80.578201 5.287557
-46.159941 -80.367847 4.393195
-44.394475 -82.652439 4.736303
-45.328331 -81.575848 4.546324
-43.009983 -76.710465 3.539453
-44.399029 -77.426113 4.111214
-43.009983 -76.710465 3.539453
-42.193918 -75.403854 3.668965
-46.103859 -73.870293 11.805875
-45.720331 -73.942329 12.985485
-47.159853 -74.114495 11.376915
-46.103859 -73.870293 11.805875
-46.446814 -73.524369 10.734883
-42.650387 -71.138123 11.085228
-42.026361 -70.025227 10.920403
-46.778667 -71.829396 7.84006
-46.855482 -72.401184 8.823762
-46.697546 -72.473412 7.199613
-46.778667 -71.829396 7.84006
-46.785704 -73.359437 6.466317
-47.817608 -73.507019 7.500202
-46.697546 -72.473412 7.199613
-46.469389 -74.224671 6.216734
-46.785704 -73.359437 6.466317
-33.319269 -77.334457 40.43282
-33.246184 -78.647114 38.716795
-31.514032 -74.508206 28.396028
-31.712145 -75.620037 29.438232
-31.53838 -73.494866 27.233424
-31.514032 -74.508206 28.396028
-31.873122 -75.21558 26.175259
-31.292381 -72.518334 26.172552
-31.53838 -73.494866 27.233424
-31.729232 -73.15083 23.990512
-32.128545 -74.717419 23.16718
-31.960307 -73.666008 22.145037
-31.292381 -72.518334 26.172552
-31.729232 -73.15083 23.990512
-30.434114 -72.587349 19.011927
-30.528924 -74.152412 17.790702
-27.097442 -79.778386 12.976558
-28.160422 -78.596089 13.451514
-26.022176 -80.938328 12.771932
-27.097442 -79.778386 12.976558
-27.460031 -80.870484 12.574791
-24.967368 -82.324348 12.737158
-26.022176 -80.938328 12.771932
-25.441025 -83.421608 12.521601
-24.967368 -82.324348 12.737158
-25.981077 -84.397568 12.372454
-25.441025 -83.421608 12.521601
-26.924818 -83.006386 12.221018
-26.55567 -85.4184 12.601393
-25.981077 -84.397568 12.372454
-27.126277 -86.60857 12.766006
-26.55567 -85.4184 12.601393
-28.035477 -85.172516 12.236484
-27.709999 -87.611427 12.839391
-27.126277 -86.60857 12.766006
-28.211984 -88.807685 12.991511
-27.709999 -87.611427 12.839391
-29.108071 -87.558944 12.553217
-28.99424 -89.821113 12.855693
-27.596168 -89.873596 13.141868
-28.211984 -88.807685 12.991511
-30.9897 -88.697258 12.616003
-30.539975 -87.527008 12.50673
-31.919618 -87.469063 12.417397
-30.132568 -89.608917 12.531641
-30.9897 -88.697258 12.616003
-31.512212 -89.550972 12.442308
-30.142131 -92.029526 10.050588
-29.331187 -92.761353 10.723377
-30.203221 -91.825073 11.099304
-29.632131 -91.423084 9.332784
-30.142131 -92.029526 10.050588
-30.504167 -90.486805 9.708711
-28.795614 -90.518875 8.51297
-29.632131 -91.423084 9.332784
-28.187337 -89.43417 7.861579
-28.795614 -90.518875 8.51297
-29.38589 -88.795658 8.339515
-27.46493 -88.29023 7.171081
-28.187337 -89.43417 7.861579
-28.367492 -86.626789 6.746779
-29.81998 -86.186428 7.265325
-29.409859 -85.102264 6.323982
-27.46493 -88.29023 7.171081
-28.367492 -86.626789 6.746779
-27.129948 -85.382702 3.836361
-28.230205 -84.740207 4.651545
-27.742314 -84.819721 2.594313
-26.369222 -86.264634 2.933019
-27.129948 -85.382702 3.836361
-29.361894 -83.678318 2.649407
-30.162917 -82.743836 3.893282
-31.021771 -82.484364 3.045034
-28.601168 -84.560249 1.746065
-27.742314 -84.819721 2.594313
-29.361894 -83.678318 2.649407
-29.73995 -84.356834 0.755998
-28.120369 -85.498238 0.700904
-28.601168 -84.560249 1.746065
-30.9403 -84.533569 0.390954
-29.73995 -84.356834 0.755998
-30.395889 -85.402088 -0.796752
-30.9403 -84.533569 0.390954
-34.238338 -83.36179 1.773912
-34.731251 -82.466011 2.886334
-34.238338 -83.36179 1.773912
-35.297554 -83.692615 1.441176
-22.882679 -95.806137 0.351357
-22.020848 -95.964264 1.187002
-23.911335 -95.767318 -0.534648
-22.882679 -95.806137 0.351357
-23.252781 -94.499679 0.153698
-24.826259 -95.534259 -1.302636
-23.911335 -95.767318 -0.534648
-25.709882 -94.285667 -1.221887
-24.851297 -92.832676 -0.566798
-26.279742 -92.657483 -1.056379
-24.826259 -95.534259 -1.302636
-25.709882 -94.285667 -1.221887
3 0 44 42
3 1 47 45
3 1 49 47
3 1 51 49
3 0 54 52
3 0 42 54
3 180 179 56
3 181 59 182
3 183 182 57
3 181 182 183
3 184 61 185
3 186 63 187
3 188 187 61
3 186 187 188
3 189 65 190
3 191 57 192
3 193 192 65
3 191 192 193
3 5 194 196
3 196 195 67
3 194 195 196
3 6 197 199
3 199 198 69
3 197 198 199
3 6 200 201
3 2 202 203
3 3 204 205
3 207 206 72
3 7 75 73
3 7 76 75
3 7 78 76
3 8 81 79
3 8 82 81
3 4 85 83
3 9 88 86
3 9 90 88
3 9 92 90
3 5 95 93
3 5 67 95
3 10 208 210
3 208 98 209
3 208 209 210
3 10 99 98
3 11 103 102
3 13 104 43
3 13 105 104
3 213 212 106
3 211 212 213
3 14 108 107
3 15 109 46
3 15 110 109
3 15 112 110
3 17 113 48
3 17 114 113
3 17 116 114
3 19 117 50
3 19 118 117
3 20 121 119
3 22 122 53
3 22 123 122
3 22 125 123
3 11 126 55
3 11 102 126
3 24 214 216
3 214 215 216
3 26 130 128
3 27 131 58
3 27 132 131
3 217 133 218
3 219 218 100
3 217 218 219
3 28 134 60
3 28 135 134
3 28 136 135
3 220 137 221
3 29 222 224
3 222 138 223
3 222 223 224
3 29 139 138
3 29 141 139
3 31 142 62
3 31 143 142
3 225 144 226
3 227 226 101
3 225 226 227
3 32 145 64
3 32 146 145
3 32 147 146
3 26 148 66
3 26 128 148
3 33 228 230
3 228 149 229
3 228 229 230
3 33 150 149
3 231 151 232
3 234 233 68
3 12 235 237
3 235 152 236
3 235 236 237
3 239 238 70
3 241 240 71
3 242 153 243
3 244 243 129
3 242 243 244
3 245 154 246
3 247 155 248
3 249 248 154
3 247 248 249
3 16 156 111
3 34 250 252
3 252 251 74
3 250 251 252
3 34 253 254
3 34 255 256
3 35 157 77
3 35 158 157
3 18 159 115
3 36 160 80
3 36 161 160
3 36 162 161
3 37 257 259
3 257 163 258
3 257 258 259
3 37 164 163
3 30 165 140
3 38 166 84
3 38 167 166
3 21 168 120
3 39 169 87
3 39 170 169
3 39 171 170
3 40 172 89
3 40 173 172
3 40 174 173
3 41 260 262
3 262 261 91
3 260 261 262
3 41 263 265
3 263 175 264
3 263 264 265
3 23 176 124
3 266 177 267
3 268 267 94
3 266 267 268
3 270 269 177
3 272 271 96
3 25 178 127
3 274 273 97
3 42 43 11
3 44 43 42
3 44 13 43
3 45 46 14
3 47 46 45
3 47 15 46
3 47 48 15
3 49 48 47
3 49 17 48
3 49 50 17
3 51 50 49
3 51 19 50
3 52 53 20
3 54 53 52
3 54 22 53
3 54 55 22
3 42 55 54
3 42 11 55
3 56 275 277
3 277 276 24
3 275 276 277
3 279 278 56
3 57 58 26
3 59 58 57
3 59 27 58
3 280 60 281
3 282 60 283
3 284 28 285
3 286 285 60
3 284 285 286
3 288 287 28
3 61 289 290
3 61 291 293
3 291 29 292
3 291 292 293
3 61 62 29
3 63 62 61
3 63 31 62
3 294 64 295
3 65 296 298
3 296 64 297
3 296 297 298
3 65 32 64
3 65 66 32
3 57 66 65
3 57 26 66
3 299 33 300
3 67 301 303
3 301 68 302
3 301 302 303
3 304 68 305
3 306 305 67
3 304 305 306
3 308 307 68
3 69 70 12
3 309 70 310
3 311 310 69
3 309 310 311
3 313 312 70
3 314 71 315
3 316 71 317
3 319 318 71
3 72 320 321
3 323 322 72
3 73 74 16
3 75 74 73
3 75 34 74
3 75 324 326
3 326 325 34
3 324 325 326
3 76 327 329
3 329 328 75
3 327 328 329
3 76 330 331
3 76 332 334
3 332 77 333
3 332 333 334
3 78 77 76
3 78 35 77
3 79 80 18
3 81 80 79
3 81 36 80
3 81 335 337
3 337 336 36
3 335 336 337
3 82 338 340
3 340 339 81
3 338 339 340
3 82 341 343
3 341 37 342
3 341 342 343
3 83 84 30
3 85 84 83
3 85 38 84
3 86 87 21
3 88 87 86
3 88 39 87
3 88 89 39
3 90 89 88
3 90 40 89
3 90 91 40
3 92 91 90
3 92 41 91
3 93 94 23
3 95 94 93
3 95 344 346
3 346 345 94
3 344 345 346
3 95 347 349
3 347 96 348
3 347 348 349
3 67 96 95
3 67 350 352
3 352 351 96
3 350 351 352
3 353 97 354
3 355 354 25
3 353 354 355
3 98 356 358
3 356 97 357
3 356 357 358
3 98 359 361
3 361 360 97
3 359 360 361
3 98 362 363
3 99 364 366
3 366 365 98
3 364 365 366
3 99 367 368
3 369 100 370
3 371 100 372
3 374 373 100
3 375 101 376
3 377 101 378
3 380 379 101
3 102 381 383
3 383 382 5
3 381 382 383
3 103 384 386
3 386 385 102
3 384 385 386
3 103 387 389
3 387 12 388
3 387 388 389
3 43 103 11
3 104 103 43
3 104 12 103
3 104 69 12
3 105 69 104
3 105 6 69
3 106 390 392
3 392 391 2
3 390 391 392
3 394 393 106
3 107 395 397
3 397 396 3
3 395 396 397
3 108 398 400
3 400 399 107
3 398 399 400
3 108 401 402
3 46 108 14
3 109 108 46
3 109 403 405
3 405 404 108
3 403 404 405
3 109 406 408
3 406 72 407
3 406 407 408
3 110 72 109
3 110 409 411
3 411 410 72
3 409 410 411
3 110 412 414
3 412 111 413
3 412 413 414
3 112 111 110
3 112 16 111
3 48 112 15
3 113 112 48
3 113 16 112
3 113 73 16
3 114 73 113
3 114 7 73
3 114 115 7
3 116 115 114
3 116 18 115
3 50 116 17
3 117 116 50
3 117 18 116
3 117 79 18
3 118 79 117
3 118 8 79
3 119 120 4
3 121 120 119
3 121 21 120
3 53 121 20
3 122 121 53
3 122 21 121
3 122 86 21
3 123 86 122
3 123 9 86
3 123 124 9
3 125 124 123
3 125 23 124
3 55 125 22
3 126 125 55
3 126 23 125
3 126 93 23
3 102 93 126
3 102 5 93
3 416 415 24
3 417 127 418
3 419 127 420
3 421 25 422
3 423 422 127
3 421 422 423
3 424 25 425
3 427 426 25
3 428 10 429
3 128 129 0
3 130 129 128
3 130 430 432
3 432 431 129
3 430 431 432
3 58 130 26
3 131 130 58
3 131 433 435
3 435 434 130
3 433 434 435
3 131 436 437
3 132 438 440
3 440 439 131
3 438 439 440
3 132 441 443
3 441 2 442
3 441 442 443
3 100 444 446
3 444 59 445
3 444 445 446
3 133 59 100
3 133 27 59
3 60 447 449
3 447 133 448
3 447 448 449
3 134 133 60
3 134 27 133
3 134 132 27
3 135 132 134
3 135 2 132
3 135 106 2
3 136 106 135
3 136 450 452
3 452 451 106
3 450 451 452
3 453 136 454
3 455 454 28
3 453 454 455
3 456 136 457
3 459 458 136
3 460 3 461
3 462 3 463
3 464 107 465
3 466 465 3
3 464 465 466
3 137 467 469
3 467 107 468
3 467 468 469
3 137 14 107
3 470 137 471
3 138 472 474
3 472 137 473
3 472 473 474
3 138 14 137
3 138 45 14
3 139 45 138
3 139 1 45
3 139 140 1
3 141 140 139
3 141 30 140
3 62 141 29
3 142 141 62
3 142 30 141
3 142 83 30
3 143 83 142
3 143 4 83
3 101 475 477
3 475 63 476
3 475 476 477
3 144 63 101
3 144 31 63
3 64 478 480
3 478 144 479
3 478 479 480
3 145 144 64
3 145 31 144
3 145 143 31
3 146 143 145
3 146 4 143
3 146 119 4
3 147 119 146
3 147 20 119
3 66 147 32
3 148 147 66
3 148 20 147
3 148 52 20
3 128 52 148
3 128 0 52
3 481 24 482
3 481 482 483
3 149 484 485
3 149 486 488
3 486 24 487
3 486 487 488
3 149 56 24
3 150 56 149
3 150 489 491
3 491 490 56
3 489 490 491
3 151 492 493
3 151 494 495
3 68 496 498
3 496 151 497
3 496 497 498
3 499 151 500
3 501 500 68
3 499 500 501
3 503 502 151
3 505 504 5
3 152 506 507
3 152 508 509
3 70 152 12
3 510 152 511
3 512 511 70
3 510 511 512
3 514 513 152
3 71 515 516
3 518 517 71
3 129 44 0
3 153 44 129
3 153 13 44
3 519 153 520
3 154 521 523
3 521 153 522
3 521 522 523
3 154 13 153
3 154 105 13
3 155 105 154
3 155 6 105
3 525 524 2
3 526 155 527
3 528 155 529
3 530 6 531
3 532 531 155
3 530 531 532
3 534 533 6
3 536 535 3
3 111 537 538
3 156 539 541
3 541 540 111
3 539 540 541
3 156 542 543
3 74 156 16
3 544 156 545
3 546 545 74
3 544 545 546
3 548 547 156
3 550 549 34
3 77 551 552
3 157 553 555
3 555 554 77
3 553 554 555
3 157 556 557
3 157 558 559
3 158 560 562
3 562 561 157
3 560 561 562
3 158 563 564
3 115 78 7
3 159 78 115
3 159 35 78
3 80 159 18
3 160 159 80
3 160 35 159
3 160 158 35
3 161 158 160
3 161 565 567
3 567 566 158
3 565 566 567
3 161 568 569
3 162 570 572
3 572 571 161
3 570 571 572
3 162 573 575
3 573 33 574
3 573 574 575
3 576 162 577
3 578 577 36
3 576 577 578
3 163 579 581
3 579 162 580
3 579 580 581
3 163 33 162
3 163 150 33
3 164 150 163
3 164 582 584
3 584 583 150
3 582 583 584
3 140 51 1
3 165 51 140
3 165 19 51
3 84 165 30
3 166 165 84
3 166 19 165
3 166 118 19
3 167 118 166
3 167 8 118
3 120 85 4
3 168 85 120
3 168 38 85
3 87 168 21
3 169 168 87
3 169 38 168
3 169 167 38
3 170 167 169
3 170 8 167
3 170 82 8
3 171 82 170
3 171 37 82
3 89 171 39
3 172 171 89
3 172 37 171
3 172 164 37
3 173 164 172
3 173 585 587
3 587 586 164
3 585 586 587
3 173 588 589
3 174 590 592
3 592 591 173
3 590 591 592
3 174 593 594
3 91 174 40
3 595 174 596
3 597 596 91
3 595 596 597
3 599 598 174
3 175 600 601
3 175 602 604
3 602 10 603
3 602 603 604
3 124 92 9
3 176 92 124
3 176 41 92
3 94 176 23
3 177 176 94
3 177 41 176
3 177 175 41
3 605 175 606
3 607 606 177
3 605 606 607
3 608 10 609
3 610 609 175
3 608 609 610
3 611 99 612
3 613 612 10
3 611 612 613
3 614 99 615
3 617 616 99
3 96 618 619
3 621 620 96
3 127 622 623
3 178 624 626
3 626 625 127
3 624 625 626
3 178 627 628
3 97 178 25
3 629 178 630
3 631 630 97
3 629 630 631
3 633 632 178
