ply
format ascii 1.0
element vertex 356
property float x
property float y
property float z
element face 377
property list uchar int vertex_index
end_header
-43.13512 6.900004 17.789194
-53.876141 21.509762 16.586216
-37.152431 14.875299 22.522825
-49.166145 14.207332 21.731756
-43.093102 21.159389 19.149242
-48.47279 8.823462 8.430058
-52.551647 14.522585 8.127852
-47.053368 19.329491 10.684053
-40.043968 18.083967 20.716038
-46.311581 7.981203 13.976893
-52.670391 18.124966 20.28418
-53.223305 14.8576 15.484935
-53.766785 17.598095 15.359789
-49.330376 15.591098 10.190866
-52.609497 20.86821 12.402182
-40.320095 9.838281 21.623768
-45.351772 11.344587 19.137766
-42.979347 13.79048 23.014973
-46.817608 17.158154 21.201618
-49.218731 21.487064 18.094269
-40.612125 4.769467 20.673725
-36.324425 8.746473 23.116312
-33.918427 14.409207 24.786842
-48.861031 12.42978 15.012323
-50.901012 12.203337 8.253088
-49.960106 11.739165 1.49038
-47.582855 13.422795 2.918113
-44.496178 14.786621 5.447773
-42.45026 17.255033 8.305095
-50.730186 22.669765 7.37302
-44.922661 5.231303 16.311716
-46.335533 5.635968 14.214907
-44.859352 7.526024 15.987432
-53.348614 20.098454 18.648113
-54.250893 17.970667 17.981724
-54.336243 19.688278 16.525051
-53.192451 19.484247 14.208873
-54.214893 21.129551 14.240657
-38.608807 12.287506 22.721109
-41.463631 11.854261 22.500717
-39.96434 14.24453 22.423262
-41.659031 19.486088 19.840744
-43.370811 17.430916 20.531485
-44.99263 19.312077 19.502554
-48.182304 19.193928 19.567753
-46.243965 21.235497 18.612453
-38.302971 6.541402 21.885069
-36.846825 5.873279 23.175863
-47.159508 12.811697 20.438128
-47.277321 12.152894 17.525341
-49.203735 13.790683 18.524073
-53.769196 14.610392 11.913009
-52.33083 13.450022 11.84711
-52.684181 13.350189 8.227218
-51.171486 12.144524 4.434138
-51.547272 13.460907 4.425408
-49.015373 12.73324 2.046688
-50.457645 14.133639 4.607461
-47.917259 17.343164 11.35186
-47.133736 14.798981 7.15067
-45.720188 16.020618 8.809191
-43.320702 15.780029 7.262995
-44.739384 17.983782 9.469205
-36.05899 17.401346 22.628763
-38.503044 16.641951 21.724865
-37.378868 18.964817 21.641125
-47.502998 5.946814 11.847685
-47.332142 8.347899 11.405313
-51.272572 16.054823 21.656231
-51.527996 15.161189 19.08469
-53.435448 16.424173 18.775854
-54.174641 16.004723 15.571057
-53.187584 15.705478 12.199835
-51.09771 14.974963 8.611353
-51.685272 16.834728 13.090179
-50.729134 18.798115 12.862765
-50.012138 20.438709 11.651292
-41.729763 8.446434 19.697428
-43.784512 9.273795 18.226843
-42.8881 10.330004 20.574635
-44.532703 11.85293 21.85811
-46.225182 13.375333 22.867147
-41.643089 15.841318 21.549599
-44.731781 15.386194 22.453447
-48.159611 15.443338 22.968063
-50.038666 17.507662 21.540838
-50.998009 19.702768 19.422972
-51.939587 21.700762 17.689707
-46.97142 3.205022 17.19817
-44.277042 4.25061 18.026016
-43.441456 3.487062 19.910786
-41.84745 5.725362 19.12056
-39.968086 7.349864 20.691517
-38.201569 9.259347 22.277456
-36.521111 11.956614 23.078754
-34.816948 8.241866 24.285686
-34.763527 11.534939 23.98983
-35.1437 14.771564 23.406868
-45.765099 10.005644 16.478092
-47.281414 10.405711 14.445641
-48.417702 10.843596 11.587339
-50.962391 13.90063 15.344996
-50.075726 12.310634 11.858009
-49.090229 10.894239 8.366369
-50.092186 10.567294 4.745746
-50.460308 10.367909 1.284161
-49.210835 9.496821 0.230059
-47.944031 10.758187 0.874526
-48.768135 14.361242 5.464603
-45.815632 14.023712 4.042981
-41.38084 23.556499 18.961981
-44.137466 23.425552 18.617035
-47.178993 23.712557 18.343939
-53.5989 22.530704 11.275793
-51.820812 21.871326 9.71093
-49.020485 21.385357 8.875697
-46.228561 20.710091 8.628939
-43.732395 19.894875 8.512662
-41.334755 19.124662 9.064577
-37.543976 4.672859 23.404605
-38.115189 4.959484 22.634283
-49.269976 7.859484 7.302034
-48.551432 7.560056 8.723588
-49.072068 8.785362 6.841306
-49.269976 7.859484 7.302034
-36.542015 19.443135 22.380674
-36.718929 18.183082 22.134944
-35.882076 18.6614 22.874493
-46.803812 3.094894 18.262864
-48.428831 3.213431 18.045751
-45.456623 3.617688 18.676786
-45.624231 3.727816 17.612093
-46.803812 3.094894 18.262864
-42.026791 4.128265 20.292256
-43.021849 3.214262 20.718348
-41.607183 3.855465 21.099817
-34.297161 7.977474 25.001571
-35.226661 6.760433 24.431044
-34.340977 12.972073 24.388336
-34.192231 11.284581 24.68978
-33.76968 12.721716 25.088285
-34.288727 15.921796 24.477922
-34.901364 16.102974 23.787935
-34.531064 14.590386 24.096855
-47.0698 12.498586 2.445556
-47.786058 12.153809 2.009844
-48.299114 13.078018 2.4824
-46.215992 12.911306 2.975032
-47.0698 12.498586 2.445556
-43.726517 14.059653 4.721637
-44.386244 13.678199 4.019241
-45.155905 14.405166 4.745377
-43.066962 14.579694 5.396854
-43.726517 14.059653 4.721637
-41.564359 16.402757 7.537783
-41.99958 15.665256 7.016733
-42.885481 16.517531 7.784045
-41.146284 17.070761 8.2356
-41.564359 16.402757 7.537783
-40.778488 24.897659 19.128695
-40.248806 24.051874 19.411751
-44.474196 24.202007 17.864662
-43.180967 24.337919 18.28808
-45.994959 24.345509 17.728113
-45.65823 23.569055 18.480487
-44.474196 24.202007 17.864662
-53.417761 23.531021 10.889937
-53.640442 22.887573 12.462004
-51.275499 22.270546 8.541975
-52.306427 22.630233 9.006482
-51.761114 23.029453 7.837527
-45.652195 21.487396 8.293111
-47.052949 21.660656 8.042177
-44.404112 21.079788 8.234972
-44.980478 20.302483 8.570801
-45.652195 21.487396 8.293111
-40.670485 20.123159 9.427469
-41.917957 20.414468 8.905039
-40.083801 18.83944 9.398051
-40.670485 20.123159 9.427469
-45.629097 5.433635 15.263312
-46.792064 4.710206 14.682109
-46.085628 4.507874 15.730513
-39.997839 4.407578 21.383214
-41.607183 3.855465 21.099817
-38.843262 5.293546 21.988886
-39.457548 5.655435 21.279397
-39.997839 4.407578 21.383214
-37.574898 6.20734 22.530466
-38.843262 5.293546 21.988886
-38.115189 4.959484 22.634283
-33.738577 14.154322 25.645536
-33.76968 12.721716 25.088285
-34.048838 15.779575 25.40246
-33.738577 14.154322 25.645536
-51.237993 23.576283 6.88522
-51.761114 23.029453 7.837527
-36.999598 20.186684 21.6926
-36.542015 19.443135 22.380674
-37.99937 19.610329 21.088639
-36.999598 20.186684 21.6926
-39.33192 19.169904 20.626096
-38.711418 18.524392 21.178581
-37.99937 19.610329 21.088639
-40.139452 19.870964 20.188449
-40.8515 18.785027 20.278391
-39.33192 19.169904 20.626096
-40.886578 20.563468 19.75138
-40.139452 19.870964 20.188449
-41.603613 21.400118 19.405629
-42.376067 20.322738 19.494993
-40.886578 20.563468 19.75138
-47.414993 4.930201 13.438902
-46.792064 4.710206 14.682109
-47.998725 5.085624 12.255291
-47.414993 4.930201 13.438902
-46.919265 5.791391 13.031296
-48.53801 5.255404 10.936315
-47.998725 5.085624 12.255291
-48.066536 6.121733 10.432401
-48.53801 5.255404 10.936315
-47.981108 7.322275 10.211215
-48.066536 6.121733 10.432401
-47.41757 7.147356 11.626499
-47.902466 8.58568 9.917686
-48.551432 7.560056 8.723588
-47.981108 7.322275 10.211215
-48.522148 3.15113 16.851686
-48.428831 3.213431 18.045751
-47.110008 3.494733 16.17374
-48.522148 3.15113 16.851686
-45.94704 4.218163 16.754943
-46.085628 4.507874 15.730513
-47.110008 3.494733 16.17374
-44.803307 3.135898 20.517671
-43.021849 3.214262 20.718348
-45.03883 3.235914 19.619172
-44.803307 3.135898 20.517671
-43.859249 3.868836 18.968401
-45.456623 3.617688 18.676786
-45.03883 3.235914 19.619172
-36.2416 5.57614 23.876133
-37.543976 4.672859 23.404605
-35.831886 7.057573 23.730774
-36.2416 5.57614 23.876133
-35.226661 6.760433 24.431044
-34.218941 9.638045 24.837708
-34.297161 7.977474 25.001571
-34.790238 9.888402 24.137758
-34.218941 9.638045 24.837708
-34.192231 11.284581 24.68978
-35.359009 17.417865 23.398883
-35.601345 16.086455 23.017815
-34.901364 16.102974 23.787935
-35.882076 18.6614 22.874493
-35.359009 17.417865 23.398883
-34.288727 15.921796 24.477922
-34.048838 15.779575 25.40246
-49.380787 9.82075 6.809462
-49.072068 8.785362 6.841306
-48.781509 9.85885 8.398214
-49.881766 9.657278 4.99915
-49.380787 9.82075 6.809462
-49.591207 10.730767 6.556057
-50.649725 9.65004 3.286606
-49.881766 9.657278 4.99915
-50.833786 9.550348 1.555814
-50.649725 9.65004 3.286606
-50.276247 10.467602 3.014953
-50.539367 9.270857 0.645689
-50.833786 9.550348 1.555814
-49.914631 8.835314 0.118638
-50.539367 9.270857 0.645689
-49.835572 9.932365 0.75711
-49.063643 8.342662 0.607433
-49.914631 8.835314 0.118638
-48.237561 8.878995 0.843646
-49.063643 8.342662 0.607433
-47.604158 9.509677 1.165879
-48.237561 8.878995 0.843646
-48.577433 10.127504 0.552293
-46.862147 9.916954 1.658623
-47.604158 9.509677 1.165879
-47.250388 11.166282 1.423763
-48.479702 11.745714 1.460607
-47.786058 12.153809 2.009844
-46.862147 9.916954 1.658623
-47.250388 11.166282 1.423763
-45.33238 13.211764 3.537466
-46.215992 12.911306 2.975032
-46.699244 13.723254 3.480547
-45.33238 13.211764 3.537466
-44.386244 13.678199 4.019241
-42.479224 15.076398 6.304466
-43.066962 14.579694 5.396854
-43.90844 15.283325 6.355384
-42.479224 15.076398 6.304466
-41.99958 15.665256 7.016733
-40.747482 22.598673 19.311999
-40.248806 24.051874 19.411751
-42.236971 22.357944 19.055612
-41.603613 21.400118 19.405629
-40.747482 22.598673 19.311999
-41.802654 24.403392 18.460554
-40.778488 24.897659 19.128695
-42.759153 23.491025 18.789508
-41.802654 24.403392 18.460554
-43.180967 24.337919 18.28808
-47.366354 24.229968 17.168318
-45.994959 24.345509 17.728113
-48.60725 23.757702 17.717391
-47.366354 24.229968 17.168318
-49.627119 22.644956 17.592556
-48.198862 22.599811 18.219104
-48.60725 23.757702 17.717391
-50.987547 22.751804 17.390275
-50.579159 21.593913 17.891988
-49.627119 22.644956 17.592556
-52.180579 22.667358 16.621738
-50.987547 22.751804 17.390275
-53.148855 22.571858 16.069993
-52.907864 21.605262 17.137961
-52.180579 22.667358 16.621738
-53.779062 22.377102 15.117216
-53.148855 22.571858 16.069993
-53.948439 22.186996 13.944437
-54.045517 21.319657 15.413436
-53.779062 22.377102 15.117216
-53.906897 21.830127 12.758225
-53.948439 22.186996 13.944437
-53.640442 22.887573 12.462004
-53.195471 22.959922 9.788913
-53.417761 23.531021 10.889937
-52.709856 22.201015 10.493361
-53.195471 22.959922 9.788913
-52.306427 22.630233 9.006482
-50.011398 23.418824 6.865685
-51.237993 23.576283 6.88522
-49.303762 22.640493 7.414217
-50.011398 23.418824 6.865685
-48.448912 21.998289 8.165555
-49.875336 22.027561 8.124358
-49.303762 22.640493 7.414217
-47.624523 21.047724 8.752318
-48.448912 21.998289 8.165555
-47.052949 21.660656 8.042177
-43.116777 20.799575 8.629082
-44.404112 21.079788 8.234972
-42.533575 19.509768 8.788619
-43.116777 20.799575 8.629082
-41.917957 20.414468 8.905039
-40.588532 18.005576 8.615341
-41.146284 17.070761 8.2356
-41.892508 18.189847 8.684836
-40.588532 18.005576 8.615341
-40.083801 18.83944 9.398051
3 0 32 30
3 1 35 33
3 1 37 35
3 2 40 38
3 4 43 41
3 4 45 43
3 119 47 120
3 5 121 122
3 5 123 124
3 3 50 48
3 6 53 51
3 6 55 53
3 6 57 55
3 7 60 58
3 7 62 60
3 125 65 126
3 127 126 63
3 125 126 127
3 9 66 31
3 9 67 66
3 10 70 68
3 12 71 34
3 12 72 71
3 12 74 72
3 14 75 36
3 14 76 75
3 15 79 77
3 17 80 39
3 17 81 80
3 8 82 64
3 18 83 42
3 18 84 83
3 18 85 84
3 19 86 44
3 19 87 86
3 128 88 129
3 130 89 131
3 132 131 88
3 130 131 132
3 20 133 135
3 133 90 134
3 133 134 135
3 20 91 90
3 20 92 91
3 21 93 46
3 21 94 93
3 136 95 137
3 22 138 140
3 138 96 139
3 138 139 140
3 22 97 96
3 22 141 143
3 143 142 97
3 141 142 143
3 16 98 78
3 23 99 49
3 23 100 99
3 11 101 69
3 24 102 52
3 24 103 102
3 24 104 103
3 25 105 54
3 25 106 105
3 25 107 106
3 26 144 146
3 146 145 56
3 144 145 146
3 26 147 148
3 13 108 73
3 27 109 59
3 27 149 151
3 151 150 109
3 149 150 151
3 27 152 153
3 28 154 156
3 156 155 61
3 154 155 156
3 28 157 158
3 159 110 160
3 161 111 162
3 163 112 164
3 165 164 111
3 163 164 165
3 166 113 167
3 29 168 170
3 168 114 169
3 168 169 170
3 29 115 114
3 171 116 172
3 173 117 174
3 175 174 116
3 173 174 175
3 176 118 177
3 179 178 118
3 30 180 182
3 180 31 181
3 180 181 182
3 32 31 30
3 32 9 31
3 33 34 10
3 35 34 33
3 35 12 34
3 35 36 12
3 37 36 35
3 37 14 36
3 38 39 15
3 40 39 38
3 40 17 39
3 41 42 8
3 43 42 41
3 43 18 42
3 43 44 18
3 45 44 43
3 45 19 44
3 183 20 184
3 185 46 186
3 187 186 20
3 185 186 187
3 47 188 190
3 188 46 189
3 188 189 190
3 47 21 46
3 191 22 192
3 194 193 22
3 48 49 16
3 50 49 48
3 50 23 49
3 51 52 11
3 53 52 51
3 53 24 52
3 53 54 24
3 55 54 53
3 55 25 54
3 55 56 25
3 57 56 55
3 57 26 56
3 58 59 13
3 60 59 58
3 60 27 59
3 60 61 27
3 62 61 60
3 62 28 61
3 195 29 196
3 63 64 2
3 65 64 63
3 65 8 64
3 197 65 198
3 199 65 200
3 201 8 202
3 203 202 65
3 201 202 203
3 204 41 205
3 206 205 8
3 204 205 206
3 207 41 208
3 209 4 210
3 211 210 41
3 209 210 211
3 31 212 213
3 66 214 216
3 216 215 31
3 214 215 216
3 66 217 218
3 66 219 220
3 67 221 223
3 223 222 66
3 221 222 223
3 67 224 226
3 224 5 225
3 224 225 226
3 68 69 3
3 70 69 68
3 70 11 69
3 34 70 10
3 71 70 34
3 71 11 70
3 71 51 11
3 72 51 71
3 72 6 51
3 72 73 6
3 74 73 72
3 74 13 73
3 36 74 12
3 75 74 36
3 75 13 74
3 75 58 13
3 76 58 75
3 76 7 58
3 77 78 0
3 79 78 77
3 79 16 78
3 39 79 15
3 80 79 39
3 80 16 79
3 80 48 16
3 81 48 80
3 81 3 48
3 64 40 2
3 82 40 64
3 82 17 40
3 42 82 8
3 83 82 42
3 83 17 82
3 83 81 17
3 84 81 83
3 84 3 81
3 84 68 3
3 85 68 84
3 85 10 68
3 44 85 18
3 86 85 44
3 86 10 85
3 86 33 10
3 87 33 86
3 87 1 33
3 88 227 228
3 88 229 230
3 88 231 233
3 231 30 232
3 231 232 233
3 89 30 88
3 89 0 30
3 90 234 235
3 90 236 237
3 90 238 240
3 238 89 239
3 238 239 240
3 91 89 90
3 91 0 89
3 91 77 0
3 92 77 91
3 92 15 77
3 46 92 20
3 93 92 46
3 93 15 92
3 93 38 15
3 94 38 93
3 94 2 38
3 241 47 242
3 95 243 245
3 243 47 244
3 243 244 245
3 95 21 47
3 246 95 247
3 96 248 250
3 248 95 249
3 248 249 250
3 96 21 95
3 96 94 21
3 97 94 96
3 97 2 94
3 97 63 2
3 251 63 252
3 253 252 97
3 251 252 253
3 255 254 63
3 257 256 22
3 78 32 0
3 98 32 78
3 98 9 32
3 49 98 16
3 99 98 49
3 99 9 98
3 99 67 9
3 100 67 99
3 100 5 67
3 69 50 3
3 101 50 69
3 101 23 50
3 52 101 11
3 102 101 52
3 102 23 101
3 102 100 23
3 103 100 102
3 103 5 100
3 103 258 260
3 260 259 5
3 258 259 260
3 104 261 263
3 263 262 103
3 261 262 263
3 104 264 265
3 54 104 24
3 105 104 54
3 105 266 268
3 268 267 104
3 266 267 268
3 105 269 270
3 106 271 273
3 273 272 105
3 271 272 273
3 106 274 275
3 106 276 277
3 107 278 280
3 280 279 106
3 278 279 280
3 107 281 282
3 56 107 25
3 283 107 284
3 285 284 56
3 283 284 285
3 287 286 107
3 73 57 6
3 108 57 73
3 108 26 57
3 59 108 13
3 109 108 59
3 109 26 108
3 109 288 290
3 290 289 26
3 288 289 290
3 292 291 109
3 61 293 295
3 295 294 27
3 293 294 295
3 297 296 61
3 110 298 299
3 110 300 302
3 300 4 301
3 300 301 302
3 303 110 304
3 111 305 307
3 305 110 306
3 305 306 307
3 111 4 110
3 111 45 4
3 112 45 111
3 112 19 45
3 308 112 309
3 310 112 311
3 312 19 313
3 314 313 112
3 312 313 314
3 315 87 316
3 317 316 19
3 315 316 317
3 318 87 319
3 320 1 321
3 322 321 87
3 320 321 322
3 323 1 324
3 325 37 326
3 327 326 1
3 325 326 327
3 113 328 330
3 328 37 329
3 328 329 330
3 113 14 37
3 331 113 332
3 114 333 335
3 333 113 334
3 333 334 335
3 114 14 113
3 114 76 14
3 115 76 114
3 115 7 76
3 336 29 337
3 338 29 339
3 340 115 341
3 342 341 29
3 340 341 342
3 116 343 345
3 343 115 344
3 343 344 345
3 116 7 115
3 116 62 7
3 117 62 116
3 117 28 62
3 346 117 347
3 118 348 350
3 348 117 349
3 348 349 350
3 118 28 117
3 118 351 353
3 353 352 28
3 351 352 353
3 355 354 118
