ply
format ascii 1.0
element vertex 688
property float x
property float y
property float z
element face 729
property list uchar int vertex_index
end_header
12.565488 -42.94735 1.787002
17.651424 -38.353848 -7.775836
14.806818 -40.065128 40.56237
6.142211 -34.636986 34.78635
2.688203 -33.76067 25.272728
7.760425 -50.163292 8.412343
23.103745 -50.710133 1.531327
15.074542 -40.151245 -2.79118
6.026608 -37.61301 42.180779
12.782267 -42.616791 33.26144
4.661915 -45.290997 30.439449
8.202623 -34.131832 29.599802
8.824188 -44.583122 23.441784
4.409058 -43.592987 17.551952
10.394836 -47.42017 4.499756
16.5704 -47.081615 0.864426
19.056255 -46.154034 -1.519241
13.815821 -41.680164 -0.663672
20.308279 -45.233879 -6.769864
6.039622 -36.195122 39.060951
8.879606 -39.784843 37.641953
9.011736 -38.599861 33.818634
9.072212 -43.921036 31.179861
5.838526 -39.563164 31.883539
8.183559 -33.905437 27.204285
9.127485 -39.592434 27.246777
6.865383 -39.329365 24.324493
7.301393 -43.839821 20.596846
2.481328 -39.067818 22.09577
15.543831 -51.416821 6.30381
9.041919 -48.863548 6.368543
20.55327 -44.76799 -4.167711
16.111584 -38.911873 -5.044864
10.559736 -38.668831 40.897663
11.235343 -34.522102 39.494041
6.582352 -33.493282 42.045265
4.404518 -32.055908 40.253483
6.46847 -51.925682 10.306238
9.451739 -52.509575 23.848705
12.110695 -39.980179 4.954693
16.396322 -39.648552 3.96423
5.912766 -41.715332 40.554256
12.001913 -47.892902 30.633358
7.703569 -49.224842 29.209553
5.207573 -49.644348 25.627014
4.086635 -34.022434 30.658405
4.678579 -39.298431 28.422678
5.100066 -44.654575 26.098759
4.447173 -48.480446 20.918926
6.598173 -48.006477 18.238306
8.720942 -47.740974 15.951569
8.642812 -46.425056 13.31505
7.812427 -44.9258 10.486582
8.139769 -43.360394 7.987506
9.783854 -41.773537 6.218275
11.30185 -45.442802 2.832091
16.922575 -49.38921 3.790349
19.112066 -40.603531 2.065503
13.315268 -44.937416 0.523869
14.439529 -44.530163 -0.613243
13.13174 -42.449303 0.524442
19.261471 -41.477459 -7.282584
18.270813 -45.813553 -6.915072
18.570168 -42.247017 -8.084768
18.052111 -38.833385 -9.036305
6.517789 -35.108582 37.031826
8.20834 -36.753532 36.311501
7.616056 -36.489952 34.180119
7.593694 -38.972328 32.621468
6.141644 -36.879093 32.686337
4.120803 -30.633764 26.3195
6.68467 -30.746723 27.132584
5.774289 -33.772968 26.036585
7.475722 -36.596252 25.844284
4.920885 -36.53112 24.849873
4.730475 -39.140141 23.429356
2.343512 -36.476944 23.884115
11.043007 -51.70591 6.680908
8.464163 -49.519753 7.408335
15.8681 -43.026699 -2.946017
19.90715 -45.444077 -2.866581
16.599014 -42.350647 -3.94506
17.372156 -41.741802 -4.959614
15.570429 -39.532478 -3.856191
13.379995 -35.007153 38.63554
13.012815 -32.470707 37.699604
8.705046 -31.645288 40.131706
6.592914 -31.080286 41.436394
4.757632 -32.796288 41.948715
4.968474 -30.252941 41.440918
10.080321 -52.575268 25.588427
8.077417 -38.029823 41.675968
7.079371 -40.05864 41.848133
5.910233 -39.561623 41.16851
14.270144 -44.925941 33.226643
14.054075 -47.602863 31.614655
12.813644 -45.251385 31.742535
6.540554 -44.782764 31.072535
8.101923 -46.948036 30.935461
5.737588 -47.771172 30.478003
6.328352 -49.450172 27.649984
4.625656 -47.962566 28.723988
9.004637 -31.069647 29.816494
7.098868 -31.137669 30.177328
4.493215 -31.066101 30.330933
5.483134 -33.865467 29.424799
4.435485 -36.689621 29.457077
6.588493 -36.718884 28.878998
9.040365 -42.290764 25.540913
7.443804 -42.141106 26.65773
7.258672 -44.610184 24.817436
4.705785 -46.799458 23.661114
6.362948 -46.585056 22.22801
5.188 -47.977348 19.407963
8.103569 -46.648766 21.176289
5.773829 -43.719738 19.176567
8.169384 -45.777657 18.338665
7.245267 -45.43322 16.791859
8.876887 -47.19355 14.580792
6.160403 -45.049103 15.276457
4.771109 -43.91053 11.553723
4.400749 -43.062099 9.654881
7.812917 -44.151432 9.184217
4.614217 -41.938786 7.970095
10.85308 -40.965927 5.553333
12.839496 -49.890213 5.006682
16.449591 -50.393578 5.125993
13.46418 -48.956169 3.946243
13.656782 -47.746845 2.849056
10.812885 -46.437302 3.653892
17.845102 -40.177055 3.119567
20.008509 -48.832226 1.379923
21.538548 -48.585175 0.048575
17.97768 -46.701061 -0.300014
15.210295 -43.820057 -1.754235
14.466519 -40.887604 -1.750173
5.496459 -37.100788 40.850525
6.549505 -38.780819 39.665367
7.697424 -37.741169 38.11372
9.614456 -38.765072 35.763485
10.96095 -40.578045 33.432659
11.338552 -43.01939 31.843281
9.444616 -41.080433 32.153542
7.426495 -41.796196 31.480387
5.293882 -42.297752 30.943415
8.688207 -30.925375 28.446299
9.233583 -34.107735 28.662964
8.905493 -36.895763 28.642536
9.169753 -36.83889 27.269344
8.844931 -39.458576 25.73258
8.525068 -41.940228 23.888788
8.60185 -44.232765 21.950836
6.860925 -41.639275 22.679813
5.006585 -41.546669 21.486485
3.157557 -41.491028 19.929539
11.917595 -50.810143 5.901734
9.728884 -48.192108 5.396641
22.561237 -48.404327 -1.659448
22.668915 -48.354908 -3.300558
20.94392 -44.59922 -5.535596
18.415228 -41.313709 -6.004195
16.773355 -38.455585 -6.33299
15.509227 -37.941479 39.299004
12.751604 -39.316032 40.480461
13.364612 -37.260433 39.347839
11.093197 -36.630028 39.986916
8.769802 -36.215782 41.154827
10.949496 -32.016571 38.780415
8.958393 -34.090179 40.669861
6.347853 -35.71806 42.466583
4.817207 -35.225105 41.962116
4.851312 -34.361214 39.860992
5.334813 -33.358215 37.61095
1.072818 -30.682713 25.451029
7.120302 -50.898052 9.412683
8.871471 -52.620342 21.890079
13.187021 -42.222893 4.018456
14.653059 -41.79483 3.173348
14.165262 -39.803082 4.436922
11.174593 -50.214558 29.110996
10.607225 -45.939934 31.054806
9.712245 -48.580421 30.139416
9.750095 -50.383018 27.838245
8.502657 -50.508495 26.408319
7.541276 -50.584023 24.657345
6.799405 -50.634262 22.774586
5.023737 -30.895824 37.783371
5.361316 -32.46109 35.076286
4.503557 -31.734177 32.51049
4.84044 -34.559216 32.7561
4.55721 -36.957344 31.368036
4.280646 -39.589748 30.394979
4.105247 -42.208923 29.448944
7.20361 -39.513424 27.943466
4.87286 -41.939323 27.457905
4.270992 -45.024731 28.353596
4.24662 -47.563522 26.034588
4.487699 -49.410667 23.179567
6.242902 -50.415703 20.412897
6.217581 -50.362694 18.382307
6.206843 -50.346607 16.690985
6.280405 -50.148407 15.307261
8.742559 -46.314301 19.773558
7.884303 -48.093513 17.165581
6.569727 -49.787842 14.174322
7.176309 -49.310921 13.143255
7.94473 -48.830132 12.028645
8.59878 -48.239365 10.929898
1.738189 -41.195404 17.840046
3.074453 -43.22887 15.558759
5.335195 -44.494499 13.491666
8.134946 -45.676929 11.903818
9.114322 -47.579201 9.770806
9.445632 -46.968269 8.665296
9.823265 -46.304104 7.585251
10.239431 -45.643745 6.630769
8.872465 -42.594681 7.006508
10.786875 -44.923298 5.757866
11.473431 -44.129955 5.045249
12.160226 -43.164146 4.408278
11.71806 -44.200016 2.145194
20.176065 -51.000786 4.486815
20.250668 -49.990215 2.976817
16.930614 -48.301643 2.321952
13.713916 -46.462425 1.652525
15.522191 -41.693321 1.956944
16.415201 -41.174221 0.750674
17.183895 -40.695869 -0.50045
13.158178 -40.671272 41.244196
14.150852 -40.944349 41.353248
8.956572 -51.175961 8.070476
8.388841 -51.456432 8.522735
8.112294 -49.841522 7.910339
9.308441 -50.854191 7.568472
8.956572 -51.175961 8.070476
23.573009 -50.819153 0.552694
24.245016 -52.158178 1.224299
14.02827 -31.343849 37.152472
14.160725 -32.724941 37.527012
6.706105 -29.698514 41.105263
7.669562 -30.039052 40.506928
5.893885 -29.284841 41.107525
5.780694 -30.666614 41.438656
6.706105 -29.698514 41.105263
10.435341 -52.592865 26.459448
9.884373 -53.825548 25.931045
12.943103 -42.732817 34.321687
12.07666 -41.707792 34.389877
13.526205 -43.771366 33.244042
13.687042 -43.887392 34.304289
12.943103 -42.732817 34.321687
3.161263 -41.900514 9.133385
3.069915 -42.497619 10.268023
3.267997 -41.338858 8.290992
4.507483 -42.500443 8.812488
3.161263 -41.900514 9.133385
19.031484 -47.11948 -6.030349
20.272784 -47.041654 -6.123847
16.693264 -47.10301 -5.894293
17.27084 -45.603338 -6.890128
21.241053 -46.665691 -4.441497
22.298876 -48.45915 -4.007921
21.611092 -46.561449 -3.734134
20.748595 -44.683605 -4.851653
21.436379 -46.581306 -5.12544
21.241053 -46.665691 -4.441497
14.428654 -36.428033 38.857786
14.436919 -37.600956 39.323421
15.500961 -36.768557 38.833368
10.875959 -30.721632 38.455033
11.905995 -30.895778 37.862801
0.733525 -28.973028 25.279219
1.57888 -29.022315 25.899241
0.612827 -30.386415 24.610202
0.733525 -28.973028 25.279219
7.197875 -52.770378 9.760743
6.749455 -53.382815 10.139294
6.794386 -51.411867 9.859461
7.523791 -52.256563 9.313966
7.197875 -52.770378 9.760743
8.781545 -53.92622 23.177394
9.250208 -53.826179 24.102981
9.161605 -52.564959 22.869392
8.491411 -53.981604 22.198082
8.781545 -53.92622 23.177394
9.92016 -39.699188 41.3118
11.016094 -40.022789 41.103199
11.65567 -38.992431 40.689062
5.979096 -41.933504 41.177851
6.562399 -41.105158 41.824789
6.496068 -40.886986 41.201194
6.312411 -42.755808 40.308704
5.979096 -41.933504 41.177851
8.125368 -40.347173 38.406064
6.960318 -39.845162 39.417771
7.714556 -39.282831 38.65366
12.403542 -48.944728 30.443829
13.429623 -48.799709 30.934477
13.027994 -47.747883 31.124007
11.588253 -49.05373 29.872177
11.989882 -50.105556 29.682648
12.403542 -48.944728 30.443829
5.164543 -30.370227 36.321483
5.10822 -29.420548 37.464482
5.333333 -31.152859 34.967941
5.192526 -31.678457 36.429828
5.164543 -30.370227 36.321483
1.219097 -39.649429 17.817726
1.441383 -39.966121 18.964025
2.563004 -42.9797 14.424823
2.066328 -41.918884 15.49955
3.693376 -43.612515 13.391276
4.204824 -43.861684 14.525213
2.563004 -42.9797 14.424823
9.328159 -42.184109 6.612392
7.741611 -41.0791 6.570801
8.197306 -40.668528 6.176685
17.633826 -51.698645 6.009992
17.136724 -52.185869 6.544856
17.420517 -43.82007 -7.474976
17.27084 -45.603338 -6.890128
18.42049 -44.030285 -7.49992
18.110535 -42.431916 -8.339541
17.420517 -43.82007 -7.474976
17.851506 -40.725099 -8.815309
18.110535 -42.431916 -8.339541
18.311139 -40.540201 -8.560537
18.18896 -39.224052 -9.480282
17.851506 -40.725099 -8.815309
5.402736 -30.690244 26.726042
5.912879 -29.07517 27.096743
4.630946 -29.01869 26.690201
10.597863 -51.94727 7.204758
12.262483 -52.724394 7.345102
9.753585 -50.612831 7.044621
10.597863 -51.94727 7.204758
9.308441 -50.854191 7.568472
14.344315 -33.993165 37.99498
14.436345 -35.301394 38.501637
13.196405 -33.73893 38.167572
14.344315 -33.993165 37.99498
14.160725 -32.724941 37.527012
8.725628 -30.321553 39.854584
9.753734 -30.535991 39.130678
7.64898 -31.362787 40.78405
8.725628 -30.321553 39.854584
7.669562 -30.039052 40.506928
6.130104 -52.576531 10.779557
6.749455 -53.382815 10.139294
9.564498 -53.859026 24.972842
9.884373 -53.825548 25.931045
9.76603 -52.542422 24.718566
9.250208 -53.826179 24.102981
9.564498 -53.859026 24.972842
12.443226 -38.959217 5.026623
11.042506 -38.902923 5.169165
9.648559 -40.774496 37.529234
10.12533 -40.291819 36.580134
14.440186 -45.049892 34.272925
13.687042 -43.887392 34.304289
14.835427 -46.194809 33.299189
14.440186 -45.049892 34.272925
14.162109 -46.264402 32.420649
14.727392 -47.53327 32.493195
14.835427 -46.194809 33.299189
8.616051 -29.605983 30.228502
8.915612 -29.473636 29.678727
7.663166 -29.639994 30.408918
8.616051 -29.605983 30.228502
8.051753 -31.103658 29.996911
6.311189 -29.752091 30.352097
7.663166 -29.639994 30.408918
5.796042 -31.101885 30.254131
5.008363 -29.716307 30.4289
6.311189 -29.752091 30.352097
3.255095 -42.921835 11.217444
3.411333 -43.32053 12.422304
4.585929 -43.486315 10.604302
3.255095 -42.921835 11.217444
3.069915 -42.497619 10.268023
9.006076 -40.190132 5.935232
8.197306 -40.668528 6.176685
9.540689 -39.786327 5.602761
10.318467 -41.369732 5.885804
9.006076 -40.190132 5.935232
10.413698 -39.395798 5.468485
9.540689 -39.786327 5.602761
11.042506 -38.902923 5.169165
11.481887 -40.473053 5.254013
10.413698 -39.395798 5.468485
17.898521 -39.221403 3.961463
17.120712 -39.912804 3.541899
17.174131 -38.957152 4.383795
18.745973 -39.5161 3.672226
17.898521 -39.221403 3.961463
19.379455 -39.729338 3.145194
18.478584 -40.390293 2.592535
18.745973 -39.5161 3.672226
18.012752 -47.409317 -6.102953
19.031484 -47.11948 -6.030349
19.289546 -45.523716 -6.842468
18.012752 -47.409317 -6.102953
16.693264 -47.10301 -5.894293
10.492755 -39.781933 35.6409
10.12533 -40.291819 36.580134
9.247031 -39.274957 36.702719
11.166002 -40.68842 34.475487
10.492755 -39.781933 35.6409
10.287703 -39.671559 34.598072
11.871609 -41.597418 33.347049
12.07666 -41.707792 34.389877
11.166002 -40.68842 34.475487
7.069271 -29.201898 27.625709
5.912879 -29.07517 27.096743
8.07104 -29.291224 28.282567
7.069271 -29.201898 27.625709
7.686438 -30.836049 27.789442
8.757397 -29.4015 28.993629
8.07104 -29.291224 28.282567
8.846422 -30.997511 29.131397
8.915612 -29.473636 29.678727
8.757397 -29.4015 28.993629
15.036197 -51.980099 6.749941
17.136724 -52.185869 6.544856
12.785785 -52.124644 6.93849
12.262483 -52.724394 7.345102
13.223079 -51.67676 6.548903
12.785785 -52.124644 6.93849
11.480301 -51.258026 6.291321
13.730713 -51.113482 6.102772
15.036197 -51.980099 6.749941
13.223079 -51.67676 6.548903
22.790411 -49.756674 -0.188682
23.573009 -50.819153 0.552694
22.321146 -49.647654 0.789951
23.301755 -49.66625 -1.042693
22.790411 -49.756674 -0.188682
22.049892 -48.494751 -0.805436
23.118158 -49.921732 -1.9532
23.301755 -49.66625 -1.042693
23.171997 -49.897023 -2.773756
23.118158 -49.921732 -1.9532
22.615076 -48.379618 -2.480003
22.437815 -50.106222 -3.339162
23.171997 -49.897023 -2.773756
22.437815 -50.106222 -3.339162
22.298876 -48.45915 -4.007921
20.590604 -46.724325 -5.506713
21.436379 -46.581306 -5.12544
20.626099 -44.91655 -6.15273
20.272784 -47.041654 -6.123847
20.590604 -46.724325 -5.506713
13.372303 -36.133793 38.991689
14.428654 -36.428033 38.857786
14.436345 -35.301394 38.501637
12.937654 -31.122845 37.322395
14.02827 -31.343849 37.152472
11.981155 -32.243639 38.240009
12.937654 -31.122845 37.322395
11.905995 -30.895778 37.862801
9.827271 -31.830929 39.45606
10.875959 -30.721632 38.455033
9.753734 -30.535991 39.130678
3.102873 -28.99784 26.333477
4.630946 -29.01869 26.690201
2.596811 -30.658238 25.885264
3.102873 -28.99784 26.333477
1.57888 -29.022315 25.899241
0.870985 -32.056349 24.805169
1.678678 -33.595327 24.716019
1.880511 -32.221691 25.361878
0.870985 -32.056349 24.805169
0.612827 -30.386415 24.610202
8.068779 -51.823813 9.022906
7.523791 -52.256563 9.313966
7.440364 -50.530672 8.912513
8.388841 -51.456432 8.522735
8.068779 -51.823813 9.022906
7.844426 -54.233486 21.256331
8.491411 -53.981604 22.198082
8.581581 -52.868836 20.838867
7.844426 -54.233486 21.256331
15.530526 -40.674223 41.222008
14.150852 -40.944349 41.353248
15.975731 -39.522955 40.598022
15.530526 -40.674223 41.222008
16.326935 -38.46113 39.966339
15.158022 -39.003304 39.930687
15.975731 -39.522955 40.598022
16.423561 -37.22641 39.394653
16.326935 -38.46113 39.966339
15.500961 -36.768557 38.833368
16.423561 -37.22641 39.394653
13.47051 -38.870669 4.767738
13.137978 -39.891631 4.695807
12.443226 -38.959217 5.026623
14.798345 -38.961075 4.648205
13.47051 -38.870669 4.767738
15.913875 -38.88381 4.411859
15.280792 -39.725817 4.200576
14.798345 -38.961075 4.648205
17.174131 -38.957152 4.383795
15.913875 -38.88381 4.411859
12.130572 -40.296724 41.203242
13.158178 -40.671272 41.244196
13.779211 -39.69058 40.521416
12.130572 -40.296724 41.203242
11.016094 -40.022789 41.103199
8.179977 -40.394093 41.787035
9.92016 -39.699188 41.3118
8.819553 -39.363735 41.372898
8.179977 -40.394093 41.787035
6.562399 -41.105158 41.824789
6.640681 -40.235563 40.169342
6.229869 -39.171221 40.416939
6.960318 -39.845162 39.417771
6.641948 -41.312418 39.862215
5.911499 -40.638477 40.861383
6.640681 -40.235563 40.169342
8.125368 -40.347173 38.406064
9.648559 -40.774496 37.529234
7.265873 -42.26382 39.683823
6.641948 -41.312418 39.862215
6.312411 -42.755808 40.308704
7.265873 -42.26382 39.683823
14.224719 -48.772959 31.70915
14.727392 -47.53327 32.493195
14.224719 -48.772959 31.70915
13.429623 -48.799709 30.934477
11.386771 -51.314148 29.071083
11.989882 -50.105556 29.682648
10.982477 -51.41251 28.220733
11.386771 -51.314148 29.071083
10.270228 -51.49674 27.584357
10.982477 -51.41251 28.220733
10.462344 -50.298788 28.474621
9.915208 -51.479143 26.713336
10.435341 -52.592865 26.459448
10.270228 -51.49674 27.584357
7.545548 -51.875795 21.281121
8.581581 -52.868836 20.838867
7.835438 -51.627302 22.332332
5.11709 -28.619497 41.042761
5.893885 -29.284841 41.107525
4.795417 -29.741509 40.55772
5.11709 -28.619497 41.042761
4.51344 -30.642992 39.964003
4.686496 -31.154425 40.8472
4.795417 -29.741509 40.55772
4.823049 -30.06295 38.728947
5.10822 -29.420548 37.464482
4.714128 -31.475866 39.018427
4.51344 -30.642992 39.964003
4.823049 -30.06295 38.728947
4.428427 -29.945183 31.244427
5.008363 -29.716307 30.4289
4.433597 -30.279221 32.334205
4.428427 -29.945183 31.244427
4.498386 -31.400139 31.420711
4.904453 -30.789403 33.685043
4.433597 -30.279221 32.334205
4.932436 -32.097634 33.793388
5.333333 -31.152859 34.967941
4.904453 -30.789403 33.685043
7.267297 -51.766516 20.100276
7.545548 -51.875795 21.281121
6.521154 -50.524983 21.593742
6.769701 -52.130043 19.080396
7.267297 -51.766516 20.100276
6.757041 -52.103538 18.0651
6.769701 -52.130043 19.080396
6.230241 -50.389198 19.397602
6.229487 -52.354275 17.183563
6.757041 -52.103538 18.0651
6.224118 -52.346232 16.337902
6.229487 -52.354275 17.183563
6.212212 -50.35465 17.536646
5.908859 -52.398868 15.475462
6.224118 -52.346232 16.337902
5.94564 -52.299768 14.7836
5.908859 -52.398868 15.475462
6.243624 -50.247507 15.999123
5.875413 -52.098446 14.002985
5.94564 -52.299768 14.7836
6.020074 -51.918163 13.436515
5.875413 -52.098446 14.002985
6.425066 -49.968125 14.740792
6.180733 -51.50761 12.713599
6.020074 -51.918163 13.436515
6.484024 -51.26915 12.198066
6.180733 -51.50761 12.713599
6.873018 -49.549381 13.658788
6.822389 -50.618302 11.724747
6.130104 -52.576531 10.779557
6.484024 -51.26915 12.198066
1.506332 -34.953465 24.021712
2.515858 -35.118807 24.578422
1.678678 -33.595327 24.716019
1.535556 -36.29307 23.064672
1.506332 -34.953465 24.021712
1.604464 -37.588507 22.170499
2.41242 -37.772381 22.989943
1.535556 -36.29307 23.064672
1.812952 -38.902329 21.091887
1.604464 -37.588507 22.170499
2.151067 -40.113934 20.008771
2.819443 -40.279423 21.012655
1.812952 -38.902329 21.091887
2.447873 -41.343216 18.884792
2.151067 -40.113934 20.008771
1.441383 -39.966121 18.964025
1.398196 -40.902151 16.640194
1.219097 -39.649429 17.817726
2.406321 -42.212137 16.699403
1.398196 -40.902151 16.640194
2.066328 -41.918884 15.49955
5.053152 -44.202514 12.522695
3.693376 -43.612515 13.391276
3.411333 -43.32053 12.422304
3.678654 -40.535315 7.499942
3.267997 -41.338858 8.290992
5.031828 -41.345515 7.391033
3.678654 -40.535315 7.499942
6.794605 -42.056319 7.399738
6.376993 -42.64959 7.978801
5.031828 -41.345515 7.391033
7.160953 -41.673462 6.909239
7.741611 -41.0791 6.570801
8.506117 -42.977537 7.497007
6.794605 -42.056319 7.399738
7.160953 -41.673462 6.909239
23.307009 -51.333704 2.348421
24.245016 -52.158178 1.224299
18.086706 -51.187023 5.421083
17.633826 -51.698645 6.009992
15.996711 -50.905199 5.714901
19.949943 -51.490628 5.101494
18.086706 -51.187023 5.421083
18.312828 -50.697182 4.806404
21.859763 -52.024017 4.569211
19.949943 -51.490628 5.101494
21.843169 -51.479031 3.826164
21.859763 -52.024017 4.569211
21.880471 -50.973745 3.071166
21.843169 -51.479031 3.826164
20.213366 -50.4955 3.731816
21.677207 -50.350174 2.254072
23.307009 -51.333704 2.348421
21.880471 -50.973745 3.071166
20.240953 -40.152241 2.78809
19.379455 -39.729338 3.145194
19.677505 -40.778082 1.461803
20.240953 -40.152241 2.78809
18.71342 -40.824251 0.178826
18.14798 -40.6497 0.782527
19.677505 -40.778082 1.461803
17.531228 -40.371775 -1.099136
18.71342 -40.824251 0.178826
16.476551 -40.099463 -2.244501
16.129219 -40.423557 -1.645815
17.531228 -40.371775 -1.099136
16.724495 -39.790079 -2.777006
15.322485 -39.841862 -3.323685
16.476551 -40.099463 -2.244501
16.894976 -39.448757 -3.393908
16.724495 -39.790079 -2.777006
17.165554 -39.138455 -3.988244
15.841007 -39.222175 -4.450527
16.894976 -39.448757 -3.393908
17.159833 -38.641703 -4.632055
17.165554 -39.138455 -3.988244
17.490718 -38.413559 -5.276118
16.44247 -38.683729 -5.688927
17.159833 -38.641703 -4.632055
17.363329 -37.876813 -6.015448
17.490718 -38.413559 -5.276118
17.802363 -37.825945 -6.736871
17.21239 -38.404716 -7.054413
17.363329 -37.876813 -6.015448
17.772807 -37.411648 -7.493013
17.802363 -37.825945 -6.736871
17.97315 -37.651416 -8.123248
17.851768 -38.593616 -8.406071
17.772807 -37.411648 -7.493013
17.962625 -37.509737 -8.987915
17.97315 -37.651416 -8.123248
18.18896 -39.224052 -9.480282
17.962625 -37.509737 -8.987915
3 0 60 58
3 1 63 61
3 1 64 63
3 2 228 229
3 3 67 65
3 3 69 67
3 4 72 70
3 4 74 72
3 4 76 74
3 5 230 231
3 5 232 234
3 232 78 233
3 232 233 234
3 6 235 236
3 7 81 79
3 7 83 81
3 237 85 238
3 239 87 240
3 241 89 242
3 243 242 87
3 241 242 243
3 244 90 245
3 8 93 91
3 9 246 247
3 9 248 250
3 248 94 249
3 248 249 250
3 9 96 94
3 10 99 97
3 10 101 99
3 11 103 102
3 11 105 103
3 11 107 105
3 12 110 108
3 12 112 110
3 12 114 112
3 13 117 115
3 13 119 117
3 251 121 252
3 253 123 254
3 255 254 121
3 253 254 255
3 14 127 125
3 14 129 127
3 15 133 131
3 17 134 59
3 17 135 134
3 18 256 257
3 259 258 62
3 19 138 136
3 21 139 66
3 21 140 139
3 21 142 140
3 23 143 68
3 23 144 143
3 24 145 71
3 24 146 145
3 24 148 146
3 26 149 73
3 26 150 149
3 26 152 150
3 28 153 75
3 28 154 153
3 30 155 77
3 30 156 155
3 16 157 132
3 31 158 80
3 31 260 262
3 262 261 158
3 260 261 262
3 31 263 265
3 263 159 264
3 263 264 265
3 32 160 82
3 32 161 160
3 266 164 267
3 268 267 162
3 266 267 268
3 34 165 84
3 34 166 165
3 269 167 270
3 35 168 86
3 35 169 168
3 35 170 169
3 36 171 88
3 36 172 171
3 271 173 272
3 274 273 173
3 37 275 276
3 37 277 279
3 277 174 278
3 277 278 279
3 38 280 281
3 38 282 284
3 282 175 283
3 282 283 284
3 39 178 176
3 33 285 287
3 287 286 163
3 285 286 287
3 41 288 290
3 290 289 92
3 288 289 290
3 41 291 292
3 20 293 295
3 295 294 137
3 293 294 295
3 42 296 298
3 298 297 95
3 296 297 298
3 42 299 301
3 299 179 300
3 299 300 301
3 22 180 141
3 43 181 98
3 43 182 181
3 43 183 182
3 44 184 100
3 44 185 184
3 302 186 303
3 304 187 305
3 306 305 186
3 304 305 306
3 45 188 104
3 45 189 188
3 45 190 189
3 46 191 106
3 46 192 191
3 25 193 147
3 47 194 109
3 47 195 194
3 47 196 195
3 48 197 111
3 48 198 197
3 48 199 198
3 49 200 113
3 49 201 200
3 27 202 151
3 50 203 116
3 50 204 203
3 50 205 204
3 51 206 118
3 51 207 206
3 307 208 308
3 309 209 310
3 311 210 312
3 313 312 209
3 311 312 313
3 52 211 120
3 52 212 211
3 52 213 212
3 53 214 122
3 53 215 214
3 54 314 316
3 314 216 315
3 314 315 316
3 54 217 216
3 54 218 217
3 39 219 124
3 39 176 219
3 29 317 318
3 56 221 126
3 56 222 221
3 56 223 222
3 55 224 128
3 55 220 224
3 40 225 177
3 57 226 130
3 57 227 226
3 58 59 15
3 60 59 58
3 60 17 59
3 61 62 18
3 63 62 61
3 63 319 321
3 321 320 62
3 319 320 321
3 63 322 323
3 64 324 326
3 326 325 63
3 324 325 326
3 64 327 328
3 65 66 19
3 67 66 65
3 67 21 66
3 67 68 21
3 69 68 67
3 69 23 68
3 70 329 331
3 329 71 330
3 329 330 331
3 72 71 70
3 72 24 71
3 72 73 24
3 74 73 72
3 74 26 73
3 74 75 26
3 76 75 74
3 76 28 75
3 332 77 333
3 78 334 336
3 334 77 335
3 334 335 336
3 78 30 77
3 79 80 16
3 81 80 79
3 81 31 80
3 81 82 31
3 83 82 81
3 83 32 82
3 337 84 338
3 85 339 341
3 339 84 340
3 339 340 341
3 85 34 84
3 342 86 343
3 87 344 346
3 344 86 345
3 344 345 346
3 87 35 86
3 87 88 35
3 89 88 87
3 89 36 88
3 347 37 348
3 90 349 350
3 90 351 353
3 351 38 352
3 351 352 353
3 355 354 39
3 91 92 33
3 93 92 91
3 93 41 92
3 357 356 20
3 94 358 359
3 94 360 361
3 94 362 364
3 362 95 363
3 362 363 364
3 96 95 94
3 96 42 95
3 97 98 22
3 99 98 97
3 99 43 98
3 99 100 43
3 101 100 99
3 101 44 100
3 102 365 366
3 103 367 369
3 369 368 102
3 367 368 369
3 103 370 371
3 103 372 374
3 372 104 373
3 372 373 374
3 105 104 103
3 105 45 104
3 105 106 45
3 107 106 105
3 107 46 106
3 108 109 25
3 110 109 108
3 110 47 109
3 110 111 47
3 112 111 110
3 112 48 111
3 112 113 48
3 114 113 112
3 114 49 113
3 115 116 27
3 117 116 115
3 117 50 116
3 117 118 50
3 119 118 117
3 119 51 118
3 375 120 376
3 121 377 379
3 377 120 378
3 377 378 379
3 121 52 120
3 121 122 52
3 123 122 121
3 123 53 122
3 380 54 381
3 382 124 383
3 384 383 54
3 382 383 384
3 385 124 386
3 387 39 388
3 389 388 124
3 387 388 389
3 125 126 29
3 127 126 125
3 127 56 126
3 127 128 56
3 129 128 127
3 129 55 128
3 390 130 391
3 392 391 40
3 390 391 392
3 393 130 394
3 395 57 396
3 397 396 130
3 395 396 397
3 131 132 6
3 133 132 131
3 133 16 132
3 59 133 15
3 134 133 59
3 134 16 133
3 134 79 16
3 135 79 134
3 135 7 79
3 62 398 400
3 400 399 18
3 398 399 400
3 402 401 62
3 136 137 8
3 138 137 136
3 138 20 137
3 66 138 19
3 139 138 66
3 139 20 138
3 139 403 405
3 405 404 20
3 403 404 405
3 140 406 408
3 408 407 139
3 406 407 408
3 140 409 411
3 409 9 410
3 409 410 411
3 140 141 9
3 142 141 140
3 142 22 141
3 68 142 21
3 143 142 68
3 143 22 142
3 143 97 22
3 144 97 143
3 144 10 97
3 71 412 413
3 145 414 416
3 416 415 71
3 414 415 416
3 145 417 418
3 145 419 421
3 419 102 420
3 419 420 421
3 146 102 145
3 146 11 102
3 146 147 11
3 148 147 146
3 148 25 147
3 73 148 24
3 149 148 73
3 149 25 148
3 149 108 25
3 150 108 149
3 150 12 108
3 150 151 12
3 152 151 150
3 152 27 151
3 75 152 26
3 153 152 75
3 153 27 152
3 153 115 27
3 154 115 153
3 154 13 115
3 422 29 423
3 77 424 425
3 155 426 428
3 428 427 77
3 426 427 428
3 155 429 431
3 429 29 430
3 429 430 431
3 155 125 29
3 156 125 155
3 156 14 125
3 132 432 434
3 434 433 6
3 432 433 434
3 157 435 437
3 437 436 132
3 435 436 437
3 157 438 439
3 80 157 16
3 158 157 80
3 158 440 442
3 442 441 157
3 440 441 442
3 158 443 444
3 446 445 158
3 159 447 448
3 159 449 451
3 449 18 450
3 449 450 451
3 82 159 31
3 160 159 82
3 160 18 159
3 160 61 18
3 161 61 160
3 161 1 61
3 162 163 2
3 164 163 162
3 164 33 163
3 84 452 454
3 452 164 453
3 452 453 454
3 165 164 84
3 165 33 164
3 165 91 33
3 166 91 165
3 166 8 91
3 455 85 456
3 167 457 459
3 457 85 458
3 457 458 459
3 167 34 85
3 86 460 462
3 460 167 461
3 460 461 462
3 168 167 86
3 168 34 167
3 168 166 34
3 169 166 168
3 169 8 166
3 169 136 8
3 170 136 169
3 170 19 136
3 88 170 35
3 171 170 88
3 171 19 170
3 171 65 19
3 172 65 171
3 172 3 65
3 463 70 464
3 173 465 467
3 465 70 466
3 465 466 467
3 173 4 70
3 173 468 470
3 470 469 4
3 468 469 470
3 472 471 173
3 174 473 474
3 174 475 477
3 475 5 476
3 475 476 477
3 175 478 479
3 175 480 481
3 482 2 483
3 484 2 485
3 486 162 487
3 488 487 2
3 486 487 488
3 489 162 490
3 492 491 162
3 176 177 0
3 178 177 176
3 178 40 177
3 493 178 494
3 495 494 39
3 493 494 495
3 496 178 497
3 498 40 499
3 500 499 178
3 498 499 500
3 502 501 40
3 163 503 505
3 505 504 2
3 503 504 505
3 507 506 163
3 92 508 510
3 510 509 33
3 508 509 510
3 512 511 92
3 137 93 8
3 513 93 514
3 515 514 137
3 513 514 515
3 516 41 517
3 518 517 93
3 516 517 518
3 520 519 20
3 521 41 522
3 524 523 41
3 95 525 526
3 528 527 95
3 179 529 530
3 179 531 532
3 141 96 9
3 180 96 141
3 180 42 96
3 98 180 22
3 181 180 98
3 181 42 180
3 181 179 42
3 182 179 181
3 182 533 535
3 535 534 179
3 533 534 535
3 182 536 538
3 536 90 537
3 536 537 538
3 183 90 182
3 183 38 90
3 100 183 43
3 184 183 100
3 184 38 183
3 184 175 38
3 185 175 184
3 185 539 541
3 541 540 175
3 539 540 541
3 542 89 543
3 544 89 545
3 546 36 547
3 548 547 89
3 546 547 548
3 186 549 550
3 186 551 553
3 551 36 552
3 551 552 553
3 186 172 36
3 187 172 186
3 187 3 172
3 104 554 555
3 188 556 558
3 558 557 104
3 556 557 558
3 188 559 560
3 188 561 563
3 561 187 562
3 561 562 563
3 189 187 188
3 189 3 187
3 189 69 3
3 190 69 189
3 190 23 69
3 106 190 45
3 191 190 106
3 191 23 190
3 191 144 23
3 192 144 191
3 192 10 144
3 147 107 11
3 193 107 147
3 193 46 107
3 109 193 25
3 194 193 109
3 194 46 193
3 194 192 46
3 195 192 194
3 195 10 192
3 195 101 10
3 196 101 195
3 196 44 101
3 111 196 47
3 197 196 111
3 197 44 196
3 197 185 44
3 198 185 197
3 198 564 566
3 566 565 185
3 564 565 566
3 198 567 568
3 199 569 571
3 571 570 198
3 569 570 571
3 199 572 573
3 113 199 48
3 200 199 113
3 200 574 576
3 576 575 199
3 574 575 576
3 200 577 578
3 201 579 581
3 581 580 200
3 579 580 581
3 201 582 583
3 151 114 12
3 202 114 151
3 202 49 114
3 116 202 27
3 203 202 116
3 203 49 202
3 203 201 49
3 204 201 203
3 204 584 586
3 586 585 201
3 584 585 586
3 204 587 588
3 205 589 591
3 591 590 204
3 589 590 591
3 205 592 594
3 592 37 593
3 592 593 594
3 118 205 50
3 206 205 118
3 206 37 205
3 206 174 37
3 207 174 206
3 207 5 174
3 595 76 596
3 597 596 4
3 595 596 597
3 598 76 599
3 600 28 601
3 602 601 76
3 600 601 602
3 603 28 604
3 605 154 606
3 607 606 28
3 605 606 607
3 208 608 610
3 608 154 609
3 608 609 610
3 208 13 154
3 611 208 612
3 209 613 615
3 613 208 614
3 613 614 615
3 209 13 208
3 209 119 13
3 210 119 209
3 210 51 119
3 120 616 618
3 616 210 617
3 616 617 618
3 211 210 120
3 211 51 210
3 211 207 51
3 212 207 211
3 212 5 207
3 212 78 5
3 213 78 212
3 213 30 78
3 122 213 52
3 214 213 122
3 214 30 213
3 214 156 30
3 215 156 214
3 215 14 156
3 619 123 620
3 621 123 622
3 623 53 624
3 625 624 123
3 623 624 625
3 216 626 627
3 216 628 630
3 628 53 629
3 628 629 630
3 216 215 53
3 217 215 216
3 217 14 215
3 217 129 14
3 218 129 217
3 218 55 129
3 124 218 54
3 219 218 124
3 219 55 218
3 219 220 55
3 176 220 219
3 176 0 220
3 631 6 632
3 126 633 635
3 635 634 29
3 633 634 635
3 221 636 638
3 638 637 126
3 636 637 638
3 221 639 640
3 221 641 642
3 222 643 645
3 645 644 221
3 643 644 645
3 222 646 648
3 646 6 647
3 646 647 648
3 222 131 6
3 223 131 222
3 223 15 131
3 128 223 56
3 224 223 128
3 224 15 223
3 224 58 15
3 220 58 224
3 220 0 58
3 177 60 0
3 225 60 177
3 225 17 60
3 130 225 40
3 226 225 130
3 226 17 225
3 226 135 17
3 227 135 226
3 227 7 135
3 649 57 650
3 651 57 652
3 653 227 654
3 655 654 57
3 653 654 655
3 656 227 657
3 658 7 659
3 660 659 227
3 658 659 660
3 661 83 662
3 663 662 7
3 661 662 663
3 664 83 665
3 666 32 667
3 668 667 83
3 666 667 668
3 669 32 670
3 671 161 672
3 673 672 32
3 671 672 673
3 674 161 675
3 676 1 677
3 678 677 161
3 676 677 678
3 679 1 680
3 681 64 682
3 683 682 1
3 681 682 683
3 684 64 685
3 687 686 64
