ply
format ascii 1.0
element vertex 712
property float x
property float y
property float z
element face 734
property list uchar int vertex_index
end_header
13.801961 -18.488409 38.336372
5.607928 -9.605791 33.165382
5.928751 20.626627 29.557781
7.998702 25.086208 19.928623
5.147712 10.241297 35.562145
6.819295 -28.316742 40.774132
2.608278 -6.933834 29.610569
7.124483 -21.061678 29.066259
5.583264 -14.188802 39.81649
4.897418 -2.29095 39.759438
7.558995 2.635338 31.319635
4.164752 -23.411373 33.712097
10.164424 21.698242 28.856945
10.802422 -29.426693 38.12965
0.258491 -13.189725 27.370453
2.855531 9.431479 26.125034
4.346715 15.498799 23.057041
10.096345 -3.129025 42.093811
7.604302 -5.473042 41.20575
7.410974 0.167195 40.571327
5.161083 11.900381 29.939838
4.931798 6.366906 32.53178
7.750915 8.349077 29.213902
3.98734 4.070483 28.49357
3.905677 -11.541026 36.171486
4.238538 -18.755922 37.664177
4.146766 -16.743227 32.555729
5.141089 -27.403616 27.060902
5.411971 17.050037 26.94347
8.057911 19.826124 23.467056
5.938604 23.129004 24.432867
8.28815 6.347104 38.164989
8.740886 11.894293 35.352703
5.757331 15.489017 32.528969
7.097998 -8.170417 31.439411
5.007092 -14.131757 29.441278
2.136133 -20.362667 27.427927
0.394231 -27.263342 25.10741
5.345452 21.126087 19.413677
0.796572 22.86059 16.319159
12.55008 -12.714411 39.541145
9.847215 -16.417694 38.694347
8.557506 -10.759912 40.096424
5.188143 -8.255511 39.897968
3.852668 -5.384466 35.20446
4.613907 4.19711 38.321842
4.317952 0.582419 34.122047
7.080443 -3.465083 33.017586
5.513035 -1.98273 30.300812
0.488561 -0.925178 27.804562
6.83591 -21.442423 39.630852
4.671599 -25.652538 39.079849
5.305349 -29.844629 34.859596
7.306752 -22.08186 31.516657
5.52351 -28.366512 30.526867
12.506369 22.145548 28.919928
12.341959 -21.015123 37.737389
5.813312 11.534037 25.987011
3.509861 12.511045 24.680088
6.330117 14.612886 24.490107
10.906637 -0.495972 41.08622
8.917459 -1.659309 41.124992
9.589915 1.116685 39.875404
7.114993 13.015411 28.458645
6.878774 10.268456 29.789999
7.82355 11.016558 27.870916
5.974075 8.896505 27.389139
3.779182 -10.540455 33.779839
3.797659 -14.12134 34.224422
4.883963 -13.307486 32.806316
5.744158 18.853247 28.13031
5.764454 20.120922 25.769207
5.822238 22.012386 27.169641
7.313565 19.084539 31.266827
6.87403 16.73354 33.179016
5.782812 18.113781 31.088314
5.669752 16.299915 29.647949
8.74621 -28.997818 39.577461
5.24694 -7.53495 30.421957
6.078486 -11.241883 30.477829
3.898463 -10.532539 29.678711
0.067048 -16.54587 25.704844
0.930224 -16.796116 27.628994
1.06406 -23.791042 26.419165
0.163817 -23.592409 24.694479
0.307567 -22.938564 22.780764
0.476987 11.016529 19.934212
0.209776 14.04928 18.654997
8.097873 22.523785 21.723841
7.355406 20.410255 21.16383
7.524453 23.001129 19.346771
10.579882 -11.696163 39.515106
5.976048 -3.820576 40.895798
6.263921 -6.846975 41.028347
4.966122 -5.303725 40.022285
4.643613 -6.728548 37.728676
4.612487 -3.877479 37.522099
6.579225 8.579466 37.486481
6.230606 5.411662 38.739063
4.8929 7.307162 37.021523
6.341827 4.560828 31.938263
4.722194 3.583104 33.496082
6.0532 1.723312 32.654133
5.451907 -1.298678 33.153664
7.463584 -0.331924 32.196079
7.201868 -2.66493 31.547195
6.8754 0.440739 30.619656
1.022979 4.539283 27.246868
1.626871 1.732255 28.428915
0.176496 -1.029528 25.230457
7.70143 -15.389093 39.4128
8.380291 -18.946842 39.042576
6.341784 -17.687359 39.698814
4.159947 -20.980282 35.689758
4.242105 -22.038898 38.553993
4.672196 -24.318943 36.608208
5.192704 -27.945271 37.145592
4.918723 -26.691936 34.337059
7.752614 -18.151335 30.405645
7.752931 -18.763103 31.717743
7.638458 21.530996 29.59557
6.518806 23.569836 28.181391
9.623559 19.373632 30.608282
10.791536 -26.599773 37.818741
8.891539 -26.157108 39.004055
0.437241 -6.44051 28.057364
0.991522 -10.007954 28.681498
0.022091 -9.740664 26.541315
1.078761 13.542906 23.274284
1.698978 16.480593 21.776234
7.372404 -2.658 41.253258
5.76481 -0.894868 40.816933
5.221996 11.13531 32.747711
4.878126 8.412906 34.222984
5.170527 9.159343 31.381027
6.640803 7.418739 30.976767
7.606471 5.515226 30.351376
6.518426 3.457487 29.685144
6.225553 6.243315 28.634884
3.346102 6.753138 27.447042
4.305024 -12.806902 38.689728
4.660764 -16.451019 39.170128
4.266735 -15.227504 36.830078
3.872168 -17.726166 34.809975
3.843172 -20.19075 32.9412
6.150819 -24.154293 27.983313
8.077958 -24.527563 29.240032
7.453873 -27.657074 28.118835
7.334825 15.529305 26.979437
8.045267 16.80755 24.975159
6.786159 18.611105 25.371359
6.748421 21.511553 23.699757
6.646387 24.204372 22.025574
9.943151 4.119969 38.729351
8.545568 9.125292 36.825024
6.731178 11.430118 35.910194
8.825438 14.526922 34.262932
6.721906 14.238672 34.685719
5.540005 12.94299 34.063957
5.552321 13.732683 31.174053
5.270545 14.509745 28.419994
7.372288 -8.859313 32.71566
7.237811 -12.561487 32.740108
7.517627 -11.845035 31.604053
7.020042 -14.762651 30.390467
6.014417 -17.664087 29.186991
2.144011 -13.525342 28.743841
3.642758 -17.213184 28.403875
4.987075 -20.763741 27.99966
3.76088 -23.92186 27.163044
2.084943 -27.361917 26.347454
0.535971 7.893898 21.195179
6.992498 17.622757 22.918766
5.108976 18.410894 21.348156
2.580387 19.320164 19.94537
3.019845 22.049723 17.877949
13.198481 -15.593491 38.846279
11.91381 -17.460611 38.234581
11.267657 -14.551493 38.725304
9.191313 -13.46503 39.159294
7.125116 -12.422012 39.779011
6.730293 -9.616488 40.384018
5.295816 -11.034472 39.708687
4.337017 -9.758878 38.079533
3.784772 -8.523983 35.497223
4.070495 -7.422671 33.570087
8.004206 3.20384 39.311909
5.816956 2.197037 40.052605
4.552657 0.950882 39.35701
4.859492 5.546727 35.494843
4.788167 2.369272 36.590675
4.746832 -0.859173 37.215237
3.996661 -2.36851 34.684395
4.649973 -4.225413 33.397297
6.375155 -6.464149 33.318542
7.439682 -5.688488 32.306019
6.361461 -5.089555 30.980173
4.19614 -4.449181 30.104176
4.743787 1.16972 29.437717
2.794082 -1.277043 29.415625
1.140864 -3.822513 28.962589
14.524104 -16.328171 39.877029
10.36796 -19.968037 38.274647
8.731038 -22.645491 38.823708
7.021114 -24.922052 39.943565
5.004575 -20.040382 39.605785
5.258197 -23.483252 39.966228
5.265706 -26.986053 40.644604
4.622361 -29.230076 39.674522
6.474905 -16.015804 32.426582
5.554001 -19.435429 31.912613
4.727657 -22.756226 31.626385
8.450851 -24.864508 30.642406
6.491905 -25.2957 31.046417
4.424955 -25.849747 31.807215
4.363638 -28.824265 32.157921
13.742588 24.221382 28.790698
13.051577 23.593481 28.255323
13.19738 22.773449 29.455303
13.19738 22.773449 29.455303
13.060568 21.499665 30.133896
13.07196 -19.751766 38.03688
13.26701 -21.271808 37.726346
13.997011 -20.008451 38.025837
7.084794 14.099789 25.431956
6.071715 13.073462 25.238559
6.826391 12.560365 26.180408
10.572316 1.654594 39.831424
10.248276 0.310356 40.480812
11.230677 0.848265 40.436832
7.831511 12.301626 27.12236
7.469271 12.015985 28.16478
7.477232 13.301052 27.416224
6.826391 12.560365 26.180408
6.818431 11.275298 26.928964
7.831511 12.301626 27.12236
6.706105 -29.698514 41.105263
7.669562 -30.039052 40.506928
7.782752 -28.65728 40.175797
5.893885 -29.284841 41.107525
6.706105 -29.698514 41.105263
0.226758 -18.325688 26.016334
0.095243 -18.267059 24.916317
0.143628 -21.790328 24.411134
0.275142 -21.848957 25.511152
0.215503 -21.463406 23.454276
0.235692 -23.265487 23.737622
0.143628 -21.790328 24.411134
0.25019 15.491506 19.242548
0.189365 14.0005 19.909227
0.110806 15.543519 18.029028
0.25019 15.491506 19.242548
0.606853 3.177129 26.800331
0.602505 4.437565 26.039732
7.682087 -21.27709 29.761902
7.996153 -19.821919 30.431596
7.438548 -19.606507 29.735952
9.589277 22.817264 28.199616
8.326294 22.73364 28.568928
8.901441 21.614619 29.226257
9.893992 20.535937 29.732613
10.764467 19.543654 30.528694
11.034899 20.705959 29.653025
10.72571 -25.11759 37.80497
11.688782 -25.308256 37.434019
9.775711 -24.896258 38.397627
9.841538 -26.37844 38.411398
10.72571 -25.11759 37.80497
0.089633 -8.084614 26.038345
0.229666 -8.090587 27.29934
0.297208 -6.434537 26.79637
1.786383 9.885018 25.387824
1.705004 8.266699 26.008076
9.46663 -3.686257 41.800982
10.246056 -4.379232 42.023438
1.705004 8.266699 26.008076
1.950289 6.927528 26.66908
3.100817 8.092308 26.786038
6.184678 24.327183 26.976366
7.04282 24.851492 27.149577
8.643227 10.509792 36.088864
9.566074 9.445338 36.589577
9.663733 10.829838 35.853416
9.003521 15.814286 33.371544
9.897047 14.810492 34.037336
10.875959 -30.721632 38.455033
11.905995 -30.895778 37.862801
11.832458 -29.600839 37.537419
0.733525 -28.973028 25.279219
1.57888 -29.022315 25.899241
1.239587 -27.312629 25.727432
0.273533 -28.67673 24.438392
0.733525 -28.973028 25.279219
0.339394 9.321278 21.745939
0.357557 7.705601 22.34554
0.7844 9.627028 19.528227
0.733906 11.157242 18.828695
1.908208 22.455157 17.098554
3.405107 23.397498 16.895389
2.293471 23.802932 16.115994
0.703909 21.382701 17.258699
1.815546 20.977267 18.038094
1.908208 22.455157 17.098554
0.3979 21.498779 16.069338
0.703909 21.382701 17.258699
7.816258 -6.854721 41.127039
8.431935 -6.137705 41.267967
0.316781 -2.291332 27.255059
0.642932 -3.739999 27.834072
0.814713 -2.373845 28.383575
0.333955 -2.414283 24.765205
0.446388 -1.099804 24.119395
14.465153 -15.341529 40.990919
14.881735 -16.986274 40.609886
14.205063 -14.90646 40.217233
14.465153 -15.341529 40.990919
5.164543 -30.370227 36.321483
5.10822 -29.420548 37.464482
5.249026 -28.89495 36.002594
5.333333 -31.152859 34.967941
5.164543 -30.370227 36.321483
7.158615 -15.683816 32.056454
6.856358 -14.288645 32.583345
7.540069 -13.956657 32.213217
8.638718 -26.371066 30.091683
8.264405 -24.696036 29.941219
8.452272 -26.202594 29.390496
6.007708 -26.831106 30.786642
7.359685 -26.719009 30.843463
6.875487 -28.254416 30.583688
12.043457 23.177828 27.985027
10.872485 22.954175 27.953535
11.335396 21.921895 28.888436
12.043457 23.177828 27.985027
13.051577 23.593481 28.255323
12.205872 20.929612 29.684517
13.060568 21.499665 30.133896
11.335396 21.921895 28.888436
11.034899 20.705959 29.653025
12.205872 20.929612 29.684517
12.463994 -22.515931 37.393343
13.26701 -21.271808 37.726346
11.500921 -22.325266 37.764294
12.463994 -22.515931 37.393343
5.912879 -29.07517 27.096743
4.630946 -29.01869 26.690201
9.782369 12.118977 35.195364
9.663733 10.829838 35.853416
7.093797 17.909039 32.222921
8.027817 16.917595 32.829586
8.247585 18.093094 31.873492
8.725628 -30.321553 39.854584
9.753734 -30.535991 39.130678
9.774316 -29.212255 38.853555
8.725628 -30.321553 39.854584
7.669562 -30.039052 40.506928
0.658346 -18.450811 26.978409
0.498636 -16.670993 26.666919
0.226758 -18.325688 26.016334
1.2613 -20.234086 26.877876
1.533178 -18.579391 27.528461
0.658346 -18.450811 26.978409
0.725264 -21.948273 26.373494
1.600097 -22.076854 26.923546
1.2613 -20.234086 26.877876
0.613938 -23.691726 25.556822
0.725264 -21.948273 26.373494
0.275142 -21.848957 25.511152
0.163777 -25.019305 23.979985
0.278984 -26.854771 24.18645
0.279024 -25.427875 24.900945
0.235652 -24.692383 23.023127
0.163777 -25.019305 23.979985
0.235692 -23.265487 23.737622
0.394024 -24.363288 22.014592
0.235652 -24.692383 23.023127
0.322971 12.484125 20.548834
0.309901 10.882593 21.115456
0.343382 12.532905 19.294604
0.322971 12.484125 20.548834
0.189365 14.0005 19.909227
0.600301 12.673617 18.189088
0.733906 11.157242 18.828695
0.343382 12.532905 19.294604
0.389317 14.120283 17.474716
0.600301 12.673617 18.189088
0.389317 14.120283 17.474716
0.110806 15.543519 18.029028
1.247909 24.346576 15.338594
2.293471 23.802932 16.115994
0.425824 23.09985 15.218367
1.247909 24.346576 15.338594
11.127865 -10.945262 40.18758
11.564981 -12.205287 39.528126
12.112964 -11.454386 40.200599
10.185959 -10.501186 40.226877
11.127865 -10.945262 40.18758
9.174771 -10.03306 40.517536
9.568694 -11.228037 39.805765
10.185959 -10.501186 40.226877
0.908799 1.773616 27.391354
1.324925 3.135769 27.837891
0.606853 3.177129 26.800331
0.339644 0.444899 27.079178
1.057716 0.403539 28.116739
0.908799 1.773616 27.391354
0.183611 0.392724 25.792126
0.332529 -0.977353 26.51751
0.339644 0.444899 27.079178
0.256527 0.305469 24.503024
0.183611 0.392724 25.792126
0.446388 -1.099804 24.119395
0.256527 0.305469 24.503024
7.752773 -18.457219 31.061694
7.797629 -17.057465 31.702034
7.79747 -16.751582 31.045985
7.996312 -20.127803 31.087644
7.752773 -18.457219 31.061694
7.996153 -19.821919 30.431596
7.773222 -21.787181 30.987102
7.529841 -20.422481 31.6172
7.996312 -20.127803 31.087644
6.311189 -29.752091 30.352097
6.875487 -28.254416 30.583688
5.008363 -29.716307 30.4289
6.311189 -29.752091 30.352097
7.766468 23.753061 27.861839
7.078632 22.550416 28.888481
8.326294 22.73364 28.568928
7.04282 24.851492 27.149577
7.766468 23.753061 27.861839
9.589277 22.817264 28.199616
10.872485 22.954175 27.953535
10.544186 18.424771 31.315919
10.764467 19.543654 30.528694
9.402582 18.237641 31.544219
10.544186 18.424771 31.315919
8.468562 19.229086 30.937554
8.247585 18.093094 31.873492
9.402582 18.237641 31.544219
11.7937 -28.188978 37.467428
11.832458 -29.600839 37.537419
11.788258 -26.775518 37.311974
11.688782 -25.308256 37.434019
10.796979 -28.013233 37.974196
11.7937 -28.188978 37.467428
11.788258 -26.775518 37.311974
0.13377 -9.790267 25.30263
0.089633 -8.084614 26.038345
0.032928 -11.441567 25.764529
0.13377 -9.790267 25.30263
0.151128 -13.166097 26.179098
0.140291 -11.465194 26.955884
0.032928 -11.441567 25.764529
0.055406 -14.844169 25.346294
0.16277 -14.867797 26.537649
0.151128 -13.166097 26.179098
0.182653 -16.535412 24.567253
0.055406 -14.844169 25.346294
0.095243 -18.267059 24.916317
0.182653 -16.535412 24.567253
2.113548 11.4248 24.665351
1.786383 9.885018 25.387824
3.182696 10.971262 25.402561
0.897999 11.940731 23.962449
2.113548 11.4248 24.665351
2.294311 13.026975 23.977186
0.610789 12.145782 22.785492
0.897999 11.940731 23.962449
0.623858 13.747314 22.21887
0.610789 12.145782 22.785492
0.933967 15.216157 21.469845
0.623858 13.747314 22.21887
1.38887 15.01175 22.525259
0.994791 16.707162 20.803166
0.933967 15.216157 21.469845
8.033206 25.384679 18.771807
7.909356 26.507218 19.231099
8.220608 -4.858266 41.356951
8.431935 -6.137705 41.267967
8.877187 -2.951399 41.316572
9.46663 -3.686257 41.800982
9.506902 -2.394167 41.609402
8.10466 -3.450745 41.380705
8.877187 -2.951399 41.316572
8.144932 -2.158654 41.189125
7.488353 -4.065521 41.229504
8.220608 -4.858266 41.356951
8.10466 -3.450745 41.380705
0.788728 5.820601 26.568993
2.184541 5.646211 27.346955
1.950289 6.927528 26.66908
0.602505 4.437565 26.039732
0.788728 5.820601 26.568993
8.14023 -27.76735 28.829898
8.452272 -26.202594 29.390496
7.765916 -26.092319 28.679434
7.069271 -29.201898 27.625709
6.297481 -27.530345 27.589869
5.912879 -29.07517 27.096743
8.07104 -29.291224 28.282567
7.069271 -29.201898 27.625709
8.14023 -27.76735 28.829898
8.07104 -29.291224 28.282567
7.690046 16.168427 25.977298
7.942369 15.197121 25.674481
7.587148 14.557999 26.67662
5.836394 23.548458 26.470491
6.170522 22.791111 27.675516
6.184678 24.327183 26.976366
5.894577 24.106767 25.102104
5.880421 22.570695 25.801254
5.836394 23.548458 26.470491
5.948657 24.611002 23.744328
5.894577 24.106767 25.102104
6.302549 25.148685 22.540681
6.292495 23.666688 23.229221
5.948657 24.611002 23.744328
6.615029 25.569644 21.340776
6.302549 25.148685 22.540681
7.291187 26.010562 20.292301
7.322544 24.64529 20.977099
6.615029 25.569644 21.340776
7.909356 26.507218 19.231099
7.291187 26.010562 20.292301
10.830727 4.629482 38.765291
10.748933 3.156236 39.258398
9.99287 5.648489 38.231903
10.830727 4.629482 38.765291
9.16537 6.762056 37.949722
9.115651 5.233536 38.44717
9.99287 5.648489 38.231903
9.294078 8.15115 37.279739
9.566074 9.445338 36.589577
8.416859 7.736198 37.495007
9.16537 6.762056 37.949722
9.294078 8.15115 37.279739
9.824645 13.435292 34.650478
9.897047 14.810492 34.037336
8.783162 13.210608 34.807817
9.782369 12.118977 35.195364
9.824645 13.435292 34.650478
7.849734 15.630231 33.720974
9.003521 15.814286 33.371544
8.027817 16.917595 32.829586
7.587148 14.557999 26.67662
7.477232 13.301052 27.416224
7.224909 14.272358 27.719041
10.875959 -30.721632 38.455033
9.753734 -30.535991 39.130678
7.679977 -13.598432 31.645189
7.540069 -13.956657 32.213217
7.377719 -12.203261 32.17208
7.431184 -15.057239 31.038396
7.679977 -13.598432 31.645189
7.268835 -13.303843 30.99726
7.386328 -16.456993 30.398056
7.79747 -16.751582 31.045985
7.431184 -15.057239 31.038396
3.102873 -28.99784 26.333477
4.630946 -29.01869 26.690201
3.613016 -27.382766 26.704178
3.102873 -28.99784 26.333477
1.57888 -29.022315 25.899241
0.273533 -28.67673 24.438392
0.278984 -26.854771 24.18645
0.3921 -21.207992 22.476577
0.215503 -21.463406 23.454276
0.531464 -22.658241 21.765631
0.3921 -21.207992 22.476577
0.394024 -24.363288 22.014592
0.531464 -22.658241 21.765631
0.503351 6.333171 21.849671
0.357557 7.705601 22.34554
0.781074 6.519408 20.766211
0.503351 6.333171 21.849671
0.506479 9.455213 20.564695
0.339394 9.321278 21.745939
0.309901 10.882593 21.115456
0.813892 8.065713 20.15871
0.506479 9.455213 20.564695
0.7844 9.627028 19.528227
0.781074 6.519408 20.766211
0.813892 8.065713 20.15871
7.187692 15.710218 24.732633
7.084794 14.099789 25.431956
7.942369 15.197121 25.674481
1.435496 18.126947 19.887735
0.994791 16.707162 20.803166
2.139683 17.900378 20.860802
7.796081 24.34214 18.48088
7.761577 24.043668 19.637697
8.033206 25.384679 18.771807
6.668811 23.41005 18.428655
7.796081 24.34214 18.48088
5.579311 22.47253 18.462108
6.434952 22.063608 19.380224
6.668811 23.41005 18.428655
4.416507 22.934348 17.694244
3.405107 23.397498 16.895389
4.182648 21.587905 18.645813
5.579311 22.47253 18.462108
4.416507 22.934348 17.694244
1.595817 19.612488 19.071804
2.800116 20.684943 18.911659
1.815546 20.977267 18.038094
1.435496 18.126947 19.887735
1.595817 19.612488 19.071804
0.3979 21.498779 16.069338
0.425824 23.09985 15.218367
8.29286 -9.498155 40.572376
9.174771 -10.03306 40.517536
7.146068 -7.541687 41.038337
7.816258 -6.854721 41.127039
6.934112 -6.160008 41.117048
7.379254 -8.926444 40.716173
7.146068 -7.541687 41.038337
6.497107 -8.231732 40.706182
7.643899 -10.1882 40.240221
8.29286 -9.498155 40.572376
7.379254 -8.926444 40.716173
9.766533 2.618327 39.302378
10.572316 1.654594 39.831424
10.748933 3.156236 39.258398
0.291121 -5.048997 27.381459
0.789053 -5.131512 28.509977
0.642932 -3.739999 27.834072
0.297208 -6.434537 26.79637
0.291121 -5.048997 27.381459
0.160748 -2.343507 25.968006
0.316781 -2.291332 27.255059
0.332529 -0.977353 26.51751
0.160748 -2.343507 25.968006
0.333955 -2.414283 24.765205
14.523318 -19.117448 38.765904
13.997011 -20.008451 38.025837
14.718369 -20.63749 38.455369
14.88439 -18.037329 39.536232
14.881735 -16.986274 40.609886
14.163032 -17.40829 39.106701
14.523318 -19.117448 38.765904
14.88439 -18.037329 39.536232
13.542251 -14.53912 39.701859
13.861292 -15.960831 39.361654
14.205063 -14.90646 40.217233
13.218051 -13.09958 40.049291
12.87428 -14.153951 39.193712
13.542251 -14.53912 39.701859
12.823207 -11.803245 40.604979
13.218051 -13.09958 40.049291
12.112964 -11.454386 40.200599
12.823207 -11.803245 40.604979
10.549077 -3.490873 42.654206
10.246056 -4.379232 42.023438
10.925029 -2.167013 42.311075
10.549077 -3.490873 42.654206
11.330175 -0.850487 41.807279
10.501491 -1.812499 41.590015
10.925029 -2.167013 42.311075
11.788405 0.457242 41.180886
11.330175 -0.850487 41.807279
11.230677 0.848265 40.436832
11.788405 0.457242 41.180886
10.513922 -21.801723 38.032923
11.500921 -22.325266 37.764294
11.354959 -20.49158 38.006018
9.69546 -23.14045 38.307454
10.513922 -21.801723 38.032923
9.549499 -21.306764 38.549177
8.811288 -24.4013 38.913882
9.775711 -24.896258 38.397627
9.69546 -23.14045 38.307454
5.11709 -28.619497 41.042761
5.893885 -29.284841 41.107525
6.042501 -27.651398 40.709368
4.795417 -29.741509 40.55772
5.11709 -28.619497 41.042761
4.944033 -28.108064 40.159563
4.51344 -30.642992 39.964003
4.795417 -29.741509 40.55772
4.823049 -30.06295 38.728947
4.907533 -28.587674 38.410057
5.10822 -29.420548 37.464482
4.51344 -30.642992 39.964003
4.823049 -30.06295 38.728947
7.113918 -17.389454 32.072163
7.158615 -15.683816 32.056454
7.797629 -17.057465 31.702034
8.158825 -23.010033 29.848789
7.682087 -21.27709 29.761902
7.601221 -22.794621 29.153146
8.345271 -23.178505 30.549976
8.158825 -23.010033 29.848789
8.264405 -24.696036 29.941219
7.878801 -23.473184 31.079532
7.773222 -21.787181 30.987102
8.345271 -23.178505 30.549976
8.339157 -26.503414 30.641458
8.638718 -26.371066 30.091683
7.471378 -25.080104 30.844411
8.339157 -26.503414 30.641458
7.359685 -26.719009 30.843463
4.428427 -29.945183 31.244427
4.943574 -28.595388 31.342394
5.008363 -29.716307 30.4289
4.433597 -30.279221 32.334205
4.428427 -29.945183 31.244427
4.904453 -30.789403 33.685043
4.834493 -29.334447 33.508758
4.433597 -30.279221 32.334205
5.333333 -31.152859 34.967941
4.904453 -30.789403 33.685043
3 218 217 55
3 216 217 218
3 219 55 220
3 0 221 223
3 221 56 222
3 221 222 223
3 224 59 225
3 226 225 57
3 224 225 226
3 227 62 228
3 229 228 60
3 227 228 229
3 230 65 231
3 232 231 63
3 230 231 232
3 233 57 234
3 235 234 65
3 233 234 235
3 1 69 67
3 2 72 70
3 2 75 73
3 2 70 75
3 5 236 238
3 238 237 77
3 236 237 238
3 5 239 240
3 6 80 78
3 242 241 81
3 243 84 244
3 245 85 246
3 247 246 84
3 245 246 247
3 248 87 249
3 251 250 87
3 3 90 88
3 9 94 92
3 9 96 94
3 4 99 97
3 10 102 100
3 10 104 102
3 10 106 104
3 253 252 107
3 8 112 110
3 11 115 113
3 11 117 115
3 7 254 256
3 256 255 118
3 254 255 256
3 12 257 259
3 259 258 120
3 257 258 259
3 12 260 262
3 260 122 261
3 260 261 262
3 12 120 122
3 263 123 264
3 265 124 266
3 267 266 123
3 265 266 267
3 268 127 269
3 270 269 125
3 268 269 270
3 15 271 272
3 16 128 58
3 16 129 128
3 17 273 274
3 19 130 61
3 19 131 130
3 20 134 132
3 22 135 64
3 22 136 135
3 22 138 136
3 15 139 66
3 15 275 277
3 277 276 139
3 275 276 277
3 24 142 140
3 26 143 68
3 26 144 143
3 27 147 145
3 28 150 148
3 30 151 71
3 30 152 151
3 279 278 121
3 32 280 282
3 280 154 281
3 280 281 282
3 32 155 154
3 283 156 284
3 33 157 74
3 33 158 157
3 33 159 158
3 28 160 76
3 28 148 160
3 13 285 287
3 285 286 287
3 34 163 161
3 35 164 79
3 35 165 164
3 14 166 126
3 36 167 82
3 36 168 167
3 36 169 168
3 37 170 83
3 37 288 290
3 290 289 170
3 288 289 290
3 37 291 292
3 293 171 294
3 296 295 86
3 29 172 149
3 38 173 89
3 38 174 173
3 39 297 299
3 297 175 298
3 297 298 299
3 39 300 302
3 302 301 175
3 300 301 302
3 39 303 304
3 40 178 176
3 42 179 91
3 42 180 179
3 18 305 306
3 43 181 93
3 43 182 181
3 43 183 182
3 44 184 95
3 44 185 184
3 31 186 153
3 45 187 98
3 45 188 187
3 21 189 133
3 46 190 101
3 46 191 190
3 46 192 191
3 47 193 103
3 47 194 193
3 47 195 194
3 48 196 105
3 48 197 196
3 23 198 137
3 49 199 108
3 49 200 199
3 49 307 309
3 309 308 200
3 307 308 309
3 311 310 109
3 312 201 313
3 315 314 201
3 41 202 177
3 50 203 111
3 50 204 203
3 25 205 141
3 51 206 114
3 51 207 206
3 51 208 207
3 52 316 318
3 318 317 116
3 316 317 318
3 52 319 320
3 321 209 322
3 323 322 162
3 321 322 323
3 53 210 119
3 53 211 210
3 324 212 325
3 326 325 146
3 324 325 326
3 54 327 329
3 327 213 328
3 327 328 329
3 54 214 213
3 54 215 214
3 55 330 332
3 332 331 12
3 330 331 332
3 334 333 55
3 55 335 336
3 55 337 339
3 337 12 338
3 337 338 339
3 56 340 341
3 56 342 343
3 57 58 15
3 59 58 57
3 59 16 58
3 60 61 17
3 62 61 60
3 62 19 61
3 63 64 20
3 65 64 63
3 65 22 64
3 65 66 22
3 57 66 65
3 57 15 66
3 67 68 24
3 69 68 67
3 69 26 68
3 345 344 27
3 70 71 28
3 72 71 70
3 72 30 71
3 346 32 347
3 73 348 350
3 348 74 349
3 348 349 350
3 75 74 73
3 75 33 74
3 75 76 33
3 70 76 75
3 70 28 76
3 77 351 353
3 353 352 13
3 351 352 353
3 355 354 77
3 78 79 34
3 80 79 78
3 80 35 79
3 81 82 14
3 356 82 357
3 358 357 81
3 356 357 358
3 359 36 360
3 361 360 82
3 359 360 361
3 362 83 363
3 364 363 36
3 362 363 364
3 84 365 367
3 365 83 366
3 365 366 367
3 84 37 83
3 84 368 370
3 370 369 37
3 368 369 370
3 85 371 373
3 373 372 84
3 371 372 373
3 85 374 375
3 376 86 377
3 87 378 380
3 378 86 379
3 378 379 380
3 87 381 383
3 383 382 86
3 381 382 383
3 87 384 385
3 387 386 87
3 88 89 29
3 90 89 88
3 90 38 89
3 388 39 389
3 391 390 39
3 392 91 393
3 394 393 40
3 392 393 394
3 395 91 396
3 397 42 398
3 399 398 91
3 397 398 399
3 92 93 18
3 94 93 92
3 94 43 93
3 94 95 43
3 96 95 94
3 96 44 95
3 97 98 31
3 99 98 97
3 99 45 98
3 100 101 21
3 102 101 100
3 102 46 101
3 102 103 46
3 104 103 102
3 104 47 103
3 104 105 47
3 106 105 104
3 106 48 105
3 107 108 23
3 400 108 401
3 402 401 107
3 400 401 402
3 403 49 404
3 405 404 108
3 403 404 405
3 406 109 407
3 408 407 49
3 406 407 408
3 409 109 410
3 412 411 109
3 110 111 41
3 112 111 110
3 112 50 111
3 113 114 25
3 115 114 113
3 115 51 114
3 115 116 51
3 117 116 115
3 117 52 116
3 118 413 415
3 413 119 414
3 413 414 415
3 416 119 417
3 418 417 118
3 416 417 418
3 419 53 420
3 421 420 119
3 419 420 421
3 422 54 423
3 425 424 54
3 120 121 2
3 426 121 427
3 428 427 120
3 426 427 428
3 430 429 121
3 432 431 12
3 122 433 434
3 122 435 436
3 122 437 439
3 437 73 438
3 437 438 439
3 120 73 122
3 120 2 73
3 440 13 441
3 123 442 443
3 123 444 446
3 444 13 445
3 444 445 446
3 123 77 13
3 124 77 123
3 124 5 77
3 125 126 6
3 127 126 125
3 127 14 126
3 447 127 448
3 449 127 450
3 451 14 452
3 453 452 127
3 451 452 453
3 454 81 455
3 456 455 14
3 454 455 456
3 457 81 458
3 460 459 81
3 58 461 463
3 463 462 15
3 461 462 463
3 128 464 466
3 466 465 58
3 464 465 466
3 128 467 468
3 128 469 470
3 129 471 473
3 473 472 128
3 471 472 473
3 129 474 475
3 477 476 3
3 478 18 479
3 61 480 482
3 482 481 17
3 480 481 482
3 130 483 485
3 485 484 61
3 483 484 485
3 130 486 488
3 486 18 487
3 486 487 488
3 130 92 18
3 131 92 130
3 131 9 92
3 132 133 4
3 134 133 132
3 134 21 133
3 64 134 20
3 135 134 64
3 135 21 134
3 135 100 21
3 136 100 135
3 136 10 100
3 136 137 10
3 138 137 136
3 138 23 137
3 66 138 22
3 139 138 66
3 139 23 138
3 139 107 23
3 489 107 490
3 491 490 139
3 489 490 491
3 493 492 107
3 140 141 8
3 142 141 140
3 142 25 141
3 68 142 24
3 143 142 68
3 143 25 142
3 143 113 25
3 144 113 143
3 144 11 113
3 145 146 7
3 147 146 145
3 147 494 496
3 496 495 146
3 494 495 496
3 497 147 498
3 499 498 27
3 497 498 499
3 500 147 501
3 503 502 147
3 148 504 506
3 504 149 505
3 504 505 506
3 150 149 148
3 150 29 149
3 71 150 28
3 151 150 71
3 151 29 150
3 151 88 29
3 152 88 151
3 152 3 88
3 121 72 2
3 507 72 508
3 509 508 121
3 507 508 509
3 510 30 511
3 512 511 72
3 510 511 512
3 513 30 514
3 515 152 516
3 517 516 30
3 515 516 517
3 518 152 519
3 520 3 521
3 522 521 152
3 520 521 522
3 524 523 3
3 525 153 526
3 527 153 528
3 529 31 530
3 531 530 153
3 529 530 531
3 154 532 533
3 154 534 536
3 534 31 535
3 534 535 536
3 154 97 31
3 155 97 154
3 155 4 97
3 156 537 538
3 156 539 541
3 539 32 540
3 539 540 541
3 74 542 544
3 542 156 543
3 542 543 544
3 157 156 74
3 157 32 156
3 157 155 32
3 158 155 157
3 158 4 155
3 158 132 4
3 159 132 158
3 159 20 132
3 76 159 33
3 160 159 76
3 160 20 159
3 160 63 20
3 148 63 160
3 148 545 547
3 547 546 63
3 545 546 547
3 549 548 13
3 161 162 1
3 163 162 161
3 163 550 552
3 552 551 162
3 550 551 552
3 79 163 34
3 164 163 79
3 164 553 555
3 555 554 163
3 553 554 555
3 164 556 558
3 556 118 557
3 556 557 558
3 165 118 164
3 165 7 118
3 126 80 6
3 166 80 126
3 166 35 80
3 82 166 14
3 167 166 82
3 167 35 166
3 167 165 35
3 168 165 167
3 168 7 165
3 168 145 7
3 169 145 168
3 169 27 145
3 83 169 36
3 170 169 83
3 170 27 169
3 170 559 561
3 561 560 27
3 559 560 561
3 563 562 170
3 565 564 37
3 566 85 567
3 568 85 569
3 571 570 85
3 171 572 573
3 171 574 575
3 86 576 578
3 576 171 577
3 576 577 578
3 579 171 580
3 581 580 86
3 579 580 581
3 583 582 171
3 149 584 586
3 584 59 585
3 584 585 586
3 172 59 149
3 172 16 59
3 89 172 29
3 173 172 89
3 173 16 172
3 173 129 16
3 174 129 173
3 174 587 589
3 589 588 129
3 587 588 589
3 590 90 591
3 592 591 3
3 590 591 592
3 593 90 594
3 595 38 596
3 597 596 90
3 595 596 597
3 175 598 599
3 175 600 602
3 600 38 601
3 600 601 602
3 175 174 38
3 603 174 604
3 605 604 175
3 603 604 605
3 607 606 174
3 609 608 39
3 176 177 0
3 178 177 176
3 178 41 177
3 91 178 40
3 179 178 91
3 179 41 178
3 179 110 41
3 180 110 179
3 180 8 110
3 610 42 611
3 93 612 614
3 614 613 18
3 612 613 614
3 181 615 617
3 617 616 93
3 615 616 617
3 181 618 620
3 618 42 619
3 618 619 620
3 181 180 42
3 182 180 181
3 182 8 180
3 182 140 8
3 183 140 182
3 183 24 140
3 95 183 43
3 184 183 95
3 184 24 183
3 184 67 24
3 185 67 184
3 185 1 67
3 153 621 623
3 621 62 622
3 621 622 623
3 186 62 153
3 186 19 62
3 98 186 31
3 187 186 98
3 187 19 186
3 187 131 19
3 188 131 187
3 188 9 131
3 133 99 4
3 189 99 133
3 189 45 99
3 101 189 21
3 190 189 101
3 190 45 189
3 190 188 45
3 191 188 190
3 191 9 188
3 191 96 9
3 192 96 191
3 192 44 96
3 103 192 46
3 193 192 103
3 193 44 192
3 193 185 44
3 194 185 193
3 194 1 185
3 194 161 1
3 195 161 194
3 195 34 161
3 105 195 47
3 196 195 105
3 196 34 195
3 196 78 34
3 197 78 196
3 197 6 78
3 137 106 10
3 198 106 137
3 198 48 106
3 108 198 23
3 199 198 108
3 199 48 198
3 199 197 48
3 200 197 199
3 200 6 197
3 200 125 6
3 624 125 625
3 626 625 200
3 624 625 626
3 628 627 125
3 109 629 631
3 631 630 49
3 629 630 631
3 633 632 109
3 634 0 635
3 634 635 636
3 201 637 638
3 201 639 641
3 639 0 640
3 639 640 641
3 201 176 0
3 642 176 643
3 644 643 201
3 642 643 644
3 645 40 646
3 647 646 176
3 645 646 647
3 648 40 649
3 651 650 40
3 652 17 653
3 654 17 655
3 656 60 657
3 658 657 17
3 656 657 658
3 659 60 660
3 662 661 60
3 177 56 0
3 202 56 177
3 202 663 665
3 665 664 56
3 663 664 665
3 111 202 41
3 203 202 111
3 203 666 668
3 668 667 202
3 666 667 668
3 203 669 671
3 669 124 670
3 669 670 671
3 204 124 203
3 204 5 124
3 141 112 8
3 205 112 141
3 205 50 112
3 114 205 25
3 206 205 114
3 206 50 205
3 206 204 50
3 207 204 206
3 207 5 204
3 207 672 674
3 674 673 5
3 672 673 674
3 208 675 677
3 677 676 207
3 675 676 677
3 208 678 679
3 116 208 51
3 680 208 681
3 682 681 116
3 680 681 682
3 684 683 208
3 162 69 1
3 209 69 162
3 209 26 69
3 119 685 687
3 685 209 686
3 685 686 687
3 210 209 119
3 210 26 209
3 210 144 26
3 211 144 210
3 211 11 144
3 146 688 690
3 690 689 7
3 688 689 690
3 212 691 693
3 693 692 146
3 691 692 693
3 212 694 696
3 694 53 695
3 694 695 696
3 697 212 698
3 213 699 701
3 699 212 700
3 699 700 701
3 213 53 212
3 213 211 53
3 214 211 213
3 214 11 211
3 214 117 11
3 215 117 214
3 215 52 117
3 702 215 703
3 704 703 54
3 702 703 704
3 705 215 706
3 707 52 708
3 709 708 215
3 707 708 709
3 711 710 52
