ply
format ascii 1.0
element vertex 628
property float x
property float y
property float z
element face 619
property list uchar int vertex_index
end_header
44.051384 -68.895798 6.383364
35.604076 -82.505844 -0.232191
43.95768 -76.680252 -9.358696
26.355118 -92.113884 0.967111
30.951794 -91.230247 -6.384714
47.952099 -78.375381 5.473451
43.268951 -74.089134 0.226062
42.096516 -83.714195 -3.780142
39.04287 -87.493408 -13.628828
26.113708 -97.184837 -1.423414
43.146656 -63.715229 6.177566
47.764507 -62.274834 3.684587
43.396904 -64.660645 3.503883
43.332699 -69.376266 -16.246777
44.7248 -82.139137 1.497531
39.915047 -85.390709 -0.731939
29.228275 -95.188942 -11.148224
34.808384 -89.289223 -10.73213
42.981449 -74.764114 10.58342
42.12244 -76.496559 -4.21078
40.679626 -68.450356 -2.417958
42.503155 -70.03994 -6.437389
29.944595 -86.523453 -0.221219
34.099762 -88.288368 -2.493894
28.860126 -92.418503 -2.307904
43.447151 -76.892662 -12.858388
45.018913 -70.452896 -10.10246
47.633018 -73.35553 5.527556
43.963268 -71.585663 2.417592
46.715717 -76.348251 2.105648
44.480583 -80.344528 -7.12159
37.105309 -87.390137 -5.223381
41.237644 -85.236313 -9.247725
43.803883 -81.635483 -12.348818
40.093758 -81.595474 -13.696973
40.782791 -65.825554 8.958712
40.516171 -67.873856 13.050283
44.804108 -70.778603 9.907873
48.763863 -74.994278 10.198949
43.198158 -78.258347 6.718989
36.333992 -78.794609 3.660707
41.617764 -66.069717 0.925876
43.134575 -66.286514 6.29329
44.007843 -64.365524 4.956805
43.381798 -67.0354 4.709636
38.585522 -81.858208 1.428697
40.697441 -83.367653 1.305065
38.006798 -83.970161 -0.530879
42.633041 -76.837387 -7.257893
41.364727 -73.681252 -5.6826
42.862965 -73.688866 -7.803786
27.761328 -89.396988 0.712776
29.243338 -89.717911 -1.024334
27.225195 -92.286377 -0.637416
25.58602 -98.701706 -4.251162
28.096905 -97.200188 -3.889573
42.587486 -76.838287 -14.549942
45.027214 -73.397499 -13.839872
42.592484 -66.718185 -14.708961
44.13438 -66.254128 -14.565488
48.643059 -75.589714 5.585465
47.454914 -74.845078 3.271911
47.64677 -77.491791 3.361031
43.623863 -83.41893 -1.369265
45.445656 -80.782822 -0.124488
44.189621 -81.939514 -2.783005
43.244164 -82.058838 -5.382399
32.558529 -90.044083 -4.146621
35.996742 -88.93766 -3.543242
34.190102 -89.189819 -5.508677
37.364399 -88.95253 -12.328455
38.16621 -86.985817 -10.289316
40.686031 -86.416061 -11.621929
43.140171 -83.800827 -10.988209
41.94619 -84.6605 -13.079854
42.19112 -81.91188 -13.669942
39.569923 -84.663712 -13.973793
42.781509 -70.223885 12.95665
42.419445 -69.031174 11.359571
45.321823 -71.320114 11.489767
47.505062 -72.400253 10.313076
47.180294 -73.702789 11.705228
40.048592 -74.936699 9.727854
43.154774 -76.10791 8.664918
39.9883 -76.572464 7.129378
36.810051 -77.312218 6.257426
27.765217 -85.248955 4.539117
43.463371 -72.920204 1.063136
41.983601 -69.436668 1.543793
41.698265 -70.668884 0.518368
42.111778 -64.808006 -3.545006
41.965645 -63.600258 -1.664462
26.070984 -94.776276 -0.664736
22.55167 -98.726761 -4.663751
47.174187 -62.449364 5.251261
45.650066 -62.905682 5.314935
45.543968 -62.773293 3.85788
44.929176 -62.269104 2.766453
40.977501 -66.223068 -14.287718
46.383148 -80.34404 3.633401
42.435757 -84.313065 0.390199
41.352345 -85.564751 -2.236252
30.016464 -93.359177 -8.668047
32.677414 -90.413315 -8.51432
32.007992 -92.352005 -10.856465
45.159565 -74.026604 13.766554
45.341133 -74.628036 11.866358
42.910347 -75.401047 -1.631831
41.483543 -71.901917 -0.782241
40.963634 -73.109192 -3.216804
41.139343 -69.35643 -4.665746
42.532467 -65.689827 -5.412521
32.569439 -83.936142 -0.656296
34.877247 -85.196762 -1.456809
31.91889 -87.354332 -1.529867
30.829136 -90.065308 -2.852426
29.937189 -92.176132 -4.179399
27.834372 -94.953453 -1.725318
28.898838 -94.244873 -6.543259
28.154917 -96.391068 -9.243297
44.176846 -76.716034 -11.233052
44.318569 -73.643509 -9.636312
44.623058 -73.606781 -11.629626
45.522316 -70.107559 -12.221272
45.574646 -66.212486 -12.479085
45.362984 -69.117111 -15.971921
45.382381 -65.280327 -14.029676
44.655689 -62.917595 -11.846791
45.740234 -71.263931 6.054845
44.436451 -70.270065 4.141271
46.268974 -72.620796 3.662734
45.539875 -73.911102 2.157395
44.955868 -75.075615 1.307224
46.701149 -79.404953 1.918979
46.029625 -77.981888 0.862171
43.495407 -78.767075 -5.640485
44.511158 -78.526352 -8.399947
37.053158 -86.578896 -1.855344
38.884102 -87.0056 -2.889534
39.712334 -85.487724 -4.541886
35.457535 -87.515884 -7.853503
38.535839 -85.502899 -7.310965
41.146523 -83.639923 -6.455345
43.406902 -82.735962 -8.316786
44.843517 -80.893021 -9.851597
44.851028 -78.838928 -10.924059
43.754128 -79.209122 -12.799886
42.16235 -79.323746 -13.844484
41.66309 -64.934128 7.221101
42.441967 -67.487038 7.698142
40.528755 -66.671814 10.960108
42.354656 -68.594849 9.561137
44.58839 -70.087914 8.092278
46.817284 -71.934364 8.203368
49.038395 -74.107956 8.039472
49.064251 -76.77388 7.674788
45.955681 -75.509415 10.268368
46.607338 -77.23806 8.651529
46.549381 -79.111877 6.748337
35.664131 -80.627274 1.558693
32.372292 -82.018539 0.901307
29.631535 -84.347565 1.370291
27.754416 -87.097107 2.405102
42.722652 -68.262184 2.976147
42.286827 -65.257248 2.098312
43.673111 -62.130657 1.67257
40.963959 -67.194565 -0.435893
44.0019 -70.279724 -8.35443
43.545006 -66.340736 -7.006211
25.963325 -98.720566 -5.825938
24.429799 -99.057121 -6.07409
43.529837 -75.117111 -15.117584
41.667915 -76.783886 -15.023427
42.442158 -65.339146 -13.602363
41.690722 -65.299724 -13.692663
44.129505 -71.383427 13.038503
42.810859 -70.864239 13.696638
45.399662 -71.931542 12.305062
44.051666 -70.771999 12.223209
44.129505 -71.383427 13.038503
46.328897 -73.122879 12.412792
46.251058 -72.511451 11.597497
45.399662 -71.931542 12.305062
38.677234 -76.439682 8.125113
40.018446 -75.754582 8.428616
38.70738 -75.6218 9.42435
37.08811 -76.809559 7.689137
38.399175 -76.942341 6.693402
38.677234 -76.439682 8.125113
43.596296 -62.948275 -3.220285
43.540321 -63.603722 -3.966339
22.201699 -99.283798 -3.266027
23.140853 -98.778335 -3.296083
44.398361 -63.310456 5.746251
45.056391 -62.481844 5.787977
43.804686 -62.886617 6.219292
40.117138 -67.557446 -14.285532
41.139236 -67.799038 -14.86874
39.493225 -67.482906 -14.784332
40.353588 -66.148529 -14.786518
40.117138 -67.557446 -14.285532
45.030649 -74.64848 14.220344
44.114446 -73.536728 14.80362
44.38747 -74.417576 13.307541
45.030649 -74.64848 14.220344
28.591325 -95.996551 -3.994909
28.184093 -97.092534 -5.428286
28.58506 -95.614876 -6.755129
28.992292 -94.518894 -5.321752
28.213099 -96.687973 -8.105148
28.526878 -95.317971 -7.893278
28.58506 -95.614876 -6.755129
48.82027 -62.286734 3.630839
48.52511 -62.373999 4.414176
47.469347 -62.362099 4.467924
45.769218 -69.626251 -13.375554
45.274765 -71.752529 -13.030572
45.521667 -71.271221 -14.184855
45.795383 -67.678714 -13.504461
45.548481 -68.160022 -12.350179
45.769218 -69.626251 -13.375554
44.347842 -69.246689 -16.109349
43.83293 -71.016728 -16.098059
42.817787 -71.146305 -16.235487
44.606508 -64.172995 -13.28117
44.758381 -65.767227 -14.297582
43.982507 -64.659895 -13.549076
44.243162 -62.991629 -12.189728
45.019035 -64.098961 -12.938233
44.606508 -64.172995 -13.28117
44.572428 -61.595949 -11.208069
44.243162 -62.991629 -12.189728
45.544167 -78.681134 -0.346523
45.73764 -79.382355 0.368841
45.252182 -80.081601 -0.839853
45.285696 -77.422363 0.239514
45.544167 -78.681134 -0.346523
43.987995 -79.555802 -6.381037
43.929907 -79.500118 -4.904136
44.422495 -80.288845 -5.644689
40.14576 -80.267288 -14.002974
41.180056 -79.131424 -14.076729
41.128054 -80.45961 -13.770729
41.22294 -65.379841 8.089906
40.965971 -64.044003 7.886112
40.525822 -64.489716 8.754917
39.544432 -67.221371 14.192341
39.590488 -67.957409 14.993893
40.562227 -68.609894 13.851835
39.655859 -66.483334 13.04163
38.68412 -65.830849 14.183688
39.544432 -67.221371 14.192341
40.522463 -67.272835 12.005195
39.662151 -65.882313 11.996543
39.655859 -66.483334 13.04163
42.936756 -79.071236 5.869048
44.612367 -79.498001 5.883722
44.873769 -78.685112 6.733663
37.641159 -79.380161 3.406471
38.027879 -78.58852 4.322382
35.999061 -79.710941 2.6097
37.306229 -80.296494 2.355464
37.641159 -79.380161 3.406471
31.049804 -82.231021 2.260044
32.547844 -81.037888 1.96876
29.679426 -83.395534 2.494536
31.001914 -83.183052 1.135799
31.049804 -82.231021 2.260044
27.375761 -87.797439 3.775527
27.759816 -86.173031 3.47211
27.381162 -86.873363 4.842535
27.396638 -88.595409 2.750506
27.375761 -87.797439 3.775527
42.25622 -62.975037 -0.818362
43.787926 -61.743461 -1.482251
44.448677 -64.827675 -6.999678
44.090441 -66.625621 -7.782081
44.397833 -64.665638 -6.423707
44.448677 -64.827675 -6.999678
39.641481 -82.612931 1.366881
41.193153 -82.285942 2.416826
40.137194 -81.531219 2.478642
30.036554 -94.35244 -12.13164
28.570873 -95.458 -12.537636
27.218768 -97.969807 -5.645143
26.841462 -97.950947 -4.070367
25.963325 -98.720566 -5.825938
28.184093 -97.092534 -5.428286
27.218768 -97.969807 -5.645143
48.679384 -61.391033 3.006724
47.615341 -61.613161 3.142175
44.749701 -73.396717 -14.762549
43.80735 -75.117893 -14.194907
43.529837 -75.117111 -15.117584
45.521667 -71.271221 -14.184855
44.749701 -73.396717 -14.762549
43.213106 -65.107117 -13.530627
43.363432 -66.486156 -14.637225
42.442158 -65.339146 -13.602363
43.982507 -64.659895 -13.549076
43.213106 -65.107117 -13.530627
44.624165 -80.659947 -2.169112
45.252182 -80.081601 -0.839853
44.817639 -81.361168 -1.453747
44.277014 -81.086338 -3.475396
44.624165 -80.659947 -2.169112
43.804285 -81.146 -4.775094
44.277014 -81.086338 -3.475396
43.716893 -81.999176 -4.082702
43.862374 -81.201683 -6.251995
44.422495 -80.288845 -5.644689
43.804285 -81.146 -4.775094
40.046248 -64.815328 9.774993
40.525822 -64.489716 8.754917
41.694896 -69.784909 13.805018
42.810859 -70.864239 13.696638
41.64884 -69.04887 13.003467
40.562227 -68.609894 13.851835
41.694896 -69.784909 13.805018
39.855034 -77.477447 6.056717
41.459963 -78.320389 5.851523
41.593229 -77.415405 6.924183
38.265909 -77.847324 5.620741
39.855034 -77.477447 6.056717
38.399175 -76.942341 6.693402
36.572022 -78.053414 4.959066
38.027879 -78.58852 4.322382
38.265909 -77.847324 5.620741
28.072245 -84.768696 5.47746
28.746266 -83.846229 4.078949
27.499351 -86.424038 5.870872
28.072245 -84.768696 5.47746
27.806379 -85.943779 6.809216
27.381162 -86.873363 4.842535
27.499351 -86.424038 5.870872
43.523229 -62.3444 -2.280013
42.038712 -64.204132 -2.604734
43.596296 -62.948275 -3.220285
43.787926 -61.743461 -1.482251
43.523229 -62.3444 -2.280013
44.827394 -68.681702 -9.330205
45.093422 -68.732269 -10.246595
25.591791 -94.587174 0.139609
26.213051 -93.44508 0.151188
25.733858 -93.255978 0.955533
24.943193 -95.700359 -0.598585
25.591791 -94.587174 0.139609
24.964555 -96.90464 -0.977924
26.092346 -95.980557 -1.044075
24.943193 -95.700359 -0.598585
24.921872 -98.007373 -1.675915
24.964555 -96.90464 -0.977924
23.77272 -97.727176 -1.230425
24.658028 -98.765808 -3.089789
25.849864 -97.943272 -2.837288
24.921872 -98.007373 -1.675915
24.068845 -98.714234 -4.457457
24.658028 -98.765808 -3.089789
23.140853 -98.778335 -3.296083
22.912624 -99.069649 -6.280385
24.429799 -99.057121 -6.07409
24.068845 -98.714234 -4.457457
45.818451 -62.253685 5.756139
46.527417 -61.695904 5.767081
46.412126 -62.677523 5.283098
45.818451 -62.253685 5.756139
45.056391 -62.481844 5.787977
46.505071 -61.862391 3.228821
47.615341 -61.613161 3.142175
46.654238 -62.524063 3.771234
46.197676 -61.610296 2.683108
46.505071 -61.862391 3.228821
45.236572 -62.521198 3.312167
46.029224 -61.206867 2.261009
46.197676 -61.610296 2.683108
41.766096 -71.021896 -15.870259
42.817787 -71.146305 -16.235487
42.316835 -69.375637 -15.84827
41.766096 -71.021896 -15.870259
41.946728 -68.046596 -15.079362
42.962592 -68.047225 -15.477869
42.316835 -69.375637 -15.84827
41.784993 -66.470627 -14.49834
41.946728 -68.046596 -15.079362
41.139236 -67.799038 -14.86874
40.88323 -65.052166 -13.482042
41.690722 -65.299724 -13.692663
41.784993 -66.470627 -14.49834
40.337463 -64.870012 -13.942551
40.88323 -65.052166 -13.482042
40.337463 -64.870012 -13.942551
40.353588 -66.148529 -14.786518
45.963541 -80.37291 4.329768
47.167623 -79.359711 4.553426
46.748016 -79.38858 5.249793
44.899979 -81.292321 3.288015
45.963541 -80.37291 4.329768
44.070805 -82.189869 2.220079
45.553974 -81.241589 2.565466
44.899979 -81.292321 3.288015
42.057125 -82.804127 2.123846
41.193153 -82.285942 2.416826
42.926283 -83.276833 1.666413
42.057125 -82.804127 2.123846
41.566599 -83.840359 0.847632
43.580279 -83.226101 0.943865
44.070805 -82.189869 2.220079
42.926283 -83.276833 1.666413
31.426413 -92.933972 -11.98576
30.618133 -93.770474 -11.002344
30.036554 -94.35244 -12.13164
33.070811 -91.790085 -11.767283
31.426413 -92.933972 -11.98576
34.471007 -90.258694 -11.705115
33.408188 -90.820614 -10.794297
33.070811 -91.790085 -11.767283
35.749014 -90.090348 -12.503277
36.086391 -89.120877 -11.530292
34.471007 -90.258694 -11.705115
36.509733 -89.189194 -12.982002
35.749014 -90.090348 -12.503277
37.348968 -88.459633 -13.632188
38.203634 -88.222969 -12.978642
36.509733 -89.189194 -12.982002
37.712101 -87.247872 -13.915056
37.348968 -88.459633 -13.632188
43.999887 -72.765599 14.101591
44.114446 -73.536728 14.80362
45.318533 -73.284786 13.443455
43.999887 -72.765599 14.101591
45.250349 -74.32732 12.816456
45.409317 -73.585502 12.493357
45.318533 -73.284786 13.443455
44.478254 -74.718292 12.357443
45.250349 -74.32732 12.816456
44.38747 -74.417576 13.307541
43.298412 -74.786331 11.715974
44.161291 -74.696075 11.224889
44.478254 -74.718292 12.357443
42.019802 -74.92416 11.442762
43.298412 -74.786331 11.715974
40.553373 -75.010452 11.014979
41.51502 -74.850407 10.155637
42.019802 -74.92416 11.442762
39.213576 -75.615723 10.860783
40.553373 -75.010452 11.014979
38.70738 -75.6218 9.42435
39.213576 -75.615723 10.860783
43.750665 -64.044632 -4.900097
43.540321 -63.603722 -3.966339
42.322122 -65.248917 -4.478763
28.460058 -94.873184 -2.912781
27.965638 -96.07682 -2.807446
28.591325 -95.996551 -3.994909
28.972935 -93.605709 -3.204074
28.347249 -93.685978 -2.016611
28.460058 -94.873184 -2.912781
29.511467 -93.484523 -4.139822
29.398657 -92.297317 -3.243652
28.972935 -93.605709 -3.204074
29.418014 -93.210502 -5.361329
29.511467 -93.484523 -4.139822
28.992292 -94.518894 -5.321752
27.394862 -97.336388 -9.584224
28.213099 -96.687973 -8.105148
27.592675 -96.908951 -10.725472
27.394862 -97.336388 -9.584224
28.129354 -96.307888 -11.677935
28.691596 -95.790005 -10.195761
27.592675 -96.908951 -10.725472
27.471952 -96.576946 -13.067347
28.570873 -95.458 -12.537636
28.129354 -96.307888 -11.677935
48.046554 -62.132988 5.221532
46.527417 -61.695904 5.767081
48.046554 -62.132988 5.221532
48.52511 -62.373999 4.414176
48.82027 -62.286734 3.630839
48.679384 -61.391033 3.006724
45.345123 -68.5596 -11.306
45.093422 -68.732269 -10.246595
45.270614 -70.280227 -11.161866
45.371289 -66.612064 -11.434907
45.345123 -68.5596 -11.306
45.548481 -68.160022 -12.350179
45.272922 -64.771553 -11.362561
45.371289 -66.612064 -11.434907
44.917586 -71.256523 -15.828573
43.83293 -71.016728 -16.098059
45.689552 -69.131027 -15.250879
44.917586 -71.256523 -15.828573
45.699251 -67.212635 -14.279757
45.689552 -69.131027 -15.250879
45.372682 -67.198719 -15.000799
45.478514 -65.746407 -13.25438
45.795383 -67.678714 -13.504461
45.699251 -67.212635 -14.279757
44.813444 -63.124108 -11.046414
45.272922 -64.771553 -11.362561
45.115167 -64.56504 -12.162938
45.025055 -61.458706 -10.767818
44.813444 -63.124108 -11.046414
45.025055 -61.458706 -10.767818
44.572428 -61.595949 -11.208069
44.748818 -75.969227 0.46204
45.492747 -76.528751 1.084697
45.285696 -77.422363 0.239514
43.905359 -75.475987 -0.078541
44.112409 -74.582375 0.766643
44.748818 -75.969227 0.46204
43.726057 -76.131943 -1.007488
43.089649 -74.745091 -0.702885
43.905359 -75.475987 -0.078541
43.398539 -76.708592 -2.175116
43.726057 -76.131943 -1.007488
43.004585 -77.256348 -3.46459
42.516393 -75.948803 -2.921305
43.398539 -76.708592 -2.175116
43.691069 -78.391605 -4.179443
43.929907 -79.500118 -4.904136
42.808923 -77.631817 -4.925632
43.004585 -77.256348 -3.46459
43.691069 -78.391605 -4.179443
41.392624 -77.888694 -14.429458
42.374918 -78.081017 -14.197213
41.180056 -79.131424 -14.076729
41.667915 -76.783886 -15.023427
41.392624 -77.888694 -14.429458
37.975628 -85.833023 -14.087538
39.306397 -86.07856 -13.80131
37.712101 -87.247872 -13.915056
38.170288 -84.537556 -13.877097
37.975628 -85.833023 -14.087538
38.432206 -83.003437 -13.738687
39.83184 -83.129593 -13.835383
38.170288 -84.537556 -13.877097
38.828892 -81.372497 -13.467101
38.432206 -83.003437 -13.738687
40.14576 -80.267288 -14.002974
38.828892 -81.372497 -13.467101
42.626114 -63.055952 6.665438
43.804686 -62.886617 6.219292
41.884331 -63.665402 7.187206
40.965971 -64.044003 7.886112
42.404873 -64.324679 6.699333
42.626114 -63.055952 6.665438
41.884331 -63.665402 7.187206
39.91923 -65.238459 10.775691
39.662151 -65.882313 11.996543
40.655773 -66.248684 9.95941
40.046248 -64.815328 9.774993
39.91923 -65.238459 10.775691
46.260714 -74.165413 11.785793
46.328897 -73.122879 12.412792
45.409317 -73.585502 12.493357
46.046657 -79.756828 5.887236
46.748016 -79.38858 5.249793
47.25074 -78.743629 6.110894
46.046657 -79.756828 5.887236
44.612367 -79.498001 5.883722
42.936756 -79.071236 5.869048
41.459963 -78.320389 5.851523
38.766924 -80.911961 2.290466
40.137194 -81.531219 2.478642
37.124826 -81.242741 1.493695
38.766924 -80.911961 2.290466
37.306229 -80.296494 2.355464
35.853752 -77.776341 7.279331
37.08811 -76.809559 7.689137
35.263201 -78.107716 5.979788
35.853752 -77.776341 7.279331
35.025171 -78.848911 4.681429
36.572022 -78.053414 4.959066
35.263201 -78.107716 5.979788
34.528694 -79.425922 3.34846
35.025171 -78.848911 4.681429
34.193764 -80.342255 2.297453
35.999061 -79.710941 2.6097
34.528694 -79.425922 3.34846
34.018211 -81.322907 1.23
34.193764 -80.342255 2.297453
32.547844 -81.037888 1.96876
28.698376 -84.79826 2.954704
29.679426 -83.395534 2.494536
28.746266 -83.846229 4.078949
27.400094 -89.74535 1.904342
27.757872 -88.247047 1.558939
27.396638 -88.595409 2.750506
26.696989 -91.103798 2.03151
27.058223 -90.755436 0.839943
27.400094 -89.74535 1.904342
26.383234 -92.480098 2.116129
26.696989 -91.103798 2.03151
25.733858 -93.255978 0.955533
26.383234 -92.480098 2.116129
21.047062 -99.513962 -3.61075
22.201699 -99.283798 -3.266027
21.044347 -99.326096 -5.451251
21.047062 -99.513962 -3.61075
22.912624 -99.069649 -6.280385
21.044347 -99.326096 -5.451251
45.401191 -61.137643 1.714068
46.029224 -61.206867 2.261009
44.301143 -62.19988 2.219511
41.755377 -64.77219 -0.204077
41.464802 -65.397412 -1.050177
42.25622 -62.975037 -0.818362
42.082279 -64.209766 0.476807
41.290862 -66.632141 0.244992
41.755377 -64.77219 -0.204077
43.109953 -62.240236 0.850154
42.645437 -64.100187 1.299223
42.082279 -64.209766 0.476807
44.985355 -60.910116 1.205681
43.109953 -62.240236 0.850154
45.401191 -61.137643 1.714068
44.985355 -60.910116 1.205681
44.318888 -68.595115 -8.45619
44.510407 -70.36631 -9.228445
44.827394 -68.681702 -9.330205
43.773453 -68.31023 -7.680321
44.318888 -68.595115 -8.45619
44.090441 -66.625621 -7.782081
43.891564 -64.340183 -5.626862
43.038736 -66.015282 -6.209366
44.397833 -64.665638 -6.423707
43.750665 -64.044632 -4.900097
43.891564 -64.340183 -5.626862
3 0 44 42
3 1 47 45
3 2 50 48
3 3 53 51
3 170 169 54
3 172 171 56
3 174 173 58
3 5 62 60
3 7 65 63
3 7 66 65
3 4 69 67
3 8 72 70
3 8 74 72
3 8 76 74
3 175 77 176
3 177 79 178
3 179 178 77
3 177 178 179
3 180 81 181
3 182 181 79
3 180 181 182
3 183 84 184
3 185 184 82
3 183 184 185
3 186 85 187
3 188 187 84
3 186 187 188
3 6 89 87
3 190 189 90
3 191 93 192
3 10 193 195
3 193 95 194
3 193 194 195
3 12 96 43
3 12 97 96
3 196 98 197
3 200 199 98
3 198 199 200
3 15 100 46
3 15 101 100
3 16 104 102
3 201 105 202
3 204 203 105
3 19 109 107
3 21 110 49
3 21 111 110
3 22 114 112
3 24 115 52
3 24 116 115
3 9 117 92
3 206 205 55
3 207 118 208
3 209 119 210
3 211 210 118
3 209 210 211
3 11 212 214
3 214 213 94
3 212 213 214
3 25 122 120
3 215 123 216
3 217 216 57
3 215 216 217
3 218 124 219
3 220 219 123
3 218 219 220
3 13 221 223
3 221 125 222
3 221 222 223
3 224 126 225
3 226 225 59
3 224 225 226
3 227 127 228
3 229 228 126
3 227 228 229
3 231 230 127
3 27 130 128
3 29 131 61
3 29 132 131
3 14 133 99
3 232 134 233
3 234 233 64
3 232 233 234
3 236 235 134
3 30 237 239
3 237 135 238
3 237 238 239
3 30 136 135
3 23 137 113
3 31 138 68
3 31 139 138
3 17 140 103
3 32 141 71
3 32 142 141
3 32 143 142
3 33 144 73
3 33 145 144
3 33 146 145
3 34 147 75
3 34 240 242
3 242 241 147
3 240 241 242
3 35 243 245
3 243 148 244
3 243 244 245
3 35 149 148
3 36 246 248
3 246 247 248
3 36 249 251
3 249 250 251
3 36 252 254
3 252 150 253
3 252 253 254
3 37 151 78
3 37 152 151
3 37 153 152
3 38 154 80
3 38 155 154
3 18 156 106
3 39 157 83
3 39 158 157
3 39 255 257
3 257 256 158
3 255 256 257
3 40 258 259
3 40 260 262
3 260 159 261
3 260 261 262
3 263 160 264
3 265 161 266
3 267 266 160
3 265 266 267
3 268 162 269
3 270 269 86
3 268 269 270
3 272 271 162
3 28 163 129
3 41 164 88
3 41 165 164
3 20 166 108
3 274 273 91
3 26 167 121
3 275 168 276
3 278 277 168
3 42 43 10
3 44 43 42
3 44 12 43
3 45 279 281
3 279 46 280
3 279 280 281
3 47 46 45
3 47 15 46
3 283 282 16
3 48 49 19
3 50 49 48
3 50 21 49
3 51 52 22
3 53 52 51
3 53 24 52
3 54 55 9
3 284 55 285
3 286 285 54
3 284 285 286
3 288 287 55
3 290 289 11
3 56 57 25
3 291 57 292
3 293 292 56
3 291 292 293
3 295 294 57
3 58 59 13
3 296 59 297
3 298 297 58
3 296 297 298
3 300 299 59
3 60 61 27
3 62 61 60
3 62 29 61
3 63 64 14
3 65 64 63
3 65 301 303
3 303 302 64
3 301 302 303
3 65 304 305
3 66 306 308
3 308 307 65
3 306 307 308
3 66 309 311
3 309 30 310
3 309 310 311
3 67 68 23
3 69 68 67
3 69 31 68
3 70 71 17
3 72 71 70
3 72 32 71
3 72 73 32
3 74 73 72
3 74 33 73
3 74 75 33
3 76 75 74
3 76 34 75
3 312 35 313
3 77 314 315
3 77 316 318
3 316 36 317
3 316 317 318
3 77 78 36
3 79 78 77
3 79 37 78
3 79 80 37
3 81 80 79
3 81 38 80
3 82 83 18
3 84 83 82
3 84 39 83
3 84 319 321
3 321 320 39
3 319 320 321
3 85 322 324
3 324 323 84
3 322 323 324
3 85 325 327
3 325 40 326
3 325 326 327
3 328 86 329
3 330 86 331
3 330 331 332
3 334 333 86
3 87 88 28
3 89 88 87
3 89 41 88
3 90 91 20
3 335 91 336
3 337 336 90
3 335 336 337
3 339 338 91
3 341 340 26
3 342 92 343
3 344 343 3
3 342 343 344
3 345 92 346
3 347 9 348
3 349 348 92
3 347 348 349
3 350 9 351
3 350 351 352
3 353 54 354
3 355 354 9
3 353 354 355
3 93 356 358
3 356 54 357
3 356 357 358
3 93 359 361
3 361 360 54
3 359 360 361
3 362 94 363
3 95 364 366
3 364 94 365
3 364 365 366
3 95 11 94
3 43 95 10
3 96 95 43
3 96 11 95
3 96 367 369
3 369 368 11
3 367 368 369
3 97 370 372
3 372 371 96
3 370 371 372
3 97 373 374
3 375 13 376
3 377 13 378
3 379 58 380
3 381 380 13
3 379 380 381
3 98 382 384
3 382 58 383
3 382 383 384
3 98 385 387
3 387 386 58
3 385 386 387
3 98 388 389
3 391 390 98
3 392 99 393
3 394 393 5
3 392 393 394
3 395 99 396
3 397 14 398
3 399 398 99
3 397 398 399
3 46 400 401
3 100 402 404
3 404 403 46
3 402 403 404
3 100 405 407
3 405 14 406
3 405 406 407
3 100 63 14
3 101 63 100
3 101 7 63
3 102 103 4
3 104 103 102
3 104 17 103
3 408 104 409
3 410 409 16
3 408 409 410
3 411 104 412
3 413 17 414
3 415 414 104
3 413 414 415
3 416 70 417
3 418 417 17
3 416 417 418
3 419 70 420
3 421 8 422
3 423 422 70
3 421 422 423
3 425 424 8
3 105 426 427
3 105 428 429
3 105 430 432
3 430 106 431
3 430 431 432
3 433 106 434
3 435 434 105
3 433 434 435
3 436 18 437
3 438 437 106
3 436 437 438
3 439 18 440
3 441 82 442
3 443 442 18
3 441 442 443
3 444 82 445
3 447 446 82
3 107 108 6
3 109 108 107
3 109 20 108
3 49 109 19
3 110 109 49
3 110 20 109
3 110 90 20
3 111 90 110
3 111 448 450
3 450 449 90
3 448 449 450
3 112 113 1
3 114 113 112
3 114 23 113
3 52 114 22
3 115 114 52
3 115 23 114
3 115 67 23
3 116 67 115
3 116 4 67
3 92 53 3
3 117 53 92
3 117 24 53
3 55 117 9
3 451 117 452
3 453 452 55
3 451 452 453
3 454 24 455
3 456 455 117
3 454 455 456
3 457 116 458
3 459 458 24
3 457 458 459
3 118 460 462
3 460 116 461
3 460 461 462
3 118 4 116
3 118 102 4
3 119 102 118
3 119 16 102
3 463 119 464
3 465 119 466
3 467 16 468
3 469 468 119
3 467 468 469
3 472 471 16
3 470 471 472
3 94 473 474
3 476 475 94
3 478 477 11
3 120 121 2
3 122 121 120
3 122 26 121
3 57 122 25
3 123 122 57
3 123 26 122
3 123 479 481
3 481 480 26
3 479 480 481
3 124 482 484
3 484 483 123
3 482 483 484
3 124 485 486
3 125 487 488
3 125 489 490
3 59 125 13
3 126 125 59
3 126 491 493
3 493 492 125
3 491 492 493
3 126 494 496
3 494 124 495
3 494 495 496
3 127 124 126
3 127 497 499
3 499 498 124
3 497 498 499
3 127 500 501
3 503 502 127
3 128 129 0
3 130 129 128
3 130 28 129
3 61 130 27
3 131 130 61
3 131 28 130
3 131 87 28
3 132 87 131
3 132 6 87
3 99 62 5
3 133 62 99
3 133 29 62
3 64 133 14
3 134 133 64
3 134 29 133
3 134 132 29
3 504 132 505
3 506 505 134
3 504 505 506
3 507 6 508
3 509 508 132
3 507 508 509
3 510 107 511
3 512 511 6
3 510 511 512
3 513 107 514
3 515 19 516
3 517 516 107
3 515 516 517
3 135 518 519
3 135 520 522
3 520 19 521
3 520 521 522
3 135 48 19
3 136 48 135
3 136 2 48
3 113 47 1
3 137 47 113
3 137 15 47
3 68 137 23
3 138 137 68
3 138 15 137
3 138 101 15
3 139 101 138
3 139 7 101
3 103 69 4
3 140 69 103
3 140 31 69
3 71 140 17
3 141 140 71
3 141 31 140
3 141 139 31
3 142 139 141
3 142 7 139
3 142 66 7
3 143 66 142
3 143 30 66
3 73 143 32
3 144 143 73
3 144 30 143
3 144 136 30
3 145 136 144
3 145 2 136
3 145 120 2
3 146 120 145
3 146 25 120
3 75 146 33
3 147 146 75
3 147 25 146
3 147 56 25
3 523 56 524
3 525 524 147
3 523 524 525
3 527 526 56
3 528 76 529
3 530 529 8
3 528 529 530
3 531 76 532
3 533 34 534
3 535 534 76
3 533 534 535
3 536 34 537
3 539 538 34
3 540 10 541
3 148 542 543
3 148 544 546
3 544 10 545
3 544 545 546
3 148 42 10
3 149 42 148
3 149 0 42
3 150 547 548
3 150 549 551
3 549 35 550
3 549 550 551
3 78 150 36
3 151 150 78
3 151 35 150
3 151 149 35
3 152 149 151
3 152 0 149
3 152 128 0
3 153 128 152
3 153 27 128
3 80 153 37
3 154 153 80
3 154 27 153
3 154 60 27
3 155 60 154
3 155 5 60
3 106 552 554
3 552 81 553
3 552 553 554
3 156 81 106
3 156 38 81
3 83 156 18
3 157 156 83
3 157 38 156
3 157 155 38
3 158 155 157
3 158 5 155
3 158 555 557
3 557 556 5
3 555 556 557
3 559 558 158
3 561 560 39
3 562 45 563
3 159 564 566
3 564 45 565
3 564 565 566
3 159 1 45
3 567 85 568
3 569 85 570
3 571 40 572
3 573 572 85
3 571 572 573
3 574 40 575
3 576 159 577
3 578 577 40
3 576 577 578
3 160 579 581
3 579 159 580
3 579 580 581
3 160 1 159
3 160 112 1
3 161 112 160
3 161 22 112
3 86 582 584
3 582 161 583
3 582 583 584
3 162 161 86
3 162 22 161
3 162 51 22
3 585 51 586
3 587 586 162
3 585 586 587
3 588 3 589
3 590 589 51
3 588 589 590
3 591 3 592
3 594 593 3
3 595 93 596
3 597 93 598
3 600 599 93
3 129 44 0
3 163 44 129
3 163 12 44
3 88 163 28
3 164 163 88
3 164 12 163
3 164 97 12
3 165 97 164
3 165 601 603
3 603 602 97
3 601 602 603
3 108 89 6
3 166 89 108
3 166 41 89
3 91 166 20
3 604 166 605
3 606 605 91
3 604 605 606
3 607 41 608
3 609 608 166
3 607 608 609
3 610 165 611
3 612 611 41
3 610 611 612
3 613 165 614
3 616 615 165
3 121 50 2
3 167 50 121
3 167 21 50
3 617 167 618
3 619 618 26
3 617 618 619
3 168 620 622
3 620 167 621
3 620 621 622
3 168 21 167
3 168 111 21
3 623 111 624
3 625 624 168
3 623 624 625
3 627 626 111
