ply
format ascii 1.0
element vertex 230
property float x
property float y
property float z
element face 189
property list uchar int vertex_index
end_header
10.321595 14.639826 -16.572701
5.399967 17.276627 -21.216257
6.62318 20.041058 -17.661413
4.707117 17.312761 -5.803471
6.231806 15.690994 -8.124268
7.457227 13.660306 -10.742586
7.564851 11.652743 -13.48842
8.379488 8.882819 -14.918859
7.52738 15.508287 -21.209393
13.21462 20.564075 -13.749365
10.435072 10.610041 -16.04295
11.760419 10.322163 -15.381328
3.468367 18.251568 -4.14185
6.934821 14.543315 -9.376238
7.25294 17.789661 -12.105475
5.897327 18.845209 -19.667896
7.174833 16.165567 -15.639819
6.637319 15.079761 -17.236031
7.772591 10.354208 -14.439891
6.81179 13.696118 -18.292885
7.866469 12.574066 -18.388885
6.140386 16.186598 -21.838013
10.468275 18.245848 -16.279554
11.562145 14.305102 -14.872122
4.972344 20.425375 -24.234055
13.273438 9.828253 -15.194555
2.639964 15.398717 -2.657467
4.009077 14.386017 -4.272991
5.009892 13.29567 -5.608518
5.777776 12.088522 -6.73973
5.502463 16.395657 -6.985046
6.369807 10.901191 -7.929716
6.680346 9.450212 -9.078448
6.985382 7.925649 -10.180345
7.462686 17.093222 -13.797958
7.552302 12.708878 -12.246017
9.42697 7.312232 -15.005582
9.163492 11.805414 -17.390842
9.070899 15.390592 -19.072796
5.991888 19.327045 -24.065556
7.55916 18.889538 -22.594555
7.072639 19.386003 -12.73816
6.953601 18.045707 -11.321644
11.209229 18.010842 -15.129456
10.824568 19.677579 -15.862469
13.636625 18.850369 -13.49942
14.320045 20.131351 -13.951957
13.286238 11.707588 -14.609666
12.417791 12.066678 -15.033338
12.430591 13.946013 -14.448449
2.038131 17.24445 -2.524898
2.006671 15.98346 -1.621846
7.042933 18.56714 -15.729685
7.239907 18.886913 -14.593277
6.820154 20.360831 -16.525005
7.441961 8.962913 -12.395573
7.435686 9.49098 -11.774372
7.558577 12.18081 -12.867218
7.687111 8.343035 -12.919443
7.441961 8.962913 -12.395573
8.521121 6.343382 -13.930896
8.217673 7.079077 -13.691412
8.07604 9.618513 -14.679375
9.183244 5.740384 -14.03093
8.521121 6.343382 -13.930896
8.903229 8.097525 -14.962221
9.706985 4.95509 -14.074292
9.183244 5.740384 -14.03093
5.616742 21.395687 -24.790285
5.482116 19.87621 -24.149805
5.10697 21.944852 -24.874535
7.928305 20.733792 -22.194057
7.016713 20.720899 -23.695521
8.3751 18.956375 -20.94024
7.928305 20.733792 -22.194057
12.87639 22.079678 -14.375884
12.19774 20.836692 -14.597375
14.027465 21.623919 -14.324097
12.87639 22.079678 -14.375884
14.320045 20.131351 -13.951957
14.027465 21.623919 -14.324097
11.327009 8.322187 -15.395414
10.649831 8.299341 -15.353099
11.989683 8.178247 -15.064602
11.327009 8.322187 -15.395414
11.097746 10.466102 -15.712139
12.668831 8.03863 -15.067768
11.989683 8.178247 -15.064602
3.481504 19.980726 -4.148589
2.452333 18.670876 -3.267089
4.196072 19.473632 -5.035899
3.481504 19.980726 -4.148589
4.815447 19.004228 -5.86671
4.087742 17.782165 -4.97266
4.196072 19.473632 -5.035899
5.113691 18.59191 -6.646278
4.815447 19.004228 -5.86671
6.794542 16.422534 -9.957025
6.583314 15.117154 -8.750253
6.443034 16.996373 -9.33104
7.093881 16.166488 -10.740856
6.794542 16.422534 -9.957025
6.953601 18.045707 -11.321644
11.756163 16.04047 -14.425739
11.01521 16.275475 -15.575838
11.209229 18.010842 -15.129456
12.430591 13.946013 -14.448449
11.756163 16.04047 -14.425739
12.582401 19.169956 -13.864361
12.19774 20.836692 -14.597375
12.582401 19.169956 -13.864361
13.636625 18.850369 -13.49942
6.472899 21.792091 -18.001241
6.820154 20.360831 -16.525005
6.059874 21.452389 -19.329517
6.472899 21.792091 -18.001241
5.696948 20.854464 -20.332758
6.260253 19.443134 -18.664654
6.059874 21.452389 -19.329517
5.233761 20.208115 -21.409992
5.696948 20.854464 -20.332758
4.985081 19.423824 -22.184172
5.648647 18.060918 -20.442076
5.233761 20.208115 -21.409992
4.77127 20.998197 -23.693072
5.186155 18.851001 -22.725156
4.985081 19.423824 -22.184172
4.68022 22.435944 -24.777036
4.77127 20.998197 -23.693072
5.10697 21.944852 -24.874535
4.68022 22.435944 -24.777036
13.425341 7.791675 -14.974382
12.668831 8.03863 -15.067768
12.516929 10.075208 -15.287941
14.102488 9.533029 -15.335519
13.286238 11.707588 -14.609666
14.238457 7.619609 -14.963581
14.102488 9.533029 -15.335519
13.425341 7.791675 -14.974382
14.238457 7.619609 -14.963581
2.602755 13.95882 -1.850725
2.006671 15.98346 -1.621846
3.194489 13.259633 -2.811441
2.602755 13.95882 -1.850725
3.054165 16.825142 -3.399659
2.038131 17.24445 -2.524898
2.452333 18.670876 -3.267089
3.879046 12.753284 -3.619203
3.194489 13.259633 -2.811441
3.32452 14.892367 -3.465229
4.357367 12.015192 -4.254589
3.879046 12.753284 -3.619203
4.857775 11.470018 -4.922353
4.357367 12.015192 -4.254589
4.509484 13.840844 -4.940755
5.198507 10.776364 -5.612309
4.857775 11.470018 -4.922353
5.393834 12.692096 -6.174124
5.58245 10.17279 -6.177915
5.198507 10.776364 -5.612309
5.511364 18.133358 -7.237065
5.10479 16.854209 -6.394258
5.113691 18.59191 -6.646278
5.811613 17.677453 -7.975822
5.511364 18.133358 -7.237065
6.176284 17.325121 -8.545434
5.867134 16.043326 -7.554657
5.811613 17.677453 -7.975822
6.443034 16.996373 -9.33104
6.176284 17.325121 -8.545434
5.65768 9.327087 -6.812399
5.58245 10.17279 -6.177915
5.953696 8.733422 -7.407392
5.65768 9.327087 -6.812399
6.073792 11.494857 -7.334723
6.057532 7.856031 -8.051258
5.953696 8.733422 -7.407392
6.212801 7.130541 -8.625624
6.057532 7.856031 -8.051258
6.525076 10.175702 -8.504082
6.459796 6.174593 -9.18751
6.212801 7.130541 -8.625624
6.612315 5.412311 -9.738458
6.459796 6.174593 -9.18751
6.832864 8.687931 -9.629397
6.841886 4.610908 -10.414454
6.612315 5.412311 -9.738458
7.135034 19.235133 -13.747035
7.072639 19.386003 -12.73816
7.357813 17.441441 -12.951716
7.135034 19.235133 -13.747035
7.239907 18.886913 -14.593277
7.152226 7.099366 -10.741536
7.268842 10.317263 -11.213181
7.435686 9.49098 -11.774372
6.841886 4.610908 -10.414454
7.152226 7.099366 -10.741536
7.790981 7.693768 -13.395179
7.687111 8.343035 -12.919443
7.668721 11.003476 -13.964156
7.790981 7.693768 -13.395179
8.217673 7.079077 -13.691412
10.380942 4.450138 -13.99631
9.706985 4.95509 -14.074292
10.14578 6.650436 -14.834415
10.380942 4.450138 -13.99631
10.014041 8.897028 -16.027045
10.14578 6.650436 -14.834415
9.295231 9.558823 -16.198212
9.799282 11.207728 -16.716896
10.649831 8.299341 -15.353099
10.014041 8.897028 -16.027045
6.233077 20.939652 -24.431021
5.616742 21.395687 -24.790285
6.775524 19.108291 -23.330056
6.233077 20.939652 -24.431021
7.016713 20.720899 -23.695521
9.130969 17.206902 -19.179361
8.31503 17.140065 -20.833675
8.3751 18.956375 -20.94024
9.756317 16.831519 -17.929313
9.696247 15.015209 -17.822748
9.130969 17.206902 -19.179361
9.829657 18.63453 -17.782739
10.394935 16.442837 -16.426127
9.756317 16.831519 -17.929313
10.179258 20.285633 -17.226506
9.829657 18.63453 -17.782739
10.824568 19.677579 -15.862469
10.179258 20.285633 -17.226506
3 0 11 10
3 41 14 42
3 1 17 15
3 1 19 17
3 1 21 19
3 44 43 22
3 46 45 9
3 47 25 48
3 49 48 23
3 47 48 49
3 50 26 51
3 3 27 12
3 3 28 27
3 3 30 28
3 4 31 29
3 5 32 13
3 5 33 32
3 2 52 54
3 52 34 53
3 52 53 54
3 6 35 16
3 6 55 57
3 57 56 35
3 55 56 57
3 6 58 59
3 7 60 62
3 62 61 18
3 60 61 62
3 7 63 64
3 7 65 67
3 65 36 66
3 65 66 67
3 8 37 20
3 8 38 37
3 68 39 69
3 70 69 24
3 68 69 70
3 71 40 72
3 74 73 40
3 75 9 76
3 77 9 78
3 80 79 9
3 10 81 82
3 11 83 85
3 85 84 10
3 83 84 85
3 11 86 87
3 88 12 89
3 90 12 91
3 92 3 93
3 94 93 12
3 92 93 94
3 96 95 3
3 97 13 98
3 99 98 4
3 97 98 99
3 14 100 102
3 100 13 101
3 100 101 102
3 14 5 13
3 15 16 2
3 17 16 15
3 17 6 16
3 17 18 6
3 19 18 17
3 19 7 18
3 19 20 7
3 21 20 19
3 21 8 20
3 22 23 0
3 103 23 104
3 105 104 22
3 103 104 105
3 107 106 23
3 9 108 109
3 111 110 9
3 112 2 113
3 114 2 115
3 116 15 117
3 118 117 2
3 116 117 118
3 119 15 120
3 121 1 122
3 123 122 15
3 121 122 123
3 124 24 125
3 126 125 1
3 124 125 126
3 127 24 128
3 130 129 24
3 23 11 0
3 25 11 23
3 25 131 133
3 133 132 11
3 131 132 133
3 134 25 135
3 136 25 137
3 139 138 25
3 26 140 141
3 26 142 143
3 12 144 146
3 144 26 145
3 144 145 146
3 27 26 12
3 27 147 149
3 149 148 26
3 147 148 149
3 27 150 151
3 28 152 154
3 154 153 27
3 152 153 154
3 28 155 156
3 28 157 159
3 157 29 158
3 157 158 159
3 30 29 28
3 30 4 29
3 160 30 161
3 162 161 3
3 160 161 162
3 163 30 164
3 165 4 166
3 167 166 30
3 165 166 167
3 169 168 4
3 29 170 171
3 31 172 174
3 174 173 29
3 172 173 174
3 31 175 176
3 13 31 4
3 32 31 13
3 32 177 179
3 179 178 31
3 177 178 179
3 32 180 181
3 33 182 184
3 184 183 32
3 182 183 184
3 33 185 186
3 187 14 188
3 34 189 191
3 189 14 190
3 189 190 191
3 34 5 14
3 16 34 2
3 35 34 16
3 35 5 34
3 35 33 5
3 192 33 193
3 194 193 35
3 192 193 194
3 196 195 33
3 18 197 199
3 199 198 6
3 197 198 199
3 201 200 18
3 36 202 203
3 36 204 205
3 20 36 7
3 37 36 20
3 37 206 208
3 208 207 36
3 206 207 208
3 37 209 211
3 209 10 210
3 209 210 211
3 38 10 37
3 38 0 10
3 24 21 1
3 39 21 24
3 39 8 21
3 212 39 213
3 40 214 216
3 214 39 215
3 214 215 216
3 40 8 39
3 40 38 8
3 217 38 218
3 219 218 40
3 217 218 219
3 220 0 221
3 222 221 38
3 220 221 222
3 223 22 224
3 225 224 0
3 223 224 225
3 226 22 227
3 229 228 22
