ply
format ascii 1.0
element vertex 186
property float x
property float y
property float z
element face 139
property list uchar int vertex_index
end_header
10.041341 65.66243 -3.775565
13.449469 64.544479 11.594576
6.838099 62.678093 -7.446486
15.739993 65.220459 -0.098287
10.039023 63.518513 -8.949997
10.097422 64.963615 2.260851
7.500322 62.740334 -11.110788
11.153966 64.817398 9.924829
10.759445 64.822487 12.884409
12.722305 65.704926 -1.684348
12.343478 65.717422 0.939649
10.116098 66.022644 -0.663351
18.580439 59.910686 -13.655864
11.135433 64.078392 6.861275
8.109757 64.845131 -5.710832
8.362955 65.101028 -2.534789
19.124207 64.186935 -0.481743
15.872406 63.536213 -2.062578
12.573486 63.616505 -4.330734
9.949844 64.535767 -6.934235
7.346067 64.199203 -8.741096
21.418163 60.867218 10.4541
9.591594 63.823864 15.381264
14.271129 63.678661 2.001766
11.556356 64.654221 3.965721
10.494003 64.310856 10.299765
10.326142 64.414085 8.944907
19.561052 59.617762 -12.66518
17.394881 59.076601 -13.167853
12.323061 63.274719 5.972321
12.158138 63.4298 7.839643
7.42171 62.70042 -5.812342
8.05754 63.78394 -4.944515
7.473928 63.761612 -6.578659
20.601369 62.953442 -0.242932
20.527442 63.350859 0.895515
15.995921 62.924911 -3.115842
17.615519 63.01066 -2.170161
14.346461 62.965058 -4.249919
14.222946 63.576359 -3.196656
15.995921 62.924911 -3.115842
11.571064 63.174185 -7.815129
11.566973 62.093374 -8.481583
9.994433 64.02714 -7.942116
11.526474 63.682812 -6.807249
11.571064 63.174185 -7.815129
6.287928 61.348543 -11.974354
6.767095 62.36854 -10.748021
7.021155 61.720337 -12.337121
22.3067 60.10288 10.448774
21.720617 60.388052 11.897028
22.092013 60.883999 9.099825
22.3067 60.10288 10.448774
12.692489 64.296508 13.212623
14.051435 63.626787 12.38493
9.360066 63.227869 14.21367
10.17552 64.323175 14.132836
9.943991 63.727181 12.965242
9.300712 62.214563 15.433017
9.360066 63.227869 14.21367
15.005561 64.44956 0.951739
16.301241 63.463633 1.923725
17.035674 64.234532 0.873699
9.724621 64.570228 3.667804
10.454088 64.415532 4.520239
10.826889 64.808918 3.113286
8.835068 64.607403 -1.243536
8.490766 63.407512 -2.206686
7.760317 59.550455 -7.518955
7.835162 61.24222 -6.676084
6.763254 60.986328 -8.289357
10.193801 62.099265 -9.773777
11.566973 62.093374 -8.481583
8.92445 61.710175 -10.854173
8.769673 63.129424 -10.030392
10.193801 62.099265 -9.773777
8.160987 61.287977 -12.467702
8.92445 61.710175 -10.854173
7.021155 61.720337 -12.337121
8.160987 61.287977 -12.467702
10.296743 64.313401 11.779555
10.956705 64.819942 11.404619
10.494003 64.310856 10.299765
9.943991 63.727181 12.965242
10.296743 64.313401 11.779555
16.837105 59.833969 -14.26614
15.651547 58.999884 -13.778129
17.394881 59.076601 -13.167853
17.866587 59.082565 -14.429081
16.837105 59.833969 -14.26614
20.593187 59.560181 -13.145542
19.561052 59.617762 -12.66518
19.420044 58.887338 -13.717794
20.593187 59.560181 -13.145542
18.706192 58.059218 -14.491011
17.866587 59.082565 -14.429081
19.420044 58.887338 -13.717794
14.676519 63.490803 11.091204
14.051435 63.626787 12.38493
13.315157 63.662843 10.206294
14.676519 63.490803 11.091204
12.167405 63.799303 9.37142
12.301718 64.680938 10.759702
13.315157 63.662843 10.206294
11.1447 64.447895 8.393052
12.167405 63.799303 9.37142
12.158138 63.4298 7.839643
10.316875 64.044582 7.41313
10.326142 64.414085 8.944907
11.1447 64.447895 8.393052
8.184138 63.911888 -3.356494
8.236356 64.973079 -4.12281
8.05754 63.78394 -4.944515
8.490766 63.407512 -2.206686
8.184138 63.911888 -3.356494
7.42171 62.70042 -5.812342
7.835162 61.24222 -6.676084
18.727781 63.71777 0.681971
20.527442 63.350859 0.895515
17.4321 64.703697 -0.290015
17.035674 64.234532 0.873699
18.727781 63.71777 0.681971
19.241419 63.336021 -1.379744
20.601369 62.953442 -0.242932
17.498306 63.861574 -1.27216
19.241419 63.336021 -1.379744
17.615519 63.01066 -2.170161
12.838295 63.223181 -5.505498
14.346461 62.965058 -4.249919
11.261665 64.076136 -5.632485
12.838295 63.223181 -5.505498
11.526474 63.682812 -6.807249
6.689967 63.097974 -9.563175
7.423194 63.469769 -9.925942
6.767095 62.36854 -10.748021
6.435983 62.337419 -8.91587
7.092083 63.438648 -8.093791
6.689967 63.097974 -9.563175
6.763254 60.986328 -8.289357
6.435983 62.337419 -8.91587
20.633106 60.675877 11.597306
21.720617 60.388052 11.897028
20.159995 60.909027 10.264399
20.633106 60.675877 11.597306
20.837381 60.837305 8.970771
20.159995 60.909027 10.264399
20.837381 60.837305 8.970771
22.092013 60.883999 9.099825
11.347477 64.435512 13.857539
12.692489 64.296508 13.212623
12.104457 64.683483 12.239493
10.763552 63.936201 15.105967
11.347477 64.435512 13.857539
10.17552 64.323175 14.132836
9.945877 63.262909 16.609191
10.763552 63.936201 15.105967
9.190451 62.587078 16.90857
9.544735 62.026123 18.136498
9.945877 63.262909 16.609191
9.190451 62.587078 16.90857
9.300712 62.214563 15.433017
15.790185 62.314226 3.061631
16.301241 63.463633 1.923725
13.890909 63.074854 3.542566
15.790185 62.314226 3.061631
12.533523 63.562634 4.524544
13.890909 63.074854 3.542566
12.913742 64.166441 2.983744
11.345894 64.366307 5.413498
12.323061 63.274719 5.972321
12.533523 63.562634 4.524544
10.243627 64.127617 5.968017
11.345894 64.366307 5.413498
10.454088 64.415532 4.520239
10.316875 64.044582 7.41313
10.243627 64.127617 5.968017
9.711639 65.06821 -0.307817
9.239527 65.561836 -1.59907
8.835068 64.607403 -1.243536
9.702301 64.538696 1.154284
10.10676 65.49313 0.79875
9.711639 65.06821 -0.307817
9.763708 63.750997 2.727602
9.702301 64.538696 1.154284
9.724621 64.570228 3.667804
9.763708 63.750997 2.727602
3 26 25 7
3 0 11 9
3 27 12 28
3 29 13 30
3 2 31 33
3 33 32 14
3 31 32 33
3 34 16 35
3 36 17 37
3 38 18 39
3 40 39 17
3 38 39 40
3 4 41 42
3 4 43 45
3 43 19 44
3 43 44 45
3 4 20 19
3 48 47 6
3 46 47 48
3 49 21 50
3 52 51 21
3 1 53 54
3 55 22 56
3 57 56 8
3 55 56 57
3 59 58 22
3 3 60 62
3 60 23 61
3 60 61 62
3 5 24 10
3 5 63 65
3 65 64 24
3 63 64 65
3 67 66 15
3 70 69 2
3 68 69 70
3 71 4 72
3 73 6 74
3 75 74 4
3 73 74 75
3 76 6 77
3 79 78 6
3 7 8 1
3 80 8 81
3 82 81 7
3 80 81 82
3 84 83 8
3 9 10 3
3 11 10 9
3 11 5 10
3 12 85 87
3 85 86 87
3 12 88 89
3 90 12 91
3 92 12 93
3 96 95 12
3 94 95 96
3 97 1 98
3 99 1 100
3 101 7 102
3 103 102 1
3 101 102 103
3 13 104 106
3 104 7 105
3 104 105 106
3 13 107 109
3 109 108 7
3 107 108 109
3 14 15 0
3 110 15 111
3 112 111 14
3 110 111 112
3 114 113 15
3 116 115 2
3 16 117 118
3 16 119 121
3 119 3 120
3 119 120 121
3 122 16 123
3 17 124 126
3 124 16 125
3 124 125 126
3 17 3 16
3 17 9 3
3 18 9 17
3 18 0 9
3 127 18 128
3 19 129 131
3 129 18 130
3 129 130 131
3 19 0 18
3 19 14 0
3 20 14 19
3 20 2 14
3 6 20 4
3 132 20 133
3 134 133 6
3 132 133 134
3 135 2 136
3 137 136 20
3 135 136 137
3 139 138 2
3 21 140 141
3 21 142 143
3 21 144 145
3 147 146 21
3 8 148 150
3 150 149 1
3 148 149 150
3 22 151 153
3 153 152 8
3 151 152 153
3 22 154 155
3 22 156 158
3 156 157 158
3 160 159 22
3 23 161 162
3 23 163 164
3 10 23 3
3 24 23 10
3 24 165 167
3 167 166 23
3 165 166 167
3 24 168 170
3 168 13 169
3 168 169 170
3 171 13 172
3 173 172 24
3 171 172 173
3 175 174 13
3 15 11 0
3 176 11 177
3 178 177 15
3 176 177 178
3 179 5 180
3 181 180 11
3 179 180 181
3 182 5 183
3 185 184 5
