ply
format ascii 1.0
element vertex 387
property float x
property float y
property float z
element face 369
property list uchar int vertex_index
end_header
22.521866 -21.236002 -23.606716
26.857626 -15.857417 -31.240149
21.771389 -31.010586 -12.697017
26.336267 -30.519119 -19.822819
32.634167 -24.48522 -22.581774
22.766232 -26.5767 -17.513321
23.364931 -25.837326 -22.574051
29.832621 -27.706776 -20.84918
26.771204 -24.121502 -26.025059
32.039131 -12.248479 -31.749567
22.817862 -17.204058 -25.141388
23.293135 -18.660213 -28.006531
21.276651 -13.321881 -28.703684
24.892178 -11.037512 -32.972595
31.446091 -6.814356 -33.419029
20.215361 -36.322536 -6.926482
18.910124 -34.361561 -10.071421
19.727774 -35.020332 -13.127113
24.365004 -36.112587 -13.867815
21.668087 -31.125286 -17.231981
30.358181 -35.397133 -14.312248
34.26062 -33.069283 -15.56447
36.83242 -29.733557 -17.985167
30.13381 -21.08894 -28.462717
23.359055 -22.324135 -21.146698
22.578047 -24.071692 -20.45006
22.631418 -23.410349 -23.083115
24.972897 -25.127897 -24.477964
23.57424 -22.606701 -25.227671
21.544506 -15.010015 -26.86842
21.484278 -12.691428 -27.510212
23.060957 -7.95534 -32.813442
22.463623 -9.995839 -31.716419
24.828167 -8.702876 -33.804939
27.963755 -9.020097 -32.969868
19.45644 -34.953773 -8.420074
20.394043 -32.625507 -11.25006
19.931393 -32.506569 -13.121668
21.871426 -35.703346 -13.696718
20.486279 -32.855869 -14.818213
22.701 -28.688541 -19.837299
21.773035 -28.630314 -17.442673
23.832029 -31.270086 -18.853672
25.360458 -33.369385 -16.858576
28.297947 -32.554794 -17.115026
32.527218 -34.436977 -14.810064
30.576294 -31.496098 -17.558384
31.342083 -26.155094 -21.642254
33.596119 -28.455566 -19.003071
34.742165 -26.671692 -19.893816
35.668873 -24.951969 -21.052126
24.724625 -17.283939 -29.98435
26.648457 -20.011776 -28.77212
28.530371 -18.379017 -29.685551
34.115665 -19.247725 -27.830746
24.014938 -25.044193 -18.134007
22.3328 -26.19895 -20.136641
24.601759 -28.270269 -21.684032
28.227427 -29.239222 -20.356339
26.464886 -27.481796 -22.97909
28.311014 -26.217514 -23.984985
29.842236 -24.699022 -24.84646
29.237976 -14.019464 -31.256582
30.452017 -16.570219 -30.156488
32.7118 -14.947113 -30.962292
22.569609 -19.169537 -24.303408
22.526281 -20.031132 -25.813156
21.935505 -17.566925 -26.186594
21.973442 -15.858114 -28.296703
23.189121 -14.619936 -30.466064
21.279488 -11.010799 -29.393112
22.450459 -12.181955 -31.079884
25.714123 -13.43878 -32.22448
28.505829 -11.550734 -32.147839
31.740391 -9.562459 -32.539448
18.208082 -38.371532 -4.219246
17.953302 -37.298042 -5.697906
17.89419 -36.469448 -7.210191
17.873138 -36.186089 -8.939525
17.959209 -36.53907 -10.463437
19.024134 -37.362755 -11.547037
21.354513 -33.694252 -9.786921
18.792997 -34.425678 -11.793041
24.550653 -27.958126 -15.46933
22.474552 -28.955593 -14.950251
20.858795 -30.692011 -14.964447
22.514816 -33.542889 -16.283134
27.315701 -36.023815 -14.049716
35.511513 -36.438831 -12.968059
36.941917 -35.137493 -14.452649
32.225513 -30.091587 -18.250637
35.719643 -31.518091 -16.593576
37.904903 -33.635605 -16.341166
38.232258 -32.182533 -18.406071
24.977957 -21.430876 -27.294392
28.510031 -22.801563 -27.297617
31.250637 -22.923416 -25.821552
31.81181 -19.332462 -29.324305
32.594898 -21.001347 -26.82756
33.793335 -22.526775 -23.602262
22.940461 -21.780068 -22.376707
23.875378 -21.57395 -21.720209
23.456784 -21.029884 -22.950218
22.582511 -13.182412 -27.542898
22.283683 -13.982733 -26.898943
24.957847 -7.526008 -34.087629
23.944562 -8.329108 -33.30919
24.074242 -7.15224 -33.591881
26.315443 -7.565773 -33.725326
24.957847 -7.526008 -34.087629
20.851391 -31.758578 -12.909343
21.615982 -32.51278 -12.213369
22.53598 -31.764788 -12.001044
24.819037 -24.534813 -18.658122
26.047899 -25.860264 -18.075449
24.089899 -18.397585 -24.417468
24.512729 -17.739756 -25.157921
22.693736 -18.186797 -24.722398
23.965772 -19.380325 -23.998478
24.089899 -18.397585 -24.417468
21.691524 -10.166574 -29.794331
21.684378 -10.957753 -28.926686
32.080906 -7.923934 -34.695833
32.228056 -9.297986 -34.256042
31.593241 -8.188408 -32.979239
19.974618 -39.131002 -4.059133
19.910829 -39.616426 -3.256682
19.847228 -38.594257 -4.798463
18.080692 -37.834787 -4.958576
19.974618 -39.131002 -4.059133
20.664114 -37.221086 -6.19402
22.312265 -38.109285 -6.359132
19.054775 -36.395992 -7.068337
19.503529 -37.294542 -6.335875
20.664114 -37.221086 -6.19402
23.07114 -34.224404 -10.040662
23.690697 -35.347501 -9.47389
20.320645 -36.594732 -12.472828
19.853257 -36.297405 -11.805792
19.260385 -34.723005 -12.460077
21.48317 -36.888508 -12.248125
20.320645 -36.594732 -12.472828
24.981969 -37.595331 -12.540173
23.73518 -37.39071 -12.454625
23.118215 -35.907967 -13.782267
26.274344 -37.630449 -12.593637
24.981969 -37.595331 -12.540173
23.658442 -27.267413 -16.491326
25.462854 -27.614439 -16.034705
24.570643 -26.923726 -17.0567
30.793621 -36.993341 -12.945071
29.272381 -37.306683 -12.813805
28.836941 -35.710474 -14.180982
31.949776 -36.534611 -13.164056
30.793621 -36.993341 -12.945071
32.656988 -18.459091 -29.755572
31.131914 -17.951341 -29.740396
31.977092 -17.07797 -30.171664
33.821461 -20.856178 -25.809866
33.355282 -20.124536 -27.329153
34.581844 -19.979368 -26.311459
34.420679 -21.618893 -24.197216
33.194116 -21.764061 -25.214911
33.821461 -20.856178 -25.809866
35.230643 -22.952222 -23.130133
34.420679 -21.618893 -24.197216
25.248502 -22.715019 -20.912788
23.875378 -21.57395 -21.720209
24.491095 -23.174785 -20.164467
25.248502 -22.715019 -20.912788
22.968551 -23.197913 -20.798379
24.100591 -24.048563 -19.816148
24.491095 -23.174785 -20.164467
33.10232 -13.171281 -32.472327
32.737774 -11.885771 -33.135222
22.950475 -16.239047 -25.714531
24.512729 -17.739756 -25.157921
22.313797 -15.142026 -26.578047
22.181184 -16.107036 -26.004904
22.950475 -16.239047 -25.714531
21.514392 -13.850721 -27.189316
22.313797 -15.142026 -26.578047
22.283683 -13.982733 -26.898943
22.76229 -8.975589 -32.26493
22.283592 -9.659094 -30.955985
22.582259 -8.638844 -31.504497
27.883237 -7.724384 -33.307791
26.395961 -8.861486 -33.387403
26.315443 -7.565773 -33.725326
29.624405 -6.621513 -33.532371
29.704923 -7.917226 -33.194449
27.883237 -7.724384 -33.307791
21.857644 -36.986485 -7.119437
22.312265 -38.109285 -6.359132
21.478184 -36.302103 -7.866233
19.835901 -35.638154 -7.673278
21.857644 -36.986485 -7.119437
20.916432 -35.186647 -8.457769
21.478184 -36.302103 -7.866233
20.643275 -34.890541 -9.283442
19.183282 -34.657667 -9.245748
20.916432 -35.186647 -8.457769
21.847307 -32.572249 -11.277565
22.590905 -33.690031 -10.772232
20.162718 -32.566038 -12.185864
21.847307 -32.572249 -11.277565
21.615982 -32.51278 -12.213369
36.125241 -27.407431 -19.723972
37.170368 -28.938363 -18.769647
35.787292 -28.202624 -18.939492
36.588594 -26.547569 -20.303127
36.125241 -27.407431 -19.723972
35.205519 -25.81183 -20.472971
36.73377 -25.89257 -21.2899
36.588594 -26.547569 -20.303127
34.964258 -18.6247 -28.517582
33.808916 -18.416722 -29.008793
35.276823 -19.417321 -27.144482
34.964258 -18.6247 -28.517582
34.581844 -19.979368 -26.311459
35.276823 -19.417321 -27.144482
23.097208 -7.818614 -32.039425
22.582259 -8.638844 -31.504497
23.408913 -6.959414 -33.133143
23.097208 -7.818614 -32.039425
24.074242 -7.15224 -33.591881
23.408913 -6.959414 -33.133143
24.057711 -32.192589 -12.447465
22.53598 -31.764788 -12.001044
25.194997 -26.157473 -17.367044
26.047899 -25.860264 -18.075449
23.390585 -25.810446 -17.823664
24.570643 -26.923726 -17.0567
25.194997 -26.157473 -17.367044
23.296492 -24.557942 -19.292034
24.819037 -24.534813 -18.658122
24.100591 -24.048563 -19.816148
33.106983 -16.266416 -30.574566
31.977092 -17.07797 -30.171664
31.581908 -15.758666 -30.55939
33.438654 -14.520598 -32.07869
32.375465 -13.597796 -31.35593
33.10232 -13.171281 -32.472327
33.817753 -15.718943 -31.287701
33.438654 -14.520598 -32.07869
33.106983 -16.266416 -30.574566
33.817753 -15.718943 -31.287701
23.480655 -19.996651 -23.298564
23.965772 -19.380325 -23.998478
22.545738 -20.202769 -23.955062
23.456784 -21.029884 -22.950218
23.480655 -19.996651 -23.298564
21.786773 -11.798068 -27.985236
22.582511 -13.182412 -27.542898
21.381883 -11.851114 -28.451662
21.786773 -11.798068 -27.985236
21.684378 -10.957753 -28.926686
21.871555 -10.503319 -30.554765
21.691524 -10.166574 -29.794331
22.283592 -9.659094 -30.955985
32.588404 -10.542761 -33.530163
32.737774 -11.885771 -33.135222
31.889761 -10.905469 -32.144508
32.588404 -10.542761 -33.530163
32.228056 -9.297986 -34.256042
31.53755 -5.567818 -34.14773
29.624405 -6.621513 -33.532371
31.88567 -6.745869 -35.349119
31.53755 -5.567818 -34.14773
32.080906 -7.923934 -34.695833
31.88567 -6.745869 -35.349119
18.213803 -38.868284 -3.575436
19.910829 -39.616426 -3.256682
17.159833 -38.641703 -4.632055
18.213803 -38.868284 -3.575436
17.490718 -38.413559 -5.276118
17.159833 -38.641703 -4.632055
17.363329 -37.876813 -6.015448
17.490718 -38.413559 -5.276118
18.080692 -37.834787 -4.958576
17.802363 -37.825945 -6.736871
17.363329 -37.876813 -6.015448
19.533085 -37.708839 -5.579732
19.847228 -38.594257 -4.798463
17.923746 -36.883745 -6.454048
19.533085 -37.708839 -5.579732
19.503529 -37.294542 -6.335875
17.772807 -37.411648 -7.493013
17.802363 -37.825945 -6.736871
17.923746 -36.883745 -6.454048
17.97315 -37.651416 -8.123248
17.772807 -37.411648 -7.493013
17.962625 -37.509737 -8.987915
17.97315 -37.651416 -8.123248
17.883664 -36.327769 -8.074858
18.099474 -37.900404 -9.431892
17.962625 -37.509737 -8.987915
18.142509 -38.076895 -10.193848
18.099474 -37.900404 -9.431892
17.916173 -36.36258 -9.701481
18.815593 -38.721043 -10.397315
18.142509 -38.076895 -10.193848
19.348055 -39.132885 -10.939115
18.815593 -38.721043 -10.397315
18.491672 -36.950913 -11.005237
20.243782 -39.523465 -10.843254
19.348055 -39.132885 -10.939115
21.865469 -34.556887 -9.141192
23.690697 -35.347501 -9.47389
20.132319 -34.027907 -9.929171
20.643275 -34.890541 -9.283442
21.865469 -34.556887 -9.141192
20.874278 -33.15988 -10.51849
23.07114 -34.224404 -10.040662
22.590905 -33.690031 -10.772232
19.968826 -37.765943 -11.68279
18.908566 -35.894216 -11.670039
19.853257 -36.297405 -11.805792
20.243782 -39.523465 -10.843254
19.968826 -37.765943 -11.68279
22.554996 -37.230015 -12.532927
21.48317 -36.888508 -12.248125
20.7996 -35.361839 -13.411915
22.554996 -37.230015 -12.532927
23.73518 -37.39071 -12.454625
23.084899 -30.833923 -12.950883
24.057711 -32.192589 -12.447465
26.664957 -29.10686 -15.609376
25.462854 -27.614439 -16.034705
25.601168 -29.268626 -14.967691
26.664957 -29.10686 -15.609376
24.563117 -29.767359 -14.708151
25.601168 -29.268626 -14.967691
23.512602 -28.45686 -15.209791
23.436481 -29.806427 -14.0775
24.563117 -29.767359 -14.708151
22.628602 -30.674636 -14.084598
23.436481 -29.806427 -14.0775
21.666674 -29.823802 -14.957349
21.315092 -30.851298 -13.830732
23.084899 -30.833923 -12.950883
22.628602 -30.674636 -14.084598
27.749693 -37.586063 -12.684587
26.274344 -37.630449 -12.593637
25.840353 -36.068201 -13.958766
27.749693 -37.586063 -12.684587
29.272381 -37.306683 -12.813805
33.034294 -36.054533 -13.412964
31.949776 -36.534611 -13.164056
31.442699 -34.917055 -14.561156
34.526442 -37.05546 -12.491962
33.034294 -36.054533 -13.412964
34.019365 -35.437904 -13.889062
35.549622 -38.238142 -11.847798
34.526442 -37.05546 -12.491962
36.319489 -37.706695 -12.693172
35.549622 -38.238142 -11.847798
37.03469 -37.056027 -13.435467
36.319489 -37.706695 -12.693172
36.226715 -35.788162 -13.710354
37.40415 -36.439255 -14.478309
37.03469 -37.056027 -13.435467
37.885643 -35.688311 -15.422567
37.40415 -36.439255 -14.478309
37.42341 -34.386549 -15.396908
37.913396 -35.006642 -16.613378
37.885643 -35.688311 -15.422567
38.077074 -34.280106 -17.645831
37.913396 -35.006642 -16.613378
38.06858 -32.909069 -17.373618
37.79109 -33.567337 -18.824175
38.077074 -34.280106 -17.645831
37.870287 -30.162851 -18.980099
37.532339 -30.958045 -18.195619
37.170368 -28.938363 -18.769647
38.116713 -31.4494 -19.562086
37.870287 -30.162851 -18.980099
37.79109 -33.567337 -18.824175
38.116713 -31.4494 -19.562086
32.963738 -19.290093 -28.577526
32.656988 -18.459091 -29.755572
33.808916 -18.416722 -29.008793
36.168411 -24.16482 -21.855066
34.731104 -23.739372 -22.327194
35.230643 -22.952222 -23.130133
36.73377 -25.89257 -21.2899
36.168411 -24.16482 -21.855066
3 0 100 102
3 100 24 101
3 100 101 102
3 0 26 24
3 0 28 26
3 103 30 104
3 105 33 106
3 107 106 31
3 105 106 107
3 109 108 33
3 2 110 112
3 110 37 111
3 110 111 112
3 2 39 37
3 3 42 40
3 3 44 42
3 3 46 44
3 4 49 47
3 4 50 49
3 1 53 51
3 113 55 114
3 6 56 25
3 6 57 56
3 6 59 57
3 8 60 27
3 8 61 60
3 9 64 62
3 10 115 116
3 10 117 119
3 117 65 118
3 117 118 119
3 10 67 65
3 12 68 29
3 12 69 68
3 120 70 121
3 13 71 32
3 13 72 71
3 13 73 72
3 14 74 34
3 14 122 124
3 124 123 74
3 122 123 124
3 125 75 126
3 127 76 128
3 129 128 75
3 127 128 129
3 15 130 131
3 15 132 134
3 132 77 133
3 132 133 134
3 15 78 77
3 16 79 35
3 16 80 79
3 135 81 136
3 17 82 36
3 17 137 139
3 139 138 82
3 137 138 139
3 17 140 141
3 18 142 144
3 144 143 38
3 142 143 144
3 18 145 146
3 5 147 149
3 147 83 148
3 147 148 149
3 19 84 41
3 19 85 84
3 19 86 85
3 20 87 43
3 20 150 152
3 152 151 87
3 150 151 152
3 20 153 154
3 21 88 45
3 21 89 88
3 7 90 58
3 22 91 48
3 22 92 91
3 22 93 92
3 11 94 66
3 23 95 52
3 23 96 95
3 155 97 156
3 157 156 63
3 155 156 157
3 158 98 159
3 160 159 54
3 158 159 160
3 161 99 162
3 163 162 98
3 161 162 163
3 165 164 99
3 24 166 167
3 24 168 169
3 24 170 172
3 170 25 171
3 170 171 172
3 26 25 24
3 26 6 25
3 26 27 6
3 28 27 26
3 28 8 27
3 174 173 9
3 175 10 176
3 177 29 178
3 179 178 10
3 177 178 179
3 30 180 182
3 180 29 181
3 180 181 182
3 30 12 29
3 31 183 185
3 183 32 184
3 183 184 185
3 33 32 31
3 33 13 32
3 33 34 13
3 186 34 187
3 188 187 33
3 186 187 188
3 189 14 190
3 191 190 34
3 189 190 191
3 192 15 193
3 194 35 195
3 196 195 15
3 194 195 196
3 197 35 198
3 199 16 200
3 201 200 35
3 199 200 201
3 202 36 203
3 37 204 206
3 204 36 205
3 204 205 206
3 37 17 36
3 37 38 17
3 39 38 37
3 39 18 38
3 40 41 5
3 42 41 40
3 42 19 41
3 42 43 19
3 44 43 42
3 44 20 43
3 44 45 20
3 46 45 44
3 46 21 45
3 47 48 7
3 49 48 47
3 49 22 48
3 49 207 209
3 209 208 22
3 207 208 209
3 50 210 212
3 212 211 49
3 210 211 212
3 50 213 214
3 51 52 11
3 53 52 51
3 53 23 52
3 215 54 216
3 217 54 218
3 220 219 54
3 221 31 222
3 223 31 224
3 226 225 31
3 227 2 228
3 55 229 230
3 55 231 233
3 231 5 232
3 231 232 233
3 25 234 236
3 234 55 235
3 234 235 236
3 56 55 25
3 56 5 55
3 56 40 5
3 57 40 56
3 57 3 40
3 57 58 3
3 59 58 57
3 59 7 58
3 27 59 6
3 60 59 27
3 60 7 59
3 60 47 7
3 61 47 60
3 61 4 47
3 62 63 1
3 64 63 62
3 64 237 239
3 239 238 63
3 237 238 239
3 240 64 241
3 242 241 9
3 240 241 242
3 243 64 244
3 246 245 64
3 65 247 248
3 65 249 251
3 249 0 250
3 249 250 251
3 65 66 0
3 67 66 65
3 67 11 66
3 29 67 10
3 68 67 29
3 68 11 67
3 68 51 11
3 69 51 68
3 69 1 51
3 252 30 253
3 70 254 256
3 254 30 255
3 254 255 256
3 70 12 30
3 32 257 259
3 257 70 258
3 257 258 259
3 71 70 32
3 71 12 70
3 71 69 12
3 72 69 71
3 72 1 69
3 72 62 1
3 73 62 72
3 73 9 62
3 34 73 13
3 74 73 34
3 74 9 73
3 74 260 262
3 262 261 9
3 260 261 262
3 264 263 74
3 265 14 266
3 267 14 268
3 270 269 14
3 75 271 272
3 75 273 274
3 75 275 276
3 76 277 279
3 279 278 75
3 277 278 279
3 76 280 281
3 282 76 283
3 77 284 286
3 284 76 285
3 284 285 286
3 77 287 289
3 289 288 76
3 287 288 289
3 77 290 291
3 78 292 294
3 294 293 77
3 292 293 294
3 78 295 296
3 35 78 15
3 79 78 35
3 79 297 299
3 299 298 78
3 297 298 299
3 79 300 301
3 80 302 304
3 304 303 79
3 302 303 304
3 80 305 306
3 81 307 308
3 81 309 311
3 309 16 310
3 309 310 311
3 36 312 314
3 312 81 313
3 312 313 314
3 82 81 36
3 82 16 81
3 82 80 16
3 315 80 316
3 317 316 82
3 315 316 317
3 319 318 80
3 38 320 322
3 322 321 17
3 320 321 322
3 324 323 38
3 325 2 326
3 83 327 328
3 83 329 330
3 41 83 5
3 84 83 41
3 84 331 333
3 333 332 83
3 331 332 333
3 84 334 335
3 85 336 338
3 338 337 84
3 336 337 338
3 85 339 341
3 339 2 340
3 339 340 341
3 85 39 2
3 86 39 85
3 86 18 39
3 43 86 19
3 87 86 43
3 87 18 86
3 87 342 344
3 344 343 18
3 342 343 344
3 346 345 87
3 45 347 349
3 349 348 20
3 347 348 349
3 88 350 352
3 352 351 45
3 350 351 352
3 88 353 354
3 88 355 356
3 89 357 359
3 359 358 88
3 357 358 359
3 89 360 361
3 58 46 3
3 90 46 58
3 90 21 46
3 48 90 7
3 91 90 48
3 91 21 90
3 91 89 21
3 92 89 91
3 92 362 364
3 364 363 89
3 362 363 364
3 92 365 366
3 93 367 369
3 369 368 92
3 367 368 369
3 93 370 371
3 372 93 373
3 374 373 22
3 372 373 374
3 375 93 376
3 378 377 93
3 66 28 0
3 94 28 66
3 94 8 28
3 52 94 11
3 95 94 52
3 95 8 94
3 95 61 8
3 96 61 95
3 96 4 61
3 63 53 1
3 97 53 63
3 97 23 53
3 54 379 381
3 379 97 380
3 379 380 381
3 98 97 54
3 98 23 97
3 98 96 23
3 99 96 98
3 99 4 96
3 99 50 4
3 382 50 383
3 384 383 99
3 382 383 384
3 386 385 50
