ply
format ascii 1.0
element vertex 592
property float x
property float y
property float z
element face 602
property list uchar int vertex_index
end_header
-6.529828 34.701729 49.947681
-11.66807 53.893322 1.292902
-8.661258 50.680035 25.077509
-11.476496 44.383614 5.058331
-6.934609 43.897827 37.909676
-6.832356 37.827126 28.475025
-7.552353 29.410259 39.523285
-8.716749 63.238808 7.644057
-9.389554 53.816456 13.072311
-12.950579 31.731289 22.057941
-13.449427 47.98188 -0.974671
-10.708407 44.801262 1.125051
-12.317886 48.371277 4.130234
-6.364173 39.730003 44.730843
-8.067143 37.377876 39.29147
-7.747293 31.565002 45.189274
-6.568905 25.552464 44.605438
-7.374126 28.27771 49.595406
-9.390404 52.149719 -4.152835
-12.369132 47.688553 -6.678832
-8.432154 63.292015 15.05365
-7.659226 52.031139 19.072481
-9.892282 48.996571 14.637268
-9.075514 46.541908 20.667881
-9.424948 31.876724 31.507166
-12.113687 35.308834 25.995895
-13.026278 29.490143 27.828304
-8.177077 47.881409 31.312984
-7.727076 43.861641 26.639826
-8.198456 40.430351 32.525047
-8.544316 34.052086 34.96896
-8.233516 27.415564 35.720673
-8.865023 58.853447 4.125327
-10.3656 54.237324 7.690879
-8.819063 58.794289 10.702909
-7.669478 58.334206 17.004166
-7.568952 56.212605 23.28458
-7.069796 54.193684 30.294186
-6.399324 50.158882 36.658653
-5.950232 44.919521 43.421829
-7.322426 63.69561 2.321294
-9.028139 49.268497 8.285936
-13.990229 39.140629 13.140203
-10.926476 41.189693 23.047552
-14.113507 37.431236 19.538248
-12.691706 50.862862 0.336369
-13.025011 51.021618 3.093883
-6.541794 37.184589 47.754765
-7.608771 36.158489 45.240532
-6.902957 33.252644 47.555756
-7.175355 29.953014 47.310463
-6.987626 31.522181 49.625359
-9.271191 56.076374 -0.063248
-10.529531 52.576424 -1.396918
-11.815865 49.931175 -2.719844
-7.161102 51.117653 22.051365
-7.159688 48.616402 19.47016
-7.575315 47.849144 22.841637
-10.02469 28.874109 31.983801
-11.313421 30.939968 29.729031
-12.331825 27.666737 30.386423
-13.583925 26.214657 28.312641
-9.828646 45.002605 3.049681
-8.746072 43.998421 1.649192
-8.215469 46.191639 34.74041
-8.753355 44.019127 31.80747
-8.141596 42.292953 35.267189
-9.109268 32.840649 39.904739
-8.928389 35.58889 37.030445
-8.744163 31.64476 37.38723
-8.13425 30.821863 35.277821
-7.281102 28.758984 37.205284
-8.307806 25.581581 37.96685
-6.595097 26.39201 39.430378
-8.234171 61.092834 5.807364
-9.375901 59.161255 7.400384
-7.729747 62.582649 17.90132
-7.317481 60.951363 16.162724
-7.366384 60.465321 18.811186
-8.089832 57.59729 19.846798
-7.740068 59.146149 22.086695
-7.051931 56.644554 29.227112
-6.958072 54.774242 32.772724
-6.630534 52.098137 33.396103
-6.808139 52.551689 35.884457
-6.721701 42.549232 46.462944
-7.645071 63.683205 5.160892
-7.193172 61.257668 3.325337
-5.954083 26.224619 55.082054
-8.683712 54.119774 10.012671
-9.055239 51.395245 7.624673
-7.807497 51.811279 10.669025
-11.813524 46.577774 15.543225
-11.979851 47.430988 12.439031
-13.580884 44.527214 13.565326
-14.550471 41.920769 11.541113
-6.708334 41.14489 27.125116
-8.92487 42.433784 24.739307
-8.753008 39.703529 25.398052
-13.419128 33.577946 24.098974
-13.17767 36.403713 22.828426
-13.334793 45.480423 -2.153648
-10.157887 46.840851 4.363925
-6.010062 41.785313 41.092178
-6.743105 40.420658 38.245445
-7.27991 38.701637 41.903034
-8.710684 34.599274 42.622101
-8.033042 29.812344 42.415657
-6.504863 27.236414 41.941925
-6.920933 28.318203 44.698963
-7.133337 26.890711 47.211163
-11.143909 50.184158 -5.535017
-13.086246 47.590752 -3.906602
-9.236716 53.092934 16.455151
-8.082516 51.269184 14.01398
-8.257869 50.188271 16.747236
-9.599234 47.843098 17.617632
-11.326734 45.382507 18.766628
-8.320153 34.782753 30.446466
-9.648088 36.731266 27.223602
-10.810039 33.870171 28.947704
-12.598763 32.547974 27.164021
-13.437535 30.702068 24.971395
-12.063944 29.394903 23.235891
-13.147711 27.878881 25.583141
-12.527381 25.03157 26.319162
-11.30644 22.446365 27.702541
-9.14242 43.750877 -0.442006
-8.730205 49.619576 28.528397
-8.848914 47.069206 26.025595
-8.463125 45.832821 28.818243
-7.354971 42.463043 29.430149
-6.999637 39.204613 30.694849
-7.5964 38.827709 36.020515
-8.291734 37.242989 33.831848
-7.434721 35.823971 32.445686
-8.142144 32.853157 33.195793
-8.598277 29.753876 33.602055
-9.578851 26.410915 34.507942
-10.428518 56.686115 2.787262
-11.839788 54.450794 4.825913
-10.509993 56.958118 6.255169
-9.078283 56.64032 9.008974
-8.974818 56.490501 11.606844
-9.112303 60.926197 13.014864
-8.439016 58.729076 14.072393
-9.192996 56.180439 15.339586
-8.637556 55.40963 18.169806
-7.79541 53.945824 20.921762
-7.711774 53.501915 24.199661
-7.128566 57.732128 25.611507
-6.928169 55.391224 26.657476
-7.840514 52.769157 27.831482
-7.520179 50.917805 30.840384
-7.22477 49.167492 33.889992
-6.841428 47.144958 37.356152
-6.446914 50.090897 39.058056
-5.902987 47.708534 39.934021
-5.816834 44.639946 40.666248
-5.838158 42.422161 44.145355
-6.472631 40.126637 47.402153
-6.812881 37.523262 50.074265
-8.303287 58.65028 1.576092
-6.878522 31.985081 52.02256
-6.849027 28.748169 52.219391
-11.501681 51.117668 5.803513
-10.050517 49.095963 5.944539
-10.718712 46.938324 6.779175
-9.545486 49.639343 11.382439
-11.707109 47.587864 9.588694
-8.884934 45.201141 23.757
-10.377978 44.103535 22.060595
-11.405065 38.237087 24.294716
-13.04081 39.503681 21.364462
-14.269102 40.515461 18.235332
-14.474586 38.274128 16.358232
-11.986024 26.621131 31.653317
-11.178258 28.270423 31.185112
-10.832457 27.224817 32.452006
-12.90287 25.96999 30.776103
-11.986024 26.621131 31.653317
-11.072838 43.568523 4.296261
-10.248913 43.878019 3.291936
-10.652571 44.69311 4.054006
-11.920338 43.216972 5.368574
-11.072838 43.568523 4.296261
-9.058725 62.179188 8.380268
-8.817436 61.106201 7.461922
-8.47546 62.165821 6.72571
-7.678427 60.881974 19.777881
-7.548065 61.523985 18.356253
-7.860109 61.940638 19.322948
-7.86527 60.222387 21.415636
-7.553226 59.805735 20.44894
-7.678427 60.881974 19.777881
-7.451439 54.513656 33.792772
-7.482513 55.680323 32.014496
-7.376473 53.40238 35.348638
-6.883105 53.662965 34.32859
-7.451439 54.513656 33.792772
-8.18091 63.461006 6.402475
-8.349426 64.352859 6.059997
-8.885265 64.130661 7.301579
-13.419918 44.098292 15.19164
-12.697204 45.552494 14.554275
-12.536238 45.123571 16.180589
-14.163504 42.981228 14.24413
-13.419918 44.098292 15.19164
-13.295289 33.051174 21.442564
-13.529564 33.974502 22.46308
-13.184853 32.654618 23.078457
-12.30543 32.352133 20.704314
-13.295289 33.051174 21.442564
-11.750977 31.443092 21.529604
-12.30543 32.352133 20.704314
-13.245254 46.850242 -0.254668
-13.187936 45.599514 -0.844156
-13.39211 46.731151 -1.564159
-12.15876 47.343705 3.375565
-12.993429 48.275661 3.008887
-11.237887 47.606064 4.247079
-11.078761 46.578491 3.492411
-12.15876 47.343705 3.375565
-7.459591 26.872985 49.719622
-7.339196 26.179485 48.527501
-7.253732 27.58421 48.403284
-8.457942 53.617813 -4.644728
-8.711856 53.636627 -3.352148
-8.813892 52.085993 -5.395948
-8.457942 53.617813 -4.644728
-10.267157 51.166939 -4.843926
-9.690644 51.103212 -6.087039
-8.813892 52.085993 -5.395948
-12.991823 24.00394 27.625345
-13.055653 25.623113 27.315901
-13.520096 24.595483 28.622084
-12.381353 22.711337 28.317034
-11.916911 23.738968 27.010852
-12.991823 24.00394 27.625345
-11.818061 21.423909 28.663059
-12.381353 22.711337 28.317034
-9.925413 44.27607 0.341523
-10.259429 43.902542 -0.649687
-11.042423 44.427734 0.133841
-7.923483 43.674467 0.992565
-8.885548 43.048569 2.029383
-8.864148 26.008067 36.273465
-9.536816 25.505743 35.667099
-8.906184 26.913239 35.114307
-8.897654 24.201853 38.5364
-8.343205 24.586395 39.249886
-6.69131 24.905667 43.463667
-6.659289 25.747642 42.131911
-6.536884 26.394439 43.273681
-11.157388 47.305143 -8.05764
-10.700724 48.62775 -7.454023
-8.772229 62.109106 14.034257
-9.341092 61.98645 12.151803
-9.001017 63.169359 13.171196
-7.436128 57.944485 26.661228
-7.557923 58.739452 24.894832
-7.044247 49.582087 39.792221
-7.078336 50.892174 38.394018
-5.926609 46.314028 41.677925
-6.230137 47.551666 41.046337
-6.253759 46.15716 42.790241
-7.024349 40.02807 48.236557
-6.597166 41.337935 46.932548
-7.148884 41.239368 47.766953
-7.194473 38.726383 49.572613
-6.642756 38.82495 48.738209
-7.024349 40.02807 48.236557
-8.188868 63.975926 1.593964
-8.022246 64.15065 3.238405
-7.423019 63.897335 0.8444
-8.188868 63.975926 1.593964
-7.283701 62.59214 1.529166
-7.423019 63.897335 0.8444
-6.629044 30.585076 53.225599
-7.3342 32.157759 52.828333
-6.614297 28.96662 53.324015
-6.863774 30.366625 52.120976
-6.629044 30.585076 53.225599
-6.31718 26.028334 53.805284
-6.057168 24.956494 55.259374
-12.650302 46.262366 10.010407
-11.84348 47.509426 11.013863
-12.786673 46.183927 11.435576
-12.303614 46.16284 8.592431
-12.650302 46.262366 10.010407
-13.424822 39.423699 11.66456
-13.704943 40.813768 10.865015
-14.27035 40.530699 12.340658
-12.444463 38.766751 12.797568
-13.424822 39.423699 11.66456
-11.697608 41.873936 21.576695
-11.423359 43.330856 21.083217
-10.652227 42.646614 22.554074
-10.510206 29.412099 22.985146
-11.478937 28.309438 23.786853
-13.180339 49.521454 1.111954
-13.559199 48.080963 0.456434
-13.070566 49.422371 -0.319151
-13.346991 49.600832 2.490711
-13.180339 49.521454 1.111954
-12.858358 50.94224 1.715126
-12.671449 49.696447 3.612058
-12.993429 48.275661 3.008887
-13.346991 49.600832 2.490711
-8.652249 55.599954 -1.307354
-8.648504 57.382261 -0.487017
-9.281419 53.84998 -1.974189
-8.652249 55.599954 -1.307354
-9.900361 54.326399 -0.730083
-9.959968 52.363072 -2.774876
-8.711856 53.636627 -3.352148
-9.281419 53.84998 -1.974189
-13.52892 25.24395 29.739212
-12.957875 26.940697 29.349532
-12.90287 25.96999 30.776103
-13.520096 24.595483 28.622084
-13.52892 25.24395 29.739212
-9.707626 43.375927 2.591692
-9.287359 44.500513 2.349436
-10.248913 43.878019 3.291936
-8.885548 43.048569 2.029383
-9.707626 43.375927 2.591692
-7.48685 24.991609 39.98165
-8.343205 24.586395 39.249886
-7.451451 25.986795 38.698614
-6.883069 24.038173 44.759586
-7.118935 24.893419 45.836897
-12.567868 46.190367 -7.184124
-12.970425 46.361817 -5.727002
-9.3883 60.140411 8.258432
-8.805036 60.127044 6.603874
-8.817436 61.106201 7.461922
-9.109882 59.956929 9.909695
-9.097482 58.977772 9.051647
-9.3883 60.140411 8.258432
-7.529443 56.615478 30.24169
-7.397811 57.400697 28.469031
-7.005001 55.709398 30.999918
-7.529443 56.615478 30.24169
-7.482513 55.680323 32.014496
-6.681304 44.758821 44.235972
-6.253759 46.15716 42.790241
-7.067039 43.573677 45.756529
-6.335966 43.734377 44.942386
-6.681304 44.758821 44.235972
-7.588836 42.156326 46.969528
-7.067039 43.573677 45.756529
-7.148884 41.239368 47.766953
-7.588836 42.156326 46.969528
-8.183568 64.144447 4.658203
-8.349426 64.352859 6.059997
-7.483748 63.689408 3.741093
-8.022246 64.15065 3.238405
-8.183568 64.144447 4.658203
-6.29037 26.327973 55.92376
-6.166824 27.704845 54.755346
-6.185849 25.14632 56.410387
-6.29037 26.327973 55.92376
-6.522136 25.249673 57.252093
-6.057168 24.956494 55.259374
-6.185849 25.14632 56.410387
-13.58719 44.73204 11.998724
-12.786673 46.183927 11.435576
-12.780368 45.979101 13.002178
-14.065677 43.223991 12.55322
-14.071983 43.428818 10.986617
-13.58719 44.73204 11.998724
-14.648297 41.678005 13.232024
-14.065677 43.223991 12.55322
-14.163504 42.981228 14.24413
-14.368177 40.287936 14.031568
-14.27035 40.530699 12.340658
-14.648297 41.678005 13.232024
-13.408835 35.387386 21.827807
-13.298399 34.99083 23.4637
-13.529564 33.974502 22.46308
-13.876753 35.901148 20.182717
-13.645589 36.917474 21.183337
-13.408835 35.387386 21.827807
-13.620275 36.466297 18.638571
-13.876753 35.901148 20.182717
-12.355616 44.767315 -1.505508
-12.859818 44.422468 -2.629136
-12.355616 44.767315 -1.505508
-13.187936 45.599514 -0.844156
-11.874743 45.259934 0.795193
-11.042423 44.427734 0.133841
-13.245254 46.850242 -0.254668
-13.559199 48.080963 0.456434
-11.354021 45.558697 1.872974
-11.874743 45.259934 0.795193
-10.91414 45.659368 2.835289
-10.268527 44.901933 2.087366
-11.354021 45.558697 1.872974
-9.993267 45.921728 3.706803
-10.91414 45.659368 2.835289
-11.078761 46.578491 3.492411
-7.401151 25.562542 47.139759
-7.118935 24.893419 45.836897
-6.851121 26.221587 45.9083
-7.401151 25.562542 47.139759
-7.339196 26.179485 48.527501
-10.088112 49.875553 -6.882116
-9.690644 51.103212 -6.087039
-11.756521 48.936355 -6.106924
-10.700724 48.62775 -7.454023
-10.088112 49.875553 -6.882116
-13.328982 46.312916 -4.340887
-12.970425 46.361817 -5.727002
-12.727689 47.639652 -5.292717
-13.453256 45.257751 -3.46441
-13.328982 46.312916 -4.340887
-13.21052 46.535588 -3.030125
-12.859818 44.422468 -2.629136
-13.453256 45.257751 -3.46441
-9.143314 63.142755 9.466399
-9.196226 63.998619 8.702096
-9.104885 63.958206 14.122024
-9.001017 63.169359 13.171196
-8.751923 63.676769 15.769906
-9.104885 63.958206 14.122024
-8.40072 63.322086 17.193741
-8.080951 62.937332 16.477485
-8.751923 63.676769 15.769906
-8.404863 62.478696 18.630474
-8.40072 63.322086 17.193741
-7.860109 61.940638 19.322948
-8.404863 62.478696 18.630474
-9.196226 63.998619 8.702096
-8.885265 64.130661 7.301579
-12.292843 44.525938 17.792291
-12.536238 45.123571 16.180589
-11.570129 45.98014 17.154927
-12.02082 27.551426 24.960478
-11.478937 28.309438 23.786853
-12.605828 28.636892 24.409516
-11.710655 26.127771 25.328488
-12.02082 27.551426 24.960478
-12.837546 26.455225 25.951152
-11.122726 24.96822 26.055725
-11.710655 26.127771 25.328488
-10.512255 23.675617 26.747414
-11.122726 24.96822 26.055725
-11.916911 23.738968 27.010852
-9.811272 22.565355 27.618757
-10.512255 23.675617 26.747414
-10.464544 21.489058 28.413905
-9.811272 22.565355 27.618757
-10.464544 21.489058 28.413905
-11.818061 21.423909 28.663059
-9.393171 43.328995 -1.341337
-10.259429 43.902542 -0.649687
-8.22568 43.314241 -1.191871
-9.393171 43.328995 -1.341337
-8.121657 43.550695 -0.053034
-8.944246 43.874649 0.603593
-7.923483 43.674467 0.992565
-8.22568 43.314241 -1.191871
-8.121657 43.550695 -0.053034
-10.609538 25.99322 33.714077
-10.832457 27.224817 32.452006
-9.80177 27.642512 33.245871
-10.27908 25.05058 34.908722
-10.609538 25.99322 33.714077
-10.27908 25.05058 34.908722
-9.536816 25.505743 35.667099
-8.901293 25.091076 37.396553
-8.864148 26.008067 36.273465
-8.270661 26.498573 36.843761
-8.901293 25.091076 37.396553
-8.897654 24.201853 38.5364
-6.704406 25.32544 40.876137
-6.54998 26.814212 40.686151
-6.659289 25.747642 42.131911
-7.48685 24.991609 39.98165
-6.704406 25.32544 40.876137
-6.69131 24.905667 43.463667
-6.883069 24.038173 44.759586
-11.157388 47.305143 -8.05764
-12.567868 46.190367 -7.184124
-9.058725 62.179188 8.380268
-9.143314 63.142755 9.466399
-9.256502 61.022883 11.065672
-9.341092 61.98645 12.151803
-8.965683 59.860243 11.858887
-9.109882 59.956929 9.909695
-9.256502 61.022883 11.065672
-7.863673 59.446463 23.132427
-7.86527 60.222387 21.415636
-7.434317 58.439138 23.849101
-7.863673 59.446463 23.132427
-7.557923 58.739452 24.894832
-7.090248 57.188341 27.41931
-7.436128 57.944485 26.661228
-7.397811 57.400697 28.469031
-7.258948 52.12257 36.807218
-7.376473 53.40238 35.348638
-6.627527 51.321293 37.471256
-7.258948 52.12257 36.807218
-7.078336 50.892174 38.394018
-6.5021 48.742847 40.608355
-7.044247 49.582087 39.792221
-6.17495 48.899715 39.496038
-6.5021 48.742847 40.608355
-6.230137 47.551666 41.046337
-7.219074 61.373169 2.031188
-7.283701 62.59214 1.529166
-7.257799 62.476639 2.823316
-7.774132 60.069475 1.156565
-7.219074 61.373169 2.031188
-7.748229 59.953974 2.450715
-8.164551 58.669214 0.332653
-7.774132 60.069475 1.156565
-8.787239 57.363327 0.756422
-8.648504 57.382261 -0.487017
-8.164551 58.669214 0.332653
-7.77528 37.441139 50.356544
-7.194473 38.726383 49.572613
-7.247924 36.411525 50.921404
-7.77528 37.441139 50.356544
-7.106397 35.000759 50.858112
-6.671354 36.112496 50.010973
-7.247924 36.411525 50.921404
-7.280744 33.642435 51.895551
-7.3342 32.157759 52.828333
-6.704175 33.343405 50.985121
-7.106397 35.000759 50.858112
-7.280744 33.642435 51.895551
-6.401555 27.486394 53.650723
-6.614297 28.96662 53.324015
-6.166824 27.704845 54.755346
-6.764652 27.290109 52.373953
-6.401555 27.486394 53.650723
-6.31718 26.028334 53.805284
-7.027202 27.05488 51.06196
-7.111576 28.51294 50.907398
-6.764652 27.290109 52.373953
-7.459591 26.872985 49.719622
-7.027202 27.05488 51.06196
-11.809415 45.83807 7.187672
-11.21291 47.263094 8.183934
-12.303614 46.16284 8.592431
-12.188307 44.560715 6.32725
-11.097604 45.660969 5.918753
-11.809415 45.83807 7.187672
-11.920338 43.216972 5.368574
-12.188307 44.560715 6.32725
-14.151532 41.942391 10.003431
-14.071983 43.428818 10.986617
-14.151532 41.942391 10.003431
-13.704943 40.813768 10.865015
-11.897737 43.970343 19.436234
-10.852356 44.743021 20.413612
-11.423359 43.330856 21.083217
-12.292843 44.525938 17.792291
-11.897737 43.970343 19.436234
-12.754775 41.030929 20.73515
-11.697608 41.873936 21.576695
-11.983643 40.346687 22.206007
-13.368921 41.53682 19.170586
-12.754775 41.030929 20.73515
-13.654956 40.009571 19.799897
-13.764027 42.092415 17.526643
-13.368921 41.53682 19.170586
-14.507613 40.975352 16.579133
-13.764027 42.092415 17.526643
-14.610355 39.854685 15.640583
-14.507613 40.975352 16.579133
-14.371844 39.394795 17.296782
-14.232408 38.707378 14.749218
-14.368177 40.287936 14.031568
-14.610355 39.854685 15.640583
-13.800814 36.887743 17.048564
-14.294047 37.852682 17.94824
-13.620275 36.466297 18.638571
-13.252604 37.566648 15.694517
-13.800814 36.887743 17.048564
-13.010426 37.999899 14.085503
-14.232408 38.707378 14.749218
-13.252604 37.566648 15.694517
-12.444463 38.766751 12.797568
-13.010426 37.999899 14.085503
-11.307659 30.2749 22.118579
-11.750977 31.443092 21.529604
-12.507261 30.563096 22.646916
-11.307659 30.2749 22.118579
-10.510206 29.412099 22.985146
3 1 46 45
3 0 49 47
3 0 51 49
3 1 53 52
3 1 45 53
3 2 57 55
3 176 60 177
3 178 177 58
3 176 177 178
3 180 179 60
3 3 181 183
3 183 182 62
3 181 182 183
3 3 184 185
3 4 66 64
3 6 69 67
3 6 71 69
3 6 73 71
3 7 186 188
3 188 187 74
3 186 187 188
3 189 78 190
3 191 190 76
3 189 190 191
3 192 80 193
3 194 193 78
3 192 193 194
3 195 82 196
3 197 84 198
3 199 198 82
3 197 198 199
3 7 200 202
3 200 86 201
3 200 201 202
3 7 74 86
3 8 91 89
3 203 94 204
3 205 204 92
3 203 204 205
3 207 206 94
3 5 98 96
3 9 208 210
3 210 209 99
3 208 209 210
3 9 211 212
3 9 213 214
3 10 215 217
3 217 216 101
3 215 216 217
3 12 218 219
3 12 220 222
3 220 102 221
3 220 221 222
3 13 105 103
3 15 106 48
3 15 107 106
3 15 109 107
3 17 110 50
3 17 223 225
3 225 224 110
3 223 224 225
3 18 226 227
3 18 228 229
3 18 230 232
3 230 111 231
3 230 231 232
3 10 112 54
3 10 101 112
3 21 115 113
3 23 116 56
3 23 117 116
3 24 120 118
3 26 121 59
3 26 122 121
3 26 124 122
3 233 125 234
3 235 234 61
3 233 234 235
3 236 126 237
3 238 237 125
3 236 237 238
3 240 239 126
3 11 241 243
3 241 127 242
3 241 242 243
3 245 244 63
3 27 130 128
3 29 131 65
3 29 132 131
3 14 133 104
3 30 134 68
3 30 135 134
3 30 136 135
3 31 137 70
3 31 138 137
3 31 246 248
3 248 247 138
3 246 247 248
3 250 249 72
3 16 251 253
3 253 252 108
3 251 252 253
3 19 254 255
3 32 141 139
3 34 142 75
3 34 143 142
3 20 256 258
3 256 144 257
3 256 257 258
3 35 145 77
3 35 146 145
3 35 147 146
3 36 148 79
3 36 149 148
3 259 150 260
3 37 151 81
3 37 152 151
3 37 153 152
3 38 154 83
3 38 155 154
3 261 156 262
3 39 263 265
3 263 157 264
3 263 264 265
3 39 158 157
3 39 159 158
3 266 160 267
3 268 267 85
3 266 267 268
3 269 161 270
3 271 270 160
3 269 270 271
3 40 272 273
3 40 274 275
3 40 276 277
3 32 162 87
3 32 139 162
3 278 163 279
3 280 164 281
3 282 281 163
3 280 281 282
3 284 283 88
3 33 165 140
3 41 166 90
3 41 167 166
3 22 168 114
3 285 169 286
3 287 286 93
3 285 286 287
3 289 288 169
3 42 290 292
3 292 291 95
3 290 291 292
3 42 293 294
3 28 170 129
3 43 171 97
3 43 295 297
3 297 296 171
3 295 296 297
3 25 172 119
3 44 173 100
3 44 174 173
3 44 175 174
3 299 298 123
3 45 300 302
3 302 301 10
3 300 301 302
3 46 303 305
3 305 304 45
3 303 304 305
3 46 306 308
3 306 12 307
3 306 307 308
3 47 48 13
3 49 48 47
3 49 15 48
3 49 50 15
3 51 50 49
3 51 17 50
3 52 309 310
3 53 311 313
3 313 312 52
3 311 312 313
3 53 314 316
3 314 18 315
3 314 315 316
3 53 54 18
3 45 54 53
3 45 10 54
3 55 56 21
3 57 56 55
3 57 23 56
3 58 59 24
3 60 59 58
3 60 26 59
3 60 61 26
3 317 61 318
3 319 318 60
3 317 318 319
3 321 320 61
3 62 63 11
3 322 63 323
3 324 323 62
3 322 323 324
3 326 325 63
3 64 65 27
3 66 65 64
3 66 29 65
3 67 68 14
3 69 68 67
3 69 30 68
3 69 70 30
3 71 70 69
3 71 31 70
3 71 72 31
3 73 72 71
3 73 327 329
3 329 328 72
3 327 328 329
3 331 330 16
3 333 332 19
3 74 75 32
3 334 75 335
3 336 335 74
3 334 335 336
3 337 34 338
3 339 338 75
3 337 338 339
3 76 77 20
3 78 77 76
3 78 35 77
3 78 79 35
3 80 79 78
3 80 36 79
3 340 81 341
3 82 342 344
3 342 81 343
3 342 343 344
3 82 37 81
3 82 83 37
3 84 83 82
3 84 38 83
3 345 39 346
3 347 85 348
3 349 348 39
3 347 348 349
3 350 85 351
3 353 352 85
3 86 354 355
3 86 356 358
3 356 40 357
3 356 357 358
3 86 87 40
3 74 87 86
3 74 32 87
3 359 88 360
3 361 88 362
3 361 362 363
3 365 364 88
3 89 90 33
3 91 90 89
3 91 41 90
3 92 93 22
3 94 93 92
3 94 366 368
3 368 367 93
3 366 367 368
3 94 369 371
3 369 95 370
3 369 370 371
3 372 95 373
3 374 373 94
3 372 373 374
3 375 42 376
3 377 376 95
3 375 376 377
3 96 97 28
3 98 97 96
3 98 43 97
3 99 100 25
3 378 100 379
3 380 379 99
3 378 379 380
3 381 44 382
3 383 382 100
3 381 382 383
3 385 384 44
3 101 386 387
3 389 388 101
3 390 11 391
3 393 392 10
3 394 11 395
3 396 62 397
3 398 397 11
3 396 397 398
3 102 399 401
3 399 62 400
3 399 400 401
3 102 3 62
3 103 104 4
3 105 104 103
3 105 14 104
3 48 105 13
3 106 105 48
3 106 14 105
3 106 67 14
3 107 67 106
3 107 6 67
3 107 108 6
3 109 108 107
3 109 16 108
3 50 109 15
3 110 109 50
3 110 16 109
3 110 402 404
3 404 403 16
3 402 403 404
3 406 405 110
3 111 407 408
3 111 409 411
3 409 19 410
3 409 410 411
3 54 111 18
3 112 111 54
3 112 19 111
3 112 412 414
3 414 413 19
3 412 413 414
3 101 415 417
3 417 416 112
3 415 416 417
3 101 418 419
3 421 420 7
3 422 20 423
3 424 20 425
3 426 76 427
3 428 427 20
3 426 427 428
3 429 76 430
3 432 431 76
3 433 7 434
3 113 114 8
3 115 114 113
3 115 22 114
3 56 115 21
3 116 115 56
3 116 22 115
3 116 92 22
3 117 92 116
3 117 435 437
3 437 436 92
3 435 436 437
3 118 119 5
3 120 119 118
3 120 25 119
3 59 120 24
3 121 120 59
3 121 25 120
3 121 99 25
3 122 99 121
3 122 9 99
3 122 123 9
3 124 123 122
3 124 438 440
3 440 439 123
3 438 439 440
3 61 124 26
3 125 124 61
3 125 441 443
3 443 442 124
3 441 442 443
3 125 444 445
3 126 446 448
3 448 447 125
3 446 447 448
3 126 449 450
3 126 451 452
3 454 453 126
3 127 455 456
3 127 457 458
3 63 127 11
3 459 127 460
3 461 460 63
3 459 460 461
3 463 462 127
3 128 129 2
3 130 129 128
3 130 28 129
3 65 130 27
3 131 130 65
3 131 28 130
3 131 96 28
3 132 96 131
3 132 5 96
3 104 66 4
3 133 66 104
3 133 29 66
3 68 133 14
3 134 133 68
3 134 29 133
3 134 132 29
3 135 132 134
3 135 5 132
3 135 118 5
3 136 118 135
3 136 24 118
3 70 136 30
3 137 136 70
3 137 24 136
3 137 58 24
3 138 58 137
3 138 464 466
3 466 465 58
3 464 465 466
3 138 467 468
3 470 469 138
3 72 471 473
3 473 472 31
3 471 472 473
3 475 474 72
3 108 73 6
3 476 73 477
3 478 477 108
3 476 477 478
3 480 479 73
3 482 481 16
3 484 483 19
3 139 140 1
3 141 140 139
3 141 33 140
3 75 141 32
3 142 141 75
3 142 33 141
3 142 89 33
3 143 89 142
3 143 8 89
3 486 485 7
3 144 487 488
3 144 489 491
3 489 34 490
3 489 490 491
3 77 144 20
3 145 144 77
3 145 34 144
3 145 143 34
3 146 143 145
3 146 8 143
3 146 113 8
3 147 113 146
3 147 21 113
3 79 147 35
3 148 147 79
3 148 21 147
3 148 55 21
3 149 55 148
3 149 2 55
3 492 80 493
3 150 494 496
3 494 80 495
3 494 495 496
3 150 36 80
3 81 497 499
3 497 150 498
3 497 498 499
3 151 150 81
3 151 36 150
3 151 149 36
3 152 149 151
3 152 2 149
3 152 128 2
3 153 128 152
3 153 27 128
3 83 153 37
3 154 153 83
3 154 27 153
3 154 64 27
3 155 64 154
3 155 4 64
3 500 84 501
3 156 502 504
3 502 84 503
3 502 503 504
3 156 38 84
3 505 156 506
3 157 507 509
3 507 156 508
3 507 508 509
3 157 38 156
3 157 155 38
3 158 155 157
3 158 4 155
3 158 103 4
3 159 103 158
3 159 13 103
3 85 159 39
3 160 159 85
3 160 13 159
3 160 47 13
3 161 47 160
3 161 0 47
3 87 510 512
3 512 511 40
3 510 511 512
3 162 513 515
3 515 514 87
3 513 514 515
3 162 516 517
3 162 518 520
3 518 52 519
3 518 519 520
3 139 52 162
3 139 1 52
3 521 161 522
3 523 161 524
3 525 0 526
3 527 526 161
3 525 526 527
3 163 528 529
3 163 530 532
3 530 0 531
3 530 531 532
3 163 51 0
3 164 51 163
3 164 17 51
3 88 533 535
3 533 164 534
3 533 534 535
3 536 164 537
3 538 537 88
3 536 537 538
3 539 17 540
3 541 540 164
3 539 540 541
3 543 542 17
3 140 46 1
3 165 46 140
3 165 12 46
3 90 165 33
3 166 165 90
3 166 12 165
3 166 102 12
3 167 102 166
3 167 3 102
3 114 91 8
3 168 91 114
3 168 41 91
3 93 168 22
3 169 168 93
3 169 41 168
3 169 167 41
3 544 167 545
3 546 545 169
3 544 545 546
3 547 3 548
3 549 548 167
3 547 548 549
3 551 550 3
3 95 552 553
3 555 554 95
3 129 57 2
3 170 57 129
3 170 23 57
3 97 170 28
3 171 170 97
3 171 23 170
3 171 117 23
3 556 117 557
3 558 557 171
3 556 557 558
3 560 559 117
3 119 98 5
3 172 98 119
3 172 43 98
3 100 172 25
3 173 172 100
3 173 43 172
3 173 561 563
3 563 562 43
3 561 562 563
3 174 564 566
3 566 565 173
3 564 565 566
3 174 567 568
3 174 569 570
3 175 571 573
3 573 572 174
3 571 572 573
3 175 574 576
3 574 42 575
3 574 575 576
3 577 175 578
3 579 578 44
3 577 578 579
3 580 175 581
3 582 42 583
3 584 583 175
3 582 583 584
3 586 585 42
3 123 587 589
3 589 588 9
3 587 588 589
3 591 590 123
