ply
format ascii 1.0
element vertex 522
property float x
property float y
property float z
element face 525
property list uchar int vertex_index
end_header
27.67009 20.717716 -8.98414
37.257069 6.126338 -2.433275
37.92094 -4.146653 -0.11417
25.344246 12.089085 -17.626568
30.477421 12.306187 -14.473207
35.476009 16.035223 -5.160883
36.544838 6.458127 -11.698964
34.956108 0.024544 8.573642
31.303684 21.535727 1.250643
32.299099 11.214525 5.194312
25.984961 17.707186 -14.532133
28.307611 16.649504 -11.288554
37.091194 13.170232 -3.726133
37.282543 7.170116 -6.565019
37.31813 2.019909 -5.604452
32.721836 7.461304 10.726675
29.099529 25.240557 -1.569221
30.617878 18.628092 7.754751
33.726402 5.66071 6.814894
38.963898 0.958426 -0.736332
27.600107 12.509321 -16.162991
31.505856 6.580472 -15.886889
30.226212 17.695154 -5.704974
32.396603 14.284861 -8.936941
36.16819 11.651388 -8.143278
36.561954 -7.336711 5.078685
35.697136 -7.080197 8.410803
34.854046 -7.263097 11.414281
29.547781 21.406343 -3.381595
34.497643 19.371426 -2.197804
35.319904 15.298605 -0.395902
29.59347 24.007307 5.012836
32.427361 16.544064 3.655379
34.412712 8.865062 1.201102
36.098038 2.417217 2.692342
38.075027 -2.12248 4.716537
33.904442 10.601248 -12.669609
34.461426 5.804395 -16.418112
26.705652 19.622059 -11.873693
27.690052 18.707357 -9.989062
36.346245 9.901103 -3.111744
37.427502 7.225652 -4.47243
38.337284 4.149913 -3.841191
33.136333 6.982612 11.993138
31.97694 10.299857 10.12795
38.280312 -1.55153 -0.247233
27.788488 14.818347 -13.839441
26.347004 15.150165 -15.08255
28.963001 12.46345 -15.286296
29.689617 9.753199 -16.017902
31.068121 9.688739 -15.572093
32.695549 16.633108 -4.974662
33.51115 14.751905 -6.644349
35.944771 13.972311 -6.693591
37.365372 2.004303 -8.765455
37.350204 4.394684 -8.891696
37.551025 -3.240948 7.713146
35.97039 -7.318158 6.61712
36.938881 -3.066225 9.257648
35.62339 -3.186535 12.21011
35.464306 -3.442221 13.52153
34.527691 -7.312393 12.91118
35.591656 -3.637523 14.838923
28.337341 22.99538 -5.313637
28.713812 24.912617 -4.5857
29.935144 23.604588 0.118425
30.977213 22.041248 -1.205964
32.986149 20.547365 -0.435781
35.659649 17.563997 -1.351557
34.197208 18.268042 0.737834
30.193165 27.640772 4.980954
31.235342 14.875592 6.598323
31.272724 17.678295 5.746715
32.077629 13.861776 4.34128
33.069408 12.873426 2.162626
33.369652 10.119284 3.108246
35.266815 5.571009 2.037718
34.142406 7.242322 4.101203
34.071484 2.644553 7.547525
35.435658 1.271064 5.704802
36.737396 -1.116202 6.803927
37.377022 -4.615616 5.137413
35.044346 10.814482 -10.175848
33.294945 12.616979 -10.880302
35.341972 8.791852 -12.035715
26.50922 20.127487 -14.065106
26.886332 17.239792 -12.722716
29.344143 14.553937 -12.805605
37.315578 14.981781 -4.823212
37.353172 12.308207 -6.158988
37.087624 10.329251 -5.126994
37.562031 4.454411 -6.194005
33.206017 3.729436 9.577749
34.430542 0.018486 10.268043
29.196835 26.991236 -0.344436
29.306284 25.185959 1.543524
30.272385 22.201868 8.368979
30.71751 19.376917 9.727003
31.559601 12.10739 7.447624
33.115173 8.52019 6.150678
32.255901 9.553681 8.195984
33.009586 6.701592 8.901613
27.556446 9.057828 -16.200045
26.344604 9.018427 -15.925514
38.544506 3.389216 -1.63335
38.311836 1.682168 -3.037392
37.373043 -0.720811 -2.516389
24.861715 15.256216 -18.630424
25.38715 15.400452 -16.702692
26.43865 12.303856 -17.020348
28.62417 9.296917 -16.221727
28.650665 19.109524 -7.044086
29.511555 17.187527 -8.245875
31.230209 15.873586 -7.175761
34.337811 12.959027 -8.434595
36.058899 9.047418 -9.609233
36.973598 9.79283 -7.312898
36.703014 6.884084 -9.063777
37.323551 4.259026 -11.690244
36.179184 -3.051563 10.847006
35.312462 -7.145986 10.002233
36.101418 -3.658756 16.236588
28.346874 21.02265 -6.05547
29.829468 19.496727 -4.336629
32.532829 18.543465 -3.665824
29.240219 23.365551 -2.533984
32.013474 20.339029 -2.481628
35.247356 17.7624 -3.761664
36.614117 16.554056 -3.097788
36.54229 14.511722 -2.079707
35.347286 11.379539 -1.5815
29.389698 26.549902 3.284819
30.057184 22.757494 3.095883
30.016743 21.355602 6.490283
30.801687 20.160706 4.428136
32.317215 19.067717 2.556937
33.794682 15.709353 1.612721
34.130035 12.265594 0.122661
35.747616 7.406534 -0.685721
36.987198 4.169877 -0.02856
38.332863 1.516796 1.031431
38.665035 -0.602618 2.045754
34.659142 4.136881 4.774718
37.3904 0.15233 3.871625
38.100861 -3.392518 2.171713
37.755608 -5.81652 2.445136
30.332861 15.597597 -9.945995
31.363556 13.932541 -11.75694
32.237034 11.821773 -13.535998
35.700886 6.499593 -14.176832
34.204918 8.158524 -14.344394
32.683056 9.182007 -14.860806
32.921726 6.367413 -16.070795
27.680071 19.712536 -9.486601
27.526913 20.325546 -10.600024
27.516931 21.330725 -10.097563
37.469326 -5.006668 -1.310776
37.649012 -3.709106 -1.377308
38.100626 -2.849092 -0.180702
37.595782 0.916191 -10.251005
37.610506 -0.142623 -10.261848
35.189882 -1.833357 14.110072
34.899715 -1.762687 13.421607
35.253557 -1.931007 14.768769
35.527981 -3.539872 14.180226
35.189882 -1.833357 14.110072
29.811704 26.080119 -5.369255
29.266793 25.348017 -5.782521
30.364684 26.515518 -6.566075
24.738149 12.045392 -17.803145
24.8688 13.358971 -18.794804
27.148182 21.186712 -13.864059
27.572699 20.982465 -15.010476
37.256999 0.859374 -7.092666
37.37895 2.076625 -7.387443
37.44008 3.23716 -5.899228
32.90202 5.464914 10.974839
33.14411 3.598981 10.400375
32.963926 5.59537 10.152212
33.281538 5.093828 12.310764
33.5497 6.795001 12.467234
29.47852 27.734062 0.350562
30.217699 28.193379 -0.946773
29.533244 26.831423 1.294542
29.251559 26.088597 0.599544
29.47852 27.734062 0.350562
31.198573 19.648981 10.539983
31.045815 21.046647 9.85733
31.391114 12.512841 8.466601
31.197785 13.971389 8.122834
31.739263 11.235986 8.840781
31.907751 10.830535 7.821804
31.391114 12.512841 8.466601
28.169715 7.688536 -15.313712
28.53763 7.675562 -15.665809
25.546997 16.535856 -18.876024
25.429513 16.149372 -19.94422
25.891523 17.853431 -15.576149
26.515974 18.871848 -15.450464
30.960583 6.490503 -15.764578
30.052464 8.076867 -15.830085
30.597736 8.166836 -15.952395
31.944033 5.18648 -16.095569
30.960583 6.490503 -15.764578
37.216253 4.434998 -10.405055
37.026609 5.639384 -8.977736
37.539848 3.190298 -10.319014
37.526522 3.12247 -11.718288
37.013283 5.571555 -10.377011
37.216253 4.434998 -10.405055
37.864441 2.263104 -13.405153
37.526522 3.12247 -11.718288
37.549522 0.68066 -4.115769
37.462015 -0.52254 -4.105115
37.304796 -9.045479 5.056869
37.637248 -8.812756 4.261366
36.420807 -9.157001 7.439253
36.557434 -9.275982 6.542412
35.833763 -7.199178 7.513961
35.887726 -9.225439 8.164917
36.420807 -9.157001 7.439253
35.183809 -1.520361 11.344225
35.304863 -1.516539 10.557524
34.309489 0.014663 11.054744
34.968447 -9.420078 10.389177
35.197655 -9.361523 9.683153
35.083254 -7.204541 10.708257
34.5434 -9.334902 11.218828
34.968447 -9.420078 10.389177
34.13558 -9.223022 12.869028
34.558267 -7.299268 13.707754
36.603977 -2.023022 16.482945
35.949652 -1.941007 16.046254
28.599785 22.618377 -6.830756
28.206885 21.740544 -7.117907
28.459796 23.336271 -7.893192
29.169874 24.303054 -2.051602
29.319946 25.055952 -3.183522
29.249601 25.993455 -2.701141
37.239179 -7.789896 3.963479
37.646713 -6.429349 3.992843
36.969488 -5.976164 5.108049
37.637248 -8.812756 4.261366
37.239179 -7.789896 3.963479
25.692835 9.097051 -15.888101
26.973434 7.642987 -14.974687
36.549031 4.958826 -15.789811
36.315023 5.488034 -14.232567
34.333172 6.981459 -15.381253
35.103043 6.473564 -15.64962
35.231296 5.296499 -16.686478
27.034712 20.782897 -11.542339
27.246398 20.933998 -12.768352
27.197852 19.164708 -10.931377
27.034712 20.782897 -11.542339
27.526913 20.325546 -10.600024
32.807974 8.998631 11.885732
32.929085 7.221958 11.359907
32.600725 9.237977 11.2525
33.331726 8.725881 12.305623
32.807974 8.998631 11.885732
33.5497 6.795001 12.467234
33.331726 8.725881 12.305623
31.830328 11.986262 10.748007
31.599783 11.609074 9.806764
32.228277 10.657253 10.953138
31.830328 11.986262 10.748007
32.600725 9.237977 11.2525
32.349388 8.880581 10.427312
32.228277 10.657253 10.953138
37.736407 -2.424091 -1.403255
38.078199 -1.169113 -1.647805
38.622105 -0.296552 -0.491783
37.736407 -2.424091 -1.403255
37.649012 -3.709106 -1.377308
37.588197 2.111381 -10.314126
37.357788 3.199493 -8.828575
37.595782 0.916191 -10.251005
37.539848 3.190298 -10.319014
37.588197 2.111381 -10.314126
34.979258 -1.634844 12.765897
34.905912 -1.587847 12.025777
35.543848 -3.314378 12.86582
34.979258 -1.634844 12.765897
34.899715 -1.762687 13.421607
35.09025 -5.461833 14.671625
34.558267 -7.299268 13.707754
35.059674 -5.474958 13.875051
29.078557 24.389398 -6.146489
28.595019 23.604742 -6.459839
28.525576 23.953999 -4.949668
29.078557 24.389398 -6.146489
29.266793 25.348017 -5.782521
30.849013 27.820442 5.666171
31.224716 28.934151 4.45411
30.121482 26.33897 5.928994
30.849013 27.820442 5.666171
29.821635 24.522238 5.944935
29.893318 25.824039 4.996895
30.121482 26.33897 5.928994
35.228306 4.895007 -18.155942
35.231296 5.296499 -16.686478
34.465992 4.969933 -17.687226
35.228306 4.895007 -18.155942
37.430712 -6.199721 -1.219417
37.894598 -5.381654 -0.024245
26.778104 20.081998 -15.21695
27.572699 20.982465 -15.010476
26.24709 18.917336 -14.29862
26.515974 18.871848 -15.450464
26.778104 20.081998 -15.21695
26.607436 19.874773 -12.969399
27.148182 21.186712 -13.864059
27.246398 20.933998 -12.768352
37.28062 0.851571 -8.673168
37.463701 3.229357 -7.47973
37.37895 2.076625 -7.387443
37.610506 -0.142623 -10.261848
37.28062 0.851571 -8.673168
33.756372 1.743505 10.745522
33.81828 1.873961 9.922896
33.14411 3.598981 10.400375
34.309489 0.014663 11.054744
33.756372 1.743505 10.745522
33.109268 5.225568 11.60807
32.90202 5.464914 10.974839
32.929085 7.221958 11.359907
33.109268 5.225568 11.60807
33.281538 5.093828 12.310764
29.650378 26.755067 -2.180338
29.249601 25.993455 -2.701141
29.699031 27.630406 -1.567946
30.217699 28.193379 -0.946773
29.148182 26.115896 -0.956828
29.650378 26.755067 -2.180338
29.699031 27.630406 -1.567946
30.823253 22.459122 9.178318
30.768828 23.804322 8.361002
30.494948 20.789392 9.047991
30.823253 22.459122 9.178318
31.045815 21.046647 9.85733
30.874095 18.014615 10.247142
31.198573 19.648981 10.539983
30.776739 17.606153 9.262524
30.874095 18.014615 10.247142
30.726923 17.23174 8.276398
30.667694 19.002505 8.740877
30.776739 17.606153 9.262524
31.035655 15.35549 7.698184
30.92661 16.751842 7.176537
30.726923 17.23174 8.276398
31.397472 13.491491 7.022973
31.035655 15.35549 7.698184
31.197785 13.971389 8.122834
32.116421 9.926769 9.161967
31.739263 11.235986 8.840781
31.599783 11.609074 9.806764
27.563794 7.668836 -15.176446
26.950525 9.038128 -16.062779
28.169715 7.688536 -15.313712
26.973434 7.642987 -14.974687
27.563794 7.668836 -15.176446
36.736999 5.467301 -12.993633
37.219299 4.362366 -13.176626
36.992619 -1.724029 -3.844613
37.462015 -0.52254 -4.105115
37.842439 0.480679 -2.776891
37.282772 -2.008731 -2.537834
38.16847 0.118808 -1.626361
38.078199 -1.169113 -1.647805
36.875017 -2.931434 -3.897904
37.282772 -2.008731 -2.537834
36.992619 -1.724029 -3.844613
36.875017 -2.931434 -3.897904
37.469326 -5.006668 -1.310776
37.430712 -6.199721 -1.219417
24.627534 14.942536 -19.296731
25.429513 16.149372 -19.94422
25.102981 13.67265 -18.128496
24.8688 13.358971 -18.794804
24.627534 14.942536 -19.296731
26.072545 16.574921 -15.851357
25.891523 17.853431 -15.576149
26.165982 16.428676 -14.807341
25.592618 16.700064 -16.661428
26.072545 16.574921 -15.851357
25.867077 15.275308 -15.892621
25.809714 16.607973 -17.912158
25.592618 16.700064 -16.661428
25.124432 15.328334 -17.666558
25.546997 16.535856 -18.876024
25.809714 16.607973 -17.912158
29.071492 7.795106 -15.676651
28.53763 7.675562 -15.665809
28.090308 9.177373 -16.210886
29.51974 7.848726 -15.931998
29.156893 9.525058 -16.119815
30.052464 8.076867 -15.830085
29.071492 7.795106 -15.676651
29.51974 7.848726 -15.931998
37.608656 3.262816 -13.172265
37.219299 4.362366 -13.176626
36.934195 5.358576 -11.694604
37.608656 3.262816 -13.172265
37.864441 2.263104 -13.405153
37.562247 1.914532 -4.517669
38.32456 2.91604 -3.439291
37.549522 0.68066 -4.115769
37.052669 0.849531 -5.399299
37.827707 3.084911 -4.722822
37.562247 1.914532 -4.517669
37.157162 -0.201256 -6.917161
37.052669 0.849531 -5.399299
37.256999 0.859374 -7.092666
37.157162 -0.201256 -6.917161
37.009014 -9.036202 5.826087
37.304796 -9.045479 5.056869
36.266172 -7.327435 5.847903
37.009014 -9.036202 5.826087
36.557434 -9.275982 6.542412
35.901287 -3.119049 11.528558
35.183809 -1.520361 11.344225
34.905912 -1.587847 12.025777
35.695389 -9.258333 8.960632
35.887726 -9.225439 8.164917
35.504799 -7.113091 9.206518
35.695389 -9.258333 8.960632
35.197655 -9.361523 9.683153
34.380223 -9.35955 11.967277
34.5434 -9.334902 11.218828
34.690868 -7.287745 12.162731
34.380223 -9.35955 11.967277
34.13558 -9.223022 12.869028
35.694771 -1.930391 15.347422
35.253557 -1.931007 14.768769
35.846537 -3.64814 15.537755
35.694771 -1.930391 15.347422
35.949652 -1.941007 16.046254
35.345131 -5.472449 15.370458
35.09025 -5.461833 14.671625
35.846537 -3.64814 15.537755
36.577065 -3.688166 16.774499
36.603977 -2.023022 16.482945
35.625737 -5.406373 16.07366
36.577065 -3.688166 16.774499
35.345131 -5.472449 15.370458
35.625737 -5.406373 16.07366
28.389117 22.226609 -10.033575
27.516931 21.330725 -10.097563
27.868492 21.588077 -8.582242
28.389117 22.226609 -10.033575
28.35878 20.783981 -7.612215
28.160377 19.91362 -8.014113
27.868492 21.588077 -8.582242
28.49877 20.066087 -6.549778
28.35878 20.783981 -7.612215
28.206885 21.740544 -7.117907
28.342107 22.009015 -5.684553
28.599785 22.618377 -6.830756
28.595019 23.604742 -6.459839
29.056742 25.829485 -4.20938
29.811704 26.080119 -5.369255
28.977016 24.139084 -3.559842
29.056742 25.829485 -4.20938
29.319946 25.055952 -3.183522
30.516095 28.634628 3.768041
31.224716 28.934151 4.45411
30.114361 28.089194 2.919974
30.516095 28.634628 3.768041
29.791432 27.095337 4.132886
29.574951 27.513395 2.16519
30.114361 28.089194 2.919974
29.347991 25.86793 2.414172
29.533244 26.831423 1.294542
29.574951 27.513395 2.16519
30.161092 23.619518 7.623006
30.768828 23.804322 8.361002
30.033271 23.196385 6.683658
30.161092 23.619518 7.623006
30.144564 21.778735 7.429631
29.805107 22.681455 5.751559
29.821635 24.522238 5.944935
30.033271 23.196385 6.683658
37.984559 -5.004587 1.118696
37.894598 -5.381654 -0.024245
38.010901 -3.769585 1.028771
37.811932 -6.216588 1.255408
37.984559 -5.004587 1.118696
37.928235 -4.604519 2.308425
37.794512 -7.358329 1.499631
37.811932 -6.216588 1.255408
37.836006 -7.029801 2.646705
37.566315 -5.216068 3.791275
37.646713 -6.429349 3.992843
37.794512 -7.358329 1.499631
37.836006 -7.029801 2.646705
25.238329 10.510063 -16.952618
24.738149 12.045392 -17.803145
25.844425 10.553756 -16.776041
25.238329 10.510063 -16.952618
25.692835 9.097051 -15.888101
36.135566 6.634164 -13.162008
35.943405 7.624989 -11.867339
36.736999 5.467301 -12.993633
35.521429 7.645722 -13.106274
36.135566 6.634164 -13.162008
36.315023 5.488034 -14.232567
35.851027 5.644098 -15.565838
36.549031 4.958826 -15.789811
34.952902 7.329059 -14.260613
35.851027 5.644098 -15.565838
35.103043 6.473564 -15.64962
33.696142 5.251442 -17.513567
33.691576 6.085904 -16.244453
34.465992 4.969933 -17.687226
33.08898 5.133361 -16.827345
33.696142 5.251442 -17.513567
32.381045 5.239891 -16.735392
32.213791 6.473942 -15.978842
33.08898 5.133361 -16.827345
31.944033 5.18648 -16.095569
32.381045 5.239891 -16.735392
3 0 153 155
3 153 39 154
3 153 154 155
3 1 42 40
3 2 156 158
3 158 157 45
3 156 157 158
3 4 48 46
3 4 50 48
3 5 53 51
3 160 159 54
3 7 58 56
3 161 60 162
3 163 62 164
3 165 164 60
3 163 164 165
3 166 64 167
3 166 167 168
3 8 67 65
3 8 69 67
3 9 73 71
3 9 75 73
3 9 77 75
3 7 80 78
3 7 56 80
3 3 169 170
3 6 84 82
3 171 85 172
3 11 86 38
3 11 87 86
3 12 90 88
3 14 91 41
3 14 173 175
3 175 174 91
3 173 174 175
3 15 176 178
3 178 177 92
3 176 177 178
3 180 179 43
3 181 94 182
3 183 95 184
3 185 184 94
3 183 184 185
3 186 97 187
3 188 98 189
3 190 100 191
3 192 191 98
3 190 191 192
3 15 101 44
3 15 92 101
3 194 193 102
3 19 106 104
3 195 107 196
3 10 197 198
3 20 108 47
3 20 109 108
3 20 110 109
3 21 199 201
3 201 200 49
3 199 200 201
3 21 202 203
3 22 113 111
3 24 114 52
3 24 115 114
3 13 116 89
3 204 117 205
3 206 205 55
3 204 205 206
3 207 118 208
3 209 208 117
3 207 208 209
3 211 210 118
3 213 212 105
3 25 214 215
3 26 216 218
3 218 217 57
3 216 217 218
3 26 219 220
3 221 119 222
3 223 222 93
3 221 222 223
3 27 120 59
3 27 224 226
3 226 225 120
3 224 225 226
3 27 227 228
3 230 229 61
3 231 121 232
3 233 122 234
3 233 234 235
3 28 123 63
3 28 124 123
3 16 236 238
3 236 125 237
3 236 237 238
3 29 126 66
3 29 127 126
3 29 128 127
3 30 129 68
3 30 130 129
3 31 131 70
3 31 132 131
3 17 133 96
3 32 134 72
3 32 135 134
3 32 136 135
3 33 137 74
3 33 138 137
3 33 139 138
3 34 140 76
3 34 141 140
3 18 142 99
3 35 143 79
3 35 144 143
3 35 145 144
3 25 239 241
3 241 240 81
3 239 240 241
3 25 242 243
3 245 244 103
3 23 146 112
3 36 147 83
3 36 148 147
3 246 149 247
3 37 248 250
3 248 150 249
3 248 249 250
3 37 151 150
3 37 152 151
3 251 38 252
3 39 253 255
3 253 38 254
3 253 254 255
3 39 11 38
3 40 41 12
3 42 41 40
3 42 14 41
3 256 43 257
3 258 257 15
3 256 257 258
3 259 43 260
3 262 261 43
3 263 44 264
3 265 44 266
3 267 15 268
3 269 268 44
3 267 268 269
3 45 270 272
3 272 271 19
3 270 271 272
3 274 273 45
3 46 47 10
3 48 47 46
3 48 20 47
3 48 49 20
3 50 49 48
3 50 21 49
3 51 52 22
3 53 52 51
3 53 24 52
3 54 55 13
3 275 55 276
3 277 276 54
3 275 276 277
3 279 278 55
3 56 57 25
3 58 57 56
3 58 26 57
3 280 59 281
3 60 282 284
3 282 59 283
3 282 283 284
3 60 27 59
3 60 61 27
3 62 61 60
3 62 285 287
3 287 286 61
3 285 286 287
3 288 63 289
3 64 290 292
3 290 63 291
3 290 291 292
3 64 28 63
3 65 66 16
3 67 66 65
3 67 29 66
3 67 68 29
3 69 68 67
3 69 30 68
3 293 70 294
3 295 70 296
3 297 31 298
3 299 298 70
3 297 298 299
3 71 72 17
3 73 72 71
3 73 32 72
3 73 74 32
3 75 74 73
3 75 33 74
3 75 76 33
3 77 76 75
3 77 34 76
3 78 79 18
3 80 79 78
3 80 35 79
3 80 81 35
3 56 81 80
3 56 25 81
3 82 83 23
3 84 83 82
3 84 36 83
3 300 37 301
3 303 302 37
3 305 304 2
3 85 306 307
3 85 308 310
3 308 10 309
3 308 309 310
3 38 311 313
3 311 85 312
3 311 312 313
3 86 85 38
3 86 10 85
3 86 46 10
3 87 46 86
3 87 4 46
3 88 89 5
3 90 89 88
3 90 13 89
3 41 90 12
3 91 90 41
3 91 13 90
3 91 54 13
3 314 54 315
3 316 315 91
3 314 315 316
3 318 317 54
3 92 93 7
3 319 93 320
3 321 320 92
3 319 320 321
3 323 322 93
3 43 324 326
3 326 325 15
3 324 325 326
3 328 327 43
3 329 16 330
3 94 331 332
3 94 333 335
3 333 16 334
3 333 334 335
3 94 65 16
3 95 65 94
3 95 8 65
3 336 96 337
3 97 338 340
3 338 96 339
3 338 339 340
3 97 17 96
3 341 97 342
3 343 97 344
3 345 17 346
3 347 346 97
3 345 346 347
3 348 71 349
3 350 349 17
3 348 349 350
3 98 351 353
3 351 71 352
3 351 352 353
3 98 9 71
3 98 99 9
3 100 99 98
3 100 18 99
3 44 354 356
3 354 100 355
3 354 355 356
3 101 100 44
3 101 18 100
3 101 78 18
3 92 78 101
3 92 7 78
3 102 103 3
3 357 103 358
3 359 358 102
3 357 358 359
3 361 360 103
3 363 362 6
3 104 105 1
3 106 105 104
3 106 364 366
3 366 365 105
3 364 365 366
3 367 106 368
3 369 368 19
3 367 368 369
3 370 106 371
3 373 372 106
3 375 374 2
3 107 376 377
3 107 378 380
3 378 3 379
3 378 379 380
3 47 381 383
3 383 382 10
3 381 382 383
3 108 384 386
3 386 385 47
3 384 385 386
3 108 387 388
3 108 389 391
3 389 107 390
3 389 390 391
3 109 107 108
3 109 3 107
3 109 102 3
3 110 102 109
3 110 392 394
3 394 393 102
3 392 393 394
3 49 110 20
3 395 110 396
3 397 396 49
3 395 396 397
3 399 398 110
3 111 112 0
3 113 112 111
3 113 23 112
3 52 113 22
3 114 113 52
3 114 23 113
3 114 82 23
3 115 82 114
3 115 6 82
3 89 53 5
3 116 53 89
3 116 24 53
3 55 116 13
3 117 116 55
3 117 24 116
3 117 115 24
3 118 115 117
3 118 6 115
3 118 400 402
3 402 401 6
3 400 401 402
3 404 403 118
3 105 42 1
3 405 42 406
3 407 406 105
3 405 406 407
3 408 14 409
3 410 409 42
3 408 409 410
3 411 14 412
3 414 413 14
3 57 415 417
3 417 416 25
3 415 416 417
3 419 418 57
3 93 58 7
3 119 58 93
3 119 26 58
3 59 420 422
3 420 119 421
3 420 421 422
3 120 119 59
3 120 26 119
3 120 423 425
3 425 424 26
3 423 424 425
3 427 426 120
3 61 428 430
3 430 429 27
3 428 429 430
3 432 431 61
3 433 62 434
3 121 435 437
3 435 62 436
3 435 436 437
3 121 438 440
3 440 439 62
3 438 439 440
3 441 121 442
3 443 121 444
3 446 445 121
3 447 0 448
3 449 0 450
3 451 111 452
3 453 452 0
3 451 452 453
3 122 454 456
3 454 111 455
3 454 455 456
3 122 22 111
3 63 457 459
3 457 122 458
3 457 458 459
3 123 122 63
3 123 22 122
3 123 51 22
3 124 51 123
3 124 5 51
3 460 64 461
3 125 462 464
3 462 64 463
3 462 463 464
3 125 28 64
3 66 125 16
3 126 125 66
3 126 28 125
3 126 124 28
3 127 124 126
3 127 5 124
3 127 88 5
3 128 88 127
3 128 12 88
3 68 128 29
3 129 128 68
3 129 12 128
3 129 40 12
3 130 40 129
3 130 1 40
3 70 465 466
3 131 467 469
3 469 468 70
3 467 468 469
3 131 470 471
3 131 472 474
3 472 95 473
3 472 473 474
3 132 95 131
3 132 8 95
3 96 475 476
3 133 477 479
3 479 478 96
3 477 478 479
3 133 480 482
3 480 31 481
3 480 481 482
3 72 133 17
3 134 133 72
3 134 31 133
3 134 132 31
3 135 132 134
3 135 8 132
3 135 69 8
3 136 69 135
3 136 30 69
3 74 136 32
3 137 136 74
3 137 30 136
3 137 130 30
3 138 130 137
3 138 1 130
3 138 104 1
3 139 104 138
3 139 19 104
3 76 139 33
3 140 139 76
3 140 19 139
3 140 45 19
3 141 45 140
3 141 2 45
3 99 77 9
3 142 77 99
3 142 34 77
3 79 142 18
3 143 142 79
3 143 34 142
3 143 141 34
3 144 141 143
3 144 2 141
3 144 483 485
3 485 484 2
3 483 484 485
3 145 486 488
3 488 487 144
3 486 487 488
3 145 489 490
3 81 145 35
3 491 145 492
3 493 492 81
3 491 492 493
3 495 494 145
3 103 496 498
3 498 497 3
3 496 497 498
3 500 499 103
3 112 39 0
3 146 39 112
3 146 11 39
3 83 146 23
3 147 146 83
3 147 11 146
3 147 87 11
3 148 87 147
3 148 4 87
3 501 84 502
3 503 502 6
3 501 502 503
3 149 504 506
3 504 84 505
3 504 505 506
3 149 36 84
3 507 149 508
3 150 509 511
3 509 149 510
3 509 510 511
3 150 36 149
3 150 148 36
3 151 148 150
3 151 4 148
3 151 50 4
3 152 50 151
3 152 21 50
3 512 152 513
3 514 513 37
3 512 513 514
3 515 152 516
3 517 21 518
3 519 518 152
3 517 518 519
3 521 520 21
