ply
format ascii 1.0
element vertex 596
property float x
property float y
property float z
element face 594
property list uchar int vertex_index
end_header
-36.337971 -85.400948 -2.178378
-42.375168 -81.927818 -13.346838
-40.213612 -68.239983 -0.288888
-29.270096 -92.965805 9.674661
-28.246204 -95.352074 -4.970094
-28.74332 -93.812035 -14.715332
-39.654671 -87.355865 -7.786521
-42.923515 -80.955956 0.280447
-43.976299 -74.00145 -5.373944
-39.839195 -69.905113 -6.939305
-30.335629 -89.49437 -5.356091
-32.168083 -91.015938 -8.048635
-38.28014 -87.47673 -4.787759
-35.580402 -88.154312 -15.152486
-35.793652 -84.652687 -16.161207
-40.002129 -79.182579 -13.382495
-23.102959 -93.753914 6.177293
-26.152246 -88.869507 6.65404
-40.380486 -75.077095 0.935569
-42.185398 -71.366539 -3.153871
-43.520294 -65.278786 -4.734588
-39.254601 -65.265396 -8.880426
-24.515867 -98.393707 -6.886982
-27.282221 -95.67897 -10.544291
-33.667767 -89.890907 -10.710879
-41.579865 -84.825211 -10.823321
-45.122974 -66.247543 -3.198951
-38.042854 -84.059097 2.210305
-41.342644 -85.43644 -0.314134
-43.498962 -83.518677 4.03192
-45.156166 -78.706039 3.778846
-41.708179 -73.426163 4.806528
-45.981514 -72.181374 9.414026
-43.479378 -70.224098 5.894412
-33.607273 -81.980759 3.295916
-31.532627 -85.509354 -1.30434
-25.371082 -96.607658 -1.872964
-28.281353 -91.128853 -1.661861
-41.990341 -83.15712 -3.370327
-42.224503 -81.05098 -6.710533
-44.724243 -77.411919 -8.889882
-45.599834 -68.443268 -4.805074
-43.971832 -71.45118 -6.384728
-42.597195 -76.232559 -9.903352
-39.257683 -73.635216 -10.592127
-33.487831 -86.695419 -4.222174
-34.338917 -87.969193 -5.536056
-37.336899 -86.135872 -3.538349
-39.284088 -85.483742 -14.428877
-35.78997 -86.684219 -16.233391
-39.452862 -83.803871 -14.856915
-38.522491 -82.247276 -14.15242
-41.510342 -80.626472 -13.640877
-25.008221 -95.117584 8.294342
-26.335285 -93.733772 8.155606
-24.582907 -91.58918 6.479174
-27.597061 -91.157387 8.035034
-40.057384 -71.84668 0.623446
-40.94989 -73.154495 -1.106712
-41.077354 -69.976562 -1.788706
-26.806479 -97.343483 -6.000814
-24.893744 -96.605545 -8.914731
-27.048559 -95.569359 -7.618634
-36.441269 -89.759727 -8.135641
-33.198021 -91.249039 -9.553053
-37.178955 -88.758492 -9.141374
-38.146328 -87.44191 -10.789467
-40.688244 -86.215881 -9.066641
-26.249348 -96.455673 -15.165895
-46.740417 -76.626892 5.440226
-45.033012 -74.056297 5.666562
-43.985786 -69.407852 7.090327
-41.162224 -68.689499 4.867073
-20.055504 -97.328644 3.631031
-23.699535 -98.367241 -1.782935
-29.550488 -88.112129 -1.863781
-42.960049 -83.207443 0.258157
-42.13118 -84.355759 -1.866206
-42.747711 -81.682686 -0.989113
-41.621376 -79.185982 -4.364194
-42.872578 -77.452957 -5.875185
-44.008968 -79.061478 -7.806848
-44.563545 -75.626663 -7.077319
-47.046577 -66.115219 -4.272354
-45.296005 -67.506836 -4.068837
-46.444515 -66.559456 -4.827959
-41.090218 -67.126213 -5.31631
-43.029579 -68.401512 -5.233611
-41.720798 -70.952621 -6.573789
-43.26553 -73.922951 -8.089472
-41.32711 -73.838852 -8.074339
-40.773567 -75.57238 -10.158464
-39.612305 -72.528214 -8.712402
-28.619928 -92.576111 -4.865942
-28.761591 -93.062767 -6.775313
-31.014322 -90.111115 -6.66939
-35.475883 -89.234741 -6.733182
-39.065819 -87.853073 -6.40847
-32.021126 -90.830612 -14.780432
-32.194954 -89.686317 -16.378632
-35.358448 -82.841278 -15.381022
-37.736 -80.01001 -13.795728
-23.730337 -89.588211 4.267111
-25.756857 -86.827614 4.175068
-41.761047 -78.146034 0.671874
-42.045692 -79.430855 -1.146184
-41.042439 -76.393135 -1.073618
-42.037174 -74.275536 -2.755899
-43.370556 -72.2584 -4.240451
-42.582687 -63.517017 -4.970043
-40.037418 -65.427689 -5.868445
-38.947914 -67.811165 -7.839609
-22.779516 -97.320908 -10.520854
-25.062544 -96.550316 -12.577644
-28.323521 -95.191505 -13.112628
-29.446192 -93.543747 -9.105475
-30.163671 -93.159752 -11.176643
-30.686102 -91.89032 -12.729452
-34.871056 -88.85218 -12.99852
-38.909405 -86.895271 -12.951805
-42.307579 -83.29895 -12.398905
-42.406986 -66.534843 -2.10233
-36.806263 -85.042252 0.045017
-38.971893 -86.041687 -0.985824
-42.045132 -84.852074 1.809196
-43.706066 -82.810097 2.060549
-45.366673 -81.365494 3.651962
-43.912285 -80.164612 2.126171
-42.378075 -77.274742 2.635322
-40.745945 -74.661522 2.894346
-39.557514 -71.333664 2.528999
-45.827885 -71.037796 7.446622
-45.665642 -72.325829 6.165729
-42.768723 -71.64724 5.239713
-40.084328 -70.229027 4.056353
-27.957371 -85.542625 5.805435
-30.220749 -83.418846 1.801159
-32.621449 -83.772316 1.071072
-34.73988 -84.433968 0.4056
-33.865192 -85.444077 -1.879403
-23.194492 -98.647041 -4.341185
-25.853992 -98.076401 -3.499856
-27.849091 -96.135681 -3.00344
-27.138327 -94.110474 -1.711467
-28.522583 -93.394806 -3.343215
-28.776819 -90.563431 -3.752921
-30.970789 -87.42881 -3.359595
-40.074181 -86.05262 -2.560184
-40.775211 -85.757919 -4.318503
-40.739021 -85.120697 -5.765731
-41.989799 -80.463165 -2.603922
-41.621368 -82.331604 -5.045244
-41.26482 -84.324036 -7.048916
-42.551125 -82.919907 -8.47958
-43.86375 -81.174446 -9.900558
-43.783978 -79.824387 -11.084047
-43.172829 -68.285355 -3.202987
-44.123909 -69.467148 -4.201413
-44.960899 -70.684311 -4.840636
-44.808754 -66.881897 -4.913712
-45.196007 -69.47731 -5.445895
-45.287663 -72.52034 -6.084743
-44.918148 -74.337868 -7.952895
-44.083393 -76.523079 -9.541334
-43.31126 -78.616066 -12.024038
-41.725536 -78.012817 -11.963707
-39.691612 -76.778084 -11.744881
-39.368824 -74.654861 -12.732138
-39.011471 -69.984886 -9.872259
-27.80269 -93.349789 8.915133
-27.081542 -94.39233 9.177446
-28.548947 -94.008347 9.936974
-27.586758 -94.24165 -15.68204
-26.339772 -95.563469 -15.907322
-27.496334 -95.133854 -14.940614
-47.323092 -75.509968 6.103566
-47.557987 -76.791824 6.241516
-46.469389 -74.224671 6.216734
-45.886714 -75.341594 5.553394
-47.323092 -75.509968 6.103566
-21.146482 -98.538849 1.719847
-20.265448 -98.508156 2.868212
-20.936538 -97.359337 2.482666
-43.424438 -75.727204 -5.624564
-42.782129 -76.534988 -5.043641
-43.33399 -74.809235 -4.793021
-46.962782 -65.84003 -5.087767
-46.745546 -66.337337 -4.550156
-47.263813 -65.617912 -4.809964
-33.898174 -86.079376 -16.519672
-33.896333 -87.095142 -16.555765
-35.791811 -85.668453 -16.197299
-33.707833 -85.044541 -16.627015
-33.898174 -86.079376 -16.519672
-35.57605 -83.746983 -15.771114
-33.490232 -84.138836 -16.236922
-33.707833 -85.044541 -16.627015
-39.560154 -78.216015 -13.547951
-38.427089 -78.62973 -13.754568
-38.869064 -79.596294 -13.589112
-22.307069 -94.657146 6.406876
-23.2597 -95.338981 7.465401
-24.05559 -94.435749 7.235817
-21.900766 -94.533367 4.693772
-22.307069 -94.657146 6.406876
-22.549591 -93.173203 5.014515
-21.900766 -94.533367 4.693772
-42.336986 -62.671972 -5.148605
-43.955082 -62.51471 -5.411542
-41.064352 -63.627308 -5.597806
-41.310052 -64.472353 -5.419244
-42.336986 -62.671972 -5.148605
-39.98773 -64.432652 -6.190914
-41.064352 -63.627308 -5.597806
-23.647692 -97.857308 -8.703918
-22.458892 -98.358956 -9.19236
-23.327067 -98.895355 -7.375424
-38.750332 -84.787193 1.68358
-38.132036 -85.278771 0.600936
-37.424559 -84.550674 1.127661
-42.772047 -84.185375 2.920558
-41.426857 -84.542664 2.614087
-42.153772 -83.875965 3.725449
-45.26142 -80.035766 3.715404
-46.159941 -80.367847 4.393195
-46.054688 -79.03812 4.456637
-41.227062 -74.043843 3.850437
-42.193918 -75.403854 3.668965
-42.675035 -74.786175 4.625056
-46.742161 -72.974972 9.859974
-45.686167 -72.730771 10.288934
-46.855482 -72.401184 8.823762
-46.742161 -72.974972 9.859974
-40.015982 -68.265782 3.641621
-40.623276 -69.459263 4.461713
-40.55493 -67.496017 4.046981
-39.90311 -68.843716 2.76327
-40.015982 -68.265782 3.641621
-29.371019 -84.085262 5.674771
-29.409859 -85.102264 6.323982
-28.230205 -84.740207 4.651545
-29.371019 -84.085262 5.674771
-32.715033 -81.76532 3.792413
-34.597822 -80.954906 4.359559
-31.914011 -82.699803 2.548538
-31.021771 -82.484364 3.045034
-32.715033 -81.76532 3.792413
-36.391367 -84.246533 1.307953
-35.297554 -83.692615 1.441176
-36.949041 -83.50518 2.343528
-22.341282 -99.045345 -3.130391
-21.951998 -99.425629 -4.404623
-27.70984 -92.619664 -1.686664
-26.279742 -92.657483 -1.056379
-26.851254 -91.166672 -1.031575
-41.858175 -79.040535 -2.663342
-42.017746 -79.94701 -1.875053
-41.886122 -78.52438 -1.934473
-44.164524 -66.080342 -4.82415
-45.430599 -65.963478 -5.113268
-44.786369 -65.161923 -5.023706
-26.41801 -95.084236 9.246814
-25.610827 -95.683296 9.618999
-25.671753 -94.425678 8.224974
-26.41801 -95.084236 9.246814
-27.081542 -94.39233 9.177446
-24.93637 -96.596813 -16.027786
-24.716501 -96.912922 -14.882113
-24.93637 -96.596813 -16.027786
-26.339772 -95.563469 -15.907322
-39.425718 -84.146175 2.814642
-38.768699 -83.29726 3.264184
-42.929478 -83.229389 4.730908
-42.153772 -83.875965 3.725449
-46.846813 -77.998547 5.287327
-47.557987 -76.791824 6.241516
-45.948291 -77.666466 4.609536
-46.054688 -79.03812 4.456637
-46.846813 -77.998547 5.287327
-45.191154 -76.386539 4.941904
-44.399029 -77.426113 4.111214
-45.948291 -77.666466 4.609536
-44.337452 -75.101242 5.055072
-45.191154 -76.386539 4.941904
-45.886714 -75.341594 5.553394
-43.370596 -73.74123 5.236545
-42.675035 -74.786175 4.625056
-44.337452 -75.101242 5.055072
-44.865574 -72.024548 9.885804
-45.686167 -72.730771 10.288934
-43.408119 -68.236782 7.03724
-43.816251 -68.996929 7.874992
-43.013275 -68.597828 6.462919
-43.408119 -68.236782 7.03724
-42.760071 -69.005951 5.864961
-43.732582 -69.815975 6.49237
-43.013275 -68.597828 6.462919
-41.601494 -68.238652 5.351292
-42.320801 -69.456798 5.380743
-42.760071 -69.005951 5.864961
-41.099957 -67.000137 4.684435
-41.601494 -68.238652 5.351292
-40.55493 -67.496017 4.046981
-41.099957 -67.000137 4.684435
-35.576603 -81.518906 3.992991
-34.597822 -80.954906 4.359559
-34.731251 -82.466011 2.886334
-35.576603 -81.518906 3.992991
-38.768699 -83.29726 3.264184
-36.949041 -83.50518 2.343528
-19.268637 -98.004715 3.916883
-19.491516 -98.068657 5.660635
-20.278382 -97.392586 5.374783
-19.268637 -98.004715 3.916883
-20.265448 -98.508156 2.868212
-23.1751 -98.997631 -0.829406
-22.593803 -98.905445 -1.851266
-23.620384 -97.720508 -1.059962
-23.1751 -98.997631 -0.829406
-23.095949 -98.350898 -0.106433
-24.456157 -96.840717 -1.104977
-24.535308 -97.487449 -1.827949
-23.620384 -97.720508 -1.059962
-27.699291 -89.668179 -1.027254
-26.851254 -91.166672 -1.031575
-28.333858 -88.159817 -1.128213
-28.91592 -89.620491 -1.762821
-27.699291 -89.668179 -1.027254
-29.404819 -86.703476 -1.076472
-28.333858 -88.159817 -1.128213
-30.395889 -85.402088 -0.796752
-30.541558 -86.810742 -1.584061
-29.404819 -86.703476 -1.076472
-42.156529 -77.401501 -4.288146
-41.673963 -78.401943 -3.543478
-42.246977 -78.319469 -5.119689
-42.156529 -77.401501 -4.288146
-42.782129 -76.534988 -5.043641
-39.599711 -66.10418 -10.085276
-39.834499 -63.929256 -9.459927
-30.549453 -91.37851 -15.16667
-28.91055 -92.869221 -15.13412
-30.382223 -92.321324 -14.747882
-30.636367 -90.806362 -15.96577
-30.549453 -91.37851 -15.16667
-32.10804 -90.258465 -15.579532
-30.616729 -89.785404 -16.098061
-30.636367 -90.806362 -15.96577
-32.098826 -88.596191 -16.628385
-33.992462 -88.185268 -16.306012
-33.896333 -87.095142 -16.555765
-30.616729 -89.785404 -16.098061
-32.098826 -88.596191 -16.628385
-33.804844 -83.15725 -15.658437
-33.490232 -84.138836 -16.236922
-35.522049 -81.86393 -14.743835
-33.804844 -83.15725 -15.658437
-36.710825 -80.448296 -13.951188
-35.522049 -81.86393 -14.743835
-36.547224 -81.425644 -14.588375
-37.709757 -79.141395 -14.247227
-36.710825 -80.448296 -13.951188
-37.709757 -79.141395 -14.247227
-38.427089 -78.62973 -13.754568
-24.302833 -95.845237 8.915677
-24.905439 -96.41095 10.240334
-25.610827 -95.683296 9.618999
-24.302833 -95.845237 8.915677
-23.2597 -95.338981 7.465401
-20.783341 -96.444512 5.133745
-20.278382 -97.392586 5.374783
-20.377039 -96.320732 3.420642
-20.783341 -96.444512 5.133745
-20.936538 -97.359337 2.482666
-20.377039 -96.320732 3.420642
-23.289564 -92.090835 5.165456
-22.549591 -93.173203 5.014515
-23.842933 -92.671547 6.328233
-22.863279 -91.090351 4.059424
-23.289564 -92.090835 5.165456
-24.156622 -90.588696 5.373143
-23.438682 -90.492134 2.724981
-22.863279 -91.090351 4.059424
-24.263239 -89.045895 3.002527
-23.438682 -90.492134 2.724981
-25.276499 -87.665596 2.956506
-24.263239 -89.045895 3.002527
-24.743597 -88.207912 4.221089
-26.369222 -86.264634 2.933019
-25.276499 -87.665596 2.956506
-41.384495 -77.00552 -1.89819
-41.886122 -78.52438 -1.934473
-41.544066 -77.911995 -1.109901
-41.881862 -75.94672 -2.73933
-41.384495 -77.00552 -1.89819
-41.539806 -75.334336 -1.914759
-42.364428 -74.946278 -3.483999
-41.881862 -75.94672 -2.73933
-43.031119 -73.93771 -4.226275
-42.364428 -74.946278 -3.483999
-42.703865 -73.266968 -3.498175
-43.673428 -73.129925 -4.807198
-43.33399 -74.809235 -4.793021
-43.031119 -73.93771 -4.226275
-44.562264 -64.33725 -5.145974
-44.786369 -65.161923 -5.023706
-44.09346 -63.456366 -5.263701
-43.955082 -62.51471 -5.411542
-43.05149 -64.397902 -4.852315
-44.562264 -64.33725 -5.145974
-44.09346 -63.456366 -5.263701
-39.442978 -65.62439 -7.176496
-39.492666 -66.619427 -6.854027
-39.98773 -64.432652 -6.190914
-39.596322 -64.351505 -7.696905
-39.101258 -66.53828 -8.360017
-39.442978 -65.62439 -7.176496
-39.817329 -63.291197 -8.179766
-39.596322 -64.351505 -7.696905
-39.834499 -63.929256 -9.459927
-39.817329 -63.291197 -8.179766
-22.066208 -98.032353 -11.147022
-21.745584 -99.0704 -9.818528
-22.458892 -98.358956 -9.19236
-22.981586 -97.34554 -12.559592
-22.066208 -98.032353 -11.147022
-24.1231 -96.960243 -13.587987
-22.981586 -97.34554 -12.559592
-23.92103 -96.935612 -11.549249
-25.655946 -96.502994 -13.871769
-24.716501 -96.912922 -14.882113
-24.1231 -96.960243 -13.587987
-29.331187 -92.761353 10.723377
-28.548947 -94.008347 9.936974
-42.272759 -65.792912 -1.416275
-41.310299 -67.387413 -1.195609
-41.176071 -66.645481 -0.509555
-43.665388 -65.63773 -2.230368
-42.272759 -65.792912 -1.416275
-45.023382 -65.494079 -2.778678
-43.76498 -66.391193 -2.65064
-43.665388 -65.63773 -2.230368
-46.247273 -65.807648 -3.366057
-45.023382 -65.494079 -2.778678
-47.209074 -65.741485 -3.902759
-46.084775 -66.181381 -3.735653
-46.247273 -65.807648 -3.366057
-47.768165 -65.668899 -4.579935
-47.209074 -65.741485 -3.902759
-47.930662 -65.295166 -4.21034
-47.263813 -65.617912 -4.809964
-47.768165 -65.668899 -4.579935
-27.586758 -94.24165 -15.68204
-28.91055 -92.869221 -15.13412
-39.214851 -85.778488 0.085515
-37.889078 -85.541969 -0.470404
-38.132036 -85.278771 0.600936
-40.400227 -85.475865 0.42136
-40.157269 -85.739064 -0.649979
-39.214851 -85.778488 0.085515
-38.750332 -84.787193 1.68358
-39.425718 -84.146175 2.814642
-40.75147 -85.183682 1.483026
-41.426857 -84.542664 2.614087
-41.693888 -85.144257 0.747531
-40.400227 -85.475865 0.42136
-40.75147 -85.183682 1.483026
-44.394475 -82.652439 4.736303
-42.929478 -83.229389 4.730908
-45.328331 -81.575848 4.546324
-46.159941 -80.367847 4.393195
-44.432817 -82.442085 3.841941
-44.394475 -82.652439 4.736303
-45.328331 -81.575848 4.546324
-43.009983 -76.710465 3.539453
-43.767121 -77.990391 3.207084
-44.399029 -77.426113 4.111214
-41.56201 -75.968132 2.764834
-43.009983 -76.710465 3.539453
-42.193918 -75.403854 3.668965
-45.267567 -71.327846 9.161451
-44.865574 -72.024548 9.885804
-44.269702 -69.941085 7.999601
-43.816251 -68.996929 7.874992
-45.190752 -70.756057 8.177748
-44.269702 -69.941085 7.999601
-44.906835 -70.222824 7.268474
-45.904699 -71.609585 8.430324
-45.267567 -71.327846 9.161451
-45.190752 -70.756057 8.177748
-46.778667 -71.829396 7.84006
-46.855482 -72.401184 8.823762
-45.904699 -71.609585 8.430324
-46.697546 -72.473412 7.199613
-46.778667 -71.829396 7.84006
-45.746764 -71.681813 6.806176
-46.785704 -73.359437 6.466317
-46.697546 -72.473412 7.199613
-45.349327 -73.191063 5.916145
-46.469389 -74.224671 6.216734
-46.785704 -73.359437 6.466317
-39.639703 -69.396034 1.999594
-39.820921 -70.781346 3.292676
-39.90311 -68.843716 2.76327
-39.967753 -67.849194 0.59065
-39.885563 -69.786823 1.120056
-39.639703 -69.396034 1.999594
-41.176071 -66.645481 -0.509555
-39.967753 -67.849194 0.59065
-30.142131 -92.029526 10.050588
-29.331187 -92.761353 10.723377
-29.632131 -91.423084 9.332784
-30.142131 -92.029526 10.050588
-28.795614 -90.518875 8.51297
-28.433578 -92.061596 8.854847
-29.632131 -91.423084 9.332784
-28.187337 -89.43417 7.861579
-28.795614 -90.518875 8.51297
-27.46493 -88.29023 7.171081
-26.874654 -90.013447 7.344537
-28.187337 -89.43417 7.861579
-28.367492 -86.626789 6.746779
-29.409859 -85.102264 6.323982
-27.054809 -87.206066 6.229738
-27.46493 -88.29023 7.171081
-28.367492 -86.626789 6.746779
-27.129948 -85.382702 3.836361
-26.857114 -86.185119 4.990251
-28.230205 -84.740207 4.651545
-26.369222 -86.264634 2.933019
-27.129948 -85.382702 3.836361
-29.361894 -83.678318 2.649407
-31.021771 -82.484364 3.045034
-28.601168 -84.560249 1.746065
-29.361894 -83.678318 2.649407
-29.73995 -84.356834 0.755998
-28.601168 -84.560249 1.746065
-30.9403 -84.533569 0.390954
-29.73995 -84.356834 0.755998
-31.421099 -83.595581 1.436116
-32.077038 -84.640835 -0.116634
-30.395889 -85.402088 -0.796752
-30.9403 -84.533569 0.390954
-34.238338 -83.36179 1.773912
-33.114361 -82.876538 2.183494
-34.731251 -82.466011 2.886334
-33.680664 -84.103142 0.738336
-34.238338 -83.36179 1.773912
-35.297554 -83.692615 1.441176
-22.66638 -99.022022 -6.102526
-21.951998 -99.425629 -4.404623
-23.855179 -98.520374 -5.614083
-23.327067 -98.895355 -7.375424
-22.66638 -99.022022 -6.102526
-23.447014 -98.507141 -3.06206
-22.341282 -99.045345 -3.130391
-22.593803 -98.905445 -1.851266
-24.826259 -95.534259 -1.302636
-24.456157 -96.840717 -1.104977
-23.911335 -95.767318 -0.534648
-25.709882 -94.285667 -1.221887
-26.279742 -92.657483 -1.056379
-26.254705 -95.359066 -1.792216
-24.826259 -95.534259 -1.302636
-25.709882 -94.285667 -1.221887
-41.805588 -79.824573 -3.484058
-41.858175 -79.040535 -2.663342
-41.673963 -78.401943 -3.543478
-46.24848 -65.802257 -5.070391
-46.962782 -65.84003 -5.087767
-45.626635 -66.720676 -4.870836
-46.24848 -65.802257 -5.070391
-45.430599 -65.963478 -5.113268
-39.404895 -77.013768 -12.729144
-39.560154 -78.216015 -13.547951
-39.84687 -77.980332 -12.563688
-39.243501 -75.952156 -13.222773
-39.404895 -77.013768 -12.729144
-39.530218 -75.716473 -12.238509
-39.394073 -75.152259 -13.928217
-39.243501 -75.952156 -13.222773
-39.478145 -68.463925 -10.581193
-39.133036 -67.625141 -9.376342
-39.599711 -66.10418 -10.085276
-39.182444 -70.447392 -10.977282
-39.478145 -68.463925 -10.581193
-39.305549 -72.272557 -11.337215
-39.134577 -71.810051 -10.232193
-39.182444 -70.447392 -10.977282
-39.36112 -72.782379 -12.407221
-39.313254 -74.145038 -11.662133
-39.305549 -72.272557 -11.337215
-39.890141 -73.499233 -13.526259
-39.36112 -72.782379 -12.407221
-39.394073 -75.152259 -13.928217
-39.890141 -73.499233 -13.526259
3 0 47 45
3 1 50 48
3 1 52 50
3 3 169 171
3 169 54 170
3 169 170 171
3 3 56 54
3 2 59 57
3 4 62 60
3 6 65 63
3 6 67 65
3 5 172 174
3 174 173 68
3 172 173 174
3 175 69 176
3 177 70 178
3 179 178 69
3 177 178 179
3 182 181 73
3 180 181 182
3 7 78 76
3 8 183 185
3 183 80 184
3 183 184 185
3 8 82 80
3 186 85 187
3 188 187 83
3 186 187 188
3 9 88 86
3 9 90 88
3 9 92 90
3 10 95 93
3 12 96 46
3 12 97 96
3 13 99 98
3 14 189 191
3 191 190 49
3 189 190 191
3 14 192 193
3 14 194 196
3 194 100 195
3 194 195 196
3 15 101 51
3 15 197 199
3 199 198 101
3 197 198 199
3 16 200 202
3 202 201 53
3 200 201 202
3 16 203 204
3 16 205 206
3 17 102 55
3 17 103 102
3 18 106 104
3 19 107 58
3 19 108 107
3 207 109 208
3 209 110 210
3 211 210 109
3 209 210 211
3 213 212 110
3 22 214 216
3 214 112 215
3 214 215 216
3 23 113 61
3 23 114 113
3 11 115 94
3 24 116 64
3 24 117 116
3 24 118 117
3 25 119 66
3 25 120 119
3 27 217 219
3 219 218 122
3 217 218 219
3 29 220 222
3 220 124 221
3 220 221 222
3 29 125 124
3 30 223 225
3 223 126 224
3 223 224 225
3 30 127 126
3 30 128 127
3 31 226 228
3 226 129 227
3 226 227 228
3 31 130 129
3 32 229 230
3 32 231 232
3 33 131 71
3 33 132 131
3 33 133 132
3 233 134 234
3 235 234 72
3 233 234 235
3 237 236 134
3 238 135 239
3 241 240 135
3 34 242 243
3 34 244 246
3 244 136 245
3 244 245 246
3 34 137 136
3 27 247 249
3 247 138 248
3 247 248 249
3 27 122 138
3 250 140 251
3 36 141 74
3 36 142 141
3 37 252 254
3 252 143 253
3 252 253 254
3 37 144 143
3 37 145 144
3 35 146 75
3 35 139 146
3 28 147 123
3 38 148 77
3 38 149 148
3 255 150 256
3 257 256 105
3 255 256 257
3 39 151 79
3 39 152 151
3 39 153 152
3 40 154 81
3 40 155 154
3 26 156 121
3 41 157 84
3 41 158 157
3 20 258 260
3 258 159 259
3 258 259 260
3 42 160 87
3 42 161 160
3 42 162 161
3 43 163 89
3 43 164 163
3 43 165 164
3 44 166 91
3 44 167 166
3 21 168 111
3 45 46 10
3 47 46 45
3 47 12 46
3 48 49 13
3 50 49 48
3 50 14 49
3 50 51 14
3 52 51 50
3 52 15 51
3 261 53 262
3 54 263 265
3 263 53 264
3 263 264 265
3 54 16 53
3 54 55 16
3 56 55 54
3 56 17 55
3 57 58 18
3 59 58 57
3 59 19 58
3 60 61 22
3 62 61 60
3 62 23 61
3 63 64 11
3 65 64 63
3 65 24 64
3 65 66 24
3 67 66 65
3 67 25 66
3 68 266 267
3 269 268 68
3 271 270 27
3 272 29 273
3 69 274 275
3 69 276 278
3 276 30 277
3 276 277 278
3 69 279 281
3 281 280 30
3 279 280 281
3 70 282 284
3 284 283 69
3 282 283 284
3 70 285 287
3 285 31 286
3 285 286 287
3 288 32 289
3 290 71 291
3 292 71 293
3 294 33 295
3 296 295 71
3 294 295 296
3 297 72 298
3 299 298 33
3 297 298 299
3 300 72 301
3 303 302 72
3 304 34 305
3 307 306 34
3 308 27 309
3 73 310 312
3 310 311 312
3 314 313 73
3 315 74 316
3 317 74 318
3 317 318 319
3 320 36 321
3 322 321 74
3 320 321 322
3 323 37 324
3 325 75 326
3 327 326 37
3 325 326 327
3 328 75 329
3 330 35 331
3 332 331 75
3 330 331 332
3 76 77 28
3 78 77 76
3 78 38 77
3 333 79 334
3 80 335 337
3 335 79 336
3 335 336 337
3 80 39 79
3 80 81 39
3 82 81 80
3 82 40 81
3 83 84 26
3 85 84 83
3 85 41 84
3 86 87 20
3 88 87 86
3 88 42 87
3 88 89 42
3 90 89 88
3 90 43 89
3 90 91 43
3 92 91 90
3 92 44 91
3 339 338 21
3 93 94 4
3 95 94 93
3 95 11 94
3 46 95 10
3 96 95 46
3 96 11 95
3 96 63 11
3 97 63 96
3 97 6 63
3 98 340 342
3 342 341 5
3 340 341 342
3 99 343 345
3 345 344 98
3 343 344 345
3 99 346 347
3 49 99 13
3 348 99 349
3 350 349 49
3 348 349 350
3 352 351 99
3 100 353 354
3 100 355 356
3 51 100 14
3 101 100 51
3 101 357 359
3 359 358 100
3 357 358 359
3 101 360 361
3 363 362 101
3 53 364 366
3 364 365 366
3 368 367 53
3 369 73 370
3 371 73 372
3 374 373 73
3 55 375 377
3 377 376 16
3 375 376 377
3 102 378 380
3 380 379 55
3 378 379 380
3 102 381 382
3 102 383 384
3 103 385 387
3 387 386 102
3 385 386 387
3 103 388 389
3 104 105 7
3 106 105 104
3 106 390 392
3 392 391 105
3 390 391 392
3 58 106 18
3 107 106 58
3 107 393 395
3 395 394 106
3 393 394 395
3 107 396 397
3 108 398 400
3 400 399 107
3 398 399 400
3 108 401 403
3 401 8 402
3 401 402 403
3 404 20 405
3 109 406 407
3 109 408 410
3 408 20 409
3 408 409 410
3 109 86 20
3 110 86 109
3 110 9 86
3 110 111 9
3 411 111 412
3 413 412 110
3 411 412 413
3 414 21 415
3 416 415 111
3 414 415 416
3 417 21 418
3 420 419 21
3 112 421 423
3 421 422 423
3 112 424 425
3 61 112 22
3 113 112 61
3 113 426 428
3 428 427 112
3 426 427 428
3 113 429 431
3 429 68 430
3 429 430 431
3 114 68 113
3 114 5 68
3 94 62 4
3 115 62 94
3 115 23 62
3 64 115 11
3 116 115 64
3 116 23 115
3 116 114 23
3 117 114 116
3 117 5 114
3 117 98 5
3 118 98 117
3 118 13 98
3 66 118 24
3 119 118 66
3 119 13 118
3 119 48 13
3 120 48 119
3 120 1 48
3 432 3 433
3 434 121 435
3 436 435 2
3 434 435 436
3 437 121 438
3 439 26 440
3 441 440 121
3 439 440 441
3 442 26 443
3 444 83 445
3 446 445 26
3 444 445 446
3 447 83 448
3 447 448 449
3 451 450 83
3 453 452 5
3 122 123 0
3 454 123 455
3 456 455 122
3 454 455 456
3 457 28 458
3 459 458 123
3 457 458 459
3 461 460 27
3 124 462 463
3 124 464 466
3 464 28 465
3 464 465 466
3 124 76 28
3 125 76 124
3 125 7 76
3 467 29 468
3 126 469 470
3 126 471 473
3 471 29 472
3 471 472 473
3 126 125 29
3 127 125 126
3 127 7 125
3 127 104 7
3 128 104 127
3 128 18 104
3 474 128 475
3 476 475 30
3 474 475 476
3 129 477 479
3 477 128 478
3 477 478 479
3 129 18 128
3 129 57 18
3 130 57 129
3 130 2 57
3 480 32 481
3 71 482 483
3 131 484 486
3 486 485 71
3 484 485 486
3 131 487 489
3 487 32 488
3 487 488 489
3 131 490 492
3 492 491 32
3 490 491 492
3 132 493 495
3 495 494 131
3 493 494 495
3 132 496 497
3 132 498 500
3 498 70 499
3 498 499 500
3 133 70 132
3 133 31 70
3 72 133 33
3 134 133 72
3 134 31 133
3 134 130 31
3 501 130 502
3 503 502 134
3 501 502 503
3 504 2 505
3 506 505 130
3 504 505 506
3 508 507 2
3 509 3 510
3 511 3 512
3 513 56 514
3 515 514 3
3 513 514 515
3 516 56 517
3 518 17 519
3 520 519 56
3 518 519 520
3 135 521 522
3 135 523 525
3 523 17 524
3 523 524 525
3 135 103 17
3 526 103 527
3 528 527 135
3 526 527 528
3 530 529 103
3 136 531 532
3 136 533 534
3 136 535 536
3 137 537 539
3 539 538 136
3 537 538 539
3 137 540 542
3 540 35 541
3 540 541 542
3 543 137 544
3 545 544 34
3 543 544 545
3 138 546 548
3 546 137 547
3 546 547 548
3 138 35 137
3 138 139 35
3 122 139 138
3 122 0 139
3 140 549 550
3 140 551 553
3 551 22 552
3 551 552 553
3 74 554 556
3 554 140 555
3 554 555 556
3 141 140 74
3 141 22 140
3 141 60 22
3 142 60 141
3 142 4 60
3 557 36 558
3 557 558 559
3 143 560 561
3 143 562 564
3 562 36 563
3 562 563 564
3 143 142 36
3 144 142 143
3 144 4 142
3 144 93 4
3 145 93 144
3 145 10 93
3 75 145 37
3 146 145 75
3 146 10 145
3 146 45 10
3 139 45 146
3 139 0 45
3 123 47 0
3 147 47 123
3 147 12 47
3 77 147 28
3 148 147 77
3 148 12 147
3 148 97 12
3 149 97 148
3 149 6 97
3 105 78 7
3 150 78 105
3 150 38 78
3 79 565 567
3 565 150 566
3 565 566 567
3 151 150 79
3 151 38 150
3 151 149 38
3 152 149 151
3 152 6 149
3 152 67 6
3 153 67 152
3 153 25 67
3 81 153 39
3 154 153 81
3 154 25 153
3 154 120 25
3 155 120 154
3 155 1 120
3 121 59 2
3 156 59 121
3 156 19 59
3 84 156 26
3 157 156 84
3 157 19 156
3 157 108 19
3 158 108 157
3 158 8 108
3 568 85 569
3 159 570 572
3 570 85 571
3 570 571 572
3 159 41 85
3 87 159 20
3 160 159 87
3 160 41 159
3 160 158 41
3 161 158 160
3 161 8 158
3 161 82 8
3 162 82 161
3 162 40 82
3 89 162 42
3 163 162 89
3 163 40 162
3 163 155 40
3 164 155 163
3 164 1 155
3 164 52 1
3 165 52 164
3 165 15 52
3 91 165 43
3 166 165 91
3 166 15 165
3 166 573 575
3 575 574 15
3 573 574 575
3 167 576 578
3 578 577 166
3 576 577 578
3 167 579 580
3 111 92 9
3 168 92 111
3 168 44 92
3 581 168 582
3 583 582 21
3 581 582 583
3 584 168 585
3 586 44 587
3 588 587 168
3 586 587 588
3 589 167 590
3 591 590 44
3 589 590 591
3 592 167 593
3 595 594 167
