ply
format ascii 1.0
element vertex 547
property float x
property float y
property float z
element face 600
property list uchar int vertex_index
end_header
-57.103107 -0.080377 10.12444
-47.626305 -13.752417 17.810339
-35.97718 -9.684343 16.870827
-48.916451 7.188503 0.984808
-53.649284 -6.98733 9.448789
-48.397461 -4.052281 8.26859
-56.040253 -15.522458 14.67155
-37.901955 3.150825 13.530169
-41.268539 -11.41186 18.539776
-44.00127 -0.085663 12.98443
-53.653637 -20.013052 21.642735
-45.972729 -20.831905 19.208858
-56.268547 -3.508281 8.185124
-54.011421 -1.245825 6.514565
-58.537743 -7.489362 9.264297
-34.978878 5.682446 13.818651
-42.577381 -18.33613 19.178162
-40.001854 -17.271238 20.830473
-44.618248 -12.299578 18.725023
-49.376656 2.272878 5.07849
-46.865429 -1.71339 11.272774
-46.568687 4.150653 6.744193
-43.179916 5.230757 8.243349
-58.553234 -16.947321 18.843771
-51.689587 -14.409487 16.009628
-50.604454 -18.051041 14.848747
-45.617912 -18.453571 15.756582
-50.84893 -9.636901 13.819084
-47.307274 -9.314275 12.357898
-50.10025 -5.884766 7.343674
-52.134483 0.666334 4.875461
-52.791908 5.699772 0.912345
-60.482788 -16.278072 15.2366
-60.091785 -11.552374 12.725835
-55.630505 -10.471098 13.353892
-37.992294 -2.898803 17.260992
-35.178848 -1.471011 15.686925
-33.311913 -0.278597 13.049616
-33.06356 0.917299 9.899291
-34.864399 -22.780043 20.521847
-36.897289 -16.352325 20.585255
-38.326263 -10.62421 17.976873
-44.397732 -8.168386 12.3524
-43.450382 -6.253445 15.493162
-40.937222 -4.33351 17.217113
-40.878212 1.347477 13.860205
-54.880257 -17.58279 16.468746
-50.193947 -19.683569 20.423649
-56.805138 -1.924493 8.849938
-56.29491 -0.578542 7.517934
-57.526989 -2.774903 10.392788
-57.899548 -4.201013 8.977748
-45.228149 -16.086287 18.732914
-44.004341 -15.324283 19.617109
-46.172092 -12.933446 18.39777
-49.434875 4.910901 2.810668
-48.089546 3.300389 5.834018
-47.718727 5.908562 3.447194
-46.071053 6.571349 4.27968
-47.264286 8.261168 1.457233
-49.610451 -14.019989 16.854599
-48.695366 -16.299992 15.590601
-46.881752 -16.347309 17.166079
-44.112953 -18.389774 17.564804
-35.075203 -12.470297 18.213713
-34.074547 -12.746958 16.645569
-52.144409 -8.487004 11.220156
-50.27541 -8.135409 10.304483
-51.733624 -6.28456 8.563242
-55.239403 1.325291 4.852981
-53.099133 -0.419833 5.508511
-54.398376 2.548256 3.628783
-53.009155 3.497579 2.632576
-54.617809 4.931042 1.956732
-61.974823 -12.274626 13.091634
-61.45034 -10.135508 10.971992
-56.18911 -7.194604 9.408072
-56.957409 -9.156595 10.969084
-54.659721 -8.717319 11.138447
-53.257824 -9.803987 13.618599
-38.123432 0.225572 15.844083
-36.495899 -2.205382 16.61813
-36.412117 0.997364 15.331311
-33.663177 2.734388 13.74393
-32.792667 3.675447 12.76446
-32.965378 0.312925 11.604279
-32.244331 4.73174 11.639552
-36.380943 -23.129862 20.75662
-40.897861 -14.115239 20.431259
-38.458523 -16.727203 20.91556
-39.245811 -13.593785 20.446707
-37.649223 -13.146151 20.120026
-39.735401 -11.045478 18.363281
-47.003414 -7.461778 9.231542
-45.546692 -9.139843 11.992481
-46.636131 -6.402267 10.617847
-45.459663 -0.85195 12.200539
-45.623055 -4.014884 13.957888
-44.168571 -3.038446 14.947133
-42.32777 -5.265114 16.647146
-42.629498 -2.210572 15.512898
-41.119469 -1.416511 15.848351
-42.469604 0.648799 13.541644
-55.363087 -20.369244 22.375591
-58.21534 -16.044018 14.647754
-57.809334 -17.188023 15.529678
-55.672363 -17.052269 14.547066
-48.004131 -19.413181 16.789268
-50.362885 -18.493814 17.349733
-48.238972 -19.961542 19.814903
-39.576073 -23.225143 19.509638
-55.123402 -5.103553 8.553006
-53.239952 -4.022485 8.298217
-55.005554 -2.169169 7.511607
-55.839863 0.287884 6.146715
-60.48159 -8.002199 9.688276
-59.260242 -6.030548 9.08555
-57.476982 -5.593214 8.51615
-36.404774 4.531123 13.689189
-40.059658 -20.700932 19.630613
-38.894405 -20.340979 20.669449
-41.491398 -17.71862 20.187061
-42.541256 -14.675947 20.216944
-42.952984 -11.796398 18.723013
-49.18116 -0.498029 7.163177
-47.894024 -2.85192 9.941952
-48.139118 0.512667 8.228403
-46.850136 1.328417 9.242574
-45.332989 2.141522 10.045229
-43.655144 2.717635 10.709709
-44.84547 4.60321 7.550715
-44.553825 7.279261 5.376073
-55.607521 -17.872906 20.299549
-53.912605 -14.924704 15.215828
-53.302513 -16.677193 14.22094
-50.881046 -16.411612 14.474011
-47.93523 -18.268162 14.839361
-45.490009 -20.327318 16.524572
-43.582703 -21.893009 18.786457
-43.012653 -20.81241 16.843876
-41.355476 -20.720484 18.19924
-49.48061 -11.462193 16.226267
-47.866024 -10.759114 15.988332
-48.978569 -9.459743 13.08888
-48.465069 -8.144101 9.389094
-48.851391 -5.096795 6.903802
-51.801308 -3.331162 7.064563
-50.86364 -2.721378 6.133626
-50.002796 -1.654871 6.353967
-50.800621 1.538363 4.640148
-51.109947 4.050159 2.437281
-50.751873 6.323171 0.644376
-60.409252 -14.163196 14.589605
-58.356647 -13.670258 14.870959
-59.3661 -9.561983 10.724402
-57.879784 -11.013486 13.112773
-56.25584 -12.976389 15.185742
-54.042248 -12.196902 15.527881
-51.684315 -11.627256 15.956248
-37.344105 -6.350658 17.312536
-34.816017 -9.336958 15.953959
-35.321354 -5.125419 15.456778
-34.931076 1.935863 14.561099
-34.014488 -0.879452 14.481201
-33.672844 -22.38583 19.512714
-37.390221 -19.963217 21.060917
-35.89666 -19.603716 20.702015
-34.684895 -19.204454 19.712358
-35.715599 -15.992287 19.736279
-36.246086 -12.817983 19.342279
-37.050488 -10.175697 17.44405
-46.093788 -10.336065 15.768547
-44.378414 -10.184048 15.433909
-42.722862 -10.023616 15.083061
-46.512291 -5.174679 12.472793
-43.981483 -7.147763 13.875194
-41.430191 -9.345941 15.123691
-40.62561 -8.538025 15.916965
-39.748802 -7.781148 16.791384
-38.604801 -6.966275 17.38744
-39.424568 -3.681036 17.461853
-39.603065 -0.603052 15.998685
-39.286583 2.170681 13.721231
-41.841152 3.288022 11.041973
-40.222725 4.177906 11.172421
-39.141518 5.486409 11.758502
-59.844673 -17.019381 16.78863
-56.810028 -17.359371 17.593273
-54.003357 -18.095474 19.147774
-52.963226 -17.755854 15.478537
-52.332237 -18.162428 18.290352
-51.980042 -19.797581 20.945663
-57.579979 -2.378096 12.170265
-33.522114 -12.777261 14.697629
-57.153767 0.547865 9.262149
-57.004782 -0.374193 8.624898
-56.954122 -1.002435 9.487189
-55.175329 3.25209 3.5382
-54.818889 1.936773 4.240882
-55.595843 2.640608 4.150299
-55.285045 4.443484 2.702174
-54.508093 3.739649 2.792758
-55.175329 3.25209 3.5382
-61.694445 -9.404704 10.892555
-62.170616 -10.444714 11.647616
-32.555172 5.804989 12.854304
-33.159058 5.235571 13.174296
-32.281004 6.333136 12.291849
-32.518499 4.203594 12.202006
-32.555172 5.804989 12.854304
-31.827379 6.712357 11.841412
-32.281004 6.333136 12.291849
-37.111355 -23.269793 20.555805
-36.103567 -24.613268 20.770612
-54.091753 -21.48835 21.652553
-54.946478 -21.666446 22.018981
-54.508362 -20.191148 22.009163
-53.20892 -21.425576 21.794762
-54.091753 -21.48835 21.652553
-46.350588 -21.50338 20.336329
-47.48371 -21.068199 20.639351
-47.105851 -20.396724 19.511881
-45.190119 -21.833967 20.066662
-46.350588 -21.50338 20.336329
-38.746233 -24.387595 20.183774
-38.70892 -23.317433 19.932314
-56.551115 1.177835 6.387353
-56.067386 -0.145329 6.832325
-56.778638 0.744622 7.072963
-56.334806 1.583583 5.560522
-56.551115 1.177835 6.387353
-59.163541 -5.42248 9.620724
-59.949207 -6.373887 9.63871
-45.167044 8.177491 3.909396
-45.312439 6.925305 4.827877
-45.925657 7.823535 3.3612
-44.50198 8.621485 4.558006
-45.167044 8.177491 3.909396
-57.921982 -17.484565 20.244573
-59.308733 -16.769309 19.651666
-57.080377 -17.410114 19.57166
-56.449126 -17.947358 20.972462
-57.921982 -17.484565 20.244573
-37.018817 -4.347131 16.923994
-36.694723 -6.073058 16.949766
-37.6682 -4.624731 17.286764
-35.051479 -2.95704 14.945994
-35.122732 -4.784244 14.830921
-35.250101 -3.298215 15.571852
-34.081242 -2.049934 12.974169
-34.43253 -2.350361 13.689961
-33.663201 -0.579025 13.765408
-34.090035 -1.799481 12.256319
-34.081242 -2.049934 12.974169
-34.060518 -0.997324 9.87904
-34.011427 -1.299511 10.731534
-33.014469 0.615112 10.751785
-34.240974 -0.756249 9.102373
-34.060518 -0.997324 9.87904
-33.199996 1.191926 9.177004
-34.240974 -0.756249 9.102373
-33.899231 -24.115139 19.830361
-34.53754 -24.308146 20.359163
-34.268621 -22.582936 20.01728
-33.303454 -23.918032 19.325794
-33.899231 -24.115139 19.830361
-40.568842 5.887884 10.67989
-41.079269 5.275742 10.152825
-40.028239 6.542136 10.972931
-39.682121 4.832158 11.465461
-40.568842 5.887884 10.67989
-39.421303 7.127976 11.417189
-40.028239 6.542136 10.972931
-60.16373 -16.648727 16.012615
-61.018411 -16.484943 16.663364
-61.337469 -16.114289 15.887348
-50.485941 -21.060224 21.224156
-51.378988 -21.11723 21.485163
-51.086995 -19.740575 20.684656
-42.893749 -22.898888 19.713381
-42.520453 -22.376052 18.870923
-57.784532 -0.70212 13.134951
-57.74285 -2.07345 13.035137
-57.499096 -0.959027 12.14436
-57.784532 -0.70212 13.134951
-33.765364 -10.870635 14.678705
-34.169066 -11.057109 15.325794
-34.412316 -9.150484 15.30687
-56.749668 0.298782 7.958896
-56.550024 -1.251518 8.183936
-57.004782 -0.374193 8.624898
-56.778638 0.744622 7.072963
-56.749668 0.298782 7.958896
-57.713268 -3.487958 9.685268
-58.483194 -4.507713 9.566823
-58.296915 -3.794658 10.274342
-46.522274 8.668444 1.949977
-45.925657 7.823535 3.3612
-46.66767 7.416258 2.868456
-59.969294 -16.634743 18.629164
-59.308733 -16.769309 19.651666
-34.796028 -14.22771 17.37832
-34.968593 -14.112617 18.31708
-34.2957 -14.366041 16.594248
-34.796028 -14.22771 17.37832
-34.574875 -12.608628 17.429641
-34.404293 -14.42214 15.652397
-34.2957 -14.366041 16.594248
-62.432857 -11.514273 12.707437
-62.667587 -12.403393 13.851471
-61.712581 -11.205067 12.031813
-62.432857 -11.514273 12.707437
-62.170616 -10.444714 11.647616
-33.594313 4.765042 13.664031
-34.321027 4.208417 13.781291
-34.252163 6.239071 13.701391
-33.227922 3.204918 13.254195
-33.594313 4.765042 13.664031
-33.159058 5.235571 13.174296
-32.14951 5.131279 11.046705
-32.559124 3.224059 10.176574
-32.653946 2.82452 10.769421
-31.732557 7.111897 11.248565
-32.14951 5.131279 11.046705
-31.827379 6.712357 11.841412
-35.295812 -24.483055 20.476549
-36.103567 -24.613268 20.770612
-35.622671 -22.954952 20.639234
-34.53754 -24.308146 20.359163
-35.295812 -24.483055 20.476549
-42.557865 5.802167 8.688289
-43.328289 6.766085 7.450826
-55.765416 -21.618424 22.043152
-56.562972 -21.788532 22.321746
-56.160643 -20.539351 22.654186
-55.348806 -22.915627 21.686542
-55.765416 -21.618424 22.043152
-54.946478 -21.666446 22.018981
-48.526485 -21.031667 20.823247
-49.503973 -20.89268 21.12762
-49.216459 -19.822555 20.119276
-48.526485 -21.031667 20.823247
-47.48371 -21.068199 20.639351
-39.809027 -24.038277 20.116193
-40.517138 -23.042119 19.232513
-39.809027 -24.038277 20.116193
-38.746233 -24.387595 20.183774
-56.034577 2.102286 4.913654
-55.539633 0.806588 5.499848
-56.334806 1.583583 5.560522
-55.595843 2.640608 4.150299
-56.034577 2.102286 4.913654
-60.559881 -7.359712 9.940073
-61.21007 -8.33805 10.250697
-59.870916 -7.016373 9.386913
-60.559881 -7.359712 9.940073
-59.949207 -6.373887 9.63871
-58.579895 -5.11578 9.031649
-59.163541 -5.42248 9.620724
-58.483194 -4.507713 9.566823
-37.265129 5.638583 13.122879
-37.153365 3.840974 13.609679
-38.01372 4.948434 13.04337
-36.558533 6.296261 13.471898
-37.265129 5.638583 13.122879
-35.845585 6.871923 13.53663
-35.691826 5.106784 13.75392
-36.558533 6.296261 13.471898
-35.00753 7.491986 13.668295
-35.845585 6.871923 13.53663
-34.252163 6.239071 13.701391
-35.00753 7.491986 13.668295
-39.477031 -20.520955 20.150031
-38.368085 -21.875351 20.51222
-38.950712 -22.055328 19.992801
-44.015243 7.790337 6.017188
-43.328289 6.766085 7.450826
-43.866871 6.255009 6.809711
-44.015243 7.790337 6.017188
-44.50198 8.621485 4.558006
-56.326909 -19.195526 22.010483
-56.160643 -20.539351 22.654186
-55.485304 -19.121075 21.33757
-56.326909 -19.195526 22.010483
-56.449126 -17.947358 20.972462
-42.235428 -21.835752 17.899633
-42.520453 -22.376052 18.870923
-43.297678 -21.352709 17.815167
-41.406839 -21.789789 18.577314
-42.235428 -21.835752 17.899633
-42.184065 -20.766447 17.521558
-40.465775 -21.972814 18.854439
-40.517138 -23.042119 19.232513
-41.406839 -21.789789 18.577314
-38.950712 -22.055328 19.992801
-38.70892 -23.317433 19.932314
-39.817865 -21.963037 19.570125
-61.311886 -15.353604 15.173067
-61.337469 -16.114289 15.887348
-62.057904 -13.351881 14.100585
-62.667587 -12.403393 13.851471
-61.275118 -14.296166 14.84957
-62.057904 -13.351881 14.100585
-61.192037 -13.218911 13.84062
-60.44602 -15.220634 14.913103
-61.311886 -15.353604 15.173067
-61.275118 -14.296166 14.84957
-60.965965 -9.068853 10.330134
-61.694445 -9.404704 10.892555
-61.21007 -8.33805 10.250697
-35.430679 -7.566208 16.270477
-36.080061 -7.843808 16.633247
-36.694723 -6.073058 16.949766
-34.412316 -9.150484 15.30687
-35.430679 -7.566208 16.270477
-36.27062 -4.00042 16.602563
-37.018817 -4.347131 16.923994
-37.244096 -2.552093 16.939561
-35.683347 -5.460439 16.021887
-36.27062 -4.00042 16.602563
-35.908626 -3.665401 16.037454
-34.664984 -7.044714 15.05828
-35.683347 -5.460439 16.021887
-34.575294 -6.854733 14.305677
-34.664984 -7.044714 15.05828
-34.575294 -6.854733 14.305677
-35.122732 -4.784244 14.830921
-34.469299 -2.66126 14.343132
-35.051479 -2.95704 14.945994
-34.596668 -1.175231 15.084063
-34.469299 -2.66126 14.343132
-34.43253 -2.350361 13.689961
-33.916767 -1.50372 11.533651
-34.090035 -1.799481 12.256319
-33.138645 0.017164 12.326947
-33.916767 -1.50372 11.533651
-34.011427 -1.299511 10.731534
-33.199996 1.191926 9.177004
-32.559124 3.224059 10.176574
-32.868149 -23.775677 18.523387
-32.498759 -25.307879 18.336467
-33.303454 -23.918032 19.325794
-33.374493 -22.271828 18.695372
-32.868149 -23.775677 18.523387
-37.637674 -21.735421 20.713034
-37.111355 -23.269793 20.555805
-38.368085 -21.875351 20.51222
-33.880518 -20.68114 18.795195
-33.374493 -22.271828 18.695372
-34.178869 -20.795142 19.612536
-34.374724 -19.069473 18.973084
-33.880518 -20.68114 18.795195
-34.890075 -17.463389 18.985045
-34.374724 -19.069473 18.973084
-35.200247 -17.59837 19.724318
-35.288792 -15.873613 19.078364
-34.890075 -17.463389 18.985045
-35.554035 -14.286461 18.881363
-35.288792 -15.873613 19.078364
-35.980842 -14.405135 19.539279
-35.660645 -12.64414 18.777996
-34.968593 -14.112617 18.31708
-35.554035 -14.286461 18.881363
-41.888483 4.8308 10.087601
-42.510534 4.259389 9.642661
-42.557865 5.802167 8.688289
-41.031938 3.732964 11.107197
-41.888483 4.8308 10.087601
-41.079269 5.275742 10.152825
-38.633501 6.116226 12.157536
-38.01372 4.948434 13.04337
-38.521737 4.318617 12.644336
-38.633501 6.116226 12.157536
-39.421303 7.127976 11.417189
-60.615013 -16.670773 17.601593
-61.018411 -16.484943 16.663364
-59.198954 -16.983351 17.816201
-59.969294 -16.634743 18.629164
-60.615013 -16.670773 17.601593
-52.372122 -21.317841 21.446226
-53.20892 -21.425576 21.794762
-52.81684 -19.905316 21.294199
-52.372122 -21.317841 21.446226
-51.378988 -21.11723 21.485163
-50.485941 -21.060224 21.224156
-49.503973 -20.89268 21.12762
-43.995106 -22.364519 19.855461
-45.190119 -21.833967 20.066662
-44.777716 -21.362457 18.997657
-43.995106 -22.364519 19.855461
-42.893749 -22.898888 19.713381
-57.54365 1.192081 10.299808
-57.26066 0.189833 11.121447
-58.318249 -3.542651 11.962624
-57.74285 -2.07345 13.035137
-58.32341 -3.596254 11.163081
-59.06168 -4.760809 10.95544
-58.318249 -3.542651 11.962624
-57.553484 -2.5765 11.281527
-58.296915 -3.794658 10.274342
-58.32341 -3.596254 11.163081
-57.472601 -1.157431 11.255621
-57.553484 -2.5765 11.281527
-57.499096 -0.959027 12.14436
-57.26066 0.189833 11.121447
-57.315048 -1.42764 10.258614
-57.472601 -1.157431 11.255621
-57.153767 0.547865 9.262149
-57.54365 1.192081 10.299808
-54.98459 5.151528 2.707037
-55.285045 4.443484 2.702174
-54.288839 5.670654 1.979766
-54.98459 5.151528 2.707037
-53.375889 6.055019 1.457572
-53.704859 5.315407 1.434538
-54.288839 5.670654 1.979766
-52.541065 6.496749 0.78615
-53.375889 6.055019 1.457572
-51.521048 6.808448 0.652166
-51.77189 6.011472 0.778361
-52.541065 6.496749 0.78615
-50.68515 7.248489 0.325796
-51.521048 6.808448 0.652166
-49.767439 7.681154 0.496012
-49.834162 6.755837 0.814592
-50.68515 7.248489 0.325796
-49.063643 8.342662 0.607433
-49.767439 7.681154 0.496012
-49.914631 8.835314 0.118638
-48.237561 8.878995 0.843646
-48.090368 7.724835 1.221021
-49.063643 8.342662 0.607433
-47.604158 9.509677 1.165879
-48.237561 8.878995 0.843646
-46.862147 9.916954 1.658623
-46.522274 8.668444 1.949977
-47.604158 9.509677 1.165879
-34.128077 -14.437291 14.678427
-34.404293 -14.42214 15.652397
-33.798331 -12.762109 15.671599
-33.446415 -12.723085 13.697423
-33.765364 -10.870635 14.678705
-33.689665 -10.81646 13.6785
-34.439585 -14.390635 13.781989
-33.446415 -12.723085 13.697423
-34.128077 -14.437291 14.678427
-34.439585 -14.390635 13.781989
3 0 194 196
3 196 195 48
3 194 195 196
3 0 48 50
3 1 54 52
3 3 57 55
3 3 59 57
3 1 62 60
3 1 52 62
3 2 65 64
3 4 68 66
3 197 71 198
3 199 198 69
3 197 198 199
3 200 73 201
3 202 201 71
3 200 201 202
3 203 75 204
3 4 78 76
3 4 66 78
3 7 82 80
3 205 84 206
3 207 86 208
3 209 208 84
3 207 208 209
3 211 210 86
3 212 87 213
3 8 90 88
3 8 92 90
3 5 95 93
3 9 98 96
3 9 100 98
3 9 102 100
3 10 214 216
3 216 215 103
3 214 215 216
3 10 217 218
3 6 106 104
3 11 109 107
3 11 219 221
3 221 220 109
3 219 220 221
3 11 222 223
3 225 224 110
3 12 113 111
3 226 114 227
3 228 227 49
3 226 227 228
3 230 229 114
3 231 116 232
3 12 117 51
3 12 111 117
3 16 121 119
3 18 122 53
3 18 123 122
3 19 126 124
3 21 127 56
3 21 128 127
3 21 130 128
3 233 131 234
3 235 234 58
3 233 234 235
3 237 236 131
3 23 238 239
3 23 240 242
3 240 132 241
3 240 241 242
3 24 135 133
3 26 136 61
3 26 137 136
3 26 139 137
3 16 140 63
3 16 119 140
3 27 143 141
3 29 144 67
3 29 145 144
3 13 146 112
3 30 147 70
3 30 148 147
3 30 149 148
3 31 150 72
3 31 151 150
3 33 152 74
3 33 153 152
3 14 154 115
3 34 155 77
3 34 156 155
3 34 157 156
3 27 158 79
3 27 141 158
3 35 243 245
3 245 244 159
3 243 244 245
3 36 161 81
3 36 246 248
3 248 247 161
3 246 247 248
3 15 162 118
3 37 163 83
3 37 249 251
3 251 250 163
3 249 250 251
3 37 252 253
3 38 254 256
3 256 255 85
3 254 255 256
3 38 257 258
3 38 259 260
3 39 261 262
3 39 263 265
3 263 164 264
3 263 264 265
3 17 165 120
3 40 166 89
3 40 167 166
3 40 168 167
3 41 169 91
3 41 170 169
3 28 171 142
3 42 172 94
3 42 173 172
3 20 174 125
3 43 175 97
3 43 176 175
3 43 177 176
3 44 178 99
3 44 179 178
3 44 180 179
3 45 181 101
3 45 182 181
3 22 183 129
3 266 184 267
3 268 185 269
3 270 269 184
3 268 269 270
3 272 271 185
3 32 273 275
3 273 186 274
3 273 274 275
3 46 187 105
3 46 188 187
3 25 189 134
3 47 190 108
3 47 191 190
3 47 276 278
3 278 277 191
3 276 277 278
3 280 279 138
3 281 192 282
3 284 283 192
3 285 193 286
3 287 286 160
3 285 286 287
3 48 49 12
3 288 49 289
3 290 289 48
3 288 289 290
3 292 291 49
3 50 293 295
3 293 51 294
3 293 294 295
3 48 51 50
3 48 12 51
3 52 53 16
3 54 53 52
3 54 18 53
3 55 56 19
3 57 56 55
3 57 21 56
3 57 58 21
3 59 58 57
3 59 296 298
3 298 297 58
3 296 297 298
3 299 23 300
3 60 61 24
3 62 61 60
3 62 26 61
3 62 63 26
3 52 63 62
3 52 16 63
3 64 301 302
3 65 303 305
3 305 304 64
3 303 304 305
3 65 306 307
3 66 67 27
3 68 67 66
3 68 29 67
3 69 70 13
3 71 70 69
3 71 30 70
3 71 72 30
3 73 72 71
3 73 31 72
3 308 74 309
3 75 310 312
3 310 74 311
3 310 311 312
3 75 33 74
3 76 77 14
3 78 77 76
3 78 34 77
3 78 79 34
3 66 79 78
3 66 27 79
3 80 81 35
3 82 81 80
3 82 36 81
3 313 83 314
3 315 314 15
3 313 314 315
3 84 316 318
3 316 83 317
3 316 317 318
3 84 37 83
3 84 85 37
3 86 85 84
3 86 38 85
3 86 319 321
3 321 320 38
3 319 320 321
3 324 323 86
3 322 323 324
3 87 325 326
3 87 327 329
3 327 39 328
3 327 328 329
3 88 89 17
3 90 89 88
3 90 40 89
3 90 91 40
3 92 91 90
3 92 41 91
3 93 94 28
3 95 94 93
3 95 42 94
3 96 97 20
3 98 97 96
3 98 43 97
3 98 99 43
3 100 99 98
3 100 44 99
3 100 101 44
3 102 101 100
3 102 45 101
3 331 330 22
3 103 332 334
3 332 333 334
3 337 336 103
3 335 336 337
3 104 105 32
3 106 105 104
3 106 46 105
3 107 108 25
3 109 108 107
3 109 47 108
3 109 338 340
3 340 339 47
3 338 339 340
3 342 341 109
3 110 343 344
3 346 345 110
3 111 112 4
3 113 112 111
3 113 13 112
3 49 113 12
3 114 113 49
3 114 13 113
3 114 69 13
3 347 69 348
3 349 348 114
3 347 348 349
3 351 350 69
3 352 115 353
3 116 354 356
3 354 115 355
3 354 355 356
3 116 14 115
3 51 357 359
3 357 116 358
3 357 358 359
3 117 116 51
3 117 14 116
3 117 76 14
3 111 76 117
3 111 4 76
3 360 118 361
3 362 361 7
3 360 361 362
3 363 118 364
3 365 15 366
3 367 366 118
3 365 366 367
3 368 15 369
3 371 370 15
3 119 372 374
3 372 120 373
3 372 373 374
3 121 120 119
3 121 17 120
3 53 121 16
3 122 121 53
3 122 17 121
3 122 88 17
3 123 88 122
3 123 8 88
3 124 125 5
3 126 125 124
3 126 20 125
3 56 126 19
3 127 126 56
3 127 20 126
3 127 96 20
3 128 96 127
3 128 9 96
3 128 129 9
3 130 129 128
3 130 22 129
3 58 130 21
3 131 130 58
3 131 22 130
3 131 375 377
3 377 376 22
3 375 376 377
3 379 378 131
3 380 103 381
3 132 382 384
3 382 103 383
3 382 383 384
3 132 10 103
3 133 134 6
3 135 134 133
3 135 25 134
3 61 135 24
3 136 135 61
3 136 25 135
3 136 107 25
3 137 107 136
3 137 11 107
3 137 138 11
3 139 138 137
3 139 385 387
3 387 386 138
3 385 386 387
3 63 139 26
3 140 139 63
3 140 388 390
3 390 389 139
3 388 389 390
3 140 391 393
3 391 110 392
3 391 392 393
3 119 110 140
3 119 394 396
3 396 395 110
3 394 395 396
3 141 142 1
3 143 142 141
3 143 28 142
3 67 143 27
3 144 143 67
3 144 28 143
3 144 93 28
3 145 93 144
3 145 5 93
3 112 68 4
3 146 68 112
3 146 29 68
3 70 146 13
3 147 146 70
3 147 29 146
3 147 145 29
3 148 145 147
3 148 5 145
3 148 124 5
3 149 124 148
3 149 19 124
3 72 149 30
3 150 149 72
3 150 19 149
3 150 55 19
3 151 55 150
3 151 3 55
3 397 32 398
3 74 399 400
3 152 401 403
3 403 402 74
3 401 402 403
3 152 404 406
3 404 32 405
3 404 405 406
3 152 104 32
3 153 104 152
3 153 6 104
3 115 407 409
3 407 75 408
3 407 408 409
3 154 75 115
3 154 33 75
3 77 154 14
3 155 154 77
3 155 33 154
3 155 153 33
3 156 153 155
3 156 6 153
3 156 133 6
3 157 133 156
3 157 24 133
3 79 157 34
3 158 157 79
3 158 24 157
3 158 60 24
3 141 60 158
3 141 1 60
3 159 160 2
3 410 160 411
3 412 411 159
3 410 411 412
3 414 413 160
3 81 415 417
3 417 416 35
3 415 416 417
3 161 418 420
3 420 419 81
3 418 419 420
3 161 421 422
3 161 423 424
3 426 425 161
3 118 82 7
3 162 82 118
3 162 36 82
3 83 162 15
3 163 162 83
3 163 36 162
3 163 427 429
3 429 428 36
3 427 428 429
3 431 430 163
3 85 432 434
3 434 433 37
3 432 433 434
3 436 435 85
3 438 437 38
3 164 439 441
3 439 440 441
3 164 442 443
3 120 444 446
3 444 87 445
3 444 445 446
3 165 87 120
3 165 39 87
3 89 165 17
3 166 165 89
3 166 39 165
3 166 164 39
3 167 164 166
3 167 447 449
3 449 448 164
3 447 448 449
3 167 450 451
3 168 452 454
3 454 453 167
3 452 453 454
3 168 455 456
3 91 168 40
3 169 168 91
3 169 457 459
3 459 458 168
3 457 458 459
3 169 460 462
3 460 64 461
3 460 461 462
3 170 64 169
3 170 2 64
3 142 54 1
3 171 54 142
3 171 18 54
3 94 171 28
3 172 171 94
3 172 18 171
3 172 123 18
3 173 123 172
3 173 8 123
3 125 95 5
3 174 95 125
3 174 42 95
3 97 174 20
3 175 174 97
3 175 42 174
3 175 173 42
3 176 173 175
3 176 8 173
3 176 92 8
3 177 92 176
3 177 41 92
3 99 177 43
3 178 177 99
3 178 41 177
3 178 170 41
3 179 170 178
3 179 2 170
3 179 159 2
3 180 159 179
3 180 35 159
3 101 180 44
3 181 180 101
3 181 35 180
3 181 80 35
3 182 80 181
3 182 7 80
3 129 102 9
3 183 102 129
3 183 45 102
3 463 183 464
3 465 464 22
3 463 464 465
3 184 466 468
3 466 183 467
3 466 467 468
3 184 45 183
3 184 182 45
3 185 182 184
3 185 7 182
3 185 469 471
3 471 470 7
3 469 470 471
3 473 472 185
3 186 474 475
3 186 476 478
3 476 23 477
3 476 477 478
3 105 186 32
3 187 186 105
3 187 23 186
3 187 132 23
3 188 132 187
3 188 10 132
3 134 106 6
3 189 106 134
3 189 46 106
3 108 189 25
3 190 189 108
3 190 46 189
3 190 188 46
3 191 188 190
3 191 10 188
3 191 479 481
3 481 480 10
3 479 480 481
3 483 482 191
3 485 484 47
3 138 486 488
3 488 487 11
3 486 487 488
3 490 489 138
3 492 491 0
3 192 493 494
3 192 495 497
3 495 496 497
3 192 498 500
3 498 50 499
3 498 499 500
3 501 50 502
3 503 502 192
3 501 502 503
3 504 0 505
3 506 505 50
3 504 505 506
3 508 507 0
3 509 73 510
3 511 73 512
3 513 31 514
3 515 514 73
3 513 514 515
3 516 31 517
3 518 151 519
3 520 519 31
3 518 519 520
3 521 151 522
3 523 3 524
3 525 524 151
3 523 524 525
3 526 3 527
3 526 527 528
3 529 59 530
3 531 530 3
3 529 530 531
3 532 59 533
3 536 535 59
3 534 535 536
3 160 65 2
3 193 65 160
3 193 537 539
3 539 538 65
3 537 538 539
3 540 193 541
3 540 541 542
3 543 193 544
3 546 545 193
