ply
format ascii 1.0
element vertex 357
property float x
property float y
property float z
element face 338
property list uchar int vertex_index
end_header
23.454927 20.217979 -19.518486
29.671967 20.967869 -18.46636
27.338497 28.319067 -13.245999
37.929623 25.609381 -17.274261
27.787144 22.245937 -13.663012
29.951147 31.231104 -9.71539
33.515884 28.462687 -17.476959
35.747974 31.160101 -13.992848
20.363811 14.67765 -22.449982
29.518814 6.293295 -15.131574
28.044983 21.078949 -21.50452
24.82066 16.433603 -22.145725
26.232279 17.815495 -19.121624
24.908955 24.880873 -16.013079
30.43549 25.02866 -20.023531
33.706947 23.771584 -18.500944
32.716331 24.5089 -13.408063
41.585323 25.932058 -14.643669
36.962673 25.070929 -11.792366
22.902641 11.907351 -18.572193
27.363773 21.943735 -11.210985
27.846079 33.921196 -7.628367
31.063995 33.136131 -8.089093
32.946663 31.463436 -11.600407
34.053284 32.614143 -9.897322
20.40642 19.033928 -19.090763
18.811855 16.325813 -22.112354
21.481689 17.222576 -21.004915
29.530407 20.924463 -20.713215
27.79303 19.323391 -21.077961
27.903549 19.639399 -18.942848
25.155487 30.11832 -10.246627
23.773916 28.353373 -11.773804
25.918415 26.761837 -14.470694
27.700495 25.673092 -18.528708
28.971249 27.590931 -17.375656
36.060905 27.148376 -17.927769
34.287922 25.901785 -19.168982
35.773121 24.879354 -18.037485
33.605255 23.986362 -16.112993
36.085682 24.453627 -15.65806
32.712593 25.688801 -9.898611
20.366673 8.920223 -15.986104
21.380722 9.11607 -16.250019
24.393354 14.628856 -19.963039
23.277315 14.10343 -20.662642
24.132053 12.001698 -17.979723
28.636179 21.837444 -15.955847
27.046988 20.03651 -16.368795
26.505184 31.947363 -8.852335
28.880423 29.610361 -11.673554
30.630371 28.864496 -16.016102
32.213951 29.825577 -13.898143
34.932716 30.042347 -15.767929
37.48753 28.454519 -16.621338
18.00131 14.411588 -22.871117
19.934301 12.640679 -21.91942
28.782984 6.319245 -14.427378
25.864105 21.07765 -21.209316
24.257849 18.50481 -21.954651
26.420944 18.847401 -22.199532
25.997311 17.042528 -21.258015
25.798086 17.999676 -16.620165
30.41531 6.400534 -15.642268
21.395182 21.559875 -17.028843
22.015528 23.951269 -15.063787
24.342054 22.63949 -17.756819
26.800751 23.517668 -19.940649
29.308594 23.003473 -20.859308
31.09959 22.664005 -20.402836
31.721363 26.923618 -18.933327
32.548866 24.299601 -20.050091
31.793163 22.314743 -18.585936
31.020782 23.148561 -16.135355
30.109142 23.75938 -13.649844
29.108143 23.735502 -11.08301
36.347198 33.342995 -8.908217
37.693459 30.773434 -12.716028
39.241322 28.482342 -15.481514
39.930531 25.700436 -16.079031
41.845001 25.161476 -12.519228
40.117699 24.635483 -13.512537
38.252968 24.510071 -14.611484
35.042259 24.878408 -12.642954
30.933359 24.780039 -10.463427
28.066895 22.458439 -8.180344
19.343433 8.486072 -15.829477
22.686098 15.679468 -21.906761
21.79705 13.223478 -21.361835
21.682747 11.479147 -18.994846
25.041065 9.175674 -15.850687
23.782104 9.167084 -16.058628
22.469584 9.031235 -16.13261
27.526913 20.325546 -10.600024
27.516931 21.330725 -10.097563
31.816537 34.060409 -7.537844
30.29397 34.627356 -7.646845
33.311182 33.799415 -8.441959
32.558639 32.875137 -8.993208
31.816537 34.060409 -7.537844
20.911996 10.389785 -17.606029
20.43368 10.77493 -17.252187
24.738149 12.045392 -17.803145
24.262704 13.315277 -18.971381
24.8688 13.358971 -18.794804
27.148182 21.186712 -13.864059
27.572699 20.982465 -15.010476
28.211661 22.041691 -14.80943
29.150899 6.30627 -14.779476
28.169715 7.688536 -15.313712
28.53763 7.675562 -15.665809
25.546997 16.535856 -18.876024
25.429513 16.149372 -19.94422
26.114795 17.429012 -20.189819
25.891523 17.853431 -15.576149
26.422537 19.018093 -16.49448
26.515974 18.871848 -15.450464
30.960583 6.490503 -15.764578
30.052464 8.076867 -15.830085
31.39876 5.096511 -15.973259
30.960583 6.490503 -15.764578
20.595802 22.791753 -16.784467
20.196625 21.606056 -17.843846
23.462241 24.416071 -15.538433
22.373351 25.113135 -14.188555
23.820065 25.577936 -14.663201
38.149147 32.436787 -10.302433
37.451023 34.203675 -8.94052
38.822277 31.152006 -12.206338
37.020328 32.058215 -10.812123
38.149147 32.436787 -10.302433
40.413322 27.2072 -15.062591
40.250479 28.509338 -14.717295
41.42248 27.234197 -14.298372
41.019729 25.758819 -11.223277
42.795084 25.831229 -12.284776
38.540186 24.853206 -12.652451
39.406281 25.011429 -12.111324
37.828767 25.229152 -11.251238
29.893028 24.497071 -9.034734
31.822976 25.23442 -10.181019
30.782645 24.951453 -8.752326
28.459796 23.336271 -7.893192
29.500127 23.619239 -9.321886
29.893028 24.497071 -9.034734
28.206885 21.740544 -7.117907
28.459796 23.336271 -7.893192
19.146211 10.727931 -16.379695
18.796542 10.611021 -15.724784
20.717571 6.713593 -15.070777
21.267563 6.982829 -15.088223
26.321665 7.72161 -14.937273
25.692835 9.097051 -15.888101
24.266824 7.516119 -14.982979
24.981459 7.633498 -14.944078
23.610565 7.448195 -15.01997
23.125844 9.099159 -16.095619
24.266824 7.516119 -14.982979
22.979033 7.265804 -15.096639
23.610565 7.448195 -15.01997
27.034712 20.782897 -11.542339
27.246398 20.933998 -12.768352
27.575458 22.094836 -12.436999
27.034712 20.782897 -11.542339
27.526913 20.325546 -10.600024
28.685012 35.019888 -7.416482
27.500999 35.378574 -8.396168
29.455037 33.528664 -7.85873
28.685012 35.019888 -7.416482
30.29397 34.627356 -7.646845
19.609138 17.67987 -20.601558
18.395761 17.682047 -21.708355
19.193044 19.036105 -20.197559
30.233549 4.956872 -14.627079
30.558436 5.01569 -15.197327
23.642102 30.686131 -10.808899
24.450307 31.64464 -10.203224
22.951317 29.803657 -11.572488
23.642102 30.686131 -10.808899
24.464702 29.235847 -11.010216
22.375508 28.674289 -12.270048
22.951317 29.803657 -11.572488
23.252545 27.314186 -12.543564
22.375508 28.674289 -12.270048
24.324794 26.518418 -13.892009
23.252545 27.314186 -12.543564
24.846165 27.557605 -13.122249
25.413685 25.821355 -15.241886
23.820065 25.577936 -14.663201
24.324794 26.518418 -13.892009
42.564651 26.390079 -14.153415
41.42248 27.234197 -14.298372
35.600969 25.807007 -10.439357
37.828767 25.229152 -11.251238
33.475929 26.115943 -9.49248
34.837633 25.379865 -10.845489
35.600969 25.807007 -10.439357
31.266183 25.736109 -8.438976
33.475929 26.115943 -9.49248
30.782645 24.951453 -8.752326
31.266183 25.736109 -8.438976
19.926655 10.677007 -17.120229
19.65783 10.945006 -16.458008
20.873697 9.018147 -16.118061
19.926655 10.677007 -17.120229
20.43368 10.77493 -17.252187
21.774587 7.080753 -15.220181
21.267563 6.982829 -15.088223
20.873697 9.018147 -16.118061
26.778104 20.081998 -15.21695
27.841583 20.936977 -16.162321
27.572699 20.982465 -15.010476
26.515974 18.871848 -15.450464
26.778104 20.081998 -15.21695
27.148182 21.186712 -13.864059
27.246398 20.933998 -12.768352
26.585155 34.486103 -8.432383
27.500999 35.378574 -8.396168
25.914708 33.499187 -9.044367
26.585155 34.486103 -8.432383
27.175632 32.93428 -8.240351
25.125155 32.559161 -9.506077
25.914708 33.499187 -9.044367
25.830336 31.032841 -9.549481
24.450307 31.64464 -10.203224
25.125155 32.559161 -9.506077
17.732658 16.407705 -22.801756
18.395761 17.682047 -21.708355
17.327385 15.450592 -23.181137
17.732658 16.407705 -22.801756
18.406582 15.3687 -22.491736
17.030288 14.727331 -22.93798
17.327385 15.450592 -23.181137
18.056185 13.858605 -22.244157
17.030288 14.727331 -22.93798
19.022681 12.973151 -21.768308
18.056185 13.858605 -22.244157
18.967806 13.526134 -22.395269
20.188786 12.152089 -20.44073
19.022681 12.973151 -21.768308
27.563794 7.668836 -15.176446
28.169715 7.688536 -15.313712
28.192624 6.293395 -14.225618
27.563794 7.668836 -15.176446
29.865634 4.969847 -14.274981
29.150899 6.30627 -14.779476
30.233549 4.956872 -14.627079
29.333326 4.915294 -13.870302
29.865634 4.969847 -14.274981
28.192624 6.293395 -14.225618
29.333326 4.915294 -13.870302
24.627534 14.942536 -19.296731
25.195332 15.835692 -20.610527
25.429513 16.149372 -19.94422
24.8688 13.358971 -18.794804
24.627534 14.942536 -19.296731
26.072545 16.574921 -15.851357
25.891523 17.853431 -15.576149
25.592618 16.700064 -16.661428
26.072545 16.574921 -15.851357
25.809714 16.607973 -17.912158
26.015183 17.907585 -17.870894
25.592618 16.700064 -16.661428
25.546997 16.535856 -18.876024
25.809714 16.607973 -17.912158
29.071492 7.795106 -15.676651
28.53763 7.675562 -15.665809
29.51974 7.848726 -15.931998
30.052464 8.076867 -15.830085
29.967062 6.346915 -15.386921
29.071492 7.795106 -15.676651
29.51974 7.848726 -15.931998
31.006684 5.06931 -15.452674
30.558436 5.01569 -15.197327
29.967062 6.346915 -15.386921
31.006684 5.06931 -15.452674
31.39876 5.096511 -15.973259
19.702244 20.343083 -18.874806
19.193044 19.036105 -20.197559
20.900801 20.296902 -18.059803
19.702244 20.343083 -18.874806
20.196625 21.606056 -17.843846
21.14085 25.239976 -14.840083
22.373351 25.113135 -14.188555
20.905976 23.98745 -15.801939
21.14085 25.239976 -14.840083
21.705355 22.755572 -16.046315
20.595802 22.791753 -16.784467
20.905976 23.98745 -15.801939
28.389117 22.226609 -10.033575
27.516931 21.330725 -10.097563
28.235958 22.839619 -11.146998
35.585184 35.06912 -7.905895
37.451023 34.203675 -8.94052
34.458139 34.163842 -7.947406
35.585184 35.06912 -7.905895
35.200241 32.978569 -9.40277
33.311182 33.799415 -8.441959
34.458139 34.163842 -7.947406
39.476547 29.654885 -13.334552
38.822277 31.152006 -12.206338
38.46739 29.627888 -14.098771
39.476547 29.654885 -13.334552
40.250479 28.509338 -14.717295
42.694491 26.004787 -13.091195
42.795084 25.831229 -12.284776
41.715162 25.546767 -13.581449
42.564651 26.390079 -14.153415
42.694491 26.004787 -13.091195
40.269931 25.274425 -11.614669
41.019729 25.758819 -11.223277
40.98135 24.89848 -13.015883
40.269931 25.274425 -11.614669
39.406281 25.011429 -12.111324
27.868492 21.588077 -8.582242
28.389117 22.226609 -10.033575
28.587519 23.09697 -9.631677
28.35878 20.783981 -7.612215
27.868492 21.588077 -8.582242
28.35878 20.783981 -7.612215
28.206885 21.740544 -7.117907
18.846788 8.128321 -15.799063
18.796542 10.611021 -15.724784
19.683464 6.216376 -14.976859
18.846788 8.128321 -15.799063
19.855053 8.703148 -15.907791
19.146211 10.727931 -16.379695
19.65783 10.945006 -16.458008
20.205952 6.496518 -14.992463
19.855053 8.703148 -15.907791
20.717571 6.713593 -15.070777
19.683464 6.216376 -14.976859
20.205952 6.496518 -14.992463
21.063008 11.571323 -18.978443
20.188786 12.152089 -20.44073
20.808524 12.059913 -20.457133
25.238329 10.510063 -16.952618
24.738149 12.045392 -17.803145
24.586559 10.588686 -16.915205
25.238329 10.510063 -16.952618
25.692835 9.097051 -15.888101
25.610939 7.637793 -14.840108
26.321665 7.72161 -14.937273
24.411585 9.171379 -15.954657
25.610939 7.637793 -14.840108
24.981459 7.633498 -14.944078
21.456427 10.347367 -17.547325
21.063008 11.571323 -18.978443
22.076166 10.255191 -17.563728
21.925153 9.073653 -16.191315
20.911996 10.389785 -17.606029
21.456427 10.347367 -17.547325
22.434602 7.308222 -15.155343
21.925153 9.073653 -16.191315
22.979033 7.265804 -15.096639
21.774587 7.080753 -15.220181
22.434602 7.308222 -15.155343
3 94 93 20
3 95 22 96
3 97 24 98
3 99 98 22
3 97 98 99
3 0 27 25
3 1 30 28
3 2 32 31
3 2 33 32
3 2 35 33
3 3 38 36
3 3 40 38
3 100 43 101
3 102 46 103
3 104 103 44
3 102 103 104
3 4 105 107
3 107 106 47
3 105 106 107
3 5 49 21
3 5 50 49
3 5 52 50
3 7 53 23
3 7 54 53
3 8 55 26
3 8 56 55
3 9 108 110
3 108 57 109
3 108 109 110
3 10 60 58
3 12 61 29
3 12 111 113
3 113 112 61
3 111 112 113
3 114 62 115
3 116 115 48
3 114 115 116
3 117 63 118
3 120 119 63
3 121 64 122
3 13 123 125
3 123 65 124
3 123 124 125
3 13 66 65
3 13 67 66
3 14 68 34
3 14 69 68
3 6 70 51
3 15 71 37
3 15 72 71
3 15 73 72
3 16 74 39
3 16 75 74
3 126 76 127
3 128 77 129
3 130 129 76
3 128 129 130
3 17 131 133
3 131 78 132
3 131 132 133
3 17 79 78
3 134 80 135
3 18 136 138
3 136 81 137
3 136 137 138
3 18 82 81
3 18 83 82
3 139 84 140
3 141 140 41
3 139 140 141
3 142 85 143
3 144 143 84
3 142 143 144
3 146 145 85
3 147 86 148
3 150 149 42
3 11 87 59
3 19 88 45
3 19 89 88
3 151 90 152
3 153 91 154
3 155 92 156
3 157 156 91
3 155 156 157
3 159 158 92
3 20 160 162
3 162 161 4
3 160 161 162
3 164 163 20
3 165 21 166
3 22 167 169
3 167 21 168
3 167 168 169
3 22 5 21
3 22 23 5
3 24 23 22
3 24 7 23
3 25 170 172
3 170 26 171
3 170 171 172
3 27 26 25
3 27 8 26
3 174 173 9
3 28 29 10
3 30 29 28
3 30 12 29
3 31 175 176
3 32 177 179
3 179 178 31
3 177 178 179
3 32 180 181
3 32 182 183
3 33 184 186
3 186 185 32
3 184 185 186
3 33 187 189
3 187 13 188
3 187 188 189
3 33 34 13
3 35 34 33
3 35 14 34
3 36 37 6
3 38 37 36
3 38 15 37
3 38 39 15
3 40 39 38
3 40 16 39
3 190 17 191
3 192 18 193
3 194 41 195
3 196 195 18
3 194 195 196
3 197 41 198
3 200 199 41
3 201 42 202
3 43 203 205
3 203 42 204
3 203 204 205
3 43 206 208
3 208 207 42
3 206 207 208
3 44 45 11
3 46 45 44
3 46 19 45
3 47 48 1
3 209 48 210
3 211 210 47
3 209 210 211
3 213 212 48
3 215 214 4
3 21 216 217
3 49 218 220
3 220 219 21
3 218 219 220
3 49 221 222
3 49 223 225
3 223 31 224
3 223 224 225
3 50 31 49
3 50 2 31
3 50 51 2
3 52 51 50
3 52 6 51
3 23 52 5
3 53 52 23
3 53 6 52
3 53 36 6
3 54 36 53
3 54 3 36
3 26 226 227
3 55 228 230
3 230 229 26
3 228 229 230
3 55 231 232
3 55 233 234
3 56 235 237
3 237 236 55
3 235 236 237
3 56 238 239
3 57 240 241
3 57 242 243
3 244 57 245
3 246 245 9
3 244 245 246
3 247 57 248
3 250 249 57
3 58 59 0
3 60 59 58
3 60 11 59
3 29 60 10
3 61 60 29
3 61 11 60
3 61 44 11
3 251 44 252
3 253 252 61
3 251 252 253
3 255 254 44
3 48 30 1
3 62 30 48
3 62 12 30
3 256 62 257
3 258 62 259
3 260 12 261
3 262 261 62
3 260 261 262
3 264 263 12
3 265 9 266
3 63 267 268
3 63 269 271
3 269 9 270
3 269 270 271
3 63 272 274
3 274 273 9
3 272 273 274
3 276 275 63
3 277 25 278
3 64 279 281
3 279 25 280
3 279 280 281
3 64 0 25
3 65 282 283
3 65 284 285
3 65 286 288
3 286 64 287
3 286 287 288
3 66 64 65
3 66 0 64
3 66 58 0
3 67 58 66
3 67 10 58
3 34 67 13
3 68 67 34
3 68 10 67
3 68 28 10
3 69 28 68
3 69 1 28
3 51 35 2
3 70 35 51
3 70 14 35
3 37 70 6
3 71 70 37
3 71 14 70
3 71 69 14
3 72 69 71
3 72 1 69
3 72 47 1
3 73 47 72
3 73 4 47
3 39 73 15
3 74 73 39
3 74 4 73
3 74 20 4
3 75 20 74
3 75 289 291
3 291 290 20
3 289 290 291
3 76 292 293
3 76 294 295
3 76 296 298
3 296 24 297
3 296 297 298
3 77 24 76
3 77 7 24
3 299 77 300
3 78 301 303
3 301 77 302
3 301 302 303
3 78 7 77
3 78 54 7
3 79 54 78
3 79 3 54
3 80 304 305
3 80 306 308
3 306 17 307
3 306 307 308
3 309 80 310
3 81 311 313
3 311 80 312
3 311 312 313
3 81 17 80
3 81 79 17
3 82 79 81
3 82 3 79
3 82 40 3
3 83 40 82
3 83 16 40
3 41 83 18
3 84 83 41
3 84 16 83
3 84 75 16
3 85 75 84
3 85 314 316
3 316 315 75
3 314 315 316
3 85 317 318
3 320 319 85
3 86 321 322
3 86 323 324
3 42 325 327
3 325 86 326
3 325 326 327
3 328 86 329
3 330 329 42
3 328 329 330
3 332 331 86
3 59 27 0
3 87 27 59
3 87 8 27
3 45 87 11
3 88 87 45
3 88 8 87
3 88 56 8
3 89 56 88
3 89 333 335
3 335 334 56
3 333 334 335
3 336 46 337
3 90 338 340
3 338 46 339
3 338 339 340
3 90 19 46
3 341 90 342
3 91 343 345
3 343 90 344
3 343 344 345
3 91 19 90
3 91 89 19
3 92 89 91
3 92 346 348
3 348 347 89
3 346 347 348
3 92 349 351
3 349 43 350
3 349 350 351
3 352 43 353
3 354 353 92
3 352 353 354
3 356 355 43
