ply
format ascii 1.0
element vertex 179
property float x
property float y
property float z
element face 156
property list uchar int vertex_index
end_header
-23.027014 42.605923 -11.214326
-21.026279 57.20121 -13.497386
-28.360861 39.694012 -9.957674
-23.536697 37.314854 -10.83842
-25.339306 58.333729 -8.796267
-17.874537 56.243874 -11.222278
-28.211502 45.709148 -11.229298
-27.84108 55.062935 -11.601076
-22.167557 49.984138 -11.60815
-25.605473 41.254406 -10.108347
-25.772287 38.661552 -9.745403
-23.687908 39.840858 -11.630899
-22.713709 38.188602 -13.690428
-23.260494 41.018494 -14.592316
-19.504902 54.723705 -8.631506
-15.986302 55.527618 -7.99373
-30.485485 43.269203 -13.029493
-23.379356 58.950836 -11.532223
-27.145411 58.471119 -10.66799
-24.503307 56.281452 -11.794249
-24.868952 52.241261 -11.12802
-21.675026 53.508465 -12.631346
-28.548603 37.641254 -7.943487
-25.821606 36.336769 -8.566335
-26.816034 54.934845 -7.206071
-23.36323 55.942646 -7.794642
-21.671329 57.823658 -10.151073
-19.622869 59.085865 -12.842023
-28.041195 42.165508 -11.237528
-25.291927 44.274105 -9.842287
-30.72761 52.928406 -11.912229
-28.212717 50.353794 -11.194045
-25.240164 48.319862 -10.104092
-22.378235 46.195381 -10.966702
-17.382145 58.587097 -15.078633
-18.190973 55.067036 -14.816032
-19.184589 51.48822 -13.949771
-16.217348 57.245487 -6.725848
-17.017097 55.464596 -6.726792
-28.454732 38.667633 -8.950581
-29.861269 38.305105 -8.234761
-29.767398 39.331484 -9.241855
-23.4069 36.033129 -10.274551
-24.549354 35.544086 -9.138509
-24.679151 36.825812 -9.702378
-22.447359 36.604544 -11.559317
-23.4069 36.033129 -10.274551
-21.870725 37.418142 -14.705001
-22.124799 38.677227 -15.198333
-22.208625 54.762055 -6.908464
-24.218936 54.476807 -6.849501
-27.024762 57.71855 -8.699434
-27.763126 56.019108 -7.904336
-26.07767 56.634287 -8.001169
-29.148381 55.948845 -11.215215
-28.800547 57.652937 -10.748672
-27.493246 56.767027 -11.134533
-29.284345 53.995671 -11.756653
-30.591646 54.88158 -11.370792
-29.148381 55.948845 -11.215215
-15.568561 58.753795 -15.542954
-16.619311 58.430938 -14.368714
-16.870092 53.920252 -15.178604
-16.544292 55.873862 -15.484979
-17.366899 52.130844 -14.745473
-18.687781 53.277628 -14.382901
-16.870092 53.920252 -15.178604
-22.398192 40.092173 -15.649277
-22.124799 38.677227 -15.198333
-22.987102 39.603548 -14.141372
-18.776397 55.062639 -7.04568
-20.279461 54.152584 -7.326896
-17.745602 55.125661 -8.312618
-18.776397 55.062639 -7.04568
-17.017097 55.464596 -6.726792
-31.455343 44.699965 -12.262187
-31.516064 43.113112 -12.205531
-30.515707 45.462024 -12.825338
-31.455343 44.699965 -12.262187
-29.378715 46.681997 -11.925241
-29.348494 44.489176 -12.129396
-30.515707 45.462024 -12.825338
-30.227916 36.940054 -7.781444
-29.861269 38.305105 -8.234761
-28.873725 36.261472 -7.893339
-30.227916 36.940054 -7.781444
-27.510227 35.60923 -8.204764
-28.873725 36.261472 -7.893339
-27.185105 36.989012 -8.254911
-26.163992 35.010936 -8.790488
-27.510227 35.60923 -8.204764
-26.163992 35.010936 -8.790488
-24.549354 35.544086 -9.138509
-22.035865 37.041418 -12.985321
-22.447359 36.604544 -11.559317
-23.125203 37.751728 -12.264424
-22.035865 37.041418 -12.985321
-21.870725 37.418142 -14.705001
-25.945338 53.972906 -6.555216
-27.685277 53.555699 -6.252917
-25.089632 55.438746 -7.500356
-25.945338 53.972906 -6.555216
-24.218936 54.476807 -6.849501
-21.434066 55.333176 -8.213074
-22.208625 54.762055 -6.908464
-20.279461 54.152584 -7.326896
-29.479138 40.305462 -10.3858
-29.767398 39.331484 -9.241855
-30.54145 42.093058 -11.921709
-31.516064 43.113112 -12.205531
-29.319305 41.54121 -11.025726
-30.54145 42.093058 -11.921709
-29.26334 42.717355 -12.13351
-28.201028 40.92976 -10.597601
-29.479138 40.305462 -10.3858
-29.319305 41.54121 -11.025726
-28.550273 54.053066 -7.033978
-27.685277 53.555699 -6.252917
-28.550273 54.053066 -7.033978
-27.763126 56.019108 -7.904336
-27.927814 57.787245 -9.635296
-27.024762 57.71855 -8.699434
-26.242359 58.402424 -9.732128
-27.927814 57.787245 -9.635296
-28.800547 57.652937 -10.748672
-31.949464 53.642376 -11.224923
-30.591646 54.88158 -11.370792
-31.575404 51.573531 -11.57715
-31.949464 53.642376 -11.224923
-30.636769 50.291626 -12.266706
-31.575404 51.573531 -11.57715
-29.379323 49.00432 -11.907614
-30.636769 50.291626 -12.266706
-29.470163 51.6411 -11.553137
-28.21211 48.031471 -11.211671
-29.378715 46.681997 -11.925241
-29.379323 49.00432 -11.907614
-14.72349 57.069433 -7.900678
-16.217348 57.245487 -6.725848
-14.884084 55.690389 -9.510288
-14.72349 57.069433 -7.900678
-15.828202 56.048518 -11.124561
-16.930419 55.885746 -9.608004
-14.884084 55.690389 -9.510288
-16.865507 57.259327 -12.440537
-15.828202 56.048518 -11.124561
-17.739673 58.680323 -13.250409
-18.748703 57.664869 -12.032151
-16.865507 57.259327 -12.440537
-18.502507 58.836481 -13.960328
-17.739673 58.680323 -13.250409
-16.619311 58.430938 -14.368714
-16.139878 57.633892 -15.61628
-15.568561 58.753795 -15.542954
-17.786559 56.827067 -14.947332
-16.139878 57.633892 -15.61628
-16.544292 55.873862 -15.484979
-17.924486 50.356746 -14.419628
-17.366899 52.130844 -14.745473
-19.723327 49.727024 -13.842961
-17.924486 50.356746 -14.419628
-21.214811 48.974983 -12.67215
-20.676073 50.736179 -12.778961
-19.723327 49.727024 -13.842961
-21.320151 47.080604 -12.351426
-22.272896 48.089759 -11.287426
-21.214811 48.974983 -12.67215
-21.904834 45.296787 -12.590649
-21.320151 47.080604 -12.351426
-22.229223 43.502058 -12.71446
-22.702624 44.400652 -11.090514
-21.904834 45.296787 -12.590649
-22.345963 42.708343 -14.403455
-23.143754 41.812208 -12.903321
-22.229223 43.502058 -12.71446
-21.234253 41.535223 -15.116684
-22.345963 42.708343 -14.403455
-22.398192 40.092173 -15.649277
-21.234253 41.535223 -15.116684
3 0 11 9
3 0 13 11
3 37 15 38
3 1 19 17
3 1 21 19
3 2 39 41
3 39 22 40
3 39 40 41
3 3 23 10
3 3 42 44
3 44 43 23
3 42 43 44
3 3 45 46
3 48 47 12
3 49 25 50
3 5 26 14
3 5 27 26
3 6 28 16
3 6 29 28
3 4 51 53
3 53 52 24
3 51 52 53
3 7 54 56
3 56 55 18
3 54 55 56
3 7 57 59
3 57 30 58
3 57 58 59
3 7 31 30
3 8 32 20
3 8 33 32
3 60 34 61
3 62 35 63
3 64 36 65
3 66 65 35
3 64 65 66
3 9 10 2
3 11 10 9
3 11 3 10
3 11 12 3
3 13 12 11
3 13 67 69
3 69 68 12
3 67 68 69
3 70 14 71
3 15 72 74
3 72 14 73
3 72 73 74
3 15 5 14
3 75 16 76
3 77 16 78
3 79 6 80
3 81 80 16
3 79 80 81
3 17 18 4
3 19 18 17
3 19 7 18
3 19 20 7
3 21 20 19
3 21 8 20
3 22 82 83
3 22 84 85
3 10 22 2
3 23 22 10
3 23 86 88
3 88 87 22
3 86 87 88
3 23 89 90
3 92 91 23
3 12 93 95
3 95 94 3
3 93 94 95
3 97 96 12
3 98 24 99
3 25 100 102
3 100 24 101
3 100 101 102
3 25 4 24
3 14 103 105
3 103 25 104
3 103 104 105
3 26 25 14
3 26 4 25
3 26 17 4
3 27 17 26
3 27 1 17
3 106 2 107
3 16 108 109
3 28 110 112
3 112 111 16
3 110 111 112
3 28 113 115
3 113 2 114
3 113 114 115
3 28 9 2
3 29 9 28
3 29 0 9
3 24 116 117
3 119 118 24
3 18 120 122
3 122 121 4
3 120 121 122
3 124 123 18
3 30 125 126
3 30 127 128
3 30 129 130
3 31 131 133
3 133 132 30
3 131 132 133
3 31 134 136
3 134 6 135
3 134 135 136
3 20 31 7
3 32 31 20
3 32 6 31
3 32 29 6
3 33 29 32
3 33 0 29
3 137 15 138
3 139 15 140
3 141 5 142
3 143 142 15
3 141 142 143
3 144 5 145
3 146 27 147
3 148 147 5
3 146 147 148
3 34 149 151
3 149 27 150
3 149 150 151
3 34 1 27
3 152 34 153
3 35 154 156
3 154 34 155
3 154 155 156
3 35 1 34
3 35 21 1
3 36 21 35
3 36 8 21
3 157 36 158
3 159 36 160
3 161 8 162
3 163 162 36
3 161 162 163
3 164 33 165
3 166 165 8
3 164 165 166
3 167 33 168
3 169 0 170
3 171 170 33
3 169 170 171
3 172 13 173
3 174 173 0
3 172 173 174
3 175 13 176
3 178 177 13
