ply
format ascii 1.0
element vertex 477
property float x
property float y
property float z
element face 436
property list uchar int vertex_index
end_header
43.372673 1.642936 -23.652632
49.863678 -4.308864 -12.546515
39.67791 -16.700073 -9.183805
58.60498 -4.307967 -1.920072
47.22068 -0.961937 -18.804846
38.629959 -22.96666 -2.906849
37.261063 3.713556 -23.969006
49.893425 -12.891342 -5.874358
44.04298 -11.008352 -14.233317
42.705189 -8.589677 -16.345173
48.546322 -2.62245 -15.666689
51.620735 6.342012 -13.410835
40.420815 3.287252 -24.649918
43.727863 -22.640688 -1.447512
44.439735 -19.788456 -4.968213
49.274036 -16.517673 -2.291249
45.371662 -12.918869 -11.587115
41.492809 -5.915199 -18.124073
45.62085 0.449912 -21.696861
36.440914 -24.140873 0.971787
39.216427 -20.005211 -6.198637
44.895012 -16.532072 -8.3109
50.029144 -8.733994 -9.275252
53.402496 -7.29181 -3.267703
53.323029 -2.506949 -6.320743
52.831379 2.509971 -9.404997
47.137825 -8.492621 -13.510721
46.619888 -7.506894 -14.999586
49.168613 -3.508984 -14.097226
50.442482 1.959996 -14.760643
51.100029 1.09948 -12.897316
41.050438 -0.410454 -21.946083
41.934864 2.559743 -24.377666
41.795448 -14.259898 -11.808861
42.603199 -15.443237 -10.806476
45.439186 -5.501109 -17.794781
42.133648 -7.262833 -17.356976
44.670616 -4.507304 -19.043129
43.944237 -3.449134 -20.171562
46.475777 -0.289267 -20.293119
47.048077 4.633375 -21.537439
48.00705 4.191421 -19.964157
35.331329 -24.337946 2.994772
38.644005 -25.40202 0.848499
37.262943 -25.922577 2.795145
38.972008 -21.588955 -4.588786
47.256489 -16.725285 -5.406043
44.619499 -18.241085 -6.673262
47.422413 -14.911081 -7.072392
47.503345 -13.097592 -8.714895
50.01963 -10.828623 -7.556427
55.963043 -5.408991 -3.011977
57.770836 3.219009 -6.519754
55.815315 0.190827 -5.516357
55.408924 2.805647 -6.616024
53.203865 0.138007 -7.801037
53.973053 7.230758 -10.136948
40.310604 -11.457884 -13.241087
39.891117 -9.880522 -13.928093
43.371552 -9.831514 -15.346672
46.015495 -6.534056 -16.420177
47.919762 -1.678215 -17.269644
48.930462 3.33031 -18.181843
49.707405 2.671693 -16.492872
38.851215 3.59813 -24.47504
41.263775 -23.332264 -2.516151
41.524158 -21.972904 -4.281928
44.18499 -21.316793 -3.244225
46.967518 -18.430433 -3.693723
49.695168 -14.843356 -4.181363
58.827118 -1.693862 -3.690215
40.965534 -12.923698 -12.59958
44.703136 -12.040482 -12.947985
47.781078 -9.195978 -12.041231
44.76516 5.228875 -24.190861
43.347904 6.017152 -25.537045
58.141632 -6.796246 -0.336341
60.599628 -6.631949 -0.200028
60.57209 -4.32969 -1.395759
41.959332 -1.538755 -21.622705
40.800961 -4.598161 -18.617178
43.008324 -2.426215 -21.104862
44.58712 1.074906 -22.827999
45.946068 4.937204 -22.922291
37.510944 -23.731821 -0.994473
39.979099 -24.570879 -0.899504
33.341446 -26.516998 8.960835
34.567993 -26.375784 6.835527
35.906792 -26.207912 4.823243
41.633678 6.271707 -26.467443
39.88166 6.305799 -26.999401
36.805595 4.504482 -27.295233
39.457081 -18.389151 -7.710606
41.769291 -20.409424 -5.963398
41.944695 -18.861912 -7.577661
42.277306 -17.209658 -9.196997
45.137245 -14.774149 -9.931128
47.659107 -11.181531 -10.380934
50.079941 -6.541724 -10.925528
51.639458 -12.199685 -2.704272
56.137135 -2.550067 -4.582807
53.605579 -4.864507 -4.801416
52.294556 -7.953575 -6.343376
52.134155 -5.726854 -7.951789
51.938801 -3.393764 -9.507305
51.529278 -0.946498 -11.047503
52.283833 4.567046 -11.305346
39.397741 -15.890162 -9.574991
38.284296 -15.798593 -8.281423
41.140554 -16.071655 -9.99514
40.860386 -15.261744 -10.386327
39.397741 -15.890162 -9.574991
34.773415 -24.334834 4.007395
34.502544 -23.01699 4.439546
35.739221 -25.12715 3.907581
36.297136 -25.130261 2.894959
34.773415 -24.334834 4.007395
36.628124 3.849588 -21.931389
37.406425 3.444474 -22.327408
36.47678 3.64621 -23.49561
36.628124 3.849588 -21.931389
38.800984 -22.277808 -3.747818
37.895483 -21.562141 -3.492602
37.724458 -22.250994 -2.651633
57.284011 -4.858479 -2.466025
55.625982 -6.583637 -1.992959
56.94695 -6.033125 -1.447007
56.229624 4.224911 -7.27703
56.58988 3.012328 -6.567889
57.410579 4.431591 -7.228895
55.16966 4.09764 -7.44818
56.229624 4.224911 -7.27703
51.251465 6.729444 -14.347033
50.662339 4.538436 -15.021937
51.031609 4.151004 -14.085739
51.943016 8.441463 -13.889433
51.251465 6.729444 -14.347033
39.665194 2.671825 -23.054465
40.241547 2.072931 -23.317409
39.636015 3.442691 -24.562479
38.880394 2.827263 -22.967025
39.665194 2.671825 -23.054465
48.120777 -17.474053 -2.992486
46.779105 -19.147605 -2.773737
47.932364 -18.191225 -2.0725
39.724577 -13.151038 -11.519367
39.49008 -12.273438 -11.66847
44.195724 7.543769 -25.034194
44.959835 7.264423 -24.181556
57.815323 -8.034757 0.181276
56.315296 -8.285224 0.335912
61.323179 -5.98103 -1.016621
61.480707 -7.057778 -0.408375
61.30941 -4.8299 -1.614486
60.585859 -5.480819 -0.797894
61.323179 -5.98103 -1.016621
61.011442 -3.925995 -2.308994
61.30941 -4.8299 -1.614486
41.085718 -2.337696 -20.267221
40.860734 -1.634915 -20.307643
41.155453 -8.452479 -15.404215
39.748417 -9.097901 -14.195675
41.298153 -9.2351 -15.136633
40.43635 -6.300941 -16.572955
40.756769 -6.974757 -16.189407
41.813229 -6.589016 -17.740524
40.285646 -5.478071 -16.76367
40.43635 -6.300941 -16.572955
41.146885 -5.25668 -18.370625
39.939723 -4.819552 -17.010222
40.285646 -5.478071 -16.76367
46.69203 6.996762 -22.09815
47.316748 6.943904 -21.251016
48.873796 6.140118 -18.708706
49.414125 5.63796 -17.701307
35.804384 -23.058756 1.410473
35.369379 -22.979335 2.466088
36.975929 -23.936347 -0.011343
36.339399 -22.85423 0.427343
35.804384 -23.058756 1.410473
40.489514 -24.764606 0.409809
39.823023 -25.344098 1.232447
34.328686 -27.029401 9.104769
32.843351 -26.55022 10.120035
36.392555 -26.523072 6.130672
35.669321 -26.730439 7.075276
37.061954 -26.439137 5.12453
35.237392 -26.291848 5.829385
36.392555 -26.523072 6.130672
37.784659 -26.146938 4.147036
37.061954 -26.439137 5.12453
41.815823 8.077243 -26.865417
42.490791 6.14443 -26.002244
42.672936 7.949966 -26.400218
39.36948 7.311918 -28.303902
40.049797 7.855535 -27.717715
39.049591 6.042684 -27.200043
39.36948 7.311918 -28.303902
36.307772 4.737876 -28.654204
37.152062 5.562774 -28.803307
36.00206 4.023549 -26.769336
36.307772 4.737876 -28.654204
38.230669 -19.245144 -5.922491
38.125933 -20.072285 -5.110018
39.336754 -19.197181 -6.954622
38.350996 -18.437114 -6.678476
38.230669 -19.245144 -5.922491
52.520977 -9.745748 -2.985988
52.203277 -10.745666 -2.066656
53.084796 -8.291728 -2.348371
52.763835 -8.734915 -3.93439
51.882317 -11.188853 -3.652674
52.520977 -9.745748 -2.985988
57.261857 -0.8409 -4.910949
57.482126 -2.121964 -4.136511
58.606848 -0.412797 -4.464653
53.535089 8.008973 -11.159749
54.354822 8.016724 -10.949548
40.556359 0.224077 -21.965491
40.162709 -0.327566 -20.278239
40.998571 1.709176 -23.181283
40.556359 0.224077 -21.965491
41.492651 1.074645 -23.161875
41.177839 2.923497 -24.513792
40.241547 2.072931 -23.317409
40.998571 1.709176 -23.181283
45.159277 -21.252733 -1.650631
44.769537 -21.845991 -0.717608
48.827713 -17.175468 -1.281417
47.932364 -18.191225 -2.0725
40.456511 -14.670075 -10.887519
40.139534 -13.819138 -11.124008
42.199323 -14.851567 -11.307669
40.456511 -14.670075 -10.887519
40.860386 -15.261744 -10.386327
47.796234 6.722927 -20.464376
47.316748 6.943904 -21.251016
47.527563 4.412398 -20.750798
34.814586 -23.077872 3.477581
34.502544 -23.01699 4.439546
35.886122 -24.23941 1.98328
35.369379 -22.979335 2.466088
34.814586 -23.077872 3.477581
39.132492 -25.604376 2.20577
39.823023 -25.344098 1.232447
37.953474 -25.662298 1.821822
38.003723 -20.864157 -4.305093
37.895483 -21.562141 -3.492602
39.094217 -20.797083 -5.393712
38.125933 -20.072285 -5.110018
38.003723 -20.864157 -4.305093
54.36507 -7.350319 -2.220509
55.625982 -6.583637 -1.992959
54.682769 -6.350401 -3.13984
53.084796 -8.291728 -2.348371
54.36507 -7.350319 -2.220509
56.793076 1.704918 -6.018056
57.100946 0.529547 -5.377724
58.078707 2.043638 -5.879423
54.067131 2.763821 -8.040686
54.306394 1.471827 -7.208531
55.16966 4.09764 -7.44818
53.880888 3.949803 -8.842666
53.017622 1.323989 -8.603017
54.067131 2.763821 -8.040686
54.451725 6.310196 -9.208641
53.402216 4.870364 -9.770972
53.880888 3.949803 -8.842666
54.950948 7.334865 -9.940577
54.451725 6.310196 -9.208641
54.354822 8.016724 -10.949548
54.950948 7.334865 -9.940577
38.561443 -16.765786 -8.148571
38.284296 -15.798593 -8.281423
40.10086 -10.669203 -13.58459
38.849833 -9.861308 -12.465571
39.059576 -10.649989 -12.122067
49.802597 5.308651 -16.856821
49.414125 5.63796 -17.701307
49.318933 3.001002 -17.337357
50.2948 4.894285 -15.888051
50.074944 2.315844 -15.626758
50.662339 4.538436 -15.021937
49.802597 5.308651 -16.856821
50.2948 4.894285 -15.888051
38.201502 3.386761 -22.580425
38.880394 2.827263 -22.967025
38.056139 3.655843 -24.222023
37.406425 3.444474 -22.327408
38.201502 3.386761 -22.580425
45.38784 -20.590785 -2.548988
43.956426 -21.978741 -2.345868
45.159277 -21.252733 -1.650631
45.576254 -19.873613 -3.468974
45.38784 -20.590785 -2.548988
46.779105 -19.147605 -2.773737
59.601157 -1.998347 -3.365277
58.716049 -3.000914 -2.805143
59.490088 -3.3054 -2.480206
59.364628 -0.882258 -4.304112
59.601157 -1.998347 -3.365277
58.606848 -0.412797 -4.464653
59.364628 -0.882258 -4.304112
58.453285 2.682654 -6.571636
58.078707 2.043638 -5.879423
58.004513 3.679941 -7.371961
58.453285 2.682654 -6.571636
57.410579 4.431591 -7.228895
58.004513 3.679941 -7.371961
39.162615 -11.540531 -11.989224
39.059576 -10.649989 -12.122067
40.638069 -12.190791 -12.920333
39.162615 -11.540531 -11.989224
39.49008 -12.273438 -11.66847
41.380491 -13.591798 -12.20422
39.724577 -13.151038 -11.519367
40.139534 -13.819138 -11.124008
43.487096 7.937907 -25.707286
44.056532 5.623014 -24.863953
44.195724 7.543769 -25.034194
42.672936 7.949966 -26.400218
43.487096 7.937907 -25.707286
56.715277 -7.277264 -0.655141
56.315296 -8.285224 0.335912
58.373306 -5.552106 -1.128207
56.94695 -6.033125 -1.447007
56.715277 -7.277264 -0.655141
60.577269 -7.858337 0.141442
61.480707 -7.057778 -0.408375
59.044321 -7.952609 0.249433
60.577269 -7.858337 0.141442
59.37063 -6.714097 -0.268184
57.815323 -8.034757 0.181276
59.044321 -7.952609 0.249433
60.473642 -3.316261 -2.21805
59.490088 -3.3054 -2.480206
59.588535 -4.318829 -1.657916
60.473642 -3.316261 -2.21805
61.011442 -3.925995 -2.308994
40.406287 -1.070765 -20.469333
40.162709 -0.327566 -20.278239
41.504885 -0.974605 -21.784394
40.406287 -1.070765 -20.469333
40.860734 -1.634915 -20.307643
38.822333 -8.912781 -12.566947
38.849833 -9.861308 -12.465571
38.822333 -8.912781 -12.566947
39.748417 -9.097901 -14.195675
40.869682 -7.789057 -15.910117
41.155453 -8.452479 -15.404215
42.419418 -7.926255 -16.851074
40.869682 -7.789057 -15.910117
40.756769 -6.974757 -16.189407
39.812502 -3.935521 -17.028569
39.939723 -4.819552 -17.010222
40.506533 -3.867399 -18.764457
39.812502 -3.935521 -17.028569
41.610214 -2.781426 -20.008299
40.506533 -3.867399 -18.764457
41.904643 -3.512188 -19.86102
42.483828 -1.982485 -21.363784
41.085718 -2.337696 -20.267221
41.610214 -2.781426 -20.008299
45.550289 7.118588 -23.547271
44.959835 7.264423 -24.181556
45.355614 5.083039 -23.556576
46.141025 7.148677 -22.790576
46.497073 4.78529 -22.229865
46.69203 6.996762 -22.09815
45.550289 7.118588 -23.547271
46.141025 7.148677 -22.790576
48.412091 6.570673 -19.599863
48.468756 3.760865 -19.073
48.873796 6.140118 -18.708706
47.796234 6.722927 -20.464376
48.412091 6.570673 -19.599863
37.324568 -22.473917 -1.557808
37.724458 -22.250994 -2.651633
36.76506 -22.856497 -0.601621
36.339399 -22.85423 0.427343
38.070452 -23.349241 -1.950661
37.324568 -22.473917 -1.557808
36.76506 -22.856497 -0.601621
41.157061 -24.349036 -0.464193
39.311552 -24.986449 -0.025502
40.489514 -24.764606 0.409809
43.031442 -23.383941 -0.738197
41.853481 -23.605784 -1.173508
41.157061 -24.349036 -0.464193
44.769537 -21.845991 -0.717608
43.031442 -23.383941 -0.738197
32.700722 -25.475787 10.234546
32.843351 -26.55022 10.120035
32.919824 -25.456467 9.103298
32.700722 -25.475787 10.234546
35.056047 -26.801046 8.13793
34.328686 -27.029401 9.104769
33.954719 -26.446391 7.898181
35.056047 -26.801046 8.13793
35.669321 -26.730439 7.075276
33.533098 -25.38586 8.040644
32.919824 -25.456467 9.103298
33.954719 -26.446391 7.898181
33.901194 -25.36488 6.960601
33.533098 -25.38586 8.040644
34.570593 -25.280945 5.954459
33.901194 -25.36488 6.960601
35.237392 -26.291848 5.829385
35.061146 -25.269817 4.92163
34.570593 -25.280945 5.954459
36.584868 -26.065244 3.809194
35.739221 -25.12715 3.907581
35.061146 -25.269817 4.92163
38.462734 -26.004271 3.132988
36.584868 -26.065244 3.809194
37.784659 -26.146938 4.147036
39.132492 -25.604376 2.20577
38.462734 -26.004271 3.132988
40.925806 7.838489 -27.451736
41.815823 8.077243 -26.865417
40.757669 6.288753 -26.733422
40.925806 7.838489 -27.451736
40.049797 7.855535 -27.717715
38.534368 4.688849 -25.937863
39.366438 4.951964 -25.73722
39.049591 6.042684 -27.200043
37.739293 4.746563 -25.684846
38.056139 3.655843 -24.222023
38.534368 4.688849 -25.937863
37.511558 5.142026 -27.34796
37.152062 5.562774 -28.803307
37.033329 4.109019 -25.63212
37.739293 4.746563 -25.684846
37.511558 5.142026 -27.34796
36.249046 4.041673 -25.158723
36.47678 3.64621 -23.49561
37.033329 4.109019 -25.63212
36.249046 4.041673 -25.158723
36.00206 4.023549 -26.769336
38.451029 -17.610325 -7.411972
38.350996 -18.437114 -6.678476
39.567495 -17.544612 -8.447205
38.561443 -16.765786 -8.148571
38.451029 -17.610325 -7.411972
49.98914 -15.122632 -1.485212
48.827713 -17.175468 -1.281417
51.17185 -12.963638 -1.691723
52.203277 -10.745666 -2.066656
50.456747 -14.358679 -2.497761
49.98914 -15.122632 -1.485212
51.17185 -12.963638 -1.691723
50.910172 -12.510689 -4.39122
50.667313 -13.521521 -3.442818
51.882317 -11.188853 -3.652674
51.0093 -11.534681 -5.237718
49.794297 -13.867349 -5.027861
50.910172 -12.510689 -4.39122
55.976225 -1.17962 -5.049582
57.261857 -0.8409 -4.910949
57.100946 0.529547 -5.377724
52.865377 -7.521264 -4.701246
52.763835 -8.734915 -3.93439
53.504037 -6.078158 -4.03456
52.209865 -9.065798 -5.472226
52.865377 -7.521264 -4.701246
52.950068 -6.409041 -5.572396
51.093991 -10.422458 -6.108867
51.0093 -11.534681 -5.237718
52.209865 -9.065798 -5.472226
52.69048 6.677117 -11.743948
53.128443 5.898902 -10.721147
53.535089 8.008973 -11.159749
52.35893 7.564601 -12.796693
51.952284 5.454529 -12.35809
52.69048 6.677117 -11.743948
51.943016 8.441463 -13.889433
52.35893 7.564601 -12.796693
3 1 28 26
3 1 30 28
3 0 32 31
3 2 107 108
3 2 109 111
3 109 34 110
3 109 110 111
3 4 37 35
3 4 39 37
3 4 41 39
3 112 42 113
3 114 44 115
3 116 115 42
3 114 115 116
3 6 117 118
3 6 119 120
3 5 121 123
3 121 45 122
3 121 122 123
3 7 48 46
3 7 50 48
3 3 124 126
3 124 51 125
3 124 125 126
3 127 54 128
3 129 128 52
3 127 128 129
3 131 130 54
3 8 59 57
3 10 60 27
3 10 61 60
3 10 63 61
3 11 132 134
3 134 133 29
3 132 133 134
3 11 135 136
3 12 137 138
3 12 139 141
3 139 64 140
3 139 140 141
3 13 67 65
3 15 142 144
3 142 68 143
3 142 143 144
3 15 69 68
3 145 71 146
3 16 72 33
3 16 73 72
3 148 147 74
3 149 76 150
3 151 77 152
3 153 78 154
3 155 154 77
3 153 154 155
3 157 156 78
3 158 79 159
3 9 160 162
3 162 161 58
3 160 161 162
3 17 163 165
3 165 164 36
3 163 164 165
3 17 166 167
3 17 168 170
3 168 80 169
3 168 169 170
3 18 81 38
3 18 82 81
3 18 83 82
3 172 171 40
3 174 173 62
3 19 175 176
3 19 177 179
3 177 84 178
3 177 178 179
3 19 85 84
3 181 180 43
3 182 86 183
3 184 87 185
3 186 88 187
3 188 187 87
3 186 187 188
3 190 189 88
3 191 89 192
3 193 192 75
3 191 192 193
3 194 90 195
3 197 196 90
3 198 91 199
3 201 200 91
3 20 202 203
3 20 204 206
3 204 92 205
3 204 205 206
3 14 93 66
3 21 94 47
3 21 95 94
3 21 96 95
3 22 97 49
3 22 98 97
3 23 207 209
3 207 99 208
3 207 208 209
3 23 210 212
3 212 211 99
3 210 211 212
3 213 100 214
3 215 214 70
3 213 214 215
3 24 101 53
3 24 102 101
3 24 103 102
3 25 104 55
3 25 105 104
3 25 106 105
3 217 216 56
3 26 27 8
3 28 27 26
3 28 10 27
3 28 29 10
3 30 29 28
3 30 11 29
3 31 218 219
3 32 220 222
3 222 221 31
3 220 221 222
3 32 223 225
3 223 12 224
3 223 224 225
3 227 226 13
3 228 15 229
3 230 33 231
3 34 232 234
3 232 33 233
3 232 233 234
3 34 16 33
3 35 36 9
3 37 36 35
3 37 17 36
3 37 38 17
3 39 38 37
3 39 18 38
3 39 40 18
3 41 40 39
3 41 235 237
3 237 236 40
3 235 236 237
3 42 238 239
3 42 240 242
3 240 19 241
3 240 241 242
3 42 43 19
3 44 43 42
3 44 243 245
3 245 244 43
3 243 244 245
3 45 246 247
3 45 248 250
3 248 20 249
3 248 249 250
3 46 47 14
3 48 47 46
3 48 21 47
3 48 49 21
3 50 49 48
3 50 22 49
3 51 251 252
3 51 253 255
3 253 23 254
3 253 254 255
3 52 256 258
3 256 53 257
3 256 257 258
3 54 53 52
3 54 24 53
3 54 55 24
3 259 55 260
3 261 260 54
3 259 260 261
3 262 25 263
3 264 263 55
3 262 263 264
3 265 56 266
3 267 266 25
3 265 266 267
3 268 56 269
3 271 270 56
3 272 2 273
3 57 274 276
3 274 58 275
3 274 275 276
3 59 58 57
3 59 9 58
3 27 59 8
3 60 59 27
3 60 9 59
3 60 35 9
3 61 35 60
3 61 4 35
3 61 62 4
3 63 62 61
3 63 277 279
3 279 278 62
3 277 278 279
3 29 63 10
3 280 63 281
3 282 281 29
3 280 281 282
3 284 283 63
3 64 285 286
3 64 287 289
3 287 6 288
3 287 288 289
3 65 66 5
3 67 66 65
3 67 14 66
3 290 67 291
3 292 291 13
3 290 291 292
3 68 293 295
3 293 67 294
3 293 294 295
3 68 14 67
3 68 46 14
3 69 46 68
3 69 7 46
3 296 70 297
3 298 297 3
3 296 297 298
3 299 70 300
3 302 301 70
3 303 52 304
3 305 52 306
3 308 307 52
3 309 57 310
3 71 311 313
3 311 57 312
3 311 312 313
3 71 8 57
3 33 314 316
3 314 71 315
3 314 315 316
3 72 71 33
3 72 8 71
3 72 26 8
3 73 26 72
3 73 1 26
3 74 75 0
3 317 75 318
3 319 318 74
3 317 318 319
3 321 320 75
3 76 322 323
3 76 324 326
3 324 3 325
3 324 325 326
3 77 327 328
3 77 329 330
3 77 331 333
3 331 76 332
3 331 332 333
3 78 76 77
3 78 3 76
3 78 334 336
3 336 335 3
3 334 335 336
3 338 337 78
3 339 31 340
3 79 341 343
3 341 31 342
3 341 342 343
3 79 0 31
3 58 344 345
3 347 346 58
3 36 348 350
3 350 349 9
3 348 349 350
3 352 351 36
3 80 353 354
3 80 355 356
3 38 80 17
3 81 80 38
3 81 357 359
3 359 358 80
3 357 358 359
3 81 360 362
3 360 79 361
3 360 361 362
3 82 79 81
3 82 0 79
3 82 74 0
3 83 74 82
3 83 363 365
3 365 364 74
3 363 364 365
3 40 83 18
3 366 83 367
3 368 367 40
3 366 367 368
3 370 369 83
3 62 41 4
3 371 41 372
3 373 372 62
3 371 372 373
3 375 374 41
3 376 5 377
3 84 378 379
3 84 380 382
3 380 5 381
3 380 381 382
3 84 65 5
3 85 65 84
3 85 13 65
3 43 85 19
3 383 85 384
3 385 384 43
3 383 384 385
3 386 13 387
3 388 387 85
3 386 387 388
3 390 389 13
3 86 391 392
3 86 393 394
3 395 86 396
3 87 397 399
3 397 86 398
3 397 398 399
3 87 400 402
3 402 401 86
3 400 401 402
3 87 403 404
3 88 405 407
3 407 406 87
3 405 406 407
3 88 408 409
3 88 410 412
3 410 44 411
3 410 411 412
3 413 44 414
3 415 414 88
3 413 414 415
3 417 416 44
3 75 32 0
3 89 32 75
3 89 12 32
3 418 89 419
3 90 420 422
3 420 89 421
3 420 421 422
3 90 12 89
3 90 64 12
3 423 64 424
3 425 424 90
3 423 424 425
3 426 6 427
3 428 427 64
3 426 427 428
3 91 429 430
3 91 431 433
3 431 6 432
3 431 432 433
3 91 434 436
3 436 435 6
3 434 435 436
3 438 437 91
3 92 439 440
3 92 441 443
3 441 2 442
3 441 442 443
3 66 45 5
3 93 45 66
3 93 20 45
3 47 93 14
3 94 93 47
3 94 20 93
3 94 92 20
3 95 92 94
3 95 2 92
3 95 34 2
3 96 34 95
3 96 16 34
3 49 96 21
3 97 96 49
3 97 16 96
3 97 73 16
3 98 73 97
3 98 1 73
3 444 15 445
3 99 446 447
3 99 448 450
3 448 15 449
3 448 449 450
3 99 69 15
3 451 69 452
3 453 452 99
3 451 452 453
3 454 7 455
3 456 455 69
3 454 455 456
3 70 51 3
3 100 51 70
3 100 23 51
3 53 457 459
3 457 100 458
3 457 458 459
3 101 100 53
3 101 23 100
3 101 460 462
3 462 461 23
3 460 461 462
3 102 463 465
3 465 464 101
3 463 464 465
3 102 466 468
3 466 7 467
3 466 467 468
3 102 50 7
3 103 50 102
3 103 22 50
3 55 103 24
3 104 103 55
3 104 22 103
3 104 98 22
3 105 98 104
3 105 1 98
3 105 30 1
3 106 30 105
3 106 11 30
3 56 106 25
3 469 106 470
3 471 470 56
3 469 470 471
3 472 11 473
3 474 473 106
3 472 473 474
3 476 475 11
