ply
format ascii 1.0
element vertex 450
property float x
property float y
property float z
element face 428
property list uchar int vertex_index
end_header
37.251423 -12.712255 1.762125
34.402359 -13.819792 15.268916
37.808548 -9.842094 -11.003048
31.96349 -24.371195 13.929749
37.85564 -2.289549 -11.758241
38.186249 -13.72007 8.885702
34.2155 -24.331722 5.020017
37.833416 -8.900139 0.554125
35.950508 -11.777098 -4.622769
36.201382 -15.906896 -4.155116
36.000229 -14.236359 11.950172
34.476185 -18.342905 7.705942
34.707371 -19.304218 11.003004
39.274979 -0.244679 -18.610394
37.397175 3.41806 -17.40279
36.612194 -2.727247 -5.172838
36.061787 -7.405707 -5.043931
38.48362 -13.378378 -10.439154
34.392845 -19.312778 14.79742
34.355141 -18.601618 18.580729
37.729492 1.985913 -11.746333
40.212105 -3.136636 -18.911737
37.793304 -6.198048 -11.555242
38.892555 -13.137632 5.53335
35.972618 -18.793644 -1.016774
35.109905 -18.56786 3.270196
32.498203 -24.395935 9.245761
37.79142 -10.86044 1.048293
36.571587 -12.459032 -1.593563
36.299118 -14.538318 -1.231672
34.967155 -14.11671 13.547049
36.837212 -16.657368 12.035273
36.138897 -16.587242 13.569386
40.062279 0.858609 -21.9849
37.192501 -3.296651 -2.559278
37.017712 -5.866683 -2.507382
36.890682 -14.897113 -7.379041
36.425026 -12.869253 -7.55107
39.117573 -15.080252 -9.966178
35.019409 -15.701518 18.699213
37.826191 -0.171921 -11.736556
38.698433 -1.63273 -15.475822
38.824043 -3.272881 -15.43996
36.410286 -6.663434 -7.911551
36.800148 -4.655101 -8.025012
37.753548 -7.94504 -11.205801
38.87434 -13.450888 7.245821
36.446461 -15.24568 5.063006
36.766422 -15.564549 6.955797
33.673759 -21.696035 5.88432
34.297844 -21.817797 3.96039
33.041683 -22.020962 14.364403
33.02076 -22.140926 12.124359
32.059998 -24.434576 11.508257
37.551788 3.175392 -20.68581
36.001167 4.788603 -16.954845
35.995186 3.985619 -19.893772
36.818958 -21.535328 -2.396418
37.035439 -20.139359 -4.0214
37.868256 -6.616656 0.065679
36.940483 -8.25279 -2.324663
36.79493 -10.388721 -1.907354
36.07119 -13.88121 -4.393094
37.444977 -16.831499 -7.113338
37.195869 -0.301162 -8.580881
37.180191 -14.085625 10.449857
37.092926 -16.055614 8.686193
37.170296 -16.447155 10.389269
34.525566 -18.845638 9.324577
33.222218 -21.634222 7.961207
31.83073 -26.606125 13.655817
32.345257 -26.583441 11.279235
37.893761 2.266605 -14.654287
36.929161 4.476476 -14.288302
38.548302 1.64706 -18.054113
38.909573 2.056397 -21.459011
36.376991 -5.142056 -5.279419
36.196575 -8.79151 -7.824046
35.934399 -9.591898 -4.825341
36.11372 -10.87817 -7.693898
38.014626 -11.623178 -10.73736
34.330288 -13.260898 17.005241
35.40435 -16.46875 15.236856
34.960423 -16.099203 16.99003
34.226143 -18.983536 16.724667
33.049812 -21.669554 16.457607
32.077721 -24.246075 16.180725
38.405331 0.267181 -15.120062
39.762135 -1.731076 -18.992582
36.787209 -0.320848 -5.194146
36.996193 -2.422422 -8.22987
37.910915 -4.291293 -11.729471
39.605717 -8.315281 -14.463257
39.37989 -6.686682 -15.021838
39.078484 -5.040942 -15.403267
38.712543 -10.288801 3.444047
38.235863 -12.870313 3.672142
38.047638 -10.754247 5.035054
37.144478 -11.233806 6.467703
36.078316 -11.370681 7.919032
35.082848 -11.57706 9.364073
34.232754 -11.406707 11.023375
33.743469 -11.133652 12.826876
37.916405 -8.243082 2.848273
36.124237 -15.692572 0.402545
36.112751 -15.399381 2.840987
35.595566 -18.808529 1.106062
36.019176 -21.981174 -0.208768
34.715862 -18.294483 5.485206
35.167854 -21.976639 1.84916
34.685612 -19.569769 12.791629
33.070412 -21.871229 10.060486
33.234394 -24.353977 7.085675
36.12923 -17.39917 -2.698704
37.244911 -18.485077 -5.646346
37.469326 -5.006668 -1.310776
37.649012 -3.709106 -1.377308
39.397741 -15.890162 -9.574991
38.004127 -14.988682 -8.67261
38.284296 -15.798593 -8.281423
40.860386 -15.261744 -10.386327
39.397741 -15.890162 -9.574991
37.840916 -1.230735 -11.747398
37.595782 0.916191 -10.251005
37.610506 -0.142623 -10.261848
34.773415 -24.334834 4.007395
34.502544 -23.01699 4.439546
33.944629 -23.013878 5.452168
35.739221 -25.12715 3.907581
34.773415 -24.334834 4.007395
36.628124 3.849588 -21.931389
36.773487 3.580506 -20.289791
37.406425 3.444474 -22.327408
35.843841 3.782241 -21.457992
36.628124 3.849588 -21.931389
37.895483 -21.562141 -3.492602
37.724458 -22.250994 -2.651633
37.256999 0.859374 -7.092666
37.37895 2.076625 -7.387443
32.940207 -27.271622 12.490453
32.433219 -27.455067 13.60627
39.665194 2.671825 -23.054465
39.485926 1.457503 -21.721955
40.241547 2.072931 -23.317409
38.880394 2.827263 -22.967025
39.665194 2.671825 -23.054465
39.724577 -13.151038 -11.519367
39.49008 -12.273438 -11.66847
38.249123 -12.500778 -10.588257
34.948814 -14.435547 17.773872
34.645356 -14.680051 16.997636
34.633747 -13.016395 17.781478
32.253965 -24.179519 17.167226
32.702022 -22.780088 17.299906
31.894074 -25.429816 16.064743
32.253965 -24.179519 17.167226
37.216253 4.434998 -10.405055
37.539848 3.190298 -10.319014
37.526522 3.12247 -11.718288
37.216253 4.434998 -10.405055
38.067411 1.126547 -13.433198
37.864441 2.263104 -13.405153
37.526522 3.12247 -11.718288
41.085718 -2.337696 -20.267221
40.860734 -1.634915 -20.307643
39.98712 -2.433856 -18.95216
36.699702 -1.524047 -5.183492
37.549522 0.68066 -4.115769
37.462015 -0.52254 -4.105115
41.155453 -8.452479 -15.404215
39.748417 -9.097901 -14.195675
40.43635 -6.300941 -16.572955
40.756769 -6.974757 -16.189407
40.285646 -5.478071 -16.76367
39.229187 -5.863812 -15.212553
40.43635 -6.300941 -16.572955
39.939723 -4.819552 -17.010222
40.285646 -5.478071 -16.76367
37.304796 -9.045479 5.056869
38.38009 -10.521524 4.23955
37.637248 -8.812756 4.261366
36.420807 -9.157001 7.439253
36.557434 -9.275982 6.542412
35.887726 -9.225439 8.164917
36.611397 -11.302243 7.193367
36.420807 -9.157001 7.439253
34.968447 -9.420078 10.389177
35.197655 -9.361523 9.683153
34.5434 -9.334902 11.218828
34.657801 -11.491884 10.193724
34.968447 -9.420078 10.389177
34.166156 -9.209898 13.665602
34.13558 -9.223022 12.869028
33.687366 -10.946062 13.733901
34.166156 -9.209898 13.665602
37.239179 -7.789896 3.963479
37.646713 -6.429349 3.992843
37.637248 -8.812756 4.261366
38.314474 -9.265942 3.14616
37.239179 -7.789896 3.963479
35.804384 -23.058756 1.410473
34.732849 -21.897218 2.904775
35.369379 -22.979335 2.466088
36.339399 -22.85423 0.427343
35.804384 -23.058756 1.410473
32.843351 -26.55022 10.120035
33.830591 -27.062622 10.263969
36.549031 4.958826 -15.789811
36.315023 5.488034 -14.232567
37.163168 3.947268 -15.845546
35.103043 6.473564 -15.64962
35.231296 5.296499 -16.686478
38.230669 -19.245144 -5.922491
37.140175 -19.312218 -4.833873
38.125933 -20.072285 -5.110018
38.350996 -18.437114 -6.678476
38.230669 -19.245144 -5.922491
40.556359 0.224077 -21.965491
39.668629 0.306965 -20.297647
40.162709 -0.327566 -20.278239
40.998571 1.709176 -23.181283
40.556359 0.224077 -21.965491
40.241547 2.072931 -23.317409
40.998571 1.709176 -23.181283
37.736407 -2.424091 -1.403255
38.078199 -1.169113 -1.647805
37.105107 -4.581667 -2.53333
37.736407 -2.424091 -1.403255
37.649012 -3.709106 -1.377308
40.456511 -14.670075 -10.887519
40.139534 -13.819138 -11.124008
38.800596 -14.229315 -10.202666
40.456511 -14.670075 -10.887519
40.860386 -15.261744 -10.386327
35.474346 -14.046838 19.228873
34.978307 -14.236705 18.628464
35.347834 -15.506253 19.45119
35.474346 -14.046838 19.228873
35.015699 -16.956302 19.391948
34.687275 -17.151568 18.639971
35.347834 -15.506253 19.45119
37.588197 2.111381 -10.314126
37.595782 0.916191 -10.251005
37.777842 0.906996 -11.741445
37.539848 3.190298 -10.319014
37.588197 2.111381 -10.314126
34.814586 -23.077872 3.477581
33.985801 -21.756916 4.922355
34.502544 -23.01699 4.439546
35.369379 -22.979335 2.466088
34.814586 -23.077872 3.477581
35.228306 4.895007 -18.155942
35.231296 5.296499 -16.686478
35.998176 4.387111 -18.424308
35.232872 4.060545 -19.425055
35.228306 4.895007 -18.155942
35.232872 4.060545 -19.425055
35.843841 3.782241 -21.457992
38.003723 -20.864157 -4.305093
36.927199 -20.837343 -3.208909
37.895483 -21.562141 -3.492602
38.125933 -20.072285 -5.110018
38.003723 -20.864157 -4.305093
37.40437 -7.434723 -1.129492
37.430712 -6.199721 -1.219417
37.894598 -5.381654 -0.024245
38.561443 -16.765786 -8.148571
38.284296 -15.798593 -8.281423
37.167829 -15.864306 -7.246189
37.28062 0.851571 -8.673168
37.37895 2.076625 -7.387443
37.525755 -1.295356 -10.169561
37.610506 -0.142623 -10.261848
37.28062 0.851571 -8.673168
38.849833 -9.861308 -12.465571
39.059576 -10.649989 -12.122067
33.19747 -27.26028 11.302162
32.087993 -26.594783 12.467526
32.940207 -27.271622 12.490453
33.830591 -27.062622 10.263969
33.19747 -27.26028 11.302162
37.411461 3.371541 -14.471294
36.736999 5.467301 -12.993633
37.219299 4.362366 -13.176626
38.201502 3.386761 -22.580425
38.230681 2.615895 -21.072411
38.880394 2.827263 -22.967025
37.406425 3.444474 -22.327408
38.201502 3.386761 -22.580425
36.992619 -1.724029 -3.844613
37.462015 -0.52254 -4.105115
37.282772 -2.008731 -2.537834
38.078199 -1.169113 -1.647805
36.875017 -2.931434 -3.897904
37.282772 -2.008731 -2.537834
36.784746 -4.219354 -3.919348
36.494592 -3.934652 -5.226128
36.992619 -1.724029 -3.844613
36.875017 -2.931434 -3.897904
36.979098 -7.059736 -2.416023
37.469326 -5.006668 -1.310776
37.430712 -6.199721 -1.219417
39.162615 -11.540531 -11.989224
39.059576 -10.649989 -12.122067
37.911587 -10.732636 -10.870204
39.162615 -11.540531 -11.989224
39.49008 -12.273438 -11.66847
39.724577 -13.151038 -11.519367
40.139534 -13.819138 -11.124008
34.989916 -15.90036 17.844622
34.948814 -14.435547 17.773872
34.978307 -14.236705 18.628464
34.712391 -18.456427 19.438873
35.015699 -16.956302 19.391948
33.840733 -19.957859 18.499909
34.712391 -18.456427 19.438873
33.188068 -21.491827 17.438347
33.702477 -20.135586 17.519168
33.840733 -19.957859 18.499909
32.563766 -22.957815 16.319166
33.188068 -21.491827 17.438347
32.702022 -22.780088 17.299906
31.770579 -26.60984 14.802289
31.954225 -25.4261 14.918271
31.894074 -25.429816 16.064743
32.433219 -27.455067 13.60627
31.770579 -26.60984 14.802289
37.608656 3.262816 -13.172265
37.219299 4.362366 -13.176626
38.149546 1.266893 -14.887175
37.608656 3.262816 -13.172265
37.864441 2.263104 -13.405153
40.406287 -1.070765 -20.469333
40.162709 -0.327566 -20.278239
39.518557 -0.987878 -18.801488
40.406287 -1.070765 -20.469333
40.860734 -1.634915 -20.307643
37.562247 1.914532 -4.517669
37.549522 0.68066 -4.115769
37.052669 0.849531 -5.399299
37.562247 1.914532 -4.517669
37.157162 -0.201256 -6.917161
37.052669 0.849531 -5.399299
36.891701 -1.371635 -6.712008
37.096031 -1.361792 -8.405375
37.256999 0.859374 -7.092666
37.157162 -0.201256 -6.917161
38.822333 -8.912781 -12.566947
37.781048 -8.893567 -11.104425
38.849833 -9.861308 -12.465571
38.679632 -8.130161 -12.834529
38.822333 -8.912781 -12.566947
39.748417 -9.097901 -14.195675
40.869682 -7.789057 -15.910117
41.155453 -8.452479 -15.404215
39.492804 -7.500981 -14.742548
40.869682 -7.789057 -15.910117
40.756769 -6.974757 -16.189407
39.812502 -3.935521 -17.028569
38.951264 -4.156911 -15.421613
39.939723 -4.819552 -17.010222
40.506533 -3.867399 -18.764457
39.518074 -3.204759 -17.175849
39.812502 -3.935521 -17.028569
41.610214 -2.781426 -20.008299
40.506533 -3.867399 -18.764457
41.085718 -2.337696 -20.267221
41.610214 -2.781426 -20.008299
37.009014 -9.036202 5.826087
37.304796 -9.045479 5.056869
37.596058 -10.994027 5.751378
37.009014 -9.036202 5.826087
36.557434 -9.275982 6.542412
35.695389 -9.258333 8.960632
35.887726 -9.225439 8.164917
35.580582 -11.473871 8.641552
35.695389 -9.258333 8.960632
35.197655 -9.361523 9.683153
34.380223 -9.35955 11.967277
34.5434 -9.334902 11.218828
33.988112 -11.27018 11.925126
34.380223 -9.35955 11.967277
34.13558 -9.223022 12.869028
34.29921 -12.437591 14.093988
34.355312 -12.625181 13.186962
33.687366 -10.946062 13.733901
34.016812 -12.289132 14.954922
34.684757 -13.968251 14.407982
34.29921 -12.437591 14.093988
34.295885 -12.106459 15.801684
34.016812 -12.289132 14.954922
34.25985 -11.827012 16.669846
34.366324 -13.540345 16.137079
34.295885 -12.106459 15.801684
34.729101 -11.620243 17.25852
34.25985 -11.827012 16.669846
34.633747 -13.016395 17.781478
34.729101 -11.620243 17.25852
37.984559 -5.004587 1.118696
37.894598 -5.381654 -0.024245
37.811932 -6.216588 1.255408
37.984559 -5.004587 1.118696
37.794512 -7.358329 1.499631
37.850836 -7.758397 0.309902
37.811932 -6.216588 1.255408
37.836006 -7.029801 2.646705
37.646713 -6.429349 3.992843
37.87491 -8.57161 1.701199
37.794512 -7.358329 1.499631
37.836006 -7.029801 2.646705
37.324568 -22.473917 -1.557808
37.724458 -22.250994 -2.651633
36.419067 -21.758251 -1.302593
36.76506 -22.856497 -0.601621
35.593515 -21.978907 0.820196
36.339399 -22.85423 0.427343
37.324568 -22.473917 -1.557808
36.76506 -22.856497 -0.601621
32.700722 -25.475787 10.234546
32.202627 -25.509009 11.393746
32.843351 -26.55022 10.120035
32.919824 -25.456467 9.103298
32.2791 -24.415256 10.377009
32.700722 -25.475787 10.234546
33.533098 -25.38586 8.040644
32.919824 -25.456467 9.103298
33.901194 -25.36488 6.960601
32.866298 -24.374956 8.165718
33.533098 -25.38586 8.040644
34.570593 -25.280945 5.954459
33.901194 -25.36488 6.960601
35.061146 -25.269817 4.92163
33.724947 -24.342849 6.052846
34.570593 -25.280945 5.954459
35.739221 -25.12715 3.907581
35.061146 -25.269817 4.92163
36.135566 6.634164 -13.162008
36.736999 5.467301 -12.993633
36.135566 6.634164 -13.162008
36.315023 5.488034 -14.232567
35.851027 5.644098 -15.565838
36.549031 4.958826 -15.789811
36.699171 4.103332 -17.178818
35.851027 5.644098 -15.565838
35.103043 6.473564 -15.64962
38.451029 -17.610325 -7.411972
37.344944 -17.658288 -6.379842
38.350996 -18.437114 -6.678476
38.561443 -16.765786 -8.148571
38.451029 -17.610325 -7.411972
3 0 29 27
3 1 32 30
3 115 35 116
3 117 38 118
3 119 118 36
3 117 118 119
3 121 120 38
3 4 122 124
3 122 40 123
3 122 123 124
3 4 42 40
3 2 45 43
3 5 48 46
3 6 125 127
3 127 126 49
3 125 126 127
3 6 128 129
3 3 53 51
3 130 56 131
3 132 131 54
3 130 131 132
3 134 133 56
3 136 135 57
3 7 61 59
3 9 62 28
3 9 63 62
3 137 64 138
3 10 67 65
3 12 68 31
3 12 69 68
3 140 139 70
3 13 74 72
3 141 75 142
3 143 142 33
3 141 142 143
3 145 144 75
3 16 76 34
3 16 77 76
3 8 78 60
3 17 79 37
3 17 80 79
3 17 146 148
3 148 147 80
3 146 147 148
3 149 83 150
3 151 150 81
3 149 150 151
3 19 84 39
3 19 85 84
3 152 86 153
3 155 154 86
3 20 156 157
3 20 158 159
3 20 160 162
3 160 87 161
3 160 161 162
3 21 88 41
3 21 163 165
3 165 164 88
3 163 164 165
3 15 166 168
3 166 89 167
3 166 167 168
3 22 90 44
3 22 91 90
3 169 92 170
3 171 93 172
3 173 94 174
3 175 174 93
3 173 174 175
3 177 176 94
3 178 97 179
3 180 179 95
3 178 179 180
3 181 98 182
3 183 99 184
3 185 184 98
3 183 184 185
3 186 100 187
3 188 101 189
3 190 189 100
3 188 189 190
3 191 102 192
3 194 193 102
3 195 103 196
3 197 95 198
3 199 198 103
3 197 198 199
3 23 105 96
3 25 106 47
3 25 107 106
3 11 108 66
3 200 109 201
3 202 201 50
3 200 201 202
3 204 203 109
3 18 110 82
3 26 111 52
3 26 112 111
3 206 205 71
3 14 207 209
3 209 208 73
3 207 208 209
3 211 210 55
3 24 113 104
3 212 114 213
3 214 213 58
3 212 213 214
3 216 215 114
3 27 28 7
3 29 28 27
3 29 9 28
3 30 31 10
3 32 31 30
3 32 12 31
3 217 33 218
3 219 218 13
3 217 218 219
3 220 33 221
3 223 222 33
3 224 34 225
3 35 226 228
3 226 34 227
3 226 227 228
3 35 16 34
3 36 37 8
3 38 37 36
3 38 17 37
3 38 229 231
3 231 230 17
3 229 230 231
3 233 232 38
3 234 39 235
3 236 39 237
3 238 19 239
3 240 239 39
3 238 239 240
3 40 241 242
3 40 243 245
3 243 20 244
3 243 244 245
3 40 41 20
3 42 41 40
3 42 21 41
3 43 44 15
3 45 44 43
3 45 22 44
3 46 47 23
3 48 47 46
3 48 25 47
3 49 50 11
3 246 50 247
3 248 247 49
3 246 247 248
3 250 249 50
3 51 52 18
3 53 52 51
3 53 26 52
3 54 55 14
3 56 55 54
3 56 251 253
3 253 252 55
3 251 252 253
3 56 254 255
3 257 256 56
3 57 58 24
3 258 58 259
3 260 259 57
3 258 259 260
3 262 261 58
3 59 263 265
3 263 60 264
3 263 264 265
3 61 60 59
3 61 8 60
3 28 61 7
3 62 61 28
3 62 8 61
3 62 36 8
3 63 36 62
3 63 266 268
3 268 267 36
3 266 267 268
3 64 269 270
3 64 271 273
3 271 4 272
3 271 272 273
3 275 274 2
3 65 66 5
3 67 66 65
3 67 11 66
3 31 67 10
3 68 67 31
3 68 11 67
3 68 49 11
3 69 49 68
3 69 6 49
3 70 71 3
3 276 71 277
3 278 277 70
3 276 277 278
3 280 279 71
3 72 281 283
3 281 73 282
3 281 282 283
3 74 73 72
3 74 14 73
3 33 74 13
3 75 74 33
3 75 14 74
3 75 54 14
3 284 54 285
3 286 285 75
3 284 285 286
3 288 287 54
3 289 15 290
3 34 291 292
3 76 293 295
3 295 294 34
3 293 294 295
3 76 296 298
3 296 15 297
3 296 297 298
3 76 43 15
3 77 43 76
3 77 2 43
3 60 299 301
3 299 35 300
3 299 300 301
3 78 35 60
3 78 16 35
3 37 78 8
3 79 78 37
3 79 16 78
3 79 77 16
3 80 77 79
3 80 2 77
3 80 302 304
3 304 303 2
3 302 303 304
3 306 305 80
3 308 307 17
3 81 82 1
3 83 82 81
3 83 18 82
3 39 309 311
3 309 83 310
3 309 310 311
3 84 83 39
3 84 18 83
3 84 51 18
3 85 51 84
3 85 3 51
3 312 19 313
3 314 19 315
3 316 85 317
3 318 317 19
3 316 317 318
3 86 319 321
3 319 85 320
3 319 320 321
3 86 3 85
3 86 70 3
3 322 70 323
3 324 323 86
3 322 323 324
3 326 325 70
3 327 72 328
3 87 329 331
3 329 72 330
3 329 330 331
3 87 13 72
3 41 87 20
3 88 87 41
3 88 13 87
3 88 332 334
3 334 333 13
3 332 333 334
3 336 335 88
3 89 337 338
3 89 339 340
3 44 89 15
3 90 89 44
3 90 341 343
3 343 342 89
3 341 342 343
3 90 344 346
3 344 64 345
3 344 345 346
3 91 64 90
3 91 4 64
3 347 45 348
3 349 348 2
3 347 348 349
3 92 350 352
3 350 45 351
3 350 351 352
3 92 22 45
3 353 92 354
3 93 355 357
3 355 92 356
3 355 356 357
3 93 22 92
3 93 91 22
3 94 91 93
3 94 4 91
3 94 42 4
3 358 42 359
3 360 359 94
3 358 359 360
3 361 21 362
3 363 362 42
3 361 362 363
3 364 21 365
3 367 366 21
3 95 96 0
3 97 96 95
3 97 23 96
3 368 97 369
3 98 370 372
3 370 97 371
3 370 371 372
3 98 23 97
3 98 46 23
3 99 46 98
3 99 5 46
3 373 99 374
3 100 375 377
3 375 99 376
3 375 376 377
3 100 5 99
3 100 65 5
3 101 65 100
3 101 10 65
3 378 101 379
3 102 380 382
3 380 101 381
3 380 381 382
3 102 10 101
3 102 30 10
3 383 30 384
3 385 384 102
3 383 384 385
3 386 1 387
3 388 387 30
3 386 387 388
3 389 1 390
3 391 81 392
3 393 392 1
3 391 392 393
3 394 81 395
3 397 396 81
3 398 59 399
3 400 59 401
3 402 7 403
3 404 403 59
3 402 403 404
3 103 405 406
3 103 407 409
3 407 7 408
3 407 408 409
3 103 27 7
3 95 27 103
3 95 0 27
3 96 104 0
3 105 104 96
3 105 24 104
3 47 105 23
3 106 105 47
3 106 24 105
3 106 57 24
3 107 57 106
3 107 410 412
3 412 411 57
3 410 411 412
3 66 48 5
3 108 48 66
3 108 25 48
3 50 108 11
3 109 108 50
3 109 25 108
3 109 107 25
3 413 107 414
3 415 414 109
3 413 414 415
3 417 416 107
3 82 32 1
3 110 32 82
3 110 12 32
3 52 110 18
3 111 110 52
3 111 12 110
3 111 69 12
3 112 69 111
3 112 6 69
3 71 53 3
3 418 53 419
3 420 419 71
3 418 419 420
3 421 26 422
3 423 422 53
3 421 422 423
3 424 26 425
3 426 112 427
3 428 427 26
3 426 427 428
3 429 112 430
3 431 6 432
3 433 432 112
3 431 432 433
3 435 434 6
3 73 436 437
3 439 438 73
3 55 440 442
3 442 441 14
3 440 441 442
3 444 443 55
3 104 29 0
3 113 29 104
3 113 9 29
3 58 113 24
3 114 113 58
3 114 9 113
3 114 63 9
3 445 63 446
3 447 446 114
3 445 446 447
3 449 448 63
