ply
format ascii 1.0
element vertex 230
property float x
property float y
property float z
element face 209
property list uchar int vertex_index
end_header
-20.206055 -100.153297 -7.890028
-21.773365 -97.961113 13.487486
-5.191338 -98.693863 8.479318
-12.110125 -102.125259 3.025029
-15.872023 -100.796768 -7.896215
-7.577096 -101.592773 6.105723
-11.178501 -101.085777 9.220084
-15.460587 -99.250648 14.130468
-8.629576 -99.726875 3.535793
-10.257278 -101.978554 -1.279115
-15.189722 -102.170647 -2.720661
-15.546591 -99.325813 8.232064
-17.785412 -100.839005 2.149882
-21.488071 -99.443649 -1.919596
-17.849569 -100.669853 -8.007933
-19.487055 -99.581261 -12.090699
-9.75388 -99.80455 9.410357
-11.636144 -99.579544 11.838007
-4.857694 -96.461411 11.039495
-6.094728 -99.395615 6.343492
-9.421454 -102.210571 4.478144
-8.347918 -101.939835 2.392929
-10.627803 -102.705933 0.857858
-12.513798 -102.574913 -2.359211
-13.39533 -102.642929 0.426405
-18.54619 -98.725052 13.864184
-15.588407 -99.805824 11.409885
-18.481771 -98.680786 4.202734
-20.475391 -99.687668 2.105392
-19.830067 -100.525993 0.13774
-22.650665 -99.628021 0.124123
-6.094972 -100.192963 7.60213
-7.417868 -99.837608 8.099943
-9.130974 -101.442444 7.454226
-11.151719 -101.612785 6.141867
-24.489069 -97.013 12.322112
-22.138268 -99.397003 -7.863866
-13.234842 -98.819893 14.430614
-17.490032 -97.189827 15.263989
-7.092618 -100.944023 4.726452
-9.045177 -100.768661 0.824584
-13.170926 -101.745316 -4.475992
-15.512258 -102.330933 -5.392749
-18.043009 -101.63147 -4.749676
-13.344894 -100.346626 11.720908
-13.311386 -100.718674 8.628774
-13.479344 -100.741417 4.920281
-18.44236 -98.681564 7.533367
-16.296778 -99.74379 4.334676
-14.984088 -101.780098 2.415828
-16.510029 -101.442871 -0.013611
-18.398029 -100.790527 -2.188771
-20.709503 -100.204216 -4.468062
-11.85936 -98.508682 12.87577
-11.449772 -98.367096 11.281985
-4.764867 -97.496448 8.972124
-4.598045 -96.380223 10.252213
-5.024516 -97.577637 9.759407
-5.614626 -98.254784 7.86862
-4.764867 -97.496448 8.972124
-5.643033 -99.044739 7.411405
-6.066321 -98.60566 6.800707
-5.614626 -98.254784 7.86862
-20.223236 -98.542892 12.221495
-18.609648 -98.924862 12.409844
-20.159777 -98.343083 13.675835
-21.146482 -98.538849 1.719847
-20.265448 -98.508156 2.868212
-22.234119 -98.509026 0.729212
-21.563028 -99.657845 1.114758
-21.146482 -98.538849 1.719847
-23.095949 -98.350898 -0.106433
-22.234119 -98.509026 0.729212
-16.271125 -99.941708 -9.230684
-15.551695 -100.249981 -6.882589
-8.033874 -98.509388 8.48706
-6.899125 -98.996273 8.564686
-24.043257 -96.792946 10.929562
-25.351252 -96.631004 11.632884
-22.458892 -98.358956 -9.19236
-23.327067 -98.895355 -7.375424
-18.285487 -96.036564 15.545398
-16.922771 -96.174755 15.985646
-19.031733 -96.80656 15.302231
-18.285487 -96.036564 15.545398
-10.225378 -98.737042 3.025157
-8.545873 -98.953384 4.447106
-10.191081 -99.289314 1.751258
-10.225378 -98.737042 3.025157
-11.048952 -101.210316 -1.947618
-10.442902 -100.605369 -0.895769
-9.651228 -101.373607 -0.227266
-11.714102 -101.861935 -2.877553
-12.505776 -101.093697 -3.546056
-11.048952 -101.210316 -1.947618
-19.471811 -98.069046 7.325952
-20.097715 -98.455833 8.788077
-22.341282 -99.045345 -3.130391
-21.951998 -99.425629 -4.404623
-21.098787 -99.823932 -3.193829
-17.623416 -100.228584 -9.859527
-16.634643 -100.292042 -9.803669
-16.860796 -100.733311 -7.952074
-18.442159 -99.684288 -11.900911
-17.623416 -100.228584 -9.859527
-18.668312 -100.125557 -10.049316
-19.076977 -99.182198 -13.924367
-18.442159 -99.684288 -11.900911
-10.50864 -98.479599 10.06816
-9.201881 -98.492859 9.142266
-10.695012 -99.692047 10.624182
-10.50864 -98.479599 10.06816
-11.449772 -98.367096 11.281985
-4.330218 -95.067597 11.8852
-5.00056 -94.915516 12.578297
-4.330218 -95.067597 11.8852
-4.598045 -96.380223 10.252213
-7.278449 -98.787754 5.850955
-6.066321 -98.60566 6.800707
-7.362152 -99.561245 4.939642
-8.545873 -98.953384 4.447106
-7.278449 -98.787754 5.850955
-17.130757 -99.465248 11.182694
-17.067298 -99.265438 12.637034
-18.609648 -98.924862 12.409844
-17.109849 -99.225243 9.593784
-15.567499 -99.565819 9.820974
-17.130757 -99.465248 11.182694
-19.268637 -98.004715 3.916883
-19.491516 -98.068657 5.660635
-19.478581 -99.184227 3.154063
-19.268637 -98.004715 3.916883
-20.265448 -98.508156 2.868212
-23.1751 -98.997631 -0.829406
-22.593803 -98.905445 -1.851266
-22.069368 -99.535835 -0.897737
-23.1751 -98.997631 -0.829406
-23.095949 -98.350898 -0.106433
-16.271125 -99.941708 -9.230684
-16.634643 -100.292042 -9.803669
-5.777436 -95.781284 11.068043
-5.00056 -94.915516 12.578297
-5.619038 -97.308175 10.034462
-5.777436 -95.781284 11.068043
-5.785859 -98.4244 8.754373
-5.024516 -97.577637 9.759407
-5.619038 -97.308175 10.034462
-6.237677 -99.173951 8.315779
-5.643155 -99.443413 8.040724
-5.785859 -98.4244 8.754373
-6.75642 -100.015286 7.851036
-6.237677 -99.173951 8.315779
-6.899125 -98.996273 8.564686
-8.585874 -99.821079 8.75515
-8.033874 -98.509388 8.48706
-9.201881 -98.492859 9.142266
-23.121069 -97.621552 11.18245
-21.763217 -98.095608 11.765137
-23.131217 -97.487056 12.904799
-23.121069 -97.621552 11.18245
-24.043257 -96.792946 10.929562
-21.745584 -99.0704 -9.818528
-20.779477 -99.448547 -9.831608
-21.172162 -99.77515 -7.876947
-21.745584 -99.0704 -9.818528
-22.458892 -98.358956 -9.19236
-12.976348 -98.075863 15.710024
-12.658708 -98.128856 14.172073
-14.109685 -98.057186 15.23253
-12.976348 -98.075863 15.710024
-15.222558 -98.272563 15.082457
-14.347715 -99.03527 14.280541
-14.109685 -98.057186 15.23253
-16.23728 -97.242153 15.649217
-16.922771 -96.174755 15.985646
-16.47531 -98.220237 14.697229
-15.222558 -98.272563 15.082457
-16.23728 -97.242153 15.649217
-19.559812 -97.574173 14.602328
-18.018111 -97.957439 14.564087
-19.031733 -96.80656 15.302231
-21.173399 -97.192204 14.413979
-20.159777 -98.343083 13.675835
-19.559812 -97.574173 14.602328
-22.480462 -96.678078 13.921822
-21.173399 -97.192204 14.413979
-23.838314 -96.204021 13.339135
-23.131217 -97.487056 12.904799
-22.480462 -96.678078 13.921822
-24.961113 -95.813496 12.729195
-23.838314 -96.204021 13.339135
-25.351252 -96.631004 11.632884
-24.961113 -95.813496 12.729195
-20.419978 -99.162529 -11.931944
-19.846555 -99.867279 -9.990364
-20.779477 -99.448547 -9.831608
-20.306953 -98.979526 -13.842806
-20.419978 -99.162529 -11.931944
-19.076977 -99.182198 -13.924367
-20.306953 -98.979526 -13.842806
-10.398882 -99.810207 0.395653
-10.191081 -99.289314 1.751258
-8.837377 -100.247768 2.180188
-10.398882 -99.810207 0.395653
-10.442902 -100.605369 -0.895769
-14.201147 -100.724255 -5.172477
-12.505776 -101.093697 -3.546056
-14.521475 -101.271042 -6.186103
-15.551695 -100.249981 -6.882589
-14.201147 -100.724255 -5.172477
-12.435493 -99.199718 13.13431
-11.85936 -98.508682 12.87577
-12.658708 -98.128856 14.172073
-20.223236 -98.542892 12.221495
-21.763217 -98.095608 11.765137
-18.557734 -98.903118 9.244435
-20.097715 -98.455833 8.788077
-16.994476 -99.003688 7.882715
-17.109849 -99.225243 9.593784
-18.557734 -98.903118 9.244435
-18.462066 -98.681175 5.868051
-19.471811 -98.069046 7.325952
-19.491516 -98.068657 5.660635
-22.66638 -99.022022 -6.102526
-21.423886 -99.80061 -6.165964
-21.951998 -99.425629 -4.404623
-23.327067 -98.895355 -7.375424
-22.66638 -99.022022 -6.102526
-22.341282 -99.045345 -3.130391
-22.593803 -98.905445 -1.851266
3 0 15 14
3 53 17 54
3 2 55 57
3 57 56 18
3 55 56 57
3 2 58 59
3 2 60 62
3 60 19 61
3 60 61 62
3 3 22 20
3 3 24 22
3 1 63 65
3 65 64 25
3 63 64 65
3 66 28 67
3 68 30 69
3 70 69 28
3 68 69 70
3 72 71 30
3 4 73 74
3 75 32 76
3 6 33 16
3 6 34 33
3 78 77 35
3 80 79 36
3 81 38 82
3 84 83 38
3 8 85 86
3 8 87 88
3 5 39 31
3 9 40 21
3 9 89 91
3 91 90 40
3 89 90 91
3 9 92 94
3 92 41 93
3 92 93 94
3 10 42 23
3 10 43 42
3 7 44 37
3 11 45 26
3 11 46 45
3 95 47 96
3 12 48 27
3 12 49 48
3 12 50 49
3 13 51 29
3 13 52 51
3 13 97 99
3 99 98 52
3 97 98 99
3 14 100 102
3 102 101 4
3 100 101 102
3 15 103 105
3 105 104 14
3 103 104 105
3 15 106 107
3 108 16 109
3 17 110 112
3 110 16 111
3 110 111 112
3 17 6 16
3 18 113 114
3 116 115 18
3 19 117 118
3 19 119 121
3 119 8 120
3 119 120 121
3 20 21 5
3 22 21 20
3 22 9 21
3 22 23 9
3 24 23 22
3 24 10 23
3 25 26 7
3 122 26 123
3 124 123 25
3 122 123 124
3 125 11 126
3 127 126 26
3 125 126 127
3 128 27 129
3 28 130 132
3 130 27 131
3 130 131 132
3 28 12 27
3 28 29 12
3 30 29 28
3 30 13 29
3 30 133 135
3 135 134 13
3 133 134 135
3 137 136 30
3 139 138 4
3 140 18 141
3 142 18 143
3 144 2 145
3 146 145 18
3 144 145 146
3 147 31 148
3 149 148 2
3 147 148 149
3 32 150 152
3 150 31 151
3 150 151 152
3 32 5 31
3 16 153 155
3 153 32 154
3 153 154 155
3 33 32 16
3 33 5 32
3 33 20 5
3 34 20 33
3 34 3 20
3 35 156 158
3 158 157 1
3 156 157 158
3 160 159 35
3 36 161 163
3 163 162 0
3 161 162 163
3 165 164 36
3 166 37 167
3 168 37 169
3 170 7 171
3 172 171 37
3 170 171 172
3 38 173 174
3 38 175 177
3 175 7 176
3 175 176 177
3 38 25 7
3 178 25 179
3 180 179 38
3 178 179 180
3 181 1 182
3 183 182 25
3 181 182 183
3 184 1 185
3 186 35 187
3 188 187 1
3 186 187 188
3 189 35 190
3 192 191 35
3 193 15 194
3 195 194 0
3 193 194 195
3 196 15 197
3 199 198 15
3 31 19 2
3 39 19 31
3 39 8 19
3 21 39 5
3 40 39 21
3 40 8 39
3 40 200 202
3 202 201 8
3 200 201 202
3 204 203 40
3 41 205 206
3 41 207 209
3 207 4 208
3 207 208 209
3 23 41 9
3 42 41 23
3 42 4 41
3 42 14 4
3 43 14 42
3 43 0 14
3 37 210 212
3 210 17 211
3 210 211 212
3 44 17 37
3 44 6 17
3 26 44 7
3 45 44 26
3 45 6 44
3 45 34 6
3 46 34 45
3 46 3 34
3 214 213 1
3 47 215 216
3 47 217 219
3 217 11 218
3 217 218 219
3 27 220 222
3 220 47 221
3 220 221 222
3 48 47 27
3 48 11 47
3 48 46 11
3 49 46 48
3 49 3 46
3 49 24 3
3 50 24 49
3 50 10 24
3 29 50 12
3 51 50 29
3 51 10 50
3 51 43 10
3 52 43 51
3 52 0 43
3 52 36 0
3 223 36 224
3 225 224 52
3 223 224 225
3 227 226 36
3 229 228 13
