ply
format ascii 1.0
element vertex 361
property float x
property float y
property float z
element face 378
property list uchar int vertex_index
end_header
-14.369802 27.23912 -21.472563
-19.346409 24.22072 -17.067408
-16.508059 13.737849 -21.651657
-13.17615 14.621597 -14.084213
-17.000526 35.417706 -20.691719
-12.557821 48.361355 -21.318405
-9.285019 39.159492 -20.429098
-15.96476 25.586859 -23.080673
-17.868999 19.446407 -21.499983
-14.650465 20.727596 -22.403212
-19.955631 34.294811 -14.594104
-21.535889 39.165852 -16.706238
-9.185536 55.495739 -20.390131
-8.028776 50.593918 -22.054859
-10.785097 44.162186 -22.272099
-5.405385 43.787594 -23.465611
-12.030127 28.26413 -18.157913
-14.687711 22.503321 -16.610304
-21.099422 28.195364 -13.081072
-19.369358 29.992447 -19.036968
-14.435628 31.306599 -24.235538
-13.754977 58.920494 -16.007275
-15.54921 52.773468 -15.541176
-17.434349 45.331749 -14.712545
-14.463857 41.57671 -21.705029
-12.365213 37.470898 -24.078054
-12.886709 33.886383 -19.763649
-8.217872 33.005699 -21.821014
-16.49789 16.138527 -16.568111
-18.369343 8.204206 -16.114113
-14.368179 26.186825 -23.263058
-15.051844 23.21184 -23.253025
-14.474861 24.056162 -22.071009
-6.000824 53.5919 -22.803797
-5.077495 49.96323 -22.826691
-6.726602 47.180195 -21.639841
-16.660154 16.189087 -22.709349
-18.353994 15.969867 -21.584745
-18.117107 12.933905 -22.070843
-18.95575 11.821691 -19.223597
-11.433612 24.89646 -17.309412
-19.869913 34.861046 -18.211142
-19.576971 32.165596 -16.677502
-18.752161 32.829433 -20.326069
-16.999073 30.607464 -22.480042
-15.682836 33.633904 -23.167812
-11.860491 56.953911 -14.127879
-10.036152 58.893921 -17.178432
-11.062231 51.920319 -20.912712
-11.864811 54.177574 -17.687065
-13.4811 50.500591 -17.619087
-16.664383 49.225273 -14.889486
-14.645239 46.79686 -17.719511
-15.685367 43.323227 -17.94076
-13.410153 44.887169 -21.656641
-10.451361 42.013863 -20.250284
-11.578547 40.808384 -23.159225
-12.012066 39.085705 -20.691828
-12.978848 35.93729 -21.79302
-11.195131 36.670181 -19.770824
-10.594162 33.804394 -19.717688
-8.579344 36.212959 -21.246922
-14.105719 19.02721 -14.541461
-15.572232 19.362066 -16.677389
-15.215734 15.560491 -14.547999
-18.441717 25.01832 -20.645239
-18.639439 21.969601 -19.096144
-17.143429 22.74633 -22.439989
-15.884906 19.981304 -23.016573
-15.225866 17.189556 -22.225815
-21.358021 35.894234 -12.280214
-21.027742 36.647682 -15.719574
-18.886032 37.230148 -18.131699
-7.794123 58.840218 -19.600534
-6.579442 56.421124 -21.599924
-8.779973 53.230797 -22.566858
-10.234064 49.658272 -23.283844
-11.105428 46.176682 -23.465977
-9.725382 47.484543 -21.813557
-8.577752 44.693916 -20.568773
-7.286761 41.508636 -21.678591
-6.587344 38.444046 -23.120794
-14.379852 10.744613 -15.538881
-19.30938 18.660152 -18.873362
-14.00249 28.254681 -18.87154
-14.758438 25.109253 -18.865982
-13.468992 25.435394 -17.209372
-12.951184 22.129932 -15.575331
-20.283894 26.207561 -14.901059
-19.973932 31.293964 -13.319301
-19.392517 29.134338 -15.331815
-19.175732 27.055532 -17.845186
-18.070866 27.820801 -21.395071
-15.087862 28.275793 -23.755962
-13.773053 29.124756 -23.617733
-13.781866 55.853161 -11.026845
-11.382395 57.893555 -18.254211
-14.897611 56.680687 -16.153927
-20.262066 47.965828 -13.73615
-21.431433 44.398193 -14.214595
-19.208012 42.051952 -15.641052
-17.125504 39.887245 -17.911221
-15.589121 38.359673 -21.487301
-11.975132 42.843697 -24.23291
-12.946884 39.404751 -24.308811
-14.16687 36.659843 -24.139994
-13.369519 34.482777 -24.344868
-13.504476 32.545879 -22.867496
-14.058935 30.698114 -20.504284
-12.478186 31.177124 -18.909216
-15.249494 21.952353 -19.299845
-15.292139 18.63925 -19.867493
-16.289495 15.536192 -19.527988
-16.172596 11.764131 -15.358197
-17.596535 12.667076 -16.263872
-18.214994 12.538493 -17.94688
-19.650517 8.97693 -16.353361
-4.413462 49.118044 -22.684215
-4.628178 51.035764 -22.43799
-4.678529 48.14143 -23.440871
-4.413462 49.118044 -22.684215
-19.960608 22.726439 -16.927067
-20.456449 23.868499 -16.268238
-8.140916 59.316426 -17.289747
-9.130162 58.728205 -15.632699
-22.447359 36.604544 -11.559317
-22.317562 35.322819 -10.995449
-23.4069 36.033129 -10.274551
-21.281816 37.906767 -16.212906
-21.870725 37.418142 -14.705001
-22.124799 38.677227 -15.198333
-5.752512 55.966742 -21.475185
-5.982287 57.382448 -20.543407
-5.130147 42.266703 -24.31372
-6.070835 41.127223 -23.42021
-6.346073 42.648115 -22.572101
-19.51611 16.11914 -20.714906
-19.11245 14.738264 -21.335993
-12.037591 21.821589 -15.855158
-12.192398 23.513196 -16.442372
-11.278806 23.204853 -16.722198
-12.605021 20.332141 -14.924705
-12.037591 21.821589 -15.855158
-22.063318 26.956317 -13.590585
-22.640679 28.112867 -13.096711
-20.691658 27.201462 -13.991066
-21.655554 25.962415 -14.500578
-22.063318 26.956317 -13.590585
-19.964782 32.794387 -13.956702
-20.547519 32.237146 -12.314328
-20.538368 33.73757 -12.951729
-12.241036 56.985016 -10.909954
-13.621272 57.232205 -9.417236
-14.805727 58.597637 -14.833036
-13.858484 57.614345 -13.893338
-12.807734 57.937202 -15.067577
-15.568561 58.753795 -15.542954
-14.805727 58.597637 -14.833036
-16.870092 53.920252 -15.178604
-16.544292 55.873862 -15.484979
-15.22341 54.727078 -15.847551
-17.366899 52.130844 -14.745473
-16.870092 53.920252 -15.178604
-9.177552 31.878248 -20.747673
-10.365697 32.277596 -19.69601
-9.406017 33.405046 -20.769351
-8.118036 31.375993 -21.86339
-9.177552 31.878248 -20.747673
-6.355602 36.846281 -23.723343
-5.589422 38.060199 -24.834782
-15.867845 9.217403 -15.463207
-15.276224 11.254372 -15.448539
-14.971473 8.707643 -15.553548
-17.982939 10.435641 -16.188992
-17.290643 10.068442 -16.123377
-17.677047 7.837006 -16.048497
-22.398192 40.092173 -15.649277
-22.124799 38.677227 -15.198333
-5.089843 52.850099 -22.426544
-5.463203 54.55213 -22.077121
-5.53916 51.777565 -22.815244
-5.089843 52.850099 -22.426544
-4.628178 51.035764 -22.43799
-5.503082 46.749912 -22.847445
-5.902048 48.571713 -22.233266
-4.678529 48.14143 -23.440871
-4.842474 45.053612 -23.760331
-6.065993 45.483894 -22.552726
-5.503082 46.749912 -22.847445
-4.632421 43.444076 -24.263851
-4.842474 45.053612 -23.760331
-18.994006 13.220284 -21.579042
-19.11245 14.738264 -21.335993
-18.235551 14.451886 -21.827794
-19.172159 12.242673 -20.824714
-18.994006 13.220284 -21.579042
-19.59148 11.686566 -19.401091
-19.172159 12.242673 -20.824714
-18.536428 12.377798 -20.64722
-19.944286 10.648174 -18.011905
-19.59148 11.686566 -19.401091
-10.734871 26.214818 -18.265294
-11.73187 26.580295 -17.733663
-11.033129 27.898653 -18.689545
-10.539586 24.520282 -18.008344
-10.734871 26.214818 -18.265294
-11.278806 23.204853 -16.722198
-10.539586 24.520282 -18.008344
-21.68049 29.281479 -12.346973
-22.640679 28.112867 -13.096711
-10.042331 57.7582 -14.107423
-11.280348 57.535391 -12.46047
-10.948321 57.923916 -15.653156
-10.042331 57.7582 -14.107423
-9.130162 58.728205 -15.632699
-18.55283 6.212662 -15.028731
-17.677047 7.837006 -16.048497
-19.23122 6.554587 -15.125085
-18.55283 6.212662 -15.028731
-21.239563 34.537281 -11.794785
-22.317562 35.322819 -10.995449
-20.656826 35.094522 -13.437159
-20.538368 33.73757 -12.951729
-21.239563 34.537281 -11.794785
-22.035865 37.041418 -12.985321
-22.447359 36.604544 -11.559317
-21.192881 36.270958 -13.999894
-22.035865 37.041418 -12.985321
-21.870725 37.418142 -14.705001
-6.589627 58.591995 -19.543712
-7.019901 59.289574 -18.500798
-7.186782 57.630671 -20.600229
-6.589627 58.591995 -19.543712
-5.982287 57.382448 -20.543407
-6.290133 55.006512 -22.201861
-5.752512 55.966742 -21.475185
-5.463203 54.55213 -22.077121
-5.721127 39.594929 -24.141312
-6.937053 39.976341 -22.399693
-6.070835 41.127223 -23.42021
-5.589422 38.060199 -24.834782
-5.721127 39.594929 -24.141312
-5.130147 42.266703 -24.31372
-4.632421 43.444076 -24.263851
-13.474811 10.218263 -15.745455
-13.778001 12.683105 -14.811547
-12.87296 12.156755 -15.018121
-14.300718 8.249526 -15.196057
-13.474811 10.218263 -15.745455
-14.971473 8.707643 -15.553548
-14.300718 8.249526 -15.196057
-19.607122 21.60088 -17.941435
-19.960608 22.726439 -16.927067
-18.992924 23.09516 -18.081776
-19.942093 19.946155 -17.830044
-19.607122 21.60088 -17.941435
-18.97441 20.314877 -18.984753
-20.80536 18.7868 -18.790648
-19.942093 19.946155 -17.830044
-19.993803 17.464282 -19.359214
-18.831687 17.31501 -20.229053
-19.51611 16.11914 -20.714906
-20.80536 18.7868 -18.790648
-19.993803 17.464282 -19.359214
-13.182289 18.78078 -14.40777
-13.528451 20.578571 -15.058396
-12.605021 20.332141 -14.924705
-12.717505 16.577973 -14.179146
-13.640935 16.824403 -14.312837
-13.182289 18.78078 -14.40777
-12.357703 14.190703 -14.420001
-12.717505 16.577973 -14.179146
-12.87296 12.156755 -15.018121
-12.357703 14.190703 -14.420001
-20.925191 24.861919 -15.185064
-21.655554 25.962415 -14.500578
-19.815151 25.21414 -15.984234
-20.456449 23.868499 -16.268238
-20.925191 24.861919 -15.185064
-21.117745 30.830779 -12.466088
-20.547519 32.237146 -12.314328
-20.536677 29.744664 -13.200187
-21.68049 29.281479 -12.346973
-21.117745 30.830779 -12.466088
-14.884084 55.690389 -9.510288
-14.72349 57.069433 -7.900678
-13.621272 57.232205 -9.417236
-15.828202 56.048518 -11.124561
-14.884084 55.690389 -9.510288
-12.821179 56.403536 -12.577362
-12.241036 56.985016 -10.909954
-11.280348 57.535391 -12.46047
-14.819171 57.06397 -12.342821
-12.821179 56.403536 -12.577362
-13.858484 57.614345 -13.893338
-15.828202 56.048518 -11.124561
-14.819171 57.06397 -12.342821
-8.915138 58.867069 -18.389483
-8.140916 59.316426 -17.289747
-7.019901 59.289574 -18.500798
-16.139878 57.633892 -15.61628
-15.568561 58.753795 -15.542954
-14.326294 57.80059 -16.080601
-16.139878 57.633892 -15.61628
-16.544292 55.873862 -15.484979
-17.924486 50.356746 -14.419628
-17.366899 52.130844 -14.745473
-16.106797 50.99937 -15.215331
-19.723327 49.727024 -13.842961
-17.924486 50.356746 -14.419628
-18.463225 48.595551 -14.312818
-21.214811 48.974983 -12.67215
-19.723327 49.727024 -13.842961
-21.320151 47.080604 -12.351426
-21.214811 48.974983 -12.67215
-21.904834 45.296787 -12.590649
-21.320151 47.080604 -12.351426
-20.84675 46.182011 -13.975372
-22.229223 43.502058 -12.71446
-21.904834 45.296787 -12.590649
-22.345963 42.708343 -14.403455
-22.229223 43.502058 -12.71446
-21.234253 41.535223 -15.116684
-22.345963 42.708343 -14.403455
-20.319722 43.225072 -14.927823
-20.371951 40.608902 -16.173645
-22.398192 40.092173 -15.649277
-21.234253 41.535223 -15.116684
-11.307709 30.96396 -19.291774
-11.536174 32.490759 -19.313452
-10.365697 32.277596 -19.69601
-11.083679 29.507464 -18.916123
-12.254157 29.720627 -18.533565
-11.307709 30.96396 -19.291774
-11.033129 27.898653 -18.689545
-11.083679 29.507464 -18.916123
-7.351603 35.730738 -22.786406
-7.583344 37.328502 -22.183858
-6.355602 36.846281 -23.723343
-7.170866 34.127108 -23.073453
-8.398608 34.609329 -21.533968
-7.351603 35.730738 -22.786406
-7.076412 32.406829 -23.440331
-7.170866 34.127108 -23.073453
-8.118036 31.375993 -21.86339
-7.076412 32.406829 -23.440331
-16.578674 9.616969 -15.67054
-15.867845 9.217403 -15.463207
-16.884566 12.215604 -15.811034
-16.578674 9.616969 -15.67054
-17.290643 10.068442 -16.123377
-20.29167 9.225794 -16.576787
-19.944286 10.648174 -18.011905
-19.303134 10.39931 -17.788479
-19.871808 6.940949 -15.244709
-19.00993 8.590568 -16.233737
-19.23122 6.554587 -15.125085
-20.520448 7.373171 -15.3198
-19.871808 6.940949 -15.244709
-20.29167 9.225794 -16.576787
-20.520448 7.373171 -15.3198
3 0 32 30
3 117 34 118
3 120 119 34
3 1 121 122
3 2 38 36
3 2 39 38
3 4 43 41
3 4 45 43
3 123 47 124
3 5 50 48
3 5 52 50
3 5 54 52
3 6 57 55
3 6 59 57
3 6 61 59
3 3 64 62
3 7 67 65
3 9 68 31
3 9 69 68
3 125 70 126
3 125 126 127
3 11 128 130
3 128 71 129
3 128 129 130
3 11 72 71
3 131 74 132
3 13 75 33
3 13 76 75
3 13 78 76
3 15 79 35
3 15 80 79
3 15 133 135
3 135 134 80
3 133 134 135
3 8 83 66
3 137 136 37
3 16 86 84
3 138 87 139
3 140 139 40
3 138 139 140
3 142 141 87
3 18 143 144
3 18 145 147
3 145 88 146
3 145 146 147
3 10 148 150
3 148 89 149
3 148 149 150
3 19 90 42
3 19 91 90
3 19 92 91
3 20 93 44
3 20 94 93
3 151 95 152
3 21 153 155
3 155 154 46
3 153 154 155
3 21 156 157
3 12 96 73
3 22 97 49
3 22 158 160
3 160 159 97
3 158 159 160
3 22 161 162
3 23 98 51
3 23 99 98
3 23 100 99
3 24 101 53
3 24 102 101
3 14 103 77
3 25 104 56
3 25 105 104
3 25 106 105
3 26 107 58
3 26 108 107
3 26 109 108
3 27 163 165
3 165 164 60
3 163 164 165
3 27 166 167
3 169 168 81
3 17 110 85
3 28 111 63
3 28 112 111
3 170 113 171
3 172 171 82
3 170 171 172
3 29 173 175
3 173 114 174
3 173 174 175
3 29 115 114
3 29 116 115
3 30 31 7
3 32 31 30
3 32 9 31
3 176 11 177
3 178 33 179
3 34 180 182
3 180 33 181
3 180 181 182
3 34 13 33
3 34 35 13
3 183 35 184
3 185 184 34
3 183 184 185
3 186 15 187
3 188 187 35
3 186 187 188
3 190 189 15
3 36 37 8
3 38 37 36
3 38 191 193
3 193 192 37
3 191 192 193
3 38 194 195
3 39 196 198
3 198 197 38
3 196 197 198
3 39 199 200
3 201 40 202
3 203 202 16
3 201 202 203
3 204 40 205
3 207 206 40
3 208 18 209
3 41 42 10
3 43 42 41
3 43 19 42
3 43 44 19
3 45 44 43
3 45 20 44
3 210 46 211
3 47 212 214
3 212 46 213
3 212 213 214
3 47 21 46
3 48 49 12
3 50 49 48
3 50 22 49
3 50 51 22
3 52 51 50
3 52 23 51
3 52 53 23
3 54 53 52
3 54 24 53
3 55 56 14
3 57 56 55
3 57 25 56
3 57 58 25
3 59 58 57
3 59 26 58
3 59 60 26
3 61 60 59
3 61 27 60
3 62 63 17
3 64 63 62
3 64 28 63
3 215 29 216
3 218 217 29
3 65 66 1
3 67 66 65
3 67 8 66
3 31 67 7
3 68 67 31
3 68 8 67
3 68 36 8
3 69 36 68
3 69 2 36
3 70 219 220
3 70 221 223
3 221 10 222
3 221 222 223
3 224 70 225
3 71 226 228
3 226 70 227
3 226 227 228
3 71 10 70
3 71 41 10
3 72 41 71
3 72 4 41
3 229 73 230
3 74 231 233
3 231 73 232
3 231 232 233
3 74 12 73
3 33 234 236
3 234 74 235
3 234 235 236
3 75 74 33
3 75 12 74
3 75 48 12
3 76 48 75
3 76 5 48
3 76 77 5
3 78 77 76
3 78 14 77
3 35 78 13
3 79 78 35
3 79 14 78
3 79 55 14
3 80 55 79
3 80 6 55
3 80 81 6
3 237 81 238
3 239 238 80
3 237 238 239
3 241 240 81
3 243 242 15
3 244 82 245
3 246 245 3
3 244 245 246
3 247 82 248
3 250 249 82
3 66 251 253
3 253 252 1
3 251 252 253
3 83 254 256
3 256 255 66
3 254 255 256
3 83 257 258
3 37 83 8
3 259 83 260
3 261 260 37
3 259 260 261
3 263 262 83
3 84 85 0
3 86 85 84
3 86 17 85
3 40 86 16
3 87 86 40
3 87 17 86
3 87 62 17
3 264 62 265
3 266 265 87
3 264 265 266
3 267 3 268
3 269 268 62
3 267 268 269
3 270 3 271
3 273 272 3
3 88 274 275
3 88 276 278
3 276 1 277
3 276 277 278
3 89 279 280
3 89 281 283
3 281 18 282
3 281 282 283
3 42 89 10
3 90 89 42
3 90 18 89
3 90 88 18
3 91 88 90
3 91 1 88
3 91 65 1
3 92 65 91
3 92 7 65
3 44 92 19
3 93 92 44
3 93 7 92
3 93 30 7
3 94 30 93
3 94 0 30
3 95 284 286
3 284 285 286
3 95 287 288
3 46 289 291
3 289 95 290
3 289 290 291
3 292 95 293
3 294 293 46
3 292 293 294
3 296 295 95
3 73 297 299
3 297 47 298
3 297 298 299
3 96 47 73
3 96 21 47
3 49 96 12
3 97 96 49
3 97 21 96
3 97 300 302
3 302 301 21
3 300 301 302
3 304 303 97
3 51 305 307
3 307 306 22
3 305 306 307
3 98 308 310
3 310 309 51
3 308 309 310
3 98 311 312
3 98 313 314
3 99 315 317
3 317 316 98
3 315 316 317
3 99 318 319
3 99 320 321
3 100 322 324
3 324 323 99
3 322 323 324
3 100 325 327
3 325 11 326
3 325 326 327
3 53 100 23
3 101 100 53
3 101 11 100
3 101 72 11
3 102 72 101
3 102 4 72
3 77 54 5
3 103 54 77
3 103 24 54
3 56 103 14
3 104 103 56
3 104 24 103
3 104 102 24
3 105 102 104
3 105 4 102
3 105 45 4
3 106 45 105
3 106 20 45
3 58 106 25
3 107 106 58
3 107 20 106
3 107 94 20
3 108 94 107
3 108 0 94
3 108 84 0
3 109 84 108
3 109 16 84
3 60 109 26
3 328 109 329
3 330 329 60
3 328 329 330
3 331 16 332
3 333 332 109
3 331 332 333
3 335 334 16
3 81 61 6
3 336 61 337
3 338 337 81
3 336 337 338
3 339 27 340
3 341 340 61
3 339 340 341
3 342 27 343
3 345 344 27
3 85 32 0
3 110 32 85
3 110 9 32
3 63 110 17
3 111 110 63
3 111 9 110
3 111 69 9
3 112 69 111
3 112 2 69
3 82 64 3
3 113 64 82
3 113 28 64
3 346 113 347
3 114 348 350
3 348 113 349
3 348 349 350
3 114 28 113
3 114 112 28
3 115 112 114
3 115 2 112
3 115 39 2
3 116 39 115
3 116 351 353
3 353 352 39
3 351 352 353
3 354 116 355
3 356 355 29
3 354 355 356
3 357 116 358
3 360 359 116
