ply
format ascii 1.0
element vertex 493
property float x
property float y
property float z
element face 507
property list uchar int vertex_index
end_header
-26.444305 23.375177 -6.365135
-34.381817 4.471898 -15.267891
-36.810722 -5.485922 6.320035
-34.865906 13.343363 -3.471344
-36.78553 1.801648 -11.076767
-30.417679 14.512476 -8.384148
-34.209633 -8.042219 11.603786
-30.404583 10.956021 8.175913
-27.182104 26.239208 -0.125243
-36.934715 -4.373636 -0.121744
-31.701336 12.843508 1.615878
-25.057438 16.534872 -15.8004
-30.023426 4.519989 -14.180147
-31.609243 19.581524 -3.966733
-34.822395 15.054723 -6.423547
-27.763767 18.525629 -6.382677
-36.099998 3.60428 -13.531012
-35.76368 -6.611509 9.029647
-37.210438 -4.776818 3.397486
-28.6297 18.77709 8.60775
-30.894476 11.873193 4.825542
-29.160114 20.02914 5.247516
-30.33407 20.648195 2.261514
-27.420511 27.135447 3.592707
-25.447348 10.483641 -16.960682
-37.423225 4.105564 -4.00471
-36.342812 7.089031 -6.395957
-35.04895 9.247078 -8.952902
-32.854126 9.871896 -11.853478
-34.008614 -8.96401 14.659782
-33.599327 1.752753 7.011504
-30.803341 9.540387 11.007406
-26.868145 24.80456 -3.286459
-34.36805 2.462118 4.267208
-35.389198 2.859625 1.555159
-36.849705 3.751213 -1.151515
-33.301704 13.494565 -0.905748
-31.094376 20.259342 -0.970658
-26.785528 15.809687 -11.500068
-30.147959 11.254934 -13.68149
-27.585236 11.308327 -15.571968
-32.066845 4.930824 -14.944647
-28.172918 21.086002 -4.394076
-29.71052 18.998594 -4.957263
-26.770203 20.87882 -6.215044
-35.34481 4.222608 -14.572965
-36.239349 -6.13446 7.66053
-37.10215 -5.057897 4.938168
-28.745117 19.522381 6.928493
-27.939337 23.397095 6.562811
-28.046951 23.669071 4.808972
-35.297775 8.592668 -3.607187
-37.030167 5.721612 -5.168526
-35.414452 10.153711 -4.84393
-32.574879 14.711931 -7.150812
-35.02607 12.266691 -7.703411
-33.412388 12.382952 -8.732103
-33.938385 9.583264 -10.29333
-31.848038 12.343825 -10.209639
-32.054688 5.530819 10.453857
-33.829235 -8.584047 13.154577
-32.18071 6.790795 7.73715
-33.951458 2.263076 5.675557
-32.506992 7.135816 6.293675
-31.256702 12.177058 3.209529
-33.283146 7.693484 3.248222
-33.551567 7.960127 1.799433
-35.999027 3.16901 0.089537
-33.955269 8.25603 0.396518
-34.349354 8.364345 -1.016913
-32.345745 13.310491 0.23828
-28.426706 23.383429 1.32175
-30.779535 20.534369 0.633662
-28.564188 23.003479 -0.283455
-28.733829 22.519659 -1.771686
-27.021152 25.587351 -1.72529
-25.573898 16.249443 -13.46604
-28.451574 13.462453 -12.498219
-26.969467 13.743917 -13.728473
-27.75852 7.786582 -15.075337
-26.496296 10.926458 -16.373947
-28.851749 8.143651 -15.083035
-29.984182 8.281908 -14.872025
-31.041143 4.652317 -14.620044
-34.160576 17.125362 -3.458904
-35.545662 14.612967 -4.913159
-33.247887 17.563839 -5.079579
-31.323343 16.876949 -5.882339
-29.14187 16.425503 -7.172811
-36.634632 2.671155 -12.364515
-34.970325 -7.307487 10.290475
-37.114372 -4.616525 1.557486
-29.198528 14.946322 8.454523
-30.543921 11.479023 6.498592
-29.365585 15.511177 6.732741
-29.766876 16.045286 5.037679
-30.404215 16.610628 3.44329
-31.265442 17.107866 2.146174
-29.739511 20.427494 3.794633
-28.203136 23.739521 3.02303
-27.295053 26.754324 1.73544
-36.809265 0.754985 -4.675757
-36.87851 2.001478 -5.915911
-37.025204 3.382442 -7.156183
-36.724937 4.415608 -8.443945
-35.788666 11.523282 -6.33019
-35.805553 8.322611 -7.657725
-36.176338 5.472198 -9.616179
-35.422367 6.216498 -10.911054
-34.536572 6.755301 -12.19997
-33.546165 7.047961 -13.395567
-36.045341 -5.795458 16.586996
-34.92411 -4.443068 14.205063
-34.850571 -3.821271 12.898722
-34.868156 -3.320365 11.463022
-35.057476 -2.911947 9.858788
-35.418388 -2.429796 8.305456
-36.049526 -2.203202 7.081175
-33.336433 1.466554 8.454718
-32.061119 6.120267 9.137616
-30.447735 10.337905 9.662359
-29.387201 14.318192 10.027934
-26.684589 24.098291 -4.811621
-36.498623 -1.895558 5.66924
-37.111023 -1.513603 4.278684
-37.59063 -1.151135 2.752782
-32.922585 7.402808 4.835887
-34.922405 2.553436 2.926897
-38.019726 -0.879445 1.209986
-38.116116 -0.473007 -0.322106
-37.774437 0.022357 -1.719148
-37.394722 0.573228 -3.174221
-37.27211 4.038823 -2.464278
-34.90081 8.442143 -2.316904
-34.232117 13.552118 -2.1317
-32.209 17.448647 0.928214
-33.204617 17.551172 -0.461734
-33.794594 17.451574 -1.899302
-31.45463 20.091011 -2.490151
-28.597759 21.906626 -3.145816
-26.344929 19.586624 -8.611441
-27.147406 17.41362 -8.9923
-25.885529 18.232632 -11.136911
-28.459126 15.281065 -9.817978
-30.023432 13.071123 -11.273462
-31.551291 10.668279 -12.822418
-32.35421 7.891 -13.939871
-25.034601 12.809187 -19.158133
-25.127214 13.573886 -17.374784
-25.797018 13.778433 -15.338667
-28.868662 11.35272 -14.605962
-31.186829 8.326228 -14.443295
-33.217804 4.83752 -15.178785
-35.135147 3.662814 -16.523652
-35.616644 3.538169 -16.176189
-34.863314 4.347253 -14.920428
-34.581524 3.834144 -16.632631
-35.135147 3.662814 -16.523652
-36.704351 -7.884257 5.323831
-36.418664 -8.208526 5.994079
-36.525036 -5.810191 6.990282
-36.880184 -7.400005 4.661344
-36.704351 -7.884257 5.323831
-36.956436 -5.271909 5.629101
-37.025898 -7.185993 3.97041
-36.880184 -7.400005 4.661344
-28.106685 24.901541 7.045429
-28.060452 23.109716 7.509048
-27.825967 25.209882 6.090581
-28.106685 24.901541 7.045429
-37.101906 0.155819 -12.429712
-36.797077 1.3027 -10.539361
-33.996082 -10.294086 11.218055
-33.805884 -10.565001 11.99345
-34.019434 -8.313133 12.379181
-36.657291 -6.030138 -1.944775
-36.95181 -6.248007 -1.114726
-36.851328 -4.251387 -0.939633
-36.657291 -6.030138 -1.944775
-25.315668 16.392157 -14.63322
-25.726816 17.535966 -14.745197
-25.468586 17.67868 -15.912377
-31.129858 3.177077 -14.781099
-31.638717 3.24324 -15.001048
-30.532285 4.586153 -14.400095
-36.697486 2.204086 -14.849314
-36.964804 1.737523 -14.266065
-36.367315 3.137717 -12.947764
-35.427416 -9.187821 8.206418
-35.030738 -9.535809 8.836832
-35.367002 -6.959498 9.660061
-37.300002 -6.643828 1.522594
-37.183796 -6.819313 2.417883
-37.162405 -4.696671 2.477486
-37.251969 -6.563681 0.602594
-37.300002 -6.643828 1.522594
-37.018817 -4.347131 16.923994
-36.694723 -6.073058 16.949766
-35.051479 -2.95704 14.945994
-35.122732 -4.784244 14.830921
-34.081242 -2.049934 12.974169
-34.43253 -2.350361 13.689961
-34.090035 -1.799481 12.256319
-34.859364 -3.570818 12.180872
-34.081242 -2.049934 12.974169
-34.060518 -0.997324 9.87904
-34.011427 -1.299511 10.731534
-34.240974 -0.756249 9.102373
-35.237932 -2.670872 9.082122
-34.060518 -0.997324 9.87904
-33.199996 1.191926 9.177004
-34.37741 -0.481621 8.380087
-34.240974 -0.756249 9.102373
-29.448355 15.782224 10.828965
-29.681781 13.894789 10.716931
-29.110221 16.188859 10.129803
-29.448355 15.782224 10.828965
-33.765364 -10.870635 14.678705
-34.412316 -9.150484 15.30687
-26.174588 20.069128 -9.900399
-26.639237 21.149881 -9.955362
-26.575826 18.982626 -10.090829
-26.746167 18.500122 -8.80187
-26.174588 20.069128 -9.900399
-26.335528 17.021159 -11.31849
-25.665499 18.513208 -12.329845
-26.115499 17.301735 -12.511423
-25.240975 11.646414 -18.059407
-24.644194 12.481041 -19.595403
-24.850568 11.318269 -18.496677
-32.987147 3.914899 -16.142887
-33.562626 3.868246 -16.259956
-32.642325 4.884172 -15.061716
-36.031605 3.1276 -15.818608
-36.409199 2.818436 -15.297631
-35.722404 3.913444 -14.051989
-36.031605 3.1276 -15.818608
-35.616644 3.538169 -16.176189
-36.014219 -8.609452 6.751753
-35.776384 -8.847976 7.436312
-36.001514 -6.372984 8.345088
-36.014219 -8.609452 6.751753
-36.418664 -8.208526 5.994079
-37.129652 -6.959853 3.188224
-37.025898 -7.185993 3.97041
-37.156294 -4.917357 4.167827
-37.183796 -6.819313 2.417883
-37.129652 -6.959853 3.188224
-28.463342 21.172359 7.691889
-28.687409 19.149735 7.768121
-28.405634 20.799713 8.531518
-28.342227 21.459738 6.745652
-28.463342 21.172359 7.691889
-28.060452 23.109716 7.509048
-27.879774 25.34587 5.213661
-27.993144 23.533083 5.685892
-27.825967 25.209882 6.090581
-27.566554 27.079058 4.605529
-27.733731 25.402259 4.200839
-27.879774 25.34587 5.213661
-32.14951 5.131279 11.046705
-32.559124 3.224059 10.176574
-31.732557 7.111897 11.248565
-32.14951 5.131279 11.046705
-31.106884 9.116681 11.525339
-31.429015 7.535603 10.730631
-31.732557 7.111897 11.248565
-33.599975 -10.626478 12.925897
-33.689665 -10.81646 13.6785
-33.918925 -8.774029 13.907179
-33.599975 -10.626478 12.925897
-33.805884 -10.565001 11.99345
-25.509684 17.521613 -13.494409
-25.726816 17.535966 -14.745197
-26.179713 16.029565 -12.483054
-26.115499 17.301735 -12.511423
-25.509684 17.521613 -13.494409
-32.029325 3.522798 -15.490421
-32.542175 3.662052 -15.652722
-31.553994 4.791571 -14.782345
-32.029325 3.522798 -15.490421
-31.638717 3.24324 -15.001048
-37.083649 1.123751 -13.759989
-37.159098 0.688997 -13.116115
-36.710081 2.236401 -11.720641
-37.083649 1.123751 -13.759989
-36.964804 1.737523 -14.266065
-36.697486 2.204086 -14.849314
-36.409199 2.818436 -15.297631
-34.739698 -9.776864 9.659186
-34.359352 -10.144229 10.315841
-34.589979 -7.674853 10.947131
-34.739698 -9.776864 9.659186
-35.030738 -9.535809 8.836832
-35.427416 -9.187821 8.206418
-35.776384 -8.847976 7.436312
-37.041639 -6.369452 -0.275111
-37.251969 -6.563681 0.602594
-37.024544 -4.495081 0.717871
-36.95181 -6.248007 -1.114726
-37.041639 -6.369452 -0.275111
-25.970779 17.352379 -17.275743
-25.468586 17.67868 -15.912377
-24.918947 10.311313 -17.148413
-24.850568 11.318269 -18.496677
-26.028669 9.059476 -15.989386
-24.918947 10.311313 -17.148413
-27.184255 7.710947 -15.046714
-26.602934 9.135112 -16.018009
-26.028669 9.059476 -15.989386
-28.353262 6.146117 -14.403565
-27.184255 7.710947 -15.046714
-29.485715 4.512821 -13.95597
-28.890973 6.153285 -14.627742
-28.353262 6.146117 -14.403565
-30.645864 3.016985 -14.307381
-29.485715 4.512821 -13.95597
-36.560183 -0.460948 -6.185331
-36.450386 -1.087525 -5.584271
-36.594805 0.162299 -6.805408
-36.560183 -0.460948 -6.185331
-36.843888 1.378232 -5.295834
-36.749762 0.820815 -7.363603
-36.594805 0.162299 -6.805408
-36.823109 1.511297 -7.98374
-36.749762 0.820815 -7.363603
-36.951857 2.69196 -6.536047
-36.916914 2.093097 -8.579069
-36.823109 1.511297 -7.98374
-36.76678 2.60968 -9.22295
-36.916914 2.093097 -8.579069
-36.87507 3.899025 -7.800064
-36.755234 3.108628 -9.760356
-36.797077 1.3027 -10.539361
-36.76678 2.60968 -9.22295
-35.430679 -7.566208 16.270477
-36.694723 -6.073058 16.949766
-35.026978 -7.379734 15.623389
-34.412316 -9.150484 15.30687
-35.430679 -7.566208 16.270477
-36.27062 -4.00042 16.602563
-37.018817 -4.347131 16.923994
-35.683347 -5.460439 16.021887
-36.27062 -4.00042 16.602563
-34.664984 -7.044714 15.05828
-35.026978 -7.379734 15.623389
-35.683347 -5.460439 16.021887
-34.575294 -6.854733 14.305677
-33.918925 -8.774029 13.907179
-34.664984 -7.044714 15.05828
-34.376672 -6.513558 13.67982
-34.575294 -6.854733 14.305677
-35.122732 -4.784244 14.830921
-34.469299 -2.66126 14.343132
-35.051479 -2.95704 14.945994
-34.887341 -4.132169 13.551893
-34.469299 -2.66126 14.343132
-34.43253 -2.350361 13.689961
-33.916767 -1.50372 11.533651
-34.090035 -1.799481 12.256319
-34.962816 -3.116156 10.660905
-33.916767 -1.50372 11.533651
-34.011427 -1.299511 10.731534
-32.69556 3.498686 9.454287
-33.199996 1.191926 9.177004
-32.559124 3.224059 10.176574
-30.834781 11.026849 11.714997
-31.106884 9.116681 11.525339
-30.389851 11.505887 11.206667
-30.834781 11.026849 11.714997
-30.212048 11.904646 10.534143
-30.625538 9.939146 10.334882
-30.389851 11.505887 11.206667
-29.917468 12.328048 9.845147
-30.212048 11.904646 10.534143
-29.681781 13.894789 10.716931
-29.015884 16.502924 9.343097
-29.292865 14.632257 9.241229
-29.110221 16.188859 10.129803
-28.731471 18.418308 9.419711
-28.914114 16.861706 8.531136
-29.015884 16.502924 9.343097
-28.683676 20.338417 9.362555
-28.731471 18.418308 9.419711
-28.405634 20.799713 8.531518
-28.683676 20.338417 9.362555
-37.101906 0.155819 -12.429712
-37.159098 0.688997 -13.116115
-26.733238 23.861275 -7.67837
-27.156979 24.71156 -7.145811
-27.842547 28.518496 3.474098
-27.566554 27.079058 4.605529
-27.702834 28.385078 2.452687
-27.842547 28.518496 3.474098
-27.640105 28.194517 1.524054
-27.357782 26.944885 2.664073
-27.702834 28.385078 2.452687
-27.532768 27.88986 0.524936
-27.640105 28.194517 1.524054
-27.476293 27.632302 -0.405405
-27.238578 26.496766 0.805099
-27.532768 27.88986 0.524936
-27.408476 27.259494 -1.36291
-27.476293 27.632302 -0.405405
-27.328 26.933565 -2.162933
-27.101628 25.91328 -0.925266
-27.408476 27.259494 -1.36291
-27.351419 26.561977 -3.022137
-27.328 26.933565 -2.162933
-27.274915 26.170581 -3.802722
-26.944648 25.195956 -2.505875
-27.351419 26.561977 -3.022137
-27.318344 25.797948 -4.702286
-27.274915 26.170581 -3.802722
-27.226566 25.444814 -5.464866
-26.776367 24.451425 -4.04904
-27.318344 25.797948 -4.702286
-27.277121 25.073117 -6.369054
-27.226566 25.444814 -5.464866
-27.156979 24.71156 -7.145811
-26.564447 23.736734 -5.588378
-27.277121 25.073117 -6.369054
-33.765364 -10.870635 14.678705
-33.689665 -10.81646 13.6785
-33.996082 -10.294086 11.218055
-34.359352 -10.144229 10.315841
-37.393833 -2.504292 -0.273768
-36.851328 -4.251387 -0.939633
-37.477221 -2.62654 0.544121
-37.442028 -2.301073 -1.039814
-37.393833 -2.504292 -0.273768
-38.067921 -0.676226 0.44394
-37.294083 -2.119019 -1.835138
-37.442028 -2.301073 -1.039814
-37.123244 -1.871336 -2.533659
-37.294083 -2.119019 -1.835138
-37.945276 -0.225325 -1.020627
-36.980934 -1.675555 -3.34531
-37.123244 -1.871336 -2.533659
-36.791077 -1.400119 -4.072847
-36.980934 -1.675555 -3.34531
-37.58458 0.297792 -2.446684
-36.743115 -1.178404 -4.833502
-36.791077 -1.400119 -4.072847
-37.101994 0.664106 -3.924989
-36.450386 -1.087525 -5.584271
-36.743115 -1.178404 -4.833502
-26.896187 22.613096 -7.603324
-26.607254 22.126998 -6.29009
-26.733238 23.861275 -7.67837
-26.47921 21.505351 -7.521171
-26.896187 22.613096 -7.603324
-26.975992 20.328755 -7.604988
-27.266985 19.702224 -6.29886
-26.47921 21.505351 -7.521171
-26.266573 20.859253 -8.71937
-26.639237 21.149881 -9.955362
-27.054348 19.056126 -7.497059
-26.975992 20.328755 -7.604988
-26.266573 20.859253 -8.71937
-26.164778 19.513224 -12.367754
-25.665499 18.513208 -12.329845
-25.944888 19.392132 -11.163134
-26.164778 19.513224 -12.367754
-26.516467 17.823126 -10.064605
-26.575826 18.982626 -10.090829
-25.944888 19.392132 -11.163134
-25.252724 16.328449 -17.111671
-25.970779 17.352379 -17.275743
-25.182545 13.40128 -20.66787
-24.644194 12.481041 -19.595403
-25.551549 13.800961 -20.046411
-25.182545 13.40128 -20.66787
-25.597856 14.183311 -19.154737
-25.551549 13.800961 -20.046411
-25.080907 13.191536 -18.266458
-25.287611 14.847956 -17.898863
-25.597856 14.183311 -19.154737
-25.622514 14.95023 -16.880805
-25.287611 14.847956 -17.898863
-25.462116 13.67616 -16.356725
-25.427228 15.156652 -15.569533
-25.252724 16.328449 -17.111671
-25.622514 14.95023 -16.880805
-33.999517 4.016955 -16.588078
-34.581524 3.834144 -16.632631
-33.79981 4.654709 -15.223338
-33.999517 4.016955 -16.588078
-33.562626 3.868246 -16.259956
-32.987147 3.914899 -16.142887
-32.542175 3.662052 -15.652722
-31.129858 3.177077 -14.781099
-30.645864 3.016985 -14.307381
3 0 44 42
3 1 153 155
3 155 154 45
3 153 154 155
3 1 156 157
3 2 158 160
3 160 159 46
3 158 159 160
3 2 161 162
3 2 163 165
3 163 47 164
3 163 164 165
3 166 49 167
3 169 168 49
3 3 53 51
3 5 56 54
3 5 58 56
3 4 170 171
3 6 172 174
3 174 173 60
3 172 173 174
3 9 175 176
3 9 177 178
3 7 63 61
3 10 66 64
3 10 68 66
3 10 70 68
3 8 73 71
3 8 75 73
3 11 179 181
3 179 76 180
3 179 180 181
3 11 78 76
3 12 81 79
3 12 83 81
3 12 182 184
3 184 183 83
3 182 183 184
3 13 86 84
3 15 87 43
3 15 88 87
3 16 185 187
3 187 186 89
3 185 186 187
3 17 188 190
3 190 189 90
3 188 189 190
3 18 191 192
3 18 193 195
3 193 91 194
3 193 194 195
3 19 94 92
3 21 95 48
3 21 96 95
3 21 98 96
3 23 99 50
3 23 100 99
3 25 102 101
3 26 103 52
3 26 104 103
3 14 105 85
3 27 106 55
3 27 107 106
3 27 108 107
3 28 109 57
3 28 110 109
3 196 111 197
3 198 112 199
3 200 113 201
3 202 114 203
3 204 203 113
3 202 203 204
3 205 115 206
3 207 116 208
3 209 208 115
3 207 208 209
3 210 118 211
3 212 211 116
3 210 211 212
3 31 119 59
3 31 120 119
3 213 121 214
3 216 215 121
3 29 217 218
3 30 123 117
3 33 124 62
3 33 125 124
3 20 126 93
3 34 127 65
3 34 128 127
3 34 129 128
3 35 130 67
3 35 131 130
3 35 132 131
3 36 133 69
3 36 134 133
3 22 135 97
3 37 136 72
3 37 137 136
3 37 138 137
3 32 139 74
3 32 122 139
3 219 140 220
3 221 141 222
3 223 222 140
3 221 222 223
3 38 224 226
3 224 142 225
3 224 225 226
3 38 143 142
3 38 144 143
3 39 145 77
3 39 146 145
3 24 227 229
3 227 147 228
3 227 228 229
3 40 148 80
3 40 149 148
3 40 150 149
3 41 151 82
3 41 152 151
3 41 230 232
3 232 231 152
3 230 231 232
3 42 43 13
3 44 43 42
3 44 15 43
3 45 233 235
3 235 234 16
3 233 234 235
3 237 236 45
3 46 238 240
3 240 239 17
3 238 239 240
3 242 241 46
3 47 243 244
3 47 245 247
3 245 18 246
3 245 246 247
3 248 48 249
3 250 249 19
3 248 249 250
3 49 251 253
3 251 48 252
3 251 252 253
3 49 21 48
3 49 50 21
3 254 50 255
3 256 255 49
3 254 255 256
3 257 23 258
3 259 258 50
3 257 258 259
3 51 52 25
3 53 52 51
3 53 26 52
3 54 55 14
3 56 55 54
3 56 27 55
3 56 57 27
3 58 57 56
3 58 28 57
3 260 59 261
3 262 59 263
3 264 31 265
3 266 265 59
3 264 265 266
3 60 267 269
3 269 268 29
3 267 268 269
3 271 270 60
3 61 62 30
3 63 62 61
3 63 33 62
3 64 65 20
3 66 65 64
3 66 34 65
3 66 67 34
3 68 67 66
3 68 35 67
3 68 69 35
3 70 69 68
3 70 36 69
3 71 72 22
3 73 72 71
3 73 37 72
3 73 74 37
3 75 74 73
3 75 32 74
3 76 272 273
3 76 274 276
3 274 38 275
3 274 275 276
3 76 77 38
3 78 77 76
3 78 39 77
3 79 80 24
3 81 80 79
3 81 40 80
3 81 82 40
3 83 82 81
3 83 41 82
3 83 277 279
3 279 278 41
3 277 278 279
3 281 280 83
3 84 85 3
3 86 85 84
3 86 14 85
3 43 86 13
3 87 86 43
3 87 14 86
3 87 54 14
3 88 54 87
3 88 5 54
3 89 282 284
3 284 283 4
3 282 283 284
3 286 285 89
3 288 287 16
3 90 289 291
3 291 290 6
3 289 290 291
3 293 292 90
3 295 294 17
3 91 296 297
3 91 298 300
3 298 9 299
3 298 299 300
3 92 93 7
3 94 93 92
3 94 20 93
3 48 94 19
3 95 94 48
3 95 20 94
3 95 64 20
3 96 64 95
3 96 10 64
3 96 97 10
3 98 97 96
3 98 22 97
3 50 98 21
3 99 98 50
3 99 22 98
3 99 71 22
3 100 71 99
3 100 8 71
3 301 11 302
3 303 24 304
3 305 24 306
3 307 79 308
3 309 308 24
3 307 308 309
3 310 79 311
3 312 12 313
3 314 313 79
3 312 313 314
3 316 315 12
3 101 317 318
3 102 319 321
3 321 320 101
3 319 320 321
3 102 322 323
3 52 102 25
3 103 102 52
3 103 324 326
3 326 325 102
3 324 325 326
3 103 327 328
3 104 329 331
3 331 330 103
3 329 330 331
3 104 332 334
3 332 4 333
3 332 333 334
3 85 53 3
3 105 53 85
3 105 26 53
3 55 105 14
3 106 105 55
3 106 26 105
3 106 104 26
3 107 104 106
3 107 4 104
3 107 89 4
3 108 89 107
3 108 16 89
3 57 108 27
3 109 108 57
3 109 16 108
3 109 45 16
3 110 45 109
3 110 1 45
3 111 335 336
3 111 337 339
3 337 29 338
3 337 338 339
3 340 111 341
3 342 111 343
3 344 29 345
3 346 345 111
3 344 345 346
3 347 60 348
3 349 348 29
3 347 348 349
3 112 350 352
3 350 60 351
3 350 351 352
3 112 6 60
3 353 112 354
3 113 355 357
3 355 112 356
3 355 356 357
3 113 6 112
3 113 90 6
3 114 90 113
3 114 17 90
3 358 114 359
3 115 360 362
3 360 114 361
3 360 361 362
3 115 17 114
3 115 46 17
3 116 46 115
3 116 2 46
3 116 117 2
3 118 117 116
3 118 30 117
3 59 363 365
3 363 118 364
3 363 364 365
3 119 118 59
3 119 30 118
3 119 61 30
3 120 61 119
3 120 7 61
3 366 31 367
3 368 31 369
3 370 120 371
3 372 371 31
3 370 371 372
3 121 373 375
3 373 120 374
3 373 374 375
3 121 7 120
3 121 92 7
3 376 92 377
3 378 377 121
3 376 377 378
3 379 19 380
3 381 380 92
3 379 380 381
3 382 19 383
3 385 384 19
3 387 386 4
3 389 388 0
3 390 23 391
3 392 23 393
3 394 100 395
3 396 395 23
3 394 395 396
3 397 100 398
3 399 8 400
3 401 400 100
3 399 400 401
3 402 8 403
3 404 75 405
3 406 405 8
3 404 405 406
3 407 75 408
3 409 32 410
3 411 410 75
3 409 410 411
3 412 32 413
3 414 122 415
3 416 415 32
3 414 415 416
3 417 122 418
3 419 0 420
3 421 420 122
3 419 420 421
3 423 422 29
3 425 424 6
3 117 47 2
3 123 47 117
3 123 18 47
3 62 123 30
3 124 123 62
3 124 18 123
3 124 91 18
3 125 91 124
3 125 9 91
3 93 63 7
3 126 63 93
3 126 33 63
3 65 126 20
3 127 126 65
3 127 33 126
3 127 125 33
3 128 125 127
3 128 9 125
3 128 426 428
3 428 427 9
3 426 427 428
3 129 429 431
3 431 430 128
3 429 430 431
3 129 432 433
3 67 129 34
3 130 129 67
3 130 434 436
3 436 435 129
3 434 435 436
3 130 437 438
3 131 439 441
3 441 440 130
3 439 440 441
3 131 442 443
3 131 444 446
3 444 101 445
3 444 445 446
3 132 101 131
3 132 25 101
3 69 132 35
3 133 132 69
3 133 25 132
3 133 51 25
3 134 51 133
3 134 3 51
3 97 70 10
3 135 70 97
3 135 36 70
3 72 135 22
3 136 135 72
3 136 36 135
3 136 134 36
3 137 134 136
3 137 3 134
3 137 84 3
3 138 84 137
3 138 13 84
3 74 138 37
3 139 138 74
3 139 13 138
3 139 42 13
3 122 42 139
3 122 0 42
3 447 44 448
3 449 448 0
3 447 448 449
3 450 44 451
3 452 15 453
3 454 453 44
3 452 453 454
3 140 455 456
3 140 457 459
3 457 15 458
3 457 458 459
3 140 88 15
3 141 88 140
3 141 5 88
3 142 460 461
3 142 462 463
3 142 464 466
3 464 141 465
3 464 465 466
3 143 141 142
3 143 5 141
3 143 58 5
3 144 58 143
3 144 28 58
3 77 144 38
3 145 144 77
3 145 28 144
3 145 110 28
3 146 110 145
3 146 1 110
3 467 11 468
3 147 469 470
3 147 471 472
3 80 147 24
3 148 147 80
3 148 473 475
3 475 474 147
3 473 474 475
3 148 476 477
3 149 478 480
3 480 479 148
3 478 479 480
3 149 481 483
3 481 11 482
3 481 482 483
3 149 78 11
3 150 78 149
3 150 39 78
3 82 150 40
3 151 150 82
3 151 39 150
3 151 146 39
3 152 146 151
3 152 1 146
3 152 484 486
3 486 485 1
3 484 485 486
3 488 487 152
3 490 489 41
3 492 491 12
