ply
format ascii 1.0
element vertex 694
property float x
property float y
property float z
element face 795
property list uchar int vertex_index
end_header
65.156898 -16.154373 2.381719
53.214874 -31.127798 1.439069
59.406963 -39.985634 14.100729
56.464172 -3.378793 -9.15449
46.13855 -36.760406 5.093185
65.329269 -34.758301 12.08779
62.187969 -9.190111 -3.442293
61.260029 -23.233759 -0.395746
53.495533 -19.444511 -3.397214
45.969696 -27.356421 -2.513132
51.391121 -44.698158 17.573923
49.932472 -39.654121 11.925756
66.133041 -30.066589 3.203238
57.877453 -35.461189 6.306376
51.771809 1.755036 -19.428026
48.726646 -14.335464 -11.893328
62.785351 -9.812815 0.359125
64.393127 -12.767851 -0.715545
57.691048 -27.271795 0.737066
53.255371 -25.676529 -1.106351
49.259178 -28.849401 0.60172
46.221916 -45.271812 16.306944
66.546562 -26.147583 3.705582
65.461952 -29.609161 7.264637
62.675629 -37.766289 12.550776
62.839699 -35.832989 8.43815
58.972431 -37.770302 10.077569
53.734081 -37.684925 8.670331
55.250927 -39.624287 12.765862
60.705391 -1.677915 -4.888932
58.386578 0.868267 -5.239091
58.684105 2.054133 -8.613283
56.190125 5.001173 -12.360013
53.838478 -0.711119 -14.074266
46.773605 -21.582071 -6.702835
50.581829 -16.863312 -7.105817
49.264389 -34.285339 2.994964
45.725227 -32.796974 1.246101
64.391724 -31.917141 11.662141
63.006054 -33.974983 15.245578
64.635941 -36.812794 15.509459
62.422432 -40.272266 15.725635
62.04673 -5.330111 -1.833214
59.601006 -6.454131 -6.764988
64.691528 -19.330175 0.656762
61.684216 -17.432949 -1.18876
57.382771 -21.70503 -1.889945
49.492603 -23.606421 -3.331795
44.803406 -25.927094 -6.928822
61.147224 -41.460262 18.978388
58.836079 -42.782291 16.753107
55.193642 -42.459297 15.961299
50.123444 -42.440605 15.086911
45.599323 -43.324615 13.532845
45.469246 -40.812103 10.503355
64.573257 -19.772404 5.005691
66.257401 -22.418118 2.309587
64.555222 -26.638788 1.055105
60.533558 -30.546356 1.276463
66.117584 -32.836739 7.746115
62.571308 -32.776749 4.831838
56.003155 -32.94529 3.651207
51.902149 -35.482292 6.078601
48.252144 -38.12027 8.29903
53.769966 7.679207 -17.288256
58.160198 -14.264468 -3.453595
55.209118 -11.48747 -7.053487
53.009571 -9.313039 -12.111046
47.76696 -11.689025 -17.176197
49.869011 -6.269282 -16.4641
64.102188 -15.097624 2.779099
64.367874 -13.148593 1.420682
65.090614 -14.455359 0.922465
55.548656 -29.235508 1.205424
53.44286 -28.00462 0.870067
51.273186 -29.774448 1.494788
60.879982 -38.740723 13.074804
60.698029 -37.377842 11.198161
59.183849 -38.443375 12.08959
57.10955 -38.480186 11.25358
57.423309 -39.663464 13.377684
59.290398 -2.198433 -7.114473
59.713909 0.327873 -6.682448
57.902229 -0.529029 -8.961639
56.506847 0.870667 -11.053512
55.010429 -1.977533 -11.557328
45.451225 -23.021803 -9.149738
46.266518 -20.416035 -9.04067
46.350517 -22.044918 -11.513721
47.626217 -35.301727 4.241528
45.994057 -35.289082 2.825024
44.91383 -37.048935 3.36871
63.964855 -37.385376 17.224339
63.917847 -38.728416 15.361528
63.403492 -38.954369 17.237755
63.247448 -9.061177 -1.290132
62.361786 -7.483607 -0.616722
62.552135 -7.113819 -2.596385
61.880505 -5.491071 -4.112846
60.950207 -7.565159 -4.876157
63.127876 -21.166969 -0.516624
61.381611 -20.529987 -1.351163
59.223083 -22.634901 -1.516648
49.341759 -26.584814 -1.600782
51.230049 -24.78245 -2.302266
47.591537 -25.552555 -3.003403
46.319351 -24.472073 -4.685362
44.978462 -26.536346 -4.571435
44.085213 -34.817726 -0.578437
44.537361 -32.213657 -0.346409
59.916626 -42.178886 17.590565
58.408272 -43.524994 18.499729
55.167431 -43.780727 17.354008
53.199898 -43.712738 16.911335
52.865345 -42.539165 15.491697
50.767651 -43.707222 16.384893
65.697731 -20.799059 3.89479
65.767563 -22.691525 4.293443
66.77478 -28.152203 3.354677
66.583603 -26.353073 1.94879
65.654884 -28.493097 1.71634
62.726631 -28.676748 1.129286
63.861103 -30.245569 2.028681
65.369125 -33.232128 11.921505
65.953964 -32.278179 9.785592
65.658615 -33.889366 9.977628
60.769276 -35.729118 7.200458
62.871681 -34.436653 6.619396
60.400002 -34.049019 5.558376
59.55891 -32.529987 4.099977
57.156361 -33.919205 5.212903
53.935963 -34.113266 4.966067
54.932014 -35.367348 6.108453
51.911884 -38.455376 10.417231
51.009045 -37.775368 8.483377
49.169228 -38.661793 10.130547
46.671349 -39.192268 9.606146
47.342621 -39.981972 11.426735
54.063648 3.164209 -15.761249
54.791687 6.244077 -14.710431
52.998737 4.455949 -18.398039
52.102089 6.113025 -20.66378
50.956135 3.350195 -21.709703
57.430962 -18.446527 -2.044205
59.890419 -15.934352 -2.22452
55.742073 -16.963379 -3.370872
49.446655 -15.651587 -9.564656
53.080688 -14.113447 -7.149497
51.747082 -13.063677 -9.5833
54.171234 -10.509653 -9.667466
50.650261 -11.950665 -12.096853
48.465656 -8.819692 -16.896696
48.992905 -5.005801 -18.924637
45.124355 -38.585968 5.739304
44.457756 -39.116016 3.81989
63.938354 -11.257643 0.014172
63.410912 -11.007237 -2.055536
59.5453 -25.217014 0.279649
57.316853 -24.603912 -0.819667
55.458961 -26.284393 0.062227
51.344311 -27.243143 -0.203736
47.364731 -28.16987 -0.846196
48.737007 -44.672447 16.947495
65.447403 -24.439701 4.517806
64.63205 -26.382233 5.23306
66.045303 -27.968945 5.307341
66.600456 -29.629599 5.357975
64.361404 -36.440899 12.168631
64.474724 -35.357647 10.156423
62.612072 -36.455315 10.530054
60.750965 -36.846966 9.196382
58.394348 -36.964546 7.963458
55.632332 -36.784847 7.245105
56.523907 -37.780117 9.259617
54.574554 -38.484333 10.747828
52.605846 -39.540802 12.269104
60.375195 -2.302832 -3.04034
59.902138 -0.070653 -4.91801
59.135735 2.146299 -6.623518
58.23819 4.140874 -8.224167
57.269775 6.051569 -9.789676
57.477539 3.663146 -10.357363
55.184303 2.10033 -13.189069
52.648659 0.315116 -16.781101
49.676083 -20.570429 -4.969512
51.939465 -18.123089 -5.192023
48.478783 -19.300991 -6.960352
47.609894 -18.01322 -9.237104
47.236397 -16.838959 -11.760353
51.090828 -32.925732 1.930594
49.116142 -31.689777 1.838008
47.394905 -33.566231 2.13695
44.720856 -34.997169 1.307675
63.769096 -33.011486 13.551634
64.74395 -34.260735 13.771268
62.142365 -35.008591 16.696747
64.290283 -35.108837 15.435806
65.028976 -35.863857 13.818495
64.228409 -37.892883 13.839586
62.79184 -39.433434 14.011971
61.022461 -40.536709 14.798441
61.450794 -3.5223 -3.222229
60.728527 -4.014205 -5.682413
58.131645 -5.006522 -8.183348
65.385223 -17.652163 1.771378
64.782539 -16.415249 0.302136
63.545166 -18.388641 -0.563156
59.493141 -19.579336 -1.553815
55.375801 -20.596043 -2.129777
55.263428 -23.919611 -1.952348
53.331654 -22.732075 -2.389379
51.437721 -21.572063 -3.307024
47.890434 -22.532709 -4.786969
45.545544 -23.653481 -6.72466
47.261993 -30.716763 1.085133
45.731361 -30.050837 -0.345364
62.770924 -39.561565 19.123312
61.603931 -40.594135 17.294373
60.56319 -41.571369 16.1831
59.16436 -41.606983 15.597092
56.770851 -43.740383 17.922298
57.245655 -42.607571 16.418861
57.20327 -41.154991 15.062327
55.145897 -41.121075 14.4599
52.598114 -41.081974 13.914808
49.851349 -41.06916 13.486151
48.011681 -43.755558 15.843382
47.609577 -42.683029 14.503787
47.37035 -41.350876 12.963554
64.919456 -17.981613 3.748656
65.607948 -19.274216 2.940459
65.429291 -20.691589 1.566211
64.356606 -22.520092 0.590498
66.622864 -24.293568 2.79446
65.726875 -24.433033 1.152327
62.977467 -24.837063 0.533784
61.200996 -26.993372 0.898363
59.176594 -29.056421 0.865755
56.951649 -30.993057 1.067957
64.909172 -30.884562 9.52799
66.391342 -31.003025 7.663905
66.303535 -31.425266 5.507503
64.74086 -34.535797 7.995453
64.958969 -33.103889 6.017379
64.631248 -31.604992 3.819648
61.783531 -31.538288 2.857625
58.307262 -31.972773 2.291958
54.66256 -32.656731 2.027457
52.634857 -33.684685 3.299955
50.660614 -34.621063 4.695945
48.846577 -35.856285 5.707143
52.78463 -36.745052 7.054268
49.963612 -36.964928 6.955678
47.190098 -37.375999 6.640692
45.892212 -38.871334 7.717987
63.659584 -15.007004 -1.127821
62.171989 -13.430481 -2.528554
60.570301 -11.769777 -3.479885
54.271313 -15.436276 -5.092677
56.651318 -12.837259 -4.903831
58.823753 -10.126745 -4.726889
57.393738 -8.920315 -7.029418
56.422192 -7.877005 -9.544181
54.783394 -6.474242 -10.980322
48.00576 -13.092633 -14.553579
49.437176 -10.426665 -14.51178
51.384594 -7.674046 -14.147715
53.167805 -5.007475 -12.873186
51.746101 -3.691479 -15.390401
50.605522 -2.539896 -18.020969
49.600258 -0.923722 -20.429235
46.544943 -23.367539 -11.370902
45.900871 -22.533361 -10.331729
46.095297 -23.855981 -10.188911
63.776708 -37.632864 18.303892
63.517681 -37.043434 18.133566
63.496027 -38.417361 18.3106
63.684173 -38.169872 17.231047
63.776708 -37.632864 18.303892
44.199999 -34.6231 -1.675374
44.562382 -35.881757 -1.643316
58.070692 -43.801285 19.564366
58.99827 -43.273439 18.970591
52.411209 -44.674463 17.932266
51.740879 -45.221262 18.309657
52.295509 -44.205448 17.242629
53.315597 -44.181753 17.600972
52.411209 -44.674463 17.932266
64.548073 -23.057704 5.004253
64.917412 -22.176103 4.980702
44.997377 -39.804146 5.038954
44.953484 -39.4989 6.055058
63.12053 -27.025693 5.667471
63.619904 -25.788691 5.397883
65.753627 -28.789053 6.285989
64.843184 -28.353512 5.959199
64.551508 -29.17362 6.937847
47.042524 -18.683424 -10.454416
46.938206 -19.214627 -9.138887
46.370836 -19.884832 -10.356199
46.855776 -18.096294 -11.716041
47.423145 -17.426089 -10.498729
47.042524 -18.683424 -10.454416
44.529362 -36.164534 1.370697
45.357456 -35.143125 2.066349
45.165962 -36.31049 2.129371
44.561212 -36.137491 0.323953
44.529362 -36.164534 1.370697
44.465288 -39.3729 2.734097
44.921133 -40.328444 3.013673
63.387575 -33.493234 14.398606
62.468837 -33.243677 14.168174
62.087317 -33.725426 15.015146
61.755283 -35.556553 17.560205
60.823406 -35.369535 17.60543
64.463112 -35.960815 15.472632
63.921718 -35.560116 16.245403
64.094548 -36.412094 16.282229
61.67013 -9.448771 0.421019
61.549608 -10.695267 0.603531
61.323179 -5.98103 -1.016621
61.480707 -7.057778 -0.408375
62.204258 -6.406859 -1.224968
61.30941 -4.8299 -1.614486
61.323179 -5.98103 -1.016621
61.748762 -4.426206 -2.527722
61.011442 -3.925995 -2.308994
61.30941 -4.8299 -1.614486
45.116236 -25.642771 -8.096858
45.487305 -24.505964 -7.994777
45.174475 -24.790287 -6.826741
44.950516 -30.948249 -1.418287
45.134361 -31.132247 -0.345886
44.353516 -32.029659 -1.418809
45.237573 -29.738782 -1.297442
44.950516 -30.948249 -1.418287
61.67761 -40.840456 19.876269
60.947248 -41.840097 19.80039
61.959074 -40.510914 19.05085
62.48946 -39.891108 19.94873
61.67761 -40.840456 19.876269
55.837828 -44.157137 18.494073
56.484654 -44.111097 18.940784
46.60445 -43.003822 14.018316
46.74237 -43.547369 14.757374
45.737243 -43.868162 14.271903
45.554505 -42.69141 12.745445
46.440018 -41.704541 12.4608
46.484837 -42.337745 13.2482
63.373104 -19.454656 4.912115
62.91027 -20.476866 5.389157
64.746356 -18.877009 4.377173
63.546203 -18.559261 4.283598
63.373104 -19.454656 4.912115
64.650448 -31.400852 10.595066
63.654085 -31.176814 10.145264
63.395361 -31.693104 11.21234
45.26747 -40.679935 9.468037
45.868521 -39.870018 9.019432
46.070297 -40.002185 10.054751
45.208669 -41.623718 9.690424
45.26747 -40.679935 9.468037
57.261857 -0.8409 -4.910949
58.606848 -0.412797 -4.464653
56.089569 6.240061 -12.121379
56.629395 6.765259 -10.836211
56.72995 5.526371 -11.074845
54.297617 8.2699 -15.674869
54.808478 7.552335 -14.385957
54.280827 6.961642 -15.999344
53.718864 9.043895 -16.888671
54.297617 8.2699 -15.674869
53.106651 8.394773 -18.388798
53.718864 9.043895 -16.888671
50.115345 6.254541 -22.891421
51.199281 6.753971 -21.49437
51.018152 5.613594 -22.060831
47.886345 -13.075888 -17.190443
48.467445 -12.27449 -18.365412
47.88636 -12.390829 -15.864888
48.005745 -13.777692 -15.879134
47.886345 -13.075888 -17.190443
49.569691 -3.059939 -19.751068
49.799214 -3.772849 -18.472803
48.763382 -4.292891 -20.202902
49.067059 -2.251852 -20.955201
50.10289 -1.731809 -19.225102
49.569691 -3.059939 -19.751068
64.235031 -14.123109 2.09989
63.308424 -13.857658 1.93784
63.175581 -14.832174 2.617049
64.223383 -29.953222 7.922171
64.551508 -29.17362 6.937847
46.412836 -20.699273 -11.592724
46.370836 -19.884832 -10.356199
46.308518 -21.230477 -10.277196
44.625849 -37.190416 2.401215
45.165962 -36.31049 2.129371
45.453943 -36.169009 3.096867
61.65115 -34.256943 15.948252
62.087317 -33.725426 15.015146
63.759005 -36.698386 17.13967
63.517681 -37.043434 18.133566
64.300398 -37.099085 16.366899
64.094548 -36.412094 16.282229
63.759005 -36.698386 17.13967
44.426073 -33.321066 -1.55936
44.311287 -33.515692 -0.462423
44.199999 -34.6231 -1.675374
44.353516 -32.029659 -1.418809
44.426073 -33.321066 -1.55936
60.367746 -42.241073 19.209921
60.947248 -41.840097 19.80039
60.16777 -42.620909 20.031923
59.752447 -42.600386 18.51601
60.531925 -41.819574 18.284477
60.367746 -42.241073 19.209921
59.162449 -42.85194 18.045147
59.752447 -42.600386 18.51601
58.99827 -43.273439 18.970591
54.299364 -44.215747 17.822308
55.036118 -44.177309 18.209929
54.183664 -43.746733 17.132672
54.299364 -44.215747 17.822308
53.315597 -44.181753 17.600972
45.332033 -45.42461 14.994098
46.04854 -44.84176 15.658953
45.505409 -45.854661 15.64209
45.237471 -44.575398 13.484888
45.737243 -43.868162 14.271903
45.216648 -44.03828 12.738664
45.237471 -44.575398 13.484888
64.320259 -20.716543 5.336826
62.91027 -20.476866 5.389157
64.882496 -21.22987 4.781376
65.135494 -20.285732 4.45024
64.320259 -20.716543 5.336826
65.732647 -21.745292 4.094117
64.882496 -21.22987 4.781376
64.917412 -22.176103 4.980702
57.100946 0.529547 -5.377724
58.078707 2.043638 -5.879423
50.445176 4.232179 -22.583793
51.018152 5.613594 -22.060831
51.529112 4.73161 -21.186742
48.070807 -10.964893 -18.456815
48.467445 -12.27449 -18.365412
48.420155 -9.530226 -18.317064
48.116308 -10.254359 -17.036446
48.070807 -10.964893 -18.456815
48.347456 -8.128678 -18.25065
48.420155 -9.530226 -18.317064
49.049133 -6.853472 -18.034351
49.167333 -7.544487 -16.680398
48.347456 -8.128678 -18.25065
48.61108 -6.221732 -19.26462
49.430958 -5.637541 -17.694368
49.049133 -6.853472 -18.034351
48.876069 -5.51256 -20.519226
48.61108 -6.221732 -19.26462
48.763382 -4.292891 -20.202902
48.876069 -5.51256 -20.519226
44.664078 -40.06917 4.079247
44.791055 -38.850992 4.779597
44.997377 -39.804146 5.038954
44.921133 -40.328444 3.013673
44.664078 -40.06917 4.079247
62.804094 -11.002178 0.895026
61.549608 -10.695267 0.603531
63.595356 -12.670068 1.425804
63.308424 -13.857658 1.93784
63.380596 -11.724592 0.72255
63.595356 -12.670068 1.425804
64.153114 -12.203118 0.717427
63.361852 -10.535229 0.186649
62.804094 -11.002178 0.895026
63.380596 -11.724592 0.72255
50.499049 -45.129921 17.922937
51.740879 -45.221262 18.309657
49.171992 -45.117065 17.609724
50.064064 -44.685302 17.260709
50.499049 -45.129921 17.922937
47.793045 -45.308571 17.283694
49.171992 -45.117065 17.609724
46.5355 -45.608254 16.963419
47.479461 -44.972129 16.62722
47.793045 -45.308571 17.283694
45.576279 -46.039026 16.388252
46.5355 -45.608254 16.963419
45.505409 -45.854661 15.64209
45.576279 -46.039026 16.388252
64.02758 -24.817425 5.040256
64.387993 -23.931792 5.116435
65.039727 -25.410967 4.875433
64.02758 -24.817425 5.040256
63.619904 -25.788691 5.397883
64.136557 -27.560156 5.922059
63.12053 -27.025693 5.667471
65.338677 -27.175589 5.2702
64.136557 -27.560156 5.922059
64.843184 -28.353512 5.959199
59.601157 -1.998347 -3.365277
59.490088 -3.3054 -2.480206
59.364628 -0.882258 -4.304112
59.601157 -1.998347 -3.365277
60.138666 -1.186743 -3.979175
59.144358 0.398807 -5.078551
58.606848 -0.412797 -4.464653
59.364628 -0.882258 -4.304112
58.453285 2.682654 -6.571636
58.078707 2.043638 -5.879423
58.761156 1.507283 -5.931304
58.004513 3.679941 -7.371961
58.453285 2.682654 -6.571636
58.686962 3.143587 -7.423842
57.644256 4.892524 -8.081101
57.410579 4.431591 -7.228895
58.004513 3.679941 -7.371961
57.753983 5.096222 -9.006922
57.160049 5.847872 -8.863856
57.644256 4.892524 -8.081101
44.243391 -36.04777 -0.619103
44.403035 -34.907448 0.364619
44.561212 -36.137491 0.323953
44.562382 -35.881757 -1.643316
44.243391 -36.04777 -0.619103
44.693325 -38.33936 2.508507
44.685793 -38.082476 3.5943
44.465288 -39.3729 2.734097
44.625849 -37.190416 2.401215
44.693325 -38.33936 2.508507
63.07699 -32.242647 12.249049
63.395361 -31.693104 11.21234
62.765676 -32.78982 13.193796
62.468837 -33.243677 14.168174
64.08041 -32.464314 12.606887
63.07699 -32.242647 12.249049
62.765676 -32.78982 13.193796
61.219305 -34.773747 16.673836
60.823406 -35.369535 17.60543
62.574209 -34.491787 15.971162
61.65115 -34.256943 15.948252
61.219305 -34.773747 16.673836
62.847759 -35.509993 16.875873
61.755283 -35.556553 17.560205
62.460678 -36.057955 17.739332
63.216324 -35.058714 16.066277
62.847759 -35.509993 16.875873
63.921718 -35.560116 16.245403
61.458348 -8.284166 -0.066905
61.67013 -9.448771 0.421019
62.573569 -8.648211 -0.128798
60.577269 -7.858337 0.141442
61.458348 -8.284166 -0.066905
61.480707 -7.057778 -0.408375
60.473642 -3.316261 -2.21805
59.490088 -3.3054 -2.480206
60.912994 -2.912566 -3.131285
60.473642 -3.316261 -2.21805
61.011442 -3.925995 -2.308994
45.440145 -24.190126 -9.207316
45.498385 -23.337642 -7.937199
45.487305 -24.505964 -7.994777
46.095297 -23.855981 -10.188911
45.440145 -24.190126 -9.207316
46.054259 -28.798299 -1.547858
46.548046 -29.110354 -0.59578
45.237573 -29.738782 -1.297442
45.356741 -28.391574 -2.381326
46.667214 -27.763146 -1.679664
46.054259 -28.798299 -1.547858
45.12039 -28.107466 -3.620178
45.356741 -28.391574 -2.381326
44.624773 -27.697429 -4.64933
45.474079 -26.946384 -3.542283
45.12039 -28.107466 -3.620178
44.889038 -27.437668 -5.847525
44.624773 -27.697429 -4.64933
44.80151 -27.133042 -7.026218
44.890934 -26.23172 -5.750129
44.889038 -27.437668 -5.847525
45.435727 -26.851686 -8.063752
44.80151 -27.133042 -7.026218
45.116236 -25.642771 -8.096858
45.435727 -26.851686 -8.063752
62.968754 -39.052874 20.070209
62.48946 -39.891108 19.94873
63.179743 -38.720959 19.253379
62.968754 -39.052874 20.070209
63.087208 -39.257967 18.180533
63.496027 -38.417361 18.3106
63.179743 -38.720959 19.253379
57.303364 -44.003403 19.229499
58.070692 -43.801285 19.564366
57.589562 -43.632689 18.211013
57.303364 -44.003403 19.229499
56.484654 -44.111097 18.940784
55.969141 -43.760555 17.638153
55.837828 -44.157137 18.494073
55.036118 -44.177309 18.209929
46.943422 -44.083634 15.427172
47.116799 -44.513685 16.075163
46.04854 -44.84176 15.658953
47.810629 -43.219293 15.173585
46.943422 -44.083634 15.427172
46.74237 -43.547369 14.757374
46.426153 -41.020088 11.692391
47.356486 -40.666424 12.195145
46.440018 -41.704541 12.4608
45.489466 -41.435154 11.230701
46.405934 -40.397037 10.965045
46.426153 -41.020088 11.692391
45.554505 -42.69141 12.745445
45.216648 -44.03828 12.738664
45.207956 -42.180248 10.458576
45.489466 -41.435154 11.230701
45.208669 -41.623718 9.690424
45.207956 -42.180248 10.458576
62.3274 -16.022355 2.885174
63.175581 -14.832174 2.617049
63.470806 -16.111144 3.279339
62.3274 -16.022355 2.885174
63.998161 -16.639519 3.080649
64.629543 -15.625998 2.580409
63.470806 -16.111144 3.279339
63.87944 -17.553138 3.764118
63.546203 -18.559261 4.283598
65.038177 -17.067993 3.065187
63.998161 -16.639519 3.080649
63.87944 -17.553138 3.764118
65.607483 -23.565613 4.405625
64.548073 -23.057704 5.004253
64.387993 -23.931792 5.116435
63.946993 -30.590922 9.053848
63.654085 -31.176814 10.145264
65.185562 -30.246862 8.396313
64.223383 -29.953222 7.922171
63.946993 -30.590922 9.053848
45.337412 -39.641582 7.044399
44.953484 -39.4989 6.055058
45.508284 -38.728651 6.728645
45.478953 -39.709551 8.075352
46.28178 -39.031801 8.662066
45.868521 -39.870018 9.019432
45.337412 -39.641582 7.044399
45.478953 -39.709551 8.075352
57.261857 -0.8409 -4.910949
57.100946 0.529547 -5.377724
56.59931 6.745271 -9.766941
57.160049 5.847872 -8.863856
56.59931 6.745271 -9.766941
56.629395 6.765259 -10.836211
55.39035 6.861513 -13.296588
56.089569 6.240061 -12.121379
55.490906 5.622625 -13.535222
55.39035 6.861513 -13.296588
54.808478 7.552335 -14.385957
52.272712 7.611682 -20.07656
53.106651 8.394773 -18.388798
52.936027 6.896116 -18.976018
52.272712 7.611682 -20.07656
51.199281 6.753971 -21.49437
47.563964 -22.758838 -12.301439
46.544943 -23.367539 -11.370902
47.146023 -21.49821 -12.661074
47.563964 -22.758838 -12.301439
46.412836 -20.699273 -11.592724
47.146023 -21.49821 -12.661074
47.290846 -17.581221 -13.053532
46.855776 -18.096294 -11.716041
47.3104 -16.251285 -13.181528
47.290846 -17.581221 -13.053532
48.055525 -14.999537 -13.248016
47.981521 -15.587211 -11.82684
47.3104 -16.251285 -13.181528
47.695082 -14.378121 -14.578141
48.005745 -13.777692 -15.879134
48.366203 -13.714049 -13.223453
48.055525 -14.999537 -13.248016
47.695082 -14.378121 -14.578141
49.283819 -1.342658 -22.205233
49.067059 -2.251852 -20.955201
49.504738 -0.040588 -21.701127
49.283819 -1.342658 -22.205233
50.590514 1.298791 -21.200522
50.686033 0.415657 -19.92863
49.504738 -0.040588 -21.701127
50.182676 2.09637 -22.341361
51.363972 2.552615 -20.568865
50.590514 1.298791 -21.200522
50.127928 2.932472 -23.488491
50.182676 2.09637 -22.341361
50.445176 4.232179 -22.583793
50.127928 2.932472 -23.488491
3 0 72 70
3 1 75 73
3 2 78 76
3 2 80 78
3 3 83 81
3 3 85 83
3 271 88 272
3 273 272 86
3 271 272 273
3 4 91 89
3 274 92 275
3 276 94 277
3 278 277 92
3 276 277 278
3 6 97 95
3 6 99 97
3 7 102 100
3 9 105 103
3 9 107 105
3 280 279 108
3 281 111 282
3 10 283 284
3 10 285 287
3 285 113 286
3 285 286 287
3 10 115 113
3 288 117 289
3 12 120 118
3 12 122 120
3 5 125 123
3 13 128 126
3 13 130 128
3 13 132 130
3 11 135 133
3 11 137 135
3 14 140 138
3 14 142 140
3 8 145 143
3 15 148 146
3 15 150 148
3 291 290 153
3 17 155 71
3 17 156 155
3 18 159 157
3 20 160 74
3 20 161 160
3 292 164 293
3 23 294 296
3 294 165 295
3 294 295 296
3 23 166 165
3 24 169 167
3 26 170 77
3 26 171 170
3 26 173 171
3 28 174 79
3 28 175 174
3 29 177 176
3 31 178 82
3 31 179 178
3 31 181 179
3 33 182 84
3 33 183 182
3 34 186 184
3 297 187 298
3 299 298 87
3 297 298 299
3 300 188 301
3 302 301 187
3 300 301 302
3 36 191 189
3 303 192 304
3 305 304 90
3 303 304 305
3 307 306 192
3 309 308 154
3 39 310 312
3 310 193 311
3 310 311 312
3 39 194 193
3 313 195 314
3 40 315 317
3 315 196 316
3 315 316 317
3 40 197 196
3 40 198 197
3 41 199 93
3 41 200 199
3 16 318 319
3 42 320 322
3 322 321 96
3 320 321 322
3 42 323 324
3 42 325 327
3 325 201 326
3 325 326 327
3 43 202 98
3 43 203 202
3 44 206 204
3 46 207 101
3 46 208 207
3 19 209 158
3 47 210 104
3 47 211 210
3 47 212 211
3 48 213 106
3 48 328 330
3 330 329 213
3 328 329 330
3 37 214 190
3 331 215 332
3 333 332 109
3 331 332 333
3 335 334 215
3 49 336 337
3 49 338 340
3 338 216 339
3 338 339 340
3 49 217 216
3 50 218 110
3 50 219 218
3 341 220 342
3 51 221 112
3 51 222 221
3 51 223 222
3 52 224 114
3 52 225 224
3 21 226 162
3 53 343 345
3 343 227 344
3 343 344 345
3 53 228 227
3 53 346 348
3 348 347 228
3 346 347 348
3 55 349 350
3 55 351 353
3 351 229 352
3 351 352 353
3 55 230 229
3 56 231 116
3 56 232 231
3 22 233 163
3 57 234 119
3 57 235 234
3 57 236 235
3 58 237 121
3 58 238 237
3 38 354 356
3 354 239 355
3 354 355 356
3 59 240 124
3 59 241 240
3 25 242 168
3 60 243 127
3 60 244 243
3 60 245 244
3 61 246 129
3 61 247 246
3 61 248 247
3 62 249 131
3 62 250 249
3 27 251 172
3 63 252 134
3 63 253 252
3 63 254 253
3 54 357 359
3 359 358 136
3 357 358 359
3 54 360 361
3 30 362 363
3 32 364 366
3 366 365 180
3 364 365 366
3 64 367 369
3 369 368 139
3 367 368 369
3 64 370 371
3 64 372 373
3 376 375 141
3 374 375 376
3 45 255 205
3 65 256 144
3 65 257 256
3 35 258 185
3 66 259 147
3 66 260 259
3 66 261 260
3 67 262 149
3 67 263 262
3 68 377 378
3 68 379 381
3 379 264 380
3 379 380 381
3 68 265 264
3 69 266 151
3 69 267 266
3 69 268 267
3 382 269 383
3 384 383 152
3 382 383 384
3 385 270 386
3 387 386 269
3 385 386 387
3 70 388 390
3 388 71 389
3 388 389 390
3 72 71 70
3 72 17 71
3 73 74 18
3 75 74 73
3 75 20 74
3 391 23 392
3 76 77 24
3 78 77 76
3 78 26 77
3 78 79 26
3 80 79 78
3 80 28 79
3 81 82 29
3 83 82 81
3 83 31 82
3 83 84 31
3 85 84 83
3 85 33 84
3 86 87 34
3 88 87 86
3 88 393 395
3 395 394 87
3 393 394 395
3 89 90 36
3 91 90 89
3 91 396 398
3 398 397 90
3 396 397 398
3 399 39 400
3 92 401 402
3 92 403 405
3 403 40 404
3 403 404 405
3 92 93 40
3 94 93 92
3 94 41 93
3 95 96 16
3 97 96 95
3 97 42 96
3 97 98 42
3 99 98 97
3 99 43 98
3 100 101 44
3 102 101 100
3 102 46 101
3 103 104 19
3 105 104 103
3 105 47 104
3 105 106 47
3 107 106 105
3 107 48 106
3 108 109 37
3 406 109 407
3 408 407 108
3 406 407 408
3 410 409 109
3 411 49 412
3 411 412 413
3 414 110 415
3 416 415 49
3 414 415 416
3 111 417 419
3 417 110 418
3 417 418 419
3 111 50 110
3 420 112 421
3 113 422 424
3 422 112 423
3 422 423 424
3 113 51 112
3 113 114 51
3 115 114 113
3 115 52 114
3 427 426 21
3 425 426 427
3 428 53 429
3 431 430 53
3 432 55 433
3 434 116 435
3 436 435 55
3 434 435 436
3 117 437 439
3 437 116 438
3 437 438 439
3 117 56 116
3 118 119 22
3 120 119 118
3 120 57 119
3 120 121 57
3 122 121 120
3 122 58 121
3 123 124 38
3 125 124 123
3 125 59 124
3 126 127 25
3 128 127 126
3 128 60 127
3 128 129 60
3 130 129 128
3 130 61 129
3 130 131 61
3 132 131 130
3 132 62 131
3 133 134 27
3 135 134 133
3 135 63 134
3 135 136 63
3 137 136 135
3 137 54 136
3 441 440 30
3 138 139 32
3 140 139 138
3 140 64 139
3 140 141 64
3 142 141 140
3 142 442 444
3 444 443 141
3 442 443 444
3 143 144 45
3 145 144 143
3 145 65 144
3 146 147 35
3 148 147 146
3 148 66 147
3 148 149 66
3 150 149 148
3 150 67 149
3 445 68 446
3 447 151 448
3 449 448 68
3 447 448 449
3 450 151 451
3 452 69 453
3 454 453 151
3 452 453 454
3 455 152 456
3 457 456 69
3 455 456 457
3 458 152 459
3 461 460 152
3 153 154 4
3 462 154 463
3 464 463 153
3 462 463 464
3 466 465 154
3 467 16 468
3 71 469 470
3 155 471 473
3 473 472 71
3 471 472 473
3 155 474 476
3 474 16 475
3 474 475 476
3 155 95 16
3 156 95 155
3 156 6 95
3 157 158 7
3 159 158 157
3 159 19 158
3 74 159 18
3 160 159 74
3 160 19 159
3 160 103 19
3 161 103 160
3 161 9 103
3 477 10 478
3 479 162 480
3 481 480 10
3 479 480 481
3 482 162 483
3 484 21 485
3 486 485 162
3 484 485 486
3 487 21 488
3 490 489 21
3 491 163 492
3 164 493 495
3 493 163 494
3 493 494 495
3 164 22 163
3 496 164 497
3 165 498 500
3 498 164 499
3 498 499 500
3 165 22 164
3 165 118 22
3 166 118 165
3 166 12 118
3 167 168 5
3 169 168 167
3 169 25 168
3 77 169 24
3 170 169 77
3 170 25 169
3 170 126 25
3 171 126 170
3 171 13 126
3 171 172 13
3 173 172 171
3 173 27 172
3 79 173 26
3 174 173 79
3 174 27 173
3 174 133 27
3 175 133 174
3 175 11 133
3 176 501 502
3 177 503 505
3 505 504 176
3 503 504 505
3 177 506 508
3 506 30 507
3 506 507 508
3 82 177 29
3 178 177 82
3 178 30 177
3 178 509 511
3 511 510 30
3 509 510 511
3 179 512 514
3 514 513 178
3 512 513 514
3 179 515 517
3 515 516 517
3 179 518 520
3 518 180 519
3 518 519 520
3 181 180 179
3 181 32 180
3 84 181 31
3 182 181 84
3 182 32 181
3 182 138 32
3 183 138 182
3 183 14 138
3 184 185 8
3 186 185 184
3 186 35 185
3 87 186 34
3 187 186 87
3 187 35 186
3 187 146 35
3 188 146 187
3 188 15 146
3 189 190 1
3 191 190 189
3 191 37 190
3 90 191 36
3 192 191 90
3 192 37 191
3 192 108 37
3 521 108 522
3 523 522 192
3 521 522 523
3 525 524 108
3 154 91 4
3 526 91 527
3 528 527 154
3 526 527 528
3 530 529 91
3 531 38 532
3 193 533 534
3 193 535 537
3 535 38 536
3 535 536 537
3 193 123 38
3 194 123 193
3 194 5 123
3 195 538 539
3 195 540 542
3 540 39 541
3 540 541 542
3 543 195 544
3 543 544 545
3 196 546 548
3 546 195 547
3 546 547 548
3 196 39 195
3 196 194 39
3 197 194 196
3 197 5 194
3 197 167 5
3 198 167 197
3 198 24 167
3 93 198 40
3 199 198 93
3 199 24 198
3 199 76 24
3 200 76 199
3 200 2 76
3 96 549 551
3 551 550 16
3 549 550 551
3 554 553 96
3 552 553 554
3 555 176 556
3 201 557 559
3 557 176 558
3 557 558 559
3 201 29 176
3 98 201 42
3 202 201 98
3 202 29 201
3 202 81 29
3 203 81 202
3 203 3 81
3 204 205 0
3 206 205 204
3 206 45 205
3 101 206 44
3 207 206 101
3 207 45 206
3 207 143 45
3 208 143 207
3 208 8 143
3 158 102 7
3 209 102 158
3 209 46 102
3 104 209 19
3 210 209 104
3 210 46 209
3 210 208 46
3 211 208 210
3 211 8 208
3 211 184 8
3 212 184 211
3 212 34 184
3 106 212 47
3 213 212 106
3 213 34 212
3 213 86 34
3 560 86 561
3 562 561 213
3 560 561 562
3 564 563 86
3 190 75 1
3 214 75 190
3 214 20 75
3 109 214 37
3 215 214 109
3 215 20 214
3 215 161 20
3 565 161 566
3 567 566 215
3 565 566 567
3 568 9 569
3 570 569 161
3 568 569 570
3 571 9 572
3 573 107 574
3 575 574 9
3 573 574 575
3 576 107 577
3 578 48 579
3 580 579 107
3 578 579 580
3 581 48 582
3 584 583 48
3 216 585 586
3 216 587 588
3 216 589 591
3 589 94 590
3 589 590 591
3 217 94 216
3 217 41 94
3 110 217 49
3 218 217 110
3 218 41 217
3 218 200 41
3 219 200 218
3 219 2 200
3 592 111 593
3 220 594 596
3 594 111 595
3 594 595 596
3 220 50 111
3 112 597 599
3 597 220 598
3 597 598 599
3 221 220 112
3 221 50 220
3 221 219 50
3 222 219 221
3 222 2 219
3 222 80 2
3 223 80 222
3 223 28 80
3 114 223 51
3 224 223 114
3 224 28 223
3 224 175 28
3 225 175 224
3 225 11 175
3 162 115 10
3 226 115 162
3 226 52 115
3 600 226 601
3 602 601 21
3 600 601 602
3 227 603 605
3 603 226 604
3 603 604 605
3 227 52 226
3 227 225 52
3 228 225 227
3 228 11 225
3 228 137 11
3 606 137 607
3 608 607 228
3 606 607 608
3 609 54 610
3 611 610 137
3 609 610 611
3 613 612 53
3 614 54 615
3 617 616 54
3 618 70 619
3 620 70 621
3 622 0 623
3 624 623 70
3 622 623 624
3 229 625 626
3 229 627 629
3 627 0 628
3 627 628 629
3 229 204 0
3 230 204 229
3 230 44 204
3 116 230 55
3 231 230 116
3 231 44 230
3 231 100 44
3 232 100 231
3 232 7 100
3 163 630 632
3 630 117 631
3 630 631 632
3 233 117 163
3 233 56 117
3 119 233 22
3 234 233 119
3 234 56 233
3 234 232 56
3 235 232 234
3 235 7 232
3 235 157 7
3 236 157 235
3 236 18 157
3 121 236 57
3 237 236 121
3 237 18 236
3 237 73 18
3 238 73 237
3 238 1 73
3 239 633 634
3 239 635 637
3 635 23 636
3 635 636 637
3 124 239 38
3 240 239 124
3 240 23 239
3 240 166 23
3 241 166 240
3 241 12 166
3 168 125 5
3 242 125 168
3 242 59 125
3 127 242 25
3 243 242 127
3 243 59 242
3 243 241 59
3 244 241 243
3 244 12 241
3 244 122 12
3 245 122 244
3 245 58 122
3 129 245 60
3 246 245 129
3 246 58 245
3 246 238 58
3 247 238 246
3 247 1 238
3 247 189 1
3 248 189 247
3 248 36 189
3 131 248 61
3 249 248 131
3 249 36 248
3 249 89 36
3 250 89 249
3 250 4 89
3 172 132 13
3 251 132 172
3 251 62 132
3 134 251 27
3 252 251 134
3 252 62 251
3 252 250 62
3 253 250 252
3 253 4 250
3 253 153 4
3 254 153 253
3 254 638 640
3 640 639 153
3 638 639 640
3 136 254 63
3 641 254 642
3 643 642 136
3 641 642 643
3 645 644 254
3 647 646 30
3 180 648 649
3 651 650 180
3 139 652 654
3 654 653 32
3 652 653 654
3 656 655 139
3 141 657 659
3 659 658 64
3 657 658 659
3 661 660 141
3 205 72 0
3 255 72 205
3 255 17 72
3 144 255 45
3 256 255 144
3 256 17 255
3 256 156 17
3 257 156 256
3 257 6 156
3 185 145 8
3 258 145 185
3 258 65 145
3 147 258 35
3 259 258 147
3 259 65 258
3 259 257 65
3 260 257 259
3 260 6 257
3 260 99 6
3 261 99 260
3 261 43 99
3 149 261 66
3 262 261 149
3 262 43 261
3 262 203 43
3 263 203 262
3 263 3 203
3 662 88 663
3 664 88 665
3 667 666 88
3 668 188 669
3 670 188 671
3 672 15 673
3 674 673 188
3 672 673 674
3 264 675 676
3 264 677 679
3 677 15 678
3 677 678 679
3 264 150 15
3 265 150 264
3 265 67 150
3 151 265 68
3 266 265 151
3 266 67 265
3 266 263 67
3 267 263 266
3 267 3 263
3 267 85 3
3 268 85 267
3 268 33 85
3 152 268 69
3 269 268 152
3 269 33 268
3 269 183 33
3 270 183 269
3 270 14 183
3 680 270 681
3 682 270 683
3 684 14 685
3 686 685 270
3 684 685 686
3 687 142 688
3 689 688 14
3 687 688 689
3 690 142 691
3 693 692 142
