ply
format ascii 1.0
element vertex 509
property float x
property float y
property float z
element face 542
property list uchar int vertex_index
end_header
-13.007599 -92.718796 3.052699
-13.87184 -79.567703 11.855423
-26.141449 -65.349472 2.988763
-11.367078 -87.239708 7.483241
-6.637514 -81.116821 3.384576
-5.444196 -90.029366 -3.465202
-15.128546 -98.286606 -3.66442
-8.650793 -96.571259 -11.04014
-14.692474 -67.7472 9.332532
-4.14795 -73.039108 11.444716
-15.673683 -74.496994 2.822464
-11.450212 -89.993729 3.842838
-10.847486 -87.757317 -0.404561
-10.612933 -91.094887 -2.760705
-16.66366 -75.624359 9.856702
-20.038004 -75.239731 5.368088
-15.371222 -78.577927 6.673853
-3.166572 -80.919395 1.089386
-3.763876 -75.771111 4.979537
-22.318096 -65.271339 0.274133
-12.376501 -83.745682 10.675071
-12.816043 -81.306259 5.752589
-11.966185 -84.19783 3.148693
-5.997573 -85.583969 -0.082086
-14.371346 -95.275681 0.060786
-11.60848 -94.306908 -5.641524
-13.520086 -96.514664 -8.335223
-22.657387 -66.951462 8.198689
-17.132416 -69.721298 7.56965
-12.861157 -72.203423 10.6392
-8.992738 -68.391289 8.914351
-8.605277 -76.441864 13.401297
-7.480002 -81.663712 11.606812
-6.092635 -87.589401 10.006448
-6.70751 -91.590919 5.565703
-24.420225 -70.112228 5.584447
-22.02804 -71.044411 2.108117
-14.826868 -68.907532 1.47991
-9.953967 -76.765701 4.704844
-7.84909 -70.964287 4.45343
-7.109939 -65.622177 3.917987
-5.282879 -94.071625 -9.128253
-12.276731 -91.386917 3.452316
-12.568644 -90.382736 0.632333
-12.853534 -91.287949 -0.220682
-15.073779 -77.353722 11.271312
-16.563992 -77.748917 8.722608
-15.061483 -79.448929 9.486538
-24.810205 -62.603668 1.126382
-24.744099 -65.511604 1.22487
-11.683153 -85.759781 9.515103
-13.046984 -84.656433 7.003543
-12.698435 -85.97908 5.214198
-8.156937 -88.766029 -2.291881
-8.402887 -86.610252 -0.845399
-5.554345 -87.814178 -1.928866
-3.947529 -85.764656 -1.581689
-3.726109 -88.165291 -4.001054
-14.928662 -96.629135 -1.643361
-15.445854 -94.96254 -4.726511
-16.14263 -96.223099 -6.775065
-17.922226 -67.880478 7.378655
-15.758352 -68.392723 6.806245
-14.898857 -70.811996 8.729053
-13.20739 -69.366142 7.221736
-6.395481 -70.067665 10.607791
-8.504532 -72.012505 11.489836
-6.290534 -74.450577 12.137205
-7.836928 -79.13018 12.096578
-5.610881 -77.787399 11.487091
-5.901086 -89.76899 7.439123
-8.462171 -98.179893 5.358418
-23.876625 -68.631241 7.248909
-22.598436 -71.47316 6.879309
-18.422884 -75.455704 3.668365
-21.158472 -73.558403 3.365398
-18.877306 -73.128586 2.234006
-19.051512 -70.37085 1.226037
-15.300558 -71.723099 1.968493
-9.987211 -80.743019 4.118034
-11.357311 -79.04776 5.092256
-8.022231 -78.661301 4.626543
-5.463149 -73.025894 5.440748
-4.342349 -69.608139 5.148807
-6.686376 -67.958099 4.634254
-4.754401 -66.965073 3.997068
-9.135399 -96.469849 -8.323496
-7.657793 -95.053864 -7.198526
-6.607305 -95.534134 -10.501005
-26.264837 -64.694229 5.225516
-10.938931 -88.494125 5.269846
-12.244917 -87.461945 3.206952
-12.214222 -88.895813 1.690666
-10.836229 -89.389053 -1.618795
-7.823238 -90.636047 -3.5316
-15.231367 -99.703194 -5.868963
-3.432523 -76.892426 11.955162
-18.412867 -73.872101 8.693693
-20.623795 -73.989891 6.924588
-18.56698 -75.939217 7.696349
-15.583521 -76.914101 4.262131
-4.100472 -81.55455 2.754107
-4.742234 -78.911812 4.274612
-3.138759 -78.568626 3.193074
-18.999233 -64.70723 0.237887
-13.060469 -81.634666 11.366282
-14.316127 -81.234901 9.063756
-13.562094 -82.881973 8.174153
-12.346716 -82.75753 4.755048
-9.421999 -82.594711 2.633332
-11.341673 -85.896042 1.283761
-8.910591 -84.542885 0.891183
-6.141728 -83.598923 1.805837
-3.979121 -83.431961 0.85466
-13.710558 -94.079071 1.781936
-13.762093 -92.670815 -1.815057
-14.649127 -93.778343 -3.24915
-12.685243 -95.271889 -6.730379
-10.596754 -97.329605 -9.534937
-12.102378 -97.976555 -11.577998
-10.459433 -96.985275 -11.942207
-19.124245 -68.586983 7.400726
-18.5847 -70.809006 8.406916
-16.675289 -72.364235 9.510074
-14.811122 -74.053711 11.001135
-13.070094 -75.922394 12.564558
-11.856455 -67.760422 8.645082
-10.876078 -70.563904 9.226956
-10.661901 -73.932861 12.699544
-11.498686 -78.245087 13.276949
-10.573668 -80.655815 12.45215
-9.883848 -82.942307 11.824121
-9.117693 -85.394348 11.198924
-5.353175 -80.81514 11.695637
-8.612194 -87.879791 9.204042
-8.463302 -89.172005 6.604791
-9.14962 -90.618217 4.989338
-10.076687 -92.387802 5.275918
-7.427587 -93.880798 6.174298
-11.077082 -94.67836 5.360728
-11.562288 -96.472305 4.131664
-11.821181 -97.747208 2.514522
-11.752586 -98.851753 -0.033277
-11.840626 -100.442078 -2.616121
-24.149687 -65.749649 7.882761
-25.406862 -67.029617 6.342843
-25.700542 -67.901451 4.131337
-22.494732 -73.063759 5.161771
-23.807926 -70.994179 3.562024
-24.659756 -68.314819 2.150446
-22.314692 -68.089622 0.963818
-19.030674 -67.578781 0.515958
-14.952934 -66.388931 1.260312
-13.898328 -79.954605 6.630502
-13.107016 -77.751572 4.979962
-12.403638 -75.30751 3.583083
-6.466496 -76.288231 4.974953
-8.723266 -74.034439 4.190972
-11.686026 -72.673233 3.01765
-10.755664 -69.834381 2.97434
-10.336507 -67.095963 3.09078
-11.021654 -64.831497 2.374598
-8.358895 -63.440605 2.715891
-10.515509 -92.627609 -4.237222
-7.289491 -93.139618 -5.405199
-4.931802 -92.51873 -5.844498
-3.887938 -90.386757 -6.604828
-26.107778 -63.901775 3.009913
-26.033984 -63.623069 4.059365
-25.442774 -65.430538 2.106816
-25.409102 -63.982842 2.127966
-26.107778 -63.901775 3.009913
-15.225413 -68.069962 8.069389
-16.49093 -68.057743 8.421922
-15.957991 -67.734982 9.685066
-5.271715 -71.553387 11.026253
-5.882981 -69.72773 11.556624
-4.759216 -71.213451 11.975086
-21.474239 -71.640927 7.377014
-22.254081 -70.54689 7.361244
-4.046458 -69.449264 4.348728
-3.788197 -70.921097 4.954581
-4.252484 -68.127732 3.772858
-4.548375 -68.286606 4.572938
-4.046458 -69.449264 4.348728
-4.908288 -66.863419 3.114314
-4.252484 -68.127732 3.772858
-25.695622 -64.251005 6.15929
-25.426231 -63.02348 5.980349
-16.271125 -99.941708 -9.230684
-15.950797 -99.39492 -8.217058
-15.551695 -100.249981 -6.882589
-16.526117 -77.846741 6.305763
-17.122502 -77.432236 7.33014
-15.967607 -78.163422 7.69823
-15.477372 -77.746014 5.467992
-16.632267 -77.014828 5.099901
-16.526117 -77.846741 6.305763
-22.539131 -63.83863 0.171541
-23.785186 -62.504795 0.597665
-23.564151 -63.937503 0.700257
-20.658665 -64.989284 0.25601
-20.8797 -63.556576 0.153418
-22.539131 -63.83863 0.171541
-3.639616 -84.328121 -1.408842
-3.55671 -85.406491 -2.77137
-12.107674 -97.57082 -12.567092
-12.823084 -98.034393 -12.668066
-12.82838 -97.628659 -13.65716
-11.286202 -97.07518 -12.749196
-11.280905 -97.480915 -11.760102
-12.107674 -97.57082 -12.567092
-11.142284 -96.154469 -12.121928
-11.286202 -97.07518 -12.749196
-10.217575 -68.103397 10.467958
-8.706792 -68.265465 10.361559
-10.424596 -68.075856 8.779716
-11.649434 -67.787964 10.333323
-10.217575 -68.103397 10.467958
-4.466335 -80.586029 12.130061
-4.392849 -78.853783 11.825399
-3.506009 -78.624672 12.259823
-6.553875 -86.106018 10.76454
-5.673117 -85.733139 10.76311
-7.352415 -87.734596 9.605245
-7.813655 -86.251213 10.363336
-6.553875 -86.106018 10.76454
-7.826355 -95.126037 6.358228
-6.45908 -94.639839 6.952285
-9.651103 -95.524819 5.951443
-9.252334 -94.279579 5.767513
-7.826355 -95.126037 6.358228
-9.893705 -96.421791 5.336911
-11.319685 -95.575333 4.746196
-9.651103 -95.524819 5.951443
-10.225378 -98.737042 3.025157
-10.141676 -97.96355 3.93647
-8.545873 -98.953384 4.447106
-10.191081 -99.289314 1.751258
-11.786884 -98.299481 1.240622
-10.225378 -98.737042 3.025157
-11.048952 -101.210316 -1.947618
-10.442902 -100.605369 -0.895769
-12.505776 -101.093697 -3.546056
-11.048952 -101.210316 -1.947618
-23.403537 -66.350556 8.040725
-23.286498 -65.048245 8.041959
-22.540348 -65.649151 8.199923
-4.191047 -89.936402 -8.358171
-4.056816 -91.090847 -8.375587
-3.758254 -88.990094 -6.907399
-4.191047 -89.936402 -8.358171
-3.358173 -79.452072 1.03764
-3.573415 -80.547477 -0.013684
-25.442155 -62.528874 2.078723
-24.984843 -61.029902 2.066509
-24.777152 -64.057636 1.175626
-25.442155 -62.528874 2.078723
-25.409102 -63.982842 2.127966
-3.446 -86.606808 -3.981053
-3.55671 -85.406491 -2.77137
-3.836819 -86.964973 -2.791371
-17.572866 -67.80162 8.708127
-18.881872 -67.249904 9.302175
-16.840289 -68.136601 7.09245
-17.572866 -67.80162 8.708127
-16.49093 -68.057743 8.421922
-7.408164 -69.103653 11.208279
-5.882981 -69.72773 11.556624
-7.694109 -69.229477 9.761071
-8.706792 -68.265465 10.361559
-7.408164 -69.103653 11.208279
-5.188569 -87.242508 10.171553
-5.673117 -85.733139 10.76311
-5.092795 -88.332302 8.88789
-5.996861 -88.679195 8.722786
-5.188569 -87.242508 10.171553
-4.771104 -89.604836 7.913922
-5.092795 -88.332302 8.88789
-5.174316 -90.5158 6.977212
-6.304298 -90.679955 6.502413
-4.771104 -89.604836 7.913922
-7.250043 -97.997799 6.308171
-8.343647 -97.275585 5.950288
-7.278449 -98.787754 5.850955
-7.250043 -97.997799 6.308171
-6.066321 -98.60566 6.800707
-8.545873 -98.953384 4.447106
-7.278449 -98.787754 5.850955
-22.893176 -69.125931 7.546045
-23.267006 -67.791352 7.723799
-22.283557 -68.286042 8.020934
-23.23753 -70.0522 7.064109
-22.893176 -69.125931 7.546045
-22.254081 -70.54689 7.361244
-4.348598 -72.629975 5.100551
-4.613512 -74.398503 5.210142
-3.498961 -74.002583 4.869946
-4.902749 -71.317016 5.294778
-4.348598 -72.629975 5.100551
-3.788197 -70.921097 4.954581
-5.458004 -65.872108 3.415375
-6.635773 -65.20066 3.375834
-5.93217 -66.293625 3.957528
-5.458004 -65.872108 3.415375
-4.908288 -66.863419 3.114314
-26.095678 -63.295448 5.177741
-25.426231 -63.02348 5.980349
-26.203143 -65.02185 4.107139
-26.033984 -63.623069 4.059365
-26.095678 -63.295448 5.177741
-15.983695 -98.712955 -7.290026
-15.932284 -98.004661 -6.187754
-15.179956 -98.9949 -4.766692
-15.983695 -98.712955 -7.290026
-15.950797 -99.39492 -8.217058
-15.98903 -67.342812 11.032587
-15.957991 -67.734982 9.685066
-3.651944 -72.777092 12.338207
-4.759216 -71.213451 11.975086
-3.294231 -74.703751 12.593429
-3.790236 -74.965767 11.699939
-3.651944 -72.777092 12.338207
-3.060919 -76.684289 12.997468
-3.294231 -74.703751 12.593429
-3.506009 -78.624672 12.259823
-3.060919 -76.684289 12.997468
-19.518331 -73.930996 7.80914
-20.486919 -72.899292 7.399653
-19.381454 -72.840397 8.284205
-18.123997 -76.527386 6.817011
-17.565486 -76.844067 8.209478
-17.122502 -77.432236 7.33014
-18.859509 -76.177643 5.65288
-19.302492 -75.589474 6.532218
-18.123997 -76.527386 6.817011
-18.051949 -76.285629 4.803019
-19.230444 -75.347718 4.518226
-18.859509 -76.177643 5.65288
-17.003203 -76.184902 3.965248
-18.051949 -76.285629 4.803019
-16.632267 -77.014828 5.099901
-3.344267 -78.276687 2.089485
-3.152665 -79.744011 2.14123
-3.358173 -79.452072 1.03764
-3.162279 -76.915515 3.182186
-3.344267 -78.276687 2.089485
-3.474838 -75.516758 4.075418
-3.451318 -77.169869 4.086305
-3.162279 -76.915515 3.182186
-3.498961 -74.002583 4.869946
-3.474838 -75.516758 4.075418
-8.19765 -95.522309 -11.557547
-9.303995 -95.980618 -11.398286
-24.655946 -61.071787 1.099283
-24.984843 -61.029902 2.066509
-23.630927 -60.972914 0.570566
-24.655946 -61.071787 1.099283
-23.785186 -62.504795 0.597665
-19.483285 -63.378773 0.027395
-20.8797 -63.556576 0.153418
-17.062459 -64.304665 0.472193
-19.483285 -63.378773 0.027395
-3.655413 -83.161774 -0.190668
-3.963325 -84.598309 -0.363514
-3.639616 -84.328121 -1.408842
-3.249138 -81.90549 -0.073305
-3.572846 -82.175678 0.972023
-3.655413 -83.161774 -0.190668
-3.573415 -80.547477 -0.013684
-3.249138 -81.90549 -0.073305
-16.439326 -96.972908 -7.743076
-15.635588 -97.254852 -5.219742
-15.932284 -98.004661 -6.187754
-15.235347 -96.899739 -8.648559
-16.439326 -96.972908 -7.743076
-13.924075 -97.045521 -9.428638
-14.831358 -96.368882 -7.555144
-15.235347 -96.899739 -8.648559
-13.215221 -97.776466 -11.050025
-13.935927 -97.834305 -12.140093
-12.823084 -98.034393 -12.668066
-12.811232 -97.24561 -9.956611
-13.924075 -97.045521 -9.428638
-13.215221 -97.776466 -11.050025
-10.208315 -96.187626 -11.84932
-9.303995 -95.980618 -11.398286
-9.555113 -96.778267 -11.491173
-10.891165 -95.35682 -12.029041
-10.208315 -96.187626 -11.84932
-11.142284 -96.154469 -12.121928
-21.981735 -65.708386 8.219693
-22.540348 -65.649151 8.199923
-22.084606 -66.975018 8.131742
-21.981735 -65.708386 8.219693
-22.283557 -68.286042 8.020934
-22.084606 -66.975018 8.131742
-18.951889 -67.39061 8.119585
-18.881872 -67.249904 9.302175
-19.552898 -67.743863 8.13062
-18.951889 -67.39061 8.119585
-18.523235 -68.233731 7.389691
-19.824433 -67.692089 7.514109
-20.253086 -66.848968 8.244003
-19.552898 -67.743863 8.13062
-19.729098 -68.876591 7.790063
-19.824433 -67.692089 7.514109
-19.459326 -69.987603 8.293158
-19.729098 -68.876591 7.790063
-18.854472 -69.697994 7.903821
-19.467371 -71.30885 8.140817
-19.459326 -69.987603 8.293158
-18.498784 -72.340553 8.550304
-19.381454 -72.840397 8.284205
-19.467371 -71.30885 8.140817
-14.537242 -67.470524 10.907981
-15.98903 -67.342812 11.032587
-13.119232 -67.477135 10.564256
-11.649434 -67.787964 10.333323
-13.274465 -67.753811 8.988807
-14.537242 -67.470524 10.907981
-13.119232 -67.477135 10.564256
-5.303387 -82.346008 11.607705
-4.466335 -80.586029 12.130061
-6.184145 -82.718887 11.609134
-5.303387 -82.346008 11.607705
-7.247559 -83.143174 11.564722
-6.416588 -81.239426 11.651224
-6.184145 -82.718887 11.609134
-8.066404 -85.008491 11.360778
-8.298847 -83.52903 11.402868
-7.247559 -83.143174 11.564722
-8.864943 -86.637069 10.201483
-8.066404 -85.008491 11.360778
-7.813655 -86.251213 10.363336
-5.641796 -92.201504 6.3441
-5.174316 -90.5158 6.977212
-6.001835 -93.346443 6.648397
-6.45908 -94.639839 6.952285
-7.067549 -92.735859 5.87
-5.641796 -92.201504 6.3441
-6.001835 -93.346443 6.648397
-10.01223 -97.326099 4.745041
-9.893705 -96.421791 5.336911
-8.343647 -97.275585 5.950288
-10.398882 -99.810207 0.395653
-10.191081 -99.289314 1.751258
-11.796606 -99.646916 -1.324699
-10.398882 -99.810207 0.395653
-10.442902 -100.605369 -0.895769
-14.201147 -100.724255 -5.172477
-13.535996 -100.072636 -4.242542
-12.505776 -101.093697 -3.546056
-15.551695 -100.249981 -6.882589
-14.201147 -100.724255 -5.172477
-23.622383 -64.344683 7.828791
-23.286498 -65.048245 8.041959
-24.638047 -64.778715 7.487913
-23.622383 -64.344683 7.828791
-25.266635 -65.418699 6.717954
-24.638047 -64.778715 7.487913
-24.778275 -66.389633 7.112802
-25.83585 -65.861923 5.78418
-25.695622 -64.251005 6.15929
-25.266635 -65.418699 6.717954
-21.611116 -72.731526 6.901948
-21.474239 -71.640927 7.377014
-20.486919 -72.899292 7.399653
-15.03931 -65.145516 0.983406
-17.062459 -64.304665 0.472193
-16.976084 -65.54808 0.7491
-13.07367 -64.366799 1.540549
-15.03931 -65.145516 0.983406
-12.987294 -65.610214 1.817455
-11.348899 -63.724529 1.725734
-13.07367 -64.366799 1.540549
-10.01752 -63.029083 1.896381
-11.348899 -63.724529 1.725734
-9.690275 -64.136051 2.545244
-9.032205 -62.100387 1.907659
-10.01752 -63.029083 1.896381
-7.260252 -64.109875 2.774787
-7.734417 -64.531391 3.316939
-6.635773 -65.20066 3.375834
-8.038701 -62.945099 2.098563
-7.260252 -64.109875 2.774787
-9.032205 -62.100387 1.907659
-8.038701 -62.945099 2.098563
-7.175906 -95.003746 -11.287979
-7.629049 -96.052696 -10.770573
-8.19765 -95.522309 -11.557547
-6.282489 -94.307598 -11.376188
-7.175906 -95.003746 -11.287979
-5.620276 -93.576344 -10.689812
-5.945092 -94.802879 -9.814629
-6.282489 -94.307598 -11.376188
-4.754287 -92.933281 -9.6373
-5.620276 -93.576344 -10.689812
-4.578748 -92.156834 -7.995422
-5.107341 -93.295177 -7.486376
-4.754287 -92.933281 -9.6373
-4.40987 -91.452743 -6.224663
-4.578748 -92.156834 -7.995422
-4.056816 -91.090847 -8.375587
-3.677339 -87.87936 -5.605512
-3.807024 -89.276024 -5.302941
-3.758254 -88.990094 -6.907399
-3.446 -86.606808 -3.981053
-3.677339 -87.87936 -5.605512
3 0 44 42
3 1 47 45
3 2 167 168
3 2 169 171
3 169 49 170
3 169 170 171
3 3 52 50
3 5 55 53
3 5 57 55
3 6 60 58
3 8 172 174
3 172 62 173
3 172 173 174
3 8 64 62
3 9 175 177
3 175 65 176
3 175 176 177
3 9 67 65
3 9 69 67
3 178 73 179
3 10 76 74
3 10 78 76
3 4 81 79
3 180 83 181
3 182 85 183
3 184 183 83
3 182 183 184
3 186 185 85
3 7 88 86
3 187 89 188
3 11 92 90
3 13 93 43
3 13 94 93
3 191 190 95
3 189 190 191
3 14 99 97
3 16 192 194
3 194 193 46
3 192 193 194
3 16 195 197
3 195 100 196
3 195 196 197
3 17 103 101
3 19 198 200
3 200 199 48
3 198 199 200
3 19 201 203
3 201 104 202
3 201 202 203
3 20 107 105
3 22 108 51
3 22 109 108
3 12 110 91
3 23 111 54
3 23 112 111
3 23 113 112
3 205 204 56
3 24 116 114
3 26 117 59
3 26 118 117
3 206 119 207
3 206 207 208
3 209 120 210
3 211 210 119
3 209 210 211
3 213 212 120
3 28 121 61
3 28 122 121
3 28 123 122
3 29 124 63
3 29 125 124
3 30 214 215
3 30 216 218
3 216 126 217
3 216 217 218
3 30 127 126
3 31 128 66
3 31 129 128
3 31 130 129
3 32 131 68
3 32 132 131
3 219 133 220
3 221 220 96
3 219 220 221
3 33 222 223
3 33 224 226
3 224 134 225
3 224 225 226
3 33 135 134
3 34 136 70
3 34 137 136
3 227 138 228
3 229 139 230
3 231 230 138
3 229 230 231
3 232 140 233
3 234 233 139
3 232 233 234
3 235 141 236
3 237 236 71
3 235 236 237
3 238 142 239
3 240 239 141
3 238 239 240
3 241 143 242
3 244 243 143
3 27 245 247
3 245 144 246
3 245 246 247
3 35 145 72
3 35 146 145
3 15 147 98
3 36 148 75
3 36 149 148
3 36 150 149
3 37 151 77
3 37 152 151
3 21 153 106
3 38 154 80
3 38 155 154
3 18 156 102
3 39 157 82
3 39 158 157
3 39 159 158
3 40 160 84
3 40 161 160
3 40 162 161
3 25 163 115
3 41 164 87
3 41 165 164
3 248 166 249
3 251 250 166
3 42 43 11
3 44 43 42
3 44 13 43
3 45 46 14
3 47 46 45
3 47 16 46
3 253 252 17
3 254 48 255
3 49 256 258
3 256 48 257
3 256 257 258
3 49 19 48
3 50 51 20
3 52 51 50
3 52 22 51
3 53 54 12
3 55 54 53
3 55 23 54
3 55 56 23
3 57 56 55
3 57 259 261
3 261 260 56
3 259 260 261
3 58 59 24
3 60 59 58
3 60 26 59
3 262 61 263
3 62 264 266
3 264 61 265
3 264 265 266
3 62 28 61
3 62 63 28
3 64 63 62
3 64 29 63
3 65 267 268
3 65 269 271
3 269 30 270
3 269 270 271
3 65 66 30
3 67 66 65
3 67 31 66
3 67 68 31
3 69 68 67
3 69 32 68
3 272 33 273
3 274 70 275
3 276 275 33
3 274 275 276
3 277 70 278
3 279 34 280
3 281 280 70
3 279 280 281
3 282 71 283
3 284 71 285
3 284 285 286
3 288 287 71
3 289 72 290
3 291 290 27
3 289 290 291
3 73 292 294
3 292 72 293
3 292 293 294
3 73 35 72
3 74 75 15
3 76 75 74
3 76 36 75
3 76 77 36
3 78 77 76
3 78 37 77
3 79 80 21
3 81 80 79
3 81 38 80
3 295 82 296
3 297 296 18
3 295 296 297
3 83 298 300
3 298 82 299
3 298 299 300
3 83 39 82
3 83 84 39
3 85 84 83
3 85 40 84
3 85 301 303
3 303 302 40
3 301 302 303
3 305 304 85
3 86 87 25
3 88 87 86
3 88 41 87
3 89 306 307
3 89 308 310
3 308 2 309
3 308 309 310
3 90 91 3
3 92 91 90
3 92 12 91
3 43 92 11
3 93 92 43
3 93 12 92
3 93 53 12
3 94 53 93
3 94 5 53
3 95 311 313
3 313 312 6
3 311 312 313
3 315 314 95
3 316 8 317
3 318 9 319
3 320 96 321
3 322 321 9
3 320 321 322
3 323 96 324
3 326 325 96
3 97 327 329
3 327 98 328
3 327 328 329
3 99 98 97
3 99 15 98
3 46 99 14
3 330 99 331
3 332 331 46
3 330 331 332
3 333 15 334
3 335 334 99
3 333 334 335
3 336 74 337
3 338 337 15
3 336 337 338
3 100 339 341
3 339 74 340
3 339 340 341
3 100 10 74
3 101 102 4
3 103 102 101
3 103 18 102
3 342 103 343
3 344 343 17
3 342 343 344
3 345 103 346
3 347 18 348
3 349 348 103
3 347 348 349
3 351 350 18
3 353 352 7
3 48 354 355
3 358 357 48
3 356 357 358
3 104 359 360
3 104 361 362
3 105 106 1
3 107 106 105
3 107 21 106
3 51 107 20
3 108 107 51
3 108 21 107
3 108 79 21
3 109 79 108
3 109 4 79
3 91 52 3
3 110 52 91
3 110 22 52
3 54 110 12
3 111 110 54
3 111 22 110
3 111 109 22
3 112 109 111
3 112 4 109
3 112 101 4
3 113 101 112
3 113 17 101
3 56 113 23
3 363 113 364
3 365 364 56
3 363 364 365
3 366 17 367
3 368 367 113
3 366 367 368
3 370 369 17
3 114 115 0
3 116 115 114
3 116 25 115
3 59 116 24
3 117 116 59
3 117 25 116
3 117 86 25
3 118 86 117
3 118 7 86
3 371 60 372
3 373 372 6
3 371 372 373
3 374 60 375
3 376 26 377
3 378 377 60
3 376 377 378
3 119 379 381
3 379 380 381
3 119 382 384
3 382 26 383
3 382 383 384
3 119 118 26
3 120 118 119
3 120 7 118
3 120 385 387
3 387 386 7
3 385 386 387
3 390 389 120
3 388 389 390
3 391 27 392
3 393 27 394
3 396 395 27
3 61 397 398
3 121 399 401
3 401 400 61
3 399 400 401
3 121 402 404
3 402 403 404
3 121 405 406
3 122 407 409
3 409 408 121
3 407 408 409
3 122 410 411
3 122 412 414
3 412 97 413
3 412 413 414
3 123 97 122
3 123 14 97
3 63 123 28
3 124 123 63
3 124 14 123
3 124 45 14
3 125 45 124
3 125 1 45
3 415 8 416
3 126 417 418
3 126 419 421
3 419 8 420
3 419 420 421
3 126 64 8
3 127 64 126
3 127 29 64
3 66 127 30
3 128 127 66
3 128 29 127
3 128 125 29
3 129 125 128
3 129 1 125
3 129 105 1
3 130 105 129
3 130 20 105
3 68 130 31
3 131 130 68
3 131 20 130
3 131 50 20
3 132 50 131
3 132 3 50
3 96 69 9
3 133 69 96
3 133 32 69
3 422 133 423
3 424 133 425
3 426 32 427
3 428 427 133
3 426 427 428
3 429 132 430
3 431 430 32
3 429 430 431
3 134 432 434
3 432 132 433
3 432 433 434
3 134 3 132
3 134 90 3
3 135 90 134
3 135 11 90
3 70 135 33
3 136 135 70
3 136 11 135
3 136 42 11
3 137 42 136
3 137 0 42
3 435 34 436
3 138 437 438
3 138 439 441
3 439 34 440
3 439 440 441
3 138 137 34
3 139 137 138
3 139 0 137
3 139 114 0
3 140 114 139
3 140 24 114
3 71 442 444
3 442 140 443
3 442 443 444
3 141 140 71
3 141 24 140
3 141 58 24
3 142 58 141
3 142 6 58
3 445 142 446
3 143 447 449
3 447 142 448
3 447 448 449
3 143 6 142
3 143 95 6
3 450 95 451
3 452 451 143
3 450 451 452
3 454 453 95
3 144 455 456
3 144 457 458
3 72 144 27
3 145 144 72
3 145 459 461
3 461 460 144
3 459 460 461
3 145 462 464
3 462 89 463
3 462 463 464
3 146 89 145
3 146 2 89
3 98 465 467
3 465 73 466
3 465 466 467
3 147 73 98
3 147 35 73
3 75 147 15
3 148 147 75
3 148 35 147
3 148 146 35
3 149 146 148
3 149 2 146
3 149 49 2
3 150 49 149
3 150 19 49
3 77 150 36
3 151 150 77
3 151 19 150
3 151 104 19
3 152 104 151
3 152 468 470
3 470 469 104
3 468 469 470
3 106 47 1
3 153 47 106
3 153 16 47
3 80 153 21
3 154 153 80
3 154 16 153
3 154 100 16
3 155 100 154
3 155 10 100
3 102 81 4
3 156 81 102
3 156 38 81
3 82 156 18
3 157 156 82
3 157 38 156
3 157 155 38
3 158 155 157
3 158 10 155
3 158 78 10
3 159 78 158
3 159 37 78
3 84 159 39
3 160 159 84
3 160 37 159
3 160 152 37
3 161 152 160
3 161 471 473
3 473 472 152
3 471 472 473
3 161 474 475
3 162 476 478
3 478 477 161
3 476 477 478
3 162 479 480
3 481 162 482
3 483 482 40
3 481 482 483
3 484 162 485
3 487 486 162
3 115 44 0
3 163 44 115
3 163 13 44
3 87 163 25
3 164 163 87
3 164 13 163
3 164 94 13
3 165 94 164
3 165 5 94
3 488 88 489
3 490 489 7
3 488 489 490
3 491 88 492
3 493 41 494
3 495 494 88
3 493 494 495
3 496 41 497
3 498 165 499
3 500 499 41
3 498 499 500
3 166 501 503
3 501 165 502
3 501 502 503
3 166 5 165
3 166 57 5
3 504 57 505
3 506 505 166
3 504 505 506
3 508 507 57
