ply
format ascii 1.0
element vertex 345
property float x
property float y
property float z
element face 360
property list uchar int vertex_index
end_header
-26.812128 6.137237 -35.881371
-43.848503 12.565462 -25.575697
-35.010441 13.263557 -34.421978
-38.947948 13.866022 -36.322704
-30.371887 8.690527 -39.230827
-48.584728 11.736986 -23.995401
-29.579212 10.56983 -35.577923
-29.97497 14.909136 -38.375053
-26.176006 9.454101 -39.557098
-27.979465 5.045961 -41.390205
-25.126413 4.293904 -38.805893
-49.630341 12.823126 -18.145407
-46.604515 15.725087 -24.205622
-36.933983 6.205673 -36.128273
-42.893211 8.061566 -37.081295
-39.686268 13.967183 -30.18166
-41.874199 17.685726 -30.269558
-36.17297 17.581215 -35.497337
-33.70668 12.795405 -38.923996
-34.375221 4.035792 -38.831215
-32.478645 2.479408 -41.088203
-38.542973 8.634268 -30.229883
-34.650486 7.466402 -32.538185
-30.534054 4.778882 -32.299599
-51.756012 8.394444 -13.236914
-52.771801 10.222572 -17.333084
-43.822243 13.260622 -30.397167
-27.500452 8.597174 -35.829147
-26.750275 11.00804 -37.565453
-25.595951 8.197855 -38.127239
-25.381744 6.931567 -39.687733
-25.540157 5.482764 -37.524734
-45.508873 10.47281 -23.079475
-46.607296 13.499639 -22.039759
-44.937061 15.099066 -24.746582
-37.447487 13.833845 -32.627052
-37.836998 16.921013 -32.695004
-35.005493 16.394722 -34.980282
-29.615545 12.509183 -39.811733
-31.801926 14.741017 -39.171303
-31.980701 11.072918 -39.505569
-33.81942 8.54778 -38.612671
-32.431957 6.711237 -38.619286
-31.171677 5.070086 -39.081329
-27.148342 3.68485 -41.829346
-29.508356 2.896236 -42.240967
-40.37711 8.494689 -28.45927
-36.008156 5.803843 -30.400553
-34.116894 4.99853 -30.808151
-32.410339 6.403037 -32.74757
-32.287758 3.834415 -30.322529
-49.796059 13.594734 -20.40307
-51.379322 12.2177 -17.374546
-50.565624 11.065125 -20.743929
-48.151695 8.318901 -24.349905
-40.508442 16.822834 -33.214069
-43.476784 16.296009 -30.269842
-41.460533 13.790622 -33.493111
-45.169762 8.484137 -34.821938
-48.062904 6.491298 -34.744293
-32.159096 12.211708 -35.405022
-31.77739 15.254474 -36.507271
-28.973776 13.521891 -37.091274
-27.65485 12.329234 -39.061195
-27.996658 9.685989 -39.969822
-28.872599 6.61068 -39.777767
-26.790264 7.520041 -40.522469
-25.881464 5.257655 -40.878159
-25.552649 3.040447 -39.69648
-49.202293 8.926926 -17.418365
-48.083477 11.438326 -19.544687
-48.247936 14.461607 -20.919653
-48.17234 14.581698 -23.656752
-37.859486 10.162798 -37.08976
-40.660332 10.534163 -36.682026
-39.941433 7.21565 -36.330891
-41.86628 13.620952 -27.957952
-42.843876 16.286037 -27.568045
-40.320671 16.966358 -30.058277
-38.94978 17.957432 -32.934105
-37.684593 16.606472 -35.935192
-32.856709 16.744175 -37.333767
-34.606133 16.318764 -37.890472
-36.296467 13.735797 -37.967701
-35.275429 9.494074 -37.74017
-35.42725 5.158891 -37.692158
-32.842659 0.6329 -43.135738
-30.360586 3.780222 -40.690025
-31.525156 1.735826 -42.040962
-43.122871 9.983 -26.263605
-41.137901 11.11717 -28.363489
-39.181908 11.254496 -30.460714
-37.099823 11.014653 -32.400604
-37.684669 6.141639 -29.27116
-36.660648 8.36391 -31.726154
-34.790592 10.39145 -33.781731
-32.314785 9.234205 -34.298653
-30.038055 7.737559 -34.299419
-28.525097 5.759043 -34.103226
-28.029978 2.987015 -32.220467
-26.593212 2.990541 -34.080975
-25.671259 2.474619 -35.322834
-53.582466 8.688316 -12.102585
-50.815174 10.942293 -15.517576
-52.746803 10.804741 -14.458593
-44.566521 16.656992 -27.231201
-46.081303 15.525406 -27.135319
-46.108204 12.372787 -27.22138
-42.922138 10.624497 -34.408134
-43.738785 9.54888 -30.783314
-45.615334 8.786947 -27.421219
-27.860295 1.780021 -40.913568
-27.950214 2.652249 -41.95021
-27.058424 2.812622 -40.792704
-33.816772 4.049581 -29.376463
-34.637468 4.336819 -29.499517
-32.902204 3.467523 -29.133652
-33.202326 4.416472 -30.56534
-33.816772 4.049581 -29.376463
-47.961382 4.840574 -34.514311
-46.688373 6.053862 -35.433944
-49.436037 5.204113 -34.112341
-47.961382 4.840574 -34.514311
-47.479219 9.899134 -20.303913
-48.05881 8.653579 -19.35631
-35.583929 2.896564 -39.12339
-36.109943 3.458114 -38.553861
-34.901235 4.597341 -38.261686
-34.976503 2.739034 -39.974243
-35.583929 2.896564 -39.12339
-33.300315 1.794503 -41.789497
-32.901323 2.765052 -40.437387
-32.660652 1.556154 -42.11197
-33.482322 0.871249 -42.813265
-33.300315 1.794503 -41.789497
-31.081982 1.173422 -42.099136
-30.516756 2.316031 -42.140964
-30.073583 1.753626 -42.199139
-31.72691 0.560497 -42.155689
-31.081982 1.173422 -42.099136
-42.699226 8.782749 -26.498297
-43.460769 7.90832 -25.566938
-41.706741 9.349834 -27.54824
-42.130386 10.550085 -27.313547
-42.699226 8.782749 -26.498297
-37.19577 5.070196 -28.517001
-37.949751 4.974921 -28.020889
-28.356361 2.135296 -29.975323
-28.817372 2.826763 -31.303869
-26.036452 1.747376 -32.353143
-26.7871 1.995244 -31.586017
-25.575475 1.489416 -32.974072
-26.132236 2.73258 -34.701904
-26.036452 1.747376 -32.353143
-51.845343 6.771546 -12.329937
-51.143696 5.592558 -13.330436
-52.669239 8.54138 -12.669749
-52.758569 6.918482 -11.762772
-51.845343 6.771546 -12.329937
-53.436457 9.552027 -15.862866
-53.423958 9.843112 -14.425621
-52.759302 10.513656 -15.895838
-52.759569 8.503946 -17.947508
-53.436457 9.552027 -15.862866
-44.801649 8.241744 -31.298724
-44.454273 9.016509 -32.802626
-45.517138 7.709373 -33.318036
-45.739924 7.860777 -29.617676
-44.677059 9.167914 -29.102266
-44.801649 8.241744 -31.298724
-45.940989 7.1845 -28.004935
-45.739924 7.860777 -29.617676
-46.058084 11.986225 -22.559617
-46.741129 10.929791 -21.551449
-46.191918 9.416377 -22.071307
-38.210884 4.754436 -35.648739
-37.235791 4.249197 -36.584021
-32.877979 4.880966 -39.202929
-33.849611 3.543244 -39.308893
-33.403589 5.373514 -38.725251
-32.247839 4.060391 -39.43395
-32.877979 4.880966 -39.202929
-31.801817 5.890662 -38.850307
-31.825161 3.774747 -40.084766
-32.901323 2.765052 -40.437387
-32.247839 4.060391 -39.43395
-29.130221 2.257942 -42.156021
-28.328349 3.290543 -42.035156
-27.950214 2.652249 -41.95021
-30.073583 1.753626 -42.199139
-29.130221 2.257942 -42.156021
-40.730448 6.825303 -27.538131
-41.326346 8.038593 -27.59613
-39.8972 7.301054 -28.19701
-40.730448 6.825303 -27.538131
-38.980131 7.370843 -29.082317
-39.460042 8.564478 -29.344577
-39.8972 7.301054 -28.19701
-35.5831 4.739476 -29.295718
-36.357513 4.901298 -29.081697
-35.062525 5.401186 -30.604352
-35.5831 4.739476 -29.295718
-34.637468 4.336819 -29.499517
-51.032821 7.179369 -14.307416
-51.143696 5.592558 -13.330436
-50.456709 9.438809 -20.964553
-51.559798 9.017532 -19.25913
-51.668712 10.643849 -19.038507
-49.249744 8.065697 -22.767541
-50.456709 9.438809 -20.964553
-49.35866 9.692013 -22.546917
-47.936142 6.642093 -24.725988
-49.249744 8.065697 -22.767541
-45.241802 7.050282 -35.472767
-44.031486 8.272851 -35.951617
-44.103527 6.838996 -36.602446
-46.616333 7.487718 -34.783116
-45.241802 7.050282 -35.472767
-46.688373 6.053862 -35.433944
-46.963709 6.712953 -33.279213
-45.517138 7.709373 -33.318036
-46.616333 7.487718 -34.783116
-48.705799 6.036124 -33.254033
-46.963709 6.712953 -33.279213
-48.705799 6.036124 -33.254033
-49.436037 5.204113 -34.112341
-26.260578 2.49042 -39.726271
-27.058424 2.812622 -40.792704
-26.350496 3.362648 -40.762913
-48.618218 7.397879 -18.293149
-49.023204 6.023822 -17.317216
-48.642885 10.182626 -18.481526
-48.618218 7.397879 -18.293149
-48.05881 8.653579 -19.35631
-47.345387 12.468982 -20.792223
-47.479219 9.899134 -20.303913
-46.741129 10.929791 -21.551449
-39.714609 5.259424 -35.750048
-38.437708 6.710662 -36.229582
-38.210884 4.754436 -35.648739
-41.246961 5.909575 -36.038429
-39.714609 5.259424 -35.750048
-42.72285 6.332533 -36.413631
-41.417322 7.638608 -36.706093
-41.246961 5.909575 -36.038429
-44.103527 6.838996 -36.602446
-42.72285 6.332533 -36.413631
-36.482424 3.725805 -37.365963
-37.235791 4.249197 -36.584021
-36.180616 5.682282 -36.910215
-37.165118 2.025028 -38.227666
-36.482424 3.725805 -37.365963
-36.109943 3.458114 -38.553861
-34.976503 2.739034 -39.974243
-33.849611 3.543244 -39.308893
-33.64706 -0.373179 -43.599213
-33.482322 0.871249 -42.813265
-32.858188 -0.875195 -43.131617
-33.64706 -0.373179 -43.599213
-32.385662 0.009034 -42.703077
-32.183907 1.184363 -42.58835
-31.72691 0.560497 -42.155689
-32.858188 -0.875195 -43.131617
-32.385662 0.009034 -42.703077
-45.773247 8.215294 -22.676839
-46.191918 9.416377 -22.071307
-45.127814 9.296346 -23.571596
-45.773247 8.215294 -22.676839
-44.297629 10.342672 -24.819707
-44.678688 11.519136 -24.327586
-45.127814 9.296346 -23.571596
-43.934813 9.051441 -25.163661
-43.460769 7.90832 -25.566938
-43.485687 11.274231 -25.919651
-44.297629 10.342672 -24.819707
-43.934813 9.051441 -25.163661
-40.757506 9.805929 -28.41138
-41.706741 9.349834 -27.54824
-41.326346 8.038593 -27.59613
-38.550979 6.124529 -28.602955
-37.949751 4.974921 -28.020889
-38.113821 7.387954 -29.750521
-38.980131 7.370843 -29.082317
-38.550979 6.124529 -28.602955
-36.846412 5.972741 -29.835856
-37.19577 5.070196 -28.517001
-36.357513 4.901298 -29.081697
-32.338392 2.98088 -28.393943
-32.902204 3.467523 -29.133652
-31.694825 3.128296 -29.473211
-32.338392 2.98088 -28.393943
-30.817973 3.600529 -30.461745
-31.410906 4.306648 -31.311064
-31.694825 3.128296 -29.473211
-30.069411 3.722696 -31.343435
-30.817973 3.600529 -30.461745
-29.064932 4.212777 -32.245249
-29.529575 5.268963 -33.201413
-30.069411 3.722696 -31.343435
-28.277538 4.373029 -33.161846
-29.064932 4.212777 -32.245249
-28.817372 2.826763 -31.303869
-27.505483 1.993481 -30.655763
-28.356361 2.135296 -29.975323
-27.311595 2.988778 -33.150721
-27.505483 1.993481 -30.655763
-26.7871 1.995244 -31.586017
-25.108728 1.247043 -33.761153
-25.575475 1.489416 -32.974072
-25.493181 2.023045 -35.934787
-25.108728 1.247043 -33.761153
-25.220759 2.932687 -37.676317
-25.398836 3.384262 -37.064363
-25.493181 2.023045 -35.934787
-25.433877 2.305959 -38.121611
-25.339531 3.667175 -39.251187
-25.220759 2.932687 -37.676317
-25.650092 1.795669 -38.472662
-25.433877 2.305959 -38.121611
-26.260578 2.49042 -39.726271
-25.650092 1.795669 -38.472662
-53.867777 7.423433 -11.117551
-52.758569 6.918482 -11.762772
-54.338352 7.981613 -12.006898
-53.867777 7.423433 -11.117551
-49.755962 7.44561 -16.398141
-49.023204 6.023822 -17.317216
-50.562403 8.453293 -15.447747
-49.755962 7.44561 -16.398141
-50.008733 9.93461 -16.46797
-51.285593 9.668368 -14.377245
-51.032821 7.179369 -14.307416
-50.562403 8.453293 -15.447747
-53.841789 8.784899 -13.247617
-53.164634 9.746529 -13.280589
-53.423958 9.843112 -14.425621
-54.338352 7.981613 -12.006898
-53.841789 8.784899 -13.247617
-52.759569 8.503946 -17.947508
-51.559798 9.017532 -19.25913
-47.20917 6.950477 -26.469278
-46.883514 8.552924 -25.885562
-45.940989 7.1845 -28.004935
-47.936142 6.642093 -24.725988
-47.20917 6.950477 -26.469278
3 0 29 27
3 0 31 29
3 1 34 32
3 2 37 35
3 4 40 38
3 4 42 40
3 4 43 42
3 113 112 44
3 111 112 113
3 114 48 115
3 116 50 117
3 118 117 48
3 116 117 118
3 5 53 51
3 5 54 53
3 3 57 55
3 119 59 120
3 122 121 59
3 6 62 60
3 8 63 28
3 8 64 63
3 8 66 64
3 10 67 30
3 10 68 67
3 123 70 124
3 12 71 33
3 12 72 71
3 13 75 73
3 15 78 76
3 17 79 36
3 17 80 79
3 7 81 61
3 18 82 39
3 18 83 82
3 18 84 83
3 19 85 41
3 19 125 127
3 127 126 85
3 125 126 127
3 19 128 129
3 20 130 131
3 20 132 134
3 132 86 133
3 132 133 134
3 9 87 65
3 135 88 136
3 137 136 45
3 135 136 137
3 139 138 88
3 140 89 141
3 142 90 143
3 144 143 89
3 142 143 144
3 21 91 46
3 21 92 91
3 145 93 146
3 22 94 47
3 22 95 94
3 22 96 95
3 23 97 49
3 23 98 97
3 147 99 148
3 149 100 150
3 151 101 152
3 153 152 100
3 151 152 153
3 24 154 155
3 24 156 158
3 156 102 157
3 156 157 158
3 11 103 69
3 25 104 52
3 25 159 161
3 161 160 104
3 159 160 161
3 25 162 163
3 16 105 77
3 26 106 56
3 26 107 106
3 14 108 74
3 164 109 165
3 166 165 58
3 164 165 166
3 167 110 168
3 169 168 109
3 167 168 169
3 171 170 110
3 27 28 6
3 29 28 27
3 29 8 28
3 29 30 8
3 31 30 29
3 31 10 30
3 32 172 174
3 172 33 173
3 172 173 174
3 34 33 32
3 34 12 33
3 176 175 13
3 35 36 15
3 37 36 35
3 37 17 36
3 38 39 7
3 40 39 38
3 40 18 39
3 40 41 18
3 42 41 40
3 42 19 41
3 42 177 179
3 179 178 19
3 177 178 179
3 43 180 182
3 182 181 42
3 180 181 182
3 43 183 185
3 183 20 184
3 183 184 185
3 44 45 9
3 186 45 187
3 188 187 44
3 186 187 188
3 190 189 45
3 191 46 192
3 193 46 194
3 195 21 196
3 197 196 46
3 195 196 197
3 198 47 199
3 48 200 202
3 200 47 201
3 200 201 202
3 48 22 47
3 48 49 22
3 50 49 48
3 50 23 49
3 203 24 204
3 51 52 11
3 53 52 51
3 53 25 52
3 53 205 207
3 207 206 25
3 205 206 207
3 54 208 210
3 210 209 53
3 208 209 210
3 54 211 212
3 55 56 16
3 57 56 55
3 57 26 56
3 213 58 214
3 215 214 14
3 213 214 215
3 59 216 218
3 216 58 217
3 216 217 218
3 59 219 221
3 221 220 58
3 219 220 221
3 59 222 223
3 225 224 59
3 60 61 2
3 62 61 60
3 62 7 61
3 28 62 6
3 63 62 28
3 63 7 62
3 63 38 7
3 64 38 63
3 64 4 38
3 64 65 4
3 66 65 64
3 66 9 65
3 30 66 8
3 67 66 30
3 67 9 66
3 67 44 9
3 68 44 67
3 68 226 228
3 228 227 44
3 226 227 228
3 229 69 230
3 70 231 233
3 231 69 232
3 231 232 233
3 70 11 69
3 33 234 236
3 234 70 235
3 234 235 236
3 71 70 33
3 71 11 70
3 71 51 11
3 72 51 71
3 72 5 51
3 73 74 3
3 75 74 73
3 75 14 74
3 237 75 238
3 239 238 13
3 237 238 239
3 240 75 241
3 242 14 243
3 244 243 75
3 242 243 244
3 246 245 14
3 76 77 1
3 78 77 76
3 78 16 77
3 36 78 15
3 79 78 36
3 79 16 78
3 79 55 16
3 80 55 79
3 80 3 55
3 61 37 2
3 81 37 61
3 81 17 37
3 39 81 7
3 82 81 39
3 82 17 81
3 82 80 17
3 83 80 82
3 83 3 80
3 83 73 3
3 84 73 83
3 84 13 73
3 41 84 18
3 85 84 41
3 85 13 84
3 85 247 249
3 249 248 13
3 247 248 249
3 252 251 85
3 250 251 252
3 254 253 19
3 86 255 256
3 86 257 258
3 65 43 4
3 87 43 65
3 87 20 43
3 45 87 9
3 88 87 45
3 88 20 87
3 88 86 20
3 259 86 260
3 261 260 88
3 259 260 261
3 263 262 86
3 264 32 265
3 266 32 267
3 268 1 269
3 270 269 32
3 268 269 270
3 89 271 272
3 89 273 275
3 273 1 274
3 273 274 275
3 89 76 1
3 90 76 89
3 90 15 76
3 46 276 278
3 276 90 277
3 276 277 278
3 91 90 46
3 91 15 90
3 91 35 15
3 92 35 91
3 92 2 35
3 93 279 280
3 93 281 283
3 281 21 282
3 281 282 283
3 47 284 286
3 284 93 285
3 284 285 286
3 94 93 47
3 94 21 93
3 94 92 21
3 95 92 94
3 95 2 92
3 95 60 2
3 96 60 95
3 96 6 60
3 49 96 22
3 97 96 49
3 97 6 96
3 97 27 6
3 98 27 97
3 98 0 27
3 287 50 288
3 289 50 290
3 291 23 292
3 293 292 50
3 291 292 293
3 294 23 295
3 296 98 297
3 298 297 23
3 296 297 298
3 99 299 301
3 299 98 300
3 299 300 301
3 99 0 98
3 302 99 303
3 100 304 306
3 304 99 305
3 304 305 306
3 100 0 99
3 100 31 0
3 101 31 100
3 101 10 31
3 307 101 308
3 309 101 310
3 311 10 312
3 313 312 101
3 311 312 313
3 314 68 315
3 316 315 10
3 314 315 316
3 317 68 318
3 320 319 68
3 102 321 322
3 102 323 324
3 69 325 326
3 103 327 329
3 329 328 69
3 327 328 329
3 103 330 332
3 330 24 331
3 330 331 332
3 52 103 11
3 104 103 52
3 104 24 103
3 104 102 24
3 333 102 334
3 335 334 104
3 333 334 335
3 337 336 102
3 339 338 25
3 77 34 1
3 105 34 77
3 105 12 34
3 56 105 16
3 106 105 56
3 106 12 105
3 106 72 12
3 107 72 106
3 107 5 72
3 74 57 3
3 108 57 74
3 108 26 57
3 58 108 14
3 109 108 58
3 109 26 108
3 109 107 26
3 110 107 109
3 110 5 107
3 110 54 5
3 340 54 341
3 342 341 110
3 340 341 342
3 344 343 54
