ply
format ascii 1.0
element vertex 273
property float x
property float y
property float z
element face 233
property list uchar int vertex_index
end_header
-43.392399 43.170597 -13.208145
-34.472031 37.758102 -8.783775
-32.423199 50.218655 -11.242071
-41.184193 47.060699 -9.351214
-38.277908 46.468346 -11.732548
-37.983608 51.857849 -8.709338
-42.159233 25.035084 -14.336782
-42.509686 29.083441 -14.484648
-40.209373 35.325615 -12.833876
-38.831062 40.85004 -12.557719
-32.546642 42.95702 -11.381569
-36.17112 31.583578 -10.90618
-32.068386 54.773754 -8.648927
-40.096588 49.717876 -9.22654
-44.371277 28.127171 -14.171587
-44.013969 30.714975 -14.974091
-44.028084 40.669289 -14.425482
-41.586964 39.453941 -14.233284
-41.543728 42.247581 -13.775149
-35.209175 45.078194 -10.768902
-32.425201 46.130726 -11.494881
-30.545929 47.654846 -12.621183
-37.443451 36.46347 -10.497736
-38.584461 33.246685 -11.153101
-33.953114 53.655785 -6.106256
-42.551319 45.303185 -11.544969
-41.328968 45.160721 -12.892921
-40.844326 47.40456 -11.31146
-38.097244 49.189579 -10.100931
-34.974354 51.429607 -9.718721
-41.825378 25.222233 -12.352244
-42.830009 26.672924 -14.526462
-40.259686 27.732168 -14.49346
-31.173935 38.968956 -8.526036
-31.90723 36.238853 -7.619401
-42.633263 33.712257 -14.945142
-41.903362 36.633293 -14.367549
-39.315266 38.176201 -12.567233
-36.39616 39.354618 -11.111605
-38.455696 43.656124 -12.395871
-35.718189 42.074959 -11.327826
-33.348885 40.5023 -10.034201
-30.597416 40.916912 -10.813925
-27.869654 26.047943 -7.926487
-41.500206 32.109596 -13.713641
-39.594643 30.174057 -12.680838
-35.104317 53.712669 -8.529137
-33.171318 54.356346 -10.537618
-28.710217 57.103371 -8.602602
-30.455683 56.834755 -10.829355
-44.668526 31.448868 -14.961702
-44.738914 30.256441 -14.514287
-32.4242 48.17469 -11.368476
-33.611834 47.168288 -10.7352
-33.610833 49.212252 -10.608795
-44.195377 41.573143 -13.268559
-43.553053 42.574211 -12.431923
-43.710241 41.919943 -13.816814
-44.51322 40.322489 -13.877227
-44.195377 41.573143 -13.268559
-34.911869 36.209103 -8.907601
-36.397579 35.561786 -9.764581
-35.957741 37.110786 -9.640756
-41.589716 45.385906 -9.57614
-40.752181 46.300352 -8.585784
-41.867756 46.181942 -10.448092
-42.273279 44.507149 -10.673017
-41.589716 45.385906 -9.57614
-29.861269 38.305105 -8.234761
-29.767398 39.331484 -9.241855
-43.019114 37.193527 -14.677758
-43.225203 35.7845 -14.71836
-30.678172 26.644284 -9.503251
-28.98153 26.020709 -9.06103
-29.566296 26.671518 -8.368709
-41.142843 24.788795 -14.051267
-40.975915 24.882369 -13.058999
-41.992306 25.128659 -13.344513
-36.604292 30.275424 -12.2332
-38.316053 29.570664 -13.120528
-37.882881 30.878818 -11.793509
-32.285652 34.796089 -8.290664
-30.553038 35.560272 -7.731297
-27.024762 57.71855 -8.699434
-27.763126 56.019108 -7.904336
-29.148381 55.948845 -11.215215
-28.800547 57.652937 -10.748672
-30.591646 54.88158 -11.370792
-29.148381 55.948845 -11.215215
-29.566296 26.671518 -8.368709
-27.819099 26.41964 -7.022299
-39.963192 49.422596 -8.258403
-40.64039 48.389287 -9.288877
-40.506995 48.094008 -8.32074
-39.737268 50.858266 -8.167279
-39.963192 49.422596 -8.258403
-38.680779 51.928253 -7.908678
-39.040098 50.787863 -8.967939
-39.737268 50.858266 -8.167279
-40.506995 48.094008 -8.32074
-40.752181 46.300352 -8.585784
-44.917569 28.962539 -14.113035
-44.424317 27.873585 -13.468381
-44.192623 29.421073 -14.572839
-44.917569 28.962539 -14.113035
-44.738914 30.256441 -14.514287
-42.807524 40.061615 -14.329383
-42.860914 38.603851 -14.610625
-44.081474 39.211525 -14.706724
-35.003821 46.642021 -10.372211
-36.743541 45.77327 -11.250725
-36.538187 47.337097 -10.854033
-33.817188 45.60446 -11.131892
-35.003821 46.642021 -10.372211
-33.611834 47.168288 -10.7352
-31.455343 44.699965 -12.262187
-31.516064 43.113112 -12.205531
-32.485922 44.543873 -11.438225
-30.515707 45.462024 -12.825338
-31.455343 44.699965 -12.262187
-31.485565 46.892786 -12.058032
-29.378715 46.681997 -11.925241
-30.515707 45.462024 -12.825338
-44.912604 39.136099 -14.250032
-44.51322 40.322489 -13.877227
-44.081474 39.211525 -14.706724
-44.912604 39.136099 -14.250032
-41.05172 24.61504 -15.042741
-41.427323 25.354947 -14.974666
-36.968084 33.953394 -10.092263
-38.013956 34.855078 -10.825418
-36.397579 35.561786 -9.764581
-35.761414 33.12184 -9.968803
-37.377791 32.415132 -11.02964
-36.968084 33.953394 -10.092263
-33.055378 53.569653 -5.254245
-34.719929 54.335373 -4.9847
-32.118813 53.413536 -6.48407
-33.055378 53.569653 -5.254245
-31.176449 53.972521 -7.755406
-33.01075 54.21477 -7.377592
-32.118813 53.413536 -6.48407
-36.447855 48.697714 -10.038225
-36.538187 47.337097 -10.854033
-38.187576 47.828963 -10.916739
-34.88641 49.817728 -9.84712
-36.447855 48.697714 -10.038225
-36.535799 50.309593 -9.909826
-33.698776 50.824131 -10.480396
-33.610833 49.212252 -10.608795
-34.88641 49.817728 -9.84712
-43.132513 43.640505 -11.600335
-42.273279 44.507149 -10.673017
-42.971859 44.236891 -12.376557
-43.553053 42.574211 -12.431923
-43.132513 43.640505 -11.600335
-42.017578 25.792692 -11.700368
-40.295467 25.908312 -11.079708
-42.826347 25.615026 -12.833588
-42.017578 25.792692 -11.700368
-42.993274 25.521451 -13.825857
-41.992306 25.128659 -13.344513
-42.826347 25.615026 -12.833588
-44.099297 27.067495 -13.743259
-44.424317 27.873585 -13.468381
-43.328663 26.340371 -13.920697
-44.099297 27.067495 -13.743259
-43.600643 27.400047 -14.349025
-42.494621 25.854004 -14.431622
-42.993274 25.521451 -13.825857
-43.328663 26.340371 -13.920697
-41.76271 26.173866 -15.069506
-41.427323 25.354947 -14.974666
-42.494621 25.854004 -14.431622
-40.477549 26.703488 -15.053006
-41.76271 26.173866 -15.069506
-41.544848 27.202546 -14.509961
-39.129199 27.349789 -15.207842
-40.477549 26.703488 -15.053006
-30.227916 36.940054 -7.781444
-31.540582 37.603904 -8.072719
-29.861269 38.305105 -8.234761
-28.873725 36.261472 -7.893339
-30.553038 35.560272 -7.731297
-30.227916 36.940054 -7.781444
-43.590153 34.323982 -15.007156
-43.978172 32.947509 -14.947227
-42.268313 35.172775 -14.656346
-43.590153 34.323982 -15.007156
-43.225203 35.7845 -14.71836
-41.745163 38.043617 -14.300417
-43.019114 37.193527 -14.677758
-42.860914 38.603851 -14.610625
-29.479138 40.305462 -10.3858
-29.767398 39.331484 -9.241855
-30.885675 39.942934 -9.66998
-30.54145 42.093058 -11.921709
-31.572029 41.936966 -11.097747
-31.516064 43.113112 -12.205531
-29.319305 41.54121 -11.025726
-30.54145 42.093058 -11.921709
-29.479138 40.305462 -10.3858
-29.319305 41.54121 -11.025726
-27.445912 25.197657 -8.459046
-26.733238 23.861275 -7.67837
-27.156979 24.71156 -7.145811
-27.445912 25.197657 -8.459046
-28.98153 26.020709 -9.06103
-40.07055 25.492638 -11.990547
-40.295467 25.908312 -11.079708
-39.221088 25.152773 -12.697302
-40.07055 25.492638 -11.990547
-40.975915 24.882369 -13.058999
-41.142843 24.788795 -14.051267
-41.05172 24.61504 -15.042741
-43.323616 32.213616 -14.959616
-44.668526 31.448868 -14.961702
-43.978172 32.947509 -14.947227
-38.648575 28.349719 -14.02684
-39.927165 28.953113 -13.587149
-38.316053 29.570664 -13.120528
-39.129199 27.349789 -15.207842
-38.648575 28.349719 -14.02684
-33.629469 35.449478 -8.325413
-34.911869 36.209103 -8.907601
-33.18963 36.998477 -8.201588
-33.629469 35.449478 -8.325413
-32.285652 34.796089 -8.290664
-34.417597 32.468452 -9.934054
-35.761414 33.12184 -9.968803
-34.834193 31.278013 -11.411614
-34.417597 32.468452 -9.934054
-36.604292 30.275424 -12.2332
-34.834193 31.278013 -11.411614
-37.629463 53.07478 -7.427049
-38.680779 51.928253 -7.908678
-35.614216 53.973748 -6.125508
-34.719929 54.335373 -4.9847
-36.189818 54.00219 -7.336949
-35.614216 53.973748 -6.125508
-34.528716 53.684227 -7.317697
-36.543962 52.785259 -8.619238
-37.629463 53.07478 -7.427049
-36.189818 54.00219 -7.336949
-29.497364 55.137329 -7.732243
-28.550273 54.053066 -7.033978
-27.763126 56.019108 -7.904336
-30.389301 55.938563 -8.625764
-31.176449 53.972521 -7.755406
-29.497364 55.137329 -7.732243
-27.927814 57.787245 -9.635296
-27.024762 57.71855 -8.699434
-29.58295 56.969063 -9.715978
-27.927814 57.787245 -9.635296
-28.800547 57.652937 -10.748672
-31.949464 53.642376 -11.224923
-31.8135 55.595551 -10.683487
-30.591646 54.88158 -11.370792
-31.575404 51.573531 -11.57715
-32.797258 52.287501 -10.889844
-31.949464 53.642376 -11.224923
-30.636769 50.291626 -12.266706
-31.484564 48.936751 -11.931627
-31.575404 51.573531 -11.57715
-29.379323 49.00432 -11.907614
-30.636769 50.291626 -12.266706
-29.378715 46.681997 -11.925241
-29.379323 49.00432 -11.907614
-27.277121 25.073117 -6.369054
-27.226566 25.444814 -5.464866
-27.819099 26.41964 -7.022299
-27.156979 24.71156 -7.145811
-27.277121 25.073117 -6.369054
3 50 15 51
3 0 18 16
3 2 52 54
3 52 20 53
3 52 53 54
3 2 21 20
3 0 55 56
3 0 57 59
3 57 16 58
3 57 58 59
3 1 60 62
3 62 61 22
3 60 61 62
3 3 27 25
3 5 28 13
3 5 29 28
3 3 63 64
3 3 65 67
3 65 25 66
3 65 66 67
3 7 31 14
3 7 32 31
3 69 68 33
3 70 36 71
3 9 37 17
3 9 38 37
3 4 39 26
3 10 40 19
3 10 41 40
3 10 42 41
3 74 73 43
3 72 73 74
3 6 75 77
3 77 76 30
3 75 76 77
3 8 44 35
3 11 45 23
3 11 78 80
3 80 79 45
3 78 79 80
3 82 81 34
3 12 46 24
3 12 47 46
3 83 48 84
3 85 49 86
3 88 87 49
3 89 43 90
3 91 13 92
3 93 92 3
3 91 92 93
3 94 13 95
3 96 5 97
3 98 97 13
3 96 97 98
3 99 3 100
3 101 14 102
3 15 103 105
3 103 14 104
3 103 104 105
3 15 7 14
3 16 106 108
3 106 17 107
3 106 107 108
3 18 17 16
3 18 9 17
3 109 19 110
3 111 110 4
3 109 110 111
3 20 112 114
3 112 19 113
3 112 113 114
3 20 10 19
3 20 115 117
3 117 116 10
3 115 116 117
3 21 118 120
3 120 119 20
3 118 119 120
3 21 121 122
3 16 123 124
3 16 125 126
3 128 127 6
3 22 23 8
3 129 23 130
3 131 130 22
3 129 130 131
3 132 11 133
3 134 133 23
3 132 133 134
3 135 24 136
3 137 24 138
3 139 12 140
3 141 140 24
3 139 140 141
3 25 26 0
3 27 26 25
3 27 4 26
3 13 27 3
3 28 27 13
3 28 4 27
3 28 142 144
3 144 143 4
3 142 143 144
3 29 145 147
3 147 146 28
3 145 146 147
3 29 148 150
3 148 2 149
3 148 149 150
3 25 151 152
3 25 153 155
3 153 0 154
3 153 154 155
3 156 30 157
3 158 30 159
3 160 6 161
3 162 161 30
3 160 161 162
3 14 163 164
3 31 165 167
3 167 166 14
3 165 166 167
3 31 168 170
3 168 6 169
3 168 169 170
3 31 171 173
3 173 172 6
3 171 172 173
3 32 174 176
3 176 175 31
3 174 175 176
3 32 177 178
3 33 34 1
3 179 34 180
3 181 180 33
3 179 180 181
3 184 183 34
3 182 183 184
3 185 35 186
3 36 187 189
3 187 35 188
3 187 188 189
3 36 8 35
3 17 190 192
3 190 36 191
3 190 191 192
3 37 36 17
3 37 8 36
3 37 22 8
3 38 22 37
3 38 1 22
3 26 18 0
3 39 18 26
3 39 9 18
3 19 39 4
3 40 39 19
3 40 9 39
3 40 38 9
3 41 38 40
3 41 1 38
3 41 33 1
3 42 33 41
3 42 193 195
3 195 194 33
3 193 194 195
3 196 42 197
3 198 197 10
3 196 197 198
3 199 42 200
3 202 201 42
3 43 203 205
3 203 204 205
3 207 206 43
3 30 208 209
3 212 211 30
3 210 211 212
3 214 213 6
3 35 215 217
3 215 15 216
3 215 216 217
3 44 15 35
3 44 7 15
3 23 44 8
3 45 44 23
3 45 7 44
3 45 32 7
3 218 32 219
3 220 219 45
3 218 219 220
3 222 221 32
3 34 223 225
3 225 224 1
3 223 224 225
3 227 226 34
3 228 11 229
3 230 11 231
3 233 232 11
3 234 5 235
3 24 236 237
3 46 238 240
3 240 239 24
3 238 239 240
3 46 241 243
3 241 5 242
3 241 242 243
3 46 29 5
3 47 29 46
3 47 2 29
3 48 244 246
3 244 245 246
3 48 247 249
3 247 12 248
3 247 248 249
3 250 48 251
3 49 252 254
3 252 48 253
3 252 253 254
3 49 12 48
3 49 47 12
3 255 47 256
3 257 256 49
3 255 256 257
3 258 2 259
3 260 259 47
3 258 259 260
3 261 21 262
3 263 262 2
3 261 262 263
3 264 21 265
3 267 266 21
3 43 268 270
3 268 269 270
3 43 271 272
