ply
format ascii 1.0
element vertex 298
property float x
property float y
property float z
element face 276
property list uchar int vertex_index
end_header
-37.617817 15.983973 9.296717
-28.274033 26.405987 7.528047
-32.317677 7.934532 12.944147
-32.91227 21.730965 12.089628
-43.156158 10.983821 5.160161
-38.312107 9.97243 11.7297
-34.918083 12.864141 12.687803
-32.062309 15.15832 13.086179
-35.72683 18.811146 11.452027
-45.780262 9.075721 2.44272
-39.596951 27.958109 4.838927
-29.50951 17.246256 11.629996
-30.146313 24.320684 10.555284
-40.914959 7.597862 10.18736
-40.030205 13.187793 7.314317
-40.006214 21.121655 9.790361
-37.121838 24.182705 9.278366
-34.289124 26.947453 7.998294
-37.867268 12.92565 10.420093
-36.577583 11.282892 12.242773
-36.239418 14.618874 11.142032
-35.091686 15.914352 11.896269
-36.748047 17.39991 10.562056
-44.208179 29.616085 1.423046
-28.181568 22.822336 8.455286
-27.712597 27.022669 5.618351
-33.525448 6.795695 13.584132
-31.410427 8.692974 12.043272
-32.28093 18.653158 12.820337
-30.657904 16.248423 12.603895
-30.800436 19.842724 12.489661
-29.574057 20.968983 11.536622
-31.432415 23.094687 11.570214
-43.476662 8.301413 6.658302
-41.935814 6.373578 9.133229
-42.315308 9.41273 7.88473
-40.896229 10.553644 8.952618
-41.591927 12.064686 6.291853
-38.633369 22.739502 9.747254
-39.52002 24.869379 7.838938
-36.863129 27.576147 6.314674
-33.080044 28.328892 7.098334
-38.125484 6.746042 12.55657
-36.712292 8.061399 13.254608
-35.036182 9.301527 13.517939
-33.373817 10.556368 13.395436
-32.016613 11.552217 13.121588
-33.509277 14.051458 13.038083
-33.727707 17.211306 12.537475
-34.383102 20.27713 12.030938
-44.450134 9.963708 3.739939
-30.866222 12.513311 12.422589
-29.97636 13.471387 11.405928
-28.833241 18.059526 10.231672
-28.737652 21.899744 10.117361
-29.075809 25.448435 9.161703
-39.701088 8.769543 11.075876
-39.362122 11.707189 9.709053
-38.692402 14.519117 8.22804
-46.556744 11.574377 1.973
-44.849129 12.399816 3.03195
-42.956856 13.332685 3.995501
-41.637745 14.372766 5.345936
-40.678459 15.550482 6.770471
-39.842308 16.88649 8.166105
-38.832848 18.554218 9.731524
-37.797352 20.134785 10.698835
-36.423096 21.721661 10.949014
-34.915749 23.176174 10.781332
-35.64785 25.542038 8.734299
-33.412334 24.636486 10.3787
-31.995838 25.975758 9.651385
-30.83317 27.381964 8.483478
-29.777288 28.628698 7.045784
-28.106685 24.901541 7.045429
-28.060452 23.109716 7.509048
-28.227801 24.614162 7.991666
-27.993315 26.714328 6.573199
-27.825967 25.209882 6.090581
-28.106685 24.901541 7.045429
-32.555172 5.804989 12.854304
-33.159058 5.235571 13.174296
-32.921563 7.365113 13.264139
-32.281004 6.333136 12.291849
-32.555172 5.804989 12.854304
-31.864052 8.313753 12.493709
-31.827379 6.712357 11.841412
-32.281004 6.333136 12.291849
-40.831946 25.179641 7.308543
-40.175684 24.152839 8.127838
-45.167044 8.177491 3.909396
-45.925657 7.823535 3.3612
-45.115198 9.519714 3.09133
-44.50198 8.621485 4.558006
-45.167044 8.177491 3.909396
-42.73876 29.496687 1.979303
-43.634703 29.874676 0.786565
-29.448355 15.782224 10.828965
-29.681781 13.894789 10.716931
-29.742935 15.358821 11.517962
-29.171375 17.652891 10.930834
-29.110221 16.188859 10.129803
-29.448355 15.782224 10.828965
-40.568842 5.887884 10.67989
-41.079269 5.275742 10.152825
-41.425387 6.98572 9.660294
-40.028239 6.542136 10.972931
-40.568842 5.887884 10.67989
-40.308024 8.183703 10.631618
-39.421303 7.127976 11.417189
-40.028239 6.542136 10.972931
-47.0698 12.498586 2.445556
-47.786058 12.153809 2.009844
-46.215992 12.911306 2.975032
-45.702936 11.987096 2.502475
-47.0698 12.498586 2.445556
-43.726517 14.059653 4.721637
-44.386244 13.678199 4.019241
-43.066962 14.579694 5.396854
-42.297301 13.852726 4.670718
-43.726517 14.059653 4.721637
-41.564359 16.402757 7.537783
-41.99958 15.665256 7.016733
-41.146284 17.070761 8.2356
-40.260384 16.218486 7.468288
-41.564359 16.402757 7.537783
-40.670485 20.123159 9.427469
-41.253687 21.412965 9.267931
-39.419531 19.837936 9.760943
-40.083801 18.83944 9.398051
-40.670485 20.123159 9.427469
-38.898045 27.103141 6.024153
-40.226786 27.386131 5.356974
-31.465196 28.577027 7.187743
-31.956607 27.855428 7.790906
-32.588633 29.050491 6.495171
-30.937254 29.200395 6.468896
-30.305229 28.005331 7.764631
-31.465196 28.577027 7.187743
-46.522274 8.668444 1.949977
-45.925657 7.823535 3.3612
-45.842952 29.585152 0.917426
-44.674015 29.12778 2.165091
-45.198587 29.96972 0.176926
-45.842952 29.585152 0.917426
-43.634703 29.874676 0.786565
-45.198587 29.96972 0.176926
-28.463342 21.172359 7.691889
-28.405634 20.799713 8.531518
-28.463342 21.172359 7.691889
-28.060452 23.109716 7.509048
-27.879774 25.34587 5.213661
-27.825967 25.209882 6.090581
-27.566554 27.079058 4.605529
-27.879774 25.34587 5.213661
-33.594313 4.765042 13.664031
-34.252163 6.239071 13.701391
-33.594313 4.765042 13.664031
-33.159058 5.235571 13.174296
-31.732557 7.111897 11.248565
-31.827379 6.712357 11.841412
-31.106884 9.116681 11.525339
-31.732557 7.111897 11.248565
-42.706238 7.337496 7.895765
-42.557865 5.802167 8.688289
-43.328289 6.766085 7.450826
-40.418781 22.278977 9.10355
-41.253687 21.412965 9.267931
-39.732359 23.087901 9.081996
-39.319792 21.930579 9.768808
-40.418781 22.278977 9.10355
-39.076695 23.80444 8.793096
-39.732359 23.087901 9.081996
-40.175684 24.152839 8.127838
-37.638934 28.223327 5.070216
-38.23004 27.767128 5.576801
-39.005844 28.414309 4.332343
-36.220599 28.113605 5.896856
-37.638934 28.223327 5.070216
-34.933596 27.799257 6.738666
-35.576127 27.2618 7.156484
-36.220599 28.113605 5.896856
-34.329056 28.489977 6.288686
-33.684584 27.638172 7.548314
-34.933596 27.799257 6.738666
-33.857521 29.198002 5.719758
-34.329056 28.489977 6.288686
-32.588633 29.050491 6.495171
-33.857521 29.198002 5.719758
-37.265129 5.638583 13.122879
-38.01372 4.948434 13.04337
-36.558533 6.296261 13.471898
-37.265129 5.638583 13.122879
-37.418888 7.403721 12.905589
-35.845585 6.871923 13.53663
-36.558533 6.296261 13.471898
-35.00753 7.491986 13.668295
-35.845585 6.871923 13.53663
-35.874237 8.681463 13.386273
-34.280815 8.048611 13.551036
-34.252163 6.239071 13.701391
-35.00753 7.491986 13.668295
-44.015243 7.790337 6.017188
-43.328289 6.766085 7.450826
-43.963398 9.132561 5.199121
-44.015243 7.790337 6.017188
-44.50198 8.621485 4.558006
-40.988317 28.20459 4.266481
-40.226786 27.386131 5.356974
-43.293931 29.033578 2.55854
-44.674015 29.12778 2.165091
-43.293931 29.033578 2.55854
-42.73876 29.496687 1.979303
-40.433146 28.667699 3.687244
-40.988317 28.20459 4.266481
-39.005844 28.414309 4.332343
-40.433146 28.667699 3.687244
-30.834781 11.026849 11.714997
-31.106884 9.116681 11.525339
-31.138324 10.603143 12.232931
-30.389851 11.505887 11.206667
-30.834781 11.026849 11.714997
-30.421291 12.992349 11.914258
-30.212048 11.904646 10.534143
-30.389851 11.505887 11.206667
-30.212048 11.904646 10.534143
-29.681781 13.894789 10.716931
-29.015884 16.502924 9.343097
-29.110221 16.188859 10.129803
-28.731471 18.418308 9.419711
-29.015884 16.502924 9.343097
-28.683676 20.338417 9.362555
-28.731471 18.418308 9.419711
-28.785446 19.979635 10.174516
-28.45961 22.36104 9.286323
-28.405634 20.799713 8.531518
-28.683676 20.338417 9.362555
-41.888483 4.8308 10.087601
-42.557865 5.802167 8.688289
-41.888483 4.8308 10.087601
-41.079269 5.275742 10.152825
-38.633501 6.116226 12.157536
-38.01372 4.948434 13.04337
-38.913286 7.757793 11.816223
-38.633501 6.116226 12.157536
-39.421303 7.127976 11.417189
-46.862147 9.916954 1.658623
-46.522274 8.668444 1.949977
-47.250388 11.166282 1.423763
-47.786058 12.153809 2.009844
-46.168503 10.325049 2.20786
-46.862147 9.916954 1.658623
-47.250388 11.166282 1.423763
-45.33238 13.211764 3.537466
-46.215992 12.911306 2.975032
-43.902992 12.86625 3.513726
-45.33238 13.211764 3.537466
-44.386244 13.678199 4.019241
-42.479224 15.076398 6.304466
-43.066962 14.579694 5.396854
-41.158102 14.961624 6.058203
-42.479224 15.076398 6.304466
-41.99958 15.665256 7.016733
-40.588532 18.005576 8.615341
-41.146284 17.070761 8.2356
-39.337578 17.720354 8.948815
-40.588532 18.005576 8.615341
-40.083801 18.83944 9.398051
-40.188321 25.841766 6.856979
-40.831946 25.179641 7.308543
-38.85958 25.558776 7.524159
-40.188321 25.841766 6.856979
-37.660488 25.215439 8.243873
-38.320929 24.526042 8.558652
-38.85958 25.558776 7.524159
-37.531134 26.91216 6.762027
-38.898045 27.103141 6.024153
-38.23004 27.767128 5.576801
-36.923495 25.895105 7.971839
-37.531134 26.91216 6.762027
-36.255489 26.559092 7.524487
-36.384844 24.862372 9.006332
-37.660488 25.215439 8.243873
-36.923495 25.895105 7.971839
-30.508049 29.860577 5.707178
-30.937254 29.200395 6.468896
-29.288849 29.117874 6.191339
-30.508049 29.860577 5.707178
-28.537222 28.006518 6.432471
-29.025661 27.517342 7.286916
-29.288849 29.117874 6.191339
-28.256504 28.31486 5.477623
-27.993315 26.714328 6.573199
-28.537222 28.006518 6.432471
-27.988589 28.462108 4.48692
-28.256504 28.31486 5.477623
-27.566554 27.079058 4.605529
-27.988589 28.462108 4.48692
3 0 20 18
3 0 22 20
3 1 74 76
3 76 75 24
3 74 75 76
3 1 77 79
3 77 25 78
3 77 78 79
3 2 80 82
3 82 81 26
3 80 81 82
3 2 83 84
3 2 85 87
3 85 27 86
3 85 86 87
3 3 30 28
3 3 32 30
3 4 35 33
3 4 37 35
3 88 39 89
3 5 43 42
3 6 44 19
3 6 45 44
3 6 47 45
3 8 48 21
3 8 49 48
3 9 90 91
3 9 92 94
3 92 50 93
3 92 93 94
3 96 95 23
3 7 51 46
3 11 52 29
3 11 97 99
3 99 98 52
3 97 98 99
3 11 100 102
3 100 53 101
3 100 101 102
3 12 54 31
3 12 55 54
3 13 103 105
3 105 104 34
3 103 104 105
3 13 106 107
3 13 108 110
3 108 56 109
3 108 109 110
3 14 57 36
3 14 58 57
3 111 59 112
3 113 60 114
3 115 114 59
3 113 114 115
3 116 61 117
3 118 62 119
3 120 119 61
3 118 119 120
3 121 63 122
3 123 64 124
3 125 124 63
3 123 124 125
3 15 126 127
3 15 128 130
3 128 65 129
3 128 129 130
3 15 66 65
3 16 67 38
3 16 68 67
3 10 131 132
3 17 69 40
3 17 70 69
3 17 71 70
3 133 72 134
3 135 134 41
3 133 134 135
3 136 73 137
3 138 137 72
3 136 137 138
3 18 19 5
3 20 19 18
3 20 6 19
3 20 21 6
3 22 21 20
3 22 8 21
3 139 9 140
3 141 23 142
3 143 23 144
3 146 145 23
3 24 147 148
3 150 149 24
3 25 151 152
3 25 153 154
3 26 155 156
3 158 157 26
3 27 159 160
3 27 161 162
3 28 29 7
3 30 29 28
3 30 11 29
3 30 31 11
3 32 31 30
3 32 12 31
3 33 163 165
3 163 34 164
3 163 164 165
3 35 34 33
3 35 13 34
3 35 36 13
3 37 36 35
3 37 14 36
3 166 15 167
3 168 38 169
3 170 169 15
3 168 169 170
3 39 171 173
3 171 38 172
3 171 172 173
3 39 16 38
3 174 40 175
3 176 175 10
3 174 175 176
3 177 40 178
3 179 17 180
3 181 180 40
3 179 180 181
3 182 41 183
3 184 183 17
3 182 183 184
3 185 41 186
3 188 187 41
3 42 189 190
3 43 191 193
3 193 192 42
3 191 192 193
3 43 194 195
3 19 43 5
3 44 43 19
3 44 196 198
3 198 197 43
3 196 197 198
3 44 199 201
3 199 26 200
3 199 200 201
3 45 26 44
3 45 2 26
3 45 46 2
3 47 46 45
3 47 7 46
3 21 47 6
3 48 47 21
3 48 7 47
3 48 28 7
3 49 28 48
3 49 3 28
3 202 33 203
3 50 204 206
3 204 33 205
3 204 205 206
3 50 4 33
3 207 10 208
3 23 209 210
3 212 211 23
3 213 10 214
3 216 215 10
3 46 27 2
3 51 27 46
3 51 217 219
3 219 218 27
3 217 218 219
3 29 51 7
3 52 51 29
3 52 220 222
3 222 221 51
3 220 221 222
3 52 223 224
3 226 225 52
3 53 227 228
3 53 229 230
3 31 53 11
3 54 53 31
3 54 231 233
3 233 232 53
3 231 232 233
3 54 234 236
3 234 24 235
3 234 235 236
3 55 24 54
3 55 1 24
3 34 237 238
3 240 239 34
3 241 42 242
3 56 243 245
3 243 42 244
3 243 244 245
3 56 5 42
3 36 56 13
3 57 56 36
3 57 5 56
3 57 18 5
3 58 18 57
3 58 0 18
3 246 9 247
3 59 248 249
3 59 250 252
3 250 9 251
3 250 251 252
3 59 50 9
3 60 50 59
3 60 4 50
3 253 60 254
3 61 255 257
3 255 60 256
3 255 256 257
3 61 4 60
3 61 37 4
3 62 37 61
3 62 14 37
3 258 62 259
3 63 260 262
3 260 62 261
3 260 261 262
3 63 14 62
3 63 58 14
3 64 58 63
3 64 0 58
3 263 64 264
3 65 265 267
3 265 64 266
3 265 266 267
3 65 0 64
3 65 22 0
3 66 22 65
3 66 8 22
3 38 66 15
3 67 66 38
3 67 8 66
3 67 49 8
3 68 49 67
3 68 3 49
3 268 39 269
3 270 39 271
3 272 16 273
3 274 273 39
3 272 273 274
3 40 275 277
3 277 276 10
3 275 276 277
3 69 278 280
3 280 279 40
3 278 279 280
3 69 281 283
3 281 16 282
3 281 282 283
3 69 68 16
3 70 68 69
3 70 3 68
3 70 32 3
3 71 32 70
3 71 12 32
3 41 71 17
3 72 71 41
3 72 12 71
3 72 55 12
3 73 55 72
3 73 1 55
3 284 73 285
3 286 73 287
3 288 1 289
3 290 289 73
3 288 289 290
3 291 25 292
3 293 292 1
3 291 292 293
3 294 25 295
3 297 296 25
