ply
format ascii 1.0
element vertex 528
property float x
property float y
property float z
element face 581
property list uchar int vertex_index
end_header
44.406555 -12.586408 20.473721
59.460335 -12.08339 17.734665
37.369011 -12.171043 20.562794
51.187023 -13.434206 17.532831
34.915459 -0.224492 14.698614
40.3825 -0.959422 17.17239
46.757244 -3.149081 13.580005
53.079479 6.107674 1.265417
51.179646 -5.801815 8.925189
56.996521 -6.284566 11.055473
40.780434 -12.393832 21.005659
36.274712 -18.103045 21.392332
39.782501 -17.828428 22.035723
54.973 -12.532431 17.651674
51.239025 -17.638943 19.626122
55.483215 -17.553139 18.622126
34.188435 0.010841 11.841444
33.963066 6.607391 12.94133
39.480034 4.539703 12.941541
42.764069 3.380513 11.92653
43.86372 -1.764771 15.988009
46.268234 2.658799 10.108811
55.983173 3.967521 3.495376
52.65086 0.23661 5.06622
55.065727 -0.338269 6.801409
53.371941 -5.697282 10.75976
62.950012 -12.942085 18.130325
59.631775 -17.911633 18.236139
34.937206 -12.771891 18.557714
47.905022 -12.951999 19.07111
43.950935 -17.839308 20.283535
47.288288 -17.957602 19.106649
34.588844 -7.286143 14.504328
36.572502 5.835835 13.699597
37.106537 -0.387288 16.729301
36.287819 -7.023806 16.997799
39.01532 -7.305624 17.561575
41.547722 -7.960868 16.280128
44.058201 -9.012665 15.146194
50.022053 2.139674 6.716271
48.29895 -4.942272 9.664175
47.923283 -9.607534 14.052511
51.413586 -9.915251 13.545403
54.887024 -10.554665 12.699732
58.921978 -10.660978 12.172197
60.69355 -5.693183 10.0704
62.900963 -10.092044 12.276818
42.561359 -12.459162 20.86101
40.275597 -15.018222 21.93508
42.178089 -15.042905 21.746044
57.203815 -12.169135 17.677015
55.361439 -14.663572 19.722586
57.491283 -14.707721 19.601711
43.793648 8.635242 7.389683
42.214958 6.384908 9.752663
43.69014 5.730993 8.73793
44.472214 3.005875 11.121218
45.31694 5.270425 7.674807
56.110008 1.954937 4.825985
63.924355 -13.222115 19.158514
62.754608 -15.763197 19.814209
35.929283 -12.392159 19.758533
35.676258 -15.310987 20.203167
35.580727 -20.929562 21.213461
34.179249 -21.123356 20.04904
49.517067 -13.158384 18.107025
47.680882 -15.58642 19.421358
49.442673 -15.604963 19.183176
51.104095 -19.647898 17.473017
48.932625 -19.619892 18.035307
34.335125 -0.083153 13.321684
40.087219 1.7217 15.309712
38.425438 2.242109 15.411787
38.693428 -0.607351 17.184589
37.052711 -3.717576 17.31241
38.489296 -3.750734 18.038548
37.555412 -7.115551 17.54636
40.128262 -3.951852 18.114723
45.439026 -2.400866 14.972185
43.379005 -4.812304 16.799723
44.603085 -5.485188 15.536145
42.755165 -8.441173 15.625174
45.44281 -6.220451 14.035541
49.469429 4.681095 4.202981
51.450878 4.483383 2.859405
51.727478 -3.020312 6.718119
50.420528 -2.559102 7.072372
49.520409 -5.577381 8.722399
47.765648 -7.71272 11.418657
49.64127 -8.000857 11.09713
49.702492 -9.65819 13.74428
51.191856 -8.090855 11.184463
55.098103 -6.144794 11.372149
54.361767 -8.527317 11.496943
56.189617 -8.743536 11.270505
56.846161 -10.760623 12.351078
58.142952 -8.650896 10.962326
61.896446 -5.381567 10.408432
62.085602 -8.085505 10.445797
63.246696 -7.915219 11.306338
43.065601 -19.837919 18.462847
41.174248 -20.088539 19.883678
38.941525 -12.266456 20.974569
36.85202 -15.059792 21.265821
38.463421 -14.9176 21.832422
37.959103 -17.905718 22.060492
37.288086 -20.742611 21.624266
53.028046 -13.123868 17.659214
51.236046 -15.219116 19.635361
53.142159 -14.827509 19.764963
53.427773 -17.560631 19.162304
53.237507 -19.780514 16.839077
33.082203 3.468525 11.223002
33.426743 3.205045 12.628389
34.195702 3.01417 13.825665
41.035774 3.933003 12.50948
41.819103 1.170998 14.961828
42.155106 -1.297945 16.731646
43.523399 0.80951 14.262817
45.248749 0.388887 13.414049
46.856941 -0.070594 12.131454
54.500954 4.898119 1.928282
53.152893 3.385744 2.75406
54.646446 2.370924 3.525255
53.98877 -0.496042 5.526317
52.884308 -3.085514 7.604509
52.158546 -5.664696 9.724164
53.553963 -2.812042 8.853632
54.187202 -2.705594 10.433263
55.450111 -3.213648 11.721162
61.48185 -12.268579 17.647352
59.62011 -14.940901 19.383976
61.411182 -15.499822 19.235264
61.306557 -17.754078 18.983379
35.069641 -18.311237 20.297016
33.326324 -21.3141 18.419088
46.231892 -12.764021 19.842747
44.377831 -15.281247 21.1497
46.075497 -15.447993 20.314175
45.563614 -17.935099 19.291843
44.904236 -19.764175 18.023106
49.179474 -17.733612 19.511307
46.864677 -19.647516 18.07205
57.57793 -17.701426 18.197203
55.458618 -19.772335 16.715092
33.631264 -10.758472 14.640927
35.136543 6.329931 13.585512
35.336678 2.87952 14.677271
38.033707 5.238522 13.385374
36.800526 2.686697 15.182144
35.797886 -0.223259 15.855921
35.150055 -7.15399 15.910731
34.189411 -10.393126 16.334452
35.127914 -9.979588 17.511799
36.407021 -9.772723 18.378107
37.755959 -9.842381 18.826469
41.749149 -4.367274 17.718817
40.382652 -7.626409 17.085085
39.292477 -9.993137 18.953533
40.85894 -10.247375 18.882854
42.548252 -10.464924 18.653891
44.169521 -10.56846 18.252914
47.412823 4.732006 6.090338
48.146149 2.2509 8.494302
48.614159 -0.655993 10.387805
51.445961 1.29065 5.432881
49.634621 -1.632101 8.537994
47.676598 -4.048257 11.644096
46.334801 -7.071505 12.372314
45.91853 -9.433353 14.501386
46.351948 -10.605268 17.707638
48.142067 -10.742035 17.090359
49.823334 -11.029518 16.392572
51.440575 -11.436651 15.676123
52.727825 -8.286462 11.431677
53.151009 -10.294566 13.129374
53.144421 -11.837337 14.997968
55.035442 -12.012991 14.707664
57.148155 -11.73361 14.655237
59.377979 -11.493589 14.602457
57.236488 -3.303373 11.950636
59.066765 -3.098983 11.561584
58.943748 -5.958481 10.391286
60.266277 -8.45635 10.531507
61.120918 -10.37734 11.95783
61.638542 -11.311247 14.444959
63.271973 -11.314764 15.024277
41.956474 -17.737719 21.411877
39.340649 -20.474274 21.154415
44.506258 6.842811 7.331823
43.741894 7.183117 8.063807
44.558012 8.294935 6.657699
45.319658 6.612527 6.800261
44.50354 5.500709 8.206368
44.506258 6.842811 7.331823
63.658119 -14.368785 20.076064
64.049499 -13.074787 19.837616
34.460997 -22.438648 20.453965
35.184145 -22.335624 20.978828
49.989431 -20.747791 17.668785
51.006207 -20.72991 17.349563
35.189882 -1.833357 14.110072
34.899715 -1.762687 13.421607
34.625292 -0.153823 14.010149
35.253557 -1.931007 14.768769
35.189882 -1.833357 14.110072
52.882778 7.306871 1.240702
53.242367 7.80752 1.679425
53.439068 6.608323 1.70414
52.169866 6.561761 1.276374
51.973166 7.760958 1.251659
52.882778 7.306871 1.240702
52.265179 5.295528 2.062411
51.355566 5.749615 2.073368
52.169866 6.561761 1.276374
62.073555 -5.502496 10.921046
61.492696 -3.998293 11.388963
61.669805 -4.119221 11.901578
62.74868 -6.769322 11.37
62.571571 -6.648393 10.857385
62.073555 -5.502496 10.921046
63.436874 -7.945983 12.121009
62.74868 -6.769322 11.37
41.800345 -21.153208 18.946479
42.979982 -20.928313 18.756591
32.90202 5.464914 10.974839
33.14411 3.598981 10.400375
33.694904 4.906218 12.784859
33.281538 5.093828 12.310764
33.5497 6.795001 12.467234
55.210041 4.911533 3.410877
55.539381 4.322038 4.420546
55.242064 4.43282 2.711829
54.468931 5.376833 2.62733
55.210041 4.911533 3.410877
55.061569 -1.147619 10.31879
54.902332 -1.244224 9.439339
55.693023 -1.401646 10.962739
54.818657 -2.959621 11.077212
55.061569 -1.147619 10.31879
61.827936 -17.589715 19.638624
62.030582 -16.758637 19.398794
62.551962 -16.594275 20.054039
61.41796 -18.222546 20.030352
60.89658 -18.38691 19.375107
61.827936 -17.589715 19.638624
34.948814 -14.435547 17.773872
34.633747 -13.016395 17.781478
32.878267 -22.713532 18.286408
33.752786 -21.218728 19.234064
33.30473 -22.61816 19.101384
32.253965 -24.179519 17.167226
32.702022 -22.780088 17.299906
32.878267 -22.713532 18.286408
46.845146 -20.702497 18.291159
47.898651 -19.633704 18.053679
47.87912 -20.688685 18.272788
45.84009 -20.69348 18.47516
46.845146 -20.702497 18.291159
55.248974 -20.468907 17.386356
56.518667 -19.728634 16.982301
54.226719 -20.789093 16.983581
55.248974 -20.468907 17.386356
35.183809 -1.520361 11.344225
34.309489 0.014663 11.054744
34.166156 -9.209898 13.665602
34.13558 -9.223022 12.869028
34.558267 -7.299268 13.707754
34.110054 -9.022308 14.572627
33.687366 -10.946062 13.733901
34.166156 -9.209898 13.665602
35.854523 6.082883 13.642554
35.780515 7.848793 13.333619
36.498495 7.601745 13.390662
38.756871 4.889112 13.163457
38.718941 6.513772 12.569792
39.442104 6.164363 12.347875
36.603977 -2.023022 16.482945
35.949652 -1.941007 16.046254
36.452212 -0.305274 16.292611
48.256121 5.957517 4.133313
47.256686 6.101188 5.054812
57.4534 -1.568169 12.496901
56.820524 -1.443306 11.956728
59.880157 -4.396083 10.815992
59.752245 -2.889732 11.52841
60.565638 -4.186832 10.782818
38.9734 -21.701895 20.732864
40.257448 -20.281407 20.519047
39.8902 -21.509028 20.097496
38.038769 -21.950254 21.056875
38.9734 -21.701895 20.732864
33.745092 8.53827 12.77972
33.5497 6.795001 12.467234
33.331726 8.725881 12.305623
43.004303 7.510075 8.571173
42.194313 7.849977 9.2363
42.983658 8.975143 8.05481
56.516464 3.866328 4.578336
55.539381 4.322038 4.420546
56.579881 2.860037 5.243641
56.046591 2.961229 4.16068
56.516464 3.866328 4.578336
56.629909 2.136517 5.829809
56.579881 2.860037 5.243641
56.107769 0.989914 6.817521
55.587868 0.808334 5.813697
56.629909 2.136517 5.829809
55.341594 -0.060561 7.623412
56.107769 0.989914 6.817521
63.073246 -15.639326 20.403911
63.339481 -14.492656 19.486362
63.658119 -14.368785 20.076064
62.551962 -16.594275 20.054039
63.073246 -15.639326 20.403911
35.474346 -14.046838 19.228873
34.978307 -14.236705 18.628464
35.433245 -12.582025 19.158124
35.347834 -15.506253 19.45119
35.474346 -14.046838 19.228873
35.80277 -13.851573 19.98085
35.015699 -16.956302 19.391948
35.347834 -15.506253 19.45119
33.760258 -22.535546 19.871755
34.879988 -21.026459 20.631251
34.460997 -22.438648 20.453965
33.30473 -22.61816 19.101384
33.760258 -22.535546 19.871755
48.903696 -20.733787 17.94993
50.01836 -19.633895 17.754162
49.989431 -20.747791 17.668785
47.87912 -20.688685 18.272788
48.903696 -20.733787 17.94993
58.605245 -18.798283 17.742825
59.428212 -18.614134 18.29175
34.979258 -1.634844 12.765897
34.905912 -1.587847 12.025777
34.26178 -0.036156 12.581564
34.979258 -1.634844 12.765897
34.899715 -1.762687 13.421607
35.09025 -5.461833 14.671625
34.558267 -7.299268 13.707754
37.258599 7.225083 13.126047
36.498495 7.601745 13.390662
50.364841 5.848471 2.745156
49.284424 5.932062 3.189635
50.460154 4.582239 3.531193
50.364841 5.848471 2.745156
51.355566 5.749615 2.073368
61.167085 -4.031024 10.951835
61.492696 -3.998293 11.388963
61.294998 -5.537375 10.239416
60.565638 -4.186832 10.782818
61.167085 -4.031024 10.951835
63.648387 -8.780466 12.383973
63.475521 -9.868878 12.869214
63.07383 -9.003631 11.791578
63.648387 -8.780466 12.383973
63.436874 -7.945983 12.121009
40.854668 -21.278517 19.656894
42.119924 -19.963229 19.173262
41.800345 -21.153208 18.946479
39.8902 -21.509028 20.097496
40.854668 -21.278517 19.656894
36.037824 -22.242148 21.184231
35.184145 -22.335624 20.978828
36.434407 -20.836087 21.418864
52.072913 -20.796218 17.032593
51.006207 -20.72991 17.349563
52.170801 -19.714206 17.156047
33.756372 1.743505 10.745522
33.14411 3.598981 10.400375
33.635319 1.739683 11.532223
34.309489 0.014663 11.054744
33.756372 1.743505 10.745522
33.109268 5.225568 11.60807
32.90202 5.464914 10.974839
33.254473 3.336785 11.925695
33.109268 5.225568 11.60807
33.281538 5.093828 12.310764
40.140089 5.776699 11.879635
39.442104 6.164363 12.347875
41.507551 6.699301 10.285196
42.194313 7.849977 9.2363
40.917959 5.473349 11.663604
41.507551 6.699301 10.285196
41.625366 5.158956 11.131072
40.257904 4.236353 12.725511
40.140089 5.776699 11.879635
40.917959 5.473349 11.663604
54.149805 6.003545 2.035572
54.468931 5.376833 2.62733
53.790216 5.502897 1.59685
53.439068 6.608323 1.70414
54.149805 6.003545 2.035572
54.585712 -1.297448 8.649524
54.309845 -1.575155 7.82752
55.341594 -0.060561 7.623412
53.870582 -2.758818 9.643448
54.585712 -1.297448 8.649524
54.902332 -1.244224 9.439339
60.265602 -18.535356 18.66537
59.428212 -18.614134 18.29175
60.469166 -17.832856 18.609759
60.265602 -18.535356 18.66537
60.89658 -18.38691 19.375107
43.560312 9.902888 6.983805
42.983658 8.975143 8.05481
44.345961 9.566472 6.131997
43.560312 9.902888 6.983805
44.558012 8.294935 6.657699
44.345961 9.566472 6.131997
34.948814 -14.435547 17.773872
34.978307 -14.236705 18.628464
34.712391 -18.456427 19.438873
35.015699 -16.956302 19.391948
35.372949 -16.811112 20.250091
33.840733 -19.957859 18.499909
34.712391 -18.456427 19.438873
34.197982 -19.812669 19.358052
33.188068 -21.491827 17.438347
33.840733 -19.957859 18.499909
33.188068 -21.491827 17.438347
32.702022 -22.780088 17.299906
43.899299 -20.891441 18.536721
42.979982 -20.928313 18.756591
43.984918 -19.801047 18.242976
44.859869 -20.75181 18.450688
45.884456 -19.705846 18.047578
45.84009 -20.69348 18.47516
43.899299 -20.891441 18.536721
44.859869 -20.75181 18.450688
57.578323 -18.693179 17.723357
58.604852 -17.806529 18.216671
58.605245 -18.798283 17.742825
56.518274 -18.736881 17.456148
57.578323 -18.693179 17.723357
56.518667 -19.728634 16.982301
53.116163 -20.793183 17.045574
54.348062 -19.776425 16.777085
54.226719 -20.789093 16.983581
52.072913 -20.796218 17.032593
53.116163 -20.793183 17.045574
35.183809 -1.520361 11.344225
34.905912 -1.587847 12.025777
34.29921 -12.437591 14.093988
33.687366 -10.946062 13.733901
34.016812 -12.289132 14.954922
34.29921 -12.437591 14.093988
34.411101 8.269053 13.00039
33.745092 8.53827 12.77972
34.997839 8.130323 13.322481
35.780515 7.848793 13.333619
34.549805 6.468661 13.263421
34.411101 8.269053 13.00039
34.997839 8.130323 13.322481
37.989201 6.926426 12.968935
38.718941 6.513772 12.569792
37.303105 5.537178 13.542486
37.258599 7.225083 13.126047
37.989201 6.926426 12.968935
35.694771 -1.930391 15.347422
35.253557 -1.931007 14.768769
35.356673 -0.223876 15.277268
35.694771 -1.930391 15.347422
35.949652 -1.941007 16.046254
35.345131 -5.472449 15.370458
35.09025 -5.461833 14.671625
36.577065 -3.688166 16.774499
36.603977 -2.023022 16.482945
37.079624 -2.052432 17.020855
35.625737 -5.406373 16.07366
36.577065 -3.688166 16.774499
36.101383 -5.435783 16.61157
34.86945 -7.220066 15.207529
35.345131 -5.472449 15.370458
35.625737 -5.406373 16.07366
34.295885 -12.106459 15.801684
34.016812 -12.289132 14.954922
33.910337 -10.575799 15.487689
34.25985 -11.827012 16.669846
34.295885 -12.106459 15.801684
34.729101 -11.620243 17.25852
34.25985 -11.827012 16.669846
34.658662 -10.186357 16.923125
35.03256 -11.375739 18.034757
34.633747 -13.016395 17.781478
34.729101 -11.620243 17.25852
46.208744 6.370398 5.847047
45.319658 6.612527 6.800261
46.364882 5.001216 6.882573
46.208744 6.370398 5.847047
47.256686 6.101188 5.054812
48.441126 4.706551 5.14666
48.256121 5.957517 4.133313
49.284424 5.932062 3.189635
55.927335 -1.398443 11.841991
55.693023 -1.401646 10.962739
56.3433 -3.25851 11.835899
55.927335 -1.398443 11.841991
56.820524 -1.443306 11.956728
59.135231 -1.433501 12.463876
59.752245 -2.889732 11.52841
58.368538 -1.465974 12.302376
59.135231 -1.433501 12.463876
58.151626 -3.201178 11.75611
57.4534 -1.568169 12.496901
58.368538 -1.465974 12.302376
63.661026 -10.480238 14.242943
63.086468 -10.703404 13.650548
63.475521 -9.868878 12.869214
63.790654 -11.270445 15.716503
63.661026 -10.480238 14.242943
63.629673 -12.084105 17.269527
63.110993 -12.128425 16.577301
63.790654 -11.270445 15.716503
64.116844 -12.224121 17.783622
63.437184 -13.0821 18.644419
63.629673 -12.084105 17.269527
64.328686 -12.029444 18.69275
64.116844 -12.224121 17.783622
64.049499 -13.074787 19.837616
64.328686 -12.029444 18.69275
37.012487 -22.084422 21.291801
38.314368 -20.608443 21.38934
38.038769 -21.950254 21.056875
36.037824 -22.242148 21.184231
37.012487 -22.084422 21.291801
3 0 49 47
3 1 52 50
3 189 55 190
3 191 190 53
3 189 190 191
3 192 57 193
3 194 193 55
3 192 193 194
3 196 195 59
3 2 62 61
3 198 197 63
3 3 67 65
3 200 199 68
3 4 201 203
3 203 202 70
3 201 202 203
3 4 204 205
3 5 73 71
3 5 75 73
3 5 77 75
3 6 80 78
3 6 82 80
3 7 206 208
3 206 207 208
3 7 209 211
3 209 210 211
3 7 212 214
3 212 84 213
3 212 213 214
3 8 87 85
3 8 89 87
3 8 91 89
3 9 94 92
3 9 96 94
3 215 97 216
3 215 216 217
3 218 99 219
3 220 219 97
3 218 219 220
3 222 221 99
3 224 223 100
3 10 104 102
3 12 105 48
3 12 106 105
3 13 109 107
3 15 110 51
3 15 111 110
3 225 112 226
3 17 227 229
3 227 113 228
3 227 228 229
3 17 114 113
3 19 115 54
3 19 116 115
3 19 118 116
3 21 119 56
3 21 120 119
3 22 230 231
3 22 232 234
3 232 121 233
3 232 233 234
3 22 123 121
3 24 124 58
3 24 125 124
3 24 127 125
3 235 128 236
3 237 129 238
3 239 238 128
3 237 238 239
3 26 132 130
3 240 133 241
3 242 241 60
3 240 241 242
3 245 244 133
3 243 244 245
3 28 246 247
3 11 134 103
3 248 135 249
3 250 249 64
3 248 249 250
3 253 252 135
3 251 252 253
3 29 138 136
3 31 139 66
3 31 140 139
3 14 141 108
3 254 142 255
3 256 255 69
3 254 255 256
3 258 257 142
3 27 143 131
3 259 144 260
3 262 261 144
3 16 263 264
3 32 265 267
3 265 266 267
3 32 268 270
3 268 145 269
3 268 269 270
3 33 271 273
3 271 146 272
3 271 272 273
3 33 147 146
3 18 274 276
3 274 148 275
3 274 275 276
3 34 149 72
3 34 150 149
3 34 277 279
3 279 278 150
3 277 278 279
3 35 151 74
3 35 152 151
3 35 153 152
3 36 154 76
3 36 155 154
3 20 156 117
3 37 157 79
3 37 158 157
3 37 159 158
3 38 160 81
3 38 161 160
3 280 162 281
3 39 163 83
3 39 164 163
3 23 165 122
3 40 166 86
3 40 167 166
3 40 168 167
3 41 169 88
3 41 170 169
3 41 171 170
3 42 172 90
3 42 173 172
3 25 174 126
3 43 175 93
3 43 176 175
3 43 177 176
3 44 178 95
3 44 179 178
3 282 180 283
3 45 284 286
3 284 181 285
3 284 285 286
3 45 182 181
3 45 183 182
3 46 184 98
3 46 185 184
3 46 186 185
3 30 187 137
3 287 188 288
3 289 288 101
3 287 288 289
3 291 290 188
3 47 48 10
3 49 48 47
3 49 12 48
3 50 51 13
3 52 51 50
3 52 15 51
3 292 17 293
3 292 293 294
3 53 295 297
3 295 54 296
3 295 296 297
3 55 54 53
3 55 19 54
3 55 56 19
3 57 56 55
3 57 21 56
3 298 22 299
3 300 58 301
3 302 301 22
3 300 301 302
3 303 58 304
3 305 24 306
3 307 306 58
3 305 306 307
3 309 308 24
3 59 60 26
3 310 60 311
3 312 311 59
3 310 311 312
3 314 313 60
3 61 315 317
3 317 316 28
3 315 316 317
3 62 318 320
3 320 319 61
3 318 319 320
3 62 321 322
3 63 64 11
3 323 64 324
3 325 324 63
3 323 324 325
3 327 326 64
3 65 66 29
3 67 66 65
3 67 31 66
3 68 69 14
3 328 69 329
3 330 329 68
3 328 329 330
3 332 331 69
3 334 333 27
3 70 335 337
3 337 336 16
3 335 336 337
3 339 338 70
3 340 32 341
3 342 33 343
3 71 72 18
3 73 72 71
3 73 34 72
3 73 74 34
3 75 74 73
3 75 35 74
3 75 76 35
3 77 76 75
3 77 36 76
3 78 79 20
3 80 79 78
3 80 37 79
3 80 81 37
3 82 81 80
3 82 38 81
3 344 83 345
3 84 346 348
3 346 83 347
3 346 347 348
3 84 39 83
3 85 86 23
3 87 86 85
3 87 40 86
3 87 88 40
3 89 88 87
3 89 41 88
3 89 90 41
3 91 90 89
3 91 42 90
3 92 93 25
3 94 93 92
3 94 43 93
3 94 95 43
3 96 95 94
3 96 44 95
3 97 349 350
3 97 351 353
3 351 45 352
3 351 352 353
3 97 98 45
3 99 98 97
3 99 46 98
3 99 354 356
3 356 355 46
3 354 355 356
3 358 357 99
3 100 101 30
3 359 101 360
3 361 360 100
3 359 360 361
3 363 362 101
3 102 103 2
3 104 103 102
3 104 11 103
3 48 104 10
3 105 104 48
3 105 11 104
3 105 63 11
3 106 63 105
3 106 364 366
3 366 365 63
3 364 365 366
3 107 108 3
3 109 108 107
3 109 14 108
3 51 109 13
3 110 109 51
3 110 14 109
3 110 68 14
3 111 68 110
3 111 367 369
3 369 368 68
3 367 368 369
3 112 370 371
3 112 372 374
3 372 16 373
3 372 373 374
3 375 112 376
3 113 377 379
3 377 112 378
3 377 378 379
3 113 16 112
3 113 70 16
3 114 70 113
3 114 4 70
3 380 18 381
3 54 382 383
3 115 384 386
3 386 385 54
3 384 385 386
3 115 387 389
3 387 18 388
3 387 388 389
3 115 71 18
3 116 71 115
3 116 5 71
3 116 117 5
3 118 117 116
3 118 20 117
3 56 118 19
3 119 118 56
3 119 20 118
3 119 78 20
3 120 78 119
3 120 6 78
3 121 390 391
3 121 392 394
3 392 7 393
3 392 393 394
3 121 122 7
3 123 122 121
3 123 23 122
3 58 123 22
3 124 123 58
3 124 23 123
3 124 85 23
3 125 85 124
3 125 8 85
3 125 126 8
3 127 126 125
3 127 25 126
3 395 127 396
3 397 396 24
3 395 396 397
3 128 398 400
3 398 127 399
3 398 399 400
3 128 25 127
3 128 92 25
3 129 92 128
3 129 9 92
3 130 131 1
3 132 131 130
3 132 27 131
3 60 132 26
3 133 132 60
3 133 27 132
3 133 401 403
3 403 402 27
3 401 402 403
3 405 404 133
3 406 53 407
3 408 53 409
3 411 410 53
3 413 412 28
3 103 62 2
3 134 62 103
3 134 414 416
3 416 415 62
3 414 415 416
3 64 134 11
3 135 134 64
3 135 417 419
3 419 418 134
3 417 418 419
3 135 420 421
3 423 422 135
3 136 137 0
3 138 137 136
3 138 30 137
3 66 138 29
3 139 138 66
3 139 30 138
3 139 100 30
3 140 100 139
3 140 424 426
3 426 425 100
3 424 425 426
3 108 67 3
3 141 67 108
3 141 31 67
3 69 141 14
3 142 141 69
3 142 31 141
3 142 140 31
3 427 140 428
3 429 428 142
3 427 428 429
3 431 430 140
3 131 52 1
3 143 52 131
3 143 15 52
3 432 143 433
3 434 433 27
3 432 433 434
3 144 435 437
3 435 143 436
3 435 436 437
3 144 15 143
3 144 111 15
3 438 111 439
3 440 439 144
3 438 439 440
3 442 441 111
3 444 443 16
3 145 445 446
3 145 447 448
3 449 17 450
3 146 451 452
3 146 453 455
3 453 17 454
3 453 454 455
3 146 114 17
3 147 114 146
3 147 4 114
3 148 456 457
3 148 458 460
3 458 33 459
3 458 459 460
3 72 148 18
3 149 148 72
3 149 33 148
3 149 147 33
3 150 147 149
3 150 4 147
3 150 461 463
3 463 462 4
3 461 462 463
3 465 464 150
3 466 32 467
3 74 468 470
3 470 469 34
3 468 469 470
3 151 471 473
3 473 472 74
3 471 472 473
3 151 474 476
3 474 32 475
3 474 475 476
3 151 145 32
3 152 145 151
3 152 477 479
3 479 478 145
3 477 478 479
3 152 480 481
3 153 482 484
3 484 483 152
3 482 483 484
3 153 485 487
3 485 28 486
3 485 486 487
3 76 153 35
3 154 153 76
3 154 28 153
3 154 61 28
3 155 61 154
3 155 2 61
3 117 77 5
3 156 77 117
3 156 36 77
3 79 156 20
3 157 156 79
3 157 36 156
3 157 155 36
3 158 155 157
3 158 2 155
3 158 102 2
3 159 102 158
3 159 10 102
3 81 159 37
3 160 159 81
3 160 10 159
3 160 47 10
3 161 47 160
3 161 0 47
3 488 57 489
3 162 490 492
3 490 57 491
3 490 491 492
3 162 21 57
3 83 493 495
3 493 162 494
3 493 494 495
3 163 162 83
3 163 21 162
3 163 120 21
3 164 120 163
3 164 6 120
3 122 84 7
3 165 84 122
3 165 39 84
3 86 165 23
3 166 165 86
3 166 39 165
3 166 164 39
3 167 164 166
3 167 6 164
3 167 82 6
3 168 82 167
3 168 38 82
3 88 168 40
3 169 168 88
3 169 38 168
3 169 161 38
3 170 161 169
3 170 0 161
3 170 136 0
3 171 136 170
3 171 29 136
3 90 171 41
3 172 171 90
3 172 29 171
3 172 65 29
3 173 65 172
3 173 3 65
3 126 91 8
3 174 91 126
3 174 42 91
3 93 174 25
3 175 174 93
3 175 42 174
3 175 173 42
3 176 173 175
3 176 3 173
3 176 107 3
3 177 107 176
3 177 13 107
3 95 177 43
3 178 177 95
3 178 13 177
3 178 50 13
3 179 50 178
3 179 1 50
3 496 129 497
3 180 498 500
3 498 129 499
3 498 499 500
3 180 9 129
3 181 501 502
3 181 503 504
3 181 505 507
3 505 180 506
3 505 506 507
3 182 180 181
3 182 9 180
3 182 96 9
3 183 96 182
3 183 44 96
3 98 183 45
3 184 183 98
3 184 44 183
3 184 179 44
3 185 179 184
3 185 1 179
3 185 130 1
3 186 130 185
3 186 26 130
3 508 186 509
3 510 509 46
3 508 509 510
3 511 186 512
3 513 26 514
3 515 514 186
3 513 514 515
3 516 59 517
3 518 517 26
3 516 517 518
3 519 59 520
3 522 521 59
3 137 49 0
3 187 49 137
3 187 12 49
3 101 187 30
3 188 187 101
3 188 12 187
3 188 106 12
3 523 106 524
3 525 524 188
3 523 524 525
3 527 526 106
