ply
format ascii 1.0
element vertex 438
property float x
property float y
property float z
element face 462
property list uchar int vertex_index
end_header
3.023768 -33.548767 65.385971
8.11939 -26.83263 49.849087
11.01602 -35.252949 52.60783
7.082922 -30.401142 56.993004
15.043724 -30.21699 36.605339
5.656686 -21.254053 66.930786
16.827049 -33.013077 44.380013
15.181745 -23.188187 44.570572
4.251626 -38.099537 62.478699
4.705538 -35.902863 57.851357
5.317163 -32.088043 61.590199
2.798186 -34.979935 69.249008
14.534843 -24.411427 36.938232
10.659883 -23.635408 37.791199
9.089613 -31.452627 50.926369
14.131447 -33.88525 48.752892
13.156494 -29.713562 47.875862
16.100018 -28.221069 43.903084
12.362117 -25.112522 47.77491
6.200343 -19.565067 63.153687
8.478331 -37.017609 56.404663
5.471026 -33.674839 53.567677
5.657956 -28.593273 52.940418
15.492696 -35.595634 38.367733
3.173887 -29.397146 69.45752
4.410014 -27.239346 66.33918
4.966739 -23.403507 70.260933
16.144051 -37.943466 51.497627
17.893019 -37.95771 46.756645
18.277908 -37.250271 41.541748
17.875273 -31.949741 39.624752
17.089008 -26.441624 39.430111
5.901457 -25.844818 62.300529
7.29443 -24.617811 57.943287
6.768761 -23.190599 54.182056
7.880935 -21.232418 50.640617
11.199038 -19.264517 48.251934
3.801281 -35.92477 64.106911
4.686882 -35.26931 62.009819
3.986497 -32.779312 63.508667
2.516461 -34.280018 67.516296
3.238815 -37.151161 65.923729
4.143373 -39.056236 64.662567
14.192062 -21.528494 37.715302
12.586028 -24.016739 37.049297
8.531757 -29.186157 50.33783
11.220255 -30.534231 49.491497
10.803388 -28.222469 49.220558
12.805791 -27.452076 47.786037
10.379827 -25.958317 48.943748
7.841397 -38.117096 58.415974
5.853395 -33.205204 57.38039
4.904597 -34.659096 55.7187
5.532309 -32.024315 55.195374
5.317296 -31.090698 53.11972
6.313505 -29.501547 54.795288
15.308635 -32.979176 37.35442
4.041415 -27.568335 71.34758
4.036204 -26.391565 70.071175
5.076699 -24.631905 71.70182
3.721928 -30.127014 70.783203
12.480148 -36.436138 54.180992
13.852335 -36.099106 52.107231
15.576085 -33.456146 46.633476
16.487974 -35.645363 47.862434
17.470306 -35.356422 45.547596
18.39185 -37.702702 44.141914
18.168776 -34.962074 43.036182
18.196165 -34.570641 40.519524
17.759933 -32.546032 41.992401
15.652548 -25.798895 44.02079
16.914928 -27.385508 41.636444
16.446949 -24.807926 41.985359
16.525358 -23.7073 40.022606
15.966888 -22.084652 42.611919
5.099489 -24.489681 66.859924
5.167719 -26.553772 64.28334
5.868736 -23.779148 65.061783
6.402808 -19.120884 61.027424
7.664338 -22.061899 61.049927
7.852567 -21.47711 58.687305
6.975611 -23.947079 55.94231
7.140212 -20.74074 56.374176
6.912442 -18.543758 50.249847
9.510626 -20.220282 49.402718
5.365904 -38.280113 58.797447
4.481194 -37.222904 60.133373
5.434013 -34.387131 59.753857
6.616569 -31.336056 59.472618
14.859566 -27.337896 36.521076
12.862493 -29.774984 36.945187
12.784979 -26.951263 36.805206
6.53096 -22.923315 72.780807
9.918894 -33.539993 51.609364
12.589125 -34.492531 50.746067
11.794291 -32.614807 49.931133
13.478777 -31.939388 47.922169
14.997685 -31.299259 45.800007
16.324524 -30.696182 43.741375
14.850054 -28.96492 45.974102
14.404782 -26.645838 46.003105
13.955763 -24.242985 46.242004
6.006277 -20.257126 65.231537
11.311493 -36.981445 56.24419
9.574774 -36.134159 54.416931
5.743011 -37.059513 56.651581
6.573066 -35.929939 54.641418
8.123601 -34.727718 52.957909
7.030881 -32.645901 52.000359
6.437722 -30.193619 51.438946
6.317373 -27.64245 51.251759
2.769986 -31.326059 67.215492
3.537805 -30.230942 65.60643
3.551524 -28.28923 67.889297
4.521725 -25.404026 68.496033
5.218678 -22.473984 68.530037
6.036922 -21.590044 71.348
5.663028 -20.246815 69.709206
5.248289 -18.89349 68.211975
2.802032 -32.026546 69.155052
15.195096 -35.867851 50.053581
17.088705 -37.969837 49.172443
17.144644 -38.980782 40.633675
17.337894 -36.511341 39.490303
17.248878 -33.945034 38.44796
16.928629 -31.204712 37.545177
17.24576 -29.972479 41.526062
17.406832 -29.246006 39.198235
16.62009 -28.290197 37.399311
16.225376 -25.408756 37.719398
15.707173 -22.597082 38.457771
4.71849 -29.552746 63.80674
6.043762 -28.853333 61.919628
7.0295 -28.140829 59.674122
6.873602 -22.972549 63.154808
6.87605 -25.163647 60.273094
7.222895 -27.343988 57.3036
6.421359 -26.649143 55.270775
6.013097 -25.914988 53.502296
6.595413 -25.076509 51.784416
6.052471 -20.20731 54.371967
8.090915 -24.130878 50.300812
10.088962 -23.164583 49.419048
11.924847 -22.212683 48.233494
13.26701 -21.271808 37.726346
13.997011 -20.008451 38.025837
7.648181 -38.639086 59.449301
8.914452 -38.400914 59.259298
14.02827 -31.343849 37.152472
14.160725 -32.724941 37.527012
15.176179 -31.598083 36.979879
5.259496 -25.290816 72.205517
4.559057 -26.10012 71.5247
4.741854 -26.759031 72.028396
4.741854 -26.759031 72.028396
4.509651 -27.965198 71.708893
7.04031 -20.075179 58.711042
7.127688 -20.298997 59.857365
6.31543 -18.897066 59.881101
6.684133 -19.706994 57.554478
7.496389 -21.108925 57.530741
7.04031 -20.075179 58.711042
6.774704 -16.916207 50.523181
6.084142 -17.506699 51.153926
7.765985 -17.977325 49.728842
6.774704 -16.916207 50.523181
4.36641 -37.66122 61.306036
4.848029 -38.220129 60.65558
4.733245 -38.658445 61.828243
2.958185 -36.57622 69.868683
3.249037 -35.342026 69.628777
4.82026 -39.007664 62.973736
4.766133 -39.486013 64.06567
4.1975 -38.577886 63.570633
4.733245 -38.658445 61.828243
4.82026 -39.007664 62.973736
10.72571 -25.11759 37.80497
11.688782 -25.308256 37.434019
11.622955 -23.826073 37.420248
9.775711 -24.896258 38.397627
10.72571 -25.11759 37.80497
9.894912 -36.999527 56.324427
10.954997 -37.408833 57.193084
9.538416 -37.426914 57.273321
14.428654 -36.428033 38.857786
15.500961 -36.768557 38.833368
11.905995 -30.895778 37.862801
11.832458 -29.600839 37.537419
6.707853 -20.74417 71.521278
6.283941 -22.256679 72.064403
6.954873 -21.410805 72.237682
5.732375 -18.580552 69.480347
6.151459 -19.282826 70.062717
6.220807 -17.616563 69.833858
5.525006 -17.903889 68.731731
5.455659 -19.570152 68.96059
5.732375 -18.580552 69.480347
5.186051 -17.329206 68.054638
5.525006 -17.903889 68.731731
16.292719 -39.160341 52.030518
15.609338 -37.895078 52.567925
16.688269 -39.226591 50.902694
16.292719 -39.160341 52.030518
17.920995 -39.246433 47.267095
17.518838 -39.252496 48.474995
17.490862 -37.963774 47.964544
18.083718 -39.14637 45.991646
17.920995 -39.246433 47.267095
18.159016 -38.540161 42.126297
18.215986 -38.766376 43.42638
18.334879 -37.476487 42.841831
17.711276 -38.115527 41.087711
17.592384 -39.405417 41.67226
18.159016 -38.540161 42.126297
15.848575 -21.748342 39.591456
16.116266 -23.152191 39.240189
16.257668 -22.303452 40.373873
15.475924 -21.171785 38.826603
15.848575 -21.748342 39.591456
5.509958 -18.851858 54.333957
5.809556 -19.149563 55.474762
7.421673 -21.724534 51.470619
6.865568 -20.367027 51.368337
7.985925 -22.681648 50.470714
7.526663 -23.173764 51.300717
7.421673 -21.724534 51.470619
12.331941 -20.26079 47.530082
12.694845 -21.734873 47.520862
11.561943 -20.7386 48.242714
2.658564 -36.054914 67.876594
2.799426 -36.404873 68.742951
2.657323 -34.629976 68.382652
3.019741 -37.490486 67.080311
2.658564 -36.054914 67.876594
2.877638 -35.71559 66.720012
3.610092 -38.509681 66.485981
3.019741 -37.490486 67.080311
3.691094 -38.103699 65.293148
4.062371 -39.462219 65.8554
3.610092 -38.509681 66.485981
12.463994 -22.515931 37.393343
13.389045 -22.772616 37.3823
13.26701 -21.271808 37.726346
11.500921 -22.325266 37.764294
11.622955 -23.826073 37.420248
12.463994 -22.515931 37.393343
9.219949 -37.976658 58.278976
8.914452 -38.400914 59.259298
8.159864 -37.567352 57.410319
9.538416 -37.426914 57.273321
9.219949 -37.976658 58.278976
14.344315 -33.993165 37.99498
14.436345 -35.301394 38.501637
15.400666 -34.287405 37.861076
14.344315 -33.993165 37.99498
14.160725 -32.724941 37.527012
4.349908 -29.244537 71.426704
4.297114 -30.514181 70.773719
3.881671 -28.847675 71.065392
4.349908 -29.244537 71.426704
4.509651 -27.965198 71.708893
13.777387 -37.141414 53.909607
13.244257 -37.21987 54.955212
14.46348 -36.972898 52.872726
13.777387 -37.141414 53.909607
13.166241 -36.267622 53.144112
14.998193 -37.021286 51.802429
15.609338 -37.895078 52.567925
14.46348 -36.972898 52.872726
15.978433 -21.492127 41.66853
16.257668 -22.303452 40.373873
16.246123 -22.895976 41.317262
6.381321 -19.022697 51.172953
6.084142 -17.506699 51.153926
7.396688 -19.888088 50.445232
6.865568 -20.367027 51.368337
6.381321 -19.022697 51.172953
9.065077 -18.815587 49.305277
8.211534 -19.38202 49.826283
7.765985 -17.977325 49.728842
9.909283 -18.337705 48.729885
10.354832 -19.7424 48.827326
9.065077 -18.815587 49.305277
5.290384 -38.748734 59.987617
6.410434 -38.720595 59.640037
4.923549 -37.751508 59.46541
5.290384 -38.748734 59.987617
4.848029 -38.220129 60.65558
2.958185 -36.57622 69.868683
2.799426 -36.404873 68.742951
4.823586 -39.75666 65.323891
4.062371 -39.462219 65.8554
4.823586 -39.75666 65.323891
4.766133 -39.486013 64.06567
11.7937 -28.188978 37.467428
11.832458 -29.600839 37.537419
12.823736 -28.363124 36.875197
11.788258 -26.775518 37.311974
12.685503 -25.484001 36.927251
11.688782 -25.308256 37.434019
11.7937 -28.188978 37.467428
11.788258 -26.775518 37.311974
6.891573 -23.631553 73.191833
5.986626 -24.436521 72.74501
7.357154 -22.186429 72.909667
6.891573 -23.631553 73.191833
6.954873 -21.410805 72.237682
7.357154 -22.186429 72.909667
5.43739 -19.079002 65.926605
5.831481 -20.755589 66.081162
5.262595 -19.577465 66.77623
5.3227 -18.770944 64.920769
5.43739 -19.079002 65.926605
5.419733 -18.424914 63.881844
6.10331 -19.911096 64.192612
5.3227 -18.770944 64.920769
5.524018 -18.13107 62.927099
5.419733 -18.424914 63.881844
5.62525 -17.908978 61.863968
6.301576 -19.342976 62.090556
5.524018 -18.13107 62.927099
5.796231 -17.661158 60.860615
5.62525 -17.908978 61.863968
6.31543 -18.897066 59.881101
5.796231 -17.661158 60.860615
12.245133 -37.667717 56.992035
10.954997 -37.408833 57.193084
12.65993 -37.492523 55.986811
12.245133 -37.667717 56.992035
11.89582 -36.708792 55.212591
13.244257 -37.21987 54.955212
12.65993 -37.492523 55.986811
6.60365 -38.198605 58.60671
7.648181 -38.639086 59.449301
6.410434 -38.720595 59.640037
14.428654 -36.428033 38.857786
14.436345 -35.301394 38.501637
12.937654 -31.122845 37.322395
14.02827 -31.343849 37.152472
13.953108 -29.995987 36.775263
12.937654 -31.122845 37.322395
11.905995 -30.895778 37.862801
5.803829 -23.77761 72.241313
5.259496 -25.290816 72.205517
5.986626 -24.436521 72.74501
6.338406 -19.95444 70.882115
6.707853 -20.74417 71.521278
5.849975 -20.91843 70.528603
6.338406 -19.95444 70.882115
6.151459 -19.282826 70.062717
5.058396 -18.397184 67.416824
5.262595 -19.577465 66.77623
5.452488 -20.073771 67.571381
5.058396 -18.397184 67.416824
5.186051 -17.329206 68.054638
3.246677 -33.884237 69.631493
3.249037 -35.342026 69.628777
3.708549 -31.457777 70.39859
4.297114 -30.514181 70.773719
3.248601 -32.407543 69.584514
3.708549 -31.457777 70.39859
3.26198 -31.07678 69.969127
2.800109 -33.503241 69.20203
3.246677 -33.884237 69.631493
3.248601 -32.407543 69.584514
17.160596 -39.239776 49.740102
16.688269 -39.226591 50.902694
16.616378 -37.956651 50.335035
17.160596 -39.239776 49.740102
17.518838 -39.252496 48.474995
18.333134 -39.018866 44.68428
18.083718 -39.14637 45.991646
18.142435 -37.830206 45.44928
18.333134 -39.018866 44.68428
18.215986 -38.766376 43.42638
16.699439 -40.13205 41.25766
17.592384 -39.405417 41.67226
15.975731 -39.522955 40.598022
15.530526 -40.674223 41.222008
16.699439 -40.13205 41.25766
16.326935 -38.46113 39.966339
15.975731 -39.522955 40.598022
16.423561 -37.22641 39.394653
16.326935 -38.46113 39.966339
17.241269 -37.746061 40.061989
16.415295 -36.053488 38.929018
15.500961 -36.768557 38.833368
16.423561 -37.22641 39.394653
14.718369 -20.63749 38.455369
14.949617 -22.062788 38.086537
15.475924 -21.171785 38.826603
13.997011 -20.008451 38.025837
14.718369 -20.63749 38.455369
6.353426 -19.416278 56.475866
6.684133 -19.706994 57.554478
6.596341 -20.474025 55.373071
6.353426 -19.416278 56.475866
5.809556 -19.149563 55.474762
5.951335 -19.854472 53.234012
5.509958 -18.851858 54.333957
6.507441 -21.21198 53.336294
5.951335 -19.854472 53.234012
6.865586 -22.703625 53.241338
6.410616 -21.698954 54.277012
6.507441 -21.21198 53.336294
6.778912 -23.64658 52.042518
6.682087 -24.133554 52.983236
6.865586 -22.703625 53.241338
7.343164 -24.603693 51.042614
6.778912 -23.64658 52.042518
7.526663 -23.173764 51.300717
13.710303 -22.750024 46.525118
12.940305 -23.227834 47.237749
12.694845 -21.734873 47.520862
14.323294 -22.222625 45.689402
14.568754 -23.715586 45.406288
13.710303 -22.750024 46.525118
10.741507 -17.760892 48.253866
9.909283 -18.337705 48.729885
11.852995 -18.77082 47.506594
10.741507 -17.760892 48.253866
12.331941 -20.26079 47.530082
11.852995 -18.77082 47.506594
14.894866 -21.668779 44.803269
14.323294 -22.222625 45.689402
15.287438 -21.117012 43.823942
15.574317 -22.636419 43.591245
14.894866 -21.668779 44.803269
15.586243 -20.500494 42.87092
15.287438 -21.117012 43.823942
15.978433 -21.492127 41.66853
15.586243 -20.500494 42.87092
10.513922 -21.801723 38.032923
11.500921 -22.325266 37.764294
9.69546 -23.14045 38.307454
10.513922 -21.801723 38.032923
9.775711 -24.896258 38.397627
9.69546 -23.14045 38.307454
3 0 39 37
3 0 41 40
3 0 37 41
3 145 144 43
3 1 47 45
3 1 49 47
3 146 50 147
3 3 53 51
3 3 55 53
3 4 148 150
3 150 149 56
3 148 149 150
3 151 59 152
3 153 152 57
3 151 152 153
3 154 57 155
3 2 62 61
3 6 65 63
3 6 67 65
3 6 69 67
3 7 72 70
3 7 74 72
3 5 77 75
3 156 80 157
3 158 157 78
3 156 157 158
3 159 82 160
3 161 160 80
3 159 160 161
3 162 83 163
3 165 164 83
3 8 166 168
3 166 86 167
3 166 167 168
3 10 87 38
3 10 88 87
3 11 169 170
3 8 171 173
3 173 172 42
3 171 172 173
3 8 174 175
3 12 91 89
3 13 176 178
3 178 177 44
3 176 177 178
3 13 179 180
3 14 95 93
3 16 96 46
3 16 97 96
3 16 99 97
3 18 100 48
3 18 101 100
3 20 181 183
3 181 103 182
3 181 182 183
3 20 104 103
3 9 105 85
3 21 106 52
3 21 107 106
3 21 108 107
3 22 109 54
3 22 110 109
3 23 184 185
3 187 186 90
3 24 113 111
3 26 114 58
3 26 115 114
3 188 116 189
3 190 189 92
3 188 189 190
3 191 117 192
3 191 192 193
3 194 118 195
3 196 195 117
3 194 195 196
3 198 197 118
3 24 119 60
3 24 111 119
3 27 199 200
3 27 201 202
3 15 120 94
3 28 121 64
3 28 203 205
3 205 204 121
3 203 204 205
3 28 206 207
3 29 208 210
3 210 209 66
3 208 209 210
3 29 211 213
3 211 122 212
3 211 212 213
3 29 123 122
3 30 124 68
3 30 125 124
3 17 126 98
3 31 127 71
3 31 128 127
3 31 129 128
3 214 130 215
3 216 215 73
3 214 215 216
3 218 217 130
3 25 131 112
3 32 132 76
3 32 133 132
3 19 134 102
3 33 135 79
3 33 136 135
3 33 137 136
3 34 138 81
3 34 139 138
3 219 140 220
3 35 221 222
3 35 223 225
3 223 141 224
3 223 224 225
3 35 142 141
3 36 143 84
3 36 226 228
3 228 227 143
3 226 227 228
3 37 38 8
3 39 38 37
3 39 10 38
3 40 229 231
3 231 230 11
3 229 230 231
3 41 232 234
3 234 233 40
3 232 233 234
3 41 235 236
3 41 237 239
3 237 42 238
3 237 238 239
3 37 42 41
3 37 8 42
3 43 44 12
3 240 44 241
3 242 241 43
3 240 241 242
3 243 13 244
3 245 244 44
3 243 244 245
3 45 46 14
3 47 46 45
3 47 16 46
3 47 48 16
3 49 48 47
3 49 18 48
3 50 246 247
3 50 248 250
3 248 20 249
3 248 249 250
3 51 52 9
3 53 52 51
3 53 21 52
3 53 54 21
3 55 54 53
3 55 22 54
3 56 251 253
3 253 252 23
3 251 252 253
3 255 254 56
3 57 58 24
3 59 58 57
3 59 26 58
3 256 60 257
3 57 258 260
3 258 60 259
3 258 259 260
3 57 24 60
3 61 261 262
3 62 263 265
3 265 264 61
3 263 264 265
3 62 266 268
3 266 27 267
3 266 267 268
3 63 64 15
3 65 64 63
3 65 28 64
3 65 66 28
3 67 66 65
3 67 29 66
3 67 68 29
3 69 68 67
3 69 30 68
3 70 71 17
3 72 71 70
3 72 31 71
3 72 73 31
3 74 73 72
3 74 269 271
3 271 270 73
3 269 270 271
3 75 76 25
3 77 76 75
3 77 32 76
3 78 79 19
3 80 79 78
3 80 33 79
3 80 81 33
3 82 81 80
3 82 34 81
3 83 272 273
3 83 274 276
3 274 35 275
3 274 275 276
3 83 84 35
3 277 84 278
3 279 278 83
3 277 278 279
3 280 36 281
3 282 281 84
3 280 281 282
3 283 85 284
3 86 285 287
3 285 85 286
3 285 286 287
3 86 9 85
3 38 86 8
3 87 86 38
3 87 9 86
3 87 51 9
3 88 51 87
3 88 3 51
3 289 288 11
3 42 290 291
3 293 292 42
3 89 90 4
3 91 90 89
3 91 294 296
3 296 295 90
3 294 295 296
3 44 91 12
3 297 91 298
3 299 298 44
3 297 298 299
3 301 300 91
3 302 92 303
3 304 92 305
3 307 306 92
3 93 94 2
3 95 94 93
3 95 15 94
3 46 95 14
3 96 95 46
3 96 15 95
3 96 63 15
3 97 63 96
3 97 6 63
3 97 98 6
3 99 98 97
3 99 17 98
3 48 99 16
3 100 99 48
3 100 17 99
3 100 70 17
3 101 70 100
3 101 7 70
3 308 102 309
3 310 309 5
3 308 309 310
3 311 102 312
3 313 19 314
3 315 314 102
3 313 314 315
3 316 19 317
3 318 78 319
3 320 319 19
3 318 319 320
3 321 78 322
3 324 323 78
3 103 325 326
3 103 327 328
3 103 329 331
3 329 61 330
3 329 330 331
3 104 61 103
3 104 2 61
3 85 332 334
3 332 50 333
3 332 333 334
3 105 50 85
3 105 20 50
3 52 105 9
3 106 105 52
3 106 20 105
3 106 104 20
3 107 104 106
3 107 2 104
3 107 93 2
3 108 93 107
3 108 14 93
3 54 108 21
3 109 108 54
3 109 14 108
3 109 45 14
3 110 45 109
3 110 1 45
3 336 335 23
3 90 337 339
3 339 338 4
3 337 338 339
3 341 340 90
3 111 112 0
3 113 112 111
3 113 25 112
3 58 113 24
3 114 113 58
3 114 25 113
3 114 75 25
3 115 75 114
3 115 5 75
3 92 342 344
3 342 59 343
3 342 343 344
3 116 59 92
3 116 26 59
3 345 116 346
3 117 347 349
3 347 116 348
3 347 348 349
3 117 26 116
3 117 115 26
3 118 115 117
3 118 5 115
3 118 350 352
3 352 351 5
3 350 351 352
3 354 353 118
3 355 11 356
3 60 357 358
3 119 359 361
3 361 360 60
3 359 360 361
3 119 362 364
3 362 11 363
3 362 363 364
3 119 40 11
3 111 40 119
3 111 0 40
3 94 62 2
3 120 62 94
3 120 27 62
3 64 120 15
3 121 120 64
3 121 27 120
3 121 365 367
3 367 366 27
3 365 366 367
3 369 368 121
3 66 370 372
3 372 371 28
3 370 371 372
3 374 373 66
3 122 375 376
3 122 377 379
3 377 378 379
3 122 380 381
3 123 382 384
3 384 383 122
3 382 383 384
3 123 385 387
3 385 23 386
3 385 386 387
3 68 123 29
3 124 123 68
3 124 23 123
3 124 56 23
3 125 56 124
3 125 4 56
3 98 69 6
3 126 69 98
3 126 30 69
3 71 126 17
3 127 126 71
3 127 30 126
3 127 125 30
3 128 125 127
3 128 4 125
3 128 89 4
3 129 89 128
3 129 12 89
3 73 129 31
3 130 129 73
3 130 12 129
3 130 43 12
3 388 43 389
3 390 389 130
3 388 389 390
3 392 391 43
3 112 39 0
3 131 39 112
3 131 10 39
3 76 131 25
3 132 131 76
3 132 10 131
3 132 88 10
3 133 88 132
3 133 3 88
3 102 77 5
3 134 77 102
3 134 32 77
3 79 134 19
3 135 134 79
3 135 32 134
3 135 133 32
3 136 133 135
3 136 3 133
3 136 55 3
3 137 55 136
3 137 22 55
3 81 137 33
3 138 137 81
3 138 22 137
3 138 110 22
3 139 110 138
3 139 1 110
3 393 82 394
3 140 395 397
3 395 82 396
3 395 396 397
3 140 34 82
3 398 140 399
3 400 140 401
3 402 34 403
3 404 403 140
3 402 403 404
3 405 139 406
3 407 406 34
3 405 406 407
3 141 408 410
3 408 139 409
3 408 409 410
3 141 1 139
3 141 49 1
3 142 49 141
3 142 18 49
3 84 142 35
3 143 142 84
3 143 18 142
3 143 101 18
3 411 101 412
3 413 412 143
3 411 412 413
3 414 7 415
3 416 415 101
3 414 415 416
3 417 36 418
3 419 36 420
3 422 421 36
3 423 7 424
3 425 74 426
3 427 426 7
3 425 426 427
3 428 74 429
3 431 430 74
3 432 13 433
3 434 13 435
3 437 436 13
