ply
format ascii 1.0
element vertex 452
property float x
property float y
property float z
element face 483
property list uchar int vertex_index
end_header
-13.658503 -28.456635 46.767418
-5.402651 -29.018951 62.225578
-6.989091 -19.480457 62.274452
-5.950472 -18.064802 70.044807
-15.859179 -37.038574 50.584652
-18.493277 -35.563194 40.612774
-6.510956 -20.966934 52.51244
-5.594564 -29.578619 53.152596
-8.223721 -38.331398 56.589558
-5.272285 -29.462042 70.990089
-16.583212 -23.399439 38.235413
-8.027399 -24.20738 63.602283
-9.112638 -25.265837 58.15556
-6.290396 -29.67802 57.675606
-5.686475 -34.601261 54.210999
-5.912916 -34.750031 58.267101
-13.454694 -23.868908 46.756901
-16.420721 -26.243963 42.58197
-15.647046 -32.884258 37.505836
-6.026431 -18.670622 66.455666
-6.274644 -23.893169 67.526405
-14.574946 -32.55669 48.356438
-17.362175 -31.744587 43.538338
-18.142208 -36.803764 45.738728
-17.672859 -40.87265 43.308052
-9.944926 -24.689348 50.071224
-7.225627 -20.523905 57.357635
-8.101044 -25.685345 53.506958
-8.960483 -29.143703 49.804096
-9.460531 -32.923607 51.431164
-12.326114 -36.811348 54.089165
-6.277092 -23.892258 71.690948
-4.068587 -29.071009 66.905418
-3.017889 -35.413994 66.804398
-4.186833 -35.182877 62.594109
-5.470483 -40.05143 60.185585
-17.791559 -29.376011 38.692387
-14.206288 -26.956604 36.289703
-6.416667 -26.601963 62.753426
-7.214284 -26.900824 60.50053
-6.181264 -29.291203 60.045124
-6.307397 -32.037285 57.738792
-6.042864 -31.906696 60.176586
-13.69853 -26.221674 46.899792
-15.088847 -25.070904 44.74633
-15.321665 -27.569164 44.743095
-5.788097 -18.258703 68.248978
-6.59471 -20.985409 67.467644
-6.165825 -20.807253 69.125435
-15.172308 -34.731491 49.490704
-16.654554 -34.64093 47.017006
-17.15839 -36.979691 48.219872
-6.998876 -20.842472 50.319565
-7.205454 -19.923578 59.809582
-7.052984 -27.83884 55.476959
-8.724733 -25.658916 55.664162
-6.688905 -27.691345 53.259491
-7.343263 -27.366016 51.176342
-6.610708 -29.304861 51.063812
-8.876666 -31.085133 50.273743
-6.556054 -31.525806 51.653309
-6.793573 -36.632645 55.257294
-8.731604 -35.653225 54.150158
-10.352351 -37.449062 55.462139
-13.776308 -38.590797 55.373035
-11.810776 -38.782482 56.983776
-7.292628 -24.127924 73.149414
-5.641098 -26.818867 71.585213
-5.027112 -26.585003 69.585136
-4.180657 -29.184612 69.369476
-3.268 -39.197346 67.503792
-3.333141 -39.039143 65.508461
-3.263241 -35.367271 64.668289
-3.871194 -38.750103 63.31963
-4.557048 -38.239445 61.239124
-14.937123 -22.101456 36.961639
-18.365023 -33.560379 41.959835
-17.974539 -30.730051 41.07457
-18.282812 -32.451912 39.50288
-13.535327 -31.51502 37.776844
-15.068973 -29.883167 36.692318
-16.685274 -39.246979 51.879688
-17.584082 -39.290527 49.589043
-17.880375 -41.73048 50.912285
-5.005219 -19.175533 54.033104
-8.440224 -21.381922 63.531914
-9.212033 -21.842896 60.842731
-8.948489 -24.611643 61.044792
-7.445271 -27.411327 57.97049
-5.766667 -29.802288 55.389538
-5.270175 -31.91655 53.449501
-5.431809 -32.083248 55.562065
-5.32441 -34.629566 56.171825
-5.32517 -37.070847 56.8088
-14.703517 -22.615475 44.680405
-16.033356 -23.668278 42.601761
-16.943319 -24.835615 40.320889
-17.303829 -37.238857 39.781166
-17.405649 -34.292961 38.486641
-15.630849 -35.677631 38.640472
-11.801558 -32.734406 39.293541
-9.7659 -31.615366 40.47184
-6.517677 -19.091686 64.453514
-7.507768 -21.157471 65.729019
-6.974566 -24.048916 65.638474
-5.695413 -26.485865 64.791069
-13.950229 -30.640381 47.191025
-15.703819 -30.077427 45.084892
-16.301413 -32.350616 45.959473
-17.758999 -34.341316 44.479816
-18.724518 -36.463802 43.113884
-18.341976 -39.25338 47.088417
-18.668911 -38.959789 44.459755
-18.335062 -38.376816 41.915462
-16.710251 -39.708809 41.221214
-11.799816 -24.255114 48.617935
-11.777765 -26.561258 48.585651
-5.265725 -18.779312 56.392159
-6.8782 -20.856518 55.021484
-9.381513 -22.370735 58.005775
-8.97191 -22.86307 55.531792
-8.210079 -22.905117 53.343719
-8.315847 -25.275738 51.560406
-9.530746 -27.052464 49.799614
-11.479441 -28.764868 48.556084
-11.474974 -30.728241 48.922493
-12.071203 -32.498486 50.073887
-13.113182 -34.39069 51.477173
-7.222798 -33.805862 52.721416
-10.823134 -34.717903 52.971142
-14.151155 -36.685234 52.443653
-15.339247 -38.801136 53.707672
-7.194594 -20.972904 72.797501
-6.341169 -20.777409 71.125275
-6.019628 -23.845047 69.6521
-5.186068 -26.459476 67.213631
-4.57675 -29.024555 64.522949
-3.797281 -35.412766 68.301056
-3.845984 -32.169708 68.763748
-3.450699 -32.013023 66.718163
-3.871435 -31.99876 64.360535
-4.838724 -32.063885 62.280823
-5.39953 -35.065392 60.63102
-4.989109 -37.585899 59.016682
-6.488996 -39.288315 58.176155
-10.103886 -39.493782 58.745678
-16.823742 -29.039612 42.841438
-17.451851 -27.724493 40.47612
-17.176807 -26.390265 38.212406
-17.149708 -31.213018 37.572983
-16.445751 -28.137135 36.816853
-15.670636 -25.089064 36.650723
-13.361389 -24.090141 36.515217
-5.869285 -18.161752 69.146893
-5.876784 -17.065733 68.60239
-5.957972 -16.968782 69.500305
-6.754916 -20.904703 51.416002
-6.108719 -20.015403 50.975063
-5.864759 -20.077634 52.071501
-7.336015 -21.807879 51.890964
-7.579975 -21.745648 50.794527
-6.754916 -20.904703 51.416002
-7.097272 -19.702018 61.042017
-6.280162 -18.861107 60.513422
-6.17198 -18.639547 61.745857
-5.456691 -28.140455 71.287651
-6.291688 -26.967405 72.193612
-6.107281 -28.288992 71.89605
-3.890803 -40.362597 65.10342
-3.771272 -40.565298 66.385395
-4.159829 -40.218077 64.009005
-3.602168 -38.894623 64.414046
-3.890803 -40.362597 65.10342
-4.391091 -39.835217 62.851765
-4.159829 -40.218077 64.009005
-16.208714 -21.998325 38.391789
-16.488029 -22.736193 39.373282
-15.760167 -22.750447 37.598526
-15.385669 -21.349334 37.754902
-16.208714 -21.998325 38.391789
-13.122498 -30.122564 37.461378
-12.434261 -30.912636 38.346388
-17.613506 -41.568924 52.104896
-17.282825 -40.48873 51.395986
-17.015956 -40.327174 52.588598
-5.109305 -17.753208 54.715344
-4.889015 -17.781832 53.682384
-14.079106 -23.242192 45.718653
-13.756358 -22.097153 45.581306
-13.131946 -22.723869 46.619554
-15.398388 -36.979984 39.334722
-16.467339 -36.458244 39.210819
-16.234877 -37.760597 39.905069
-11.73217 -33.935921 39.677447
-12.743387 -33.435526 38.912964
-10.843432 -33.250386 39.891613
-11.73217 -33.935921 39.677447
-5.712855 -17.643452 65.857502
-5.764556 -17.438123 66.786816
-6.272054 -18.881154 65.45459
-5.958479 -17.853984 64.856426
-5.712855 -17.643452 65.857502
-18.268127 -40.518961 47.744742
-17.963029 -39.271953 48.33873
-17.889179 -40.537534 48.995054
-18.170885 -39.916219 43.883904
-18.397539 -40.226961 45.110935
-17.899513 -41.183391 44.535083
-10.872371 -24.472231 49.34458
-10.692391 -23.262979 49.126548
-9.764947 -23.480096 49.853193
-6.245676 -19.651609 56.874897
-5.2939 -18.587285 57.622879
-6.27385 -19.459581 58.105618
-15.132496 -39.593535 55.302902
-14.534219 -39.258045 56.201736
-11.481701 -39.771885 59.889314
-9.401559 -39.938148 59.603791
-12.062378 -39.649648 58.929215
-11.481701 -39.771885 59.889314
-8.702417 -31.136138 40.652344
-8.892754 -32.15254 40.694184
-5.645389 -17.232163 67.683472
-5.876784 -17.065733 68.60239
-5.907264 -18.464663 67.352322
-5.764556 -17.438123 66.786816
-5.645389 -17.232163 67.683472
-17.085578 -41.958328 44.039099
-17.899513 -41.183391 44.535083
-16.623755 -41.289591 43.110819
-17.085578 -41.958328 44.039099
-6.685944 -19.729917 50.02504
-6.108719 -20.015403 50.975063
-7.816087 -20.606577 49.564838
-6.685944 -19.729917 50.02504
-8.291922 -21.556658 49.977363
-7.816087 -20.606577 49.564838
-8.291922 -21.556658 49.977363
-7.579975 -21.745648 50.794527
-9.053 -23.669086 50.670356
-9.764947 -23.480096 49.853193
-6.263764 -19.159418 59.331591
-6.280162 -18.861107 60.513422
-7.21554 -20.223741 58.583608
-6.27385 -19.459581 58.105618
-6.263764 -19.159418 59.331591
-13.551454 -39.353887 57.007106
-14.534219 -39.258045 56.201736
-12.793542 -38.686639 56.178405
-7.117452 -25.621933 72.975712
-8.048523 -24.284541 73.513249
-6.466863 -25.473396 72.367313
-7.117452 -25.621933 72.975712
-6.291688 -26.967405 72.193612
-3.738701 -40.6444 67.38306
-3.84493 -40.412177 68.573811
-3.300571 -39.118245 66.506126
-3.738701 -40.6444 67.38306
-3.771272 -40.565298 66.385395
-4.734018 -39.579887 61.811512
-4.214121 -38.494774 62.279377
-4.391091 -39.835217 62.851765
-5.190735 -40.48588 61.284743
-5.013765 -39.145437 60.712355
-4.734018 -39.579887 61.811512
-14.542977 -20.687891 37.184732
-15.385669 -21.349334 37.754902
-13.787848 -21.624148 36.951669
-14.542977 -20.687891 37.184732
-13.889321 -29.306638 36.919115
-14.30215 -30.699094 37.234581
-13.122498 -30.122564 37.461378
-13.457978 -27.843356 36.717808
-14.637631 -28.419885 36.491011
-13.889321 -29.306638 36.919115
-12.962031 -26.479617 36.715107
-13.457978 -27.843356 36.717808
-6.349523 -16.853276 70.331608
-5.957972 -16.968782 69.500305
-18.037326 -41.757511 49.656675
-17.889179 -40.537534 48.995054
-17.732228 -40.510503 50.250664
-17.69114 -42.934837 51.49453
-17.613506 -41.568924 52.104896
-17.657746 -42.935253 50.208303
-17.69114 -42.934837 51.49453
-18.037326 -41.757511 49.656675
-17.657746 -42.935253 50.208303
-5.111891 -19.181933 52.831833
-4.889015 -17.781832 53.682384
-5.758088 -20.071233 53.272772
-5.864759 -20.077634 52.071501
-5.111891 -19.181933 52.831833
-6.048452 -29.587542 71.234172
-6.107281 -28.288992 71.89605
-14.30283 -21.423437 44.73152
-13.756358 -22.097153 45.581306
-15.134975 -21.902311 43.720162
-14.30283 -21.423437 44.73152
-15.799894 -22.428713 42.68084
-15.134975 -21.902311 43.720162
-15.368437 -23.141877 43.641083
-16.213102 -22.870613 41.556455
-15.799894 -22.428713 42.68084
-16.668083 -23.454282 40.41602
-16.213102 -22.870613 41.556455
-16.488338 -24.251947 41.461325
-16.763265 -24.117527 39.278151
-16.488029 -22.736193 39.373282
-16.668083 -23.454282 40.41602
-14.52403 -36.180797 39.200435
-15.398388 -36.979984 39.334722
-14.658033 -34.907139 38.58643
-14.52403 -36.180797 39.200435
-14.666131 -33.510452 38.019112
-15.638948 -34.280945 38.073154
-14.658033 -34.907139 38.58643
-13.610271 -32.825833 38.154615
-14.591186 -32.199639 37.64134
-14.666131 -33.510452 38.019112
-12.668443 -32.124713 38.535192
-13.610271 -32.825833 38.154615
-12.743387 -33.435526 38.912964
-11.567377 -31.522329 39.104737
-12.434261 -30.912636 38.346388
-12.668443 -32.124713 38.535192
-10.783729 -32.174886 39.88269
-10.549548 -30.962809 39.693886
-11.567377 -31.522329 39.104737
-9.825603 -32.690866 40.480762
-10.783729 -32.174886 39.88269
-10.843432 -33.250386 39.891613
-8.892754 -32.15254 40.694184
-9.825603 -32.690866 40.480762
-6.171133 -18.347228 62.771249
-6.17198 -18.639547 61.745857
-5.935426 -18.152842 63.860781
-5.958479 -17.853984 64.856426
-6.753384 -19.286071 63.363983
-6.171133 -18.347228 62.771249
-5.935426 -18.152842 63.860781
-18.234071 -40.373756 46.425266
-18.268127 -40.518961 47.744742
-18.505443 -39.106584 45.774086
-18.234071 -40.373756 46.425266
-18.397539 -40.226961 45.110935
-15.938088 -38.995573 40.625094
-16.234877 -37.760597 39.905069
-17.00704 -38.473833 40.50119
-16.142451 -40.707671 42.0674
-17.191555 -40.290729 42.264633
-16.623755 -41.289591 43.110819
-15.474147 -40.018381 41.4958
-16.142451 -40.707671 42.0674
-14.906347 -41.017243 42.341986
-15.938088 -38.995573 40.625094
-15.474147 -40.018381 41.4958
-12.340584 -22.930136 47.435604
-13.131946 -22.723869 46.619554
-11.513145 -23.123239 48.366121
-10.692391 -23.262979 49.126548
-12.627255 -24.062011 47.687418
-12.340584 -22.930136 47.435604
-11.513145 -23.123239 48.366121
-5.512621 -17.475064 57.051945
-5.2939 -18.587285 57.622879
-5.239558 -17.555098 55.894871
-5.512621 -17.475064 57.051945
-5.135472 -18.977423 55.212632
-5.109305 -17.753208 54.715344
-5.239558 -17.555098 55.894871
-8.185576 -22.77697 52.306604
-7.336015 -21.807879 51.890964
-7.360518 -21.936025 52.928079
-8.23846 -23.96228 51.414947
-8.185576 -22.77697 52.306604
-8.262963 -24.090428 52.452062
-9.130387 -24.982543 50.815815
-9.053 -23.669086 50.670356
-8.23846 -23.96228 51.414947
-16.342942 -40.104252 53.50259
-17.015956 -40.327174 52.588598
-16.012261 -39.024057 52.79368
-15.913965 -39.698704 54.47022
-14.557778 -38.695966 54.540354
-15.132496 -39.593535 55.302902
-16.342942 -40.104252 53.50259
-15.913965 -39.698704 54.47022
-6.398445 -18.075036 70.95076
-6.349523 -16.853276 70.331608
-8.015652 -22.78527 73.467277
-8.048523 -24.284541 73.513249
-7.966635 -21.20776 73.291321
-8.015652 -22.78527 73.467277
-7.243611 -22.550414 72.973457
-7.851564 -19.750895 72.801224
-7.966635 -21.20776 73.291321
-7.020506 -19.529087 72.327106
-7.677475 -18.307077 72.330829
-7.851564 -19.750895 72.801224
-6.593793 -19.431339 71.490994
-7.020506 -19.529087 72.327106
-6.767881 -20.875156 71.961388
-6.145821 -19.421105 70.585041
-6.398445 -18.075036 70.95076
-6.593793 -19.431339 71.490994
-5.178645 -30.90081 70.358543
-6.048452 -29.587542 71.234172
-3.67085 -39.108069 67.976936
-3.84493 -40.412177 68.573811
-3.935491 -37.215778 68.375568
-3.67085 -39.108069 67.976936
-3.53264 -37.305056 67.902424
-4.423907 -35.387194 68.371525
-3.935491 -37.215778 68.375568
-4.441143 -33.876171 69.014026
-4.423907 -35.387194 68.371525
-4.465495 -32.254643 69.245373
-4.441143 -33.876171 69.014026
-3.821632 -33.791237 68.532402
-4.559134 -30.815875 69.876919
-5.178645 -30.90081 70.358543
-4.465495 -32.254643 69.245373
-6.552677 -40.648745 61.266426
-5.190735 -40.48588 61.284743
-7.084857 -40.216972 60.323744
-6.552677 -40.648745 61.266426
-7.594113 -39.835415 59.319029
-5.979739 -39.669872 59.18087
-7.084857 -40.216972 60.323744
-8.296441 -39.391048 58.460916
-7.594113 -39.835415 59.319029
-9.401559 -39.938148 59.603791
-12.915824 -39.293999 58.048264
-10.957331 -39.138132 57.864727
-12.062378 -39.649648 58.929215
-13.551454 -39.353887 57.007106
-12.915824 -39.293999 58.048264
-12.999981 -22.618491 36.728459
-13.787848 -21.624148 36.951669
-14.149256 -23.095799 36.738428
-12.539581 -25.046385 36.827864
-13.783839 -25.523373 36.40246
-12.962031 -26.479617 36.715107
-12.158914 -23.705686 37.024549
-12.539581 -25.046385 36.827864
-12.999981 -22.618491 36.728459
-12.158914 -23.705686 37.024549
-9.393443 -30.522634 40.49329
-10.549548 -30.962809 39.693886
-9.393443 -30.522634 40.49329
-8.702417 -31.136138 40.652344
3 1 40 38
3 1 42 40
3 0 45 43
3 3 153 155
3 153 46 154
3 153 154 155
3 3 48 46
3 4 51 49
3 6 156 158
3 156 52 157
3 156 157 158
3 6 159 161
3 161 160 52
3 159 160 161
3 2 162 164
3 162 53 163
3 162 163 164
3 7 56 54
3 7 58 56
3 7 60 58
3 8 63 61
3 8 65 63
3 9 165 167
3 165 67 166
3 165 166 167
3 9 69 67
3 168 71 169
3 170 73 171
3 172 171 71
3 170 171 172
3 174 173 73
3 10 175 176
3 10 177 179
3 177 75 178
3 177 178 179
3 5 78 76
3 181 180 79
3 182 83 183
3 184 183 81
3 182 183 184
3 185 84 186
3 11 87 85
3 13 88 39
3 13 89 88
3 13 91 89
3 15 92 41
3 15 93 92
3 16 187 189
3 187 94 188
3 187 188 189
3 17 95 44
3 17 96 95
3 190 99 191
3 192 191 97
3 190 191 192
3 193 100 194
3 196 195 100
3 19 197 198
3 19 199 201
3 199 102 200
3 199 200 201
3 19 103 102
3 20 104 47
3 20 105 104
3 21 108 106
3 23 109 50
3 23 110 109
3 202 111 203
3 204 203 82
3 202 203 204
3 24 205 207
3 205 112 206
3 205 206 207
3 24 113 112
3 24 114 113
3 25 208 210
3 208 115 209
3 208 209 210
3 25 116 115
3 26 211 213
3 211 117 212
3 211 212 213
3 26 118 117
3 12 119 86
3 27 120 55
3 27 121 120
3 27 122 121
3 28 123 57
3 28 124 123
3 28 125 124
3 29 126 59
3 29 127 126
3 14 128 90
3 30 129 62
3 30 130 129
3 30 131 130
3 215 214 64
3 31 132 66
3 31 133 132
3 31 134 133
3 32 135 68
3 32 136 135
3 33 137 70
3 33 138 137
3 33 139 138
3 34 140 72
3 34 141 140
3 34 142 141
3 35 143 74
3 35 144 143
3 216 145 217
3 219 218 145
3 22 146 107
3 36 147 77
3 36 148 147
3 18 149 98
3 37 150 80
3 37 151 150
3 37 152 151
3 221 220 101
3 38 39 11
3 40 39 38
3 40 13 39
3 40 41 13
3 42 41 40
3 42 15 41
3 43 44 16
3 45 44 43
3 45 17 44
3 46 222 223
3 46 224 226
3 224 19 225
3 224 225 226
3 46 47 19
3 48 47 46
3 48 20 47
3 49 50 21
3 51 50 49
3 51 23 50
3 227 24 228
3 230 229 24
3 52 231 232
3 52 233 234
3 52 235 236
3 238 237 52
3 239 25 240
3 53 241 242
3 53 243 245
3 243 26 244
3 243 244 245
3 54 55 12
3 56 55 54
3 56 27 55
3 56 57 27
3 58 57 56
3 58 28 57
3 58 59 28
3 60 59 58
3 60 29 59
3 61 62 14
3 63 62 61
3 63 30 62
3 63 64 30
3 65 64 63
3 65 246 248
3 248 247 64
3 246 247 248
3 249 66 250
3 67 251 253
3 251 66 252
3 251 252 253
3 67 31 66
3 67 68 31
3 69 68 67
3 69 32 68
3 254 70 255
3 71 256 258
3 256 70 257
3 256 257 258
3 71 33 70
3 71 72 33
3 73 72 71
3 73 34 72
3 73 74 34
3 259 74 260
3 261 260 73
3 259 260 261
3 262 35 263
3 264 263 74
3 262 263 264
3 75 265 266
3 75 267 268
3 76 77 22
3 78 77 76
3 78 36 77
3 79 80 18
3 269 80 270
3 271 270 79
3 269 270 271
3 272 37 273
3 274 273 80
3 272 273 274
3 276 275 37
3 277 3 278
3 81 82 4
3 83 82 81
3 83 279 281
3 281 280 82
3 279 280 281
3 282 83 283
3 284 83 285
3 287 286 83
3 84 288 289
3 84 290 292
3 290 6 291
3 290 291 292
3 85 86 2
3 87 86 85
3 87 12 86
3 39 87 11
3 88 87 39
3 88 12 87
3 88 54 12
3 89 54 88
3 89 7 54
3 89 90 7
3 91 90 89
3 91 14 90
3 41 91 13
3 92 91 41
3 92 14 91
3 92 61 14
3 93 61 92
3 93 8 61
3 293 9 294
3 94 295 296
3 94 297 298
3 44 94 16
3 95 94 44
3 95 299 301
3 301 300 94
3 299 300 301
3 95 302 303
3 96 304 306
3 306 305 95
3 304 305 306
3 96 307 309
3 307 10 308
3 307 308 309
3 97 98 5
3 99 98 97
3 99 18 98
3 310 99 311
3 312 99 313
3 314 18 315
3 316 315 99
3 314 315 316
3 317 79 318
3 319 318 18
3 317 318 319
3 100 320 322
3 320 79 321
3 320 321 322
3 100 323 325
3 325 324 79
3 323 324 325
3 100 326 328
3 326 101 327
3 326 327 328
3 329 101 330
3 331 330 100
3 329 330 331
3 333 332 101
3 334 2 335
3 102 336 337
3 102 338 340
3 338 2 339
3 338 339 340
3 102 85 2
3 103 85 102
3 103 11 85
3 47 103 19
3 104 103 47
3 104 11 103
3 104 38 11
3 105 38 104
3 105 1 38
3 106 107 0
3 108 107 106
3 108 22 107
3 50 108 21
3 109 108 50
3 109 22 108
3 109 76 22
3 110 76 109
3 110 5 76
3 82 51 4
3 111 51 82
3 111 23 51
3 341 111 342
3 112 343 345
3 343 111 344
3 343 344 345
3 112 23 111
3 112 110 23
3 113 110 112
3 113 5 110
3 113 97 5
3 114 97 113
3 114 346 348
3 348 347 97
3 346 347 348
3 349 114 350
3 351 350 24
3 349 350 351
3 352 114 353
3 352 353 354
3 356 355 114
3 357 16 358
3 115 359 360
3 115 361 363
3 361 16 362
3 361 362 363
3 115 43 16
3 116 43 115
3 116 0 43
3 117 364 365
3 117 366 367
3 117 368 370
3 368 84 369
3 368 369 370
3 118 84 117
3 118 6 84
3 86 53 2
3 119 53 86
3 119 26 53
3 55 119 12
3 120 119 55
3 120 26 119
3 120 118 26
3 121 118 120
3 121 6 118
3 121 371 373
3 373 372 6
3 371 372 373
3 122 374 376
3 376 375 121
3 374 375 376
3 122 377 379
3 377 25 378
3 377 378 379
3 57 122 27
3 123 122 57
3 123 25 122
3 123 116 25
3 124 116 123
3 124 0 116
3 124 106 0
3 125 106 124
3 125 21 106
3 59 125 28
3 126 125 59
3 126 21 125
3 126 49 21
3 127 49 126
3 127 4 49
3 90 60 7
3 128 60 90
3 128 29 60
3 62 128 14
3 129 128 62
3 129 29 128
3 129 127 29
3 130 127 129
3 130 4 127
3 130 81 4
3 131 81 130
3 131 380 382
3 382 381 81
3 380 381 382
3 64 131 30
3 383 131 384
3 385 384 64
3 383 384 385
3 387 386 131
3 388 3 389
3 66 390 391
3 132 392 394
3 394 393 66
3 392 393 394
3 132 395 396
3 132 397 399
3 397 398 399
3 133 400 402
3 402 401 132
3 400 401 402
3 133 403 405
3 403 3 404
3 403 404 405
3 133 48 3
3 134 48 133
3 134 20 48
3 68 134 31
3 135 134 68
3 135 20 134
3 135 105 20
3 136 105 135
3 136 1 105
3 406 9 407
3 70 408 409
3 137 410 412
3 412 411 70
3 410 411 412
3 137 413 414
3 137 415 416
3 138 417 419
3 419 418 137
3 417 418 419
3 138 420 422
3 420 9 421
3 420 421 422
3 138 69 9
3 139 69 138
3 139 32 69
3 72 139 33
3 140 139 72
3 140 32 139
3 140 136 32
3 141 136 140
3 141 1 136
3 141 42 1
3 142 42 141
3 142 15 42
3 74 142 34
3 143 142 74
3 143 15 142
3 143 93 15
3 144 93 143
3 144 8 93
3 423 35 424
3 425 35 426
3 427 144 428
3 429 428 35
3 427 428 429
3 145 430 432
3 430 144 431
3 430 431 432
3 145 8 144
3 145 65 8
3 433 65 434
3 435 434 145
3 433 434 435
3 437 436 65
3 107 45 0
3 146 45 107
3 146 17 45
3 77 146 22
3 147 146 77
3 147 17 146
3 147 96 17
3 148 96 147
3 148 10 96
3 98 78 5
3 149 78 98
3 149 36 78
3 80 149 18
3 150 149 80
3 150 36 149
3 150 148 36
3 151 148 150
3 151 10 148
3 151 75 10
3 152 75 151
3 152 438 440
3 440 439 75
3 438 439 440
3 441 152 442
3 443 442 37
3 441 442 443
3 444 152 445
3 447 446 152
3 101 448 449
3 451 450 101
