ply
format ascii 1.0
element vertex 673
property float x
property float y
property float z
element face 711
property list uchar int vertex_index
end_header
-4.028991 -33.391834 30.69511
-9.795679 -46.759651 6.500587
-14.750725 -40.801239 -2.385997
-9.923994 -39.286098 42.404213
-5.26377 -50.59306 18.583326
-21.996967 -53.999378 2.800575
-8.352841 -34.538475 27.362255
-7.061361 -43.547092 21.300028
-4.748836 -43.056004 27.392467
-11.595513 -44.216808 1.511055
-11.333196 -30.310251 38.915932
-4.818452 -35.015705 40.991055
-8.95419 -44.131187 31.109156
-9.350746 -52.720726 24.382435
0.110153 -42.916618 11.657537
-7.445327 -49.956974 11.231554
-7.751993 -33.938442 29.462849
-8.305262 -38.933559 27.515797
-4.286877 -38.150776 29.012634
-7.002425 -41.9692 6.149228
-11.003385 -41.298145 4.529824
-10.449237 -45.906456 3.859542
-22.242647 -53.098186 -1.062575
-15.165926 -38.282337 40.028973
-11.662781 -35.137436 40.061352
-8.019608 -32.689713 40.916527
-6.878379 -37.19199 42.765797
-8.196896 -49.307201 29.258453
-7.487905 -47.434731 20.348064
-7.830801 -47.102413 16.546379
-5.943797 -50.484032 14.189089
-17.891813 -41.726082 1.61771
-10.868327 -51.293648 5.708243
-14.146353 -50.736561 3.924859
-4.239314 -35.203491 25.155752
-2.709745 -39.881645 22.068213
-7.693164 -39.346348 24.727268
-8.357718 -43.503895 24.566639
-4.473133 -47.130241 23.704632
-14.770948 -41.782505 -5.970217
-14.801679 -41.374828 3.142244
-12.775848 -42.353886 -0.549208
-16.306124 -49.353485 1.281651
-17.032368 -47.486794 -1.470079
-15.852664 -44.610939 -3.78819
-5.490087 -30.691406 38.774658
-5.340585 -33.293468 35.753433
-8.396687 -36.894989 34.70723
-5.11358 -38.681686 32.173698
-4.893023 -44.258595 30.808578
-4.424457 -49.444962 28.02232
-6.668511 -51.737 22.177298
-5.150363 -43.984222 8.922153
-2.995545 -43.418537 17.227797
-5.74298 -45.792194 12.812441
-8.640003 -48.564785 8.790149
-8.44182 -53.135387 7.204516
-4.478517 -30.8857 30.170681
-5.382632 -33.577827 29.469275
-5.817363 -36.033257 28.861027
-4.099001 -35.648441 29.759396
-8.640378 -44.334854 6.942333
-10.017035 -44.175457 6.014117
-10.061708 -46.420605 5.151874
-12.712065 -38.837952 41.159073
-13.417211 -36.683964 39.760399
-11.074076 -37.378815 41.071266
-9.34857 -36.030869 41.325989
-8.270126 -38.223763 42.620918
-4.945802 -48.328865 19.127815
-6.140639 -48.715797 17.227554
-5.456363 -50.539684 16.259375
-6.466405 -53.340721 13.510574
-6.868014 -53.074574 15.845859
-16.784899 -42.229763 -0.464989
-7.139553 -31.709295 27.356915
-5.022584 -32.078007 26.366673
-6.506831 -34.759659 26.124929
-5.994651 -37.262264 24.893229
-8.099754 -36.984299 26.177734
-6.514691 -40.864723 27.101276
-8.529086 -41.204376 26.144657
-6.625625 -43.10791 25.84227
-6.340349 -45.182129 23.901934
-4.843699 -45.446514 25.860729
-16.888388 -44.350636 -7.006083
-12.660873 -43.659718 3.841371
-13.069478 -41.266193 3.84216
-13.708542 -43.396721 2.761723
-14.632785 -42.919239 1.605427
-12.15708 -43.319931 0.455297
-18.491207 -52.09243 3.794696
-15.35733 -50.036598 2.658578
-19.612717 -51.57373 2.194347
-20.774107 -50.118111 -1.21603
-20.435223 -49.126106 -2.728199
-16.586039 -46.06501 -2.650343
-19.769314 -48.042229 -4.056695
-18.959927 -46.745262 -5.221745
-6.126669 -33.825752 41.418495
-6.471573 -31.706394 40.404064
-5.144443 -32.820522 40.074497
-4.953782 -32.005943 37.522717
-4.779647 -34.031887 38.540852
-11.306074 -43.434914 31.316015
-10.693874 -40.111523 33.100883
-8.97901 -40.568718 32.2052
-7.026376 -37.700974 32.939423
-6.950764 -41.395844 31.956913
-4.90623 -41.471073 31.573765
-6.726052 -44.355946 31.283197
-8.425364 -51.46056 27.233601
-5.903574 -49.696285 29.194019
-6.285125 -51.408875 26.557663
-4.804592 -50.937469 25.213741
-7.948221 -52.159466 23.524048
-2.493901 -42.232979 7.771314
-1.923988 -43.468056 9.883685
-5.116025 -41.627312 21.689476
-2.422841 -41.814846 19.721619
-4.999029 -43.570763 19.479313
-8.388979 -48.701866 14.186139
-6.708421 -46.499245 14.778482
-8.370799 -47.936909 12.626249
-7.968637 -47.088249 11.103209
-8.071974 -49.342258 9.939191
-7.530115 -50.728935 7.154109
-6.981977 -51.609886 8.28746
-8.845981 -34.252544 28.656647
-8.917302 -36.745815 27.534403
-8.063439 -36.524574 28.584225
-6.204692 -38.523216 28.116461
-4.483179 -40.55727 28.263418
-8.929214 -41.542324 5.246764
-11.375154 -43.826477 4.928807
-10.961772 -45.019257 2.618808
-22.386936 -53.491577 0.867046
-13.685216 -34.136646 38.532387
-9.885305 -33.766365 40.489685
-7.613534 -34.91328 41.733978
-5.735729 -36.186504 42.311775
-15.097742 -46.356468 32.166496
-13.420102 -46.180698 30.636267
-11.011063 -46.295586 29.925716
-8.60248 -46.496696 30.020855
-10.425264 -49.017025 29.160757
-10.188258 -51.746956 27.649652
-8.294191 -45.682514 20.887936
-7.07743 -45.42522 19.017315
-8.200706 -47.575745 18.405987
-7.610988 -49.105423 15.736948
-6.699543 -50.383125 12.647474
-6.531708 -52.616737 9.545365
-6.373904 -53.245369 11.332567
-8.938016 -49.042198 5.0238
-10.146426 -48.907604 3.814812
-12.649389 -51.166729 4.926527
-21.042089 -54.281708 4.41911
-14.238043 -40.327953 41.770386
-11.492683 -40.458351 42.838055
-2.374702 -32.453102 25.437618
-1.294474 -35.483337 23.939915
-3.351044 -37.606312 23.821552
-5.370631 -39.536407 23.471638
-7.319866 -41.528301 23.106937
-8.908582 -39.140343 26.233301
-8.7643 -41.494129 24.622736
-8.531148 -43.642536 22.926487
-8.166579 -45.699402 22.64481
-5.756416 -46.808296 21.775961
-4.26362 -48.689747 21.230946
-13.353539 -40.249767 -4.211755
-4.113656 -31.336542 31.892941
-16.456234 -41.497131 2.412347
-15.610509 -42.480488 0.529431
-13.568672 -41.453362 -1.521753
-11.195305 -48.358982 2.791348
-11.903865 -47.613716 1.732832
-12.327497 -46.657223 0.61728
-20.469189 -50.982822 0.543849
-16.92956 -48.657825 -0.126858
-12.571817 -45.517773 -0.571027
-12.492261 -44.187691 -1.674407
-12.41489 -42.705505 -2.600853
-12.689284 -41.419819 -3.442506
-15.190176 -43.134434 -4.805312
-17.905285 -45.564129 -6.161589
-16.147205 -48.450603 -6.232494
-7.638934 -30.65691 40.832848
-4.975671 -31.408783 34.77301
-4.846227 -33.242035 32.915161
-7.77972 -41.198067 43.928993
-6.540179 -40.527489 43.510193
-5.86571 -40.167828 42.563099
-5.75164 -39.247562 41.550945
-5.715139 -37.618355 40.288467
-8.850167 -37.751503 36.754749
-5.880244 -36.151257 38.399193
-6.183538 -35.097969 35.745094
-5.462939 -35.519371 33.188572
-4.169677 -35.987446 31.512884
-4.045773 -38.55669 30.759766
-4.021407 -41.073296 30.018
-4.120619 -43.832966 29.267065
-6.363896 -46.8554 30.331615
-4.659324 -47.002251 29.776714
-4.290376 -46.480949 27.9195
-4.236397 -48.539993 25.890926
-4.245432 -49.971127 23.175907
-5.830403 -51.194897 20.389011
-7.458697 -53.803856 17.220652
-4.274271 -40.912777 6.407252
-5.735112 -42.972935 7.280688
-7.960126 -45.120747 8.123269
-0.989057 -43.326557 14.676903
-5.459282 -45.122025 17.041172
-3.987634 -44.650352 14.930079
-2.600427 -44.136169 12.482012
-5.148108 -44.962456 10.829981
-7.70673 -46.103531 9.514291
-9.210055 -47.717121 7.565997
-8.14178 -49.897194 6.101468
-9.670908 -52.056995 6.571622
-7.290739 -54.231438 7.637951
-16.690512 -41.522602 -1.880561
-17.707599 -42.236864 -0.920057
-15.767812 -41.515501 -1.425493
-7.746197 -33.123885 27.359585
-7.847456 -31.529342 27.962602
-8.4541 -32.943933 27.965272
-16.472028 -43.571951 -7.578801
-16.450196 -45.715216 -7.126235
-20.260224 -50.568016 -3.29609
-20.913367 -50.8754 -2.719031
-19.927269 -50.026077 -3.960338
-20.102269 -48.584167 -3.392447
-20.260224 -50.568016 -3.29609
-19.242967 -49.588213 -4.446801
-19.927269 -50.026077 -3.960338
-12.021432 -29.52018 38.030922
-12.434261 -30.912636 38.346388
-10.810496 -29.092847 38.812906
-12.021432 -29.52018 38.030922
-10.177091 -29.870076 39.715336
-10.810496 -29.092847 38.812906
0.164669 -42.337799 10.191512
0.603318 -41.730705 11.225244
-0.906918 -43.192337 10.770611
-0.852401 -42.613518 9.304586
0.164669 -42.337799 10.191512
-8.174431 -32.499468 29.609298
-7.354453 -32.484355 29.814386
-8.298987 -34.095493 29.059748
-8.721425 -32.65652 29.206197
-8.174431 -32.499468 29.609298
-7.96582 -41.755762 5.697996
-7.650414 -40.690855 5.462689
-6.687019 -40.904293 5.91392
-15.398388 -36.979984 39.334722
-16.234877 -37.760597 39.905069
-11.73217 -33.935921 39.677447
-12.743387 -33.435526 38.912964
-12.673998 -34.637041 39.296869
-10.774043 -34.451901 40.275519
-10.843432 -33.250386 39.891613
-11.73217 -33.935921 39.677447
-15.1334 -48.055133 32.282348
-15.479702 -46.692515 33.258659
-12.960093 -47.725836 29.93527
-13.844814 -47.790508 30.54727
-11.755573 -47.783279 29.579994
-12.215583 -46.238142 30.280991
-12.960093 -47.725836 29.93527
-11.462674 -49.143999 29.197515
-10.718163 -47.656306 29.543236
-11.755573 -47.783279 29.579994
-10.703608 -53.117393 27.088462
-10.986435 -51.904264 27.993517
-10.321986 -52.716209 26.457525
-10.703608 -53.117393 27.088462
-6.021776 -54.606651 12.165627
-5.885608 -54.736046 13.383841
-18.790585 -41.030525 2.150778
-17.869403 -40.931709 2.42498
-20.275903 -54.419571 5.04733
-19.058682 -53.428059 4.735392
-13.544757 -41.062477 42.661497
-14.906347 -41.017243 42.341986
-12.172077 -41.127676 43.195331
-12.865363 -40.393152 42.30422
-13.544757 -41.062477 42.661497
-14.539197 -40.457887 -5.552497
-13.830493 -39.691519 -4.673267
-14.062244 -41.016136 -5.090986
-4.27592 -30.393056 32.763403
-4.048039 -30.070625 31.606029
-11.149883 -40.321802 4.486051
-9.828144 -40.378452 4.778747
-14.309143 -40.347787 3.561665
-13.443043 -40.29347 3.911623
-13.935579 -41.32051 3.492202
-15.433798 -40.539037 3.425259
-14.309143 -40.347787 3.561665
-15.628956 -41.43598 2.777296
-16.261075 -40.600189 3.06031
-15.433798 -40.539037 3.425259
-17.57619 -47.749264 -5.872126
-18.432606 -46.154696 -5.691667
-18.103511 -48.33983 -5.402204
-16.69715 -49.192501 -5.907578
-17.026245 -47.007366 -6.197042
-17.57619 -47.749264 -5.872126
-7.829271 -31.673311 40.874688
-8.702417 -31.136138 40.652344
-8.892754 -32.15254 40.694184
-5.831741 -30.112813 39.315546
-6.322484 -30.620307 40.130249
-5.98083 -31.1989 39.589361
-5.445482 -29.675508 38.320989
-5.831741 -30.112813 39.315546
-5.290662 -30.326105 37.551422
-5.445482 -29.675508 38.320989
-7.465069 -42.453651 43.455072
-8.421086 -41.604118 44.142784
-7.499723 -41.159841 42.152136
-7.098787 -41.65448 42.758555
-7.162489 -40.980011 41.678589
-6.202945 -40.347659 43.036646
-7.499723 -41.159841 42.152136
-7.375856 -39.305626 39.951595
-7.425331 -39.982061 40.54685
-7.357606 -38.491022 39.320356
-5.733389 -38.432958 40.919706
-7.375856 -39.305626 39.951595
-6.420565 -55.642967 16.996913
-7.698059 -54.06881 18.072306
-6.369256 -55.300278 16.112337
-6.420565 -55.642967 16.996913
-2.617942 -40.479799 6.487313
-3.856038 -39.726801 6.159909
-1.434847 -39.987764 20.977559
-1.659327 -38.925445 22.124609
-1.640999 -42.665571 17.232487
-1.354648 -41.863726 18.479398
-2.709193 -42.616692 18.474708
-1.992301 -43.372547 15.95235
-0.637755 -42.619581 15.95704
-1.640999 -42.665571 17.232487
-9.839098 -53.439383 7.735057
-10.453642 -52.900187 7.41861
-9.056364 -52.596191 6.888069
-6.766492 -54.774847 8.244093
-6.911224 -53.424087 8.591658
-6.386976 -53.967496 9.1978
-5.717715 -30.957984 30.168302
-4.997843 -29.61771 30.303968
-6.169773 -32.304047 29.8176
-5.717715 -30.957984 30.168302
-4.930575 -32.231763 29.819978
-6.567312 -33.758134 29.466062
-7.354453 -32.484355 29.814386
-6.169773 -32.304047 29.8176
-6.086412 -54.602972 14.551483
-5.885608 -54.736046 13.383841
-6.66721 -53.207648 14.678217
-18.244264 -42.000872 0.251229
-18.797721 -41.749031 1.292578
-17.338356 -41.977922 0.576361
-18.244264 -42.000872 0.251229
-17.707599 -42.236864 -0.920057
-12.952243 -52.166508 5.878601
-11.901291 -52.137384 6.430327
-7.385889 -30.0797 27.795017
-7.847456 -31.529342 27.962602
-6.476999 -30.235373 27.281714
-7.385889 -30.0797 27.795017
-6.081069 -31.893651 26.861794
-5.418515 -30.419728 26.786592
-6.476999 -30.235373 27.281714
-15.697399 -42.316738 -7.093388
-14.63868 -41.032673 -6.575456
-15.829668 -43.06657 -6.48815
-15.697399 -42.316738 -7.093388
-16.472028 -43.571951 -7.578801
-21.082809 -51.371403 -1.962946
-21.508377 -51.608148 -1.139302
-21.817079 -52.861441 -1.886219
-20.604665 -49.622108 -1.972114
-21.082809 -51.371403 -1.962946
-20.913367 -50.8754 -2.719031
-18.838274 -48.939729 -5.029326
-19.364621 -47.393745 -4.63922
-19.242967 -49.588213 -4.446801
-18.103511 -48.33983 -5.402204
-18.838274 -48.939729 -5.029326
-10.999974 -41.773218 32.208449
-12.052059 -41.640585 32.747648
-12.358159 -43.30228 31.855214
-1.137358 -41.99598 8.248401
-1.727757 -41.1399 7.169345
-2.208945 -42.850517 8.8275
-1.137358 -41.99598 8.248401
-0.852401 -42.613518 9.304586
-8.70067 -32.800967 28.612468
-8.721425 -32.65652 29.206197
-8.599411 -34.39551 28.009451
-8.4541 -32.943933 27.965272
-8.70067 -32.800967 28.612468
-8.791059 -40.500541 5.137217
-7.650414 -40.690855 5.462689
-9.966299 -41.420234 4.888294
-9.828144 -40.378452 4.778747
-8.791059 -40.500541 5.137217
-22.955269 -54.976276 1.013211
-22.191952 -53.745477 1.83381
-22.760285 -55.230177 1.979975
-22.477612 -54.807764 0.149157
-22.955269 -54.976276 1.013211
-22.405467 -54.611069 -0.815654
-22.314791 -53.294882 -0.097765
-22.477612 -54.807764 0.149157
-21.700809 -54.443624 -1.451972
-22.405467 -54.611069 -0.815654
-21.817079 -52.861441 -1.886219
-21.700809 -54.443624 -1.451972
-14.52403 -36.180797 39.200435
-15.398388 -36.979984 39.334722
-14.291569 -37.483151 39.894686
-14.658033 -34.907139 38.58643
-14.52403 -36.180797 39.200435
-13.551213 -35.410305 39.146393
-14.666131 -33.510452 38.019112
-14.658033 -34.907139 38.58643
-13.610271 -32.825833 38.154615
-14.666131 -33.510452 38.019112
-13.610271 -32.825833 38.154615
-12.743387 -33.435526 38.912964
-11.567377 -31.522329 39.104737
-12.434261 -30.912636 38.346388
-10.549548 -30.962809 39.693886
-11.567377 -31.522329 39.104737
-9.825603 -32.690866 40.480762
-10.843432 -33.250386 39.891613
-8.952457 -33.228039 40.703106
-8.892754 -32.15254 40.694184
-9.825603 -32.690866 40.480762
-14.899285 -45.009172 33.14801
-15.479702 -46.692515 33.258659
-14.253993 -44.763058 32.280455
-14.899285 -45.009172 33.14801
-14.683634 -47.878393 31.312385
-15.1334 -48.055133 32.282348
-14.258922 -46.268583 31.401381
-14.683634 -47.878393 31.312385
-13.844814 -47.790508 30.54727
-13.415173 -44.675173 31.51534
-14.253993 -44.763058 32.280455
-14.258922 -46.268583 31.401381
-12.363088 -44.807806 30.976141
-12.358159 -43.30228 31.855214
-13.415173 -44.675173 31.51534
-11.104938 -50.539299 28.74907
-11.462674 -49.143999 29.197515
-10.306761 -50.381991 28.405204
-11.104938 -50.539299 28.74907
-10.986435 -51.904264 27.993517
-9.440539 -52.573011 26.249499
-9.306811 -51.603758 27.441626
-10.321986 -52.716209 26.457525
-9.90323 -53.203094 24.823917
-8.888055 -52.090643 25.808018
-9.440539 -52.573011 26.249499
0.419984 -42.263977 12.851779
0.603318 -41.730705 11.225244
-6.308075 -54.281813 10.0914
-6.386976 -53.967496 9.1978
-6.452806 -52.931053 10.438966
-5.975525 -54.558975 11.076623
-6.420154 -53.293045 12.42157
-6.021776 -54.606651 12.165627
-6.308075 -54.281813 10.0914
-5.975525 -54.558975 11.076623
-18.790585 -41.030525 2.150778
-18.797721 -41.749031 1.292578
-13.842773 -52.103048 5.487743
-11.758858 -51.230188 5.317385
-12.952243 -52.166508 5.878601
-14.862332 -51.870569 4.989101
-13.842773 -52.103048 5.487743
-15.610814 -51.655485 4.488267
-13.397871 -50.951645 4.425693
-14.862332 -51.870569 4.989101
-17.783241 -52.33342 4.423186
-16.31878 -51.414496 3.859777
-15.610814 -51.655485 4.488267
-19.766648 -53.187069 4.106903
-17.783241 -52.33342 4.423186
-19.058682 -53.428059 4.735392
-22.080327 -55.473562 4.593021
-20.275903 -54.419571 5.04733
-22.404031 -55.511438 3.742332
-22.080327 -55.473562 4.593021
-22.88147 -55.370273 2.933065
-21.519528 -54.140543 3.609843
-22.404031 -55.511438 3.742332
-22.760285 -55.230177 1.979975
-22.88147 -55.370273 2.933065
-15.938088 -38.995573 40.625094
-16.234877 -37.760597 39.905069
-15.474147 -40.018381 41.4958
-14.906347 -41.017243 42.341986
-14.701985 -39.305145 40.89968
-15.938088 -38.995573 40.625094
-15.474147 -40.018381 41.4958
-4.303463 -30.601616 26.415366
-5.418515 -30.419728 26.786592
-2.979522 -30.789164 25.950839
-4.303463 -30.601616 26.415366
-3.698643 -32.265555 25.902145
-1.72707 -30.864153 25.422417
-2.979522 -30.789164 25.950839
-1.443852 -32.507534 24.694077
-1.72707 -30.864153 25.422417
-0.903738 -34.022651 23.945225
-1.443852 -32.507534 24.694077
-1.834588 -33.96822 24.688766
-0.637829 -35.595736 22.900925
-0.903738 -34.022651 23.945225
-0.951692 -36.726292 23.06046
-0.637829 -35.595736 22.900925
-1.979977 -37.787779 23.001278
-0.951692 -36.726292 23.06046
-2.322759 -36.544825 23.880733
-3.030394 -38.743978 22.944882
-1.659327 -38.925445 22.124609
-1.979977 -37.787779 23.001278
-14.969057 -40.35375 -3.797466
-15.66765 -40.629486 -2.884587
-14.052132 -40.525503 -3.298876
-14.969057 -40.35375 -3.797466
-13.830493 -39.691519 -4.673267
-14.539197 -40.457887 -5.552497
-14.63868 -41.032673 -6.575456
-4.230469 -29.845204 30.744899
-4.997843 -29.61771 30.303968
-4.296086 -31.111121 31.031811
-4.230469 -29.845204 30.744899
-4.048039 -30.070625 31.606029
-12.18293 -40.305826 4.142219
-11.149883 -40.321802 4.486051
-12.036431 -41.282169 4.185992
-12.18293 -40.305826 4.142219
-13.443043 -40.29347 3.911623
-17.151614 -40.817234 2.822298
-16.261075 -40.600189 3.06031
-17.174023 -41.611607 2.015029
-17.869403 -40.931709 2.42498
-17.151614 -40.817234 2.822298
-16.079605 -47.7652 -6.739441
-16.450196 -45.715216 -7.126235
-16.517796 -46.40062 -6.619288
-15.102773 -49.923647 -5.208752
-16.69715 -49.192501 -5.907578
-15.09825 -49.209772 -5.889841
-15.102773 -49.923647 -5.208752
-16.079605 -47.7652 -6.739441
-15.09825 -49.209772 -5.889841
-10.177091 -29.870076 39.715336
-10.549548 -30.962809 39.693886
-8.32996 -30.043405 40.673794
-8.702417 -31.136138 40.652344
-7.171594 -29.595638 40.893679
-8.32996 -30.043405 40.673794
-6.906165 -30.095565 40.344641
-7.055254 -31.181652 40.618456
-6.322484 -30.620307 40.130249
-7.171594 -29.595638 40.893679
-6.906165 -30.095565 40.344641
-5.02251 -30.983373 36.925452
-5.290662 -30.326105 37.551422
-5.221934 -31.348675 38.148688
-5.033454 -30.684793 35.550598
-5.02251 -30.983373 36.925452
-4.964727 -31.707363 36.147863
-4.706928 -30.429177 34.203437
-5.033454 -30.684793 35.550598
-4.544664 -31.372663 33.332976
-4.27592 -30.393056 32.763403
-4.706928 -30.429177 34.203437
-10.277567 -41.234261 43.597315
-12.172077 -41.127676 43.195331
-9.636202 -40.828209 43.383524
-10.277567 -41.234261 43.597315
-8.421086 -41.604118 44.142784
-7.718558 -41.989769 42.967954
-7.465069 -42.453651 43.455072
-7.159949 -40.862778 43.719593
-7.718558 -41.989769 42.967954
-7.098787 -41.65448 42.758555
-7.482366 -40.442194 41.052927
-7.162489 -40.980011 41.678589
-5.808675 -39.707695 42.057022
-7.482366 -40.442194 41.052927
-7.425331 -39.982061 40.54685
-11.409595 -40.255831 33.883625
-12.052059 -41.640585 32.747648
-10.487741 -39.075821 35.710558
-11.409595 -40.255831 33.883625
-9.77202 -38.931513 34.927816
-8.92512 -38.557596 37.553497
-10.487741 -39.075821 35.710558
-7.282653 -37.684929 38.521608
-7.357606 -38.491022 39.320356
-8.92512 -38.557596 37.553497
-9.247728 -54.628359 23.910822
-9.90323 -53.203094 24.823917
-9.114389 -54.357342 23.152638
-9.247728 -54.628359 23.910822
-8.413126 -54.076712 22.723444
-8.649483 -52.440096 23.953242
-9.114389 -54.357342 23.152638
-8.207408 -53.645132 22.000292
-8.413126 -54.076712 22.723444
-7.567552 -53.433899 21.326917
-7.308366 -51.948233 22.850673
-8.207408 -53.645132 22.000292
-7.302966 -53.035381 20.550629
-7.567552 -53.433899 21.326917
-6.883912 -52.76433 19.656486
-6.249457 -51.465948 21.283155
-7.302966 -53.035381 20.550629
-6.64455 -52.499376 18.804831
-6.883912 -52.76433 19.656486
-7.698059 -54.06881 18.072306
-6.073914 -54.935637 15.42494
-7.163355 -53.439215 16.533256
-6.369256 -55.300278 16.112337
-6.086412 -54.602972 14.551483
-6.073914 -54.935637 15.42494
-5.322942 -40.376081 6.042933
-3.856038 -39.726801 6.159909
-5.638348 -41.440989 6.27824
-6.687019 -40.904293 5.91392
-5.322942 -40.376081 6.042933
-3.384086 -41.572878 7.089283
-2.617942 -40.479799 6.487313
-1.727757 -41.1399 7.169345
-1.291395 -40.954365 19.804262
-1.434847 -39.987764 20.977559
-2.566293 -40.848246 20.894916
-1.291395 -40.954365 19.804262
-1.354648 -41.863726 18.479398
-0.12962 -42.468947 14.361462
-0.637755 -42.619581 15.95704
-0.439452 -43.121588 13.16722
0.419984 -42.263977 12.851779
-0.12962 -42.468947 14.361462
-11.302582 -52.519058 6.862016
-11.901291 -52.137384 6.430327
-10.269618 -51.675321 6.139933
-11.302582 -52.519058 6.862016
-10.453642 -52.900187 7.41861
-7.74119 -55.243919 8.012363
-6.766492 -54.774847 8.244093
-8.498428 -54.610247 8.04864
-7.74119 -55.243919 8.012363
-9.073969 -54.062221 7.831922
-7.86628 -53.683413 7.421233
-8.498428 -54.610247 8.04864
-9.839098 -53.439383 7.735057
-9.073969 -54.062221 7.831922
-16.690512 -41.522602 -1.880561
-15.66765 -40.629486 -2.884587
3 0 58 57
3 0 60 58
3 1 63 61
3 3 66 64
3 3 68 66
3 4 71 69
3 4 73 71
3 2 224 226
3 226 225 74
3 224 225 226
3 6 227 229
3 227 75 228
3 227 228 229
3 6 77 75
3 6 79 77
3 8 82 80
3 8 84 82
3 231 230 85
3 9 88 86
3 9 90 88
3 5 93 91
3 232 95 233
3 234 97 235
3 236 235 95
3 234 235 236
3 238 237 97
3 10 239 240
3 10 241 242
3 10 243 244
3 11 101 99
3 11 103 101
3 12 106 104
3 12 108 106
3 12 110 108
3 13 113 111
3 13 115 113
3 14 245 246
3 14 247 249
3 247 117 248
3 247 248 249
3 7 120 118
3 15 123 121
3 15 125 123
3 15 127 125
3 16 250 251
3 16 252 254
3 252 128 253
3 252 253 254
3 16 130 128
3 18 131 59
3 18 132 131
3 19 255 257
3 255 133 256
3 255 256 257
3 21 134 62
3 21 135 134
3 23 258 259
3 24 137 65
3 24 260 262
3 262 261 137
3 260 261 262
3 24 263 265
3 263 138 264
3 263 264 265
3 26 139 67
3 26 140 139
3 266 141 267
3 268 142 269
3 270 143 271
3 272 271 142
3 270 271 272
3 273 145 274
3 275 274 143
3 273 274 275
3 276 146 277
3 279 278 146
3 28 149 147
3 30 150 70
3 30 151 150
3 30 153 151
3 281 280 72
3 31 282 283
3 32 156 154
3 284 157 285
3 286 158 287
3 288 159 289
3 290 289 158
3 288 289 290
3 34 160 76
3 34 161 160
3 34 162 161
3 36 163 78
3 36 164 163
3 17 165 129
3 37 166 81
3 37 167 166
3 37 168 167
3 38 169 83
3 38 170 169
3 39 291 293
3 293 292 171
3 291 292 293
3 294 172 295
3 20 296 297
3 40 298 300
3 300 299 87
3 298 299 300
3 40 301 302
3 40 303 305
3 303 173 304
3 303 304 305
3 41 174 89
3 41 175 174
3 33 176 155
3 42 177 92
3 42 178 177
3 22 179 136
3 43 180 94
3 43 181 180
3 43 182 181
3 44 183 96
3 44 184 183
3 44 185 184
3 306 186 307
3 308 307 98
3 306 307 308
3 309 187 310
3 311 310 186
3 309 310 311
3 25 312 314
3 312 188 313
3 312 313 314
3 45 315 317
3 317 316 100
3 315 316 317
3 45 318 319
3 45 320 321
3 46 189 102
3 46 190 189
3 322 191 323
3 324 192 325
3 326 193 327
3 328 327 192
3 326 327 328
3 329 194 330
3 331 195 332
3 333 332 194
3 331 332 333
3 47 196 105
3 47 197 196
3 47 198 197
3 48 199 107
3 48 200 199
3 48 201 200
3 49 202 109
3 49 203 202
3 27 204 144
3 50 205 112
3 50 206 205
3 50 207 206
3 51 208 114
3 51 209 208
3 334 210 335
3 337 336 210
3 338 211 339
3 52 212 116
3 52 213 212
3 35 340 341
3 53 342 344
3 344 343 119
3 342 343 344
3 53 345 347
3 345 214 346
3 345 346 347
3 29 215 148
3 54 216 122
3 54 217 216
3 54 218 217
3 55 219 124
3 55 220 219
3 55 221 220
3 56 222 126
3 56 348 350
3 350 349 222
3 348 349 350
3 351 223 352
3 353 352 152
3 351 352 353
3 57 354 355
3 58 356 358
3 358 357 57
3 356 357 358
3 58 359 361
3 359 16 360
3 359 360 361
3 58 59 16
3 60 59 58
3 60 18 59
3 61 62 19
3 63 62 61
3 63 21 62
3 64 65 23
3 66 65 64
3 66 24 65
3 66 67 24
3 68 67 66
3 68 26 67
3 69 70 28
3 71 70 69
3 71 30 70
3 71 72 30
3 73 72 71
3 73 362 364
3 364 363 72
3 362 363 364
3 74 365 367
3 367 366 31
3 365 366 367
3 369 368 74
3 371 370 32
3 75 372 373
3 75 374 375
3 75 376 378
3 376 76 377
3 376 377 378
3 77 76 75
3 77 34 76
3 77 78 34
3 79 78 77
3 79 36 78
3 80 81 17
3 82 81 80
3 82 37 81
3 82 83 37
3 84 83 82
3 84 38 83
3 85 379 381
3 381 380 39
3 379 380 381
3 383 382 85
3 86 87 20
3 88 87 86
3 88 40 87
3 88 89 40
3 90 89 88
3 90 41 89
3 91 92 33
3 93 92 91
3 93 42 92
3 384 94 385
3 386 385 22
3 384 385 386
3 95 387 389
3 387 94 388
3 387 388 389
3 95 43 94
3 95 96 43
3 97 96 95
3 97 44 96
3 97 98 44
3 390 98 391
3 392 391 97
3 390 391 392
3 394 393 98
3 99 100 25
3 101 100 99
3 101 45 100
3 101 102 45
3 103 102 101
3 103 46 102
3 104 395 397
3 395 105 396
3 395 396 397
3 106 105 104
3 106 47 105
3 106 107 47
3 108 107 106
3 108 48 107
3 108 109 48
3 110 109 108
3 110 49 109
3 111 112 27
3 113 112 111
3 113 50 112
3 113 114 50
3 115 114 113
3 115 51 114
3 398 116 399
3 117 400 402
3 400 116 401
3 400 401 402
3 117 52 116
3 118 119 35
3 120 119 118
3 120 53 119
3 121 122 29
3 123 122 121
3 123 54 122
3 123 124 54
3 125 124 123
3 125 55 124
3 125 126 55
3 127 126 125
3 127 56 126
3 128 403 404
3 128 405 407
3 405 6 406
3 405 406 407
3 128 129 6
3 130 129 128
3 130 17 129
3 59 130 16
3 131 130 59
3 131 17 130
3 131 80 17
3 132 80 131
3 132 8 80
3 133 408 409
3 133 410 412
3 410 20 411
3 410 411 412
3 62 133 19
3 134 133 62
3 134 20 133
3 134 86 20
3 135 86 134
3 135 9 86
3 413 136 414
3 415 414 5
3 413 414 415
3 416 136 417
3 418 22 419
3 420 419 136
3 418 419 420
3 421 22 422
3 424 423 22
3 65 425 427
3 427 426 23
3 425 426 427
3 137 428 430
3 430 429 65
3 428 429 430
3 137 431 432
3 137 433 434
3 436 435 137
3 437 10 438
3 440 439 10
3 138 441 442
3 138 443 445
3 443 25 444
3 443 444 445
3 67 138 24
3 139 138 67
3 139 25 138
3 139 99 25
3 140 99 139
3 140 11 99
3 141 446 447
3 141 448 449
3 450 141 451
3 142 452 454
3 452 141 453
3 452 453 454
3 142 455 457
3 457 456 141
3 455 456 457
3 142 458 460
3 458 104 459
3 458 459 460
3 143 104 142
3 143 12 104
3 143 144 12
3 145 144 143
3 145 27 144
3 461 145 462
3 146 463 465
3 463 145 464
3 463 464 465
3 146 27 145
3 146 111 27
3 466 111 467
3 468 467 146
3 466 467 468
3 469 13 470
3 471 470 111
3 469 470 471
3 472 14 473
3 147 148 7
3 149 148 147
3 149 29 148
3 70 149 28
3 150 149 70
3 150 29 149
3 150 121 29
3 151 121 150
3 151 15 121
3 151 152 15
3 153 152 151
3 153 474 476
3 476 475 152
3 474 475 476
3 72 153 30
3 477 153 478
3 479 478 72
3 477 478 479
3 481 480 153
3 483 482 31
3 154 155 1
3 156 155 154
3 156 33 155
3 484 156 485
3 486 485 32
3 484 485 486
3 487 156 488
3 489 33 490
3 491 490 156
3 489 490 491
3 492 91 493
3 494 493 33
3 492 493 494
3 157 495 497
3 495 91 496
3 495 496 497
3 157 5 91
3 498 157 499
3 500 157 501
3 502 5 503
3 504 503 157
3 502 503 504
3 506 505 5
3 507 23 508
3 158 509 510
3 158 511 513
3 511 23 512
3 511 512 513
3 158 64 23
3 159 64 158
3 159 3 64
3 76 514 515
3 160 516 518
3 518 517 76
3 516 517 518
3 160 519 520
3 160 521 522
3 161 523 525
3 525 524 160
3 523 524 525
3 161 526 527
3 161 528 529
3 162 530 532
3 532 531 161
3 530 531 532
3 162 533 535
3 533 35 534
3 533 534 535
3 78 162 34
3 163 162 78
3 163 35 162
3 163 118 35
3 164 118 163
3 164 7 118
3 129 79 6
3 165 79 129
3 165 36 79
3 81 165 17
3 166 165 81
3 166 36 165
3 166 164 36
3 167 164 166
3 167 7 164
3 167 147 7
3 168 147 167
3 168 28 147
3 83 168 37
3 169 168 83
3 169 28 168
3 169 69 28
3 170 69 169
3 170 4 69
3 171 536 538
3 538 537 2
3 536 537 538
3 540 539 171
3 542 541 39
3 543 57 544
3 172 545 547
3 545 57 546
3 545 546 547
3 172 0 57
3 87 548 550
3 550 549 20
3 548 549 550
3 552 551 87
3 173 553 554
3 173 555 557
3 555 31 556
3 555 556 557
3 89 173 40
3 174 173 89
3 174 31 173
3 174 74 31
3 175 74 174
3 175 2 74
3 155 63 1
3 176 63 155
3 176 21 63
3 92 176 33
3 177 176 92
3 177 21 176
3 177 135 21
3 178 135 177
3 178 9 135
3 136 93 5
3 179 93 136
3 179 42 93
3 94 179 22
3 180 179 94
3 180 42 179
3 180 178 42
3 181 178 180
3 181 9 178
3 181 90 9
3 182 90 181
3 182 41 90
3 96 182 43
3 183 182 96
3 183 41 182
3 183 175 41
3 184 175 183
3 184 2 175
3 184 171 2
3 185 171 184
3 185 39 171
3 98 185 44
3 186 185 98
3 186 39 185
3 186 85 39
3 187 85 186
3 187 558 560
3 560 559 85
3 558 559 560
3 561 187 562
3 563 187 564
3 566 565 187
3 568 567 10
3 188 569 570
3 188 571 572
3 100 188 25
3 573 188 574
3 575 574 100
3 573 574 575
3 577 576 188
3 102 578 580
3 580 579 45
3 578 579 580
3 189 581 583
3 583 582 102
3 581 582 583
3 189 584 585
3 189 586 588
3 586 172 587
3 586 587 588
3 190 172 189
3 190 0 172
3 589 159 590
3 191 591 593
3 591 159 592
3 591 592 593
3 191 3 159
3 594 191 595
3 192 596 598
3 596 191 597
3 596 597 598
3 192 3 191
3 192 68 3
3 193 68 192
3 193 26 68
3 599 193 600
3 194 601 603
3 601 193 602
3 601 602 603
3 194 26 193
3 194 140 26
3 195 140 194
3 195 11 140
3 105 604 605
3 196 606 608
3 608 607 105
3 606 607 608
3 196 609 610
3 196 611 613
3 611 195 612
3 611 612 613
3 197 195 196
3 197 11 195
3 197 103 11
3 198 103 197
3 198 46 103
3 107 198 47
3 199 198 107
3 199 46 198
3 199 190 46
3 200 190 199
3 200 0 190
3 200 60 0
3 201 60 200
3 201 18 60
3 109 201 48
3 202 201 109
3 202 18 201
3 202 132 18
3 203 132 202
3 203 8 132
3 144 110 12
3 204 110 144
3 204 49 110
3 112 204 27
3 205 204 112
3 205 49 204
3 205 203 49
3 206 203 205
3 206 8 203
3 206 84 8
3 207 84 206
3 207 38 84
3 114 207 50
3 208 207 114
3 208 38 207
3 208 170 38
3 209 170 208
3 209 4 170
3 614 13 615
3 616 13 617
3 618 115 619
3 620 619 13
3 618 619 620
3 621 115 622
3 623 51 624
3 625 624 115
3 623 624 625
3 626 51 627
3 628 209 629
3 630 629 51
3 628 629 630
3 210 631 633
3 631 209 632
3 631 632 633
3 210 4 209
3 210 73 4
3 634 73 635
3 636 635 210
3 634 635 636
3 638 637 73
3 211 639 640
3 211 641 643
3 641 19 642
3 641 642 643
3 116 644 646
3 644 211 645
3 644 645 646
3 212 211 116
3 212 19 211
3 212 61 19
3 213 61 212
3 213 1 61
3 119 647 649
3 649 648 35
3 647 648 649
3 651 650 119
3 214 652 653
3 214 654 656
3 654 14 655
3 654 655 656
3 148 120 7
3 215 120 148
3 215 53 120
3 122 215 29
3 216 215 122
3 216 53 215
3 216 214 53
3 217 214 216
3 217 14 214
3 217 117 14
3 218 117 217
3 218 52 117
3 124 218 54
3 219 218 124
3 219 52 218
3 219 213 52
3 220 213 219
3 220 1 213
3 220 154 1
3 221 154 220
3 221 32 154
3 126 221 55
3 222 221 126
3 222 32 221
3 222 657 659
3 659 658 32
3 657 658 659
3 661 660 222
3 152 127 15
3 223 127 152
3 223 56 127
3 662 223 663
3 664 223 665
3 666 56 667
3 668 667 223
3 666 667 668
3 670 669 56
3 672 671 2
