ply
format ascii 1.0
element vertex 464
property float x
property float y
property float z
element face 477
property list uchar int vertex_index
end_header
-5.983317 35.818943 -8.364401
-7.059842 39.154003 12.290562
-12.384844 43.364513 -3.104624
-6.485689 39.848305 0.621262
-5.691165 24.12101 -5.540183
-2.779626 31.091867 9.514069
-6.623576 28.482319 17.465118
-8.316103 22.684345 27.534973
-5.650826 30.247211 -7.882162
-3.160732 26.432972 -3.277676
-6.475286 32.15575 -3.885198
-5.358499 40.036598 6.319225
-5.862971 34.756718 4.945694
-6.354407 35.043419 10.147
-5.95783 29.757288 13.222311
-5.42885 34.406414 15.711813
-10.89393 27.223972 24.337814
-10.095421 36.627659 -9.36347
-7.404674 31.772104 -10.94982
-6.398424 26.341745 -10.686016
-6.21451 19.944628 -16.314083
-8.930643 40.08186 -5.462418
-5.244197 38.646637 -4.277614
-7.308939 42.877605 -1.941736
-9.025025 42.098717 2.409574
-11.555132 40.037537 7.267921
-12.217523 41.68977 -8.381407
-5.50245 33.903679 0.205432
-0.628905 31.189472 4.223823
-4.205615 24.320942 16.965622
-13.593495 44.936867 10.432121
-10.025582 34.957664 17.002804
-7.058576 31.626163 21.012814
-5.825004 26.499912 22.980295
-6.585158 23.255596 -13.440509
-6.105325 20.433876 -8.439998
-5.435994 33.186005 -8.422265
-6.189452 31.231207 -5.926506
-5.701996 34.270039 -6.584495
-6.049898 39.914692 9.497015
-5.307262 37.69088 8.368523
-5.030596 37.750252 11.408073
-5.930295 34.892319 12.969749
-5.176805 37.279701 14.45997
-8.069222 36.104164 -8.749527
-8.782013 34.326241 -10.240225
-7.032004 33.660675 -9.675804
-5.991155 31.068293 -9.970119
-10.669119 41.657417 -4.110937
-7.919409 41.941883 -3.895295
-9.643923 42.907112 -2.240667
-10.66918 42.753433 3.534191
-10.553991 40.666836 4.631537
-12.36418 42.050331 5.678816
-13.571718 45.03508 -4.775172
-12.766604 44.692181 -7.689417
-12.959082 42.361946 -5.503484
-11.288301 40.023609 -6.218678
-4.584805 21.117207 -4.994962
-3.339005 22.075851 -4.027007
-1.805275 27.736225 -2.219774
-5.795777 39.815277 -1.856791
-7.02436 36.317867 -2.157781
-6.882254 36.594608 0.168381
-4.580106 32.943272 7.270152
-3.129061 32.948082 4.789358
-1.327869 31.445318 7.041386
-1.597183 28.494028 11.625781
-6.777761 29.105799 15.215256
-5.05633 27.0322 15.001272
-6.314831 26.24976 16.722446
-5.594468 23.456259 18.440964
-6.872736 25.518362 18.594181
-13.639999 34.371059 20.827187
-13.127042 35.501358 17.738895
-11.660281 32.972977 19.350687
-8.651268 33.382256 19.087122
-10.551374 31.154896 21.001268
-9.71807 24.904869 25.792288
-7.80805 27.420395 24.298777
-6.818228 24.97716 25.664637
-5.198435 23.705978 24.116652
-7.26721 25.890112 -14.067123
-6.206758 25.207867 -8.282418
-6.458808 23.399191 -9.648058
-5.93713 22.290949 -7.042705
-5.071156 19.115612 -6.187108
-11.376439 44.054207 -0.857369
-6.255168 27.138947 -6.771563
-4.549693 25.144535 -4.056775
-5.919345 28.005152 -4.933742
-5.025469 29.121216 -3.482562
-4.014797 30.417721 -2.097156
-5.948551 39.623459 3.207788
-5.88624 37.110481 2.769408
-5.487296 37.586445 5.571172
-6.284387 34.985447 7.477633
-5.704526 32.691376 9.480336
-4.640964 30.548229 11.47056
-6.61792 32.316433 11.561516
-6.571192 31.991444 14.029788
-5.739354 31.397419 16.522394
-7.623635 30.098759 -12.410677
-6.604635 27.457306 -12.416105
-6.529734 29.175104 -11.131859
-5.679797 28.16423 -9.338655
-7.200667 38.099148 -7.143666
-5.12534 37.221581 -6.70281
-5.93835 40.135048 -5.638399
-5.58745 41.656349 -3.441817
-5.472794 42.368122 -0.958047
-7.100895 43.350513 0.335938
-6.977184 41.83094 1.551777
-8.07306 40.398922 3.976594
-8.499285 39.819763 6.895686
-9.329721 39.428265 9.74288
-11.330309 38.988716 -8.669493
-9.43502 38.145851 -7.454295
-1.902249 23.184519 -2.922514
-6.495248 35.50325 -4.451978
-5.967818 33.077366 -1.888762
-3.014531 31.776453 -0.213578
-5.311533 34.392799 2.493365
-2.507376 32.563927 2.162481
-0.614985 30.481327 1.639918
-3.476749 27.8957 13.406952
-2.512218 24.983829 15.356718
-12.900118 44.737816 7.596169
-13.752592 41.964012 8.465748
-12.859415 39.706768 10.188917
-10.898697 38.392872 12.454933
-12.030622 36.859169 15.030802
-8.325439 37.1591 14.892392
-6.634631 35.593964 17.13541
-5.759754 33.466957 18.683681
-5.373385 30.527546 19.428013
-8.956469 29.429295 22.734402
-6.32146 29.298859 22.230782
-5.692804 27.437855 20.052704
-6.820654 21.731174 -14.976727
-6.938144 20.17877 -12.049178
-6.604274 24.596306 -11.892521
-6.637028 21.674547 -10.921216
-11.072838 43.568523 4.296261
-10.248913 43.878019 3.291936
-11.920338 43.216972 5.368574
-11.51668 42.401882 4.606504
-11.072838 43.568523 4.296261
-1.090759 26.683307 -1.098701
-1.333378 28.416795 -1.444072
-1.701785 29.936057 9.472831
-0.975907 30.112783 8.236489
-2.053748 31.268593 8.277727
-2.188404 29.792948 10.569925
-1.110564 28.637138 10.528687
-1.701785 29.936057 9.472831
-13.295289 33.051174 21.442564
-13.529564 33.974502 22.46308
-12.30543 32.352133 20.704314
-12.65014 33.672018 20.088937
-13.295289 33.051174 21.442564
-11.750977 31.443092 21.529604
-11.105828 32.063936 20.175978
-12.30543 32.352133 20.704314
-7.326351 22.59552 27.28747
-6.577414 23.741928 26.352302
-7.567165 23.830753 26.599805
-7.906032 21.718635 28.140341
-7.326351 22.59552 27.28747
-7.862559 27.251244 -14.117906
-7.426926 26.735286 -15.40031
-10.322719 35.929052 -10.423098
-10.665831 37.377226 -10.235278
-8.378761 32.205236 -11.426185
-9.06743 33.482304 -11.071387
-8.093343 33.049172 -10.595023
-7.514155 30.935431 -11.680249
-8.488241 31.368563 -12.156613
-8.378761 32.205236 -11.426185
-6.152484 18.571352 -16.081836
-5.793207 19.059451 -17.624485
-5.855232 20.432727 -17.856732
-10.259429 43.902542 -0.649687
-11.042423 44.427734 0.133841
-8.06296 42.724615 1.372756
-7.923483 43.674467 0.992565
-8.885548 43.048569 2.029383
-11.576314 42.854784 -9.3039
-11.850855 44.355989 -8.957905
-12.492064 43.190976 -8.035412
-11.8001 41.362268 -9.53821
-11.576314 42.854784 -9.3039
-11.773916 40.339243 -8.52545
-11.356493 40.011741 -9.682253
-11.8001 41.362268 -9.53821
-0.433416 29.553417 4.230582
-0.426455 29.199345 2.938629
-0.621945 30.8354 2.931871
-2.952208 23.23167 17.089208
-2.10551 23.563114 16.284757
-3.358916 24.652386 16.16117
-3.83573 22.931699 17.92349
-2.952208 23.23167 17.089208
-5.230216 22.01893 19.338372
-6.121959 22.966388 19.28623
-12.650302 46.262366 10.010407
-12.786673 46.183927 11.435576
-13.246807 44.837342 9.014145
-12.303614 46.16284 8.592431
-12.650302 46.262366 10.010407
-13.424822 39.423699 11.66456
-13.704943 40.813768 10.865015
-12.444463 38.766751 12.797568
-11.879056 39.04982 11.321925
-13.424822 39.423699 11.66456
-9.925199 28.326633 23.536108
-10.510206 29.412099 22.985146
-11.478937 28.309438 23.786853
-5.9685 25.490762 22.063136
-5.902399 25.959734 20.59934
-5.758904 26.968883 21.5165
-5.969351 22.615125 23.340516
-5.1748 22.193317 24.640138
-6.702906 22.493385 -14.208618
-7.074302 23.158578 -15.47573
-6.956554 23.920789 -14.707621
-6.173057 19.528005 -8.970764
-6.438909 20.148341 -10.211374
-6.371176 21.054212 -9.680607
-5.772296 18.80369 -7.926824
-6.173057 19.528005 -8.970764
-4.748394 17.401393 -5.879533
-4.417876 18.525975 -5.454337
-6.404671 17.906669 -14.531121
-6.524561 19.192594 -14.705554
-9.707626 43.375927 2.591692
-10.248913 43.878019 3.291936
-9.847103 42.426075 2.971882
-8.885548 43.048569 2.029383
-9.707626 43.375927 2.591692
-13.169161 44.86363 -6.232295
-12.567868 46.190367 -7.184124
-12.970425 46.361817 -5.727002
-3.606612 19.929994 -4.373179
-4.174701 19.526772 -4.858264
-2.983712 20.409316 -3.889202
-3.606612 19.929994 -4.373179
-3.961905 21.596529 -4.510985
-2.338316 20.881354 -3.208627
-2.983712 20.409316 -3.889202
-1.388135 26.080706 -1.986284
-2.065863 25.429079 -2.515235
-2.483003 27.084598 -2.748725
-1.388135 26.080706 -1.986284
-1.090759 26.683307 -1.098701
-0.818157 30.008916 6.932031
-0.468676 29.880993 5.52325
-0.978387 31.317395 5.632605
-0.818157 30.008916 6.932031
-0.975907 30.112783 8.236489
-1.043886 26.999508 11.484541
-1.110564 28.637138 10.528687
-1.35036 26.977965 12.562206
-1.043886 26.999508 11.484541
-6.761093 23.997439 19.362838
-6.121959 22.966388 19.28623
-6.233602 24.48731 18.517572
-13.58719 44.73204 11.998724
-12.786673 46.183927 11.435576
-14.071983 43.428818 10.986617
-13.58719 44.73204 11.998724
-13.408835 35.387386 21.827807
-13.529564 33.974502 22.46308
-13.876753 35.901148 20.182717
-13.408835 35.387386 21.827807
-13.38352 34.936209 19.283041
-13.620275 36.466297 18.638571
-13.876753 35.901148 20.182717
-5.767518 23.106337 25.578309
-6.008332 24.341569 24.890645
-6.577414 23.741928 26.352302
-5.1748 22.193317 24.640138
-5.767518 23.106337 25.578309
-7.29758 25.238048 -15.020928
-7.426926 26.735286 -15.40031
-6.926184 24.572854 -13.753816
-6.956554 23.920789 -14.707621
-7.29758 25.238048 -15.020928
-4.174701 19.526772 -4.858264
-4.417876 18.525975 -5.454337
-4.827981 20.116409 -5.591035
-12.355616 44.767315 -1.505508
-11.880641 43.70936 -1.980996
-12.859818 44.422468 -2.629136
-12.208759 44.886406 -0.196017
-12.355616 44.767315 -1.505508
-11.042423 44.427734 0.133841
-12.208759 44.886406 -0.196017
-13.328982 46.312916 -4.340887
-12.970425 46.361817 -5.727002
-13.453256 45.257751 -3.46441
-13.328982 46.312916 -4.340887
-12.859818 44.422468 -2.629136
-12.978281 44.199797 -3.939898
-13.453256 45.257751 -3.46441
-2.438139 29.757544 -1.382763
-1.333378 28.416795 -1.444072
-2.910036 29.076973 -2.158465
-12.02082 27.551426 24.960478
-11.478937 28.309438 23.786853
-11.710655 26.127771 25.328488
-12.02082 27.551426 24.960478
-11.122726 24.96822 26.055725
-10.306 26.064421 25.065051
-11.710655 26.127771 25.328488
-10.512255 23.675617 26.747414
-11.122726 24.96822 26.055725
-9.811272 22.565355 27.618757
-9.017087 23.794607 26.663631
-10.512255 23.675617 26.747414
-10.464544 21.489058 28.413905
-8.969376 21.608047 28.330121
-9.811272 22.565355 27.618757
-9.666014 34.778344 -10.861475
-10.322719 35.929052 -10.423098
-9.438717 35.47695 -9.801848
-9.666014 34.778344 -10.861475
-9.06743 33.482304 -11.071387
-8.496835 30.757213 -13.320177
-8.488241 31.368563 -12.156613
-8.040771 29.355567 -13.289683
-8.496835 30.757213 -13.320177
-7.114135 28.778033 -12.413391
-7.531271 28.034841 -13.292397
-8.040771 29.355567 -13.289683
-6.152484 18.571352 -16.081836
-6.404671 17.906669 -14.531121
-9.393171 43.328995 -1.341337
-10.510181 43.48066 -1.549018
-10.259429 43.902542 -0.649687
-8.22568 43.314241 -1.191871
-8.476431 42.892359 -2.091201
-9.393171 43.328995 -1.341337
-8.121657 43.550695 -0.053034
-7.923483 43.674467 0.992565
-7.204917 43.114059 -0.802899
-8.22568 43.314241 -1.191871
-8.121657 43.550695 -0.053034
-11.356123 45.806957 -8.562932
-11.157388 47.305143 -8.05764
-12.567868 46.190367 -7.184124
-11.356123 45.806957 -8.562932
-11.850855 44.355989 -8.957905
-11.283275 38.557755 -9.888289
-11.356493 40.011741 -9.682253
-10.712865 37.808188 -9.016481
-10.665831 37.377226 -10.235278
-11.283275 38.557755 -9.888289
-1.619938 21.435688 -2.65638
-2.338316 20.881354 -3.208627
-2.620627 22.630185 -3.474761
-1.436621 23.804853 -2.337654
-2.53149 24.808746 -3.100095
-2.065863 25.429079 -2.515235
-1.3192 21.941879 -1.894132
-1.436621 23.804853 -2.337654
-1.619938 21.435688 -2.65638
-1.3192 21.941879 -1.894132
-1.938006 30.436909 -0.440974
-2.438139 29.757544 -1.382763
-3.514664 31.097087 -1.155367
-0.738233 29.789347 0.485774
-1.938006 30.436909 -0.440974
-1.814758 31.12889 0.71317
-0.419087 28.674954 1.776825
-0.738233 29.789347 0.485774
-0.419087 28.674954 1.776825
-0.426455 29.199345 2.938629
-0.433416 29.553417 4.230582
-0.468676 29.880993 5.52325
-2.290142 26.678801 13.452791
-1.35036 26.977965 12.562206
-2.536966 28.194864 12.516367
-1.807877 25.222866 14.427674
-2.290142 26.678801 13.452791
-2.994483 26.439765 14.381835
-1.631305 23.662529 15.370033
-1.807877 25.222866 14.427674
-1.631305 23.662529 15.370033
-2.10551 23.563114 16.284757
-4.530157 22.499358 18.661161
-3.83573 22.931699 17.92349
-4.900042 23.8886 17.703293
-4.530157 22.499358 18.661161
-5.230216 22.01893 19.338372
-11.809415 45.83807 7.187672
-12.303614 46.16284 8.592431
-12.188307 44.560715 6.32725
-11.809415 45.83807 7.187672
-12.632149 43.394074 6.637493
-11.920338 43.216972 5.368574
-12.188307 44.560715 6.32725
-14.151532 41.942391 10.003431
-13.673044 43.45044 9.448935
-14.071983 43.428818 10.986617
-13.306003 40.83539 9.327333
-14.151532 41.942391 10.003431
-13.704943 40.813768 10.865015
-13.800814 36.887743 17.048564
-13.620275 36.466297 18.638571
-13.252604 37.566648 15.694517
-13.800814 36.887743 17.048564
-12.578832 36.180264 16.384849
-13.010426 37.999899 14.085503
-13.252604 37.566648 15.694517
-11.464659 37.62602 13.742867
-12.444463 38.766751 12.797568
-13.010426 37.999899 14.085503
-11.307659 30.2749 22.118579
-11.750977 31.443092 21.529604
-9.753922 30.292096 21.867835
-11.307659 30.2749 22.118579
-10.510206 29.412099 22.985146
-6.492366 24.999987 19.870079
-6.28277 26.478108 19.323442
-5.902399 25.959734 20.59934
-6.761093 23.997439 19.362838
-6.492366 24.999987 19.870079
-5.655215 24.093795 22.631314
-5.9685 25.490762 22.063136
-5.511719 25.102945 23.548474
-5.655215 24.093795 22.631314
-5.969351 22.615125 23.340516
-8.559304 20.642338 28.935488
-7.906032 21.718635 28.140341
-8.969376 21.608047 28.330121
-6.312271 21.518817 -17.167564
-5.855232 20.432727 -17.856732
-6.615343 22.41209 -16.498886
-7.074302 23.158578 -15.47573
-6.517582 20.837901 -15.645405
-6.312271 21.518817 -17.167564
-6.615343 22.41209 -16.498886
-6.827634 20.085867 -14.036876
-6.524561 19.192594 -14.705554
-6.517582 20.837901 -15.645405
-6.886379 19.309665 -12.573101
-6.827634 20.085867 -14.036876
-6.879399 20.954972 -13.512953
-6.757523 18.488978 -11.2421
-6.886379 19.309665 -12.573101
-6.935923 26.673709 -13.241614
-7.862559 27.251244 -14.117906
-7.531271 28.034841 -13.292397
-6.589467 19.400453 -10.775354
-6.787586 20.926659 -11.485197
-6.438909 20.148341 -10.211374
-6.757523 18.488978 -11.2421
-6.589467 19.400453 -10.775354
-5.255211 18.144558 -6.80038
-5.772296 18.80369 -7.926824
-5.58824 19.774744 -7.313553
-5.255211 18.144558 -6.80038
-4.748394 17.401393 -5.879533
3 0 38 36
3 1 41 39
3 1 43 41
3 0 46 44
3 0 36 46
3 2 50 48
3 143 51 144
3 145 53 146
3 147 146 51
3 145 146 147
3 2 56 54
3 2 48 56
3 4 59 58
3 149 148 60
3 3 63 61
3 5 66 64
3 5 150 152
3 152 151 66
3 150 151 152
3 5 153 155
3 153 67 154
3 153 154 155
3 6 70 68
3 6 72 70
3 156 73 157
3 158 75 159
3 160 159 73
3 158 159 160
3 161 77 162
3 163 162 75
3 161 162 163
3 7 80 78
3 7 164 166
3 166 165 80
3 164 165 166
3 7 167 168
3 169 82 170
3 4 85 83
3 4 58 85
3 8 90 88
3 10 91 37
3 10 92 91
3 11 95 93
3 13 96 40
3 13 97 96
3 13 99 97
3 15 100 42
3 15 101 100
3 17 171 172
3 18 173 175
3 175 174 45
3 173 174 175
3 18 176 178
3 176 102 177
3 176 177 178
3 18 104 102
3 8 105 47
3 8 88 105
3 20 179 181
3 179 180 181
3 21 108 106
3 23 109 49
3 23 110 109
3 183 182 87
3 24 184 186
3 184 111 185
3 184 185 186
3 24 112 111
3 24 113 112
3 25 114 52
3 25 115 114
3 26 187 189
3 189 188 55
3 187 188 189
3 26 190 191
3 26 192 194
3 192 116 193
3 192 193 194
3 21 117 57
3 21 106 117
3 9 118 89
3 22 119 107
3 27 120 62
3 27 121 120
3 12 122 94
3 28 123 65
3 28 124 123
3 28 195 197
3 197 196 124
3 195 196 197
3 14 125 98
3 29 126 69
3 29 198 200
3 200 199 126
3 198 199 200
3 29 201 202
3 204 203 71
3 30 205 206
3 30 207 209
3 207 127 208
3 207 208 209
3 30 128 127
3 210 129 211
3 212 130 213
3 214 213 129
3 212 213 214
3 31 131 74
3 31 132 131
3 31 133 132
3 32 134 76
3 32 135 134
3 16 215 217
3 215 136 216
3 215 216 217
3 33 137 79
3 33 138 137
3 33 218 220
3 220 219 138
3 218 219 220
3 222 221 81
3 34 223 225
3 223 139 224
3 223 224 225
3 34 140 139
3 19 141 103
3 35 142 84
3 35 226 228
3 228 227 142
3 226 227 228
3 35 229 230
3 232 231 86
3 36 37 8
3 38 37 36
3 38 10 37
3 39 40 11
3 41 40 39
3 41 13 40
3 41 42 13
3 43 42 41
3 43 15 42
3 44 45 17
3 46 45 44
3 46 18 45
3 46 47 18
3 36 47 46
3 36 8 47
3 234 233 20
3 48 49 21
3 50 49 48
3 50 23 49
3 51 235 236
3 51 237 239
3 237 24 238
3 237 238 239
3 51 52 24
3 53 52 51
3 53 25 52
3 54 240 242
3 240 55 241
3 240 241 242
3 56 55 54
3 56 26 55
3 56 57 26
3 48 57 56
3 48 21 57
3 58 243 244
3 59 245 247
3 247 246 58
3 245 246 247
3 59 248 249
3 60 250 252
3 252 251 9
3 250 251 252
3 254 253 60
3 61 62 22
3 63 62 61
3 63 27 62
3 64 65 12
3 66 65 64
3 66 28 65
3 66 255 257
3 257 256 28
3 255 256 257
3 259 258 66
3 67 260 261
3 67 262 263
3 68 69 14
3 70 69 68
3 70 29 69
3 70 71 29
3 72 71 70
3 72 264 266
3 266 265 71
3 264 265 266
3 267 30 268
3 270 269 30
3 73 271 272
3 73 273 274
3 73 275 277
3 275 74 276
3 275 276 277
3 75 74 73
3 75 31 74
3 75 76 31
3 77 76 75
3 77 32 76
3 78 79 16
3 80 79 78
3 80 33 79
3 80 81 33
3 278 81 279
3 280 279 80
3 278 279 280
3 282 281 81
3 82 283 284
3 82 285 287
3 285 34 286
3 285 286 287
3 83 84 19
3 85 84 83
3 85 35 84
3 85 86 35
3 58 86 85
3 58 288 290
3 290 289 86
3 288 289 290
3 291 87 292
3 293 292 2
3 291 292 293
3 294 87 295
3 297 296 87
3 298 54 299
3 300 54 301
3 302 2 303
3 304 303 54
3 302 303 304
3 88 89 4
3 90 89 88
3 90 9 89
3 37 90 8
3 91 90 37
3 91 9 90
3 91 60 9
3 92 60 91
3 92 305 307
3 307 306 60
3 305 306 307
3 93 94 3
3 95 94 93
3 95 12 94
3 40 95 11
3 96 95 40
3 96 12 95
3 96 64 12
3 97 64 96
3 97 5 64
3 97 98 5
3 99 98 97
3 99 14 98
3 42 99 13
3 100 99 42
3 100 14 99
3 100 68 14
3 101 68 100
3 101 6 68
3 308 16 309
3 310 16 311
3 312 78 313
3 314 313 16
3 312 313 314
3 315 78 316
3 317 7 318
3 319 318 78
3 317 318 319
3 322 321 7
3 320 321 322
3 45 323 325
3 325 324 17
3 323 324 325
3 327 326 45
3 102 328 329
3 102 330 331
3 102 332 334
3 332 103 333
3 332 333 334
3 104 103 102
3 104 19 103
3 47 104 18
3 105 104 47
3 105 19 104
3 105 83 19
3 88 83 105
3 88 4 83
3 336 335 20
3 106 107 0
3 108 107 106
3 108 22 107
3 49 108 21
3 109 108 49
3 109 22 108
3 109 61 22
3 110 61 109
3 110 3 61
3 87 50 2
3 337 50 338
3 339 338 87
3 337 338 339
3 340 23 341
3 342 341 50
3 340 341 342
3 111 343 344
3 111 345 347
3 345 23 346
3 345 346 347
3 111 110 23
3 112 110 111
3 112 3 110
3 112 93 3
3 113 93 112
3 113 11 93
3 52 113 24
3 114 113 52
3 114 11 113
3 114 39 11
3 115 39 114
3 115 1 39
3 55 348 350
3 348 349 350
3 352 351 55
3 116 353 354
3 116 355 357
3 355 17 356
3 355 356 357
3 57 116 26
3 117 116 57
3 117 17 116
3 117 44 17
3 106 44 117
3 106 0 44
3 89 59 4
3 118 59 89
3 118 358 360
3 360 359 59
3 358 359 360
3 361 118 362
3 363 362 9
3 361 362 363
3 364 118 365
3 367 366 118
3 107 38 0
3 119 38 107
3 119 10 38
3 62 119 22
3 120 119 62
3 120 10 119
3 120 92 10
3 121 92 120
3 121 368 370
3 370 369 92
3 368 369 370
3 94 63 3
3 122 63 94
3 122 27 63
3 65 122 12
3 123 122 65
3 123 27 122
3 123 121 27
3 124 121 123
3 124 371 373
3 373 372 121
3 371 372 373
3 124 374 375
3 377 376 124
3 379 378 28
3 98 67 5
3 125 67 98
3 125 380 382
3 382 381 67
3 380 381 382
3 69 125 14
3 126 125 69
3 126 383 385
3 385 384 125
3 383 384 385
3 126 386 387
3 389 388 126
3 71 390 392
3 392 391 29
3 390 391 392
3 394 393 71
3 127 395 396
3 127 397 398
3 127 399 401
3 399 53 400
3 399 400 401
3 128 53 127
3 128 25 53
3 402 128 403
3 404 403 30
3 402 403 404
3 129 405 407
3 405 128 406
3 405 406 407
3 129 25 128
3 129 115 25
3 130 115 129
3 130 1 115
3 74 408 409
3 131 410 412
3 412 411 74
3 410 411 412
3 131 413 414
3 131 415 417
3 415 130 416
3 415 416 417
3 132 130 131
3 132 1 130
3 132 43 1
3 133 43 132
3 133 15 43
3 76 133 31
3 134 133 76
3 134 15 133
3 134 101 15
3 135 101 134
3 135 6 101
3 418 77 419
3 136 420 422
3 420 77 421
3 420 421 422
3 136 32 77
3 79 136 16
3 137 136 79
3 137 32 136
3 137 135 32
3 138 135 137
3 138 6 135
3 138 72 6
3 423 72 424
3 425 424 138
3 423 424 425
3 427 426 72
3 81 428 430
3 430 429 33
3 428 429 430
3 432 431 81
3 435 434 7
3 433 434 435
3 436 20 437
3 139 438 439
3 139 440 442
3 440 20 441
3 440 441 442
3 139 443 445
3 445 444 20
3 443 444 445
3 140 446 448
3 448 447 139
3 446 447 448
3 140 449 450
3 103 451 453
3 451 82 452
3 451 452 453
3 141 82 103
3 141 34 82
3 84 141 19
3 142 141 84
3 142 34 141
3 142 140 34
3 454 140 455
3 456 455 142
3 454 455 456
3 458 457 140
3 86 459 461
3 461 460 35
3 459 460 461
3 463 462 86
