ply
format ascii 1.0
element vertex 227
property float x
property float y
property float z
element face 193
property list uchar int vertex_index
end_header
41.726238 42.619404 -13.388992
45.137505 28.519724 -13.582048
42.178638 48.204041 -9.886085
44.507275 43.182384 -10.20595
34.15126 56.402172 -8.66257
35.792076 52.236835 -9.309381
35.916489 45.45208 -10.188961
37.16983 38.701557 -8.423193
46.716408 38.122246 -13.214312
43.102406 35.724167 -13.225759
39.951096 31.530579 -11.696648
28.852697 24.214104 -7.606041
42.7062 41.721191 -7.9466
36.731895 55.619751 -7.527036
35.649792 55.262871 -9.671557
38.406734 53.982594 -8.2234
42.000557 45.436504 -11.985285
39.219963 47.124748 -10.31368
38.913967 44.095478 -11.502502
36.267509 42.175903 -9.478357
39.574257 40.712852 -10.904621
46.231636 30.504068 -13.413408
45.802429 33.719593 -13.978772
44.125038 32.091789 -13.875711
41.61216 33.679256 -11.723433
43.010571 29.944611 -13.478037
41.259636 28.536335 -13.953076
43.54398 26.848099 -13.663162
29.819773 25.783417 -6.979341
41.166443 50.851463 -7.660242
43.046455 47.940952 -7.665248
44.014973 45.836479 -10.312242
44.237255 43.600445 -12.52248
43.745167 26.500982 -12.050325
32.702812 55.81321 -10.696405
33.254391 52.854034 -11.187425
39.065235 50.516499 -8.630628
34.82317 36.795246 -6.903572
45.839817 41.06414 -12.258779
44.729702 40.804192 -13.892191
45.338787 37.322201 -14.095253
42.41637 39.215683 -13.410715
40.413471 37.163513 -10.488367
38.554848 35.064354 -8.972822
42.0672 40.949428 -6.76135
41.798775 42.645763 -6.8921
38.981451 53.647816 -7.243224
37.569315 54.801172 -7.875218
38.144031 54.466394 -6.895041
30.364684 26.515518 -6.566075
32.029519 26.163251 -8.032845
29.266793 25.348017 -5.782521
30.364684 26.515518 -6.566075
42.100227 47.363646 -6.705661
42.176504 49.084677 -6.66499
44.261124 44.509431 -10.259096
43.542936 45.359871 -9.102714
43.789088 44.032823 -9.049568
33.427036 56.107691 -9.679488
31.994965 56.475945 -9.946487
32.719189 56.770426 -8.92957
34.593902 50.869928 -10.210759
33.32506 51.178528 -11.14978
34.523234 52.545434 -10.248403
35.919714 47.029526 -9.781743
37.571451 47.86586 -9.844102
37.568226 46.288414 -10.251321
34.807735 45.791678 -11.146853
35.919714 47.029526 -9.781743
34.747389 44.090244 -10.593797
34.807735 45.791678 -11.146853
35.39142 39.379387 -8.288547
34.940259 41.11656 -8.816129
36.718669 40.43873 -8.950775
35.9965 37.748401 -7.663382
34.21809 38.426232 -7.528736
35.39142 39.379387 -8.288547
46.278112 39.593193 -12.736546
46.211715 39.260105 -11.671719
46.650011 37.789158 -12.149486
38.149147 32.436787 -10.302433
37.451023 34.203675 -8.94052
39.252972 33.297466 -10.334735
38.822277 31.152006 -12.206338
38.149147 32.436787 -10.302433
40.250479 28.509338 -14.717295
41.42248 27.234197 -14.298372
41.019729 25.758819 -11.223277
42.795084 25.831229 -12.284776
41.969813 26.428572 -10.988826
29.893028 24.497071 -9.034734
30.782645 24.951453 -8.752326
28.459796 23.336271 -7.893192
29.893028 24.497071 -9.034734
28.599785 22.618377 -6.830756
28.459796 23.336271 -7.893192
42.88855 43.302227 -7.919893
41.798775 42.645763 -6.8921
43.606738 42.451787 -9.076275
43.789088 44.032823 -9.049568
42.88855 43.302227 -7.919893
47.493721 36.640379 -12.299517
46.650011 37.789158 -12.149486
46.017032 32.111831 -13.69609
46.600819 32.950247 -13.298714
46.815422 31.342484 -13.016032
42.564651 26.390079 -14.153415
41.42248 27.234197 -14.298372
42.401808 27.692217 -13.808119
31.266183 25.736109 -8.438976
33.475929 26.115943 -9.49248
32.029519 26.163251 -8.032845
29.336235 24.99876 -7.292691
30.782645 24.951453 -8.752326
31.266183 25.736109 -8.438976
29.078557 24.389398 -6.146489
28.595019 23.604742 -6.459839
29.336235 24.99876 -7.292691
29.078557 24.389398 -6.146489
29.266793 25.348017 -5.782521
41.236498 50.539932 -6.662487
40.361306 52.082251 -6.961645
42.106449 49.396208 -7.662745
41.236498 50.539932 -6.662487
42.176504 49.084677 -6.66499
43.058678 46.412108 -7.779217
42.100227 47.363646 -6.705661
43.530714 46.888716 -8.988745
43.058678 46.412108 -7.779217
43.542936 45.359871 -9.102714
46.029532 30.417499 -12.387916
46.815422 31.342484 -13.016032
45.719757 29.448464 -12.660122
46.029532 30.417499 -12.387916
45.172691 28.456291 -12.744442
45.68457 29.511896 -13.497728
45.719757 29.448464 -12.660122
44.476523 27.446921 -11.97858
44.441336 27.510353 -12.816187
45.172691 28.456291 -12.744442
42.68599 27.205986 -10.834552
44.476523 27.446921 -11.97858
41.969813 26.428572 -10.988826
42.68599 27.205986 -10.834552
32.984541 56.054169 -8.134709
32.719189 56.770426 -8.92957
34.263203 55.687638 -7.671183
32.984541 56.054169 -8.134709
35.55352 55.296427 -7.103416
35.441578 56.010962 -8.094803
34.263203 55.687638 -7.671183
37.010378 54.664816 -6.697186
35.55352 55.296427 -7.103416
35.832003 54.341492 -6.273567
38.144031 54.466394 -6.895041
37.010378 54.664816 -6.697186
30.905984 56.433166 -10.806119
31.994965 56.475945 -9.946487
31.246494 54.745172 -10.933469
30.905984 56.433166 -10.806119
31.522284 53.265585 -11.178979
31.246494 54.745172 -10.933469
32.978601 54.333622 -10.941915
31.782438 51.507191 -10.978355
31.522284 53.265585 -11.178979
31.782438 51.507191 -10.978355
33.32506 51.178528 -11.14978
39.786589 52.417029 -7.941821
38.981451 53.647816 -7.243224
40.361306 52.082251 -6.961645
37.494087 49.561735 -9.002576
39.142599 48.820623 -9.472154
37.571451 47.86586 -9.844102
35.857507 50.421903 -9.341952
37.428656 51.376667 -8.970004
37.494087 49.561735 -9.002576
34.593902 50.869928 -10.210759
35.857507 50.421903 -9.341952
34.922899 42.452156 -10.238495
34.747389 44.090244 -10.593797
36.091999 43.813992 -9.833659
34.922899 42.452156 -10.238495
34.940259 41.11656 -8.816129
33.049728 37.396166 -7.13567
34.21809 38.426232 -7.528736
33.696125 35.889967 -6.945083
33.049728 37.396166 -7.13567
43.257633 39.742298 -7.426227
42.0672 40.949428 -6.76135
43.636336 40.670879 -8.982812
43.257633 39.742298 -7.426227
44.536873 41.401476 -10.112486
43.606738 42.451787 -9.076275
43.636336 40.670879 -8.982812
45.203144 40.342354 -11.138901
46.211715 39.260105 -11.671719
45.173546 42.123262 -11.232364
44.536873 41.401476 -10.112486
45.203144 40.342354 -11.138901
47.066316 36.501543 -13.215038
47.493721 36.640379 -12.299517
46.609327 34.300217 -13.597268
46.600819 32.950247 -13.298714
46.377506 36.10152 -13.655509
46.609327 34.300217 -13.597268
45.570608 35.520897 -14.037012
46.027597 37.722223 -13.654782
47.066316 36.501543 -13.215038
46.377506 36.10152 -13.655509
35.585184 35.06912 -7.905895
36.689009 35.9298 -7.938197
37.451023 34.203675 -8.94052
34.458139 34.163842 -7.947406
33.696125 35.889967 -6.945083
35.585184 35.06912 -7.905895
39.476547 29.654885 -13.334552
38.822277 31.152006 -12.206338
40.605366 30.033457 -12.824862
39.476547 29.654885 -13.334552
40.250479 28.509338 -14.717295
42.694491 26.004787 -13.091195
43.644573 26.67454 -12.856744
42.795084 25.831229 -12.284776
42.564651 26.390079 -14.153415
42.694491 26.004787 -13.091195
28.599785 22.618377 -6.830756
28.595019 23.604742 -6.459839
3 44 12 45
3 46 15 47
3 48 47 13
3 46 47 48
3 0 18 16
3 0 20 18
3 1 23 21
3 1 25 23
3 1 27 25
3 49 28 50
3 52 51 28
3 53 30 54
3 3 55 57
3 55 31 56
3 55 56 57
3 3 32 31
3 4 58 60
3 58 34 59
3 58 59 60
3 5 35 14
3 5 61 63
3 63 62 35
3 61 62 63
3 2 36 29
3 6 64 66
3 66 65 17
3 64 65 66
3 6 67 68
3 6 69 70
3 7 71 73
3 73 72 19
3 71 72 73
3 7 74 76
3 74 37 75
3 74 75 76
3 8 77 79
3 77 38 78
3 77 78 79
3 8 39 38
3 9 40 22
3 9 41 40
3 9 42 41
3 10 43 24
3 10 80 82
3 82 81 43
3 80 81 82
3 10 83 84
3 86 85 26
3 89 88 33
3 87 88 89
3 11 90 91
3 11 92 93
3 11 94 95
3 12 96 97
3 12 98 100
3 98 3 99
3 98 99 100
3 13 14 4
3 15 14 13
3 15 5 14
3 16 17 2
3 18 17 16
3 18 6 17
3 18 19 6
3 20 19 18
3 20 7 19
3 101 8 102
3 21 103 105
3 103 22 104
3 103 104 105
3 23 22 21
3 23 9 22
3 23 24 9
3 25 24 23
3 25 10 24
3 25 26 10
3 27 26 25
3 27 106 108
3 108 107 26
3 106 107 108
3 28 109 111
3 109 110 111
3 28 112 114
3 112 11 113
3 112 113 114
3 28 115 117
3 117 116 11
3 115 116 117
3 119 118 28
3 120 29 121
3 30 122 124
3 122 29 123
3 122 123 124
3 30 2 29
3 125 30 126
3 31 127 129
3 127 30 128
3 127 128 129
3 31 2 30
3 31 16 2
3 32 16 31
3 32 0 16
3 130 21 131
3 132 21 133
3 134 1 135
3 136 135 21
3 134 135 136
3 137 33 138
3 139 138 1
3 137 138 139
3 140 33 141
3 143 142 33
3 144 4 145
3 146 4 147
3 148 13 149
3 150 149 4
3 148 149 150
3 151 13 152
3 151 152 153
3 155 154 13
3 34 156 157
3 34 158 159
3 14 34 4
3 35 34 14
3 35 160 162
3 162 161 34
3 160 161 162
3 35 163 164
3 166 165 35
3 29 167 169
3 167 15 168
3 167 168 169
3 36 15 29
3 36 5 15
3 17 36 2
3 170 36 171
3 172 171 17
3 170 171 172
3 173 5 174
3 175 174 36
3 173 174 175
3 177 176 5
3 19 178 180
3 180 179 6
3 178 179 180
3 182 181 19
3 37 183 184
3 37 185 186
3 187 12 188
3 189 12 190
3 191 3 192
3 193 192 12
3 191 192 193
3 38 194 195
3 38 196 198
3 196 3 197
3 196 197 198
3 38 32 3
3 39 32 38
3 39 0 32
3 199 8 200
3 22 201 202
3 40 203 205
3 205 204 22
3 203 204 205
3 40 206 208
3 206 8 207
3 206 207 208
3 40 39 8
3 41 39 40
3 41 0 39
3 41 20 0
3 42 20 41
3 42 7 20
3 24 42 9
3 43 42 24
3 43 7 42
3 43 37 7
3 209 37 210
3 211 210 43
3 209 210 211
3 214 213 37
3 212 213 214
3 26 215 217
3 217 216 10
3 215 216 217
3 219 218 26
3 33 27 1
3 220 27 221
3 222 221 33
3 220 221 222
3 224 223 27
3 226 225 11
