ply
format ascii 1.0
element vertex 982
property float x
property float y
property float z
element face 1054
property list uchar int vertex_index
end_header
56.69334 -38.591518 27.92651
47.915131 -42.798462 37.500347
57.730572 -31.454559 45.114914
53.817329 -44.483452 29.14986
37.40834 -45.673759 35.343483
57.860176 -18.671648 26.950674
54.272839 -26.595343 38.802906
50.673309 -32.051563 42.469643
51.904217 -49.645161 40.180492
53.344368 -44.655167 38.637737
63.588562 -37.880352 19.383446
38.330471 -31.738758 38.074699
45.2047 -36.290752 42.173988
40.83556 -39.99934 35.988777
59.484642 -35.158802 36.713608
52.493732 -38.935524 45.875561
56.571617 -39.528732 37.583557
61.213844 -39.795494 27.031488
48.801365 -28.439678 38.058971
47.143845 -30.527374 39.216045
55.045704 -50.899803 36.64872
50.682213 -37.74609 28.609674
50.558567 -37.744308 23.566555
60.975548 -37.446259 22.936466
35.958282 -34.551353 38.049942
40.025368 -36.533894 38.058174
37.188393 -38.758812 36.101715
40.777649 -49.758259 39.32439
41.351654 -47.378273 37.129196
54.769093 -18.559641 31.550791
53.237144 -21.167419 32.860584
56.821705 -28.256519 43.320118
58.634937 -25.744043 39.234062
59.9217 -28.348475 41.7346
59.03651 -32.982029 40.838184
46.384094 -39.196533 39.856316
48.70319 -37.513874 44.286339
49.944603 -40.82753 41.528912
52.12262 -44.37495 34.062805
54.21413 -42.480995 38.896935
54.65992 -41.371822 32.852928
59.686615 -40.548195 32.482399
57.266407 -42.117676 26.530903
60.015991 -42.793388 22.760571
56.391735 -44.332695 25.303387
34.661827 -41.396912 35.562634
33.345257 -44.247765 36.627739
36.508934 -48.478291 37.632683
58.451637 -23.330301 27.230719
51.220459 -23.546013 34.801201
50.161663 -25.813461 36.882851
52.628075 -29.348324 41.033527
54.422394 -31.553562 45.451679
49.404018 -46.553658 36.863892
52.522705 -47.447361 37.594776
54.443951 -48.029274 35.215
54.745331 -48.335918 30.681217
45.524269 -36.974346 23.424244
44.214928 -32.363384 40.159798
41.770916 -34.255428 40.169449
43.08033 -38.271587 38.929466
44.76823 -41.11731 36.249004
38.802242 -42.675697 34.665367
42.72831 -44.462669 35.287663
49.009937 -49.140495 39.800766
51.924416 -52.075176 42.669636
52.647087 -36.52961 32.549667
56.515736 -21.30373 29.331989
59.797375 -24.490025 29.707623
55.553272 -24.947256 35.133892
59.586914 -25.270975 34.149376
55.076214 -33.793293 35.786999
57.828041 -37.322865 32.739117
47.544277 -33.835503 43.99157
51.205639 -35.239006 47.438725
54.910316 -36.088306 47.376801
53.239037 -43.271385 43.145031
54.87611 -40.007252 43.748188
56.547356 -36.180298 42.530571
59.873177 -37.408173 37.079494
62.446869 -38.035042 32.713593
62.545074 -37.701759 27.703037
62.74353 -39.089233 22.803991
46.251312 -28.012884 37.645145
45.51606 -29.049139 38.110992
53.678169 -38.46838 28.224812
53.523293 -38.406929 25.55863
56.505257 -38.41787 25.254353
59.216064 -38.068584 25.430145
57.606102 -29.402395 44.710583
58.778454 -27.895481 42.830307
59.033348 -29.825672 43.54018
59.694984 -30.637787 41.684418
58.553322 -31.926584 42.973228
47.126457 -40.873684 38.569695
48.228668 -39.805649 40.661877
48.774452 -41.80471 39.527287
52.513863 -44.572685 31.357574
52.979057 -42.661076 33.570763
53.811279 -42.503494 30.555851
55.508057 -42.988316 27.756378
57.25367 -43.595318 25.858484
55.374104 -44.595142 27.397518
34.350323 -47.761162 37.539528
58.533642 -19.118618 25.236115
57.889301 -21.410816 25.537352
57.401348 -21.251911 27.080866
49.270603 -23.151278 36.228527
48.458286 -24.441959 36.754143
49.802368 -30.39851 40.20145
50.687767 -29.207561 39.565575
51.820213 -30.816904 41.738792
53.809071 -30.318426 43.235382
52.558449 -32.02211 44.035004
50.661438 -48.291008 38.381348
50.779953 -47.025558 37.25692
52.279346 -48.598236 38.580128
55.130909 -49.548058 36.013714
55.829094 -49.628181 33.376816
54.51701 -48.276527 32.981117
63.070507 -36.701492 19.042793
63.553154 -36.011395 17.055
41.281979 -32.050495 38.65955
40.00721 -32.911541 38.794643
40.306171 -38.508228 36.977863
41.572929 -37.502178 38.315979
42.013371 -39.123711 37.290031
43.835369 -39.511375 37.558239
42.909218 -40.507332 35.986099
35.879208 -43.540813 35.015636
36.691216 -41.94228 34.925007
38.013161 -44.196587 34.719524
43.286015 -47.977535 37.923302
41.838894 -46.058487 35.839615
43.834923 -46.779385 36.425461
44.574604 -45.340118 35.81498
47.623901 -47.867851 37.391762
47.186123 -48.975212 39.323509
50.5984 -51.791523 43.433743
50.540615 -35.04314 31.960056
51.954994 -34.148869 33.41996
54.865623 -21.240456 31.149586
55.588203 -19.78536 30.462376
56.498138 -22.517115 30.383331
58.138786 -23.307474 29.444113
52.689095 -25.447964 36.648994
53.322235 -24.481022 35.004238
54.859779 -25.42346 37.045753
60.168262 -25.918087 38.348488
59.168213 -25.281319 36.807938
60.643166 -25.85223 35.472256
60.792381 -25.873753 32.863647
58.100227 -33.151501 38.108143
57.141113 -34.794807 36.473869
55.924507 -36.209488 34.813862
58.765198 -36.411839 34.777119
44.207687 -34.346413 42.423622
45.924351 -33.093361 42.173691
45.909142 -35.053249 43.992592
50.547119 -37.91993 45.335876
49.776085 -36.60796 46.50634
51.818169 -37.151924 47.519676
53.216042 -35.812134 48.184036
53.815113 -37.723473 47.510529
52.283363 -44.539257 39.466408
51.718334 -43.801491 41.532429
53.398781 -44.16555 41.128246
54.869209 -40.862251 38.20509
54.725372 -41.600029 41.202614
54.938526 -39.524136 40.636189
55.822151 -38.108025 43.395805
56.216869 -37.844475 39.85006
57.691246 -36.555305 39.321564
58.610767 -38.867485 37.241982
60.608959 -40.303387 29.836178
61.620247 -39.663429 32.773163
62.426331 -39.186855 30.439798
62.649208 -37.818737 30.499258
62.844463 -38.735893 27.47868
62.963593 -38.257282 25.217409
62.041889 -39.513859 24.714703
59.113232 -43.888042 21.337708
60.747272 -42.219933 20.622393
46.478481 -24.270584 37.924416
47.634193 -25.766413 37.015709
46.934654 -27.009472 37.15374
47.916443 -29.468922 38.664829
48.873859 -31.530222 40.837635
53.349174 -51.106323 40.388512
53.454163 -50.18755 38.929317
48.29781 -36.414474 28.4034
47.952934 -37.118984 26.005432
50.601334 -38.025166 26.003738
53.520245 -37.930367 23.167154
62.5938 -37.274586 21.122696
37.063957 -32.996376 38.033653
39.011513 -34.21909 38.439598
38.69886 -37.623695 36.876659
38.937386 -39.469017 35.928188
38.92527 -47.8568 37.290539
39.42292 -46.638103 35.980659
41.09037 -48.618126 38.460205
43.055244 -49.234516 39.537971
54.537891 -17.910748 33.203358
53.99696 -19.887659 32.124283
54.702282 -22.45307 32.070244
55.785095 -27.727917 41.006462
56.496727 -26.100439 39.219917
57.87077 -26.872471 41.348827
59.660015 -26.713934 40.77734
60.42046 -27.460531 39.4925
59.372429 -31.772974 39.873753
59.411316 -34.148876 38.882301
45.791859 -37.82008 41.055878
46.926506 -36.911884 43.29821
47.727013 -38.266537 41.96032
49.570465 -38.728889 42.796295
51.297279 -39.883068 43.607433
52.707325 -44.513386 36.587811
53.945953 -43.783844 39.173576
53.17334 -43.195789 36.604527
53.822975 -41.708977 35.858364
55.68919 -40.478874 35.238865
58.311779 -40.273628 35.195568
57.141968 -40.738781 32.469772
58.242981 -40.805454 29.428284
58.960571 -40.92804 26.205021
60.125099 -41.08622 24.132467
58.764519 -42.774899 24.664904
58.375721 -43.919716 23.688103
33.905788 -42.854118 35.887508
35.193417 -45.020199 35.473381
34.555737 -46.484783 36.49155
36.84745 -47.17926 36.524757
38.693756 -49.116173 38.403099
61.055798 -18.570879 21.557806
50.745934 -24.614071 35.894081
52.201832 -26.531597 37.887554
49.573421 -27.114208 37.636494
51.528679 -27.682577 38.819431
53.508705 -27.977077 40.04784
54.614738 -28.931559 42.504871
55.685509 -29.700146 44.590935
56.248009 -31.268757 45.93998
48.471855 -44.584904 36.858974
49.928761 -44.988659 37.282997
51.200298 -45.423882 37.612511
52.570911 -45.849953 37.581841
54.012047 -49.213814 37.678719
54.02536 -47.978264 36.911903
53.231018 -46.20052 36.353706
52.946198 -46.497704 34.467094
53.036438 -46.716957 32.269493
53.597649 -46.568653 30.143055
54.315968 -46.479057 28.402164
54.635426 -48.198734 28.946613
47.926491 -37.593178 23.469563
42.447643 -28.603521 37.730396
44.07193 -30.231121 38.164097
42.682304 -31.222601 38.420521
42.813484 -33.23946 40.37492
43.469921 -35.417511 41.348171
41.100662 -35.404556 39.289001
42.761124 -36.365902 39.819382
44.315865 -37.311337 40.431633
44.714165 -38.725586 39.348373
45.549187 -39.950359 37.973671
46.429249 -42.094593 36.947754
35.775444 -40.019112 35.6315
37.691296 -40.663277 35.339344
39.649666 -41.268467 35.143776
39.91571 -45.102886 35.138126
40.789928 -43.339252 34.78624
41.791645 -41.836876 35.112988
43.718983 -42.671764 35.350967
45.572426 -43.644115 35.943352
47.996399 -46.218208 36.520294
49.303627 -48.102623 37.801167
50.558071 -49.333126 40.245628
50.567097 -50.316002 42.212849
52.074177 -50.740444 41.886898
49.273914 -35.841614 30.235748
51.633045 -37.344105 30.594158
54.360279 -38.08189 30.408331
35.107941 -32.571438 38.795456
56.087414 -17.043238 30.961124
56.607445 -18.214144 29.487967
57.033691 -19.854441 28.334177
57.617531 -22.410402 28.395245
59.343201 -24.041479 28.331608
52.107769 -22.509846 33.74189
54.060356 -23.632416 33.365986
56.145416 -24.516308 33.213474
57.072712 -25.418068 37.317924
57.760216 -25.182964 35.036224
58.034992 -24.771393 32.84066
53.70937 -35.337975 34.394707
55.057117 -37.241425 32.852959
56.976318 -38.080162 30.503
45.954327 -31.529215 39.653667
47.539062 -32.525978 41.367485
49.21077 -33.11972 43.309177
47.797108 -35.842625 45.360832
49.234093 -34.466515 45.918816
50.97047 -33.441853 45.207695
52.835285 -33.744083 46.877571
54.634773 -33.883961 47.314484
56.081085 -33.79921 46.440414
50.21946 -42.881306 40.596886
51.406719 -42.303764 42.705971
52.787254 -41.484875 44.499908
54.443306 -43.174965 41.676865
54.324512 -42.05814 43.700027
54.103283 -39.946068 45.685585
55.309406 -38.169323 46.014915
55.965149 -36.259201 45.49342
57.007404 -34.090248 44.197762
57.544811 -34.481335 41.444328
59.065529 -35.475353 39.210823
60.752422 -36.004559 37.212673
60.326355 -39.575371 35.094597
61.694355 -37.981743 34.992241
61.3578 -36.500496 34.910683
61.023262 -37.067165 32.530754
60.556293 -37.616173 30.313107
60.059517 -38.095112 27.695812
61.756836 -37.579376 25.296217
62.711975 -37.813637 23.107307
63.166584 -38.544182 21.017107
61.316357 -40.786629 22.347187
62.207996 -40.22065 20.774149
54.511589 -45.658714 26.740711
44.635292 -28.26952 37.97427
45.143303 -27.764868 38.019732
58.196909 -18.895133 26.093395
59.11854 -18.087219 25.2553
58.781807 -17.863734 26.112579
48.045965 -23.777596 37.492068
48.677343 -23.254433 37.469036
56.044664 -50.455596 32.348404
55.956829 -50.368673 33.687317
55.927124 -49.669182 32.099165
56.044664 -50.455596 32.348404
63.776708 -37.632864 18.303892
63.517681 -37.043434 18.133566
63.329535 -37.290922 19.213119
63.496027 -38.417361 18.3106
63.776708 -37.632864 18.303892
39.168841 -32.32515 38.434671
39.812828 -31.791866 38.369026
38.974458 -31.205474 38.009054
44.54908 -47.621775 37.5793
43.560469 -47.37846 37.174381
44.274626 -48.22085 38.328221
44.776308 -47.092516 36.704544
44.54908 -47.621775 37.5793
46.22468 -48.719689 39.028324
46.451908 -48.19043 38.153568
52.320902 -32.941723 32.97349
51.345396 -33.389891 32.52752
56.472549 -23.026882 31.02366
55.68188 -21.878785 30.766458
55.656291 -22.388553 31.406788
57.367752 -23.234571 30.650502
56.472549 -23.026882 31.02366
60.682045 -26.434562 36.057135
60.405714 -25.885158 36.910372
60.444593 -26.467491 37.495251
60.757704 -26.430814 34.724396
60.682045 -26.434562 36.057135
59.35075 -43.454963 20.389581
58.423172 -43.982809 20.983355
46.261727 -26.253578 37.416776
46.706568 -25.640028 37.539078
46.03364 -24.884134 37.802115
53.958019 -51.45126 39.171291
53.567031 -51.688721 39.8685
55.061423 -37.895918 22.930132
53.521769 -38.168648 24.362892
55.062947 -38.134199 24.12587
55.071866 -37.442276 21.806719
55.061423 -37.895918 22.930132
60.93446 -37.171931 21.725455
59.999192 -37.491883 22.838489
61.784674 -37.360422 22.029581
61.743586 -37.086094 20.81857
60.93446 -37.171931 21.725455
36.979146 -35.087297 37.988293
37.531984 -34.309809 37.980148
36.511119 -33.773865 38.041798
37.943627 -38.191254 36.489187
37.8072 -37.269001 37.223598
37.051966 -37.836559 36.836126
44.031662 -50.10811 40.688084
42.984407 -49.804319 40.047882
44.002239 -49.461838 40.115847
44.031662 -50.10811 40.688084
54.660711 -17.503396 34.208054
55.350034 -16.931972 34.036646
53.617052 -20.527539 32.492434
53.794995 -19.375492 32.876051
53.415087 -20.015372 33.244202
59.95583 -28.92715 40.922007
60.20521 -28.483178 39.800956
60.17108 -27.904503 40.61355
57.754694 -41.461565 27.979594
57.047953 -41.106457 29.587085
56.559666 -41.762568 28.138394
56.7393 -44.350973 24.069339
57.731292 -44.144483 23.261697
57.383728 -44.126205 24.495745
33.625523 -43.550942 36.257623
33.21734 -42.669237 36.680679
32.937075 -43.366061 37.050794
60.182833 -19.148709 22.467602
60.827776 -18.23525 22.506776
60.140215 -19.415186 21.666295
60.182833 -19.148709 22.467602
58.130324 -23.539552 26.617133
57.849156 -22.57981 25.770449
58.170469 -22.370559 26.384035
58.719404 -24.213893 27.219943
58.130324 -23.539552 26.617133
44.574934 -36.486736 23.396496
44.867563 -35.79508 24.36078
45.567019 -37.183511 22.084107
44.574934 -36.486736 23.396496
63.921718 -35.560116 16.245403
64.094548 -36.412094 16.282229
41.830719 -30.453314 38.085325
42.564974 -29.913061 38.075458
41.713389 -29.143774 37.740263
35.218636 -40.708012 35.597067
34.891985 -39.693237 36.174423
34.335177 -40.382137 36.13999
45.985834 -44.713211 36.05303
45.073515 -44.492116 35.879166
45.486923 -45.561212 35.988844
46.316201 -43.933336 36.186976
45.985834 -44.713211 36.05303
47.19782 -46.000258 36.341501
47.528187 -45.220382 36.475447
52.484299 -52.131027 41.982195
52.559179 -51.463661 41.590826
51.999296 -51.40781 42.278267
49.190331 -34.604557 30.375542
48.498178 -34.895453 29.69841
35.080723 -31.899954 39.579064
35.755518 -31.841876 38.763106
55.428253 -17.80144 31.255958
56.023077 -16.730272 31.907103
55.363917 -17.488474 32.201936
59.885666 -25.022163 29.144186
59.658579 -24.797891 28.456179
59.570288 -24.265752 29.019616
51.664114 -23.027929 34.271546
51.574122 -21.68861 34.280527
51.130466 -22.206694 34.810182
59.639698 -25.125455 32.944544
58.863737 -24.875664 32.290186
58.810953 -25.021184 33.495018
60.665325 -25.840873 31.686048
60.561605 -26.474839 32.252405
55.484585 -32.448994 35.620205
55.952389 -32.934117 36.387512
54.386888 -33.233251 35.110312
55.484585 -32.448994 35.620205
54.392792 -34.565634 35.090853
53.703467 -34.005592 34.414165
54.386888 -33.233251 35.110312
50.514872 -43.505555 39.850084
49.780142 -43.170418 39.507649
61.67761 -40.840456 19.876269
61.477634 -41.220292 20.698271
60.947248 -41.840097 19.80039
62.48946 -39.891108 19.94873
61.67761 -40.840456 19.876269
54.244796 -46.645998 26.991653
54.413778 -46.068886 27.571438
54.146986 -47.056169 27.822379
45.510929 -27.246741 37.786808
45.920056 -26.755284 37.662479
45.883686 -28.531011 37.878068
45.510929 -27.246741 37.786808
45.143303 -27.764868 38.019732
56.553928 -38.139669 23.973732
55.062947 -38.134199 24.12587
55.014275 -38.412399 25.406492
57.764046 -37.977688 23.997432
56.553928 -38.139669 23.973732
59.11945 -37.803045 24.085328
57.764046 -37.977688 23.997432
57.860661 -38.243227 25.342249
60.095806 -37.757421 24.183305
59.999192 -37.491883 22.838489
59.11945 -37.803045 24.085328
36.43691 -35.73283 37.81024
35.478099 -35.387077 38.141827
36.351439 -38.399529 36.47983
37.051966 -37.836559 36.836126
41.845609 -50.066191 39.941091
41.380491 -50.645731 40.526033
52.780743 -20.502392 33.52211
53.415087 -20.015372 33.244202
54.832102 -41.955477 30.150869
55.256422 -41.38964 31.299407
54.235599 -41.937658 31.704389
55.680491 -42.197888 28.751132
54.832102 -41.955477 30.150869
54.659668 -42.745905 29.156115
56.387232 -42.552996 27.143641
56.559666 -41.762568 28.138394
55.680491 -42.197888 28.751132
32.795648 -44.032135 37.596561
32.937075 -43.366061 37.050794
34.005949 -48.467194 37.757999
33.46732 -47.262695 38.154976
35.119501 -48.895842 37.877399
34.005949 -48.467194 37.757999
36.198807 -49.254406 37.923977
35.429629 -48.119726 37.586106
35.119501 -48.895842 37.877399
37.237313 -49.498271 38.388801
36.198807 -49.254406 37.923977
59.566698 -18.50912 24.345931
59.11854 -18.087219 25.2553
58.921755 -19.422578 24.306757
59.566698 -18.50912 24.345931
58.211472 -20.264717 25.386733
58.599585 -20.568677 24.457375
58.921755 -19.422578 24.306757
49.083501 -22.609092 37.206228
49.652536 -22.081201 37.009882
48.864445 -23.796619 36.491335
49.083501 -22.609092 37.206228
48.677343 -23.254433 37.469036
55.607737 -50.328611 35.005766
55.088307 -50.22393 36.331217
55.565134 -51.004484 35.323269
55.480002 -49.588119 34.695265
55.607737 -50.328611 35.005766
55.956829 -50.368673 33.687317
55.271082 -48.993355 31.901315
55.173052 -48.952354 33.178967
55.927124 -49.669182 32.099165
55.385243 -49.02305 30.751365
54.63117 -48.306223 31.831167
55.271082 -48.993355 31.901315
55.037588 -48.955668 29.879745
55.385243 -49.02305 30.751365
45.68043 -36.447867 24.584401
44.867563 -35.79508 24.36078
50.66877 -37.557901 22.258887
52.053951 -37.471652 22.229048
63.31183 -36.356443 18.048896
62.460678 -36.057955 17.739332
62.219354 -36.403003 18.733228
63.759005 -36.698386 17.13967
63.31183 -36.356443 18.048896
63.517681 -37.043434 18.133566
64.094548 -36.412094 16.282229
63.759005 -36.698386 17.13967
40.450212 -31.361342 38.301479
41.130556 -30.867261 38.20484
40.644594 -32.481018 38.727097
40.450212 -31.361342 38.301479
39.812828 -31.791866 38.369026
45.146148 -46.372883 36.399304
44.204763 -46.059751 36.120221
44.776308 -47.092516 36.704544
45.486923 -45.561212 35.988844
45.146148 -46.372883 36.399304
46.670797 -47.636749 37.187694
47.011572 -46.825079 36.777235
47.405012 -48.421532 38.357636
46.670797 -47.636749 37.187694
46.451908 -48.19043 38.153568
50.391205 -52.631407 43.902266
49.673113 -51.662729 43.383646
51.020364 -52.646574 43.469652
50.391205 -52.631407 43.902266
51.683373 -52.7884 43.087599
51.261408 -51.933349 43.051689
51.020364 -52.646574 43.469652
52.001041 -52.795381 42.341238
51.683373 -52.7884 43.087599
50.638207 -33.837027 31.797568
49.823681 -34.20532 31.237696
51.247805 -34.596004 32.690008
50.638207 -33.837027 31.797568
51.345396 -33.389891 32.52752
58.188076 -23.62975 30.180893
57.318462 -22.912295 29.913722
57.367752 -23.234571 30.650502
59.01737 -24.221025 30.312648
58.96808 -23.89875 29.575868
58.188076 -23.62975 30.180893
60.832312 -26.441576 33.420091
60.717773 -25.862991 34.167952
60.757704 -26.430814 34.724396
60.561605 -26.474839 32.252405
60.832312 -26.441576 33.420091
57.464395 -32.61322 37.548085
58.422865 -31.914503 38.321897
56.984838 -33.434873 36.730947
57.464395 -32.61322 37.548085
57.62067 -33.973154 37.291006
56.108663 -34.29405 36.130434
55.952389 -32.934117 36.387512
56.984838 -33.434873 36.730947
52.000849 -44.170374 40.499419
51.264309 -43.965647 40.317856
51.546824 -44.33453 39.284846
60.16777 -42.620909 20.031923
59.930252 -43.053987 20.98005
59.35075 -43.454963 20.389581
60.947248 -41.840097 19.80039
60.16777 -42.620909 20.031923
58.346724 -17.418125 26.97272
58.781807 -17.863734 26.112579
47.056337 -25.018498 37.470062
47.633919 -24.439822 37.62285
47.056062 -23.691908 38.077204
46.592983 -27.511178 37.399442
46.261727 -26.253578 37.416776
45.920056 -26.755284 37.662479
54.010514 -50.991873 38.441694
53.401668 -50.646937 39.658914
53.958019 -51.45126 39.171291
54.806284 -51.348 37.301395
54.249933 -50.543677 37.789018
54.010514 -50.991873 38.441694
55.207016 -51.605037 35.837852
54.806284 -51.348 37.301395
55.565134 -51.004484 35.323269
55.207016 -51.605037 35.837852
48.125372 -36.766729 27.204416
47.24843 -35.882914 26.813092
47.420868 -35.530659 28.012076
53.53479 -37.564682 22.029348
52.053951 -37.471652 22.229048
52.039406 -37.837337 23.366855
53.53479 -37.564682 22.029348
55.071866 -37.442276 21.806719
61.981939 -36.799547 19.778619
62.219354 -36.403003 18.733228
62.832154 -36.988039 20.082745
61.981939 -36.799547 19.778619
61.743586 -37.086094 20.81857
38.505762 -34.921166 38.183121
38.037735 -33.607733 38.236626
37.531984 -34.309809 37.980148
39.01269 -36.078567 37.992408
39.51844 -35.376492 38.248886
38.505762 -34.921166 38.183121
36.979146 -35.087297 37.988293
36.43691 -35.73283 37.81024
38.349435 -36.623468 37.401651
37.8072 -37.269001 37.223598
39.362114 -37.078795 37.467416
39.01269 -36.078567 37.992408
38.349435 -36.623468 37.401651
42.00197 -49.496124 39.508999
40.93401 -49.188192 38.892297
41.845609 -50.066191 39.941091
42.072807 -48.926321 38.999088
42.00197 -49.496124 39.508999
42.984407 -49.804319 40.047882
44.117624 -48.833347 39.308512
43.17063 -48.606026 38.730637
44.002239 -49.461838 40.115847
44.274626 -48.22085 38.328221
44.117624 -48.833347 39.308512
55.248316 -17.164028 33.02822
55.350034 -16.931972 34.036646
54.653492 -18.235194 32.377074
55.363917 -17.488474 32.201936
55.248316 -17.164028 33.02822
54.06546 -18.387037 33.415588
54.660711 -17.503396 34.208054
54.267426 -18.899203 32.66382
54.06546 -18.387037 33.415588
53.794995 -19.375492 32.876051
55.574621 -22.99486 31.867117
55.656291 -22.388553 31.406788
54.783952 -21.846763 31.609915
60.570692 -27.238713 38.067257
60.444593 -26.467491 37.495251
60.294361 -26.689309 38.920494
60.107267 -28.046042 38.750252
60.570692 -27.238713 38.067257
60.107267 -28.046042 38.750252
60.20521 -28.483178 39.800956
59.842472 -30.071806 40.896916
59.95583 -28.92715 40.922007
59.808342 -29.493131 41.709509
59.681195 -30.6394 39.991583
59.842472 -30.071806 40.896916
59.533706 -31.205381 40.779086
59.058965 -31.22524 39.204702
59.681195 -30.6394 39.991583
58.736328 -32.462238 38.990948
58.422865 -31.914503 38.321897
59.058965 -31.22524 39.204702
56.497446 -41.07312 31.107829
55.900944 -41.055301 32.66135
55.256422 -41.38964 31.299407
57.692475 -40.772118 30.949028
56.497446 -41.07312 31.107829
57.047953 -41.106457 29.587085
58.100048 -44.128647 22.0865
58.744476 -43.903879 22.512906
57.731292 -44.144483 23.261697
58.423172 -43.982809 20.983355
58.100048 -44.128647 22.0865
33.860008 -41.176032 36.257059
34.335177 -40.382137 36.13999
33.481988 -41.904635 36.419496
33.21734 -42.669237 36.680679
34.283808 -42.125515 35.725071
33.860008 -41.176032 36.257059
33.481988 -41.904635 36.419496
33.154627 -44.949269 37.224005
32.795648 -44.032135 37.596561
33.65716 -46.705967 37.679899
33.46732 -47.262695 38.154976
33.759867 -46.067778 37.15591
33.65716 -46.705967 37.679899
34.45303 -47.122973 37.015539
33.950497 -45.366274 36.559644
33.154627 -44.949269 37.224005
33.759867 -46.067778 37.15591
38.329724 -49.817211 38.774009
37.601345 -48.797232 38.017891
37.237313 -49.498271 38.388801
39.355566 -50.076323 39.411225
38.329724 -49.817211 38.774009
40.397512 -50.397366 39.87187
39.735703 -49.437216 38.863744
39.355566 -50.076323 39.411225
41.380491 -50.645731 40.526033
40.397512 -50.397366 39.87187
61.75593 -17.73042 21.822051
60.827776 -18.23525 22.506776
61.702557 -17.998116 20.925838
61.75593 -17.73042 21.822051
60.771201 -18.79531 20.66232
61.702557 -17.998116 20.925838
60.771201 -18.79531 20.66232
60.140215 -19.415186 21.666295
57.884283 -21.563621 24.779038
58.599585 -20.568677 24.457375
57.884283 -21.563621 24.779038
57.849156 -22.57981 25.770449
50.648497 -22.741408 35.147262
51.130466 -22.206694 34.810182
49.673569 -22.544041 35.860926
49.652536 -22.081201 37.009882
50.411234 -23.275437 35.693703
49.673569 -22.544041 35.860926
50.008268 -23.882675 36.061304
50.983196 -24.080042 35.347641
50.648497 -22.741408 35.147262
50.411234 -23.275437 35.693703
48.046239 -25.104186 36.884926
48.045965 -23.777596 37.492068
47.633919 -24.439822 37.62285
48.90634 -44.022217 37.638693
48.627978 -43.128996 37.959379
48.193493 -43.691683 37.17966
49.634793 -44.224094 37.850704
48.90634 -44.022217 37.638693
49.200308 -44.786782 37.070986
50.369523 -44.559231 38.19314
49.634793 -44.224094 37.850704
51.005291 -44.776843 38.357897
50.369523 -44.559231 38.19314
50.564529 -45.206271 37.447754
51.74183 -44.981569 38.539459
51.546824 -44.33453 39.284846
51.005291 -44.776843 38.357897
54.306715 -47.916008 28.094603
54.146986 -47.056169 27.822379
54.475697 -47.338895 28.674388
54.982636 -48.887076 29.012443
54.690379 -48.267326 29.813915
55.037588 -48.955668 29.879745
54.433569 -48.549263 28.28929
54.982636 -48.887076 29.012443
54.306715 -47.916008 28.094603
54.433569 -48.549263 28.28929
46.894762 -36.520185 25.874995
47.24843 -35.882914 26.813092
46.88154 -36.757283 24.607061
46.894762 -36.520185 25.874995
47.939712 -37.356081 24.737497
46.72538 -37.283762 23.446904
45.68043 -36.447867 24.584401
46.88154 -36.757283 24.607061
49.352732 -37.482336 22.210391
49.242529 -37.668743 23.518059
50.66877 -37.557901 22.258887
47.996118 -37.593781 22.089268
49.352732 -37.482336 22.210391
46.795007 -37.284364 22.066609
46.72538 -37.283762 23.446904
47.996118 -37.593781 22.089268
45.567019 -37.183511 22.084107
46.795007 -37.284364 22.066609
62.847759 -35.509993 16.875873
62.460678 -36.057955 17.739332
62.847759 -35.509993 16.875873
63.921718 -35.560116 16.245403
43.259787 -29.417321 37.947246
43.913227 -28.860512 38.000822
43.101084 -28.046712 37.783971
41.982141 -31.636548 38.540036
41.830719 -30.453314 38.085325
41.130556 -30.867261 38.20484
35.644964 -39.029679 36.244722
34.891985 -39.693237 36.174423
36.481918 -39.388962 35.866608
36.351439 -38.399529 36.47983
35.644964 -39.029679 36.244722
46.744612 -43.158575 36.689177
46.000838 -42.869354 36.445553
46.316201 -43.933336 36.186976
47.487553 -43.510509 36.965473
47.17219 -42.446528 37.224051
46.744612 -43.158575 36.689177
47.765915 -44.403731 36.644787
48.193493 -43.691683 37.17966
47.487553 -43.510509 36.965473
48.234127 -45.401556 36.689634
47.765915 -44.403731 36.644787
47.528187 -45.220382 36.475447
47.81015 -47.04303 36.956028
47.19782 -46.000258 36.341501
47.011572 -46.825079 36.777235
47.026535 -49.514435 40.385119
46.22468 -48.719689 39.028324
47.9937 -49.615326 40.671782
47.026535 -49.514435 40.385119
48.905607 -49.697968 40.91041
48.09803 -49.057854 39.562138
47.9937 -49.615326 40.671782
49.699838 -51.023482 42.726899
49.673113 -51.662729 43.383646
49.684187 -50.285721 42.116451
49.699838 -51.023482 42.726899
50.582748 -51.053762 42.823296
49.788517 -49.728248 41.006808
48.905607 -49.697968 40.91041
49.684187 -50.285721 42.116451
53.196678 -51.646601 40.841633
52.711675 -50.923383 41.137705
52.559179 -51.463661 41.590826
53.567031 -51.688721 39.8685
53.196678 -51.646601 40.841633
52.484299 -52.131027 41.982195
52.001041 -52.795381 42.341238
48.010126 -35.181883 28.782236
47.420868 -35.530659 28.012076
48.785862 -36.128044 29.319574
48.010126 -35.181883 28.782236
48.498178 -34.895453 29.69841
49.907264 -35.442377 31.097902
49.190331 -34.604557 30.375542
49.823681 -34.20532 31.237696
47.211962 -23.295025 39.231951
47.056062 -23.691908 38.077204
46.503819 -23.823888 39.064447
47.211962 -23.295025 39.231951
46.03364 -24.884134 37.802115
46.503819 -23.823888 39.064447
42.473703 -27.518029 38.558193
43.101084 -28.046712 37.783971
41.684621 -28.060647 38.353891
42.473703 -27.518029 38.558193
41.713389 -29.143774 37.740263
41.684621 -28.060647 38.353891
38.104182 -30.835189 38.437574
38.974458 -31.205474 38.009054
37.366783 -31.425536 38.402727
38.104182 -30.835189 38.437574
36.733526 -32.054345 38.382204
37.697214 -32.367567 38.054176
37.366783 -31.425536 38.402727
36.085949 -32.783907 38.414555
36.733526 -32.054345 38.382204
35.755518 -31.841876 38.763106
34.452007 -32.647276 39.636371
35.080723 -31.899954 39.579064
34.570137 -33.444676 38.890692
34.452007 -32.647276 39.636371
34.995307 -34.434633 38.517935
35.533111 -33.561396 38.422699
34.570137 -33.444676 38.890692
35.478099 -35.387077 38.141827
34.995307 -34.434633 38.517935
57.68935 -17.868715 27.668907
58.346724 -17.418125 26.97272
56.787135 -15.899946 31.622007
56.023077 -16.730272 31.907103
56.751963 -16.327788 30.513734
56.787135 -15.899946 31.622007
57.011978 -16.913241 29.777156
56.751963 -16.327788 30.513734
56.34743 -17.628691 30.224546
57.062984 -17.639963 28.937553
57.011978 -16.913241 29.777156
57.276107 -18.460111 28.360658
57.062984 -17.639963 28.937553
56.820568 -19.034292 28.911072
57.446934 -19.263044 27.642426
57.68935 -17.868715 27.668907
57.276107 -18.460111 28.360658
59.165186 -24.569482 27.770387
58.719404 -24.213893 27.219943
58.897419 -23.68589 27.781163
59.165186 -24.569482 27.770387
59.658579 -24.797891 28.456179
52.216055 -21.173606 33.962763
51.574122 -21.68861 34.280527
52.672456 -21.838632 33.301237
52.780743 -20.502392 33.52211
52.216055 -21.173606 33.962763
56.296188 -24.026479 32.438732
55.574621 -22.99486 31.867117
55.423849 -23.484689 32.641859
57.240976 -24.154021 32.252325
56.296188 -24.026479 32.438732
57.090204 -24.64385 33.027067
58.136179 -24.361709 31.879167
57.240976 -24.154021 32.252325
58.136179 -24.361709 31.879167
58.863737 -24.875664 32.290186
59.744929 -24.73498 30.723668
59.01737 -24.221025 30.312648
60.242431 -25.426844 32.301679
59.639698 -25.125455 32.944544
60.189647 -25.572364 33.506512
60.242431 -25.426844 32.301679
60.665325 -25.840873 31.686048
60.167822 -25.149009 30.108035
59.744929 -24.73498 30.723668
59.885666 -25.022163 29.144186
60.167822 -25.149009 30.108035
52.826279 -33.41104 33.926792
52.320902 -32.941723 32.97349
52.832182 -34.743422 33.907334
52.826279 -33.41104 33.926792
53.703467 -34.005592 34.414165
44.793995 -29.64013 38.137545
44.635292 -28.26952 37.97427
43.913227 -28.860512 38.000822
49.057638 -42.63212 38.972849
48.344791 -42.301586 38.513817
48.627978 -43.128996 37.959379
49.496956 -42.343008 40.062086
49.057638 -42.63212 38.972849
49.780142 -43.170418 39.507649
50.968897 -43.341398 41.064657
50.514872 -43.505555 39.850084
51.264309 -43.965647 40.317856
62.968754 -39.052874 20.070209
62.68729 -39.382416 20.895628
62.48946 -39.891108 19.94873
63.179743 -38.720959 19.253379
63.377573 -38.212267 20.200277
62.968754 -39.052874 20.070209
63.496027 -38.417361 18.3106
63.179743 -38.720959 19.253379
53.953975 -46.093727 26.1181
54.244796 -46.645998 26.991653
54.594804 -45.24429 25.697534
53.953975 -46.093727 26.1181
55.534877 -44.58128 24.978873
55.451662 -44.995705 26.022049
54.594804 -45.24429 25.697534
56.7393 -44.350973 24.069339
55.534877 -44.58128 24.978873
3 332 84 333
3 0 87 85
3 0 88 87
3 2 91 89
3 2 93 91
3 1 96 94
3 3 99 97
3 3 100 99
3 3 102 100
3 5 334 336
3 334 104 335
3 334 335 336
3 5 106 104
3 337 108 338
3 7 111 109
3 7 113 111
3 8 116 114
3 339 118 340
3 342 341 118
3 10 343 345
3 345 344 120
3 343 344 345
3 10 346 347
3 11 348 350
3 348 123 349
3 348 349 350
3 13 126 124
3 13 128 126
3 4 131 129
3 351 134 352
3 353 352 132
3 351 352 353
3 355 354 134
3 356 137 357
3 358 140 359
3 360 143 361
3 362 361 141
3 360 361 362
3 364 363 143
3 6 147 145
3 365 150 366
3 367 366 148
3 365 366 367
3 369 368 150
3 14 153 152
3 14 155 153
3 12 158 156
3 15 161 159
3 15 163 161
3 9 166 164
3 16 169 167
3 16 171 169
3 16 173 171
3 17 176 174
3 17 178 176
3 17 180 178
3 371 370 181
3 372 185 373
3 374 373 183
3 372 373 374
3 19 186 83
3 19 187 186
3 376 375 188
3 21 192 190
3 377 193 378
3 379 378 86
3 377 378 379
3 381 380 193
3 23 382 383
3 23 384 386
3 384 194 385
3 384 385 386
3 24 387 389
3 389 388 195
3 387 388 389
3 26 390 392
3 390 197 391
3 390 391 392
3 26 198 197
3 27 201 199
3 393 202 394
3 396 395 202
3 397 203 398
3 30 399 401
3 399 204 400
3 399 400 401
3 30 205 204
3 31 208 206
3 33 209 90
3 33 210 209
3 33 402 404
3 404 403 210
3 402 403 404
3 34 211 92
3 34 212 211
3 35 215 213
3 37 216 95
3 37 217 216
3 38 220 218
3 40 221 98
3 40 222 221
3 40 224 222
3 42 405 407
3 405 225 406
3 405 406 407
3 42 226 225
3 42 228 226
3 44 229 101
3 44 408 410
3 410 409 229
3 408 409 410
3 46 411 413
3 411 230 412
3 411 412 413
3 46 231 230
3 47 232 103
3 47 233 232
3 47 234 233
3 414 235 415
3 417 416 235
3 48 418 420
3 420 419 105
3 418 419 420
3 48 421 422
3 50 236 107
3 50 237 236
3 18 238 184
3 51 239 110
3 51 240 239
3 51 241 240
3 52 242 112
3 52 243 242
3 53 245 244
3 54 246 115
3 54 247 246
3 20 248 189
3 55 249 117
3 55 250 249
3 55 251 250
3 56 252 119
3 56 253 252
3 56 255 253
3 57 423 424
3 57 425 426
3 22 256 191
3 428 427 121
3 429 259 430
3 431 430 257
3 429 430 431
3 59 260 122
3 59 261 260
3 25 262 196
3 60 263 125
3 60 264 263
3 60 265 264
3 61 266 127
3 61 267 266
3 45 432 434
3 432 268 433
3 432 433 434
3 62 269 130
3 62 270 269
3 28 271 200
3 63 272 133
3 63 273 272
3 63 274 273
3 435 275 436
3 437 436 135
3 435 436 437
3 439 438 275
3 440 276 441
3 64 277 136
3 64 278 277
3 65 279 138
3 65 280 279
3 65 442 444
3 444 443 280
3 442 443 444
3 445 281 446
3 66 282 139
3 66 283 282
3 447 284 448
3 29 449 451
3 449 285 450
3 449 450 451
3 67 286 142
3 67 287 286
3 67 288 287
3 68 289 144
3 68 452 454
3 454 453 289
3 452 453 454
3 49 455 457
3 455 290 456
3 455 456 457
3 69 291 146
3 69 292 291
3 32 293 207
3 70 294 149
3 70 295 294
3 70 458 460
3 460 459 295
3 458 459 460
3 462 461 151
3 71 463 464
3 71 465 466
3 71 467 469
3 467 296 468
3 467 468 469
3 72 297 154
3 72 298 297
3 58 299 258
3 73 300 157
3 73 301 300
3 36 302 214
3 74 303 160
3 74 304 303
3 74 305 304
3 75 306 162
3 75 307 306
3 470 308 471
3 76 309 165
3 76 310 309
3 39 311 219
3 77 312 168
3 77 313 312
3 77 314 313
3 78 315 170
3 78 316 315
3 78 317 316
3 79 318 172
3 79 319 318
3 41 320 223
3 80 321 175
3 80 322 321
3 80 323 322
3 81 324 177
3 81 325 324
3 81 326 325
3 82 327 179
3 82 328 327
3 43 329 227
3 472 330 473
3 474 473 182
3 472 473 474
3 476 475 330
3 477 331 478
3 479 478 254
3 477 478 479
3 480 83 481
3 84 482 484
3 482 83 483
3 482 483 484
3 84 19 83
3 85 86 21
3 87 86 85
3 87 485 487
3 487 486 86
3 485 486 487
3 87 488 489
3 88 490 492
3 492 491 87
3 490 491 492
3 88 493 495
3 493 23 494
3 493 494 495
3 497 496 24
3 498 26 499
3 501 500 27
3 502 30 503
3 89 90 31
3 91 90 89
3 91 33 90
3 91 92 33
3 93 92 91
3 93 34 92
3 94 95 35
3 96 95 94
3 96 37 95
3 97 98 38
3 99 98 97
3 99 40 98
3 99 504 506
3 506 505 40
3 504 505 506
3 100 507 509
3 509 508 99
3 507 508 509
3 100 510 512
3 510 42 511
3 510 511 512
3 100 101 42
3 102 101 100
3 102 44 101
3 513 46 514
3 515 103 516
3 517 103 518
3 519 47 520
3 521 520 103
3 519 520 521
3 523 522 47
3 104 524 525
3 104 526 527
3 104 528 530
3 528 105 529
3 528 529 530
3 106 105 104
3 106 48 105
3 531 107 532
3 108 533 535
3 533 107 534
3 533 534 535
3 108 50 107
3 109 110 18
3 111 110 109
3 111 51 110
3 111 112 51
3 113 112 111
3 113 52 112
3 114 115 53
3 116 115 114
3 116 54 115
3 536 117 537
3 538 537 20
3 536 537 538
3 118 539 541
3 539 117 540
3 539 540 541
3 118 55 117
3 118 119 55
3 542 119 543
3 544 543 118
3 542 543 544
3 545 56 546
3 547 546 119
3 545 546 547
3 549 548 56
3 550 57 551
3 553 552 22
3 120 554 556
3 554 121 555
3 554 555 556
3 557 121 558
3 559 558 120
3 557 558 559
3 561 560 121
3 562 122 563
3 123 564 566
3 564 122 565
3 564 565 566
3 123 59 122
3 124 125 25
3 126 125 124
3 126 60 125
3 126 127 60
3 128 127 126
3 128 61 127
3 129 130 45
3 131 130 129
3 131 62 130
3 132 133 28
3 134 133 132
3 134 63 133
3 134 135 63
3 567 135 568
3 569 568 134
3 567 568 569
3 571 570 135
3 572 136 573
3 137 574 576
3 574 136 575
3 574 575 576
3 137 64 136
3 577 138 578
3 579 138 580
3 581 65 582
3 583 582 138
3 581 582 583
3 585 584 65
3 586 139 587
3 140 588 590
3 588 139 589
3 588 589 590
3 140 66 139
3 141 142 29
3 143 142 141
3 143 67 142
3 143 144 67
3 591 144 592
3 593 592 143
3 591 592 593
3 594 68 595
3 596 595 144
3 594 595 596
3 145 146 49
3 147 146 145
3 147 69 146
3 148 149 32
3 150 149 148
3 150 70 149
3 150 151 70
3 597 151 598
3 599 598 150
3 597 598 599
3 601 600 151
3 152 602 603
3 153 604 606
3 606 605 152
3 604 605 606
3 153 607 609
3 607 71 608
3 607 608 609
3 153 154 71
3 155 154 153
3 155 72 154
3 156 157 58
3 158 157 156
3 158 73 157
3 159 160 36
3 161 160 159
3 161 74 160
3 161 162 74
3 163 162 161
3 163 75 162
3 164 610 612
3 610 165 611
3 610 611 612
3 166 165 164
3 166 76 165
3 167 168 39
3 169 168 167
3 169 77 168
3 169 170 77
3 171 170 169
3 171 78 170
3 171 172 78
3 173 172 171
3 173 79 172
3 174 175 41
3 176 175 174
3 176 80 175
3 176 177 80
3 178 177 176
3 178 81 177
3 178 179 81
3 180 179 178
3 180 82 179
3 181 182 43
3 613 182 614
3 615 614 181
3 613 614 615
3 617 616 182
3 618 5 619
3 183 620 622
3 620 184 621
3 620 621 622
3 185 184 183
3 185 18 184
3 83 623 625
3 623 185 624
3 623 624 625
3 186 185 83
3 186 18 185
3 186 109 18
3 187 109 186
3 187 7 109
3 188 189 8
3 626 189 627
3 628 627 188
3 626 627 628
3 629 20 630
3 631 630 189
3 629 630 631
3 632 20 633
3 635 634 20
3 190 636 638
3 636 191 637
3 636 637 638
3 192 191 190
3 192 22 191
3 86 192 21
3 193 192 86
3 193 22 192
3 193 639 641
3 641 640 22
3 639 640 641
3 643 642 193
3 644 120 645
3 194 646 648
3 646 120 647
3 646 647 648
3 194 10 120
3 195 196 11
3 649 196 650
3 651 650 195
3 649 650 651
3 652 25 653
3 654 653 196
3 652 653 654
3 656 655 24
3 197 657 658
3 197 659 661
3 659 25 660
3 659 660 661
3 197 124 25
3 198 124 197
3 198 13 124
3 199 200 4
3 201 200 199
3 201 28 200
3 662 201 663
3 664 663 27
3 662 663 664
3 202 665 667
3 665 201 666
3 665 666 667
3 202 28 201
3 202 132 28
3 668 132 669
3 670 669 202
3 668 669 670
3 672 671 132
3 203 673 674
3 203 675 677
3 675 29 676
3 675 676 677
3 678 203 679
3 204 680 682
3 680 203 681
3 680 681 682
3 204 29 203
3 204 141 29
3 205 141 204
3 205 683 685
3 685 684 141
3 683 684 685
3 206 207 6
3 208 207 206
3 208 32 207
3 90 208 31
3 209 208 90
3 209 32 208
3 209 148 32
3 210 148 209
3 210 686 688
3 688 687 148
3 686 687 688
3 210 689 690
3 692 691 210
3 92 693 695
3 695 694 33
3 693 694 695
3 211 696 698
3 698 697 92
3 696 697 698
3 211 699 700
3 211 701 703
3 701 152 702
3 701 702 703
3 212 152 211
3 212 14 152
3 213 214 12
3 215 214 213
3 215 36 214
3 95 215 35
3 216 215 95
3 216 36 215
3 216 159 36
3 217 159 216
3 217 15 159
3 218 219 9
3 220 219 218
3 220 39 219
3 98 220 38
3 221 220 98
3 221 39 220
3 221 167 39
3 222 167 221
3 222 16 167
3 222 223 16
3 224 223 222
3 224 41 223
3 704 224 705
3 706 705 40
3 704 705 706
3 225 707 709
3 707 224 708
3 707 708 709
3 225 41 224
3 225 174 41
3 226 174 225
3 226 17 174
3 226 227 17
3 228 227 226
3 228 43 227
3 101 228 42
3 229 228 101
3 229 43 228
3 229 181 43
3 710 181 711
3 712 711 229
3 710 711 712
3 714 713 181
3 715 45 716
3 230 717 718
3 230 719 721
3 719 45 720
3 719 720 721
3 230 129 45
3 231 129 230
3 231 4 129
3 722 46 723
3 103 724 725
3 232 726 728
3 728 727 103
3 726 727 728
3 232 729 731
3 729 46 730
3 729 730 731
3 232 231 46
3 233 231 232
3 233 4 231
3 233 199 4
3 234 199 233
3 234 27 199
3 732 234 733
3 734 733 47
3 732 733 734
3 735 234 736
3 737 27 738
3 739 738 234
3 737 738 739
3 741 740 27
3 235 742 743
3 235 744 745
3 235 746 747
3 749 748 235
3 105 750 751
3 753 752 105
3 754 49 755
3 107 756 757
3 236 758 760
3 760 759 107
3 758 759 760
3 236 761 763
3 761 49 762
3 761 762 763
3 236 145 49
3 237 145 236
3 237 6 145
3 184 764 766
3 764 108 765
3 764 765 766
3 238 108 184
3 238 50 108
3 110 238 18
3 239 238 110
3 239 50 238
3 239 237 50
3 240 237 239
3 240 6 237
3 240 206 6
3 241 206 240
3 241 31 206
3 112 241 51
3 242 241 112
3 242 31 241
3 242 89 31
3 243 89 242
3 243 2 89
3 244 767 769
3 769 768 1
3 767 768 769
3 245 770 772
3 772 771 244
3 770 771 772
3 245 773 774
3 115 245 53
3 246 245 115
3 246 775 777
3 777 776 245
3 775 776 777
3 246 778 780
3 778 164 779
3 778 779 780
3 247 164 246
3 247 9 164
3 189 116 8
3 248 116 189
3 248 54 116
3 117 248 20
3 249 248 117
3 249 54 248
3 249 247 54
3 250 247 249
3 250 9 247
3 250 218 9
3 251 218 250
3 251 38 218
3 119 251 55
3 252 251 119
3 252 38 251
3 252 97 38
3 253 97 252
3 253 3 97
3 253 254 3
3 255 254 253
3 255 781 783
3 783 782 254
3 781 782 783
3 784 255 785
3 786 785 56
3 784 785 786
3 787 255 788
3 790 789 255
3 191 791 792
3 256 793 795
3 795 794 191
3 793 794 795
3 256 796 798
3 796 57 797
3 796 797 798
3 799 256 800
3 801 800 22
3 799 800 801
3 802 256 803
3 804 57 805
3 806 805 256
3 804 805 806
3 808 807 57
3 121 809 810
3 812 811 121
3 257 813 815
3 813 258 814
3 813 814 815
3 259 258 257
3 259 58 258
3 122 816 818
3 816 259 817
3 816 817 818
3 260 259 122
3 260 58 259
3 260 156 58
3 261 156 260
3 261 12 156
3 196 123 11
3 262 123 196
3 262 59 123
3 125 262 25
3 263 262 125
3 263 59 262
3 263 261 59
3 264 261 263
3 264 12 261
3 264 213 12
3 265 213 264
3 265 35 213
3 127 265 60
3 266 265 127
3 266 35 265
3 266 94 35
3 267 94 266
3 267 1 94
3 268 819 820
3 268 821 823
3 821 26 822
3 821 822 823
3 130 268 45
3 269 268 130
3 269 26 268
3 269 198 26
3 270 198 269
3 270 13 198
3 200 131 4
3 271 131 200
3 271 62 131
3 133 271 28
3 272 271 133
3 272 62 271
3 272 270 62
3 273 270 272
3 273 13 270
3 273 128 13
3 274 128 273
3 274 61 128
3 135 274 63
3 275 274 135
3 275 61 274
3 275 267 61
3 824 267 825
3 826 825 275
3 824 825 826
3 827 1 828
3 829 828 267
3 827 828 829
3 830 244 831
3 832 831 1
3 830 831 832
3 276 833 835
3 833 244 834
3 833 834 835
3 276 53 244
3 136 836 838
3 836 276 837
3 836 837 838
3 277 276 136
3 277 53 276
3 277 114 53
3 278 114 277
3 278 8 114
3 839 137 840
3 841 137 842
3 843 64 844
3 845 844 137
3 843 844 845
3 138 846 847
3 279 848 850
3 850 849 138
3 848 849 850
3 279 851 853
3 851 64 852
3 851 852 853
3 279 278 64
3 280 278 279
3 280 8 278
3 280 188 8
3 854 188 855
3 856 855 280
3 854 855 856
3 858 857 188
3 860 859 65
3 861 190 862
3 281 863 865
3 863 190 864
3 863 864 865
3 281 21 190
3 139 866 868
3 866 281 867
3 866 867 868
3 282 281 139
3 282 21 281
3 282 85 21
3 283 85 282
3 283 0 85
3 869 183 870
3 871 183 872
3 874 873 183
3 875 257 876
3 877 257 878
3 880 879 257
3 881 11 882
3 883 11 884
3 885 195 886
3 887 886 11
3 885 886 887
3 284 888 890
3 888 195 889
3 888 889 890
3 284 24 195
3 891 284 892
3 893 284 894
3 895 24 896
3 897 896 284
3 895 896 897
3 899 898 24
3 900 5 901
3 285 902 903
3 285 904 905
3 142 285 29
3 286 285 142
3 286 906 908
3 908 907 285
3 906 907 908
3 286 909 910
3 287 911 913
3 913 912 286
3 911 912 913
3 287 914 916
3 914 5 915
3 914 915 916
3 287 106 5
3 288 106 287
3 288 48 106
3 144 288 67
3 289 288 144
3 289 48 288
3 289 917 919
3 919 918 48
3 917 918 919
3 921 920 289
3 290 922 923
3 290 924 926
3 924 30 925
3 924 925 926
3 146 290 49
3 291 290 146
3 291 30 290
3 291 205 30
3 292 205 291
3 292 927 929
3 929 928 205
3 927 928 929
3 207 147 6
3 293 147 207
3 293 69 147
3 149 293 32
3 294 293 149
3 294 69 293
3 294 292 69
3 295 292 294
3 295 930 932
3 932 931 292
3 930 931 932
3 295 933 934
3 936 935 295
3 937 68 938
3 151 939 941
3 941 940 70
3 939 940 941
3 943 942 151
3 944 68 945
3 947 946 68
3 948 140 949
3 296 950 952
3 950 140 951
3 950 951 952
3 296 66 140
3 154 296 71
3 297 296 154
3 297 66 296
3 297 283 66
3 298 283 297
3 298 0 283
3 258 953 955
3 953 84 954
3 953 954 955
3 299 84 258
3 299 19 84
3 157 299 58
3 300 299 157
3 300 19 299
3 300 187 19
3 301 187 300
3 301 7 187
3 214 158 12
3 302 158 214
3 302 73 158
3 160 302 36
3 303 302 160
3 303 73 302
3 303 301 73
3 304 301 303
3 304 7 301
3 304 113 7
3 305 113 304
3 305 52 113
3 162 305 74
3 306 305 162
3 306 52 305
3 306 243 52
3 307 243 306
3 307 2 243
3 956 96 957
3 958 957 1
3 956 957 958
3 308 959 961
3 959 96 960
3 959 960 961
3 308 37 96
3 165 962 964
3 962 308 963
3 962 963 964
3 309 308 165
3 309 37 308
3 309 217 37
3 310 217 309
3 310 15 217
3 219 166 9
3 311 166 219
3 311 76 166
3 168 311 39
3 312 311 168
3 312 76 311
3 312 310 76
3 313 310 312
3 313 15 310
3 313 163 15
3 314 163 313
3 314 75 163
3 170 314 77
3 315 314 170
3 315 75 314
3 315 307 75
3 316 307 315
3 316 2 307
3 316 93 2
3 317 93 316
3 317 34 93
3 172 317 78
3 318 317 172
3 318 34 317
3 318 212 34
3 319 212 318
3 319 14 212
3 223 173 16
3 320 173 223
3 320 79 173
3 175 320 41
3 321 320 175
3 321 79 320
3 321 319 79
3 322 319 321
3 322 14 319
3 322 155 14
3 323 155 322
3 323 72 155
3 177 323 80
3 324 323 177
3 324 72 323
3 324 298 72
3 325 298 324
3 325 0 298
3 325 88 0
3 326 88 325
3 326 23 88
3 179 326 81
3 327 326 179
3 327 23 326
3 327 194 23
3 328 194 327
3 328 10 194
3 227 180 17
3 329 180 227
3 329 82 180
3 182 329 43
3 330 329 182
3 330 82 329
3 330 328 82
3 965 328 966
3 967 966 330
3 965 966 967
3 968 10 969
3 970 969 328
3 968 969 970
3 972 971 10
3 254 102 3
3 331 102 254
3 331 44 102
3 973 331 974
3 975 331 976
3 977 44 978
3 979 978 331
3 977 978 979
3 981 980 44
