ply
format ascii 1.0
element vertex 1068
property float x
property float y
property float z
element face 1077
property list uchar int vertex_index
end_header
43.564304 -53.405201 43.333698
40.972401 -67.111107 37.887836
44.229397 -49.419281 20.706844
46.375328 -60.959217 20.470081
35.337379 -51.010231 37.850239
39.759502 -57.721649 40.974354
47.941017 -52.50341 27.131052
46.146507 -56.441521 20.729214
47.329395 -59.352943 27.008978
56.260235 -51.283012 31.319992
52.496117 -48.079315 24.75625
50.308769 -55.233246 43.759716
47.895977 -60.451515 35.915501
45.964245 -60.773918 44.417645
38.736774 -66.073685 47.895813
34.767483 -67.997009 39.216473
49.918465 -54.662132 13.293394
46.776558 -65.741524 28.268753
57.733112 -44.077576 20.629002
32.584316 -46.764229 38.770424
49.45998 -53.531147 30.827435
45.081573 -55.682961 28.407604
46.090218 -56.440956 31.984234
53.784889 -52.271118 39.348488
54.014362 -52.902393 32.803143
52.814587 -52.050545 28.653942
47.837242 -54.714031 45.093056
48.4533 -58.208466 44.344021
46.405041 -57.272888 45.210094
36.535416 -60.351765 42.593952
39.51342 -61.543587 44.556519
48.747826 -51.533936 43.333549
44.428406 -52.61541 16.518236
50.503731 -59.618256 19.569292
49.865536 -58.130501 16.476128
44.780811 -58.650349 16.951303
44.128307 -62.442371 36.308144
47.049934 -63.072887 31.354696
43.362255 -66.056175 32.220909
49.038872 -48.297493 22.808062
52.023254 -46.372215 21.029598
47.589397 -46.546383 19.275194
39.630104 -52.251625 40.354149
42.580685 -55.747658 41.715637
38.035664 -54.185844 38.675377
35.366138 -56.49184 39.191818
45.542263 -51.025536 24.148102
43.550713 -53.369911 20.9002
43.806355 -54.434898 24.544197
46.484974 -58.030132 23.839743
51.217079 -61.018272 23.225641
39.482189 -71.732056 39.739677
42.731895 -71.694603 34.494946
53.978004 -47.633282 27.242594
54.220695 -50.264397 27.692097
50.833473 -50.310555 25.603893
50.30537 -54.712471 40.21283
46.926449 -57.449547 36.134071
48.052193 -58.221661 40.266899
47.244209 -61.277443 40.061676
43.343254 -59.127148 44.54734
42.098549 -63.134697 45.531483
40.874321 -67.73632 44.059692
37.441383 -71.576324 44.009697
33.78849 -70.70488 34.611687
33.137321 -66.534241 30.813709
47.291885 -55.440258 16.833942
48.018333 -60.340004 31.489735
50.419991 -62.984364 27.177761
47.573036 -63.919331 24.04372
43.128613 -66.562607 25.50597
37.727783 -64.766342 18.05735
53.402222 -45.645962 23.503283
54.904804 -44.573891 19.065849
47.348114 -54.487099 31.839397
47.467571 -54.903332 33.679539
52.363537 -53.274616 37.457237
54.15379 -52.977978 36.180397
52.008339 -53.14867 33.976448
45.829128 -54.092815 44.564316
47.145725 -55.859028 45.214058
45.466564 -55.298321 43.935337
41.983334 -51.533203 41.727676
44.175205 -52.163849 43.015907
43.624069 -50.751698 16.568996
43.248844 -51.056454 18.621939
49.173061 -60.934731 19.408478
48.206123 -59.924072 17.91638
45.470676 -59.848335 18.880823
42.329197 -58.810448 17.623871
42.902382 -60.015846 19.832142
41.594933 -64.224495 36.686913
42.655777 -63.574512 33.935493
41.976322 -66.646446 34.922241
46.609341 -48.546524 21.536901
48.298512 -47.400562 21.012579
45.842674 -47.743309 19.787008
45.282799 -47.263771 18.112965
37.667576 -51.654724 38.852852
39.057915 -53.266136 39.331036
36.602966 -52.632896 38.136406
33.661575 -49.173225 37.976471
35.88868 -50.030521 38.215271
37.965691 -50.51825 39.14492
46.686104 -51.864826 25.765285
44.059113 -52.509167 24.701118
44.951611 -53.033123 26.450665
45.589203 -57.716045 27.831234
45.133389 -57.057354 26.002069
46.829098 -58.720661 25.433277
48.585377 -59.484844 23.708584
49.008263 -60.101624 25.0797
56.084564 -51.109165 33.997818
56.025154 -49.710182 30.821514
55.329845 -49.575417 29.078274
55.292076 -50.948158 29.395712
50.465294 -52.276482 27.530178
51.824127 -51.252007 27.063192
48.388432 -50.746574 24.477959
50.459572 -55.2281 42.172985
48.348244 -56.38493 40.212303
48.952351 -56.774464 42.05793
47.522423 -59.549217 44.469086
48.130432 -59.889793 42.271229
46.704937 -61.144554 42.296425
45.133915 -62.091248 40.307255
44.53054 -62.128395 42.62178
41.287254 -56.525642 41.205769
43.270973 -57.341553 43.166164
41.682228 -58.315575 42.608025
38.998657 -63.546581 46.746735
40.83604 -62.262104 45.594624
40.568642 -64.412132 46.741188
41.489403 -65.375092 44.894196
40.183098 -67.209305 46.587849
39.395164 -69.682098 44.7929
38.500797 -68.816551 46.494007
35.717468 -70.662827 41.855854
34.58535 -70.549416 39.203423
33.728989 -72.174881 37.247108
33.678223 -69.563293 37.05761
50.18401 -53.471291 44.370789
51.442329 -53.501625 43.505562
52.077667 -53.515587 42.01284
32.5681 -66.038193 33.710892
31.584692 -64.072258 32.303368
48.350208 -53.060345 12.857172
44.682579 -54.988087 20.838425
44.849819 -54.663074 18.829315
46.409943 -55.961761 18.829494
50.123585 -57.662842 14.626997
47.701187 -59.051708 35.917355
46.927692 -58.826916 33.768471
48.12439 -60.341541 33.561188
46.881306 -63.77943 29.575806
49.112827 -63.290321 29.351171
48.460934 -63.983845 27.512182
49.651649 -63.833454 25.058237
47.632526 -65.171165 26.014349
40.872608 -67.869019 26.645275
40.210815 -66.009399 24.883381
38.678928 -63.27116 20.4482
59.588268 -43.021885 19.441454
53.300823 -47.889957 26.063232
53.396362 -46.52874 25.495489
52.68911 -46.917732 24.164984
52.090637 -45.744366 19.045391
53.167591 -45.524254 20.135799
53.431297 -44.650768 18.290609
44.788902 -46.437511 14.977236
34.005089 -51.726173 37.613483
32.380699 -44.985397 39.835945
31.825314 -48.027271 39.176685
48.942364 -53.120647 28.86734
46.060535 -53.555023 28.182291
47.014194 -54.099506 29.962128
45.729851 -56.052513 30.265896
46.047295 -58.047974 29.593685
54.566864 -51.796196 37.954071
55.368328 -52.310272 35.026985
55.507702 -52.131958 32.12841
54.74176 -51.781654 30.112864
53.687908 -52.487549 30.398327
49.409538 -55.192059 44.707703
49.056271 -56.781532 43.93911
48.43996 -56.459423 45.284813
47.677788 -57.779469 45.63755
46.517876 -59.08131 45.668827
38.134335 -59.230701 41.407696
39.877056 -59.824638 42.541847
37.983101 -61.057861 43.453247
46.866947 -50.053658 41.446728
46.933578 -51.41087 42.855263
48.401318 -53.351234 44.474251
44.143227 -48.604813 14.829831
44.529922 -50.390072 14.469046
45.635849 -52.127392 14.452662
46.942299 -53.588398 14.741084
48.226543 -58.045601 20.295361
48.382484 -57.324352 18.621099
50.094101 -58.815296 17.997028
47.458122 -58.58429 16.446522
44.736248 -57.616127 14.54772
46.420952 -61.775269 35.993492
47.48661 -62.034718 33.456512
45.264412 -62.5023 33.563629
44.558292 -63.540527 31.472345
45.34771 -65.669609 30.102625
39.984814 -71.527512 27.68565
57.086864 -44.369251 22.835291
51.194283 -48.261993 23.680592
52.001392 -47.157978 22.860828
50.854839 -47.315544 21.90451
50.411713 -46.458626 20.149815
49.606976 -45.561684 18.271952
46.849083 -45.944695 17.619894
44.930641 -46.80624 16.469559
41.519733 -52.873127 41.978077
43.441875 -54.490925 42.408669
41.323864 -53.772411 40.822304
40.539665 -54.84837 40.039051
39.047333 -55.816505 39.825222
35.290894 -53.368065 37.853889
36.604485 -55.216869 38.690113
37.681561 -57.154015 39.860012
36.253567 -58.438416 40.643726
32.963997 -45.650772 37.820271
40.017376 -51.036472 40.41935
44.780052 -50.107658 22.50721
43.292671 -51.353699 20.835526
43.432133 -51.920799 22.854239
43.552376 -53.869293 22.748598
44.56525 -55.518147 22.466309
44.273598 -54.95686 26.529196
44.801857 -56.238182 24.211868
46.145664 -57.208893 22.319826
48.299625 -58.709034 22.05508
51.084423 -60.173927 21.321173
50.087791 -61.885029 21.076561
40.294735 -69.53524 39.067577
41.753342 -69.725563 35.971565
40.998146 -71.768661 36.854107
54.231712 -48.899792 27.631968
53.391376 -49.283955 26.31637
53.749126 -51.270912 28.309443
52.788647 -50.351768 26.576595
51.93119 -49.323864 25.160236
49.83252 -49.267899 24.143902
47.532875 -55.426319 36.092991
47.801529 -55.699696 38.136532
47.389427 -57.744179 38.156727
48.120338 -59.424644 38.128075
48.497421 -58.459595 42.30526
48.275158 -59.843842 40.216072
47.580521 -60.995075 38.006004
45.842751 -61.998512 38.093285
43.156929 -62.73835 38.657738
44.576641 -56.609901 43.687855
44.947868 -58.220295 45.154308
44.758308 -60.168297 45.575756
41.433723 -60.271809 43.959114
42.653553 -61.089134 45.219059
43.887486 -62.193531 44.853024
42.472771 -63.478291 43.495384
41.409649 -65.379395 42.386253
40.553238 -67.522636 41.050213
39.941849 -69.83638 42.081993
34.202362 -73.235237 34.543224
33.985107 -71.693687 31.540003
48.801277 -50.25544 42.020054
53.044182 -52.186878 41.294754
52.474213 -53.243824 40.059673
32.430279 -62.796509 46.599293
33.771797 -66.958679 37.837379
33.279728 -68.039589 35.379807
33.708382 -68.828857 32.509197
33.47176 -69.649399 29.413095
32.016262 -64.517654 28.884594
43.670647 -53.084492 18.777838
45.674236 -54.052269 16.699804
48.529045 -54.939079 15.076647
49.080803 -56.698193 16.852352
50.146858 -56.43338 15.220808
51.469994 -56.327309 13.591829
46.378796 -57.013622 33.980766
46.413063 -58.586098 31.674795
47.644379 -59.980995 29.096645
48.890224 -62.112526 31.346949
49.876755 -61.688038 29.032818
49.629841 -60.957966 26.855541
51.010048 -62.100788 25.11598
50.344147 -63.133373 23.050297
47.104218 -62.41848 22.264362
43.548729 -69.198372 33.438011
45.087227 -68.26741 31.328648
45.856026 -67.690773 28.911617
41.34864 -69.337677 28.369314
43.703251 -68.221703 27.261097
45.728142 -66.878929 26.548218
44.375481 -63.193245 23.505022
43.502171 -61.509674 21.779072
38.249977 -61.822327 18.378456
37.544159 -63.47123 15.643259
38.572693 -66.568886 15.334398
54.67802 -44.829865 24.654358
55.387432 -44.796398 22.204821
52.633156 -46.000935 22.153717
54.174011 -45.303375 21.310513
56.198456 -44.481812 19.95927
48.686154 -54.392121 34.460064
48.603826 -54.246386 33.307312
50.956537 -53.51479 34.608519
52.185938 -53.211643 35.716842
51.134136 -53.577763 36.348913
50.874211 -53.369055 33.455766
50.956537 -53.51479 34.608519
43.73912 -50.237868 19.664392
43.52506 -50.000985 18.685887
44.015337 -49.182398 19.728339
44.015337 -49.182398 19.728339
44.821976 -48.344412 19.268421
45.036035 -48.581295 20.246926
56.044664 -50.455596 32.348404
55.956829 -50.368673 33.687317
56.172399 -51.196089 32.658905
56.142695 -50.496597 31.070753
55.927124 -49.669182 32.099165
56.044664 -50.455596 32.348404
48.651544 -52.043611 26.537956
49.913683 -51.930148 26.737519
49.203156 -52.389946 27.330615
47.313561 -52.184118 26.448169
48.024088 -51.72432 25.855072
48.651544 -52.043611 26.537956
34.676417 -69.273212 39.209948
35.13603 -69.389767 40.427023
35.227097 -68.113563 40.433548
30.7243 -63.066025 33.447542
31.410019 -63.92181 33.85166
50.577845 -54.401373 12.451472
49.793717 -53.600479 12.23336
49.134337 -53.861238 13.075283
51.307316 -55.28 12.662016
50.577845 -54.401373 12.451472
39.410989 -66.663528 23.67602
39.635574 -67.338462 24.717942
39.860874 -65.319973 23.770219
39.410989 -66.663528 23.67602
58.66069 -43.54973 20.035228
59.35075 -43.454963 20.389581
58.423172 -43.982809 20.983355
58.070692 -43.801285 19.564366
58.99827 -43.273439 18.970591
58.66069 -43.54973 20.035228
52.411209 -44.674463 17.932266
52.760967 -45.197567 18.668
51.740879 -45.221262 18.309657
53.315597 -44.181753 17.600972
52.411209 -44.674463 17.932266
44.83226 -46.131845 14.207083
44.777687 -47.293371 14.039074
31.396829 -48.504713 39.151638
31.619937 -47.544882 40.383041
32.375742 -49.054409 38.491357
31.396829 -48.504713 39.151638
54.175877 -52.033657 38.65128
53.958019 -51.45126 39.171291
53.567031 -51.688721 39.8685
50.43466 -53.165273 30.055874
50.64918 -53.30987 31.206839
49.201172 -53.325897 29.847387
50.175852 -52.960023 29.075826
50.43466 -53.165273 30.055874
45.970829 -51.196287 42.34673
45.941406 -50.550015 41.774493
48.11928 -54.032632 44.783653
47.347027 -53.084711 44.29393
47.064989 -53.766109 44.603332
44.137453 -49.531508 15.634354
44.336574 -49.497443 14.649439
43.944106 -48.638878 15.814747
43.518386 -58.269288 15.945195
43.496105 -57.752177 14.743403
44.75853 -58.133238 15.749512
41.242298 -58.779587 16.509702
41.216864 -59.214348 17.895235
56.7393 -44.350973 24.069339
57.731292 -44.144483 23.261697
44.337812 -47.739592 16.634611
45.10672 -47.035005 17.291262
44.513891 -47.968357 17.456314
43.944106 -48.638878 15.814747
44.536934 -47.705527 15.649695
44.337812 -47.739592 16.634611
33.933556 -52.925255 37.882774
34.647992 -52.547119 37.733686
33.290653 -52.104309 37.762571
35.985311 -55.854354 38.940965
35.247696 -54.853893 38.52296
34.628523 -55.491379 38.773813
46.45639 -50.336041 23.620907
47.879475 -50.19656 23.785835
46.965348 -50.886055 24.31303
45.161158 -50.566597 23.327656
46.075285 -49.877102 22.800461
46.45639 -50.336041 23.620907
49.053449 -55.206084 39.174681
48.949878 -54.927027 37.945509
50.201799 -54.433414 38.983658
42.845821 -62.892882 39.851293
44.145422 -62.414799 39.482496
43.834315 -62.56933 40.676052
42.203821 -63.783531 39.084389
42.845821 -62.892882 39.851293
37.937355 -71.804348 43.082405
38.914245 -70.857235 43.474007
38.418273 -70.629211 44.401299
36.929512 -72.813842 42.76099
37.937355 -71.804348 43.082405
35.691623 -71.73935 41.950807
35.059805 -71.799839 40.675106
52.484299 -52.131027 41.982195
52.559179 -51.463661 41.590826
50.201799 -54.433414 38.983658
51.28622 -53.699091 38.907079
51.389792 -53.978147 40.136252
31.889817 -62.719029 46.414694
31.846711 -61.811161 46.509903
32.593106 -63.350195 45.674177
31.889817 -62.719029 46.414694
33.195175 -66.188812 37.26103
33.073988 -66.017002 38.358604
32.94914 -66.729267 36.032244
33.525762 -67.499134 36.608593
33.195175 -66.188812 37.26103
31.218989 -63.817411 28.278087
31.165467 -63.320652 29.949199
50.562409 -56.941479 14.175329
50.135222 -57.048111 14.923903
50.550772 -57.556209 13.878424
51.223976 -56.888443 13.36084
50.808426 -56.380344 14.406319
50.562409 -56.941479 14.175329
52.028038 -56.801844 12.732002
51.223976 -56.888443 13.36084
44.484587 -68.870941 30.491997
44.402815 -69.583839 31.638595
44.868986 -68.582622 29.283482
45.471626 -67.979091 30.120133
44.484587 -68.870941 30.491997
40.484503 -69.818245 27.267936
40.666727 -70.432594 28.027482
39.802589 -70.913162 26.926105
44.097907 -65.921844 25.272925
45.397671 -66.080005 25.794049
44.428377 -66.720768 26.027094
42.892427 -63.048523 22.805831
43.267956 -63.90675 23.650387
42.455772 -62.206738 21.942856
43.938826 -62.351459 22.642047
42.892427 -63.048523 22.805831
41.998274 -61.329273 21.134625
42.455772 -62.206738 21.942856
39.544432 -67.221371 14.192341
39.590488 -67.957409 14.993893
38.68412 -65.830849 14.183688
39.544432 -67.221371 14.192341
54.244796 -46.645998 26.991653
54.146986 -47.056169 27.822379
55.837828 -44.157137 18.494073
56.484654 -44.111097 18.940784
55.55163 -44.527851 19.51256
48.544098 -54.038269 32.387241
48.404047 -54.009123 31.333416
49.600031 -53.560293 31.88126
47.407843 -54.695216 32.759468
48.544098 -54.038269 32.387241
48.603826 -54.246386 33.307312
51.923359 -53.118632 32.781346
52.926371 -52.995493 32.194693
53.01135 -53.025531 33.389795
51.923359 -53.118632 32.781346
50.874211 -53.369055 33.455766
49.600031 -53.560293 31.88126
50.64918 -53.30987 31.206839
36.365994 -61.225162 43.740702
35.760368 -60.86843 43.453201
42.448452 -50.953663 41.142735
41.380491 -50.645731 40.526033
43.544387 -51.268986 41.78685
42.448452 -50.953663 41.142735
43.079269 -51.848526 42.371792
44.591642 -51.572777 42.427052
43.544387 -51.268986 41.78685
45.23397 -52.491018 43.564758
44.591642 -51.572777 42.427052
46.060932 -53.455501 44.338962
45.23397 -52.491018 43.564758
45.002167 -53.128332 43.790111
46.833185 -54.403423 44.828686
47.064989 -53.766109 44.603332
46.060932 -53.455501 44.338962
43.712673 -49.848607 17.659415
43.684527 -49.71232 16.684329
43.436456 -50.904076 17.595467
43.712673 -49.848607 17.659415
43.52506 -50.000985 18.685887
41.503456 -59.817047 18.999371
41.216864 -59.214348 17.895235
42.61579 -59.413147 18.728006
44.542038 -48.104643 18.431399
45.562736 -47.50354 18.949987
44.821976 -48.344412 19.268421
44.513891 -47.968357 17.456314
44.542038 -48.104643 18.431399
34.106693 -56.074223 39.291933
34.628523 -55.491379 38.773813
34.723408 -56.994512 39.78191
34.106693 -56.074223 39.291933
34.005949 -48.467194 37.757999
33.46732 -47.262695 38.154976
33.122946 -47.968727 38.373447
35.119501 -48.895842 37.877399
34.005949 -48.467194 37.757999
34.775127 -49.601873 38.095871
36.198807 -49.254406 37.923977
35.119501 -48.895842 37.877399
36.927186 -50.274386 38.680096
37.237313 -49.498271 38.388801
36.198807 -49.254406 37.923977
39.268097 -72.713479 38.435305
38.601347 -72.982216 39.780092
55.607737 -50.328611 35.005766
55.565134 -51.004484 35.323269
55.607737 -50.328611 35.005766
55.956829 -50.368673 33.687317
55.271082 -48.993355 31.901315
55.927124 -49.669182 32.099165
55.385243 -49.02305 30.751365
55.271082 -48.993355 31.901315
55.677499 -49.6428 29.949894
55.037588 -48.955668 29.879745
55.385243 -49.02305 30.751365
50.593099 -51.41791 26.504026
51.144711 -51.764245 27.296685
49.913683 -51.930148 26.737519
50.097772 -50.947184 25.774376
51.3288 -50.781281 26.333543
50.593099 -51.41791 26.504026
48.875252 -51.165194 25.211409
49.610952 -50.528565 25.040926
50.097772 -50.947184 25.774376
47.537268 -51.3057 25.121622
48.875252 -51.165194 25.211409
48.024088 -51.72432 25.855072
43.532627 -62.587904 41.833315
43.834315 -62.56933 40.676052
44.832228 -62.109821 41.464517
35.702089 -69.446472 41.753239
36.004448 -69.412422 43.112516
35.151409 -70.606122 40.529639
35.702089 -69.446472 41.753239
35.13603 -69.389767 40.427023
34.493746 -71.743134 39.34889
35.059805 -71.799839 40.675106
35.151409 -70.606122 40.529639
34.157169 -71.362148 38.225265
34.065565 -72.555867 38.370733
34.493746 -71.743134 39.34889
50.391205 -52.631407 43.902266
49.673113 -51.662729 43.383646
49.465918 -52.502613 43.852169
51.020364 -52.646574 43.469652
50.391205 -52.631407 43.902266
50.81317 -53.486458 43.938175
51.683373 -52.7884 43.087599
51.020364 -52.646574 43.469652
51.759998 -53.508606 42.759201
52.001041 -52.795381 42.341238
51.683373 -52.7884 43.087599
31.901723 -64.904778 34.555422
32.593327 -65.728569 35.197786
32.076396 -65.055226 33.00713
31.901723 -64.904778 34.555422
31.410019 -63.92181 33.85166
48.964872 -52.736248 11.928354
47.596308 -52.232363 12.681563
48.964872 -52.736248 11.928354
49.793717 -53.600479 12.23336
48.735966 -57.555537 14.571521
49.99456 -57.896671 15.551562
48.606941 -57.789366 15.496087
49.163 -57.35204 13.56185
48.735966 -57.555537 14.571521
50.550772 -57.556209 13.878424
49.163 -57.35204 13.56185
43.225149 -71.297436 33.221744
41.880993 -71.842877 33.511179
39.96647 -68.268272 25.598889
40.246487 -69.083916 26.405917
40.541711 -66.939209 25.764328
39.96647 -68.268272 25.598889
39.635574 -67.338462 24.717942
41.185623 -65.314827 24.339567
42.644522 -65.591431 24.650861
41.669714 -66.286003 25.194676
41.185623 -65.314827 24.339567
39.860874 -65.319973 23.770219
39.094931 -63.950854 21.552628
40.044151 -63.08748 21.27742
38.524192 -64.652677 20.336303
39.094931 -63.950854 21.552628
38.04862 -65.400268 19.140878
38.203356 -64.018751 19.252775
38.524192 -64.652677 20.336303
60.16777 -42.620909 20.031923
59.35075 -43.454963 20.389581
60.367746 -42.241073 19.209921
60.16777 -42.620909 20.031923
59.752447 -42.600386 18.51601
60.367746 -42.241073 19.209921
59.752447 -42.600386 18.51601
58.99827 -43.273439 18.970591
54.299364 -44.215747 17.822308
55.036118 -44.177309 18.209929
54.16805 -44.61233 18.678229
54.299364 -44.215747 17.822308
53.315597 -44.181753 17.600972
45.332033 -45.42461 14.994098
45.505409 -45.854661 15.64209
45.332033 -45.42461 14.994098
44.83226 -46.131845 14.207083
33.465629 -50.90386 37.709756
34.671234 -51.368202 37.731861
34.131774 -50.545889 37.828135
32.75537 -51.16712 37.898924
33.465629 -50.90386 37.709756
33.290653 -52.104309 37.762571
32.75537 -51.16712 37.898924
32.516864 -44.88946 40.941426
32.185021 -44.356648 40.371144
32.278639 -45.484382 40.430535
32.516864 -44.88946 40.941426
32.380448 -46.373798 39.897774
32.482507 -45.874813 39.303185
32.278639 -45.484382 40.430535
32.000946 -47.005319 40.100904
31.619937 -47.544882 40.383041
32.204815 -47.39575 38.973554
32.380448 -46.373798 39.897774
32.000946 -47.005319 40.100904
33.293872 -49.627386 37.89125
32.743444 -48.600248 38.576578
32.375742 -49.054409 38.491357
34.131774 -50.545889 37.828135
34.499477 -50.091728 37.913355
33.293872 -49.627386 37.89125
54.010514 -50.991873 38.441694
53.958019 -51.45126 39.171291
54.806284 -51.348 37.301395
54.010514 -50.991873 38.441694
55.207016 -51.605037 35.837852
54.806284 -51.348 37.301395
54.967596 -52.053234 36.490528
55.726446 -51.709718 34.512402
55.565134 -51.004484 35.323269
55.207016 -51.605037 35.837852
52.763143 -52.788071 30.992285
53.851135 -52.694971 31.600735
52.926371 -52.995493 32.194693
52.548624 -52.643474 29.84132
52.763143 -52.788071 30.992285
52.111964 -52.424972 28.969127
53.251248 -52.269047 29.526134
52.548624 -52.643474 29.84132
50.937317 -52.537941 28.407246
51.639941 -52.163514 28.09206
52.111964 -52.424972 28.969127
49.703829 -52.698565 28.198759
50.937317 -52.537941 28.407246
50.175852 -52.960023 29.075826
37.089836 -61.57821 44.170349
37.259259 -60.704813 43.0236
36.365994 -61.225162 43.740702
37.786339 -61.956417 44.684192
37.089836 -61.57821 44.170349
38.551499 -62.19928 45.235828
38.748261 -61.300724 44.004883
37.786339 -61.956417 44.684192
38.294117 -63.200777 46.330936
39.256039 -62.545084 45.651627
38.551499 -62.19928 45.235828
38.069902 -64.344709 47.159338
38.294117 -63.200777 46.330936
37.938961 -65.608261 47.733877
38.867716 -64.810133 47.321274
38.069902 -64.344709 47.159338
37.962294 -66.790527 47.404072
37.938961 -65.608261 47.733877
34.865412 -67.268501 40.325747
35.227097 -68.113563 40.433548
45.908091 -49.871409 41.070225
46.065092 -49.258911 40.089934
46.900262 -50.732264 42.150996
45.908091 -49.871409 41.070225
45.941406 -50.550015 41.774493
46.613157 -52.114529 43.484436
45.970829 -51.196287 42.34673
47.667448 -52.381052 43.664757
46.613157 -52.114529 43.484436
47.347027 -53.084711 44.29393
44.863078 -49.313569 13.720202
44.45485 -48.377022 13.965371
45.056425 -50.206198 13.53981
44.863078 -49.313569 13.720202
44.336574 -49.497443 14.649439
45.686165 -50.897227 13.4875
45.056425 -50.206198 13.53981
44.076995 -50.570885 15.519021
44.137453 -49.531508 15.634354
43.684527 -49.71232 16.684329
46.239128 -51.765887 13.479308
45.686165 -50.897227 13.4875
45.082886 -51.258732 14.460854
46.993029 -52.593868 13.654917
47.596308 -52.232363 12.681563
46.239128 -51.765887 13.479308
47.403234 -58.016261 15.481283
48.606941 -57.789366 15.496087
48.661829 -58.357396 16.461325
46.042298 -57.532179 14.531883
47.403234 -58.016261 15.481283
46.097185 -58.100209 15.497121
45.097681 -57.326828 13.317285
46.042298 -57.532179 14.531883
43.892 -57.539574 13.303705
45.097681 -57.326828 13.317285
43.892 -57.539574 13.303705
43.496105 -57.752177 14.743403
42.29258 -58.349337 16.281479
43.518386 -58.269288 15.945195
43.555004 -58.730398 17.287587
42.29258 -58.349337 16.281479
41.242298 -58.779587 16.509702
40.333542 -72.868542 27.257585
39.60874 -71.97369 28.716139
40.356076 -72.250298 26.39584
40.333542 -72.868542 27.257585
39.802589 -70.913162 26.926105
40.356076 -72.250298 26.39584
58.100048 -44.128647 22.0865
57.731292 -44.144483 23.261697
57.409988 -44.223413 21.732146
58.423172 -43.982809 20.983355
58.100048 -44.128647 22.0865
50.499049 -45.129921 17.922937
51.740879 -45.221262 18.309657
50.848807 -45.653025 18.658671
49.171992 -45.117065 17.609724
50.499049 -45.129921 17.922937
47.793045 -45.308571 17.283694
49.171992 -45.117065 17.609724
48.22803 -45.75319 17.945923
46.5355 -45.608254 16.963419
47.793045 -45.308571 17.283694
45.576279 -46.039026 16.388252
46.5355 -45.608254 16.963419
45.889862 -46.375467 17.044726
44.859772 -46.621876 15.723398
45.505409 -45.854661 15.64209
45.576279 -46.039026 16.388252
44.45485 -48.377022 13.965371
44.777687 -47.293371 14.039074
44.466065 -47.521162 14.903533
34.590901 -53.929491 38.104849
33.933556 -52.925255 37.882774
35.947689 -54.292467 38.272001
34.590901 -53.929491 38.104849
35.247696 -54.853893 38.52296
35.167122 -57.9678 40.507864
35.809852 -57.465128 39.917772
34.723408 -56.994512 39.78191
35.562971 -59.032598 41.406589
35.167122 -57.9678 40.507864
35.703896 -59.989273 42.381703
36.394492 -59.39509 41.618839
35.562971 -59.032598 41.406589
35.760368 -60.86843 43.453201
35.703896 -59.989273 42.381703
32.31337 -44.400951 39.200665
32.185021 -44.356648 40.371144
32.605018 -44.733638 38.192827
32.31337 -44.400951 39.200665
32.672348 -45.318084 38.828108
33.154627 -44.949269 37.224005
32.795648 -44.032135 37.596561
32.605018 -44.733638 38.192827
33.65716 -46.705967 37.679899
32.774157 -46.207501 38.295347
33.46732 -47.262695 38.154976
33.759867 -46.067778 37.15591
33.65716 -46.705967 37.679899
33.154627 -44.949269 37.224005
33.759867 -46.067778 37.15591
38.329724 -49.817211 38.774009
37.237313 -49.498271 38.388801
39.355566 -50.076323 39.411225
38.329724 -49.817211 38.774009
38.991534 -50.777361 39.782135
40.397512 -50.397366 39.87187
39.355566 -50.076323 39.411225
41.000355 -51.284838 41.073513
41.380491 -50.645731 40.526033
40.397512 -50.397366 39.87187
40.026075 -72.731781 36.99252
40.240167 -71.750359 38.296892
39.268097 -72.713479 38.435305
40.844038 -72.509056 35.821829
40.026075 -72.731781 36.99252
41.710912 -72.472027 34.642249
41.86502 -71.731632 35.674526
40.844038 -72.509056 35.821829
41.880993 -71.842877 33.511179
41.710912 -72.472027 34.642249
54.306715 -47.916008 28.094603
54.146986 -47.056169 27.822379
54.982636 -48.887076 29.012443
55.037588 -48.955668 29.879745
54.433569 -48.549263 28.28929
54.982636 -48.887076 29.012443
54.780778 -49.237605 28.355121
54.104858 -48.266537 27.437281
54.306715 -47.916008 28.094603
54.433569 -48.549263 28.28929
48.601519 -49.457222 23.618807
49.110476 -50.007237 24.31093
47.879475 -50.19656 23.785835
48.204695 -48.972019 22.950887
49.435696 -48.782696 23.475982
48.601519 -49.457222 23.618807
46.98993 -49.096535 22.315306
47.824106 -48.422009 22.172481
48.204695 -48.972019 22.950887
45.694696 -49.327091 22.022056
46.98993 -49.096535 22.315306
46.075285 -49.877102 22.800461
48.815551 -54.790339 36.923738
48.718806 -54.653614 35.66679
47.667202 -55.563007 37.114762
48.815551 -54.790339 36.923738
48.949878 -54.927027 37.945509
41.422823 -64.526603 38.098976
42.375931 -63.481423 37.672325
42.203821 -63.783531 39.084389
41.111557 -65.969909 38.699438
41.283667 -65.667801 37.287374
41.422823 -64.526603 38.098976
42.503743 -63.262852 42.270117
43.532627 -62.587904 41.833315
43.501655 -62.803343 43.058582
41.972182 -64.213404 41.715551
42.503743 -63.262852 42.270117
41.94121 -64.428843 42.940819
41.330181 -65.104053 40.948647
41.972182 -64.213404 41.715551
40.901975 -66.175674 40.280626
41.330181 -65.104053 40.948647
40.981443 -66.451016 41.718233
40.762819 -67.316872 39.469025
41.111557 -65.969909 38.699438
40.901975 -66.175674 40.280626
39.187588 -70.934376 42.118553
39.668506 -69.759239 43.437447
38.914245 -70.857235 43.474007
38.957758 -71.882214 40.947395
39.712019 -70.784218 40.910835
39.187588 -70.934376 42.118553
38.601347 -72.982216 39.780092
38.957758 -71.882214 40.947395
37.844305 -68.16196 46.703169
38.618786 -67.445118 47.19491
37.962294 -66.790527 47.404072
37.672742 -69.447879 45.571241
37.844305 -68.16196 46.703169
37.143035 -70.827766 44.329087
37.97109 -70.196438 45.251852
37.672742 -69.447879 45.571241
36.281078 -70.371017 43.252165
36.004448 -69.412422 43.112516
36.281078 -70.371017 43.252165
35.691623 -71.73935 41.950807
36.553581 -72.196098 43.027729
37.143035 -70.827766 44.329087
36.929512 -72.813842 42.76099
36.553581 -72.196098 43.027729
33.931011 -73.305805 37.315277
34.065565 -72.555867 38.370733
34.167698 -73.835983 35.963335
33.931011 -73.305805 37.315277
33.965676 -72.705059 35.895166
34.300881 -74.544086 34.539659
34.167698 -73.835983 35.963335
34.289072 -73.813427 33.069705
34.300881 -74.544086 34.539659
34.180445 -73.042652 31.568095
34.289072 -73.813427 33.069705
34.093734 -72.464462 33.041613
34.217935 -72.145824 30.168765
34.180445 -73.042652 31.568095
47.026535 -49.514435 40.385119
46.065092 -49.258911 40.089934
47.9937 -49.615326 40.671782
47.026535 -49.514435 40.385119
47.834112 -50.154549 41.733391
48.905607 -49.697968 40.91041
47.9937 -49.615326 40.671782
49.699838 -51.023482 42.726899
48.774552 -50.894688 42.676801
49.673113 -51.662729 43.383646
49.684187 -50.285721 42.116451
49.699838 -51.023482 42.726899
48.905607 -49.697968 40.91041
49.684187 -50.285721 42.116451
53.196678 -51.646601 40.841633
52.559179 -51.463661 41.590826
53.414535 -52.228998 40.321621
53.567031 -51.688721 39.8685
53.196678 -51.646601 40.841633
52.560924 -52.851232 41.653797
52.484299 -52.131027 41.982195
52.001041 -52.795381 42.341238
51.230882 -53.714487 37.605862
52.418875 -53.25922 38.758455
51.28622 -53.699091 38.907079
51.134136 -53.577763 36.348913
51.230882 -53.714487 37.605862
32.391878 -61.708734 45.902579
31.846711 -61.811161 46.509903
33.001665 -62.587286 46.418421
32.391878 -61.708734 45.902579
32.977314 -63.477417 46.254305
33.001665 -62.587286 46.418421
32.977314 -63.477417 46.254305
32.593106 -63.350195 45.674177
34.341577 -67.031593 39.566631
34.865412 -67.268501 40.325747
33.843734 -66.512428 38.877084
33.073988 -66.017002 38.358604
34.26964 -67.477844 38.526926
34.341577 -67.031593 39.566631
33.843734 -66.512428 38.877084
32.923914 -67.038891 34.54535
32.94914 -66.729267 36.032244
32.593327 -65.728569 35.197786
33.961262 -71.12368 29.105311
34.217935 -72.145824 30.168765
33.728434 -70.671543 30.476549
30.949682 -63.097954 31.658586
30.7243 -63.066025 33.447542
31.800477 -64.294956 30.593981
30.949682 -63.097954 31.658586
31.165467 -63.320652 29.949199
31.911141 -65.166348 27.197545
31.218989 -63.817411 28.278087
32.439417 -66.003677 28.1064
31.911141 -65.166348 27.197545
32.999947 -67.01197 29.070957
32.576791 -65.525948 29.849151
32.439417 -66.003677 28.1064
33.167166 -68.569549 28.37065
33.304541 -68.09182 30.113402
32.999947 -67.01197 29.070957
33.751678 -70.153118 27.655402
33.167166 -68.569549 28.37065
33.961262 -71.12368 29.105311
33.751678 -70.153118 27.655402
52.083081 -56.112589 12.811234
51.307316 -55.28 12.662016
50.694229 -55.49472 13.442611
52.083081 -56.112589 12.811234
52.028038 -56.801844 12.732002
47.500223 -55.164825 34.886265
48.686154 -54.392121 34.460064
48.718806 -54.653614 35.66679
43.633566 -70.04932 32.693277
43.140312 -70.446488 33.966479
43.225149 -71.297436 33.221744
44.317978 -68.732891 32.38333
43.633566 -70.04932 32.693277
44.402815 -69.583839 31.638595
40.662896 -71.004868 29.033817
39.60874 -71.97369 28.716139
41.344808 -69.909951 29.375649
40.662896 -71.004868 29.033817
40.666727 -70.432594 28.027482
42.615293 -69.406075 29.01233
41.344808 -69.909951 29.375649
41.110624 -68.603348 27.507295
40.484503 -69.818245 27.267936
40.246487 -69.083916 26.405917
43.792599 -68.848088 28.458222
42.615293 -69.406075 29.01233
42.525946 -68.77969 27.815205
44.779639 -67.956238 28.086357
44.868986 -68.582622 29.283482
43.792599 -68.848088 28.458222
46.349863 -65.226123 25.527115
46.680334 -66.025047 26.281284
45.397671 -66.080005 25.794049
46.320118 -64.600206 24.541801
47.602781 -64.545248 25.029035
46.349863 -65.226123 25.527115
44.097907 -65.921844 25.272925
42.644522 -65.591431 24.650861
44.72134 -64.237163 24.272452
43.267956 -63.90675 23.650387
45.974259 -63.556288 23.774371
46.320118 -64.600206 24.541801
44.72134 -64.237163 24.272452
41.69838 -60.582359 20.16116
43.202276 -60.76276 20.805607
41.998274 -61.329273 21.134625
41.503456 -59.817047 18.999371
41.69838 -60.582359 20.16116
39.586652 -62.210016 20.469189
40.044151 -63.08748 21.27742
39.372177 -61.485599 19.434317
39.586652 -62.210016 20.469189
38.464453 -62.546744 19.413328
39.177253 -60.720287 18.272528
39.372177 -61.485599 19.434317
38.333798 -61.185413 17.011068
39.177253 -60.720287 18.272528
37.980888 -62.009865 15.64347
38.333798 -61.185413 17.011068
37.897068 -62.646778 17.010858
37.922909 -62.76329 14.320976
37.980888 -62.009865 15.64347
38.378103 -66.355652 17.697438
38.04862 -65.400268 19.140878
38.800558 -67.256924 16.335962
39.590488 -67.957409 14.993893
38.150238 -65.667614 16.695874
38.378103 -66.355652 17.697438
38.800558 -67.256924 16.335962
38.169853 -64.282021 14.338118
38.058426 -65.020058 15.488829
38.68412 -65.830849 14.183688
37.922909 -62.76329 14.320976
38.169853 -64.282021 14.338118
53.953975 -46.093727 26.1181
54.244796 -46.645998 26.991653
53.687183 -47.081011 26.369042
54.594804 -45.24429 25.697534
53.953975 -46.093727 26.1181
54.037191 -45.679302 25.074923
55.534877 -44.58128 24.978873
54.594804 -45.24429 25.697534
55.882442 -44.599558 23.744825
56.7393 -44.350973 24.069339
55.534877 -44.58128 24.978873
57.303364 -44.003403 19.229499
58.070692 -43.801285 19.564366
56.965784 -44.279694 20.294136
57.303364 -44.003403 19.229499
56.484654 -44.111097 18.940784
55.837828 -44.157137 18.494073
55.036118 -44.177309 18.209929
3 309 75 310
3 311 78 312
3 313 312 76
3 311 312 313
3 315 314 78
3 0 81 79
3 0 83 82
3 0 79 83
3 2 316 318
3 316 85 317
3 316 317 318
3 3 88 86
3 3 90 88
3 1 93 91
3 2 96 94
3 2 319 321
3 321 320 96
3 319 320 321
3 4 100 98
3 4 102 101
3 4 98 102
3 6 106 104
3 8 109 107
3 8 111 109
3 9 322 324
3 324 323 112
3 322 323 324
3 9 325 327
3 325 113 326
3 325 326 327
3 9 115 113
3 6 328 330
3 330 329 116
3 328 329 330
3 6 331 333
3 331 104 332
3 331 332 333
3 11 121 119
3 13 124 122
3 13 126 124
3 5 129 127
3 14 132 130
3 14 134 132
3 14 136 134
3 15 334 336
3 334 138 335
3 334 335 336
3 15 140 138
3 11 142 141
3 11 119 142
3 337 145 338
3 16 339 341
3 341 340 146
3 339 340 341
3 16 342 343
3 7 149 147
3 12 153 151
3 17 156 154
3 17 158 156
3 344 160 345
3 347 346 160
3 18 348 350
3 348 162 349
3 348 349 350
3 18 351 353
3 353 352 162
3 351 352 353
3 10 165 163
3 354 168 355
3 356 355 166
3 354 355 356
3 358 357 168
3 360 359 169
3 361 172 362
3 364 363 172
3 20 175 173
3 22 176 74
3 22 177 176
3 23 365 367
3 365 178 366
3 365 366 367
3 24 179 77
3 24 180 179
3 24 182 180
3 20 368 369
3 20 370 372
3 370 173 371
3 370 371 372
3 26 185 183
3 28 186 80
3 28 187 186
3 29 190 188
3 373 192 374
3 26 375 377
3 375 193 376
3 375 376 377
3 26 183 193
3 378 195 379
3 380 379 194
3 378 379 380
3 32 196 84
3 32 197 196
3 33 200 198
3 35 201 87
3 35 202 201
3 35 381 383
3 383 382 202
3 381 382 383
3 385 384 89
3 36 205 203
3 38 206 92
3 38 207 206
3 386 209 387
3 39 212 210
3 41 213 95
3 41 214 213
3 41 215 214
3 388 216 389
3 390 389 97
3 388 389 390
3 391 194 392
3 393 392 216
3 391 392 393
3 42 219 217
3 44 220 99
3 44 221 220
3 394 222 395
3 396 395 170
3 394 395 396
3 45 397 399
3 397 223 398
3 397 398 399
3 45 224 223
3 45 225 224
3 19 226 171
3 42 227 103
3 42 217 227
3 46 230 228
3 48 231 105
3 48 232 231
3 21 233 174
3 49 234 108
3 49 235 234
3 49 236 235
3 50 237 110
3 50 238 237
3 51 241 239
3 54 242 114
3 54 243 242
3 25 244 181
3 55 245 117
3 55 246 245
3 55 247 246
3 46 400 402
3 402 401 118
3 400 401 402
3 46 403 405
3 403 228 404
3 403 404 405
3 56 406 408
3 406 249 407
3 406 407 408
3 58 250 120
3 58 251 250
3 27 252 184
3 59 253 123
3 59 254 253
3 59 255 254
3 409 256 410
3 411 410 125
3 409 410 411
3 413 412 256
3 43 257 218
3 60 258 128
3 60 259 258
3 30 260 189
3 61 261 131
3 61 262 261
3 61 263 262
3 62 264 133
3 62 265 264
3 62 266 265
3 63 414 416
3 416 415 135
3 414 415 416
3 63 417 418
3 420 419 137
3 64 267 139
3 64 268 267
3 31 269 191
3 421 270 422
3 56 271 143
3 56 423 425
3 425 424 271
3 423 424 425
3 426 272 427
3 429 428 272
3 430 273 431
3 432 274 433
3 434 433 273
3 432 433 434
3 65 275 144
3 65 276 275
3 435 277 436
3 47 278 229
3 66 279 148
3 66 280 279
3 34 281 199
3 437 282 438
3 439 438 150
3 437 438 439
3 440 283 441
3 442 441 282
3 440 441 442
3 444 443 283
3 57 284 248
3 67 285 152
3 67 286 285
3 37 287 204
3 68 288 155
3 68 289 288
3 68 290 289
3 69 291 157
3 69 292 291
3 52 293 240
3 445 294 446
3 447 295 448
3 449 448 294
3 447 448 449
3 450 296 451
3 452 451 208
3 450 451 452
3 70 297 159
3 70 298 297
3 70 453 455
3 455 454 298
3 453 454 455
3 456 299 457
3 458 300 459
3 460 459 299
3 458 459 460
3 462 461 300
3 71 301 161
3 71 302 301
3 463 303 464
3 466 465 303
3 53 467 468
3 72 304 164
3 72 305 304
3 40 306 211
3 73 307 167
3 73 308 307
3 73 469 471
3 471 470 308
3 469 470 471
3 472 74 473
3 474 473 20
3 472 473 474
3 75 475 477
3 475 74 476
3 475 476 477
3 75 22 74
3 76 77 23
3 78 77 76
3 78 24 77
3 78 478 480
3 480 479 24
3 478 479 480
3 482 481 78
3 483 20 484
3 79 80 26
3 81 80 79
3 81 28 80
3 486 485 29
3 82 487 488
3 83 489 491
3 491 490 82
3 489 490 491
3 83 492 493
3 83 494 495
3 79 496 498
3 498 497 83
3 496 497 498
3 79 499 501
3 499 26 500
3 499 500 501
3 502 84 503
3 85 504 506
3 504 84 505
3 504 505 506
3 85 32 84
3 86 87 33
3 88 87 86
3 88 35 87
3 88 89 35
3 90 89 88
3 90 507 509
3 509 508 89
3 507 508 509
3 91 92 36
3 93 92 91
3 93 38 92
3 94 95 39
3 96 95 94
3 96 41 95
3 96 97 41
3 510 97 511
3 512 511 96
3 510 511 512
3 514 513 97
3 98 99 42
3 100 99 98
3 100 44 99
3 515 45 516
3 518 517 45
3 101 519 521
3 521 520 19
3 519 520 521
3 102 522 524
3 524 523 101
3 522 523 524
3 102 525 526
3 102 527 529
3 527 103 528
3 527 528 529
3 98 103 102
3 98 42 103
3 104 105 46
3 106 105 104
3 106 48 105
3 107 108 21
3 109 108 107
3 109 49 108
3 109 110 49
3 111 110 109
3 111 50 110
3 531 530 51
3 112 532 533
3 535 534 112
3 113 536 537
3 113 538 539
3 113 540 542
3 540 114 541
3 540 541 542
3 115 114 113
3 115 54 114
3 116 117 25
3 543 117 544
3 545 544 116
3 543 544 545
3 546 55 547
3 548 547 117
3 546 547 548
3 549 118 550
3 551 550 55
3 549 550 551
3 104 552 554
3 552 118 553
3 552 553 554
3 104 46 118
3 119 120 56
3 121 120 119
3 121 58 120
3 122 123 27
3 124 123 122
3 124 59 123
3 124 125 59
3 126 125 124
3 126 555 557
3 557 556 125
3 555 556 557
3 127 128 43
3 129 128 127
3 129 60 128
3 130 131 30
3 132 131 130
3 132 61 131
3 132 133 61
3 134 133 132
3 134 62 133
3 134 135 62
3 136 135 134
3 136 63 135
3 558 137 559
3 138 560 562
3 560 137 561
3 560 561 562
3 138 563 565
3 565 564 137
3 563 564 565
3 138 566 568
3 566 139 567
3 566 567 568
3 140 139 138
3 140 64 139
3 141 569 571
3 571 570 31
3 569 570 571
3 142 572 574
3 574 573 141
3 572 573 574
3 142 575 576
3 142 577 579
3 577 143 578
3 577 578 579
3 119 143 142
3 119 56 143
3 580 144 581
3 145 582 584
3 582 144 583
3 582 583 584
3 145 65 144
3 146 585 586
3 588 587 146
3 147 148 47
3 149 148 147
3 149 66 148
3 589 150 590
3 591 590 34
3 589 590 591
3 592 150 593
3 595 594 150
3 151 152 57
3 153 152 151
3 153 67 152
3 154 155 37
3 156 155 154
3 156 68 155
3 156 157 68
3 158 157 156
3 158 69 157
3 597 596 52
3 598 159 599
3 160 600 602
3 600 159 601
3 600 601 602
3 160 70 159
3 160 603 605
3 605 604 70
3 603 604 605
3 607 606 160
3 608 161 609
3 610 161 611
3 612 71 613
3 614 613 161
3 612 613 614
3 162 615 616
3 162 617 618
3 162 619 620
3 622 621 162
3 163 164 53
3 165 164 163
3 165 72 164
3 166 167 40
3 168 167 166
3 168 73 167
3 168 623 625
3 625 624 73
3 623 624 625
3 627 626 168
3 169 628 629
3 631 630 169
3 632 170 633
3 634 633 4
3 632 633 634
3 635 170 636
3 638 637 170
3 639 171 640
3 641 171 642
3 643 19 644
3 645 644 171
3 643 644 645
3 172 646 647
3 172 648 650
3 648 19 649
3 648 649 650
3 172 101 19
3 651 101 652
3 653 652 172
3 651 652 653
3 654 4 655
3 656 655 101
3 654 655 656
3 173 174 6
3 175 174 173
3 175 21 174
3 74 175 20
3 176 175 74
3 176 21 175
3 176 107 21
3 177 107 176
3 177 8 107
3 178 657 658
3 178 659 660
3 77 178 23
3 179 178 77
3 179 661 663
3 663 662 178
3 661 662 663
3 179 664 666
3 664 112 665
3 664 665 666
3 180 112 179
3 180 9 112
3 180 181 9
3 182 181 180
3 182 25 181
3 667 182 668
3 669 668 24
3 667 668 669
3 670 182 671
3 672 25 673
3 674 673 182
3 672 673 674
3 675 116 676
3 677 676 25
3 675 676 677
3 173 678 680
3 678 116 679
3 678 679 680
3 173 6 116
3 183 184 11
3 185 184 183
3 185 27 184
3 80 185 26
3 186 185 80
3 186 27 185
3 186 122 27
3 187 122 186
3 187 13 122
3 188 189 5
3 190 189 188
3 190 30 189
3 681 190 682
3 683 682 29
3 681 682 683
3 684 190 685
3 686 30 687
3 688 687 190
3 686 687 688
3 689 130 690
3 691 690 30
3 689 690 691
3 692 130 693
3 694 14 695
3 696 695 130
3 694 695 696
3 698 697 14
3 699 15 700
3 701 191 702
3 192 703 705
3 703 191 704
3 703 704 705
3 192 31 191
3 706 192 707
3 193 708 710
3 708 192 709
3 708 709 710
3 193 31 192
3 193 141 31
3 183 141 193
3 183 11 141
3 194 711 712
3 195 713 715
3 715 714 194
3 713 714 715
3 195 716 717
3 84 718 720
3 718 195 719
3 718 719 720
3 196 195 84
3 196 721 723
3 723 722 195
3 721 722 723
3 196 724 726
3 724 146 725
3 724 725 726
3 197 146 196
3 197 16 146
3 198 199 7
3 200 199 198
3 200 34 199
3 87 200 33
3 201 200 87
3 201 34 200
3 201 727 729
3 729 728 34
3 727 728 729
3 202 730 732
3 732 731 201
3 730 731 732
3 202 733 734
3 202 735 736
3 738 737 202
3 89 739 741
3 741 740 35
3 739 740 741
3 743 742 89
3 203 204 12
3 205 204 203
3 205 37 204
3 92 205 36
3 206 205 92
3 206 37 205
3 206 154 37
3 207 154 206
3 207 17 154
3 744 208 745
3 746 208 747
3 749 748 208
3 209 750 751
3 209 752 754
3 752 18 753
3 752 753 754
3 210 211 10
3 212 211 210
3 212 40 211
3 95 212 39
3 213 212 95
3 213 40 212
3 213 166 40
3 214 166 213
3 214 755 757
3 757 756 166
3 755 756 757
3 214 758 759
3 215 760 762
3 762 761 214
3 760 761 762
3 215 763 764
3 97 215 41
3 216 215 97
3 216 765 767
3 767 766 215
3 765 766 767
3 216 768 770
3 768 169 769
3 768 769 770
3 194 169 216
3 194 771 773
3 773 772 169
3 771 772 773
3 217 218 0
3 219 218 217
3 219 43 218
3 99 219 42
3 220 219 99
3 220 43 219
3 220 127 43
3 221 127 220
3 221 5 127
3 170 100 4
3 222 100 170
3 222 44 100
3 774 222 775
3 223 776 778
3 776 222 777
3 776 777 778
3 223 44 222
3 223 221 44
3 224 221 223
3 224 5 221
3 224 188 5
3 225 188 224
3 225 29 188
3 779 225 780
3 781 780 45
3 779 780 781
3 782 225 783
3 784 29 785
3 786 785 225
3 784 785 786
3 788 787 29
3 171 789 790
3 226 791 793
3 793 792 171
3 791 792 793
3 226 794 796
3 794 795 796
3 797 226 798
3 799 798 19
3 797 798 799
3 800 226 801
3 803 802 226
3 103 804 805
3 227 806 808
3 808 807 103
3 806 807 808
3 227 809 810
3 227 811 813
3 811 82 812
3 811 812 813
3 217 82 227
3 217 0 82
3 228 229 2
3 230 229 228
3 230 47 229
3 105 230 46
3 231 230 105
3 231 47 230
3 231 147 47
3 232 147 231
3 232 7 147
3 174 106 6
3 233 106 174
3 233 48 106
3 108 233 21
3 234 233 108
3 234 48 233
3 234 232 48
3 235 232 234
3 235 7 232
3 235 198 7
3 236 198 235
3 236 33 198
3 110 236 49
3 237 236 110
3 237 33 236
3 237 86 33
3 238 86 237
3 238 3 86
3 239 240 1
3 241 240 239
3 241 52 240
3 814 241 815
3 816 815 51
3 814 815 816
3 817 241 818
3 819 52 820
3 821 820 241
3 819 820 821
3 823 822 52
3 824 53 825
3 114 826 827
3 242 828 830
3 830 829 114
3 828 829 830
3 242 831 833
3 831 53 832
3 831 832 833
3 242 163 53
3 243 163 242
3 243 10 163
3 181 115 9
3 244 115 181
3 244 54 115
3 117 244 25
3 245 244 117
3 245 54 244
3 245 243 54
3 246 243 245
3 246 10 243
3 246 210 10
3 247 210 246
3 247 39 210
3 118 247 55
3 834 247 835
3 836 835 118
3 834 835 836
3 837 39 838
3 839 838 247
3 837 838 839
3 840 94 841
3 842 841 39
3 840 841 842
3 228 843 845
3 843 94 844
3 843 844 845
3 228 2 94
3 846 248 847
3 249 848 850
3 848 248 849
3 848 849 850
3 249 57 248
3 120 249 56
3 250 249 120
3 250 57 249
3 250 151 57
3 251 151 250
3 251 12 151
3 184 121 11
3 252 121 184
3 252 58 121
3 123 252 27
3 253 252 123
3 253 58 252
3 253 251 58
3 254 251 253
3 254 12 251
3 254 203 12
3 255 203 254
3 255 36 203
3 125 255 59
3 256 255 125
3 256 36 255
3 256 91 36
3 851 91 852
3 853 852 256
3 851 852 853
3 854 1 855
3 856 855 91
3 854 855 856
3 218 81 0
3 257 81 218
3 257 28 81
3 128 257 43
3 258 257 128
3 258 28 257
3 258 187 28
3 259 187 258
3 259 13 187
3 189 129 5
3 260 129 189
3 260 60 129
3 131 260 30
3 261 260 131
3 261 60 260
3 261 259 60
3 262 259 261
3 262 13 259
3 262 126 13
3 263 126 262
3 263 857 859
3 859 858 126
3 857 858 859
3 133 263 61
3 264 263 133
3 264 860 862
3 862 861 263
3 860 861 862
3 264 863 864
3 265 865 867
3 867 866 264
3 865 866 867
3 265 868 870
3 868 1 869
3 868 869 870
3 265 239 1
3 266 239 265
3 266 51 239
3 135 266 62
3 871 266 872
3 873 872 135
3 871 872 873
3 874 51 875
3 876 875 266
3 874 875 876
3 878 877 51
3 879 136 880
3 881 880 14
3 879 880 881
3 882 136 883
3 884 63 885
3 886 885 136
3 884 885 886
3 137 887 888
3 890 889 137
3 891 63 892
3 894 893 63
3 139 895 896
3 267 897 899
3 899 898 139
3 897 898 899
3 267 900 901
3 267 902 903
3 268 904 906
3 906 905 267
3 904 905 906
3 268 907 908
3 191 909 910
3 269 911 913
3 913 912 191
3 911 912 913
3 269 914 915
3 916 269 917
3 918 917 31
3 916 917 918
3 919 269 920
3 922 921 269
3 270 923 924
3 270 925 927
3 925 23 926
3 925 926 927
3 143 928 930
3 928 270 929
3 928 929 930
3 271 270 143
3 271 23 270
3 271 76 23
3 931 76 932
3 933 932 271
3 931 932 933
3 935 934 76
3 272 936 937
3 272 938 939
3 272 940 941
3 943 942 272
3 944 15 945
3 273 946 947
3 273 948 950
3 948 15 949
3 948 949 950
3 273 140 15
3 274 140 273
3 274 64 140
3 144 951 953
3 951 274 952
3 951 952 953
3 275 274 144
3 275 64 274
3 275 268 64
3 276 268 275
3 276 954 956
3 956 955 268
3 954 955 956
3 957 145 958
3 277 959 961
3 959 145 960
3 959 960 961
3 277 65 145
3 962 277 963
3 964 277 965
3 966 65 967
3 968 967 277
3 966 967 968
3 969 276 970
3 971 970 65
3 969 970 971
3 972 276 973
3 975 974 276
3 229 85 2
3 278 85 229
3 278 32 85
3 148 278 47
3 279 278 148
3 279 32 278
3 279 197 32
3 280 197 279
3 280 16 197
3 199 149 7
3 281 149 199
3 281 66 149
3 150 281 34
3 282 281 150
3 282 66 281
3 282 280 66
3 283 280 282
3 283 16 280
3 283 976 978
3 978 977 16
3 976 977 978
3 980 979 283
3 248 981 983
3 981 75 982
3 981 982 983
3 284 75 248
3 284 22 75
3 152 284 57
3 285 284 152
3 285 22 284
3 285 177 22
3 286 177 285
3 286 8 177
3 204 153 12
3 287 153 204
3 287 67 153
3 155 287 37
3 288 287 155
3 288 67 287
3 288 286 67
3 289 286 288
3 289 8 286
3 289 111 8
3 290 111 289
3 290 50 111
3 157 290 68
3 291 290 157
3 291 50 290
3 291 238 50
3 292 238 291
3 292 3 238
3 240 93 1
3 293 93 240
3 293 38 93
3 984 293 985
3 986 985 52
3 984 985 986
3 294 987 989
3 987 293 988
3 987 988 989
3 294 38 293
3 294 207 38
3 295 207 294
3 295 17 207
3 208 990 991
3 296 992 994
3 994 993 208
3 992 993 994
3 296 995 996
3 159 997 999
3 997 296 998
3 997 998 999
3 297 296 159
3 297 1000 1002
3 1002 1001 296
3 1000 1001 1002
3 297 1003 1005
3 1003 295 1004
3 1003 1004 1005
3 298 295 297
3 298 17 295
3 298 158 17
3 1006 158 1007
3 1008 1007 298
3 1006 1007 1008
3 1009 69 1010
3 1011 1010 158
3 1009 1010 1011
3 1013 1012 70
3 299 1014 1015
3 299 1016 1018
3 1016 69 1017
3 1016 1017 1018
3 299 292 69
3 300 292 299
3 300 3 292
3 300 90 3
3 1019 90 1020
3 1021 1020 300
3 1019 1020 1021
3 1023 1022 90
3 161 1024 1025
3 301 1026 1028
3 1028 1027 161
3 1026 1027 1028
3 301 1029 1030
3 301 1031 1032
3 302 1033 1035
3 1035 1034 301
3 1033 1034 1035
3 302 1036 1037
3 1038 71 1039
3 303 1040 1041
3 303 1042 1044
3 1042 71 1043
3 1042 1043 1044
3 303 302 71
3 1045 302 1046
3 1047 1046 303
3 1045 1046 1047
3 1049 1048 302
3 164 1050 1052
3 1052 1051 53
3 1050 1051 1052
3 304 1053 1055
3 1055 1054 164
3 1053 1054 1055
3 304 1056 1057
3 304 1058 1060
3 1058 209 1059
3 1058 1059 1060
3 305 209 304
3 305 18 209
3 211 165 10
3 306 165 211
3 306 72 165
3 167 306 40
3 307 306 167
3 307 72 306
3 307 305 72
3 308 305 307
3 308 18 305
3 308 1061 1063
3 1063 1062 18
3 1061 1062 1063
3 1065 1064 308
3 1067 1066 73
