ply
format ascii 1.0
element vertex 440
property float x
property float y
property float z
element face 468
property list uchar int vertex_index
end_header
13.235356 -77.615211 3.935838
23.850031 -62.372517 0.716111
14.148265 -86.735428 5.326889
8.137102 -94.488602 -6.378899
13.607079 -69.85096 4.855626
7.467683 -76.748688 13.268069
17.129889 -69.586716 10.757395
25.370823 -65.773735 6.770793
15.318662 -82.607666 3.521816
9.303273 -86.63591 -2.152495
6.942643 -81.824097 1.222996
18.441662 -67.09568 1.967135
8.629592 -64.523483 6.062337
15.403229 -61.997822 1.949686
5.517215 -80.097343 10.089118
13.666918 -64.94709 8.916052
21.792517 -68.610626 8.070506
15.391484 -100.638214 -3.052694
18.055714 -95.311172 -1.847944
13.551805 -90.157272 5.096627
14.20892 -91.396156 -2.304151
10.166368 -90.510269 0.017028
5.341361 -91.273804 -5.88785
11.683062 -73.644707 6.71654
4.687854 -75.582359 6.275498
5.18889 -69.451881 8.565474
7.662585 -91.463661 5.955753
8.805176 -87.036789 8.270885
12.715975 -82.897232 10.420881
14.351248 -79.525986 11.187271
6.249587 -67.290207 12.239198
11.339453 -71.953651 14.796367
15.090848 -75.851242 11.087767
18.1675 -73.271744 7.588457
22.515503 -70.101219 4.47341
26.584808 -65.30545 3.214768
13.757098 -94.929642 -7.07373
14.567821 -80.066322 3.735574
11.53992 -81.933472 1.168362
10.567863 -79.703842 2.660654
21.520844 -65.048355 1.18872
16.551369 -64.539833 1.829775
19.954308 -62.610939 0.865828
14.795484 -95.917496 5.571429
16.619144 -96.985397 2.021325
17.071976 -94.138535 1.922864
13.153905 -88.880547 5.301359
12.824226 -89.669823 2.03176
11.863696 -88.302528 2.372102
5.437389 -86.086807 -2.934284
6.693694 -89.194733 -3.468853
4.244246 -87.926758 -5.666743
12.437319 -71.468018 6.249794
8.42621 -71.565369 7.546232
9.161593 -69.097687 6.964497
8.399851 -62.223145 5.654611
5.576772 -63.925159 7.154413
4.98511 -88.249107 6.836334
8.013021 -89.280228 6.537319
6.575374 -78.491135 11.514464
9.184733 -81.813171 10.584661
10.431349 -80.320236 12.15397
13.96454 -81.135765 10.853485
11.259763 -78.632912 13.631826
15.089912 -67.305359 9.752262
11.935061 -67.965698 11.798449
14.25828 -70.237633 13.101332
14.051874 -74.356606 14.21255
16.390041 -72.720505 12.129425
16.407406 -74.419754 9.761813
18.418472 -72.002335 9.78805
23.7544 -67.594887 7.271758
22.719219 -70.03318 6.657103
24.686413 -68.479568 5.745751
24.713118 -68.073891 3.766616
26.451294 -66.053551 5.222423
27.664759 -59.851341 5.130414
16.380558 -99.466896 -6.275008
10.930002 -93.049789 -4.615716
13.778654 -93.189072 -4.630778
10.533628 -95.087433 -6.486267
15.081311 -84.801254 4.163527
12.38904 -86.217987 1.26099
12.246796 -84.322433 0.011377
8.067522 -83.88736 -1.018684
4.371289 -83.150146 -1.169999
15.5603 -68.498352 3.276548
10.611067 -67.227676 5.371516
13.059855 -65.794174 3.517462
11.829158 -63.354675 3.833908
4.447532 -74.830223 12.687479
17.014278 -64.617943 8.116076
18.102867 -66.974243 8.130757
19.489902 -69.200897 9.170259
22.287424 -66.041481 6.980902
23.766058 -64.679222 7.041788
15.008357 -99.618942 1.048248
17.08848 -98.347588 -2.173337
17.776999 -97.035767 -5.891261
14.21924 -91.19043 4.924362
16.214819 -91.665565 1.485798
14.593358 -90.366867 1.524795
12.124449 -90.976837 -1.682239
8.921259 -92.343155 -3.697172
9.37027 -88.70256 -0.465391
7.617827 -91.390221 -2.494796
6.472978 -93.055244 -6.253065
11.799826 -75.433273 4.888944
8.731161 -76.73584 4.551662
7.892489 -74.301537 6.445817
4.674175 -72.539093 7.780322
6.387751 -66.666023 7.948505
3.854563 -66.781143 8.019246
7.956712 -94.115067 6.113735
11.435378 -92.774323 6.229304
10.99284 -90.946426 6.447468
10.980218 -89.403969 7.108703
12.217295 -87.540497 8.335517
7.617091 -83.473167 8.963877
10.656855 -84.758163 9.857283
14.188024 -85.270576 8.430216
15.488108 -83.210312 7.709748
15.771139 -81.00248 7.569533
15.499397 -79.070297 7.434721
3.68593 -70.13517 13.53974
5.824967 -71.798691 13.527641
10.09444 -65.708649 10.432497
8.531029 -69.421753 13.225763
8.81565 -74.280266 14.823871
12.296191 -76.517288 14.656458
14.654266 -77.824844 11.311036
14.743533 -77.152184 7.336391
14.058062 -75.535202 7.839879
14.954791 -73.583878 7.246197
16.367382 -72.257027 5.30223
20.411945 -70.972191 7.994306
20.131992 -71.808128 5.722185
18.314758 -70.803513 3.79654
20.944294 -69.065285 2.700394
23.689034 -66.831253 2.043202
25.641727 -64.000488 1.514669
24.531752 -62.625885 7.313623
26.324469 -63.203938 6.552237
27.666119 -63.088696 4.934371
27.804346 -62.222679 2.866104
16.74585 -92.647301 -2.136941
16.779602 -94.179886 -5.217992
5.623171 -78.839783 3.64022
16.050326 -93.691925 3.63412
15.93373 -95.028016 3.747146
14.91208 -94.581406 5.458403
3.926553 -86.154213 -5.185016
4.840817 -87.006782 -4.300514
4.523124 -85.234238 -3.818786
4.257499 -87.105507 -6.680515
3.926553 -86.154213 -5.185016
7.257835 -62.178875 5.444987
8.356964 -61.384472 4.83686
4.484392 -86.599323 7.983203
4.559751 -87.826161 7.993323
5.432544 -86.926823 7.239176
4.484392 -86.599323 7.983203
16.547626 -99.837445 -7.993314
16.585254 -98.915233 -7.742476
13.428207 -61.558872 2.854624
11.641172 -62.237299 3.796735
13.616193 -62.676248 2.891797
3.748857 -74.174644 13.581809
3.91385 -75.941223 12.50572
18.283162 -64.806454 7.992026
17.937432 -64.917168 9.289517
18.827457 -65.984604 7.999366
17.558573 -65.796093 8.123416
18.283162 -64.806454 7.992026
19.27428 -66.823357 7.715815
18.827457 -65.984604 7.999366
22.530875 -64.963715 7.453524
21.857948 -65.468518 7.338384
23.270192 -64.282585 7.483967
23.026741 -65.360352 7.011345
22.530875 -64.963715 7.453524
14.372231 -99.020782 2.885639
13.690495 -100.062466 2.428348
5.33491 -91.771523 -7.763712
5.900718 -92.662242 -7.946319
5.90717 -92.164524 -6.070457
4.175442 -69.804501 8.191618
3.918085 -71.348107 7.799042
4.931532 -70.995487 8.172898
4.194264 -65.722286 6.991062
4.715668 -65.353151 7.58683
5.055369 -64.294294 6.558646
3.736213 -67.321427 7.137748
4.194264 -65.722286 6.991062
7.809648 -92.789364 6.034744
6.436216 -92.626568 6.460142
6.289153 -91.300865 6.381151
6.567153 -81.785255 9.526497
5.95064 -82.82534 9.13158
4.900702 -81.137428 9.6942
4.967759 -68.712688 12.889469
4.501187 -68.576142 13.777072
5.783015 -67.15366 13.126801
11.880679 -65.327869 9.674274
11.62569 -64.9394 11.052253
13.411929 -64.558621 10.294031
23.607685 -61.359249 8.026753
23.852373 -62.39506 7.875815
26.274572 -61.734842 6.636737
25.322462 -61.716355 7.091166
26.945397 -61.677222 5.827804
26.995294 -63.146317 5.743304
26.274572 -61.734842 6.636737
27.861149 -60.718694 2.944057
27.734552 -61.03701 3.998259
27.791356 -59.533025 4.076213
27.329926 -61.506304 2.058306
27.861149 -60.718694 2.944057
15.515197 -101.281845 -3.307707
14.638093 -101.089676 -1.4558
15.129037 -95.35931 -7.868585
16.64029 -94.984432 -6.940715
15.26835 -94.554764 -6.145861
15.707314 -96.451447 3.796377
15.177624 -97.70401 3.372177
14.265794 -97.17006 5.147229
4.381394 -88.864498 -7.256757
4.929951 -90.538021 -7.367311
4.792803 -89.600281 -5.777297
4.381394 -88.864498 -7.256757
4.257499 -87.105507 -6.680515
5.846296 -63.029882 6.194888
6.988312 -63.074152 6.404512
7.257835 -62.178875 5.444987
5.055369 -64.294294 6.558646
5.846296 -63.029882 6.194888
4.950416 -89.693588 6.821441
4.559751 -87.826161 7.993323
6.323847 -89.856384 6.396043
6.289153 -91.300865 6.381151
4.950416 -89.693588 6.821441
6.9465 -87.442383 7.089669
6.499066 -88.764668 6.686827
5.432544 -86.926823 7.239176
7.342577 -86.320663 7.956452
8.409098 -88.158508 7.404102
6.9465 -87.442383 7.089669
7.760052 -66.267216 12.440936
5.783015 -67.15366 13.126801
26.165385 -58.684166 6.010619
26.944717 -60.058544 5.925826
26.839567 -58.348562 5.348889
26.165385 -58.684166 6.010619
27.791356 -59.533025 4.076213
26.839567 -58.348562 5.348889
16.338217 -100.309098 -6.515207
15.843681 -100.894756 -4.904051
15.886021 -100.052555 -4.663851
16.338217 -100.309098 -6.515207
16.547626 -99.837445 -7.993314
3.923367 -76.013294 5.141942
3.872832 -74.460125 6.380207
3.990074 -83.765907 -2.936643
4.523124 -85.234238 -3.818786
4.904339 -84.618476 -2.052141
9.926519 -61.671534 4.707086
10.114504 -62.78891 4.74426
11.641172 -62.237299 3.796735
8.356964 -61.384472 4.83686
9.926519 -61.671534 4.707086
4.66055 -79.732056 11.402579
4.900702 -81.137428 9.6942
4.448691 -78.574783 11.206539
4.66055 -79.732056 11.402579
4.977771 -77.771679 11.919213
6.046295 -79.294239 10.801791
4.448691 -78.574783 11.206539
5.511453 -76.660679 12.100971
4.977771 -77.771679 11.919213
3.91385 -75.941223 12.50572
15.013309 -64.703617 10.052924
13.411929 -64.558621 10.294031
16.686988 -64.539043 9.652936
17.937432 -64.917168 9.289517
15.340598 -64.782516 8.516064
15.013309 -64.703617 10.052924
16.686988 -64.539043 9.652936
19.967798 -67.936684 8.235566
18.796385 -68.08757 8.650508
19.27428 -66.823357 7.715815
21.119105 -67.641548 7.68569
20.64121 -68.905761 8.620382
19.967798 -67.936684 8.235566
21.366559 -66.356976 7.140887
21.857948 -65.468518 7.338384
22.039971 -67.326054 7.525704
21.119105 -67.641548 7.68569
21.366559 -66.356976 7.140887
14.44653 -100.58004 0.594671
13.690495 -100.062466 2.428348
15.199921 -100.128578 -1.002223
14.638093 -101.089676 -1.4558
14.44653 -100.58004 0.594671
15.81375 -98.30217 1.534787
14.372231 -99.020782 2.885639
15.177624 -97.70401 3.372177
17.283475 -97.699669 -7.550603
16.585254 -98.915233 -7.742476
17.078778 -98.251332 -6.083134
8.305479 -94.853557 -7.683954
7.354534 -94.224773 -7.730826
23.142198 -61.202931 0.451735
24.613943 -60.945914 0.524454
15.217029 -91.427998 3.20508
15.621747 -92.455441 3.415587
14.623958 -92.217873 5.134869
6.522473 -93.508094 -7.66791
7.354534 -94.224773 -7.730826
7.30504 -93.771923 -6.315982
6.522473 -93.508094 -7.66791
5.900718 -92.662242 -7.946319
5.33491 -91.771523 -7.763712
4.929951 -90.538021 -7.367311
3.865993 -72.938492 7.132619
3.872832 -74.460125 6.380207
4.681014 -74.060726 7.02791
3.865993 -72.938492 7.132619
3.918085 -71.348107 7.799042
3.508279 -68.469132 7.918504
4.175442 -69.804501 8.191618
4.521726 -68.116512 8.29236
3.508279 -68.469132 7.918504
3.736213 -67.321427 7.137748
21.194337 -61.322142 0.526594
21.902169 -62.491728 0.79097
23.142198 -61.202931 0.451735
19.404072 -61.286415 0.801054
21.194337 -61.322142 0.526594
17.128532 -60.979856 1.342982
17.678769 -62.304381 1.407757
19.404072 -61.286415 0.801054
15.061594 -60.983581 1.758637
17.128532 -60.979856 1.342982
13.428207 -61.558872 2.854624
15.061594 -60.983581 1.758637
13.256255 -96.589214 6.5345
14.265794 -97.17006 5.147229
13.358419 -95.4407 6.332703
13.256255 -96.589214 6.5345
14.91208 -94.581406 5.458403
13.358419 -95.4407 6.332703
6.656916 -93.914231 6.881334
6.436216 -92.626568 6.460142
8.221656 -95.047673 6.869065
6.656916 -93.914231 6.881334
9.939033 -94.539486 6.603856
8.221656 -95.047673 6.869065
11.678366 -93.869114 6.66164
9.939033 -94.539486 6.603856
9.696045 -93.444695 6.17152
13.232027 -93.009819 5.78734
11.678366 -93.869114 6.66164
12.827309 -91.982377 5.576833
14.623958 -92.217873 5.134869
13.232027 -93.009819 5.78734
6.748535 -84.538853 8.302948
5.95064 -82.82534 9.13158
8.211133 -85.254978 8.617381
7.342577 -86.320663 7.956452
6.748535 -84.538853 8.302948
3.400949 -69.978882 14.678585
4.501187 -68.576142 13.777072
3.368056 -71.827118 14.007939
3.400949 -69.978882 14.678585
4.066731 -72.482697 13.113609
3.748857 -74.174644 13.581809
3.368056 -71.827118 14.007939
9.682479 -65.476437 11.537586
11.62569 -64.9394 11.052253
8.172014 -66.499428 11.335847
7.760052 -66.267216 12.440936
9.682479 -65.476437 11.537586
23.469526 -63.421728 7.739898
23.270192 -64.282585 7.483967
24.148905 -63.652553 7.177706
23.469526 -63.421728 7.739898
23.852373 -62.39506 7.875815
24.426103 -61.427328 7.471859
23.607685 -61.359249 8.026753
25.428111 -62.914912 6.93293
24.426103 -61.427328 7.471859
25.322462 -61.716355 7.091166
27.665439 -61.470018 5.032393
26.945397 -61.677222 5.827804
26.944717 -60.058544 5.925826
26.248616 -62.395208 1.382588
26.723036 -63.111584 2.190386
27.329926 -61.506304 2.058306
25.352768 -61.581223 0.98331
24.745879 -63.186503 1.11539
26.248616 -62.395208 1.382588
24.613943 -60.945914 0.524454
25.352768 -61.581223 0.98331
15.515197 -101.281845 -3.307707
15.843681 -100.894756 -4.904051
16.643397 -92.90205 1.704331
16.050326 -93.691925 3.63412
15.621747 -92.455441 3.415587
17.138988 -96.412373 -7.27735
17.278301 -95.607827 -5.554626
16.64029 -94.984432 -6.940715
17.283475 -97.699669 -7.550603
17.138988 -96.412373 -7.27735
9.503742 -95.152973 -7.737638
9.335365 -94.788017 -6.432583
8.305479 -94.853557 -7.683954
10.864923 -95.649437 -7.745998
9.503742 -95.152973 -7.737638
12.476658 -95.570541 -8.03973
12.145363 -95.008538 -6.779998
10.864923 -95.649437 -7.745998
13.675577 -95.68768 -8.497036
12.476658 -95.570541 -8.03973
15.129037 -95.35931 -7.868585
13.675577 -95.68768 -8.497036
4.391025 -77.642006 3.824304
5.155513 -77.211071 4.957859
3.923367 -76.013294 5.141942
4.568889 -79.40384 2.507818
4.391025 -77.642006 3.824304
5.228625 -80.895996 1.299206
6.282907 -80.33194 2.431608
4.568889 -79.40384 2.507818
3.942948 -81.559021 0.102708
5.656966 -82.487122 0.026498
5.228625 -80.895996 1.299206
3.790334 -81.921623 -1.922945
3.942948 -81.559021 0.102708
3.990074 -83.765907 -2.936643
3.790334 -81.921623 -1.922945
3 0 39 37
3 1 42 40
3 148 45 149
3 150 149 43
3 148 149 150
3 2 48 46
3 151 51 152
3 153 152 49
3 151 152 153
3 155 154 51
3 4 54 52
3 157 156 55
3 158 57 159
3 161 160 57
3 5 61 59
3 5 63 61
3 6 66 64
3 6 68 66
3 6 70 68
3 7 73 71
3 7 75 73
3 163 162 77
3 3 80 78
3 8 83 81
3 10 84 38
3 10 85 84
3 11 88 86
3 13 89 41
3 13 164 166
3 166 165 89
3 164 165 166
3 167 90 168
3 169 91 170
3 171 92 172
3 173 172 91
3 171 172 173
3 175 174 92
3 176 94 177
3 178 95 179
3 180 179 94
3 178 179 180
3 181 96 182
3 18 97 44
3 18 98 97
3 19 101 99
3 21 102 47
3 21 103 102
3 9 104 82
3 22 105 50
3 22 106 105
3 22 183 185
3 185 184 106
3 183 184 185
3 23 109 107
3 25 110 53
3 25 186 188
3 188 187 110
3 186 187 188
3 12 111 87
3 189 112 190
3 191 190 56
3 189 190 191
3 193 192 112
3 26 194 196
3 194 113 195
3 194 195 196
3 26 114 113
3 26 115 114
3 27 116 58
3 27 117 116
3 14 197 199
3 197 118 198
3 197 198 199
3 28 119 60
3 28 120 119
3 28 121 120
3 29 122 62
3 29 123 122
3 30 200 202
3 200 124 201
3 200 201 202
3 30 125 124
3 15 203 205
3 203 126 204
3 203 204 205
3 31 127 65
3 31 128 127
3 31 129 128
3 32 130 67
3 32 131 130
3 32 132 131
3 33 133 69
3 33 134 133
3 16 135 93
3 34 136 72
3 34 137 136
3 34 138 137
3 35 139 74
3 35 140 139
3 206 141 207
3 208 142 209
3 210 143 211
3 212 211 142
3 210 211 212
3 213 144 214
3 215 214 76
3 213 214 215
3 217 216 144
3 17 218 219
3 20 145 100
3 36 146 79
3 36 220 222
3 222 221 146
3 220 221 222
3 24 147 108
3 37 38 8
3 39 38 37
3 39 10 38
3 40 41 11
3 42 41 40
3 42 13 41
3 43 223 225
3 223 44 224
3 223 224 225
3 45 44 43
3 45 18 44
3 46 47 19
3 48 47 46
3 48 21 47
3 49 50 9
3 51 50 49
3 51 22 50
3 51 226 228
3 228 227 22
3 226 227 228
3 230 229 51
3 52 53 23
3 54 53 52
3 54 25 53
3 55 56 12
3 231 56 232
3 233 232 55
3 231 232 233
3 235 234 56
3 57 236 237
3 57 238 240
3 238 26 239
3 238 239 240
3 57 58 26
3 241 58 242
3 243 242 57
3 241 242 243
3 244 27 245
3 246 245 58
3 244 245 246
3 59 60 14
3 61 60 59
3 61 28 60
3 61 62 28
3 63 62 61
3 63 29 62
3 247 30 248
3 64 65 15
3 66 65 64
3 66 31 65
3 66 67 31
3 68 67 66
3 68 32 67
3 68 69 32
3 70 69 68
3 70 33 69
3 71 72 16
3 73 72 71
3 73 34 72
3 73 74 34
3 75 74 73
3 75 35 74
3 249 76 250
3 251 76 252
3 254 253 76
3 77 255 257
3 257 256 17
3 255 256 257
3 259 258 77
3 78 79 20
3 80 79 78
3 80 36 79
3 261 260 24
3 81 82 2
3 83 82 81
3 83 9 82
3 38 83 8
3 84 83 38
3 84 9 83
3 84 49 9
3 85 49 84
3 85 262 264
3 264 263 49
3 262 263 264
3 86 87 4
3 88 87 86
3 88 12 87
3 41 88 11
3 89 88 41
3 89 12 88
3 89 55 12
3 265 55 266
3 267 266 89
3 265 266 267
3 269 268 55
3 270 14 271
3 272 14 273
3 274 59 275
3 276 275 14
3 274 275 276
3 90 277 279
3 277 59 278
3 277 278 279
3 90 5 59
3 280 15 281
3 91 282 283
3 91 284 286
3 284 15 285
3 284 285 286
3 91 64 15
3 92 64 91
3 92 6 64
3 92 93 6
3 287 93 288
3 289 288 92
3 287 288 289
3 290 16 291
3 292 291 93
3 290 291 292
3 94 293 294
3 94 295 297
3 295 16 296
3 295 296 297
3 94 71 16
3 95 71 94
3 95 7 71
3 96 298 299
3 96 300 302
3 300 17 301
3 300 301 302
3 44 303 305
3 303 96 304
3 303 304 305
3 97 96 44
3 97 17 96
3 97 77 17
3 98 77 97
3 98 306 308
3 308 307 77
3 306 307 308
3 310 309 3
3 312 311 1
3 99 313 315
3 313 100 314
3 313 314 315
3 101 100 99
3 101 20 100
3 47 101 19
3 102 101 47
3 102 20 101
3 102 78 20
3 103 78 102
3 103 3 78
3 82 48 2
3 104 48 82
3 104 21 48
3 50 104 9
3 105 104 50
3 105 21 104
3 105 103 21
3 106 103 105
3 106 3 103
3 106 316 318
3 318 317 3
3 316 317 318
3 320 319 106
3 322 321 22
3 107 108 0
3 109 108 107
3 109 24 108
3 53 109 23
3 110 109 53
3 110 24 109
3 110 323 325
3 325 324 24
3 323 324 325
3 327 326 110
3 87 54 4
3 111 54 87
3 111 25 54
3 56 111 12
3 112 111 56
3 112 25 111
3 112 328 330
3 330 329 25
3 328 329 330
3 332 331 112
3 333 42 334
3 335 334 1
3 333 334 335
3 336 42 337
3 338 13 339
3 340 339 42
3 338 339 340
3 341 13 342
3 344 343 13
3 345 43 346
3 347 43 348
3 350 349 43
3 113 351 352
3 113 353 354
3 113 355 356
3 114 357 359
3 359 358 113
3 357 358 359
3 114 360 361
3 114 362 364
3 362 99 363
3 362 363 364
3 115 99 114
3 115 19 99
3 58 115 26
3 116 115 58
3 116 19 115
3 116 46 19
3 117 46 116
3 117 2 46
3 118 365 366
3 118 367 369
3 367 27 368
3 367 368 369
3 60 118 14
3 119 118 60
3 119 27 118
3 119 117 27
3 120 117 119
3 120 2 117
3 120 81 2
3 121 81 120
3 121 8 81
3 62 121 28
3 122 121 62
3 122 8 121
3 122 37 8
3 123 37 122
3 123 0 37
3 124 370 371
3 124 372 373
3 124 374 376
3 374 90 375
3 374 375 376
3 125 90 124
3 125 5 90
3 126 377 378
3 126 379 381
3 379 30 380
3 379 380 381
3 65 126 15
3 127 126 65
3 127 30 126
3 127 125 30
3 128 125 127
3 128 5 125
3 128 63 5
3 129 63 128
3 129 29 63
3 67 129 31
3 130 129 67
3 130 29 129
3 130 123 29
3 131 123 130
3 131 0 123
3 131 107 0
3 132 107 131
3 132 23 107
3 69 132 32
3 133 132 69
3 133 23 132
3 133 52 23
3 134 52 133
3 134 4 52
3 93 70 6
3 135 70 93
3 135 33 70
3 72 135 16
3 136 135 72
3 136 33 135
3 136 134 33
3 137 134 136
3 137 4 134
3 137 86 4
3 138 86 137
3 138 11 86
3 74 138 34
3 139 138 74
3 139 11 138
3 139 40 11
3 140 40 139
3 140 1 40
3 382 95 383
3 141 384 386
3 384 95 385
3 384 385 386
3 141 7 95
3 387 141 388
3 142 389 391
3 389 141 390
3 389 390 391
3 142 7 141
3 142 75 7
3 143 75 142
3 143 35 75
3 76 392 394
3 392 143 393
3 392 393 394
3 144 143 76
3 144 35 143
3 144 140 35
3 395 140 396
3 397 396 144
3 395 396 397
3 398 1 399
3 400 399 140
3 398 399 400
3 402 401 1
3 404 403 17
3 100 405 407
3 405 45 406
3 405 406 407
3 145 45 100
3 145 18 45
3 79 145 20
3 146 145 79
3 146 18 145
3 146 98 18
3 408 98 409
3 410 409 146
3 408 409 410
3 412 411 98
3 413 80 414
3 415 414 3
3 413 414 415
3 416 80 417
3 418 36 419
3 420 419 80
3 418 419 420
3 421 36 422
3 424 423 36
3 108 39 0
3 147 39 108
3 147 10 39
3 425 147 426
3 427 426 24
3 425 426 427
3 428 147 429
3 430 10 431
3 432 431 147
3 430 431 432
3 433 85 434
3 435 434 10
3 433 434 435
3 436 85 437
3 439 438 85
