ply
format ascii 1.0
element vertex 707
property float x
property float y
property float z
element face 756
property list uchar int vertex_index
end_header
30.848059 -41.658264 -9.10967
13.095998 -66.81572 -1.829574
11.614829 -87.217422 -14.491617
20.176411 -52.133873 -3.75179
3.608859 -84.381668 -4.703288
23.137634 -54.669456 -7.328383
22.181896 -65.580978 -5.945244
3.292603 -71.172729 5.677165
8.314077 -60.545799 4.019109
13.021181 -50.708298 -4.633207
21.46343 -41.684174 -10.139471
16.252579 -92.14325 -7.444507
12.14441 -77.579788 -5.163699
21.521923 -75.684822 -8.814498
27.623236 -47.725513 -6.406181
29.030817 -53.360229 -5.436166
34.11821 -46.567783 -7.145434
35.58773 -40.037453 -10.727536
14.377161 -51.399517 -2.906875
16.270866 -45.393124 -6.865183
17.457512 -46.642895 -8.692416
18.325809 -39.614719 -9.924259
6.665343 -91.90419 -11.697693
10.577573 -94.339027 -9.153631
13.390966 -88.90416 -10.774277
19.734076 -86.762589 -8.413624
7.111006 -69.124901 1.086423
7.846055 -75.200119 1.429756
10.768865 -72.43 -4.190595
27.69253 -66.047287 -3.843082
26.237677 -71.39978 -4.703074
26.603161 -74.738655 -6.539982
26.022221 -56.714409 0.219223
21.176336 -57.243225 -0.463228
23.675079 -51.439137 -2.246953
5.644227 -88.575066 -9.611042
17.971243 -60.820324 -6.451553
16.886974 -64.568398 -7.978281
23.355349 -60.245155 -6.633048
28.801708 -59.746208 -4.565525
4.533965 -64.663429 5.962879
8.52588 -63.593788 0.932468
13.826004 -58.059013 0.477239
9.85705 -56.472637 -0.570724
13.512497 -58.419506 -3.045024
18.336185 -53.982994 -7.03905
22.668665 -49.089348 -8.076883
25.682804 -42.02763 -8.967398
14.851135 -95.929459 -12.01113
20.343464 -95.398079 -10.836092
3.055076 -77.473396 0.357184
6.647785 -81.232933 -4.964349
11.870362 -83.268494 -9.13796
15.872357 -71.385788 -7.365002
15.485402 -77.393143 -9.384769
16.799559 -81.046646 -12.90095
21.212111 -80.178635 -8.089446
29.650751 -44.507782 -7.267806
31.026165 -47.140026 -6.128822
32.881119 -43.949371 -7.648458
35.164604 -43.353062 -8.818398
33.499023 -40.893829 -9.652136
17.650902 -42.616814 -8.594313
8.52 -89.375137 -12.967174
12.610787 -88.608871 -13.223597
16.419945 -87.851418 -12.281256
15.986845 -86.57235 -14.296652
9.416753 -68.47905 -0.630451
8.7568 -71.572739 -1.312648
10.251268 -69.226624 -3.94765
26.698792 -68.948349 -3.803364
28.42868 -70.072258 -7.138322
25.386288 -53.606224 0.917271
24.552071 -54.149261 -0.887798
24.042273 -50.928173 -0.425939
4.518542 -89.802238 -8.846771
4.270753 -86.284256 -7.694286
20.728857 -58.092793 -8.066221
20.74824 -61.318523 -7.181046
23.48859 -57.737133 -6.724297
31.909643 -53.134388 -5.752928
29.120911 -56.544182 -5.1243
31.650568 -56.5424 -5.742208
6.115819 -62.134605 5.235364
6.278037 -63.872692 3.224838
7.234834 -61.500984 2.540991
20.546623 -54.713989 -2.019011
17.985582 -57.719658 -0.079369
17.432507 -55.435467 -1.785741
12.793694 -50.512451 -3.389733
11.727453 -53.686443 -1.190485
11.297328 -53.462139 -2.366058
10.821403 -57.111492 -2.169588
12.824722 -54.221386 -3.839513
16.056538 -55.74229 -4.782361
15.146973 -52.001293 -5.780439
20.141928 -45.02932 -9.792548
20.248119 -48.588364 -9.293489
22.406088 -45.597656 -9.064886
24.415485 -45.358955 -7.753175
23.38237 -42.018341 -9.399054
13.455881 -93.051735 -8.206812
12.914103 -95.289818 -10.397589
15.446045 -94.302933 -10.092286
17.313404 -95.766464 -11.774248
18.423746 -93.810585 -8.753936
21.630253 -92.985176 -7.935252
19.405235 -91.357849 -6.233488
3.057811 -73.337891 6.484916
3.15888 -76.444229 4.008387
3.348151 -74.415604 3.552177
10.907954 -77.025681 -2.163006
7.535387 -78.392662 -2.05865
10.152011 -80.245575 -4.194766
9.53725 -83.837173 -5.626222
12.722056 -80.954407 -6.109644
20.171621 -64.68792 -8.089123
16.063076 -67.810448 -8.339696
18.759745 -68.428185 -6.752524
18.982431 -75.976875 -10.379107
15.626033 -78.403519 -11.505387
19.303055 -78.224281 -10.935004
18.920935 -80.658401 -10.93099
21.017757 -78.079025 -8.161344
25.35479 -51.302349 -6.6126
26.036655 -54.093464 -6.082392
28.579142 -50.613297 -5.595867
31.861191 -50.030121 -5.690649
34.22752 -49.639553 -7.221313
11.453186 -61.119923 3.759561
20.237289 -48.84943 -5.47783
17.318125 -52.262798 -3.497442
17.75469 -49.005081 -5.290833
15.115715 -48.392467 -4.873515
14.332399 -47.945068 -5.657938
15.002833 -48.537285 -6.778013
16.018059 -45.497559 -7.73696
18.128054 -43.579914 -9.418846
19.671976 -40.903015 -10.331193
6.571967 -93.960945 -9.082754
8.473856 -95.218513 -8.989009
8.454633 -93.043655 -10.623713
11.001252 -91.110985 -9.376955
14.55773 -90.028625 -7.836212
17.556534 -89.11631 -7.155161
16.937733 -88.130341 -9.765662
19.543678 -86.276321 -11.021572
5.308291 -69.357903 4.164254
5.176373 -72.865646 3.800323
7.6774 -71.649437 2.399891
10.31481 -74.085129 -0.693337
12.438682 -74.684029 -3.996449
24.494148 -66.024773 -4.08727
20.767223 -69.336693 -4.58674
23.048454 -72.200623 -4.314656
23.275276 -73.519302 -6.173213
23.230541 -75.506104 -6.339564
26.316748 -73.079544 -5.814671
25.377855 -59.51931 0.332797
22.434366 -60.033344 0.187359
23.896828 -57.153328 -0.511663
22.754147 -54.417297 -1.800632
22.206715 -51.857536 -3.377765
21.928837 -48.563393 -4.715284
5.328459 -92.269241 -9.639573
5.738615 -90.322334 -11.459642
8.171844 -87.748306 -11.985571
16.606831 -63.582001 -3.530667
14.429799 -65.811432 -5.119411
17.725628 -63.499451 -6.835837
20.482534 -62.849159 -7.810074
23.087067 -62.391491 -6.664186
26.281437 -56.873268 -5.869414
26.07514 -59.670612 -5.513243
25.467718 -62.792809 -4.912715
28.475468 -62.937897 -4.168737
3.161995 -70.15712 7.817762
3.617863 -67.86171 6.256249
5.690864 -66.774933 3.924261
7.971761 -66.347214 1.418251
10.752316 -65.539932 -0.053782
18.853836 -59.961891 0.736279
14.719958 -59.969341 1.567588
10.732417 -59.369709 2.456944
14.045794 -54.74815 -1.195264
10.817337 -57.161388 0.469234
8.564497 -59.151447 1.694701
8.886656 -59.993004 -0.291252
10.988511 -61.568871 -1.535936
13.923697 -62.742561 -1.978348
16.72942 -59.828533 -4.110899
18.455471 -57.561291 -7.10263
20.697081 -55.097454 -8.326254
17.632797 -50.309677 -7.761919
20.381529 -52.01458 -8.550822
22.853731 -52.072426 -7.512959
25.087765 -48.622486 -6.738887
26.802485 -44.941208 -7.317198
28.244068 -41.986233 -8.958269
26.855505 -60.789928 1.250508
27.076696 -58.048271 1.418206
26.167917 -55.0289 2.272851
20.913517 -38.169132 -11.818542
23.238565 -38.756683 -11.369137
25.598934 -39.078075 -11.212531
28.183685 -39.148312 -11.319459
31.229061 -38.58955 -11.577894
33.54137 -37.672089 -12.015864
16.500977 -95.788979 -8.663439
11.196218 -96.211441 -9.00573
13.594055 -96.445717 -9.920341
15.744249 -97.103516 -11.326216
16.882772 -97.439476 -13.517729
19.557995 -97.07444 -13.520638
20.935724 -88.010094 -6.267229
3.514607 -79.967896 1.375416
3.209378 -80.6931 -2.675892
4.975203 -76.481125 0.444748
4.510722 -78.755234 -3.338886
4.258793 -82.030731 -6.1993
6.278972 -84.919785 -6.987583
8.806233 -86.613335 -8.793341
11.157851 -84.77626 -12.713068
12.265244 -68.148224 -6.783845
12.801183 -71.677643 -6.525044
13.571091 -74.361458 -6.294726
13.13238 -77.733032 -7.405377
12.9049 -81.109032 -12.395311
14.819575 -84.209244 -14.559975
18.093805 -83.316971 -13.510153
23.980585 -77.61911 -6.364484
23.573009 -50.819153 0.552694
24.714281 -52.267198 0.245666
24.245016 -52.158178 1.224299
3.926553 -86.154213 -5.185016
4.523124 -85.234238 -3.818786
3.939806 -85.332962 -6.198787
4.257499 -87.105507 -6.680515
3.926553 -86.154213 -5.185016
32.625612 -54.681307 -6.683035
31.780105 -54.838394 -5.747568
32.755149 -52.9773 -6.688395
32.272237 -56.326706 -6.853176
32.625612 -54.681307 -6.683035
7.214948 -61.340202 4.627237
7.257835 -62.178875 5.444987
8.356964 -61.384472 4.83686
20.252177 -75.830849 -9.596802
19.905718 -74.997467 -8.946533
21.175463 -74.85144 -8.164229
34.919912 -46.348869 -7.982894
34.974567 -47.884754 -8.020834
34.172865 -48.103668 -7.183374
36.153256 -41.329315 -10.680225
35.941693 -42.98712 -9.725656
35.376167 -41.695257 -9.772967
36.357597 -39.506006 -11.57291
36.153256 -41.329315 -10.680225
13.428207 -61.558872 2.854624
11.641172 -62.237299 3.796735
19.031484 -47.11948 -6.030349
18.99599 -48.927256 -5.384332
20.272784 -47.041654 -6.123847
15.69329 -46.892796 -5.869349
16.693264 -47.10301 -5.894293
17.27084 -45.603338 -6.890128
12.196109 -90.007573 -10.075616
10.292257 -90.695915 -10.666732
11.487113 -89.592503 -11.365392
19.368776 -85.910931 -11.980653
17.981811 -87.063869 -11.651414
17.806909 -86.698479 -12.610495
20.47192 -85.132587 -11.026454
19.368776 -85.910931 -11.980653
25.537881 -67.770675 -3.537751
23.93869 -67.759418 -3.659846
26.093339 -66.03603 -3.965176
28.309497 -70.776287 -7.627484
28.530454 -68.98927 -8.510383
21.241053 -46.665691 -4.441497
22.298876 -48.45915 -4.007921
21.436379 -46.581306 -5.12544
21.241053 -46.665691 -4.441497
5.33491 -91.771523 -7.763712
5.900718 -92.662242 -7.946319
4.175442 -69.804501 8.191618
3.918085 -71.348107 7.799042
4.194264 -65.722286 6.991062
5.055369 -64.294294 6.558646
4.075914 -66.262569 6.109564
3.736213 -67.321427 7.137748
4.194264 -65.722286 6.991062
27.386729 -60.002319 2.136259
27.329926 -61.506304 2.058306
27.861149 -60.718694 2.944057
27.497324 -58.63149 2.220109
26.9661 -59.4191 1.334357
27.386729 -60.002319 2.136259
24.855689 -54.038075 3.462229
26.318787 -55.573566 3.047778
24.839095 -53.493088 2.719183
24.855689 -54.038075 3.462229
20.320645 -36.594732 -12.472828
19.853257 -36.297405 -11.805792
21.48317 -36.888508 -12.248125
22.076041 -38.462908 -11.59384
20.320645 -36.594732 -12.472828
24.981969 -37.595331 -12.540173
23.73518 -37.39071 -12.454625
26.274344 -37.630449 -12.593637
26.891309 -39.113193 -11.265995
24.981969 -37.595331 -12.540173
30.793621 -36.993341 -12.945071
29.272381 -37.306683 -12.813805
31.949776 -36.534611 -13.164056
32.385216 -38.13082 -11.796879
30.793621 -36.993341 -12.945071
15.129037 -95.35931 -7.868585
16.64029 -94.984432 -6.940715
21.672264 -95.432926 -11.768859
21.279529 -96.271107 -13.111131
19.95073 -96.236259 -12.178365
22.158254 -94.365296 -10.536964
21.672264 -95.432926 -11.768859
23.368959 -91.621017 -8.396197
22.400669 -91.452621 -7.302178
19.324136 -70.815117 -5.187079
20.432054 -71.202416 -4.657856
15.659898 -76.126774 -8.457712
16.819135 -76.26001 -8.581312
14.308891 -77.563087 -8.395073
14.483387 -76.296718 -7.468016
15.659898 -76.126774 -8.457712
14.253734 -78.599659 -9.383834
13.077223 -78.769603 -8.394137
14.308891 -77.563087 -8.395073
20.886291 -81.240296 -9.667264
19.740704 -81.480178 -11.088036
20.066523 -80.418518 -9.510218
21.940765 -80.925316 -8.44123
20.886291 -81.240296 -9.667264
17.420517 -43.82007 -7.474976
17.27084 -45.603338 -6.890128
18.110535 -42.431916 -8.339541
16.960884 -44.004969 -7.729748
17.420517 -43.82007 -7.474976
17.851506 -40.725099 -8.815309
18.110535 -42.431916 -8.339541
18.18896 -39.224052 -9.480282
17.988355 -41.115766 -9.259286
17.851506 -40.725099 -8.815309
9.05163 -89.827991 -12.461841
8.124302 -91.092518 -11.827101
7.592671 -90.639663 -12.332434
11.097024 -89.444858 -12.590052
9.05163 -89.827991 -12.461841
10.565393 -88.992004 -13.095385
13.000877 -88.756516 -11.998937
11.487113 -89.592503 -11.365392
11.097024 -89.444858 -12.590052
17.59036 -86.058945 -13.618193
17.806909 -86.698479 -12.610495
16.203395 -87.211884 -13.288954
28.336225 -67.322899 -4.766592
27.195661 -67.497818 -3.823223
28.833094 -65.872368 -4.786451
27.843389 -68.529461 -5.029752
28.336225 -67.322899 -4.766592
27.612831 -69.755177 -5.479607
26.468235 -70.174065 -4.253219
27.843389 -68.529461 -5.029752
28.708333 -69.091416 -6.697231
27.333179 -70.736019 -5.920698
27.612831 -69.755177 -5.479607
28.807104 -68.148915 -8.370059
28.708333 -69.091416 -6.697231
28.530454 -68.98927 -8.510383
28.807104 -68.148915 -8.370059
4.381394 -88.864498 -7.256757
4.929951 -90.538021 -7.367311
4.394647 -88.043247 -8.270529
4.381394 -88.864498 -7.256757
4.257499 -87.105507 -6.680515
31.447341 -58.179964 -5.681031
30.022911 -59.781868 -5.092689
30.226138 -58.144304 -5.153866
31.447341 -58.179964 -5.681031
32.272237 -56.326706 -6.853176
5.846296 -63.029882 6.194888
7.257835 -62.178875 5.444987
5.324892 -63.399017 5.599121
5.055369 -64.294294 6.558646
5.846296 -63.029882 6.194888
21.28816 -90.638958 -6.451296
22.400669 -91.452621 -7.302178
20.517744 -92.171513 -7.08437
21.223613 -86.339451 -8.261989
20.814748 -85.894253 -9.085878
3.108345 -74.89106 5.246652
3.923367 -76.013294 5.141942
3.872832 -74.460125 6.380207
18.56765 -75.551876 -9.078481
19.905718 -74.997467 -8.946533
17.233916 -76.685009 -9.881938
16.819135 -76.26001 -8.581312
18.56765 -75.551876 -9.078481
27.112496 -75.40324 -6.956039
27.618951 -73.834873 -7.868461
3.990074 -83.765907 -2.936643
4.523124 -85.234238 -3.818786
33.914088 -51.229883 -7.422588
32.755149 -52.9773 -6.688395
33.068582 -51.386971 -6.48712
34.626718 -49.347416 -8.264305
33.914088 -51.229883 -7.422588
34.626718 -49.347416 -8.264305
34.974567 -47.884754 -8.020834
35.443109 -44.741509 -8.819377
34.919912 -46.348869 -7.982894
34.641407 -44.960422 -7.981916
35.443109 -44.741509 -8.819377
35.941693 -42.98712 -9.725656
9.926519 -61.671534 4.707086
11.641172 -62.237299 3.796735
9.883631 -60.832861 3.889335
8.356964 -61.384472 4.83686
9.926519 -61.671534 4.707086
18.012752 -47.409317 -6.102953
19.031484 -47.11948 -6.030349
16.435202 -48.698774 -5.082174
18.012752 -47.409317 -6.102953
16.693264 -47.10301 -5.894293
7.522911 -94.589729 -9.035881
8.305479 -94.853557 -7.683954
7.354534 -94.224773 -7.730826
9.018947 -91.66225 -11.290111
7.559988 -92.473923 -11.160703
8.124302 -91.092518 -11.827101
9.727942 -92.07732 -10.000334
9.018947 -91.66225 -11.290111
10.292257 -90.695915 -10.666732
20.719549 -85.651119 -10.389852
20.814748 -85.894253 -9.085878
19.638877 -86.519455 -9.717598
20.719549 -85.651119 -10.389852
20.47192 -85.132587 -11.026454
22.075228 -69.415379 -3.90958
22.630685 -67.680733 -4.337005
23.93869 -67.759418 -3.659846
20.432054 -71.202416 -4.657856
22.075228 -69.415379 -3.90958
25.041012 -69.221206 -3.517893
25.537881 -67.770675 -3.537751
27.195661 -67.497818 -3.823223
23.215843 -70.847343 -3.773538
25.041012 -69.221206 -3.517893
24.873623 -70.574486 -4.05901
21.572669 -72.63438 -4.521814
23.215843 -70.847343 -3.773538
21.938729 -73.109341 -5.914307
21.572669 -72.63438 -4.521814
22.05214 -73.76868 -6.843586
21.938729 -73.109341 -5.914307
23.161865 -72.859962 -5.243934
22.3986 -74.602062 -7.493856
21.175463 -74.85144 -8.164229
22.05214 -73.76868 -6.843586
27.253531 -72.27993 -6.965658
27.372714 -71.575901 -6.476496
28.309497 -70.776287 -7.627484
27.396737 -73.109486 -7.328314
26.459955 -73.909099 -6.177326
27.253531 -72.27993 -6.965658
27.618951 -73.834873 -7.868461
27.396737 -73.109486 -7.328314
23.906111 -59.776327 0.260078
23.142198 -61.202931 0.451735
24.613943 -60.945914 0.524454
22.790411 -49.756674 -0.188682
23.573009 -50.819153 0.552694
23.301755 -49.66625 -1.042693
22.790411 -49.756674 -0.188682
23.118158 -49.921732 -1.9532
23.858676 -51.183655 -1.336446
23.301755 -49.66625 -1.042693
23.171997 -49.897023 -2.773756
23.118158 -49.921732 -1.9532
22.437815 -50.106222 -3.339162
22.940897 -51.648336 -2.812359
23.171997 -49.897023 -2.773756
22.067776 -50.210465 -4.046525
22.437815 -50.106222 -3.339162
22.298876 -48.45915 -4.007921
20.590604 -46.724325 -5.506713
21.083063 -48.706412 -5.096557
21.436379 -46.581306 -5.12544
20.272784 -47.041654 -6.123847
20.590604 -46.724325 -5.506713
6.522473 -93.508094 -7.66791
7.354534 -94.224773 -7.730826
5.950213 -93.115093 -9.361163
6.522473 -93.508094 -7.66791
5.900718 -92.662242 -7.946319
4.9235 -91.03574 -9.243172
5.33491 -91.771523 -7.763712
4.929951 -90.538021 -7.367311
29.859791 -61.377713 -4.894295
28.638588 -61.342053 -4.367131
30.022911 -59.781868 -5.092689
29.59541 -62.945019 -4.9023
29.859791 -61.377713 -4.894295
29.203941 -64.499714 -4.739473
28.083999 -64.492592 -4.005909
29.59541 -62.945019 -4.9023
28.833094 -65.872368 -4.786451
29.203941 -64.499714 -4.739473
3.865993 -72.938492 7.132619
3.872832 -74.460125 6.380207
3.109903 -71.747506 7.151339
3.865993 -72.938492 7.132619
3.918085 -71.348107 7.799042
3.508279 -68.469132 7.918504
4.175442 -69.804501 8.191618
3.389929 -69.009415 7.037006
3.508279 -68.469132 7.918504
3.736213 -67.321427 7.137748
21.194337 -61.322142 0.526594
23.142198 -61.202931 0.451735
19.404072 -61.286415 0.801054
21.194337 -61.322142 0.526594
20.644101 -59.997618 0.461819
17.128532 -60.979856 1.342982
19.404072 -61.286415 0.801054
15.061594 -60.983581 1.758637
17.128532 -60.979856 1.342982
16.786897 -59.965616 1.151933
13.086572 -60.544632 2.663575
13.428207 -61.558872 2.854624
15.061594 -60.983581 1.758637
26.248616 -62.395208 1.382588
27.329926 -61.506304 2.058306
25.352768 -61.581223 0.98331
26.248616 -62.395208 1.382588
26.11668 -60.154619 0.791652
24.613943 -60.945914 0.524454
25.352768 -61.581223 0.98331
26.773176 -57.083252 2.620455
27.497324 -58.63149 2.220109
26.622307 -56.538585 1.845529
26.773176 -57.083252 2.620455
26.318787 -55.573566 3.047778
24.448281 -52.78175 2.041392
25.777102 -54.317562 1.595061
24.839095 -53.493088 2.719183
23.307009 -51.333704 2.348421
24.245016 -52.158178 1.224299
24.448281 -52.78175 2.041392
18.099474 -37.900404 -9.431892
18.18896 -39.224052 -9.480282
17.962625 -37.509737 -8.987915
18.142509 -38.076895 -10.193848
18.099474 -37.900404 -9.431892
18.815593 -38.721043 -10.397315
18.998893 -40.258867 -10.127726
18.142509 -38.076895 -10.193848
19.348055 -39.132885 -10.939115
18.815593 -38.721043 -10.397315
20.243782 -39.523465 -10.843254
20.567703 -41.293594 -10.235332
19.348055 -39.132885 -10.939115
19.968826 -37.765943 -11.68279
19.853257 -36.297405 -11.805792
21.188474 -39.926653 -10.979007
20.243782 -39.523465 -10.843254
19.968826 -37.765943 -11.68279
22.554996 -37.230015 -12.532927
21.48317 -36.888508 -12.248125
24.41875 -38.917379 -11.290834
22.554996 -37.230015 -12.532927
23.73518 -37.39071 -12.454625
27.749693 -37.586063 -12.684587
26.274344 -37.630449 -12.593637
29.706373 -38.868931 -11.448677
27.749693 -37.586063 -12.684587
29.272381 -37.306683 -12.813805
33.034294 -36.054533 -13.412964
31.949776 -36.534611 -13.164056
34.526442 -37.05546 -12.491962
33.034294 -36.054533 -13.412964
35.549622 -38.238142 -11.847798
34.56455 -38.854771 -11.3717
34.526442 -37.05546 -12.491962
36.357597 -39.506006 -11.57291
35.549622 -38.238142 -11.847798
17.138988 -96.412373 -7.27735
16.64029 -94.984432 -6.940715
16.645464 -97.076275 -8.936692
17.283475 -97.699669 -7.550603
17.138988 -96.412373 -7.27735
9.503742 -95.152973 -7.737638
8.305479 -94.853557 -7.683954
10.864923 -95.649437 -7.745998
9.503742 -95.152973 -7.737638
9.835037 -95.714977 -8.997369
12.476658 -95.570541 -8.03973
10.864923 -95.649437 -7.745998
13.675577 -95.68768 -8.497036
12.476658 -95.570541 -8.03973
12.395136 -96.328579 -9.463036
15.047516 -96.117348 -9.29189
15.129037 -95.35931 -7.868585
13.675577 -95.68768 -8.497036
16.2671 -97.733543 -10.26808
16.645464 -97.076275 -8.936692
16.122613 -96.446247 -9.994827
16.415765 -98.096001 -11.796631
16.2671 -97.733543 -10.26808
16.985027 -98.263981 -12.892387
16.415765 -98.096001 -11.796631
16.31351 -97.271496 -12.421972
17.97947 -98.193176 -13.864328
16.985027 -98.263981 -12.892387
19.317082 -98.010659 -13.865782
17.97947 -98.193176 -13.864328
18.220383 -97.256958 -13.519184
20.923673 -97.235733 -14.038507
20.68276 -98.171952 -14.383651
19.317082 -98.010659 -13.865782
20.923673 -97.235733 -14.038507
21.279529 -96.271107 -13.111131
22.801649 -93.158844 -9.086545
22.158254 -94.365296 -10.536964
20.986859 -94.191627 -9.385672
22.801649 -93.158844 -9.086545
23.368959 -91.621017 -8.396197
22.053404 -88.96508 -6.468167
21.28816 -90.638958 -6.451296
20.170479 -89.683971 -6.250359
21.824437 -86.963203 -7.188791
20.3349 -87.386342 -7.340427
21.223613 -86.339451 -8.261989
22.572745 -87.457116 -7.239847
21.824437 -86.963203 -7.188791
22.053404 -88.96508 -6.468167
22.572745 -87.457116 -7.239847
4.391025 -77.642006 3.824304
3.923367 -76.013294 5.141942
4.568889 -79.40384 2.507818
4.391025 -77.642006 3.824304
3.336743 -78.206063 2.691902
5.228625 -80.895996 1.299206
4.568889 -79.40384 2.507818
3.942948 -81.559021 0.102708
5.228625 -80.895996 1.299206
3.790334 -81.921623 -1.922945
3.942948 -81.559021 0.102708
3.361992 -80.330498 -0.650238
3.409118 -82.537384 -3.68959
3.990074 -83.765907 -2.936643
3.790334 -81.921623 -1.922945
18.320397 -70.360863 -6.26997
19.763484 -68.882439 -5.669632
19.324136 -70.815117 -5.187079
16.876703 -71.839664 -6.576209
17.316051 -69.906987 -7.058763
18.320397 -70.360863 -6.26997
15.853375 -73.123097 -7.447828
16.876703 -71.839664 -6.576209
14.702742 -74.610931 -6.912691
14.721724 -72.873623 -6.829864
15.853375 -73.123097 -7.447828
13.351736 -76.047245 -6.850051
14.702742 -74.610931 -6.912691
14.483387 -76.296718 -7.468016
12.872061 -80.380291 -7.746271
12.927218 -79.343719 -6.757511
13.077223 -78.769603 -8.394137
12.446214 -81.537335 -9.260429
12.296209 -82.111451 -7.623802
12.872061 -80.380291 -7.746271
14.32405 -79.104847 -10.444143
14.253734 -78.599659 -9.383834
15.555718 -77.898331 -10.445078
12.963483 -80.457604 -10.889105
14.32405 -79.104847 -10.444143
14.265466 -79.756276 -11.950349
12.387631 -82.188763 -10.766635
12.446214 -81.537335 -9.260429
12.963483 -80.457604 -10.889105
18.643839 -84.431255 -13.224944
17.59036 -86.058945 -13.618193
17.040325 -84.94466 -13.903403
19.327139 -82.809463 -12.377617
18.50737 -81.987686 -12.220572
19.740704 -81.480178 -11.088036
18.643839 -84.431255 -13.224944
19.327139 -82.809463 -12.377617
25.801209 -76.843468 -6.86829
25.291873 -76.178883 -6.452233
27.112496 -75.40324 -6.956039
24.489657 -78.387367 -6.725924
25.801209 -76.843468 -6.86829
23.105421 -79.66713 -7.588405
22.596348 -78.898873 -7.226965
24.489657 -78.387367 -6.725924
21.940765 -80.925316 -8.44123
23.105421 -79.66713 -7.588405
3 0 59 57
3 0 61 59
3 2 64 63
3 2 66 64
3 1 69 67
3 231 74 232
3 233 232 72
3 231 232 233
3 4 234 235
3 4 236 238
3 236 76 237
3 236 237 238
3 5 79 77
3 239 82 240
3 241 240 80
3 239 240 241
3 243 242 82
3 8 244 246
3 244 83 245
3 244 245 246
3 8 85 83
3 3 88 86
3 9 91 89
3 9 93 91
3 9 95 93
3 10 98 96
3 10 100 98
3 11 103 101
3 11 105 103
3 11 107 105
3 7 110 108
3 12 113 111
3 12 115 113
3 6 118 116
3 13 247 249
3 247 119 248
3 247 248 249
3 13 121 119
3 13 123 121
3 14 126 124
3 16 127 58
3 16 128 127
3 16 250 252
3 252 251 128
3 250 251 252
3 17 253 255
3 255 254 60
3 253 254 255
3 17 256 257
3 258 129 259
3 260 132 261
3 262 261 130
3 260 261 262
3 19 263 265
3 263 133 264
3 263 264 265
3 19 134 133
3 19 136 134
3 21 137 62
3 21 138 137
3 22 141 139
3 24 266 268
3 266 142 267
3 266 267 268
3 24 143 142
3 24 145 143
3 269 146 270
3 271 270 65
3 269 270 271
3 273 272 146
3 26 149 147
3 28 150 68
3 28 151 150
3 29 274 276
3 276 275 152
3 274 275 276
3 30 154 70
3 30 155 154
3 30 157 155
3 278 277 71
3 32 160 158
3 34 161 73
3 34 162 161
3 279 163 280
3 282 281 163
3 283 164 284
3 35 165 75
3 35 166 165
3 36 169 167
3 38 170 78
3 38 171 170
3 15 172 125
3 39 173 81
3 39 174 173
3 39 175 174
3 285 176 286
3 40 287 288
3 40 289 291
3 289 177 290
3 289 290 291
3 40 178 177
3 41 179 84
3 41 180 179
3 33 181 159
3 42 182 87
3 42 183 182
3 18 184 131
3 43 185 90
3 43 186 185
3 43 187 186
3 44 188 92
3 44 189 188
3 44 190 189
3 45 191 94
3 45 192 191
3 20 193 135
3 46 194 97
3 46 195 194
3 46 196 195
3 47 197 99
3 47 198 197
3 292 199 293
3 292 293 294
3 295 200 296
3 297 296 199
3 295 296 297
3 298 201 299
3 301 300 201
3 302 202 303
3 304 203 305
3 306 305 202
3 304 305 306
3 307 204 308
3 309 205 310
3 311 310 204
3 309 310 311
3 312 206 313
3 314 207 315
3 316 315 206
3 314 315 316
3 317 208 318
3 23 209 140
3 48 210 102
3 48 211 210
3 48 212 211
3 49 213 104
3 49 319 321
3 321 320 213
3 319 320 321
3 49 322 323
3 325 324 106
3 25 214 144
3 50 215 109
3 50 216 215
3 27 217 148
3 51 218 112
3 51 219 218
3 51 220 219
3 52 221 114
3 52 222 221
3 37 223 168
3 53 224 117
3 53 225 224
3 327 326 153
3 54 328 329
3 54 330 332
3 330 226 331
3 330 331 332
3 54 333 335
3 335 334 226
3 333 334 335
3 55 227 120
3 55 228 227
3 55 229 228
3 56 336 338
3 338 337 122
3 336 337 338
3 56 339 340
3 31 230 156
3 57 58 14
3 59 58 57
3 59 16 58
3 59 60 16
3 61 60 59
3 61 17 60
3 341 19 342
3 343 62 344
3 345 344 19
3 343 344 345
3 346 62 347
3 348 21 349
3 350 349 62
3 348 349 350
3 63 351 353
3 353 352 22
3 351 352 353
3 64 354 356
3 356 355 63
3 354 355 356
3 64 357 359
3 357 24 358
3 357 358 359
3 64 65 24
3 66 65 64
3 66 360 362
3 362 361 65
3 360 361 362
3 67 68 26
3 69 68 67
3 69 28 68
3 363 70 364
3 365 364 29
3 363 364 365
3 366 70 367
3 368 30 369
3 370 369 70
3 368 369 370
3 371 71 372
3 373 372 30
3 371 372 373
3 374 71 375
3 377 376 71
3 72 73 32
3 74 73 72
3 74 34 73
3 378 75 379
3 76 380 382
3 380 75 381
3 380 381 382
3 76 35 75
3 77 78 36
3 79 78 77
3 79 38 78
3 80 81 15
3 82 81 80
3 82 39 81
3 82 383 385
3 385 384 39
3 383 384 385
3 387 386 82
3 83 388 389
3 83 390 392
3 390 40 391
3 390 391 392
3 83 84 40
3 85 84 83
3 85 41 84
3 86 87 33
3 88 87 86
3 88 42 87
3 89 90 18
3 91 90 89
3 91 43 90
3 91 92 43
3 93 92 91
3 93 44 92
3 93 94 44
3 95 94 93
3 95 45 94
3 96 97 20
3 98 97 96
3 98 46 97
3 98 99 46
3 100 99 98
3 100 47 99
3 101 102 23
3 103 102 101
3 103 48 102
3 103 104 48
3 105 104 103
3 105 49 104
3 105 106 49
3 107 106 105
3 107 393 395
3 395 394 106
3 393 394 395
3 397 396 25
3 108 398 400
3 398 109 399
3 398 399 400
3 110 109 108
3 110 50 109
3 111 112 27
3 113 112 111
3 113 51 112
3 113 114 51
3 115 114 113
3 115 52 114
3 116 117 37
3 118 117 116
3 118 53 117
3 119 401 402
3 119 403 405
3 403 54 404
3 403 404 405
3 119 120 54
3 121 120 119
3 121 55 120
3 121 122 55
3 123 122 121
3 123 56 122
3 407 406 31
3 408 4 409
3 124 125 5
3 126 125 124
3 126 15 125
3 58 126 14
3 127 126 58
3 127 15 126
3 127 80 15
3 128 80 127
3 128 410 412
3 412 411 80
3 410 411 412
3 128 413 414
3 416 415 128
3 60 417 419
3 419 418 16
3 417 418 419
3 421 420 60
3 129 422 423
3 129 424 426
3 424 8 425
3 424 425 426
3 130 131 3
3 132 131 130
3 132 18 131
3 427 132 428
3 133 429 431
3 429 132 430
3 429 430 431
3 133 18 132
3 133 89 18
3 134 89 133
3 134 9 89
3 134 135 9
3 136 135 134
3 136 20 135
3 62 136 19
3 137 136 62
3 137 20 136
3 137 96 20
3 138 96 137
3 138 10 96
3 139 432 434
3 432 140 433
3 432 433 434
3 141 140 139
3 141 23 140
3 435 141 436
3 437 436 22
3 435 436 437
3 142 438 440
3 438 141 439
3 438 439 440
3 142 23 141
3 142 101 23
3 143 101 142
3 143 11 101
3 143 144 11
3 145 144 143
3 145 25 144
3 65 145 24
3 146 145 65
3 146 25 145
3 146 441 443
3 443 442 25
3 441 442 443
3 445 444 146
3 147 148 7
3 149 148 147
3 149 27 148
3 68 149 26
3 150 149 68
3 150 27 149
3 150 111 27
3 151 111 150
3 151 12 111
3 152 153 6
3 446 153 447
3 448 447 152
3 446 447 448
3 450 449 153
3 70 451 453
3 453 452 29
3 451 452 453
3 154 454 456
3 456 455 70
3 454 455 456
3 154 457 458
3 154 459 460
3 155 461 463
3 463 462 154
3 461 462 463
3 155 464 466
3 464 13 465
3 464 465 466
3 155 156 13
3 157 156 155
3 157 31 156
3 71 157 30
3 467 157 468
3 469 468 71
3 467 468 469
3 470 31 471
3 472 471 157
3 470 471 472
3 474 473 31
3 158 475 477
3 475 159 476
3 475 476 477
3 160 159 158
3 160 33 159
3 73 160 32
3 161 160 73
3 161 33 160
3 161 86 33
3 162 86 161
3 162 3 86
3 478 74 479
3 480 74 481
3 482 34 483
3 484 483 74
3 482 483 484
3 485 34 486
3 487 162 488
3 489 488 34
3 487 488 489
3 163 490 492
3 490 162 491
3 490 491 492
3 163 3 162
3 163 130 3
3 493 130 494
3 495 494 163
3 493 494 495
3 497 496 130
3 498 139 499
3 164 500 502
3 500 139 501
3 500 501 502
3 164 22 139
3 75 503 505
3 503 164 504
3 503 504 505
3 165 164 75
3 165 22 164
3 165 63 22
3 166 63 165
3 166 2 63
3 167 168 1
3 169 168 167
3 169 37 168
3 78 169 36
3 170 169 78
3 170 37 169
3 170 116 37
3 171 116 170
3 171 6 116
3 125 79 5
3 172 79 125
3 172 38 79
3 81 172 15
3 173 172 81
3 173 38 172
3 173 171 38
3 174 171 173
3 174 6 171
3 174 152 6
3 175 152 174
3 175 29 152
3 506 175 507
3 508 507 39
3 506 507 508
3 509 175 510
3 511 29 512
3 513 512 175
3 511 512 513
3 515 514 29
3 516 108 517
3 176 518 520
3 518 108 519
3 518 519 520
3 176 7 108
3 521 176 522
3 177 523 525
3 523 176 524
3 523 524 525
3 177 7 176
3 177 147 7
3 178 147 177
3 178 26 147
3 84 178 40
3 179 178 84
3 179 26 178
3 179 67 26
3 180 67 179
3 180 1 67
3 159 526 527
3 181 528 530
3 530 529 159
3 528 529 530
3 181 531 532
3 87 181 33
3 182 181 87
3 182 533 535
3 535 534 181
3 533 534 535
3 182 536 538
3 536 129 537
3 536 537 538
3 183 129 182
3 183 8 129
3 131 88 3
3 184 88 131
3 184 42 88
3 90 184 18
3 185 184 90
3 185 42 184
3 185 183 42
3 186 183 185
3 186 8 183
3 186 85 8
3 187 85 186
3 187 41 85
3 92 187 43
3 188 187 92
3 188 41 187
3 188 180 41
3 189 180 188
3 189 1 180
3 189 167 1
3 190 167 189
3 190 36 167
3 94 190 44
3 191 190 94
3 191 36 190
3 191 77 36
3 192 77 191
3 192 5 77
3 135 95 9
3 193 95 135
3 193 45 95
3 97 193 20
3 194 193 97
3 194 45 193
3 194 192 45
3 195 192 194
3 195 5 192
3 195 124 5
3 196 124 195
3 196 14 124
3 99 196 46
3 197 196 99
3 197 14 196
3 197 57 14
3 198 57 197
3 198 0 57
3 199 539 540
3 199 541 542
3 199 543 545
3 543 158 544
3 543 544 545
3 200 158 199
3 200 32 158
3 546 200 547
3 201 548 550
3 548 200 549
3 548 549 550
3 201 32 200
3 201 72 32
3 551 72 552
3 553 552 201
3 551 552 553
3 556 555 72
3 554 555 556
3 557 21 558
3 557 558 559
3 560 21 561
3 562 138 563
3 564 563 21
3 562 563 564
3 565 138 566
3 567 10 568
3 569 568 138
3 567 568 569
3 202 570 571
3 202 572 574
3 572 10 573
3 572 573 574
3 202 100 10
3 203 100 202
3 203 47 100
3 575 203 576
3 204 577 579
3 577 203 578
3 577 578 579
3 204 47 203
3 204 198 47
3 205 198 204
3 205 0 198
3 580 205 581
3 206 582 584
3 582 205 583
3 582 583 584
3 206 0 205
3 206 61 0
3 207 61 206
3 207 17 61
3 585 207 586
3 587 207 588
3 589 17 590
3 591 590 207
3 589 590 591
3 593 592 17
3 208 594 595
3 208 596 598
3 596 597 598
3 140 599 600
3 209 601 603
3 603 602 140
3 601 602 603
3 209 604 605
3 102 209 23
3 210 209 102
3 210 606 608
3 608 607 209
3 606 607 608
3 210 609 611
3 609 208 610
3 609 610 611
3 211 208 210
3 211 612 614
3 614 613 208
3 612 613 614
3 211 615 616
3 212 617 619
3 619 618 211
3 617 618 619
3 212 620 621
3 104 212 48
3 213 212 104
3 213 622 624
3 624 623 212
3 622 623 624
3 213 625 627
3 625 626 627
3 629 628 213
3 106 630 632
3 632 631 49
3 630 631 632
3 634 633 106
3 144 107 11
3 214 107 144
3 214 635 637
3 637 636 107
3 635 636 637
3 638 214 639
3 640 639 25
3 638 639 640
3 641 214 642
3 644 643 214
3 109 645 646
3 215 647 649
3 649 648 109
3 647 648 649
3 215 650 651
3 215 652 653
3 216 654 656
3 656 655 215
3 654 655 656
3 216 657 659
3 657 4 658
3 657 658 659
3 148 110 7
3 217 110 148
3 217 50 110
3 112 217 27
3 218 217 112
3 218 50 217
3 218 216 50
3 219 216 218
3 219 4 216
3 219 76 4
3 220 76 219
3 220 35 76
3 114 220 51
3 221 220 114
3 221 35 220
3 221 166 35
3 222 166 221
3 222 2 166
3 168 69 1
3 223 69 168
3 223 28 69
3 117 223 37
3 224 223 117
3 224 28 223
3 224 151 28
3 225 151 224
3 225 12 151
3 153 118 6
3 660 118 661
3 662 661 153
3 660 661 662
3 663 53 664
3 665 664 118
3 663 664 665
3 666 53 667
3 668 225 669
3 670 669 53
3 668 669 670
3 226 671 673
3 671 225 672
3 671 672 673
3 226 12 225
3 226 115 12
3 674 115 675
3 676 675 226
3 674 675 676
3 677 52 678
3 679 678 115
3 677 678 679
3 120 680 682
3 682 681 54
3 680 681 682
3 227 683 685
3 685 684 120
3 683 684 685
3 227 686 688
3 686 52 687
3 686 687 688
3 227 222 52
3 228 222 227
3 228 2 222
3 228 66 2
3 229 66 228
3 229 689 691
3 691 690 66
3 689 690 691
3 122 229 55
3 692 229 693
3 694 693 122
3 692 693 694
3 696 695 229
3 156 123 13
3 230 123 156
3 230 56 123
3 697 230 698
3 699 698 31
3 697 698 699
3 700 230 701
3 702 56 703
3 704 703 230
3 702 703 704
3 706 705 56
