ply
format ascii 1.0
element vertex 935
property float x
property float y
property float z
element face 971
property list uchar int vertex_index
end_header
-41.523941 -67.886139 27.374378
-50.336304 -61.944725 36.300362
-55.783375 -50.919395 30.843918
-38.49892 -67.408585 46.3946
-50.041271 -54.443562 40.719677
-48.105827 -54.108643 31.532557
-46.667362 -57.526428 40.7925
-43.342674 -70.458748 22.172649
-41.662983 -65.368484 17.766068
-39.37426 -70.177269 38.132385
-42.26577 -74.963211 30.260763
-41.733906 -63.692474 33.837818
-37.90733 -59.595924 26.026764
-48.068504 -59.329052 28.391699
-40.078651 -58.681801 39.786339
-44.293385 -65.097519 42.849628
-31.575516 -75.011154 31.538599
-50.666451 -52.141102 43.672913
-49.971214 -51.449646 39.241501
-45.963882 -69.325989 24.327145
-43.989861 -68.474709 19.351454
-42.028767 -65.975922 22.852108
-39.796638 -69.465073 32.574684
-39.830101 -73.509201 33.388161
-44.719734 -71.751343 29.274668
-44.722652 -72.959106 25.82402
-46.748936 -63.348244 35.007572
-44.678425 -61.203835 31.243652
-50.085194 -61.452606 32.29488
-51.015556 -51.020695 30.544189
-37.432312 -54.854576 34.636208
-49.221138 -59.8825 40.725441
-46.453209 -61.935486 43.021675
-47.956501 -63.938927 39.628689
-43.520557 -64.537888 38.154095
-41.684486 -65.898422 10.783483
-40.560192 -55.964775 24.027313
-37.539192 -58.499744 20.151495
-38.947029 -54.207203 18.490067
-28.713818 -64.861191 31.19453
-37.279076 -63.800861 41.451302
-34.156796 -63.539421 40.41238
-35.038445 -68.478378 45.150063
-31.681864 -78.950607 36.133411
-49.387413 -57.819 38.365318
-49.895428 -58.289967 33.972073
-49.684109 -50.356907 34.705547
-49.692139 -56.303547 42.580173
-42.195271 -64.354874 12.767678
-39.329765 -69.655296 44.093178
-35.671402 -72.588272 45.558006
-36.719635 -73.974098 39.270374
-37.611801 -76.809456 33.773884
-39.032135 -65.992966 31.051403
-38.394249 -63.937328 26.869522
-39.511822 -61.723015 30.072754
-42.474335 -58.638481 27.400105
-45.403599 -56.511921 25.203119
-51.801746 -58.522217 29.738775
-50.764576 -57.562786 25.956333
-33.555859 -54.814404 34.375313
-37.068268 -58.659046 38.588211
-39.853416 -62.812248 43.121399
-43.858582 -58.939342 39.771019
-42.734222 -62.680126 44.468864
-41.264011 -66.286911 45.606129
-41.122932 -67.411926 41.155811
-40.133976 -66.641953 35.827339
-39.869743 -61.585804 16.101597
-43.858566 -60.968605 12.123556
-49.680305 -62.362144 11.316851
-32.403198 -73.635513 43.565231
-31.279266 -71.952126 40.256065
-30.954865 -68.726303 35.149353
-30.687292 -70.834427 27.332449
-51.070454 -50.913582 43.409607
-43.57803 -68.63356 25.850916
-43.871483 -67.559059 23.533264
-42.017181 -66.757057 25.302666
-40.812832 -68.870239 30.131922
-42.025604 -70.720329 30.86285
-43.346207 -69.871964 28.074497
-45.828888 -70.518234 26.597057
-49.203667 -63.421806 35.473492
-48.47718 -62.733665 33.507057
-50.615852 -61.881214 34.388985
-53.327312 -50.86512 30.617645
-56.683704 -51.390362 29.066631
-49.949203 -60.911316 38.628735
-48.921864 -62.258339 40.172821
-49.415619 -63.016277 37.808392
-47.877602 -64.121155 37.281715
-42.243126 -54.795296 22.952154
-39.418232 -54.940269 21.3887
-41.197678 -53.602314 20.637764
-28.101572 -64.779106 34.117355
-37.981544 -65.691139 44.08548
-36.268917 -65.912994 43.473991
-36.67411 -68.03849 46.051884
-49.474918 -55.741833 39.575878
-48.816013 -56.002216 37.216408
-49.342445 -54.218311 38.424477
-50.471138 -49.750389 38.787834
-49.681503 -50.862152 36.925354
-50.765949 -49.276627 36.254532
-51.490211 -49.393284 34.121502
-52.868507 -48.559204 36.053253
-50.41029 -54.081474 42.941181
-49.593315 -54.762566 43.140099
-50.256336 -55.512245 41.896694
-49.818775 -56.941841 40.694908
-43.189835 -66.817017 18.49176
-42.132603 -66.53125 16.20126
-41.627296 -65.689232 13.86648
-42.050236 -65.05938 15.061201
-39.361767 -70.19886 41.04781
-38.006783 -71.976784 42.04438
-38.14119 -71.963295 38.728519
-41.595333 -74.67514 32.314827
-39.255821 -75.417679 34.02784
-39.976063 -76.048416 31.974417
-37.822186 -77.308777 31.688797
-44.402302 -71.57988 24.047058
-39.926525 -64.651283 32.560795
-38.951817 -63.76226 30.692768
-40.662262 -62.581688 31.947815
-46.418476 -60.288074 29.674505
-43.547951 -59.942883 29.277258
-45.228111 -58.951283 27.940716
-43.931602 -57.448608 26.419605
-46.599304 -58.044239 26.898382
-48.923344 -56.423035 32.642342
-50.933197 -58.290649 31.776505
-49.827072 -56.48951 30.594967
-51.570808 -56.396599 27.17248
-38.884109 -56.937782 37.03894
-37.056305 -56.639294 36.674549
-38.154209 -58.373878 39.369526
-38.437103 -60.683662 40.952858
-39.568451 -60.242603 41.963203
-45.338299 -58.238808 40.014229
-45.750282 -63.650097 43.466682
-44.573509 -62.469124 43.996384
-43.824318 -64.288582 44.651726
-42.087013 -64.502502 45.332447
-42.543056 -65.843063 44.265732
-41.209087 -67.151199 43.492985
-42.423965 -66.132568 42.078285
-42.758846 -64.151611 35.807423
-41.482498 -65.394119 37.092464
-40.925438 -65.214828 34.696751
-39.452297 -66.462936 33.391235
-38.670906 -62.965759 24.384731
-37.719063 -61.122307 23.801197
-38.516499 -60.100121 17.980137
-39.74926 -59.645313 15.347603
-41.47657 -60.98122 13.640552
-34.429192 -75.615105 42.557533
-33.718834 -73.587502 44.931656
-32.608421 -76.499115 41.594288
-31.839794 -75.431396 37.640888
-32.020714 -73.746437 35.774143
-31.311386 -70.465599 38.084301
-31.852728 -71.651962 33.587242
-31.025494 -69.627098 31.424282
-31.179291 -72.787491 29.454193
-50.408405 -53.321846 42.063026
-49.864067 -52.932629 39.953552
-50.462685 -52.016411 41.575645
-50.670731 -50.304024 41.249741
-45.999805 -70.498627 22.81447
-45.244919 -68.879013 21.592833
-43.436504 -67.276772 20.989904
-41.618217 -65.875206 20.379282
-39.116375 -69.794823 35.272762
-38.222584 -71.597237 35.395424
-39.990253 -71.598083 32.929527
-42.467522 -72.670715 31.723749
-44.224335 -73.74971 30.124899
-45.993484 -72.59082 27.337841
-46.6576 -71.436928 25.01412
-44.194221 -63.178886 34.71719
-43.135536 -62.298302 32.75407
-45.777534 -62.439953 33.307076
-47.399723 -61.775166 31.558163
-49.283302 -60.63689 30.089371
-37.589214 -52.656982 33.263481
-39.385468 -54.948418 35.018654
-40.783642 -57.161705 37.386345
-48.038857 -58.757286 41.681374
-46.618904 -59.81144 41.511616
-47.97599 -61.118065 41.737022
-47.459709 -63.100208 42.001812
-46.268269 -64.491226 41.40374
-44.08741 -65.061951 40.564049
-46.053291 -64.495422 39.138237
-45.238197 -63.854694 36.609116
-38.900291 -57.633789 24.992743
-37.481239 -58.969135 23.153286
-38.037731 -56.886543 22.254883
-37.790447 -56.200447 19.235157
-38.382759 -55.876537 16.282478
-36.204552 -61.30056 39.148811
-34.545872 -61.27758 38.569958
-35.656902 -63.69453 40.879009
-34.741173 -66.063354 42.747601
-33.719131 -68.598099 44.033459
-32.46225 -79.124428 38.162239
-50.101559 -59.95536 37.387119
-50.527687 -60.057251 35.283604
-49.444572 -58.141224 36.189156
-48.629204 -56.358837 34.767879
-49.294865 -52.541809 37.661488
-48.826744 -52.165356 35.319443
-48.529495 -52.007244 32.944237
-50.230255 -50.488159 32.594372
-52.402306 -50.054482 32.347794
-54.726734 -50.03529 32.263554
-48.362602 -55.135292 42.304607
-48.202148 -56.828533 41.975941
-49.363152 -57.915672 41.510181
-49.656258 -58.890526 39.511517
-41.97385 -64.976646 11.747815
-39.225868 -68.988823 46.377369
-37.168427 -70.027855 46.755867
-37.647839 -71.192429 45.297722
-36.298023 -73.797981 42.700653
-35.525967 -76.27285 39.441647
-37.432121 -73.69326 35.75016
-36.961128 -75.843719 36.281807
-35.602547 -77.824707 36.359577
-39.828621 -66.972122 29.217335
-38.782345 -65.02655 28.913855
-38.194462 -62.885193 28.627056
-38.61187 -60.70512 28.103611
-41.950253 -61.046745 30.82518
-40.866039 -60.033417 28.984196
-39.76606 -58.715431 27.105291
-41.407093 -57.228264 25.777256
-42.975906 -55.96809 24.704178
-51.325764 -60.052643 33.143841
-51.583092 -60.133636 30.859686
-50.953125 -59.713024 28.73704
-51.791798 -58.431843 27.607367
-49.626518 -58.573883 26.990881
-48.042946 -57.097382 25.474295
-35.585884 -54.671959 34.409817
-35.581581 -56.720409 36.275822
-36.043888 -58.926704 37.715675
-37.552441 -61.239235 39.943886
-38.726139 -63.470631 42.19767
-39.241993 -65.181656 44.657204
-42.020943 -59.08065 39.904926
-45.174408 -60.527679 41.927837
-43.161674 -60.9529 42.413567
-41.275105 -60.616554 42.536613
-41.099316 -62.456501 44.055218
-40.607159 -64.59623 45.335274
-39.989727 -66.718796 46.306896
-40.354614 -67.948563 45.114033
-40.299145 -68.535934 42.498196
-40.126396 -68.723045 39.779881
-42.077133 -65.81572 39.791397
-40.780296 -67.089157 38.425926
-39.894371 -68.391861 37.110569
-39.219803 -68.158409 34.323963
-39.399319 -67.876724 31.732189
-40.293365 -64.054398 22.301277
-40.109901 -63.875252 19.724195
-39.161171 -62.071888 18.765146
-40.386703 -63.447853 17.050631
-41.599976 -62.96986 14.506976
-43.344311 -62.726524 12.605397
-45.399372 -63.022217 11.596243
-40.722065 -52.670471 18.224539
-39.948467 -55.705727 13.664505
-46.866192 -61.556732 11.74908
-34.986107 -70.767639 46.381416
-33.339394 -71.209106 45.509632
-31.912088 -76.326859 39.571289
-31.513376 -73.050674 41.893948
-29.247 -66.799301 35.907654
-30.144375 -66.812737 32.781609
-30.007818 -67.554108 29.495739
-30.074158 -68.831596 25.423954
-31.560995 -72.099419 22.968369
-55.044174 -51.024391 29.780653
-53.816143 -50.997253 29.667516
-54.555343 -50.892257 30.730781
-56.233539 -51.154879 29.955275
-55.494339 -51.259875 28.89201
-55.044174 -51.024391 29.780653
-42.676496 -53.810471 21.303346
-41.720402 -54.198805 21.794959
-43.19922 -54.406962 22.460541
-27.8801 -64.76783 35.704701
-27.424373 -63.904831 35.032047
-51.422073 -48.818413 37.245121
-50.618544 -49.513508 37.521183
-51.274668 -49.055294 38.511772
-52.473352 -48.459702 37.144481
-51.817228 -48.917915 36.153892
-51.422073 -48.818413 37.245121
-42.399111 -70.285454 20.901854
-42.288851 -71.149063 21.26934
-41.115784 -75.360882 30.197983
-39.97093 -75.903485 31.054809
-41.120917 -75.505814 31.11759
-41.838808 -74.852657 29.384501
-41.115784 -75.360882 30.197983
-42.484617 -71.29573 22.428964
-43.014431 -71.856296 23.366168
-43.872488 -71.019314 23.109853
-42.288851 -71.149063 21.26934
-42.484617 -71.29573 22.428964
-46.002831 -57.882618 40.403364
-45.404236 -57.140641 39.675123
-46.068767 -56.784451 40.064259
-37.813197 -60.359116 24.913981
-37.715626 -61.479885 25.180722
-37.809759 -60.716693 26.293506
-39.718313 -58.66812 14.936381
-38.992649 -58.875778 16.311579
-40.786963 -59.444936 14.275827
-39.718313 -58.66812 14.936381
-33.319269 -77.334457 40.43282
-33.518806 -76.05711 42.07591
-34.229654 -76.892452 40.914442
-31.798115 -74.378795 33.656371
-31.831252 -75.542752 34.73139
-31.608653 -76.17511 32.613618
-51.222567 -49.800497 42.234137
-50.870593 -50.608803 42.329674
-51.422428 -50.105276 43.31407
-51.131005 -49.502832 41.022787
-51.222567 -49.800497 42.234137
-50.409973 -52.440861 43.869299
-50.083718 -51.724186 44.107193
-50.537428 -52.731474 42.86797
-50.280951 -53.031233 43.064356
-50.409973 -52.440861 43.869299
-50.311918 -51.728859 29.56177
-49.938739 -51.550307 30.614486
-37.32625 -51.444852 33.183748
-36.348535 -51.448086 32.995134
-40.321304 -54.897228 35.337843
-39.444902 -53.784832 34.496395
-41.020392 -56.003872 36.521688
-40.084555 -56.055061 36.2025
-40.321304 -54.897228 35.337843
-41.935205 -66.632217 10.250637
-41.360277 -66.944016 11.071936
-27.980745 -64.241087 30.578739
-27.79909 -63.97061 32.081366
-28.798882 -65.31897 29.58213
-27.980745 -64.241087 30.578739
-48.654747 -55.255667 35.398216
-48.722608 -56.180526 35.992143
-48.748151 -55.077356 36.622481
-48.364059 -55.272402 34.253595
-48.654747 -55.255667 35.398216
-53.092108 -49.606215 33.237816
-51.946258 -49.723883 33.234648
-52.63606 -49.275616 34.12467
-54.254322 -49.596619 33.195696
-53.56452 -50.044886 32.305674
-53.092108 -49.606215 33.237816
-42.984696 -68.666809 18.975636
-43.944506 -69.100003 19.928659
-42.719383 -64.059297 11.919334
-42.608673 -64.370183 11.409402
-42.08456 -64.66576 12.257746
-36.692003 -77.812828 33.73522
-35.687376 -78.320453 35.028067
-36.607174 -77.317082 35.066731
-36.863703 -78.560231 31.341501
-37.680943 -77.417091 30.392591
-43.520719 -73.481251 26.181284
-44.416957 -73.527737 26.94296
-45.029631 -55.931522 24.322706
-43.815784 -55.659607 24.073235
-44.189752 -56.240005 24.953648
-32.680871 -54.856091 34.574122
-32.429307 -53.792338 34.12187
-33.876536 -55.778973 35.16095
-32.680871 -54.856091 34.574122
-36.509098 -54.763267 34.523013
-35.527672 -53.594894 33.694519
-36.450886 -53.686203 33.807715
-43.273891 -57.987238 38.757309
-44.036343 -57.767877 39.073335
-42.939763 -59.009996 39.837973
-42.355072 -58.057891 38.824263
-43.273891 -57.987238 38.757309
-39.272738 -64.363237 25.865245
-39.168686 -64.930925 27.019198
-39.569851 -63.160016 21.964723
-39.482135 -63.510079 23.343004
-38.758621 -62.615696 23.00645
-39.478119 -63.070442 20.676183
-40.201633 -63.964825 21.012736
-39.569851 -63.160016 21.964723
-37.718437 -59.519739 20.538975
-37.689461 -59.754435 22.039871
-37.510216 -58.73444 21.652391
-41.785857 -52.056209 18.136715
-41.977964 -52.625564 19.258046
-40.340754 -54.651268 13.381062
-39.672823 -54.763954 14.732561
-48.273248 -61.959438 11.532965
-47.255612 -60.691534 11.791885
-48.662668 -61.09424 11.575771
-48.605875 -63.064123 11.110437
-47.198819 -62.661417 11.326552
-48.273248 -61.959438 11.532965
-49.881319 -63.34293 10.710285
-48.605875 -63.064123 11.110437
-33.537138 -62.413986 39.318323
-33.731676 -61.283065 38.397112
-34.351334 -62.408501 39.491169
-32.183905 -72.332153 43.926977
-32.652003 -71.118949 44.899178
-32.871296 -72.42231 44.537431
-30.999995 -71.29031 41.616825
-31.11705 -71.839584 42.435766
-31.396321 -72.5014 41.075007
-30.568247 -70.892407 40.809887
-30.999995 -71.29031 41.616825
-30.300432 -68.655746 36.920009
-30.478693 -69.525395 38.387484
-31.133125 -69.595951 36.616827
-30.100932 -67.762802 35.528503
-29.4465 -67.692245 37.29916
-30.300432 -68.655746 36.920009
-31.443703 -72.669128 21.164886
-31.960307 -73.666008 22.145037
-30.99284 -71.106193 22.295119
-31.443703 -72.669128 21.164886
-50.798841 -50.891611 44.155539
-50.868453 -51.527342 43.54126
-50.59684 -51.505371 44.287192
-51.266312 -50.191609 44.201099
-50.798841 -50.891611 44.155539
-51.422428 -50.105276 43.31407
-51.266312 -50.191609 44.201099
-50.59684 -51.505371 44.287192
-50.083718 -51.724186 44.107193
-52.589886 -51.106174 29.605989
-51.434007 -51.183962 29.569261
-52.171434 -50.942908 30.580917
-52.589886 -51.106174 29.605989
-53.816143 -50.997253 29.667516
-55.94519 -51.300726 27.981476
-55.494339 -51.259875 28.89201
-57.105911 -51.462229 28.052999
-55.94519 -51.300726 27.981476
-42.300577 -65.572792 10.046279
-42.307935 -65.149646 10.449962
-27.492967 -63.929568 33.542778
-27.424373 -63.904831 35.032047
-28.407695 -64.820149 32.655943
-27.79909 -63.97061 32.081366
-27.492967 -63.929568 33.542778
-49.011367 -54.185403 37.226515
-48.748151 -55.077356 36.622481
-49.079229 -55.110264 37.820442
-53.325209 -48.858576 35.090545
-52.63606 -49.275616 34.12467
-52.179359 -48.976244 35.087378
-50.001802 -54.42202 43.04064
-49.303421 -53.972268 43.393484
-49.711909 -53.631721 43.294026
-42.667412 -67.270309 17.991284
-43.067425 -68.099155 18.421131
-43.589848 -67.645863 18.921607
-42.138796 -67.127426 16.846034
-42.667412 -67.270309 17.991284
-42.661219 -66.674134 17.34651
-41.597582 -66.822319 15.641445
-42.138796 -67.127426 16.846034
-41.87995 -66.110241 15.03387
-41.344929 -66.40131 14.474055
-41.597582 -66.822319 15.641445
-38.893991 -76.533665 30.912
-38.899124 -76.678596 31.831607
-39.97093 -75.903485 31.054809
-37.680943 -77.417091 30.392591
-38.893991 -76.533665 30.912
-43.30431 -72.207847 24.35948
-43.464485 -72.89746 25.247961
-44.562477 -72.269493 24.935539
-43.30431 -72.207847 24.35948
-43.014431 -71.856296 23.366168
-51.314024 -55.553743 26.777619
-50.825552 -55.535824 27.474761
-51.556022 -56.317206 26.309784
-51.314024 -55.553743 26.777619
-51.152907 -56.900299 25.701711
-51.167692 -56.979692 26.564407
-51.556022 -56.317206 26.309784
-50.158011 -56.908566 25.343339
-51.152907 -56.900299 25.701711
-33.438364 -53.697882 33.750412
-32.429307 -53.792338 34.12187
-44.776201 -57.41761 39.194941
-45.404236 -57.140641 39.675123
-44.59844 -58.589075 39.892624
-44.036343 -57.767877 39.073335
-44.776201 -57.41761 39.194941
-38.191547 -62.401611 25.472489
-38.532578 -63.451543 25.627126
-38.053219 -62.887395 26.714885
-38.194985 -62.044033 24.092964
-38.191547 -62.401611 25.472489
-37.715626 -61.479885 25.180722
-38.282699 -61.69397 22.714683
-38.758621 -62.615696 23.00645
-38.194985 -62.044033 24.092964
-38.376269 -59.103182 17.627846
-38.027845 -59.299932 19.065816
-37.887615 -58.302993 18.713525
-39.13288 -59.872717 16.66387
-38.376269 -59.103182 17.627846
-38.992649 -58.875778 16.311579
-41.650618 -60.11289 13.422301
-40.612915 -60.313266 14.494077
-40.786963 -59.444936 14.275827
-42.841616 -60.106583 12.663803
-42.667568 -60.974913 12.882054
-41.650618 -60.11289 13.422301
-50.06129 -61.150539 11.223871
-48.662668 -61.09424 11.575771
-50.939945 -62.34937 11.013766
-50.06129 -61.150539 11.223871
-33.427603 -63.464941 40.23191
-33.774649 -64.663776 41.266604
-31.740792 -76.385231 35.664762
-31.760829 -77.191001 36.887149
-31.661827 -78.144836 34.911024
-31.930254 -74.588917 36.707515
-31.740792 -76.385231 35.664762
-31.831252 -75.542752 34.73139
-51.031208 -49.226015 39.791834
-50.570935 -50.027206 40.018788
-51.131005 -49.502832 41.022787
-51.274668 -49.055294 38.511772
-51.031208 -49.226015 39.791834
-50.281893 -53.411047 43.503433
-49.711909 -53.631721 43.294026
-50.409348 -53.70166 42.502104
-50.281893 -53.411047 43.503433
-50.280951 -53.031233 43.064356
-44.949478 -70.111962 21.660167
-43.620913 -70.092022 21.339256
-44.671239 -70.478688 22.493559
-44.572035 -69.302155 21.049348
-44.949478 -70.111962 21.660167
-45.622362 -69.68882 22.203651
-44.61739 -68.676861 20.472144
-43.944506 -69.100003 19.928659
-44.572035 -69.302155 21.049348
-44.167799 -73.923038 29.0934
-43.188517 -74.529789 29.161332
-43.245052 -74.35646 30.192831
-45.052374 -73.343593 27.699871
-44.167799 -73.923038 29.0934
-45.10891 -73.170265 28.73137
-45.358068 -72.774963 26.580931
-44.416957 -73.527737 26.94296
-45.052374 -73.343593 27.699871
-48.525877 -54.23464 30.509054
-48.483875 -53.09428 31.108671
-50.311918 -51.728859 29.56177
-51.434007 -51.183962 29.569261
-36.529337 -52.587406 33.121351
-36.348535 -51.448086 32.995134
-37.510763 -53.755779 33.949844
-36.450886 -53.686203 33.807715
-36.529337 -52.587406 33.121351
-38.546775 -52.639114 33.618809
-37.32625 -51.444852 33.183748
-38.487341 -53.8027 34.141067
-38.546775 -52.639114 33.618809
-39.444902 -53.784832 34.496395
-41.935205 -66.632217 10.250637
-42.300577 -65.572792 10.046279
-38.013243 -57.153345 18.255356
-37.887615 -58.302993 18.713525
-37.66482 -57.350095 19.693326
-38.309399 -56.99139 16.779017
-38.013243 -57.153345 18.255356
-38.086603 -56.038492 17.758817
-39.035062 -56.783732 15.403819
-38.309399 -56.99139 16.779017
-35.375212 -61.28907 38.859385
-34.565061 -60.051394 37.848883
-35.394402 -60.062883 38.13831
-34.066838 -65.925743 42.434214
-33.774649 -64.663776 41.266604
-34.448985 -64.801388 41.579991
-33.555816 -67.193116 43.077143
-34.066838 -65.925743 42.434214
-34.230152 -67.330726 43.39053
-33.061353 -68.499817 43.504435
-33.555816 -67.193116 43.077143
-33.219784 -79.42416 37.171695
-33.246184 -78.647114 38.716795
-32.361273 -79.960258 36.614235
-33.219784 -79.42416 37.171695
-31.97108 -79.873348 35.599821
-32.072057 -79.037518 37.147825
-32.361273 -79.960258 36.614235
-31.615934 -79.577164 34.457439
-31.97108 -79.873348 35.599821
-31.661827 -78.144836 34.911024
-31.615934 -79.577164 34.457439
-31.67787 -76.678826 30.68158
-31.608653 -76.17511 32.613618
-31.712145 -75.620037 29.438232
-31.67787 -76.678826 30.68158
-48.511129 -55.304501 33.190827
-48.776274 -56.390936 33.705111
-48.364059 -55.272402 34.253595
-48.102371 -54.147305 32.635934
-48.514585 -55.265839 32.087449
-48.511129 -55.304501 33.190827
-48.987578 -53.347152 36.845021
-49.011367 -54.185403 37.226515
-49.318655 -53.38006 38.042983
-48.753517 -53.158926 35.673998
-48.987578 -53.347152 36.845021
-49.060805 -52.353583 36.490465
-48.462829 -53.175661 34.529377
-48.753517 -53.158926 35.673998
-48.314205 -53.096605 33.341774
-48.462829 -53.175661 34.529377
-48.678119 -52.0863 34.13184
-48.317661 -53.057944 32.238397
-48.102371 -54.147305 32.635934
-48.314205 -53.096605 33.341774
-48.695709 -52.043581 31.814511
-48.483875 -53.09428 31.108671
-48.317661 -53.057944 32.238397
-49.546089 -51.284039 31.639578
-48.695709 -52.043581 31.814511
-49.379875 -51.247702 32.769305
-50.622906 -50.754427 31.56928
-49.938739 -51.550307 30.614486
-49.546089 -51.284039 31.639578
-46.75633 -56.527512 40.725932
-46.068767 -56.784451 40.064259
-48.621027 -54.105385 42.788048
-49.303421 -53.972268 43.393484
-48.005671 -54.291748 42.370302
-48.621027 -54.105385 42.788048
-48.977958 -54.948929 42.722353
-47.456017 -54.377121 41.561157
-48.005671 -54.291748 42.370302
-47.60395 -55.331944 41.481985
-47.456017 -54.377121 41.561157
-47.523724 -56.178564 41.317652
-47.60395 -55.331944 41.481985
-48.282375 -55.981912 42.140274
-47.434755 -57.177481 41.38422
-46.75633 -56.527512 40.725932
-47.523724 -56.178564 41.317652
-42.399111 -70.285454 20.901854
-43.620913 -70.092022 21.339256
-42.984696 -68.666809 18.975636
-43.067425 -68.099155 18.421131
-41.373815 -66.211319 11.700614
-41.360277 -66.944016 11.071936
-41.34522 -66.106724 13.242112
-41.344929 -66.40131 14.474055
-41.518497 -65.750431 12.18278
-41.34522 -66.106724 13.242112
-41.800573 -65.332939 12.807147
-41.829168 -65.437534 11.265649
-41.373815 -66.211319 11.700614
-41.518497 -65.750431 12.18278
-42.452618 -64.688759 10.932127
-42.307935 -65.149646 10.449962
-41.829168 -65.437534 11.265649
-42.452618 -64.688759 10.932127
-42.608673 -64.370183 11.409402
-34.778042 -77.221325 39.356499
-34.229654 -76.892452 40.914442
-34.97758 -75.943978 40.99959
-34.816332 -77.997253 37.815464
-34.778042 -77.221325 39.356499
-35.564257 -77.048778 37.900612
-34.789932 -78.7743 36.270364
-34.816332 -77.997253 37.815464
-34.789932 -78.7743 36.270364
-35.687376 -78.320453 35.028067
-36.797196 -78.062489 32.692677
-36.692003 -77.812828 33.73522
-37.716994 -77.059117 32.731341
-36.797196 -78.062489 32.692677
-36.863703 -78.560231 31.341501
-41.838808 -74.852657 29.384501
-43.188517 -74.529789 29.161332
-43.520719 -73.481251 26.181284
-43.464485 -72.89746 25.247961
-39.885872 -66.448322 28.193104
-40.733532 -66.90533 27.271625
-40.676281 -67.42913 28.295856
-39.362734 -65.475536 28.041364
-39.885872 -66.448322 28.193104
-39.305483 -65.999336 29.065595
-38.588297 -64.481939 27.891689
-39.168686 -64.930925 27.019198
-39.362734 -65.475536 28.041364
-37.953326 -62.361328 27.593651
-38.053219 -62.887395 26.714885
-38.294356 -63.41126 27.748289
-38.16203 -61.271292 27.331929
-37.953326 -62.361328 27.593651
-38.403166 -61.795157 28.365333
-38.2596 -60.150522 27.065188
-37.809759 -60.716693 26.293506
-38.16203 -61.271292 27.331929
-43.449394 -55.07321 23.197223
-42.609516 -55.381693 23.828166
-43.815784 -55.659607 24.073235
-43.19922 -54.406962 22.460541
-43.449394 -55.07321 23.197223
-49.386499 -55.425074 30.040259
-48.966449 -55.299076 31.063762
-48.525877 -54.23464 30.509054
-50.329754 -56.542363 29.735104
-49.386499 -55.425074 30.040259
-51.317091 -57.558716 29.307008
-50.814409 -57.505864 30.166871
-50.329754 -56.542363 29.735104
-51.201622 -56.495907 28.02386
-50.825552 -55.535824 27.474761
-51.312117 -57.513529 28.241304
-51.201622 -56.495907 28.02386
-51.681303 -57.414221 27.389924
-51.796772 -58.47703 28.673071
-51.317091 -57.558716 29.307008
-51.312117 -57.513529 28.241304
-48.797196 -56.675864 25.10232
-49.403761 -57.330084 25.715314
-50.158011 -56.908566 25.343339
-47.567785 -56.36438 24.748474
-48.797196 -56.675864 25.10232
-46.248112 -56.071649 24.612886
-46.723273 -56.804652 25.338707
-47.567785 -56.36438 24.748474
-45.029631 -55.931522 24.322706
-46.248112 -56.071649 24.612886
-34.453377 -53.62666 33.767664
-35.527672 -53.594894 33.694519
-34.570871 -54.743182 34.392565
-33.438364 -53.697882 33.750412
-34.453377 -53.62666 33.767664
-34.889397 -56.731975 36.111204
-33.876536 -55.778973 35.16095
-34.56872 -55.767406 35.325567
-35.12055 -57.835123 36.831131
-34.889397 -56.731975 36.111204
-35.812735 -57.823556 36.995748
-35.31407 -58.875956 37.421741
-35.12055 -57.835123 36.831131
-36.12422 -60.113632 38.432243
-35.394402 -60.062883 38.13831
-35.31407 -58.875956 37.421741
-41.736421 -57.098419 37.564972
-41.020392 -56.003872 36.521688
-41.402293 -58.121178 38.645635
-41.736421 -57.098419 37.564972
-42.355072 -58.057891 38.824263
-53.439453 -48.274006 37.460415
-52.473352 -48.459702 37.144481
-53.796391 -48.463389 36.390957
-53.439453 -48.274006 37.460415
-53.325209 -48.858576 35.090545
-53.796391 -48.463389 36.390957
-55.115995 -49.461716 33.510924
-54.254322 -49.596619 33.195696
-55.603796 -49.89221 32.54958
-55.115995 -49.461716 33.510924
-56.132116 -50.334263 31.839762
-55.255054 -50.477343 31.553736
-55.603796 -49.89221 32.54958
-56.733509 -50.734808 31.036406
-56.132116 -50.334263 31.839762
-57.183673 -50.970291 30.147762
-56.233539 -51.154879 29.955275
-56.733509 -50.734808 31.036406
-57.653341 -51.200243 29.298178
-57.183673 -50.970291 30.147762
-57.105911 -51.462229 28.052999
-57.653341 -51.200243 29.298178
-40.980152 -66.340789 26.235769
-41.770561 -67.321598 26.338522
-40.733532 -66.90533 27.271625
-41.084204 -65.773101 25.081817
-40.980152 -66.340789 26.235769
-41.089996 -65.382534 23.856538
-42.022974 -66.36649 24.077387
-41.084204 -65.773101 25.081817
-39.411066 -63.877453 24.62285
-39.272738 -64.363237 25.865245
-38.532578 -63.451543 25.627126
-40.222296 -64.421772 23.581122
-39.411066 -63.877453 24.62285
-39.482135 -63.510079 23.343004
-41.161066 -65.01516 22.576693
-41.089996 -65.382534 23.856538
-40.222296 -64.421772 23.581122
-37.808373 -60.831021 22.363827
-37.600151 -60.045721 23.477241
-37.689461 -59.754435 22.039871
-38.282699 -61.69397 22.714683
-37.808373 -60.831021 22.363827
-38.207091 -60.319928 19.453297
-37.718437 -59.519739 20.538975
-38.027845 -59.299932 19.065816
-38.529426 -61.305811 19.845801
-38.207091 -60.319928 19.453297
-38.838835 -61.086005 18.372642
-39.003754 -62.168761 20.196658
-38.529426 -61.305811 19.845801
-39.635536 -62.97357 19.244671
-39.478119 -63.070442 20.676183
-39.003754 -62.168761 20.196658
-43.293903 -63.245122 11.838193
-42.719383 -64.059297 11.919334
-42.769791 -63.540699 12.686538
-44.321434 -63.392969 11.333616
-43.293903 -63.245122 11.838193
-44.371842 -62.87437 12.10082
-45.144886 -63.351368 10.867328
-44.321434 -63.392969 11.333616
-42.215771 -53.091486 20.464658
-42.676496 -53.810471 21.303346
-40.959872 -53.136392 19.431151
-42.215771 -53.091486 20.464658
-41.977964 -52.625564 19.258046
-40.891632 -52.381817 16.942239
-41.785857 -52.056209 18.136715
-40.059622 -53.246326 17.012579
-40.891632 -52.381817 16.942239
-39.172104 -54.014692 17.145342
-39.834547 -53.438837 18.357303
-40.059622 -53.246326 17.012579
-38.889969 -54.849359 16.041548
-38.664894 -55.04187 17.386273
-39.172104 -54.014692 17.145342
-39.165613 -55.791132 14.973492
-38.889969 -54.849359 16.041548
-39.672823 -54.763954 14.732561
-39.817916 -56.698327 14.094832
-39.035062 -56.783732 15.403819
-39.165613 -55.791132 14.973492
-41.117345 -55.74823 12.607132
-40.340754 -54.651268 13.381062
-41.040957 -56.643422 13.186578
-41.117345 -55.74823 12.607132
-39.817916 -56.698327 14.094832
-41.040957 -56.643422 13.186578
-44.281147 -60.146408 12.157408
-42.841616 -60.106583 12.663803
-45.78496 -60.440472 11.97017
-47.255612 -60.691534 11.791885
-45.362379 -61.262668 11.936318
-44.281147 -60.146408 12.157408
-45.78496 -60.440472 11.97017
-46.465408 -63.39416 11.250134
-46.132782 -62.289474 11.672662
-47.198819 -62.661417 11.326552
-45.144886 -63.351368 10.867328
-46.465408 -63.39416 11.250134
-49.881319 -63.34293 10.710285
-50.939945 -62.34937 11.013766
-33.583746 -60.171785 37.751551
-34.565061 -60.051394 37.848883
-33.583746 -60.171785 37.751551
-33.731676 -61.283065 38.397112
-33.537138 -62.413986 39.318323
-33.427603 -63.464941 40.23191
-32.841871 -69.813446 44.161091
-33.529263 -69.903603 44.771546
-32.652003 -71.118949 44.899178
-33.061353 -68.499817 43.504435
-32.841871 -69.813446 44.161091
-32.535336 -77.811771 39.878264
-33.319269 -77.334457 40.43282
-33.246184 -78.647114 38.716795
-31.738993 -72.039733 43.091335
-32.183905 -72.332153 43.926977
-31.958287 -73.343094 42.72959
-31.738993 -72.039733 43.091335
-31.11705 -71.839584 42.435766
-30.584307 -70.149143 39.724005
-30.568247 -70.892407 40.809887
-31.295326 -71.208863 39.170183
-30.584307 -70.149143 39.724005
-30.478693 -69.525395 38.387484
-28.87052 -66.773754 37.699904
-29.4465 -67.692245 37.29916
-28.452813 -65.777928 36.59985
-28.87052 -66.773754 37.699904
-28.674286 -65.789203 35.012505
-27.8801 -64.76783 35.704701
-28.452813 -65.777928 36.59985
-29.445882 -66.665428 28.732734
-28.798882 -65.31897 29.58213
-29.360818 -66.20765 30.345135
-29.479053 -67.304172 26.696842
-29.445882 -66.665428 28.732734
-30.040988 -68.192852 27.459846
-29.428505 -68.018635 24.867897
-29.479053 -67.304172 26.696842
-31.514032 -74.508206 28.396028
-31.377403 -73.899323 30.496396
-31.712145 -75.620037 29.438232
-31.53838 -73.494866 27.233424
-31.514032 -74.508206 28.396028
-31.292381 -72.518334 26.172552
-30.933291 -71.810959 28.393321
-31.53838 -73.494866 27.233424
-31.729232 -73.15083 23.990512
-31.960307 -73.666008 22.145037
-31.124143 -71.466923 25.150409
-31.292381 -72.518334 26.172552
-31.729232 -73.15083 23.990512
-30.249422 -69.472282 23.522911
-30.817577 -70.465508 24.196161
-30.99284 -71.106193 22.295119
-29.428505 -68.018635 24.867897
-30.249422 -69.472282 23.522911
3 0 78 76
3 0 81 79
3 0 76 81
3 1 85 83
3 2 286 288
3 288 287 86
3 286 287 288
3 2 289 291
3 289 87 290
3 289 290 291
3 1 90 88
3 1 83 90
3 292 94 293
3 294 293 92
3 292 293 294
3 295 95 296
3 3 98 96
3 4 101 99
3 297 104 298
3 299 298 102
3 297 298 299
3 300 106 301
3 302 301 104
3 300 301 302
3 4 109 107
3 4 99 109
3 7 303 304
3 8 112 111
3 8 114 112
3 9 117 115
3 10 120 118
3 10 305 307
3 307 306 120
3 305 306 307
3 10 308 309
3 7 310 312
3 312 311 122
3 310 311 312
3 7 313 314
3 11 125 123
3 13 128 126
3 13 130 128
3 5 133 131
3 14 137 135
3 14 139 137
3 6 315 317
3 315 140 316
3 315 316 317
3 15 143 141
3 15 145 143
3 15 147 145
3 11 150 148
3 11 123 150
3 12 318 320
3 318 153 319
3 318 319 320
3 321 155 322
3 324 323 155
3 325 159 326
3 327 326 157
3 325 326 327
3 16 328 330
3 328 161 329
3 328 329 330
3 16 163 161
3 16 165 163
3 17 168 166
3 331 169 332
3 333 332 75
3 331 332 333
3 335 334 169
3 17 336 337
3 17 338 340
3 338 166 339
3 338 339 340
3 19 171 170
3 21 172 77
3 21 173 172
3 22 176 174
3 24 177 80
3 24 178 177
3 24 179 178
3 19 180 82
3 19 170 180
3 26 183 181
3 28 184 84
3 28 185 184
3 29 341 342
3 343 186 344
3 345 187 346
3 347 188 348
3 349 348 187
3 347 348 349
3 31 191 189
3 33 192 89
3 33 193 192
3 33 195 193
3 26 196 91
3 26 181 196
3 35 350 351
3 36 199 197
3 38 200 93
3 38 201 200
3 39 352 353
3 39 354 355
3 40 204 202
3 42 205 97
3 42 206 205
3 44 210 208
3 356 211 357
3 358 357 100
3 356 357 358
3 360 359 211
3 18 212 167
3 46 213 103
3 46 214 213
3 46 215 214
3 361 216 362
3 363 362 105
3 361 362 363
3 364 217 365
3 366 365 216
3 364 365 366
3 47 218 108
3 47 219 218
3 47 220 219
3 44 221 110
3 44 208 221
3 20 367 368
3 48 222 113
3 48 369 371
3 371 370 222
3 369 370 371
3 49 225 223
3 51 226 116
3 51 227 226
3 23 228 175
3 52 229 119
3 52 230 229
3 52 372 374
3 374 373 230
3 372 373 374
3 376 375 121
3 25 377 378
3 53 232 231
3 55 233 124
3 55 234 233
3 27 235 182
3 56 236 127
3 56 237 236
3 56 238 237
3 57 239 129
3 57 379 381
3 381 380 239
3 379 380 381
3 45 240 209
3 58 241 132
3 58 242 241
3 59 243 134
3 59 244 243
3 59 245 244
3 60 382 383
3 60 384 385
3 30 386 388
3 386 246 387
3 386 387 388
3 61 247 136
3 61 248 247
3 61 249 248
3 62 250 138
3 62 251 250
3 63 389 390
3 63 391 393
3 391 252 392
3 391 392 393
3 32 253 190
3 64 254 142
3 64 255 254
3 64 256 255
3 65 257 144
3 65 258 257
3 65 259 258
3 66 260 146
3 66 261 260
3 34 262 194
3 67 263 149
3 67 264 263
3 67 265 264
3 53 266 151
3 53 231 266
3 54 394 395
3 396 267 397
3 398 397 152
3 396 397 398
3 399 268 400
3 401 400 267
3 399 400 401
3 37 402 404
3 404 403 198
3 402 403 404
3 68 269 154
3 68 270 269
3 68 271 270
3 69 272 156
3 69 273 272
3 405 274 406
3 407 275 408
3 70 409 411
3 409 276 410
3 409 410 411
3 70 412 414
3 414 413 276
3 412 413 414
3 70 415 416
3 41 417 419
3 419 418 203
3 417 418 419
3 50 277 224
3 71 278 158
3 71 420 422
3 422 421 278
3 420 421 422
3 43 279 207
3 72 280 160
3 72 423 425
3 425 424 280
3 423 424 425
3 72 426 427
3 73 428 430
3 430 429 162
3 428 429 430
3 73 431 433
3 431 281 432
3 431 432 433
3 73 282 281
3 74 283 164
3 74 284 283
3 434 285 435
3 437 436 285
3 438 75 439
3 440 439 17
3 438 439 440
3 441 75 442
3 444 443 75
3 445 17 446
3 76 77 19
3 78 77 76
3 78 21 77
3 79 80 22
3 81 80 79
3 81 24 80
3 81 82 24
3 76 82 81
3 76 19 82
3 83 84 26
3 85 84 83
3 85 28 84
3 86 447 449
3 449 448 29
3 447 448 449
3 451 450 86
3 87 452 453
3 87 454 455
3 88 89 31
3 90 89 88
3 90 33 89
3 90 91 33
3 83 91 90
3 83 26 91
3 457 456 35
3 92 93 36
3 94 93 92
3 94 38 93
3 95 458 459
3 95 460 462
3 460 39 461
3 460 461 462
3 96 97 40
3 98 97 96
3 98 42 97
3 99 100 44
3 101 100 99
3 101 463 465
3 465 464 100
3 463 464 465
3 102 103 18
3 104 103 102
3 104 46 103
3 104 105 46
3 106 105 104
3 106 466 468
3 468 467 105
3 466 467 468
3 107 469 471
3 469 108 470
3 469 470 471
3 109 108 107
3 109 47 108
3 109 110 47
3 99 110 109
3 99 44 110
3 111 472 474
3 474 473 20
3 472 473 474
3 112 475 477
3 477 476 111
3 475 476 477
3 112 478 479
3 112 480 482
3 480 113 481
3 480 481 482
3 114 113 112
3 114 48 113
3 115 116 49
3 117 116 115
3 117 51 116
3 118 119 23
3 120 119 118
3 120 52 119
3 120 121 52
3 483 121 484
3 485 484 120
3 483 484 485
3 487 486 121
3 122 488 490
3 490 489 25
3 488 489 490
3 492 491 122
3 123 124 53
3 125 124 123
3 125 55 124
3 126 127 27
3 128 127 126
3 128 56 127
3 128 129 56
3 130 129 128
3 130 57 129
3 131 132 45
3 133 132 131
3 133 58 132
3 493 134 494
3 495 134 496
3 497 59 498
3 499 498 134
3 497 498 499
3 501 500 59
3 502 60 503
3 135 136 30
3 137 136 135
3 137 61 136
3 137 138 61
3 139 138 137
3 139 62 138
3 140 504 505
3 140 506 508
3 506 63 507
3 506 507 508
3 141 142 32
3 143 142 141
3 143 64 142
3 143 144 64
3 145 144 143
3 145 65 144
3 145 146 65
3 147 146 145
3 147 66 146
3 148 149 34
3 150 149 148
3 150 67 149
3 150 151 67
3 123 151 150
3 123 53 151
3 509 152 510
3 511 510 54
3 509 510 511
3 153 512 514
3 512 152 513
3 512 513 514
3 153 515 517
3 517 516 152
3 515 516 517
3 518 154 519
3 520 519 37
3 518 519 520
3 155 521 523
3 521 154 522
3 521 522 523
3 155 68 154
3 155 156 68
3 524 156 525
3 526 525 155
3 524 525 526
3 527 69 528
3 529 528 156
3 527 528 529
3 530 70 531
3 533 532 70
3 535 534 41
3 157 158 50
3 159 158 157
3 159 71 158
3 536 160 537
3 538 537 43
3 536 537 538
3 161 539 541
3 539 160 540
3 539 540 541
3 161 72 160
3 161 162 72
3 163 162 161
3 163 73 162
3 163 164 73
3 165 164 163
3 165 74 164
3 166 167 4
3 168 167 166
3 168 18 167
3 75 168 17
3 169 168 75
3 169 18 168
3 169 102 18
3 542 102 543
3 544 543 169
3 542 543 544
3 546 545 102
3 547 107 548
3 166 549 551
3 549 107 550
3 549 550 551
3 166 4 107
3 170 552 554
3 554 553 7
3 552 553 554
3 171 555 557
3 557 556 170
3 555 556 557
3 171 558 560
3 558 20 559
3 558 559 560
3 77 171 19
3 172 171 77
3 172 20 171
3 172 111 20
3 173 111 172
3 173 8 111
3 174 175 9
3 176 175 174
3 176 23 175
3 80 176 22
3 177 176 80
3 177 23 176
3 177 118 23
3 178 118 177
3 178 10 118
3 178 561 563
3 563 562 10
3 561 562 563
3 179 564 566
3 566 565 178
3 564 565 566
3 179 567 569
3 567 25 568
3 567 568 569
3 82 179 24
3 180 179 82
3 180 25 179
3 180 122 25
3 170 122 180
3 170 7 122
3 181 182 11
3 183 182 181
3 183 27 182
3 84 183 26
3 184 183 84
3 184 27 183
3 184 126 27
3 185 126 184
3 185 13 126
3 571 570 5
3 573 572 29
3 186 574 575
3 186 576 578
3 576 30 577
3 576 577 578
3 579 186 580
3 187 581 583
3 581 186 582
3 581 582 583
3 187 30 186
3 187 135 30
3 188 135 187
3 188 14 135
3 189 190 6
3 191 190 189
3 191 32 190
3 89 191 31
3 192 191 89
3 192 32 191
3 192 141 32
3 193 141 192
3 193 15 141
3 193 194 15
3 195 194 193
3 195 34 194
3 91 195 33
3 196 195 91
3 196 34 195
3 196 148 34
3 181 148 196
3 181 11 148
3 585 584 35
3 197 198 12
3 199 198 197
3 199 37 198
3 93 199 36
3 200 199 93
3 200 37 199
3 200 586 588
3 588 587 37
3 586 587 588
3 201 589 591
3 591 590 200
3 589 590 591
3 201 592 593
3 202 594 596
3 594 203 595
3 594 595 596
3 204 203 202
3 204 41 203
3 97 204 40
3 205 204 97
3 205 41 204
3 205 597 599
3 599 598 41
3 597 598 599
3 206 600 602
3 602 601 205
3 600 601 602
3 206 603 604
3 605 207 606
3 607 207 608
3 609 43 610
3 611 610 207
3 609 610 611
3 612 43 613
3 615 614 43
3 616 16 617
3 619 618 16
3 208 209 1
3 210 209 208
3 210 45 209
3 100 210 44
3 211 210 100
3 211 45 210
3 211 131 45
3 620 131 621
3 622 621 211
3 620 621 622
3 623 5 624
3 625 624 131
3 623 624 625
3 167 101 4
3 212 101 167
3 212 626 628
3 628 627 101
3 626 627 628
3 103 212 18
3 213 212 103
3 213 629 631
3 631 630 212
3 629 630 631
3 213 632 633
3 214 634 636
3 636 635 213
3 634 635 636
3 214 637 639
3 637 5 638
3 637 638 639
3 214 640 642
3 642 641 5
3 640 641 642
3 215 643 645
3 645 644 214
3 643 644 645
3 215 646 648
3 646 29 647
3 646 647 648
3 105 215 46
3 216 215 105
3 216 29 215
3 216 86 29
3 217 86 216
3 217 2 86
3 649 6 650
3 108 651 652
3 218 653 655
3 655 654 108
3 653 654 655
3 218 656 657
3 218 658 659
3 219 660 662
3 662 661 218
3 660 661 662
3 219 663 665
3 663 6 664
3 663 664 665
3 219 189 6
3 220 189 219
3 220 31 189
3 110 220 47
3 221 220 110
3 221 31 220
3 221 88 31
3 208 88 221
3 208 1 88
3 667 666 7
3 669 668 20
3 670 35 671
3 113 672 673
3 222 674 676
3 676 675 113
3 674 675 676
3 222 677 679
3 677 35 678
3 677 678 679
3 222 680 682
3 682 681 35
3 680 681 682
3 684 683 222
3 223 224 3
3 225 224 223
3 225 50 224
3 116 225 49
3 226 225 116
3 226 50 225
3 226 157 50
3 227 157 226
3 227 685 687
3 687 686 157
3 685 686 687
3 175 117 9
3 228 117 175
3 228 51 117
3 119 228 23
3 229 228 119
3 229 51 228
3 229 227 51
3 230 227 229
3 230 688 690
3 690 689 227
3 688 689 690
3 230 691 692
3 694 693 230
3 121 695 697
3 697 696 52
3 695 696 697
3 699 698 121
3 701 700 10
3 703 702 25
3 231 704 706
3 706 705 0
3 704 705 706
3 232 707 709
3 709 708 231
3 707 708 709
3 232 710 712
3 710 54 711
3 710 711 712
3 124 232 53
3 233 232 124
3 233 54 232
3 233 713 715
3 715 714 54
3 713 714 715
3 234 716 718
3 718 717 233
3 716 717 718
3 234 719 721
3 719 12 720
3 719 720 721
3 182 125 11
3 235 125 182
3 235 55 125
3 127 235 27
3 236 235 127
3 236 55 235
3 236 234 55
3 237 234 236
3 237 12 234
3 237 197 12
3 238 197 237
3 238 36 197
3 129 238 56
3 239 238 129
3 239 36 238
3 239 92 36
3 722 92 723
3 724 723 239
3 722 723 724
3 726 725 92
3 209 85 1
3 240 85 209
3 240 28 85
3 132 240 45
3 241 240 132
3 241 28 240
3 241 185 28
3 242 185 241
3 242 13 185
3 727 133 728
3 729 728 5
3 727 728 729
3 730 133 731
3 732 58 733
3 734 733 133
3 732 733 734
3 134 735 736
3 243 737 739
3 739 738 134
3 737 738 739
3 243 740 742
3 740 58 741
3 740 741 742
3 243 242 58
3 244 242 243
3 244 13 242
3 244 130 13
3 245 130 244
3 245 57 130
3 743 245 744
3 745 744 59
3 743 744 745
3 746 245 747
3 748 57 749
3 750 749 245
3 748 749 750
3 752 751 57
3 246 753 754
3 246 755 757
3 755 60 756
3 755 756 757
3 136 246 30
3 247 246 136
3 247 60 246
3 247 758 760
3 760 759 60
3 758 759 760
3 248 761 763
3 763 762 247
3 761 762 763
3 248 764 765
3 248 766 768
3 766 202 767
3 766 767 768
3 249 202 248
3 249 40 202
3 138 249 61
3 250 249 138
3 250 40 249
3 250 96 40
3 251 96 250
3 251 3 96
3 769 188 770
3 252 771 773
3 771 188 772
3 771 772 773
3 252 14 188
3 190 140 6
3 253 140 190
3 253 63 140
3 142 253 32
3 254 253 142
3 254 63 253
3 254 252 63
3 255 252 254
3 255 14 252
3 255 139 14
3 256 139 255
3 256 62 139
3 144 256 64
3 257 256 144
3 257 62 256
3 257 251 62
3 258 251 257
3 258 3 251
3 258 223 3
3 259 223 258
3 259 49 223
3 146 259 65
3 260 259 146
3 260 49 259
3 260 115 49
3 261 115 260
3 261 9 115
3 194 147 15
3 262 147 194
3 262 66 147
3 149 262 34
3 263 262 149
3 263 66 262
3 263 261 66
3 264 261 263
3 264 9 261
3 264 174 9
3 265 174 264
3 265 22 174
3 151 265 67
3 266 265 151
3 266 22 265
3 266 79 22
3 231 79 266
3 231 0 79
3 774 106 775
3 776 106 777
3 779 778 106
3 780 217 781
3 782 217 783
3 784 2 785
3 786 785 217
3 784 785 786
3 787 2 788
3 789 87 790
3 791 790 2
3 789 790 791
3 792 87 793
3 795 794 87
3 796 78 797
3 798 797 0
3 796 797 798
3 799 78 800
3 801 21 802
3 803 802 78
3 801 802 803
3 152 804 806
3 806 805 54
3 804 805 806
3 267 807 809
3 809 808 152
3 807 808 809
3 267 810 812
3 810 21 811
3 810 811 812
3 267 173 21
3 268 173 267
3 268 8 173
3 198 153 12
3 813 153 814
3 815 814 198
3 813 814 815
3 817 816 153
3 154 818 820
3 820 819 37
3 818 819 820
3 269 821 823
3 823 822 154
3 821 822 823
3 269 824 825
3 269 826 828
3 826 268 827
3 826 827 828
3 270 268 269
3 270 8 268
3 270 114 8
3 271 114 270
3 271 48 114
3 156 271 68
3 272 271 156
3 272 48 271
3 272 829 831
3 831 830 48
3 829 830 831
3 273 832 834
3 834 833 272
3 832 833 834
3 273 835 836
3 837 94 838
3 274 839 841
3 839 94 840
3 839 840 841
3 274 38 94
3 842 274 843
3 844 274 845
3 846 38 847
3 848 847 274
3 846 847 848
3 849 201 850
3 851 850 38
3 849 850 851
3 275 852 854
3 852 201 853
3 852 853 854
3 275 855 857
3 857 856 201
3 855 856 857
3 858 275 859
3 860 275 861
3 863 862 275
3 864 69 865
3 276 866 867
3 276 868 870
3 868 69 869
3 868 869 870
3 276 273 69
3 871 273 872
3 873 872 276
3 871 872 873
3 875 874 273
3 877 876 70
3 203 878 879
3 881 880 203
3 883 882 41
3 224 98 3
3 277 98 224
3 277 42 98
3 158 277 50
3 278 277 158
3 278 42 277
3 278 206 42
3 884 206 885
3 886 885 278
3 884 885 886
3 888 887 206
3 207 889 891
3 889 159 890
3 889 890 891
3 279 159 207
3 279 71 159
3 160 279 43
3 280 279 160
3 280 71 279
3 280 892 894
3 894 893 71
3 892 893 894
3 896 895 280
3 162 897 899
3 899 898 72
3 897 898 899
3 901 900 162
3 281 902 903
3 281 904 905
3 281 906 908
3 906 95 907
3 906 907 908
3 282 95 281
3 282 39 95
3 164 282 73
3 283 282 164
3 283 39 282
3 283 909 911
3 911 910 39
3 909 910 911
3 284 912 914
3 914 913 283
3 912 913 914
3 284 915 916
3 917 165 918
3 919 918 16
3 917 918 919
3 920 165 921
3 922 74 923
3 924 923 165
3 922 923 924
3 285 925 926
3 285 927 929
3 927 74 928
3 927 928 929
3 285 284 74
3 930 284 931
3 932 931 285
3 930 931 932
3 934 933 284
