ply
format ascii 1.0
element vertex 469
property float x
property float y
property float z
element face 416
property list uchar int vertex_index
end_header
-23.803612 -78.704208 16.998997
-16.819647 -86.626999 36.611206
-12.082575 -97.43782 13.913533
-21.54434 -86.211853 25.868336
-10.385092 -90.52034 27.868906
-16.57868 -91.551865 17.999336
-21.817572 -97.39003 1.334301
-23.288767 -82.523827 21.320154
-17.511166 -87.132401 21.526745
-19.764297 -85.111557 17.060314
-23.549969 -82.618271 13.104151
-8.649881 -97.181168 8.874176
-20.501261 -97.456528 7.118536
-19.192566 -86.664467 31.94311
-11.905642 -85.652016 31.050165
-14.266429 -86.555122 25.795404
-13.358107 -91.529861 22.611458
-14.372606 -95.986488 18.595022
-23.725132 -92.690865 13.692897
-20.709274 -83.786156 37.912094
-22.273653 -82.817047 32.226295
-23.795273 -79.398117 26.253225
-25.387829 -74.977661 21.862858
-27.785547 -77.481636 14.123609
-23.191029 -80.269302 19.195799
-21.398304 -83.66925 19.119381
-22.148188 -81.925331 16.722647
-21.551212 -83.726051 14.74192
-23.47628 -80.407509 14.795998
-13.47312 -86.270981 35.904675
-11.910029 -93.790443 13.511472
-9.465635 -93.745995 10.986455
-11.2634 -97.154648 10.725962
-20.213478 -86.541428 28.599762
-17.169073 -85.788933 28.91308
-17.833063 -85.620567 25.938227
-16.521809 -89.089783 19.616262
-15.729971 -89.419312 22.14201
-14.777033 -91.804932 20.205404
-13.420616 -94.446449 21.015842
-15.753252 -93.707321 18.706532
-16.355511 -95.159683 16.707302
-21.966074 -91.247719 13.995712
-24.614035 -89.849808 13.59836
-26.175999 -91.787415 13.358111
-21.15205 -81.262283 38.57085
-21.557571 -83.381683 35.270752
-21.684093 -80.43132 35.500248
-23.023399 -77.531273 29.221722
-24.636463 -77.216698 23.891266
-29.731436 -75.065987 16.220001
-8.427213 -89.069756 29.776999
-18.673107 -99.124672 10.955503
-23.541233 -97.073776 -0.336989
-22.523273 -84.793312 23.502567
-19.122021 -86.03212 23.752064
-20.412939 -85.405472 21.627047
-18.515026 -86.242966 19.464527
-17.745911 -88.498474 17.363678
-18.4599 -90.794327 16.051275
-19.345982 -87.176254 15.400335
-21.969715 -85.999184 13.751361
-24.497284 -84.81279 12.673037
-10.061445 -92.781166 24.921009
-8.295034 -91.40358 26.997931
-6.380381 -98.154938 9.029429
-21.753069 -98.230103 10.042787
-23.597445 -96.572891 9.537012
-21.511179 -95.560379 6.636459
-18.034678 -87.005936 34.771324
-14.705742 -86.915451 34.317406
-16.043873 -86.295547 31.83288
-13.023979 -85.790649 28.310818
-12.135587 -88.61937 26.742298
-15.755015 -87.00547 23.496613
-14.151169 -89.262611 24.488026
-12.177366 -91.158287 25.238684
-11.338918 -93.946899 23.01977
-11.8538 -96.083389 20.279018
-12.717854 -97.331833 16.989435
-14.984528 -97.294479 16.034445
-20.573433 -96.423294 15.340472
-19.739895 -92.545326 15.284103
-21.273056 -93.978958 15.110893
-23.187559 -95.395042 14.356157
-25.433157 -94.613991 13.136279
-18.101055 -84.837723 37.95665
-19.402992 -83.399376 39.342064
-19.16552 -85.643562 37.168365
-20.277569 -85.757462 34.90332
-21.500494 -85.778152 31.755413
-22.805857 -84.930214 28.752813
-22.303303 -79.271469 32.270958
-22.952221 -81.198387 29.147623
-23.459787 -83.068626 26.075466
-24.31708 -81.044159 23.576084
-24.683985 -78.898804 21.445347
-24.922794 -76.981766 19.396784
-25.911154 -75.291855 17.906036
-27.591503 -74.721985 16.362373
-25.45953 -77.777435 14.989779
-25.659586 -79.84623 13.173698
-6.631772 -89.378342 28.637335
-15.146383 -86.44899 36.257941
-14.735391 -85.875599 36.35615
-16.408654 -86.053608 36.709416
-11.996302 -95.614131 13.712502
-11.747592 -94.592254 15.478949
-11.833865 -96.415943 15.679979
-11.85936 -98.508682 12.87577
-11.449772 -98.367096 11.281985
-11.672988 -97.296234 12.319748
-17.121878 -92.34869 17.388724
-16.709164 -93.426418 17.742322
-16.165966 -92.629593 18.352934
-25.130252 -88.352131 13.364638
-23.901723 -89.000305 13.673647
-25.713974 -89.354988 13.438022
-25.130252 -88.352131 13.364638
-21.080105 -80.040451 38.794024
-20.812072 -80.422482 40.186771
-21.346127 -79.624969 37.258723
-21.418071 -80.846801 37.035549
-21.080105 -80.040451 38.794024
-9.406153 -89.795048 28.822952
-9.266371 -88.17841 29.34337
-10.24531 -88.903702 28.389323
-20.223236 -98.542892 12.221495
-18.609648 -98.924862 12.409844
-21.146482 -98.538849 1.719847
-20.936538 -97.359337 2.482666
-22.234119 -98.509026 0.729212
-21.146482 -98.538849 1.719847
-22.679402 -97.231903 0.498656
-23.095949 -98.350898 -0.106433
-22.234119 -98.509026 0.729212
-9.384799 -92.750618 23.873339
-10.097771 -93.690178 23.121206
-7.673529 -96.141163 9.985384
-8.081406 -94.423576 11.041523
-9.057758 -95.463582 9.930315
-7.515131 -97.668053 8.951802
-6.538779 -96.628048 10.06301
-7.673529 -96.141163 9.985384
-8.033874 -98.509388 8.48706
-6.899125 -98.996273 8.564686
-7.515131 -97.668053 8.951802
-24.905439 -96.41095 10.240334
-24.043257 -96.792946 10.929562
-22.307069 -94.657146 6.406876
-23.2597 -95.338981 7.465401
-21.104876 -95.436599 4.923356
-22.307069 -94.657146 6.406876
-16.922771 -96.174755 15.985646
-17.718227 -95.021492 16.267055
-19.827188 -95.653298 15.58364
-19.031733 -96.80656 15.302231
-20.109523 -90.965858 14.874973
-19.099898 -91.669826 15.667689
-19.469526 -90.090359 15.258559
-26.916127 -92.871368 12.951576
-27.277211 -91.33722 13.18208
-18.178199 -83.335781 38.506304
-18.044868 -83.909363 37.569928
-20.056133 -83.592766 38.627079
-19.729449 -82.472206 40.060242
-20.38259 -82.665596 39.345257
-22.305211 -77.650963 32.260063
-21.913483 -78.448356 33.896887
-26.756441 -73.566845 18.654573
-26.06576 -74.153633 19.240511
-11.371876 -85.804913 32.389428
-12.771926 -86.43663 34.023049
-13.305692 -86.283734 32.683785
-6.950922 -89.915798 26.640837
-7.463403 -90.390961 27.817633
-7.782553 -90.928417 25.821135
-19.471811 -98.069046 7.325952
-20.097715 -98.455833 8.788077
-21.127165 -97.843316 8.580661
-13.337359 -85.458233 35.790591
-14.735391 -85.875599 36.35615
-11.788068 -85.675312 35.498533
-13.337359 -85.458233 35.790591
-11.252118 -93.345191 15.864007
-11.747592 -94.592254 15.478949
-11.141775 -92.450843 14.196158
-11.252118 -93.345191 15.864007
-10.687832 -93.768219 12.248963
-9.919579 -92.428619 12.933649
-11.141775 -92.450843 14.196158
-10.50864 -98.479599 10.06816
-9.201881 -98.492859 9.142266
-9.956641 -97.167908 9.800069
-10.50864 -98.479599 10.06816
-11.449772 -98.367096 11.281985
-17.010293 -94.152599 16.742707
-16.054381 -94.433502 17.706917
-16.709164 -93.426418 17.742322
-17.718227 -95.021492 16.267055
-17.010293 -94.152599 16.742707
-22.577742 -89.699261 13.872323
-21.222613 -90.317055 14.230777
-23.290055 -90.548764 13.797036
-22.577742 -89.699261 13.872323
-23.901723 -89.000305 13.673647
-26.494956 -90.323791 13.317898
-25.395017 -90.818612 13.478236
-25.713974 -89.354988 13.438022
-27.277211 -91.33722 13.18208
-26.494956 -90.323791 13.317898
-20.603978 -81.40366 39.674634
-20.812072 -80.422482 40.186771
-20.930662 -82.52422 38.241472
-20.38259 -82.665596 39.345257
-20.603978 -81.40366 39.674634
-23.04099 -75.799469 29.318258
-22.665259 -76.780865 30.735445
-23.351854 -76.561123 27.897836
-23.04099 -75.799469 29.318258
-23.737791 -77.494545 26.413587
-23.409336 -78.464695 27.737474
-23.351854 -76.561123 27.897836
-24.158386 -76.403835 25.232608
-24.215868 -78.307407 25.072246
-23.737791 -77.494545 26.413587
-24.560098 -75.284305 24.13581
-24.158386 -76.403835 25.232608
-24.935781 -74.164787 23.121606
-25.012146 -76.097179 22.877062
-24.560098 -75.284305 24.13581
-30.598494 -75.679009 16.956854
-30.528924 -74.152412 17.790702
-30.057778 -76.464978 15.408112
-30.598494 -75.679009 16.956854
-29.084833 -77.672802 14.359915
-28.758491 -76.273811 15.171805
-30.057778 -76.464978 15.408112
-28.160422 -78.596089 13.451514
-29.084833 -77.672802 14.359915
-10.241608 -85.88847 31.268171
-11.005585 -86.46954 29.979952
-8.502394 -87.59734 30.631588
-9.266371 -88.17841 29.34337
-7.569506 -88.172852 30.689348
-8.502394 -87.59734 30.631588
-17.130757 -99.465248 11.182694
-18.609648 -98.924862 12.409844
-17.109849 -99.225243 9.593784
-17.130757 -99.465248 11.182694
-19.491516 -98.068657 5.660635
-20.278382 -97.392586 5.374783
-23.620384 -97.720508 -1.059962
-23.095949 -98.350898 -0.106433
-24.456157 -96.840717 -1.104977
-23.620384 -97.720508 -1.059962
-19.912567 -88.281323 14.933089
-19.469526 -90.090359 15.258559
-18.902941 -88.98529 15.725805
-21.224433 -87.692788 14.108602
-19.912567 -88.281323 14.933089
-20.657849 -86.587719 14.575848
-22.579563 -87.074994 13.750148
-21.224433 -87.692788 14.108602
-23.843348 -86.481797 13.210985
-22.579563 -87.074994 13.750148
-23.2335 -85.405987 13.212199
-25.071877 -85.833622 12.901976
-23.843348 -86.481797 13.210985
-8.501594 -92.061825 24.9118
-9.17824 -92.092373 25.95947
-9.384799 -92.750618 23.873339
-7.782553 -90.928417 25.821135
-8.501594 -92.061825 24.9118
-8.363315 -92.946003 12.411124
-9.919579 -92.428619 12.933649
-8.363315 -92.946003 12.411124
-8.081406 -94.423576 11.041523
-5.619038 -97.308175 10.034462
-6.538779 -96.628048 10.06301
-5.785859 -98.4244 8.754373
-5.619038 -97.308175 10.034462
-6.237677 -99.173951 8.315779
-5.785859 -98.4244 8.754373
-6.237677 -99.173951 8.315779
-6.899125 -98.996273 8.564686
-8.033874 -98.509388 8.48706
-9.201881 -98.492859 9.142266
-23.121069 -97.621552 11.18245
-21.763217 -98.095608 11.765137
-22.675257 -97.401497 9.7899
-23.121069 -97.621552 11.18245
-24.043257 -96.792946 10.929562
-24.302833 -95.845237 8.915677
-24.905439 -96.41095 10.240334
-22.554312 -96.066635 8.086735
-24.302833 -95.845237 8.915677
-23.2597 -95.338981 7.465401
-20.783341 -96.444512 5.133745
-20.278382 -97.392586 5.374783
-21.00622 -96.508454 6.877498
-20.783341 -96.444512 5.133745
-21.104876 -95.436599 4.923356
-21.258073 -96.351425 2.272277
-20.936538 -97.359337 2.482666
-22.020848 -95.964264 1.187002
-21.258073 -96.351425 2.272277
-11.564754 -86.538857 28.610279
-11.005585 -86.46954 29.979952
-12.464811 -85.721333 29.680492
-11.120558 -87.953217 27.826019
-11.564754 -86.538857 28.610279
-12.579783 -87.20501 27.526558
-11.26034 -89.569855 27.305602
-10.24531 -88.903702 28.389323
-11.120558 -87.953217 27.826019
-10.736508 -94.273044 22.170586
-10.097771 -93.690178 23.121206
-10.700181 -93.364033 23.97039
-10.993949 -95.341289 20.80021
-10.736508 -94.273044 22.170586
-11.596359 -95.015144 21.649394
-11.719478 -95.738727 18.862722
-10.993949 -95.341289 20.80021
-12.151505 -96.362949 17.217931
-11.719478 -95.738727 18.862722
-12.285827 -96.707611 18.634227
-12.400215 -97.384827 15.451484
-11.833865 -96.415943 15.679979
-12.151505 -96.362949 17.217931
-12.976348 -98.075863 15.710024
-12.658708 -98.128856 14.172073
-12.400215 -97.384827 15.451484
-14.109685 -98.057186 15.23253
-12.976348 -98.075863 15.710024
-13.851191 -97.313156 16.51194
-15.222558 -98.272563 15.082457
-14.109685 -98.057186 15.23253
-16.23728 -97.242153 15.649217
-15.670019 -96.227081 16.370874
-16.922771 -96.174755 15.985646
-15.222558 -98.272563 15.082457
-16.23728 -97.242153 15.649217
-19.559812 -97.574173 14.602328
-19.031733 -96.80656 15.302231
-21.173399 -97.192204 14.413979
-19.559812 -97.574173 14.602328
-18.062488 -91.969921 16.414693
-17.121878 -92.34869 17.388724
-17.51929 -91.173096 17.025306
-18.702485 -92.845421 16.031108
-18.062488 -91.969921 16.414693
-19.099898 -91.669826 15.667689
-19.410418 -93.714314 15.555455
-18.702485 -92.845421 16.031108
-20.852984 -91.896523 14.639907
-20.109523 -90.965858 14.874973
-21.222613 -90.317055 14.230777
-20.176999 -94.431129 15.46885
-19.410418 -93.714314 15.555455
-20.506476 -93.262142 15.197498
-20.923245 -95.201126 15.225683
-19.827188 -95.653298 15.58364
-20.176999 -94.431129 15.46885
-22.480462 -96.678078 13.921822
-21.173399 -97.192204 14.413979
-21.880496 -95.909168 14.848315
-23.838314 -96.204021 13.339135
-22.480462 -96.678078 13.921822
-24.961113 -95.813496 12.729195
-23.838314 -96.204021 13.339135
-24.310358 -95.004516 13.746218
-25.823296 -95.4315 12.039967
-24.961113 -95.813496 12.729195
-26.544705 -94.284656 12.84066
-25.804578 -93.200703 13.247195
-26.916127 -92.871368 12.951576
-25.823296 -95.4315 12.039967
-26.544705 -94.284656 12.84066
-17.049358 -85.15897 37.382137
-18.044868 -83.909363 37.569928
-17.460351 -85.732361 37.283928
-16.408654 -86.053608 36.709416
-17.049358 -85.15897 37.382137
-18.974365 -82.144092 40.353228
-19.729449 -82.472206 40.060242
-18.829168 -82.616608 39.199011
-18.974365 -82.144092 40.353228
-18.752023 -84.11855 38.649357
-18.178199 -83.335781 38.506304
-18.829168 -82.616608 39.199011
-21.603879 -79.028282 35.511532
-21.346127 -79.624969 37.258723
-21.993698 -79.851394 33.885603
-21.603879 -79.028282 35.511532
-21.913483 -78.448356 33.896887
-22.663351 -78.401371 30.74634
-22.305211 -77.650963 32.260063
-22.665259 -76.780865 30.735445
-25.361959 -73.07515 22.356161
-24.935781 -74.164787 23.121606
-25.804098 -73.996536 21.218922
-25.361959 -73.07515 22.356161
-25.57158 -74.998588 19.985885
-25.155311 -75.979714 20.629821
-25.804098 -73.996536 21.218922
-25.416974 -76.13681 18.65141
-25.57158 -74.998588 19.985885
-26.06576 -74.153633 19.240511
-29.636626 -73.500923 17.441226
-30.528924 -74.152412 17.790702
-28.566659 -73.328923 17.512412
-29.636626 -73.500923 17.441226
-28.661469 -74.893986 16.291187
-27.596615 -73.28191 17.882742
-28.566659 -73.328923 17.512412
-26.751328 -75.00692 17.134205
-26.756441 -73.566845 18.654573
-27.596615 -73.28191 17.882742
-27.097442 -79.778386 12.976558
-26.722566 -78.663933 13.648653
-28.160422 -78.596089 13.451514
-26.022176 -80.938328 12.771932
-27.097442 -79.778386 12.976558
-24.967368 -82.324348 12.737158
-24.604778 -81.23225 13.138924
-26.022176 -80.938328 12.771932
-25.441025 -83.421608 12.521601
-24.023626 -83.71553 12.888594
-24.967368 -82.324348 12.737158
-25.981077 -84.397568 12.372454
-25.441025 -83.421608 12.521601
-25.071877 -85.833622 12.901976
-25.981077 -84.397568 12.372454
-12.155615 -86.114395 34.816683
-14.089431 -86.593216 35.111041
-12.771926 -86.43663 34.023049
-11.788068 -85.675312 35.498533
-12.155615 -86.114395 34.816683
-11.371876 -85.804913 32.389428
-10.241608 -85.88847 31.268171
-6.671786 -88.327145 30.119515
-7.569506 -88.172852 30.689348
-7.529492 -89.224049 29.207167
-6.508038 -88.768197 27.367246
-6.950922 -89.915798 26.640837
-6.063802 -88.168053 29.334611
-6.508038 -88.768197 27.367246
-6.671786 -88.327145 30.119515
-6.063802 -88.168053 29.334611
-11.85936 -98.508682 12.87577
-12.658708 -98.128856 14.172073
-20.213088 -98.677388 10.499145
-20.223236 -98.542892 12.221495
-21.763217 -98.095608 11.765137
-18.557734 -98.903118 9.244435
-20.213088 -98.677388 10.499145
-20.097715 -98.455833 8.788077
-17.109849 -99.225243 9.593784
-18.557734 -98.903118 9.244435
-19.471811 -98.069046 7.325952
-19.491516 -98.068657 5.660635
-22.882679 -95.806137 0.351357
-22.679402 -97.231903 0.498656
-22.020848 -95.964264 1.187002
-23.911335 -95.767318 -0.534648
-22.882679 -95.806137 0.351357
-24.456157 -96.840717 -1.104977
-23.911335 -95.767318 -0.534648
3 0 26 24
3 0 28 26
3 1 103 105
3 103 29 104
3 103 104 105
3 2 106 108
3 106 30 107
3 106 107 108
3 2 32 30
3 2 109 111
3 111 110 32
3 109 110 111
3 3 35 33
3 5 38 36
3 5 40 38
3 5 112 114
3 114 113 40
3 112 113 114
3 115 43 116
3 118 117 43
3 119 45 120
3 121 47 122
3 123 122 45
3 121 122 123
3 4 124 126
3 124 51 125
3 124 125 126
3 127 52 128
3 6 129 130
3 6 131 132
3 6 133 135
3 133 53 134
3 133 134 135
3 7 56 54
3 9 57 25
3 9 58 57
3 9 60 58
3 10 61 27
3 10 62 61
3 137 136 63
3 11 138 140
3 140 139 31
3 138 139 140
3 11 141 143
3 141 65 142
3 141 142 143
3 11 144 146
3 146 145 65
3 144 145 146
3 147 67 148
3 149 68 150
3 152 151 68
3 13 71 69
3 15 72 34
3 15 73 72
3 8 74 55
3 16 75 37
3 16 76 75
3 16 77 76
3 17 78 39
3 17 79 78
3 17 80 79
3 154 153 41
3 155 81 156
3 157 82 158
3 159 158 59
3 157 158 159
3 18 83 42
3 18 84 83
3 18 85 84
3 161 160 44
3 162 86 163
3 19 164 166
3 164 87 165
3 164 165 166
3 19 88 87
3 19 89 88
3 20 90 46
3 20 91 90
3 167 92 168
3 21 93 48
3 21 94 93
3 21 95 94
3 22 96 49
3 22 97 96
3 169 98 170
3 23 99 50
3 23 100 99
3 23 101 100
3 14 171 173
3 173 172 70
3 171 172 173
3 174 102 175
3 176 175 64
3 174 175 176
3 12 177 179
3 179 178 66
3 177 178 179
3 24 25 7
3 26 25 24
3 26 9 25
3 26 27 9
3 28 27 26
3 28 10 27
3 29 180 181
3 29 182 183
3 30 184 185
3 30 186 187
3 30 188 190
3 188 31 189
3 188 189 190
3 32 31 30
3 32 11 31
3 32 191 193
3 193 192 11
3 191 192 193
3 195 194 32
3 33 34 13
3 35 34 33
3 35 15 34
3 36 37 8
3 38 37 36
3 38 16 37
3 38 39 16
3 40 39 38
3 40 17 39
3 40 41 17
3 196 41 197
3 198 197 40
3 196 197 198
3 200 199 41
3 201 42 202
3 43 203 205
3 203 42 204
3 203 204 205
3 43 18 42
3 43 44 18
3 206 44 207
3 208 207 43
3 206 207 208
3 210 209 44
3 45 211 212
3 45 213 215
3 213 19 214
3 213 214 215
3 45 46 19
3 47 46 45
3 47 20 46
3 216 48 217
3 218 48 219
3 220 21 221
3 222 221 48
3 220 221 222
3 223 49 224
3 225 224 21
3 223 224 225
3 226 49 227
3 228 22 229
3 230 229 49
3 228 229 230
3 231 50 232
3 233 50 234
3 235 23 236
3 237 236 50
3 235 236 237
3 239 238 23
3 241 240 14
3 51 242 243
3 51 244 245
3 52 246 247
3 52 248 249
3 251 250 12
3 53 252 253
3 53 254 255
3 54 55 3
3 56 55 54
3 56 8 55
3 25 56 7
3 57 56 25
3 57 8 56
3 57 36 8
3 58 36 57
3 58 5 36
3 58 59 5
3 60 59 58
3 60 256 258
3 258 257 59
3 256 257 258
3 27 60 9
3 61 60 27
3 61 259 261
3 261 260 60
3 259 260 261
3 61 262 263
3 62 264 266
3 266 265 61
3 264 265 266
3 62 267 268
3 63 64 4
3 269 64 270
3 271 270 63
3 269 270 271
3 273 272 64
3 31 274 275
3 277 276 31
3 65 278 279
3 65 280 281
3 65 282 283
3 285 284 65
3 287 286 11
3 288 66 289
3 67 290 292
3 290 66 291
3 290 291 292
3 67 12 66
3 293 67 294
3 68 295 297
3 295 67 296
3 295 296 297
3 68 12 67
3 68 298 300
3 300 299 12
3 298 299 300
3 302 301 68
3 303 6 304
3 306 305 6
3 69 70 1
3 71 70 69
3 71 14 70
3 34 71 13
3 72 71 34
3 72 14 71
3 72 307 309
3 309 308 14
3 307 308 309
3 73 310 312
3 312 311 72
3 310 311 312
3 73 313 315
3 313 4 314
3 313 314 315
3 55 35 3
3 74 35 55
3 74 15 35
3 37 74 8
3 75 74 37
3 75 15 74
3 75 73 15
3 76 73 75
3 76 4 73
3 76 63 4
3 77 63 76
3 77 316 318
3 318 317 63
3 316 317 318
3 39 77 16
3 78 77 39
3 78 319 321
3 321 320 77
3 319 320 321
3 78 322 323
3 79 324 326
3 326 325 78
3 324 325 326
3 79 327 329
3 327 2 328
3 327 328 329
3 79 330 332
3 332 331 2
3 330 331 332
3 80 333 335
3 335 334 79
3 333 334 335
3 80 336 337
3 41 80 17
3 338 80 339
3 340 339 41
3 338 339 340
3 342 341 80
3 81 343 344
3 81 345 346
3 59 347 349
3 349 348 5
3 347 348 349
3 82 350 352
3 352 351 59
3 350 351 352
3 82 353 354
3 42 355 357
3 355 82 356
3 355 356 357
3 83 82 42
3 83 358 360
3 360 359 82
3 358 359 360
3 83 361 363
3 361 81 362
3 361 362 363
3 84 81 83
3 84 364 366
3 366 365 81
3 364 365 366
3 84 367 368
3 85 369 371
3 371 370 84
3 369 370 371
3 85 372 373
3 44 85 18
3 374 85 375
3 376 375 44
3 374 375 376
3 378 377 85
3 86 379 380
3 86 381 383
3 381 1 382
3 381 382 383
3 87 384 385
3 87 386 387
3 87 388 390
3 388 86 389
3 388 389 390
3 88 86 87
3 88 1 86
3 88 69 1
3 89 69 88
3 89 13 69
3 46 89 19
3 90 89 46
3 90 13 89
3 90 33 13
3 91 33 90
3 91 3 33
3 391 47 392
3 92 393 395
3 393 47 394
3 393 394 395
3 92 20 47
3 48 396 398
3 396 92 397
3 396 397 398
3 93 92 48
3 93 20 92
3 93 91 20
3 94 91 93
3 94 3 91
3 94 54 3
3 95 54 94
3 95 7 54
3 49 95 21
3 96 95 49
3 96 7 95
3 96 24 7
3 97 24 96
3 97 0 24
3 399 22 400
3 401 22 402
3 403 97 404
3 405 404 22
3 403 404 405
3 98 406 408
3 406 97 407
3 406 407 408
3 98 0 97
3 50 409 410
3 99 411 413
3 413 412 50
3 411 412 413
3 99 414 415
3 99 416 418
3 416 98 417
3 416 417 418
3 100 98 99
3 100 0 98
3 100 28 0
3 101 28 100
3 101 10 28
3 419 101 420
3 421 420 23
3 419 420 421
3 422 101 423
3 424 10 425
3 426 425 101
3 424 425 426
3 427 62 428
3 429 428 10
3 427 428 429
3 430 62 431
3 433 432 62
3 70 29 1
3 434 29 435
3 436 435 70
3 434 435 436
3 438 437 29
3 440 439 14
3 64 51 4
3 102 51 64
3 102 441 443
3 443 442 51
3 441 442 443
3 444 102 445
3 446 102 447
3 449 448 102
3 451 450 2
3 66 452 454
3 452 52 453
3 452 453 454
3 455 52 456
3 457 456 66
3 455 456 457
3 459 458 52
3 461 460 12
3 462 53 463
3 464 463 6
3 462 463 464
3 465 53 466
3 468 467 53
