ply
format ascii 1.0
element vertex 226
property float x
property float y
property float z
element face 215
property list uchar int vertex_index
end_header
-45.323082 32.182762 -14.949312
-47.173973 34.058239 -8.466132
-38.765556 26.594391 -9.807171
-36.068935 32.369541 -4.303487
-42.920258 39.521263 -9.892351
-44.477356 27.619999 -12.765176
-47.24128 33.906445 -12.700418
-42.329376 33.281513 -7.521352
-43.210175 30.338486 -10.747808
-36.752209 28.824713 -5.714358
-44.134865 37.753761 -14.987966
-46.858437 36.518044 -12.18423
-31.262939 27.295094 -8.81093
-29.945578 30.731678 -1.253584
-30.228006 28.935522 -4.943326
-45.46386 29.797907 -14.054482
-46.514294 33.150536 -14.1253
-45.754948 32.136406 -12.314406
-46.053185 30.723591 -13.307816
-44.353191 28.783808 -11.777522
-43.713707 41.977825 -11.655701
-44.922356 37.840851 -11.454439
-44.998356 39.975689 -13.328972
-45.797123 37.602909 -14.074582
-35.169659 27.302933 -9.31412
-34.453503 26.200277 -10.91053
-38.315723 25.763042 -11.62885
-39.400768 32.742027 -6.199633
-39.434208 33.40453 -4.06561
-32.94268 32.804813 -0.805185
-30.090195 31.635448 0.554759
-32.820755 31.786463 -2.342454
-37.653996 27.696514 -7.616437
-33.307888 29.030628 -4.912859
-34.168633 28.143723 -7.148751
-30.610168 28.201603 -6.916121
-42.209778 26.36315 -11.048491
-43.827316 26.007818 -13.314931
-47.571606 34.150124 -10.751265
-45.065937 33.79686 -8.20141
-45.343246 33.391705 -10.670952
-42.530205 32.175777 -9.637863
-39.640297 31.002645 -7.635251
-36.325066 30.679693 -5.185096
-40.348976 29.149731 -8.311638
-41.306236 27.742594 -9.425413
-44.547043 34.935707 -15.06917
-48.215446 34.858208 -8.174835
-47.423607 36.19265 -9.597803
-48.277153 35.111534 -10.517206
-47.807529 35.337452 -12.613446
-46.365292 35.349476 -14.131479
-27.985157 29.63471 1.312668
-27.770483 29.025396 -0.685568
-32.865288 30.256306 -3.337365
-29.956522 29.780407 -3.022646
-27.634848 28.279779 -2.600576
-27.681686 27.536602 -4.318985
-27.768543 26.791336 -6.118112
-44.668526 31.448868 -14.961702
-44.738914 30.256441 -14.514287
-45.393471 30.990334 -14.501897
-44.195377 41.573143 -13.268559
-44.356032 40.976757 -12.492337
-43.553053 42.574211 -12.431923
-44.51322 40.322489 -13.877227
-44.195377 41.573143 -13.268559
-46.011503 33.691065 -7.123392
-47.177761 33.820694 -7.35868
-36.152561 32.80517 -3.417445
-37.818478 32.991413 -4.365518
-37.734852 32.555784 -5.25156
-34.505808 32.587177 -2.554336
-34.589433 33.022806 -1.668294
-36.152561 32.80517 -3.417445
-43.019114 37.193527 -14.677758
-43.225203 35.7845 -14.71836
-44.340954 36.344734 -15.028568
-47.993507 35.439648 -7.620904
-48.447879 34.639191 -7.148658
-44.151852 38.323717 -9.189161
-42.974115 38.742416 -8.518586
-30.678172 26.644284 -9.503251
-29.566296 26.671518 -8.368709
-33.58224 25.642361 -11.57262
-35.597439 25.547501 -11.968753
-42.342201 33.358936 -6.301483
-43.710482 33.61661 -6.641512
-43.697657 33.539186 -7.861381
-39.512199 33.080863 -3.024383
-38.019678 33.138864 -2.268074
-29.566296 26.671518 -8.368709
-27.819099 26.41964 -7.022299
-29.515741 27.043215 -7.464521
-44.917569 28.962539 -14.113035
-44.424317 27.873585 -13.468381
-44.970608 28.708953 -13.409829
-44.917569 28.962539 -14.113035
-44.738914 30.256441 -14.514287
-42.860914 38.603851 -14.610625
-44.081474 39.211525 -14.706724
-44.912604 39.136099 -14.250032
-45.39774 38.789299 -13.701777
-44.51322 40.322489 -13.877227
-44.081474 39.211525 -14.706724
-44.965994 37.678335 -14.531274
-44.912604 39.136099 -14.250032
-37.528549 25.328884 -12.327913
-35.597439 25.547501 -11.968753
-36.384613 25.981659 -11.26969
-37.835197 33.322665 -3.298507
-39.417488 33.073279 -5.132622
-37.818478 32.991413 -4.365518
-38.019678 33.138864 -2.268074
-37.835197 33.322665 -3.298507
-33.200493 32.757084 0.187861
-34.589433 33.022806 -1.668294
-31.710422 32.325102 0.850724
-33.200493 32.757084 0.187861
-31.516438 32.220131 -0.125213
-30.28418 31.74042 1.530696
-31.710422 32.325102 0.850724
-41.958401 40.372608 -9.007291
-42.974115 38.742416 -8.518586
-42.457748 41.616188 -9.846708
-41.958401 40.372608 -9.007291
-42.854473 42.844469 -10.728383
-43.316982 40.749544 -10.774026
-42.457748 41.616188 -9.846708
-43.132513 43.640505 -11.600335
-42.854473 42.844469 -10.728383
-43.553053 42.574211 -12.431923
-43.132513 43.640505 -11.600335
-42.017578 25.792692 -11.700368
-40.295467 25.908312 -11.079708
-40.487667 26.478771 -10.427831
-42.826347 25.615026 -12.833588
-42.017578 25.792692 -11.700368
-43.018547 26.185484 -12.181711
-42.993274 25.521451 -13.825857
-42.826347 25.615026 -12.833588
-44.099297 27.067495 -13.743259
-44.152336 26.813909 -13.040053
-44.424317 27.873585 -13.468381
-43.328663 26.340371 -13.920697
-44.099297 27.067495 -13.743259
-42.993274 25.521451 -13.825857
-43.328663 26.340371 -13.920697
-43.590153 34.323982 -15.007156
-43.978172 32.947509 -14.947227
-44.935063 33.559235 -15.009241
-43.590153 34.323982 -15.007156
-43.225203 35.7845 -14.71836
-43.019114 37.193527 -14.677758
-42.860914 38.603851 -14.610625
-47.698498 34.220678 -7.213031
-48.447879 34.639191 -7.148658
-47.69471 34.458224 -8.320483
-47.177761 33.820694 -7.35868
-47.698498 34.220678 -7.213031
-45.152901 37.483511 -9.970205
-44.151852 38.323717 -9.189161
-43.921307 38.681057 -10.673395
-46.403526 36.65941 -9.041887
-45.152901 37.483511 -9.970205
-46.172981 37.016751 -10.526121
-47.597588 36.106869 -8.332389
-46.403526 36.65941 -9.041887
-47.819526 35.525429 -8.886319
-47.993507 35.439648 -7.620904
-47.597588 36.106869 -8.332389
-32.273454 26.096876 -10.553051
-30.678172 26.644284 -9.503251
-32.858221 26.747685 -9.86073
-32.273454 26.096876 -10.553051
-33.58224 25.642361 -11.57262
-40.07055 25.492638 -11.990547
-38.540639 26.178717 -10.718011
-40.295467 25.908312 -11.079708
-39.221088 25.152773 -12.697302
-40.07055 25.492638 -11.990547
-37.528549 25.328884 -12.327913
-39.221088 25.152773 -12.697302
-44.668526 31.448868 -14.961702
-43.978172 32.947509 -14.947227
-44.957485 33.560376 -6.991031
-46.011503 33.691065 -7.123392
-46.119955 33.927549 -8.333771
-44.957485 33.560376 -6.991031
-43.710482 33.61661 -6.641512
-40.894617 33.420445 -4.573612
-42.342201 33.358936 -6.301483
-40.881792 33.343021 -5.793481
-40.894617 33.420445 -4.573612
-39.512199 33.080863 -3.024383
-29.177388 30.768497 1.955124
-30.28418 31.74042 1.530696
-28.12487 29.768128 2.334078
-29.177388 30.768497 1.955124
-29.037676 30.635079 0.933713
-27.702834 28.385078 2.452687
-28.12487 29.768128 2.334078
-27.640105 28.194517 1.524054
-27.702834 28.385078 2.452687
-27.532768 27.88986 0.524936
-27.640105 28.194517 1.524054
-27.87782 29.330053 0.31355
-27.476293 27.632302 -0.405405
-27.532768 27.88986 0.524936
-27.408476 27.259494 -1.36291
-27.476293 27.632302 -0.405405
-27.702666 28.652588 -1.643072
-27.328 26.933565 -2.162933
-27.408476 27.259494 -1.36291
-27.351419 26.561977 -3.022137
-27.328 26.933565 -2.162933
-27.658267 27.90819 -3.45978
-27.274915 26.170581 -3.802722
-27.351419 26.561977 -3.022137
-27.318344 25.797948 -4.702286
-27.274915 26.170581 -3.802722
-27.725115 27.163969 -5.218548
-27.226566 25.444814 -5.464866
-27.318344 25.797948 -4.702286
-27.226566 25.444814 -5.464866
-27.819099 26.41964 -7.022299
3 0 59 61
3 61 60 15
3 59 60 61
3 0 18 16
3 0 15 18
3 62 22 63
3 64 63 20
3 62 63 64
3 66 65 22
3 2 26 24
3 1 67 68
3 3 69 71
3 71 70 27
3 69 70 71
3 3 72 74
3 72 29 73
3 72 73 74
3 3 31 29
3 2 34 32
3 2 24 34
3 5 37 36
3 6 40 38
3 8 41 17
3 8 42 41
3 8 44 42
3 5 45 19
3 5 36 45
3 10 75 77
3 77 76 46
3 75 76 77
3 78 47 79
3 4 80 81
3 11 48 21
3 11 49 48
3 11 50 49
3 10 51 23
3 10 46 51
3 12 82 83
3 85 84 25
3 7 86 88
3 88 87 39
3 86 87 88
3 90 89 28
3 13 52 30
3 13 53 52
3 9 54 43
3 14 55 33
3 14 56 55
3 14 57 56
3 12 58 35
3 12 91 93
3 93 92 58
3 91 92 93
3 15 94 96
3 96 95 5
3 94 95 96
3 98 97 15
3 16 17 6
3 18 17 16
3 18 8 17
3 18 19 8
3 15 19 18
3 15 5 19
3 100 99 10
3 20 21 4
3 22 21 20
3 22 11 21
3 22 23 11
3 101 23 102
3 103 102 22
3 101 102 103
3 104 10 105
3 106 105 23
3 104 105 106
3 24 25 12
3 26 25 24
3 26 107 109
3 109 108 25
3 107 108 109
3 27 28 7
3 110 28 111
3 112 111 27
3 110 111 112
3 114 113 28
3 29 115 116
3 29 117 118
3 29 119 121
3 119 30 120
3 119 120 121
3 31 30 29
3 31 13 30
3 32 33 9
3 34 33 32
3 34 14 33
3 34 35 14
3 24 35 34
3 24 12 35
3 122 4 123
3 124 4 125
3 126 20 127
3 128 127 4
3 126 127 128
3 129 20 130
3 132 131 20
3 36 133 135
3 135 134 2
3 133 134 135
3 37 136 138
3 138 137 36
3 136 137 138
3 37 139 140
3 141 37 142
3 143 142 5
3 141 142 143
3 144 37 145
3 147 146 37
3 38 39 1
3 40 39 38
3 40 7 39
3 17 40 6
3 41 40 17
3 41 7 40
3 41 27 7
3 42 27 41
3 42 3 27
3 42 43 3
3 44 43 42
3 44 9 43
3 19 44 8
3 45 44 19
3 45 9 44
3 45 32 9
3 36 32 45
3 36 2 32
3 46 148 150
3 150 149 0
3 148 149 150
3 152 151 46
3 154 153 10
3 47 155 156
3 47 157 159
3 157 1 158
3 157 158 159
3 21 160 162
3 162 161 4
3 160 161 162
3 48 163 165
3 165 164 21
3 163 164 165
3 48 166 167
3 48 168 170
3 168 47 169
3 168 169 170
3 49 47 48
3 49 1 47
3 49 38 1
3 50 38 49
3 50 6 38
3 23 50 11
3 51 50 23
3 51 6 50
3 51 16 6
3 46 16 51
3 46 0 16
3 25 171 173
3 173 172 12
3 171 172 173
3 175 174 25
3 176 26 177
3 178 177 2
3 176 177 178
3 179 26 180
3 182 181 26
3 184 183 0
3 39 185 187
3 187 186 1
3 185 186 187
3 189 188 39
3 28 190 192
3 192 191 7
3 190 191 192
3 194 193 28
3 30 195 196
3 52 197 199
3 199 198 30
3 197 198 199
3 52 200 201
3 52 202 203
3 53 204 206
3 206 205 52
3 204 205 206
3 53 207 208
3 43 31 3
3 54 31 43
3 54 13 31
3 33 54 9
3 55 54 33
3 55 13 54
3 55 53 13
3 56 53 55
3 56 209 211
3 211 210 53
3 209 210 211
3 56 212 213
3 57 214 216
3 216 215 56
3 214 215 216
3 57 217 218
3 35 57 14
3 58 57 35
3 58 219 221
3 221 220 57
3 219 220 221
3 58 222 223
3 225 224 58
