ply
format ascii 1.0
element vertex 267
property float x
property float y
property float z
element face 241
property list uchar int vertex_index
end_header
-4.375581 21.274685 -22.255453
-6.534758 51.170429 -9.186365
-9.614317 40.297382 -13.086348
-8.457907 28.612375 -14.168689
-8.025816 58.688148 -0.910786
-7.279418 58.725677 -6.573843
-9.816805 34.367409 -14.19895
-6.877194 50.359879 -15.951756
-6.633298 44.484322 -17.17889
-8.162115 46.003418 -11.448648
-5.778393 38.555916 -19.25786
-5.227363 32.802925 -20.376286
-6.018717 26.171412 -19.072126
-8.033307 55.123535 -2.55146
-5.679984 19.430298 -22.588823
-5.319669 18.832134 -21.172686
-6.525377 54.776112 -7.625758
-6.571579 58.676353 -9.791755
-8.213901 55.150307 -10.473255
-8.87184 51.048462 -11.977048
-7.780409 47.949421 -13.03286
-7.211065 48.49427 -10.388796
-7.058094 42.40535 -14.831304
-6.385271 41.425026 -18.08189
-7.147698 39.538979 -15.780031
-9.370035 31.415668 -14.229677
-7.351023 33.701279 -17.088894
-7.47034 30.868214 -17.189075
-5.343239 29.481119 -20.033976
-7.586642 27.58046 -16.733498
-7.327949 24.585983 -15.974733
-7.208131 62.267811 -2.322659
-6.461464 62.213234 -5.415193
-7.372434 58.673725 -3.681364
-7.52548 55.085907 -5.136621
-8.237379 52.022266 -6.63906
-9.032315 49.566948 -8.229215
-11.23624 38.126793 -11.107086
-9.832762 37.26162 -13.82323
-10.550016 35.230446 -11.482725
-9.352847 32.638367 -11.902549
-5.495955 20.920826 -19.39938
-5.835488 62.28883 -8.967982
-6.525473 47.368664 -16.666727
-7.022612 45.15435 -13.976776
-9.130978 43.246162 -12.432239
-9.945643 46.921734 -9.436447
-10.935106 44.019798 -10.226393
-11.382678 41.034767 -10.695013
-7.244977 61.48867 0.737038
-3.633153 24.467665 -24.347042
-3.830741 40.561905 -22.434879
-3.506579 37.410641 -23.505789
-7.434997 36.541649 -16.560223
-5.457948 35.703629 -20.029734
-3.273029 34.214874 -24.307314
-3.461292 30.780228 -23.912029
-3.899922 27.266468 -22.872166
-4.850724 24.069864 -21.32548
-6.410033 23.093006 -18.021046
-4.847625 20.05341 -21.71407
-4.874834 20.266247 -22.547184
-4.40279 21.487522 -23.088567
-7.862559 27.251244 -14.117906
-7.426926 26.735286 -15.40031
-8.022274 28.096418 -15.451094
-8.457942 53.617813 -4.644728
-7.779394 55.104721 -3.844041
-8.711856 53.636627 -3.352148
-8.813892 52.085993 -5.395948
-7.88143 53.554086 -5.88784
-8.457942 53.617813 -4.644728
-9.690644 51.103212 -6.087039
-8.813892 52.085993 -5.395948
-6.423876 18.517315 -21.512989
-6.000551 17.905717 -21.229457
-10.322719 35.929052 -10.423098
-10.893128 36.678619 -11.294906
-10.665831 37.377226 -10.235278
-8.378761 32.205236 -11.426185
-9.06743 33.482304 -11.071387
-8.488241 31.368563 -12.156613
-8.378761 32.205236 -11.426185
-5.793207 19.059451 -17.624485
-5.855232 20.432727 -17.856732
-5.738411 59.838543 -10.968374
-6.091077 58.166337 -11.588582
-6.07936 51.789803 -17.497701
-6.931756 52.210497 -15.349563
-5.816726 49.984983 -17.931503
-6.07936 51.789803 -17.497701
-6.701334 48.864272 -16.309241
-5.640866 48.489376 -18.288988
-5.816726 49.984983 -17.931503
-11.157388 47.305143 -8.05764
-9.488979 48.244341 -8.832831
-10.700724 48.62775 -7.454023
-11.576314 42.854784 -9.3039
-11.850855 44.355989 -8.957905
-11.8001 41.362268 -9.53821
-11.158892 42.527282 -10.460703
-11.576314 42.854784 -9.3039
-11.356493 40.011741 -9.682253
-11.8001 41.362268 -9.53821
-7.283701 62.59214 1.529166
-7.384294 62.793865 0.052272
-3.375598 26.24991 -25.129639
-3.710624 24.831024 -25.086137
-5.474013 44.044678 -19.210512
-5.588504 45.547092 -18.84552
-7.074302 23.158578 -15.47573
-6.956554 23.920789 -14.707621
-8.652249 55.599954 -1.307354
-8.029561 56.905841 -1.731123
-8.648504 57.382261 -0.487017
-9.281419 53.84998 -1.974189
-8.652249 55.599954 -1.307354
-8.711856 53.636627 -3.352148
-9.281419 53.84998 -1.974189
-5.054991 20.565328 -23.255253
-5.351876 21.12845 -23.715305
-5.499827 19.131216 -21.880755
-5.054991 20.565328 -23.255253
-4.874834 20.266247 -22.547184
-5.820393 17.606635 -20.521388
-6.000551 17.905717 -21.229457
-5.499827 19.131216 -21.880755
-6.912238 56.403315 -11.929332
-6.091077 58.166337 -11.588582
-7.39274 56.91333 -10.132505
-7.60011 54.605711 -12.610312
-6.912238 56.403315 -11.929332
-7.929079 52.554789 -13.362209
-7.60011 54.605711 -12.610312
-8.54287 53.099384 -11.225151
-7.874517 50.704171 -13.964402
-6.931756 52.210497 -15.349563
-7.929079 52.554789 -13.362209
-7.29758 25.238048 -15.020928
-7.457296 26.083222 -16.354115
-7.426926 26.735286 -15.40031
-6.956554 23.920789 -14.707621
-7.29758 25.238048 -15.020928
-6.834798 62.240522 -3.868926
-6.844461 63.501034 -4.667986
-7.217795 63.528323 -3.121719
-10.088112 49.875553 -6.882116
-8.634847 50.794607 -7.434138
-9.690644 51.103212 -6.087039
-10.700724 48.62775 -7.454023
-10.088112 49.875553 -6.882116
-6.206402 20.132058 -22.64741
-5.351876 21.12845 -23.715305
-6.206402 20.132058 -22.64741
-6.423876 18.517315 -21.512989
-9.666014 34.778344 -10.861475
-10.322719 35.929052 -10.423098
-9.951431 33.934407 -11.692637
-9.666014 34.778344 -10.861475
-9.06743 33.482304 -11.071387
-8.496835 30.757213 -13.320177
-9.361441 32.027017 -13.066113
-8.488241 31.368563 -12.156613
-8.040771 29.355567 -13.289683
-8.913971 30.014021 -14.199183
-8.496835 30.757213 -13.320177
-7.531271 28.034841 -13.292397
-8.040771 29.355567 -13.289683
-5.458921 19.588936 -19.0989
-4.898734 19.765866 -20.526936
-4.935768 21.097756 -20.827416
-5.458921 19.588936 -19.0989
-5.793207 19.059451 -17.624485
-6.654143 63.409668 -6.30914
-6.844461 63.501034 -4.667986
-6.341155 63.447466 -8.085534
-6.654143 63.409668 -6.30914
-6.148476 62.251032 -7.191587
-5.974751 62.875128 -9.779303
-6.341155 63.447466 -8.085534
-5.370365 61.644781 -10.556487
-6.203533 60.482591 -9.379869
-5.738411 59.838543 -10.968374
-5.974751 62.875128 -9.779303
-5.370365 61.644781 -10.556487
-5.534591 46.989263 -18.589438
-5.640866 48.489376 -18.288988
-6.579385 45.926493 -16.922809
-5.588504 45.547092 -18.84552
-5.534591 46.989263 -18.589438
-11.356123 45.806957 -8.562932
-11.157388 47.305143 -8.05764
-10.440375 45.470766 -9.83142
-11.356123 45.806957 -8.562932
-11.850855 44.355989 -8.957905
-11.283275 38.557755 -9.888289
-11.309459 39.58078 -10.901049
-11.356493 40.011741 -9.682253
-10.665831 37.377226 -10.235278
-11.283275 38.557755 -9.888289
-7.365871 63.183436 -1.477576
-7.217795 63.528323 -3.121719
-7.226554 61.878241 -0.79281
-7.365871 63.183436 -1.477576
-7.384294 62.793865 0.052272
-7.219074 61.373169 2.031188
-7.283701 62.59214 1.529166
-7.774132 60.069475 1.156565
-7.219074 61.373169 2.031188
-8.164551 58.669214 0.332653
-7.635397 60.088409 -0.086874
-7.774132 60.069475 1.156565
-8.648504 57.382261 -0.487017
-8.164551 58.669214 0.332653
-5.370778 18.54459 -19.985553
-4.847625 20.05341 -21.71407
-4.898734 19.765866 -20.526936
-5.62787 17.208709 -19.475046
-5.370778 18.54459 -19.985553
-5.820393 17.606635 -20.521388
-5.62787 17.208709 -19.475046
-4.031576 23.084012 -24.134362
-3.710624 24.831024 -25.086137
-4.004367 22.871175 -23.301247
-4.40279 21.487522 -23.088567
-4.031576 23.084012 -24.134362
-5.349999 42.51503 -19.662012
-5.474013 44.044678 -19.210512
-6.509284 42.954674 -17.63039
-4.072734 42.08347 -21.838507
-5.349999 42.51503 -19.662012
-5.108006 40.993465 -20.258384
-3.490673 41.248331 -23.517964
-4.072734 42.08347 -21.838507
-3.369162 39.64929 -24.027493
-3.490673 41.248331 -23.517964
-3.207082 38.073658 -24.562947
-3.369162 39.64929 -24.027493
-3.66866 38.986273 -22.970334
-3.134533 36.521956 -24.996704
-3.207082 38.073658 -24.562947
-3.017758 34.924072 -25.397467
-3.134533 36.521956 -24.996704
-3.389804 35.812758 -23.906551
-3.043933 33.12767 -25.505367
-3.017758 34.924072 -25.397467
-3.138064 31.410347 -25.307724
-3.043933 33.12767 -25.505367
-3.36716 32.497551 -24.109672
-3.289668 29.406191 -24.912133
-3.138064 31.410347 -25.307724
-3.508983 27.649311 -24.392201
-3.289668 29.406191 -24.912133
-3.680607 29.023348 -23.392097
-3.766538 25.867066 -23.609604
-3.375598 26.24991 -25.129639
-3.508983 27.649311 -24.392201
-6.312271 21.518817 -17.167564
-5.855232 20.432727 -17.856732
-5.952994 22.006916 -18.710213
-6.615343 22.41209 -16.498886
-6.868991 23.839495 -16.997889
-7.074302 23.158578 -15.47573
-6.312271 21.518817 -17.167564
-6.615343 22.41209 -16.498886
-7.862559 27.251244 -14.117906
-7.531271 28.034841 -13.292397
3 0 60 62
3 60 15 61
3 60 61 62
3 1 18 16
3 1 19 18
3 1 21 19
3 2 24 22
3 3 27 25
3 3 29 27
3 3 63 65
3 65 64 29
3 63 64 65
3 4 33 31
3 66 34 67
3 68 67 13
3 66 67 68
3 69 35 70
3 71 70 34
3 69 70 71
3 73 72 35
3 75 74 14
3 76 39 77
3 78 77 37
3 76 77 78
3 79 40 80
3 82 81 40
3 84 83 41
3 5 42 32
3 86 85 17
3 7 87 88
3 7 89 90
3 7 91 93
3 91 43 92
3 91 92 93
3 9 44 20
3 9 45 44
3 94 46 95
3 96 95 36
3 94 95 96
3 97 47 98
3 99 48 100
3 101 100 47
3 99 100 101
3 103 102 48
3 104 49 105
3 106 50 107
3 8 108 109
3 10 51 23
3 10 52 51
3 6 53 38
3 11 54 26
3 11 55 54
3 11 56 55
3 12 57 28
3 12 58 57
3 12 59 58
3 111 110 30
3 112 13 113
3 114 113 4
3 112 113 114
3 115 13 116
3 118 117 13
3 119 14 120
3 15 121 123
3 121 14 122
3 121 122 123
3 15 124 126
3 126 125 14
3 124 125 126
3 16 17 5
3 18 17 16
3 18 127 129
3 129 128 17
3 127 128 129
3 18 130 131
3 19 132 134
3 134 133 18
3 132 133 134
3 19 135 137
3 135 7 136
3 135 136 137
3 19 20 7
3 21 20 19
3 21 9 20
3 22 23 8
3 24 23 22
3 24 10 23
3 25 26 6
3 27 26 25
3 27 11 26
3 27 28 11
3 29 28 27
3 29 12 28
3 29 30 12
3 138 30 139
3 140 139 29
3 138 139 140
3 142 141 30
3 31 143 145
3 143 32 144
3 143 144 145
3 33 32 31
3 33 5 32
3 13 33 4
3 34 33 13
3 34 5 33
3 34 16 5
3 35 16 34
3 35 1 16
3 35 36 1
3 146 36 147
3 148 147 35
3 146 147 148
3 150 149 36
3 14 151 152
3 154 153 14
3 37 38 2
3 39 38 37
3 39 6 38
3 155 39 156
3 40 157 159
3 157 39 158
3 157 158 159
3 40 6 39
3 40 25 6
3 160 25 161
3 162 161 40
3 160 161 162
3 163 3 164
3 165 164 25
3 163 164 165
3 167 166 3
3 41 168 170
3 170 169 0
3 168 169 170
3 172 171 41
3 32 173 174
3 42 175 177
3 177 176 32
3 175 176 177
3 42 178 179
3 17 42 5
3 180 42 181
3 182 181 17
3 180 181 182
3 184 183 42
3 43 185 186
3 43 187 189
3 187 8 188
3 187 188 189
3 20 43 7
3 44 43 20
3 44 8 43
3 44 22 8
3 45 22 44
3 45 2 22
3 36 21 1
3 46 21 36
3 46 9 21
3 190 46 191
3 47 192 194
3 192 46 193
3 192 193 194
3 47 9 46
3 47 45 9
3 48 45 47
3 48 2 45
3 48 37 2
3 195 37 196
3 197 196 48
3 195 196 197
3 199 198 37
3 200 31 201
3 49 202 204
3 202 31 203
3 202 203 204
3 49 4 31
3 205 49 206
3 207 49 208
3 209 4 210
3 211 210 49
3 209 210 211
3 213 212 4
3 214 15 215
3 216 215 0
3 214 215 216
3 217 15 218
3 220 219 15
3 50 221 222
3 50 223 225
3 223 0 224
3 223 224 225
3 23 226 228
3 228 227 8
3 226 227 228
3 51 229 231
3 231 230 23
3 229 230 231
3 51 232 233
3 51 234 235
3 52 236 238
3 238 237 51
3 236 237 238
3 52 239 240
3 38 24 2
3 53 24 38
3 53 10 24
3 26 53 6
3 54 53 26
3 54 10 53
3 54 52 10
3 55 52 54
3 55 241 243
3 243 242 52
3 241 242 243
3 55 244 245
3 56 246 248
3 248 247 55
3 246 247 248
3 56 249 250
3 28 56 11
3 57 56 28
3 57 251 253
3 253 252 56
3 251 252 253
3 57 254 256
3 254 50 255
3 254 255 256
3 58 50 57
3 58 0 50
3 58 41 0
3 59 41 58
3 59 257 259
3 259 258 41
3 257 258 259
3 30 59 12
3 260 59 261
3 262 261 30
3 260 261 262
3 264 263 59
3 266 265 3
