ply
format ascii 1.0
element vertex 501
property float x
property float y
property float z
element face 499
property list uchar int vertex_index
end_header
48.940086 26.209553 4.660007
39.825165 33.640339 9.26911
41.4282 40.177666 -5.5761
51.792763 32.941048 -1.650377
41.027672 30.419147 1.945154
51.761822 30.503525 5.183939
54.868782 23.692547 12.072286
46.868217 27.291149 13.654955
42.336784 37.946438 2.036409
43.847435 24.767309 7.047513
47.655285 30.335541 -1.076292
46.187794 32.734386 7.088158
49.065865 29.359394 9.228238
43.846375 30.968845 11.262943
38.565697 40.85038 4.930046
41.318287 36.027031 5.61161
47.596325 35.264259 4.541853
54.635448 22.667831 17.576008
38.504826 30.966503 13.922333
47.969006 37.788231 -3.480802
50.676842 32.759117 -5.694901
45.04409 32.49514 -3.943975
38.317825 32.13335 -0.21062
32.256268 30.22753 3.927266
35.642937 29.227039 5.523873
53.161762 27.340906 3.832404
52.924629 24.590755 7.643677
53.837749 27.24708 8.080162
50.666046 25.061926 18.669239
41.675865 27.689419 15.46212
45.658951 25.631433 18.856897
40.217854 43.367321 1.879231
42.360497 39.683815 -1.448128
47.684673 35.477352 0.350357
52.332428 31.511524 1.699184
46.333641 25.583569 5.717957
48.119171 24.667406 6.990544
50.201729 27.168848 2.708386
46.884155 26.832806 3.924089
44.129276 26.35857 5.176769
43.009029 33.397869 8.168777
44.722717 32.095135 9.485217
42.025486 32.536476 10.283851
37.350452 35.345882 8.516212
38.269615 36.813244 6.439775
40.409378 34.679981 7.276721
43.835804 34.368416 6.522199
40.89135 43.570335 -5.8376
50.497055 35.6343 -2.721823
50.436905 35.287037 -4.856966
51.522968 33.234604 -3.749393
44.272114 30.481195 0.272496
46.24799 31.528708 -2.240002
42.881435 31.806896 -0.916652
39.710186 31.713984 0.963839
36.731163 31.25444 2.910151
38.297401 30.084366 3.631795
53.232666 28.777084 4.298841
53.908936 27.388752 5.99573
52.996765 28.82275 6.303317
48.006081 28.635599 11.29012
49.690773 27.061005 13.576675
51.530334 25.749645 16.397093
48.855392 26.071991 16.195448
39.286797 30.316381 17.173178
40.210674 29.274139 14.582913
40.367317 28.609913 17.611752
43.383106 26.032642 19.445911
39.996998 39.320873 3.313512
40.186642 41.996387 3.833143
40.994198 40.394825 1.851404
40.55249 41.271057 -0.135556
42.680016 38.910633 0.38651
45.132256 37.439003 -0.882577
44.776981 36.637409 1.134522
49.782475 32.613808 4.38116
50.343853 34.08041 3.378273
52.082012 30.950872 3.325366
53.045887 29.229223 2.536342
54.437645 23.902206 9.34054
48.777252 34.60788 -8.712994
51.939636 30.296331 -0.740035
50.966377 30.715464 -2.190128
49.133629 29.334797 -0.159724
45.754745 29.201878 1.34939
42.503571 28.717188 2.862719
39.843616 28.420828 4.410433
41.702137 25.71254 6.870913
49.130363 31.686092 6.102105
50.511906 30.066071 7.138987
47.765141 31.21199 8.453751
46.355247 30.53208 10.296143
45.346489 29.178364 11.969244
37.37204 39.629944 6.343152
39.082809 38.220757 4.623872
42.009468 37.254822 3.701097
44.795269 36.671227 3.187786
44.71418 35.656147 5.219478
46.980442 33.61969 5.51407
36.843254 33.961082 10.68548
38.841454 32.471661 11.547804
36.637733 32.658096 13.615332
37.806747 32.033257 16.58853
44.120037 37.843338 -4.384826
49.685555 34.579227 -6.538358
49.67852 31.488811 -3.575693
48.187401 32.021496 -4.888566
35.180088 31.570332 1.93614
33.905533 30.114414 4.850507
37.417469 27.885639 6.076423
51.419292 26.582565 3.89808
51.010769 25.577738 6.133356
53.049091 26.259317 5.824714
54.271473 25.870539 7.756579
54.554176 25.647959 9.948488
51.782234 28.35931 8.485204
52.969757 26.809244 10.493083
53.943481 25.333019 12.97099
53.697662 24.714241 16.010164
52.827759 23.919598 18.359241
41.02018 31.014057 12.315998
42.547413 29.231039 13.077617
44.200329 27.628555 14.255089
41.482586 27.085901 18.367401
43.564072 26.488104 16.817875
46.302551 26.254726 16.062696
48.140785 25.478954 18.484838
39.622742 42.421032 -3.834796
41.018318 45.03791 3.927835
38.992622 43.84726 0.33268
41.55196 39.482494 -3.365341
45.19099 38.526253 -2.434338
48.106228 36.657558 -1.862511
50.300545 34.614124 -0.614932
47.549408 35.506805 2.512417
50.572685 33.991344 1.506778
52.256386 32.021423 0.112709
52.549786 29.749887 0.855419
52.296867 27.817043 2.332689
50.332127 23.37212 7.813263
42.0672 40.949428 -6.76135
41.798775 42.645763 -6.8921
41.159775 41.874001 -5.70685
41.10626 29.504495 18.655864
39.827057 29.463147 17.392465
40.566 30.357729 18.436577
54.337569 22.935523 11.579175
54.122 23.040352 10.213302
54.653214 23.797376 10.706413
48.524143 34.883196 -10.048858
49.09648 33.887783 -9.115762
43.626556 23.686948 7.982273
42.726228 24.303204 7.809423
50.146799 28.970299 0.346405
50.536632 29.815564 -0.449879
51.549802 29.451066 0.05625
45.199972 28.389512 2.463547
46.91752 28.784512 1.730368
43.574385 28.147167 3.220212
44.129158 28.959533 2.106054
45.199972 28.389512 2.463547
42.208984 27.918982 3.923889
43.574385 28.147167 3.220212
42.726228 24.303204 7.809423
41.653579 24.77582 7.721123
42.774786 25.239925 6.959213
37.002926 38.937443 7.261052
37.281277 40.48095 7.367542
55.102148 21.671911 17.076109
54.815649 23.076048 16.398681
35.907424 33.787396 13.271977
36.740493 33.309589 12.150406
36.010185 34.438888 11.807051
38.652393 32.827784 17.68231
37.10073 32.938462 16.469494
39.36829 32.139683 17.725098
38.652393 32.827784 17.68231
36.010185 34.438888 11.807051
36.227211 35.291984 10.550594
47.582621 37.178494 -4.484839
45.658136 37.206047 -4.936851
46.044522 37.815785 -3.932814
50.382053 32.791695 -6.572656
49.88641 33.70175 -6.994385
50.181199 33.669172 -6.11663
46.32893 32.472648 -5.441824
47.900586 32.235827 -5.914119
46.615746 32.258318 -4.41627
44.769079 32.41349 -5.003135
46.32893 32.472648 -5.441824
39.603548 32.071928 -2.052543
40.053051 32.291617 -1.379011
37.690827 31.857048 -0.750435
39.603548 32.071928 -2.052543
36.748956 31.851841 0.86276
36.121958 31.575539 0.322945
37.690827 31.857048 -0.750435
34.430132 28.47721 6.358108
33.56143 28.920898 6.021425
34.774235 29.670727 5.18719
38.43174 27.250892 6.364422
38.630542 28.153233 5.243428
39.644813 27.518487 5.531427
52.573324 26.567631 11.936412
51.7862 27.242523 10.775239
53.060186 25.829519 13.175365
53.456619 26.071131 11.732036
52.573324 26.567631 11.936412
52.937276 25.52013 14.694952
53.820571 25.02363 14.490577
53.060186 25.829519 13.175365
50.742142 23.914035 18.759526
51.822998 23.342871 18.604526
51.746903 24.490762 18.51424
42.038637 27.178348 19.783234
41.8139 27.938007 19.453259
39.273522 43.679531 -2.789105
39.588223 44.083704 -3.849675
39.093399 42.373392 5.116013
38.309914 41.735079 5.773199
40.013922 44.814094 2.19402
40.414154 45.649389 3.218322
40.618086 44.202615 2.903533
39.605238 43.60729 1.105956
39.401306 45.054064 1.420744
40.013922 44.814094 2.19402
40.964121 40.62352 -1.618075
40.060118 41.417141 -0.961789
41.456494 40.477436 -0.791842
41.956229 39.583155 -2.406734
40.559853 40.52286 -2.576682
40.964121 40.62352 -1.618075
31.547646 29.928007 3.241198
32.984194 30.643062 2.446397
46.050625 24.642671 6.780475
44.807522 24.234541 7.445253
45.090538 25.175439 6.382735
46.94339 24.18459 7.416768
46.050625 24.642671 6.780475
47.226406 25.125487 6.354251
47.780975 23.494421 7.583737
46.605194 23.011604 8.009962
46.94339 24.18459 7.416768
49.141013 27.767997 2.409866
50.680849 27.887324 1.78046
47.482225 27.599977 3.017718
49.141013 27.767997 2.409866
48.542942 27.000827 3.316237
45.764677 27.204976 3.750897
47.482225 27.599977 3.017718
45.506715 26.595688 4.550429
44.387237 26.967858 4.377237
45.764677 27.204976 3.750897
37.810034 36.079563 7.477994
37.451713 37.529093 7.309364
36.992132 36.795412 8.347582
54.878595 21.205866 17.838307
53.844659 22.152538 18.131172
41.981125 44.226799 -6.865393
41.022675 45.178337 -5.791837
42.88855 43.302227 -7.919893
41.981125 44.226799 -6.865393
41.798775 42.645763 -6.8921
42.334856 32.128389 -1.732027
43.416184 32.472511 -3.245688
43.962762 32.151018 -2.430314
40.749232 32.081933 -0.791781
42.334856 32.128389 -1.732027
41.295811 31.76044 0.023593
39.014005 31.923667 0.376609
40.053051 32.291617 -1.379011
40.749232 32.081933 -0.791781
49.304361 28.155701 11.173757
49.834254 28.517598 10.142816
48.535973 28.997497 10.259179
50.146708 27.368403 12.317035
49.304361 28.155701 11.173757
48.848427 27.848302 12.433397
50.933832 26.693512 13.478207
50.146708 27.368403 12.317035
50.610554 26.405325 14.986884
51.853612 26.037832 14.888417
50.933832 26.693512 13.478207
43.160005 25.76448 20.350165
42.988897 26.651718 20.322488
44.074434 25.384864 19.95834
43.160005 25.76448 20.350165
45.212356 25.18426 19.663832
44.521028 25.832037 19.151404
44.074434 25.384864 19.95834
45.815491 24.532345 20.150847
46.262085 24.979518 19.343912
45.212356 25.18426 19.663832
53.382489 23.184012 9.031201
52.62598 23.528287 8.182769
53.681137 24.246481 8.492109
53.382489 23.184012 9.031201
54.122 23.040352 10.213302
47.680433 36.031975 -9.898827
47.587338 35.250002 -8.288118
47.680433 36.031975 -9.898827
48.524143 34.883196 -10.048858
30.849013 27.820442 5.666171
31.224716 28.934151 4.45411
31.880565 29.113821 5.139327
43.626556 23.686948 7.982273
44.807522 24.234541 7.445253
48.606962 28.850972 0.975811
50.146799 28.970299 0.346405
47.444187 29.268338 0.594833
48.606962 28.850972 0.975811
46.91752 28.784512 1.730368
40.879007 27.770803 4.697745
41.173593 28.569008 3.636576
42.208984 27.918982 3.923889
39.644813 27.518487 5.531427
40.879007 27.770803 4.697745
43.021837 26.739674 5.080914
44.387237 26.967858 4.377237
41.808267 26.416659 5.927986
43.021837 26.739674 5.080914
42.915706 26.035555 6.023841
40.574074 26.164343 6.761667
41.808267 26.416659 5.927986
40.546961 25.311259 7.689253
40.574074 26.164343 6.761667
40.546961 25.311259 7.689253
41.653579 24.77582 7.721123
37.713085 41.124861 6.479752
37.281277 40.48095 7.367542
37.968868 40.240162 5.636599
38.309914 41.735079 5.773199
37.713085 41.124861 6.479752
37.820828 38.221594 6.391464
37.002926 38.937443 7.261052
37.451713 37.529093 7.309364
54.758311 22.757233 13.148716
54.932316 23.588406 13.64682
55.102148 21.671911 17.076109
54.878595 21.205866 17.838307
36.516223 33.250881 14.982895
35.907424 33.787396 13.271977
37.22224 32.345676 15.101931
36.516223 33.250881 14.982895
37.10073 32.938462 16.469494
40.108314 31.281245 18.017422
38.546772 31.174819 16.880854
39.36829 32.139683 17.725098
40.566 30.357729 18.436577
40.108314 31.281245 18.017422
36.48081 35.984385 9.46596
36.992132 36.795412 8.347582
37.096853 34.653482 9.600846
36.48081 35.984385 9.46596
36.227211 35.291984 10.550594
43.964552 37.803371 -5.64534
42.618634 38.970535 -6.240977
42.774119 39.010502 -4.980463
43.964552 37.803371 -5.64534
45.658136 37.206047 -4.936851
48.81657 35.927897 -5.172921
47.582621 37.178494 -4.484839
49.202956 36.537634 -4.168884
48.440895 35.573992 -6.013616
48.81657 35.927897 -5.172921
50.06123 34.933132 -5.697662
48.041489 35.235675 -7.2008
48.440895 35.573992 -6.013616
49.231403 34.593553 -7.625676
47.587338 35.250002 -8.288118
48.041489 35.235675 -7.2008
49.432259 33.716076 -8.081703
49.231403 34.593553 -7.625676
49.88641 33.70175 -6.994385
49.09648 33.887783 -9.115762
49.432259 33.716076 -8.081703
49.137333 32.422884 -6.169489
50.382053 32.791695 -6.572656
49.432122 32.390307 -5.291733
49.137333 32.422884 -6.169489
47.900586 32.235827 -5.914119
44.769079 32.41349 -5.003135
43.416184 32.472511 -3.245688
34.446104 31.314463 1.450833
36.121958 31.575539 0.322945
33.718178 30.898931 2.931703
32.984194 30.643062 2.446397
34.446104 31.314463 1.450833
32.705197 29.057263 5.600948
31.880565 29.113821 5.139327
33.0809 30.170972 4.388886
32.705197 29.057263 5.600948
33.56143 28.920898 6.021425
37.265228 26.925033 7.191298
38.43174 27.250892 6.364422
36.210024 27.408235 6.976313
37.265228 26.925033 7.191298
35.322758 28.078936 6.700038
36.530203 28.556339 5.800148
36.210024 27.408235 6.976313
34.430132 28.47721 6.358108
35.322758 28.078936 6.700038
51.192438 28.017556 9.771299
50.42405 28.859352 8.856721
49.834254 28.517598 10.142816
52.375996 27.584277 9.489144
51.192438 28.017556 9.771299
51.7862 27.242523 10.775239
54.469665 24.408642 14.096172
54.932316 23.588406 13.64682
54.406132 24.512783 12.521638
54.346756 24.099252 15.615759
54.469665 24.408642 14.096172
53.820571 25.02363 14.490577
54.166555 23.691036 16.793086
54.815649 23.076048 16.398681
54.346756 24.099252 15.615759
52.613998 25.231943 16.203629
52.937276 25.52013 14.694952
51.853612 26.037832 14.888417
52.940815 22.778422 18.522788
53.844659 22.152538 18.131172
53.731603 23.293715 17.967624
52.940815 22.778422 18.522788
51.822998 23.342871 18.604526
41.256265 28.700012 19.075434
41.10626 29.504495 18.655864
40.924951 27.847907 17.989576
41.256265 28.700012 19.075434
41.8139 27.938007 19.453259
42.432846 26.559272 18.906656
42.038637 27.178348 19.783234
42.988897 26.651718 20.322488
47.503002 24.903278 19.157882
46.899868 25.555194 18.670867
46.262085 24.979518 19.343912
48.445234 24.572958 18.750355
47.503002 24.903278 19.157882
49.707864 24.364444 18.842556
49.403416 25.27044 18.577039
48.445234 24.572958 18.750355
50.742142 23.914035 18.759526
49.707864 24.364444 18.842556
40.222527 44.658355 -4.851077
41.022675 45.178337 -5.791837
40.257046 42.995683 -4.836198
40.222527 44.658355 -4.851077
39.588223 44.083704 -3.849675
39.903872 42.946395 4.567562
39.093399 42.373392 5.116013
39.37617 41.423383 4.381595
40.31971 44.467157 4.614908
39.903872 42.946395 4.567562
40.60248 43.517148 3.880489
40.632621 45.993598 4.745235
40.31971 44.467157 4.614908
40.914747 46.615223 4.013761
40.632621 45.993598 4.745235
40.914747 46.615223 4.013761
40.414154 45.649389 3.218322
38.963161 45.715378 0.337744
39.401306 45.054064 1.420744
38.958461 44.392645 -0.705367
38.963161 45.715378 0.337744
39.280183 42.705242 -0.727672
39.772556 42.559158 0.098562
40.060118 41.417141 -0.961789
38.958461 44.392645 -0.705367
39.280183 42.705242 -0.727672
39.595244 41.992128 -2.811409
39.273522 43.679531 -2.789105
40.587351 40.951763 -3.600068
39.595244 41.992128 -2.811409
40.559853 40.52286 -2.576682
51.854878 29.177844 0.853977
51.549802 29.451066 0.05625
52.244711 30.023109 0.057692
51.728418 28.211422 1.592611
51.854878 29.177844 0.853977
52.423327 28.783465 1.594054
51.249298 27.492946 2.520537
50.680849 27.887324 1.78046
51.728418 28.211422 1.592611
48.887453 22.846778 7.995097
47.780975 23.494421 7.583737
49.225649 24.019763 7.401903
51.329729 22.918969 8.267562
51.628378 23.981437 7.72847
52.62598 23.528287 8.182769
49.807583 22.26609 8.343903
51.329729 22.918969 8.267562
48.887453 22.846778 7.995097
49.807583 22.26609 8.343903
54.337569 22.935523 11.579175
54.758311 22.757233 13.148716
43.257633 39.742298 -7.426227
42.0672 40.949428 -6.76135
42.618634 38.970535 -6.240977
30.516095 28.634628 3.768041
31.547646 29.928007 3.241198
31.224716 28.934151 4.45411
3 0 36 35
3 0 38 37
3 0 35 38
3 1 42 40
3 1 45 43
3 1 40 45
3 2 140 142
3 142 141 47
3 140 141 142
3 3 50 48
3 4 53 51
3 4 54 53
3 4 56 54
3 5 59 57
3 7 61 60
3 7 63 61
3 143 66 144
3 145 144 64
3 143 144 145
3 8 70 68
3 8 72 70
3 8 74 72
3 5 77 75
3 5 57 77
3 6 146 148
3 148 147 79
3 146 147 148
3 150 149 80
3 9 151 152
3 153 83 154
3 155 154 81
3 153 154 155
3 156 84 157
3 158 85 159
3 160 159 84
3 158 159 160
3 162 161 85
3 9 87 39
3 9 163 165
3 165 164 87
3 163 164 165
3 11 90 88
3 13 91 41
3 13 92 91
3 166 93 167
3 15 94 44
3 15 95 94
3 15 97 95
3 11 98 46
3 11 88 98
3 17 168 169
3 170 101 171
3 172 171 99
3 170 171 172
3 173 102 174
3 176 175 102
3 177 99 178
3 19 179 181
3 181 180 103
3 179 180 181
3 20 104 49
3 20 182 184
3 184 183 104
3 182 183 184
3 10 105 82
3 21 106 52
3 21 185 187
3 187 186 106
3 185 186 187
3 21 188 189
3 22 190 191
3 22 192 193
3 22 194 196
3 194 107 195
3 194 195 196
3 24 108 55
3 24 197 199
3 199 198 108
3 197 198 199
3 200 109 201
3 202 201 86
3 200 201 202
3 25 112 110
3 27 113 58
3 27 114 113
3 12 115 89
3 203 116 204
3 205 117 206
3 207 206 116
3 205 206 207
3 208 118 209
3 210 209 117
3 208 209 210
3 28 119 62
3 28 211 213
3 213 212 119
3 211 212 213
3 18 120 100
3 29 121 65
3 29 122 121
3 214 123 215
3 30 124 67
3 30 125 124
3 30 126 125
3 216 127 217
3 14 218 219
3 31 128 69
3 31 220 222
3 222 221 128
3 220 221 222
3 31 223 225
3 223 129 224
3 223 224 225
3 32 226 228
3 228 227 71
3 226 227 228
3 32 229 231
3 229 130 230
3 229 230 231
3 32 131 130
3 33 132 73
3 33 133 132
3 16 134 96
3 34 135 76
3 34 136 135
3 34 137 136
3 25 138 78
3 25 110 138
3 26 139 111
3 23 232 233
3 35 234 236
3 236 235 9
3 234 235 236
3 36 237 239
3 239 238 35
3 237 238 239
3 36 240 242
3 240 241 242
3 37 243 244
3 38 245 247
3 247 246 37
3 245 246 247
3 38 248 249
3 38 250 252
3 250 39 251
3 250 251 252
3 35 39 38
3 35 9 39
3 40 41 11
3 42 41 40
3 42 13 41
3 43 253 255
3 253 44 254
3 253 254 255
3 45 44 43
3 45 15 44
3 45 46 15
3 40 46 45
3 40 11 46
3 257 256 17
3 47 258 259
3 262 261 47
3 260 261 262
3 48 49 19
3 50 49 48
3 50 20 49
3 51 52 10
3 53 52 51
3 53 21 52
3 53 263 265
3 265 264 21
3 263 264 265
3 54 266 268
3 268 267 53
3 266 267 268
3 54 269 271
3 269 22 270
3 269 270 271
3 54 55 22
3 56 55 54
3 56 24 55
3 57 58 25
3 59 58 57
3 59 27 58
3 60 272 274
3 274 273 12
3 272 273 274
3 61 275 277
3 277 276 60
3 275 276 277
3 61 278 279
3 61 280 282
3 280 62 281
3 280 281 282
3 63 62 61
3 63 28 62
3 64 65 18
3 66 65 64
3 66 29 65
3 283 67 284
3 285 67 286
3 287 30 288
3 289 288 67
3 287 288 289
3 292 291 30
3 290 291 292
3 68 69 14
3 70 69 68
3 70 31 69
3 70 71 31
3 72 71 70
3 72 32 71
3 72 73 32
3 74 73 72
3 74 33 73
3 75 76 16
3 77 76 75
3 77 34 76
3 77 78 34
3 57 78 77
3 57 25 78
3 79 293 295
3 295 294 26
3 293 294 295
3 297 296 79
3 80 298 299
3 301 300 80
3 304 303 23
3 302 303 304
3 306 305 9
3 81 82 3
3 83 82 81
3 83 10 82
3 307 83 308
3 84 309 311
3 309 83 310
3 309 310 311
3 84 10 83
3 84 51 10
3 85 51 84
3 85 4 51
3 85 86 4
3 312 86 313
3 314 313 85
3 312 313 314
3 316 315 86
3 39 317 318
3 87 319 321
3 321 320 39
3 319 320 321
3 87 322 323
3 87 324 325
3 327 326 87
3 88 89 5
3 90 89 88
3 90 12 89
3 41 90 11
3 91 90 41
3 91 12 90
3 91 60 12
3 92 60 91
3 92 7 60
3 93 328 329
3 93 330 332
3 330 14 331
3 330 331 332
3 44 333 335
3 333 93 334
3 333 334 335
3 94 93 44
3 94 14 93
3 94 68 14
3 95 68 94
3 95 8 68
3 95 96 8
3 97 96 95
3 97 16 96
3 46 97 15
3 98 97 46
3 98 16 97
3 98 75 16
3 88 75 98
3 88 5 75
3 337 336 6
3 339 338 17
3 99 100 1
3 101 100 99
3 101 18 100
3 340 101 341
3 102 342 344
3 342 101 343
3 342 343 344
3 102 18 101
3 102 64 18
3 345 64 346
3 347 346 102
3 345 346 347
3 349 348 64
3 350 43 351
3 99 352 354
3 352 43 353
3 352 353 354
3 99 1 43
3 103 355 357
3 357 356 2
3 355 356 357
3 359 358 103
3 49 360 362
3 362 361 19
3 360 361 362
3 104 363 365
3 365 364 49
3 363 364 365
3 104 366 367
3 104 368 370
3 368 80 369
3 368 369 370
3 371 80 372
3 373 372 104
3 371 372 373
3 375 374 80
3 82 50 3
3 105 50 82
3 105 20 50
3 52 105 10
3 106 105 52
3 106 20 105
3 106 376 378
3 378 377 20
3 376 377 378
3 380 379 106
3 382 381 21
3 107 383 384
3 107 385 387
3 385 23 386
3 385 386 387
3 55 107 22
3 108 107 55
3 108 23 107
3 108 388 390
3 390 389 23
3 388 389 390
3 392 391 108
3 86 56 4
3 109 56 86
3 109 24 56
3 393 109 394
3 395 109 396
3 397 24 398
3 399 398 109
3 397 398 399
3 401 400 24
3 110 111 0
3 112 111 110
3 112 26 111
3 58 112 25
3 113 112 58
3 113 26 112
3 113 79 26
3 114 79 113
3 114 6 79
3 89 59 5
3 115 59 89
3 115 27 59
3 402 115 403
3 404 403 12
3 402 403 404
3 116 405 407
3 405 115 406
3 405 406 407
3 116 27 115
3 116 114 27
3 117 114 116
3 117 6 114
3 117 408 410
3 410 409 6
3 408 409 410
3 118 411 413
3 413 412 117
3 411 412 413
3 118 414 416
3 414 17 415
3 414 415 416
3 62 417 419
3 417 118 418
3 417 418 419
3 119 118 62
3 119 17 118
3 119 420 422
3 422 421 17
3 420 421 422
3 424 423 119
3 100 42 1
3 120 42 100
3 120 13 42
3 65 120 18
3 121 120 65
3 121 13 120
3 121 92 13
3 122 92 121
3 122 7 92
3 425 66 426
3 123 427 429
3 427 66 428
3 427 428 429
3 123 29 66
3 67 430 432
3 430 123 431
3 430 431 432
3 124 123 67
3 124 29 123
3 124 122 29
3 125 122 124
3 125 7 122
3 125 63 7
3 126 63 125
3 126 28 63
3 433 126 434
3 435 434 30
3 433 434 435
3 436 126 437
3 438 28 439
3 440 439 126
3 438 439 440
3 442 441 28
3 443 47 444
3 127 445 447
3 445 47 446
3 445 446 447
3 127 2 47
3 69 448 450
3 450 449 14
3 448 449 450
3 128 451 453
3 453 452 69
3 451 452 453
3 128 454 455
3 128 456 457
3 459 458 128
3 129 460 461
3 129 462 463
3 71 129 31
3 464 129 465
3 466 465 71
3 464 465 466
3 468 467 129
3 469 127 470
3 130 471 473
3 471 127 472
3 471 472 473
3 130 2 127
3 130 103 2
3 131 103 130
3 131 19 103
3 73 131 32
3 132 131 73
3 132 19 131
3 132 48 19
3 133 48 132
3 133 3 48
3 96 74 8
3 134 74 96
3 134 33 74
3 76 134 16
3 135 134 76
3 135 33 134
3 135 133 33
3 136 133 135
3 136 3 133
3 136 81 3
3 137 81 136
3 137 474 476
3 476 475 81
3 474 475 476
3 78 137 34
3 138 137 78
3 138 477 479
3 479 478 137
3 477 478 479
3 138 480 482
3 480 37 481
3 480 481 482
3 110 37 138
3 110 0 37
3 111 36 0
3 139 36 111
3 139 483 485
3 485 484 36
3 483 484 485
3 486 139 487
3 488 487 26
3 486 487 488
3 489 139 490
3 492 491 139
3 494 493 6
3 497 496 2
3 495 496 497
3 500 499 23
3 498 499 500
