ply
format ascii 1.0
element vertex 415
property float x
property float y
property float z
element face 433
property list uchar int vertex_index
end_header
14.360376 25.501125 -15.843188
15.177922 43.336872 -21.935612
17.215708 12.224379 -14.885304
23.624725 38.54121 -13.079791
12.249221 58.168079 -13.634946
8.874428 54.440666 -21.155708
12.859137 34.279846 -24.521381
14.016848 20.432837 -25.072342
19.975519 29.692205 -20.009312
20.44327 11.663499 -18.96204
13.299037 13.586924 -14.024777
15.42547 19.698627 -14.154549
17.152735 58.254444 -15.202298
12.84066 39.174789 -25.973572
14.475754 31.741962 -26.109119
17.211761 35.865303 -21.1276
23.745127 33.170959 -10.15982
12.664859 49.06469 -23.010754
9.072016 48.325127 -20.637333
11.928828 44.155766 -23.689743
13.113131 39.560966 -20.06992
17.979668 19.038282 -21.304356
16.059265 15.043073 -23.004843
16.464649 47.322098 -16.145754
19.23192 40.695225 -16.118992
20.71188 44.659599 -11.961988
10.159478 58.484444 -18.222473
13.536855 53.540447 -17.7516
14.9537 30.171646 -19.816074
14.388384 23.394705 -21.439468
12.929262 27.014629 -25.742752
16.477667 25.203964 -23.767363
19.796423 24.02363 -16.540091
23.13069 35.132286 -17.090092
20.9771 28.995205 -12.766292
15.856949 18.545477 -19.264263
18.948988 12.96979 -16.929913
12.538159 23.595282 -15.002403
14.840311 22.683762 -14.898829
13.848948 41.363064 -24.895737
14.988652 37.753555 -24.704046
16.220186 39.679688 -21.67654
13.911711 46.272839 -22.973278
11.886881 46.77932 -24.577124
12.774256 44.014294 -25.07317
12.145502 41.655754 -25.277473
15.302961 13.082626 -14.063344
14.931539 9.237804 -15.476483
16.887241 8.602242 -15.658743
18.350143 7.770569 -15.768649
17.755066 49.783089 -14.544576
18.924347 46.049377 -14.171674
11.479906 59.204884 -16.124166
14.846756 55.69701 -15.798688
16.392481 52.971153 -15.36252
15.043718 50.615337 -17.021427
14.202011 32.212181 -21.993578
13.366081 28.527781 -23.620621
12.71346 30.479816 -25.517178
17.170277 30.378464 -22.778576
15.411713 28.455082 -24.926746
18.586294 27.280605 -21.660387
18.699842 24.584217 -19.761993
19.323324 26.979527 -17.846149
21.992575 39.931938 -14.832822
21.205313 37.880615 -16.916262
24.008268 37.245842 -15.374349
22.128717 31.253942 -11.371171
22.731174 26.275 -13.313324
13.607648 37.094444 -22.062351
14.292401 34.825851 -20.079121
14.203699 32.526806 -18.599092
13.193253 21.692469 -24.443689
14.871767 20.908306 -20.435482
13.741765 18.958267 -23.377714
18.111061 13.305623 -21.617197
17.168934 14.713468 -20.321352
19.486637 12.43379 -18.254354
11.950182 17.775837 -13.979357
14.05863 17.136663 -13.249476
16.155603 16.282993 -14.05258
15.093771 59.757252 -14.876416
12.407381 36.843338 -25.916943
12.823982 32.908783 -26.470531
13.537535 35.513847 -26.472818
16.027582 33.904873 -23.980301
19.065142 32.526665 -20.717457
11.167613 51.852741 -22.225941
11.141683 49.043522 -22.778095
11.379232 46.574821 -21.581665
11.543673 44.019829 -20.084156
12.719632 41.849865 -21.687689
12.500177 39.3955 -24.050619
16.028519 19.525318 -24.133041
14.792099 17.341284 -24.124226
16.653461 16.489597 -23.491158
15.742071 45.178688 -18.569952
16.497517 41.616478 -18.304098
17.789978 43.921085 -16.160442
20.114553 42.802174 -14.347282
22.040367 41.355465 -12.328013
23.306999 43.257668 -10.482965
24.438503 40.165485 -11.294009
9.153943 56.737804 -19.944315
13.724141 58.549999 -16.630819
11.853533 56.341164 -18.248011
11.356297 54.339081 -20.248041
12.996226 51.476246 -20.140289
14.351575 48.143627 -19.475031
14.948753 27.981686 -17.694433
15.495433 24.894104 -17.754559
14.890913 26.785076 -20.605734
13.031392 24.90144 -24.362507
13.372676 23.793262 -25.558723
13.398807 29.411459 -26.392578
14.017824 26.095947 -25.92392
14.814095 22.832407 -25.163759
17.487524 22.27206 -22.247318
18.998068 21.652237 -18.65885
17.86018 37.965832 -18.049145
20.241129 35.138268 -18.638912
21.155737 32.481602 -18.13645
22.862423 34.259193 -13.340326
20.848753 32.296234 -14.370418
19.723251 29.726995 -15.91527
20.266171 26.528683 -14.616379
13.506701 29.998005 -17.451946
15.820025 22.204571 -16.916971
16.414349 19.487455 -16.231968
17.201864 16.546572 -15.762212
14.968534 16.473719 -22.015261
17.355808 16.073792 -18.154764
18.249651 12.735971 -15.62009
18.886266 49.094696 -13.487701
18.663815 51.009209 -14.266343
11.2989 59.424048 -12.116252
12.914316 57.826349 -11.865035
10.535436 59.00185 -13.729781
11.2989 59.424048 -12.116252
11.864563 58.686481 -14.879556
10.150779 59.520252 -14.97439
10.535436 59.00185 -13.729781
17.982522 52.603241 -14.675315
17.328457 54.109856 -14.901018
18.663815 51.009209 -14.266343
17.073774 51.377121 -14.953548
17.982522 52.603241 -14.675315
7.604205 53.755483 -21.201794
7.82492 55.197134 -20.634471
20.911996 10.389785 -17.606029
20.43368 10.77493 -17.252187
19.964954 12.048644 -18.608197
11.565521 19.442574 -14.712371
11.209229 18.010842 -15.129456
14.74205 18.417645 -13.702012
13.636625 18.850369 -13.49942
14.320045 20.131351 -13.951957
13.286238 11.707588 -14.609666
12.430591 13.946013 -14.448449
15.067508 7.324384 -15.104545
15.846809 7.105451 -15.204362
24.764909 42.686543 -10.484337
24.440167 44.413823 -10.259367
25.330661 41.140451 -10.889859
23.872751 41.711576 -10.888487
24.764909 42.686543 -10.484337
25.714787 39.631254 -11.576775
25.330661 41.140451 -10.889859
8.672714 58.297791 -18.482125
9.013248 58.857008 -17.383703
9.65671 57.611124 -19.083394
8.169947 57.42447 -19.343046
8.672714 58.297791 -18.482125
20.595802 22.791753 -16.784467
20.196625 21.606056 -17.843846
19.397246 22.837933 -17.599471
23.303775 33.715076 -11.750073
23.607628 35.06774 -12.791108
24.04898 34.523623 -11.200855
22.373351 25.113135 -14.188555
23.820065 25.577936 -14.663201
7.684447 48.979077 -21.107197
9.023401 49.905444 -20.895138
11.935917 39.14002 -19.829095
12.14657 40.486759 -19.823769
19.146211 10.727931 -16.379695
18.796542 10.611021 -15.724784
18.59932 12.85288 -16.275001
12.87639 22.079678 -14.375884
11.859509 22.352296 -15.223893
14.027465 21.623919 -14.324097
12.87639 22.079678 -14.375884
13.689235 23.139522 -14.950616
15.132891 21.191195 -14.526689
14.320045 20.131351 -13.951957
14.027465 21.623919 -14.324097
18.395761 17.682047 -21.708355
19.193044 19.036105 -20.197559
16.82466 6.78767 -15.295492
15.846809 7.105451 -15.204362
15.90939 8.920023 -15.567613
17.633916 6.567777 -15.172712
16.82466 6.78767 -15.295492
18.365367 6.15194 -15.227665
17.633916 6.567777 -15.172712
17.618692 8.186405 -15.713696
19.186819 5.858625 -14.946445
18.365367 6.15194 -15.227665
19.470907 47.22784 -13.30125
18.339706 47.916233 -14.358125
18.886266 49.094696 -13.487701
20.364674 46.532951 -12.196407
19.818114 45.354488 -13.066831
19.470907 47.22784 -13.30125
9.673462 59.217228 -16.33455
10.150779 59.520252 -14.97439
10.819692 58.844664 -17.173319
9.013248 58.857008 -17.383703
9.673462 59.217228 -16.33455
16.555594 55.472784 -15.119102
15.999745 56.975727 -15.500493
17.708584 56.751501 -14.820907
15.619618 54.334081 -15.580604
16.555594 55.472784 -15.119102
17.328457 54.109856 -14.901018
23.642102 30.686131 -10.808899
22.936922 32.212451 -10.765496
24.450307 31.64464 -10.203224
22.951317 29.803657 -11.572488
23.642102 30.686131 -10.808899
22.375508 28.674289 -12.270048
21.552909 30.124573 -12.068732
22.951317 29.803657 -11.572488
23.252545 27.314186 -12.543564
21.854137 27.635102 -13.039808
22.375508 28.674289 -12.270048
24.324794 26.518418 -13.892009
23.252545 27.314186 -12.543564
23.820065 25.577936 -14.663201
24.324794 26.518418 -13.892009
7.559317 47.58235 -21.314397
9.012781 46.924566 -20.505302
13.265696 37.068993 -20.595003
13.018437 38.302253 -19.598788
13.36039 38.327705 -21.066136
13.608072 35.934696 -19.603388
13.265696 37.068993 -20.595003
13.950024 35.960148 -21.070736
13.333559 34.653759 -19.318055
13.608072 35.934696 -19.603388
14.24805 33.676328 -19.339106
13.289209 33.504237 -18.578041
13.333559 34.653759 -19.318055
19.926655 10.677007 -17.120229
19.65783 10.945006 -16.458008
19.217813 12.70179 -17.592133
19.926655 10.677007 -17.120229
20.43368 10.77493 -17.252187
11.756163 16.04047 -14.425739
11.209229 18.010842 -15.129456
12.62461 15.68138 -14.002067
12.430591 13.946013 -14.448449
11.756163 16.04047 -14.425739
12.582401 19.169956 -13.864361
11.565521 19.442574 -14.712371
13.004406 17.45625 -13.614417
12.582401 19.169956 -13.864361
13.636625 18.850369 -13.49942
14.229273 58.205298 -13.157394
12.914316 57.826349 -11.865035
14.894368 57.863568 -11.387483
15.651547 58.999884 -13.778129
13.671496 58.962665 -14.255681
14.229273 58.205298 -13.157394
16.837105 59.833969 -14.26614
15.651547 58.999884 -13.778129
17.866587 59.082565 -14.429081
16.123253 59.005848 -15.039357
16.837105 59.833969 -14.26614
18.706192 58.059218 -14.491011
17.866587 59.082565 -14.429081
17.708584 56.751501 -14.820907
18.706192 58.059218 -14.491011
23.988779 37.208748 -12.66084
24.60199 38.042949 -12.391512
24.534679 34.110985 -9.69811
24.04898 34.523623 -11.200855
25.125155 32.559161 -9.506077
24.534679 34.110985 -9.69811
25.914708 33.499187 -9.044367
24.450307 31.64464 -10.203224
25.125155 32.559161 -9.506077
10.0712 51.669251 -21.689442
8.924608 52.963213 -21.154325
10.02102 53.146704 -21.690824
10.058235 50.264641 -21.965519
10.0712 51.669251 -21.689442
11.154648 50.448132 -22.502018
10.106849 48.684325 -21.707714
9.023401 49.905444 -20.895138
10.058235 50.264641 -21.965519
10.16639 46.049413 -20.977469
9.012781 46.924566 -20.505302
10.225624 47.449974 -21.109499
10.24861 44.771918 -20.228714
10.16639 46.049413 -20.977469
11.461453 45.297325 -20.832911
10.15288 43.41296 -20.419255
10.24861 44.771918 -20.228714
11.36184 42.71619 -19.830887
10.15288 43.41296 -20.419255
11.94982 41.631208 -20.632653
11.36184 42.71619 -19.830887
12.131653 42.934847 -20.885922
12.916381 40.705416 -20.878805
12.14657 40.486759 -19.823769
11.94982 41.631208 -20.632653
17.732658 16.407705 -22.801756
17.316564 17.763939 -22.397757
18.395761 17.682047 -21.708355
17.327385 15.450592 -23.181137
17.732658 16.407705 -22.801756
17.030288 14.727331 -22.93798
16.356363 15.766335 -23.248
17.327385 15.450592 -23.181137
18.056185 13.858605 -22.244157
17.085163 14.174348 -22.31102
17.030288 14.727331 -22.93798
19.022681 12.973151 -21.768308
18.056185 13.858605 -22.244157
20.188786 12.152089 -20.44073
19.277165 12.484561 -20.289618
19.022681 12.973151 -21.768308
14.102488 9.533029 -15.335519
13.286238 11.707588 -14.609666
14.115288 11.412364 -14.75063
14.102488 9.533029 -15.335519
15.067508 7.324384 -15.104545
21.69014 45.73204 -11.542091
20.364674 46.532951 -12.196407
22.987699 45.031075 -10.80258
24.440167 44.413823 -10.259367
22.009439 43.958634 -11.222476
21.69014 45.73204 -11.542091
22.987699 45.031075 -10.80258
25.008879 38.855087 -11.498621
24.60199 38.042949 -12.391512
24.031614 39.353347 -12.1869
25.008879 38.855087 -11.498621
25.714787 39.631254 -11.576775
7.964677 56.345703 -20.028774
8.169947 57.42447 -19.343046
9.014185 55.589235 -20.550012
7.82492 55.197134 -20.634471
7.964677 56.345703 -20.028774
19.702244 20.343083 -18.874806
19.193044 19.036105 -20.197559
18.488868 20.345259 -19.981603
19.702244 20.343083 -18.874806
20.196625 21.606056 -17.843846
24.180551 36.561064 -13.80812
23.816496 37.893526 -14.22707
23.988779 37.208748 -12.66084
23.435346 35.752518 -14.357337
24.180551 36.561064 -13.80812
23.607628 35.06774 -12.791108
21.14085 25.239976 -14.840083
21.498672 26.401841 -13.964851
22.373351 25.113135 -14.188555
20.905976 23.98745 -15.801939
20.031297 25.276156 -15.578235
21.14085 25.239976 -14.840083
20.595802 22.791753 -16.784467
20.905976 23.98745 -15.801939
7.604205 53.755483 -21.201794
8.924608 52.963213 -21.154325
7.684447 48.979077 -21.107197
7.559317 47.58235 -21.314397
11.935917 39.14002 -19.829095
13.018437 38.302253 -19.598788
12.936325 32.092474 -18.468369
13.289209 33.504237 -18.578041
12.587826 30.828074 -17.894796
12.936325 32.092474 -18.468369
13.8552 31.262405 -18.025519
12.271073 29.224421 -17.793895
12.587826 30.828074 -17.894796
13.106037 28.606175 -16.940338
12.271073 29.224421 -17.793895
13.827064 27.598015 -17.061582
13.106037 28.606175 -16.940338
14.227727 28.989846 -17.573189
14.654564 26.741405 -16.768811
13.532875 26.357734 -16.135959
13.827064 27.598015 -17.061582
11.780054 24.317716 -15.986818
11.859509 22.352296 -15.223893
12.621766 25.404813 -15.715567
11.780054 24.317716 -15.986818
13.532875 26.357734 -16.135959
13.449268 24.548203 -15.422795
12.621766 25.404813 -15.715567
18.846788 8.128321 -15.799063
18.299897 10.25327 -15.69437
18.796542 10.611021 -15.724784
19.186819 5.858625 -14.946445
18.846788 8.128321 -15.799063
19.146211 10.727931 -16.379695
19.65783 10.945006 -16.458008
21.063008 11.571323 -18.978443
20.188786 12.152089 -20.44073
21.456427 10.347367 -17.547325
21.063008 11.571323 -18.978443
20.911996 10.389785 -17.606029
21.456427 10.347367 -17.547325
3 0 38 37
3 1 41 39
3 1 44 42
3 1 39 44
3 2 48 46
3 2 49 48
3 134 133 50
3 4 135 136
3 4 137 138
3 4 139 141
3 139 52 140
3 139 140 141
3 142 54 143
3 144 50 145
3 146 145 54
3 144 145 146
3 6 58 56
3 8 61 59
3 8 63 61
3 3 66 64
3 5 147 148
3 6 70 69
3 6 56 70
3 7 74 72
3 9 77 75
3 9 149 151
3 151 150 77
3 149 150 151
3 152 78 153
3 11 154 156
3 154 79 155
3 154 155 156
3 11 80 79
3 13 84 82
3 15 85 40
3 15 86 85
3 17 88 87
3 19 89 43
3 19 90 89
3 19 91 90
3 13 92 45
3 13 82 92
3 21 95 93
3 10 157 158
3 160 159 47
3 23 98 96
3 25 99 51
3 25 100 99
3 161 101 162
3 163 102 164
3 165 164 101
3 163 164 165
3 167 166 102
3 26 168 169
3 26 170 172
3 170 103 171
3 170 171 172
3 12 104 81
3 27 105 53
3 27 106 105
3 27 107 106
3 23 108 55
3 23 96 108
3 28 111 109
3 30 112 57
3 30 113 112
3 14 114 83
3 31 115 60
3 31 116 115
3 31 117 116
3 32 118 62
3 32 173 175
3 175 174 118
3 173 174 175
3 24 119 97
3 33 120 65
3 33 121 120
3 16 176 178
3 176 122 177
3 176 177 178
3 34 123 67
3 34 124 123
3 34 125 124
3 180 179 68
3 18 181 182
3 20 183 184
3 28 126 71
3 28 109 126
3 29 127 110
3 35 128 73
3 35 129 128
3 22 130 94
3 36 131 76
3 36 132 131
3 36 185 187
3 187 186 132
3 185 186 187
3 37 188 189
3 38 190 192
3 192 191 37
3 190 191 192
3 38 193 195
3 193 11 194
3 193 194 195
3 39 40 13
3 41 40 39
3 41 15 40
3 42 43 17
3 44 43 42
3 44 19 43
3 44 45 19
3 39 45 44
3 39 13 45
3 197 196 21
3 46 47 10
3 48 47 46
3 48 198 200
3 200 199 47
3 198 199 200
3 48 201 202
3 49 203 205
3 205 204 48
3 203 204 205
3 49 206 207
3 50 51 23
3 208 51 209
3 210 209 50
3 208 209 210
3 211 25 212
3 213 212 51
3 211 212 213
3 52 214 215
3 52 216 218
3 216 26 217
3 216 217 218
3 219 53 220
3 221 220 12
3 219 220 221
3 54 222 224
3 222 53 223
3 222 223 224
3 54 27 53
3 54 55 27
3 50 55 54
3 50 23 55
3 56 57 28
3 58 57 56
3 58 30 57
3 59 60 14
3 61 60 59
3 61 31 60
3 61 62 31
3 63 62 61
3 63 32 62
3 64 65 24
3 66 65 64
3 66 33 65
3 225 67 226
3 227 226 16
3 225 226 227
3 228 67 229
3 230 34 231
3 232 231 67
3 230 231 232
3 233 68 234
3 235 234 34
3 233 234 235
3 236 68 237
3 239 238 68
3 241 240 18
3 69 242 244
3 244 243 20
3 242 243 244
3 70 245 247
3 247 246 69
3 245 246 247
3 70 248 249
3 70 250 252
3 250 71 251
3 250 251 252
3 56 71 70
3 56 28 71
3 72 73 29
3 74 73 72
3 74 35 73
3 75 76 22
3 77 76 75
3 77 36 76
3 77 253 255
3 255 254 36
3 253 254 255
3 257 256 77
3 78 258 259
3 78 260 262
3 260 10 261
3 260 261 262
3 263 78 264
3 79 265 267
3 265 78 266
3 265 266 267
3 79 10 78
3 79 46 10
3 80 46 79
3 80 2 46
3 268 4 269
3 268 269 270
3 271 81 272
3 273 272 4
3 271 272 273
3 274 81 275
3 276 12 277
3 278 277 81
3 276 277 278
3 279 12 280
3 282 281 12
3 82 83 6
3 84 83 82
3 84 14 83
3 40 84 13
3 85 84 40
3 85 14 84
3 85 59 14
3 86 59 85
3 86 8 59
3 284 283 3
3 285 16 286
3 287 16 288
3 287 288 289
3 291 290 16
3 87 292 294
3 294 293 5
3 292 293 294
3 88 295 297
3 297 296 87
3 295 296 297
3 88 298 300
3 298 18 299
3 298 299 300
3 43 88 17
3 89 88 43
3 89 18 88
3 89 301 303
3 303 302 18
3 301 302 303
3 90 304 306
3 306 305 89
3 304 305 306
3 90 307 308
3 90 309 310
3 91 311 313
3 313 312 90
3 311 312 313
3 91 314 316
3 314 20 315
3 314 315 316
3 45 91 19
3 92 91 45
3 92 20 91
3 92 69 20
3 82 69 92
3 82 6 69
3 93 94 7
3 95 94 93
3 95 22 94
3 317 95 318
3 319 318 21
3 317 318 319
3 320 95 321
3 322 22 323
3 324 323 95
3 322 323 324
3 325 75 326
3 327 326 22
3 325 326 327
3 328 75 329
3 330 9 331
3 332 331 75
3 330 331 332
3 47 333 335
3 335 334 10
3 333 334 335
3 337 336 47
3 96 97 1
3 98 97 96
3 98 24 97
3 51 98 23
3 99 98 51
3 99 24 98
3 99 64 24
3 100 64 99
3 100 3 64
3 338 25 339
3 101 340 341
3 101 342 344
3 342 25 343
3 342 343 344
3 101 100 25
3 102 100 101
3 102 3 100
3 102 345 347
3 347 346 3
3 345 346 347
3 349 348 102
3 103 350 351
3 103 352 354
3 352 5 353
3 352 353 354
3 81 52 4
3 104 52 81
3 104 26 52
3 53 104 12
3 105 104 53
3 105 26 104
3 105 103 26
3 106 103 105
3 106 5 103
3 106 87 5
3 107 87 106
3 107 17 87
3 55 107 27
3 108 107 55
3 108 17 107
3 108 42 17
3 96 42 108
3 96 1 42
3 109 110 0
3 111 110 109
3 111 29 110
3 57 111 28
3 112 111 57
3 112 29 111
3 112 72 29
3 113 72 112
3 113 7 72
3 83 58 6
3 114 58 83
3 114 30 58
3 60 114 14
3 115 114 60
3 115 30 114
3 115 113 30
3 116 113 115
3 116 7 113
3 116 93 7
3 117 93 116
3 117 21 93
3 62 117 31
3 118 117 62
3 118 21 117
3 118 355 357
3 357 356 21
3 355 356 357
3 359 358 118
3 97 41 1
3 119 41 97
3 119 15 41
3 65 119 24
3 120 119 65
3 120 15 119
3 120 86 15
3 121 86 120
3 121 8 86
3 360 66 361
3 362 361 3
3 360 361 362
3 122 363 365
3 363 66 364
3 363 364 365
3 122 33 66
3 67 122 16
3 123 122 67
3 123 33 122
3 123 121 33
3 124 121 123
3 124 8 121
3 124 63 8
3 125 63 124
3 125 32 63
3 68 125 34
3 366 125 367
3 368 367 68
3 366 367 368
3 369 32 370
3 371 370 125
3 369 370 371
3 373 372 32
3 375 374 5
3 377 376 18
3 379 378 20
3 71 380 381
3 126 382 384
3 384 383 71
3 382 383 384
3 126 385 386
3 126 387 388
3 109 389 391
3 391 390 126
3 389 390 391
3 109 392 394
3 392 0 393
3 392 393 394
3 395 37 396
3 397 37 398
3 399 0 400
3 401 400 37
3 399 400 401
3 110 38 0
3 127 38 110
3 127 11 38
3 73 127 29
3 128 127 73
3 128 11 127
3 128 80 11
3 129 80 128
3 129 2 80
3 94 74 7
3 130 74 94
3 130 35 74
3 76 130 22
3 131 130 76
3 131 35 130
3 131 129 35
3 132 129 131
3 132 2 129
3 132 49 2
3 402 49 403
3 404 403 132
3 402 403 404
3 406 405 49
3 408 407 36
3 409 9 410
3 411 9 412
3 414 413 9
