ply
format ascii 1.0
element vertex 650
property float x
property float y
property float z
element face 726
property list uchar int vertex_index
end_header
8.71382 42.54488 29.708242
10.727236 52.123077 9.200955
6.922398 30.772686 50.871059
6.852934 53.881359 30.957788
9.38406 47.815128 19.530741
8.848407 33.567596 -13.398577
11.350915 33.318634 29.853384
8.12059 32.448647 38.725594
6.807463 43.511185 41.709209
14.584978 38.706291 20.148554
15.116282 43.005089 9.902555
9.498317 64.010773 7.964986
11.008389 54.634727 -0.382446
7.040389 44.855396 -8.239693
12.784254 26.654669 25.504688
7.762586 57.001007 25.12351
8.128079 27.464294 38.129356
8.305819 26.46139 42.93322
6.696319 36.992634 46.247776
9.087132 37.903748 29.868082
13.270308 36.564411 25.403536
9.75049 40.548607 24.925854
8.739394 49.776974 13.504682
11.724193 45.956215 13.997347
13.886058 48.06002 9.823637
12.993958 48.793602 4.636833
8.618578 61.713997 -1.878583
8.989766 55.42276 -4.638281
9.564461 49.318504 -4.246946
11.396982 50.111393 -8.512766
10.628734 45.264954 -12.085709
8.303464 25.425117 49.214851
8.253547 48.283348 29.863026
6.497664 45.090797 24.364031
9.540579 51.192493 24.932734
8.493935 53.112751 18.820148
8.377678 54.882641 13.989079
13.643506 28.54443 30.170116
10.145355 28.322506 34.421303
7.986798 32.72702 33.755104
8.737268 37.964073 34.276611
8.240984 31.929712 44.730518
8.520556 37.910622 40.159401
8.430319 43.472408 35.421677
7.148126 48.911758 36.79575
14.724016 31.26619 25.15016
14.273855 33.428726 20.103584
11.722178 43.877243 19.947981
14.851771 41.134346 15.021451
9.128537 62.631874 13.046076
10.856887 58.430553 8.625593
9.226297 59.47163 3.922443
10.086294 53.223869 4.107241
11.42744 49.225491 -0.405079
12.482661 44.358295 -4.762417
11.674112 39.251083 -8.214014
7.868245 40.040562 -11.483607
11.580545 24.210108 27.050125
13.596785 25.041414 27.590719
9.093847 40.075306 29.822382
9.2237 39.141075 27.478916
8.053374 41.017876 27.685638
10.055696 51.030514 11.496526
11.356287 49.309742 11.598511
11.876173 50.197365 9.290179
13.751282 48.562672 7.178271
11.385879 50.82563 6.834615
8.832225 59.806347 -5.905683
9.614665 56.356518 -7.850319
10.189734 52.606438 -6.289548
7.374676 51.229504 30.439556
8.148921 49.614849 27.407146
7.80564 52.815804 28.015055
7.551552 57.734734 21.906666
8.11511 55.239655 21.720249
8.791074 55.648491 18.883404
8.220205 53.683167 16.164917
9.297007 56.665062 16.068233
8.343641 30.199688 -13.84746
5.713829 30.42547 -15.694392
6.030969 33.829445 -14.91879
11.421232 26.099499 34.724995
9.772923 25.682476 36.54295
8.273237 29.931576 38.392761
8.427588 30.031311 36.076485
7.77005 32.638359 36.240242
8.116253 35.465397 33.920605
7.968811 35.268959 36.500526
7.688637 28.327526 50.1605
8.44927 28.824142 47.062294
7.552432 31.319128 47.922588
6.859106 40.298367 44.076881
7.474622 37.546379 43.226875
7.722902 40.782314 40.881908
8.083674 40.839378 37.776203
7.354851 43.578117 38.527878
7.78971 46.125774 36.172832
6.859715 46.112057 39.291557
12.6048 31.020624 30.024546
14.21521 29.974274 27.669971
13.662092 32.531261 27.739624
13.834772 37.568874 22.658102
14.803808 35.03492 22.595892
14.935422 36.017284 19.994057
15.225105 37.106533 17.567093
8.065204 46.439121 21.980108
9.205282 44.04771 22.090206
10.287818 45.691864 19.649981
13.860095 44.805641 11.850028
13.361792 43.848488 14.600696
14.622328 42.159889 12.27491
14.322571 40.245033 10.141047
9.83404 63.804314 10.674701
9.986814 60.810188 11.345798
9.604778 61.667938 8.192002
9.907953 58.081959 -1.036958
9.886406 60.847424 0.968697
10.139345 57.144234 1.890128
9.264794 56.026985 4.114375
11.064531 53.873756 2.124169
10.912173 51.363991 1.78465
11.807087 51.647743 -0.1858
8.003786 47.113102 -6.068567
10.258447 47.069984 -4.590644
10.137311 44.515862 -6.652852
12.256391 41.786236 -6.621505
9.772416 42.122307 -8.52561
10.119726 39.641632 -9.982199
7.26263 42.601387 -10.129534
11.476184 28.518534 23.726187
7.347013 55.583649 31.006552
7.275273 55.559887 28.470331
7.652686 57.506336 28.391678
7.772971 59.115135 24.935658
10.316936 33.342445 -11.364058
7.815005 27.121723 40.183723
8.558705 29.635624 40.762077
6.597291 33.111732 51.527672
6.877301 33.906166 48.623398
6.468351 36.382935 49.310341
6.460078 39.539482 47.004112
6.457602 42.896004 44.833645
6.474458 45.906765 42.454704
9.743908 35.604332 29.708014
12.412519 34.998131 27.75246
10.701848 37.27845 27.610468
11.582306 38.715485 25.257221
12.296422 39.816845 22.50828
8.723608 48.601326 16.560272
10.334357 46.781532 16.766743
10.246126 48.038551 13.834033
12.925537 47.115334 11.972314
15.183352 45.517517 9.915342
15.87723 43.299088 7.838853
15.6683 46.075935 7.644159
15.298058 46.245678 4.899618
14.440836 46.578243 2.255584
8.005322 62.722748 -4.178198
8.2809 58.455086 -3.328265
9.343719 54.946716 -2.695209
10.76626 51.956623 -2.509969
8.163329 52.00457 -4.204661
8.016933 49.643444 -6.225245
8.600801 47.372261 -8.200833
9.036862 45.031952 -9.922
11.20706 47.715599 -10.344604
7.033849 27.736811 52.999542
6.538214 27.195648 55.504456
6.527032 30.229618 53.740948
7.171961 32.205055 53.970997
8.563771 45.288239 29.485886
7.067171 43.503235 27.467819
7.468845 46.514095 26.892704
8.0609 47.908546 24.544607
9.235163 49.202118 22.089514
8.916292 54.575062 25.149145
9.626818 52.565136 21.731327
9.448103 50.324326 19.063879
7.789596 50.806965 16.307049
7.870841 51.983162 13.568766
9.859738 53.230469 11.849551
14.168129 26.045872 30.135111
13.068286 26.249201 32.614479
11.992311 28.634617 32.425182
10.688182 30.765076 32.186615
8.745184 27.953869 36.281898
8.990069 30.305817 33.995258
9.340551 32.986565 31.835159
8.648527 35.57914 31.778788
9.272362 37.852928 31.895926
9.2904 40.460499 32.119381
8.78775 25.929157 45.995792
8.813307 29.190088 43.71125
8.582952 32.339897 41.51981
7.301967 34.530449 45.493401
7.917634 34.895451 42.37294
8.296526 35.084118 39.267441
8.450809 37.904308 37.030045
8.689034 40.681004 34.834953
9.085348 43.230705 32.435623
8.728712 46.020382 32.786781
8.059849 48.946407 33.408546
7.090964 51.652405 33.888355
6.900363 48.718006 39.945045
7.091684 51.352795 37.18259
7.056835 53.681358 33.87674
14.395164 27.407465 27.546661
14.04299 28.762533 25.166391
13.33569 30.221054 22.947186
14.476254 33.886871 25.354641
14.682721 32.309025 22.61561
7.842787 42.151711 24.601429
10.575847 42.103943 22.32551
13.26505 41.50967 20.196896
12.031573 45.008514 16.984934
13.647647 42.838642 17.444639
15.154469 40.030598 17.605785
8.789309 61.350292 18.435877
9.009829 60.605263 15.484769
8.915213 58.863304 13.549518
10.236742 56.981018 11.810727
10.973575 54.932545 9.018859
9.35182 64.176842 5.074758
9.30718 64.113777 0.047717
9.429995 62.53838 3.194352
8.798744 61.622566 5.859675
8.958454 58.702736 6.051211
9.926332 55.415558 6.438156
9.942057 53.066917 6.484933
9.875656 50.961845 4.018043
11.478653 48.807106 1.725153
12.884825 46.831512 -0.569996
11.240718 49.339027 -2.467525
12.032802 46.83551 -2.486207
13.559377 44.40815 -2.668589
13.472275 41.731339 -4.320265
11.450907 36.499031 -8.894882
10.568721 36.685143 -11.076014
8.514065 36.943237 -12.741028
8.620769 42.599922 -11.65941
6.982364 40.413399 -13.286385
5.700781 37.380573 -14.338054
13.742588 24.221382 28.790698
13.051577 23.593481 28.255323
8.401801 56.353638 -9.389235
8.151537 57.825541 -8.491273
9.717495 54.935617 -8.92636
8.401801 56.353638 -9.389235
8.777517 57.041781 18.952256
8.171313 56.691613 20.395035
8.157756 58.084902 20.463887
9.030483 57.550066 17.544671
9.044041 56.156776 17.475818
8.777517 57.041781 18.952256
8.596024 31.883642 -13.623019
8.852227 30.149786 -12.651946
9.10461 31.83374 -12.427504
9.713742 24.179244 37.672918
10.468688 24.460155 36.669016
14.718573 42.04665 8.974585
14.321718 40.666622 9.093832
14.719427 41.625061 10.021801
9.666179 63.907544 9.319844
10.494003 64.310856 10.299765
10.326142 64.414085 8.944907
11.611862 26.440286 25.430664
11.010008 25.218006 26.203383
12.1824 25.432389 26.277407
12.130219 27.586602 24.615437
10.957827 27.372218 24.541413
11.611862 26.440286 25.430664
8.18274 57.069091 29.322088
7.499849 56.544992 29.699115
8.029904 56.107748 30.629525
8.314677 59.711199 24.652389
8.353488 58.966696 26.269593
7.767361 59.514685 23.385454
8.314677 59.711199 24.652389
10.305106 33.534615 -10.229508
9.381708 32.146898 -10.417939
8.060412 26.791556 41.558471
7.474042 25.607566 41.288263
7.719449 25.2774 42.663011
6.759956 35.897688 50.485092
6.532821 34.747334 50.419007
6.824426 34.262087 51.593758
6.653094 40.711017 47.187416
6.722882 39.084036 48.313266
6.651855 42.389279 46.102182
6.45884 41.217743 45.918878
6.653094 40.711017 47.187416
6.761272 43.893479 44.940357
6.651855 42.389279 46.102182
7.42171 62.70042 -5.812342
8.05754 63.78394 -4.944515
6.911136 26.111773 53.703201
7.260639 26.319577 52.485523
6.760579 28.380559 55.786427
6.840221 26.828807 56.468174
6.754988 29.897544 54.904673
6.532623 28.712633 54.622702
6.760579 28.380559 55.786427
7.077452 30.885263 55.019697
6.849496 31.217337 53.855973
6.754988 29.897544 54.904673
5.545154 30.340787 -16.626246
5.599626 32.225153 -16.170898
12.801109 24.925539 33.688643
13.34063 24.953978 32.582802
8.436632 27.709081 37.205627
8.593329 26.495529 37.297386
8.284776 26.250742 38.221115
8.545607 25.677137 47.605322
8.279599 24.186246 46.910408
8.037456 23.934226 48.519937
7.160341 48.321745 41.259115
6.687411 47.312386 41.199874
6.947389 46.916124 42.513945
7.526357 52.064617 36.831335
7.50185 50.928564 38.467859
7.508933 53.228899 35.17841
7.07426 52.517077 35.529665
7.526357 52.064617 36.831335
7.631133 54.128876 33.539148
7.508933 53.228899 35.17841
13.261751 32.553289 20.502755
13.466184 31.993438 21.758768
14.478288 32.868876 21.359597
12.784677 33.397114 19.501144
13.261751 32.553289 20.502755
14.994293 39.696007 15.072145
15.145642 39.144133 16.364311
15.00312 40.582472 16.313618
15.255365 42.333118 6.878884
16.024309 43.443392 6.575176
9.544735 62.026123 18.136498
8.978803 61.342474 19.726226
9.360066 63.227869 14.21367
9.943991 63.727181 12.965242
9.069183 61.618569 14.265422
9.300712 62.214563 15.433017
9.360066 63.227869 14.21367
9.724621 64.570228 3.667804
10.454088 64.415532 4.520239
8.962879 62.913887 -0.915433
8.835068 64.607403 -1.243536
8.490766 63.407512 -2.206686
12.097236 39.163204 -6.831447
12.388375 40.43078 -6.035192
11.965252 40.518659 -7.41776
11.433148 38.051525 -7.416613
12.097236 39.163204 -6.831447
11.56251 37.875057 -8.554448
11.321546 36.675499 -7.757047
11.433148 38.051525 -7.416613
7.63864 40.065468 -14.035608
8.284304 41.490822 -13.479001
6.997849 38.549055 -14.561443
6.341572 38.896986 -13.812219
7.63864 40.065468 -14.035608
6.238174 37.185693 -15.059743
6.997849 38.549055 -14.561443
12.043457 23.177828 27.985027
10.872485 22.954175 27.953535
12.588665 24.625761 27.320422
12.043457 23.177828 27.985027
13.051577 23.593481 28.255323
7.86538 24.800746 43.96458
7.719449 25.2774 42.663011
7.760317 59.550455 -7.518955
7.835162 61.24222 -6.676084
9.223445 58.081433 -6.878001
7.760317 59.550455 -7.518955
8.151537 57.825541 -8.491273
10.005029 53.060577 -8.145975
9.9022 54.481478 -7.069933
9.717495 54.935617 -8.92636
10.608653 51.813055 -9.257583
10.793358 51.358915 -7.401157
10.005029 53.060577 -8.145975
10.379884 50.612827 -10.0583
10.608653 51.813055 -9.257583
8.34211 28.708465 -12.788999
8.852227 30.149786 -12.651946
8.120448 28.669248 -14.043831
8.34211 28.708465 -12.788999
7.028735 30.312579 -14.770926
6.805542 28.782139 -14.967297
8.120448 28.669248 -14.043831
5.758197 33.927141 -15.783097
5.599626 32.225153 -16.170898
5.872399 32.127457 -15.306591
11.292843 24.668667 35.760039
11.977582 24.850688 34.7439
10.597078 25.890988 35.633972
11.292843 24.668667 35.760039
10.468688 24.460155 36.669016
14.39945 35.363884 18.877211
14.068666 34.069605 18.931975
14.604639 34.723005 20.048821
14.544291 35.908508 17.663729
14.39945 35.363884 18.877211
15.080264 36.561909 18.780575
14.368157 36.496622 16.600213
14.544291 35.908508 17.663729
14.637345 40.712959 12.505329
14.752066 40.200187 13.878599
14.737049 41.647118 13.648181
14.487467 39.755531 11.438398
14.637345 40.712959 12.505329
14.472449 41.202461 11.207978
13.37483 39.326498 10.619093
14.487467 39.755531 11.438398
13.098116 39.879196 9.45945
13.37483 39.326498 10.619093
13.098116 39.879196 9.45945
14.321718 40.666622 9.093832
10.296743 64.313401 11.779555
10.494003 64.310856 10.299765
9.481288 63.218094 11.860388
9.943991 63.727181 12.965242
10.296743 64.313401 11.779555
10.107489 43.9166 -12.878664
9.360135 45.62909 -13.331618
10.297338 24.073197 27.296205
10.872485 22.954175 27.953535
10.297338 24.073197 27.296205
11.010008 25.218006 26.203383
10.094525 28.471474 23.905095
10.957827 27.372218 24.541413
10.729907 29.542732 22.978953
10.094525 28.471474 23.905095
8.293346 58.162296 27.997602
8.18274 57.069091 29.322088
7.712829 58.310735 26.663668
8.293346 58.162296 27.997602
8.353488 58.966696 26.269593
7.656651 58.824484 21.870958
7.662261 58.424935 23.421162
7.767361 59.514685 23.385454
8.157756 58.084902 20.463887
7.656651 58.824484 21.870958
9.838875 31.721165 -11.410245
9.381708 32.146898 -10.417939
9.582672 33.455021 -12.381317
9.10461 31.83374 -12.427504
9.838875 31.721165 -11.410245
7.895795 25.983779 39.078268
8.284776 26.250742 38.221115
7.739258 25.812494 40.105452
7.474042 25.607566 41.288263
7.971542 27.293008 39.15654
7.895795 25.983779 39.078268
7.739258 25.812494 40.105452
6.727018 37.505763 49.466381
6.759956 35.897688 50.485092
6.464215 37.961208 48.157227
6.727018 37.505763 49.466381
6.722882 39.084036 48.313266
6.7697 45.398859 43.750887
6.46603 44.401384 43.644174
6.761272 43.893479 44.940357
6.947389 46.916124 42.513945
6.7697 45.398859 43.750887
15.919843 44.831816 6.477829
16.024309 43.443392 6.575176
15.772765 44.687511 7.741506
15.734723 44.916687 5.105558
15.919843 44.831816 6.477829
15.483179 46.160806 6.271889
15.583993 45.037155 3.772457
15.734723 44.916687 5.105558
15.155382 45.203437 2.450439
15.583993 45.037155 3.772457
14.869447 46.41196 3.577601
14.654444 45.363381 1.137143
15.155382 45.203437 2.450439
10.316875 64.044582 7.41313
10.326142 64.414085 8.944907
8.184138 63.911888 -3.356494
8.05754 63.78394 -4.944515
8.31195 62.218373 -3.02839
8.490766 63.407512 -2.206686
8.184138 63.911888 -3.356494
8.418774 61.264548 -5.04194
7.42171 62.70042 -5.812342
7.835162 61.24222 -6.676084
10.284923 49.41493 -10.974219
11.302021 48.913496 -9.428685
10.379884 50.612827 -10.0583
9.896307 48.187065 -11.702476
10.284923 49.41493 -10.974219
9.607143 46.961742 -12.573029
10.917897 46.490277 -11.215156
9.896307 48.187065 -11.702476
9.360135 45.62909 -13.331618
9.607143 46.961742 -12.573029
7.927177 23.790168 49.941761
8.037456 23.934226 48.519937
7.895446 25.16373 50.593178
7.927177 23.790168 49.941761
7.588033 26.614934 51.066002
7.99605 26.876321 49.687675
7.895446 25.16373 50.593178
7.361243 28.032168 51.580021
7.588033 26.614934 51.066002
7.260639 26.319577 52.485523
6.609908 25.602775 56.133021
6.911916 25.235934 57.096739
6.840221 26.828807 56.468174
6.663318 25.841192 54.955658
6.609908 25.602775 56.133021
6.786031 27.466229 54.251999
6.911136 26.111773 53.703201
6.663318 25.841192 54.955658
7.111761 33.808748 52.81542
6.824426 34.262087 51.593758
6.884626 32.658394 52.749335
7.839758 31.622736 54.635672
7.077452 30.885263 55.019697
7.762319 32.993199 53.431471
7.839758 31.622736 54.635672
7.111761 33.808748 52.81542
7.762319 32.993199 53.431471
5.823289 28.689539 -15.886897
6.805542 28.782139 -14.967297
5.823289 28.689539 -15.886897
5.545154 30.340787 -16.626246
13.890551 24.852313 31.343118
14.02826 24.723611 30.062894
13.618208 26.147537 31.374795
13.890551 24.852313 31.343118
13.34063 24.953978 32.582802
12.244759 26.17435 33.669737
12.801109 24.925539 33.688643
11.977582 24.850688 34.7439
9.107198 25.359833 37.427912
9.713742 24.179244 37.672918
9.259054 26.818173 36.412424
9.107198 25.359833 37.427912
8.593329 26.495529 37.297386
8.106346 24.53463 45.495867
8.279599 24.186246 46.910408
8.546785 26.195273 44.464506
7.86538 24.800746 43.96458
8.106346 24.53463 45.495867
7.406189 49.61117 39.849086
7.160341 48.321745 41.259115
6.996023 50.035401 38.563817
7.406189 49.61117 39.849086
7.50185 50.928564 38.467859
7.776222 55.080021 32.104055
7.201924 54.632503 32.441646
7.631133 54.128876 33.539148
8.029904 56.107748 30.629525
7.776222 55.080021 32.104055
13.882457 25.543643 28.862915
13.742588 24.221382 28.790698
14.02826 24.723611 30.062894
11.65966 30.393992 22.589453
10.729907 29.542732 22.978953
12.405937 29.369794 23.336686
12.792668 30.949452 21.924556
14.009206 31.26504 22.781398
13.466184 31.993438 21.758768
11.65966 30.393992 22.589453
12.792668 30.949452 21.924556
12.784677 33.397114 19.501144
14.068666 34.069605 18.931975
15.18096 37.682101 16.344966
15.189787 38.568565 17.586439
15.145642 39.144133 16.364311
14.368157 36.496622 16.600213
15.18096 37.682101 16.344966
14.994293 39.696007 15.072145
14.752066 40.200187 13.878599
15.099047 42.193649 7.942735
14.718573 42.04665 8.974585
15.496756 43.152088 8.870704
15.099047 42.193649 7.942735
15.255365 42.333118 6.878884
8.275529 60.632263 20.135563
8.978803 61.342474 19.726226
8.776634 59.892681 18.728493
8.275529 60.632263 20.135563
9.190451 62.587078 16.90857
9.544735 62.026123 18.136498
8.899569 60.977778 16.960323
9.190451 62.587078 16.90857
9.300712 62.214563 15.433017
8.886894 59.520167 17.252939
8.776634 59.892681 18.728493
8.899569 60.977778 16.960323
9.153418 58.635162 15.776501
9.030483 57.550066 17.544671
8.886894 59.520167 17.252939
10.243627 64.127617 5.968017
10.454088 64.415532 4.520239
9.425069 64.093807 6.519872
10.316875 64.044582 7.41313
10.243627 64.127617 5.968017
9.711639 65.06821 -0.307817
8.835068 64.607403 -1.243536
9.702301 64.538696 1.154284
9.711639 65.06821 -0.307817
9.763708 63.750997 2.727602
9.702301 64.538696 1.154284
9.368588 63.326078 1.621034
9.390908 63.357611 4.134555
9.724621 64.570228 3.667804
9.763708 63.750997 2.727602
13.876438 45.490015 -0.275647
14.654444 45.363381 1.137143
13.66283 46.704877 0.842794
14.213715 44.278334 -1.324943
13.876438 45.490015 -0.275647
13.222101 45.619831 -1.619292
13.802194 43.029709 -2.164062
14.213715 44.278334 -1.324943
13.758643 41.691304 -2.989901
13.802194 43.029709 -2.164062
13.515826 43.069744 -3.494427
12.825387 40.68532 -3.558629
13.758643 41.691304 -2.989901
12.996317 40.403332 -4.884572
12.864333 41.758787 -5.470885
12.388375 40.43078 -6.035192
12.825387 40.68532 -3.558629
12.996317 40.403332 -4.884572
10.260305 35.714195 -8.083478
11.321546 36.675499 -7.757047
10.872091 35.112908 -8.99492
10.260305 35.714195 -8.083478
10.430999 35.205963 -10.085486
10.872091 35.112908 -8.99492
11.009814 36.592087 -9.985448
10.442829 35.013794 -11.220036
10.305106 33.534615 -10.229508
10.430999 35.205963 -10.085486
9.103507 42.584083 -12.665514
9.624751 43.932438 -11.872559
10.107489 43.9166 -12.878664
7.801566 41.50666 -12.472897
9.103507 42.584083 -12.665514
8.284304 41.490822 -13.479001
6.403268 35.410129 -15.350112
5.865875 35.605009 -14.628422
6.238174 37.185693 -15.059743
5.758197 33.927141 -15.783097
6.403268 35.410129 -15.350112
3 242 58 243
3 0 61 59
3 1 64 62
3 1 66 64
3 244 68 245
3 247 246 68
3 3 72 70
3 248 75 249
3 250 249 73
3 248 249 250
3 251 77 252
3 253 252 75
3 251 252 253
3 5 254 256
3 254 78 255
3 254 255 256
3 5 80 78
3 257 82 258
3 7 85 83
3 7 87 85
3 2 90 88
3 8 93 91
3 8 95 93
3 8 97 95
3 6 100 98
3 9 103 101
3 9 104 103
3 4 107 105
3 10 110 108
3 10 111 110
3 10 259 261
3 261 260 111
3 259 260 261
3 11 262 264
3 262 112 263
3 262 263 264
3 11 114 112
3 12 117 115
3 12 119 117
3 12 121 119
3 13 124 122
3 13 126 124
3 13 128 126
3 14 265 267
3 267 266 57
3 265 266 267
3 14 268 270
3 268 129 269
3 268 269 270
3 271 132 272
3 273 272 130
3 271 272 273
3 274 133 275
3 277 276 133
3 278 134 279
3 17 280 282
3 280 135 281
3 280 281 282
3 17 136 135
3 283 139 284
3 285 284 137
3 283 284 285
3 286 140 287
3 288 141 289
3 290 289 140
3 288 289 290
3 292 291 141
3 19 145 143
3 21 146 60
3 21 147 146
3 22 150 148
3 24 151 63
3 24 152 151
3 24 154 152
3 25 155 65
3 25 156 155
3 293 157 294
3 27 158 67
3 27 159 158
3 27 161 159
3 29 162 69
3 29 163 162
3 29 165 163
3 295 166 296
3 297 167 298
3 299 168 300
3 301 300 167
3 299 300 301
3 302 169 303
3 304 303 168
3 302 303 304
3 32 172 170
3 34 173 71
3 34 174 173
3 15 175 131
3 35 176 74
3 35 177 176
3 35 178 177
3 36 179 76
3 36 180 179
3 306 305 79
3 307 182 308
3 38 183 81
3 38 184 183
3 16 309 311
3 309 185 310
3 309 310 311
3 39 186 84
3 39 187 186
3 39 188 187
3 40 189 86
3 40 190 189
3 31 312 314
3 312 191 313
3 312 313 314
3 41 192 89
3 41 193 192
3 18 194 138
3 42 195 92
3 42 196 195
3 42 197 196
3 43 198 94
3 43 199 198
3 43 200 199
3 44 201 96
3 44 202 201
3 315 203 316
3 317 316 142
3 315 316 317
3 318 204 319
3 320 205 321
3 322 321 204
3 320 321 322
3 324 323 205
3 37 206 181
3 45 207 99
3 45 208 207
3 20 209 144
3 46 210 102
3 46 325 327
3 327 326 210
3 325 326 327
3 46 328 329
3 33 211 171
3 47 212 106
3 47 213 212
3 23 214 149
3 48 215 109
3 48 216 215
3 48 330 332
3 332 331 216
3 330 331 332
3 334 333 153
3 335 217 336
3 49 337 338
3 49 339 341
3 339 218 340
3 339 340 341
3 49 219 218
3 50 220 113
3 50 221 220
3 342 222 343
3 26 344 346
3 344 223 345
3 344 345 346
3 51 224 116
3 51 225 224
3 51 226 225
3 52 227 118
3 52 228 227
3 52 229 228
3 53 230 120
3 53 231 230
3 28 232 160
3 54 233 123
3 54 234 233
3 54 235 234
3 55 347 349
3 349 348 125
3 347 348 349
3 55 350 351
3 55 352 354
3 352 236 353
3 352 353 354
3 56 237 127
3 56 238 237
3 30 239 164
3 355 240 356
3 357 241 358
3 359 358 240
3 357 358 359
3 361 360 241
3 362 57 363
3 58 364 366
3 364 57 365
3 364 365 366
3 58 14 57
3 367 17 368
3 59 60 19
3 61 60 59
3 61 21 60
3 62 63 22
3 64 63 62
3 64 24 63
3 64 65 24
3 66 65 64
3 66 25 65
3 369 67 370
3 68 371 373
3 371 67 372
3 371 372 373
3 68 27 67
3 68 69 27
3 374 69 375
3 376 375 68
3 374 375 376
3 377 29 378
3 379 378 69
3 377 378 379
3 381 380 29
3 70 71 32
3 72 71 70
3 72 34 71
3 73 74 15
3 75 74 73
3 75 35 74
3 75 76 35
3 77 76 75
3 77 36 76
3 78 382 383
3 78 384 385
3 78 386 388
3 386 79 387
3 386 387 388
3 80 79 78
3 80 389 391
3 391 390 79
3 389 390 391
3 392 81 393
3 82 394 396
3 394 81 395
3 394 395 396
3 82 38 81
3 83 84 16
3 85 84 83
3 85 39 84
3 85 86 39
3 87 86 85
3 87 40 86
3 88 89 31
3 90 89 88
3 90 41 89
3 91 92 18
3 93 92 91
3 93 42 92
3 93 94 42
3 95 94 93
3 95 43 94
3 95 96 43
3 97 96 95
3 97 44 96
3 98 99 37
3 100 99 98
3 100 45 99
3 101 102 20
3 103 102 101
3 103 46 102
3 103 397 399
3 399 398 46
3 397 398 399
3 104 400 402
3 402 401 103
3 400 401 402
3 104 403 404
3 105 106 33
3 107 106 105
3 107 47 106
3 108 109 23
3 110 109 108
3 110 48 109
3 110 405 407
3 407 406 48
3 405 406 407
3 111 408 410
3 410 409 110
3 408 409 410
3 111 411 412
3 111 413 414
3 416 415 111
3 112 417 418
3 112 419 421
3 419 49 420
3 419 420 421
3 112 113 49
3 114 113 112
3 114 50 113
3 115 116 26
3 117 116 115
3 117 51 116
3 117 118 51
3 119 118 117
3 119 52 118
3 119 120 52
3 121 120 119
3 121 53 120
3 122 123 28
3 124 123 122
3 124 54 123
3 124 125 54
3 126 125 124
3 126 55 125
3 126 127 55
3 128 127 126
3 128 56 127
3 423 422 30
3 57 424 425
3 427 426 57
3 129 428 429
3 129 430 431
3 130 131 3
3 132 131 130
3 132 15 131
3 432 132 433
3 133 434 436
3 434 132 435
3 434 435 436
3 133 15 132
3 133 73 15
3 437 73 438
3 439 438 133
3 437 438 439
3 441 440 73
3 134 442 443
3 134 444 446
3 444 5 445
3 444 445 446
3 447 16 448
3 135 449 450
3 135 451 453
3 451 16 452
3 451 452 453
3 135 83 16
3 136 83 135
3 136 7 83
3 137 138 2
3 139 138 137
3 139 18 138
3 454 139 455
3 140 456 458
3 456 139 457
3 456 457 458
3 140 18 139
3 140 91 18
3 141 91 140
3 141 8 91
3 141 142 8
3 459 142 460
3 461 460 141
3 459 460 461
3 463 462 142
3 143 144 6
3 145 144 143
3 145 20 144
3 60 145 19
3 146 145 60
3 146 20 145
3 146 101 20
3 147 101 146
3 147 9 101
3 148 149 4
3 150 149 148
3 150 23 149
3 63 150 22
3 151 150 63
3 151 23 150
3 151 108 23
3 152 108 151
3 152 10 108
3 152 153 10
3 154 153 152
3 154 464 466
3 466 465 153
3 464 465 466
3 65 154 24
3 155 154 65
3 155 467 469
3 469 468 154
3 467 468 469
3 155 470 471
3 156 472 474
3 474 473 155
3 472 473 474
3 156 475 476
3 477 11 478
3 157 479 480
3 157 481 483
3 481 26 482
3 481 482 483
3 67 484 486
3 484 157 485
3 484 485 486
3 158 157 67
3 158 26 157
3 158 115 26
3 159 115 158
3 159 12 115
3 159 160 12
3 161 160 159
3 161 28 160
3 69 161 27
3 162 161 69
3 162 28 161
3 162 122 28
3 163 122 162
3 163 13 122
3 163 164 13
3 165 164 163
3 165 30 164
3 487 165 488
3 489 488 29
3 487 488 489
3 490 165 491
3 492 30 493
3 494 493 165
3 492 493 494
3 496 495 30
3 497 31 498
3 499 31 500
3 501 88 502
3 503 502 31
3 501 502 503
3 166 504 506
3 504 88 505
3 504 505 506
3 166 2 88
3 167 507 509
3 507 508 509
3 167 510 511
3 167 512 514
3 512 166 513
3 512 513 514
3 168 166 167
3 168 2 166
3 168 137 2
3 169 137 168
3 169 515 517
3 517 516 137
3 515 516 517
3 518 169 519
3 520 169 521
3 523 522 169
3 170 171 0
3 172 171 170
3 172 33 171
3 71 172 32
3 173 172 71
3 173 33 172
3 173 105 33
3 174 105 173
3 174 4 105
3 131 72 3
3 175 72 131
3 175 34 72
3 74 175 15
3 176 175 74
3 176 34 175
3 176 174 34
3 177 174 176
3 177 4 174
3 177 148 4
3 178 148 177
3 178 22 148
3 76 178 35
3 179 178 76
3 179 22 178
3 179 62 22
3 180 62 179
3 180 1 62
3 79 524 525
3 527 526 79
3 528 181 529
3 182 530 532
3 530 181 531
3 530 531 532
3 182 37 181
3 81 533 535
3 533 182 534
3 533 534 535
3 183 182 81
3 183 37 182
3 183 98 37
3 184 98 183
3 184 6 98
3 536 82 537
3 185 538 540
3 538 82 539
3 538 539 540
3 185 38 82
3 84 185 16
3 186 185 84
3 186 38 185
3 186 184 38
3 187 184 186
3 187 6 184
3 187 143 6
3 188 143 187
3 188 19 143
3 86 188 39
3 189 188 86
3 189 19 188
3 189 59 19
3 190 59 189
3 190 0 59
3 191 541 542
3 191 543 545
3 543 17 544
3 543 544 545
3 89 191 31
3 192 191 89
3 192 17 191
3 192 136 17
3 193 136 192
3 193 7 136
3 138 90 2
3 194 90 138
3 194 41 90
3 92 194 18
3 195 194 92
3 195 41 194
3 195 193 41
3 196 193 195
3 196 7 193
3 196 87 7
3 197 87 196
3 197 40 87
3 94 197 42
3 198 197 94
3 198 40 197
3 198 190 40
3 199 190 198
3 199 0 190
3 199 170 0
3 200 170 199
3 200 32 170
3 96 200 43
3 201 200 96
3 201 32 200
3 201 70 32
3 202 70 201
3 202 3 70
3 142 97 8
3 203 97 142
3 203 44 97
3 546 203 547
3 204 548 550
3 548 203 549
3 548 549 550
3 204 44 203
3 204 202 44
3 205 202 204
3 205 3 202
3 205 130 3
3 551 130 552
3 553 552 205
3 551 552 553
3 555 554 130
3 181 556 558
3 556 58 557
3 556 557 558
3 206 58 181
3 206 14 58
3 99 206 37
3 207 206 99
3 207 14 206
3 207 129 14
3 208 129 207
3 208 559 561
3 561 560 129
3 559 560 561
3 144 100 6
3 209 100 144
3 209 45 100
3 102 209 20
3 210 209 102
3 210 45 209
3 210 208 45
3 562 208 563
3 564 563 210
3 562 563 564
3 566 565 208
3 568 567 46
3 171 61 0
3 211 61 171
3 211 21 61
3 106 211 33
3 212 211 106
3 212 21 211
3 212 147 21
3 213 147 212
3 213 9 147
3 149 107 4
3 214 107 149
3 214 47 107
3 109 214 23
3 215 214 109
3 215 47 214
3 215 213 47
3 216 213 215
3 216 9 213
3 216 104 9
3 569 104 570
3 571 570 216
3 569 570 571
3 573 572 104
3 575 574 48
3 153 576 578
3 578 577 10
3 576 577 578
3 580 579 153
3 217 581 582
3 217 583 584
3 585 217 586
3 218 587 589
3 587 217 588
3 587 588 589
3 218 590 592
3 592 591 217
3 590 591 592
3 218 593 595
3 593 77 594
3 593 594 595
3 219 77 218
3 219 36 77
3 113 219 49
3 220 219 113
3 220 36 219
3 220 180 36
3 221 180 220
3 221 1 180
3 222 596 597
3 222 598 600
3 598 11 599
3 598 599 600
3 223 601 602
3 223 603 604
3 116 223 26
3 224 223 116
3 224 605 607
3 607 606 223
3 605 606 607
3 224 608 610
3 608 222 609
3 608 609 610
3 225 222 224
3 225 11 222
3 225 114 11
3 226 114 225
3 226 50 114
3 118 226 51
3 227 226 118
3 227 50 226
3 227 221 50
3 228 221 227
3 228 1 221
3 228 66 1
3 229 66 228
3 229 25 66
3 120 229 52
3 230 229 120
3 230 25 229
3 230 156 25
3 231 156 230
3 231 611 613
3 613 612 156
3 611 612 613
3 160 121 12
3 232 121 160
3 232 53 121
3 123 232 28
3 233 232 123
3 233 53 232
3 233 231 53
3 234 231 233
3 234 614 616
3 616 615 231
3 614 615 616
3 234 617 618
3 235 619 621
3 621 620 234
3 619 620 621
3 235 622 623
3 125 235 54
3 624 235 625
3 626 625 125
3 624 625 626
3 628 627 235
3 236 629 630
3 236 631 632
3 127 236 55
3 237 236 127
3 237 633 635
3 635 634 236
3 633 634 635
3 237 636 638
3 636 134 637
3 636 637 638
3 238 134 237
3 238 5 134
3 164 128 13
3 239 128 164
3 239 56 128
3 639 239 640
3 641 640 30
3 639 640 641
3 240 642 644
3 642 239 643
3 642 643 644
3 240 56 239
3 240 238 56
3 241 238 240
3 241 5 238
3 241 80 5
3 645 80 646
3 647 646 241
3 645 646 647
3 649 648 80
