ply
format ascii 1.0
element vertex 439
property float x
property float y
property float z
element face 438
property list uchar int vertex_index
end_header
-22.053761 -22.147312 -22.157974
-24.076029 -37.175339 -14.799502
-22.388355 -15.287626 -30.475567
-28.280878 -23.475311 -26.959827
-36.845158 -31.8971 -18.223808
-26.259991 -30.580145 -20.537716
-20.782764 -18.868856 -26.214046
-25.632477 -19.526798 -29.720098
-22.76016 -23.039099 -26.227146
-30.573761 -39.314232 -11.583014
-25.25316 -34.080334 -17.488548
-31.839746 -35.012806 -15.029922
-31.991177 -30.444935 -18.032627
-36.683346 -36.783176 -14.886658
-14.804474 -38.942928 -8.257678
-16.046398 -36.564758 -10.395082
-17.401407 -33.914879 -12.583822
-18.685078 -32.126743 -14.707672
-22.24687 -39.309334 -12.046737
-20.637075 -11.043344 -30.382471
-26.919018 -11.071783 -33.131065
-28.706198 -14.777331 -31.063824
-31.206842 -18.976126 -28.924368
-32.792213 -22.510342 -25.614796
-36.931141 -26.996365 -21.245703
-23.713253 -25.165976 -19.210484
-19.680859 -30.273386 -17.210119
-20.77858 -28.482767 -20.158539
-21.936665 -26.204914 -23.18923
-27.245228 -27.295914 -23.992075
-32.216942 -25.965084 -21.484718
-20.941814 -20.539118 -24.220903
-21.518047 -20.94549 -26.292414
-20.906473 -22.319492 -24.083698
-33.156536 -40.057091 -10.604841
-31.405762 -37.283409 -13.364705
-34.177227 -37.816299 -12.502515
-34.651295 -35.571682 -14.29287
-36.20536 -39.217606 -12.813013
-14.506411 -40.282841 -7.180694
-16.422115 -40.000885 -10.489268
-17.04277 -38.469311 -11.360784
-16.707336 -35.085327 -11.476718
-17.939434 -37.358192 -12.457346
-18.709553 -36.589569 -13.588194
-20.279217 -14.852324 -28.056637
-20.156204 -12.743104 -28.186081
-20.896622 -12.939931 -30.24791
-23.141687 -11.566957 -33.018208
-24.494753 -13.587828 -32.675941
-27.746231 -12.89342 -32.125641
-25.748684 -15.438222 -31.880619
-27.23374 -21.514637 -28.418697
-28.589703 -19.282566 -29.518839
-29.831421 -21.226423 -28.015202
-30.684393 -23.045559 -26.401999
-20.311312 -35.060123 -16.012548
-19.228203 -31.152872 -15.924591
-21.069157 -34.118141 -17.257597
-25.696466 -32.322281 -18.951519
-22.475771 -31.609497 -19.854849
-23.212688 -30.242184 -21.242702
-21.318996 -27.46969 -21.599672
-23.998257 -28.818771 -22.78343
-24.556757 -27.246485 -24.247559
-26.833654 -28.956446 -22.270983
-34.768303 -30.755457 -17.326181
-32.122356 -28.111902 -19.670904
-34.71394 -28.467447 -18.819998
-34.612438 -25.957409 -20.453686
-20.74032 -16.934423 -26.342739
-21.252781 -17.074129 -28.382114
-24.061649 -17.503904 -30.462688
-22.542667 -19.222038 -28.513439
-24.184221 -21.442398 -28.098461
-25.668661 -23.566719 -27.251917
-27.606899 -38.428822 -13.042746
-24.818861 -35.839821 -16.153036
-28.375355 -36.669357 -14.702936
-28.688938 -34.569309 -16.175312
-28.955292 -32.36747 -17.594265
-29.209326 -30.368484 -19.144199
-31.959278 -32.678421 -16.501925
-34.796829 -33.192513 -15.878972
-36.893524 -34.448383 -16.669437
-16.584576 -40.457733 -3.383177
-14.307446 -39.13327 -5.134778
-15.581897 -38.187805 -6.121695
-16.684668 -37.298645 -7.307515
-15.311383 -37.784077 -9.374662
-17.665833 -36.218739 -8.400392
-18.720625 -35.168049 -9.503866
-19.683397 -34.098167 -10.669642
-20.510977 -32.981758 -11.851048
-21.011372 -32.002617 -12.845167
-18.064121 -33.008556 -13.620874
-19.509348 -35.759502 -14.77226
-23.182673 -38.248817 -13.400516
-26.587101 -39.845882 -11.529776
-20.814184 -9.230633 -30.638103
-22.307425 -9.615814 -33.01897
-26.051357 -9.185848 -33.992393
-29.105505 -7.824171 -32.648075
-29.689407 -9.818769 -31.722357
-30.625244 -12.039531 -30.98679
-27.08544 -17.292709 -30.69405
-29.848206 -16.848354 -30.045908
-36.653503 -35.112274 -19.155294
-36.805981 -25.196211 -22.294521
-22.870981 -23.65073 -20.683472
-21.495136 -30.819225 -13.84597
-21.613752 -29.531925 -15.026378
-21.648144 -28.348904 -16.333946
-21.760666 -32.854668 -18.553989
-20.233313 -29.404846 -18.596205
-21.434383 -27.192327 -17.785046
-21.212391 -26.073856 -19.367191
-21.129892 -25.064545 -21.016911
-20.924946 -23.765158 -22.619699
-22.368443 -24.693249 -24.705349
-25.127575 -25.39941 -25.737421
-27.778757 -25.437916 -25.530764
-29.430593 -28.357983 -20.904657
-29.654858 -26.587337 -22.819685
-30.088724 -24.863106 -24.65115
-32.238731 -24.143627 -23.500742
-34.569443 -23.98609 -22.361071
-21.497788 -21.343215 -23.189439
-22.186674 -20.86194 -23.600658
-22.742648 -21.666038 -22.569193
-34.727461 -39.591093 -11.614144
-33.666882 -38.936695 -11.553678
-34.217116 -40.711489 -10.665306
-35.741528 -40.291747 -11.769392
-35.191294 -38.516953 -12.657764
-34.727461 -39.591093 -11.614144
-18.552829 -39.879879 -10.702821
-18.076313 -40.706253 -10.507435
-19.00116 -39.32432 -11.251102
-17.491102 -37.913752 -11.909065
-18.552829 -39.879879 -10.702821
-19.571465 -38.776268 -11.71187
-19.00116 -39.32432 -11.251102
-36.849047 -30.662568 -18.995376
-35.783438 -28.947741 -19.293471
-35.779549 -30.182274 -18.521903
-20.761542 -17.90164 -26.278393
-21.19724 -17.981947 -25.420551
-21.218462 -18.949164 -25.356205
-14.539197 -40.457887 -5.552497
-13.830493 -39.691519 -4.673267
-27.232876 -41.134371 -10.06067
-25.954789 -40.45199 -10.877985
-28.007328 -40.392572 -10.739887
-27.232876 -41.134371 -10.06067
-20.706034 -11.092087 -29.417119
-20.465598 -11.941968 -28.318924
-20.396639 -11.893224 -29.284276
-20.72563 -10.136988 -30.510287
-20.794588 -10.185732 -29.544935
-20.706034 -11.092087 -29.417119
-30.089565 -14.522244 -30.712508
-31.049087 -13.153344 -30.673991
-29.665721 -13.408431 -31.025307
-31.820823 -17.837412 -29.371021
-31.141505 -16.773526 -29.93179
-30.527524 -17.91224 -29.485138
-32.354684 -18.990365 -28.960969
-31.820823 -17.837412 -29.371021
-33.397301 -21.496066 -26.455838
-32.503734 -21.715522 -26.605631
-33.534229 -22.400511 -25.281735
-33.397301 -21.496066 -26.455838
-35.693262 -36.574297 -19.453276
-36.731212 -36.369185 -18.186167
-18.581942 -41.286375 -2.911168
-17.502485 -40.34397 -3.927503
-24.962363 -25.16631 -19.678007
-25.468268 -26.144089 -19.041797
-23.292117 -24.408353 -19.946978
-24.541227 -24.408687 -20.414502
-24.962363 -25.16631 -19.678007
-21.297987 -19.784295 -24.359633
-22.186674 -20.86194 -23.600658
-20.862289 -19.703987 -25.217475
-21.218462 -18.949164 -25.356205
-21.297987 -19.784295 -24.359633
-15.697399 -42.316738 -7.093388
-14.63868 -41.032673 -6.575456
-15.28104 -41.538054 -7.666106
-15.697399 -42.316738 -7.093388
-15.430071 -40.868097 -8.204598
-14.655442 -39.612884 -7.719186
-15.28104 -41.538054 -7.666106
-17.765985 -41.47204 -10.071677
-17.313986 -42.339187 -9.973189
-16.732443 -39.235098 -10.925026
-17.765985 -41.47204 -10.071677
-18.076313 -40.706253 -10.507435
-19.956525 -38.391956 -12.277294
-18.324493 -36.97388 -13.02277
-19.571465 -38.776268 -11.71187
-21.725183 -39.751839 -11.506566
-20.478212 -37.949451 -12.817466
-19.956525 -38.391956 -12.277294
-20.21771 -13.797714 -28.121359
-20.661954 -14.016723 -27.444637
-20.723461 -15.071333 -27.379914
-31.023338 -21.073563 -27.805834
-31.711049 -19.948414 -28.260417
-30.519132 -20.101275 -28.469785
-31.449824 -21.983131 -26.999232
-31.023338 -21.073563 -27.805834
-30.257907 -22.135991 -27.2086
-31.738303 -22.777951 -26.008398
-32.503734 -21.715522 -26.605631
-31.449824 -21.983131 -26.999232
-24.116712 -25.998604 -18.542876
-25.468268 -26.144089 -19.041797
-35.732687 -27.692722 -20.110315
-34.663189 -27.212428 -19.636842
-35.783438 -28.947741 -19.293471
-36.892038 -28.212201 -20.506324
-35.771789 -26.476887 -20.849694
-35.732687 -27.692722 -20.110315
-21.763865 -17.468218 -25.876514
-21.19724 -17.981947 -25.420551
-20.954012 -16.112382 -26.522966
-21.763865 -17.468218 -25.876514
-20.509768 -15.893373 -27.199688
-20.723461 -15.071333 -27.379914
-20.954012 -16.112382 -26.522966
-23.637112 -22.724451 -21.815798
-22.742648 -21.666038 -22.569193
-14.969057 -40.35375 -3.797466
-15.66765 -40.629486 -2.884587
-15.446011 -39.795502 -4.258978
-14.969057 -40.35375 -3.797466
-13.830493 -39.691519 -4.673267
-16.36392 -39.681738 -4.803304
-17.502485 -40.34397 -3.927503
-15.446011 -39.795502 -4.258978
-14.406928 -39.708056 -6.157736
-14.539197 -40.457887 -5.552497
-14.63868 -41.032673 -6.575456
-17.001146 -39.209006 -5.296762
-16.36392 -39.681738 -4.803304
-14.944672 -38.660538 -5.628236
-17.755215 -39.004429 -5.932005
-17.001146 -39.209006 -5.296762
-18.3066 -38.559849 -6.524915
-17.755215 -39.004429 -5.932005
-16.133282 -37.743225 -6.714605
-18.938251 -38.188969 -7.196636
-18.3066 -38.559849 -6.524915
-15.370955 -40.216723 -8.860245
-15.430071 -40.868097 -8.204598
-16.179776 -40.745701 -9.976039
-17.313986 -42.339187 -9.973189
-15.624409 -39.637297 -9.418737
-16.179776 -40.745701 -9.976039
-15.866749 -38.892481 -9.931965
-15.057928 -38.363503 -8.81617
-15.370955 -40.216723 -8.860245
-15.624409 -39.637297 -9.418737
-19.428834 -37.649016 -7.743075
-18.938251 -38.188969 -7.196636
-17.17525 -36.758692 -7.853954
-20.002681 -37.156906 -8.385112
-19.428834 -37.649016 -7.743075
-20.530077 -36.631562 -8.93685
-20.002681 -37.156906 -8.385112
-18.193229 -35.693394 -8.952129
-21.007238 -36.110006 -9.600648
-20.530077 -36.631562 -8.93685
-21.488625 -35.575065 -10.183535
-21.007238 -36.110006 -9.600648
-19.202011 -34.633108 -10.086754
-21.773635 -34.943933 -10.8876
-21.488625 -35.575065 -10.183535
-22.187425 -34.385729 -11.478303
-21.773635 -34.943933 -10.8876
-20.097187 -33.539963 -11.260345
-22.402974 -33.667059 -12.173957
-22.187425 -34.385729 -11.478303
-20.761175 -32.492188 -12.348108
-22.653171 -33.177488 -12.671017
-22.402974 -33.667059 -12.173957
-23.078487 -40.801449 -10.524058
-21.725183 -39.751839 -11.506566
-23.784674 -40.183716 -11.136465
-23.078487 -40.801449 -10.524058
-24.252575 -39.653458 -11.813355
-22.714772 -38.779076 -12.723626
-23.784674 -40.183716 -11.136465
-24.884887 -39.04735 -12.465146
-24.252575 -39.653458 -11.813355
-25.954789 -40.45199 -10.877985
-28.517227 -39.684042 -11.496371
-27.097 -39.137352 -12.286261
-28.007328 -40.392572 -10.739887
-30.000658 -40.126747 -10.766506
-29.09033 -38.871527 -12.31288
-28.517227 -39.684042 -11.496371
-31.238895 -40.563963 -10.236505
-30.000658 -40.126747 -10.766506
-32.530282 -40.935392 -9.747419
-31.865149 -39.685661 -11.093927
-31.238895 -40.563963 -10.236505
-33.612139 -41.637135 -9.621678
-32.530282 -40.935392 -9.747419
-34.217116 -40.711489 -10.665306
-33.612139 -41.637135 -9.621678
-21.118405 -13.432853 -27.834471
-20.661954 -14.016723 -27.444637
-21.118405 -13.432853 -27.834471
-20.465598 -11.941968 -28.318924
-21.315899 -9.840861 -30.065983
-20.794588 -10.185732 -29.544935
-21.171935 -8.550028 -30.77878
-21.315899 -9.840861 -30.065983
-21.541993 -8.46004 -31.869884
-21.171935 -8.550028 -30.77878
-22.288613 -8.652631 -33.060317
-21.541993 -8.46004 -31.869884
-21.560804 -9.423223 -31.828537
-23.799482 -8.417644 -33.795469
-22.288613 -8.652631 -33.060317
-25.671449 -8.202661 -34.28218
-23.799482 -8.417644 -33.795469
-24.179391 -9.400831 -33.505682
-27.298831 -7.518783 -33.815452
-25.671449 -8.202661 -34.28218
-28.825905 -6.837945 -33.143293
-27.298831 -7.518783 -33.815452
-27.578431 -8.505009 -33.320234
-30.295037 -6.306197 -33.19068
-28.825905 -6.837945 -33.143293
-30.491653 -7.49848 -32.661789
-30.295037 -6.306197 -33.19068
-30.783604 -8.495779 -32.19893
-30.491653 -7.49848 -32.661789
-29.397456 -8.82147 -32.185216
-31.051464 -9.668476 -31.868705
-30.783604 -8.495779 -32.19893
-31.519382 -10.778857 -31.500922
-31.051464 -9.668476 -31.868705
-30.157325 -10.92915 -31.354574
-31.772262 -12.037782 -31.3022
-31.519382 -10.778857 -31.500922
-31.772262 -12.037782 -31.3022
-31.049087 -13.153344 -30.673991
-30.660569 -15.557755 -30.20355
-30.089565 -14.522244 -30.712508
-29.277202 -15.812843 -30.554866
-30.660569 -15.557755 -30.20355
-31.141505 -16.773526 -29.93179
-32.354684 -18.990365 -28.960969
-31.711049 -19.948414 -28.260417
-36.270328 -40.702509 -12.787187
-35.741528 -40.291747 -11.769392
-36.454669 -39.610081 -13.918045
-36.270328 -40.702509 -12.787187
-36.693663 -38.392866 -14.954868
-36.444353 -38.000391 -13.849836
-36.454669 -39.610081 -13.918045
-36.746134 -37.204635 -16.051849
-36.693663 -38.392866 -14.954868
-36.851223 -36.037239 -16.943239
-36.788435 -35.61578 -15.778047
-36.746134 -37.204635 -16.051849
-36.773513 -34.780328 -17.912365
-36.851223 -36.037239 -16.943239
-36.731212 -36.369185 -18.186167
-35.607521 -35.145895 -20.390489
-35.693262 -36.574297 -19.453276
-36.617019 -33.713848 -20.047686
-35.607521 -35.145895 -20.390489
-36.712847 -32.106261 -19.581942
-36.74933 -33.504687 -18.689551
-36.617019 -33.713848 -20.047686
-36.849047 -30.662568 -18.995376
-36.712847 -32.106261 -19.581942
-36.865885 -28.30523 -21.863219
-36.892038 -28.212201 -20.506324
-36.967331 -27.340476 -22.646963
-36.865885 -28.30523 -21.863219
-36.904751 -26.440399 -23.171371
-36.868561 -26.096288 -21.770112
-36.967331 -27.340476 -22.646963
-37.492281 -25.518696 -23.736059
-36.904751 -26.440399 -23.171371
-36.176327 -24.345643 -22.707071
-37.492281 -25.518696 -23.736059
-17.607437 -41.350849 -2.37915
-15.66765 -40.629486 -2.884587
-17.607437 -41.350849 -2.37915
-18.581942 -41.286375 -2.911168
-24.045722 -23.47616 -21.078547
-24.541227 -24.408687 -20.414502
-22.462371 -22.899021 -21.420723
-23.637112 -22.724451 -21.815798
-24.045722 -23.47616 -21.078547
-22.859649 -32.550789 -13.241167
-22.653171 -33.177488 -12.671017
-23.101531 -31.959093 -13.741568
-22.859649 -32.550789 -13.241167
-21.253254 -31.410921 -13.345568
-23.252815 -31.305594 -14.273672
-23.101531 -31.959093 -13.741568
-23.312123 -30.661943 -14.863876
-23.252815 -31.305594 -14.273672
-21.554444 -30.175575 -14.436174
-23.340764 -29.839429 -15.380667
-23.312123 -30.661943 -14.863876
-23.35796 -29.247919 -16.034451
-23.340764 -29.839429 -15.380667
-21.630948 -28.940415 -15.680162
-23.264953 -28.437821 -16.553488
-23.35796 -29.247919 -16.034451
-23.158072 -27.859532 -17.279038
-23.264953 -28.437821 -16.553488
-21.541263 -27.770615 -17.059496
-22.977277 -27.011779 -17.830157
-23.158072 -27.859532 -17.279038
-22.866281 -26.452544 -18.621229
-22.977277 -27.011779 -17.830157
-21.323387 -26.633091 -18.576118
-22.462822 -25.619916 -19.288837
-24.116712 -25.998604 -18.542876
-22.866281 -26.452544 -18.621229
-34.422844 -23.138385 -23.654873
-33.534229 -22.400511 -25.281735
-33.680828 -23.248216 -23.987933
-35.541113 -23.743445 -23.621598
-34.422844 -23.138385 -23.654873
-35.687712 -24.591151 -22.327796
-36.176327 -24.345643 -22.707071
-35.541113 -23.743445 -23.621598
3 0 127 129
3 127 31 128
3 127 128 129
3 0 33 31
3 130 36 131
3 132 131 34
3 130 131 132
3 133 38 134
3 135 134 36
3 133 134 135
3 136 41 137
3 138 43 139
3 140 139 41
3 138 139 140
3 142 141 43
3 2 47 45
3 2 49 47
3 2 51 49
3 3 54 52
3 3 55 54
3 1 58 56
3 5 61 59
3 5 63 61
3 5 65 63
3 4 68 66
3 4 143 145
3 145 144 68
3 143 144 145
3 6 146 148
3 146 70 147
3 146 147 148
3 6 71 70
3 6 73 71
3 8 74 32
3 8 75 74
3 9 78 76
3 11 79 35
3 11 80 79
3 11 82 80
3 13 83 37
3 13 84 83
3 149 86 150
3 14 87 39
3 14 88 87
3 15 89 40
3 15 90 89
3 15 91 90
3 16 92 42
3 16 93 92
3 16 95 93
3 18 96 44
3 18 97 96
3 151 98 152
3 154 153 98
3 19 155 157
3 157 156 46
3 155 156 157
3 19 158 160
3 158 99 159
3 158 159 160
3 19 100 99
3 20 101 48
3 20 102 101
3 20 103 102
3 21 104 50
3 21 161 163
3 163 162 104
3 161 162 163
3 7 105 72
3 22 106 53
3 22 164 166
3 166 165 106
3 164 165 166
3 22 167 168
3 23 169 170
3 23 171 172
3 173 107 174
3 176 175 85
3 25 177 178
3 25 179 181
3 179 109 180
3 179 180 181
3 17 110 94
3 26 111 57
3 26 112 111
3 10 113 77
3 27 114 60
3 27 115 114
3 27 116 115
3 28 117 62
3 28 118 117
3 28 119 118
3 29 120 64
3 29 121 120
3 12 122 81
3 30 123 67
3 30 124 123
3 30 125 124
3 24 126 69
3 24 108 126
3 31 182 183
3 31 184 186
3 184 6 185
3 184 185 186
3 31 32 6
3 33 32 31
3 33 8 32
3 34 35 9
3 36 35 34
3 36 11 35
3 36 37 11
3 38 37 36
3 38 13 37
3 187 39 188
3 189 39 190
3 191 14 192
3 193 192 39
3 191 192 193
3 194 40 195
3 41 196 198
3 196 40 197
3 196 197 198
3 41 15 40
3 41 42 15
3 43 42 41
3 43 16 42
3 43 44 16
3 199 44 200
3 201 200 43
3 199 200 201
3 202 18 203
3 204 203 44
3 202 203 204
3 45 205 207
3 205 46 206
3 205 206 207
3 47 46 45
3 47 19 46
3 47 48 19
3 49 48 47
3 49 20 48
3 49 50 20
3 51 50 49
3 51 21 50
3 52 53 7
3 54 53 52
3 54 22 53
3 54 208 210
3 210 209 22
3 208 209 210
3 55 211 213
3 213 212 54
3 211 212 213
3 55 214 216
3 214 23 215
3 214 215 216
3 217 25 218
3 56 57 17
3 58 57 56
3 58 26 57
3 59 60 10
3 61 60 59
3 61 27 60
3 61 62 27
3 63 62 61
3 63 28 62
3 63 64 28
3 65 64 63
3 65 29 64
3 66 67 12
3 68 67 66
3 68 30 67
3 68 69 30
3 219 69 220
3 221 220 68
3 219 220 221
3 222 24 223
3 224 223 69
3 222 223 224
3 70 225 226
3 70 227 228
3 70 229 231
3 229 45 230
3 229 230 231
3 71 45 70
3 71 2 45
3 71 72 2
3 73 72 71
3 73 7 72
3 32 73 6
3 74 73 32
3 74 7 73
3 74 52 7
3 75 52 74
3 75 3 52
3 76 77 1
3 78 77 76
3 78 10 77
3 35 78 9
3 79 78 35
3 79 10 78
3 79 59 10
3 80 59 79
3 80 5 59
3 80 81 5
3 82 81 80
3 82 12 81
3 37 82 11
3 83 82 37
3 83 12 82
3 83 66 12
3 84 66 83
3 84 4 66
3 232 0 233
3 234 85 235
3 86 236 238
3 236 85 237
3 236 237 238
3 86 239 241
3 241 240 85
3 239 240 241
3 39 242 244
3 242 86 243
3 242 243 244
3 87 86 39
3 87 245 247
3 247 246 86
3 245 246 247
3 87 248 249
3 88 250 252
3 252 251 87
3 250 251 252
3 88 253 254
3 255 14 256
3 40 257 258
3 89 259 261
3 261 260 40
3 259 260 261
3 89 262 264
3 262 14 263
3 262 263 264
3 89 88 14
3 90 88 89
3 90 265 267
3 267 266 88
3 265 266 267
3 90 268 269
3 91 270 272
3 272 271 90
3 270 271 272
3 91 273 274
3 42 91 15
3 92 91 42
3 92 275 277
3 277 276 91
3 275 276 277
3 92 278 279
3 93 280 282
3 282 281 92
3 280 281 282
3 93 283 284
3 93 285 287
3 285 94 286
3 285 286 287
3 95 94 93
3 95 17 94
3 44 95 16
3 96 95 44
3 96 17 95
3 96 56 17
3 97 56 96
3 97 1 56
3 288 18 289
3 290 18 291
3 292 97 293
3 294 293 18
3 292 293 294
3 98 295 297
3 295 97 296
3 295 296 297
3 98 1 97
3 98 76 1
3 298 76 299
3 300 299 98
3 298 299 300
3 301 9 302
3 303 302 76
3 301 302 303
3 304 9 305
3 306 34 307
3 308 307 9
3 306 307 308
3 309 34 310
3 312 311 34
3 46 313 314
3 316 315 46
3 99 317 318
3 99 319 320
3 99 321 322
3 100 323 325
3 325 324 99
3 323 324 325
3 100 326 327
3 48 100 19
3 101 100 48
3 101 328 330
3 330 329 100
3 328 329 330
3 101 331 332
3 102 333 335
3 335 334 101
3 333 334 335
3 102 336 337
3 102 338 339
3 103 340 342
3 342 341 102
3 340 341 342
3 103 343 344
3 50 103 20
3 104 103 50
3 104 345 347
3 347 346 103
3 345 346 347
3 104 348 349
3 351 350 104
3 72 51 2
3 105 51 72
3 105 21 51
3 53 105 7
3 106 105 53
3 106 21 105
3 106 352 354
3 354 353 21
3 352 353 354
3 356 355 106
3 358 357 22
3 359 38 360
3 361 38 362
3 363 13 364
3 365 364 38
3 363 364 365
3 366 13 367
3 368 84 369
3 370 369 13
3 368 369 370
3 107 371 373
3 371 84 372
3 371 372 373
3 107 4 84
3 374 107 375
3 376 107 377
3 378 4 379
3 380 379 107
3 378 379 380
3 382 381 4
3 383 24 384
3 385 24 386
3 387 108 388
3 389 388 24
3 387 388 389
3 390 108 391
3 393 392 108
3 85 394 395
3 397 396 85
3 109 398 399
3 109 400 402
3 400 0 401
3 400 401 402
3 94 403 404
3 110 405 407
3 407 406 94
3 405 406 407
3 110 408 409
3 57 110 17
3 111 110 57
3 111 410 412
3 412 411 110
3 410 411 412
3 111 413 414
3 112 415 417
3 417 416 111
3 415 416 417
3 112 418 419
3 77 58 1
3 113 58 77
3 113 26 58
3 60 113 10
3 114 113 60
3 114 26 113
3 114 112 26
3 115 112 114
3 115 420 422
3 422 421 112
3 420 421 422
3 115 423 424
3 116 425 427
3 427 426 115
3 425 426 427
3 116 428 430
3 428 25 429
3 428 429 430
3 62 116 27
3 117 116 62
3 117 25 116
3 117 109 25
3 118 109 117
3 118 0 109
3 118 33 0
3 119 33 118
3 119 8 33
3 64 119 28
3 120 119 64
3 120 8 119
3 120 75 8
3 121 75 120
3 121 3 75
3 81 65 5
3 122 65 81
3 122 29 65
3 67 122 12
3 123 122 67
3 123 29 122
3 123 121 29
3 124 121 123
3 124 3 121
3 124 55 3
3 125 55 124
3 125 23 55
3 69 125 30
3 126 125 69
3 126 23 125
3 126 431 433
3 433 432 23
3 431 432 433
3 108 434 436
3 436 435 126
3 434 435 436
3 108 437 438
