ply
format ascii 1.0
element vertex 394
property float x
property float y
property float z
element face 415
property list uchar int vertex_index
end_header
46.31184 7.279931 -27.508093
31.049847 11.230018 -37.030357
45.801582 16.660786 -23.561184
38.401463 15.096628 -32.360172
41.646694 13.446199 -36.918404
52.604225 12.070803 -16.395411
31.322901 6.710496 -32.620712
57.050323 5.644174 -7.938036
47.253212 14.329555 -25.251108
43.010082 16.732607 -29.916515
43.385559 9.836088 -32.511398
45.447056 8.938763 -37.392357
49.679638 8.46046 -32.788887
49.897789 7.945609 -17.22077
33.221214 16.506273 -36.38274
34.436935 11.340756 -33.831196
28.01969 12.412016 -36.470917
27.259033 6.020612 -34.982204
27.655609 7.646194 -39.60358
31.531902 5.280822 -41.435009
45.15451 9.299971 -24.172251
41.997967 9.88278 -27.263391
41.461788 17.224586 -28.21822
38.746407 18.193798 -34.609741
36.741066 13.643976 -37.953346
35.223694 6.183194 -36.540951
40.521206 7.998955 -37.63728
47.585419 9.254433 -20.964594
49.543884 14.942205 -20.084621
50.476147 10.824653 -21.761862
38.8573 8.318037 -29.608404
35.809948 4.97127 -30.013174
54.736591 8.802689 -11.762148
46.495781 10.711054 -26.293964
44.394951 11.912019 -28.546265
44.741787 8.579606 -29.981506
46.843044 8.885142 -33.257748
47.353432 7.114707 -30.838673
31.626852 14.770027 -37.384926
30.08843 14.746748 -36.417065
28.771046 12.714936 -37.619591
27.278742 10.391128 -38.014252
29.076534 9.297329 -38.475143
29.619558 6.866088 -40.494572
31.197956 7.215843 -38.236023
44.99651 13.724093 -23.783127
43.351582 13.971395 -25.777973
43.660973 17.069613 -25.995045
41.124722 14.759438 -33.556507
40.888428 17.561985 -32.370777
39.842049 16.286091 -36.029461
37.50782 16.604839 -37.215904
39.548046 13.828074 -38.152359
38.901348 10.932441 -37.886688
41.357841 11.087807 -38.437424
47.245754 6.856631 -36.104744
51.145714 11.834139 -16.496424
49.81683 13.057993 -18.303497
51.316456 13.704681 -18.282703
50.57774 13.786226 -20.73015
52.118061 12.077963 -18.905819
40.025352 12.932195 -29.347723
40.217934 9.40527 -28.436029
38.90345 11.523634 -31.23884
32.646778 9.242273 -33.464539
35.531616 7.815855 -32.475258
33.770317 5.79217 -31.642965
26.410458 4.378088 -35.919411
36.866795 3.660012 -36.827271
35.024788 3.041697 -39.888954
54.930397 5.389634 -8.280335
55.928844 7.438973 -9.744207
53.878365 5.958208 -30.235723
46.829369 16.484951 -24.334002
44.75404 17.365238 -26.710938
45.079979 15.372739 -27.680597
42.355438 13.215288 -30.685047
42.683636 11.812518 -34.884232
43.545235 11.161205 -37.390251
45.325562 10.225347 -35.449345
48.108452 9.093954 -35.354698
50.12104 7.550009 -34.465706
50.882195 7.116876 -15.283231
52.265297 10.540913 -14.368032
35.607464 16.654409 -34.759354
36.425888 13.369333 -33.690197
32.924519 14.822917 -34.989418
30.618237 12.826864 -34.752666
29.347092 10.251751 -34.459873
28.968512 6.955228 -33.77475
27.328465 9.553461 -36.089409
26.622257 7.652048 -37.539715
26.951365 5.687915 -38.504169
28.277866 5.886158 -40.227005
43.626289 9.858662 -25.877527
41.523632 13.690269 -27.614899
39.71294 16.346121 -30.170288
42.448803 18.044289 -28.985851
40.242786 18.085718 -31.256475
38.141312 17.890276 -33.354347
36.155235 17.767498 -35.951904
34.674541 16.111427 -37.475216
33.787533 12.866984 -37.374321
33.287468 8.821662 -36.452339
36.087807 10.373378 -36.784657
37.91283 7.590356 -36.418713
39.283634 4.739739 -36.128174
42.708199 8.657031 -38.248188
46.335983 9.360149 -22.658861
46.537785 14.016157 -21.921759
48.817131 8.949925 -19.235569
48.127159 13.723419 -20.078909
47.614651 16.043818 -21.770943
48.819374 15.333613 -22.396809
48.896641 12.65641 -23.509056
48.146301 9.168875 -24.539446
38.217522 5.779569 -27.400686
37.374172 9.769283 -32.427956
37.498528 6.621066 -30.311382
33.222221 5.12722 -38.878426
53.097126 8.787189 -12.18255
53.743736 10.429586 -13.89343
55.989014 7.478949 -11.882746
54.825268 8.860592 -14.061483
53.667763 10.408583 -16.489086
52.443336 9.110338 -19.48934
50.296474 7.394917 -22.324961
48.285645 6.108277 -25.112078
52.275341 7.203898 -32.491337
46.439507 5.582695 -35.693062
48.001499 5.959703 -35.312311
31.831824 5.214811 -31.301262
33.055532 4.755648 -30.812389
32.546609 6.251333 -32.131839
30.896186 5.223585 -31.851253
31.831824 5.214811 -31.301262
26.090733 2.756441 -34.271593
26.320778 3.525314 -36.271019
36.883314 2.303825 -38.517886
37.803801 2.374855 -37.026425
56.229624 4.224911 -7.27703
57.410579 4.431591 -7.228895
55.99036 5.516904 -8.109185
55.16966 4.09764 -7.44818
56.229624 4.224911 -7.27703
51.251465 6.729444 -14.347033
50.662339 4.538436 -15.021937
51.943016 8.441463 -13.889433
51.573746 8.828895 -14.825632
51.251465 6.729444 -14.347033
30.737735 5.125903 -41.504137
29.781564 5.918536 -41.033918
30.57573 6.073455 -40.96479
31.498943 4.218415 -41.991532
30.737735 5.125903 -41.504137
44.3904 9.579317 -25.024889
44.195724 7.543769 -25.034194
44.959835 7.264423 -24.181556
46.960701 9.307291 -21.811728
46.69203 6.996762 -22.09815
47.316748 6.943904 -21.251016
49.35746 8.447767 -18.228169
48.873796 6.140118 -18.708706
49.414125 5.63796 -17.701307
41.815823 8.077243 -26.865417
42.672936 7.949966 -26.400218
39.36948 7.311918 -28.303902
40.049797 7.855535 -27.717715
39.537617 8.861653 -29.022216
38.537411 7.048803 -28.504545
39.049591 6.042684 -27.200043
39.36948 7.311918 -28.303902
36.307772 4.737876 -28.654204
37.152062 5.562774 -28.803307
36.654238 5.796168 -30.162278
35.504236 4.256944 -28.128307
36.00206 4.023549 -26.769336
36.307772 4.737876 -28.654204
28.033015 4.567047 -33.479115
28.887754 5.034355 -32.875388
28.113772 6.48792 -34.378477
34.134598 3.288569 -41.13035
35.026453 2.328327 -41.450428
53.916859 8.794939 -11.972349
53.535089 8.008973 -11.159749
54.354822 8.016724 -10.949548
56.089569 6.240061 -12.121379
56.629395 6.765259 -10.836211
54.297617 8.2699 -15.674869
54.808478 7.552335 -14.385957
53.718864 9.043895 -16.888671
54.246516 9.634588 -15.275285
54.297617 8.2699 -15.674869
53.106651 8.394773 -18.388798
53.055549 9.75946 -17.989213
53.718864 9.043895 -16.888671
50.115345 6.254541 -22.891421
51.199281 6.753971 -21.49437
49.109931 5.61122 -24.28498
49.29106 6.751597 -23.718519
50.115345 6.254541 -22.891421
53.111193 5.972322 -32.247198
53.076853 6.581053 -31.36353
53.912705 5.349477 -31.119391
52.023815 6.171005 -33.095167
53.111193 5.972322 -32.247198
45.764052 6.614778 -36.691757
44.864703 7.655843 -37.335563
46.346405 7.897697 -36.74855
45.764052 6.614778 -36.691757
46.439507 5.582695 -35.693062
47.796234 6.722927 -20.464376
47.316748 6.943904 -21.251016
33.942684 4.64486 -30.105961
34.962499 4.23441 -29.291066
34.790132 5.38172 -30.828069
33.942684 4.64486 -30.105961
33.055532 4.755648 -30.812389
26.791978 3.257567 -34.098396
27.216265 4.078829 -33.629793
26.834745 5.19935 -35.450807
26.791978 3.257567 -34.098396
26.090733 2.756441 -34.271593
35.962311 1.994668 -40.048727
35.945791 3.350855 -38.358113
36.883314 2.303825 -38.517886
35.026453 2.328327 -41.450428
35.962311 1.994668 -40.048727
54.067131 2.763821 -8.040686
55.16966 4.09764 -7.44818
53.880888 3.949803 -8.842666
54.067131 2.763821 -8.040686
54.451725 6.310196 -9.208641
53.880888 3.949803 -8.842666
54.950948 7.334865 -9.940577
54.451725 6.310196 -9.208641
55.42962 6.414303 -9.012271
55.332718 8.120831 -10.753177
54.354822 8.016724 -10.949548
54.950948 7.334865 -9.940577
54.339747 5.0209 -29.371478
53.095967 5.604877 -29.491529
54.770033 4.806724 -30.083267
54.339747 5.0209 -29.371478
53.912705 5.349477 -31.119391
54.770033 4.806724 -30.083267
49.439142 6.306392 -34.492792
48.001499 5.959703 -35.312311
48.683397 7.20332 -35.285225
49.802597 5.308651 -16.856821
49.414125 5.63796 -17.701307
50.2948 4.894285 -15.888051
50.662339 4.538436 -15.021937
50.389992 7.531243 -16.252001
49.802597 5.308651 -16.856821
50.2948 4.894285 -15.888051
26.591231 4.180227 -37.563398
26.320778 3.525314 -36.271019
26.680912 5.033002 -37.21179
27.417392 4.718125 -38.362529
26.591231 4.180227 -37.563398
28.080642 4.817246 -39.223947
27.417392 4.718125 -38.362529
27.614615 5.787037 -39.365587
29.057727 4.800223 -39.881992
28.860504 3.731311 -38.878935
28.080642 4.817246 -39.223947
29.110717 5.428571 -40.900135
28.948712 6.376123 -40.360788
29.781564 5.918536 -41.033918
29.057727 4.800223 -39.881992
29.110717 5.428571 -40.900135
57.644256 4.892524 -8.081101
57.410579 4.431591 -7.228895
57.160049 5.847872 -8.863856
57.644256 4.892524 -8.081101
43.487096 7.937907 -25.707286
44.195724 7.543769 -25.034194
42.812128 9.870721 -26.570459
42.672936 7.949966 -26.400218
43.487096 7.937907 -25.707286
39.01222 2.914719 -36.676876
37.803801 2.374855 -37.026425
38.075215 4.199876 -36.477722
43.495274 7.514978 -37.763479
44.077628 8.797897 -37.820273
44.864703 7.655843 -37.335563
42.165184 7.190809 -37.645424
43.495274 7.514978 -37.763479
41.071687 6.861771 -37.33997
41.614702 8.327993 -37.942734
42.165184 7.190809 -37.645424
40.452901 5.232163 -36.585417
39.90242 6.369347 -36.882727
41.071687 6.861771 -37.33997
39.943866 3.562524 -36.106884
40.452901 5.232163 -36.585417
39.672453 1.737503 -36.655586
39.01222 2.914719 -36.676876
39.943866 3.562524 -36.106884
45.550289 7.118588 -23.547271
44.959835 7.264423 -24.181556
46.141025 7.148677 -22.790576
46.69203 6.996762 -22.09815
45.745247 9.33006 -23.415556
45.550289 7.118588 -23.547271
46.141025 7.148677 -22.790576
48.412091 6.570673 -19.599863
48.873796 6.140118 -18.708706
48.201275 9.102179 -20.100082
47.796234 6.722927 -20.464376
48.412091 6.570673 -19.599863
40.925806 7.838489 -27.451736
41.815823 8.077243 -26.865417
41.107951 9.644025 -27.84971
40.925806 7.838489 -27.451736
40.049797 7.855535 -27.717715
38.534368 4.688849 -25.937863
39.049591 6.042684 -27.200043
37.739293 4.746563 -25.684846
38.534368 4.688849 -25.937863
37.511558 5.142026 -27.34796
37.858025 6.200318 -28.856034
37.152062 5.562774 -28.803307
37.739293 4.746563 -25.684846
37.511558 5.142026 -27.34796
35.504236 4.256944 -28.128307
34.962499 4.23441 -29.291066
29.718992 5.345951 -32.428272
30.896186 5.223585 -31.851253
30.145707 6.832862 -33.197731
29.718992 5.345951 -32.428272
28.887754 5.034355 -32.875388
28.033015 4.567047 -33.479115
27.216265 4.078829 -33.629793
33.233314 4.33133 -40.625086
34.123504 4.084459 -39.38369
34.134598 3.288569 -41.13035
32.388155 4.408131 -41.903378
32.377061 5.204021 -40.156717
33.233314 4.33133 -40.625086
31.498943 4.218415 -41.991532
32.388155 4.408131 -41.903378
52.69048 6.677117 -11.743948
53.535089 8.008973 -11.159749
52.35893 7.564601 -12.796693
52.69048 6.677117 -11.743948
52.681212 9.664051 -13.275291
51.943016 8.441463 -13.889433
52.35893 7.564601 -12.796693
56.59931 6.745271 -9.766941
56.489583 6.541574 -8.841121
57.160049 5.847872 -8.863856
55.958929 7.458961 -10.813477
56.59931 6.745271 -9.766941
56.629395 6.765259 -10.836211
55.39035 6.861513 -13.296588
56.089569 6.240061 -12.121379
55.407141 8.169771 -12.972114
55.39035 6.861513 -13.296588
54.808478 7.552335 -14.385957
52.272712 7.611682 -20.07656
53.106651 8.394773 -18.388798
51.369905 8.252628 -20.907151
52.272712 7.611682 -20.07656
51.199281 6.753971 -21.49437
48.86632 5.186909 -25.987359
49.109931 5.61122 -24.28498
48.585515 5.886232 -26.998725
48.86632 5.186909 -25.987359
47.598612 6.472059 -28.196732
47.298743 6.694104 -26.310085
48.585515 5.886232 -26.998725
48.119408 6.389447 -29.862023
46.832636 7.197319 -29.173383
47.598612 6.472059 -28.196732
49.240654 7.152853 -30.791689
48.119408 6.389447 -29.862023
50.403757 7.82573 -31.766796
48.516535 7.787584 -31.81378
49.240654 7.152853 -30.791689
52.503121 6.574604 -30.490214
53.095967 5.604877 -29.491529
51.701608 7.197449 -31.618021
52.503121 6.574604 -30.490214
53.076853 6.581053 -31.36353
50.977489 7.832179 -32.640112
50.403757 7.82573 -31.766796
51.701608 7.197449 -31.618021
50.946664 6.344061 -34.082352
51.19819 7.376953 -33.478521
52.023815 6.171005 -33.095167
49.439142 6.306392 -34.492792
50.946664 6.344061 -34.082352
3 0 35 33
3 0 37 35
3 1 40 38
3 1 42 40
3 1 44 42
3 2 47 45
3 4 50 48
3 4 52 50
3 4 54 52
3 130 129 55
3 5 58 56
3 5 60 58
3 3 63 61
3 6 66 64
3 6 131 133
3 133 132 66
3 131 132 133
3 6 134 135
3 137 136 67
3 139 138 68
3 7 140 141
3 7 142 144
3 142 70 143
3 142 143 144
3 7 71 70
3 8 75 73
3 10 76 34
3 10 77 76
3 10 79 77
3 12 80 36
3 12 81 80
3 145 82 146
3 147 83 148
3 149 148 82
3 147 148 149
3 14 86 84
3 16 87 39
3 16 88 87
3 16 90 88
3 18 91 41
3 18 92 91
3 18 93 92
3 19 150 152
3 152 151 43
3 150 151 152
3 19 153 154
3 20 155 157
3 155 94 156
3 155 156 157
3 22 95 46
3 22 96 95
3 9 97 74
3 23 98 49
3 23 99 98
3 23 100 99
3 24 101 51
3 24 102 101
3 24 104 102
3 26 105 53
3 26 106 105
3 11 107 78
3 27 158 160
3 158 108 159
3 158 159 160
3 27 109 108
3 13 161 163
3 161 110 162
3 161 162 163
3 28 111 57
3 28 112 111
3 28 113 112
3 29 114 59
3 29 115 114
3 21 164 165
3 30 166 168
3 168 167 62
3 166 167 168
3 30 169 171
3 169 116 170
3 169 170 171
3 15 117 85
3 31 118 65
3 31 172 174
3 174 173 118
3 172 173 174
3 31 175 177
3 175 176 177
3 17 178 180
3 180 179 89
3 178 179 180
3 25 119 103
3 182 181 69
3 32 183 185
3 183 120 184
3 183 184 185
3 32 121 120
3 186 122 187
3 188 123 189
3 190 124 191
3 192 191 123
3 190 191 192
3 193 125 194
3 195 194 124
3 193 194 195
3 196 126 197
3 198 127 199
3 200 199 126
3 198 199 200
3 201 128 202
3 203 202 72
3 201 202 203
3 205 204 128
3 33 34 8
3 35 34 33
3 35 10 34
3 35 36 10
3 37 36 35
3 37 12 36
3 38 39 14
3 40 39 38
3 40 16 39
3 40 41 16
3 42 41 40
3 42 18 41
3 42 43 18
3 44 43 42
3 44 19 43
3 45 46 20
3 47 46 45
3 47 22 46
3 48 49 9
3 50 49 48
3 50 23 49
3 50 51 23
3 52 51 50
3 52 24 51
3 52 53 24
3 54 53 52
3 54 26 53
3 55 206 208
3 208 207 11
3 206 207 208
3 210 209 55
3 211 27 212
3 56 57 13
3 58 57 56
3 58 28 57
3 58 59 28
3 60 59 58
3 60 29 59
3 61 62 21
3 63 62 61
3 63 30 62
3 64 65 15
3 66 65 64
3 66 31 65
3 66 213 215
3 215 214 31
3 213 214 215
3 217 216 66
3 67 218 220
3 220 219 17
3 218 219 220
3 222 221 67
3 68 69 25
3 223 69 224
3 225 224 68
3 223 224 225
3 227 226 69
3 70 228 229
3 70 230 231
3 70 232 233
3 71 234 236
3 236 235 70
3 234 235 236
3 71 237 239
3 237 32 238
3 237 238 239
3 240 72 241
3 242 72 243
3 245 244 72
3 73 74 2
3 75 74 73
3 75 9 74
3 34 75 8
3 76 75 34
3 76 9 75
3 76 48 9
3 77 48 76
3 77 4 48
3 77 78 4
3 79 78 77
3 79 11 78
3 36 79 10
3 80 79 36
3 80 11 79
3 80 55 11
3 81 55 80
3 81 246 248
3 248 247 55
3 246 247 248
3 249 13 250
3 82 251 252
3 82 253 255
3 253 13 254
3 253 254 255
3 82 56 13
3 83 56 82
3 83 5 56
3 84 85 3
3 86 85 84
3 86 15 85
3 39 86 14
3 87 86 39
3 87 15 86
3 87 64 15
3 88 64 87
3 88 6 64
3 88 89 6
3 90 89 88
3 90 17 89
3 41 90 16
3 91 90 41
3 91 17 90
3 91 67 17
3 92 67 91
3 92 256 258
3 258 257 67
3 256 257 258
3 92 259 260
3 93 261 263
3 263 262 92
3 261 262 263
3 93 264 266
3 264 265 266
3 43 93 18
3 267 93 268
3 269 268 43
3 267 268 269
3 271 270 93
3 272 7 273
3 275 274 7
3 94 276 277
3 94 278 280
3 278 21 279
3 278 279 280
3 46 94 20
3 95 94 46
3 95 21 94
3 95 61 21
3 96 61 95
3 96 3 61
3 74 47 2
3 97 47 74
3 97 22 47
3 49 97 9
3 98 97 49
3 98 22 97
3 98 96 22
3 99 96 98
3 99 3 96
3 99 84 3
3 100 84 99
3 100 14 84
3 51 100 23
3 101 100 51
3 101 14 100
3 101 38 14
3 102 38 101
3 102 1 38
3 102 103 1
3 104 103 102
3 104 25 103
3 53 104 24
3 105 104 53
3 105 25 104
3 105 68 25
3 106 68 105
3 106 281 283
3 283 282 68
3 281 282 283
3 78 54 4
3 107 54 78
3 107 26 54
3 284 107 285
3 286 285 11
3 284 285 286
3 287 107 288
3 289 26 290
3 291 290 107
3 289 290 291
3 292 106 293
3 294 293 26
3 292 293 294
3 295 106 296
3 299 298 106
3 297 298 299
3 300 20 301
3 108 302 303
3 108 304 306
3 304 20 305
3 304 305 306
3 108 45 20
3 109 45 108
3 109 2 45
3 110 307 308
3 110 309 311
3 309 27 310
3 309 310 311
3 57 110 13
3 111 110 57
3 111 27 110
3 111 109 27
3 112 109 111
3 112 2 109
3 112 73 2
3 113 73 112
3 113 8 73
3 59 113 28
3 114 113 59
3 114 8 113
3 114 33 8
3 115 33 114
3 115 0 33
3 62 312 314
3 314 313 21
3 312 313 314
3 316 315 62
3 116 317 318
3 116 319 320
3 85 63 3
3 117 63 85
3 117 30 63
3 65 117 15
3 118 117 65
3 118 30 117
3 118 116 30
3 321 116 322
3 323 322 118
3 321 322 323
3 325 324 116
3 327 326 31
3 89 328 330
3 330 329 6
3 328 329 330
3 332 331 89
3 334 333 17
3 103 44 1
3 119 44 103
3 119 19 44
3 69 119 25
3 335 119 336
3 337 336 69
3 335 336 337
3 338 19 339
3 340 339 119
3 338 339 340
3 342 341 19
3 120 343 344
3 120 345 346
3 120 347 349
3 347 83 348
3 347 348 349
3 121 83 120
3 121 5 83
3 350 71 351
3 352 351 7
3 350 351 352
3 122 353 355
3 353 71 354
3 353 354 355
3 122 32 71
3 356 122 357
3 123 358 360
3 358 122 359
3 358 359 360
3 123 32 122
3 123 121 32
3 124 121 123
3 124 5 121
3 124 60 5
3 125 60 124
3 125 29 60
3 361 125 362
3 126 363 365
3 363 125 364
3 363 364 365
3 126 29 125
3 126 115 29
3 127 115 126
3 127 0 115
3 366 127 367
3 368 127 369
3 370 0 371
3 372 371 127
3 370 371 372
3 373 37 374
3 375 374 0
3 373 374 375
3 376 37 377
3 378 12 379
3 380 379 37
3 378 379 380
3 72 381 382
3 128 383 385
3 385 384 72
3 383 384 385
3 128 386 388
3 386 12 387
3 386 387 388
3 128 81 12
3 389 81 390
3 391 390 128
3 389 390 391
3 393 392 81
