ply
format ascii 1.0
element vertex 279
property float x
property float y
property float z
element face 254
property list uchar int vertex_index
end_header
20.834915 -99.814491 3.965253
23.273577 -99.412537 -7.897018
12.335112 -101.930473 3.66822
16.789951 -98.363571 -9.209944
21.851728 -99.840836 -1.868302
13.736104 -98.422623 4.72303
24.404919 -98.944847 -12.858667
17.550442 -100.362663 10.643998
15.788706 -101.582848 4.122391
11.518756 -100.718826 10.558832
9.040258 -99.193901 10.563457
21.082977 -97.748825 12.913513
24.527653 -98.048363 7.133588
17.482048 -101.742119 -3.381312
18.026499 -100.998428 -9.872725
19.076168 -98.946877 -14.210927
22.354061 -98.304825 2.436462
21.258303 -100.471947 1.381854
26.340631 -98.739426 -7.400714
26.634806 -98.281708 -9.92515
23.870165 -99.628265 -10.416216
15.913218 -98.64415 11.484316
14.401808 -100.736038 10.66232
12.757292 -98.629578 11.251062
7.77838 -95.253403 13.95668
8.575961 -98.186172 13.123151
19.916809 -96.730629 14.903547
17.933403 -97.727432 13.076967
19.471954 -99.294861 11.785975
25.248034 -96.413162 9.601376
13.698668 -102.449707 3.853545
16.90205 -102.19957 0.404435
14.866776 -102.565392 -0.020944
16.295877 -101.151299 -6.755407
16.714693 -100.207993 -9.711621
18.847149 -100.344063 -12.61244
17.087282 -99.088486 -12.267046
23.730036 -98.82991 -1.928416
12.372633 -100.505989 3.808448
13.884702 -101.541138 0.141094
27.030432 -97.426834 -12.207646
19.550915 -100.042542 7.304262
18.534252 -100.65712 4.135406
16.3277 -101.180885 7.829112
13.449557 -101.983009 7.671111
11.635679 -102.037277 7.311659
10.444828 -98.786423 12.726385
9.706826 -100.504623 10.848351
10.716758 -101.125015 7.078149
10.711771 -99.487984 7.042393
24.240942 -94.581802 14.657146
20.844501 -95.587936 17.060141
22.273802 -95.945663 14.75943
22.616272 -97.957466 9.834138
21.319403 -99.478195 8.569567
22.611298 -98.826218 5.33639
19.24629 -101.193657 0.930149
19.542454 -100.301163 -2.55775
19.537024 -99.92543 -6.238751
15.638911 -101.925476 -3.562719
17.711338 -101.362373 -6.713399
20.395695 -100.773918 -9.309361
21.294586 -100.535263 -11.995157
21.721527 -99.345947 -14.1616
24.807104 -99.075981 -7.648866
25.963325 -98.720566 -5.825938
24.429799 -99.057121 -6.07409
13.747815 -97.509224 11.037654
14.335255 -98.636864 11.367689
15.325778 -97.51651 11.154281
7.601369 -96.048336 13.164887
6.884892 -94.780838 13.310861
16.33587 -97.058151 11.950607
17.462461 -96.375671 12.673461
15.325778 -97.51651 11.154281
16.92331 -98.185791 12.280641
16.33587 -97.058151 11.950607
25.147441 -95.37865 10.699842
26.128616 -95.672684 9.176458
16.752322 -99.285782 -9.460783
16.547626 -99.837445 -7.993314
16.585254 -98.915233 -7.742476
22.790882 -99.335373 -1.898359
23.163905 -98.743995 -0.843612
22.224751 -99.249459 -0.813555
22.201699 -99.283798 -3.266027
23.140853 -98.778335 -3.296083
22.790882 -99.335373 -1.898359
14.372231 -99.020782 2.885639
13.690495 -100.062466 2.428348
13.054368 -99.464306 4.265739
24.680039 -98.097187 -13.568595
25.992795 -97.33818 -13.243085
25.717675 -98.18584 -12.533157
10.257315 -97.474594 13.192635
11.300629 -97.602135 12.539459
24.127913 -94.652298 16.175247
25.227258 -93.804756 15.705904
19.520425 -95.137161 15.860236
19.775405 -94.813187 17.274816
22.195665 -96.849816 12.214005
22.791078 -95.948234 13.136964
21.67839 -96.847244 13.836472
21.849624 -97.853145 11.373825
22.962312 -96.954136 10.674318
22.195665 -96.849816 12.214005
24.407483 -97.837365 5.531488
25.510091 -97.269226 6.604034
23.569476 -98.43729 6.234989
23.449305 -98.226292 4.632889
24.407483 -97.837365 5.531488
15.515197 -101.281845 -3.307707
14.761807 -101.733307 -1.710813
14.638093 -101.089676 -1.4558
20.68276 -98.171952 -14.383651
22.00544 -98.371487 -14.358988
20.398847 -99.146412 -14.186263
22.475918 -98.481453 1.338827
22.908892 -97.28368 1.992734
21.928039 -99.565014 0.811522
22.475918 -98.481453 1.338827
21.806182 -99.388386 1.909158
21.555016 -100.156391 -0.243224
22.224751 -99.249459 -0.813555
21.928039 -99.565014 0.811522
15.177624 -97.70401 3.372177
14.265794 -97.17006 5.147229
27.218768 -97.969807 -5.645143
25.963325 -98.720566 -5.825938
27.305957 -97.862153 -7.183857
27.218768 -97.969807 -5.645143
26.487718 -98.510567 -8.662932
27.453044 -97.633294 -8.446074
27.305957 -97.862153 -7.183857
8.17717 -96.719787 13.539915
9.322881 -97.174469 13.391018
8.924091 -95.708085 13.807782
8.000159 -97.514721 12.748123
8.17717 -96.719787 13.539915
7.601369 -96.048336 13.164887
8.232308 -98.018585 11.468276
8.80811 -98.690036 11.843304
8.000159 -97.514721 12.748123
9.048404 -98.279392 10.039672
8.232308 -98.018585 11.468276
18.454165 -95.87727 13.586751
19.056579 -95.708507 14.781938
18.925106 -97.22903 13.990257
18.454165 -95.87727 13.586751
17.462461 -96.375671 12.673461
25.870282 -96.451626 7.837929
26.128616 -95.672684 9.176458
24.887844 -97.230762 8.367482
25.510091 -97.269226 6.604034
25.870282 -96.451626 7.837929
16.338217 -100.309098 -6.515207
15.843681 -100.894756 -4.904051
16.505285 -100.679646 -8.233514
16.338217 -100.309098 -6.515207
16.547626 -99.837445 -7.993314
23.77272 -97.727176 -1.230425
23.163905 -98.743995 -0.843612
24.921872 -98.007373 -1.675915
23.77272 -97.727176 -1.230425
24.658028 -98.765808 -3.089789
24.921872 -98.007373 -1.675915
24.658028 -98.765808 -3.089789
23.140853 -98.778335 -3.296083
22.912624 -99.069649 -6.280385
24.429799 -99.057121 -6.07409
8.796139 -94.233506 13.581384
8.924091 -95.708085 13.807782
7.711786 -93.876724 13.577638
8.796139 -94.233506 13.581384
6.884892 -94.780838 13.310861
7.711786 -93.876724 13.577638
14.44653 -100.58004 0.594671
13.128668 -101.023563 1.974771
13.690495 -100.062466 2.428348
14.638093 -101.089676 -1.4558
14.44653 -100.58004 0.594671
14.372231 -99.020782 2.885639
15.177624 -97.70401 3.372177
17.283475 -97.699669 -7.550603
16.585254 -98.915233 -7.742476
27.394862 -97.336388 -9.584224
27.453044 -97.633294 -8.446074
27.592675 -96.908951 -10.725472
27.394862 -97.336388 -9.584224
26.832619 -97.854271 -11.066398
28.129354 -96.307888 -11.677935
27.592675 -96.908951 -10.725472
27.471952 -96.576946 -13.067347
28.129354 -96.307888 -11.677935
27.471952 -96.576946 -13.067347
25.992795 -97.33818 -13.243085
12.456861 -97.523712 11.801798
13.747815 -97.509224 11.037654
11.60106 -98.708 11.988723
12.456861 -97.523712 11.801798
11.300629 -97.602135 12.539459
9.510395 -98.486298 12.924768
10.257315 -97.474594 13.192635
9.322881 -97.174469 13.391018
9.884161 -98.426434 8.279139
9.876015 -99.340942 8.802925
9.048404 -98.279392 10.039672
11.214399 -98.374459 7.269982
9.884161 -98.426434 8.279139
12.726565 -97.841778 6.1103
12.223937 -98.955303 5.882711
11.214399 -98.374459 7.269982
14.265794 -97.17006 5.147229
12.726565 -97.841778 6.1103
25.428925 -93.75695 14.323411
25.227258 -93.804756 15.705904
24.643895 -94.46297 13.227728
25.428925 -93.75695 14.323411
21.538376 -94.47982 17.96531
19.775405 -94.813187 17.274816
22.429693 -95.155365 17.376745
21.538376 -94.47982 17.96531
20.380655 -96.159282 15.981844
19.520425 -95.137161 15.860236
19.056579 -95.708507 14.781938
23.144343 -95.334228 16.226389
22.429693 -95.155365 17.376745
21.559151 -95.766799 15.909786
23.257372 -95.263733 14.708288
24.127913 -94.652298 16.175247
23.144343 -95.334228 16.226389
23.774648 -95.266304 13.085821
23.257372 -95.263733 14.708288
22.791078 -95.948234 13.136964
24.643895 -94.46297 13.227728
23.774648 -95.266304 13.085821
24.278194 -96.181984 10.557937
25.147441 -95.37865 10.699842
23.932153 -97.185314 9.717757
24.278194 -96.181984 10.557937
22.962312 -96.954136 10.674318
23.320687 -97.965596 3.182925
22.908892 -97.28368 1.992734
22.48268 -98.565521 3.886426
23.320687 -97.965596 3.182925
23.449305 -98.226292 4.632889
21.047062 -99.513962 -3.61075
22.201699 -99.283798 -3.266027
20.697091 -100.070999 -2.213026
21.044347 -99.326096 -5.451251
21.047062 -99.513962 -3.61075
19.539739 -100.113297 -4.39825
21.4053 -99.668983 -7.067884
22.912624 -99.069649 -6.280385
21.044347 -99.326096 -5.451251
15.967394 -101.538387 -5.159063
15.515197 -101.281845 -3.307707
15.843681 -100.894756 -4.904051
23.338342 -98.297737 -14.220061
24.680039 -98.097187 -13.568595
23.063223 -99.145397 -13.510134
23.338342 -98.297737 -14.220061
22.00544 -98.371487 -14.358988
16.645464 -97.076275 -8.936692
17.283475 -97.699669 -7.550603
16.2671 -97.733543 -10.26808
16.645464 -97.076275 -8.936692
16.415765 -98.096001 -11.796631
16.938616 -98.726028 -10.738495
16.2671 -97.733543 -10.26808
16.985027 -98.263981 -12.892387
16.415765 -98.096001 -11.796631
17.97947 -98.193176 -13.864328
18.081725 -99.017682 -13.238986
16.985027 -98.263981 -12.892387
19.317082 -98.010659 -13.865782
17.97947 -98.193176 -13.864328
20.68276 -98.171952 -14.383651
19.317082 -98.010659 -13.865782
3 0 17 16
3 1 64 66
3 64 18 65
3 64 65 66
3 1 20 18
3 67 23 68
3 69 68 21
3 67 68 69
3 71 70 24
3 72 27 73
3 74 21 75
3 76 75 27
3 74 75 76
3 77 29 78
3 2 32 30
3 3 79 81
3 79 34 80
3 79 80 81
3 3 36 34
3 4 82 84
3 82 37 83
3 82 83 84
3 4 85 87
3 87 86 37
3 85 86 87
3 5 88 90
3 90 89 38
3 88 89 90
3 6 40 19
3 6 91 93
3 93 92 40
3 91 92 93
3 7 43 41
3 9 44 22
3 9 45 44
3 94 46 95
3 10 47 25
3 10 48 47
3 10 49 48
3 96 50 97
3 98 51 99
3 11 52 26
3 11 100 102
3 102 101 52
3 100 101 102
3 11 103 105
3 103 53 104
3 103 104 105
3 7 54 28
3 7 41 54
3 12 106 107
3 12 108 110
3 108 55 109
3 108 109 110
3 8 56 42
3 13 57 31
3 13 58 57
3 111 59 112
3 113 112 39
3 111 112 113
3 14 60 33
3 14 61 60
3 14 62 61
3 15 63 35
3 15 114 116
3 116 115 63
3 114 115 116
3 16 117 118
3 17 119 121
3 121 120 16
3 119 120 121
3 17 122 124
3 122 4 123
3 122 123 124
3 126 125 5
3 18 127 128
3 18 129 130
3 18 131 133
3 131 19 132
3 131 132 133
3 20 19 18
3 20 6 19
3 21 22 7
3 23 22 21
3 23 9 22
3 24 134 136
3 134 25 135
3 134 135 136
3 137 25 138
3 139 138 24
3 137 138 139
3 140 10 141
3 142 141 25
3 140 141 142
3 144 143 10
3 145 26 146
3 27 147 149
3 147 26 148
3 147 148 149
3 27 11 26
3 27 28 11
3 21 28 27
3 21 7 28
3 29 150 151
3 29 152 154
3 152 12 153
3 152 153 154
3 30 31 8
3 32 31 30
3 32 13 31
3 155 33 156
3 34 157 159
3 157 33 158
3 157 158 159
3 34 14 33
3 34 35 14
3 36 35 34
3 36 15 35
3 37 160 161
3 37 162 163
3 37 164 165
3 167 166 37
3 168 1 169
3 170 24 171
3 172 24 173
3 175 174 24
3 38 39 2
3 176 39 177
3 178 177 38
3 176 177 178
3 180 179 39
3 182 181 5
3 183 3 184
3 19 185 186
3 40 187 189
3 189 188 19
3 187 188 189
3 40 190 191
3 40 192 193
3 195 194 40
3 41 42 0
3 43 42 41
3 43 8 42
3 22 43 7
3 44 43 22
3 44 8 43
3 44 30 8
3 45 30 44
3 45 2 30
3 196 23 197
3 46 198 200
3 198 23 199
3 198 199 200
3 46 9 23
3 25 201 203
3 201 46 202
3 201 202 203
3 47 46 25
3 47 9 46
3 47 45 9
3 48 45 47
3 48 2 45
3 48 38 2
3 49 38 48
3 49 5 38
3 204 49 205
3 206 205 10
3 204 205 206
3 207 49 208
3 209 5 210
3 211 210 49
3 209 210 211
3 213 212 5
3 50 214 215
3 50 216 217
3 51 218 219
3 51 220 221
3 26 222 224
3 222 51 223
3 222 223 224
3 52 51 26
3 52 225 227
3 227 226 51
3 225 226 227
3 52 228 230
3 228 50 229
3 228 229 230
3 231 50 232
3 233 232 52
3 231 232 233
3 235 234 50
3 236 29 237
3 53 238 240
3 238 29 239
3 238 239 240
3 53 12 29
3 28 53 11
3 54 53 28
3 54 12 53
3 54 55 12
3 41 55 54
3 41 0 55
3 241 16 242
3 55 243 245
3 243 16 244
3 243 244 245
3 55 0 16
3 42 17 0
3 56 17 42
3 56 4 17
3 31 56 8
3 57 56 31
3 57 4 56
3 57 246 248
3 248 247 4
3 246 247 248
3 58 249 251
3 251 250 57
3 249 250 251
3 58 252 254
3 252 1 253
3 252 253 254
3 39 32 2
3 59 32 39
3 59 13 32
3 33 255 257
3 255 59 256
3 255 256 257
3 60 59 33
3 60 13 59
3 60 58 13
3 61 58 60
3 61 1 58
3 61 20 1
3 62 20 61
3 62 6 20
3 35 62 14
3 63 62 35
3 63 6 62
3 63 258 260
3 260 259 6
3 258 259 260
3 262 261 63
3 263 3 264
3 265 3 266
3 267 36 268
3 269 268 3
3 267 268 269
3 270 36 271
3 272 15 273
3 274 273 36
3 272 273 274
3 275 15 276
3 278 277 15
