ply
format ascii 1.0
element vertex 247
property float x
property float y
property float z
element face 222
property list uchar int vertex_index
end_header
27.731903 58.243652 -9.789348
32.56908 34.984688 -6.986595
19.572563 52.235329 -13.988111
30.815084 46.480999 -11.57918
23.862864 56.476635 -13.053187
25.088512 48.773888 -11.490578
29.790176 53.677135 -11.170533
22.912718 54.237469 -7.368379
20.541666 59.324837 -11.674495
27.15592 36.835953 -9.163968
26.222818 42.115417 -10.485709
31.068777 40.247059 -10.685929
29.311712 53.382729 -6.871231
25.955292 58.025887 -11.759245
26.599728 54.75721 -11.913204
29.109156 57.053123 -10.915833
25.740875 56.654991 -8.674817
22.414516 57.10865 -9.504091
24.46101 58.953522 -10.877184
22.605936 59.209675 -12.635221
29.523945 36.11858 -7.204598
20.017467 48.406303 -12.430826
28.060312 47.67741 -10.388716
25.573334 45.569977 -10.03577
28.582714 44.264751 -11.04028
28.818645 40.741047 -12.528873
31.19311 42.864555 -13.212584
18.264433 55.248558 -14.439516
32.165569 53.118359 -6.031841
26.479559 50.987129 -5.520715
21.545666 54.340202 -13.581415
22.164339 50.541557 -12.357178
24.577967 52.272316 -12.682421
27.309406 51.193676 -11.36177
30.310486 50.160347 -10.769286
16.209324 58.242516 -12.679842
20.259649 57.863991 -13.779724
25.579254 37.544689 -11.703232
24.352833 35.876286 -12.24189
25.324232 35.05101 -9.236399
22.6684 46.804482 -11.122195
26.99107 39.097023 -11.859541
29.281738 38.482689 -10.033331
31.276285 37.997086 -7.367768
28.888088 56.112469 -8.205218
31.287119 57.13868 -9.19657
31.817822 55.706165 -7.606847
34.375145 54.973103 -6.679797
23.19194 51.967339 -5.680362
26.181332 53.474812 -7.363257
33.395729 49.503021 -11.112136
35.922939 48.606972 -9.374524
33.698982 46.131275 -12.104744
33.578289 42.728409 -10.998633
33.61301 40.057217 -8.153901
31.816537 34.060409 -7.537844
30.29397 34.627356 -7.646845
31.046512 35.551634 -7.095597
33.311182 33.799415 -8.441959
31.816537 34.060409 -7.537844
19.795015 50.320816 -13.209468
18.886266 49.094696 -13.487701
18.663815 51.009209 -14.266343
17.982522 52.603241 -14.675315
17.328457 54.109856 -14.901018
18.918498 53.741944 -14.213814
18.663815 51.009209 -14.266343
17.982522 52.603241 -14.675315
21.156919 54.711788 -7.521823
21.714745 54.174227 -6.190406
19.132503 57.752335 -10.937078
20.068928 56.644241 -9.851876
21.478091 58.216743 -10.589293
18.375495 58.783676 -12.177169
16.966331 57.211174 -11.439751
19.132503 57.752335 -10.937078
19.561052 59.617762 -12.66518
17.394881 59.076601 -13.167853
18.375495 58.783676 -12.177169
24.764909 42.686543 -10.484337
24.440167 44.413823 -10.259367
25.898076 43.842697 -10.260739
25.330661 41.140451 -10.889859
24.764909 42.686543 -10.484337
26.606944 40.60622 -11.172625
25.714787 39.631254 -11.576775
25.330661 41.140451 -10.889859
34.736332 53.667033 -5.945849
33.270357 54.045731 -6.355819
33.631544 52.73966 -5.62187
35.832003 54.341492 -6.273567
34.736332 53.667033 -5.945849
23.581761 51.077957 -4.660899
22.434034 52.365347 -4.504077
23.607628 35.06774 -12.791108
24.04898 34.523623 -11.200855
31.994965 56.475945 -9.946487
32.719189 56.770426 -8.92957
34.593902 50.869928 -10.210759
33.32506 51.178528 -11.14978
35.919714 47.029526 -9.781743
37.571451 47.86586 -9.844102
34.807735 45.791678 -11.146853
34.810961 47.369124 -10.739634
35.919714 47.029526 -9.781743
34.747389 44.090244 -10.593797
33.638635 44.429842 -11.551689
34.807735 45.791678 -11.146853
35.39142 39.379387 -8.288547
34.940259 41.11656 -8.816129
34.21809 38.426232 -7.528736
35.39142 39.379387 -8.288547
28.685012 35.019888 -7.416482
27.500999 35.378574 -8.396168
28.339932 36.477266 -8.184283
28.685012 35.019888 -7.416482
30.29397 34.627356 -7.646845
19.470907 47.22784 -13.30125
18.886266 49.094696 -13.487701
20.364674 46.532951 -12.196407
19.470907 47.22784 -13.30125
16.555594 55.472784 -15.119102
17.708584 56.751501 -14.820907
16.555594 55.472784 -15.119102
17.328457 54.109856 -14.901018
31.005092 52.059689 -5.510604
30.73864 53.250544 -6.451536
29.578164 52.191874 -5.930299
32.657507 52.001591 -4.810816
31.005092 52.059689 -5.510604
33.631544 52.73966 -5.62187
32.657507 52.001591 -4.810816
27.054891 50.106312 -4.368621
25.22557 50.587852 -4.581075
28.162087 50.994074 -5.25504
27.054891 50.106312 -4.368621
29.578164 52.191874 -5.930299
27.895635 52.184929 -6.195973
28.162087 50.994074 -5.25504
20.907818 56.147379 -8.589679
21.156919 54.711788 -7.521823
22.663617 55.673059 -8.436235
20.907818 56.147379 -8.589679
20.068928 56.644241 -9.851876
14.894368 57.863568 -11.387483
16.966331 57.211174 -11.439751
14.229273 58.205298 -13.157394
14.894368 57.863568 -11.387483
15.651547 58.999884 -13.778129
14.229273 58.205298 -13.157394
15.651547 58.999884 -13.778129
17.394881 59.076601 -13.167853
20.593187 59.560181 -13.145542
19.561052 59.617762 -12.66518
21.573801 59.267256 -12.154858
19.420044 58.887338 -13.717794
20.593187 59.560181 -13.145542
21.432792 58.536833 -13.207472
18.706192 58.059218 -14.491011
19.420044 58.887338 -13.717794
19.262041 56.556275 -14.10962
17.708584 56.751501 -14.820907
18.706192 58.059218 -14.491011
24.966043 36.710487 -11.972561
23.988779 37.208748 -12.66084
24.60199 38.042949 -12.391512
24.534679 34.110985 -9.69811
24.04898 34.523623 -11.200855
24.838532 35.463648 -10.739145
26.585155 34.486103 -8.432383
26.240076 35.943482 -9.200184
27.500999 35.378574 -8.396168
25.914708 33.499187 -9.044367
26.585155 34.486103 -8.432383
24.534679 34.110985 -9.69811
25.914708 33.499187 -9.044367
21.69014 45.73204 -11.542091
20.364674 46.532951 -12.196407
21.342934 47.605393 -11.776511
22.987699 45.031075 -10.80258
24.120867 46.18723 -10.578982
24.440167 44.413823 -10.259367
21.69014 45.73204 -11.542091
22.987699 45.031075 -10.80258
25.008879 38.855087 -11.498621
24.60199 38.042949 -12.391512
26.285162 38.320856 -11.781386
25.008879 38.855087 -11.498621
25.714787 39.631254 -11.576775
32.984541 56.054169 -8.134709
32.719189 56.770426 -8.92957
31.55247 56.422422 -8.401708
34.263203 55.687638 -7.671183
32.984541 56.054169 -8.134709
33.096484 55.339634 -7.143322
35.55352 55.296427 -7.103416
34.263203 55.687638 -7.671183
35.55352 55.296427 -7.103416
35.832003 54.341492 -6.273567
21.854355 53.039162 -5.346397
22.434034 52.365347 -4.504077
23.052329 53.102404 -6.52437
21.714745 54.174227 -6.190406
21.854355 53.039162 -5.346397
24.835749 51.477234 -5.600538
23.581761 51.077957 -4.660899
25.22557 50.587852 -4.581075
24.180551 36.561064 -13.80812
23.988779 37.208748 -12.66084
24.180551 36.561064 -13.80812
23.607628 35.06774 -12.791108
30.905984 56.433166 -10.806119
30.198138 57.095901 -10.056202
31.994965 56.475945 -9.946487
31.246494 54.745172 -10.933469
29.449666 55.365129 -11.043183
30.905984 56.433166 -10.806119
31.522284 53.265585 -11.178979
31.246494 54.745172 -10.933469
31.782438 51.507191 -10.978355
30.050331 51.918741 -10.969909
31.522284 53.265585 -11.178979
31.853108 49.831684 -10.940711
31.782438 51.507191 -10.978355
33.32506 51.178528 -11.14978
37.494087 49.561735 -9.002576
37.571451 47.86586 -9.844102
35.857507 50.421903 -9.341952
37.494087 49.561735 -9.002576
34.659334 49.054997 -10.24333
34.593902 50.869928 -10.210759
35.857507 50.421903 -9.341952
34.922899 42.452156 -10.238495
34.747389 44.090244 -10.593797
33.59565 41.392813 -9.576267
34.922899 42.452156 -10.238495
34.940259 41.11656 -8.816129
33.049728 37.396166 -7.13567
32.444648 39.027152 -7.760834
34.21809 38.426232 -7.528736
33.696125 35.889967 -6.945083
31.922683 36.490887 -7.177181
33.049728 37.396166 -7.13567
34.458139 34.163842 -7.947406
33.696125 35.889967 -6.945083
33.311182 33.799415 -8.441959
34.458139 34.163842 -7.947406
3 0 15 13
3 0 18 16
3 0 13 18
3 1 55 57
3 57 56 20
3 55 56 57
3 1 58 59
3 2 60 62
3 60 21 61
3 60 61 62
3 3 24 22
3 3 26 24
3 2 63 65
3 65 64 27
3 63 64 65
3 2 66 67
3 4 32 30
3 6 33 14
3 6 34 33
3 7 68 69
3 8 70 72
3 72 71 17
3 70 71 72
3 8 73 75
3 73 35 74
3 73 74 75
3 8 76 78
3 78 77 35
3 76 77 78
3 4 36 19
3 4 30 36
3 9 39 37
3 5 40 31
3 10 79 81
3 81 80 23
3 79 80 81
3 10 82 83
3 10 84 86
3 84 41 85
3 84 85 86
3 11 42 25
3 11 43 42
3 12 46 44
3 87 47 88
3 89 88 28
3 87 88 89
3 91 90 47
3 92 48 93
3 12 49 29
3 12 44 49
3 95 94 38
3 97 96 45
3 98 50 99
3 100 51 101
3 102 52 103
3 104 103 51
3 102 103 104
3 105 53 106
3 107 106 52
3 105 106 107
3 108 54 109
3 111 110 54
3 13 14 4
3 15 14 13
3 15 6 14
3 16 17 7
3 18 17 16
3 18 8 17
3 18 19 8
3 13 19 18
3 13 4 19
3 20 112 114
3 114 113 9
3 112 113 114
3 116 115 20
3 21 117 118
3 21 119 120
3 22 23 5
3 24 23 22
3 24 10 23
3 24 25 10
3 26 25 24
3 26 11 25
3 27 121 122
3 124 123 27
3 125 28 126
3 127 126 12
3 125 126 127
3 128 28 129
3 131 130 28
3 132 29 133
3 134 29 135
3 136 12 137
3 138 137 29
3 136 137 138
3 30 31 2
3 32 31 30
3 32 5 31
3 14 32 4
3 33 32 14
3 33 5 32
3 33 22 5
3 34 22 33
3 34 3 22
3 17 139 141
3 141 140 7
3 139 140 141
3 143 142 17
3 35 144 145
3 35 146 147
3 35 148 149
3 151 150 35
3 19 152 154
3 154 153 8
3 152 153 154
3 36 155 157
3 157 156 19
3 155 156 157
3 36 158 159
3 36 160 162
3 160 27 161
3 160 161 162
3 30 27 36
3 30 2 27
3 37 163 165
3 163 38 164
3 163 164 165
3 39 38 37
3 39 166 168
3 168 167 38
3 166 167 168
3 169 39 170
3 171 170 9
3 169 170 171
3 172 39 173
3 175 174 39
3 31 21 2
3 40 21 31
3 40 176 178
3 178 177 21
3 176 177 178
3 23 40 5
3 179 40 180
3 181 180 23
3 179 180 181
3 183 182 40
3 184 37 185
3 41 186 188
3 186 37 187
3 186 187 188
3 41 9 37
3 25 41 10
3 42 41 25
3 42 9 41
3 42 20 9
3 43 20 42
3 43 1 20
3 44 45 0
3 46 45 44
3 46 189 191
3 191 190 45
3 189 190 191
3 28 46 12
3 47 46 28
3 47 192 194
3 194 193 46
3 192 193 194
3 47 195 196
3 198 197 47
3 48 199 200
3 48 201 203
3 201 7 202
3 201 202 203
3 29 204 206
3 204 48 205
3 204 205 206
3 49 48 29
3 49 7 48
3 49 16 7
3 44 16 49
3 44 0 16
3 38 207 208
3 210 209 38
3 45 15 0
3 211 15 212
3 213 212 45
3 211 212 213
3 214 6 215
3 216 215 15
3 214 215 216
3 217 6 218
3 219 34 220
3 221 220 6
3 219 220 221
3 50 222 224
3 222 34 223
3 222 223 224
3 50 3 34
3 51 225 226
3 51 227 228
3 51 229 231
3 229 50 230
3 229 230 231
3 52 50 51
3 52 3 50
3 52 26 3
3 53 26 52
3 53 11 26
3 232 53 233
3 54 234 236
3 234 53 235
3 234 235 236
3 54 11 53
3 54 43 11
3 237 43 238
3 239 238 54
3 237 238 239
3 240 1 241
3 242 241 43
3 240 241 242
3 243 1 244
3 246 245 1
