ply
format ascii 1.0
element vertex 556
property float x
property float y
property float z
element face 546
property list uchar int vertex_index
end_header
19.461132 -81.319016 37.159706
4.241766 -73.507721 20.185389
23.259499 -62.459473 13.236789
8.301109 -85.050453 35.332706
6.229918 -82.775269 22.122953
9.573874 -79.36615 28.581293
5.991403 -94.308273 12.665042
3.983674 -84.949539 9.130072
18.947515 -74.309525 20.581093
13.418744 -65.210014 14.858358
12.6822 -84.261826 37.091129
6.543648 -81.872795 33.779018
13.473897 -81.262154 32.433506
13.703592 -91.466064 14.240801
10.069802 -96.162766 13.658884
3.824773 -78.83046 22.322554
7.362185 -83.800064 16.265202
5.946529 -78.575401 16.083557
3.050182 -73.519066 14.476138
22.277483 -67.946121 16.371086
19.491444 -65.444878 12.656989
19.552046 -64.994965 7.867976
22.774326 -63.885948 7.926145
18.196348 -94.686386 14.66033
8.596753 -87.887764 28.171076
8.0482 -86.58535 21.093077
5.662863 -84.753555 28.744715
4.743117 -79.528397 28.179224
6.710753 -75.805008 25.397396
12.860697 -86.960243 30.930676
5.496687 -88.661674 15.512858
4.35115 -90.096283 9.574266
17.296124 -78.143532 28.122442
13.496002 -78.021164 22.967485
11.196268 -72.873726 21.284214
16.420263 -70.481277 17.562302
6.017293 -68.431976 16.346172
16.162149 -83.329216 36.574612
12.539507 -82.651665 35.035263
16.526798 -81.614037 34.380684
18.734859 -82.901871 38.978783
16.088066 -84.86776 38.311867
11.970555 -90.63945 13.214908
3.949244 -75.978439 21.541515
5.099736 -78.5746 19.302555
4.792109 -75.845154 18.479832
3.715261 -76.303528 15.430811
3.148856 -73.089645 17.515873
24.055477 -61.850586 16.060768
23.49601 -64.7752 15.039798
22.150198 -64.894394 12.475882
18.860586 -65.216393 10.462959
21.455582 -65.02565 10.139051
21.428473 -64.895554 7.695866
22.682083 -63.313957 10.571899
13.696477 -92.141388 16.229826
7.781991 -86.203583 31.936213
6.691986 -86.859856 28.242794
6.081599 -85.350098 32.332455
7.859216 -80.364975 31.304058
5.198838 -80.443253 31.104801
6.611325 -78.749039 29.294836
5.338801 -77.562149 27.35672
8.069359 -77.743515 27.079132
11.281483 -86.345123 36.299706
10.352434 -85.948654 33.597546
9.958814 -86.427246 29.955429
7.424358 -96.843269 12.373095
9.05655 -97.364883 9.515886
6.564498 -95.436577 9.8972
6.63703 -87.528061 18.340551
5.399843 -85.706192 19.283777
6.053121 -84.422279 11.686562
5.986951 -87.110588 12.029431
4.134393 -87.403214 9.150312
4.915721 -91.138069 6.806548
5.879979 -85.604538 7.642018
19.172834 -77.514694 30.710257
19.666431 -73.788574 23.939156
17.824976 -76.654602 24.053623
16.09621 -76.628822 21.217642
12.008421 -75.644455 21.801504
14.622995 -74.351921 19.83572
18.241772 -67.161606 15.244841
19.214838 -69.713333 15.82198
15.13441 -67.512558 17.10117
11.719137 -69.025795 17.695402
9.693745 -66.4944 15.388678
5.316444 -67.017113 14.014404
9.270518 -65.244225 12.642675
16.99152 -95.023911 12.269954
10.032721 -84.713928 37.090355
6.747744 -83.796623 35.249855
9.17872 -83.049904 35.953468
9.55073 -81.842926 33.42992
11.038157 -80.858986 30.526342
14.026594 -93.658295 12.267977
12.081958 -93.61618 13.048017
9.813897 -93.213608 13.206088
7.645192 -92.500046 13.198596
5.140781 -80.817398 22.527266
5.991453 -83.416283 19.576641
5.392406 -80.87413 19.415808
6.938599 -81.025368 16.162979
4.832327 -81.814064 12.499238
4.284188 -82.177513 9.299282
3.803885 -79.366768 12.716039
3.380168 -77.052223 12.323961
21.13847 -66.742783 14.325641
17.041124 -64.905754 14.028807
13.15694 -64.170151 11.67201
16.359699 -64.460144 11.189796
15.771608 -93.425949 15.721441
15.35318 -93.133774 13.894499
8.13358 -87.805382 24.556965
5.157419 -83.042923 32.084724
5.357961 -82.029167 28.772528
5.495429 -80.856712 25.432423
4.162769 -78.78035 25.462645
4.232543 -76.265266 24.610491
5.429345 -74.354599 22.635082
22.666992 -59.98418 13.892065
15.517691 -87.298447 28.351892
12.76219 -86.033951 27.788
10.735481 -87.372612 26.433277
11.717026 -97.260933 7.497571
8.715706 -87.917511 17.249508
7.23953 -89.450012 14.822256
5.701166 -91.172813 12.988371
5.929851 -86.394661 15.702146
5.277036 -89.350761 12.691335
4.882274 -92.585121 10.678205
5.357121 -93.713394 7.648934
17.907164 -79.759262 32.272087
15.466265 -79.903656 30.109549
13.316545 -80.019348 27.85854
18.814556 -75.606079 27.174091
15.713399 -78.814804 25.395929
11.431921 -78.664383 25.704035
9.921928 -76.895744 24.33205
8.845609 -74.464615 22.881357
7.063616 -72.870819 20.667253
20.957127 -71.007645 21.434303
20.447704 -71.021561 18.123096
17.540401 -73.06002 18.274122
13.74571 -71.334465 19.663788
8.826881 -70.934326 18.758741
4.466539 -70.937859 18.63682
3.115967 -69.822594 15.81743
22.546658 -61.210876 11.068956
19.097995 -82.110444 38.069244
19.231085 -81.019947 40.059945
19.594221 -80.22852 39.150406
6.70788 -95.575771 12.519068
7.601369 -96.048336 13.164887
6.884892 -94.780838 13.310861
5.81488 -84.24073 20.703365
6.050339 -85.233444 20.331671
6.465376 -83.767982 21.751259
4.484392 -86.599323 7.983203
4.559751 -87.826161 7.993323
4.059033 -86.176377 9.140192
4.931826 -85.277039 8.386045
5.432544 -86.926823 7.239176
4.484392 -86.599323 7.983203
16.33587 -97.058151 11.950607
17.462461 -96.375671 12.673461
15.864929 -95.70639 11.5471
12.935144 -85.083039 37.443748
14.638078 -85.386006 38.054118
14.385133 -84.564793 37.701498
11.357461 -84.487877 37.090742
11.610405 -85.309089 37.443362
12.935144 -85.083039 37.443748
9.70235 -91.530845 13.330652
10.892226 -91.926529 13.210498
10.780679 -90.243766 13.335062
8.617997 -91.174065 13.326906
8.729544 -92.856827 13.202342
9.70235 -91.530845 13.330652
3.748857 -74.174644 13.581809
3.91385 -75.941223 12.50572
3.215175 -75.285644 13.40005
18.283162 -64.806454 7.992026
17.937432 -64.917168 9.289517
19.206316 -65.105679 9.165468
18.827457 -65.984604 7.999366
18.283162 -64.806454 7.992026
19.99887 -65.833718 7.584424
18.827457 -65.984604 7.999366
22.530875 -64.963715 7.453524
21.857948 -65.468518 7.338384
22.101399 -64.390751 7.811006
23.270192 -64.282585 7.483967
22.530875 -64.963715 7.453524
15.174999 -92.423351 16.89901
16.606338 -92.752342 16.347292
8.365167 -87.846573 26.364021
8.963947 -88.4221 24.546945
9.195533 -88.463291 26.354
6.256811 -85.282032 26.753985
6.771373 -86.335183 26.503024
6.177424 -85.806705 28.493755
6.165102 -84.067131 27.078766
6.256811 -85.282032 26.753985
14.205548 -87.246079 31.119045
13.042293 -87.071834 32.487257
14.189194 -87.129345 29.641284
15.534045 -87.41518 29.829653
14.205548 -87.246079 31.119045
9.195533 -88.463291 26.354
10.264898 -88.205715 25.485101
9.666117 -87.630188 27.302177
10.257315 -97.474594 13.192635
11.300629 -97.602135 12.539459
11.113117 -96.290306 13.005709
10.101814 -96.620605 7.560983
10.386788 -97.312908 8.506728
8.771576 -96.672581 8.570141
11.81919 -96.112419 7.295774
10.101814 -96.620605 7.560983
8.381953 -87.25143 19.171292
9.028624 -88.141419 19.093935
8.694871 -87.475338 21.01572
6.436216 -92.626568 6.460142
6.289153 -91.300865 6.381151
5.95064 -82.82534 9.13158
4.900702 -81.137428 9.6942
19.107965 -78.223545 33.019329
19.095536 -79.490776 33.767021
19.393888 -74.018139 27.197014
19.372481 -73.389466 28.729387
21.516743 -69.106522 22.148865
21.258999 -68.690331 23.663066
22.398231 -67.922432 17.938801
22.959667 -66.130257 18.636438
4.501187 -68.576142 13.777072
5.783015 -67.15366 13.126801
11.62569 -64.9394 11.052253
13.411929 -64.558621 10.294031
21.774614 -59.526906 12.633527
22.606825 -60.597528 12.480511
21.834781 -58.913559 14.045081
19.520425 -95.137161 15.860236
19.775405 -94.813187 17.274816
18.451329 -94.362412 16.074911
19.427897 -81.779419 40.655922
19.231085 -81.019947 40.059945
18.904907 -83.433746 39.55744
19.597945 -82.311295 41.234579
19.427897 -81.779419 40.655922
17.411462 -83.884816 38.645325
17.581511 -84.416691 39.223982
18.904907 -83.433746 39.55744
12.079999 -90.354614 14.93507
12.837073 -91.052757 13.727854
12.946518 -90.767921 15.448016
11.383554 -89.547416 15.038812
12.079999 -90.354614 14.93507
10.780679 -90.243766 13.335062
11.383554 -89.547416 15.038812
23.775743 -63.312893 15.550283
23.890386 -63.057638 17.013786
24.170119 -61.595331 17.524271
13.113444 -91.472416 17.769607
14.137434 -91.78107 17.153203
12.94296 -91.105583 16.442529
13.113444 -91.472416 17.769607
12.946518 -90.767921 15.448016
13.700035 -91.803726 15.235314
12.94296 -91.105583 16.442529
12.252686 -86.764274 35.171773
12.948684 -86.729813 36.554129
11.788162 -86.56604 33.820692
12.252686 -86.764274 35.171773
10.816959 -86.146889 34.948626
11.606566 -86.454449 32.264111
13.042293 -87.071834 32.487257
11.788162 -86.56604 33.820692
9.322881 -97.174469 13.391018
8.924091 -95.708085 13.807782
8.000159 -97.514721 12.748123
7.601369 -96.048336 13.164887
8.232308 -98.018585 11.468276
8.000159 -97.514721 12.748123
8.240454 -97.104076 10.944491
9.048404 -98.279392 10.039672
8.232308 -98.018585 11.468276
7.52555 -95.708427 8.760797
8.771576 -96.672581 8.570141
7.810524 -96.40073 9.706543
6.668933 -86.144378 19.860059
7.342615 -87.056705 19.716814
7.374517 -85.673023 21.236322
6.018436 -86.617126 18.812164
6.668933 -86.144378 19.860059
6.050339 -85.233444 20.331671
4.950416 -89.693588 6.821441
4.525057 -89.270642 7.97843
4.559751 -87.826161 7.993323
6.289153 -91.300865 6.381151
4.950416 -89.693588 6.821441
6.9465 -87.442383 7.089669
5.432544 -86.926823 7.239176
7.342577 -86.320663 7.956452
6.9465 -87.442383 7.089669
19.460901 -75.57927 31.833198
19.7408 -77.101261 32.238414
19.489008 -76.134155 30.385076
19.460901 -75.57927 31.833198
18.550653 -76.448574 29.091169
18.234479 -77.829113 29.416349
19.489008 -76.134155 30.385076
18.745703 -75.221588 23.996389
18.899099 -74.5424 25.63678
19.819826 -73.109386 25.579546
7.760052 -66.267216 12.440936
5.783015 -67.15366 13.126801
7.293481 -66.130669 13.32854
18.454165 -95.87727 13.586751
19.056579 -95.708507 14.781938
17.593934 -94.855148 13.465142
18.454165 -95.87727 13.586751
17.462461 -96.375671 12.673461
16.51518 -85.415821 38.569254
17.581511 -84.416691 39.223982
16.51518 -85.415821 38.569254
14.638078 -85.386006 38.054118
12.234786 -86.124687 37.048037
12.948684 -86.729813 36.554129
10.657102 -85.529526 36.695031
12.234786 -86.124687 37.048037
11.610405 -85.309089 37.443362
13.091513 -95.038071 12.310256
14.382466 -95.023583 11.546112
12.119194 -95.017013 12.700276
13.091513 -95.038071 12.310256
13.054276 -93.637237 12.657997
11.07588 -94.889473 13.353451
11.113117 -96.290306 13.005709
12.119194 -95.017013 12.700276
8.796139 -94.233506 13.581384
8.924091 -95.708085 13.807782
9.94185 -94.688187 13.432486
7.711786 -93.876724 13.577638
8.796139 -94.233506 13.581384
8.729544 -92.856827 13.202342
6.818297 -93.404159 12.931819
6.884892 -94.780838 13.310861
7.711786 -93.876724 13.577638
4.66055 -79.732056 11.402579
4.900702 -81.137428 9.6942
4.044037 -80.772141 11.007661
4.448691 -78.574783 11.206539
4.66055 -79.732056 11.402579
3.592027 -78.209496 12.52
4.977771 -77.771679 11.919213
4.448691 -78.574783 11.206539
4.977771 -77.771679 11.919213
3.91385 -75.941223 12.50572
20.155001 -71.303154 25.977333
19.819826 -73.109386 25.579546
20.307379 -71.982674 24.3713
20.155001 -71.303154 25.977333
19.947921 -72.243149 22.692268
19.306973 -74.049049 22.260124
20.307379 -71.982674 24.3713
23.184638 -66.404656 17.054068
22.959667 -66.130257 18.636438
23.793901 -64.819195 16.388424
23.890386 -63.057638 17.013786
22.615132 -65.802987 16.031346
23.793901 -64.819195 16.388424
22.31724 -65.758992 14.682719
21.707977 -67.344452 15.348363
23.184638 -66.404656 17.054068
22.615132 -65.802987 16.031346
15.013309 -64.703617 10.052924
13.411929 -64.558621 10.294031
14.758319 -64.315147 11.430903
16.686988 -64.539043 9.652936
17.610143 -64.838268 10.826377
17.937432 -64.917168 9.289517
15.013309 -64.703617 10.052924
16.686988 -64.539043 9.652936
20.937083 -65.784012 7.498369
19.99887 -65.833718 7.584424
20.49026 -64.945259 7.781921
20.937083 -65.784012 7.498369
21.857948 -65.468518 7.338384
17.238959 -93.732193 16.605466
16.606338 -92.752342 16.347292
16.983978 -94.056168 15.190886
18.451329 -94.362412 16.074911
17.238959 -93.732193 16.605466
14.734043 -92.783669 15.975634
15.174999 -92.423351 16.89901
14.137434 -91.78107 17.153203
14.382466 -95.023583 11.546112
15.864929 -95.70639 11.5471
15.509057 -94.341103 12.268966
8.737561 -88.085354 22.747664
8.963947 -88.4221 24.546945
8.09089 -87.195366 22.825021
8.694871 -87.475338 21.01572
8.737561 -88.085354 22.747664
7.49217 -86.807945 24.66011
7.412783 -87.332619 26.39988
6.771373 -86.335183 26.503024
7.449479 -86.19793 22.928165
8.09089 -87.195366 22.825021
7.49217 -86.807945 24.66011
7.374517 -85.673023 21.236322
7.449479 -86.19793 22.928165
6.44863 -83.077988 23.767885
6.465376 -83.767982 21.751259
6.012652 -82.704937 27.092672
6.165102 -84.067131 27.078766
5.510412 -83.391361 28.758622
6.081385 -82.118709 25.42262
6.012652 -82.704937 27.092672
5.426695 -81.442939 27.102476
5.862673 -81.81599 23.777688
6.44863 -83.077988 23.767885
6.081385 -82.118709 25.42262
23.522013 -60.178135 17.653804
24.170119 -61.595331 17.524271
23.489891 -60.429453 16.297364
23.522013 -60.178135 17.653804
23.091902 -60.733897 14.885375
23.657488 -62.155029 14.648778
23.489891 -60.429453 16.297364
22.795648 -59.49625 15.213013
22.963245 -61.221827 13.564427
23.091902 -60.733897 14.885375
21.753635 -58.43424 15.333229
22.795648 -59.49625 15.213013
21.834781 -58.913559 14.045081
21.753635 -58.43424 15.333229
16.499449 -87.329594 28.605936
15.534045 -87.41518 29.829653
16.418235 -87.296524 27.037453
16.499449 -87.329594 28.605936
15.320566 -86.825363 26.63445
16.418235 -87.296524 27.037453
13.942816 -86.193116 26.352505
15.320566 -86.825363 26.63445
14.13994 -86.666199 28.069946
12.760835 -86.295342 25.813294
13.942816 -86.193116 26.352505
11.74748 -86.964672 25.135933
12.760835 -86.295342 25.813294
11.748836 -86.703282 27.110639
11.216348 -88.172382 24.723732
11.74748 -86.964672 25.135933
11.216348 -88.172382 24.723732
10.264898 -88.205715 25.485101
19.872519 -80.270653 36.210831
19.725647 -79.605289 37.884337
19.725647 -79.605289 37.884337
19.594221 -80.22852 39.150406
10.257315 -97.474594 13.192635
9.322881 -97.174469 13.391018
9.884161 -98.426434 8.279139
9.048404 -98.279392 10.039672
11.214399 -98.374459 7.269982
9.884161 -98.426434 8.279139
10.386788 -97.312908 8.506728
12.726565 -97.841778 6.1103
11.214399 -98.374459 7.269982
13.256255 -96.589214 6.5345
14.265794 -97.17006 5.147229
12.726565 -97.841778 6.1103
13.256255 -96.589214 6.5345
11.81919 -96.112419 7.295774
9.75613 -88.186447 17.056112
9.028624 -88.141419 19.093935
9.153254 -88.882797 15.352362
9.75613 -88.186447 17.056112
8.415166 -89.649047 14.138737
9.153254 -88.882797 15.352362
7.977618 -88.683762 16.035882
7.442361 -90.975029 14.010426
8.617997 -91.174065 13.326906
8.415166 -89.649047 14.138737
6.921861 -94.846836 7.636665
7.52555 -95.708427 8.760797
5.960809 -94.574985 8.773067
6.656916 -93.914231 6.881334
5.136421 -92.425731 7.227741
6.436216 -92.626568 6.460142
6.921861 -94.846836 7.636665
6.656916 -93.914231 6.881334
6.748535 -84.538853 8.302948
5.082083 -83.891026 8.47065
5.95064 -82.82534 9.13158
7.342577 -86.320663 7.956452
6.748535 -84.538853 8.302948
18.405352 -80.418163 34.82132
17.993965 -81.466527 35.770195
19.872519 -80.270653 36.210831
17.216981 -80.68665 33.326386
18.405352 -80.418163 34.82132
19.095536 -79.490776 33.767021
18.539999 -78.636978 31.491172
19.107965 -78.223545 33.019329
19.7408 -77.101261 32.238414
19.309869 -75.179847 28.616993
19.372481 -73.389466 28.729387
18.05534 -76.874805 27.648266
18.550653 -76.448574 29.091169
19.309869 -75.179847 28.616993
18.319766 -76.13034 25.613857
19.393888 -74.018139 27.197014
18.899099 -74.5424 25.63678
20.952728 -70.592209 23.118873
21.258999 -68.690331 23.663066
19.952321 -72.658585 21.007698
19.947921 -72.243149 22.692268
20.952728 -70.592209 23.118873
20.866908 -68.806038 17.664248
22.398231 -67.922432 17.938801
20.746161 -68.829727 16.096533
21.483341 -69.460152 18.814806
20.866908 -68.806038 17.664248
19.831271 -70.367447 16.972538
21.262031 -69.11348 20.493262
21.483341 -69.460152 18.814806
20.702416 -71.014603 19.7787
21.516743 -69.106522 22.148865
21.262031 -69.11348 20.493262
3.400949 -69.978882 14.678585
4.216206 -68.419853 14.915917
4.501187 -68.576142 13.777072
3.368056 -71.827118 14.007939
3.083074 -71.67083 15.146784
3.400949 -69.978882 14.678585
3.748857 -74.174644 13.581809
3.368056 -71.827118 14.007939
9.682479 -65.476437 11.537586
11.213729 -64.707188 12.157343
11.62569 -64.9394 11.052253
7.760052 -66.267216 12.440936
9.682479 -65.476437 11.537586
22.003193 -60.243977 11.175849
21.774614 -59.526906 12.633527
22.859825 -61.687555 9.753481
22.003193 -60.243977 11.175849
22.97366 -63.025091 8.182076
22.660492 -62.548412 9.49755
22.859825 -61.687555 9.753481
23.469526 -63.421728 7.739898
23.270192 -64.282585 7.483967
22.97366 -63.025091 8.182076
19.520425 -95.137161 15.860236
19.056579 -95.708507 14.781938
3 0 39 37
3 0 150 152
3 150 40 151
3 150 151 152
3 0 37 40
3 1 45 43
3 1 47 45
3 2 50 48
3 2 52 50
3 2 54 52
3 3 58 56
3 5 61 59
3 5 63 61
3 3 65 64
3 3 56 65
3 6 153 155
3 153 67 154
3 153 154 155
3 6 69 67
3 4 156 158
3 156 71 157
3 156 157 158
3 7 74 72
3 7 159 161
3 161 160 74
3 159 160 161
3 7 162 164
3 162 76 163
3 162 163 164
3 8 80 78
3 8 82 80
3 9 85 83
3 9 87 85
3 9 89 87
3 167 166 90
3 165 166 167
3 10 93 91
3 12 94 38
3 12 95 94
3 10 168 170
3 170 169 41
3 168 169 170
3 10 171 173
3 171 91 172
3 171 172 173
3 13 97 96
3 174 98 175
3 176 175 42
3 174 175 176
3 177 99 178
3 179 178 98
3 177 178 179
3 15 102 100
3 17 103 44
3 17 104 103
3 17 106 104
3 18 107 46
3 18 180 182
3 182 181 107
3 180 181 182
3 20 108 49
3 20 109 108
3 20 111 109
3 21 183 185
3 185 184 51
3 183 184 185
3 21 186 187
3 21 188 189
3 22 190 192
3 192 191 53
3 190 191 192
3 22 193 194
3 195 112 196
3 13 113 55
3 13 96 113
3 24 197 199
3 197 114 198
3 197 198 199
3 26 200 202
3 202 201 57
3 200 201 202
3 26 203 204
3 11 115 92
3 27 116 60
3 27 117 116
3 27 118 117
3 28 119 62
3 28 120 119
3 29 205 206
3 29 207 209
3 207 122 208
3 207 208 209
3 29 123 122
3 24 124 66
3 24 210 212
3 212 211 124
3 210 211 212
3 14 213 215
3 213 214 215
3 216 125 217
3 218 217 68
3 216 217 218
3 220 219 125
3 25 221 223
3 221 126 222
3 221 222 223
3 30 127 70
3 30 128 127
3 16 129 101
3 31 130 73
3 31 131 130
3 31 132 131
3 225 224 75
3 227 226 105
3 228 133 229
3 32 134 77
3 32 135 134
3 230 136 231
3 33 137 79
3 33 138 137
3 33 139 138
3 34 140 81
3 34 141 140
3 232 142 233
3 19 234 235
3 35 143 84
3 35 144 143
3 35 145 144
3 36 146 86
3 36 147 146
3 36 148 147
3 237 236 88
3 239 238 110
3 240 149 241
3 242 241 121
3 240 241 242
3 23 243 245
3 243 244 245
3 37 38 10
3 39 38 37
3 39 12 38
3 40 246 247
3 40 248 250
3 248 249 250
3 40 251 253
3 251 41 252
3 251 252 253
3 37 41 40
3 37 10 41
3 254 42 255
3 256 255 13
3 254 255 256
3 257 42 258
3 260 259 42
3 43 44 15
3 45 44 43
3 45 17 44
3 45 46 17
3 47 46 45
3 47 18 46
3 48 261 263
3 261 49 262
3 261 262 263
3 50 49 48
3 50 20 49
3 50 51 20
3 52 51 50
3 52 21 51
3 52 53 21
3 54 53 52
3 54 22 53
3 264 55 265
3 266 55 267
3 268 13 269
3 270 269 55
3 268 269 270
3 56 57 24
3 58 57 56
3 58 26 57
3 59 60 11
3 61 60 59
3 61 27 60
3 61 62 27
3 63 62 61
3 63 28 62
3 64 271 272
3 65 273 275
3 275 274 64
3 273 274 275
3 65 276 278
3 276 29 277
3 276 277 278
3 65 66 29
3 56 66 65
3 56 24 66
3 280 279 14
3 67 281 282
3 67 283 284
3 67 285 287
3 285 68 286
3 285 286 287
3 69 68 67
3 69 288 290
3 290 289 68
3 288 289 290
3 291 70 292
3 293 292 25
3 291 292 293
3 71 294 296
3 294 70 295
3 294 295 296
3 71 30 70
3 72 73 16
3 74 73 72
3 74 31 73
3 74 75 31
3 297 75 298
3 299 298 74
3 297 298 299
3 301 300 75
3 76 302 303
3 76 304 305
3 306 77 307
3 308 77 309
3 310 32 311
3 312 311 77
3 310 311 312
3 78 313 315
3 313 79 314
3 313 314 315
3 80 79 78
3 80 33 79
3 80 81 33
3 82 81 80
3 82 34 81
3 83 84 19
3 85 84 83
3 85 35 84
3 85 86 35
3 87 86 85
3 87 36 86
3 87 88 36
3 89 88 87
3 89 316 318
3 318 317 88
3 316 317 318
3 90 319 321
3 321 320 23
3 319 320 321
3 323 322 90
3 91 92 3
3 93 92 91
3 93 11 92
3 38 93 10
3 94 93 38
3 94 11 93
3 94 59 11
3 95 59 94
3 95 5 59
3 41 324 325
3 327 326 41
3 328 64 329
3 91 330 332
3 330 64 331
3 330 331 332
3 91 3 64
3 96 333 334
3 97 335 337
3 337 336 96
3 335 336 337
3 97 338 340
3 338 14 339
3 338 339 340
3 42 97 13
3 98 97 42
3 98 14 97
3 98 341 343
3 343 342 14
3 341 342 343
3 99 344 346
3 346 345 98
3 344 345 346
3 99 347 349
3 347 6 348
3 347 348 349
3 100 101 4
3 102 101 100
3 102 16 101
3 44 102 15
3 103 102 44
3 103 16 102
3 103 72 16
3 104 72 103
3 104 7 72
3 104 105 7
3 106 105 104
3 106 350 352
3 352 351 105
3 350 351 352
3 46 106 17
3 107 106 46
3 107 353 355
3 355 354 106
3 353 354 355
3 107 356 357
3 359 358 107
3 360 78 361
3 362 78 363
3 364 8 365
3 366 365 78
3 364 365 366
3 367 19 368
3 49 369 370
3 108 371 373
3 373 372 49
3 371 372 373
3 108 374 376
3 374 19 375
3 374 375 376
3 108 83 19
3 109 83 108
3 109 9 83
3 109 110 9
3 111 110 109
3 111 377 379
3 379 378 110
3 377 378 379
3 51 111 20
3 380 111 381
3 382 381 51
3 380 381 382
3 384 383 111
3 53 385 387
3 387 386 21
3 385 386 387
3 389 388 53
3 112 390 391
3 112 392 394
3 392 23 393
3 392 393 394
3 55 395 397
3 395 112 396
3 395 396 397
3 113 112 55
3 113 23 112
3 113 90 23
3 96 90 113
3 96 398 400
3 400 399 90
3 398 399 400
3 114 401 402
3 114 403 405
3 403 25 404
3 403 404 405
3 57 114 24
3 406 114 407
3 408 407 57
3 406 407 408
3 409 25 410
3 411 410 114
3 409 410 411
3 413 412 25
3 414 4 415
3 92 58 3
3 115 58 92
3 115 26 58
3 60 115 11
3 116 115 60
3 116 26 115
3 116 416 418
3 418 417 26
3 416 417 418
3 117 419 421
3 421 420 116
3 419 420 421
3 117 422 424
3 422 4 423
3 422 423 424
3 117 100 4
3 118 100 117
3 118 15 100
3 62 118 27
3 119 118 62
3 119 15 118
3 119 43 15
3 120 43 119
3 120 1 43
3 425 48 426
3 427 48 428
3 429 2 430
3 431 430 48
3 429 430 431
3 432 121 433
3 434 433 2
3 432 433 434
3 435 121 436
3 438 437 121
3 122 439 440
3 122 441 442
3 122 443 444
3 123 445 447
3 447 446 122
3 445 446 447
3 123 448 449
3 66 123 29
3 124 123 66
3 124 450 452
3 452 451 123
3 450 451 452
3 124 453 454
3 456 455 124
3 458 457 0
3 459 0 460
3 462 461 14
3 68 463 464
3 125 465 467
3 467 466 68
3 465 466 467
3 125 468 469
3 125 470 472
3 470 471 472
3 474 473 125
3 126 475 476
3 126 477 478
3 70 126 25
3 127 126 70
3 127 479 481
3 481 480 126
3 479 480 481
3 127 482 484
3 482 99 483
3 482 483 484
3 128 99 127
3 128 6 99
3 101 71 4
3 129 71 101
3 129 30 71
3 73 129 16
3 130 129 73
3 130 30 129
3 130 128 30
3 131 128 130
3 131 6 128
3 131 69 6
3 132 69 131
3 132 485 487
3 487 486 69
3 485 486 487
3 75 132 31
3 488 132 489
3 490 489 75
3 488 489 490
3 492 491 132
3 105 76 7
3 493 76 494
3 495 494 105
3 493 494 495
3 497 496 76
3 498 39 499
3 500 499 0
3 498 499 500
3 133 501 503
3 501 39 502
3 501 502 503
3 133 12 39
3 77 504 506
3 504 133 505
3 504 505 506
3 134 133 77
3 134 12 133
3 134 95 12
3 135 95 134
3 135 5 95
3 136 507 508
3 136 509 511
3 509 32 510
3 509 510 511
3 79 512 514
3 512 136 513
3 512 513 514
3 137 136 79
3 137 32 136
3 137 135 32
3 138 135 137
3 138 5 135
3 138 63 5
3 139 63 138
3 139 28 63
3 81 139 33
3 140 139 81
3 140 28 139
3 140 120 28
3 141 120 140
3 141 1 120
3 142 515 516
3 142 517 519
3 517 8 518
3 517 518 519
3 84 520 522
3 522 521 19
3 520 521 522
3 143 523 525
3 525 524 84
3 523 524 525
3 143 526 527
3 143 528 530
3 528 142 529
3 528 529 530
3 144 142 143
3 144 8 142
3 144 82 8
3 145 82 144
3 145 34 82
3 86 145 35
3 146 145 86
3 146 34 145
3 146 141 34
3 147 141 146
3 147 1 141
3 147 47 1
3 148 47 147
3 148 18 47
3 88 148 36
3 531 148 532
3 533 532 88
3 531 532 533
3 534 18 535
3 536 535 148
3 534 535 536
3 538 537 18
3 110 89 9
3 539 89 540
3 541 540 110
3 539 540 541
3 543 542 89
3 121 54 2
3 149 54 121
3 149 22 54
3 544 149 545
3 546 149 547
3 548 22 549
3 550 549 149
3 548 549 550
3 553 552 22
3 551 552 553
3 555 554 23
