ply
format ascii 1.0
element vertex 417
property float x
property float y
property float z
element face 394
property list uchar int vertex_index
end_header
-36.091507 -2.930036 -6.492784
-33.076141 -22.157825 17.878031
-32.940426 -21.740784 8.837976
-34.890682 -19.819159 0.495686
-36.40461 -16.617191 -7.268318
-36.695454 -8.588753 -10.953904
-37.639515 -6.146729 -13.872488
-38.199974 -0.866872 -19.477589
-36.962593 1.646258 -21.070148
-34.861984 -15.754938 18.420448
-32.875977 -22.751118 13.06073
-34.734039 -16.097321 14.659225
-38.222031 -14.48983 7.981522
-38.631573 -13.213278 4.319129
-35.717995 -18.802029 -3.622206
-37.612499 -11.757548 0.440722
-36.086479 -11.209089 -3.603694
-36.621014 -0.359848 -8.811296
-38.186653 -3.579605 -16.911594
-30.892542 -27.757711 12.238621
-36.188629 -15.61233 11.244552
-33.550827 -20.222698 4.819011
-37.967983 -14.623441 -10.942823
-35.714211 -10.104431 -7.384538
-36.47205 -3.76503 -3.34817
-36.043304 -6.072274 -8.664942
-37.247719 -7.369308 -12.464964
-36.630524 -4.77003 -9.956497
-36.718399 2.032591 -17.064251
-35.888477 2.853729 -17.779413
-35.823349 2.434414 -21.347569
-34.781231 3.19639 -17.997372
-34.516853 -15.985123 16.542927
-35.789089 -11.084443 5.842976
-36.59798 -10.282592 4.327628
-38.299721 -12.411145 2.493505
-36.949646 -9.314089 3.002653
-37.157154 -8.861808 1.438279
-36.808624 0.803752 -10.001955
-37.271347 -2.602331 -12.483447
-37.418282 -1.49001 -13.782657
-32.063454 -25.165524 17.53406
-30.865351 -27.769342 14.999941
-31.583424 -25.355734 15.049037
-32.900932 -22.40897 10.830622
-31.445705 -25.139215 9.845382
-31.839041 -24.78809 7.446711
-32.397469 -24.373413 5.253131
-33.370716 -12.668909 12.697218
-33.782532 -12.545954 10.832323
-36.348518 -16.200035 5.536738
-36.266582 -16.968445 7.327183
-34.211464 -19.846798 2.655001
-34.287437 -23.774368 0.91183
-35.474583 -23.421022 -1.17001
-36.328957 -22.841436 -3.145055
-36.050068 -17.760553 -5.465524
-37.841221 -20.554869 -6.81714
-37.086731 -15.684082 -9.105848
-36.968906 -8.122378 -2.107708
-35.762566 -10.718926 -5.585746
-36.379868 -7.686641 -3.767807
-35.90583 -7.207227 -5.350854
-36.767941 -4.129139 -1.757521
-38.013115 -10.657508 -13.084729
-38.605175 -9.233208 -14.577664
-39.099709 -7.761 -16.201221
-37.532665 -0.423653 -15.155462
-37.294975 0.803892 -16.167616
-37.767864 0.515345 -20.402657
-34.064552 -18.934492 18.23381
-32.795628 -22.661257 15.46652
-33.8862 -19.348656 15.990341
-34.306877 -19.466305 13.904245
-34.863037 -19.351147 12.049282
-34.509071 -12.24624 9.027897
-35.091152 -11.764132 7.383189
-38.725166 -13.751348 6.260271
-36.236919 -15.669538 3.532392
-35.377357 -19.500027 -1.616225
-36.050793 -15.410561 1.081668
-35.967205 -15.187449 -1.23373
-35.816288 -14.504087 -3.27152
-35.743446 -14.054937 -5.373675
-36.760719 -11.537434 -1.603379
-37.389565 -8.510837 -0.352297
-36.3111 -1.676881 -7.694905
-37.065655 -3.639323 -11.252747
-37.947563 -4.831496 -15.283139
-38.324707 -2.309489 -18.310131
-31.3883 -25.363152 12.410926
-31.436975 -27.543934 9.665741
-35.357056 -16.004009 12.866348
-35.488415 -18.766592 10.394528
-37.387993 -15.190674 9.685885
-35.936153 -17.867796 8.910967
-33.163048 -20.86932 6.926554
-33.268505 -24.082708 3.005554
-37.110752 -21.836304 -5.068833
-35.94838 -13.375789 -7.449986
-36.38842 -12.603483 -9.436124
-37.118416 -11.662386 -11.341629
-36.066792 -9.411839 -9.245809
-35.724346 -6.624146 -7.042436
-36.187431 -3.373466 -4.971473
-35.135147 3.662814 -16.523652
-35.616644 3.538169 -16.176189
-34.581524 3.834144 -16.632631
-35.334854 3.02506 -17.888393
-35.135147 3.662814 -16.523652
-36.704351 -7.884257 5.323831
-36.418664 -8.208526 5.994079
-36.880184 -7.400005 4.661344
-36.773813 -9.79834 3.66514
-36.704351 -7.884257 5.323831
-37.025898 -7.185993 3.97041
-36.880184 -7.400005 4.661344
-37.101906 0.155819 -12.429712
-37.113453 -0.343129 -11.892306
-36.797077 1.3027 -10.539361
-33.996082 -10.294086 11.218055
-33.805884 -10.565001 11.99345
-37.456558 -17.81064 -7.849802
-37.279288 -18.382321 -6.948405
-36.227339 -17.188872 -6.366921
-37.766256 -17.020438 -8.634939
-37.456558 -17.81064 -7.849802
-36.745671 -16.150636 -8.187083
-38.107317 -16.553883 -9.553704
-37.766256 -17.020438 -8.634939
-36.657291 -6.030138 -1.944775
-36.674387 -7.904509 -2.937758
-36.95181 -6.248007 -1.114726
-36.851328 -4.251387 -0.939633
-36.573904 -5.90789 -2.762664
-36.657291 -6.030138 -1.944775
-38.558541 -6.215941 -15.855672
-39.288638 -7.023077 -17.020038
-38.369612 -6.953864 -15.036855
-36.697486 2.204086 -14.849314
-36.964804 1.737523 -14.266065
-37.547835 1.58878 -22.643251
-37.95047 1.023324 -22.309506
-37.365229 1.080801 -20.736403
-36.933254 1.964425 -22.870254
-37.547835 1.58878 -22.643251
-35.71413 2.571396 -23.191665
-35.241482 2.503614 -21.473249
-35.427416 -9.187821 8.206418
-35.030738 -9.535809 8.836832
-37.300002 -6.643828 1.522594
-37.273359 -8.686322 0.542991
-37.183796 -6.819313 2.417883
-37.251969 -6.563681 0.602594
-37.300002 -6.643828 1.522594
-38.911448 -4.170416 -18.173662
-38.791903 -4.796362 -17.359434
-38.067108 -4.20555 -16.097366
-31.425006 -28.697648 12.391431
-31.411411 -28.703464 13.772091
-30.878946 -27.763527 13.619281
-31.919379 -28.464315 11.241637
-31.425006 -28.697648 12.391431
-31.866517 -27.412163 8.458571
-31.44134 -26.341575 9.755562
-31.870882 -26.209803 8.548392
-32.744246 -28.094085 8.85508
-31.866517 -27.412163 8.458571
-35.112837 -24.973132 0.806685
-35.797634 -24.670651 -0.260046
-39.163641 -21.233832 -6.817017
-39.592277 -20.381812 -7.626119
-39.70357 -14.407494 -12.092022
-39.08638 -15.259045 -11.29537
-38.458147 -13.986549 -11.776592
-39.70357 -14.407494 -12.092022
-36.031605 3.1276 -15.818608
-36.409199 2.818436 -15.297631
-36.303438 2.44316 -17.421832
-36.031605 3.1276 -15.818608
-35.616644 3.538169 -16.176189
-34.720423 2.884602 -19.79815
-35.241482 2.503614 -21.473249
-35.30229 2.815402 -19.67247
-34.796028 -14.22771 17.37832
-34.689419 -15.87003 17.481687
-34.968593 -14.112617 18.31708
-34.2957 -14.366041 16.594248
-34.796028 -14.22771 17.37832
-34.404293 -14.42214 15.652397
-34.625446 -16.041222 15.601076
-34.2957 -14.366041 16.594248
-36.014219 -8.609452 6.751753
-35.776384 -8.847976 7.436312
-36.193534 -10.683518 5.085302
-36.014219 -8.609452 6.751753
-36.418664 -8.208526 5.994079
-37.129652 -6.959853 3.188224
-37.0534 -9.087948 2.220466
-37.025898 -7.185993 3.97041
-37.183796 -6.819313 2.417883
-37.129652 -6.959853 3.188224
-38.900332 -1.12589 -20.933783
-38.619005 -0.299864 -21.455154
-31.464402 -26.467433 16.267001
-31.192785 -27.738959 16.252664
-31.791836 -26.43705 17.519723
-32.06755 -26.034241 7.349056
-31.870882 -26.209803 8.548392
-31.642373 -24.963653 8.646047
-32.557939 -25.864394 6.235574
-32.06755 -26.034241 7.349056
-32.837153 -25.657056 5.138784
-32.557939 -25.864394 6.235574
-32.118255 -24.580751 6.349921
-33.447321 -25.522598 4.03737
-32.837153 -25.657056 5.138784
-33.599975 -10.626478 12.925897
-33.689665 -10.81646 13.6785
-33.576624 -12.607432 11.764771
-33.599975 -10.626478 12.925897
-33.805884 -10.565001 11.99345
-36.391207 -24.493979 -1.300966
-35.797634 -24.670651 -0.260046
-34.88101 -23.597695 -0.12909
-37.001554 -24.064926 -2.28003
-36.391207 -24.493979 -1.300966
-37.428742 -23.775133 -3.267552
-37.001554 -24.064926 -2.28003
-35.90177 -23.131229 -2.157533
-37.958742 -23.145876 -4.153446
-37.428742 -23.775133 -3.267552
-38.174864 -19.779479 -7.624213
-36.945645 -19.157711 -6.141332
-37.279288 -18.382321 -6.948405
-39.592277 -20.381812 -7.626119
-38.174864 -19.779479 -7.624213
-38.645754 -15.789366 -10.376883
-38.107317 -16.553883 -9.553704
-37.527357 -15.153761 -10.024335
-39.08638 -15.259045 -11.29537
-38.645754 -15.789366 -10.376883
-39.380142 -10.432332 -14.528249
-39.049291 -11.288782 -13.726874
-39.676172 -9.720182 -15.274717
-39.380142 -10.432332 -14.528249
-38.309145 -9.945358 -13.831197
-39.96397 -8.833445 -16.083606
-39.676172 -9.720182 -15.274717
-40.211237 -8.097341 -16.895384
-39.96397 -8.833445 -16.083606
-38.852442 -8.497104 -15.389443
-40.419353 -7.18463 -17.660025
-40.211237 -8.097341 -16.895384
-40.419353 -7.18463 -17.660025
-39.288638 -7.023077 -17.020038
-37.083649 1.123751 -13.759989
-37.159098 0.688997 -13.116115
-37.41382 0.19012 -15.661539
-37.083649 1.123751 -13.759989
-36.964804 1.737523 -14.266065
-37.006687 1.418242 -16.615933
-36.697486 2.204086 -14.849314
-36.409199 2.818436 -15.297631
-38.40295 0.391244 -21.917689
-38.619005 -0.299864 -21.455154
-37.983919 -0.175763 -19.940123
-38.40295 0.391244 -21.917689
-37.95047 1.023324 -22.309506
-36.363632 2.358503 -23.008964
-36.933254 1.964425 -22.870254
-36.392971 2.040336 -21.208858
-36.363632 2.358503 -23.008964
-35.71413 2.571396 -23.191665
-34.739698 -9.776864 9.659186
-34.359352 -10.144229 10.315841
-34.800111 -12.005186 8.205543
-34.739698 -9.776864 9.659186
-35.030738 -9.535809 8.836832
-35.44012 -11.424288 6.613082
-35.427416 -9.187821 8.206418
-35.776384 -8.847976 7.436312
-37.041639 -6.369452 -0.275111
-37.179235 -8.316607 -1.230003
-37.251969 -6.563681 0.602594
-36.95181 -6.248007 -1.114726
-37.041639 -6.369452 -0.275111
-36.560183 -0.460948 -6.185331
-36.201304 -2.303459 -7.093845
-36.450386 -1.087525 -5.584271
-36.594805 0.162299 -6.805408
-36.560183 -0.460948 -6.185331
-36.749762 0.820815 -7.363603
-36.466057 -1.018365 -8.253101
-36.594805 0.162299 -6.805408
-36.823109 1.511297 -7.98374
-36.749762 0.820815 -7.363603
-36.916914 2.093097 -8.579069
-36.714819 0.221952 -9.406626
-36.823109 1.511297 -7.98374
-36.76678 2.60968 -9.22295
-36.916914 2.093097 -8.579069
-36.797077 1.3027 -10.539361
-36.76678 2.60968 -9.22295
-32.498759 -25.307879 18.336467
-31.791836 -26.43705 17.519723
-32.868149 -23.775677 18.523387
-32.498759 -25.307879 18.336467
-33.374493 -22.271828 18.695372
-32.569797 -23.661675 17.706046
-32.868149 -23.775677 18.523387
-33.880518 -20.68114 18.795195
-33.374493 -22.271828 18.695372
-34.374724 -19.069473 18.973084
-33.570346 -20.546158 18.05592
-33.880518 -20.68114 18.795195
-34.890075 -17.463389 18.985045
-34.374724 -19.069473 18.973084
-35.288792 -15.873613 19.078364
-34.463268 -17.344715 18.327129
-34.890075 -17.463389 18.985045
-35.554035 -14.286461 18.881363
-35.288792 -15.873613 19.078364
-34.968593 -14.112617 18.31708
-35.554035 -14.286461 18.881363
-38.712564 -5.558324 -16.560997
-38.558541 -6.215941 -15.855672
-37.793539 -5.489112 -14.577814
-38.712564 -5.558324 -16.560997
-38.791903 -4.796362 -17.359434
-37.475473 -0.956832 -14.46906
-37.101906 0.155819 -12.429712
-37.159098 0.688997 -13.116115
-38.962698 -1.847199 -20.350054
-38.26234 -1.58818 -18.89386
-38.900332 -1.12589 -20.933783
-39.040645 -2.673757 -19.649541
-38.962698 -1.847199 -20.350054
-38.971618 -3.308815 -18.950273
-38.25568 -2.944547 -17.610862
-39.040645 -2.673757 -19.649541
-38.911448 -4.170416 -18.173662
-38.971618 -3.308815 -18.950273
-31.110901 -28.885063 15.050743
-31.192785 -27.738959 16.252664
-31.110901 -28.885063 15.050743
-31.411411 -28.703464 13.772091
-32.191596 -28.357426 9.955197
-31.919379 -28.464315 11.241637
-31.164758 -27.650823 10.952181
-32.191596 -28.357426 9.955197
-32.744246 -28.094085 8.85508
-34.128077 -14.437291 14.678427
-34.404293 -14.42214 15.652397
-33.446415 -12.723085 13.697423
-33.689665 -10.81646 13.6785
-34.439585 -14.390635 13.781989
-33.446415 -12.723085 13.697423
-34.363886 -14.336459 12.781783
-35.045547 -16.050665 13.762787
-34.128077 -14.437291 14.678427
-34.439585 -14.390635 13.781989
-34.145802 -12.396097 9.93011
-33.996082 -10.294086 11.218055
-34.359352 -10.144229 10.315841
-33.882839 -25.377246 2.913582
-33.447321 -25.522598 4.03737
-32.832987 -24.22806 4.129342
-34.60337 -25.127302 1.853547
-33.777971 -23.928538 1.958692
-35.112837 -24.973132 0.806685
-33.882839 -25.377246 2.913582
-34.60337 -25.127302 1.853547
-38.34964 -22.64331 -5.115334
-37.958742 -23.145876 -4.153446
-36.719854 -22.33887 -4.106944
-38.798406 -21.87455 -5.942863
-37.475986 -21.195586 -5.942986
-39.163641 -21.233832 -6.817017
-38.34964 -22.64331 -5.115334
-38.798406 -21.87455 -5.942863
-37.668366 -12.976571 -11.023242
-38.458147 -13.986549 -11.776592
-37.178202 -13.613462 -10.189474
-38.033364 -12.506022 -11.975994
-37.668366 -12.976571 -11.023242
-36.753418 -12.132935 -10.388876
-38.601942 -11.791221 -12.855324
-38.033364 -12.506022 -11.975994
-37.565765 -11.159947 -12.213179
-39.049291 -11.288782 -13.726874
-38.601942 -11.791221 -12.855324
-37.393833 -2.504292 -0.273768
-36.851328 -4.251387 -0.939633
-37.442028 -2.301073 -1.039814
-37.393833 -2.504292 -0.273768
-37.294083 -2.119019 -1.835138
-36.619996 -3.947084 -2.552846
-37.442028 -2.301073 -1.039814
-37.123244 -1.871336 -2.533659
-37.294083 -2.119019 -1.835138
-36.980934 -1.675555 -3.34531
-36.32974 -3.569248 -4.159821
-37.123244 -1.871336 -2.533659
-36.791077 -1.400119 -4.072847
-36.980934 -1.675555 -3.34531
-36.743115 -1.178404 -4.833502
-36.139469 -3.151751 -5.732128
-36.791077 -1.400119 -4.072847
-36.450386 -1.087525 -5.584271
-36.743115 -1.178404 -4.833502
-33.999517 4.016955 -16.588078
-34.581524 3.834144 -16.632631
-34.34434 3.047681 -17.669249
-33.999517 4.016955 -16.588078
-34.720423 2.884602 -19.79815
-34.34434 3.047681 -17.669249
3 0 27 25
3 105 29 106
3 107 31 108
3 109 108 29
3 107 108 109
3 110 34 111
3 112 36 113
3 114 113 34
3 112 113 114
3 116 115 36
3 117 40 118
3 119 118 38
3 117 118 119
3 1 43 41
3 2 46 44
3 2 47 46
3 120 49 121
3 3 52 50
3 3 54 52
3 3 55 54
3 4 122 124
3 124 123 56
3 122 123 124
3 4 125 126
3 4 127 129
3 127 58 128
3 127 128 129
3 130 61 131
3 132 131 59
3 130 131 132
3 133 63 134
3 135 134 61
3 133 134 135
3 5 65 64
3 6 66 26
3 6 136 138
3 138 137 66
3 136 137 138
3 139 68 140
3 8 69 28
3 8 141 143
3 143 142 69
3 141 142 143
3 8 144 145
3 147 146 30
3 9 72 70
3 11 73 32
3 11 74 73
3 148 76 149
3 13 77 33
3 13 78 77
3 13 80 78
3 15 81 35
3 15 82 81
3 15 84 82
3 150 85 151
3 152 151 37
3 150 151 152
3 154 153 85
3 17 87 86
3 18 88 39
3 18 155 157
3 157 156 88
3 155 156 157
3 7 89 67
3 19 158 160
3 160 159 42
3 158 159 160
3 19 161 162
3 10 90 71
3 163 91 164
3 165 164 45
3 163 164 165
3 167 166 91
3 20 92 48
3 20 93 92
3 12 94 75
3 21 95 51
3 21 96 95
3 21 97 96
3 169 168 53
3 14 98 79
3 171 170 57
3 22 172 173
3 22 174 175
3 16 99 83
3 23 100 60
3 23 101 100
3 23 102 101
3 24 103 62
3 24 104 103
3 25 26 5
3 27 26 25
3 27 6 26
3 176 28 177
3 29 178 180
3 178 28 179
3 178 179 180
3 29 8 28
3 29 30 8
3 31 30 29
3 31 181 183
3 183 182 30
3 181 182 183
3 184 32 185
3 186 185 9
3 184 185 186
3 187 32 188
3 189 11 190
3 191 190 32
3 189 190 191
3 192 33 193
3 34 194 196
3 194 33 195
3 194 195 196
3 34 13 33
3 34 35 13
3 36 35 34
3 36 15 35
3 36 37 15
3 197 37 198
3 199 198 36
3 197 198 199
3 201 200 37
3 38 39 17
3 40 39 38
3 40 18 39
3 203 202 7
3 41 204 206
3 204 42 205
3 204 205 206
3 43 42 41
3 43 19 42
3 44 45 10
3 46 45 44
3 46 207 209
3 209 208 45
3 207 208 209
3 46 210 211
3 47 212 214
3 214 213 46
3 212 213 214
3 47 215 216
3 217 48 218
3 49 219 221
3 219 48 220
3 219 220 221
3 49 20 48
3 50 51 12
3 52 51 50
3 52 21 51
3 52 53 21
3 54 53 52
3 54 222 224
3 224 223 53
3 222 223 224
3 54 225 226
3 55 227 229
3 229 228 54
3 227 228 229
3 55 230 231
3 56 57 14
3 232 57 233
3 234 233 56
3 232 233 234
3 236 235 57
3 58 237 238
3 58 239 241
3 239 22 240
3 239 240 241
3 59 60 16
3 61 60 59
3 61 23 60
3 61 62 23
3 63 62 61
3 63 24 62
3 64 242 243
3 65 244 246
3 246 245 64
3 244 245 246
3 65 247 248
3 26 65 5
3 66 65 26
3 66 249 251
3 251 250 65
3 249 250 251
3 66 252 253
3 255 254 66
3 256 67 257
3 68 258 260
3 258 67 259
3 258 259 260
3 68 7 67
3 28 261 263
3 261 68 262
3 261 262 263
3 69 68 28
3 69 7 68
3 69 264 266
3 266 265 7
3 264 265 266
3 268 267 69
3 30 269 271
3 271 270 8
3 269 270 271
3 273 272 30
3 70 71 1
3 72 71 70
3 72 10 71
3 32 72 9
3 73 72 32
3 73 10 72
3 73 44 10
3 74 44 73
3 74 2 44
3 274 75 275
3 76 276 278
3 276 75 277
3 276 277 278
3 76 12 75
3 33 279 281
3 279 76 280
3 279 280 281
3 77 76 33
3 77 12 76
3 77 50 12
3 78 50 77
3 78 3 50
3 78 79 3
3 80 79 78
3 80 14 79
3 35 80 13
3 81 80 35
3 81 14 80
3 81 56 14
3 82 56 81
3 82 4 56
3 82 83 4
3 84 83 82
3 84 16 83
3 37 84 15
3 85 84 37
3 85 16 84
3 85 59 16
3 282 59 283
3 284 283 85
3 282 283 284
3 286 285 59
3 287 86 288
3 289 288 0
3 287 288 289
3 290 86 291
3 292 17 293
3 294 293 86
3 292 293 294
3 295 17 296
3 297 38 298
3 299 298 17
3 297 298 299
3 300 38 301
3 303 302 38
3 304 41 305
3 306 41 307
3 308 1 309
3 310 309 41
3 308 309 310
3 311 1 312
3 313 70 314
3 315 314 1
3 313 314 315
3 316 70 317
3 318 9 319
3 320 319 70
3 318 319 320
3 321 9 322
3 324 323 9
3 86 27 0
3 87 27 86
3 87 6 27
3 39 87 17
3 88 87 39
3 88 6 87
3 88 325 327
3 327 326 6
3 325 326 327
3 329 328 88
3 67 330 332
3 330 40 331
3 330 331 332
3 89 40 67
3 89 18 40
3 333 89 334
3 335 334 7
3 333 334 335
3 336 89 337
3 338 18 339
3 340 339 89
3 338 339 340
3 342 341 18
3 42 343 344
3 346 345 42
3 71 43 1
3 90 43 71
3 90 19 43
3 45 90 10
3 91 90 45
3 91 19 90
3 91 347 349
3 349 348 19
3 347 348 349
3 351 350 91
3 352 11 353
3 48 354 355
3 92 356 358
3 358 357 48
3 356 357 358
3 92 359 361
3 359 11 360
3 359 360 361
3 92 74 11
3 93 74 92
3 93 2 74
3 75 362 364
3 362 49 363
3 362 363 364
3 94 49 75
3 94 20 49
3 51 94 12
3 95 94 51
3 95 20 94
3 95 93 20
3 96 93 95
3 96 2 93
3 96 47 2
3 97 47 96
3 97 365 367
3 367 366 47
3 365 366 367
3 53 97 21
3 368 97 369
3 370 369 53
3 368 369 370
3 372 371 97
3 79 55 3
3 98 55 79
3 98 373 375
3 375 374 55
3 373 374 375
3 57 98 14
3 376 98 377
3 378 377 57
3 376 377 378
3 380 379 98
3 83 58 4
3 99 58 83
3 99 22 58
3 60 99 16
3 100 99 60
3 100 22 99
3 100 381 383
3 383 382 22
3 381 382 383
3 101 384 386
3 386 385 100
3 384 385 386
3 101 387 388
3 101 389 391
3 389 64 390
3 389 390 391
3 102 64 101
3 102 5 64
3 62 102 23
3 103 102 62
3 103 5 102
3 103 25 5
3 104 25 103
3 104 0 25
3 392 63 393
3 394 63 395
3 396 24 397
3 398 397 63
3 396 397 398
3 399 24 400
3 401 104 402
3 403 402 24
3 401 402 403
3 404 104 405
3 406 0 407
3 408 407 104
3 406 407 408
3 410 409 0
3 411 31 412
3 413 31 414
3 416 415 31
