ply
format ascii 1.0
element vertex 616
property float x
property float y
property float z
element face 658
property list uchar int vertex_index
end_header
-35.546673 -23.495075 -23.119621
-42.706806 -64.533554 -18.89942
-31.484568 -4.788224 -33.733284
-35.582447 -43.8685 -21.852894
-27.526611 -58.537617 -14.604831
-38.799469 -53.531384 -19.971779
-33.491241 -14.685613 -31.242321
-40.812988 -60.097401 -11.132191
-41.76284 -48.317879 -15.37115
-35.573425 -32.639359 -25.752552
-32.340473 -54.152405 -9.5535
-29.194996 -42.780151 -18.26861
-34.766914 -61.123451 -15.476224
-41.119316 -58.616112 -20.442509
-33.620613 -7.890225 -36.325691
-35.1516 -11.999159 -33.562641
-32.413521 -9.518183 -32.015053
-42.162327 -42.396782 -17.097332
-42.602112 -24.609995 -21.571085
-29.979359 -59.920876 -7.315335
-30.093121 -50.418896 -17.563246
-26.403194 -50.014729 -15.928474
-29.291698 -43.194588 -20.433651
-30.511871 -37.144772 -22.960468
-34.621147 -38.101601 -23.801676
-31.116863 -63.171989 -9.40132
-29.400904 -64.312866 -14.025381
-32.098248 -56.400978 -16.292126
-36.651287 -48.569214 -19.847225
-35.115372 -19.01379 -29.096634
-36.68383 -15.05324 -28.059778
-38.655777 -19.978867 -23.452383
-43.300121 -62.710472 -15.877619
-43.268383 -53.089897 -9.774248
-41.243637 -54.79464 -14.344586
-43.593071 -56.050323 -19.435698
-41.531769 -50.91523 -19.505281
-39.637596 -45.260303 -19.791002
-40.696888 -40.984062 -23.454662
-43.179768 -36.031525 -22.596031
-39.215866 -37.077999 -22.323109
-39.493263 -32.13969 -23.504766
-39.985172 -26.524902 -22.674417
-37.690712 -27.785862 -25.729095
-34.595348 -47.685398 -10.049529
-29.76535 -56.499146 -12.656733
-30.919668 -49.12154 -13.866364
-35.254902 -43.155544 -15.075793
-34.733021 -38.03632 -19.751257
-34.960793 -32.013832 -23.481813
-39.603951 -65.392563 -17.556919
-39.111469 -62.345512 -17.761868
-42.415955 -61.33622 -19.844547
-33.330273 -5.692943 -37.806156
-33.314465 -6.093416 -35.0765
-33.40062 -8.56105 -34.125278
-31.877802 -7.172788 -32.675503
-32.939594 -46.283379 -19.101662
-29.426901 -46.772423 -18.804348
-32.332642 -43.474041 -20.809734
-31.901524 -40.73719 -22.296204
-35.073547 -41.16909 -22.758698
-29.944223 -66.390747 -13.732368
-37.114845 -57.168739 -17.601849
-33.496704 -58.854744 -15.722757
-36.022503 -54.498528 -17.395231
-34.917271 -51.959145 -17.313007
-37.706703 -51.204689 -19.717014
-32.215256 -20.920702 -27.596466
-34.140385 -13.659871 -32.692524
-36.135185 -13.331927 -31.094666
-35.404305 -15.995995 -31.309107
-36.416679 -17.309195 -29.018421
-34.329182 -17.173243 -30.408072
-40.414398 -62.593117 -10.039429
-41.874329 -61.562176 -13.628123
-42.290001 -50.961945 -12.842786
-41.806519 -51.680492 -15.366682
-42.3255 -55.860756 -17.147223
-42.552448 -52.178711 -17.858986
-42.964211 -53.224525 -19.859289
-41.537998 -49.537891 -17.389448
-40.673286 -43.548592 -18.416094
-41.096687 -41.255474 -20.314363
-40.179802 -42.970078 -21.855724
-41.772182 -39.784695 -22.414278
-43.280861 -33.68972 -21.75812
-41.385502 -36.315468 -22.016895
-41.188103 -34.126945 -22.360859
-39.291294 -34.651985 -23.493053
-40.990631 -31.677881 -21.92931
-40.979492 -25.478798 -21.638708
-40.546135 -21.877859 -22.009459
-39.72892 -22.947857 -22.619457
-39.436058 -18.628635 -22.899101
-30.852062 -55.657215 -7.41961
-32.540035 -52.80191 -7.798476
-33.63929 -49.589485 -7.951974
-33.433372 -50.958961 -9.840296
-29.731663 -61.030052 -12.35637
-30.683002 -59.971069 -11.103064
-28.457169 -57.483959 -13.470398
-27.326452 -46.035858 -16.95116
-28.050894 -49.435387 -14.942141
-29.809315 -46.282902 -15.947752
-33.00172 -46.180668 -14.708551
-32.432308 -43.320774 -16.97459
-35.038059 -40.592575 -17.426111
-31.963146 -40.49424 -19.293123
-32.59161 -34.207146 -24.973602
-32.556206 -34.444546 -23.549299
-34.048908 -31.598114 -25.407627
-35.638489 -29.603241 -25.212589
-36.669353 -30.051029 -25.9708
-36.852936 -29.428036 -19.766945
-32.018738 -65.301346 -15.788397
-35.546566 -63.712891 -15.632666
-38.159111 -59.663643 -17.892963
-39.851311 -56.076366 -20.343344
-33.387062 -4.92365 -42.148941
-33.135811 -5.481457 -40.114494
-33.891533 -7.655061 -38.575878
-35.060341 -8.923772 -36.479023
-36.053852 -9.531241 -33.639057
-34.121468 -10.100727 -34.838554
-33.645214 -11.071666 -33.391773
-32.919281 -12.036033 -31.617609
-41.706245 -45.238121 -15.744905
-42.758373 -27.993256 -21.020512
-31.076483 -57.244152 -8.660701
-27.690491 -54.926716 -16.326033
-26.569683 -54.469624 -15.109503
-27.129963 -50.819214 -16.938927
-27.243982 -46.474506 -18.029905
-28.027552 -42.795174 -19.481247
-29.370533 -39.966351 -20.657461
-29.65831 -40.009697 -21.9112
-31.832272 -37.602646 -23.913811
-34.678913 -35.199715 -25.014484
-30.981384 -2.642843 -35.113708
-30.47489 -63.828197 -11.654399
-28.625788 -61.823383 -14.307617
-31.118 -62.984901 -15.925662
-30.017706 -60.887859 -16.138592
-28.712627 -58.262444 -16.153522
-31.002029 -53.599487 -16.782761
-33.859001 -49.042061 -17.741709
-36.073849 -46.226059 -20.813354
-31.472931 -14.267157 -30.361191
-32.434803 -16.698698 -29.817673
-33.502525 -19.004604 -28.99757
-34.002388 -20.481789 -27.296881
-35.816662 -20.447693 -27.509512
-34.276245 -22.29068 -24.948675
-36.755165 -10.712576 -30.784214
-37.466099 -12.555795 -27.869633
-38.424564 -14.984991 -25.008574
-37.484711 -16.946959 -25.326813
-37.121391 -18.851234 -26.352777
-38.249374 -21.208569 -23.754789
-44.158394 -63.974171 -17.856892
-40.87574 -56.149403 -9.863433
-41.446789 -53.549469 -11.475889
-40.981304 -57.536945 -12.627739
-42.029301 -58.842602 -15.403218
-43.670097 -59.800453 -17.902184
-44.221699 -60.20755 -19.870012
-43.297539 -57.188782 -20.86969
-42.156891 -54.555542 -21.181213
-41.020569 -52.078747 -21.009808
-40.708305 -46.593853 -17.415993
-40.257576 -48.31646 -18.934101
-39.667603 -49.788902 -20.421291
-38.766491 -47.071075 -21.075459
-38.756737 -44.860073 -22.439651
-38.593678 -42.677025 -23.316051
-41.734089 -38.124561 -22.521917
-39.950493 -39.374886 -22.696949
-37.705208 -40.550392 -23.130215
-37.242329 -37.695881 -23.49732
-37.326828 -35.173706 -24.430628
-37.82452 -32.585762 -25.008615
-40.974705 -28.876398 -21.764629
-39.649826 -29.370808 -23.241444
-38.392944 -29.722378 -24.745476
-39.204929 -27.174774 -24.077808
-39.29644 -24.45747 -23.47414
-38.178581 -25.841181 -25.177597
-32.498146 -48.203465 -6.549365
-34.267361 -46.363312 -8.112233
-35.465485 -44.440624 -10.233926
-31.035793 -61.787415 -7.986394
-31.164722 -58.746735 -10.012085
-31.059626 -55.32682 -11.435325
-27.453571 -53.442589 -14.163936
-29.482372 -52.417206 -13.406126
-31.88764 -51.832897 -11.915326
-33.45237 -48.538361 -12.257575
-35.122017 -45.521202 -12.542497
-36.335297 -42.187412 -12.76136
-36.703979 -40.002556 -15.023077
-36.808922 -37.626095 -17.217041
-31.746876 -37.644753 -21.509731
-34.561539 -35.179516 -21.625683
-36.580536 -32.315422 -20.940077
-36.800629 -29.614094 -22.480734
-37.003521 -27.684586 -24.048222
-41.155378 -64.963058 -18.228169
-39.581803 -67.366901 -17.694163
-41.13323 -66.937397 -18.365413
-32.399516 -5.44082 -34.404892
-33.122053 -4.942021 -35.847327
-32.207105 -4.289425 -35.175719
-29.849556 -67.639782 -13.636774
-30.158847 -67.879509 -12.167272
-41.126688 -61.992361 -11.808995
-40.927393 -63.240219 -11.262614
-40.613693 -61.345259 -10.58581
-41.343659 -60.829788 -12.380157
-41.657359 -62.724749 -13.056961
-41.126688 -61.992361 -11.808995
-41.784679 -49.999185 -15.368916
-42.304377 -49.808816 -14.425334
-42.282538 -48.12751 -14.427568
-42.055526 -40.105476 -20.902187
-41.807846 -40.719894 -19.723667
-42.393274 -39.370087 -21.952144
-41.434435 -40.520084 -21.36432
-42.055526 -40.105476 -20.902187
-43.10915 -32.327621 -21.274968
-44.172142 -32.133204 -21.569114
-42.062771 -32.546233 -21.576337
-42.234482 -33.908333 -22.05949
-43.10915 -32.327621 -21.274968
-41.964035 -31.321701 -21.360563
-41.089367 -32.902413 -22.145085
-42.062771 -32.546233 -21.576337
-40.664479 -19.571449 -22.695089
-41.249836 -21.321902 -22.117307
-40.10944 -17.946837 -23.13991
-39.991096 -20.253247 -22.45428
-40.664479 -19.571449 -22.695089
-36.849047 -30.662568 -18.995376
-35.783438 -28.947741 -19.293471
-35.783057 -65.127674 -15.645018
-33.934195 -65.778786 -15.641787
-32.911484 -4.479817 -39.650025
-32.693314 -4.320761 -40.778856
-29.333118 -58.993729 -7.305931
-28.571554 -60.307473 -7.276666
-30.527921 -58.582514 -7.988018
-29.881681 -57.655367 -7.978614
-29.333118 -58.993729 -7.305931
-30.536006 -1.598859 -36.106464
-31.423831 -2.262113 -36.768955
-29.937897 -64.070532 -12.83989
-30.580063 -65.224867 -11.369782
-30.04307 -65.467201 -12.555273
-30.089565 -14.522244 -30.712508
-31.049087 -13.153344 -30.673991
-31.820823 -17.837412 -29.371021
-31.141505 -16.773526 -29.93179
-32.354684 -18.990365 -28.960969
-32.968664 -17.851651 -29.407621
-31.820823 -17.837412 -29.371021
-33.397301 -21.496066 -26.455838
-33.108822 -20.701245 -27.446673
-32.503734 -21.715522 -26.605631
-33.534229 -22.400511 -25.281735
-34.139317 -21.386235 -26.122778
-33.397301 -21.496066 -26.455838
-34.52624 -5.459558 -42.010576
-33.960823 -5.867111 -41.341535
-43.152664 -64.835137 -16.16885
-42.720232 -64.12196 -15.254547
-43.729258 -63.342321 -16.867255
-43.5818 -65.466986 -17.158486
-43.152664 -64.835137 -16.16885
-43.001165 -54.320726 -8.885426
-44.61277 -53.360653 -9.812635
-42.072062 -54.61965 -9.818841
-41.804844 -55.850479 -8.930018
-43.001165 -54.320726 -8.885426
-43.910265 -35.878842 -23.380844
-44.079255 -34.741186 -22.408748
-43.331679 -36.864218 -22.745256
-43.910265 -35.878842 -23.380844
-42.456929 -37.078043 -22.558974
-42.608839 -37.910736 -22.708199
-43.331679 -36.864218 -22.745256
-32.171471 -49.804806 -6.473276
-31.338096 -49.174477 -6.02612
-31.076328 -62.479702 -8.693857
-30.588017 -63.339447 -7.204839
-30.628552 -64.031734 -7.912302
-35.693262 -36.574297 -19.453276
-36.731212 -36.369185 -18.186167
-35.770972 -37.831208 -18.484149
-37.809433 -67.63565 -16.934765
-39.581803 -67.366901 -17.694163
-37.811749 -65.967511 -16.607145
-37.809433 -67.63565 -16.934765
-39.35771 -63.869037 -17.659394
-37.565508 -64.443985 -16.709619
-37.811749 -65.967511 -16.607145
-33.129958 -4.741784 -37.212154
-33.008715 -4.585559 -38.495856
-33.322369 -5.89318 -36.441328
-33.129958 -4.741784 -37.212154
-33.122053 -4.942021 -35.847327
-29.351407 -61.407942 -6.719063
-28.571554 -60.307473 -7.276666
-30.314729 -66.506142 -12.408766
-30.158847 -67.879509 -12.167272
-29.672564 -65.351807 -13.878874
-30.04307 -65.467201 -12.555273
-30.314729 -66.506142 -12.408766
-31.023338 -21.073563 -27.805834
-31.711049 -19.948414 -28.260417
-31.449824 -21.983131 -26.999232
-31.023338 -21.073563 -27.805834
-32.503734 -21.715522 -26.605631
-31.449824 -21.983131 -26.999232
-40.179609 -64.76804 -10.664777
-39.599711 -66.10418 -10.085276
-39.834499 -63.929256 -9.459927
-40.179609 -64.76804 -10.664777
-40.927393 -63.240219 -11.262614
-42.007336 -63.547811 -14.129799
-41.657359 -62.724749 -13.056961
-42.587225 -62.136324 -14.752871
-42.720232 -64.12196 -15.254547
-42.007336 -63.547811 -14.129799
-44.947897 -52.376114 -10.819319
-44.61277 -53.360653 -9.812635
-42.546118 -49.449543 -13.163386
-43.60803 -49.542379 -12.805547
-42.04826 -51.321219 -14.104734
-42.546118 -49.449543 -13.163386
-42.304377 -49.808816 -14.425334
-41.596145 -41.866453 -18.774532
-41.417806 -42.972687 -17.756713
-42.340666 -41.290548 -18.115152
-40.884986 -42.402033 -19.365229
-41.596145 -41.866453 -18.774532
-41.807846 -40.719894 -19.723667
-44.129801 -33.570284 -21.989792
-44.172142 -32.133204 -21.569114
-43.230315 -34.860623 -22.177076
-44.079255 -34.741186 -22.408748
-44.129801 -33.570284 -21.989792
-41.466515 -23.122371 -21.931932
-41.790802 -25.044397 -21.604897
-42.277824 -22.68797 -21.89812
-40.762814 -23.678328 -21.824084
-41.466515 -23.122371 -21.931932
-41.249836 -21.321902 -22.117307
-30.619761 -54.937224 -6.91111
-29.451233 -56.052139 -7.158079
-31.463748 -53.509571 -7.100542
-30.619761 -54.937224 -6.91111
-31.696049 -54.229563 -7.609043
-32.192416 -52.104028 -7.097831
-31.463748 -53.509571 -7.100542
-33.089663 -51.195698 -7.875225
-32.742044 -50.497816 -7.17458
-32.192416 -52.104028 -7.097831
-35.732687 -27.692722 -20.110315
-35.783438 -28.947741 -19.293471
-36.892038 -28.212201 -20.506324
-35.732687 -27.692722 -20.110315
-32.170281 -66.573014 -15.719653
-30.886813 -67.095081 -14.664788
-33.782652 -64.507118 -15.710532
-32.170281 -66.573014 -15.719653
-33.934195 -65.778786 -15.641787
-37.329017 -63.029201 -16.697267
-35.783057 -65.127674 -15.645018
-37.565508 -64.443985 -16.709619
-32.818939 -4.041857 -41.79608
-33.13039 -3.653471 -42.638218
-33.261437 -5.202554 -41.131718
-32.818939 -4.041857 -41.79608
-32.693314 -4.320761 -40.778856
-33.835197 -6.146014 -40.324312
-33.960823 -5.867111 -41.341535
-33.261437 -5.202554 -41.131718
-33.233042 -5.5872 -38.960325
-32.911484 -4.479817 -39.650025
-33.008715 -4.585559 -38.495856
-34.213059 -7.232816 -39.555004
-33.835197 -6.146014 -40.324312
-33.513672 -6.568259 -39.345186
-34.933619 -7.642524 -38.171322
-34.213059 -7.232816 -39.555004
-35.518023 -8.276879 -37.122895
-34.933619 -7.642524 -38.171322
-34.475937 -8.289416 -37.527451
-36.156548 -8.49644 -35.559179
-35.518023 -8.276879 -37.122895
-35.557097 -9.227507 -35.05904
-36.653303 -8.800174 -34.139196
-36.156548 -8.49644 -35.559179
-40.397228 -61.955057 -8.759267
-39.834499 -63.929256 -9.459927
-39.817329 -63.291197 -8.179766
-40.517853 -60.783089 -9.292367
-40.397228 -61.955057 -8.759267
-40.717147 -59.535231 -9.838748
-40.613693 -61.345259 -10.58581
-40.517853 -60.783089 -9.292367
-42.575513 -46.374199 -14.96245
-42.282538 -48.12751 -14.427568
-42.547216 -44.83432 -15.149328
-41.734543 -46.778 -15.558027
-42.575513 -46.374199 -14.96245
-42.922407 -43.555847 -16.133286
-42.547216 -44.83432 -15.149328
-43.150448 -42.135177 -16.8095
-41.934286 -43.817452 -16.421118
-42.922407 -43.555847 -16.133286
-43.285816 -41.216784 -18.026202
-43.150448 -42.135177 -16.8095
-42.340666 -41.290548 -18.115152
-43.285816 -41.216784 -18.026202
-43.676752 -27.619543 -21.443092
-42.847906 -29.479388 -20.906163
-43.465757 -25.898718 -21.814698
-43.676752 -27.619543 -21.443092
-43.387626 -24.207088 -22.089984
-42.680242 -26.301626 -21.295799
-43.465757 -25.898718 -21.814698
-42.963135 -22.376018 -22.542397
-43.387626 -24.207088 -22.089984
-42.277824 -22.68797 -21.89812
-42.963135 -22.376018 -22.542397
-29.76947 -56.861898 -7.358069
-29.451233 -56.052139 -7.158079
-30.964272 -56.450683 -8.040155
-29.76947 -56.861898 -7.358069
-29.881681 -57.655367 -7.978614
-31.955513 -3.216735 -35.865931
-31.423831 -2.262113 -36.768955
-31.232976 -3.715533 -34.423496
-32.207105 -4.289425 -35.175719
-31.955513 -3.216735 -35.865931
-30.994304 -64.689762 -8.81646
-30.628552 -64.031734 -7.912302
-30.505992 -65.549507 -7.327441
-30.673317 -65.017866 -9.942999
-30.580063 -65.224867 -11.369782
-30.795876 -63.500093 -10.527859
-30.994304 -64.689762 -8.81646
-30.673317 -65.017866 -9.942999
-30.98148 -65.846046 -14.760382
-29.849556 -67.639782 -13.636774
-30.886813 -67.095081 -14.664788
-42.504254 -66.273544 -18.436457
-41.13323 -66.937397 -18.365413
-29.536077 -3.315238 -34.869251
-30.536006 -1.598859 -36.106464
-29.763844 -4.247281 -34.37611
-29.536077 -3.315238 -34.869251
-30.015436 -5.319971 -33.685898
-31.232976 -3.715533 -34.423496
-29.763844 -4.247281 -34.37611
-30.295037 -6.306197 -33.19068
-30.015436 -5.319971 -33.685898
-30.491653 -7.49848 -32.661789
-31.681185 -5.980506 -33.204393
-30.295037 -6.306197 -33.19068
-30.783604 -8.495779 -32.19893
-30.491653 -7.49848 -32.661789
-31.051464 -9.668476 -31.868705
-32.145662 -8.345486 -32.345278
-30.783604 -8.495779 -32.19893
-31.519382 -10.778857 -31.500922
-31.051464 -9.668476 -31.868705
-31.772262 -12.037782 -31.3022
-32.666401 -10.777108 -31.816331
-31.519382 -10.778857 -31.500922
-32.196106 -13.151595 -30.9894
-31.772262 -12.037782 -31.3022
-31.049087 -13.153344 -30.673991
-30.660569 -15.557755 -30.20355
-30.089565 -14.522244 -30.712508
-31.953867 -15.482927 -30.089432
-30.660569 -15.557755 -30.20355
-31.141505 -16.773526 -29.93179
-32.858891 -19.962653 -28.297018
-32.354684 -18.990365 -28.960969
-31.711049 -19.948414 -28.260417
-34.157418 -4.552039 -42.836872
-33.13039 -3.653471 -42.638218
-34.157418 -4.552039 -42.836872
-34.52624 -5.459558 -42.010576
-37.145902 -9.303273 -32.540245
-36.653303 -8.800174 -34.139196
-37.496559 -9.893941 -31.112823
-37.145902 -9.303273 -32.540245
-36.404508 -10.121908 -32.211635
-37.889414 -10.862717 -29.541412
-37.496559 -9.893941 -31.112823
-38.244881 -11.784326 -28.084122
-37.889414 -10.862717 -29.541412
-37.110632 -11.634186 -29.326923
-38.682344 -13.156249 -26.714162
-38.244881 -11.784326 -28.084122
-39.161577 -14.370847 -25.283632
-38.682344 -13.156249 -26.714162
-37.945331 -13.770393 -26.439104
-39.603693 -16.125015 -24.194646
-39.161577 -14.370847 -25.283632
-38.930311 -16.806813 -23.953837
-40.10944 -17.946837 -23.13991
-39.603693 -16.125015 -24.194646
-43.230047 -65.993853 -17.915194
-43.5818 -65.466986 -17.158486
-43.4326 -64.253862 -18.378156
-42.504254 -66.273544 -18.436457
-43.230047 -65.993853 -17.915194
-40.748524 -57.561232 -9.204369
-41.804844 -55.850479 -8.930018
-40.844364 -58.123402 -10.497812
-40.717147 -59.535231 -9.838748
-40.748524 -57.561232 -9.204369
-43.70376 -51.984539 -10.644374
-44.947897 -52.376114 -10.819319
-43.214569 -50.920563 -12.178643
-43.60803 -49.542379 -12.805547
-42.792963 -52.214325 -11.495195
-43.214569 -50.920563 -12.178643
-41.868395 -52.255707 -12.159337
-42.357586 -53.319683 -10.625069
-43.70376 -51.984539 -10.644374
-42.792963 -52.214325 -11.495195
-42.627886 -38.740803 -22.65438
-42.393274 -39.370087 -21.952144
-41.753135 -38.954628 -22.468097
-42.627886 -38.740803 -22.65438
-42.608839 -37.910736 -22.708199
-41.874502 -29.835569 -21.474911
-41.964035 -31.321701 -21.360563
-42.847906 -29.479388 -20.906163
-31.444207 -47.588594 -6.194803
-31.338096 -49.174477 -6.02612
-32.447178 -46.689187 -6.738259
-31.444207 -47.588594 -6.194803
-33.068718 -48.896475 -7.250669
-32.171471 -49.804806 -6.473276
-32.742044 -50.497816 -7.17458
-33.331786 -45.76911 -7.519693
-32.447178 -46.689187 -6.738259
-33.382753 -47.283389 -7.330799
-34.167551 -44.790245 -8.375374
-33.331786 -45.76911 -7.519693
-34.766613 -43.828901 -9.436221
-34.167551 -44.790245 -8.375374
-34.866423 -45.401968 -9.17308
-35.37159 -42.903256 -10.479849
-34.766613 -43.828901 -9.436221
-29.879624 -62.341212 -7.054593
-30.588017 -63.339447 -7.204839
-30.507576 -60.854146 -7.650864
-29.351407 -61.407942 -6.719063
-29.879624 -62.341212 -7.054593
-35.806496 -41.77665 -11.743566
-35.37159 -42.903256 -10.479849
-35.900391 -43.314018 -11.497643
-36.270328 -40.702509 -12.787187
-35.741528 -40.291747 -11.769392
-35.806496 -41.77665 -11.743566
-36.454669 -39.610081 -13.918045
-36.270328 -40.702509 -12.787187
-36.519638 -41.094984 -13.892219
-36.693663 -38.392866 -14.954868
-36.454669 -39.610081 -13.918045
-36.746134 -37.204635 -16.051849
-36.693663 -38.392866 -14.954868
-36.75645 -38.814325 -16.120059
-36.851223 -36.037239 -16.943239
-36.746134 -37.204635 -16.051849
-36.851223 -36.037239 -16.943239
-36.731212 -36.369185 -18.186167
-35.607521 -35.145895 -20.390489
-35.693262 -36.574297 -19.453276
-34.64728 -36.607918 -20.68847
-36.617019 -33.713848 -20.047686
-35.607521 -35.145895 -20.390489
-35.571038 -33.747469 -21.28288
-36.712847 -32.106261 -19.581942
-36.617019 -33.713848 -20.047686
-36.716736 -30.871729 -20.353511
-36.849047 -30.662568 -18.995376
-36.712847 -32.106261 -19.581942
-36.865885 -28.30523 -21.863219
-36.892038 -28.212201 -20.506324
-36.826783 -29.521065 -21.12384
-36.967331 -27.340476 -22.646963
-36.865885 -28.30523 -21.863219
-36.902075 -28.64934 -23.264478
-36.904751 -26.440399 -23.171371
-36.967331 -27.340476 -22.646963
-37.492281 -25.518696 -23.736059
-36.904751 -26.440399 -23.171371
-37.591051 -26.762884 -24.61291
-36.862627 -24.668128 -24.148609
-36.176327 -24.345643 -22.707071
-37.492281 -25.518696 -23.736059
-34.422844 -23.138385 -23.654873
-33.534229 -22.400511 -25.281735
-35.541113 -23.743445 -23.621598
-34.422844 -23.138385 -23.654873
-36.176327 -24.345643 -22.707071
-34.911459 -22.892877 -24.034148
-35.541113 -23.743445 -23.621598
3 1 207 209
3 207 50 208
3 207 208 209
3 1 52 50
3 2 210 212
3 210 54 211
3 210 211 212
3 2 56 54
3 3 59 57
3 3 61 59
3 213 62 214
3 5 65 63
3 5 67 65
3 6 71 69
3 6 73 71
3 7 215 217
3 217 216 74
3 215 216 217
3 7 218 220
3 218 75 219
3 218 219 220
3 8 221 223
3 221 77 222
3 221 222 223
3 8 79 77
3 8 81 79
3 224 83 225
3 226 85 227
3 228 227 83
3 226 227 228
3 229 86 230
3 231 88 232
3 233 232 86
3 231 232 233
3 234 90 235
3 236 235 88
3 234 235 236
3 237 92 238
3 239 94 240
3 241 240 92
3 239 240 241
3 10 96 95
3 10 98 96
3 4 101 99
3 11 104 102
3 11 106 104
3 11 108 106
3 9 111 109
3 9 113 111
3 242 114 243
3 244 116 245
3 13 117 51
3 13 118 117
3 246 120 247
3 14 121 53
3 14 122 121
3 14 124 122
3 16 125 55
3 16 126 125
3 19 248 249
3 19 250 252
3 250 129 251
3 250 251 252
3 20 132 130
3 22 133 58
3 22 134 133
3 22 136 134
3 24 137 60
3 24 138 137
3 253 139 254
3 26 255 257
3 255 140 256
3 255 256 257
3 26 141 140
3 12 142 115
3 27 143 64
3 27 144 143
3 27 145 144
3 28 146 66
3 28 147 146
3 258 148 259
3 260 149 261
3 262 150 263
3 264 263 149
3 262 263 264
3 265 151 266
3 267 266 68
3 265 266 267
3 268 153 269
3 270 269 151
3 268 269 270
3 272 271 119
3 15 154 123
3 30 155 70
3 30 156 155
3 30 157 156
3 29 158 72
3 29 152 158
3 32 273 274
3 32 275 277
3 275 160 276
3 275 276 277
3 33 278 279
3 33 280 282
3 280 161 281
3 280 281 282
3 34 162 76
3 34 163 162
3 34 164 163
3 35 165 78
3 35 166 165
3 35 167 166
3 36 168 80
3 36 169 168
3 17 170 127
3 37 171 82
3 37 172 171
3 37 173 172
3 38 174 84
3 38 175 174
3 39 283 284
3 39 285 286
3 39 287 289
3 287 176 288
3 287 288 289
3 40 177 87
3 40 178 177
3 40 179 178
3 41 180 89
3 41 181 180
3 18 182 128
3 42 183 91
3 42 184 183
3 42 185 184
3 31 186 93
3 31 159 186
3 290 188 291
3 44 189 97
3 44 190 189
3 25 292 294
3 292 191 293
3 292 293 294
3 45 192 100
3 45 193 192
3 21 194 131
3 46 195 103
3 46 196 195
3 46 197 196
3 47 198 105
3 47 199 198
3 47 200 199
3 48 201 107
3 48 295 297
3 297 296 201
3 295 296 297
3 23 202 135
3 49 203 110
3 49 204 203
3 49 205 204
3 43 206 112
3 43 187 206
3 50 298 299
3 50 300 301
3 50 302 304
3 302 51 303
3 302 303 304
3 52 51 50
3 52 13 51
3 305 53 306
3 54 307 309
3 307 53 308
3 307 308 309
3 54 14 53
3 54 55 14
3 56 55 54
3 56 16 55
3 310 19 311
3 57 58 20
3 59 58 57
3 59 22 58
3 59 60 22
3 61 60 59
3 61 24 60
3 62 312 313
3 62 314 316
3 314 26 315
3 314 315 316
3 63 64 12
3 65 64 63
3 65 27 64
3 65 66 27
3 67 66 65
3 67 28 66
3 317 68 318
3 319 68 320
3 322 321 68
3 69 70 15
3 71 70 69
3 71 30 70
3 71 72 30
3 73 72 71
3 73 29 72
3 74 323 325
3 323 324 325
3 327 326 74
3 75 328 329
3 75 330 332
3 330 32 331
3 330 331 332
3 333 33 334
3 335 76 336
3 77 337 339
3 337 76 338
3 337 338 339
3 77 34 76
3 77 78 34
3 79 78 77
3 79 35 78
3 79 80 35
3 81 80 79
3 81 36 80
3 340 82 341
3 342 341 17
3 340 341 342
3 83 343 345
3 343 82 344
3 343 344 345
3 83 37 82
3 83 84 37
3 85 84 83
3 85 38 84
3 86 346 347
3 86 348 350
3 348 39 349
3 348 349 350
3 86 87 39
3 88 87 86
3 88 40 87
3 88 89 40
3 90 89 88
3 90 41 89
3 351 91 352
3 353 352 18
3 351 352 353
3 92 354 356
3 354 91 355
3 354 355 356
3 92 42 91
3 92 93 42
3 94 93 92
3 94 31 93
3 95 357 358
3 96 359 361
3 361 360 95
3 359 360 361
3 96 362 363
3 96 364 366
3 364 97 365
3 364 365 366
3 98 97 96
3 98 44 97
3 99 100 25
3 101 100 99
3 101 45 100
3 102 103 21
3 104 103 102
3 104 46 103
3 104 105 46
3 106 105 104
3 106 47 105
3 106 107 47
3 108 107 106
3 108 48 107
3 109 110 23
3 111 110 109
3 111 49 110
3 111 112 49
3 113 112 111
3 113 43 112
3 114 367 368
3 114 369 370
3 371 115 372
3 116 373 375
3 373 115 374
3 373 374 375
3 116 12 115
3 51 376 378
3 376 116 377
3 376 377 378
3 117 116 51
3 117 12 116
3 117 63 12
3 118 63 117
3 118 5 63
3 379 119 380
3 120 381 383
3 381 119 382
3 381 382 383
3 120 384 386
3 386 385 119
3 384 385 386
3 53 387 389
3 387 120 388
3 387 388 389
3 121 120 53
3 121 390 392
3 392 391 120
3 390 391 392
3 121 393 394
3 122 395 397
3 397 396 121
3 395 396 397
3 122 398 399
3 122 400 402
3 400 123 401
3 400 401 402
3 124 123 122
3 124 15 123
3 55 124 14
3 125 124 55
3 125 15 124
3 125 69 15
3 126 69 125
3 126 6 69
3 403 74 404
3 403 404 405
3 406 74 407
3 408 7 409
3 410 409 74
3 408 409 410
3 411 8 412
3 413 127 414
3 415 414 8
3 413 414 415
3 416 127 417
3 418 17 419
3 420 419 127
3 418 419 420
3 421 17 422
3 424 423 17
3 425 128 426
3 427 128 428
3 429 18 430
3 431 430 128
3 429 430 431
3 432 18 433
3 435 434 18
3 436 95 437
3 129 438 440
3 438 95 439
3 438 439 440
3 129 10 95
3 130 131 4
3 132 131 130
3 132 21 131
3 58 132 20
3 133 132 58
3 133 21 132
3 133 102 21
3 134 102 133
3 134 11 102
3 134 135 11
3 136 135 134
3 136 23 135
3 60 136 22
3 137 136 60
3 137 23 136
3 137 109 23
3 138 109 137
3 138 9 109
3 139 441 442
3 139 443 445
3 443 2 444
3 443 444 445
3 446 25 447
3 446 447 448
3 140 449 450
3 140 451 453
3 451 25 452
3 451 452 453
3 140 99 25
3 141 99 140
3 141 4 99
3 115 454 456
3 454 62 455
3 454 455 456
3 142 62 115
3 142 26 62
3 64 142 12
3 143 142 64
3 143 26 142
3 143 141 26
3 144 141 143
3 144 4 141
3 144 130 4
3 145 130 144
3 145 20 130
3 66 145 27
3 146 145 66
3 146 20 145
3 146 57 20
3 147 57 146
3 147 3 57
3 457 1 458
3 459 139 460
3 461 139 462
3 463 2 464
3 465 464 139
3 463 464 465
3 466 2 467
3 468 56 469
3 470 469 2
3 468 469 470
3 471 56 472
3 473 16 474
3 475 474 56
3 473 474 475
3 476 16 477
3 478 126 479
3 480 479 16
3 478 479 480
3 148 481 483
3 481 126 482
3 481 482 483
3 148 6 126
3 484 148 485
3 149 486 488
3 486 148 487
3 486 487 488
3 149 6 148
3 149 73 6
3 150 73 149
3 150 29 73
3 68 489 491
3 489 150 490
3 489 490 491
3 151 150 68
3 151 29 150
3 151 152 29
3 153 152 151
3 153 0 152
3 119 492 493
3 495 494 119
3 123 496 497
3 154 498 500
3 500 499 123
3 498 499 500
3 154 501 502
3 70 154 15
3 155 154 70
3 155 503 505
3 505 504 154
3 503 504 505
3 155 506 507
3 156 508 510
3 510 509 155
3 508 509 510
3 156 511 512
3 156 513 515
3 513 94 514
3 513 514 515
3 157 94 156
3 157 31 94
3 72 157 30
3 158 157 72
3 158 31 157
3 158 159 31
3 152 159 158
3 152 0 159
3 160 516 517
3 160 518 520
3 518 1 519
3 518 519 520
3 161 521 522
3 161 523 525
3 523 7 524
3 523 524 525
3 526 33 527
3 76 528 529
3 162 530 532
3 532 531 76
3 530 531 532
3 162 533 535
3 533 33 534
3 533 534 535
3 162 161 33
3 163 161 162
3 163 7 161
3 163 75 7
3 164 75 163
3 164 32 75
3 78 164 34
3 165 164 78
3 165 32 164
3 165 160 32
3 166 160 165
3 166 1 160
3 166 52 1
3 167 52 166
3 167 13 52
3 80 167 35
3 168 167 80
3 168 13 167
3 168 118 13
3 169 118 168
3 169 5 118
3 127 81 8
3 170 81 127
3 170 36 81
3 82 170 17
3 171 170 82
3 171 36 170
3 171 169 36
3 172 169 171
3 172 5 169
3 172 67 5
3 173 67 172
3 173 28 67
3 84 173 37
3 174 173 84
3 174 28 173
3 174 147 28
3 175 147 174
3 175 3 147
3 536 85 537
3 176 538 540
3 538 85 539
3 538 539 540
3 176 38 85
3 87 176 39
3 177 176 87
3 177 38 176
3 177 175 38
3 178 175 177
3 178 3 175
3 178 61 3
3 179 61 178
3 179 24 61
3 89 179 40
3 180 179 89
3 180 24 179
3 180 138 24
3 181 138 180
3 181 9 138
3 128 541 543
3 541 90 542
3 541 542 543
3 182 90 128
3 182 41 90
3 91 182 18
3 183 182 91
3 183 41 182
3 183 181 41
3 184 181 183
3 184 9 181
3 184 113 9
3 185 113 184
3 185 43 113
3 93 185 42
3 186 185 93
3 186 43 185
3 186 187 43
3 159 187 186
3 159 0 187
3 188 544 545
3 188 546 547
3 97 548 550
3 548 188 549
3 548 549 550
3 189 188 97
3 189 551 553
3 553 552 188
3 551 552 553
3 189 554 555
3 190 556 558
3 558 557 189
3 556 557 558
3 190 559 560
3 191 561 562
3 191 563 565
3 563 19 564
3 563 564 565
3 100 191 25
3 192 191 100
3 192 19 191
3 192 129 19
3 193 129 192
3 193 10 129
3 131 101 4
3 194 101 131
3 194 45 101
3 103 194 21
3 195 194 103
3 195 45 194
3 195 193 45
3 196 193 195
3 196 10 193
3 196 98 10
3 197 98 196
3 197 44 98
3 105 197 46
3 198 197 105
3 198 44 197
3 198 190 44
3 199 190 198
3 199 566 568
3 568 567 190
3 566 567 568
3 199 569 571
3 569 570 571
3 200 572 574
3 574 573 199
3 572 573 574
3 200 575 576
3 107 200 47
3 201 200 107
3 201 577 579
3 579 578 200
3 577 578 579
3 201 580 581
3 583 582 201
3 135 108 11
3 202 108 135
3 202 48 108
3 110 202 23
3 203 202 110
3 203 48 202
3 203 584 586
3 586 585 48
3 584 585 586
3 204 587 589
3 589 588 203
3 587 588 589
3 204 590 591
3 204 592 594
3 592 114 593
3 592 593 594
3 205 114 204
3 205 595 597
3 597 596 114
3 595 596 597
3 112 205 49
3 206 205 112
3 206 598 600
3 600 599 205
3 598 599 600
3 206 601 602
3 187 603 605
3 605 604 206
3 603 604 605
3 187 606 608
3 606 0 607
3 606 607 608
3 609 153 610
3 611 153 612
3 613 0 614
3 615 614 153
3 613 614 615
