ply
format ascii 1.0
element vertex 356
property float x
property float y
property float z
element face 377
property list uchar int vertex_index
end_header
-52.671986 18.7906 19.331789
-53.868011 36.377544 12.080198
-45.883362 27.379391 24.821579
-52.695183 27.580383 16.441805
-48.528469 37.821651 20.01033
-56.853912 18.741833 9.837709
-54.936447 26.020901 8.384621
-51.546059 33.316715 6.653518
-47.101212 32.743702 22.734703
-55.267059 19.087677 14.437245
-53.560413 32.065941 14.631819
-54.883076 27.157082 12.063441
-54.752048 31.202419 10.66583
-53.543938 29.66708 7.715134
-53.904816 35.146461 8.70997
-48.776989 22.648693 22.346451
-52.091297 23.047775 17.849596
-49.269226 27.5868 20.735596
-50.571243 32.511795 18.763145
-51.680504 37.206009 16.016569
-49.909851 18.123791 24.063698
-45.876781 22.049164 26.679264
-43.528549 27.045326 28.988926
-54.784794 23.051666 13.179343
-55.869778 22.354137 8.960024
-54.90184 20.642029 6.29235
-52.819889 23.917892 6.440952
-50.347218 27.259296 6.552577
-47.548584 30.698448 6.267757
-52.348007 38.989571 6.155205
-54.791878 17.120392 17.725037
-55.931351 17.249828 15.226385
-54.042759 18.999424 16.891369
-53.815536 34.24474 13.458311
-54.442528 31.702862 12.582941
-54.424324 33.781979 11.519966
-54.427689 33.186214 9.765114
-54.197662 35.825424 10.276662
-47.170052 24.905613 23.661045
-48.858284 25.095448 21.554733
-47.49585 27.502716 22.790493
-47.85033 35.326279 21.473024
-48.807007 32.647568 20.765383
-49.525795 35.127991 19.501598
-51.201126 34.891499 17.503056
-50.132706 37.532467 18.018789
-47.72422 19.947319 25.409561
-46.541939 19.557091 27.647196
-52.297344 25.303654 17.165951
-53.584839 23.116196 15.513807
-53.744057 25.272339 14.888427
-55.200989 26.696438 10.068111
-55.398018 24.755703 10.506989
-55.435226 24.189079 8.659721
-55.640358 21.64032 7.364129
-54.921177 23.370232 7.234078
-53.904297 22.275066 6.344393
-54.116394 25.101604 7.145392
-52.615067 31.490105 7.245424
-52.136414 28.582584 6.888083
-50.958061 30.343864 6.636017
-48.97736 28.968056 6.477311
-49.679367 32.119946 6.261238
-44.958717 30.03447 25.83564
-46.400921 30.084534 23.834251
-45.599983 32.801086 24.70718
-56.881538 17.229412 12.779814
-56.236404 19.016609 12.046827
-53.156212 29.841652 15.614634
-54.016754 27.43866 14.228592
-54.283527 29.587036 13.475876
-54.888741 29.192688 11.422833
-54.901131 28.622715 9.580795
-54.316257 27.845772 8.084103
-54.444153 30.532848 9.003386
-53.807312 32.430168 8.307545
-52.996094 34.317547 7.478263
-50.637775 20.617325 20.891125
-52.190765 20.860348 18.554768
-50.442024 22.88271 20.130978
-50.616806 25.234894 19.395126
-51.057755 27.619617 18.621996
-48.086205 30.097828 21.844994
-49.885597 30.070854 19.825008
-51.634933 29.992615 17.746832
-52.216679 32.325363 16.712307
-52.691616 34.604763 15.477017
-52.984314 36.828735 14.020466
-55.888622 15.388748 18.671005
-53.557083 16.875591 20.209593
-52.314064 16.540558 22.651073
-51.262207 18.491333 21.723028
-49.115013 20.306595 23.168797
-47.222061 22.365585 24.516792
-45.675499 24.679165 25.752028
-44.80685 21.715889 28.873226
-44.461372 24.428082 27.871262
-44.540298 27.224232 26.873974
-53.654755 21.010342 16.16464
-54.904404 21.033447 13.765247
-55.822624 20.888298 11.446453
-54.814117 25.103493 12.630903
-55.573463 22.811958 10.948626
-56.315956 20.530361 9.337609
-56.327736 19.917999 7.588624
-55.845253 19.018158 6.341092
-54.899483 17.810009 5.697114
-53.715851 19.342609 5.824941
-53.191975 26.836876 7.0455
-51.633415 25.576908 6.526761
-47.605972 40.567741 20.353998
-49.047726 40.234367 18.322632
-50.55574 39.865948 16.300865
-53.765926 37.834045 8.859737
-53.200249 37.082954 7.503105
-52.035919 36.192924 6.510928
-50.366516 35.141838 5.926236
-48.33075 33.901707 5.742577
-46.090031 32.436764 5.896923
-47.105721 18.407023 28.164704
-47.617688 18.631554 27.010524
-57.356624 17.654291 9.164375
-57.202194 17.87929 10.16387
-56.95066 18.480543 8.895753
-57.356624 17.654291 9.164375
-45.000263 32.808296 25.715608
-45.27935 31.417778 25.27141
-44.67963 31.424988 26.279837
-55.348024 15.257488 19.930578
-56.57624 14.588717 19.189694
-54.182254 16.000909 20.699872
-54.722853 16.132169 19.440299
-55.348024 15.257488 19.930578
-51.111958 17.332175 23.357385
-51.725661 16.33709 23.850072
-50.523554 17.128706 24.556385
-44.424051 21.550856 30.001753
-45.211149 20.436043 29.394298
-43.99496 25.736704 28.430094
-44.016683 24.297483 28.963527
-43.550272 25.606105 29.522359
-43.684126 28.497245 28.440554
-44.19 28.586699 27.383077
-44.034424 27.134779 27.93145
-52.647288 22.403835 6.242164
-53.189492 21.582422 6.193885
-53.362093 23.096479 6.392672
-51.990183 23.187174 6.367261
-52.647288 22.403835 6.242164
-50.059637 25.654856 6.535736
-50.702736 24.813662 6.522828
-50.990316 26.418102 6.539669
-49.333956 26.468292 6.610734
-50.059637 25.654856 6.535736
-47.187382 29.017416 6.484244
-47.90177 28.15222 6.589022
-48.262972 29.833252 6.372534
-46.43086 29.85841 6.42328
-47.187382 29.017416 6.484244
-47.187868 41.95379 20.473968
-46.984521 40.712064 21.379396
-49.205332 41.405693 17.362752
-48.515631 41.607246 18.404368
-49.959339 41.221484 16.351869
-49.801733 40.050157 17.311749
-49.205332 41.405693 17.362752
-53.553812 39.171694 8.804685
-53.734968 38.150055 9.681674
-52.774128 38.036262 6.829155
-53.178696 38.443649 7.395129
-52.752575 39.396957 6.721179
-49.739435 36.046993 5.490594
-50.664822 36.594381 5.666474
-48.721552 35.426928 5.398764
-49.348633 34.521772 5.834407
-49.739435 36.046993 5.490594
-45.361437 33.298859 5.61966
-46.518036 34.054091 5.480004
-44.949294 31.570927 6.085228
-45.361437 33.298859 5.61966
-55.361615 17.18511 16.475711
-56.418949 16.394363 15.68292
-55.849213 16.329645 16.932246
-49.301643 17.914904 25.218775
-50.523554 17.128706 24.556385
-48.208828 18.826668 25.891706
-48.817036 19.035555 24.736629
-49.301643 17.914904 25.218775
-47.13308 19.752205 26.528379
-48.208828 18.826668 25.891706
-47.617688 18.631554 27.010524
-43.194878 26.950063 30.092115
-43.550272 25.606105 29.522359
-43.299375 28.439362 29.512752
-43.194878 26.950063 30.092115
-52.379982 40.357965 5.868258
-52.752575 39.396957 6.721179
-45.343931 34.200584 25.075403
-45.000263 32.808296 25.715608
-45.966877 34.143749 24.0746
-45.343931 34.200584 25.075403
-46.717491 34.115057 23.088361
-46.350597 32.772394 23.720942
-45.966877 34.143749 24.0746
-47.09205 35.406346 22.457522
-47.475771 34.03499 22.103863
-46.717491 34.115057 23.088361
-47.44301 36.700395 21.73683
-47.09205 35.406346 22.457522
-47.78208 37.948082 21.005484
-48.1894 36.573965 20.741677
-47.44301 36.700395 21.73683
-56.858101 16.398947 14.439392
-56.418949 16.394363 15.68292
-57.333195 16.388738 13.216107
-56.858101 16.398947 14.439392
-56.406444 17.23962 14.0031
-57.662273 16.303455 12.040903
-57.333195 16.388738 13.216107
-57.216007 17.123079 11.634922
-57.662273 16.303455 12.040903
-56.89344 18.016678 11.268429
-57.216007 17.123079 11.634922
-56.558971 18.12301 12.413321
-56.545158 18.879221 10.942268
-57.202194 17.87929 10.16387
-56.89344 18.016678 11.268429
-57.018889 14.667568 17.914314
-56.57624 14.588717 19.189694
-56.397585 15.463823 17.40523
-57.018889 14.667568 17.914314
-55.34025 16.25457 18.198021
-55.849213 16.329645 16.932246
-56.397585 15.463823 17.40523
-53.022121 15.655508 23.161572
-51.725661 16.33709 23.850072
-53.560745 15.833393 21.920612
-53.022121 15.655508 23.161572
-52.935574 16.708075 21.430333
-54.182254 16.000909 20.699872
-53.560745 15.833393 21.920612
-46.078693 19.356644 28.781284
-47.105721 18.407023 28.164704
-45.674394 20.63649 28.260211
-46.078693 19.356644 28.781284
-45.211149 20.436043 29.394298
-44.189422 22.941387 29.464509
-44.424051 21.550856 30.001753
-44.634111 23.071986 28.372244
-44.189422 22.941387 29.464509
-44.016683 24.297483 28.963527
-44.39921 29.991817 26.863911
-44.749507 28.629351 26.354807
-44.19 28.586699 27.383077
-44.67963 31.424988 26.279837
-44.39921 29.991817 26.863911
-43.684126 28.497245 28.440554
-43.299375 28.439362 29.512752
-56.681683 19.374807 8.645703
-56.95066 18.480543 8.895753
-56.584934 19.636097 9.587659
-56.687573 19.068627 7.771211
-56.681683 19.374807 8.645703
-56.321846 20.22418 8.463116
-56.55381 18.664833 7.064538
-56.687573 19.068627 7.771211
-56.312568 18.214913 6.440772
-56.55381 18.664833 7.064538
-56.086495 19.468078 6.964858
-55.949402 17.655969 6.027878
-56.312568 18.214913 6.440772
-55.476517 17.051895 5.705889
-55.949402 17.655969 6.027878
-55.372368 18.414084 6.019103
-54.904736 16.332903 5.616447
-55.476517 17.051895 5.705889
-54.22945 17.048617 5.693075
-54.904736 16.332903 5.616447
-53.637635 17.814916 5.756989
-54.22945 17.048617 5.693075
-54.307667 18.576309 5.761027
-52.945724 18.540029 5.894516
-53.637635 17.814916 5.756989
-53.095269 20.116194 5.934159
-53.810074 20.808837 6.084667
-53.189492 21.582422 6.193885
-52.945724 18.540029 5.894516
-53.095269 20.116194 5.934159
-51.396946 24.016681 6.410165
-51.990183 23.187174 6.367261
-52.226652 24.7474 6.483856
-51.396946 24.016681 6.410165
-50.702736 24.813662 6.522828
-48.649027 27.322672 6.573101
-49.333956 26.468292 6.610734
-49.662289 28.113676 6.514944
-48.649027 27.322672 6.573101
-47.90177 28.15222 6.589022
-47.320831 39.321126 21.177318
-46.984521 40.712064 21.379396
-48.067221 39.194696 20.182164
-47.78208 37.948082 21.005484
-47.320831 39.321126 21.177318
-47.794754 41.773933 19.420051
-47.187868 41.95379 20.473968
-48.326849 40.401054 19.338315
-47.794754 41.773933 19.420051
-48.515631 41.607246 18.404368
-50.661354 41.001938 15.325985
-49.959339 41.221484 16.351869
-51.255913 39.662711 15.298781
-50.661354 41.001938 15.325985
-51.818295 38.332741 15.156633
-51.118122 38.535978 16.158717
-51.255913 39.662711 15.298781
-52.470199 38.144104 14.158582
-52.332409 37.017372 15.018518
-51.818295 38.332741 15.156633
-53.02288 37.914434 13.18212
-52.470199 38.144104 14.158582
-53.464729 37.688839 12.211986
-53.426163 36.603139 13.050332
-53.02288 37.914434 13.18212
-53.786011 37.421804 11.291904
-53.464729 37.688839 12.211986
-53.950836 37.145744 10.390137
-54.032837 36.101484 11.17843
-53.786011 37.421804 11.291904
-53.981794 36.829735 9.5682
-53.950836 37.145744 10.390137
-53.734968 38.150055 9.681674
-53.461534 38.819195 8.073445
-53.553812 39.171694 8.804685
-53.483087 37.4585 8.181421
-53.461534 38.819195 8.073445
-53.178696 38.443649 7.395129
-51.868685 39.921337 5.417191
-52.379982 40.357965 5.868258
-51.655567 38.518248 5.780958
-51.868685 39.921337 5.417191
-51.499523 37.119924 5.95882
-52.191963 37.591247 6.333066
-51.655567 38.518248 5.780958
-51.201217 35.667381 6.218582
-51.499523 37.119924 5.95882
-50.664822 36.594381 5.666474
-47.638396 34.786562 5.402831
-48.721552 35.426928 5.398764
-47.210391 33.169235 5.81975
-47.638396 34.786562 5.402831
-46.518036 34.054091 5.480004
-45.701584 30.727568 6.237863
-46.43086 29.85841 6.42328
-46.819308 31.567606 6.08234
-45.701584 30.727568 6.237863
-44.949294 31.570927 6.085228
3 0 32 30
3 1 35 33
3 1 37 35
3 2 40 38
3 4 43 41
3 4 45 43
3 119 47 120
3 5 121 122
3 5 123 124
3 3 50 48
3 6 53 51
3 6 55 53
3 6 57 55
3 7 60 58
3 7 62 60
3 125 65 126
3 127 126 63
3 125 126 127
3 9 66 31
3 9 67 66
3 10 70 68
3 12 71 34
3 12 72 71
3 12 74 72
3 14 75 36
3 14 76 75
3 15 79 77
3 17 80 39
3 17 81 80
3 8 82 64
3 18 83 42
3 18 84 83
3 18 85 84
3 19 86 44
3 19 87 86
3 128 88 129
3 130 89 131
3 132 131 88
3 130 131 132
3 20 133 135
3 133 90 134
3 133 134 135
3 20 91 90
3 20 92 91
3 21 93 46
3 21 94 93
3 136 95 137
3 22 138 140
3 138 96 139
3 138 139 140
3 22 97 96
3 22 141 143
3 143 142 97
3 141 142 143
3 16 98 78
3 23 99 49
3 23 100 99
3 11 101 69
3 24 102 52
3 24 103 102
3 24 104 103
3 25 105 54
3 25 106 105
3 25 107 106
3 26 144 146
3 146 145 56
3 144 145 146
3 26 147 148
3 13 108 73
3 27 109 59
3 27 149 151
3 151 150 109
3 149 150 151
3 27 152 153
3 28 154 156
3 156 155 61
3 154 155 156
3 28 157 158
3 159 110 160
3 161 111 162
3 163 112 164
3 165 164 111
3 163 164 165
3 166 113 167
3 29 168 170
3 168 114 169
3 168 169 170
3 29 115 114
3 171 116 172
3 173 117 174
3 175 174 116
3 173 174 175
3 176 118 177
3 179 178 118
3 30 180 182
3 180 31 181
3 180 181 182
3 32 31 30
3 32 9 31
3 33 34 10
3 35 34 33
3 35 12 34
3 35 36 12
3 37 36 35
3 37 14 36
3 38 39 15
3 40 39 38
3 40 17 39
3 41 42 8
3 43 42 41
3 43 18 42
3 43 44 18
3 45 44 43
3 45 19 44
3 183 20 184
3 185 46 186
3 187 186 20
3 185 186 187
3 47 188 190
3 188 46 189
3 188 189 190
3 47 21 46
3 191 22 192
3 194 193 22
3 48 49 16
3 50 49 48
3 50 23 49
3 51 52 11
3 53 52 51
3 53 24 52
3 53 54 24
3 55 54 53
3 55 25 54
3 55 56 25
3 57 56 55
3 57 26 56
3 58 59 13
3 60 59 58
3 60 27 59
3 60 61 27
3 62 61 60
3 62 28 61
3 195 29 196
3 63 64 2
3 65 64 63
3 65 8 64
3 197 65 198
3 199 65 200
3 201 8 202
3 203 202 65
3 201 202 203
3 204 41 205
3 206 205 8
3 204 205 206
3 207 41 208
3 209 4 210
3 211 210 41
3 209 210 211
3 31 212 213
3 66 214 216
3 216 215 31
3 214 215 216
3 66 217 218
3 66 219 220
3 67 221 223
3 223 222 66
3 221 222 223
3 67 224 226
3 224 5 225
3 224 225 226
3 68 69 3
3 70 69 68
3 70 11 69
3 34 70 10
3 71 70 34
3 71 11 70
3 71 51 11
3 72 51 71
3 72 6 51
3 72 73 6
3 74 73 72
3 74 13 73
3 36 74 12
3 75 74 36
3 75 13 74
3 75 58 13
3 76 58 75
3 76 7 58
3 77 78 0
3 79 78 77
3 79 16 78
3 39 79 15
3 80 79 39
3 80 16 79
3 80 48 16
3 81 48 80
3 81 3 48
3 64 40 2
3 82 40 64
3 82 17 40
3 42 82 8
3 83 82 42
3 83 17 82
3 83 81 17
3 84 81 83
3 84 3 81
3 84 68 3
3 85 68 84
3 85 10 68
3 44 85 18
3 86 85 44
3 86 10 85
3 86 33 10
3 87 33 86
3 87 1 33
3 88 227 228
3 88 229 230
3 88 231 233
3 231 30 232
3 231 232 233
3 89 30 88
3 89 0 30
3 90 234 235
3 90 236 237
3 90 238 240
3 238 89 239
3 238 239 240
3 91 89 90
3 91 0 89
3 91 77 0
3 92 77 91
3 92 15 77
3 46 92 20
3 93 92 46
3 93 15 92
3 93 38 15
3 94 38 93
3 94 2 38
3 241 47 242
3 95 243 245
3 243 47 244
3 243 244 245
3 95 21 47
3 246 95 247
3 96 248 250
3 248 95 249
3 248 249 250
3 96 21 95
3 96 94 21
3 97 94 96
3 97 2 94
3 97 63 2
3 251 63 252
3 253 252 97
3 251 252 253
3 255 254 63
3 257 256 22
3 78 32 0
3 98 32 78
3 98 9 32
3 49 98 16
3 99 98 49
3 99 9 98
3 99 67 9
3 100 67 99
3 100 5 67
3 69 50 3
3 101 50 69
3 101 23 50
3 52 101 11
3 102 101 52
3 102 23 101
3 102 100 23
3 103 100 102
3 103 5 100
3 103 258 260
3 260 259 5
3 258 259 260
3 104 261 263
3 263 262 103
3 261 262 263
3 104 264 265
3 54 104 24
3 105 104 54
3 105 266 268
3 268 267 104
3 266 267 268
3 105 269 270
3 106 271 273
3 273 272 105
3 271 272 273
3 106 274 275
3 106 276 277
3 107 278 280
3 280 279 106
3 278 279 280
3 107 281 282
3 56 107 25
3 283 107 284
3 285 284 56
3 283 284 285
3 287 286 107
3 73 57 6
3 108 57 73
3 108 26 57
3 59 108 13
3 109 108 59
3 109 26 108
3 109 288 290
3 290 289 26
3 288 289 290
3 292 291 109
3 61 293 295
3 295 294 27
3 293 294 295
3 297 296 61
3 110 298 299
3 110 300 302
3 300 4 301
3 300 301 302
3 303 110 304
3 111 305 307
3 305 110 306
3 305 306 307
3 111 4 110
3 111 45 4
3 112 45 111
3 112 19 45
3 308 112 309
3 310 112 311
3 312 19 313
3 314 313 112
3 312 313 314
3 315 87 316
3 317 316 19
3 315 316 317
3 318 87 319
3 320 1 321
3 322 321 87
3 320 321 322
3 323 1 324
3 325 37 326
3 327 326 1
3 325 326 327
3 113 328 330
3 328 37 329
3 328 329 330
3 113 14 37
3 331 113 332
3 114 333 335
3 333 113 334
3 333 334 335
3 114 14 113
3 114 76 14
3 115 76 114
3 115 7 76
3 336 29 337
3 338 29 339
3 340 115 341
3 342 341 29
3 340 341 342
3 116 343 345
3 343 115 344
3 343 344 345
3 116 7 115
3 116 62 7
3 117 62 116
3 117 28 62
3 346 117 347
3 118 348 350
3 348 117 349
3 348 349 350
3 118 28 117
3 118 351 353
3 353 352 28
3 351 352 353
3 355 354 118
