ply
format ascii 1.0
element vertex 452
property float x
property float y
property float z
element face 483
property list uchar int vertex_index
end_header
-4.622086 -30.344624 60.4174
1.548695 -32.919533 81.037666
1.337702 -19.870312 78.004242
0.137815 -20.225912 86.174049
-5.24769 -42.843502 64.323936
-6.229799 -39.477226 54.966267
-0.330755 -19.363407 67.890106
-0.925852 -32.407429 70.630714
-1.919603 -44.160847 75.113373
0.17182 -33.094994 87.887283
-4.967514 -25.652641 52.685211
1.559549 -26.470516 79.50589
0.784613 -26.372211 74.3564
0.660759 -32.74979 75.982437
-1.333529 -38.49987 72.62413
0.218931 -38.837097 77.934677
-3.918207 -23.573986 59.483421
-5.499937 -28.308636 56.105965
-4.827387 -36.963051 51.581001
1.153034 -19.919142 82.619148
1.509706 -26.579889 84.005356
-5.109741 -36.806633 62.042187
-6.151142 -35.094131 57.331894
-6.302057 -41.473831 59.298523
-5.912357 -45.713638 57.05125
-2.362511 -25.147129 64.045509
0.813507 -19.79155 72.930206
-0.615904 -26.020967 69.085541
-2.864548 -31.677906 65.354492
-3.284447 -37.886078 67.238068
-3.594545 -43.679371 69.688705
0.434307 -26.851961 87.225822
1.453245 -33.035179 85.223625
0.625574 -38.880646 86.464256
0.976744 -38.979362 82.75676
-0.713139 -44.379181 80.299782
-5.849472 -32.745804 53.453724
-4.109413 -29.946407 50.558735
1.603621 -29.722427 80.260643
1.272787 -29.665257 77.755287
1.210432 -32.845894 78.578323
0.494165 -35.843395 76.908409
1.036922 -35.948799 79.466911
-4.286694 -26.990578 59.869232
-4.824955 -25.987673 57.7244
-5.213488 -29.413506 58.164047
0.758173 -20.027693 84.565994
1.360537 -23.260782 83.33786
0.973824 -23.375719 85.229156
-5.22921 -39.885723 63.109924
-5.892307 -39.195908 60.597706
-5.886761 -42.235291 61.747795
-1.072319 -18.940647 65.489189
1.159111 -19.855623 75.489822
0.056635 -29.458168 72.472672
0.149475 -26.246237 71.710358
-0.765587 -29.247017 69.808258
-1.677555 -28.920561 67.183968
-1.878849 -32.105984 67.966064
-3.086246 -34.826729 66.222076
-2.080248 -35.215343 68.876732
-1.603792 -41.395817 73.809875
-2.504894 -41.15744 71.103897
-2.72681 -43.954971 72.409386
-3.688139 -46.383614 71.083611
-2.942181 -46.614162 73.813126
-0.519709 -27.050148 88.192703
0.394411 -30.049755 87.592987
1.122536 -29.944229 86.321785
0.96595 -33.075832 86.781334
-0.155285 -41.425774 87.144547
0.278706 -41.635021 85.634766
0.954601 -38.965988 84.793289
0.401817 -41.739632 83.729118
0.236353 -41.753822 81.511536
-4.156218 -24.15538 51.323532
-6.388508 -37.329163 56.060444
-6.18877 -33.991356 55.270626
-6.117973 -36.16555 54.122562
-3.707394 -35.592415 50.216682
-4.527475 -33.503002 50.993446
-5.154104 -45.666946 65.654404
-5.741568 -45.138554 63.022297
-5.452232 -47.896492 64.382317
0.380581 -16.228094 69.796997
1.458895 -23.185532 78.7556
1.215277 -23.166533 76.22197
1.262398 -26.435013 76.975174
0.747034 -29.586763 75.13829
-0.064127 -32.612175 73.316025
-1.110386 -35.496567 71.565681
-0.235971 -35.698097 74.256531
-0.480776 -38.694561 75.309242
-0.812126 -41.572884 76.480804
-4.399565 -22.509506 57.452637
-5.055624 -24.810678 55.780632
-5.424225 -27.046671 54.274994
-5.72213 -41.546333 54.010941
-5.687668 -38.270332 53.152489
-4.981522 -40.316879 52.302219
-2.797741 -37.671486 49.466839
-1.512281 -36.332756 48.211246
1.340218 -19.877947 80.405891
1.514473 -23.205643 81.153519
1.651093 -26.510643 81.876076
1.708363 -29.780472 82.578911
-4.902403 -33.621311 61.1413
-5.536839 -32.768188 58.789459
-5.770075 -36.034668 59.604118
-6.300323 -38.34388 58.232002
-6.430498 -40.552078 57.023735
-6.142588 -44.468109 60.498272
-6.297964 -43.643204 58.128098
-6.16432 -42.664318 55.955341
-5.574871 -44.694992 54.977871
-3.208321 -24.453516 61.690414
-3.521177 -27.810406 62.183159
0.827526 -16.405195 72.275833
0.310503 -19.638586 70.382004
0.800913 -23.109728 73.622665
0.231802 -22.975561 71.016479
-0.469866 -22.727676 68.450424
-1.472466 -25.663507 66.520111
-2.621439 -28.449295 64.632111
-3.808317 -31.096943 62.82695
-4.055401 -34.303009 63.632229
-4.252224 -37.417488 64.600197
-4.389906 -40.426933 65.722961
-2.287956 -38.237968 69.922684
-3.456224 -40.842201 68.398239
-4.458509 -43.31678 66.983124
-4.447023 -46.074219 68.353256
-0.564131 -23.821295 87.861008
0.335148 -23.562927 86.755203
1.10984 -26.692642 85.812599
1.556313 -29.852997 84.626816
1.640163 -32.981701 83.281441
-0.022104 -38.712906 87.694237
0.596031 -36.020557 87.227692
1.155159 -36.06591 85.826797
1.401279 -36.063332 84.011337
1.351774 -36.022186 81.862129
0.719082 -38.933132 80.441963
-0.182678 -41.69392 79.069199
-1.23081 -44.303841 77.761215
-2.269249 -46.775482 76.506241
-5.875452 -31.742792 56.620483
-5.856707 -30.557503 54.674164
-5.453979 -29.235687 52.975201
-5.485359 -34.87899 52.437508
-5.139809 -31.386433 51.890823
-4.683989 -27.807203 51.522156
-3.607601 -26.303139 50.280624
0.447994 -20.126803 85.370022
0.319296 -18.444966 85.031899
0.009117 -18.544075 85.835926
-0.701537 -19.152027 66.689648
-0.642067 -17.435024 66.437774
-0.271285 -17.646404 67.638233
-0.798736 -20.849616 66.92569
-1.169519 -20.638236 65.725231
-0.701537 -19.152027 66.689648
1.248406 -19.862967 76.747032
1.190605 -18.184332 76.373542
1.279901 -18.191676 77.630752
0.283116 -31.572375 87.740135
-0.114476 -30.104184 87.992935
-0.225772 -31.626804 88.140083
-0.048336 -42.949343 85.197178
-0.174017 -42.834699 86.073704
0.013219 -43.001648 84.244354
0.340261 -41.687326 84.681942
-0.048336 -42.949343 85.197178
-0.006265 -43.055993 83.19453
0.013219 -43.001648 84.244354
-4.69827 -23.833107 52.624785
-4.947343 -24.56525 53.372521
-4.561866 -24.90401 52.004372
-4.292622 -23.084477 51.943945
-4.69827 -23.833107 52.624785
-3.512875 -33.832746 49.980213
-3.061013 -34.893935 49.605424
-5.197223 -48.12228 65.722973
-5.303168 -46.781719 65.018361
-5.04816 -47.007507 66.359016
0.608414 -14.584988 70.724533
0.404019 -14.486586 69.520118
-4.158886 -23.041746 58.468029
-3.970807 -21.312008 58.343394
-3.730128 -21.844248 59.358785
-4.976304 -41.936349 52.714657
-5.351826 -40.931606 53.15658
-5.346609 -42.551076 53.569018
-2.941407 -39.362484 49.739384
-3.390746 -38.341805 50.136185
-2.359144 -38.720814 49.054127
-2.941407 -39.362484 49.739384
1.039683 -18.238185 82.239517
0.828145 -18.289812 83.227691
1.246626 -19.898544 81.512519
1.133274 -18.217588 81.132889
1.039683 -18.238185 82.239517
-5.980149 -45.891934 61.144735
-5.942078 -44.803331 61.760284
-5.779638 -46.227156 62.406748
-6.105161 -44.678421 57.589674
-6.141552 -45.116574 58.730744
-5.948749 -46.151791 58.192319
-2.785416 -24.800323 62.867961
-2.654115 -23.115588 62.634504
-2.23121 -23.462395 63.812051
0.820516 -18.098372 72.60302
0.968697 -16.446711 73.528172
0.961688 -18.139889 73.855358
-4.017368 -47.537579 70.43977
-3.706715 -47.665104 71.813725
-2.452385 -48.00246 77.222359
-1.997012 -46.820299 77.811859
-2.702877 -47.950527 75.889061
-2.452385 -48.00246 77.222359
-0.868476 -35.680858 47.585195
-1.112823 -37.424664 47.756
0.630715 -18.344088 84.201115
0.319296 -18.444966 85.031899
0.955603 -19.973418 83.592571
0.828145 -18.289812 83.227691
0.630715 -18.344088 84.201115
-5.695458 -47.165645 57.63171
-5.948749 -46.151791 58.192319
-5.578554 -46.710985 56.532694
-5.695458 -47.165645 57.63171
-0.990298 -17.215418 65.282803
-0.642067 -17.435024 66.437774
-1.462353 -18.646836 64.347819
-0.990298 -17.215418 65.282803
-1.586114 -20.359153 64.533891
-1.462353 -18.646836 64.347819
-1.586114 -20.359153 64.533891
-1.169519 -20.638236 65.725231
-1.814615 -23.741477 65.003391
-2.23121 -23.462395 63.812051
1.13449 -18.171926 75.135166
1.190605 -18.184332 76.373542
0.986309 -19.823587 74.210014
0.961688 -18.139889 73.855358
1.13449 -18.171926 75.135166
-3.333736 -47.780378 73.178483
-3.706715 -47.665104 71.813725
-3.31516 -46.498888 72.448369
-0.571536 -28.60438 88.292793
-1.128645 -27.160595 88.441326
-0.062649 -28.549951 87.892845
-0.571536 -28.60438 88.292793
-0.114476 -30.104184 87.992935
-0.391013 -42.730076 86.828595
-0.66995 -42.549358 87.493347
0.061711 -41.530397 86.389657
-0.391013 -42.730076 86.828595
-0.174017 -42.834699 86.073704
-0.088997 -43.063087 82.08574
0.319085 -41.746727 82.620327
-0.006265 -43.055993 83.19453
-0.563743 -44.375767 81.479862
-0.238393 -43.066502 80.905659
-0.088997 -43.063087 82.08574
-3.87632 -22.299961 51.296713
-4.292622 -23.084477 51.943945
-3.608244 -23.369234 50.734573
-3.87632 -22.299961 51.296713
-3.922916 -32.78804 50.368595
-4.117434 -34.547708 50.605064
-3.512875 -33.832746 49.980213
-3.713884 -31.009743 50.15124
-4.318444 -31.724705 50.77609
-3.922916 -32.78804 50.368595
-3.477329 -29.20219 49.979551
-3.713884 -31.009743 50.15124
-0.407448 -18.702703 86.479546
0.009117 -18.544075 85.835926
-5.63497 -47.606125 63.086758
-5.779638 -46.227156 62.406748
-5.5969 -46.517523 63.702307
-5.238958 -49.201908 65.083622
-5.197223 -48.12228 65.722973
-5.394157 -48.954792 63.758341
-5.238958 -49.201908 65.083622
-5.63497 -47.606125 63.086758
-5.394157 -48.954792 63.758341
0.084383 -16.078747 68.591679
0.404019 -14.486586 69.520118
0.024913 -17.79575 68.843552
-0.271285 -17.646404 67.638233
0.084383 -16.078747 68.591679
-0.372385 -33.088764 88.194755
-0.225772 -31.626804 88.140083
-4.183191 -20.756424 57.385157
-3.970807 -21.312008 58.343394
-4.487643 -21.889576 56.53693
-4.183191 -20.756424 57.385157
-4.815673 -23.040162 55.700927
-4.487643 -21.889576 56.53693
-4.727595 -23.660092 56.616635
-4.991398 -24.144268 54.920231
-4.815673 -23.040162 55.700927
-5.175698 -25.262265 54.167412
-4.991398 -24.144268 54.920231
-5.239924 -25.928674 55.027813
-5.19587 -26.349656 53.480103
-4.947343 -24.56525 53.372521
-5.175698 -25.262265 54.167412
-4.553231 -41.322895 51.89398
-4.976304 -41.936349 52.714657
-4.482636 -39.664501 51.553875
-4.553231 -41.322895 51.89398
-4.405569 -37.987587 51.193266
-4.904454 -38.639965 51.94161
-4.482636 -39.664501 51.553875
-3.845572 -37.302269 50.511106
-4.26739 -36.277733 50.898842
-4.405569 -37.987587 51.193266
-3.252567 -36.631951 49.84176
-3.845572 -37.302269 50.511106
-3.390746 -38.341805 50.136185
-2.606187 -35.93347 49.230503
-3.061013 -34.893935 49.605424
-3.252567 -36.631951 49.84176
-2.155011 -37.002121 48.839043
-1.963457 -35.264105 48.602706
-2.606187 -35.93347 49.230503
-1.716414 -38.051449 48.426331
-2.155011 -37.002121 48.839043
-2.359144 -38.720814 49.054127
-1.112823 -37.424664 47.756
-1.716414 -38.051449 48.426331
1.250125 -18.195895 78.822823
1.279901 -18.191676 77.630752
1.251383 -18.199712 80.023647
1.133274 -18.217588 81.132889
1.33896 -19.874129 79.205067
1.250125 -18.195895 78.822823
1.251383 -18.199712 80.023647
-6.063864 -45.529026 59.91583
-5.980149 -45.891934 61.144735
-6.220276 -44.055656 59.313185
-6.063864 -45.529026 59.91583
-6.141552 -45.116574 58.730744
-5.272979 -44.125406 54.052482
-5.346609 -42.551076 53.569018
-5.6485 -43.120662 54.494406
-5.409811 -46.201662 55.496004
-5.743614 -45.204315 56.014561
-5.578554 -46.710985 56.532694
-5.181282 -45.684216 54.499329
-5.409811 -46.201662 55.496004
-5.016222 -47.190886 55.017461
-5.272979 -44.125406 54.052482
-5.181282 -45.684216 54.499329
-3.40379 -22.306633 60.405804
-3.730128 -21.844248 59.358785
-3.048846 -22.746398 61.5093
-2.654115 -23.115588 62.634504
-3.563264 -24.013751 60.586917
-3.40379 -22.306633 60.405804
-3.048846 -22.746398 61.5093
0.949261 -14.727033 73.185875
0.968697 -16.446711 73.528172
0.831886 -14.673538 71.963951
0.949261 -14.727033 73.185875
0.604054 -16.316644 71.036415
0.608414 -14.584988 70.724533
0.831886 -14.673538 71.963951
-0.868292 -22.531751 67.205849
-0.798736 -20.849616 66.92569
-0.400311 -21.045541 68.170265
-1.369592 -23.999666 66.240692
-0.868292 -22.531751 67.205849
-0.971166 -24.195591 67.485267
-1.917489 -25.405318 65.28281
-1.814615 -23.741477 65.003391
-1.369592 -23.999666 66.240692
-4.694619 -47.211143 67.708443
-5.04816 -47.007507 66.359016
-4.800563 -45.870582 67.00383
-4.39681 -47.382881 69.074592
-4.067581 -46.228916 69.718434
-4.017368 -47.537579 70.43977
-4.694619 -47.211143 67.708443
-4.39681 -47.382881 69.074592
-0.290871 -20.373663 86.780117
-0.407448 -18.702703 86.479546
-1.118695 -25.593573 88.355209
-1.128645 -27.160595 88.441326
-1.140906 -23.979146 88.189361
-1.118695 -25.593573 88.355209
-0.54192 -25.435721 88.026855
-1.189113 -22.363727 88.015221
-1.140906 -23.979146 88.189361
-0.641844 -22.171354 87.623596
-1.266827 -20.713787 87.777809
-1.189113 -22.363727 88.015221
-0.192205 -22.04217 87.070694
-0.641844 -22.171354 87.623596
-0.114492 -23.692111 87.308105
0.236482 -21.894419 86.464626
-0.290871 -20.373663 86.780117
-0.192205 -22.04217 87.070694
-0.051976 -34.506739 88.020557
-0.372385 -33.088764 88.194755
-0.530512 -41.26532 87.668416
-0.66995 -42.549358 87.493347
-0.463921 -39.908886 87.943261
-0.530512 -41.26532 87.668416
-0.088695 -40.06934 87.419392
-0.50177 -38.585579 88.064164
-0.463921 -39.908886 87.943261
-0.148938 -37.315695 87.924034
-0.50177 -38.585579 88.064164
0.160129 -35.969521 87.690762
-0.148938 -37.315695 87.924034
0.286963 -37.366732 87.460965
0.383925 -34.557775 87.557488
-0.051976 -34.506739 88.020557
0.160129 -35.969521 87.690762
-1.036321 -45.624214 80.943359
-0.563743 -44.375767 81.479862
-1.218957 -45.622149 79.70863
-1.036321 -45.624214 80.943359
-1.477793 -45.584479 78.439346
-0.971974 -44.341511 79.030498
-1.218957 -45.622149 79.70863
-1.750029 -45.539661 77.133728
-1.477793 -45.584479 78.439346
-1.997012 -46.820299 77.811859
-3.039343 -47.869867 74.542503
-2.605715 -46.694822 75.159683
-2.702877 -47.950527 75.889061
-3.333736 -47.780378 73.178483
-3.039343 -47.869867 74.542503
-3.333935 -24.443114 50.21312
-3.608244 -23.369234 50.734573
-3.881909 -25.22926 50.802078
-3.226423 -27.380556 49.840496
-3.858507 -28.124773 50.41968
-3.477329 -29.20219 49.979551
-2.964457 -25.527461 49.732914
-3.226423 -27.380556 49.840496
-3.333935 -24.443114 50.21312
-2.964457 -25.527461 49.732914
-1.282771 -34.569057 48.020893
-1.963457 -35.264105 48.602706
-1.282771 -34.569057 48.020893
-0.868476 -35.680858 47.585195
3 1 40 38
3 1 42 40
3 0 45 43
3 3 153 155
3 153 46 154
3 153 154 155
3 3 48 46
3 4 51 49
3 6 156 158
3 156 52 157
3 156 157 158
3 6 159 161
3 161 160 52
3 159 160 161
3 2 162 164
3 162 53 163
3 162 163 164
3 7 56 54
3 7 58 56
3 7 60 58
3 8 63 61
3 8 65 63
3 9 165 167
3 165 67 166
3 165 166 167
3 9 69 67
3 168 71 169
3 170 73 171
3 172 171 71
3 170 171 172
3 174 173 73
3 10 175 176
3 10 177 179
3 177 75 178
3 177 178 179
3 5 78 76
3 181 180 79
3 182 83 183
3 184 183 81
3 182 183 184
3 185 84 186
3 11 87 85
3 13 88 39
3 13 89 88
3 13 91 89
3 15 92 41
3 15 93 92
3 16 187 189
3 187 94 188
3 187 188 189
3 17 95 44
3 17 96 95
3 190 99 191
3 192 191 97
3 190 191 192
3 193 100 194
3 196 195 100
3 19 197 198
3 19 199 201
3 199 102 200
3 199 200 201
3 19 103 102
3 20 104 47
3 20 105 104
3 21 108 106
3 23 109 50
3 23 110 109
3 202 111 203
3 204 203 82
3 202 203 204
3 24 205 207
3 205 112 206
3 205 206 207
3 24 113 112
3 24 114 113
3 25 208 210
3 208 115 209
3 208 209 210
3 25 116 115
3 26 211 213
3 211 117 212
3 211 212 213
3 26 118 117
3 12 119 86
3 27 120 55
3 27 121 120
3 27 122 121
3 28 123 57
3 28 124 123
3 28 125 124
3 29 126 59
3 29 127 126
3 14 128 90
3 30 129 62
3 30 130 129
3 30 131 130
3 215 214 64
3 31 132 66
3 31 133 132
3 31 134 133
3 32 135 68
3 32 136 135
3 33 137 70
3 33 138 137
3 33 139 138
3 34 140 72
3 34 141 140
3 34 142 141
3 35 143 74
3 35 144 143
3 216 145 217
3 219 218 145
3 22 146 107
3 36 147 77
3 36 148 147
3 18 149 98
3 37 150 80
3 37 151 150
3 37 152 151
3 221 220 101
3 38 39 11
3 40 39 38
3 40 13 39
3 40 41 13
3 42 41 40
3 42 15 41
3 43 44 16
3 45 44 43
3 45 17 44
3 46 222 223
3 46 224 226
3 224 19 225
3 224 225 226
3 46 47 19
3 48 47 46
3 48 20 47
3 49 50 21
3 51 50 49
3 51 23 50
3 227 24 228
3 230 229 24
3 52 231 232
3 52 233 234
3 52 235 236
3 238 237 52
3 239 25 240
3 53 241 242
3 53 243 245
3 243 26 244
3 243 244 245
3 54 55 12
3 56 55 54
3 56 27 55
3 56 57 27
3 58 57 56
3 58 28 57
3 58 59 28
3 60 59 58
3 60 29 59
3 61 62 14
3 63 62 61
3 63 30 62
3 63 64 30
3 65 64 63
3 65 246 248
3 248 247 64
3 246 247 248
3 249 66 250
3 67 251 253
3 251 66 252
3 251 252 253
3 67 31 66
3 67 68 31
3 69 68 67
3 69 32 68
3 254 70 255
3 71 256 258
3 256 70 257
3 256 257 258
3 71 33 70
3 71 72 33
3 73 72 71
3 73 34 72
3 73 74 34
3 259 74 260
3 261 260 73
3 259 260 261
3 262 35 263
3 264 263 74
3 262 263 264
3 75 265 266
3 75 267 268
3 76 77 22
3 78 77 76
3 78 36 77
3 79 80 18
3 269 80 270
3 271 270 79
3 269 270 271
3 272 37 273
3 274 273 80
3 272 273 274
3 276 275 37
3 277 3 278
3 81 82 4
3 83 82 81
3 83 279 281
3 281 280 82
3 279 280 281
3 282 83 283
3 284 83 285
3 287 286 83
3 84 288 289
3 84 290 292
3 290 6 291
3 290 291 292
3 85 86 2
3 87 86 85
3 87 12 86
3 39 87 11
3 88 87 39
3 88 12 87
3 88 54 12
3 89 54 88
3 89 7 54
3 89 90 7
3 91 90 89
3 91 14 90
3 41 91 13
3 92 91 41
3 92 14 91
3 92 61 14
3 93 61 92
3 93 8 61
3 293 9 294
3 94 295 296
3 94 297 298
3 44 94 16
3 95 94 44
3 95 299 301
3 301 300 94
3 299 300 301
3 95 302 303
3 96 304 306
3 306 305 95
3 304 305 306
3 96 307 309
3 307 10 308
3 307 308 309
3 97 98 5
3 99 98 97
3 99 18 98
3 310 99 311
3 312 99 313
3 314 18 315
3 316 315 99
3 314 315 316
3 317 79 318
3 319 318 18
3 317 318 319
3 100 320 322
3 320 79 321
3 320 321 322
3 100 323 325
3 325 324 79
3 323 324 325
3 100 326 328
3 326 101 327
3 326 327 328
3 329 101 330
3 331 330 100
3 329 330 331
3 333 332 101
3 334 2 335
3 102 336 337
3 102 338 340
3 338 2 339
3 338 339 340
3 102 85 2
3 103 85 102
3 103 11 85
3 47 103 19
3 104 103 47
3 104 11 103
3 104 38 11
3 105 38 104
3 105 1 38
3 106 107 0
3 108 107 106
3 108 22 107
3 50 108 21
3 109 108 50
3 109 22 108
3 109 76 22
3 110 76 109
3 110 5 76
3 82 51 4
3 111 51 82
3 111 23 51
3 341 111 342
3 112 343 345
3 343 111 344
3 343 344 345
3 112 23 111
3 112 110 23
3 113 110 112
3 113 5 110
3 113 97 5
3 114 97 113
3 114 346 348
3 348 347 97
3 346 347 348
3 349 114 350
3 351 350 24
3 349 350 351
3 352 114 353
3 352 353 354
3 356 355 114
3 357 16 358
3 115 359 360
3 115 361 363
3 361 16 362
3 361 362 363
3 115 43 16
3 116 43 115
3 116 0 43
3 117 364 365
3 117 366 367
3 117 368 370
3 368 84 369
3 368 369 370
3 118 84 117
3 118 6 84
3 86 53 2
3 119 53 86
3 119 26 53
3 55 119 12
3 120 119 55
3 120 26 119
3 120 118 26
3 121 118 120
3 121 6 118
3 121 371 373
3 373 372 6
3 371 372 373
3 122 374 376
3 376 375 121
3 374 375 376
3 122 377 379
3 377 25 378
3 377 378 379
3 57 122 27
3 123 122 57
3 123 25 122
3 123 116 25
3 124 116 123
3 124 0 116
3 124 106 0
3 125 106 124
3 125 21 106
3 59 125 28
3 126 125 59
3 126 21 125
3 126 49 21
3 127 49 126
3 127 4 49
3 90 60 7
3 128 60 90
3 128 29 60
3 62 128 14
3 129 128 62
3 129 29 128
3 129 127 29
3 130 127 129
3 130 4 127
3 130 81 4
3 131 81 130
3 131 380 382
3 382 381 81
3 380 381 382
3 64 131 30
3 383 131 384
3 385 384 64
3 383 384 385
3 387 386 131
3 388 3 389
3 66 390 391
3 132 392 394
3 394 393 66
3 392 393 394
3 132 395 396
3 132 397 399
3 397 398 399
3 133 400 402
3 402 401 132
3 400 401 402
3 133 403 405
3 403 3 404
3 403 404 405
3 133 48 3
3 134 48 133
3 134 20 48
3 68 134 31
3 135 134 68
3 135 20 134
3 135 105 20
3 136 105 135
3 136 1 105
3 406 9 407
3 70 408 409
3 137 410 412
3 412 411 70
3 410 411 412
3 137 413 414
3 137 415 416
3 138 417 419
3 419 418 137
3 417 418 419
3 138 420 422
3 420 9 421
3 420 421 422
3 138 69 9
3 139 69 138
3 139 32 69
3 72 139 33
3 140 139 72
3 140 32 139
3 140 136 32
3 141 136 140
3 141 1 136
3 141 42 1
3 142 42 141
3 142 15 42
3 74 142 34
3 143 142 74
3 143 15 142
3 143 93 15
3 144 93 143
3 144 8 93
3 423 35 424
3 425 35 426
3 427 144 428
3 429 428 35
3 427 428 429
3 145 430 432
3 430 144 431
3 430 431 432
3 145 8 144
3 145 65 8
3 433 65 434
3 435 434 145
3 433 434 435
3 437 436 65
3 107 45 0
3 146 45 107
3 146 17 45
3 77 146 22
3 147 146 77
3 147 17 146
3 147 96 17
3 148 96 147
3 148 10 96
3 98 78 5
3 149 78 98
3 149 36 78
3 80 149 18
3 150 149 80
3 150 36 149
3 150 148 36
3 151 148 150
3 151 10 148
3 151 75 10
3 152 75 151
3 152 438 440
3 440 439 75
3 438 439 440
3 441 152 442
3 443 442 37
3 441 442 443
3 444 152 445
3 447 446 152
3 101 448 449
3 451 450 101
