ply
format ascii 1.0
element vertex 514
property float x
property float y
property float z
element face 476
property list uchar int vertex_index
end_header
13.272579 -103.693504 42.415958
13.566376 -110.135033 29.541466
11.189243 -123.543571 9.532655
22.781719 -105.773209 23.776035
16.397757 -116.277229 17.632252
21.393114 -120.481041 7.494572
31.626381 -112.572151 6.000611
21.122803 -124.316162 -1.741852
10.803829 -103.17907 43.560825
10.239025 -106.868782 38.406265
25.393726 -99.70887 27.541561
21.172241 -102.542801 29.636211
9.778276 -113.639854 25.798429
14.531672 -113.229507 23.236801
11.143476 -117.072624 19.616247
31.983717 -108.416977 14.748684
29.286705 -112.625969 10.511135
26.51955 -116.876701 6.427307
24.151447 -116.118782 11.224169
17.111412 -105.348724 32.876549
13.369143 -107.007042 36.16909
29.584484 -97.851234 27.321144
27.492861 -103.321075 22.594767
24.764872 -108.889572 18.944492
18.070103 -108.381691 26.37261
19.632641 -111.404213 20.705547
21.771799 -114.162247 15.824821
18.838121 -118.873329 12.538612
28.959915 -116.55072 1.367325
23.814484 -120.918808 2.241598
19.682751 -125.605362 -3.399363
20.45092 -100.973579 32.93819
8.02845 -115.007576 23.64539
10.318031 -115.350548 22.64049
8.702148 -116.849815 20.518723
29.532814 -109.889183 14.581644
30.660044 -110.506195 12.580379
26.740709 -114.430618 10.763525
12.975662 -101.967339 45.200985
14.321371 -101.598724 44.299141
14.995246 -104.815773 37.951633
13.365129 -105.378044 39.383762
9.854553 -108.604324 35.43502
24.18169 -102.761597 25.534859
26.42588 -101.530922 24.928257
25.150631 -104.47094 22.969202
26.186476 -106.12014 20.660402
23.727209 -107.372871 21.247553
15.418444 -107.907051 31.224426
17.532412 -106.864388 29.540596
15.776688 -109.423553 27.94722
15.364861 -114.775932 20.346415
17.062498 -112.455811 21.919632
18.000025 -113.943138 19.212549
20.648087 -112.846664 18.19252
19.091162 -115.348442 16.673607
20.281607 -116.59993 14.239058
17.576321 -117.668266 15.050557
30.294926 -114.54554 3.679238
23.962736 -118.802216 6.911457
25.158211 -118.946266 4.343479
22.621475 -120.836449 4.897065
21.325127 -122.701927 2.861435
23.604445 -122.552704 -2.544006
22.13332 -124.105026 -4.460449
11.761805 -101.846939 45.6744
11.94833 -103.680382 43.218086
11.886843 -105.463562 40.472618
10.604719 -105.060257 41.128571
9.027622 -106.087257 38.882538
8.84449 -123.231277 9.819958
26.383965 -96.70163 29.836853
24.379112 -97.923737 30.455002
23.27211 -101.054344 28.387703
21.935715 -104.150238 26.570927
11.653576 -112.034042 27.752274
13.931377 -111.678741 26.312399
12.084692 -113.642143 24.561745
12.785561 -115.263832 21.515205
13.730581 -116.871002 18.634119
14.869668 -118.406601 15.900773
34.337227 -106.937439 15.214439
33.104393 -108.815193 12.793259
31.789951 -110.752724 10.504837
30.435787 -112.745361 8.293064
29.072285 -114.778053 6.107745
27.899025 -114.758087 8.476398
25.339699 -116.653267 8.865414
22.749918 -118.366211 9.406588
5.987562 -114.231911 24.457912
18.561417 -102.50309 34.579926
16.737034 -103.826942 36.301666
15.186413 -106.376465 34.589752
13.402561 -108.585823 32.856789
11.702871 -107.178734 37.478149
11.529446 -108.829285 34.300835
33.213463 -106.369843 17.08098
28.401276 -108.912842 16.54809
31.580267 -97.383263 27.965126
27.509592 -98.621849 27.174711
28.636835 -100.54612 24.806402
29.776005 -102.382248 22.68737
28.596104 -104.994881 20.48815
27.277836 -107.629967 18.546864
25.868759 -110.246384 16.797438
19.11338 -104.025612 31.176834
19.712463 -105.566551 27.945145
20.413576 -107.120865 24.94346
16.317429 -110.940269 24.831741
18.766756 -109.901184 23.423279
21.245605 -108.671204 22.195625
22.208744 -110.178978 19.686161
23.27833 -111.58271 17.36389
24.414818 -112.805992 15.153998
22.954025 -115.2752 13.526382
21.51569 -117.624382 11.836979
18.809998 -121.843132 8.103072
27.610416 -118.537842 -0.925226
27.71451 -116.823578 3.917495
26.362089 -118.840683 1.719473
25.000938 -120.773277 -0.455549
22.478207 -122.732605 0.179888
20.082468 -100.215698 34.674902
20.978157 -99.392646 33.915552
7.590166 -116.522049 20.901547
8.365299 -115.928696 22.082057
7.253317 -115.60093 22.46488
8.000116 -117.514858 19.354734
7.590166 -116.522049 20.901547
28.840293 -111.027992 13.614232
28.269118 -110.625336 14.652763
14.007193 -103.456516 41.815935
14.531588 -102.409126 42.757526
13.796975 -102.646114 43.35755
13.318854 -104.535774 40.89986
14.053468 -104.298786 40.299837
14.007193 -103.456516 41.815935
10.81503 -124.162261 8.275493
11.970894 -124.188831 8.176906
12.429895 -123.475124 9.341966
11.701483 -122.797359 10.694584
11.970894 -124.188831 8.176906
12.429895 -123.475124 9.341966
32.898289 -111.440064 6.065057
32.287372 -111.617687 7.174163
32.260338 -112.375584 4.833115
32.898289 -111.440064 6.065057
30.960653 -113.558846 4.839925
31.594611 -113.362278 3.672429
32.260338 -112.375584 4.833115
20.748316 -121.450074 6.496887
21.362496 -121.627778 5.198133
22.007295 -120.658745 6.195818
20.114525 -125.483059 -4.762899
18.884615 -126.080704 -4.062275
11.282817 -102.513004 44.617612
11.232669 -101.547264 45.682514
10.753681 -102.21333 44.625726
8.566261 -105.479087 38.88417
9.292055 -105.13784 40.096039
8.17708 -106.432914 37.664833
8.566261 -105.479087 38.88417
23.865316 -97.076317 32.053812
24.809114 -96.393276 31.629589
22.222175 -101.798573 29.011957
22.833258 -100.224026 29.954415
21.783323 -100.968254 30.57867
11.677042 -117.915226 18.17671
12.970595 -117.814415 17.685646
12.437029 -116.971813 19.125183
5.125362 -113.636696 24.737671
5.921376 -113.277794 26.052957
16.529037 -103.061645 38.012219
17.360295 -102.414886 37.186571
10.55837 -109.559128 33.292053
10.691999 -108.716804 34.867928
9.720923 -109.446648 33.859146
11.506841 -109.633411 32.664049
10.55837 -109.559128 33.292053
5.921376 -113.277794 26.052957
6.833094 -113.71558 25.656153
33.758747 -105.369843 18.354454
34.328165 -105.742542 17.448886
29.062378 -107.685623 17.540358
29.629171 -108.267277 16.596264
8.562763 -123.755439 8.477569
7.77472 -122.851952 9.921941
30.582375 -97.617249 27.643135
30.95154 -96.335339 29.046646
29.953648 -96.569324 28.724655
30.181266 -98.842094 26.250514
31.179157 -98.608109 26.572505
30.582375 -97.617249 27.643135
19.481496 -119.349064 11.28667
20.82028 -118.724591 10.935853
20.176906 -118.248855 12.187796
15.504441 -119.100899 14.585036
14.164263 -119.369827 14.940447
17.518141 -122.33741 8.386523
18.141385 -121.401649 9.393967
18.210695 -122.739013 7.082005
17.518141 -122.33741 8.386523
29.623558 -116.333332 0.094428
30.28049 -115.33984 1.299189
28.285165 -117.544281 0.221049
28.948808 -117.326893 -1.051848
29.623558 -116.333332 0.094428
20.70245 -123.515064 1.878587
20.119166 -123.410851 3.169119
19.275112 -125.618778 -2.119044
20.402777 -124.960762 -2.570607
19.995137 -124.974178 -1.290288
18.58908 -126.094189 -2.753697
19.275112 -125.618778 -2.119044
18.884615 -126.080704 -4.062275
18.58908 -126.094189 -2.753697
10.332821 -102.699417 43.49835
10.753681 -102.21333 44.625726
10.180159 -103.683746 42.435182
10.332821 -102.699417 43.49835
21.422663 -100.183643 32.229659
20.978157 -99.392646 33.915552
20.81158 -101.75819 31.2872
21.783323 -100.968254 30.57867
21.422663 -100.183643 32.229659
9.18246 -117.768196 19.016463
10.403123 -117.879601 18.565224
9.922812 -116.961219 20.067485
9.18246 -117.768196 19.016463
8.000116 -117.514858 19.354734
29.403908 -111.336498 12.613599
30.096429 -110.197689 13.581012
28.840293 -111.027992 13.614232
28.717239 -112.396385 11.578978
29.973374 -111.566082 11.545757
29.403908 -111.336498 12.613599
27.44424 -113.29871 11.705172
28.013707 -113.528293 10.63733
28.717239 -112.396385 11.578978
26.159313 -114.1021 11.869853
27.44424 -113.29871 11.705172
24.864682 -114.946182 12.100175
25.446078 -115.2747 10.993847
26.159313 -114.1021 11.869853
13.310968 -100.972382 46.169302
12.67897 -101.09726 46.450091
13.983822 -100.788074 45.71838
13.310968 -100.972382 46.169302
13.648516 -101.783031 44.750063
14.663284 -100.428432 45.244355
13.983822 -100.788074 45.71838
15.046082 -101.182613 43.672676
14.663284 -100.428432 45.244355
15.046082 -101.182613 43.672676
14.531588 -102.409126 42.757526
14.868526 -104.017651 39.583773
15.658143 -103.556061 38.837202
14.180187 -105.096908 38.667698
14.868526 -104.017651 39.583773
14.053468 -104.298786 40.299837
9.14558 -108.257992 35.80112
10.046789 -107.736553 36.920642
9.337816 -107.39022 37.286743
8.89687 -109.142605 34.320808
9.14558 -108.257992 35.80112
9.720923 -109.446648 33.859146
8.89687 -109.142605 34.320808
28.981125 -96.833664 28.522754
29.953648 -96.569324 28.724655
30.947995 -114.33725 2.455146
31.594611 -113.362278 3.672429
29.62742 -115.54813 2.523281
30.28049 -115.33984 1.299189
30.947995 -114.33725 2.455146
20.714323 -122.560517 4.180318
21.973301 -121.769188 3.87925
21.362496 -121.627778 5.198133
20.119166 -123.410851 3.169119
20.714323 -122.560517 4.180318
24.182483 -122.368576 -3.910385
24.913095 -121.49701 -2.852216
23.446921 -123.144737 -4.868607
24.182483 -122.368576 -3.910385
22.868882 -123.328865 -3.502228
22.663351 -123.895927 -5.831337
23.446921 -123.144737 -4.868607
21.33981 -124.732891 -5.293442
20.908036 -124.855194 -3.929906
20.114525 -125.483059 -4.762899
22.663351 -123.895927 -5.831337
21.33981 -124.732891 -5.293442
11.497923 -100.920807 46.751362
11.232669 -101.547264 45.682514
12.072041 -101.037059 46.686798
11.497923 -100.920807 46.751362
12.368734 -101.907139 45.437692
12.67897 -101.09726 46.450091
12.072041 -101.037059 46.686798
10.080603 -104.62434 41.219055
10.704274 -104.119664 42.344698
10.180159 -103.683746 42.435182
9.81617 -105.573757 40.005555
10.080603 -104.62434 41.219055
9.292055 -105.13784 40.096039
8.732114 -106.999458 37.524879
9.337816 -107.39022 37.286743
9.633323 -106.478019 38.644402
8.732114 -106.999458 37.524879
8.17708 -106.432914 37.664833
9.28019 -122.588211 11.072676
10.016866 -123.387424 9.676306
10.452566 -122.744358 10.929025
8.121173 -122.312027 11.26097
9.28019 -122.588211 11.072676
7.77472 -122.851952 9.921941
8.121173 -122.312027 11.26097
25.811541 -95.782223 31.320515
26.763735 -95.264961 31.131782
25.381538 -97.312683 30.145927
25.811541 -95.782223 31.320515
24.809114 -96.393276 31.629589
23.386758 -98.658722 30.988065
23.865316 -97.076317 32.053812
23.825611 -99.489041 29.421352
23.386758 -98.658722 30.988065
22.833258 -100.224026 29.954415
13.540139 -118.582214 16.318973
14.300125 -117.638801 17.267446
12.970595 -117.814415 17.685646
14.164263 -119.369827 14.940447
13.540139 -118.582214 16.318973
11.677042 -117.915226 18.17671
10.403123 -117.879601 18.565224
10.452566 -122.744358 10.929025
11.701483 -122.797359 10.694584
34.897075 -107.013099 14.243081
35.449821 -106.175754 15.575616
34.280659 -107.951977 13.032491
34.897075 -107.013099 14.243081
33.72081 -107.876316 14.003849
33.671005 -108.825051 11.774804
34.280659 -107.951977 13.032491
33.013784 -109.793816 10.630592
33.671005 -108.825051 11.774804
32.447172 -109.783958 11.649048
32.369158 -110.707974 9.426276
33.013784 -109.793816 10.630592
31.692076 -111.704292 8.32039
32.369158 -110.707974 9.426276
31.112869 -111.749043 9.39895
31.031084 -112.658756 7.146838
32.287372 -111.617687 7.174163
31.692076 -111.704292 8.32039
5.264619 -114.674999 23.15975
6.232873 -115.213097 22.871141
5.264619 -114.674999 23.15975
5.125362 -113.636696 24.737671
18.272486 -101.752961 36.325701
19.137716 -100.980454 35.49577
17.649226 -103.165016 35.440796
18.272486 -101.752961 36.325701
17.360295 -102.414886 37.186571
15.86614 -104.321358 37.126649
16.529037 -103.061645 38.012219
15.658143 -103.556061 38.837202
12.443399 -109.511681 31.942026
12.466003 -108.707554 33.578812
11.506841 -109.633411 32.664049
12.525306 -110.286286 30.284365
13.484469 -109.360428 31.199127
12.443399 -109.511681 31.942026
11.568906 -111.23579 29.389769
12.609976 -111.084538 28.64687
12.525306 -110.286286 30.284365
10.597389 -111.995521 28.395965
11.568906 -111.23579 29.389769
9.65974 -112.798428 27.419042
10.715926 -112.836948 26.775351
10.597389 -111.995521 28.395965
8.728452 -113.419551 26.326411
9.65974 -112.798428 27.419042
7.853538 -114.103412 25.249892
8.903363 -114.323715 24.721909
8.728452 -113.419551 26.326411
7.008006 -114.619743 24.051651
7.853538 -114.103412 25.249892
6.833094 -113.71558 25.656153
6.232873 -115.213097 22.871141
7.253317 -115.60093 22.46488
7.008006 -114.619743 24.051651
34.890047 -106.026341 16.515615
35.449821 -106.175754 15.575616
33.775345 -106.653641 16.14771
34.890047 -106.026341 16.515615
34.328165 -105.742542 17.448886
32.644256 -105.877327 17.993032
33.758747 -105.369843 18.354454
32.035265 -106.995778 16.862709
32.644256 -105.877327 17.993032
31.420392 -108.019345 15.696561
32.59859 -107.39341 15.914832
32.035265 -106.995778 16.862709
30.194941 -108.755448 15.613041
30.758266 -109.15308 14.665164
31.420392 -108.019345 15.696561
28.967045 -109.401013 15.564867
30.194941 -108.755448 15.613041
29.629171 -108.267277 16.596264
27.70335 -110.137165 15.635986
28.269118 -110.625336 14.652763
28.967045 -109.401013 15.564867
9.642653 -124.006114 8.419145
10.81503 -124.162261 8.275493
10.016866 -123.387424 9.676306
9.642653 -124.006114 8.419145
8.562763 -123.755439 8.477569
31.881854 -96.221588 29.485867
30.95154 -96.335339 29.046646
32.523065 -97.258397 28.502626
31.881854 -96.221588 29.485867
32.197081 -98.365307 26.987231
32.523065 -97.258397 28.502626
32.197081 -98.365307 26.987231
31.179157 -98.608109 26.572505
27.380865 -96.258861 29.780609
26.763735 -95.264961 31.131782
27.943679 -97.218971 28.449538
27.380865 -96.258861 29.780609
26.946779 -97.661739 28.505782
28.547038 -98.236542 27.247927
28.981125 -96.833664 28.522754
27.943679 -97.218971 28.449538
29.707442 -100.189537 24.993143
30.181266 -98.842094 26.250514
29.11066 -99.198677 26.063773
30.277026 -101.107601 23.933627
29.707442 -100.189537 24.993143
29.20642 -101.464184 23.746886
30.870466 -102.016419 22.962011
30.277026 -101.107601 23.933627
30.350731 -103.205345 21.717514
30.870466 -102.016419 22.962011
29.760781 -104.511662 20.617904
30.350731 -103.205345 21.717514
29.186055 -103.688565 21.58776
29.159792 -105.726643 19.510389
29.760781 -104.511662 20.617904
28.500658 -107.044186 18.539746
29.159792 -105.726643 19.510389
27.93697 -106.312424 19.517507
27.839556 -108.271404 17.547477
29.062378 -107.685623 17.540358
28.500658 -107.044186 18.539746
26.437091 -110.803936 15.760659
27.70335 -110.137165 15.635986
27.135018 -109.579613 16.672764
19.506169 -101.738335 33.759058
20.082468 -100.215698 34.674902
19.137716 -100.980454 35.49577
25.710121 -112.08374 14.93894
26.437091 -110.803936 15.760659
25.141789 -111.526188 15.975718
24.996367 -113.289787 14.065089
25.710121 -112.08374 14.93894
24.265971 -114.524391 13.251282
24.996367 -113.289787 14.065089
23.684421 -114.040596 14.34019
23.552736 -115.696991 12.375276
24.864682 -114.946182 12.100175
24.265971 -114.524391 13.251282
21.437394 -119.095505 9.720657
22.132804 -117.995296 10.621783
20.82028 -118.724591 10.935853
20.758992 -120.15292 8.76465
22.071516 -119.423626 8.45058
21.437394 -119.095505 9.720657
16.857768 -118.731731 14.159928
16.222994 -118.037433 15.475665
15.504441 -119.100899 14.585036
17.488667 -119.334263 12.903956
18.207221 -118.270798 13.794584
16.857768 -118.731731 14.159928
18.155446 -119.916748 11.611737
17.488667 -119.334263 12.903956
19.481496 -119.349064 11.28667
18.155446 -119.916748 11.611737
19.467434 -120.833966 9.0689
18.141385 -121.401649 9.393967
20.101556 -121.162087 7.798822
20.758992 -120.15292 8.76465
19.467434 -120.833966 9.0689
19.456758 -122.131119 6.801137
20.748316 -121.450074 6.496887
20.101556 -121.162087 7.798822
19.456758 -122.131119 6.801137
18.210695 -122.739013 7.082005
28.271894 -118.308708 -2.234571
28.948808 -117.326893 -1.051848
26.91608 -119.489578 -2.042826
28.271894 -118.308708 -2.234571
25.611342 -120.607296 -1.807988
26.91608 -119.489578 -2.042826
26.305677 -119.655559 -0.690387
24.302692 -121.662991 -1.499777
24.913095 -121.49701 -2.852216
25.611342 -120.607296 -1.807988
21.27899 -123.530403 0.537813
21.901667 -122.717266 1.520662
20.70245 -123.515064 1.878587
20.601288 -124.322181 -0.423057
21.800505 -123.524383 -0.780982
21.27899 -123.530403 0.537813
19.995137 -124.974178 -1.290288
20.601288 -124.322181 -0.423057
3 122 31 123
3 124 34 125
3 126 125 32
3 124 125 126
3 128 127 34
3 130 129 35
3 0 39 38
3 0 131 133
3 133 132 39
3 131 132 133
3 0 134 136
3 134 41 135
3 134 135 136
3 2 137 138
3 3 45 43
3 3 47 45
3 1 50 48
3 4 53 51
3 4 55 53
3 4 57 55
3 2 139 140
3 2 141 142
3 6 143 144
3 6 145 146
3 6 147 149
3 147 58 148
3 147 148 149
3 5 61 59
3 5 150 152
3 152 151 61
3 150 151 152
3 7 64 63
3 154 153 30
3 8 155 157
3 155 65 156
3 155 156 157
3 8 66 65
3 8 68 66
3 158 69 159
3 161 160 69
3 162 72 163
3 11 164 166
3 164 73 165
3 164 165 166
3 11 74 73
3 12 77 75
3 14 78 33
3 14 79 78
3 14 167 169
3 169 168 79
3 167 168 169
3 15 82 81
3 16 83 36
3 16 84 83
3 16 86 84
3 18 87 37
3 18 88 87
3 171 170 89
3 172 91 173
3 20 92 40
3 20 93 92
3 9 94 67
3 174 95 175
3 176 175 42
3 174 175 176
3 178 177 95
3 179 89 180
3 181 96 182
3 183 97 184
3 186 185 70
3 21 187 189
3 187 98 188
3 187 188 189
3 21 190 192
3 192 191 98
3 190 191 192
3 10 99 71
3 22 100 44
3 22 101 100
3 22 102 101
3 23 103 46
3 23 104 103
3 19 105 90
3 24 106 49
3 24 107 106
3 13 108 76
3 25 109 52
3 25 110 109
3 25 111 110
3 26 112 54
3 26 113 112
3 26 114 113
3 27 115 56
3 27 193 195
3 195 194 115
3 193 194 195
3 197 196 80
3 198 116 199
3 201 200 116
3 28 202 203
3 28 204 206
3 204 117 205
3 204 205 206
3 17 118 85
3 29 119 60
3 29 120 119
3 29 121 120
3 208 207 62
3 209 30 210
3 211 210 7
3 209 210 211
3 212 30 213
3 215 214 30
3 216 8 217
3 219 218 8
3 31 220 221
3 31 222 224
3 222 11 223
3 222 223 224
3 32 33 12
3 34 33 32
3 34 14 33
3 34 225 227
3 227 226 14
3 225 226 227
3 229 228 34
3 35 36 15
3 230 36 231
3 232 231 35
3 230 231 232
3 233 16 234
3 235 234 36
3 233 234 235
3 236 37 237
3 238 237 16
3 236 237 238
3 239 37 240
3 241 18 242
3 243 242 37
3 241 242 243
3 38 244 245
3 39 246 248
3 248 247 38
3 246 247 248
3 39 249 250
3 39 251 252
3 254 253 39
3 255 40 256
3 41 257 259
3 257 40 258
3 257 258 259
3 41 20 40
3 260 42 261
3 262 261 9
3 260 261 262
3 263 42 264
3 266 265 42
3 267 21 268
3 43 44 10
3 45 44 43
3 45 22 44
3 45 46 22
3 47 46 45
3 47 23 46
3 48 49 19
3 50 49 48
3 50 24 49
3 51 52 13
3 53 52 51
3 53 25 52
3 53 54 25
3 55 54 53
3 55 26 54
3 55 56 26
3 57 56 55
3 57 27 56
3 58 269 270
3 58 271 273
3 271 28 272
3 271 272 273
3 59 60 17
3 61 60 59
3 61 29 60
3 61 62 29
3 274 62 275
3 276 275 61
3 274 275 276
3 278 277 62
3 63 279 280
3 64 281 283
3 283 282 63
3 281 282 283
3 64 284 285
3 30 64 7
3 286 64 287
3 288 287 30
3 286 287 288
3 290 289 64
3 65 291 292
3 65 293 294
3 65 295 297
3 295 38 296
3 295 296 297
3 66 38 65
3 66 0 38
3 66 67 0
3 68 67 66
3 68 9 67
3 298 68 299
3 300 299 8
3 298 299 300
3 69 301 303
3 301 68 302
3 301 302 303
3 69 9 68
3 69 304 306
3 306 305 9
3 304 305 306
3 308 307 69
3 309 70 310
3 311 310 2
3 309 310 311
3 312 70 313
3 315 314 70
3 316 71 317
3 72 318 320
3 318 71 319
3 318 319 320
3 72 10 71
3 321 72 322
3 73 323 325
3 323 72 324
3 323 324 325
3 73 10 72
3 73 43 10
3 74 43 73
3 74 3 43
3 75 76 1
3 77 76 75
3 77 13 76
3 33 77 12
3 78 77 33
3 78 13 77
3 78 51 13
3 79 51 78
3 79 4 51
3 79 80 4
3 326 80 327
3 328 327 79
3 326 327 328
3 330 329 80
3 332 331 14
3 333 2 334
3 81 335 336
3 82 337 339
3 339 338 81
3 337 338 339
3 82 340 341
3 36 82 15
3 83 82 36
3 83 342 344
3 344 343 82
3 342 343 344
3 83 345 346
3 84 347 349
3 349 348 83
3 347 348 349
3 84 350 352
3 350 6 351
3 350 351 352
3 84 85 6
3 86 85 84
3 86 17 85
3 37 86 16
3 87 86 37
3 87 17 86
3 87 59 17
3 88 59 87
3 88 5 59
3 89 353 354
3 356 355 89
3 357 90 358
3 91 359 361
3 359 90 360
3 359 360 361
3 91 19 90
3 40 362 364
3 362 91 363
3 362 363 364
3 92 91 40
3 92 19 91
3 92 48 19
3 93 48 92
3 93 1 48
3 67 41 0
3 94 41 67
3 94 20 41
3 42 94 9
3 95 94 42
3 95 20 94
3 95 93 20
3 365 93 366
3 367 366 95
3 365 366 367
3 368 1 369
3 370 369 93
3 368 369 370
3 371 75 372
3 373 372 1
3 371 372 373
3 374 75 375
3 376 12 377
3 378 377 75
3 376 377 378
3 379 12 380
3 381 32 382
3 383 382 12
3 381 382 383
3 89 384 386
3 384 32 385
3 384 385 386
3 89 387 389
3 389 388 32
3 387 388 389
3 390 81 391
3 96 392 394
3 392 81 393
3 392 393 394
3 96 15 81
3 395 96 396
3 397 96 398
3 399 15 400
3 401 400 96
3 399 400 401
3 402 35 403
3 404 403 15
3 402 403 404
3 97 405 407
3 405 35 406
3 405 406 407
3 97 408 410
3 410 409 35
3 408 409 410
3 70 411 413
3 413 412 2
3 411 412 413
3 415 414 70
3 98 416 417
3 98 418 419
3 98 420 421
3 423 422 98
3 71 424 425
3 99 426 428
3 428 427 71
3 426 427 428
3 99 429 431
3 429 21 430
3 429 430 431
3 44 99 10
3 100 99 44
3 100 21 99
3 100 432 434
3 434 433 21
3 432 433 434
3 101 435 437
3 437 436 100
3 435 436 437
3 101 438 439
3 101 440 441
3 102 442 444
3 444 443 101
3 442 443 444
3 102 445 446
3 46 102 22
3 103 102 46
3 103 447 449
3 449 448 102
3 447 448 449
3 103 450 452
3 450 97 451
3 450 451 452
3 104 97 103
3 104 453 455
3 455 454 97
3 453 454 455
3 90 456 458
3 456 31 457
3 456 457 458
3 105 31 90
3 105 11 31
3 49 105 19
3 106 105 49
3 106 11 105
3 106 74 11
3 107 74 106
3 107 3 74
3 76 50 1
3 108 50 76
3 108 24 50
3 52 108 13
3 109 108 52
3 109 24 108
3 109 107 24
3 110 107 109
3 110 3 107
3 110 47 3
3 111 47 110
3 111 23 47
3 54 111 25
3 112 111 54
3 112 23 111
3 112 104 23
3 113 104 112
3 113 459 461
3 461 460 104
3 459 460 461
3 113 462 463
3 114 464 466
3 466 465 113
3 464 465 466
3 114 467 469
3 467 18 468
3 467 468 469
3 56 114 26
3 115 114 56
3 115 18 114
3 115 88 18
3 470 88 471
3 472 471 115
3 470 471 472
3 473 5 474
3 475 474 88
3 473 474 475
3 80 57 4
3 476 57 477
3 478 477 80
3 476 477 478
3 479 27 480
3 481 480 57
3 479 480 481
3 482 27 483
3 485 484 27
3 116 486 487
3 116 488 490
3 488 5 489
3 488 489 490
3 116 491 493
3 493 492 5
3 491 492 493
3 495 494 116
3 117 496 497
3 117 498 499
3 85 58 6
3 118 58 85
3 118 28 58
3 60 118 17
3 119 118 60
3 119 28 118
3 119 117 28
3 120 117 119
3 120 500 502
3 502 501 117
3 500 501 502
3 120 503 505
3 503 63 504
3 503 504 505
3 121 63 120
3 121 7 63
3 62 121 29
3 506 121 507
3 508 507 62
3 506 507 508
3 509 7 510
3 511 510 121
3 509 510 511
3 513 512 7
