ply
format ascii 1.0
element vertex 780
property float x
property float y
property float z
element face 845
property list uchar int vertex_index
end_header
-62.315884 -17.907198 -43.59761
-44.108215 7.119026 -56.67881
-48.552551 -19.99122 -48.145432
-54.715004 -74.522293 -20.293007
-55.546261 -48.833969 -35.993275
-36.408699 2.808485 -58.03315
-52.84655 -83.425293 -13.322186
-60.754177 -33.761993 -41.249744
-53.77689 -34.384087 -42.585415
-55.949074 -19.200155 -49.091866
-54.461662 -4.440782 -51.686432
-46.923225 -6.148543 -55.575035
-39.785145 -9.118815 -52.490578
-41.250294 -22.430843 -44.006615
-62.763969 -61.039906 -24.499348
-55.633617 -62.564529 -28.156464
-47.339684 -49.824242 -35.877884
-45.519737 -35.388405 -40.111782
-63.724998 -32.987045 -38.596527
-61.947899 -25.780165 -42.775066
-58.885803 -26.436653 -45.227673
-59.246765 -18.644455 -46.99704
-49.395569 1.723694 -54.740509
-50.688221 -5.243153 -54.52195
-45.365147 0.546288 -57.066254
-33.280495 -0.40587 -55.987587
-38.106251 -3.073919 -56.034035
-53.947174 -79.346909 -16.732754
-50.679985 -81.398247 -19.075371
-51.128731 -75.976105 -22.274342
-59.194416 -48.616104 -35.007824
-59.436462 -55.506958 -30.879799
-55.735588 -55.8088 -32.174561
-51.841789 -63.070328 -29.403946
-51.869286 -56.133366 -32.957771
-51.591667 -49.122726 -36.217682
-51.683132 -27.017605 -45.442024
-49.697868 -34.712936 -41.538445
-47.688335 -27.493074 -43.838459
-44.770164 -20.881886 -46.095596
-40.011566 5.279408 -58.344131
-29.481354 0.562963 -54.424255
-56.903885 -77.398956 -14.241854
-58.142891 -73.043076 -18.183308
-65.573318 -47.107933 -30.464642
-64.875778 -40.14679 -34.528336
-61.876205 -41.009869 -37.223728
-58.611336 -41.487835 -38.931076
-54.971722 -41.698032 -39.471813
-57.486267 -34.17865 -42.624947
-55.480385 -26.780914 -46.111626
-52.357719 -19.556219 -49.402977
-58.861206 -11.044159 -47.838993
-55.449242 -11.729048 -51.032478
-51.873466 -12.32662 -52.651421
-48.172646 -12.92383 -52.374901
-41.581894 -0.992674 -57.476151
-43.259758 -7.320132 -54.71875
-44.483948 -13.864915 -50.607262
-40.97826 -15.530607 -48.179665
-58.930531 -67.907143 -22.325527
-62.86396 -54.816353 -28.905182
-59.356384 -62.009865 -26.611012
-55.274654 -68.886276 -24.130878
-50.928139 -41.996025 -39.061478
-63.669533 -21.404732 -41.445774
-63.399677 -25.360207 -41.126595
-62.227036 -21.806192 -43.265285
-60.729713 -22.195446 -44.891438
-60.808609 -18.283867 -45.412994
-48.882454 5.090654 -54.22979
-46.748062 4.546267 -55.864136
-47.357483 1.177885 -56.121933
-44.663071 3.869518 -57.101601
-31.869759 -2.335974 -54.512161
-54.363419 -77.036385 -18.480682
-52.338844 -80.351471 -17.900181
-52.645798 -77.898155 -19.552074
-50.905258 -78.792053 -20.635921
-52.921951 -75.236176 -21.277493
-57.407654 -48.744308 -35.607712
-57.547058 -52.24287 -33.632854
-55.680145 -52.341297 -34.119442
-53.821617 -55.937328 -32.621529
-53.755718 -52.453098 -34.447289
-51.771389 -52.636692 -34.635296
-53.607971 -48.942238 -36.187519
-50.246964 -23.428169 -46.812263
-49.691849 -27.205971 -44.705845
-48.288452 -23.68681 -45.946701
-46.3451 -24.069004 -44.972786
-46.642258 -20.35981 -47.164421
-37.065277 9.947214 -57.968956
-30.293165 5.256231 -55.944351
-30.664465 2.832541 -55.885643
-58.209698 -76.442146 -12.839762
-57.588253 -75.314026 -16.191601
-65.76207 -36.089733 -34.940334
-62.900295 -37.031746 -38.009438
-61.38575 -37.40242 -39.2421
-60.283035 -41.298248 -38.221371
-59.805737 -37.674152 -40.187428
-58.13689 -37.852982 -40.806309
-59.169823 -34.013508 -42.119335
-57.563541 -22.792486 -47.182373
-57.234978 -26.64143 -45.88171
-55.859795 -22.981903 -47.705406
-54.062893 -23.123137 -47.784992
-54.190369 -19.391045 -49.474899
-53.941578 -0.91128 -51.50515
-56.304928 -4.106077 -49.791916
-58.494553 -7.385213 -47.90041
-56.767338 -7.701441 -49.837395
-57.177902 -11.390236 -49.589722
-54.983929 -8.055757 -51.526512
-48.798893 -5.679354 -55.296028
-51.332176 -8.772832 -53.785789
-49.480591 -9.129794 -54.21714
-50.032494 -12.607899 -52.741302
-47.624359 -9.514548 -54.157669
-38.146286 4.127056 -58.433998
-40.746681 2.154549 -58.157936
-38.938175 1.09948 -57.938133
-38.977722 -6.065244 -54.415077
-40.679691 -5.011683 -55.529137
-41.49472 -8.117159 -53.72538
-43.9613 -10.547112 -52.778183
-42.18787 -11.298564 -51.6493
-42.699253 -14.590019 -49.42495
-40.470947 -12.265776 -50.371635
-64.011703 -63.18771 -20.894501
-62.545212 -63.90451 -22.253593
-60.927292 -64.531143 -23.44009
-64.113373 -47.635124 -31.882534
-64.319191 -51.019459 -29.788776
-62.7551 -51.497841 -31.041149
-57.600967 -59.054783 -29.53035
-59.438816 -58.8204 -28.756992
-57.5168 -62.322617 -27.436813
-57.358856 -65.457703 -25.342621
-55.483002 -65.796738 -26.131664
-53.405743 -69.320343 -24.95237
-53.597275 -66.115463 -26.869591
-49.942848 -63.450508 -29.94405
-47.603073 -53.368011 -34.626476
-54.47049 -38.061256 -41.069733
-52.995674 -41.813408 -39.360233
-52.47575 -38.181641 -40.794598
-47.599281 -35.004456 -40.838531
-48.268661 -38.645279 -39.762794
-42.642166 -25.258623 -43.034222
-65.715759 -28.489033 -37.243832
-65.134918 -32.515965 -36.959446
-64.357422 -28.934271 -39.020771
-62.932907 -29.382092 -40.672089
-61.462959 -29.782089 -42.109268
-59.936562 -30.101109 -43.246548
-60.448685 -26.148155 -44.171329
-59.18071 -22.53112 -46.225918
-57.631149 -18.954325 -48.250664
-51.449738 2.16889 -52.996323
-51.986748 -1.287546 -53.33577
-52.580605 -4.827974 -53.29364
-50.018478 -1.73741 -54.840424
-48.065216 -2.241865 -55.935158
-46.144146 -2.798567 -56.55619
-34.790745 1.304403 -57.191589
-53.446156 -81.468414 -15.02496
-51.549416 -84.678452 -14.716908
-51.980835 -82.604782 -16.300243
-48.994518 -82.502991 -20.282757
-49.168167 -79.741943 -21.751926
-49.359192 -76.774651 -23.296913
-60.908936 -48.401947 -34.181652
-61.093872 -51.858028 -32.10397
-59.35397 -52.097824 -32.966389
-57.610741 -55.68581 -31.601833
-55.719139 -59.224464 -30.179157
-53.736885 -62.792976 -28.805786
-53.813766 -59.390106 -30.732388
-51.891579 -59.615189 -31.205498
-49.943298 -59.952404 -31.593288
-49.869194 -56.445862 -33.184135
-49.721592 -52.935581 -34.69458
-49.499176 -49.412773 -36.108566
-52.856117 -30.689104 -44.036793
-51.77005 -34.513279 -42.147884
-50.849144 -30.83778 -43.444073
-48.801743 -31.06735 -42.697952
-46.755772 -31.398552 -41.887352
-45.713089 -27.899298 -42.932152
-44.452431 -24.594147 -43.981968
-42.964691 -21.574583 -45.025536
-41.54203 9.36688 -57.162781
-42.003357 6.276785 -57.75103
-39.447563 8.327955 -58.047279
-37.499931 7.100597 -58.438705
-34.07016 4.090132 -57.740128
-32.572506 2.29347 -56.736076
-31.203547 0.291258 -55.397339
-54.040558 -82.232468 -11.884289
-54.817009 -80.375046 -13.708483
-55.47686 -78.36676 -15.528709
-56.022202 -76.181183 -17.377365
-56.468887 -73.800034 -19.279011
-66.88855 -46.538994 -28.922295
-66.633484 -43.127602 -30.951824
-65.278305 -43.664085 -32.507996
-63.808147 -44.160187 -33.938015
-64.363007 -36.580837 -36.55146
-63.406612 -40.618935 -35.974564
-60.642063 -44.877285 -36.220016
-58.95293 -45.076893 -36.997589
-57.181263 -45.198429 -37.513611
-55.318748 -45.287857 -37.780186
-56.84407 -41.606255 -39.342186
-56.360458 -37.967506 -41.091591
-55.688187 -34.287754 -42.767319
-58.327759 -30.328979 -44.017784
-56.613678 -30.479191 -44.391743
-54.786327 -30.584595 -44.380386
-53.623383 -26.891144 -45.942581
-52.183365 -23.255947 -47.460331
-50.468826 -19.739443 -48.92907
-60.475761 -10.728778 -45.879581
-60.714714 -14.45048 -45.742836
-59.125786 -14.806419 -47.53545
-57.484421 -15.147505 -49.058182
-55.792717 -15.446543 -50.213882
-53.1688 -8.417177 -52.87101
-53.680946 -12.040842 -52.074814
-54.04422 -15.697612 -50.92765
-52.23735 -15.916315 -51.165459
-50.382317 -16.137142 -50.944313
-48.500641 -16.407707 -50.32975
-42.657089 3.072773 -57.87883
-43.436512 -0.1717 -57.522316
-44.267185 -3.422812 -56.676125
-39.80558 -1.947161 -56.957359
-42.443657 -4.146174 -56.313293
-45.072781 -6.680757 -55.364929
-45.778774 -9.969706 -53.650055
-46.315353 -13.32501 -51.628304
-46.6203 -16.78072 -49.422516
-44.769661 -17.304596 -48.337414
-42.973614 -18.013918 -47.180149
-41.253189 -18.922174 -46.028862
-58.585205 -70.574875 -20.228634
-56.834602 -71.215263 -21.244831
-65.75679 -50.451698 -28.372711
-64.417709 -54.287403 -27.641644
-62.86898 -58.004768 -26.722214
-61.194916 -55.224838 -29.985394
-61.204731 -58.476665 -27.828053
-61.116699 -61.58662 -25.640789
-59.18697 -65.046776 -24.459953
-57.130463 -68.429817 -23.271229
-55.017147 -71.802162 -22.178589
-53.176506 -72.370636 -23.081158
-51.350151 -72.964233 -23.989826
-51.725826 -66.472252 -27.581318
-53.362755 -45.398865 -37.826878
-51.317375 -45.579865 -37.693104
-49.194275 -45.862263 -37.41927
-50.397793 -38.368599 -40.335537
-48.791496 -42.272415 -38.631672
-47.01553 -46.252678 -37.038914
-45.203102 7.456583 -55.92884
-43.932935 8.661141 -56.251198
-45.428139 5.832647 -56.271473
-46.523026 6.170203 -55.521504
-45.203102 7.456583 -55.92884
-32.247582 -3.685736 -53.896385
-31.215469 -3.41071 -53.682125
-29.650222 5.204051 -55.193283
-30.211793 6.384097 -55.752018
-29.723782 4.093409 -55.293949
-29.650222 5.204051 -55.193283
-66.111404 -34.071842 -35.081169
-66.406052 -35.850649 -34.092981
-61.069964 -35.582206 -40.245922
-61.82544 -35.408619 -39.647774
-61.509653 -33.588405 -40.651596
-51.939718 -85.012764 -13.215296
-52.499637 -84.336403 -12.454292
-62.65459 -62.472208 -23.37647
-63.406655 -62.145168 -22.717165
-63.516033 -60.712866 -23.840043
-62.653133 -49.786448 -32.087089
-63.434236 -49.566482 -31.461841
-63.33227 -47.855089 -32.507782
-48.974575 -65.471337 -29.408938
-48.979416 -63.709095 -30.168045
-46.381804 -51.873014 -35.151085
-46.513498 -53.644899 -34.525381
-47.471379 -51.596126 -35.25218
-46.238179 -50.082068 -35.706136
-46.381804 -51.873014 -35.151085
-45.824909 -37.200661 -39.62276
-46.864681 -37.008686 -39.986135
-46.559509 -35.19643 -40.475156
-44.776443 -37.419411 -39.297629
-45.824909 -37.200661 -39.62276
-44.514431 -35.616249 -39.753151
-44.776443 -37.419411 -39.297629
-41.095482 -24.23237 -43.081226
-41.791418 -25.64626 -42.59503
-41.94623 -23.844733 -43.520418
-40.449388 -22.924919 -43.532299
-41.095482 -24.23237 -43.081226
-64.575783 -26.934657 -39.170731
-65.036591 -28.711652 -38.132301
-65.254952 -26.712038 -38.282261
-34.446484 -0.968823 -56.091545
-35.201609 -0.113686 -56.693546
-34.03562 0.449267 -56.589588
-50.558768 -82.59695 -18.325659
-51.388197 -82.073563 -17.738064
-51.509415 -80.874859 -18.487776
-49.756241 -83.224148 -18.977156
-50.558768 -82.59695 -18.325659
-49.837252 -81.950619 -19.679064
-48.913507 -83.77652 -19.580849
-49.756241 -83.224148 -18.977156
-40.32901 10.286734 -57.229259
-41.432966 10.798658 -56.654343
-39.281776 9.767272 -57.671509
-40.494796 8.847417 -57.60503
-40.32901 10.286734 -57.229259
-36.347279 7.785903 -58.290176
-37.282604 8.523905 -58.20383
-36.129952 9.209212 -58.055301
-36.604305 6.394989 -58.383136
-36.347279 7.785903 -58.290176
-33.037184 4.500084 -57.392849
-33.79006 5.440247 -57.780254
-32.288357 3.601753 -56.890823
-33.321333 3.191801 -57.238102
-33.037184 4.500084 -57.392849
-29.720332 -0.676581 -54.118358
-30.581428 -0.812433 -54.6049
-30.34245 0.427111 -54.910797
-54.585001 -81.664422 -11.128207
-53.604637 -83.101021 -10.954007
-56.492306 -78.358253 -13.276581
-57.145212 -77.879848 -12.575535
-57.556792 -76.920551 -13.540808
-55.860447 -78.887001 -13.975168
-55.448868 -79.846298 -13.009895
-56.492306 -78.358253 -13.276581
-67.065369 -41.132721 -31.120882
-67.221924 -42.866116 -30.136026
-65.077042 -41.905438 -33.518166
-65.768451 -41.649681 -32.727508
-65.567188 -39.891034 -33.737679
-62.067577 -42.791136 -36.206981
-62.83278 -42.595669 -35.5824
-62.641408 -40.814402 -36.599146
-61.259134 -42.943577 -36.721872
-61.450506 -44.724844 -35.705126
-62.067577 -42.791136 -36.206981
-38.955916 -2.51054 -56.495697
-38.51751 -1.03303 -57.108413
-37.667845 -1.596409 -56.646752
-50.674771 -86.354805 -14.667808
-50.850869 -85.338562 -15.410815
-63.817781 -64.502004 -19.748276
-63.109634 -64.888045 -20.45102
-58.757868 -69.241009 -21.277081
-59.609562 -68.934089 -20.738028
-59.782225 -67.600223 -21.786474
-51.452991 -71.374046 -24.878428
-52.377947 -71.142288 -24.471098
-52.480788 -69.552101 -25.359699
-50.452923 -73.294025 -24.450424
-51.452991 -71.374046 -24.878428
-47.705368 -42.459017 -38.374821
-48.530079 -40.458847 -39.197233
-47.44395 -40.645449 -38.940382
-46.817385 -44.449148 -37.578442
-47.903513 -44.262546 -37.835293
-47.705368 -42.459017 -38.374821
-45.916796 -46.491749 -36.806183
-46.817385 -44.449148 -37.578442
-63.534605 -23.382469 -41.286185
-64.096911 -25.147625 -40.223642
-64.231839 -23.169888 -40.383232
-47.590221 6.442397 -54.70433
-48.705219 6.685577 -53.773487
-47.815258 4.818461 -55.046963
-47.590221 6.442397 -54.70433
-46.523026 6.170203 -55.521504
-32.974221 -2.750991 -54.675263
-33.679589 -1.785939 -55.412976
-32.575127 -1.370922 -55.249874
-32.974221 -2.750991 -54.675263
-32.247582 -3.685736 -53.896385
-36.980423 11.253103 -57.511764
-38.090633 10.576901 -57.632347
-35.99535 10.50742 -57.731174
-36.980423 11.253103 -57.511764
-36.129952 9.209212 -58.055301
-35.99535 10.50742 -57.731174
-30.960186 6.326871 -56.421825
-30.211793 6.384097 -55.752018
-31.148686 5.083133 -56.49496
-30.960186 6.326871 -56.421825
-30.478815 4.044386 -55.914997
-31.334336 3.871288 -56.465606
-31.148686 5.083133 -56.49496
-29.909433 2.881565 -55.264595
-30.478815 4.044386 -55.914997
-29.723782 4.093409 -55.293949
-29.317877 1.746776 -54.533901
-30.07291 1.697752 -55.154949
-29.909433 2.881565 -55.264595
-59.275023 -74.990303 -13.139142
-58.792754 -75.973682 -12.076449
-58.622363 -75.436039 -13.861951
-59.275023 -74.990303 -13.139142
-57.969456 -75.914444 -14.562997
-57.556792 -76.920551 -13.540808
-58.622363 -75.436039 -13.861951
-58.31164 -74.871979 -15.537871
-57.246069 -76.356491 -15.216727
-57.969456 -75.914444 -14.562997
-58.645846 -73.777565 -16.576727
-58.31164 -74.871979 -15.537871
-58.923164 -72.64209 -17.572581
-57.865572 -74.178551 -17.187455
-58.645846 -73.777565 -16.576727
-66.010334 -37.862505 -33.943677
-66.406052 -35.850649 -34.092981
-65.318924 -38.118262 -34.734335
-65.567188 -39.891034 -33.737679
-66.010334 -37.862505 -33.943677
-62.582712 -35.223282 -39.031443
-63.312646 -35.009395 -38.302982
-62.995064 -33.200931 -39.324988
-62.143023 -37.217083 -38.625769
-62.582712 -35.223282 -39.031443
-61.82544 -35.408619 -39.647774
-54.889632 -0.776034 -50.47015
-53.70804 0.78749 -51.23798
-56.071306 -2.373432 -49.613533
-54.889632 -0.776034 -50.47015
-55.123253 -2.508678 -50.648533
-57.185032 -3.983989 -48.745735
-56.071306 -2.373432 -49.613533
-57.399741 -5.745645 -48.846163
-58.279845 -5.623557 -47.799982
-57.185032 -3.983989 -48.745735
-64.1399 -61.786768 -22.037619
-64.804955 -61.42593 -21.29842
-63.278458 -63.54611 -21.574047
-64.1399 -61.786768 -22.037619
-63.406655 -62.145168 -22.717165
-62.376389 -65.246444 -21.130565
-63.109634 -64.888045 -20.45102
-63.278458 -63.54611 -21.574047
-61.589565 -65.598907 -21.750507
-62.376389 -65.246444 -21.130565
-60.780606 -65.912224 -22.343756
-61.589565 -65.598907 -21.750507
-61.736252 -64.217827 -22.846842
-59.928911 -66.219143 -22.882809
-59.782225 -67.600223 -21.786474
-60.780606 -65.912224 -22.343756
-52.576554 -67.949661 -26.31831
-52.480788 -69.552101 -25.359699
-53.501509 -67.717903 -25.910981
-49.906364 -65.184963 -29.103023
-50.855835 -64.994873 -28.832971
-50.892319 -63.260418 -29.673998
-49.906364 -65.184963 -29.103023
-48.974575 -65.471337 -29.408938
-46.6402 -55.428436 -33.934549
-47.70536 -55.133815 -33.956674
-46.6402 -55.428436 -33.934549
-46.513498 -53.644899 -34.525381
-47.199371 -38.829098 -39.448267
-47.933971 -36.824867 -40.300663
-46.864681 -37.008686 -39.986135
-47.44395 -40.645449 -38.940382
-47.199371 -38.829098 -39.448267
-42.320906 -27.150157 -42.131022
-43.223709 -26.841104 -42.542866
-42.320906 -27.150157 -42.131022
-41.791418 -25.64626 -42.59503
-65.425339 -30.502499 -37.101639
-65.797829 -32.284958 -36.090725
-66.088249 -30.271492 -36.232918
-63.878549 -27.147239 -40.073683
-64.575783 -26.934657 -39.170731
-64.096911 -25.147625 -40.223642
-62.599018 -31.398455 -40.362769
-62.995064 -33.200931 -39.324988
-63.328952 -31.184569 -39.634308
-61.864044 -31.598453 -41.081358
-62.599018 -31.398455 -40.362769
-62.197933 -29.58209 -41.390678
-61.108568 -31.772041 -41.679506
-61.509653 -33.588405 -40.651596
-61.864044 -31.598453 -41.081358
-49.951656 5.28489 -53.251389
-48.705219 6.685577 -53.773487
-51.235298 3.824008 -52.634655
-49.951656 5.28489 -53.251389
-50.166096 3.629772 -53.613056
-52.46212 2.327576 -51.983566
-51.235298 3.824008 -52.634655
-52.695658 0.628805 -52.250737
-53.70804 0.78749 -51.23798
-52.46212 2.327576 -51.983566
-36.010092 0.592753 -57.225528
-36.819069 1.344793 -57.646309
-35.599722 2.056444 -57.612369
-36.010092 0.592753 -57.225528
-35.201609 -0.113686 -56.693546
-36.859362 -2.302847 -56.114769
-37.667845 -1.596409 -56.646752
-34.446484 -0.968823 -56.091545
-33.679589 -1.785939 -55.412976
-37.292738 -3.742392 -55.41626
-36.859362 -2.302847 -56.114769
-37.728473 -5.238054 -54.606781
-38.541987 -4.569581 -55.224556
-37.292738 -3.742392 -55.41626
-38.157852 -6.705426 -53.74422
-37.728473 -5.238054 -54.606781
-38.561563 -8.232212 -52.781971
-39.381433 -7.592029 -53.452827
-38.157852 -6.705426 -53.74422
-38.960811 -9.738839 -51.802975
-38.561563 -8.232212 -52.781971
-51.066578 -84.301727 -16.202482
-50.850869 -85.338562 -15.410815
-51.765125 -83.641617 -15.508575
-51.209193 -83.200218 -16.938095
-52.15984 -81.478127 -17.100212
-51.388197 -82.073563 -17.738064
-51.066578 -84.301727 -16.202482
-51.209193 -83.200218 -16.938095
-48.083902 -84.435563 -20.244335
-48.913507 -83.77652 -19.580849
-48.14285 -83.087738 -20.897316
-48.083902 -84.435563 -20.244335
-48.229675 -81.707214 -21.631901
-48.14285 -83.087738 -20.897316
-49.081342 -81.122467 -21.017342
-48.303749 -80.252094 -22.316692
-48.229675 -81.707214 -21.631901
-48.399262 -78.768448 -23.089185
-48.303749 -80.252094 -22.316692
-49.263679 -78.258297 -22.52442
-48.484999 -77.214275 -23.807747
-48.399262 -78.768448 -23.089185
-63.583012 -59.227686 -24.967791
-63.516033 -60.712866 -23.840043
-61.001404 -50.129987 -33.142811
-61.822519 -49.966541 -32.6185
-61.730052 -48.238501 -33.657341
-48.979641 -61.960043 -30.992664
-48.979416 -63.709095 -30.168045
-49.943073 -61.701456 -30.768669
-48.945674 -60.192299 -31.731573
-48.979641 -61.960043 -30.992664
-48.908622 -58.439028 -32.526996
-48.945674 -60.192299 -31.731573
-49.906246 -58.199133 -32.388711
-48.838421 -56.672741 -33.235504
-48.908622 -58.439028 -32.526996
-48.76462 -54.9176 -33.990727
-48.838421 -56.672741 -33.235504
-49.795393 -54.690721 -33.939357
-48.662333 -53.151796 -34.660528
-47.70536 -55.133815 -33.956674
-48.76462 -54.9176 -33.990727
-45.755669 -31.615049 -41.482776
-45.137652 -33.609975 -40.594991
-46.137754 -33.393479 -40.999567
-45.234327 -29.865422 -42.005177
-45.755669 -31.615049 -41.482776
-46.234431 -29.648925 -42.409752
-44.75917 -28.161441 -42.491831
-45.234327 -29.865422 -42.005177
-44.128842 -26.508865 -43.016739
-44.75917 -28.161441 -42.491831
-45.08276 -26.246723 -43.45706
-43.547298 -24.926385 -43.508095
-43.223709 -26.841104 -42.542866
-44.128842 -26.508865 -43.016739
-42.649843 9.785068 -56.493184
-41.432966 10.798658 -56.654343
-42.825122 8.242953 -56.920795
-43.932935 8.661141 -56.251198
-42.649843 9.785068 -56.493184
-38.25642 9.137584 -58.008117
-39.281776 9.767272 -57.671509
-38.090633 10.576901 -57.632347
-36.927482 4.908219 -58.380783
-37.823109 5.613827 -58.436352
-36.604305 6.394989 -58.383136
-36.058689 4.248933 -58.180359
-37.277493 3.46777 -58.233574
-36.927482 4.908219 -58.380783
-34.88942 4.889756 -58.033848
-33.79006 5.440247 -57.780254
-35.239429 3.449308 -57.886639
-36.058689 4.248933 -58.180359
-34.88942 4.889756 -58.033848
-31.618485 2.563006 -56.310859
-32.288357 3.601753 -56.890823
-31.334336 3.871288 -56.465606
-30.914534 -2.126049 -54.162312
-31.536653 -1.022358 -54.95475
-30.581428 -0.812433 -54.6049
-31.215469 -3.41071 -53.682125
-30.914534 -2.126049 -54.162312
-53.096641 -83.739991 -11.735343
-53.604637 -83.101021 -10.954007
-53.443554 -82.82888 -12.603238
-52.499637 -84.336403 -12.454292
-53.096641 -83.739991 -11.735343
-57.718019 -77.369415 -11.824526
-58.792754 -75.973682 -12.076449
-57.718019 -77.369415 -11.824526
-57.145212 -77.879848 -12.575535
-55.060643 -80.775009 -12.097798
-54.585001 -81.664422 -11.128207
-54.428783 -81.303757 -12.796386
-55.060643 -80.775009 -12.097798
-55.448868 -79.846298 -13.009895
-67.349457 -44.571812 -29.121262
-67.442025 -46.261032 -28.111456
-66.761017 -44.833298 -29.937059
-67.349457 -44.571812 -29.121262
-67.221924 -42.866116 -30.136026
-66.446041 -41.381439 -31.949422
-67.065369 -41.132721 -31.120882
-65.955894 -43.395843 -31.72991
-66.446041 -41.381439 -31.949422
-65.768451 -41.649681 -32.727508
-63.179657 -46.117621 -33.535522
-63.33227 -47.855089 -32.507782
-63.96076 -45.897655 -32.910274
-65.448494 -34.302849 -35.94989
-66.111404 -34.071842 -35.081169
-65.797829 -32.284958 -36.090725
-63.033548 -44.366295 -34.564125
-63.60738 -42.389561 -34.956289
-62.83278 -42.595669 -35.5824
-63.179657 -46.117621 -33.535522
-63.033548 -44.366295 -34.564125
-61.583942 -46.487175 -34.685944
-61.730052 -48.238501 -33.657341
-60.775499 -46.639616 -35.200834
-61.583942 -46.487175 -34.685944
-61.450506 -44.724844 -35.705126
-66.331612 -28.296688 -36.33107
-66.088249 -30.271492 -36.232918
-65.899872 -26.525609 -37.343393
-66.331612 -28.296688 -36.33107
-65.254952 -26.712038 -38.282261
-65.899872 -26.525609 -37.343393
-64.345303 -21.225465 -40.485473
-64.231839 -23.169888 -40.383232
-63.704864 -19.48497 -41.546751
-64.345303 -21.225465 -40.485473
-63.02804 -17.736203 -42.622669
-62.992708 -19.655965 -42.521692
-63.704864 -19.48497 -41.546751
-28.843288 0.500465 -53.751689
-29.317877 1.746776 -54.533901
-28.968957 -0.661074 -53.584744
-28.843288 0.500465 -53.751689
-29.720332 -0.676581 -54.118358
-28.968957 -0.661074 -53.584744
-62.271368 -16.015847 -43.688583
-63.02804 -17.736203 -42.622669
-59.30703 -7.268263 -46.85298
-58.279845 -5.623557 -47.799982
-60.297634 -8.940046 -45.842565
-59.30703 -7.268263 -46.85298
-59.485157 -9.056995 -46.889995
-61.224426 -10.611486 -44.839704
-60.297634 -8.940046 -45.842565
-61.351306 -12.426637 -44.829569
-61.224426 -10.611486 -44.839704
-61.470783 -14.287488 -44.761196
-61.351306 -12.426637 -44.829569
-60.595237 -12.589629 -45.811208
-61.515299 -16.178839 -44.670223
-62.271368 -16.015847 -43.688583
-61.470783 -14.287488 -44.761196
-38.083807 0.490291 -57.5988
-37.673437 1.953982 -57.985641
-36.819069 1.344793 -57.646309
-39.371877 -0.42384 -57.447746
-38.083807 0.490291 -57.5988
-38.51751 -1.03303 -57.108413
-39.303713 -11.31232 -50.743504
-40.128046 -10.692296 -51.431106
-38.960811 -9.738839 -51.802975
-39.645961 -12.86897 -49.702629
-39.303713 -11.31232 -50.743504
-39.899618 -14.501385 -48.606644
-40.724604 -13.898191 -49.27565
-39.645961 -12.86897 -49.702629
-40.157167 -16.112903 -47.559058
-39.899618 -14.501385 -48.606644
-40.294632 -17.808686 -46.483656
-41.115724 -17.226391 -47.104264
-40.157167 -16.112903 -47.559058
-40.440413 -19.470726 -45.477175
-40.294632 -17.808686 -46.483656
-40.438965 -21.225061 -44.466051
-41.251741 -20.676508 -45.017738
-40.440413 -19.470726 -45.477175
-40.449388 -22.924919 -43.532299
-40.438965 -21.225061 -44.466051
-51.291151 -85.639343 -13.912657
-51.939718 -85.012764 -13.215296
-52.197983 -84.051873 -14.019547
-51.291151 -85.639343 -13.912657
-50.674771 -86.354805 -14.667808
-64.654182 -62.804661 -20.138298
-64.804955 -61.42593 -21.29842
-64.654182 -62.804661 -20.138298
-63.817781 -64.502004 -19.748276
-59.186615 -71.453484 -18.633413
-58.923164 -72.64209 -17.572581
-59.407772 -70.219384 -19.656076
-59.609562 -68.934089 -20.738028
-58.364048 -71.808976 -19.205971
-59.186615 -71.453484 -18.633413
-59.407772 -70.219384 -19.656076
-66.956086 -48.190811 -27.876215
-67.442025 -46.261032 -28.111456
-66.390206 -50.147163 -27.601423
-66.956086 -48.190811 -27.876215
-66.32267 -48.495346 -28.647503
-65.790336 -52.061159 -27.293762
-66.390206 -50.147163 -27.601423
-65.120796 -53.979011 -26.928228
-65.790336 -52.061159 -27.293762
-65.087249 -52.369551 -28.007177
-64.409882 -55.851434 -26.538939
-65.120796 -53.979011 -26.928228
-63.635517 -57.710117 -26.079224
-64.409882 -55.851434 -26.538939
-63.643344 -56.146085 -27.181929
-62.816474 -59.522337 -25.610781
-63.583012 -59.227686 -24.967791
-63.635517 -57.710117 -26.079224
-61.924486 -51.677934 -31.572559
-62.653133 -49.786448 -32.087089
-61.822519 -49.966541 -32.6185
-49.457443 -75.199234 -24.103967
-50.354671 -74.869442 -23.643369
-50.452923 -73.294025 -24.450424
-48.484999 -77.214275 -23.807747
-49.457443 -75.199234 -24.103967
-51.640829 -68.128056 -26.674174
-52.576554 -67.949661 -26.31831
-52.661551 -66.293858 -27.225454
-50.797854 -66.695835 -27.921658
-51.783807 -64.77129 -28.492632
-50.855835 -64.994873 -28.832971
-50.730097 -68.398441 -27.078076
-50.797854 -66.695835 -27.921658
-51.640829 -68.128056 -26.674174
-50.730097 -68.398441 -27.078076
-46.076102 -48.296286 -36.286651
-46.238179 -50.082068 -35.706136
-47.177607 -48.03846 -36.458399
-46.076102 -48.296286 -36.286651
-45.916796 -46.491749 -36.806183
-44.514431 -35.616249 -39.753151
-45.137652 -33.609975 -40.594991
3 0 67 65
3 0 69 67
3 1 267 268
3 1 269 271
3 269 71 270
3 269 270 271
3 1 73 71
3 273 272 74
3 3 77 75
3 3 79 77
3 4 82 80
3 4 84 82
3 4 86 84
3 2 89 87
3 2 91 89
3 274 93 275
3 277 276 93
3 278 97 279
3 7 280 282
3 280 99 281
3 280 281 282
3 7 101 99
3 7 103 101
3 9 106 104
3 9 108 106
3 10 110 109
3 10 112 110
3 10 114 112
3 11 117 115
3 11 119 117
3 5 122 120
3 12 125 123
3 12 127 125
3 12 129 127
3 6 283 284
3 14 285 287
3 285 131 286
3 285 286 287
3 14 132 131
3 288 135 289
3 290 289 133
3 288 289 290
3 15 138 136
3 15 140 138
3 15 142 140
3 292 291 143
3 16 293 295
3 295 294 144
3 293 294 295
3 16 296 297
3 8 147 145
3 17 298 300
3 300 299 148
3 298 299 300
3 17 301 302
3 17 303 304
3 13 305 307
3 307 306 150
3 305 306 307
3 13 308 309
3 310 153 311
3 312 311 151
3 310 311 312
3 19 154 66
3 19 155 154
3 19 157 155
3 21 158 68
3 21 159 158
3 22 160 70
3 22 161 160
3 22 163 161
3 24 164 72
3 24 165 164
3 25 313 315
3 315 314 166
3 313 314 315
3 27 169 167
3 28 316 318
3 318 317 76
3 316 317 318
3 28 319 320
3 28 321 323
3 321 170 322
3 321 322 323
3 29 171 78
3 29 172 171
3 30 175 173
3 32 176 81
3 32 177 176
3 32 179 177
3 34 180 83
3 34 181 180
3 34 182 181
3 35 183 85
3 35 184 183
3 36 187 185
3 38 188 88
3 38 189 188
3 38 190 189
3 39 191 90
3 39 192 191
3 324 193 325
3 326 195 327
3 328 327 193
3 326 327 328
3 329 196 330
3 331 330 92
3 329 330 331
3 333 332 196
3 334 197 335
3 336 198 337
3 338 337 197
3 336 337 338
3 41 199 94
3 41 339 341
3 341 340 199
3 339 340 341
3 342 200 343
3 42 344 346
3 346 345 95
3 344 345 346
3 42 347 349
3 347 201 348
3 347 348 349
3 42 202 201
3 43 203 96
3 43 204 203
3 350 206 351
3 45 352 354
3 352 207 353
3 352 353 354
3 45 208 207
3 18 209 152
3 46 210 98
3 46 355 357
3 357 356 210
3 355 356 357
3 46 358 360
3 358 211 359
3 358 359 360
3 47 212 100
3 47 213 212
3 47 215 213
3 49 216 102
3 49 217 216
3 20 218 156
3 50 219 105
3 50 220 219
3 50 221 220
3 51 222 107
3 51 223 222
3 52 224 111
3 52 225 224
3 52 226 225
3 53 227 113
3 53 228 227
3 23 229 162
3 54 230 116
3 54 231 230
3 54 232 231
3 55 233 118
3 55 234 233
3 40 235 194
3 56 236 121
3 56 237 236
3 26 361 363
3 361 238 362
3 361 362 363
3 57 239 124
3 57 240 239
3 57 241 240
3 58 242 126
3 58 243 242
3 58 244 243
3 59 245 128
3 59 246 245
3 365 364 168
3 367 366 130
3 60 368 370
3 368 247 369
3 368 369 370
3 60 248 247
3 44 249 205
3 61 250 134
3 61 251 250
3 31 252 174
3 62 253 137
3 62 254 253
3 62 255 254
3 63 256 139
3 63 257 256
3 63 258 257
3 371 259 372
3 373 372 141
3 371 372 373
3 375 374 259
3 33 260 178
3 48 261 214
3 64 262 146
3 64 263 262
3 37 264 186
3 376 265 377
3 378 377 149
3 376 377 378
3 379 266 380
3 381 380 265
3 379 380 381
3 383 382 266
3 65 384 386
3 384 66 385
3 384 385 386
3 67 66 65
3 67 19 66
3 67 68 19
3 69 68 67
3 69 21 68
3 387 70 388
3 71 389 391
3 389 70 390
3 389 390 391
3 71 22 70
3 71 72 22
3 73 72 71
3 73 24 72
3 74 392 394
3 394 393 25
3 392 393 394
3 396 395 74
3 75 76 27
3 77 76 75
3 77 28 76
3 77 78 28
3 79 78 77
3 79 29 78
3 80 81 30
3 82 81 80
3 82 32 81
3 82 83 32
3 84 83 82
3 84 34 83
3 84 85 34
3 86 85 84
3 86 35 85
3 87 88 36
3 89 88 87
3 89 38 88
3 89 90 38
3 91 90 89
3 91 39 90
3 397 92 398
3 399 92 400
3 402 401 92
3 93 403 404
3 93 405 406
3 93 407 409
3 407 94 408
3 407 408 409
3 410 94 411
3 412 411 93
3 410 411 412
3 413 41 414
3 415 414 94
3 413 414 415
3 416 95 417
3 418 95 419
3 420 42 421
3 422 421 95
3 420 421 422
3 423 96 424
3 425 424 42
3 423 424 425
3 426 96 427
3 428 43 429
3 430 429 96
3 428 429 430
3 97 431 432
3 97 433 435
3 433 45 434
3 433 434 435
3 436 98 437
3 438 437 18
3 436 437 438
3 99 439 441
3 439 98 440
3 439 440 441
3 99 46 98
3 99 100 46
3 101 100 99
3 101 47 100
3 101 102 47
3 103 102 101
3 103 49 102
3 104 105 20
3 106 105 104
3 106 50 105
3 106 107 50
3 108 107 106
3 108 51 107
3 109 442 443
3 110 444 446
3 446 445 109
3 444 445 446
3 110 447 448
3 110 449 451
3 449 111 450
3 449 450 451
3 112 111 110
3 112 52 111
3 112 113 52
3 114 113 112
3 114 53 113
3 115 116 23
3 117 116 115
3 117 54 116
3 117 118 54
3 119 118 117
3 119 55 118
3 120 121 40
3 122 121 120
3 122 56 121
3 123 124 26
3 125 124 123
3 125 57 124
3 125 126 57
3 127 126 125
3 127 58 126
3 127 128 58
3 129 128 127
3 129 59 128
3 452 130 453
3 131 454 456
3 454 130 455
3 454 455 456
3 131 457 459
3 459 458 130
3 457 458 459
3 131 460 461
3 132 462 464
3 464 463 131
3 462 463 464
3 132 465 467
3 465 60 466
3 465 466 467
3 133 134 44
3 135 134 133
3 135 61 134
3 136 137 31
3 138 137 136
3 138 62 137
3 138 139 62
3 140 139 138
3 140 63 139
3 140 141 63
3 142 141 140
3 142 468 470
3 470 469 141
3 468 469 470
3 143 471 473
3 473 472 33
3 471 472 473
3 475 474 143
3 144 476 477
3 479 478 144
3 145 146 48
3 147 146 145
3 147 64 146
3 148 149 37
3 480 149 481
3 482 481 148
3 480 481 482
3 484 483 149
3 150 485 486
3 488 487 150
3 151 489 491
3 489 152 490
3 489 490 491
3 153 152 151
3 153 18 152
3 66 492 494
3 492 153 493
3 492 493 494
3 154 153 66
3 154 18 153
3 154 495 497
3 497 496 18
3 495 496 497
3 155 498 500
3 500 499 154
3 498 499 500
3 155 501 503
3 501 7 502
3 501 502 503
3 155 156 7
3 157 156 155
3 157 20 156
3 68 157 19
3 158 157 68
3 158 20 157
3 158 104 20
3 159 104 158
3 159 9 104
3 70 504 505
3 160 506 508
3 508 507 70
3 506 507 508
3 160 509 510
3 160 511 513
3 511 109 512
3 511 512 513
3 161 109 160
3 161 10 109
3 161 162 10
3 163 162 161
3 163 23 162
3 72 163 22
3 164 163 72
3 164 23 163
3 164 115 23
3 165 115 164
3 165 11 115
3 166 514 516
3 516 515 5
3 514 515 516
3 518 517 166
3 519 26 520
3 522 521 25
3 523 26 524
3 525 123 526
3 527 526 26
3 525 526 527
3 528 123 529
3 530 12 531
3 532 531 123
3 530 531 532
3 534 533 12
3 167 168 6
3 169 168 167
3 169 535 537
3 537 536 168
3 535 536 537
3 76 169 27
3 538 169 539
3 540 539 76
3 538 539 540
3 542 541 169
3 170 543 544
3 170 545 546
3 78 170 28
3 171 170 78
3 171 547 549
3 549 548 170
3 547 548 549
3 171 550 551
3 172 552 554
3 554 553 171
3 552 553 554
3 172 555 556
3 557 14 558
3 173 559 561
3 559 174 560
3 559 560 561
3 175 174 173
3 175 31 174
3 81 175 30
3 176 175 81
3 176 31 175
3 176 136 31
3 177 136 176
3 177 15 136
3 177 178 15
3 179 178 177
3 179 33 178
3 83 179 32
3 180 179 83
3 180 33 179
3 180 143 33
3 181 143 180
3 181 562 564
3 564 563 143
3 562 563 564
3 181 565 566
3 182 567 569
3 569 568 181
3 567 568 569
3 182 570 571
3 85 182 34
3 183 182 85
3 183 572 574
3 574 573 182
3 572 573 574
3 183 575 577
3 575 144 576
3 575 576 577
3 184 144 183
3 184 16 144
3 185 186 8
3 187 186 185
3 187 37 186
3 88 187 36
3 188 187 88
3 188 37 187
3 188 148 37
3 189 148 188
3 189 17 148
3 189 578 580
3 580 579 17
3 578 579 580
3 190 581 583
3 583 582 189
3 581 582 583
3 190 584 585
3 90 190 38
3 191 190 90
3 191 586 588
3 588 587 190
3 586 587 588
3 191 589 591
3 589 150 590
3 589 590 591
3 192 150 191
3 192 13 150
3 193 592 593
3 193 594 596
3 594 1 595
3 594 595 596
3 193 194 1
3 195 194 193
3 195 40 194
3 92 597 599
3 597 195 598
3 597 598 599
3 196 195 92
3 196 40 195
3 196 120 40
3 600 120 601
3 602 601 196
3 600 601 602
3 603 5 604
3 605 604 120
3 603 604 605
3 197 606 607
3 197 608 610
3 608 5 609
3 608 609 610
3 197 166 5
3 198 166 197
3 198 25 166
3 94 611 613
3 611 198 612
3 611 612 613
3 199 198 94
3 199 25 198
3 199 74 25
3 614 74 615
3 616 615 199
3 614 615 616
3 618 617 74
3 200 619 620
3 200 621 623
3 621 6 622
3 621 622 623
3 95 624 625
3 627 626 95
3 628 200 629
3 201 630 632
3 630 200 631
3 630 631 632
3 201 6 200
3 201 167 6
3 202 167 201
3 202 27 167
3 96 202 42
3 203 202 96
3 203 27 202
3 203 75 27
3 204 75 203
3 204 3 75
3 633 205 634
3 206 635 637
3 635 205 636
3 635 636 637
3 206 44 205
3 638 206 639
3 207 640 642
3 640 206 641
3 640 641 642
3 207 44 206
3 207 133 44
3 208 133 207
3 208 643 645
3 645 644 133
3 643 644 645
3 152 646 648
3 646 97 647
3 646 647 648
3 209 97 152
3 209 45 97
3 98 209 18
3 210 209 98
3 210 45 209
3 210 208 45
3 649 208 650
3 651 650 210
3 649 650 651
3 653 652 208
3 654 173 655
3 211 656 658
3 656 173 657
3 656 657 658
3 211 30 173
3 100 211 46
3 212 211 100
3 212 30 211
3 212 80 30
3 213 80 212
3 213 4 80
3 213 214 4
3 215 214 213
3 215 48 214
3 102 215 47
3 216 215 102
3 216 48 215
3 216 145 48
3 217 145 216
3 217 8 145
3 156 103 7
3 218 103 156
3 218 49 103
3 105 218 20
3 219 218 105
3 219 49 218
3 219 217 49
3 220 217 219
3 220 8 217
3 220 185 8
3 221 185 220
3 221 36 185
3 107 221 50
3 222 221 107
3 222 36 221
3 222 87 36
3 223 87 222
3 223 2 87
3 659 151 660
3 661 151 662
3 664 663 151
3 665 65 666
3 667 65 668
3 669 0 670
3 671 670 65
3 669 670 671
3 672 41 673
3 674 41 675
3 677 676 41
3 678 0 679
3 111 680 681
3 224 682 684
3 684 683 111
3 682 683 684
3 224 685 686
3 224 687 688
3 225 689 691
3 691 690 224
3 689 690 691
3 225 692 694
3 692 0 693
3 692 693 694
3 225 69 0
3 226 69 225
3 226 21 69
3 113 226 52
3 227 226 113
3 227 21 226
3 227 159 21
3 228 159 227
3 228 9 159
3 162 114 10
3 229 114 162
3 229 53 114
3 116 229 23
3 230 229 116
3 230 53 229
3 230 228 53
3 231 228 230
3 231 9 228
3 231 108 9
3 232 108 231
3 232 51 108
3 118 232 54
3 233 232 118
3 233 51 232
3 233 223 51
3 234 223 233
3 234 2 223
3 194 73 1
3 235 73 194
3 235 24 73
3 121 235 40
3 236 235 121
3 236 24 235
3 236 165 24
3 237 165 236
3 237 11 165
3 695 122 696
3 697 696 5
3 695 696 697
3 238 698 700
3 698 122 699
3 698 699 700
3 238 56 122
3 124 238 26
3 239 238 124
3 239 56 238
3 239 237 56
3 240 237 239
3 240 11 237
3 240 119 11
3 241 119 240
3 241 55 119
3 126 241 57
3 242 241 126
3 242 55 241
3 242 234 55
3 243 234 242
3 243 2 234
3 243 91 2
3 244 91 243
3 244 39 91
3 128 244 58
3 245 244 128
3 245 39 244
3 245 192 39
3 246 192 245
3 246 13 192
3 701 129 702
3 703 702 12
3 701 702 703
3 704 129 705
3 706 59 707
3 708 707 129
3 706 707 708
3 709 59 710
3 711 246 712
3 713 712 59
3 711 712 713
3 714 246 715
3 716 13 717
3 718 717 246
3 716 717 718
3 720 719 13
3 168 721 723
3 723 722 6
3 721 722 723
3 725 724 168
3 130 726 727
3 729 728 130
3 730 43 731
3 247 732 733
3 247 734 736
3 734 43 735
3 734 735 736
3 247 204 43
3 248 204 247
3 248 3 204
3 205 737 738
3 249 739 741
3 741 740 205
3 739 740 741
3 249 742 743
3 134 249 44
3 250 249 134
3 250 744 746
3 746 745 249
3 744 745 746
3 250 747 748
3 251 749 751
3 751 750 250
3 749 750 751
3 251 752 754
3 752 14 753
3 752 753 754
3 174 755 757
3 755 135 756
3 755 756 757
3 252 135 174
3 252 61 135
3 137 252 31
3 253 252 137
3 253 61 252
3 253 251 61
3 254 251 253
3 254 14 251
3 254 132 14
3 255 132 254
3 255 60 132
3 139 255 62
3 256 255 139
3 256 60 255
3 256 248 60
3 257 248 256
3 257 3 248
3 257 79 3
3 258 79 257
3 258 29 79
3 141 258 63
3 259 258 141
3 259 29 258
3 259 172 29
3 758 172 759
3 760 759 259
3 758 759 760
3 762 761 172
3 178 142 15
3 260 142 178
3 260 763 765
3 765 764 142
3 763 764 765
3 766 260 767
3 768 767 33
3 766 767 768
3 769 260 770
3 772 771 260
3 214 86 4
3 261 86 214
3 261 35 86
3 146 261 48
3 262 261 146
3 262 35 261
3 262 184 35
3 263 184 262
3 263 16 184
3 186 147 8
3 264 147 186
3 264 64 147
3 149 264 37
3 265 264 149
3 265 64 264
3 265 263 64
3 266 263 265
3 266 16 263
3 266 773 775
3 775 774 16
3 773 774 775
3 777 776 266
3 779 778 17
