ply
format ascii 1.0
element vertex 305
property float x
property float y
property float z
element face 310
property list uchar int vertex_index
end_header
-26.753277 38.959602 -28.741283
-22.611906 27.397896 -30.774288
-31.888451 37.494434 -23.85228
-34.486629 47.515354 -24.480568
-24.519606 51.869358 -27.092197
-29.271122 56.145847 -24.752037
-30.077888 38.149044 -26.79586
-29.952122 32.822353 -26.103523
-27.518847 33.158371 -28.61969
-22.422962 20.85392 -30.815266
-22.311308 39.952274 -30.035294
-24.05835 33.51709 -30.175171
-19.930695 33.950268 -31.05732
-18.885017 27.212807 -30.97123
-32.409443 36.80304 -20.186348
-34.172169 41.316017 -21.331074
-33.282066 42.367847 -24.568493
-30.4044 43.613083 -26.707314
-30.193712 49.567722 -25.854469
-25.85248 45.148991 -28.102486
-31.376549 32.407673 -22.714581
-25.997372 27.54496 -29.912853
-28.592258 38.529987 -27.882095
-28.685881 35.745564 -27.770084
-27.117001 36.023628 -28.772999
-19.88784 40.495384 -30.594833
-20.96059 37.049866 -30.687283
-18.670658 37.440182 -31.128834
-18.865627 23.620037 -30.640057
-35.820538 46.632069 -23.45034
-34.940262 44.190445 -23.356766
-33.966949 44.87933 -24.624409
-32.091324 42.952141 -25.769962
-32.430172 45.65205 -25.597641
-34.612331 56.404118 -23.277287
-26.836994 54.09837 -25.885033
-29.813055 52.782749 -25.303387
-27.463316 50.701321 -26.432938
-27.952572 47.450703 -26.979473
-25.24119 48.440304 -27.605656
-23.206808 45.991177 -28.750748
-22.378845 49.45705 -28.313908
-32.270947 37.171501 -22.062851
-31.841814 34.73542 -21.439705
-31.462305 35.005978 -23.289368
-29.25293 30.245899 -27.145958
-30.245443 30.10638 -25.689774
-23.171875 30.529068 -30.575787
-24.980968 30.47044 -30.058071
-24.368179 27.478115 -30.443275
-23.705788 55.424114 -26.618263
-21.479794 53.042248 -27.90099
-31.174339 37.810017 -25.44928
-30.845337 35.252323 -25.007214
-29.930113 35.492771 -26.514507
-28.872614 32.993469 -27.488079
-28.045652 30.342888 -28.364929
-22.370289 24.159046 -30.824947
-24.055807 24.393379 -30.702328
-24.017689 21.262032 -30.908119
-24.630207 39.436161 -29.43576
-25.261538 36.33374 -29.557037
-23.183493 36.677219 -30.176586
-22.045807 33.72477 -30.678242
-21.238941 30.594933 -30.924248
-19.237522 30.665142 -31.138489
-20.76947 27.311047 -30.940319
-20.629236 23.903687 -30.79504
-20.796963 20.411083 -30.590214
-32.414948 36.359173 -18.382771
-33.03183 38.528633 -18.888588
-33.144485 39.080013 -20.784935
-33.02042 39.519909 -22.631435
-35.352798 43.550671 -21.77877
-33.960312 41.839348 -23.07806
-32.54245 39.927334 -24.301628
-31.634691 40.356598 -25.720554
-30.273516 40.838947 -26.867432
-28.487898 41.385555 -27.772732
-34.775749 50.311176 -24.176857
-32.22102 54.686893 -24.253395
-32.505638 51.509762 -24.777378
-32.577816 48.497555 -25.245644
-30.390518 46.513737 -26.347424
-28.290354 44.349869 -27.452522
-26.349333 41.9935 -28.505161
-23.955084 42.651779 -29.148926
-21.409483 43.344948 -29.777691
-32.064579 34.437069 -19.566467
-30.773684 32.630882 -24.493069
-25.901711 33.329784 -29.504421
-26.616983 30.412571 -29.331676
-27.46933 27.583466 -29.152058
-18.055402 39.242937 -31.134388
-19.279249 38.967783 -30.861834
-18.663994 40.770538 -30.867387
-34.40695 58.026203 -23.00647
-35.762407 57.156818 -22.803173
-29.575115 28.872484 -27.018625
-29.011035 28.910207 -27.64477
-23.262789 57.250027 -26.410055
-24.902437 56.522171 -25.998171
-22.114655 56.075825 -27.080751
-23.262789 57.250027 -26.410055
-19.06127 28.938975 -31.054859
-18.228372 30.694874 -31.190575
-18.05212 28.968707 -31.106945
-19.979266 20.16762 -30.424879
-19.831295 22.01556 -30.615136
-19.013597 21.772096 -30.449801
-21.018912 18.64498 -30.516113
-19.979266 20.16762 -30.424879
-33.344454 39.216577 -18.17429
-32.926248 38.136663 -18.002133
-33.658327 40.198015 -21.058005
-33.583362 39.896385 -20.100014
-34.097204 41.014387 -20.373083
-35.943487 44.692116 -21.934641
-36.003936 44.310067 -21.088358
-34.794643 51.794914 -23.969776
-35.842748 51.132744 -23.657377
-30.746071 55.41637 -24.502716
-31.986307 56.345104 -23.982309
-30.511357 57.074581 -24.231631
-20.936045 45.099665 -29.619419
-22.308146 44.668063 -29.26422
-21.834708 46.42278 -29.105947
-20.108447 43.699011 -30.105648
-20.936045 45.099665 -29.619419
-20.474469 51.758007 -28.52344
-19.957333 53.61533 -28.385836
-31.595595 32.280106 -21.780684
-31.828227 33.443979 -21.143245
-31.609181 33.571546 -22.077143
-31.533009 31.036114 -22.482235
-31.595595 32.280106 -21.780684
-30.646003 30.009804 -24.863774
-30.555739 28.724497 -25.555834
-24.854716 24.497274 -30.549097
-24.807025 23.012611 -30.770859
-23.318157 19.492985 -30.984186
-22.578207 19.19115 -30.833106
-17.941364 27.148928 -30.930714
-18.05212 28.968707 -31.106945
-17.931669 25.352543 -30.765127
-18.875322 25.416422 -30.805643
-17.941364 27.148928 -30.930714
-17.986235 23.453903 -30.512379
-17.931669 25.352543 -30.765127
-19.013597 21.772096 -30.449801
-17.986235 23.453903 -30.512379
-34.724977 42.101757 -20.632868
-34.097204 41.014387 -20.373083
-35.3804 45.411257 -23.403553
-35.737219 45.012003 -22.723638
-36.177357 46.232815 -22.770426
-35.828105 55.63319 -23.031838
-35.762407 57.156818 -22.803173
-34.712935 54.841385 -23.519991
-35.828105 55.63319 -23.031838
-21.420727 48.155716 -28.887528
-21.834708 46.42278 -29.105947
-22.792826 47.724114 -28.532328
-30.071372 28.802725 -26.290534
-29.749187 30.17614 -26.417866
-29.575115 28.872484 -27.018625
-30.555739 28.724497 -25.555834
-30.071372 28.802725 -26.290534
-36.700457 47.423862 -22.84882
-36.177357 46.232815 -22.770426
-36.158539 47.921658 -23.409426
-36.700457 47.423862 -22.84882
-35.491585 48.3633 -23.92454
-35.153583 47.073712 -23.965454
-36.158539 47.921658 -23.409426
-28.934594 57.884033 -24.488055
-30.511357 57.074581 -24.231631
-27.685105 56.883038 -25.065058
-28.934594 57.884033 -24.488055
-26.468041 55.859299 -25.631555
-28.054058 55.122109 -25.318535
-27.685105 56.883038 -25.065058
-25.271391 54.761242 -26.251648
-26.468041 55.859299 -25.631555
-24.902437 56.522171 -25.998171
-21.001658 54.884892 -27.722115
-22.592791 54.233181 -27.259626
-22.114655 56.075825 -27.080751
-19.957333 53.61533 -28.385836
-21.001658 54.884892 -27.722115
-28.407396 28.958702 -28.254255
-29.011035 28.910207 -27.64477
-28.649291 30.294393 -27.755443
-24.787966 21.446938 -30.873755
-24.807025 23.012611 -30.770859
-24.036748 22.827706 -30.805224
-24.115521 19.697041 -31.030613
-23.220326 21.057976 -30.861693
-23.318157 19.492985 -30.984186
-24.842622 19.97509 -31.114442
-24.115521 19.697041 -31.030613
-24.787966 21.446938 -30.873755
-24.842622 19.97509 -31.114442
-17.525257 37.633274 -31.322874
-18.055402 39.242937 -31.134388
-18.224101 35.81061 -31.235298
-17.525257 37.633274 -31.322874
-18.854119 34.065653 -31.199542
-19.300677 35.695225 -31.093077
-18.224101 35.81061 -31.235298
-18.507533 32.42309 -31.240126
-18.228372 30.694874 -31.190575
-19.584108 32.307705 -31.097904
-18.854119 34.065653 -31.199542
-18.507533 32.42309 -31.240126
-21.765208 18.969732 -30.720579
-22.578207 19.19115 -30.833106
-21.609963 20.632502 -30.70274
-21.765208 18.969732 -30.720579
-21.018912 18.64498 -30.516113
-32.617807 37.051934 -17.749224
-32.410615 36.115412 -17.665686
-32.723389 37.443903 -18.63568
-32.617807 37.051934 -17.749224
-32.926248 38.136663 -18.002133
-33.527035 39.620695 -19.15184
-33.344454 39.216577 -18.17429
-33.088158 38.804323 -19.836762
-33.527035 39.620695 -19.15184
-33.583362 39.896385 -20.100014
-35.315292 43.219084 -20.856716
-36.003936 44.310067 -21.088358
-34.762484 42.433344 -21.554922
-34.724977 42.101757 -20.632868
-35.315292 43.219084 -20.856716
-35.14653 43.870558 -22.567768
-35.943487 44.692116 -21.934641
-35.737219 45.012003 -22.723638
-35.636145 49.761211 -23.772684
-35.842748 51.132744 -23.657377
-34.631189 48.913265 -24.328713
-35.491585 48.3633 -23.92454
-35.636145 49.761211 -23.772684
-33.181962 57.203716 -23.494256
-34.40695 58.026203 -23.00647
-33.416675 55.545505 -23.765341
-33.181962 57.203716 -23.494256
-31.986307 56.345104 -23.982309
-33.517279 53.982772 -24.008045
-34.712935 54.841385 -23.519991
-33.416675 55.545505 -23.765341
-33.659588 52.394207 -24.270036
-33.517279 53.982772 -24.008045
-32.363329 53.098327 -24.515386
-33.640693 50.910469 -24.477117
-34.794643 51.794914 -23.969776
-33.659588 52.394207 -24.270036
-19.347625 42.274229 -30.514219
-20.648662 41.920166 -30.186262
-20.108447 43.699011 -30.105648
-18.663994 40.770538 -30.867387
-19.347625 42.274229 -30.514219
-20.923995 49.965408 -28.729899
-21.929319 51.249649 -28.107449
-20.474469 51.758007 -28.52344
-21.420727 48.155716 -28.887528
-20.923995 49.965408 -28.729899
-32.317318 35.259811 -18.086334
-32.410615 36.115412 -17.665686
-32.142133 34.29876 -18.678182
-32.317318 35.259811 -18.086334
-32.239764 35.398121 -18.974619
-32.105507 33.164221 -19.268446
-32.142133 34.29876 -18.678182
-31.93961 33.294804 -20.206626
-31.953197 34.586244 -20.503086
-31.828227 33.443979 -21.143245
-32.105507 33.164221 -19.268446
-31.93961 33.294804 -20.206626
-30.910124 31.272054 -24.265421
-30.509563 31.368631 -25.091421
-30.646003 30.009804 -24.863774
-31.211557 31.16045 -23.376177
-31.075117 32.519278 -23.603825
-30.910124 31.272054 -24.265421
-31.533009 31.036114 -22.482235
-31.211557 31.16045 -23.376177
-28.119235 27.578991 -28.64782
-28.407396 28.958702 -28.254255
-27.757491 28.963177 -28.758494
-25.010902 26.039642 -30.41957
-24.211993 25.935747 -30.572802
-24.854716 24.497274 -30.549097
-25.825498 26.073065 -30.154359
-25.182775 27.511537 -30.178064
-25.010902 26.039642 -30.41957
-26.568033 26.155739 -29.893738
-25.825498 26.073065 -30.154359
-27.304012 26.174992 -29.51334
-26.733351 27.564213 -29.532455
-26.568033 26.155739 -29.893738
-27.983126 26.2253 -29.133928
-27.304012 26.174992 -29.51334
-28.119235 27.578991 -28.64782
-27.983126 26.2253 -29.133928
3 0 24 22
3 93 27 94
3 95 94 25
3 93 94 95
3 3 31 29
3 3 33 31
3 96 34 97
3 4 37 35
3 4 39 37
3 4 41 39
3 2 44 42
3 99 98 45
3 1 49 47
3 100 50 101
3 103 102 50
3 6 54 52
3 8 55 23
3 8 56 55
3 9 59 57
3 10 62 60
3 12 63 26
3 12 64 63
3 13 104 106
3 104 65 105
3 104 105 106
3 13 66 65
3 13 67 66
3 107 68 108
3 109 108 28
3 107 108 109
3 111 110 68
3 112 70 113
3 15 114 116
3 114 71 115
3 114 115 116
3 15 72 71
3 117 73 118
3 16 74 30
3 16 75 74
3 16 76 75
3 17 77 32
3 17 78 77
3 119 79 120
3 5 121 123
3 121 80 122
3 121 122 123
3 18 81 36
3 18 82 81
3 18 83 82
3 19 84 38
3 19 85 84
3 19 86 85
3 124 87 125
3 126 125 40
3 124 125 126
3 128 127 87
3 130 129 51
3 14 88 69
3 20 131 133
3 133 132 43
3 131 132 133
3 20 134 135
3 7 89 53
3 137 136 46
3 11 90 61
3 21 91 48
3 21 92 91
3 139 138 58
3 22 23 6
3 24 23 22
3 24 8 23
3 141 140 9
3 25 26 10
3 27 26 25
3 27 12 26
3 142 13 143
3 144 28 145
3 146 145 13
3 144 145 146
3 147 28 148
3 150 149 28
3 151 15 152
3 29 153 155
3 153 30 154
3 153 154 155
3 31 30 29
3 31 16 30
3 31 32 16
3 33 32 31
3 33 17 32
3 34 156 157
3 34 158 159
3 35 36 5
3 37 36 35
3 37 18 36
3 37 38 18
3 39 38 37
3 39 19 38
3 39 40 19
3 41 40 39
3 41 160 162
3 162 161 40
3 160 161 162
3 42 43 14
3 44 43 42
3 44 20 43
3 45 46 7
3 163 46 164
3 165 164 45
3 163 164 165
3 167 166 46
3 47 48 11
3 49 48 47
3 49 21 48
3 168 29 169
3 170 29 171
3 172 3 173
3 174 173 29
3 172 173 174
3 175 5 176
3 177 5 178
3 179 35 180
3 181 180 5
3 179 180 181
3 50 182 184
3 182 35 183
3 182 183 184
3 50 4 35
3 50 51 4
3 185 51 186
3 187 186 50
3 185 186 187
3 189 188 51
3 52 53 2
3 54 53 52
3 54 7 53
3 23 54 6
3 55 54 23
3 55 7 54
3 55 45 7
3 56 45 55
3 56 190 192
3 192 191 45
3 190 191 192
3 57 58 1
3 59 58 57
3 59 193 195
3 195 194 58
3 193 194 195
3 196 59 197
3 198 197 9
3 196 197 198
3 199 59 200
3 202 201 59
3 60 61 0
3 62 61 60
3 62 11 61
3 26 62 10
3 63 62 26
3 63 11 62
3 63 47 11
3 64 47 63
3 64 1 47
3 203 27 204
3 205 27 206
3 207 12 208
3 209 208 27
3 207 208 209
3 65 210 211
3 65 212 214
3 212 12 213
3 212 213 214
3 65 64 12
3 66 64 65
3 66 1 64
3 66 57 1
3 67 57 66
3 67 9 57
3 28 67 13
3 68 67 28
3 68 9 67
3 68 215 217
3 217 216 9
3 215 216 217
3 219 218 68
3 220 69 221
3 70 222 224
3 222 69 223
3 222 223 224
3 70 14 69
3 225 70 226
3 71 227 229
3 227 70 228
3 227 228 229
3 71 14 70
3 71 42 14
3 72 42 71
3 72 2 42
3 73 230 231
3 73 232 234
3 232 15 233
3 232 233 234
3 30 235 237
3 235 73 236
3 235 236 237
3 74 73 30
3 74 15 73
3 74 72 15
3 75 72 74
3 75 2 72
3 75 52 2
3 76 52 75
3 76 6 52
3 32 76 16
3 77 76 32
3 77 6 76
3 77 22 6
3 78 22 77
3 78 0 22
3 79 238 239
3 79 240 242
3 240 3 241
3 240 241 242
3 243 34 244
3 80 245 247
3 245 34 246
3 245 246 247
3 80 248 250
3 250 249 34
3 248 249 250
3 36 80 5
3 81 80 36
3 81 251 253
3 253 252 80
3 251 252 253
3 81 254 256
3 254 79 255
3 254 255 256
3 82 79 81
3 82 3 79
3 82 33 3
3 83 33 82
3 83 17 33
3 38 83 18
3 84 83 38
3 84 17 83
3 84 78 17
3 85 78 84
3 85 0 78
3 85 60 0
3 86 60 85
3 86 10 60
3 40 86 19
3 87 86 40
3 87 10 86
3 87 25 10
3 257 25 258
3 259 258 87
3 257 258 259
3 261 260 25
3 51 41 4
3 262 41 263
3 264 263 51
3 262 263 264
3 266 265 41
3 69 267 268
3 88 269 271
3 271 270 69
3 269 270 271
3 88 272 273
3 43 88 14
3 274 88 275
3 276 275 43
3 274 275 276
3 278 277 88
3 53 44 2
3 89 44 53
3 89 20 44
3 46 89 7
3 279 89 280
3 281 280 46
3 279 280 281
3 282 20 283
3 284 283 89
3 282 283 284
3 286 285 20
3 61 24 0
3 90 24 61
3 90 8 24
3 48 90 11
3 91 90 48
3 91 8 90
3 91 56 8
3 92 56 91
3 92 287 289
3 289 288 56
3 287 288 289
3 58 49 1
3 290 49 291
3 292 291 58
3 290 291 292
3 293 21 294
3 295 294 49
3 293 294 295
3 296 21 297
3 298 92 299
3 300 299 21
3 298 299 300
3 301 92 302
3 304 303 92
