ply
format ascii 1.0
element vertex 414
property float x
property float y
property float z
element face 409
property list uchar int vertex_index
end_header
-29.314949 -99.270218 -23.590366
-19.21566 -99.265472 -19.868938
-15.789948 -121.723206 -19.896633
-28.134079 -110.573593 -23.388523
-39.472492 -94.853226 -23.750153
-35.159283 -90.920837 -25.160561
-30.196171 -92.376205 -23.739368
-35.521255 -83.761017 -26.091106
-10.916727 -124.833389 -15.677078
-16.222326 -124.567154 -17.232029
-27.97963 -114.814468 -22.348881
-34.262367 -103.128738 -23.730389
-21.397661 -91.41449 -19.633263
-22.059128 -122.686523 -17.439827
-22.749039 -106.53952 -22.262402
-23.998787 -99.972107 -21.822338
-25.467003 -92.60788 -21.659409
-26.914326 -84.654984 -21.947292
-10.461893 -121.49762 -17.98275
-15.685439 -117.668777 -20.986736
-21.782608 -120.463547 -20.681019
-21.700813 -116.876083 -22.305347
-21.967106 -112.193909 -22.617714
-28.563578 -105.364975 -23.603123
-34.650402 -97.434921 -24.422703
-39.771881 -88.699387 -25.209599
-43.75388 -86.169388 -23.794907
-37.712433 -86.438629 -25.983738
-35.375107 -87.406815 -25.598793
-13.800889 -125.973328 -14.795216
-22.531403 -87.29599 -19.681011
-26.087029 -103.052856 -22.896152
-23.328394 -103.365005 -22.025124
-26.617411 -99.785416 -22.771935
-30.599514 -88.680603 -23.934612
-27.767258 -92.66684 -22.728737
-28.321335 -88.862732 -22.853325
-26.202156 -88.68985 -21.741814
-28.836048 -84.93277 -23.091259
-29.311392 -80.904709 -23.446751
-13.212883 -123.50856 -18.026272
-13.017134 -121.800568 -19.050182
-12.911697 -119.806564 -19.69836
-15.683014 -119.835327 -20.618565
-21.89794 -121.766312 -19.257366
-24.870895 -119.322647 -20.521858
-28.033651 -112.823792 -23.011169
-24.844423 -115.990768 -22.516624
-24.902176 -113.886734 -22.973419
-21.776848 -114.661102 -22.587727
-25.040724 -111.528717 -23.156696
-25.281666 -108.931885 -23.151501
-28.305708 -108.083618 -23.558659
-36.998642 -99.072693 -23.759872
-34.429596 -100.390793 -24.088943
-37.1488 -96.213943 -24.285053
-37.338161 -93.142319 -24.817989
-39.60944 -91.878464 -24.465717
-45.556087 -84.900833 -22.711308
-45.696404 -81.853531 -23.96452
-43.895016 -83.001541 -24.909496
-18.232784 -102.927246 -20.118542
-15.970545 -102.167236 -19.17775
-12.081499 -99.690979 -17.281425
-32.355057 -95.214966 -24.352226
-29.757231 -95.914383 -23.629997
-32.686714 -91.775452 -24.585583
-32.977104 -88.176712 -24.885605
-33.201229 -84.447495 -25.260361
-8.883163 -125.684998 -12.878119
-11.233387 -126.050797 -13.970858
-13.474566 -124.909714 -16.60363
-15.974969 -123.311111 -18.772167
-27.947203 -116.514816 -21.34351
-31.091948 -111.502625 -22.65324
-31.169361 -109.36058 -23.24625
-31.286072 -106.975281 -23.621716
-39.379051 -97.608826 -23.039459
-20.282694 -95.416443 -19.699833
-17.108294 -98.38208 -18.944016
-19.386347 -124.513214 -15.46974
-19.401768 -109.709244 -21.643326
-19.978065 -106.636169 -21.362564
-20.694675 -103.3284 -21.076805
-21.518559 -99.801208 -20.834606
-27.189583 -96.316467 -22.707329
-24.723492 -96.378326 -21.69175
-22.411617 -96.077179 -20.671844
-23.338509 -92.185349 -20.613052
-24.272194 -88.15863 -20.672649
-25.196093 -84.030197 -20.856441
-27.601736 -80.532532 -22.277302
-8.592148 -124.341339 -14.509146
-10.366703 -119.407394 -18.604404
-19.104805 -123.817093 -17.518291
-18.890951 -122.723892 -19.196411
-18.732075 -121.272171 -20.459564
-24.841095 -117.815002 -21.713932
-21.711559 -118.820236 -21.689552
-18.635656 -119.501251 -21.304882
-18.625328 -117.443146 -21.771221
-18.732506 -115.1185 -21.927422
-18.985909 -112.538528 -21.85677
-22.290241 -109.48468 -22.482357
-25.633427 -106.104538 -23.040943
-28.906326 -102.424606 -23.594704
-31.464251 -104.35994 -23.855598
-31.711765 -101.522385 -24.019665
-32.017845 -98.470123 -24.171772
-34.90498 -94.272171 -24.772121
-37.538757 -89.875107 -25.381481
-39.925617 -85.341263 -25.988773
-43.641117 -89.135513 -22.727627
-41.705147 -90.528519 -23.744316
-41.838745 -87.448486 -24.659527
-41.984032 -84.177872 -25.613697
-13.919641 -101.074829 -18.24361
-37.76757 -84.652329 -26.304182
-38.872 -84.138542 -26.391556
-21.743779 -86.723579 -19.224325
-23.096684 -85.195629 -19.764167
-29.634557 -86.859108 -23.539629
-29.460425 -88.771668 -23.393968
-30.773646 -86.768044 -24.080272
-29.891914 -84.894127 -23.658596
-28.578692 -86.897751 -22.972292
-29.634557 -86.859108 -23.539629
-30.037424 -82.930408 -23.855308
-29.891914 -84.894127 -23.658596
-26.396262 -118.603844 -20.246305
-24.898702 -119.896682 -19.729685
-46.653605 -79.753715 -24.141551
-46.567868 -81.307888 -23.422989
-45.774408 -80.236862 -24.618696
-46.653605 -79.753715 -24.141551
-35.55187 -81.88797 -26.365648
-34.391857 -82.231209 -25.950276
-34.361242 -84.104256 -25.675733
-11.429619 -126.490715 -12.951079
-10.233115 -126.388535 -12.45099
-32.581522 -109.712494 -22.675819
-32.546149 -110.72966 -22.27142
-32.620228 -108.641471 -22.972324
-31.130654 -110.431602 -22.949745
-32.581522 -109.712494 -22.675819
-32.659128 -107.501213 -23.267929
-32.620228 -108.641471 -22.972324
-39.352026 -98.874061 -22.665983
-38.137897 -99.659019 -23.120651
-19.870517 -92.919915 -19.209904
-19.313033 -94.920891 -19.243189
-20.840177 -93.415467 -19.666548
-29.536272 -78.853927 -23.682615
-30.399597 -78.913368 -24.281779
-9.403465 -122.107048 -16.890857
-10.559252 -122.403282 -17.499125
-9.31083 -121.157608 -17.36503
-9.403465 -122.107048 -16.890857
-10.414298 -120.452507 -18.293577
-9.263235 -120.112495 -17.675857
-9.31083 -121.157608 -17.36503
-14.310814 -117.602432 -20.504358
-12.923944 -118.671325 -19.86017
-14.298568 -118.737671 -20.342548
-15.759699 -116.451583 -21.029545
-14.310814 -117.602432 -20.504358
-43.008847 -81.91996 -25.840044
-42.939524 -83.589707 -25.261596
-43.964338 -81.331795 -25.487944
-42.043805 -82.46402 -26.107397
-43.008847 -81.91996 -25.840044
-14.559145 -99.131767 -18.142933
-15.513967 -99.728454 -18.593813
-16.153472 -97.785393 -18.493136
-11.462022 -101.583672 -17.377697
-10.604455 -100.798943 -16.832013
-36.598907 -85.136421 -26.111709
-36.54377 -86.922722 -25.791266
-37.76757 -84.652329 -26.304182
-36.671982 -83.313523 -26.357866
-35.448181 -85.583916 -25.844949
-36.598907 -85.136421 -26.111709
-36.683492 -81.47683 -26.696528
-36.671982 -83.313523 -26.357866
-14.00763 -126.31881 -13.722297
-12.71337 -126.451981 -13.363259
-15.1692 -125.713807 -15.04966
-14.00763 -126.31881 -13.722297
-16.379918 -125.010719 -16.268066
-15.011608 -125.270241 -16.013623
-15.1692 -125.713807 -15.04966
-21.084336 -88.81588 -19.202736
-20.517466 -90.87513 -19.178862
-21.964532 -89.35524 -19.657137
-21.084336 -88.81588 -19.202736
-21.743779 -86.723579 -19.224325
-30.275096 -80.916378 -24.033054
-29.07372 -82.91874 -23.269005
-30.037424 -82.930408 -23.855308
-30.399597 -78.913368 -24.281779
-30.275096 -80.916378 -24.033054
-11.934746 -123.408752 -17.520885
-10.786669 -124.071167 -16.346288
-12.064805 -124.170974 -16.851675
-11.836872 -122.554756 -18.03284
-11.934746 -123.408752 -17.520885
-13.115009 -122.654564 -18.538227
-11.739514 -121.649094 -18.516466
-10.559252 -122.403282 -17.499125
-11.836872 -122.554756 -18.03284
-23.412225 -121.118515 -19.097439
-21.978534 -122.226417 -18.348596
-23.492819 -121.57862 -18.188669
-23.384417 -120.544479 -19.889612
-23.412225 -121.118515 -19.097439
-24.898702 -119.896682 -19.729685
-46.497709 -82.831539 -22.796383
-46.423635 -84.286659 -22.111591
-45.626245 -83.377182 -23.337914
-46.497709 -82.831539 -22.796383
-46.567868 -81.307888 -23.422989
-44.873714 -80.810867 -25.091185
-44.79571 -82.427536 -24.437008
-45.774408 -80.236862 -24.618696
-43.964338 -81.331795 -25.487944
-44.873714 -80.810867 -25.091185
-16.602111 -104.336326 -19.787793
-17.80319 -104.650025 -20.266821
-15.470992 -103.956322 -19.317397
-16.602111 -104.336326 -19.787793
-17.101664 -102.547241 -19.648146
-14.381056 -103.468315 -18.832133
-15.470992 -103.956322 -19.317397
-12.780887 -97.712463 -17.204074
-13.640074 -98.439842 -17.66184
-11.267849 -98.876075 -16.767891
-12.780887 -97.712463 -17.204074
-10.604455 -100.798943 -16.832013
-11.267849 -98.876075 -16.767891
-32.074504 -84.651489 -24.743147
-30.773646 -86.768044 -24.080272
-31.900371 -86.564049 -24.597487
-33.276369 -82.53191 -25.487929
-32.074504 -84.651489 -24.743147
-33.276369 -82.53191 -25.487929
-34.391857 -82.231209 -25.950276
-35.55187 -81.88797 -26.365648
-36.683492 -81.47683 -26.696528
-9.058003 -126.205635 -11.904621
-7.980225 -125.872505 -11.288811
-10.058275 -125.867897 -13.424488
-9.058003 -126.205635 -11.904621
-10.233115 -126.388535 -12.45099
-12.517138 -126.012062 -14.383037
-11.429619 -126.490715 -12.951079
-12.71337 -126.451981 -13.363259
-29.449351 -115.735848 -20.959803
-27.934416 -117.199928 -20.657131
-29.486854 -114.946877 -21.560144
-29.449351 -115.735848 -20.959803
-29.503068 -114.096702 -22.06283
-27.963417 -115.664642 -21.846196
-29.486854 -114.946877 -21.560144
-31.059227 -112.440781 -22.21501
-32.546149 -110.72966 -22.27142
-29.535789 -113.158546 -22.501061
-29.503068 -114.096702 -22.06283
-31.059227 -112.440781 -22.21501
-32.717484 -106.308563 -23.455662
-31.227716 -108.16793 -23.433983
-32.659128 -107.501213 -23.267929
-34.205631 -104.385292 -23.509999
-32.77422 -105.052009 -23.676052
-32.717484 -106.308563 -23.455662
-35.579555 -102.418976 -23.466116
-34.205631 -104.385292 -23.509999
-36.947693 -100.390953 -23.480857
-35.630505 -101.100716 -23.745131
-35.579555 -102.418976 -23.466116
-38.188846 -98.340759 -23.399666
-36.947693 -100.390953 -23.480857
-38.137897 -99.659019 -23.120651
-17.725833 -96.403709 -18.865281
-18.695494 -96.899261 -19.321925
-19.313033 -94.920891 -19.243189
-16.153472 -97.785393 -18.493136
-17.725833 -96.403709 -18.865281
-19.870517 -92.919915 -19.209904
-20.517466 -90.87513 -19.178862
-19.576222 -124.647858 -14.298368
-18.166419 -125.225556 -14.260832
-20.836727 -123.850693 -15.378588
-19.576222 -124.647858 -14.298368
-22.173118 -122.937347 -16.363632
-20.722738 -123.599868 -16.454784
-20.836727 -123.850693 -15.378588
-23.539399 -121.952507 -17.219328
-22.173118 -122.937347 -16.363632
-23.492819 -121.57862 -18.188669
-23.539399 -121.952507 -17.219328
-18.037948 -109.644959 -21.178253
-17.780299 -111.123138 -21.299293
-18.326097 -108.108421 -21.037872
-18.037948 -109.644959 -21.178253
-19.689917 -108.172707 -21.502945
-18.675831 -106.504486 -20.888832
-18.326097 -108.108421 -21.037872
-19.034135 -104.850602 -20.745953
-18.675831 -106.504486 -20.888832
-20.33637 -104.982284 -21.219684
-19.463729 -103.127823 -20.597673
-17.80319 -104.650025 -20.266821
-19.034135 -104.850602 -20.745953
-24.429029 -83.562733 -20.351883
-23.096684 -85.195629 -19.764167
-23.863748 -85.663094 -20.268726
-25.649242 -81.930206 -21.01029
-24.429029 -83.562733 -20.351883
-26.852063 -80.181374 -21.72072
-25.649242 -81.930206 -21.01029
-26.398915 -82.281364 -21.566871
-27.936696 -78.440312 -22.502737
-26.852063 -80.181374 -21.72072
-28.681444 -78.667839 -23.097891
-28.456564 -80.718621 -22.862026
-29.536272 -78.853927 -23.682615
-27.936696 -78.440312 -22.502737
-28.681444 -78.667839 -23.097891
-7.834448 -125.287704 -12.226562
-7.980225 -125.872505 -11.288811
-7.688941 -124.615875 -13.042075
-7.834448 -125.287704 -12.226562
-8.737655 -125.013169 -13.693632
-7.561625 -123.895416 -13.833506
-7.688941 -124.615875 -13.042075
-9.624379 -123.825142 -15.762322
-9.754437 -124.587364 -15.093112
-10.786669 -124.071167 -16.346288
-8.468592 -123.528908 -15.154055
-9.624379 -123.825142 -15.762322
-7.561625 -123.895416 -13.833506
-8.468592 -123.528908 -15.154055
-9.223792 -119.023941 -17.990551
-9.263235 -120.112495 -17.675857
-10.393042 -118.222374 -18.766153
-9.223792 -119.023941 -17.990551
-11.651446 -118.47174 -19.313192
-11.6392 -119.606979 -19.151382
-12.923944 -118.671325 -19.86017
-10.393042 -118.222374 -18.766153
-11.651446 -118.47174 -19.313192
-17.961928 -124.98375 -15.386922
-18.166419 -125.225556 -14.260832
-17.821157 -124.635689 -16.411198
-17.961928 -124.98375 -15.386922
-19.245576 -124.165154 -16.494015
-17.663565 -124.192124 -17.37516
-16.379918 -125.010719 -16.268066
-17.821157 -124.635689 -16.411198
-26.409049 -117.918732 -20.932684
-26.396262 -118.603844 -20.246305
-27.934416 -117.199928 -20.657131
-17.283233 -115.176445 -21.499887
-15.759699 -116.451583 -21.029545
-17.208973 -116.393639 -21.457079
-17.409934 -113.886459 -21.464562
-17.283233 -115.176445 -21.499887
-18.859208 -113.828514 -21.892096
-17.572369 -112.53778 -21.406016
-17.409934 -113.886459 -21.464562
-19.193838 -111.123886 -21.750048
-17.780299 -111.123138 -21.299293
-17.572369 -112.53778 -21.406016
-39.978592 -83.589859 -26.394073
-38.872 -84.138542 -26.391556
-38.819025 -85.889946 -25.986255
-40.4671 -96.824295 -22.510568
-39.352026 -98.874061 -22.665983
-40.494017 -95.502281 -22.949843
-40.4671 -96.824295 -22.510568
-40.540737 -94.124482 -23.30519
-39.425771 -96.231026 -23.394806
-40.494017 -95.502281 -22.949843
-45.503801 -86.319344 -22.113077
-46.423635 -84.286659 -22.111591
-44.546316 -88.436684 -22.121237
-45.503801 -86.319344 -22.113077
-44.598602 -87.018173 -22.719468
-43.605661 -90.509224 -22.212154
-44.546316 -88.436684 -22.121237
-42.62505 -91.265625 -22.793926
-43.605661 -90.509224 -22.212154
-41.657064 -91.962128 -23.302271
-42.62505 -91.265625 -22.793926
-42.673132 -89.832016 -23.235971
-40.588819 -92.690873 -23.747235
-40.540737 -94.124482 -23.30519
-41.657064 -91.962128 -23.302271
-41.014597 -83.045716 -26.294935
-40.954825 -84.759568 -25.801235
-42.043805 -82.46402 -26.107397
-39.978592 -83.589859 -26.394073
-41.014597 -83.045716 -26.294935
-13.355604 -102.922111 -18.365063
-14.381056 -103.468315 -18.832133
-14.945093 -101.621032 -18.71068
-13.00057 -100.382904 -17.762518
-14.559145 -99.131767 -18.142933
-13.640074 -98.439842 -17.66184
-12.381093 -102.275597 -17.85879
-13.00057 -100.382904 -17.762518
-11.462022 -101.583672 -17.377697
-13.355604 -102.922111 -18.365063
-12.381093 -102.275597 -17.85879
3 118 117 27
3 120 119 30
3 0 33 31
3 121 36 122
3 123 122 34
3 121 122 123
3 124 38 125
3 126 125 36
3 124 125 126
3 128 127 38
3 2 41 40
3 2 43 41
3 129 45 130
3 3 48 46
3 3 50 48
3 3 52 50
3 4 55 53
3 4 57 55
3 131 59 132
3 134 133 59
3 1 62 61
3 5 66 64
3 7 67 28
3 7 68 67
3 7 135 137
3 137 136 68
3 135 136 137
3 138 70 139
3 9 71 29
3 9 72 71
3 140 74 141
3 142 75 143
3 144 143 74
3 142 143 144
3 146 145 75
3 147 77 148
3 12 149 151
3 151 150 78
3 149 150 151
3 14 82 81
3 15 83 32
3 15 84 83
3 6 85 65
3 16 86 35
3 16 87 86
3 16 88 87
3 17 89 37
3 17 90 89
3 17 91 90
3 153 152 39
3 8 92 69
3 18 154 155
3 18 156 157
3 18 158 160
3 158 93 159
3 158 159 160
3 19 161 163
3 163 162 42
3 161 162 163
3 19 164 165
3 13 94 80
3 20 95 44
3 20 96 95
3 10 97 73
3 21 98 47
3 21 99 98
3 21 100 99
3 22 101 49
3 22 102 101
3 22 103 102
3 23 104 51
3 23 105 104
3 11 106 76
3 24 107 54
3 24 108 107
3 24 109 108
3 25 110 56
3 25 111 110
3 26 112 58
3 26 113 112
3 26 114 113
3 166 115 167
3 168 167 60
3 166 167 168
3 170 169 115
3 171 116 172
3 173 172 79
3 171 172 173
3 175 174 63
3 27 28 5
3 176 28 177
3 178 177 27
3 176 177 178
3 179 7 180
3 181 180 28
3 179 180 181
3 183 182 7
3 184 29 185
3 186 29 187
3 188 9 189
3 190 189 29
3 188 189 190
3 30 191 193
3 193 192 12
3 191 192 193
3 195 194 30
3 31 32 14
3 33 32 31
3 33 15 32
3 34 35 6
3 36 35 34
3 36 16 35
3 36 37 16
3 38 37 36
3 38 17 37
3 38 39 17
3 196 39 197
3 198 197 38
3 196 197 198
3 200 199 39
3 40 201 203
3 203 202 8
3 201 202 203
3 41 204 206
3 206 205 40
3 204 205 206
3 41 207 209
3 207 18 208
3 207 208 209
3 41 42 18
3 43 42 41
3 43 19 42
3 210 44 211
3 212 211 13
3 210 211 212
3 45 213 215
3 213 44 214
3 213 214 215
3 45 20 44
3 46 47 10
3 48 47 46
3 48 21 47
3 48 49 21
3 50 49 48
3 50 22 49
3 50 51 22
3 52 51 50
3 52 23 51
3 53 54 11
3 55 54 53
3 55 24 54
3 55 56 24
3 57 56 55
3 57 25 56
3 216 58 217
3 59 218 220
3 218 58 219
3 218 219 220
3 59 26 58
3 59 60 26
3 221 60 222
3 223 222 59
3 221 222 223
3 225 224 60
3 61 226 227
3 62 228 230
3 230 229 61
3 228 229 230
3 62 231 232
3 233 63 234
3 235 63 236
3 238 237 63
3 64 65 0
3 66 65 64
3 66 6 65
3 28 66 5
3 67 66 28
3 67 6 66
3 67 34 6
3 68 34 67
3 68 239 241
3 241 240 34
3 239 240 241
3 68 242 243
3 245 244 68
3 247 246 7
3 248 69 249
3 70 250 252
3 250 69 251
3 250 251 252
3 70 8 69
3 29 253 255
3 253 70 254
3 253 254 255
3 71 70 29
3 71 8 70
3 71 40 8
3 72 40 71
3 72 2 40
3 256 73 257
3 258 73 259
3 260 10 261
3 262 261 73
3 260 261 262
3 74 263 264
3 74 265 267
3 265 10 266
3 265 266 267
3 74 46 10
3 75 46 74
3 75 3 46
3 75 76 3
3 268 76 269
3 270 269 75
3 268 269 270
3 271 11 272
3 273 272 76
3 271 272 273
3 274 11 275
3 276 53 277
3 278 277 11
3 276 277 278
3 77 279 281
3 279 53 280
3 279 280 281
3 77 4 53
3 78 79 1
3 282 79 283
3 284 283 78
3 282 283 284
3 286 285 79
3 288 287 12
3 289 80 290
3 291 80 292
3 293 13 294
3 295 294 80
3 293 294 295
3 296 13 297
3 299 298 13
3 81 300 301
3 82 302 304
3 304 303 81
3 302 303 304
3 82 305 306
3 32 82 14
3 83 82 32
3 83 307 309
3 309 308 82
3 307 308 309
3 83 310 312
3 310 61 311
3 310 311 312
3 84 61 83
3 84 1 61
3 65 33 0
3 85 33 65
3 85 15 33
3 35 85 6
3 86 85 35
3 86 15 85
3 86 84 15
3 87 84 86
3 87 1 84
3 87 78 1
3 88 78 87
3 88 12 78
3 37 88 16
3 89 88 37
3 89 12 88
3 89 30 12
3 90 30 89
3 90 313 315
3 315 314 30
3 313 314 315
3 90 316 317
3 91 318 320
3 320 319 90
3 318 319 320
3 91 321 322
3 39 91 17
3 323 91 324
3 325 324 39
3 323 324 325
3 327 326 91
3 69 328 329
3 92 330 332
3 332 331 69
3 330 331 332
3 92 333 334
3 335 92 336
3 337 336 8
3 335 336 337
3 338 92 339
3 341 340 92
3 93 342 343
3 93 344 345
3 42 93 18
3 346 93 347
3 348 347 42
3 346 347 348
3 350 349 93
3 80 351 352
3 94 353 355
3 355 354 80
3 353 354 355
3 94 356 358
3 356 9 357
3 356 357 358
3 44 94 13
3 95 94 44
3 95 9 94
3 95 72 9
3 96 72 95
3 96 2 72
3 73 359 361
3 359 45 360
3 359 360 361
3 97 45 73
3 97 20 45
3 47 97 10
3 98 97 47
3 98 20 97
3 98 96 20
3 99 96 98
3 99 2 96
3 99 43 2
3 100 43 99
3 100 19 43
3 49 100 21
3 101 100 49
3 101 19 100
3 101 362 364
3 364 363 19
3 362 363 364
3 102 365 367
3 367 366 101
3 365 366 367
3 102 368 369
3 102 370 372
3 370 81 371
3 370 371 372
3 103 81 102
3 103 14 81
3 51 103 22
3 104 103 51
3 104 14 103
3 104 31 14
3 105 31 104
3 105 0 31
3 76 52 3
3 106 52 76
3 106 23 52
3 54 106 11
3 107 106 54
3 107 23 106
3 107 105 23
3 108 105 107
3 108 0 105
3 108 64 0
3 109 64 108
3 109 5 64
3 56 109 24
3 110 109 56
3 110 5 109
3 110 27 5
3 111 27 110
3 111 373 375
3 375 374 27
3 373 374 375
3 376 77 377
3 378 77 379
3 380 4 381
3 382 381 77
3 380 381 382
3 58 383 384
3 112 385 387
3 387 386 58
3 385 386 387
3 112 388 389
3 112 390 391
3 113 392 394
3 394 393 112
3 392 393 394
3 113 395 397
3 395 4 396
3 395 396 397
3 113 57 4
3 114 57 113
3 114 25 57
3 60 114 26
3 115 114 60
3 115 25 114
3 115 111 25
3 398 111 399
3 400 399 115
3 398 399 400
3 402 401 111
3 79 62 1
3 116 62 79
3 116 403 405
3 405 404 62
3 403 404 405
3 63 406 408
3 406 116 407
3 406 407 408
3 409 116 410
3 411 410 63
3 409 410 411
3 413 412 116
