ply
format ascii 1.0
element vertex 298
property float x
property float y
property float z
element face 276
property list uchar int vertex_index
end_header
-43.123726 27.043858 7.050142
-34.522377 37.264011 -2.094172
-37.113029 15.812687 7.141715
-37.709122 33.209209 4.305387
-49.265808 20.708775 6.645533
-42.191345 19.181519 8.387702
-39.390617 22.097881 7.773809
-37.004948 24.912209 6.257298
-40.223915 30.253292 6.158838
-52.175598 17.73745 5.964091
-44.088379 43.540329 -0.000153
-35.176228 27.408627 3.791076
-35.775784 35.633839 1.489461
-45.26125 16.334393 8.261321
-46.201008 23.815891 7.127885
-44.632843 34.160954 5.342397
-41.851597 37.447269 3.613961
-39.458733 40.274334 1.012075
-42.589188 23.194332 7.735015
-40.748211 20.639942 8.18565
-41.113026 24.74334 7.507874
-39.713223 26.278549 7.05985
-41.638947 28.664017 6.718205
-47.260792 47.41795 -2.330786
-34.08519 33.530235 -0.583759
-34.126072 37.728031 -4.068377
-38.068508 14.567142 8.088476
-36.291351 17.02066 5.991165
-37.232796 29.191891 5.438393
-36.012989 26.213726 5.139815
-36.196686 30.507465 4.256063
-35.321831 31.687202 2.839255
-36.659885 34.505684 3.010251
-48.833637 17.232632 7.01281
-46.851566 14.963802 7.997645
-47.261375 18.66909 7.364175
-45.68409 20.143852 7.629699
-47.745705 22.24358 6.936859
-43.209167 35.842342 4.585814
-44.207901 39.068523 3.166476
-41.73777 42.04776 0.500519
-38.47364 41.413437 -0.59617
-41.896904 15.037357 9.049876
-40.509941 16.392044 8.79937
-39.219482 17.756325 8.351164
-38.039513 19.110184 7.690504
-36.983437 20.430477 6.80793
-38.136765 23.530994 7.134623
-38.412224 27.771667 6.373225
-38.905163 31.779823 5.356647
-50.745182 19.209015 6.302751
-36.064072 21.693138 5.700879
-35.292526 22.875092 4.375623
-34.504318 28.472446 2.231739
-34.618458 32.702522 1.213771
-35.065144 36.561543 -0.225835
-43.701824 17.742081 8.403239
-44.119934 21.655392 7.765536
-44.652603 25.420578 7.177182
-52.474686 20.889778 6.043376
-51.160477 22.456455 6.29357
-49.772057 24.050415 6.518895
-48.320694 25.677288 6.668891
-46.82618 27.336384 6.700732
-45.313137 29.018372 6.578804
-43.808556 30.70509 6.273532
-42.340843 32.370949 5.760626
-40.939491 33.984894 5.021503
-39.634434 35.511948 4.045009
-40.591938 38.938171 2.421159
-38.454269 36.914318 2.829848
-37.423279 38.152538 1.386848
-36.557461 39.187786 -0.259959
-35.860355 39.986004 -2.074265
-34.114508 35.709913 -2.301982
-33.895914 33.843025 -1.546776
-34.303783 35.397123 -1.338966
-34.324224 37.496021 -3.081275
-33.916355 35.941923 -3.289084
-34.114508 35.709913 -2.301982
-37.223768 13.47019 7.224336
-37.701508 12.847418 7.697717
-37.590768 15.189915 7.615095
-36.872617 14.043064 6.603666
-37.223768 13.47019 7.224336
-36.70219 16.416674 6.56644
-36.461778 14.64705 6.028391
-36.872617 14.043064 6.603666
-45.369084 39.753422 3.009232
-44.884018 38.236248 3.687399
-51.281374 16.783794 6.295429
-52.045433 16.096243 6.113547
-51.46039 18.473233 6.133421
-50.566166 17.519577 6.464759
-51.281374 16.783794 6.295429
-46.25711 46.81356 -2.222428
-46.783223 48.052158 -3.325863
-34.926142 25.682207 3.319716
-34.984291 23.41544 3.611989
-35.234377 25.141859 4.083349
-34.840273 27.940537 3.011407
-34.590187 26.214117 2.540047
-34.926142 25.682207 3.319716
-45.080355 14.371937 8.651665
-45.875513 13.686642 8.519827
-46.056408 15.649097 8.129483
-44.313333 15.020725 8.691822
-45.080355 14.371937 8.651665
-44.481537 17.038237 8.33228
-43.53362 15.724569 8.762781
-44.313333 15.020725 8.691822
-52.647288 22.403835 6.242164
-53.189492 21.582422 6.193885
-51.990183 23.187174 6.367261
-51.817582 21.673116 6.168473
-52.647288 22.403835 6.242164
-50.059637 25.654856 6.535736
-50.702736 24.813662 6.522828
-49.333956 26.468292 6.610734
-49.046375 24.863852 6.593893
-50.059637 25.654856 6.535736
-47.187382 29.017416 6.484244
-47.90177 28.15222 6.589022
-46.43086 29.85841 6.42328
-46.069659 28.177378 6.639768
-47.187382 29.017416 6.484244
-45.361437 33.298859 5.61966
-45.789442 34.916185 5.202741
-44.2207 32.433022 5.807965
-44.949294 31.570927 6.085228
-45.361437 33.298859 5.61966
-43.505862 42.084972 0.965105
-44.681715 42.797664 0.753956
-37.10239 40.751333 -1.316782
-37.515551 40.300612 -0.428064
-38.06048 41.864159 -1.484888
-36.753838 41.150442 -2.223936
-36.208908 39.586895 -1.167112
-37.10239 40.751333 -1.316782
-52.867508 17.012337 5.826564
-52.045433 16.096243 6.113547
-48.059832 47.977589 -2.274454
-47.765883 46.692196 -1.377996
-47.617653 48.653813 -3.339258
-48.059832 47.977589 -2.274454
-46.783223 48.052158 -3.325863
-47.617653 48.653813 -3.339258
-33.865612 31.83159 -0.985047
-34.041551 31.457651 -0.045377
-33.865612 31.83159 -0.985047
-33.895914 33.843025 -1.546776
-33.789642 36.152149 -4.293416
-33.916355 35.941923 -3.289084
-33.983141 37.841419 -5.084449
-33.789642 36.152149 -4.293416
-38.118234 12.26523 8.227685
-38.609604 13.935797 8.460411
-38.118234 12.26523 8.227685
-37.701508 12.847418 7.697717
-36.17613 15.202267 5.320156
-36.461778 14.64705 6.028391
-35.950314 17.595983 5.316687
-36.17613 15.202267 5.320156
-47.842602 16.098217 7.505228
-47.654045 14.296506 7.826532
-48.645081 15.430922 7.334115
-45.096489 35.782463 4.77536
-45.789442 34.916185 5.202741
-44.384651 36.623158 4.397068
-43.921005 35.001648 4.964106
-45.096489 35.782463 4.77536
-43.708534 37.455433 3.876145
-44.384651 36.623158 4.397068
-44.884018 38.236248 3.687399
-42.36791 43.450742 -0.582412
-42.913075 42.794044 0.250183
-43.543215 44.197027 -0.832748
-41.207258 42.663975 -0.305623
-42.36791 43.450742 -0.582412
-40.06774 41.777262 -0.049845
-40.598252 41.161047 0.756297
-41.207258 42.663975 -0.305623
-39.575193 42.346813 -0.853967
-38.966187 40.843885 0.207953
-40.06774 41.777262 -0.049845
-39.114912 42.848297 -1.739451
-39.575193 42.346813 -0.853967
-38.06048 41.864159 -1.484888
-39.114912 42.848297 -1.739451
-41.124153 13.540478 9.21446
-41.778883 12.918657 9.394056
-40.430672 14.217822 9.089208
-41.124153 13.540478 9.21446
-41.203423 15.7147 8.924623
-39.83032 14.848247 8.815858
-40.430672 14.217822 9.089208
-39.185091 15.530388 8.591755
-39.83032 14.848247 8.815858
-39.864711 17.074185 8.575267
-38.643995 16.161734 8.21982
-38.609604 13.935797 8.460411
-39.185091 15.530388 8.591755
-49.610394 16.531385 6.819788
-48.645081 15.430922 7.334115
-49.78941 18.220824 6.65778
-49.610394 16.531385 6.819788
-50.566166 17.519577 6.464759
-45.207217 44.182508 -0.174219
-44.681715 42.797664 0.753956
-46.793423 46.121319 -1.339536
-47.765883 46.692196 -1.377996
-46.793423 46.121319 -1.339536
-46.25711 46.81356 -2.222428
-44.670904 44.87475 -1.057111
-45.207217 44.182508 -0.174219
-43.543215 44.197027 -0.832748
-44.670904 44.87475 -1.057111
-35.836674 19.932223 5.171544
-35.950314 17.595983 5.316687
-36.177712 19.356899 5.846022
-35.450901 20.523199 4.508916
-35.836674 19.932223 5.171544
-35.678299 22.284115 5.038251
-35.181442 21.061226 3.741709
-35.450901 20.523199 4.508916
-35.181442 21.061226 3.741709
-34.984291 23.41544 3.611989
-34.359918 26.695532 1.688296
-34.590187 26.214117 2.540047
-34.251115 28.928756 1.362372
-34.359918 26.695532 1.688296
-34.308185 31.043795 0.853388
-34.251115 28.928756 1.362372
-34.561388 30.587484 1.722755
-34.351824 33.116378 0.315006
-34.041551 31.457651 -0.045377
-34.308185 31.043795 0.853388
-46.667184 13.055217 8.419462
-47.654045 14.296506 7.826532
-46.667184 13.055217 8.419462
-45.875513 13.686642 8.519827
-42.631161 14.372208 9.086099
-41.778883 12.918657 9.394056
-42.799364 16.389719 8.726557
-42.631161 14.372208 9.086099
-43.53362 15.724569 8.762781
-52.945724 18.540029 5.894516
-52.867508 17.012337 5.826564
-53.095269 20.116194 5.934159
-53.189492 21.582422 6.193885
-52.325142 19.313614 6.003734
-52.945724 18.540029 5.894516
-53.095269 20.116194 5.934159
-51.396946 24.016681 6.410165
-51.990183 23.187174 6.367261
-50.466267 23.253435 6.406232
-51.396946 24.016681 6.410165
-50.702736 24.813662 6.522828
-48.649027 27.322672 6.573101
-49.333956 26.468292 6.610734
-47.573437 26.506836 6.684812
-48.649027 27.322672 6.573101
-47.90177 28.15222 6.589022
-45.701584 30.727568 6.237863
-46.43086 29.85841 6.42328
-44.560846 29.861731 6.426168
-45.701584 30.727568 6.237863
-44.949294 31.570927 6.085228
-44.741476 40.561762 2.33727
-45.369084 39.753422 3.009232
-43.565623 39.849069 2.54842
-44.741476 40.561762 2.33727
-42.38747 39.038443 2.772163
-43.029749 38.257896 3.390219
-43.565623 39.849069 2.54842
-42.330557 41.338688 1.215442
-43.505862 42.084972 0.965105
-42.913075 42.794044 0.250183
-41.757641 39.783893 2.175762
-42.330557 41.338688 1.215442
-41.164854 40.492965 1.460839
-41.221767 38.19272 3.01756
-42.38747 39.038443 2.772163
-41.757641 39.783893 2.175762
-36.417996 41.465607 -3.176812
-36.753838 41.150442 -2.223936
-35.590036 40.254627 -3.042543
-36.417996 41.465607 -3.176812
-34.921047 38.893631 -3.052497
-35.191366 38.625008 -2.084218
-35.590036 40.254627 -3.042543
-34.722894 39.125641 -4.039599
-34.324224 37.496021 -3.081275
-34.921047 38.893631 -3.052497
-34.516348 39.259197 -5.044477
-34.722894 39.125641 -4.039599
-33.983141 37.841419 -5.084449
-34.516348 39.259197 -5.044477
3 0 20 18
3 0 22 20
3 1 74 76
3 76 75 24
3 74 75 76
3 1 77 79
3 77 25 78
3 77 78 79
3 2 80 82
3 82 81 26
3 80 81 82
3 2 83 84
3 2 85 87
3 85 27 86
3 85 86 87
3 3 30 28
3 3 32 30
3 4 35 33
3 4 37 35
3 88 39 89
3 5 43 42
3 6 44 19
3 6 45 44
3 6 47 45
3 8 48 21
3 8 49 48
3 9 90 91
3 9 92 94
3 92 50 93
3 92 93 94
3 96 95 23
3 7 51 46
3 11 52 29
3 11 97 99
3 99 98 52
3 97 98 99
3 11 100 102
3 100 53 101
3 100 101 102
3 12 54 31
3 12 55 54
3 13 103 105
3 105 104 34
3 103 104 105
3 13 106 107
3 13 108 110
3 108 56 109
3 108 109 110
3 14 57 36
3 14 58 57
3 111 59 112
3 113 60 114
3 115 114 59
3 113 114 115
3 116 61 117
3 118 62 119
3 120 119 61
3 118 119 120
3 121 63 122
3 123 64 124
3 125 124 63
3 123 124 125
3 15 126 127
3 15 128 130
3 128 65 129
3 128 129 130
3 15 66 65
3 16 67 38
3 16 68 67
3 10 131 132
3 17 69 40
3 17 70 69
3 17 71 70
3 133 72 134
3 135 134 41
3 133 134 135
3 136 73 137
3 138 137 72
3 136 137 138
3 18 19 5
3 20 19 18
3 20 6 19
3 20 21 6
3 22 21 20
3 22 8 21
3 139 9 140
3 141 23 142
3 143 23 144
3 146 145 23
3 24 147 148
3 150 149 24
3 25 151 152
3 25 153 154
3 26 155 156
3 158 157 26
3 27 159 160
3 27 161 162
3 28 29 7
3 30 29 28
3 30 11 29
3 30 31 11
3 32 31 30
3 32 12 31
3 33 163 165
3 163 34 164
3 163 164 165
3 35 34 33
3 35 13 34
3 35 36 13
3 37 36 35
3 37 14 36
3 166 15 167
3 168 38 169
3 170 169 15
3 168 169 170
3 39 171 173
3 171 38 172
3 171 172 173
3 39 16 38
3 174 40 175
3 176 175 10
3 174 175 176
3 177 40 178
3 179 17 180
3 181 180 40
3 179 180 181
3 182 41 183
3 184 183 17
3 182 183 184
3 185 41 186
3 188 187 41
3 42 189 190
3 43 191 193
3 193 192 42
3 191 192 193
3 43 194 195
3 19 43 5
3 44 43 19
3 44 196 198
3 198 197 43
3 196 197 198
3 44 199 201
3 199 26 200
3 199 200 201
3 45 26 44
3 45 2 26
3 45 46 2
3 47 46 45
3 47 7 46
3 21 47 6
3 48 47 21
3 48 7 47
3 48 28 7
3 49 28 48
3 49 3 28
3 202 33 203
3 50 204 206
3 204 33 205
3 204 205 206
3 50 4 33
3 207 10 208
3 23 209 210
3 212 211 23
3 213 10 214
3 216 215 10
3 46 27 2
3 51 27 46
3 51 217 219
3 219 218 27
3 217 218 219
3 29 51 7
3 52 51 29
3 52 220 222
3 222 221 51
3 220 221 222
3 52 223 224
3 226 225 52
3 53 227 228
3 53 229 230
3 31 53 11
3 54 53 31
3 54 231 233
3 233 232 53
3 231 232 233
3 54 234 236
3 234 24 235
3 234 235 236
3 55 24 54
3 55 1 24
3 34 237 238
3 240 239 34
3 241 42 242
3 56 243 245
3 243 42 244
3 243 244 245
3 56 5 42
3 36 56 13
3 57 56 36
3 57 5 56
3 57 18 5
3 58 18 57
3 58 0 18
3 246 9 247
3 59 248 249
3 59 250 252
3 250 9 251
3 250 251 252
3 59 50 9
3 60 50 59
3 60 4 50
3 253 60 254
3 61 255 257
3 255 60 256
3 255 256 257
3 61 4 60
3 61 37 4
3 62 37 61
3 62 14 37
3 258 62 259
3 63 260 262
3 260 62 261
3 260 261 262
3 63 14 62
3 63 58 14
3 64 58 63
3 64 0 58
3 263 64 264
3 65 265 267
3 265 64 266
3 265 266 267
3 65 0 64
3 65 22 0
3 66 22 65
3 66 8 22
3 38 66 15
3 67 66 38
3 67 8 66
3 67 49 8
3 68 49 67
3 68 3 49
3 268 39 269
3 270 39 271
3 272 16 273
3 274 273 39
3 272 273 274
3 40 275 277
3 277 276 10
3 275 276 277
3 69 278 280
3 280 279 40
3 278 279 280
3 69 281 283
3 281 16 282
3 281 282 283
3 69 68 16
3 70 68 69
3 70 3 68
3 70 32 3
3 71 32 70
3 71 12 32
3 41 71 17
3 72 71 41
3 72 12 71
3 72 55 12
3 73 55 72
3 73 1 55
3 284 73 285
3 286 73 287
3 288 1 289
3 290 289 73
3 288 289 290
3 291 25 292
3 293 292 1
3 291 292 293
3 294 25 295
3 297 296 25
