ply
format ascii 1.0
element vertex 547
property float x
property float y
property float z
element face 600
property list uchar int vertex_index
end_header
-65.149277 5.467525 10.534558
-53.792686 -11.287699 15.010088
-40.566326 -6.157322 12.458018
-54.909988 14.855797 5.535781
-62.029716 -1.389009 10.231513
-54.637287 1.908249 8.986103
-62.802437 -12.202734 16.165993
-41.660862 10.799957 9.738235
-45.862839 -9.120279 14.775846
-47.730629 6.120173 9.677609
-63.502735 -21.475868 21.530968
-53.909531 -22.587883 19.383282
-64.345093 2.634321 9.679188
-61.393402 4.200434 7.93389
-65.293808 -2.339649 11.953531
-39.1507 13.304451 8.832346
-48.986599 -16.887413 17.301851
-45.030689 -16.202385 16.810495
-49.540466 -10.337247 14.990467
-54.877357 8.570564 6.561351
-51.097076 3.948736 9.224545
-51.668182 11.048462 6.942707
-48.456524 13.629211 7.655419
-66.674316 -16.40229 21.074217
-58.372246 -11.924245 15.267212
-58.523827 -17.262682 17.92462
-53.622528 -17.228992 17.501143
-58.359055 -6.083911 12.274504
-54.210594 -4.827149 12.036657
-58.337608 0.084536 9.271753
-58.132767 6.246677 6.858475
-57.597343 12.073919 5.778817
-66.445442 -12.060966 17.984703
-66.006485 -7.362661 14.842075
-62.473637 -6.963796 13.134804
-41.188251 2.223764 11.152365
-39.116478 4.292126 9.594889
-37.593884 6.445887 7.345142
-36.587303 8.59824 4.457108
-41.590038 -21.90959 16.620552
-41.981724 -15.196495 15.608088
-42.857075 -7.708975 13.999563
-50.343765 -3.293401 12.142227
-46.860191 -1.572342 12.24997
-43.790367 0.271523 12.004895
-44.557041 8.398849 9.955825
-63.093502 -16.999769 19.028763
-58.969925 -22.137611 20.113964
-64.931778 4.271332 9.994022
-63.778267 4.97567 8.964359
-65.786987 3.915827 11.183886
-65.533203 2.144981 10.796482
-51.372574 -14.049681 16.282726
-49.211594 -13.688124 16.230675
-51.605305 -10.849409 14.997976
-54.911606 11.773247 5.834189
-53.270355 9.795511 6.684449
-53.420063 13.102585 5.980471
-51.915268 14.455036 6.263003
-53.559418 16.287224 5.689037
-56.065823 -11.647437 15.082013
-56.0326 -14.534483 16.431515
-53.662239 -14.331648 16.329041
-51.240669 -17.099483 17.406172
-40.226463 -10.148171 13.018333
-39.463779 -9.395038 11.779927
-60.340855 -3.666369 11.102764
-58.359276 -3.021875 10.743332
-60.205357 -0.706182 9.662451
-60.944099 6.898035 7.211737
-59.774231 5.178928 7.303212
-59.428078 8.0196 6.562122
-57.909164 9.217438 6.109053
-58.971153 10.750315 6.222151
-67.363861 -7.366459 16.053308
-67.022949 -4.999526 14.54336
-63.749104 -1.940351 10.989799
-64.074471 -4.608408 12.384774
-62.268822 -4.201121 11.64301
-60.450691 -6.577827 12.611353
-41.43692 6.512836 10.446233
-40.083454 3.243887 10.462561
-40.223137 7.643358 9.934931
-38.167961 9.963318 8.366894
-37.334507 11.127693 7.306958
-37.029278 7.528912 5.976725
-36.632206 12.273441 6.065618
-43.024281 -22.30377 17.484381
-45.401287 -12.737223 15.873783
-43.384705 -15.73524 16.316578
-43.789589 -12.162391 15.469388
-42.387436 -11.534317 14.867476
-44.272659 -8.434407 14.475373
-54.437439 -1.472965 10.482757
-52.23214 -4.089087 12.066418
-52.555256 -0.598766 10.530653
-49.392441 5.021099 9.448616
-48.995354 1.28565 10.801919
-47.319862 2.277189 10.933853
-45.271015 -0.663677 12.19104
-45.717484 3.295063 11.000634
-44.195541 4.339024 10.961292
-46.115768 7.245312 9.861581
-65.361847 -21.05654 22.578382
-64.762894 -12.187399 16.951012
-64.911255 -14.509212 18.469666
-62.94421 -14.652413 17.633455
-56.211231 -19.895672 18.737713
-58.700787 -19.749729 19.079908
-56.462341 -22.389429 19.686672
-46.758492 -22.735498 18.578247
-63.374851 0.724457 9.746061
-61.745129 1.426214 8.968115
-62.940269 3.338617 8.730532
-62.416794 5.873047 8.025911
-66.596436 -2.579353 13.139997
-66.094772 -0.169222 11.874938
-64.846481 0.185015 10.707649
-40.351402 12.0436 9.379045
-46.741974 -19.754559 17.946259
-44.801491 -19.489067 17.564081
-46.905571 -16.588326 17.122948
-47.213524 -13.248772 16.112568
-47.621632 -9.75788 14.933223
-54.787544 5.270512 7.644295
-52.84481 2.908043 9.055527
-53.083645 6.386484 7.739579
-51.403416 7.536329 7.95651
-49.742699 8.713362 8.247921
-48.100796 9.915968 8.560553
-50.064003 12.325777 7.285191
-50.38715 15.830139 6.626767
-65.188507 -18.918985 21.299736
-60.644211 -12.112099 15.614731
-60.752769 -14.699574 17.036108
-58.421165 -14.658127 16.649574
-56.073837 -17.282043 17.653139
-53.698589 -19.978252 18.518147
-51.393539 -22.722956 19.142328
-51.240028 -19.989975 18.358379
-48.90266 -19.91922 18.190369
-56.150475 -8.627757 13.624558
-53.985493 -8.110862 13.566067
-56.263077 -5.496055 12.093897
-56.379005 -2.285418 10.544205
-56.472313 0.961988 9.050644
-60.02491 2.25728 8.366552
-58.270069 3.189274 7.944757
-56.517975 4.199766 7.705958
-56.497246 7.382969 6.612168
-56.404079 10.473991 5.868183
-56.248512 13.447586 5.55427
-66.259583 -9.762598 16.400116
-64.580383 -9.761114 15.40633
-65.683014 -4.875308 13.347456
-64.351997 -7.228418 13.871767
-62.649502 -9.638544 14.655504
-60.548088 -9.401694 14.129467
-58.35746 -9.061172 13.798316
-40.896408 -2.016741 11.830538
-39.693607 -5.330829 11.391884
-39.074509 -0.149744 9.893829
-39.131718 8.797026 9.242826
-38.28772 5.362732 8.553648
-40.469601 -21.406923 15.515164
-43.113129 -19.122866 16.993176
-41.697811 -18.66292 16.198502
-40.565891 -18.120367 15.163157
-40.828365 -14.596653 14.668823
-41.199547 -10.861373 14.051116
-41.620689 -6.949457 13.329114
-51.903954 -7.518958 13.577546
-49.931648 -6.860828 13.611311
-48.082619 -6.146276 13.618513
-50.740677 0.324389 10.651606
-48.55217 -2.451233 12.218979
-46.364075 -5.385579 13.5516
-44.780796 -4.587869 13.367848
-43.337811 -3.759384 13.033081
-42.041073 -2.902599 12.524323
-42.426437 1.233383 11.664176
-42.764706 5.411041 10.783863
-43.067299 9.583597 9.923892
-46.482803 11.146631 8.84128
-44.89946 12.409481 9.042009
-43.365417 13.707058 9.122323
-66.576843 -14.266304 19.555786
-65.045273 -16.744562 19.927841
-63.272858 -19.266531 20.330025
-60.892063 -17.170307 18.369444
-61.08326 -19.541496 19.597631
-61.345543 -21.834452 20.716331
-66.357307 3.860518 12.667064
-38.901253 -8.599102 10.355654
-64.718636 5.858012 10.086119
-64.609886 5.259915 9.81585
-65.040527 4.869428 10.26429
-59.898096 8.756068 6.717535
-60.186088 7.458818 6.886929
-60.656106 8.195285 7.042343
-59.669634 10.121425 6.54755
-59.199616 9.384958 6.392136
-59.898096 8.756068 6.717535
-67.311653 -3.835547 14.549962
-67.528839 -4.99626 15.256989
-37.223768 13.47019 7.224336
-37.701508 12.847418 7.697717
-36.872617 14.043064 6.603666
-36.983356 11.700567 6.686288
-37.223768 13.47019 7.224336
-36.461778 14.64705 6.028391
-36.872617 14.043064 6.603666
-43.890482 -22.441756 17.804586
-43.089995 -23.785132 17.635022
-63.648977 -22.560784 22.090153
-64.578533 -22.35112 22.61386
-64.432291 -21.266204 22.054675
-62.596552 -22.771963 21.636475
-63.648977 -22.560784 22.090153
-54.087521 -23.83005 19.748313
-55.363926 -23.730823 19.900008
-55.185936 -22.488656 19.534977
-52.811628 -23.948056 19.578792
-54.087521 -23.83005 19.748313
-45.842598 -24.101256 18.536933
-45.757587 -22.65762 18.35152
-62.758358 6.549234 8.334707
-63.097531 5.424359 8.495135
-63.439094 6.100546 8.803931
-62.089699 7.093388 7.861714
-62.758358 6.549234 8.334707
-66.275207 0.861178 12.004017
-66.582062 -0.258138 12.572957
-51.281374 16.783794 6.295429
-51.151209 15.142588 6.444885
-52.045433 16.096243 6.113547
-50.566166 17.519577 6.464759
-51.281374 16.783794 6.295429
-66.717742 -17.449915 21.792912
-67.299435 -16.191384 21.766008
-65.931411 -17.660637 21.186977
-65.974838 -18.708263 21.905671
-66.717742 -17.449915 21.792912
-40.547922 0.562092 11.051824
-40.402 -1.558161 11.390911
-41.04233 0.103511 11.491452
-38.754326 2.561756 9.13232
-38.733341 0.340821 9.28179
-39.095494 2.071191 9.744359
-37.722491 4.142342 7.318592
-38.069409 3.600765 7.922845
-37.940802 5.90431 7.949395
-37.516339 4.655072 6.559299
-37.722491 4.142342 7.318592
-36.864563 6.247988 4.291652
-37.08555 5.713324 5.05146
-36.80829 8.063576 5.216916
-36.767456 6.763794 3.409861
-36.864563 6.247988 4.291652
-36.424375 9.119903 3.627285
-36.767456 6.763794 3.409861
-41.088832 -23.175773 16.163791
-41.646032 -23.416194 16.741458
-41.02982 -21.658257 16.067858
-40.528614 -22.92444 15.611097
-41.088832 -23.175773 16.163791
-45.080355 14.371937 8.651665
-45.875513 13.686642 8.519827
-44.313333 15.020725 8.691822
-44.132438 13.058269 9.082166
-45.080355 14.371937 8.651665
-43.53362 15.724569 8.762781
-44.313333 15.020725 8.691822
-66.511143 -13.163635 18.770245
-67.179665 -13.046728 19.410177
-67.113964 -11.944059 18.624636
-59.1558 -23.291354 20.578384
-60.343609 -23.139775 20.879567
-60.157734 -21.986031 20.415147
-50.327284 -24.095821 19.288373
-50.191006 -22.750614 19.019448
-66.075535 4.8181 13.043873
-66.520973 3.880177 13.563574
-65.946526 4.74421 12.193027
-66.075535 4.8181 13.043873
-38.949329 -6.533036 10.250149
-39.29743 -6.964965 10.873769
-39.345506 -4.898899 10.768264
-64.03313 5.612084 9.301019
-64.355022 4.623501 9.47919
-64.609886 5.259915 9.81585
-63.439094 6.100546 8.803931
-64.03313 5.612084 9.301019
-65.660095 3.030404 10.990184
-65.994423 2.01828 11.464789
-66.121315 2.903703 11.65849
-52.867508 17.012337 5.826564
-52.045433 16.096243 6.113547
-52.737343 15.37113 5.97602
-67.276626 -15.165851 20.979578
-67.299435 -16.191384 21.766008
-39.743761 -11.695097 12.566166
-40.075279 -12.046027 13.258807
-39.362419 -11.31853 11.946963
-39.743761 -11.695097 12.566166
-39.845121 -9.771604 12.39913
-39.143936 -10.942686 11.158572
-39.362419 -11.31853 11.946963
-67.699295 -6.179727 16.011964
-67.864818 -7.309477 16.774973
-67.193405 -6.182993 15.298334
-67.699295 -6.179727 16.011964
-67.528839 -4.99626 15.256989
-38.118234 12.26523 8.227685
-38.65933 11.633885 8.59962
-38.609604 13.935797 8.460411
-37.751234 10.545506 7.836926
-38.118234 12.26523 8.227685
-37.701508 12.847418 7.697717
-36.346558 12.828657 5.357383
-36.324106 10.991056 4.553128
-36.609754 10.435841 5.261363
-36.17613 15.202267 5.320156
-36.346558 12.828657 5.357383
-36.461778 14.64705 6.028391
-42.363153 -23.613284 17.173372
-43.089995 -23.785132 17.635022
-42.307159 -22.10668 17.052467
-41.646032 -23.416194 16.741458
-42.363153 -23.613284 17.173372
-47.654045 14.296506 7.826532
-48.645081 15.430922 7.334115
-65.469605 -22.114936 23.180791
-66.217407 -21.87473 23.822143
-66.109649 -20.816334 23.219735
-64.68629 -23.409516 23.216268
-65.469605 -22.114936 23.180791
-64.578533 -22.35112 22.61386
-56.649608 -23.585034 20.101529
-57.903401 -23.459125 20.315175
-57.716133 -22.26352 19.900318
-56.649608 -23.585034 20.101529
-55.363926 -23.730823 19.900008
-46.868426 -24.132357 18.803305
-47.873482 -22.756884 18.737407
-46.868426 -24.132357 18.803305
-45.842598 -24.101256 18.536933
-61.353352 7.605882 7.454626
-61.680447 6.385541 7.618824
-62.089699 7.093388 7.861714
-60.656106 8.195285 7.042343
-61.353352 7.605882 7.454626
-66.832893 -1.463204 13.205486
-67.098397 -2.62546 13.84828
-66.345604 -1.374287 12.507468
-66.832893 -1.463204 13.205486
-66.582062 -0.258138 12.572957
-65.813987 0.98788 11.33571
-66.275207 0.861178 12.004017
-65.994423 2.01828 11.464789
-41.124153 13.540478 9.21446
-41.006132 11.421778 9.55864
-41.778883 12.918657 9.394056
-40.430672 14.217822 9.089208
-41.124153 13.540478 9.21446
-39.83032 14.848247 8.815858
-39.751051 12.674025 9.105695
-40.430672 14.217822 9.089208
-39.185091 15.530388 8.591755
-39.83032 14.848247 8.815858
-38.609604 13.935797 8.460411
-39.185091 15.530388 8.591755
-45.771732 -19.621813 17.75517
-44.779087 -21.034405 17.844437
-45.749329 -21.16715 18.035525
-49.610394 16.531385 6.819788
-48.645081 15.430922 7.334115
-49.421837 14.729675 7.141093
-49.610394 16.531385 6.819788
-50.566166 17.519577 6.464759
-66.061508 -19.77704 22.544994
-66.109649 -20.816334 23.219735
-65.275177 -19.987762 21.939059
-66.061508 -19.77704 22.544994
-65.974838 -18.708263 21.905671
-50.11425 -21.384123 18.627474
-50.191006 -22.750614 19.019448
-51.316783 -21.356465 18.750353
-48.945566 -21.348745 18.543468
-50.11425 -21.384123 18.627474
-50.071344 -19.954597 18.274374
-47.830576 -21.327359 18.384308
-47.873482 -22.756884 18.737407
-48.945566 -21.348745 18.543468
-45.749329 -21.16715 18.035525
-45.757587 -22.65762 18.35152
-46.750233 -21.245029 18.262253
-67.030407 -10.852855 17.812066
-67.113964 -11.944059 18.624636
-67.489616 -8.505601 16.846369
-67.864818 -7.309477 16.774973
-66.937477 -9.703671 17.019773
-67.489616 -8.505601 16.846369
-66.811722 -8.564528 16.226712
-66.352513 -10.911782 17.19241
-67.030407 -10.852855 17.812066
-66.937477 -9.703671 17.019773
-66.809692 -3.78944 13.841679
-67.311653 -3.835547 14.549962
-67.098397 -2.62546 13.84828
-39.8006 -3.215205 11.171584
-40.295007 -3.673785 11.611211
-40.402 -1.558161 11.390911
-39.345506 -4.898899 10.768264
-39.8006 -3.215205 11.171584
-39.995524 1.072153 10.706922
-40.547922 0.562092 11.051824
-40.635852 2.733826 10.807463
-39.491051 -0.624662 10.422556
-39.995524 1.072153 10.706922
-39.578981 1.547071 10.178195
-39.035957 -2.308356 10.019236
-39.491051 -0.624662 10.422556
-38.770777 -1.856707 9.314253
-39.035957 -2.308356 10.019236
-38.770777 -1.856707 9.314253
-38.733341 0.340821 9.28179
-38.339947 3.09706 8.611699
-38.754326 2.561756 9.13232
-38.702099 4.827429 9.074269
-38.339947 3.09706 8.611699
-38.069409 3.600765 7.922845
-37.234035 5.196584 5.875091
-37.516339 4.655072 6.559299
-37.311581 6.9874 6.660934
-37.234035 5.196584 5.875091
-37.08555 5.713324 5.05146
-36.424375 9.119903 3.627285
-36.324106 10.991056 4.553128
-40.143789 -22.622452 14.917156
-40.202802 -24.139969 15.013089
-40.528614 -22.92444 15.611097
-40.067224 -21.108161 14.841951
-40.143789 -22.622452 14.917156
-43.912886 -20.896418 17.524231
-43.890482 -22.441756 17.804586
-44.779087 -21.034405 17.844437
-40.115369 -19.464883 14.665947
-40.067224 -21.108161 14.841951
-40.517746 -19.763645 15.339161
-40.141559 -17.813512 14.525747
-40.115369 -19.464883 14.665947
-40.272796 -16.051655 14.278581
-40.141559 -17.813512 14.525747
-40.697128 -16.35851 14.91599
-40.37623 -14.270268 14.084052
-40.272796 -16.051655 14.278581
-40.561821 -12.402628 13.775199
-40.37623 -14.270268 14.084052
-41.013956 -12.729013 14.35997
-40.713005 -10.504772 13.534724
-40.075279 -12.046027 13.258807
-40.561821 -12.402628 13.775199
-46.667184 13.055217 8.419462
-47.469663 12.387921 8.248349
-47.654045 14.296506 7.826532
-45.691131 11.778056 8.941644
-46.667184 13.055217 8.419462
-45.875513 13.686642 8.519827
-42.631161 14.372208 9.086099
-41.778883 12.918657 9.394056
-42.51314 12.253507 9.430279
-42.631161 14.372208 9.086099
-43.53362 15.724569 8.762781
-67.22789 -14.097858 20.220363
-67.179665 -13.046728 19.410177
-66.62558 -15.334297 20.315002
-67.276626 -15.165851 20.979578
-67.22789 -14.097858 20.220363
-61.517956 -22.951255 21.229157
-62.596552 -22.771963 21.636475
-62.424139 -21.65516 21.123649
-61.517956 -22.951255 21.229157
-60.343609 -23.139775 20.879567
-59.1558 -23.291354 20.578384
-57.903401 -23.459125 20.315175
-51.553632 -24.015593 19.458315
-52.811628 -23.948056 19.578792
-52.651535 -22.65542 19.262805
-51.553632 -24.015593 19.458315
-50.327284 -24.095821 19.288373
-64.873741 6.246144 10.655584
-65.342511 5.547713 11.126774
-66.726944 2.837556 13.195679
-66.520973 3.880177 13.563574
-66.406475 2.876049 12.40008
-66.776112 1.853086 12.928695
-66.726944 2.837556 13.195679
-66.072147 3.888173 11.925475
-66.121315 2.903703 11.65849
-66.406475 2.876049 12.40008
-65.661365 4.771864 11.451438
-66.072147 3.888173 11.925475
-65.946526 4.74421 12.193027
-65.342511 5.547713 11.126774
-65.468132 4.691676 10.859222
-65.661365 4.771864 11.451438
-64.718636 5.858012 10.086119
-64.873741 6.246144 10.655584
-59.311419 11.358733 6.594615
-59.669634 10.121425 6.54755
-58.688555 12.053168 6.280113
-59.311419 11.358733 6.594615
-58.001649 12.71497 6.058446
-58.284248 11.412117 6.000484
-58.688555 12.053168 6.280113
-57.404739 13.438874 5.849646
-58.001649 12.71497 6.058446
-56.730323 14.125708 5.737372
-56.922928 12.760752 5.666543
-57.404739 13.438874 5.849646
-56.151032 14.870683 5.634467
-56.730323 14.125708 5.737372
-55.481769 15.574789 5.625222
-55.57925 14.151692 5.545025
-56.151032 14.870683 5.634467
-54.904736 16.332903 5.616447
-55.481769 15.574789 5.625222
-55.476517 17.051895 5.705889
-54.22945 17.048617 5.693075
-54.234703 15.57151 5.612409
-54.904736 16.332903 5.616447
-53.637635 17.814916 5.756989
-54.22945 17.048617 5.693075
-52.945724 18.540029 5.894516
-52.867508 17.012337 5.826564
-53.637635 17.814916 5.756989
-38.862673 -10.544718 10.446435
-39.143936 -10.942686 11.158572
-39.182516 -8.99707 11.067791
-38.711832 -8.177696 9.562792
-38.949329 -6.533036 10.250149
-38.759908 -6.111629 9.457287
-38.746149 -10.141913 9.57692
-38.711832 -8.177696 9.562792
-38.862673 -10.544718 10.446435
-38.746149 -10.141913 9.57692
3 0 194 196
3 196 195 48
3 194 195 196
3 0 48 50
3 1 54 52
3 3 57 55
3 3 59 57
3 1 62 60
3 1 52 62
3 2 65 64
3 4 68 66
3 197 71 198
3 199 198 69
3 197 198 199
3 200 73 201
3 202 201 71
3 200 201 202
3 203 75 204
3 4 78 76
3 4 66 78
3 7 82 80
3 205 84 206
3 207 86 208
3 209 208 84
3 207 208 209
3 211 210 86
3 212 87 213
3 8 90 88
3 8 92 90
3 5 95 93
3 9 98 96
3 9 100 98
3 9 102 100
3 10 214 216
3 216 215 103
3 214 215 216
3 10 217 218
3 6 106 104
3 11 109 107
3 11 219 221
3 221 220 109
3 219 220 221
3 11 222 223
3 225 224 110
3 12 113 111
3 226 114 227
3 228 227 49
3 226 227 228
3 230 229 114
3 231 116 232
3 12 117 51
3 12 111 117
3 16 121 119
3 18 122 53
3 18 123 122
3 19 126 124
3 21 127 56
3 21 128 127
3 21 130 128
3 233 131 234
3 235 234 58
3 233 234 235
3 237 236 131
3 23 238 239
3 23 240 242
3 240 132 241
3 240 241 242
3 24 135 133
3 26 136 61
3 26 137 136
3 26 139 137
3 16 140 63
3 16 119 140
3 27 143 141
3 29 144 67
3 29 145 144
3 13 146 112
3 30 147 70
3 30 148 147
3 30 149 148
3 31 150 72
3 31 151 150
3 33 152 74
3 33 153 152
3 14 154 115
3 34 155 77
3 34 156 155
3 34 157 156
3 27 158 79
3 27 141 158
3 35 243 245
3 245 244 159
3 243 244 245
3 36 161 81
3 36 246 248
3 248 247 161
3 246 247 248
3 15 162 118
3 37 163 83
3 37 249 251
3 251 250 163
3 249 250 251
3 37 252 253
3 38 254 256
3 256 255 85
3 254 255 256
3 38 257 258
3 38 259 260
3 39 261 262
3 39 263 265
3 263 164 264
3 263 264 265
3 17 165 120
3 40 166 89
3 40 167 166
3 40 168 167
3 41 169 91
3 41 170 169
3 28 171 142
3 42 172 94
3 42 173 172
3 20 174 125
3 43 175 97
3 43 176 175
3 43 177 176
3 44 178 99
3 44 179 178
3 44 180 179
3 45 181 101
3 45 182 181
3 22 183 129
3 266 184 267
3 268 185 269
3 270 269 184
3 268 269 270
3 272 271 185
3 32 273 275
3 273 186 274
3 273 274 275
3 46 187 105
3 46 188 187
3 25 189 134
3 47 190 108
3 47 191 190
3 47 276 278
3 278 277 191
3 276 277 278
3 280 279 138
3 281 192 282
3 284 283 192
3 285 193 286
3 287 286 160
3 285 286 287
3 48 49 12
3 288 49 289
3 290 289 48
3 288 289 290
3 292 291 49
3 50 293 295
3 293 51 294
3 293 294 295
3 48 51 50
3 48 12 51
3 52 53 16
3 54 53 52
3 54 18 53
3 55 56 19
3 57 56 55
3 57 21 56
3 57 58 21
3 59 58 57
3 59 296 298
3 298 297 58
3 296 297 298
3 299 23 300
3 60 61 24
3 62 61 60
3 62 26 61
3 62 63 26
3 52 63 62
3 52 16 63
3 64 301 302
3 65 303 305
3 305 304 64
3 303 304 305
3 65 306 307
3 66 67 27
3 68 67 66
3 68 29 67
3 69 70 13
3 71 70 69
3 71 30 70
3 71 72 30
3 73 72 71
3 73 31 72
3 308 74 309
3 75 310 312
3 310 74 311
3 310 311 312
3 75 33 74
3 76 77 14
3 78 77 76
3 78 34 77
3 78 79 34
3 66 79 78
3 66 27 79
3 80 81 35
3 82 81 80
3 82 36 81
3 313 83 314
3 315 314 15
3 313 314 315
3 84 316 318
3 316 83 317
3 316 317 318
3 84 37 83
3 84 85 37
3 86 85 84
3 86 38 85
3 86 319 321
3 321 320 38
3 319 320 321
3 324 323 86
3 322 323 324
3 87 325 326
3 87 327 329
3 327 39 328
3 327 328 329
3 88 89 17
3 90 89 88
3 90 40 89
3 90 91 40
3 92 91 90
3 92 41 91
3 93 94 28
3 95 94 93
3 95 42 94
3 96 97 20
3 98 97 96
3 98 43 97
3 98 99 43
3 100 99 98
3 100 44 99
3 100 101 44
3 102 101 100
3 102 45 101
3 331 330 22
3 103 332 334
3 332 333 334
3 337 336 103
3 335 336 337
3 104 105 32
3 106 105 104
3 106 46 105
3 107 108 25
3 109 108 107
3 109 47 108
3 109 338 340
3 340 339 47
3 338 339 340
3 342 341 109
3 110 343 344
3 346 345 110
3 111 112 4
3 113 112 111
3 113 13 112
3 49 113 12
3 114 113 49
3 114 13 113
3 114 69 13
3 347 69 348
3 349 348 114
3 347 348 349
3 351 350 69
3 352 115 353
3 116 354 356
3 354 115 355
3 354 355 356
3 116 14 115
3 51 357 359
3 357 116 358
3 357 358 359
3 117 116 51
3 117 14 116
3 117 76 14
3 111 76 117
3 111 4 76
3 360 118 361
3 362 361 7
3 360 361 362
3 363 118 364
3 365 15 366
3 367 366 118
3 365 366 367
3 368 15 369
3 371 370 15
3 119 372 374
3 372 120 373
3 372 373 374
3 121 120 119
3 121 17 120
3 53 121 16
3 122 121 53
3 122 17 121
3 122 88 17
3 123 88 122
3 123 8 88
3 124 125 5
3 126 125 124
3 126 20 125
3 56 126 19
3 127 126 56
3 127 20 126
3 127 96 20
3 128 96 127
3 128 9 96
3 128 129 9
3 130 129 128
3 130 22 129
3 58 130 21
3 131 130 58
3 131 22 130
3 131 375 377
3 377 376 22
3 375 376 377
3 379 378 131
3 380 103 381
3 132 382 384
3 382 103 383
3 382 383 384
3 132 10 103
3 133 134 6
3 135 134 133
3 135 25 134
3 61 135 24
3 136 135 61
3 136 25 135
3 136 107 25
3 137 107 136
3 137 11 107
3 137 138 11
3 139 138 137
3 139 385 387
3 387 386 138
3 385 386 387
3 63 139 26
3 140 139 63
3 140 388 390
3 390 389 139
3 388 389 390
3 140 391 393
3 391 110 392
3 391 392 393
3 119 110 140
3 119 394 396
3 396 395 110
3 394 395 396
3 141 142 1
3 143 142 141
3 143 28 142
3 67 143 27
3 144 143 67
3 144 28 143
3 144 93 28
3 145 93 144
3 145 5 93
3 112 68 4
3 146 68 112
3 146 29 68
3 70 146 13
3 147 146 70
3 147 29 146
3 147 145 29
3 148 145 147
3 148 5 145
3 148 124 5
3 149 124 148
3 149 19 124
3 72 149 30
3 150 149 72
3 150 19 149
3 150 55 19
3 151 55 150
3 151 3 55
3 397 32 398
3 74 399 400
3 152 401 403
3 403 402 74
3 401 402 403
3 152 404 406
3 404 32 405
3 404 405 406
3 152 104 32
3 153 104 152
3 153 6 104
3 115 407 409
3 407 75 408
3 407 408 409
3 154 75 115
3 154 33 75
3 77 154 14
3 155 154 77
3 155 33 154
3 155 153 33
3 156 153 155
3 156 6 153
3 156 133 6
3 157 133 156
3 157 24 133
3 79 157 34
3 158 157 79
3 158 24 157
3 158 60 24
3 141 60 158
3 141 1 60
3 159 160 2
3 410 160 411
3 412 411 159
3 410 411 412
3 414 413 160
3 81 415 417
3 417 416 35
3 415 416 417
3 161 418 420
3 420 419 81
3 418 419 420
3 161 421 422
3 161 423 424
3 426 425 161
3 118 82 7
3 162 82 118
3 162 36 82
3 83 162 15
3 163 162 83
3 163 36 162
3 163 427 429
3 429 428 36
3 427 428 429
3 431 430 163
3 85 432 434
3 434 433 37
3 432 433 434
3 436 435 85
3 438 437 38
3 164 439 441
3 439 440 441
3 164 442 443
3 120 444 446
3 444 87 445
3 444 445 446
3 165 87 120
3 165 39 87
3 89 165 17
3 166 165 89
3 166 39 165
3 166 164 39
3 167 164 166
3 167 447 449
3 449 448 164
3 447 448 449
3 167 450 451
3 168 452 454
3 454 453 167
3 452 453 454
3 168 455 456
3 91 168 40
3 169 168 91
3 169 457 459
3 459 458 168
3 457 458 459
3 169 460 462
3 460 64 461
3 460 461 462
3 170 64 169
3 170 2 64
3 142 54 1
3 171 54 142
3 171 18 54
3 94 171 28
3 172 171 94
3 172 18 171
3 172 123 18
3 173 123 172
3 173 8 123
3 125 95 5
3 174 95 125
3 174 42 95
3 97 174 20
3 175 174 97
3 175 42 174
3 175 173 42
3 176 173 175
3 176 8 173
3 176 92 8
3 177 92 176
3 177 41 92
3 99 177 43
3 178 177 99
3 178 41 177
3 178 170 41
3 179 170 178
3 179 2 170
3 179 159 2
3 180 159 179
3 180 35 159
3 101 180 44
3 181 180 101
3 181 35 180
3 181 80 35
3 182 80 181
3 182 7 80
3 129 102 9
3 183 102 129
3 183 45 102
3 463 183 464
3 465 464 22
3 463 464 465
3 184 466 468
3 466 183 467
3 466 467 468
3 184 45 183
3 184 182 45
3 185 182 184
3 185 7 182
3 185 469 471
3 471 470 7
3 469 470 471
3 473 472 185
3 186 474 475
3 186 476 478
3 476 23 477
3 476 477 478
3 105 186 32
3 187 186 105
3 187 23 186
3 187 132 23
3 188 132 187
3 188 10 132
3 134 106 6
3 189 106 134
3 189 46 106
3 108 189 25
3 190 189 108
3 190 46 189
3 190 188 46
3 191 188 190
3 191 10 188
3 191 479 481
3 481 480 10
3 479 480 481
3 483 482 191
3 485 484 47
3 138 486 488
3 488 487 11
3 486 487 488
3 490 489 138
3 492 491 0
3 192 493 494
3 192 495 497
3 495 496 497
3 192 498 500
3 498 50 499
3 498 499 500
3 501 50 502
3 503 502 192
3 501 502 503
3 504 0 505
3 506 505 50
3 504 505 506
3 508 507 0
3 509 73 510
3 511 73 512
3 513 31 514
3 515 514 73
3 513 514 515
3 516 31 517
3 518 151 519
3 520 519 31
3 518 519 520
3 521 151 522
3 523 3 524
3 525 524 151
3 523 524 525
3 526 3 527
3 526 527 528
3 529 59 530
3 531 530 3
3 529 530 531
3 532 59 533
3 536 535 59
3 534 535 536
3 160 65 2
3 193 65 160
3 193 537 539
3 539 538 65
3 537 538 539
3 540 193 541
3 540 541 542
3 543 193 544
3 546 545 193
