ply
format ascii 1.0
element vertex 551
property float x
property float y
property float z
element face 623
property list uchar int vertex_index
end_header
5.51931 27.925911 26.882267
0.599932 13.100513 45.993095
5.996883 -7.704256 36.095192
-0.439129 -19.309406 48.04501
-1.569988 3.796032 53.395233
0.914143 -3.13341 47.662567
4.723461 -25.084797 37.464714
7.158203 -22.975637 29.897484
2.835175 21.626522 37.068356
6.453518 10.582523 32.656815
4.003414 4.672237 40.996742
3.757061 -12.830784 42.970955
2.462662 -28.929787 43.979141
6.953442 29.848137 21.384491
4.017384 -32.92202 37.802658
4.852188 -31.962177 34.206856
1.716337 17.547356 41.703934
3.591499 13.324459 39.260078
2.38842 9.366972 43.354736
0.412281 -11.32775 47.923992
2.531281 -7.64751 45.329384
2.012445 -15.999638 45.766693
3.21386 -21.142952 43.495796
1.217978 -23.960777 46.138767
6.383949 1.464207 34.700439
7.329956 -5.975547 32.072128
-0.554199 8.468779 49.897785
0.972567 5.078697 47.032784
-0.633293 0.69113 50.271179
-1.979652 -14.955071 50.175922
5.401699 -16.63995 36.948887
6.619873 -15.125963 33.214542
5.744793 -23.855164 33.867302
6.071918 -31.315037 30.363958
4.093853 25.142521 32.121613
6.157364 19.438412 30.007553
4.79958 16.735088 34.808678
5.16753 7.958075 37.017982
5.184155 -1.042374 38.643288
2.672729 0.894779 44.572884
4.04377 -4.138992 42.207451
4.910667 -10.009625 39.705956
4.44104 -18.657646 40.375229
3.839382 -26.777353 40.861496
3.071823 -34.331467 41.263725
4.606735 36.010853 23.389292
3.142323 33.162323 29.083796
1.856918 29.546383 34.546524
0.807287 25.362377 39.738136
-1.458736 -26.949213 48.334381
0.270172 -31.449884 46.643745
6.250172 29.001095 24.16185
6.595768 24.795059 25.86755
1.165018 15.357613 43.894577
2.094152 13.502743 42.576569
1.484751 11.344597 44.619293
0.020735 -15.355077 47.982456
1.238115 -13.603702 46.837448
0.855446 -17.648905 46.959763
1.642076 -20.037386 45.945129
0.412491 -21.599108 47.094185
6.224342 -3.130676 35.475697
6.885502 -2.154076 33.436905
6.635128 -6.768316 34.146011
-1.097269 6.129011 51.699238
-0.544468 4.597364 50.126881
-1.204845 2.337677 51.759895
-1.510807 -11.071278 50.254917
-2.525454 -12.900584 51.437557
5.066624 -20.935589 37.236294
5.579422 -20.19132 35.453407
5.184925 -24.41667 35.697449
5.403187 -31.612131 32.331345
3.44083 23.466412 34.632549
4.484684 20.988747 33.516083
3.848007 19.338211 35.904877
3.844372 9.033394 40.192451
4.427235 10.787756 38.131676
4.58329 6.38936 39.053478
5.217308 3.471586 37.906189
4.64946 1.94058 39.833641
1.000771 0.984112 47.40078
1.838131 3.090988 45.772263
1.849623 -1.104189 46.180962
3.210697 -10.157142 44.169941
3.359829 -5.856304 43.832138
3.936943 -8.517729 42.63385
4.537235 -6.972989 40.983353
4.377815 -11.364208 41.386436
4.69479 -14.389691 40.075687
4.163116 -15.665376 41.710232
2.863323 -25.104591 43.735359
3.596458 -23.895987 42.23164
3.246899 -27.800407 42.468666
3.483055 -30.619305 41.074123
2.844929 -31.568207 42.697517
1.945951 35.304108 30.352482
2.470272 31.438431 31.84705
1.341068 33.392544 33.189461
0.355087 23.122383 42.22435
-3.318356 -32.073078 49.743744
-2.845245 -28.457973 49.400368
-1.9594 -30.622105 48.613605
-0.564827 -29.17802 47.515533
-1.053261 -32.805359 47.83054
6.351223 15.052299 31.400448
7.049313 16.096043 28.95826
7.144806 11.617321 30.313456
6.898724 -19.024698 31.616507
7.339813 -14.537548 31.172384
7.640202 -18.568583 29.505753
4.375984 -29.078552 37.651333
4.793427 -28.48378 35.88324
4.408573 -32.391846 36.022694
2.266537 19.645378 39.426765
3.2509 17.525284 38.213104
2.674927 15.571857 40.438728
3.005215 11.401533 41.355064
3.243172 7.146835 42.159645
0.715033 -7.246156 47.828972
1.748606 -5.305266 46.480881
1.541058 -9.481236 46.689949
2.313576 -11.862181 45.572922
2.981262 -14.384893 44.437149
3.513405 -17.047089 43.248566
2.682121 -18.512424 44.66563
2.32373 -22.520571 44.884933
1.915119 -26.399937 45.116684
6.463173 6.045328 33.760323
7.147961 7.068439 31.519356
7.059727 2.46909 32.562546
7.582275 -1.333702 31.267056
7.385792 -26.912531 28.04636
7.895966 -22.614115 27.708618
0.0215 10.798018 47.995064
0.834517 9.124304 46.560074
0.149456 6.867369 48.395451
0.177458 2.883316 48.703724
0.095549 -1.133984 48.914165
-0.398054 -9.177349 49.072033
-0.792294 -13.160398 49.066669
-1.262051 -17.093056 49.054893
5.71706 -12.219305 36.577747
6.322441 -11.336948 34.703381
5.964382 -15.822619 35.130562
6.193417 -19.559534 33.590267
6.415211 -23.382164 31.944164
5.29298 -27.991835 34.067577
5.909702 -27.582775 32.176582
6.628376 -27.231647 30.177704
6.817463 -31.0417 28.276226
4.791893 26.634811 29.537266
5.877296 23.731228 28.496151
5.165127 22.458244 31.04653
5.460949 18.182686 32.453232
5.670246 13.812763 33.739868
4.180485 15.109699 37.077072
5.028683 12.38685 35.981579
5.78833 9.360037 34.888523
5.815704 4.843996 35.884842
5.758015 0.291698 36.721985
5.625263 -4.263795 37.40332
1.714149 7.249504 45.249672
2.58387 5.155781 44.023293
3.381535 2.830967 42.840836
2.653809 -3.384295 45.004051
3.419182 -1.515099 43.395607
4.068424 0.269915 41.666943
4.63121 -2.525732 40.472992
5.077934 -5.548539 39.237118
5.430576 -8.785883 37.942944
5.188644 -13.237591 38.363823
4.913696 -17.585131 38.693863
4.616852 -21.801647 38.960754
3.901299 -19.848764 41.98381
4.155952 -22.790695 40.630951
4.303017 -25.87068 39.186714
3.968147 -29.788769 39.384178
3.598518 -33.566368 39.553596
7.199001 34.543808 16.610367
6.545902 33.948757 19.502514
5.833855 33.103516 22.362211
5.092831 32.019993 25.177635
3.328236 38.580029 24.510496
3.861336 34.693768 26.262241
4.353104 30.712582 27.939445
3.641075 29.198284 30.640593
2.975143 27.496716 33.276001
2.362926 25.62991 35.841988
0.80505 31.335583 35.962498
1.304501 27.512188 37.177979
1.801029 23.621822 38.335472
1.277754 21.497452 40.753204
0.778301 19.28149 43.091507
0.290974 16.996628 45.346451
-3.343193 -14.636349 52.684776
-3.042198 -16.688305 51.322914
-2.505894 -18.7966 50.124306
-1.782038 -20.960657 49.080658
-2.321314 -24.751783 49.185204
-0.941908 -23.176994 48.151501
-0.068657 -25.443434 47.272469
0.755756 -27.763966 46.368805
1.463142 -30.151714 45.370712
0.973139 -33.787033 45.644089
2.009243 -32.628071 44.226376
2.379528 -35.217545 42.908909
6.864407 20.491405 27.470757
7.004539 -10.585658 32.715889
7.721497 -9.956327 30.590729
-2.689896 -11.917095 52.138803
-2.297911 -10.99764 51.5037
1.391574 36.245184 31.063004
1.682902 37.205002 29.573631
1.089132 35.289402 32.481493
1.643509 34.348326 31.770972
1.391574 36.245184 31.063004
-2.866494 -33.134266 49.368955
-3.512875 -33.832746 49.980213
-3.061013 -34.893935 49.605424
-2.187016 -32.40878 48.803886
-2.638878 -31.347592 49.178674
-2.866494 -33.134266 49.368955
-1.733947 -33.500406 48.412353
-1.506331 -31.713732 48.222072
-2.187016 -32.40878 48.803886
7.437396 28.052536 20.896514
7.275978 30.152621 19.973262
7.680634 -5.647818 30.963296
7.806793 -3.326896 30.56076
7.456116 -3.654624 31.669592
7.736534 -26.758102 26.911285
7.471044 -28.838911 27.050601
-0.759718 -8.168231 49.695149
-0.248067 -7.169526 49.051615
3.122839 -35.778992 40.474037
3.386186 -35.396442 39.618972
3.335171 -33.948918 40.40866
6.632048 36.235859 17.067478
6.958137 36.520855 15.582881
6.305498 35.938333 18.513551
6.872452 34.246282 18.056441
6.632048 36.235859 17.067478
5.220295 34.557184 22.875751
5.592652 35.098944 21.417784
4.979092 36.552612 21.931325
2.697972 39.711726 25.136735
3.046108 40.475441 23.598726
3.50183 33.928045 27.673018
3.237299 35.867924 26.859676
2.877792 35.102201 28.270454
0.35094 32.128565 36.754093
0.56696 33.225073 35.327309
1.055894 26.437282 38.458057
0.820653 28.337028 37.922857
0.572046 27.262123 39.202936
0.358133 20.048008 43.862879
0.566694 21.201937 42.657928
0.146526 21.968454 43.4293
0.11447 18.905577 44.990351
0.534637 18.139059 44.218979
0.358133 20.048008 43.862879
-3.609862 -16.485938 52.631633
-3.612589 -15.442548 53.369991
-3.459364 -17.511916 51.950702
-3.192696 -15.662327 52.003845
-3.609862 -16.485938 52.631633
-2.783082 -20.689844 50.13496
-3.051158 -19.620571 50.6971
-2.421154 -21.771873 49.613136
-2.143966 -19.878629 49.602482
-2.783082 -20.689844 50.13496
1.236646 -35.003033 45.054672
0.712485 -35.55582 45.783883
1.754698 -34.423552 44.345816
1.491191 -33.207552 44.935232
1.236646 -35.003033 45.054672
1.939841 -35.718288 43.687083
2.194386 -33.922808 43.567643
1.754698 -34.423552 44.345816
7.388623 16.516724 27.686127
7.436897 14.277708 28.406267
7.490503 7.489146 30.335808
7.449882 5.186534 30.906252
7.89007 -11.999847 29.787203
7.530655 -12.246937 30.881557
7.699228 -14.290457 30.078031
8.062672 -9.697717 29.452692
7.89007 -11.999847 29.787203
8.114933 -20.394412 27.477682
8.214306 -22.447833 26.54387
6.76907 27.320358 23.664793
7.120705 27.743879 22.276114
6.601807 29.424616 22.77317
6.941868 25.21734 24.517643
6.76907 27.320358 23.664793
6.42297 26.898077 25.0147
7.071621 23.064243 25.357428
6.941868 25.21734 24.517643
4.019976 -34.538365 36.959972
3.823954 -34.778073 37.858265
-1.790587 -10.082987 50.91238
-1.316095 -9.115195 50.286591
-2.01813 -11.985931 50.846237
-1.790587 -10.082987 50.91238
-2.297911 -10.99764 51.5037
5.157892 -33.541665 32.375393
5.127688 -31.787154 33.269101
4.882393 -33.716688 33.313148
5.457874 -33.415681 31.400367
5.157892 -33.541665 32.375393
5.79224 -33.267134 30.416674
5.737552 -31.463584 31.347651
5.457874 -33.415681 31.400367
6.142696 -33.151163 29.38802
5.79224 -33.267134 30.416674
4.337631 37.95245 22.45521
4.979092 36.552612 21.931325
2.279606 36.173094 28.904796
1.682902 37.205002 29.573631
2.544137 34.233216 29.718139
2.877792 35.102201 28.270454
2.279606 36.173094 28.904796
0.368675 26.130472 40.520527
0.572046 27.262123 39.202936
0.142575 25.010475 41.763633
0.581187 24.24238 40.981243
0.368675 26.130472 40.520527
-0.034049 23.845719 43.045613
0.142575 25.010475 41.763633
0.146526 21.968454 43.4293
-0.034049 23.845719 43.045613
-3.922916 -32.78804 50.368595
-3.512875 -33.832746 49.980213
-3.713884 -31.009743 50.15124
-3.922916 -32.78804 50.368595
-3.0818 -30.265526 49.572056
-3.477329 -29.20219 49.979551
-3.713884 -31.009743 50.15124
7.484644 12.038346 29.083866
7.436897 14.277708 28.406267
7.09706 13.856682 29.635858
7.849423 -16.305975 29.244715
7.699228 -14.290457 30.078031
7.490008 -16.553065 30.339068
-1.675354 1.95635 53.348196
-1.752858 2.645629 54.185402
7.437396 28.052536 20.896514
7.120705 27.743879 22.276114
4.215571 -34.273277 36.069991
4.212979 -32.656933 36.912676
4.019976 -34.538365 36.959972
4.417982 -34.08294 35.157427
4.215571 -34.273277 36.069991
4.63979 -33.868105 34.249508
4.63038 -32.177011 35.114775
4.417982 -34.08294 35.157427
4.882393 -33.716688 33.313148
4.63979 -33.868105 34.249508
7.405765 2.88686 31.427847
7.449882 5.186534 30.906252
7.103844 4.768764 32.040951
7.667039 0.985464 30.780102
7.405765 2.88686 31.427847
7.321001 0.567694 31.914801
7.921764 -1.000158 30.110295
7.667039 0.985464 30.780102
7.921764 -1.000158 30.110295
7.806793 -3.326896 30.56076
7.991621 -24.608895 26.742415
7.640879 -24.763323 27.877489
7.736534 -26.758102 26.911285
8.214306 -22.447833 26.54387
7.991621 -24.608895 26.742415
-1.492783 1.227173 52.530527
-1.387417 3.066854 52.577564
-1.675354 1.95635 53.348196
-1.304018 0.434525 51.755939
-1.492783 1.227173 52.530527
-1.018242 -0.388748 51.011581
-0.919069 1.514403 51.015537
-1.304018 0.434525 51.755939
-0.729729 -1.271027 50.30126
-1.018242 -0.388748 51.011581
-0.365308 -2.183584 49.622753
-0.268872 -0.221427 49.592672
-0.729729 -1.271027 50.30126
-0.001266 -3.147844 48.972681
-0.365308 -2.183584 49.622753
0.408031 -4.147557 48.346882
0.504846 -2.133697 48.288366
-0.001266 -3.147844 48.972681
0.308477 -6.20393 48.430084
0.814588 -5.189783 47.74577
0.408031 -4.147557 48.346882
0.15849 -8.211752 48.450502
0.308477 -6.20393 48.430084
-0.248067 -7.169526 49.051615
-0.95443 -10.124313 49.663475
-0.759718 -8.168231 49.695149
-1.316095 -9.115195 50.286591
7.18688 -30.903495 27.165534
7.471044 -28.838911 27.050601
7.101628 -28.977116 28.161293
6.515468 -33.014494 28.344155
6.444691 -31.178368 29.320092
6.142696 -33.151163 29.38802
6.885013 -32.893273 27.252592
6.515468 -33.014494 28.344155
7.18688 -30.903495 27.165534
6.885013 -32.893273 27.252592
3.614521 -35.100246 38.733734
3.823954 -34.778073 37.858265
3.807951 -33.244194 38.678127
3.614521 -35.100246 38.733734
3.386186 -35.396442 39.618972
7.482924 34.711527 15.15537
6.958137 36.520855 15.582881
7.679275 32.681933 16.15986
7.482924 34.711527 15.15537
7.398758 32.500456 17.5862
7.679275 32.681933 16.15986
7.072209 32.202931 19.032274
7.398758 32.500456 17.5862
6.872452 34.246282 18.056441
6.749672 31.898447 20.443503
7.275978 30.152621 19.973262
7.072209 32.202931 19.032274
5.948675 35.521564 19.987936
6.305498 35.938333 18.513551
6.189878 33.526136 20.932362
5.948675 35.521564 19.987936
5.592652 35.098944 21.417784
3.698381 39.237038 23.015812
3.046108 40.475441 23.598726
3.967485 37.295441 23.949894
4.337631 37.95245 22.45521
3.698381 39.237038 23.015812
2.970749 37.811054 25.983804
2.697972 39.711726 25.136735
3.594786 36.636899 25.386368
2.970749 37.811054 25.983804
3.237299 35.867924 26.859676
0.834969 34.253553 33.940791
1.089132 35.289402 32.481493
1.073059 32.364064 34.57598
0.834969 34.253553 33.940791
0.56696 33.225073 35.327309
0.570928 30.248726 37.315117
0.35094 32.128565 36.754093
1.054775 29.423885 36.570239
0.570928 30.248726 37.315117
0.820653 28.337028 37.922857
-0.079133 17.726364 46.15584
0.11447 18.905577 44.990351
0.051791 15.829243 46.430279
-0.079133 17.726364 46.15584
0.206269 13.881186 46.753601
0.445453 15.048571 45.669773
0.051791 15.829243 46.430279
-0.082947 12.729938 47.754586
0.310716 11.949265 46.994079
0.206269 13.881186 46.753601
-0.313476 11.544659 48.792637
-0.082947 12.729938 47.754586
-0.601326 10.380039 49.743997
-0.26635 9.633399 48.946424
-0.313476 11.544659 48.792637
-0.813505 9.181583 50.733232
-0.601326 10.380039 49.743997
-1.08504 8.011699 51.633959
-0.825734 7.298895 50.798512
-0.813505 9.181583 50.733232
-1.265691 6.803517 52.569107
-1.08504 8.011699 51.633959
-1.50205 5.637028 53.417104
-1.333629 4.962522 52.547235
-1.265691 6.803517 52.569107
-1.63807 4.423435 54.289057
-1.50205 5.637028 53.417104
-1.752858 2.645629 54.185402
-1.63807 4.423435 54.289057
-3.368133 -13.636591 53.434406
-3.612589 -15.442548 53.369991
-3.098765 -12.784977 52.762413
-3.368133 -13.636591 53.434406
-2.934323 -13.768466 52.061166
-2.689896 -11.917095 52.138803
-3.098765 -12.784977 52.762413
-3.31931 -18.566423 51.296404
-3.459364 -17.511916 51.950702
-2.774046 -17.742452 50.72361
-3.31931 -18.566423 51.296404
-3.051158 -19.620571 50.6971
-3.226423 -27.380556 49.840496
-3.477329 -29.20219 49.979551
-2.964457 -25.527461 49.732914
-3.226423 -27.380556 49.840496
-2.583279 -26.604878 49.292786
-2.690792 -23.667435 49.665409
-3.333935 -24.443114 50.21312
-2.964457 -25.527461 49.732914
-2.051676 -22.85622 49.132931
-2.421154 -21.771873 49.613136
-2.690792 -23.667435 49.665409
-1.282771 -34.569057 48.020893
-1.733947 -33.500406 48.412353
-1.963457 -35.264105 48.602706
-0.638966 -33.91716 47.394842
-1.282771 -34.569057 48.020893
-0.868476 -35.680858 47.585195
0.02275 -33.239423 46.801445
-0.391544 -32.127622 47.237143
-0.638966 -33.91716 47.394842
0.374233 -34.407997 46.301617
0.712485 -35.55582 45.783883
0.621656 -32.618459 46.143917
0.02275 -33.239423 46.801445
0.374233 -34.407997 46.301617
2.111098 -36.996483 42.997275
1.939841 -35.718288 43.687083
2.484243 -36.57864 42.162148
2.111098 -36.996483 42.997275
2.830391 -36.135601 41.339556
2.725676 -34.774506 42.086317
2.484243 -36.57864 42.162148
3.122839 -35.778992 40.474037
2.830391 -36.135601 41.339556
7.205941 20.912416 26.159031
7.071621 23.064243 25.357428
6.730087 22.643232 26.669154
7.296169 18.714405 26.942375
6.95686 18.293724 28.214509
7.388623 16.516724 27.686127
7.205941 20.912416 26.159031
7.296169 18.714405 26.942375
7.488926 9.763587 29.732858
7.146383 9.34288 30.916406
7.490503 7.489146 30.335808
7.484644 12.038346 29.083866
7.488926 9.763587 29.732858
7.876404 -7.638208 30.222597
7.680634 -5.647818 30.963296
7.525727 -7.965937 31.331429
7.876404 -7.638208 30.222597
8.062672 -9.697717 29.452692
7.987051 -18.371646 28.37625
7.768084 -20.591349 28.607185
8.114933 -20.394412 27.477682
7.849423 -16.305975 29.244715
7.987051 -18.371646 28.37625
3 0 52 51
3 1 55 53
3 3 58 56
3 3 60 58
3 2 63 61
3 4 66 64
3 210 68 211
3 6 71 69
3 8 75 73
3 10 78 76
3 10 80 78
3 5 83 81
3 11 86 84
3 11 88 86
3 11 90 88
3 12 93 91
3 12 95 93
3 212 96 213
3 214 98 215
3 216 215 96
3 214 215 216
3 217 100 218
3 217 218 219
3 220 102 221
3 222 221 100
3 220 221 222
3 223 104 224
3 225 224 102
3 223 224 225
3 9 107 105
3 7 110 108
3 13 226 227
3 14 113 111
3 16 116 114
3 18 117 54
3 18 118 117
3 19 121 119
3 21 122 57
3 21 123 122
3 21 125 123
3 23 126 59
3 23 127 126
3 24 130 128
3 25 131 62
3 25 228 230
3 230 229 131
3 228 229 230
3 232 231 132
3 26 136 134
3 28 137 65
3 28 138 137
3 233 139 234
3 29 140 67
3 29 141 140
3 30 144 142
3 32 145 70
3 32 146 145
3 15 147 112
3 33 148 72
3 33 149 148
3 33 150 149
3 34 153 151
3 36 154 74
3 36 155 154
3 17 156 115
3 37 157 77
3 37 158 157
3 37 159 158
3 38 160 79
3 38 161 160
3 27 162 135
3 39 163 82
3 39 164 163
3 20 165 120
3 40 166 85
3 40 167 166
3 40 168 167
3 41 169 87
3 41 170 169
3 41 171 170
3 42 172 89
3 42 173 172
3 22 174 124
3 43 175 92
3 43 176 175
3 43 177 176
3 44 178 94
3 44 235 237
3 237 236 178
3 235 236 237
3 238 179 239
3 240 180 241
3 242 241 179
3 240 241 242
3 45 243 245
3 243 181 244
3 243 244 245
3 45 182 181
3 246 183 247
3 46 248 250
3 248 184 249
3 248 249 250
3 46 185 184
3 46 186 185
3 47 187 97
3 47 188 187
3 251 189 252
3 48 253 255
3 253 190 254
3 253 254 255
3 48 191 190
3 48 192 191
3 256 193 257
3 258 257 99
3 256 257 258
3 259 194 260
3 261 260 193
3 259 260 261
3 262 195 263
3 264 196 265
3 266 265 195
3 264 265 266
3 267 197 268
3 269 198 270
3 271 270 197
3 269 270 271
3 49 199 101
3 49 200 199
3 49 201 200
3 50 202 103
3 50 203 202
3 272 204 273
3 274 205 275
3 276 275 204
3 274 275 276
3 277 206 278
3 279 278 205
3 277 278 279
3 35 207 152
3 281 280 106
3 283 282 129
3 31 208 143
3 284 209 285
3 286 285 109
3 284 285 286
3 288 287 209
3 290 289 133
3 51 291 293
3 293 292 13
3 291 292 293
3 52 294 296
3 296 295 51
3 294 295 296
3 52 297 298
3 300 299 14
3 53 54 16
3 55 54 53
3 55 18 54
3 56 57 19
3 58 57 56
3 58 21 57
3 58 59 21
3 60 59 58
3 60 23 59
3 61 62 24
3 63 62 61
3 63 25 62
3 64 65 26
3 66 65 64
3 66 28 65
3 301 67 302
3 68 303 305
3 303 67 304
3 303 304 305
3 68 29 67
3 69 70 30
3 71 70 69
3 71 32 70
3 306 72 307
3 308 307 15
3 306 307 308
3 309 72 310
3 311 33 312
3 313 312 72
3 311 312 313
3 315 314 33
3 73 74 34
3 75 74 73
3 75 36 74
3 76 77 17
3 78 77 76
3 78 37 77
3 78 79 37
3 80 79 78
3 80 38 79
3 81 82 27
3 83 82 81
3 83 39 82
3 84 85 20
3 86 85 84
3 86 40 85
3 86 87 40
3 88 87 86
3 88 41 87
3 88 89 41
3 90 89 88
3 90 42 89
3 91 92 22
3 93 92 91
3 93 43 92
3 93 94 43
3 95 94 93
3 95 44 94
3 316 45 317
3 96 318 319
3 96 320 322
3 320 46 321
3 320 321 322
3 96 97 46
3 98 97 96
3 98 47 97
3 323 48 324
3 325 99 326
3 327 326 48
3 325 326 327
3 328 99 329
3 331 330 99
3 100 332 333
3 100 334 335
3 100 336 338
3 336 101 337
3 336 337 338
3 102 101 100
3 102 49 101
3 102 103 49
3 104 103 102
3 104 50 103
3 105 106 35
3 107 106 105
3 107 339 341
3 341 340 106
3 339 340 341
3 108 109 31
3 110 109 108
3 110 342 344
3 344 343 109
3 342 343 344
3 346 345 4
3 348 347 13
3 111 112 6
3 113 112 111
3 113 15 112
3 349 113 350
3 351 350 14
3 349 350 351
3 352 113 353
3 354 15 355
3 356 355 113
3 354 355 356
3 358 357 15
3 114 115 8
3 116 115 114
3 116 17 115
3 54 116 16
3 117 116 54
3 117 17 116
3 117 76 17
3 118 76 117
3 118 10 76
3 119 120 5
3 121 120 119
3 121 20 120
3 57 121 19
3 122 121 57
3 122 20 121
3 122 84 20
3 123 84 122
3 123 11 84
3 123 124 11
3 125 124 123
3 125 22 124
3 59 125 21
3 126 125 59
3 126 22 125
3 126 91 22
3 127 91 126
3 127 12 91
3 128 129 9
3 130 129 128
3 130 359 361
3 361 360 129
3 359 360 361
3 62 130 24
3 131 130 62
3 131 362 364
3 364 363 130
3 362 363 364
3 131 365 366
3 368 367 131
3 132 133 7
3 369 133 370
3 371 370 132
3 369 370 371
3 373 372 133
3 134 135 1
3 136 135 134
3 136 27 135
3 65 136 26
3 137 136 65
3 137 27 136
3 137 81 27
3 138 81 137
3 138 5 81
3 374 66 375
3 376 375 4
3 374 375 376
3 377 66 378
3 379 28 380
3 381 380 66
3 379 380 381
3 382 28 383
3 384 138 385
3 386 385 28
3 384 385 386
3 387 138 388
3 389 5 390
3 391 390 138
3 389 390 391
3 392 119 393
3 394 393 5
3 392 393 394
3 139 395 397
3 395 119 396
3 395 396 397
3 139 19 119
3 67 398 400
3 398 139 399
3 398 399 400
3 140 139 67
3 140 19 139
3 140 56 19
3 141 56 140
3 141 3 56
3 142 143 2
3 144 143 142
3 144 31 143
3 70 144 30
3 145 144 70
3 145 31 144
3 145 108 31
3 146 108 145
3 146 7 108
3 112 71 6
3 147 71 112
3 147 32 71
3 72 147 15
3 148 147 72
3 148 32 147
3 148 146 32
3 149 146 148
3 149 7 146
3 149 132 7
3 150 132 149
3 150 401 403
3 403 402 132
3 401 402 403
3 404 150 405
3 406 405 33
3 404 405 406
3 407 150 408
3 410 409 150
3 151 152 0
3 153 152 151
3 153 35 152
3 74 153 34
3 154 153 74
3 154 35 153
3 154 105 35
3 155 105 154
3 155 9 105
3 115 75 8
3 156 75 115
3 156 36 75
3 77 156 17
3 157 156 77
3 157 36 156
3 157 155 36
3 158 155 157
3 158 9 155
3 158 128 9
3 159 128 158
3 159 24 128
3 79 159 37
3 160 159 79
3 160 24 159
3 160 61 24
3 161 61 160
3 161 2 61
3 135 55 1
3 162 55 135
3 162 18 55
3 82 162 27
3 163 162 82
3 163 18 162
3 163 118 18
3 164 118 163
3 164 10 118
3 120 83 5
3 165 83 120
3 165 39 83
3 85 165 20
3 166 165 85
3 166 39 165
3 166 164 39
3 167 164 166
3 167 10 164
3 167 80 10
3 168 80 167
3 168 38 80
3 87 168 40
3 169 168 87
3 169 38 168
3 169 161 38
3 170 161 169
3 170 2 161
3 170 142 2
3 171 142 170
3 171 30 142
3 89 171 41
3 172 171 89
3 172 30 171
3 172 69 30
3 173 69 172
3 173 6 69
3 124 90 11
3 174 90 124
3 174 42 90
3 92 174 22
3 175 174 92
3 175 42 174
3 175 173 42
3 176 173 175
3 176 6 173
3 176 111 6
3 177 111 176
3 177 14 111
3 94 177 43
3 178 177 94
3 178 14 177
3 178 411 413
3 413 412 14
3 411 412 413
3 415 414 178
3 179 416 417
3 179 418 419
3 179 420 421
3 180 422 424
3 424 423 179
3 422 423 424
3 180 425 427
3 425 13 426
3 425 426 427
3 428 180 429
3 181 430 432
3 430 180 431
3 430 431 432
3 181 13 180
3 181 51 13
3 182 51 181
3 182 0 51
3 183 433 434
3 183 435 437
3 435 45 436
3 435 436 437
3 438 183 439
3 184 440 442
3 440 183 441
3 440 441 442
3 184 45 183
3 184 182 45
3 185 182 184
3 185 0 182
3 185 151 0
3 186 151 185
3 186 34 151
3 97 186 46
3 187 186 97
3 187 34 186
3 187 73 34
3 188 73 187
3 188 8 73
3 443 98 444
3 189 445 447
3 445 98 446
3 445 446 447
3 189 47 98
3 448 189 449
3 190 450 452
3 450 189 451
3 450 451 452
3 190 47 189
3 190 188 47
3 191 188 190
3 191 8 188
3 191 114 8
3 192 114 191
3 192 16 114
3 99 192 48
3 193 192 99
3 193 16 192
3 193 53 16
3 194 53 193
3 194 1 53
3 453 194 454
3 455 194 456
3 457 1 458
3 459 458 194
3 457 458 459
3 460 134 461
3 462 461 1
3 460 461 462
3 463 134 464
3 465 26 466
3 467 466 134
3 465 466 467
3 468 26 469
3 470 64 471
3 472 471 26
3 470 471 472
3 473 64 474
3 475 4 476
3 477 476 64
3 475 476 477
3 478 4 479
3 481 480 4
3 195 482 483
3 195 484 485
3 195 486 488
3 486 68 487
3 486 487 488
3 196 68 195
3 196 29 68
3 489 196 490
3 197 491 493
3 491 196 492
3 491 492 493
3 197 29 196
3 197 141 29
3 198 141 197
3 198 3 141
3 101 494 495
3 199 496 498
3 498 497 101
3 496 497 498
3 199 499 501
3 499 500 501
3 199 502 504
3 502 198 503
3 502 503 504
3 200 198 199
3 200 3 198
3 200 60 3
3 201 60 200
3 201 23 60
3 103 201 49
3 202 201 103
3 202 23 201
3 202 127 23
3 203 127 202
3 203 12 127
3 505 104 506
3 505 506 507
3 508 104 509
3 508 509 510
3 511 50 512
3 513 512 104
3 511 512 513
3 204 514 515
3 204 516 518
3 516 50 517
3 516 517 518
3 204 203 50
3 205 203 204
3 205 12 203
3 205 95 12
3 206 95 205
3 206 44 95
3 519 206 520
3 521 206 522
3 523 44 524
3 525 524 206
3 523 524 525
3 527 526 44
3 152 52 0
3 207 52 152
3 207 528 530
3 530 529 52
3 528 529 530
3 106 207 35
3 531 207 532
3 533 532 106
3 531 532 533
3 535 534 207
3 129 107 9
3 536 107 537
3 538 537 129
3 536 537 538
3 540 539 107
3 143 63 2
3 208 63 143
3 208 25 63
3 109 208 31
3 209 208 109
3 209 25 208
3 209 541 543
3 543 542 25
3 541 542 543
3 545 544 209
3 133 110 7
3 546 110 547
3 548 547 133
3 546 547 548
3 550 549 110
