ply
format ascii 1.0
element vertex 935
property float x
property float y
property float z
element face 971
property list uchar int vertex_index
end_header
-45.400036 -86.574341 31.810211
-52.850601 -74.458397 43.839745
-63.120995 -61.587036 37.316811
-40.016655 -84.073975 48.984306
-55.571117 -66.376007 47.787685
-57.831512 -67.949242 39.924309
-49.987972 -70.74791 48.404732
-45.876541 -92.557465 22.219387
-46.866779 -83.164093 19.715252
-43.506447 -88.177216 43.0163
-42.675873 -95.339355 33.250954
-47.93259 -80.802078 39.245567
-47.384155 -77.660568 27.690174
-52.697014 -73.405891 34.070724
-42.62093 -73.464813 48.518192
-46.980003 -79.979408 47.526886
-32.068024 -94.31073 37.324112
-56.130814 -62.121929 49.662472
-57.87841 -63.510235 47.192154
-45.541981 -89.549271 27.168438
-46.476921 -87.842224 21.24468
-45.992783 -84.871994 25.703562
-44.640457 -87.874329 37.736927
-42.790749 -91.902908 38.659046
-44.380825 -91.080673 33.072521
-44.522537 -94.182297 27.81094
-50.460625 -77.822784 41.793259
-50.152596 -77.048141 36.670296
-52.998028 -74.415344 39.276321
-60.502502 -64.706207 38.444283
-39.630035 -69.003937 47.795219
-51.902527 -73.262314 47.054054
-48.76989 -75.497238 48.121307
-50.094505 -77.380058 45.845947
-47.835995 -81.10379 44.137321
-49.334381 -84.417664 10.238631
-49.452171 -73.531342 25.404667
-47.823647 -75.77594 21.795273
-50.127441 -71.548882 19.738094
-26.737583 -88.310913 39.441677
-37.659943 -79.893646 49.350964
-34.170563 -80.515259 49.257622
-36.519485 -85.251129 48.541912
-35.003574 -94.653625 40.251244
-54.556 -70.593796 45.775803
-55.342194 -71.262466 41.778847
-59.308525 -64.307449 43.244682
-53.014656 -68.794449 48.202717
-48.500832 -81.537582 14.096596
-41.969482 -86.960114 46.952003
-38.756397 -89.100464 46.812317
-40.862144 -91.371826 43.439331
-40.394203 -95.359695 38.278084
-46.100227 -83.662247 35.913288
-46.188248 -82.053932 29.899471
-47.614738 -79.480537 33.597424
-49.630905 -75.47052 31.101959
-52.389652 -71.767502 28.659275
-55.622501 -70.994362 36.892731
-55.7024 -70.007782 31.699839
-36.028374 -69.822289 48.653988
-38.740082 -74.412628 48.738979
-41.419792 -78.805901 49.26865
-46.46447 -72.273636 48.463253
-45.207745 -77.331078 48.873398
-43.571938 -82.244049 48.634125
-45.020126 -84.194366 45.971603
-45.80864 -84.558624 41.485371
-47.715607 -78.552383 17.964563
-50.029831 -76.956619 12.538469
-53.400764 -75.237106 7.615459
-35.576607 -90.22641 45.515491
-32.578674 -90.161179 43.384155
-29.694 -89.24324 41.083267
-29.017675 -93.327957 34.681599
-57.231644 -60.872608 49.626614
-45.40501 -88.056366 29.539925
-45.800316 -87.208435 26.51063
-45.69368 -85.741776 28.758949
-45.060249 -87.309738 34.819191
-44.420307 -89.49173 35.49958
-44.956406 -88.840195 32.54937
-45.010227 -90.363983 30.138569
-51.720222 -76.202194 42.85355
-51.731163 -76.129845 40.536346
-53.005394 -74.577698 41.679478
-61.85284 -63.135822 37.846352
-63.68483 -61.766167 34.776611
-52.492802 -74.026268 45.660149
-51.082893 -75.372604 46.480728
-51.516293 -75.958817 44.866886
-50.384644 -77.773842 44.001923
-50.867725 -71.60788 24.281042
-49.658806 -72.533554 22.558054
-51.144226 -70.585609 21.492596
-27.132235 -86.330795 42.406837
-38.882671 -82.103943 49.317379
-37.082733 -82.603783 49.187782
-38.246681 -84.759613 48.856476
-55.135696 -68.512161 46.775528
-55.755054 -69.112747 45.106812
-56.314575 -67.079346 46.309311
-59.022556 -61.921558 46.848824
-58.630196 -63.966194 45.367737
-59.820305 -62.318298 44.911583
-60.552296 -62.652233 42.71172
-61.029655 -60.629913 44.458817
-54.674843 -65.41716 48.829433
-53.359158 -66.490135 48.812275
-54.341141 -67.642868 48.022064
-53.889805 -69.843071 47.216797
-46.652023 -85.496109 20.52387
-47.233643 -84.665146 17.629288
-47.990433 -83.84111 14.83821
-47.566711 -82.346519 16.846558
-42.788349 -87.779678 45.197884
-41.333878 -89.212784 45.425751
-42.227798 -89.853348 43.388741
-42.689674 -93.656006 36.057655
-41.655922 -93.734833 38.649895
-41.573753 -95.534668 35.838531
-40.312824 -97.18959 35.252674
-45.251148 -93.393921 25.022064
-46.885273 -82.231979 37.683998
-46.819248 -81.558266 34.794991
-47.797455 -80.236382 36.477505
-51.373238 -75.205139 35.356232
-49.884769 -76.330811 33.915588
-51.122883 -74.452026 32.628525
-50.911903 -73.572586 29.861773
-52.514946 -72.644882 31.377035
-56.569221 -69.607544 40.811756
-55.526726 -71.231201 39.403114
-56.827232 -69.554962 38.367485
-57.202026 -68.955391 33.250862
-41.13839 -71.262955 48.097183
-39.211128 -71.691284 48.245743
-40.666191 -73.964996 48.596828
-40.122791 -76.683205 49.055943
-42.06073 -76.137222 48.958206
-48.281097 -71.559143 48.444229
-47.93079 -77.774017 47.904022
-47.031845 -76.460632 48.540962
-46.208954 -78.835938 48.460945
-44.416756 -79.808167 48.889561
-45.305 -81.156639 48.166069
-44.384945 -83.422714 47.565117
-45.98262 -82.117332 46.905846
-47.961578 -81.111008 41.829571
-46.74506 -82.854599 42.947678
-46.875908 -82.686752 40.429222
-46.00219 -84.235931 38.788052
-46.298111 -81.1521 26.852566
-46.78532 -78.904083 25.804066
-47.604462 -77.113083 19.893995
-48.440239 -76.276962 17.055454
-48.72464 -77.751831 15.187735
-38.289448 -91.455414 44.906006
-37.148991 -89.810745 46.297565
-36.754951 -92.150116 44.157791
-33.767883 -92.535812 41.891705
-32.313343 -92.272629 40.541183
-31.133974 -89.764938 42.203979
-30.85968 -91.805832 39.192432
-29.382141 -91.254623 37.968903
-30.567116 -93.834824 35.899651
-55.894836 -64.227859 48.771553
-56.738129 -64.997307 47.507481
-57.044411 -62.910248 48.640263
-58.155602 -61.447586 48.441597
-45.724232 -91.049698 24.72221
-46.013077 -88.696274 24.193996
-46.194977 -86.34584 23.494688
-46.361504 -84.006042 22.677969
-44.12402 -88.188614 40.497433
-43.048302 -90.075623 40.996407
-43.78318 -89.930923 38.338394
-43.638889 -91.622131 35.930515
-43.62645 -93.262604 33.322769
-44.44305 -92.64241 30.497446
-45.135742 -91.880951 27.620611
-49.1609 -79.344391 40.605721
-49.014355 -78.918419 37.979088
-50.365372 -77.564346 39.319336
-51.596794 -75.78154 38.010818
-52.877209 -74.010422 36.717918
-39.998283 -66.357651 47.474449
-41.537521 -68.586563 47.666386
-43.08847 -70.798477 48.069576
-51.065952 -72.16391 47.968483
-49.458801 -73.151711 48.264088
-50.398193 -74.433449 47.621979
-49.560577 -76.620972 47.236771
-48.580551 -78.720062 46.743385
-47.517784 -80.735077 46.066963
-48.985424 -79.285866 45.086037
-49.167027 -79.483101 43.007378
-48.292953 -75.554016 26.546623
-47.485504 -76.707275 24.72739
-48.437904 -74.578369 23.640579
-48.842438 -73.624435 20.764593
-49.542267 -72.702591 17.943172
-36.383862 -77.546188 49.272465
-34.643471 -77.857727 49.429268
-35.868954 -80.266663 49.315147
-35.351784 -82.939011 48.952541
-34.858685 -85.526947 48.069359
-36.476318 -94.346039 41.504333
-53.800045 -72.584854 44.8018
-54.115517 -72.88736 42.798927
-55.03051 -71.059296 43.934654
-56.222733 -69.468765 43.088394
-57.467609 -65.558701 45.83535
-58.098267 -65.947754 43.824097
-58.65078 -66.192352 41.561119
-59.927937 -64.552094 40.910156
-61.227203 -62.927521 40.33276
-62.493263 -61.316925 39.809669
-51.928726 -67.450897 48.727451
-51.56723 -69.828743 48.328281
-52.540863 -71.061783 47.617874
-53.282803 -71.981026 46.432369
-48.954239 -83.00032 12.16889
-41.046577 -85.714386 48.216984
-39.344307 -86.630981 48.168331
-40.372772 -88.133331 47.031799
-39.825584 -90.458252 45.332649
-39.428974 -92.668091 43.140331
-41.856956 -91.841171 41.188759
-40.558403 -93.422668 41.034348
-39.177452 -94.750565 40.513092
-45.611355 -85.108459 33.946144
-46.144196 -82.911179 32.932899
-46.734764 -80.736496 31.824137
-47.452232 -78.601562 30.656368
-48.784996 -78.264343 35.209362
-48.539307 -77.44561 32.356178
-48.35025 -76.523987 29.459444
-49.46328 -74.521866 28.258459
-50.806549 -72.612228 27.075071
-54.263664 -72.913811 40.517456
-54.28611 -72.696236 38.050583
-54.228481 -72.269485 35.47506
-55.668282 -70.578842 34.311798
-54.13858 -71.668228 32.843689
-54.065102 -70.924438 30.185987
-37.781429 -69.411812 48.119289
-37.345306 -72.094032 48.537724
-36.878769 -74.812363 48.965107
-38.219505 -77.15387 49.154167
-39.520134 -79.402985 49.34219
-40.724895 -81.457588 49.318432
-44.566235 -72.904579 48.480965
-47.729065 -74.032791 48.505054
-45.898788 -74.817612 48.695545
-43.997963 -75.516525 48.84296
-43.326546 -78.113083 49.115253
-42.579479 -80.686104 49.177147
-41.801033 -83.225021 48.910557
-42.734352 -84.631851 48.010971
-43.523197 -85.632477 46.588596
-44.173782 -86.214752 44.679813
-46.456463 -82.678017 45.140083
-45.488914 -84.562561 43.913853
-44.695091 -86.398422 42.36499
-45.097431 -86.229919 39.743164
-45.395126 -85.774826 36.910316
-46.2118 -82.550018 24.796146
-46.603947 -81.682899 21.787189
-46.999836 -79.382751 20.852875
-47.201904 -80.848846 18.854807
-48.053104 -80.043404 16.028528
-49.180336 -79.246735 13.329049
-50.578674 -78.428383 10.763401
-51.666115 -69.55928 18.726187
-50.545574 -71.806213 15.199286
-51.605312 -76.13179 10.018587
-37.655235 -87.338974 47.86578
-36.006763 -87.80159 47.328552
-35.24519 -92.509598 43.129345
-34.053825 -90.335526 44.519135
-28.575565 -86.74791 43.038403
-28.233757 -88.716293 40.12925
-27.863047 -90.755035 36.991058
-27.413378 -92.932312 33.795052
-28.539501 -95.524719 31.399372
-62.777619 -62.42144 36.310872
-62.143541 -63.195833 36.575642
-62.486918 -62.361429 37.581581
-63.402912 -61.676602 36.046711
-63.059536 -62.511006 35.040772
-62.777619 -62.42144 36.310872
-51.83535 -70.189297 22.3416
-51.005976 -71.096744 22.886819
-51.6971 -70.700432 23.735822
-27.325903 -85.376686 43.755047
-26.615311 -85.255257 43.615715
-60.002579 -61.281958 45.693035
-59.42143 -62.119928 45.880204
-59.603704 -61.083588 46.661656
-60.607254 -60.437765 45.466652
-60.42498 -61.474106 44.6852
-60.002579 -61.281958 45.693035
-46.157894 -92.134697 20.822529
-45.908058 -93.316162 20.945468
-42.106928 -96.295257 33.038525
-41.555868 -96.392914 34.332313
-42.124813 -95.437011 34.544742
-42.671963 -96.152122 31.773522
-42.106928 -96.295257 33.038525
-45.582155 -93.732628 22.290976
-45.269458 -94.150856 23.692315
-45.563845 -92.975693 23.620725
-45.908058 -93.316162 20.945468
-45.582155 -93.732628 22.290976
-49.134535 -71.153526 48.424481
-48.486773 -70.305199 48.436051
-49.34021 -69.899582 48.416302
-47.084738 -78.282325 26.74712
-46.742132 -79.368611 27.309917
-47.04155 -78.746853 28.252972
-48.912874 -75.151607 16.593893
-48.444488 -75.579949 17.988529
-49.013655 -75.87207 15.691337
-48.912874 -75.151607 16.593893
-37.356188 -92.913483 43.322395
-37.522199 -91.802765 44.531898
-38.123436 -92.566132 43.696503
-32.190684 -93.29168 38.932648
-32.926333 -93.446174 39.680042
-32.803673 -94.465225 38.071506
-58.214594 -60.426683 48.967467
-57.693623 -61.160097 49.034105
-57.752615 -60.139195 49.559975
-58.708939 -60.642925 48.309038
-58.214594 -60.426683 48.967467
-55.530397 -62.665247 49.628601
-55.637932 -61.59637 49.958285
-56.012825 -63.174894 49.217012
-55.412408 -63.718212 49.183141
-55.530397 -62.665247 49.628601
-60.053103 -65.508422 37.529415
-59.824531 -65.50853 38.788983
-40.158712 -65.055174 47.401741
-39.279255 -65.275101 47.567597
-42.500833 -68.366043 47.686898
-41.702991 -67.263611 47.522257
-43.276308 -69.472 47.888492
-42.312995 -69.69252 47.867981
-42.500833 -68.366043 47.686898
-49.462778 -85.107071 9.267765
-49.017006 -85.588334 10.52758
-25.970764 -88.225746 39.272177
-26.197155 -87.198761 40.741373
-26.518141 -89.374679 37.90278
-25.970764 -88.225746 39.272177
-56.57251 -68.512718 43.768802
-55.988894 -69.290756 44.097603
-56.33867 -68.334709 44.778011
-56.820736 -68.653378 42.689373
-56.57251 -68.512718 43.768802
-61.512402 -61.958962 41.272036
-60.88975 -62.789877 41.52224
-61.174948 -61.821318 42.461516
-62.145432 -61.153664 41.01049
-61.860233 -62.122223 40.071214
-61.512402 -61.958962 41.272036
-46.618576 -88.596718 20.105591
-46.362734 -89.020263 21.536677
-49.092719 -81.124168 12.787431
-49.319422 -81.855537 11.823578
-48.727536 -82.268951 13.132743
-39.714371 -96.033241 37.9072
-39.105995 -95.728676 39.024704
-39.785827 -95.05513 39.395588
-39.624984 -97.871116 34.781588
-40.275408 -98.060204 33.648943
-44.09762 -95.301338 27.75239
-44.093879 -94.520332 29.186972
-52.383478 -71.28775 27.293672
-51.591926 -71.710114 26.50157
-51.598101 -72.189865 27.867173
-35.214523 -70.033817 49.028073
-35.455702 -68.749859 48.945463
-35.801947 -71.150925 48.821122
-35.214523 -70.033817 49.028073
-38.705732 -69.207875 47.957254
-37.984152 -68.094494 47.96351
-38.908455 -67.890557 47.801476
-45.743118 -71.279267 48.299486
-46.68255 -70.990574 48.364432
-45.515352 -72.589107 48.472109
-44.794001 -71.594738 48.308342
-45.743118 -71.279267 48.299486
-46.074795 -82.744923 28.874038
-45.985502 -83.180134 30.405091
-46.378738 -81.401146 24.311121
-46.254955 -81.851059 25.824356
-46.421894 -80.702187 25.339332
-46.574812 -80.967587 22.806643
-46.407873 -82.116458 23.291668
-46.378738 -81.401146 24.311121
-47.445093 -76.882935 22.307588
-47.276022 -77.348602 23.773646
-47.654575 -76.241608 23.261332
-52.548595 -68.60902 18.2335
-52.269184 -69.149761 19.591405
-51.225783 -70.715499 14.731472
-50.712128 -71.194321 16.082823
-52.503038 -75.684448 8.817023
-52.162025 -74.966354 9.627154
-53.059752 -74.519013 8.42559
-52.809055 -76.394875 7.969327
-51.911329 -76.842217 9.170891
-52.503038 -75.684448 8.817023
-53.722618 -75.91021 6.801199
-52.809055 -76.394875 7.969327
-33.59364 -79.302719 49.448347
-33.830094 -77.973953 49.53417
-34.407017 -79.186493 49.343445
-34.997665 -89.112663 46.055421
-35.212744 -87.900254 46.961952
-35.791685 -89.014 46.422021
-32.737871 -89.04937 44.553595
-33.475447 -89.136544 45.121084
-33.316249 -90.248353 43.951645
-32.005282 -88.908837 44.083816
-32.737871 -89.04937 44.553595
-29.847328 -88.235267 42.471294
-30.567315 -88.496116 43.03165
-30.413987 -89.504089 41.643623
-29.134783 -87.995575 42.060835
-29.288111 -86.987603 43.448863
-29.847328 -88.235267 42.471294
-28.211561 -96.707222 29.843528
-29.108299 -96.81144 30.28535
-27.682232 -95.411804 31.055519
-28.211561 -96.707222 29.843528
-56.761256 -60.510368 50.001528
-56.681229 -61.497269 49.644543
-56.210841 -61.135029 50.019457
-57.246851 -59.914322 50.00186
-56.761256 -60.510368 50.001528
-57.752615 -60.139195 49.559975
-57.246851 -59.914322 50.00186
-56.210841 -61.135029 50.019457
-55.637932 -61.59637 49.958285
-61.447679 -63.94945 36.877846
-60.77251 -64.734642 37.176811
-61.177671 -63.921014 38.145318
-61.447679 -63.94945 36.877846
-62.143541 -63.195833 36.575642
-63.32991 -62.510609 33.758812
-63.059536 -62.511006 35.040772
-63.937683 -61.788191 33.496008
-63.32991 -62.510609 33.758812
-49.899406 -83.935456 9.000089
-49.735071 -83.265973 9.932436
-26.394481 -86.208702 42.223953
-26.615311 -85.255257 43.615715
-26.934909 -87.320854 40.924257
-26.197155 -87.198761 40.741373
-26.394481 -86.208702 42.223953
-56.618431 -67.318008 45.379261
-56.33867 -68.334709 44.778011
-56.034814 -68.096046 45.708061
-61.413628 -60.810158 43.335064
-61.174948 -61.821318 42.461516
-60.790976 -61.641073 43.585268
-54.017001 -65.953647 48.820854
-53.488551 -65.335941 49.117718
-54.146393 -64.799453 49.126297
-46.822544 -86.24839 19.436906
-46.734993 -87.421447 19.797311
-46.564472 -86.669167 20.884275
-47.113354 -85.832909 17.989615
-46.822544 -86.24839 19.436906
-46.942833 -85.080627 19.076579
-47.42492 -85.414872 16.583505
-47.113354 -85.832909 17.989615
-47.612038 -84.253128 16.233749
-47.803314 -85.002854 15.187966
-47.42492 -85.414872 16.583505
-40.925404 -97.220375 34.039385
-40.943289 -96.362129 35.545603
-41.555868 -96.392914 34.332313
-40.275408 -98.060204 33.648943
-40.925404 -97.220375 34.039385
-44.896515 -94.551186 25.032484
-44.53221 -94.945374 26.426922
-44.886843 -93.788109 26.416502
-44.896515 -94.551186 25.032484
-45.269458 -94.150856 23.692315
-58.007404 -68.181286 32.778637
-57.854827 -68.341724 34.066187
-57.288757 -68.694221 31.954103
-58.007404 -68.181286 32.778637
-56.538944 -69.220417 31.178592
-56.452213 -69.481587 32.47535
-57.288757 -68.694221 31.954103
-55.732383 -69.653751 30.387618
-56.538944 -69.220417 31.178592
-36.249895 -68.517719 48.524268
-35.455702 -68.749859 48.945463
-47.590864 -70.633328 48.35492
-48.486773 -70.305199 48.436051
-47.372783 -71.91639 48.453741
-46.68255 -70.990574 48.364432
-47.590864 -70.633328 48.35492
-46.498527 -80.492619 27.834167
-46.243179 -81.603016 28.376019
-46.443596 -80.943535 29.35762
-46.541715 -80.028092 26.328316
-46.498527 -80.492619 27.834167
-46.742132 -79.368611 27.309917
-46.665498 -79.578179 24.815081
-46.421894 -80.702187 25.339332
-46.541715 -80.028092 26.328316
-48.0266 -75.998009 19.407799
-47.714055 -76.444512 20.844634
-48.136192 -75.329438 20.358438
-48.022351 -76.695022 18.474725
-48.0266 -75.998009 19.407799
-48.444488 -75.579949 17.988529
-49.155855 -76.609504 14.757478
-48.582439 -77.014397 16.121595
-49.013655 -75.87207 15.691337
-49.80845 -76.211899 13.432845
-49.377235 -77.354225 13.863102
-49.155855 -76.609504 14.757478
-53.997478 -74.04982 7.235993
-53.059752 -74.519013 8.42559
-54.374414 -74.734649 6.460463
-53.997478 -74.04982 7.235993
-33.374012 -80.578712 49.229626
-33.939501 -81.808517 48.949766
-33.653602 -93.577766 40.355303
-34.385728 -93.594718 41.071475
-34.271448 -94.636673 39.535072
-33.040613 -92.404221 41.216444
-33.653602 -93.577766 40.355303
-32.926333 -93.446174 39.680042
-59.142416 -60.879911 47.512652
-58.589079 -61.684572 47.645211
-58.708939 -60.642925 48.309038
-59.603704 -61.083588 46.661656
-59.142416 -60.879911 47.512652
-54.802412 -64.312862 49.212081
-54.146393 -64.799453 49.126297
-55.28484 -64.822509 48.800493
-54.802412 -64.312862 49.212081
-55.412408 -63.718212 49.183141
-45.98639 -90.624 23.275442
-46.062544 -91.377884 22.024031
-45.800387 -91.803582 23.470799
-46.130812 -89.447288 23.011335
-45.98639 -90.624 23.275442
-45.868655 -89.872986 24.458103
-46.244999 -88.269249 22.719338
-46.362734 -89.020263 21.536677
-46.130812 -89.447288 23.011335
-43.645836 -94.060486 31.942887
-43.170547 -95.098861 31.906979
-43.151162 -94.300979 33.286862
-44.054136 -93.750389 30.530226
-43.645836 -94.060486 31.942887
-44.03475 -92.952507 31.910108
-44.482793 -93.412353 29.154193
-44.093879 -94.520332 29.186972
-44.054136 -93.750389 30.530226
-58.009212 -67.929234 38.679066
-58.489036 -67.130047 39.528996
-60.053103 -65.508422 37.529415
-60.77251 -64.734642 37.176811
-39.092579 -66.567414 47.641091
-39.279255 -65.275101 47.567597
-39.814159 -67.680794 47.634834
-38.908455 -67.890557 47.801476
-39.092579 -66.567414 47.641091
-40.933373 -66.149155 47.426288
-40.158712 -65.055174 47.401741
-40.767902 -67.472107 47.570418
-40.933373 -66.149155 47.426288
-41.702991 -67.263611 47.522257
-49.462778 -85.107071 9.267765
-49.899406 -83.935456 9.000089
-48.645588 -74.253685 19.843098
-48.136192 -75.329438 20.358438
-48.333043 -74.700187 21.279933
-48.995503 -73.792763 18.432388
-48.645588 -74.253685 19.843098
-49.192352 -73.163513 19.353883
-49.463888 -73.364422 17.037752
-48.995503 -73.792763 18.432388
-35.513666 -77.701957 49.350866
-34.878563 -76.512535 49.360267
-35.748759 -76.356765 49.281866
-34.530112 -83.020393 48.797226
-33.939501 -81.808517 48.949766
-34.761173 -81.727135 49.105081
-34.283562 -84.314362 48.355635
-34.530112 -83.020393 48.797226
-35.105235 -84.232979 48.51095
-34.067934 -85.5551 47.774821
-34.283562 -84.314362 48.355635
-37.110681 -95.052849 40.568748
-37.216871 -94.011444 41.995666
-36.38159 -95.375709 39.970754
-37.110681 -95.052849 40.568748
-35.645218 -95.529503 39.34421
-35.739946 -94.499832 40.877789
-36.38159 -95.375709 39.970754
-34.908754 -95.667168 38.627758
-35.645218 -95.529503 39.34421
-34.271448 -94.636673 39.535072
-34.908754 -95.667168 38.627758
-32.693886 -95.468292 36.384989
-32.803673 -94.465225 38.071506
-31.927267 -95.319557 35.610271
-32.693886 -95.468292 36.384989
-56.99398 -68.722767 41.551054
-56.395977 -69.538155 41.950075
-56.820736 -68.653378 42.689373
-57.625125 -67.893616 41.107331
-57.200367 -68.778393 40.368032
-56.99398 -68.722767 41.551054
-57.194948 -66.557686 45.14228
-56.618431 -67.318008 45.379261
-56.891092 -66.319024 46.07233
-57.510277 -66.752212 44.136654
-57.194948 -66.557686 45.14228
-57.782938 -65.753228 44.829724
-57.758503 -66.892872 43.057225
-57.510277 -66.752212 44.136654
-58.034759 -67.015171 41.925736
-57.758503 -66.892872 43.057225
-58.374523 -66.070053 42.692608
-58.241146 -67.070797 40.742714
-57.625125 -67.893616 41.107331
-58.034759 -67.015171 41.925736
-58.89867 -66.251602 40.3474
-58.489036 -67.130047 39.528996
-58.241146 -67.070797 40.742714
-59.537249 -65.431473 40.021919
-58.89867 -66.251602 40.3474
-59.289358 -65.372223 41.235637
-60.21522 -64.629151 39.677219
-59.824531 -65.50853 38.788983
-59.537249 -65.431473 40.021919
-50.180433 -69.525216 48.498063
-49.34021 -69.899582 48.416302
-52.775106 -65.773029 48.98777
-53.488551 -65.335941 49.117718
-52.05989 -66.25341 48.945358
-52.775106 -65.773029 48.98777
-52.643942 -66.970516 48.769863
-51.287647 -66.642959 48.784763
-52.05989 -66.25341 48.945358
-51.15081 -67.876709 48.659422
-51.287647 -66.642959 48.784763
-50.970062 -69.065632 48.459837
-51.15081 -67.876709 48.659422
-51.747978 -68.63982 48.527866
-50.777601 -70.288327 48.366506
-50.180433 -69.525216 48.498063
-50.970062 -69.065632 48.459837
-46.157894 -92.134697 20.822529
-46.062544 -91.377884 22.024031
-46.618576 -88.596718 20.105591
-46.734993 -87.421447 19.797311
-48.86126 -84.865212 11.534375
-49.017006 -85.588334 10.52758
-48.189285 -84.576934 13.834164
-47.803314 -85.002854 15.187966
-48.671188 -84.15654 12.499504
-48.189285 -84.576934 13.834164
-48.472336 -83.420715 13.50355
-49.14431 -83.708992 11.20376
-48.86126 -84.865212 11.534375
-48.671188 -84.15654 12.499504
-49.545 -82.5573 10.897565
-49.735071 -83.265973 9.932436
-49.14431 -83.708992 11.20376
-49.545 -82.5573 10.897565
-49.319422 -81.855537 11.823578
-38.693199 -93.17247 42.813665
-38.123436 -92.566132 43.696503
-38.859211 -92.061753 44.023168
-38.567438 -94.213707 41.500046
-38.693199 -93.17247 42.813665
-39.303213 -93.709328 41.826712
-38.461248 -95.255112 40.073127
-38.567438 -94.213707 41.500046
-38.461248 -95.255112 40.073127
-39.105995 -95.728676 39.024704
-39.673681 -96.948189 36.394495
-39.714371 -96.033241 37.9072
-40.353513 -96.274642 36.765379
-39.673681 -96.948189 36.394495
-39.624984 -97.871116 34.781588
-42.671963 -96.152122 31.773522
-43.170547 -95.098861 31.906979
-44.09762 -95.301338 27.75239
-44.53221 -94.945374 26.426922
-45.697056 -84.707397 32.428427
-45.591397 -85.440338 31.360461
-45.505696 -85.8414 32.878177
-45.963476 -83.608757 31.921805
-45.697056 -84.707397 32.428427
-45.877775 -84.009819 33.439521
-46.166222 -82.482556 31.416185
-45.985502 -83.180134 30.405091
-45.963476 -83.608757 31.921805
-46.716854 -80.284817 30.319953
-46.443596 -80.943535 29.35762
-46.461506 -81.395214 30.861804
-47.075588 -79.21735 29.736069
-46.716854 -80.284817 30.319953
-47.093498 -79.669029 31.240253
-47.418194 -78.131065 29.173271
-47.04155 -78.746853 28.252972
-47.075588 -79.21735 29.736069
-51.622515 -71.207939 25.104556
-50.837137 -72.110054 25.678057
-51.591926 -71.710114 26.50157
-51.6971 -70.700432 23.735822
-51.622515 -71.207939 25.104556
-57.507072 -68.732094 37.900654
-57.329372 -68.752102 39.145897
-58.009212 -67.929234 38.679066
-56.927814 -69.443703 37.098827
-57.507072 -68.732094 37.900654
-56.325449 -70.163402 36.361451
-56.224867 -70.274662 37.630108
-56.927814 -69.443703 37.098827
-57.115212 -69.143917 34.540516
-57.854827 -68.341724 34.066187
-56.348339 -69.955642 35.070984
-57.115212 -69.143917 34.540516
-56.435154 -69.767117 33.78133
-55.645392 -70.786602 35.602265
-56.325449 -70.163402 36.361451
-56.348339 -69.955642 35.070984
-54.913735 -70.112079 29.630692
-54.883751 -70.46611 30.942913
-55.732383 -69.653751 30.387618
-54.060484 -70.49509 28.850257
-54.913735 -70.112079 29.630692
-53.222759 -70.916622 28.0869
-53.227377 -71.34597 29.422631
-54.060484 -70.49509 28.850257
-52.383478 -71.28775 27.293672
-53.222759 -70.916622 28.0869
-37.126423 -68.312481 48.256918
-37.984152 -68.094494 47.96351
-36.904902 -69.617051 48.386639
-36.249895 -68.517719 48.524268
-37.126423 -68.312481 48.256918
-36.460413 -72.286797 48.76299
-35.801947 -71.150925 48.821122
-36.68684 -70.95816 48.595856
-36.227144 -73.645962 48.976681
-36.460413 -72.286797 48.76299
-37.112037 -73.453198 48.751416
-35.996212 -74.989853 49.128187
-36.227144 -73.645962 48.976681
-36.631315 -76.179276 49.118786
-35.748759 -76.356765 49.281866
-35.996212 -74.989853 49.128187
-44.055118 -70.541687 48.102648
-43.276308 -69.472 47.888492
-43.827353 -71.851528 48.27527
-44.055118 -70.541687 48.102648
-44.794001 -71.594738 48.308342
-61.192051 -59.566097 45.255936
-60.607254 -60.437765 45.466652
-61.625835 -59.770762 44.223179
-61.192051 -59.566097 45.255936
-61.413628 -60.810158 43.335064
-61.625835 -59.770762 44.223179
-62.73941 -60.319084 40.762878
-62.145432 -61.153664 41.01049
-63.070656 -60.512619 39.559539
-62.73941 -60.319084 40.762878
-63.384522 -60.647674 38.313111
-62.807129 -61.45198 38.56324
-63.070656 -60.512619 39.559539
-63.667721 -60.81257 37.069485
-63.384522 -60.647674 38.313111
-63.949639 -60.902136 35.799385
-63.402912 -61.676602 36.046711
-63.667721 -60.81257 37.069485
-64.188881 -61.015715 34.533805
-63.949639 -60.902136 35.799385
-63.937683 -61.788191 33.496008
-64.188881 -61.015715 34.533805
-45.738219 -85.024056 29.83483
-45.546858 -86.158059 30.28458
-45.591397 -85.440338 31.360461
-45.827511 -84.588844 28.303777
-45.738219 -85.024056 29.83483
-45.977063 -84.153954 26.776083
-45.843232 -85.306885 27.231256
-45.827511 -84.588844 28.303777
-46.129727 -82.294006 27.350585
-46.074795 -82.744923 28.874038
-46.243179 -81.603016 28.376019
-46.086571 -82.992965 26.322375
-46.129727 -82.294006 27.350585
-46.254955 -81.851059 25.824356
-46.102291 -83.711006 25.249854
-45.977063 -84.153954 26.776083
-46.086571 -82.992965 26.322375
-46.92593 -78.447006 24.311984
-47.135412 -77.805679 25.265728
-47.276022 -77.348602 23.773646
-46.665498 -79.578179 24.815081
-46.92593 -78.447006 24.311984
-47.335501 -77.551506 21.356949
-47.445093 -76.882935 22.307588
-47.714055 -76.444512 20.844634
-47.033188 -78.68634 21.836388
-47.335501 -77.551506 21.356949
-47.302149 -78.247917 20.373435
-46.772756 -79.817512 22.339486
-47.033188 -78.68634 21.836388
-46.801891 -80.532825 21.320032
-46.574812 -80.967587 22.806643
-46.772756 -79.817512 22.339486
-49.43247 -79.978745 12.403657
-49.092719 -81.124168 12.787431
-48.840584 -80.392158 13.712822
-50.131639 -79.569569 11.120833
-49.43247 -79.978745 12.403657
-49.879505 -78.837559 12.046225
-50.843731 -79.131546 9.876409
-50.131639 -79.569569 11.120833
-52.00824 -69.662926 20.974609
-51.83535 -70.189297 22.3416
-51.40517 -70.072445 20.109392
-52.00824 -69.662926 20.974609
-52.269184 -69.149761 19.591405
-52.053044 -69.044891 17.363781
-52.548595 -68.60902 18.2335
-51.272398 -70.070854 17.846274
-52.053044 -69.044891 17.363781
-50.503061 -71.065655 18.352227
-50.896778 -70.554081 19.23214
-51.272398 -70.070854 17.846274
-50.210474 -71.642509 17.454766
-49.834854 -72.125737 18.840633
-50.503061 -71.065655 18.352227
-50.04392 -72.254402 16.571229
-50.210474 -71.642509 17.454766
-50.712128 -71.194321 16.082823
-49.965542 -72.916233 15.665809
-49.463888 -73.364422 17.037752
-50.04392 -72.254402 16.571229
-51.188505 -71.359955 13.874693
-51.225783 -70.715499 14.731472
-50.587225 -72.496632 14.323149
-51.188505 -71.359955 13.874693
-49.965542 -72.916233 15.665809
-50.587225 -72.496632 14.323149
-50.528911 -75.805695 12.129834
-49.80845 -76.211899 13.432845
-51.316652 -75.39328 10.869893
-52.162025 -74.966354 9.627154
-50.817571 -76.544205 11.278528
-50.528911 -75.805695 12.129834
-51.316652 -75.39328 10.869893
-51.39801 -77.990513 9.543298
-51.091993 -77.280086 10.390994
-51.911329 -76.842217 9.170891
-50.843731 -79.131546 9.876409
-51.39801 -77.990513 9.543298
-53.722618 -75.91021 6.801199
-54.374414 -74.734649 6.460463
-34.055693 -76.669525 49.577675
-34.878563 -76.512535 49.360267
-34.055693 -76.669525 49.577675
-33.830094 -77.973953 49.53417
-33.59364 -79.302719 49.448347
-33.374012 -80.578712 49.229626
-34.638705 -86.762932 47.332355
-35.432724 -86.664269 47.698955
-35.212744 -87.900254 46.961952
-34.067934 -85.5551 47.774821
-34.638705 -86.762932 47.332355
-36.615634 -93.248077 42.831062
-37.356188 -92.913483 43.322395
-37.216871 -94.011444 41.995666
-34.236275 -89.167222 45.557243
-34.997665 -89.112663 46.055421
-34.815216 -90.280968 45.017313
-34.236275 -89.167222 45.557243
-33.475447 -89.136544 45.121084
-31.282932 -88.710716 43.493729
-32.005282 -88.908837 44.083816
-31.856324 -89.963059 42.794067
-31.282932 -88.710716 43.493729
-30.567315 -88.496116 43.03165
-28.748911 -85.762978 44.30538
-29.288111 -86.987603 43.448863
-28.047568 -85.585244 44.07083
-28.748911 -85.762978 44.30538
-27.8539 -86.539353 42.72262
-27.325903 -85.376686 43.755047
-28.047568 -85.585244 44.07083
-27.080873 -90.596741 36.677471
-26.518141 -89.374679 37.90278
-27.300315 -89.532974 38.216368
-26.856038 -91.685379 35.079468
-27.080873 -90.596741 36.677471
-27.638213 -91.843673 35.393055
-26.588848 -92.852234 33.567778
-26.856038 -91.685379 35.079468
-31.176812 -95.081604 34.898041
-31.31757 -94.072777 36.611881
-31.927267 -95.319557 35.610271
-30.381513 -94.874168 34.200272
-31.176812 -95.081604 34.898041
-29.606793 -94.620735 33.591246
-29.792395 -93.58139 35.290625
-30.381513 -94.874168 34.200272
-29.367705 -95.719116 31.950132
-29.108299 -96.81144 30.28535
-28.778588 -94.426338 33.040486
-29.606793 -94.620735 33.591246
-29.367705 -95.719116 31.950132
-27.119171 -94.1156 32.253359
-27.97644 -94.228516 32.597212
-27.682232 -95.411804 31.055519
-26.588848 -92.852234 33.567778
-27.119171 -94.1156 32.253359
3 0 78 76
3 0 81 79
3 0 76 81
3 1 85 83
3 2 286 288
3 288 287 86
3 286 287 288
3 2 289 291
3 289 87 290
3 289 290 291
3 1 90 88
3 1 83 90
3 292 94 293
3 294 293 92
3 292 293 294
3 295 95 296
3 3 98 96
3 4 101 99
3 297 104 298
3 299 298 102
3 297 298 299
3 300 106 301
3 302 301 104
3 300 301 302
3 4 109 107
3 4 99 109
3 7 303 304
3 8 112 111
3 8 114 112
3 9 117 115
3 10 120 118
3 10 305 307
3 307 306 120
3 305 306 307
3 10 308 309
3 7 310 312
3 312 311 122
3 310 311 312
3 7 313 314
3 11 125 123
3 13 128 126
3 13 130 128
3 5 133 131
3 14 137 135
3 14 139 137
3 6 315 317
3 315 140 316
3 315 316 317
3 15 143 141
3 15 145 143
3 15 147 145
3 11 150 148
3 11 123 150
3 12 318 320
3 318 153 319
3 318 319 320
3 321 155 322
3 324 323 155
3 325 159 326
3 327 326 157
3 325 326 327
3 16 328 330
3 328 161 329
3 328 329 330
3 16 163 161
3 16 165 163
3 17 168 166
3 331 169 332
3 333 332 75
3 331 332 333
3 335 334 169
3 17 336 337
3 17 338 340
3 338 166 339
3 338 339 340
3 19 171 170
3 21 172 77
3 21 173 172
3 22 176 174
3 24 177 80
3 24 178 177
3 24 179 178
3 19 180 82
3 19 170 180
3 26 183 181
3 28 184 84
3 28 185 184
3 29 341 342
3 343 186 344
3 345 187 346
3 347 188 348
3 349 348 187
3 347 348 349
3 31 191 189
3 33 192 89
3 33 193 192
3 33 195 193
3 26 196 91
3 26 181 196
3 35 350 351
3 36 199 197
3 38 200 93
3 38 201 200
3 39 352 353
3 39 354 355
3 40 204 202
3 42 205 97
3 42 206 205
3 44 210 208
3 356 211 357
3 358 357 100
3 356 357 358
3 360 359 211
3 18 212 167
3 46 213 103
3 46 214 213
3 46 215 214
3 361 216 362
3 363 362 105
3 361 362 363
3 364 217 365
3 366 365 216
3 364 365 366
3 47 218 108
3 47 219 218
3 47 220 219
3 44 221 110
3 44 208 221
3 20 367 368
3 48 222 113
3 48 369 371
3 371 370 222
3 369 370 371
3 49 225 223
3 51 226 116
3 51 227 226
3 23 228 175
3 52 229 119
3 52 230 229
3 52 372 374
3 374 373 230
3 372 373 374
3 376 375 121
3 25 377 378
3 53 232 231
3 55 233 124
3 55 234 233
3 27 235 182
3 56 236 127
3 56 237 236
3 56 238 237
3 57 239 129
3 57 379 381
3 381 380 239
3 379 380 381
3 45 240 209
3 58 241 132
3 58 242 241
3 59 243 134
3 59 244 243
3 59 245 244
3 60 382 383
3 60 384 385
3 30 386 388
3 386 246 387
3 386 387 388
3 61 247 136
3 61 248 247
3 61 249 248
3 62 250 138
3 62 251 250
3 63 389 390
3 63 391 393
3 391 252 392
3 391 392 393
3 32 253 190
3 64 254 142
3 64 255 254
3 64 256 255
3 65 257 144
3 65 258 257
3 65 259 258
3 66 260 146
3 66 261 260
3 34 262 194
3 67 263 149
3 67 264 263
3 67 265 264
3 53 266 151
3 53 231 266
3 54 394 395
3 396 267 397
3 398 397 152
3 396 397 398
3 399 268 400
3 401 400 267
3 399 400 401
3 37 402 404
3 404 403 198
3 402 403 404
3 68 269 154
3 68 270 269
3 68 271 270
3 69 272 156
3 69 273 272
3 405 274 406
3 407 275 408
3 70 409 411
3 409 276 410
3 409 410 411
3 70 412 414
3 414 413 276
3 412 413 414
3 70 415 416
3 41 417 419
3 419 418 203
3 417 418 419
3 50 277 224
3 71 278 158
3 71 420 422
3 422 421 278
3 420 421 422
3 43 279 207
3 72 280 160
3 72 423 425
3 425 424 280
3 423 424 425
3 72 426 427
3 73 428 430
3 430 429 162
3 428 429 430
3 73 431 433
3 431 281 432
3 431 432 433
3 73 282 281
3 74 283 164
3 74 284 283
3 434 285 435
3 437 436 285
3 438 75 439
3 440 439 17
3 438 439 440
3 441 75 442
3 444 443 75
3 445 17 446
3 76 77 19
3 78 77 76
3 78 21 77
3 79 80 22
3 81 80 79
3 81 24 80
3 81 82 24
3 76 82 81
3 76 19 82
3 83 84 26
3 85 84 83
3 85 28 84
3 86 447 449
3 449 448 29
3 447 448 449
3 451 450 86
3 87 452 453
3 87 454 455
3 88 89 31
3 90 89 88
3 90 33 89
3 90 91 33
3 83 91 90
3 83 26 91
3 457 456 35
3 92 93 36
3 94 93 92
3 94 38 93
3 95 458 459
3 95 460 462
3 460 39 461
3 460 461 462
3 96 97 40
3 98 97 96
3 98 42 97
3 99 100 44
3 101 100 99
3 101 463 465
3 465 464 100
3 463 464 465
3 102 103 18
3 104 103 102
3 104 46 103
3 104 105 46
3 106 105 104
3 106 466 468
3 468 467 105
3 466 467 468
3 107 469 471
3 469 108 470
3 469 470 471
3 109 108 107
3 109 47 108
3 109 110 47
3 99 110 109
3 99 44 110
3 111 472 474
3 474 473 20
3 472 473 474
3 112 475 477
3 477 476 111
3 475 476 477
3 112 478 479
3 112 480 482
3 480 113 481
3 480 481 482
3 114 113 112
3 114 48 113
3 115 116 49
3 117 116 115
3 117 51 116
3 118 119 23
3 120 119 118
3 120 52 119
3 120 121 52
3 483 121 484
3 485 484 120
3 483 484 485
3 487 486 121
3 122 488 490
3 490 489 25
3 488 489 490
3 492 491 122
3 123 124 53
3 125 124 123
3 125 55 124
3 126 127 27
3 128 127 126
3 128 56 127
3 128 129 56
3 130 129 128
3 130 57 129
3 131 132 45
3 133 132 131
3 133 58 132
3 493 134 494
3 495 134 496
3 497 59 498
3 499 498 134
3 497 498 499
3 501 500 59
3 502 60 503
3 135 136 30
3 137 136 135
3 137 61 136
3 137 138 61
3 139 138 137
3 139 62 138
3 140 504 505
3 140 506 508
3 506 63 507
3 506 507 508
3 141 142 32
3 143 142 141
3 143 64 142
3 143 144 64
3 145 144 143
3 145 65 144
3 145 146 65
3 147 146 145
3 147 66 146
3 148 149 34
3 150 149 148
3 150 67 149
3 150 151 67
3 123 151 150
3 123 53 151
3 509 152 510
3 511 510 54
3 509 510 511
3 153 512 514
3 512 152 513
3 512 513 514
3 153 515 517
3 517 516 152
3 515 516 517
3 518 154 519
3 520 519 37
3 518 519 520
3 155 521 523
3 521 154 522
3 521 522 523
3 155 68 154
3 155 156 68
3 524 156 525
3 526 525 155
3 524 525 526
3 527 69 528
3 529 528 156
3 527 528 529
3 530 70 531
3 533 532 70
3 535 534 41
3 157 158 50
3 159 158 157
3 159 71 158
3 536 160 537
3 538 537 43
3 536 537 538
3 161 539 541
3 539 160 540
3 539 540 541
3 161 72 160
3 161 162 72
3 163 162 161
3 163 73 162
3 163 164 73
3 165 164 163
3 165 74 164
3 166 167 4
3 168 167 166
3 168 18 167
3 75 168 17
3 169 168 75
3 169 18 168
3 169 102 18
3 542 102 543
3 544 543 169
3 542 543 544
3 546 545 102
3 547 107 548
3 166 549 551
3 549 107 550
3 549 550 551
3 166 4 107
3 170 552 554
3 554 553 7
3 552 553 554
3 171 555 557
3 557 556 170
3 555 556 557
3 171 558 560
3 558 20 559
3 558 559 560
3 77 171 19
3 172 171 77
3 172 20 171
3 172 111 20
3 173 111 172
3 173 8 111
3 174 175 9
3 176 175 174
3 176 23 175
3 80 176 22
3 177 176 80
3 177 23 176
3 177 118 23
3 178 118 177
3 178 10 118
3 178 561 563
3 563 562 10
3 561 562 563
3 179 564 566
3 566 565 178
3 564 565 566
3 179 567 569
3 567 25 568
3 567 568 569
3 82 179 24
3 180 179 82
3 180 25 179
3 180 122 25
3 170 122 180
3 170 7 122
3 181 182 11
3 183 182 181
3 183 27 182
3 84 183 26
3 184 183 84
3 184 27 183
3 184 126 27
3 185 126 184
3 185 13 126
3 571 570 5
3 573 572 29
3 186 574 575
3 186 576 578
3 576 30 577
3 576 577 578
3 579 186 580
3 187 581 583
3 581 186 582
3 581 582 583
3 187 30 186
3 187 135 30
3 188 135 187
3 188 14 135
3 189 190 6
3 191 190 189
3 191 32 190
3 89 191 31
3 192 191 89
3 192 32 191
3 192 141 32
3 193 141 192
3 193 15 141
3 193 194 15
3 195 194 193
3 195 34 194
3 91 195 33
3 196 195 91
3 196 34 195
3 196 148 34
3 181 148 196
3 181 11 148
3 585 584 35
3 197 198 12
3 199 198 197
3 199 37 198
3 93 199 36
3 200 199 93
3 200 37 199
3 200 586 588
3 588 587 37
3 586 587 588
3 201 589 591
3 591 590 200
3 589 590 591
3 201 592 593
3 202 594 596
3 594 203 595
3 594 595 596
3 204 203 202
3 204 41 203
3 97 204 40
3 205 204 97
3 205 41 204
3 205 597 599
3 599 598 41
3 597 598 599
3 206 600 602
3 602 601 205
3 600 601 602
3 206 603 604
3 605 207 606
3 607 207 608
3 609 43 610
3 611 610 207
3 609 610 611
3 612 43 613
3 615 614 43
3 616 16 617
3 619 618 16
3 208 209 1
3 210 209 208
3 210 45 209
3 100 210 44
3 211 210 100
3 211 45 210
3 211 131 45
3 620 131 621
3 622 621 211
3 620 621 622
3 623 5 624
3 625 624 131
3 623 624 625
3 167 101 4
3 212 101 167
3 212 626 628
3 628 627 101
3 626 627 628
3 103 212 18
3 213 212 103
3 213 629 631
3 631 630 212
3 629 630 631
3 213 632 633
3 214 634 636
3 636 635 213
3 634 635 636
3 214 637 639
3 637 5 638
3 637 638 639
3 214 640 642
3 642 641 5
3 640 641 642
3 215 643 645
3 645 644 214
3 643 644 645
3 215 646 648
3 646 29 647
3 646 647 648
3 105 215 46
3 216 215 105
3 216 29 215
3 216 86 29
3 217 86 216
3 217 2 86
3 649 6 650
3 108 651 652
3 218 653 655
3 655 654 108
3 653 654 655
3 218 656 657
3 218 658 659
3 219 660 662
3 662 661 218
3 660 661 662
3 219 663 665
3 663 6 664
3 663 664 665
3 219 189 6
3 220 189 219
3 220 31 189
3 110 220 47
3 221 220 110
3 221 31 220
3 221 88 31
3 208 88 221
3 208 1 88
3 667 666 7
3 669 668 20
3 670 35 671
3 113 672 673
3 222 674 676
3 676 675 113
3 674 675 676
3 222 677 679
3 677 35 678
3 677 678 679
3 222 680 682
3 682 681 35
3 680 681 682
3 684 683 222
3 223 224 3
3 225 224 223
3 225 50 224
3 116 225 49
3 226 225 116
3 226 50 225
3 226 157 50
3 227 157 226
3 227 685 687
3 687 686 157
3 685 686 687
3 175 117 9
3 228 117 175
3 228 51 117
3 119 228 23
3 229 228 119
3 229 51 228
3 229 227 51
3 230 227 229
3 230 688 690
3 690 689 227
3 688 689 690
3 230 691 692
3 694 693 230
3 121 695 697
3 697 696 52
3 695 696 697
3 699 698 121
3 701 700 10
3 703 702 25
3 231 704 706
3 706 705 0
3 704 705 706
3 232 707 709
3 709 708 231
3 707 708 709
3 232 710 712
3 710 54 711
3 710 711 712
3 124 232 53
3 233 232 124
3 233 54 232
3 233 713 715
3 715 714 54
3 713 714 715
3 234 716 718
3 718 717 233
3 716 717 718
3 234 719 721
3 719 12 720
3 719 720 721
3 182 125 11
3 235 125 182
3 235 55 125
3 127 235 27
3 236 235 127
3 236 55 235
3 236 234 55
3 237 234 236
3 237 12 234
3 237 197 12
3 238 197 237
3 238 36 197
3 129 238 56
3 239 238 129
3 239 36 238
3 239 92 36
3 722 92 723
3 724 723 239
3 722 723 724
3 726 725 92
3 209 85 1
3 240 85 209
3 240 28 85
3 132 240 45
3 241 240 132
3 241 28 240
3 241 185 28
3 242 185 241
3 242 13 185
3 727 133 728
3 729 728 5
3 727 728 729
3 730 133 731
3 732 58 733
3 734 733 133
3 732 733 734
3 134 735 736
3 243 737 739
3 739 738 134
3 737 738 739
3 243 740 742
3 740 58 741
3 740 741 742
3 243 242 58
3 244 242 243
3 244 13 242
3 244 130 13
3 245 130 244
3 245 57 130
3 743 245 744
3 745 744 59
3 743 744 745
3 746 245 747
3 748 57 749
3 750 749 245
3 748 749 750
3 752 751 57
3 246 753 754
3 246 755 757
3 755 60 756
3 755 756 757
3 136 246 30
3 247 246 136
3 247 60 246
3 247 758 760
3 760 759 60
3 758 759 760
3 248 761 763
3 763 762 247
3 761 762 763
3 248 764 765
3 248 766 768
3 766 202 767
3 766 767 768
3 249 202 248
3 249 40 202
3 138 249 61
3 250 249 138
3 250 40 249
3 250 96 40
3 251 96 250
3 251 3 96
3 769 188 770
3 252 771 773
3 771 188 772
3 771 772 773
3 252 14 188
3 190 140 6
3 253 140 190
3 253 63 140
3 142 253 32
3 254 253 142
3 254 63 253
3 254 252 63
3 255 252 254
3 255 14 252
3 255 139 14
3 256 139 255
3 256 62 139
3 144 256 64
3 257 256 144
3 257 62 256
3 257 251 62
3 258 251 257
3 258 3 251
3 258 223 3
3 259 223 258
3 259 49 223
3 146 259 65
3 260 259 146
3 260 49 259
3 260 115 49
3 261 115 260
3 261 9 115
3 194 147 15
3 262 147 194
3 262 66 147
3 149 262 34
3 263 262 149
3 263 66 262
3 263 261 66
3 264 261 263
3 264 9 261
3 264 174 9
3 265 174 264
3 265 22 174
3 151 265 67
3 266 265 151
3 266 22 265
3 266 79 22
3 231 79 266
3 231 0 79
3 774 106 775
3 776 106 777
3 779 778 106
3 780 217 781
3 782 217 783
3 784 2 785
3 786 785 217
3 784 785 786
3 787 2 788
3 789 87 790
3 791 790 2
3 789 790 791
3 792 87 793
3 795 794 87
3 796 78 797
3 798 797 0
3 796 797 798
3 799 78 800
3 801 21 802
3 803 802 78
3 801 802 803
3 152 804 806
3 806 805 54
3 804 805 806
3 267 807 809
3 809 808 152
3 807 808 809
3 267 810 812
3 810 21 811
3 810 811 812
3 267 173 21
3 268 173 267
3 268 8 173
3 198 153 12
3 813 153 814
3 815 814 198
3 813 814 815
3 817 816 153
3 154 818 820
3 820 819 37
3 818 819 820
3 269 821 823
3 823 822 154
3 821 822 823
3 269 824 825
3 269 826 828
3 826 268 827
3 826 827 828
3 270 268 269
3 270 8 268
3 270 114 8
3 271 114 270
3 271 48 114
3 156 271 68
3 272 271 156
3 272 48 271
3 272 829 831
3 831 830 48
3 829 830 831
3 273 832 834
3 834 833 272
3 832 833 834
3 273 835 836
3 837 94 838
3 274 839 841
3 839 94 840
3 839 840 841
3 274 38 94
3 842 274 843
3 844 274 845
3 846 38 847
3 848 847 274
3 846 847 848
3 849 201 850
3 851 850 38
3 849 850 851
3 275 852 854
3 852 201 853
3 852 853 854
3 275 855 857
3 857 856 201
3 855 856 857
3 858 275 859
3 860 275 861
3 863 862 275
3 864 69 865
3 276 866 867
3 276 868 870
3 868 69 869
3 868 869 870
3 276 273 69
3 871 273 872
3 873 872 276
3 871 872 873
3 875 874 273
3 877 876 70
3 203 878 879
3 881 880 203
3 883 882 41
3 224 98 3
3 277 98 224
3 277 42 98
3 158 277 50
3 278 277 158
3 278 42 277
3 278 206 42
3 884 206 885
3 886 885 278
3 884 885 886
3 888 887 206
3 207 889 891
3 889 159 890
3 889 890 891
3 279 159 207
3 279 71 159
3 160 279 43
3 280 279 160
3 280 71 279
3 280 892 894
3 894 893 71
3 892 893 894
3 896 895 280
3 162 897 899
3 899 898 72
3 897 898 899
3 901 900 162
3 281 902 903
3 281 904 905
3 281 906 908
3 906 95 907
3 906 907 908
3 282 95 281
3 282 39 95
3 164 282 73
3 283 282 164
3 283 39 282
3 283 909 911
3 911 910 39
3 909 910 911
3 284 912 914
3 914 913 283
3 912 913 914
3 284 915 916
3 917 165 918
3 919 918 16
3 917 918 919
3 920 165 921
3 922 74 923
3 924 923 165
3 922 923 924
3 285 925 926
3 285 927 929
3 927 74 928
3 927 928 929
3 285 284 74
3 930 284 931
3 932 931 285
3 930 931 932
3 934 933 284
