ply
format ascii 1.0
element vertex 592
property float x
property float y
property float z
element face 602
property list uchar int vertex_index
end_header
-0.828814 51.55595 58.805096
-1.479315 80.363708 -3.589859
-0.67337 73.865356 28.704189
-0.989561 69.514893 3.449585
-0.107111 64.158707 44.861046
-0.841522 59.09737 34.456722
-0.05378 48.812092 49.262585
-3.800489 88.028885 5.336046
-1.501078 79.342194 12.131775
-0.780308 52.059643 25.521458
-0.914957 74.550476 -7.464031
-0.558563 69.393494 -3.742357
-1.337069 75.130692 -0.104776
-0.293903 58.124332 52.176723
0.154806 56.73666 47.317196
0.174728 50.795872 54.427067
0.120089 43.052589 56.087883
-0.067562 44.443829 60.991795
-0.992111 79.376511 -11.099203
-0.209791 73.008392 -14.596758
-3.520363 86.703308 13.429592
-1.137438 77.178238 20.355938
-1.40007 73.164505 15.420255
-1.078142 70.518936 23.540787
-1.142218 51.175541 36.977783
-1.321043 55.638798 29.641382
-1.199747 47.994343 32.503166
-0.271091 69.474213 36.961067
-0.601698 66.801682 31.706646
-0.133617 62.141613 39.700516
-0.396723 54.21735 42.039337
-0.839918 46.178028 44.034668
-2.236181 85.108047 0.759307
-1.643713 80.376404 4.146482
-2.148113 84.498596 8.755438
-1.821495 82.747696 16.983685
-1.402348 79.798935 25.376778
-1.07128 75.685623 33.747368
-1.015438 70.526993 41.805161
-1.379 64.50708 49.251606
-3.876692 88.182159 -2.500904
-1.491112 74.692093 7.514207
-0.831696 62.048771 14.602974
-1.234608 63.22488 26.629101
-1.235807 59.328579 22.129601
-1.214041 77.547653 -5.60041
-1.40435 77.819473 -1.849602
-0.522032 54.898457 55.577621
0.013277 54.544575 53.381039
-0.14472 51.36211 56.760437
0.083525 47.668758 57.778152
-0.372078 48.073589 59.985092
-1.65386 82.680588 -5.315683
-1.271955 79.990219 -7.374287
-0.943398 77.036758 -9.297697
-0.908812 75.663101 24.526058
-1.056816 73.953918 21.96604
-0.824482 72.334061 26.104898
-1.257505 47.23341 38.145744
-1.302853 49.592693 34.653896
-1.292267 45.723866 35.909454
-1.038538 44.19519 33.852306
-0.786314 69.590775 -0.184869
-0.149817 66.76767 -1.827171
-0.149803 66.919693 40.971992
-0.137121 65.915192 38.385651
0.013361 63.322193 42.332413
0.098154 52.803707 48.347733
-0.04031 55.578014 44.685501
-0.206072 51.566982 45.69976
-0.609404 50.187504 43.077534
-0.429873 47.542667 46.617935
-0.682035 43.55048 47.446785
-0.274372 44.817616 50.071697
-2.889051 86.840714 3.034921
-2.228355 84.939957 4.727664
-3.32732 85.573364 17.557161
-2.525177 84.960098 15.220697
-2.326317 83.728989 19.386845
-1.612625 81.423187 21.16832
-2.123995 82.190598 23.583202
-1.806864 78.222549 31.954899
-1.74136 75.820847 36.055336
-0.998003 73.226669 37.835369
-1.768984 73.166214 40.042324
-1.731291 61.239727 52.682476
-3.86339 88.245239 1.382722
-2.889154 86.89798 -0.906799
-0.998306 41.182541 65.972595
-1.606262 79.996155 8.106567
-1.547205 77.616638 5.830711
-1.510895 77.120865 9.771898
-1.413668 69.83873 17.066298
-1.449034 70.884583 13.109842
-1.389404 67.603668 14.819228
-1.110214 65.32048 12.752983
-0.700806 63.000851 33.110077
-0.940485 65.082474 29.115574
-1.056078 61.268665 30.563475
-1.208155 53.863049 27.485775
-1.318268 57.593975 25.898251
-0.521723 71.430054 -9.156481
-1.211548 72.353134 1.654352
-0.154129 61.218296 48.601871
0.093485 60.545231 46.159126
0.094063 57.611439 49.845924
0.199713 53.822437 50.93951
0.179657 49.921192 51.895493
0.054972 45.971241 52.725636
0.203566 46.945423 55.326229
0.173243 43.881165 58.638206
-0.602009 76.287918 -12.935596
-0.595274 73.898102 -11.061159
-1.340216 78.404663 16.218489
-1.411726 76.348602 13.781294
-1.257137 75.293442 17.851032
-1.265488 71.980515 19.462503
-1.31312 68.516861 21.068069
-0.996347 55.141407 35.746914
-1.168486 57.391674 31.973608
-1.256418 53.489468 33.339748
-1.291349 51.813213 31.096909
-1.031555 50.117016 29.03673
-0.453808 48.37788 27.168121
-0.787977 46.366817 30.537983
-0.477789 42.618145 31.981834
-0.103258 38.870178 33.366058
0.101416 66.41539 -5.270773
-0.453016 71.796707 32.860344
-0.578642 70.443451 30.241203
-0.34164 68.297119 34.345184
-0.35478 64.578369 35.738972
-0.455973 60.70483 37.051048
0.041145 59.51836 43.566498
-0.229372 58.220997 40.915676
-0.614372 56.737247 38.287701
-0.803341 52.729877 39.451927
-0.99765 48.728268 40.544643
-1.171267 44.767246 41.566345
-1.791332 82.916245 -1.45974
-1.603445 80.495071 0.249343
-1.84757 82.90239 2.453078
-1.823076 82.629013 6.424652
-1.726423 82.083374 10.457525
-2.697554 85.884018 11.101549
-2.00679 83.77121 12.842293
-1.571327 81.253555 14.550777
-1.374521 80.131302 18.697365
-1.154716 78.713882 22.882799
-0.932415 77.004517 27.084888
-1.942581 80.351212 27.783993
-1.21393 77.882187 29.581383
-0.729855 75.012299 31.27446
-0.570412 72.751709 35.416946
-0.476921 70.242126 39.474991
-0.469023 67.507111 43.411903
-1.908613 70.282166 43.875423
-1.139751 67.611572 45.62011
-0.560198 64.572937 47.195721
-0.755552 61.466328 50.802895
-1.051283 58.211765 54.22081
-1.436169 54.829037 57.447845
-2.169081 85.014999 -3.149744
-1.202036 48.105274 61.864582
-0.659592 44.681236 63.056606
-1.513857 77.845779 1.958474
-1.445475 75.043488 3.668741
-1.341478 72.138992 5.396502
-1.475834 74.067749 11.433212
-1.422647 71.651031 9.216227
-0.850554 68.788116 27.631165
-1.151218 66.927124 25.092869
-1.297894 59.451359 28.148096
-1.36479 61.2943 24.2904
-1.355967 62.89822 20.423088
-1.070753 60.819843 18.357029
-1.306439 44.531195 37.579052
-1.274886 46.478638 37.027599
-1.289058 45.285967 38.697197
-1.251209 43.810107 36.506332
-1.306439 44.531195 37.579052
-0.696227 68.176628 2.573246
-0.594603 68.214569 0.75602
-0.887938 69.552834 1.632358
-0.823109 68.0681 4.37701
-0.696227 68.176628 2.573246
-3.312009 87.268006 6.187216
-2.856291 86.67392 5.036653
-3.34477 87.434799 4.185484
-2.72645 83.928574 20.554057
-2.826818 84.651176 18.472003
-3.226952 84.850762 19.639215
-2.625289 83.159379 22.652235
-2.225156 82.959793 21.485024
-2.72645 83.928574 20.554057
-2.244614 75.604004 37.095816
-2.235077 76.903069 35.102074
-2.258426 74.276688 39.089309
-1.755172 74.49353 38.04883
-2.244614 75.604004 37.095816
-3.831939 88.137062 3.359384
-4.48651 88.620323 2.537153
-4.45506 88.512146 4.513815
-1.399367 67.00576 16.775983
-1.401536 68.721199 15.942763
-1.411499 68.123291 17.899518
-1.328881 65.924324 15.694468
-1.399367 67.00576 16.775983
-0.911695 53.88601 24.678618
-1.125619 54.787712 25.660777
-0.994232 52.961346 26.503616
-0.612997 52.925945 23.746865
-0.911695 53.88601 24.678618
-0.408975 51.127991 24.63784
-0.612997 52.925945 23.746865
-0.860854 73.270203 -6.539199
-0.664237 71.709992 -7.385424
-0.71834 72.990265 -8.310256
-1.185785 73.71563 -1.059081
-1.249426 75.04705 -1.958919
-1.274309 73.741913 0.774788
-1.123024 72.326851 -0.179517
-1.185785 73.71563 -1.059081
0.013264 42.583691 61.40881
0.133666 42.302359 60.232016
0.052841 44.162497 59.815
-1.091185 80.423363 -11.963449
-1.218889 80.788124 -10.10485
-0.827668 78.946884 -12.922392
-1.091185 80.423363 -11.963449
-0.79706 77.832214 -12.017399
-0.632617 77.402588 -13.840588
-0.827668 78.946884 -12.922392
-0.639785 41.519506 33.561565
-0.758163 43.406667 32.91707
-0.92016 42.308029 34.496801
-0.452519 39.645523 34.253677
-0.290523 40.744162 32.673946
-0.639785 41.519506 33.561565
-0.295601 37.768803 34.868671
-0.452519 39.645523 34.253677
-0.228574 67.904442 -4.506565
-0.09977 67.673523 -6.250523
-0.42976 69.162575 -5.486315
0.264941 65.316358 -2.541523
0.129436 65.431466 -0.836014
-0.949167 44.200414 44.474486
-1.114842 43.495024 43.240324
-1.005593 45.472637 42.800506
-0.805871 41.585943 47.819124
-0.606987 42.206499 49.114628
-0.013429 42.538656 54.763508
-0.045988 43.997982 53.082385
0.08753 44.511915 54.406759
0.005806 72.443314 -16.321133
-0.210952 74.152191 -15.544435
-3.108958 86.293663 12.26557
-3.190581 86.701592 10.227397
-3.601986 87.111237 11.391419
-2.372224 80.335824 28.919186
-2.442746 81.362267 26.841061
-2.524985 69.887841 44.749201
-2.394452 71.415215 42.924291
-1.259375 66.059326 47.435858
-1.655806 67.403137 46.570944
-1.77543 65.850891 48.386692
-1.618187 58.022251 55.064492
-1.391287 59.725746 53.451643
-1.958191 59.536232 54.295324
-1.81063 56.330887 56.678009
-1.243726 56.520401 55.834328
-1.618187 58.022251 55.064492
-4.562011 88.537467 -3.235035
-4.533912 88.632827 -1.340728
-3.867539 88.016388 -4.402063
-4.562011 88.537467 -3.235035
-3.353772 87.436111 -3.641409
-3.867539 88.016388 -4.402063
-1.415687 46.327402 63.313082
-1.805701 47.917278 62.612591
-1.144464 44.615383 63.909094
-0.930814 46.393255 62.460594
-1.415687 46.327402 63.313082
-0.634867 41.149512 65.01783
-0.759869 39.43063 66.476013
-1.363169 70.086761 10.087019
-1.43584 71.267807 11.163035
-1.376362 69.703537 12.033826
-1.294086 70.405403 8.190456
-1.363169 70.086761 10.087019
-0.684865 62.524441 12.745997
-0.824124 64.160296 11.821002
-0.970955 63.684626 13.677979
-0.461053 60.927658 13.724618
-0.684865 62.524441 12.745997
-1.29566 64.084364 24.653202
-1.253965 65.935486 23.885086
-1.192913 65.076002 25.860985
-0.018438 47.463585 26.330192
-0.262172 46.524887 27.965369
-1.187912 76.255531 -4.706735
-1.03837 74.756943 -5.638546
-1.064499 76.049065 -6.532221
-1.283066 76.391441 -2.831332
-1.187912 76.255531 -4.706735
-1.309195 77.683563 -3.725006
-1.37071 76.475082 -0.977189
-1.249426 75.04705 -1.958919
-1.283066 76.391441 -2.831332
-1.549764 82.440163 -7.21309
-1.845039 83.674499 -6.155419
-1.358811 81.094978 -8.242392
-1.549764 82.440163 -7.21309
-1.462908 81.335403 -6.344985
-1.132033 79.683365 -9.236745
-1.218889 80.788124 -10.10485
-1.358811 81.094978 -8.242392
-1.124344 43.045768 35.477758
-1.165402 44.959528 34.88088
-1.251209 43.810107 36.506332
-0.92016 42.308029 34.496801
-1.124344 43.045768 35.477758
-0.276355 66.803017 -0.065132
-0.468065 68.179222 -1.00602
-0.594603 68.214569 0.75602
0.129436 65.431466 -0.836014
-0.276355 66.803017 -0.065132
-0.403155 42.840067 50.427084
-0.606987 42.206499 49.114628
-0.478204 44.184048 48.759241
0.036476 41.108425 56.402991
0.132487 41.552768 57.716379
0.010467 71.299179 -15.328768
-0.192268 71.818458 -13.619376
-2.525943 85.723542 5.883025
-2.558703 85.890336 3.881292
-2.856291 86.67392 5.036653
-2.485822 85.502861 7.896912
-2.188234 84.719277 6.741551
-2.525943 85.723542 5.883025
-2.267829 78.10392 33.051855
-2.304366 79.271492 31.004639
-1.774112 77.021698 34.005117
-2.267829 78.10392 33.051855
-2.235077 76.903069 35.102074
-1.96958 64.218931 50.105923
-1.77543 65.850891 48.386692
-2.145726 62.585255 51.821358
-1.555146 62.873404 50.967041
-1.96958 64.218931 50.105923
-2.397467 60.877952 53.432934
-2.145726 62.585255 51.821358
-1.958191 59.536232 54.295324
-2.397467 60.877952 53.432934
-4.527261 88.664367 0.601085
-4.48651 88.620323 2.537153
-3.870041 88.213699 -0.559091
-4.533912 88.632827 -1.340728
-4.527261 88.664367 0.601085
-1.548831 41.036066 66.734962
-1.313821 42.866035 65.367088
-1.189164 39.378504 67.348183
-1.548831 41.036066 66.734962
-1.739689 39.232029 68.11055
-0.759869 39.43063 66.476013
-1.189164 39.378504 67.348183
-1.346547 68.06308 12.88852
-1.376362 69.703537 12.033826
-1.419219 69.244125 13.964535
-1.249809 66.462074 13.786106
-1.206952 66.921486 11.855397
-1.346547 68.06308 12.88852
-1.189286 64.78273 14.661345
-1.249809 66.462074 13.786106
-1.328881 65.924324 15.694468
-1.050027 63.146876 15.586341
-0.970955 63.684626 13.677979
-1.189286 64.78273 14.661345
-1.180675 56.653176 24.867015
-1.263212 55.728512 26.692013
-1.125619 54.787712 25.660777
-1.139445 57.520477 22.98269
-1.277038 58.461277 24.013926
-1.180675 56.653176 24.867015
-1.014972 58.331478 21.14751
-1.139445 57.520477 22.98269
-0.41134 70.180855 -8.193378
-0.262459 69.822838 -9.905931
-0.41134 70.180855 -8.193378
-0.664237 71.709992 -7.385424
-0.682657 70.691711 -4.678362
-0.42976 69.162575 -5.486315
-0.860854 73.270203 -6.539199
-1.03837 74.756943 -5.638546
-0.796531 70.847031 -2.877872
-0.682657 70.691711 -4.678362
-0.910407 70.945672 -1.099128
-0.672438 69.492134 -1.963613
-0.796531 70.847031 -2.877872
-0.998931 70.971954 0.734742
-0.910407 70.945672 -1.099128
-1.123024 72.326851 -0.179517
0.159064 41.967056 58.99154
0.132487 41.552768 57.716379
0.146666 43.466877 57.363045
0.159064 41.967056 58.99154
0.133666 42.302359 60.232016
-0.40706 75.791954 -14.713854
-0.632617 77.402588 -13.840588
-0.4059 74.648155 -13.766177
-0.210952 74.152191 -15.544435
-0.40706 75.791954 -14.713854
-0.385009 72.263313 -11.851577
-0.192268 71.818458 -13.619376
-0.402532 73.453247 -12.828958
-0.348234 71.02929 -10.899237
-0.385009 72.263313 -11.851577
-0.558499 72.664078 -10.10882
-0.262459 69.822838 -9.905931
-0.348234 71.02929 -10.899237
-3.742049 87.774025 7.344645
-4.39416 88.320701 6.486129
-4.172338 87.311432 12.537757
-3.601986 87.111237 11.391419
-4.07489 86.804657 14.57101
-4.172338 87.311432 12.537757
-3.978368 86.239685 16.634794
-3.423841 86.138336 15.493377
-4.07489 86.804657 14.57101
-3.874637 85.571106 18.689739
-3.978368 86.239685 16.634794
-3.226952 84.850762 19.639215
-3.874637 85.571106 18.689739
-4.39416 88.320701 6.486129
-4.45506 88.512146 4.513815
-1.361225 67.462356 19.900403
-1.411499 68.123291 17.899518
-1.363394 69.177796 19.067183
-0.429257 45.519356 29.6503
-0.262172 46.524887 27.965369
-0.620893 47.372349 28.853052
-0.274163 43.64502 30.372225
-0.429257 45.519356 29.6503
-0.632883 44.492481 31.259909
-0.057596 41.78043 31.140041
-0.274163 43.64502 30.372225
0.12967 39.906447 31.832153
-0.057596 41.78043 31.140041
-0.290523 40.744162 32.673946
0.366969 38.028219 32.569792
0.12967 39.906447 31.832153
0.112806 36.99237 34.029089
0.366969 38.028219 32.569792
0.112806 36.99237 34.029089
-0.295601 37.768803 34.868671
0.230719 66.103546 -6.955308
-0.09977 67.673523 -6.250523
0.511943 64.880522 -5.925935
0.230719 66.103546 -6.955308
0.390558 65.140219 -4.263324
-0.0242 66.59153 -3.548972
0.264941 65.316358 -2.541523
0.511943 64.880522 -5.925935
0.390558 65.140219 -4.263324
-1.245939 44.052885 40.407497
-1.289058 45.285967 38.697197
-1.214386 46.000328 39.856044
-1.234385 42.818254 42.042347
-1.245939 44.052885 40.407497
-1.234385 42.818254 42.042347
-1.114842 43.495024 43.240324
-0.870225 42.88664 46.180544
-0.949167 44.200414 44.474486
-0.760976 44.864254 45.740727
-0.870225 42.88664 46.180544
-0.805871 41.585943 47.819124
-0.21066 43.42117 51.755415
-0.1097 45.394429 51.398667
-0.045988 43.997982 53.082385
-0.403155 42.840067 50.427084
-0.21066 43.42117 51.755415
-0.013429 42.538656 54.763508
0.036476 41.108425 56.402991
0.005806 72.443314 -16.321133
0.010467 71.299179 -15.328768
-3.312009 87.268006 6.187216
-3.742049 87.774025 7.344645
-2.760542 86.195572 9.069968
-3.190581 86.701592 10.227397
-2.422833 85.191307 9.928494
-2.485822 85.502861 7.896912
-2.760542 86.195572 9.069968
-2.533453 82.28196 24.740665
-2.625289 83.159379 22.652235
-2.033288 81.270905 25.683597
-2.533453 82.28196 24.740665
-2.442746 81.362267 26.841061
-1.874722 79.28688 29.869446
-2.372224 80.335824 28.919186
-2.304366 79.271492 31.004639
-2.324638 72.857239 41.007742
-2.258426 74.276688 39.089309
-1.838798 71.72419 41.958873
-2.324638 72.857239 41.007742
-2.394452 71.415215 42.924291
-2.040236 68.738434 45.6986
-2.524985 69.887841 44.749201
-1.524182 68.946869 44.747766
-2.040236 68.738434 45.6986
-1.655806 67.403137 46.570944
-2.860003 86.794021 -2.844357
-3.353772 87.436111 -3.641409
-3.382923 87.54007 -1.703851
-2.499967 85.852531 -3.965829
-2.860003 86.794021 -2.844357
-2.529117 85.95649 -2.028272
-2.102649 84.841705 -5.072449
-2.499967 85.852531 -3.965829
-1.911471 83.847793 -4.232714
-1.845039 83.674499 -6.155419
-2.102649 84.841705 -5.072449
-2.07896 54.566872 58.191566
-1.81063 56.330887 56.678009
-1.665342 53.080548 58.969352
-2.07896 54.566872 58.191566
-1.361665 51.444004 59.647978
-1.132491 53.192493 58.12647
-1.665342 53.080548 58.969352
-1.548276 49.718666 61.177721
-1.805701 47.917278 62.612591
-1.015425 49.830612 60.334839
-1.361665 51.444004 59.647978
-1.548276 49.718666 61.177721
-0.828949 42.931888 64.514601
-1.144464 44.615383 63.909094
-1.313821 42.866035 65.367088
-0.465509 42.898859 63.559835
-0.828949 42.931888 64.514601
-0.634867 41.149512 65.01783
-0.169494 42.780155 62.52743
-0.363577 44.562533 62.024201
-0.465509 42.898859 63.559835
0.013264 42.583691 61.40881
-0.169494 42.780155 62.52743
-1.253502 70.649383 6.280593
-1.382062 71.895012 7.306364
-1.294086 70.405403 8.190456
-1.077543 69.337334 5.307135
-1.16552 70.826943 4.423044
-1.253502 70.649383 6.280593
-0.823109 68.0681 4.37701
-1.077543 69.337334 5.307135
-1.004625 65.717552 10.872904
-1.206952 66.921486 11.855397
-1.004625 65.717552 10.872904
-0.824124 64.160296 11.821002
-1.334916 66.730355 21.872686
-1.232169 67.721992 23.080469
-1.253965 65.935486 23.885086
-1.361225 67.462356 19.900403
-1.334916 66.730355 21.872686
-1.360751 63.119074 23.483852
-1.29566 64.084364 24.653202
-1.299699 62.25959 25.45975
-1.356339 63.921034 21.550196
-1.360751 63.119074 23.483852
-1.360378 62.09626 22.356744
-1.382648 64.653036 19.577913
-1.356339 63.921034 21.550196
-1.312162 63.5716 18.496398
-1.382648 64.653036 19.577913
-1.169555 62.532411 17.463369
-1.312162 63.5716 18.496398
-1.21336 61.859032 19.390059
-0.951225 61.434307 16.480002
-1.050027 63.146876 15.586341
-1.169555 62.532411 17.463369
-0.932445 59.07711 19.261224
-1.15328 60.074211 20.243315
-1.014972 58.331478 21.14751
-0.770376 59.762771 17.426108
-0.932445 59.07711 19.261224
-0.650848 60.377235 15.549081
-0.951225 61.434307 16.480002
-0.770376 59.762771 17.426108
-0.461053 60.927658 13.724618
-0.650848 60.377235 15.549081
-0.245725 49.287109 25.461172
-0.408975 51.127991 24.63784
-0.617058 50.218761 26.344789
-0.245725 49.287109 25.461172
-0.018438 47.463585 26.330192
3 1 46 45
3 0 49 47
3 0 51 49
3 1 53 52
3 1 45 53
3 2 57 55
3 176 60 177
3 178 177 58
3 176 177 178
3 180 179 60
3 3 181 183
3 183 182 62
3 181 182 183
3 3 184 185
3 4 66 64
3 6 69 67
3 6 71 69
3 6 73 71
3 7 186 188
3 188 187 74
3 186 187 188
3 189 78 190
3 191 190 76
3 189 190 191
3 192 80 193
3 194 193 78
3 192 193 194
3 195 82 196
3 197 84 198
3 199 198 82
3 197 198 199
3 7 200 202
3 200 86 201
3 200 201 202
3 7 74 86
3 8 91 89
3 203 94 204
3 205 204 92
3 203 204 205
3 207 206 94
3 5 98 96
3 9 208 210
3 210 209 99
3 208 209 210
3 9 211 212
3 9 213 214
3 10 215 217
3 217 216 101
3 215 216 217
3 12 218 219
3 12 220 222
3 220 102 221
3 220 221 222
3 13 105 103
3 15 106 48
3 15 107 106
3 15 109 107
3 17 110 50
3 17 223 225
3 225 224 110
3 223 224 225
3 18 226 227
3 18 228 229
3 18 230 232
3 230 111 231
3 230 231 232
3 10 112 54
3 10 101 112
3 21 115 113
3 23 116 56
3 23 117 116
3 24 120 118
3 26 121 59
3 26 122 121
3 26 124 122
3 233 125 234
3 235 234 61
3 233 234 235
3 236 126 237
3 238 237 125
3 236 237 238
3 240 239 126
3 11 241 243
3 241 127 242
3 241 242 243
3 245 244 63
3 27 130 128
3 29 131 65
3 29 132 131
3 14 133 104
3 30 134 68
3 30 135 134
3 30 136 135
3 31 137 70
3 31 138 137
3 31 246 248
3 248 247 138
3 246 247 248
3 250 249 72
3 16 251 253
3 253 252 108
3 251 252 253
3 19 254 255
3 32 141 139
3 34 142 75
3 34 143 142
3 20 256 258
3 256 144 257
3 256 257 258
3 35 145 77
3 35 146 145
3 35 147 146
3 36 148 79
3 36 149 148
3 259 150 260
3 37 151 81
3 37 152 151
3 37 153 152
3 38 154 83
3 38 155 154
3 261 156 262
3 39 263 265
3 263 157 264
3 263 264 265
3 39 158 157
3 39 159 158
3 266 160 267
3 268 267 85
3 266 267 268
3 269 161 270
3 271 270 160
3 269 270 271
3 40 272 273
3 40 274 275
3 40 276 277
3 32 162 87
3 32 139 162
3 278 163 279
3 280 164 281
3 282 281 163
3 280 281 282
3 284 283 88
3 33 165 140
3 41 166 90
3 41 167 166
3 22 168 114
3 285 169 286
3 287 286 93
3 285 286 287
3 289 288 169
3 42 290 292
3 292 291 95
3 290 291 292
3 42 293 294
3 28 170 129
3 43 171 97
3 43 295 297
3 297 296 171
3 295 296 297
3 25 172 119
3 44 173 100
3 44 174 173
3 44 175 174
3 299 298 123
3 45 300 302
3 302 301 10
3 300 301 302
3 46 303 305
3 305 304 45
3 303 304 305
3 46 306 308
3 306 12 307
3 306 307 308
3 47 48 13
3 49 48 47
3 49 15 48
3 49 50 15
3 51 50 49
3 51 17 50
3 52 309 310
3 53 311 313
3 313 312 52
3 311 312 313
3 53 314 316
3 314 18 315
3 314 315 316
3 53 54 18
3 45 54 53
3 45 10 54
3 55 56 21
3 57 56 55
3 57 23 56
3 58 59 24
3 60 59 58
3 60 26 59
3 60 61 26
3 317 61 318
3 319 318 60
3 317 318 319
3 321 320 61
3 62 63 11
3 322 63 323
3 324 323 62
3 322 323 324
3 326 325 63
3 64 65 27
3 66 65 64
3 66 29 65
3 67 68 14
3 69 68 67
3 69 30 68
3 69 70 30
3 71 70 69
3 71 31 70
3 71 72 31
3 73 72 71
3 73 327 329
3 329 328 72
3 327 328 329
3 331 330 16
3 333 332 19
3 74 75 32
3 334 75 335
3 336 335 74
3 334 335 336
3 337 34 338
3 339 338 75
3 337 338 339
3 76 77 20
3 78 77 76
3 78 35 77
3 78 79 35
3 80 79 78
3 80 36 79
3 340 81 341
3 82 342 344
3 342 81 343
3 342 343 344
3 82 37 81
3 82 83 37
3 84 83 82
3 84 38 83
3 345 39 346
3 347 85 348
3 349 348 39
3 347 348 349
3 350 85 351
3 353 352 85
3 86 354 355
3 86 356 358
3 356 40 357
3 356 357 358
3 86 87 40
3 74 87 86
3 74 32 87
3 359 88 360
3 361 88 362
3 361 362 363
3 365 364 88
3 89 90 33
3 91 90 89
3 91 41 90
3 92 93 22
3 94 93 92
3 94 366 368
3 368 367 93
3 366 367 368
3 94 369 371
3 369 95 370
3 369 370 371
3 372 95 373
3 374 373 94
3 372 373 374
3 375 42 376
3 377 376 95
3 375 376 377
3 96 97 28
3 98 97 96
3 98 43 97
3 99 100 25
3 378 100 379
3 380 379 99
3 378 379 380
3 381 44 382
3 383 382 100
3 381 382 383
3 385 384 44
3 101 386 387
3 389 388 101
3 390 11 391
3 393 392 10
3 394 11 395
3 396 62 397
3 398 397 11
3 396 397 398
3 102 399 401
3 399 62 400
3 399 400 401
3 102 3 62
3 103 104 4
3 105 104 103
3 105 14 104
3 48 105 13
3 106 105 48
3 106 14 105
3 106 67 14
3 107 67 106
3 107 6 67
3 107 108 6
3 109 108 107
3 109 16 108
3 50 109 15
3 110 109 50
3 110 16 109
3 110 402 404
3 404 403 16
3 402 403 404
3 406 405 110
3 111 407 408
3 111 409 411
3 409 19 410
3 409 410 411
3 54 111 18
3 112 111 54
3 112 19 111
3 112 412 414
3 414 413 19
3 412 413 414
3 101 415 417
3 417 416 112
3 415 416 417
3 101 418 419
3 421 420 7
3 422 20 423
3 424 20 425
3 426 76 427
3 428 427 20
3 426 427 428
3 429 76 430
3 432 431 76
3 433 7 434
3 113 114 8
3 115 114 113
3 115 22 114
3 56 115 21
3 116 115 56
3 116 22 115
3 116 92 22
3 117 92 116
3 117 435 437
3 437 436 92
3 435 436 437
3 118 119 5
3 120 119 118
3 120 25 119
3 59 120 24
3 121 120 59
3 121 25 120
3 121 99 25
3 122 99 121
3 122 9 99
3 122 123 9
3 124 123 122
3 124 438 440
3 440 439 123
3 438 439 440
3 61 124 26
3 125 124 61
3 125 441 443
3 443 442 124
3 441 442 443
3 125 444 445
3 126 446 448
3 448 447 125
3 446 447 448
3 126 449 450
3 126 451 452
3 454 453 126
3 127 455 456
3 127 457 458
3 63 127 11
3 459 127 460
3 461 460 63
3 459 460 461
3 463 462 127
3 128 129 2
3 130 129 128
3 130 28 129
3 65 130 27
3 131 130 65
3 131 28 130
3 131 96 28
3 132 96 131
3 132 5 96
3 104 66 4
3 133 66 104
3 133 29 66
3 68 133 14
3 134 133 68
3 134 29 133
3 134 132 29
3 135 132 134
3 135 5 132
3 135 118 5
3 136 118 135
3 136 24 118
3 70 136 30
3 137 136 70
3 137 24 136
3 137 58 24
3 138 58 137
3 138 464 466
3 466 465 58
3 464 465 466
3 138 467 468
3 470 469 138
3 72 471 473
3 473 472 31
3 471 472 473
3 475 474 72
3 108 73 6
3 476 73 477
3 478 477 108
3 476 477 478
3 480 479 73
3 482 481 16
3 484 483 19
3 139 140 1
3 141 140 139
3 141 33 140
3 75 141 32
3 142 141 75
3 142 33 141
3 142 89 33
3 143 89 142
3 143 8 89
3 486 485 7
3 144 487 488
3 144 489 491
3 489 34 490
3 489 490 491
3 77 144 20
3 145 144 77
3 145 34 144
3 145 143 34
3 146 143 145
3 146 8 143
3 146 113 8
3 147 113 146
3 147 21 113
3 79 147 35
3 148 147 79
3 148 21 147
3 148 55 21
3 149 55 148
3 149 2 55
3 492 80 493
3 150 494 496
3 494 80 495
3 494 495 496
3 150 36 80
3 81 497 499
3 497 150 498
3 497 498 499
3 151 150 81
3 151 36 150
3 151 149 36
3 152 149 151
3 152 2 149
3 152 128 2
3 153 128 152
3 153 27 128
3 83 153 37
3 154 153 83
3 154 27 153
3 154 64 27
3 155 64 154
3 155 4 64
3 500 84 501
3 156 502 504
3 502 84 503
3 502 503 504
3 156 38 84
3 505 156 506
3 157 507 509
3 507 156 508
3 507 508 509
3 157 38 156
3 157 155 38
3 158 155 157
3 158 4 155
3 158 103 4
3 159 103 158
3 159 13 103
3 85 159 39
3 160 159 85
3 160 13 159
3 160 47 13
3 161 47 160
3 161 0 47
3 87 510 512
3 512 511 40
3 510 511 512
3 162 513 515
3 515 514 87
3 513 514 515
3 162 516 517
3 162 518 520
3 518 52 519
3 518 519 520
3 139 52 162
3 139 1 52
3 521 161 522
3 523 161 524
3 525 0 526
3 527 526 161
3 525 526 527
3 163 528 529
3 163 530 532
3 530 0 531
3 530 531 532
3 163 51 0
3 164 51 163
3 164 17 51
3 88 533 535
3 533 164 534
3 533 534 535
3 536 164 537
3 538 537 88
3 536 537 538
3 539 17 540
3 541 540 164
3 539 540 541
3 543 542 17
3 140 46 1
3 165 46 140
3 165 12 46
3 90 165 33
3 166 165 90
3 166 12 165
3 166 102 12
3 167 102 166
3 167 3 102
3 114 91 8
3 168 91 114
3 168 41 91
3 93 168 22
3 169 168 93
3 169 41 168
3 169 167 41
3 544 167 545
3 546 545 169
3 544 545 546
3 547 3 548
3 549 548 167
3 547 548 549
3 551 550 3
3 95 552 553
3 555 554 95
3 129 57 2
3 170 57 129
3 170 23 57
3 97 170 28
3 171 170 97
3 171 23 170
3 171 117 23
3 556 117 557
3 558 557 171
3 556 557 558
3 560 559 117
3 119 98 5
3 172 98 119
3 172 43 98
3 100 172 25
3 173 172 100
3 173 43 172
3 173 561 563
3 563 562 43
3 561 562 563
3 174 564 566
3 566 565 173
3 564 565 566
3 174 567 568
3 174 569 570
3 175 571 573
3 573 572 174
3 571 572 573
3 175 574 576
3 574 42 575
3 574 575 576
3 577 175 578
3 579 578 44
3 577 578 579
3 580 175 581
3 582 42 583
3 584 583 175
3 582 583 584
3 586 585 42
3 123 587 589
3 589 588 9
3 587 588 589
3 591 590 123
