ply
format ascii 1.0
element vertex 634
property float x
property float y
property float z
element face 629
property list uchar int vertex_index
end_header
-45.184036 -98.729141 11.842463
-37.25843 -101.365616 29.58073
-48.178932 -89.137756 11.331538
-37.957424 -93.676849 42.487
-41.905926 -101.659866 21.040045
-41.539722 -105.369675 1.383375
-47.615685 -95.320602 2.672273
-30.017879 -102.797394 24.016659
-34.128521 -108.646484 16.748699
-37.577251 -108.005997 9.18726
-31.391481 -114.756042 -1.4566
-43.687157 -101.979141 6.569473
-45.204372 -100.524811 2.368681
-46.518623 -97.151764 7.213075
-37.606953 -97.715546 36.450439
-34.612648 -98.629761 33.536285
-31.397564 -98.38327 30.432529
-33.853561 -102.490463 26.544121
-32.149452 -106.588074 20.298494
-36.25523 -104.9263 22.797335
-43.660095 -100.285309 16.486593
-40.240597 -104.782043 14.953961
-41.97155 -103.409164 10.78643
-39.496723 -106.665894 5.251007
-21.527126 -120.168442 7.32807
-25.855238 -119.505646 -2.421434
-45.867462 -95.605682 17.087057
-46.984528 -90.869705 16.664846
-47.616196 -86.164597 15.537721
-40.237991 -98.930817 32.045212
-39.769516 -102.254395 25.416622
-42.584373 -98.549118 27.245358
-44.436371 -97.229477 22.218061
-25.560204 -115.71434 11.184525
-27.883621 -97.889725 28.287685
-27.563839 -107.747177 18.92532
-29.291946 -111.054276 15.263133
-30.897758 -112.595612 11.599581
-38.396584 -105.54007 18.970121
-35.873718 -108.930817 13.063439
-32.476871 -112.481888 7.722781
-34.377052 -111.380615 3.755682
-44.535366 -100.335312 9.203323
-45.27766 -99.591248 6.994066
-45.879375 -97.952026 9.520179
-37.473003 -99.571671 33.059036
-36.131634 -98.353088 35.083794
-35.934193 -100.228149 31.583273
-34.319878 -100.549667 30.001638
-35.608749 -102.07634 28.071447
-35.074883 -103.942001 24.668268
-36.877052 -103.138229 26.128387
-44.443558 -99.507904 14.169056
-42.931744 -101.834396 13.622867
-43.747299 -101.080994 11.416284
-42.837425 -102.686417 8.678363
-24.306112 -118.514297 7.029908
-45.939575 -94.07486 19.671549
-46.533714 -93.238617 16.990099
-46.439247 -91.711929 19.425671
-46.993065 -87.000671 18.349941
-41.537983 -97.25116 32.826096
-41.465897 -98.90303 29.682407
-42.668053 -96.96489 30.296089
-44.541882 -95.70845 25.042904
-45.287769 -94.907791 22.362566
-45.19136 -96.427826 19.657553
-40.356083 -107.078018 -1.116724
-41.339542 -106.466522 -2.91692
-46.542336 -97.963455 2.610084
-45.823917 -99.688858 0.278242
-47.545555 -95.878128 -1.698229
-33.539322 -94.61972 38.818901
-30.828121 -100.527359 27.09527
-29.677097 -98.09816 29.171328
-28.946684 -100.429199 26.063141
-27.95899 -102.923569 23.287027
-26.695765 -105.570511 20.899437
-28.931341 -105.207809 21.282932
-33.168495 -107.852005 18.526405
-30.857635 -108.77919 17.629169
-31.769527 -109.921112 15.863333
-32.628647 -110.595963 14.073153
-40.891636 -102.101547 23.253872
-39.222717 -103.890991 22.141602
-40.259579 -103.688019 20.078257
-39.015316 -106.376053 12.025162
-38.152935 -106.910187 14.004572
-36.710651 -108.568237 11.143314
-34.247746 -110.68692 10.33458
-35.085224 -110.266937 8.394167
-33.365959 -112.003372 5.734012
-35.999966 -109.676666 6.435442
-40.526524 -106.006165 3.305403
-38.115551 -108.342178 2.571924
-39.254822 -107.697098 0.704986
-38.013878 -109.357346 -1.801178
-27.455753 -118.661591 -4.610195
-30.198734 -116.301178 -4.017075
-32.894299 -113.940903 -3.307486
-46.248547 -90.198303 21.828674
-43.665222 -94.858368 30.563005
-42.671326 -103.660828 3.956002
-44.487144 -101.271988 4.465744
-45.950821 -98.815765 4.795035
-47.094402 -96.288071 4.928721
-48.699631 -86.759003 10.81653
-37.745045 -95.759659 39.633163
-36.286861 -96.40538 38.437176
-34.813934 -96.68071 37.004272
-33.319748 -96.625854 35.445866
-31.786509 -96.328384 33.896431
-33.039711 -98.605087 31.937052
-32.620438 -100.611572 28.455582
-31.988752 -102.692947 25.14448
-31.091286 -104.881638 22.111246
-33.144577 -104.494278 23.282438
-34.271709 -105.860275 21.467161
-35.344215 -106.757324 19.657846
-42.821594 -101.025009 18.781101
-41.208359 -103.213745 17.965801
-42.090679 -102.566452 15.810397
-41.107559 -104.127029 12.882888
-39.89473 -105.717468 10.015421
-38.504368 -107.346069 7.21634
-40.807983 -105.018478 7.992207
-41.745289 -104.329315 5.969726
-23.078821 -121.70929 -2.626463
-45.62426 -97.154968 14.474139
-46.281319 -96.351471 12.033022
-46.49181 -94.782898 14.524769
-47.104401 -92.400742 14.339523
-47.553459 -90.020172 13.960375
-46.760231 -89.351212 18.966503
-47.311565 -88.509003 16.162409
-47.947044 -87.654007 13.440247
-48.388138 -85.312759 12.830118
-39.034538 -96.706787 37.536316
-38.937145 -98.552643 34.310501
-38.80442 -100.315948 30.940235
-38.549294 -102.030792 27.525642
-40.084549 -100.609604 28.740517
-41.274937 -100.512634 26.472202
-42.350601 -100.109131 24.145823
-43.672703 -96.42038 27.69384
-43.573944 -97.961319 24.752228
-43.306198 -99.492966 21.771116
-44.154846 -98.752838 19.358707
-44.919983 -97.959259 16.921373
-23.541862 -117.997025 9.2788
-26.297276 -116.395355 9.124833
-40.166275 -108.160492 -5.16375
-44.305344 -102.272339 -0.048926
-46.895004 -95.53241 9.612835
-47.466576 -94.663605 7.225092
-48.005749 -93.706955 4.877131
-30.19591 -95.913513 32.500893
-25.168327 -108.331818 18.897081
-25.94034 -110.37886 16.91802
-29.904264 -107.188843 19.416513
-28.436531 -109.601974 17.068075
-26.7258 -112.086197 15.022023
-27.503016 -113.381439 13.14455
-28.261562 -114.226059 11.235451
-29.013378 -114.623825 9.26825
-38.091026 -103.730988 24.156006
-37.367413 -105.445053 20.904303
-36.344872 -107.193253 17.82173
-39.346966 -105.286804 16.986155
-37.274197 -107.216705 15.93907
-35.024746 -108.987015 14.932673
-33.444168 -110.828918 12.231961
-31.671173 -112.712692 9.686646
-29.794958 -114.621719 7.243314
-30.658445 -114.301086 5.184504
-32.809406 -113.090881 1.130341
-37.014168 -109.012558 4.486639
-35.518021 -110.699707 1.823666
-24.688637 -120.937225 -5.036615
-24.727154 -118.569221 5.880416
-25.686149 -117.581108 7.016872
-46.157894 -92.134697 20.822529
-46.189411 -92.893394 19.54861
-45.908058 -93.316162 20.945468
-42.106928 -96.295257 33.038525
-41.555868 -96.392914 34.332313
-42.671963 -96.152122 31.773522
-42.103018 -97.108025 31.561093
-42.106928 -96.295257 33.038525
-45.582155 -93.732628 22.290976
-45.269458 -94.150856 23.692315
-45.908058 -93.316162 20.945468
-45.613672 -94.491326 21.017057
-45.582155 -93.732628 22.290976
-42.00687 -105.050011 0.43015
-41.41505 -105.904182 -0.8199
-40.947902 -106.223847 0.133325
-47.33913 -96.156662 1.557705
-46.802456 -97.478088 1.526611
-47.07901 -96.642028 2.641179
-47.864239 -94.771377 1.560581
-47.33913 -96.156662 1.557705
-48.229132 -89.883629 10.268196
-47.928932 -90.339592 11.53554
-37.356188 -92.913483 43.322395
-38.123436 -92.566132 43.696503
-32.926333 -93.446174 39.680042
-32.803673 -94.465225 38.071506
-30.795108 -115.52861 -2.736838
-29.414348 -116.729584 -3.019064
-30.010721 -115.957016 -1.738827
-49.462778 -85.107071 9.267765
-49.145403 -86.27774 9.556715
-49.017006 -85.588334 10.52758
-20.558549 -121.167023 6.292042
-19.168129 -121.859161 6.573457
-20.136706 -120.86058 7.609485
-46.618576 -88.596718 20.105591
-46.504389 -89.774757 20.397588
-46.362734 -89.020263 21.536677
-39.714371 -96.033241 37.9072
-39.105995 -95.728676 39.024704
-39.587568 -98.74173 33.177857
-39.624984 -97.871116 34.781588
-40.275408 -98.060204 33.648943
-44.09762 -95.301338 27.75239
-43.668962 -95.639374 29.128422
-44.093879 -94.520332 29.186972
-24.551033 -116.855683 10.231663
-23.181058 -117.52179 10.373147
-24.19023 -116.380448 11.32601
-39.677019 -108.44722 -4.3274
-39.136841 -109.202874 -5.401656
-41.747785 -106.14701 -3.824942
-42.311367 -105.255905 -2.673512
-44.754858 -101.398575 1.159878
-43.921755 -102.631103 0.951296
-44.371269 -101.75734 2.1601
-45.390905 -100.573654 -0.886108
-46.091219 -99.20562 -0.762044
-47.791134 -95.246689 -2.749258
-48.088005 -94.431786 -1.715831
-46.989528 -94.742088 10.800914
-46.588161 -95.941941 10.822928
-46.682686 -95.151619 12.011007
-47.846276 -93.405327 7.139801
-47.56202 -93.874237 8.360235
-48.115862 -92.927002 5.96582
-47.736163 -94.18528 6.051112
-47.846276 -93.405327 7.139801
-28.211561 -96.707222 29.843528
-29.108299 -96.81144 30.28535
-28.780359 -97.993943 28.729506
-27.354292 -96.594307 29.499676
-28.211561 -96.707222 29.843528
-26.961584 -97.883827 28.086966
-27.354292 -96.594307 29.499676
-29.57966 -113.410836 11.417516
-29.187035 -113.14048 12.344392
-30.505133 -112.325256 12.526457
-33.01551 -112.570183 3.443569
-32.509964 -112.881561 4.432733
-33.871505 -111.691993 4.744847
-33.593229 -112.235748 2.443011
-32.231687 -113.425315 2.130898
-33.01551 -112.570183 3.443569
-36.136656 -110.358101 0.895151
-36.816786 -109.520943 2.197795
-37.435421 -109.179337 1.26928
-34.816105 -111.532791 0.524588
-36.136656 -110.358101 0.895151
-37.454363 -110.131447 -2.982984
-38.60082 -109.045647 -2.646113
-27.00144 -119.292214 -5.911052
-28.365957 -118.149674 -5.584347
-23.338642 -119.520629 5.950053
-21.949149 -120.347702 6.099134
-22.916619 -119.341369 7.178989
-23.338642 -119.520629 5.950053
-24.727154 -118.569221 5.880416
-46.822544 -86.24839 19.436906
-46.734993 -87.421447 19.797311
-47.113354 -85.832909 17.989615
-46.822544 -86.24839 19.436906
-47.42492 -85.414872 16.583505
-47.304631 -86.582634 16.943831
-47.113354 -85.832909 17.989615
-47.803314 -85.002854 15.187966
-47.42492 -85.414872 16.583505
-40.925404 -97.220375 34.039385
-41.555868 -96.392914 34.332313
-40.887987 -98.090989 32.435654
-40.275408 -98.060204 33.648943
-40.925404 -97.220375 34.039385
-44.896515 -94.551186 25.032484
-44.53221 -94.945374 26.426922
-44.914825 -95.308121 23.702735
-44.896515 -94.551186 25.032484
-45.269458 -94.150856 23.692315
-25.195335 -115.151657 12.188389
-24.19023 -116.380448 11.32601
-40.847813 -106.77227 -2.016822
-40.263652 -107.600235 -3.203984
-39.771923 -107.905983 -2.303886
-41.90678 -105.598434 -1.719998
-40.847813 -106.77227 -2.016822
-41.41505 -105.904182 -0.8199
-42.311367 -105.255905 -2.673512
-41.90678 -105.598434 -1.719998
-46.443247 -98.34079 0.36069
-46.183127 -98.826156 1.444163
-46.802456 -97.478088 1.526611
-46.091219 -99.20562 -0.762044
-46.443247 -98.34079 0.36069
-47.304066 -96.435425 -0.627545
-46.952038 -97.300255 -1.750279
-47.829174 -95.05014 -0.624671
-47.304066 -96.435425 -0.627545
-48.088005 -94.431786 -1.715831
-47.829174 -95.05014 -0.624671
-33.653602 -93.577766 40.355303
-34.271448 -94.636673 39.535072
-33.653602 -93.577766 40.355303
-32.926333 -93.446174 39.680042
-27.971531 -100.435761 25.770395
-27.439999 -99.166023 26.882668
-28.415153 -99.159462 27.175413
-27.477684 -101.682946 24.382338
-27.971531 -100.435761 25.770395
-28.452837 -101.676384 24.675084
-26.902468 -103.047821 23.168409
-27.477684 -101.682946 24.382338
-27.327378 -104.24704 22.093232
-26.270856 -104.371292 21.974614
-26.902468 -103.047821 23.168409
-30.941017 -110.988006 14.658334
-29.702227 -111.554588 14.358234
-30.530736 -110.487694 15.563233
-31.370577 -111.325432 13.763243
-30.941017 -110.988006 14.658334
-32.199087 -110.258537 14.968243
-31.763202 -111.595788 12.836367
-30.505133 -112.325256 12.526457
-31.370577 -111.325432 13.763243
-38.005056 -108.856797 0.335811
-37.435421 -109.179337 1.26928
-38.685187 -108.019638 1.638455
-38.63435 -108.527222 -0.548096
-37.384585 -109.686921 -0.917271
-38.005056 -108.856797 0.335811
-39.771923 -107.905983 -2.303886
-38.60082 -109.045647 -2.646113
-39.18498 -108.217682 -1.458951
-28.042857 -117.90979 -3.315624
-26.655496 -119.083619 -3.515815
-27.2426 -118.331818 -2.221243
-28.827244 -117.481384 -4.313635
-28.042857 -117.90979 -3.315624
-29.414348 -116.729584 -3.019064
-29.737448 -116.969467 -5.287787
-28.365957 -118.149674 -5.584347
-28.827244 -117.481384 -4.313635
-31.065827 -115.816093 -4.897506
-29.737448 -116.969467 -5.287787
-32.413609 -114.635956 -4.542711
-31.065827 -115.816093 -4.897506
-31.546516 -115.12104 -3.662281
-33.686708 -113.511146 -4.127496
-32.413609 -114.635956 -4.542711
-45.98639 -90.624 23.275442
-46.062544 -91.377884 22.024031
-46.130812 -89.447288 23.011335
-45.98639 -90.624 23.275442
-46.362734 -89.020263 21.536677
-46.130812 -89.447288 23.011335
-43.645836 -94.060486 31.942887
-43.170547 -95.098861 31.906979
-44.054136 -93.750389 30.530226
-43.645836 -94.060486 31.942887
-44.093879 -94.520332 29.186972
-44.054136 -93.750389 30.530226
-43.104746 -103.325348 2.95376
-42.538944 -104.179772 1.667447
-42.105524 -104.515252 2.669688
-44.012655 -102.130928 3.208631
-43.104746 -103.325348 2.95376
-43.579235 -102.466408 4.210873
-44.845758 -100.898399 3.417212
-44.371269 -101.75734 2.1601
-44.012655 -102.130928 3.208631
-48.793209 -87.475655 9.803105
-48.53286 -88.665031 10.060609
-48.439281 -87.94838 11.074034
-48.793209 -87.475655 9.803105
-49.145403 -86.27774 9.556715
-37.110681 -95.052849 40.568748
-37.216871 -94.011444 41.995666
-37.851235 -94.718254 41.060082
-36.38159 -95.375709 39.970754
-37.110681 -95.052849 40.568748
-37.015953 -96.082519 39.03517
-35.645218 -95.529503 39.34421
-36.38159 -95.375709 39.970754
-34.908754 -95.667168 38.627758
-35.645218 -95.529503 39.34421
-35.550398 -96.543045 37.720724
-34.176628 -95.650215 37.911586
-34.271448 -94.636673 39.535072
-34.908754 -95.667168 38.627758
-32.693886 -95.468292 36.384989
-32.803673 -94.465225 38.071506
-33.429535 -95.622787 37.132384
-32.553128 -96.477119 34.671149
-31.927267 -95.319557 35.610271
-32.693886 -95.468292 36.384989
-20.558549 -121.167023 6.292042
-21.949149 -120.347702 6.099134
-22.396289 -121.956413 -1.342645
-21.692454 -122.690124 -2.62171
-23.784348 -120.922638 -1.345343
-22.396289 -121.956413 -1.342645
-25.172556 -119.820816 -1.242828
-24.46703 -120.607468 -2.523949
-23.784348 -120.922638 -1.345343
-26.562264 -118.688477 -1.137723
-25.172556 -119.820816 -1.242828
-27.2426 -118.331818 -2.221243
-26.562264 -118.688477 -1.137723
-30.719659 -115.127014 -0.450892
-30.010721 -115.957016 -1.738827
-46.787931 -94.367333 13.25688
-46.682686 -95.151619 12.011007
-46.386565 -95.567184 13.278896
-47.094227 -93.176254 13.164257
-46.787931 -94.367333 13.25688
-46.798106 -93.59182 14.432146
-47.391666 -91.971085 13.039532
-47.094227 -93.176254 13.164257
-47.616196 -90.7808 12.849958
-47.391666 -91.971085 13.039532
-47.32893 -91.210457 14.149949
-47.866196 -89.578964 12.645957
-47.928932 -90.339592 11.53554
-47.616196 -90.7808 12.849958
-46.343897 -90.955116 20.627173
-46.157894 -92.134697 20.822529
-46.062544 -91.377884 22.024031
-46.876648 -88.175941 18.658222
-46.618576 -88.596718 20.105591
-46.734993 -87.421447 19.797311
-48.86126 -84.865212 11.534375
-49.017006 -85.588334 10.52758
-48.543884 -86.035881 11.823324
-48.189285 -84.576934 13.834164
-48.002167 -85.738678 14.18392
-47.803314 -85.002854 15.187966
-48.671188 -84.15654 12.499504
-48.189285 -84.576934 13.834164
-48.86126 -84.865212 11.534375
-48.671188 -84.15654 12.499504
-38.693199 -93.17247 42.813665
-38.123436 -92.566132 43.696503
-38.567438 -94.213707 41.500046
-38.693199 -93.17247 42.813665
-38.461248 -95.255112 40.073127
-37.851235 -94.718254 41.060082
-38.567438 -94.213707 41.500046
-38.389792 -96.233223 38.584739
-38.461248 -95.255112 40.073127
-39.105995 -95.728676 39.024704
-39.673681 -96.948189 36.394495
-39.714371 -96.033241 37.9072
-38.985841 -97.629715 35.923409
-39.673681 -96.948189 36.394495
-39.624984 -97.871116 34.781588
-43.166638 -95.911629 30.429547
-42.671963 -96.152122 31.773522
-43.170547 -95.098861 31.906979
-44.107292 -96.064415 26.368372
-44.09762 -95.301338 27.75239
-44.53221 -94.945374 26.426922
-21.147742 -119.779412 8.530439
-20.136706 -120.86058 7.609485
-19.757322 -120.47155 8.811854
-22.15511 -118.693703 9.505804
-23.181058 -117.52179 10.373147
-22.534494 -119.082733 8.303435
-21.147742 -119.779412 8.530439
-22.15511 -118.693703 9.505804
-26.681731 -116.521637 8.064335
-25.686149 -117.581108 7.016872
-25.301694 -117.454826 8.077371
-39.554665 -108.97136 -6.162393
-39.136841 -109.202874 -5.401656
-40.538498 -107.885849 -6.032733
-39.554665 -108.97136 -6.162393
-40.752909 -107.313507 -4.040335
-39.677019 -108.44722 -4.3274
-40.263652 -107.600235 -3.203984
-41.161152 -106.993996 -4.948357
-40.752909 -107.313507 -4.040335
-41.747785 -106.14701 -3.824942
-40.538498 -107.885849 -6.032733
-41.161152 -106.993996 -4.948357
-42.00687 -105.050011 0.43015
-42.538944 -104.179772 1.667447
-43.389681 -103.501343 -0.286
-43.921755 -102.631103 0.951296
-43.794268 -103.158814 -1.239514
-43.389681 -103.501343 -0.286
-44.631619 -101.865395 -1.049691
-45.06463 -100.980598 0.114658
-45.390905 -100.573654 -0.886108
-43.794268 -103.158814 -1.239514
-44.631619 -101.865395 -1.049691
-47.194847 -96.7397 -2.780112
-46.952038 -97.300255 -1.750279
-47.194847 -96.7397 -2.780112
-47.791134 -95.246689 -2.749258
-47.276234 -94.308639 9.554106
-46.989528 -94.742088 10.800914
-47.18079 -95.098007 8.418964
-47.276234 -94.308639 9.554106
-47.56202 -93.874237 8.360235
-48.229132 -89.883629 10.268196
-48.53286 -88.665031 10.060609
-48.408862 -92.407593 4.77416
-48.115862 -92.927002 5.96582
-48.27202 -93.170288 3.7251
-48.408862 -92.407593 4.77416
-48.076988 -93.977112 2.622671
-47.810717 -94.513779 3.774702
-48.27202 -93.170288 3.7251
-47.864239 -94.771377 1.560581
-48.076988 -93.977112 2.622671
-37.356188 -92.913483 43.322395
-37.216871 -94.011444 41.995666
-31.176812 -95.081604 34.898041
-31.927267 -95.319557 35.610271
-30.381513 -94.874168 34.200272
-31.176812 -95.081604 34.898041
-30.99121 -96.120948 33.198662
-29.606793 -94.620735 33.591246
-30.381513 -94.874168 34.200272
-29.367705 -95.719116 31.950132
-29.936504 -97.005836 30.83611
-29.108299 -96.81144 30.28535
-29.606793 -94.620735 33.591246
-29.367705 -95.719116 31.950132
-26.961584 -97.883827 28.086966
-27.439999 -99.166023 26.882668
-25.561992 -105.804665 20.962263
-26.270856 -104.371292 21.974614
-24.798273 -107.185318 19.961085
-25.561992 -105.804665 20.962263
-25.932046 -106.951165 19.898259
-23.967162 -108.654725 19.131056
-24.798273 -107.185318 19.961085
-24.290764 -109.739045 18.058744
-23.967162 -108.654725 19.131056
-24.67677 -110.762565 17.069214
-24.290764 -109.739045 18.058744
-25.554333 -109.355339 17.90755
-25.024506 -111.712211 16.051495
-24.67677 -110.762565 17.069214
-25.417236 -112.56588 15.103496
-25.024506 -111.712211 16.051495
-26.33307 -111.232529 15.970021
-25.778132 -113.337585 14.107139
-25.417236 -112.56588 15.103496
-26.16674 -113.985207 13.168402
-25.778132 -113.337585 14.107139
-27.114408 -112.733818 14.083286
-26.53161 -114.547889 12.164538
-25.195335 -115.151657 12.188389
-26.16674 -113.985207 13.168402
-28.807761 -112.71817 13.298942
-28.397481 -112.217858 14.203841
-29.702227 -111.554588 14.358234
-27.882289 -113.803749 12.190001
-28.807761 -112.71817 13.298942
-29.187035 -113.14048 12.344392
-28.039782 -115.635872 8.136043
-26.681731 -116.521637 8.064335
-27.655327 -115.50959 9.196542
-28.430571 -115.634819 7.123575
-28.039782 -115.635872 8.136043
-29.404168 -114.622772 8.255782
-28.854095 -115.574333 6.041534
-28.430571 -115.634819 7.123575
-29.285838 -115.414017 5.012129
-28.854095 -115.574333 6.041534
-30.226702 -114.461402 6.213909
-29.77561 -115.20755 3.928502
-29.285838 -115.414017 5.012129
-31.156207 -114.030418 4.157979
-32.012202 -113.152229 5.459258
-32.509964 -112.881561 4.432733
-29.77561 -115.20755 3.928502
-31.156207 -114.030418 4.157979
-31.428621 -114.294433 0.842579
-32.231687 -113.425315 2.130898
-32.100443 -113.923462 -0.163129
-30.719659 -115.127014 -0.450892
-31.428621 -114.294433 0.842579
-33.461798 -112.728378 0.177926
-34.163714 -111.895294 1.477003
-34.816105 -111.532791 0.524588
-32.752835 -113.560958 -1.115545
-32.100443 -113.923462 -0.163129
-33.461798 -112.728378 0.177926
-33.504244 -113.153389 -2.040988
-32.14289 -114.348472 -2.382043
-32.752835 -113.560958 -1.115545
-34.202726 -112.784607 -2.927183
-33.504244 -113.153389 -2.040988
-33.686708 -113.511146 -4.127496
-34.202726 -112.784607 -2.927183
-36.762516 -110.492829 -2.17403
-37.384585 -109.686921 -0.917271
-36.762516 -110.492829 -2.17403
-37.454363 -110.131447 -2.982984
-22.495336 -122.368095 -3.94393
-21.692454 -122.690124 -2.62171
-23.300244 -121.982063 -5.149006
-22.495336 -122.368095 -3.94393
-23.883729 -121.323257 -3.831539
-24.232628 -121.510528 -6.360062
-23.300244 -121.982063 -5.149006
-25.617882 -120.430031 -6.124262
-26.072195 -119.799408 -4.823405
-27.00144 -119.292214 -5.911052
-24.232628 -121.510528 -6.360062
-25.617882 -120.430031 -6.124262
3 0 44 42
3 1 47 45
3 1 49 47
3 1 51 49
3 0 54 52
3 0 42 54
3 180 179 56
3 181 59 182
3 183 182 57
3 181 182 183
3 184 61 185
3 186 63 187
3 188 187 61
3 186 187 188
3 189 65 190
3 191 57 192
3 193 192 65
3 191 192 193
3 5 194 196
3 196 195 67
3 194 195 196
3 6 197 199
3 199 198 69
3 197 198 199
3 6 200 201
3 2 202 203
3 3 204 205
3 207 206 72
3 7 75 73
3 7 76 75
3 7 78 76
3 8 81 79
3 8 82 81
3 4 85 83
3 9 88 86
3 9 90 88
3 9 92 90
3 5 95 93
3 5 67 95
3 10 208 210
3 208 98 209
3 208 209 210
3 10 99 98
3 11 103 102
3 13 104 43
3 13 105 104
3 213 212 106
3 211 212 213
3 14 108 107
3 15 109 46
3 15 110 109
3 15 112 110
3 17 113 48
3 17 114 113
3 17 116 114
3 19 117 50
3 19 118 117
3 20 121 119
3 22 122 53
3 22 123 122
3 22 125 123
3 11 126 55
3 11 102 126
3 24 214 216
3 214 215 216
3 26 130 128
3 27 131 58
3 27 132 131
3 217 133 218
3 219 218 100
3 217 218 219
3 28 134 60
3 28 135 134
3 28 136 135
3 220 137 221
3 29 222 224
3 222 138 223
3 222 223 224
3 29 139 138
3 29 141 139
3 31 142 62
3 31 143 142
3 225 144 226
3 227 226 101
3 225 226 227
3 32 145 64
3 32 146 145
3 32 147 146
3 26 148 66
3 26 128 148
3 33 228 230
3 228 149 229
3 228 229 230
3 33 150 149
3 231 151 232
3 234 233 68
3 12 235 237
3 235 152 236
3 235 236 237
3 239 238 70
3 241 240 71
3 242 153 243
3 244 243 129
3 242 243 244
3 245 154 246
3 247 155 248
3 249 248 154
3 247 248 249
3 16 156 111
3 34 250 252
3 252 251 74
3 250 251 252
3 34 253 254
3 34 255 256
3 35 157 77
3 35 158 157
3 18 159 115
3 36 160 80
3 36 161 160
3 36 162 161
3 37 257 259
3 257 163 258
3 257 258 259
3 37 164 163
3 30 165 140
3 38 166 84
3 38 167 166
3 21 168 120
3 39 169 87
3 39 170 169
3 39 171 170
3 40 172 89
3 40 173 172
3 40 174 173
3 41 260 262
3 262 261 91
3 260 261 262
3 41 263 265
3 263 175 264
3 263 264 265
3 23 176 124
3 266 177 267
3 268 267 94
3 266 267 268
3 270 269 177
3 272 271 96
3 25 178 127
3 274 273 97
3 42 43 11
3 44 43 42
3 44 13 43
3 45 46 14
3 47 46 45
3 47 15 46
3 47 48 15
3 49 48 47
3 49 17 48
3 49 50 17
3 51 50 49
3 51 19 50
3 52 53 20
3 54 53 52
3 54 22 53
3 54 55 22
3 42 55 54
3 42 11 55
3 56 275 277
3 277 276 24
3 275 276 277
3 279 278 56
3 57 58 26
3 59 58 57
3 59 27 58
3 280 60 281
3 282 60 283
3 284 28 285
3 286 285 60
3 284 285 286
3 288 287 28
3 61 289 290
3 61 291 293
3 291 29 292
3 291 292 293
3 61 62 29
3 63 62 61
3 63 31 62
3 294 64 295
3 65 296 298
3 296 64 297
3 296 297 298
3 65 32 64
3 65 66 32
3 57 66 65
3 57 26 66
3 299 33 300
3 67 301 303
3 301 68 302
3 301 302 303
3 304 68 305
3 306 305 67
3 304 305 306
3 308 307 68
3 69 70 12
3 309 70 310
3 311 310 69
3 309 310 311
3 313 312 70
3 314 71 315
3 316 71 317
3 319 318 71
3 72 320 321
3 323 322 72
3 73 74 16
3 75 74 73
3 75 34 74
3 75 324 326
3 326 325 34
3 324 325 326
3 76 327 329
3 329 328 75
3 327 328 329
3 76 330 331
3 76 332 334
3 332 77 333
3 332 333 334
3 78 77 76
3 78 35 77
3 79 80 18
3 81 80 79
3 81 36 80
3 81 335 337
3 337 336 36
3 335 336 337
3 82 338 340
3 340 339 81
3 338 339 340
3 82 341 343
3 341 37 342
3 341 342 343
3 83 84 30
3 85 84 83
3 85 38 84
3 86 87 21
3 88 87 86
3 88 39 87
3 88 89 39
3 90 89 88
3 90 40 89
3 90 91 40
3 92 91 90
3 92 41 91
3 93 94 23
3 95 94 93
3 95 344 346
3 346 345 94
3 344 345 346
3 95 347 349
3 347 96 348
3 347 348 349
3 67 96 95
3 67 350 352
3 352 351 96
3 350 351 352
3 353 97 354
3 355 354 25
3 353 354 355
3 98 356 358
3 356 97 357
3 356 357 358
3 98 359 361
3 361 360 97
3 359 360 361
3 98 362 363
3 99 364 366
3 366 365 98
3 364 365 366
3 99 367 368
3 369 100 370
3 371 100 372
3 374 373 100
3 375 101 376
3 377 101 378
3 380 379 101
3 102 381 383
3 383 382 5
3 381 382 383
3 103 384 386
3 386 385 102
3 384 385 386
3 103 387 389
3 387 12 388
3 387 388 389
3 43 103 11
3 104 103 43
3 104 12 103
3 104 69 12
3 105 69 104
3 105 6 69
3 106 390 392
3 392 391 2
3 390 391 392
3 394 393 106
3 107 395 397
3 397 396 3
3 395 396 397
3 108 398 400
3 400 399 107
3 398 399 400
3 108 401 402
3 46 108 14
3 109 108 46
3 109 403 405
3 405 404 108
3 403 404 405
3 109 406 408
3 406 72 407
3 406 407 408
3 110 72 109
3 110 409 411
3 411 410 72
3 409 410 411
3 110 412 414
3 412 111 413
3 412 413 414
3 112 111 110
3 112 16 111
3 48 112 15
3 113 112 48
3 113 16 112
3 113 73 16
3 114 73 113
3 114 7 73
3 114 115 7
3 116 115 114
3 116 18 115
3 50 116 17
3 117 116 50
3 117 18 116
3 117 79 18
3 118 79 117
3 118 8 79
3 119 120 4
3 121 120 119
3 121 21 120
3 53 121 20
3 122 121 53
3 122 21 121
3 122 86 21
3 123 86 122
3 123 9 86
3 123 124 9
3 125 124 123
3 125 23 124
3 55 125 22
3 126 125 55
3 126 23 125
3 126 93 23
3 102 93 126
3 102 5 93
3 416 415 24
3 417 127 418
3 419 127 420
3 421 25 422
3 423 422 127
3 421 422 423
3 424 25 425
3 427 426 25
3 428 10 429
3 128 129 0
3 130 129 128
3 130 430 432
3 432 431 129
3 430 431 432
3 58 130 26
3 131 130 58
3 131 433 435
3 435 434 130
3 433 434 435
3 131 436 437
3 132 438 440
3 440 439 131
3 438 439 440
3 132 441 443
3 441 2 442
3 441 442 443
3 100 444 446
3 444 59 445
3 444 445 446
3 133 59 100
3 133 27 59
3 60 447 449
3 447 133 448
3 447 448 449
3 134 133 60
3 134 27 133
3 134 132 27
3 135 132 134
3 135 2 132
3 135 106 2
3 136 106 135
3 136 450 452
3 452 451 106
3 450 451 452
3 453 136 454
3 455 454 28
3 453 454 455
3 456 136 457
3 459 458 136
3 460 3 461
3 462 3 463
3 464 107 465
3 466 465 3
3 464 465 466
3 137 467 469
3 467 107 468
3 467 468 469
3 137 14 107
3 470 137 471
3 138 472 474
3 472 137 473
3 472 473 474
3 138 14 137
3 138 45 14
3 139 45 138
3 139 1 45
3 139 140 1
3 141 140 139
3 141 30 140
3 62 141 29
3 142 141 62
3 142 30 141
3 142 83 30
3 143 83 142
3 143 4 83
3 101 475 477
3 475 63 476
3 475 476 477
3 144 63 101
3 144 31 63
3 64 478 480
3 478 144 479
3 478 479 480
3 145 144 64
3 145 31 144
3 145 143 31
3 146 143 145
3 146 4 143
3 146 119 4
3 147 119 146
3 147 20 119
3 66 147 32
3 148 147 66
3 148 20 147
3 148 52 20
3 128 52 148
3 128 0 52
3 481 24 482
3 481 482 483
3 149 484 485
3 149 486 488
3 486 24 487
3 486 487 488
3 149 56 24
3 150 56 149
3 150 489 491
3 491 490 56
3 489 490 491
3 151 492 493
3 151 494 495
3 68 496 498
3 496 151 497
3 496 497 498
3 499 151 500
3 501 500 68
3 499 500 501
3 503 502 151
3 505 504 5
3 152 506 507
3 152 508 509
3 70 152 12
3 510 152 511
3 512 511 70
3 510 511 512
3 514 513 152
3 71 515 516
3 518 517 71
3 129 44 0
3 153 44 129
3 153 13 44
3 519 153 520
3 154 521 523
3 521 153 522
3 521 522 523
3 154 13 153
3 154 105 13
3 155 105 154
3 155 6 105
3 525 524 2
3 526 155 527
3 528 155 529
3 530 6 531
3 532 531 155
3 530 531 532
3 534 533 6
3 536 535 3
3 111 537 538
3 156 539 541
3 541 540 111
3 539 540 541
3 156 542 543
3 74 156 16
3 544 156 545
3 546 545 74
3 544 545 546
3 548 547 156
3 550 549 34
3 77 551 552
3 157 553 555
3 555 554 77
3 553 554 555
3 157 556 557
3 157 558 559
3 158 560 562
3 562 561 157
3 560 561 562
3 158 563 564
3 115 78 7
3 159 78 115
3 159 35 78
3 80 159 18
3 160 159 80
3 160 35 159
3 160 158 35
3 161 158 160
3 161 565 567
3 567 566 158
3 565 566 567
3 161 568 569
3 162 570 572
3 572 571 161
3 570 571 572
3 162 573 575
3 573 33 574
3 573 574 575
3 576 162 577
3 578 577 36
3 576 577 578
3 163 579 581
3 579 162 580
3 579 580 581
3 163 33 162
3 163 150 33
3 164 150 163
3 164 582 584
3 584 583 150
3 582 583 584
3 140 51 1
3 165 51 140
3 165 19 51
3 84 165 30
3 166 165 84
3 166 19 165
3 166 118 19
3 167 118 166
3 167 8 118
3 120 85 4
3 168 85 120
3 168 38 85
3 87 168 21
3 169 168 87
3 169 38 168
3 169 167 38
3 170 167 169
3 170 8 167
3 170 82 8
3 171 82 170
3 171 37 82
3 89 171 39
3 172 171 89
3 172 37 171
3 172 164 37
3 173 164 172
3 173 585 587
3 587 586 164
3 585 586 587
3 173 588 589
3 174 590 592
3 592 591 173
3 590 591 592
3 174 593 594
3 91 174 40
3 595 174 596
3 597 596 91
3 595 596 597
3 599 598 174
3 175 600 601
3 175 602 604
3 602 10 603
3 602 603 604
3 124 92 9
3 176 92 124
3 176 41 92
3 94 176 23
3 177 176 94
3 177 41 176
3 177 175 41
3 605 175 606
3 607 606 177
3 605 606 607
3 608 10 609
3 610 609 175
3 608 609 610
3 611 99 612
3 613 612 10
3 611 612 613
3 614 99 615
3 617 616 99
3 96 618 619
3 621 620 96
3 127 622 623
3 178 624 626
3 626 625 127
3 624 625 626
3 178 627 628
3 97 178 25
3 629 178 630
3 631 630 97
3 629 630 631
3 633 632 178
