ply
format ascii 1.0
element vertex 283
property float x
property float y
property float z
element face 242
property list uchar int vertex_index
end_header
31.508982 14.941368 -35.785812
29.533188 -3.07889 -51.208328
27.245014 11.163868 -32.600075
30.715204 7.445829 -51.711998
28.642673 -8.074938 -47.171738
29.351461 13.008526 -34.273766
31.230181 10.793167 -38.765495
34.061092 16.550343 -36.900276
33.085651 13.797276 -40.870483
31.86293 10.649324 -44.329636
30.705776 6.854094 -46.961418
29.883675 2.458302 -52.208878
31.803152 1.564995 -54.66008
30.34691 16.395248 -33.826141
29.131714 15.677418 -33.317032
30.39954 13.987228 -35.060226
30.465664 11.616476 -36.310135
31.382214 12.864902 -37.290215
30.544939 -3.626755 -52.086357
26.885525 7.2062 -32.050522
27.888611 8.155363 -33.143166
34.380013 17.900639 -34.789101
34.326057 15.155827 -41.661079
33.554138 14.001953 -43.679497
32.484642 12.293352 -42.680779
32.74398 12.649817 -45.51046
31.228008 9.24662 -48.44899
30.596498 7.195215 -49.472313
30.212337 4.695786 -47.849068
30.068111 4.937284 -50.149704
29.639385 2.503681 -50.459969
30.234407 5.038361 -52.154312
29.055792 -2.768017 -49.986122
28.31625 12.054159 -33.450081
28.780567 9.223555 -34.221352
29.618879 10.388142 -35.279961
30.53587 9.275032 -37.567253
31.195417 7.465124 -53.624138
31.608915 17.041534 -34.261528
32.94791 17.560989 -34.593414
32.720776 15.815208 -36.414032
35.001987 16.163242 -39.490479
33.623028 15.200073 -38.934555
32.421986 14.079712 -38.182175
32.063198 12.320753 -39.884071
31.66728 10.504608 -41.493797
31.26075 8.601778 -42.971046
31.953182 11.067976 -47.114471
31.260468 8.839733 -45.772797
29.302952 -0.073893 -50.400085
29.651745 -0.256641 -51.884697
30.824211 4.888834 -53.821281
30.601486 2.159451 -53.615616
30.511532 -0.686279 -53.025406
31.861084 -1.388708 -53.804794
29.531599 -4.535304 -50.713951
29.218152 -4.318621 -50.229
30.039063 -3.352823 -51.647343
30.037475 -4.809236 -51.152966
29.531599 -4.535304 -50.713951
26.322874 12.375704 -32.057996
26.969082 12.697624 -32.377228
26.669174 10.765743 -32.163749
26.322874 12.375704 -32.057996
27.566813 9.659616 -32.87162
26.990972 9.261491 -32.435294
26.669174 10.765743 -32.163749
33.740865 14.265635 -45.060558
34.221685 14.780014 -44.049511
33.335786 13.589567 -45.97604
33.149059 13.325885 -44.594978
33.740865 14.265635 -45.060558
30.655851 7.320522 -50.592156
30.966561 8.415826 -50.181702
31.025914 8.541134 -51.301544
29.071543 -2.708951 -49.21331
28.941854 -4.04445 -48.970131
28.638804 13.9746 -33.514843
28.52893 15.309046 -33.036476
29.241588 14.342972 -33.795399
28.833855 12.531343 -33.861924
28.121198 13.497416 -33.103001
28.638804 13.9746 -33.514843
31.145937 9.74841 -39.474293
30.798782 8.989342 -38.875172
30.883026 10.034099 -38.166374
31.65027 18.109797 -33.487358
30.966656 17.941047 -33.428417
31.008012 19.00931 -32.654247
28.596311 -9.488454 -46.652378
28.693281 -9.330647 -46.0784
27.309667 5.66241 -32.254795
27.735667 6.211533 -32.906124
29.034771 7.839208 -34.637211
29.347145 8.519946 -35.27269
35.394523 16.246257 -40.841351
35.776771 16.537132 -39.644146
32.025163 11.317291 -48.415184
32.464382 12.135257 -47.667259
30.785715 6.722265 -45.61259
31.063061 7.715085 -45.01828
30.983122 7.846914 -46.367108
30.599915 5.656254 -46.138451
30.785715 6.722265 -45.61259
30.179851 3.44958 -46.962231
29.996658 3.537279 -48.124558
31.464792 6.023449 -54.498352
31.009814 6.176979 -53.72271
31.650395 7.311594 -54.399781
31.202319 1.862223 -54.137848
31.239638 3.291409 -54.37075
31.840471 2.994181 -54.892983
29.739312 16.036333 -33.571586
29.057817 17.031657 -32.854798
29.665415 17.390572 -33.109352
28.749683 -8.253363 -47.701496
28.772894 -6.816645 -48.210705
30.621443 -5.14021 -51.466518
30.037475 -4.809236 -51.152966
31.290971 -4.02716 -52.34597
30.621443 -5.14021 -51.466518
26.489429 8.78691 -31.888973
25.854665 8.446175 -31.444263
27.387068 7.680782 -32.596844
26.489429 8.78691 -31.888973
26.990972 9.261491 -32.435294
28.23721 6.686114 -33.452446
27.735667 6.211533 -32.906124
27.387068 7.680782 -32.596844
35.141451 17.958016 -34.803986
34.480104 18.600731 -33.704842
35.241543 18.658107 -33.719727
34.957991 17.496057 -35.99435
35.141451 17.958016 -34.803986
34.79853 16.820909 -37.049938
34.220552 17.225491 -35.844689
34.957991 17.496057 -35.99435
34.607645 15.356951 -43.040302
35.056558 15.74255 -41.926651
33.940098 14.57889 -42.670288
34.607645 15.356951 -43.040302
34.221685 14.780014 -44.049511
31.282316 9.441529 -49.67004
31.662577 10.406613 -49.082443
30.912253 8.220918 -48.960651
31.282316 9.441529 -49.67004
30.966561 8.415826 -50.181702
29.924545 3.658028 -49.274876
29.996658 3.537279 -48.124558
30.140224 4.816535 -48.999386
29.853748 3.720483 -50.304837
29.710182 2.441227 -49.430008
29.924545 3.658028 -49.274876
32.586636 2.5932 -55.356762
31.840471 2.994181 -54.892983
33.402681 2.144938 -55.691246
32.619197 1.116732 -54.994564
32.586636 2.5932 -55.356762
28.798941 -7.971259 -46.489128
28.693281 -9.330647 -46.0784
28.735294 -6.697911 -47.562939
28.798941 -7.971259 -46.489128
28.772894 -6.816645 -48.210705
28.735294 -6.697911 -47.562939
28.979454 -4.163184 -49.617897
28.941854 -4.04445 -48.970131
29.29449 -2.923453 -50.597225
29.218152 -4.318621 -50.229
28.979454 -4.163184 -49.617897
28.386882 16.772705 -32.718914
29.057817 17.031657 -32.854798
28.386882 16.772705 -32.718914
28.52893 15.309046 -33.036476
27.5047 13.142769 -32.802231
28.121198 13.497416 -33.103001
27.780632 11.609013 -33.025078
26.969082 12.697624 -32.377228
27.5047 13.142769 -32.802231
29.766301 9.10224 -35.801994
29.347145 8.519946 -35.27269
29.199723 9.805848 -34.750657
30.224797 8.545685 -36.94564
29.766301 9.10224 -35.801994
30.077374 9.831587 -36.423607
30.57037 8.111831 -38.18211
30.224797 8.545685 -36.94564
30.57037 8.111831 -38.18211
30.798782 8.989342 -38.875172
31.223782 8.641883 -52.368072
31.025914 8.541134 -51.301544
31.463888 8.651531 -53.324143
30.95531 7.455476 -52.668068
31.223782 8.641883 -52.368072
31.852467 8.592992 -54.213105
31.463888 8.651531 -53.324143
31.650395 7.311594 -54.399781
31.852467 8.592992 -54.213105
30.335654 17.617905 -33.210724
29.665415 17.390572 -33.109352
30.977913 16.718391 -34.043835
30.335654 17.617905 -33.210724
30.966656 17.941047 -33.428417
28.596311 -9.488454 -46.652378
28.749683 -8.253363 -47.701496
26.303883 6.798049 -31.50312
25.854665 8.446175 -31.444263
26.303883 6.798049 -31.50312
27.309667 5.66241 -32.254795
28.588793 7.305112 -34.098118
28.334589 8.689459 -33.682259
29.034771 7.839208 -34.637211
28.23721 6.686114 -33.452446
28.588793 7.305112 -34.098118
33.743673 18.623553 -33.758301
34.480104 18.600731 -33.704842
33.027622 18.453727 -33.660457
33.743673 18.623553 -33.758301
33.663961 17.730814 -34.691258
32.319768 18.369524 -33.653301
33.027622 18.453727 -33.660457
32.278413 17.301261 -34.427471
31.65027 18.109797 -33.487358
32.319768 18.369524 -33.653301
35.268978 16.627359 -38.345039
35.776771 16.537132 -39.644146
34.53154 16.356793 -38.195377
34.79853 16.820909 -37.049938
35.268978 16.627359 -38.345039
34.664022 15.659534 -40.575779
35.394523 16.246257 -40.841351
35.056558 15.74255 -41.926651
31.364487 9.604131 -40.838443
31.145937 9.74841 -39.474293
31.448731 10.648888 -40.129646
31.161222 8.652715 -41.577068
31.364487 9.604131 -40.838443
31.464015 9.553193 -42.232422
31.073705 7.587692 -42.233013
31.161222 8.652715 -41.577068
32.859781 12.926178 -46.865254
33.335786 13.589567 -45.97604
32.348581 11.858897 -46.312466
32.859781 12.926178 -46.865254
32.464382 12.135257 -47.667259
31.590595 10.157298 -47.781731
32.025163 11.317291 -48.415184
31.662577 10.406613 -49.082443
31.063202 7.596107 -43.617404
31.260609 8.720755 -44.371921
31.063061 7.715085 -45.01828
31.073705 7.587692 -42.233013
31.063202 7.596107 -43.617404
30.353195 4.5771 -46.582276
30.599915 5.656254 -46.138451
30.459057 5.77494 -47.405243
30.353195 4.5771 -46.582276
30.179851 3.44958 -46.962231
29.523092 1.213376 -49.528141
29.710182 2.441227 -49.430008
29.354875 -0.075411 -49.498199
29.523092 1.213376 -49.528141
29.471169 1.214894 -50.430027
29.195123 -1.361889 -49.420291
29.354875 -0.075411 -49.498199
29.179372 -1.420955 -50.193103
29.071543 -2.708951 -49.21331
29.195123 -1.361889 -49.420291
31.351 4.656101 -54.473583
31.464792 6.023449 -54.498352
30.712848 3.524142 -53.718449
31.351 4.656101 -54.473583
31.239638 3.291409 -54.37075
31.949044 -2.908137 -53.205189
31.290971 -4.02716 -52.34597
31.203012 -2.507732 -52.945576
32.648163 -0.360119 -54.566921
31.832118 0.088143 -54.232437
32.619197 1.116732 -54.994564
32.74 -1.876132 -54.008335
32.648163 -0.360119 -54.566921
32.827959 -3.395561 -53.408729
31.949044 -2.908137 -53.205189
32.74 -1.876132 -54.008335
3 0 15 13
3 0 17 15
3 1 55 56
3 1 57 59
3 57 18 58
3 57 58 59
3 2 60 61
3 2 62 63
3 2 64 66
3 64 20 65
3 64 65 66
3 67 23 68
3 69 25 70
3 71 70 23
3 69 70 71
3 3 72 74
3 72 27 73
3 72 73 74
3 3 29 27
3 3 31 29
3 75 32 76
3 5 77 79
3 79 78 14
3 77 78 79
3 5 80 82
3 80 33 81
3 80 81 82
3 5 35 33
3 6 36 16
3 6 83 85
3 85 84 36
3 83 84 85
3 86 38 87
3 86 87 88
3 4 89 90
3 92 91 19
3 94 93 34
3 7 39 21
3 7 40 39
3 95 41 96
3 8 42 22
3 8 43 42
3 8 44 43
3 9 45 24
3 9 46 45
3 97 47 98
3 10 48 26
3 10 99 101
3 101 100 48
3 99 100 101
3 10 102 103
3 105 104 28
3 11 49 30
3 11 50 49
3 106 51 107
3 108 107 37
3 106 107 108
3 12 109 111
3 109 52 110
3 109 110 111
3 12 53 52
3 12 54 53
3 13 112 114
3 112 14 113
3 112 113 114
3 15 14 13
3 15 5 14
3 15 16 5
3 17 16 15
3 17 6 16
3 116 115 4
3 18 117 118
3 18 119 120
3 121 19 122
3 20 123 125
3 123 19 124
3 123 124 125
3 20 126 128
3 128 127 19
3 126 127 128
3 129 21 130
3 129 130 131
3 132 21 133
3 134 7 135
3 136 135 21
3 134 135 136
3 137 22 138
3 23 139 141
3 139 22 140
3 139 140 141
3 23 8 22
3 23 24 8
3 25 24 23
3 25 9 24
3 142 26 143
3 27 144 146
3 144 26 145
3 144 145 146
3 27 10 26
3 27 28 10
3 29 28 27
3 29 147 149
3 149 148 28
3 147 148 149
3 29 150 152
3 150 30 151
3 150 151 152
3 31 30 29
3 31 11 30
3 153 12 154
3 157 156 12
3 155 156 157
3 158 4 159
3 160 4 161
3 163 162 4
3 32 164 165
3 32 166 168
3 166 1 167
3 166 167 168
3 14 169 170
3 172 171 14
3 33 173 174
3 33 175 177
3 175 2 176
3 175 176 177
3 33 34 2
3 35 34 33
3 35 178 180
3 180 179 34
3 178 179 180
3 16 35 5
3 36 35 16
3 36 181 183
3 183 182 35
3 181 182 183
3 36 184 185
3 187 186 36
3 188 3 189
3 190 37 191
3 192 191 3
3 190 191 192
3 193 37 194
3 196 195 37
3 197 13 198
3 38 199 201
3 199 13 200
3 199 200 201
3 38 0 13
3 203 202 4
3 19 204 205
3 207 206 19
3 34 20 2
3 208 20 209
3 210 209 34
3 208 209 210
3 212 211 20
3 21 213 214
3 39 215 217
3 217 216 21
3 215 216 217
3 39 218 219
3 39 220 222
3 220 38 221
3 220 221 222
3 40 38 39
3 40 0 38
3 41 223 224
3 41 225 227
3 225 7 226
3 225 226 227
3 22 228 230
3 228 41 229
3 228 229 230
3 42 41 22
3 42 7 41
3 42 40 7
3 43 40 42
3 43 0 40
3 43 17 0
3 44 17 43
3 44 6 17
3 24 44 8
3 45 44 24
3 45 6 44
3 45 231 233
3 233 232 6
3 231 232 233
3 46 234 236
3 236 235 45
3 234 235 236
3 46 237 238
3 239 25 240
3 47 241 243
3 241 25 242
3 241 242 243
3 47 9 25
3 26 244 246
3 244 47 245
3 244 245 246
3 48 47 26
3 48 9 47
3 48 46 9
3 247 46 248
3 249 248 48
3 247 248 249
3 251 250 46
3 28 252 254
3 254 253 10
3 252 253 254
3 256 255 28
3 30 257 258
3 49 259 261
3 261 260 30
3 259 260 261
3 49 262 263
3 49 264 266
3 264 32 265
3 264 265 266
3 50 32 49
3 50 1 32
3 37 31 3
3 51 31 37
3 51 11 31
3 267 51 268
3 52 269 271
3 269 51 270
3 269 270 271
3 52 11 51
3 52 50 11
3 53 50 52
3 53 1 50
3 53 18 1
3 54 18 53
3 54 272 274
3 274 273 18
3 272 273 274
3 275 54 276
3 277 276 12
3 275 276 277
3 278 54 279
3 282 281 54
3 280 281 282
