ply
format ascii 1.0
element vertex 501
property float x
property float y
property float z
element face 499
property list uchar int vertex_index
end_header
52.572174 43.289768 1.791972
47.481964 55.660614 9.429482
46.587601 64.070152 -11.347015
51.473625 53.578568 -5.606697
46.326263 46.416252 -4.081184
53.383507 49.784485 3.517124
56.280018 38.873962 8.346491
52.351662 44.822216 13.438243
47.873657 60.880127 -1.439663
48.848511 39.67392 2.597615
49.964645 50.027313 -5.5121
50.653206 52.823265 6.016113
53.223366 47.438492 8.465079
50.140705 50.16684 11.410587
44.720406 64.184715 2.237878
47.733593 58.43811 3.891124
50.848164 55.213806 0.796498
56.22813 36.363567 11.829028
47.392868 52.646004 15.071603
49.567951 58.739067 -8.875736
49.58989 54.651321 -9.730436
47.265182 50.726288 -9.000563
43.308098 46.664734 -7.123913
39.2514 41.787048 -5.059521
41.88026 42.174446 -2.042601
54.253468 46.600441 2.075733
54.964775 41.15818 4.940167
55.225182 44.434402 6.28862
53.86644 39.33181 14.882379
49.430107 47.257195 16.74044
50.830978 41.86845 18.112537
44.584251 66.566444 -3.174877
47.571175 62.837631 -6.557182
50.523365 57.248726 -4.175072
52.783287 51.867645 -1.187019
50.893784 41.542385 2.075253
52.48444 40.50053 3.327242
52.556923 45.955856 0.040083
51.105911 44.271839 0.306839
49.198128 42.50515 0.841825
49.033916 54.270821 7.620022
50.424339 51.525711 8.702747
48.842583 52.882248 10.385209
46.10173 58.496719 8.569998
46.156059 59.948723 5.767693
47.599457 57.083847 6.636743
49.21418 55.597275 4.893744
44.680553 66.71032 -12.304174
50.65213 56.132256 -7.331806
49.872063 56.67585 -9.504318
50.595505 54.216858 -7.710747
48.345703 48.2575 -4.929871
48.633774 50.501419 -7.280508
46.865776 48.640694 -6.548836
44.776409 46.689201 -5.588024
42.571983 44.555401 -4.52323
44.100632 44.4193 -3.07531
54.121532 48.207153 2.656427
54.866409 45.542519 4.147772
54.402924 47.118088 4.939976
52.872086 46.16761 10.96876
53.843422 43.479877 11.991651
54.621525 40.733879 12.811973
53.197411 42.113209 14.27739
47.400711 51.061012 17.853722
48.479141 49.934349 15.912949
48.273987 48.370178 18.598305
49.487617 42.996387 19.855288
46.293045 62.59259 0.3042
44.695259 65.439583 -0.488325
46.27409 63.750809 -2.357887
46.137569 64.773766 -4.971905
47.794388 61.931419 -4.02725
49.128208 60.025764 -5.446899
49.335655 59.08622 -2.948349
52.187668 52.47274 2.112988
52.050011 53.545815 -0.350225
53.178299 50.862328 1.128813
53.619774 49.236572 0.446042
55.780342 40.036697 6.617798
47.848846 57.020851 -13.480118
52.046261 51.057182 -3.751574
51.034378 51.789078 -5.751032
51.230717 49.353737 -3.700119
49.816032 47.647354 -3.299397
47.927841 45.887032 -2.605169
45.744511 43.999031 -1.706253
47.010834 40.59161 1.577129
52.167847 51.325691 4.642399
53.396786 48.642746 5.969716
52.006054 50.112526 7.22681
51.72039 48.835655 9.842256
51.324974 47.492798 12.453185
44.710564 62.817429 5.003382
46.237007 61.319458 3.012003
47.840256 59.709091 1.199312
49.400986 58.020561 -0.391914
49.349297 56.851738 2.221659
50.803993 54.055511 3.376315
46.115215 56.978485 11.408318
47.411415 54.179344 12.251036
46.213799 55.405891 14.260533
46.381416 53.785728 17.094807
48.214554 61.39534 -10.213362
48.939331 56.987099 -11.564869
49.912292 52.344902 -7.687168
48.702293 52.675423 -9.550917
41.185925 44.375103 -6.044538
40.466827 42.144897 -3.49416
43.470146 41.896835 -0.717514
53.726795 44.965534 1.786997
53.877739 42.244656 3.331319
54.694599 43.919361 3.606999
55.414047 42.829643 5.502057
55.846329 41.695747 7.457454
54.451912 45.971466 7.279763
55.309006 43.271435 8.472841
55.963745 40.507114 9.442381
55.753387 39.248459 11.416742
55.220455 37.903927 13.340206
48.6591 51.436806 13.161805
49.812008 48.745773 14.103502
50.824913 46.077713 15.017756
48.971504 45.693344 19.28285
50.215656 44.581711 17.495516
51.668999 43.392387 15.830882
52.342152 40.65073 16.463953
45.373108 66.295563 -9.982391
43.006256 68.170631 -1.213892
44.344269 67.545631 -5.812847
47.17762 63.564949 -9.009121
48.760117 60.808647 -7.876961
50.127823 58.07885 -6.564802
51.278992 55.403275 -5.074032
50.760361 56.284683 -1.72031
51.746941 54.530327 -2.745548
52.209251 52.782555 -3.431257
52.918591 50.194466 -1.688112
53.417175 47.602737 0.081573
53.905552 39.411999 4.626633
46.180649 64.18695 -12.435499
45.227125 65.507035 -12.914078
45.634077 65.390236 -11.825595
47.828371 48.895561 19.57838
47.837349 49.715595 18.226014
47.391733 50.240978 19.206088
56.136893 38.009183 7.87996
55.887054 38.590551 7.015613
56.03018 39.455329 7.482145
47.220825 56.881901 -14.350119
47.53469 55.873818 -13.451311
48.688147 38.162016 3.333784
47.733755 38.647574 2.945316
51.813118 48.942402 -2.769843
51.638489 50.20546 -3.725847
52.22089 49.794124 -2.795571
49.677261 46.400643 -2.224536
50.526009 47.255356 -2.474002
48.733165 45.520482 -1.877422
48.871937 46.767193 -2.952283
49.677261 46.400643 -2.224536
47.69467 44.614702 -1.506548
48.733165 45.520482 -1.877422
47.733755 38.647574 2.945316
46.814917 39.106419 2.435073
47.929673 40.132765 2.087372
44.715736 62.085281 6.406001
44.018015 63.490017 6.065431
56.490366 35.536789 11.102232
56.330528 37.009496 10.962232
45.59684 56.802524 13.882979
46.164507 56.192188 12.834426
45.547548 57.588821 12.456871
45.983524 54.311237 18.130293
45.818191 55.162426 16.725125
46.474856 52.952697 18.484589
45.983524 54.311237 18.130293
45.547548 57.588821 12.456871
45.458034 58.39339 11.028105
49.202051 58.962193 -9.978084
48.525352 60.290329 -10.646897
48.891253 60.067203 -9.544549
49.027317 54.742981 -10.686792
48.702038 55.91087 -11.604008
49.264611 55.81921 -10.647652
47.341244 51.730851 -10.162771
48.059799 52.705418 -10.437949
47.983738 51.700856 -9.27574
46.570086 50.693973 -9.830217
47.341244 51.730851 -10.162771
43.645617 47.608483 -8.430454
44.356976 47.707268 -7.639194
42.622593 46.49239 -7.901053
43.645617 47.608483 -8.430454
42.247011 45.519919 -6.584226
41.561507 45.347574 -7.361366
42.622593 46.49239 -7.901053
40.872263 40.885996 -1.580626
40.165546 40.871222 -2.306406
41.173544 42.159672 -2.768381
44.333942 41.624271 -0.117286
44.607329 42.947933 -1.211883
45.471125 42.675369 -0.611656
55.208189 42.657019 9.567435
54.786758 44.016728 9.058571
55.535559 41.274859 10.052204
55.636375 41.889274 8.957611
55.208189 42.657019 9.567435
55.43038 40.645531 11.039385
55.858566 39.877786 10.429561
55.535559 41.274859 10.052204
54.129078 37.896527 15.032201
54.806086 37.182585 14.261114
54.543447 38.617869 14.111293
48.688999 44.87051 20.492411
48.484757 46.215706 20.232059
44.655461 67.322052 -9.180675
44.351239 67.615071 -10.40848
43.934145 65.569996 1.887021
43.978218 64.900078 3.277452
43.673439 67.907932 -3.551209
42.884442 68.710026 -2.570717
43.795254 67.368538 -2.194384
44.46426 67.056038 -4.493862
43.553448 68.397526 -4.870195
43.673439 67.907932 -3.551209
46.709598 64.235996 -7.040343
45.992795 65.204063 -6.247704
46.854372 63.805698 -5.764544
47.374398 63.20129 -7.783152
46.512821 64.599655 -8.266312
46.709598 64.235996 -7.040343
38.74422 41.443888 -5.887952
39.602531 42.826868 -6.341805
50.769566 40.097355 2.830101
49.74693 39.163123 3.091282
49.871147 40.608153 2.336434
51.564894 39.576427 3.456095
50.769566 40.097355 2.830101
51.689112 41.021457 2.701248
52.409279 39.035064 3.953235
51.489733 38.110962 4.082088
51.564894 39.576427 3.456095
51.896454 46.409607 -0.804262
52.476221 47.243461 -0.899742
51.170948 45.567599 -0.670884
51.896454 46.409607 -0.804262
51.831417 45.113847 0.173461
50.322201 44.712885 -0.421418
51.170948 45.567599 -0.670884
50.152019 43.388495 0.574332
49.368309 43.829541 -0.153925
50.322201 44.712885 -0.421418
46.128895 59.222721 7.168845
45.438484 60.650928 6.788157
45.41132 59.924926 8.189309
56.403123 34.877125 11.845757
55.954042 35.67353 12.672603
44.209951 66.768281 -13.371328
43.582448 67.981304 -12.717385
44.756523 65.564995 -13.981233
44.209951 66.768281 -13.371328
45.227125 65.507035 -12.914078
46.135814 48.695248 -7.351655
46.335518 49.738045 -8.577519
47.065479 49.683491 -7.774699
45.091131 47.719501 -6.871249
46.135814 48.695248 -7.351655
45.821092 47.664947 -6.06843
44.042254 46.676968 -6.355968
44.356976 47.707268 -7.639194
45.091131 47.719501 -6.871249
53.568298 45.464815 10.30653
53.743938 46.100256 9.054689
53.047726 46.803051 9.716919
54.053967 44.120948 10.817975
53.568298 45.464815 10.30653
53.357754 44.823744 11.480206
54.475397 42.76124 11.326839
54.053967 44.120948 10.817975
54.232473 42.106878 12.401812
54.864448 41.388241 11.737001
54.475397 42.76124 11.326839
49.061189 42.156892 20.968265
48.947056 43.522031 20.77863
49.668385 41.620178 20.059896
49.061189 42.156892 20.968265
50.340065 41.05621 19.18852
50.159298 42.432418 18.983913
49.668385 41.620178 20.059896
50.575874 39.664208 19.396589
51.066788 40.476448 18.320606
50.340065 41.05621 19.18852
55.437412 39.16484 6.303408
55.029629 39.725582 5.464593
55.372558 40.597438 5.778982
55.437412 39.16484 6.303408
55.887054 38.590551 7.015613
47.32759 58.135818 -14.249028
47.884613 58.195458 -13.310468
47.32759 58.135818 -14.249028
47.220825 56.881901 -14.350119
38.167784 39.101917 -3.469444
38.46722 40.306736 -4.68048
38.951963 40.582229 -3.848485
48.688147 38.162016 3.333784
49.74693 39.163123 3.091282
51.233351 48.108548 -2.674363
51.813118 48.942402 -2.769843
50.523375 48.500546 -3.499758
51.233351 48.108548 -2.674363
50.526009 47.255356 -2.474002
46.603004 43.670702 -1.05709
46.836176 44.943032 -2.155711
47.69467 44.614702 -1.506548
45.471125 42.675369 -0.611656
46.603004 43.670702 -1.05709
48.329813 42.923761 0.216949
49.368309 43.829541 -0.153925
47.236166 41.966992 0.584601
48.329813 42.923761 0.216949
48.104481 41.54838 1.209477
46.104287 40.971659 1.030035
47.236166 41.966992 0.584601
45.873913 39.524325 1.998359
46.104287 40.971659 1.030035
45.873913 39.524325 1.998359
46.814917 39.106419 2.435073
43.973298 64.216435 4.660204
44.018015 63.490017 6.065431
44.715485 63.501072 3.62063
43.978218 64.900078 3.277452
43.973298 64.216435 4.660204
45.433312 61.383076 5.385537
44.715736 62.085281 6.406001
45.438484 60.650928 6.788157
56.418169 37.414805 8.615182
56.356472 38.264694 9.220964
56.490366 35.536789 11.102232
56.403123 34.877125 11.845757
45.734383 55.972507 15.307989
45.59684 56.802524 13.882979
46.297607 54.59581 15.67767
45.734383 55.972507 15.307989
45.818191 55.162426 16.725125
46.984503 51.590339 18.864047
46.891064 52.42337 17.474265
46.474856 52.952697 18.484589
47.391733 50.240978 19.206088
46.984503 51.590339 18.864047
45.451292 59.152507 9.608945
45.41132 59.924926 8.189309
46.108473 57.737602 9.989158
45.451292 59.152507 9.608945
45.458034 58.39339 11.028105
47.843441 61.56718 -11.315262
47.029964 62.904586 -11.882089
47.401077 62.732746 -10.780189
47.843441 61.56718 -11.315262
48.525352 60.290329 -10.646897
49.354107 57.930584 -10.292375
49.202051 58.962193 -9.978084
49.720007 57.707459 -9.190027
48.887741 58.086208 -11.32265
49.354107 57.930584 -10.292375
49.405697 56.831474 -10.534593
48.429856 58.178581 -12.352843
48.887741 58.086208 -11.32265
48.394089 57.003975 -12.522493
47.884613 58.195458 -13.310468
48.429856 58.178581 -12.352843
48.156796 55.927746 -12.561633
48.394089 57.003975 -12.522493
48.702038 55.91087 -11.604008
47.53469 55.873818 -13.451311
48.156796 55.927746 -12.561633
48.583519 53.755032 -10.597033
49.027317 54.742981 -10.686792
49.146091 53.663372 -9.640676
48.583519 53.755032 -10.597033
48.059799 52.705418 -10.437949
46.570086 50.693973 -9.830217
46.335518 49.738045 -8.577519
40.569794 44.120896 -6.834313
41.561507 45.347574 -7.361366
40.218662 43.081075 -5.552029
39.602531 42.826868 -6.341805
40.569794 44.120896 -6.834313
39.559677 40.761154 -3.065805
38.951963 40.582229 -3.848485
39.859113 41.965972 -4.276841
39.559677 40.761154 -3.065805
40.165546 40.871222 -2.306406
43.208282 40.49856 0.345604
44.333942 41.624271 -0.117286
42.388159 40.696203 -0.242418
43.208282 40.49856 0.345604
41.593215 40.835009 -0.904961
42.675203 42.03564 -1.380057
42.388159 40.696203 -0.242418
40.872263 40.885996 -1.580626
41.593215 40.835009 -0.904961
54.358211 45.366743 8.462032
53.837639 46.704979 7.872421
53.743938 46.100256 9.054689
54.880459 44.62145 7.876302
54.358211 45.366743 8.462032
54.786758 44.016728 9.058571
56.198335 39.08127 9.768909
56.356472 38.264694 9.220964
56.121882 39.690538 8.894436
56.093156 38.451943 10.756089
56.198335 39.08127 9.768909
55.858566 39.877786 10.429561
55.990758 37.806013 11.622885
56.330528 37.009496 10.962232
56.093156 38.451943 10.756089
55.187456 39.991169 12.114358
55.43038 40.645531 11.039385
54.864448 41.388241 11.737001
55.450205 36.443711 13.428192
55.954042 35.67353 12.672603
55.724293 37.133747 12.584617
55.450205 36.443711 13.428192
54.806086 37.182585 14.261114
48.135998 47.554123 19.889786
47.828371 48.895561 19.57838
48.622746 47.031761 18.940577
48.135998 47.554123 19.889786
48.484757 46.215706 20.232059
49.229561 44.344865 19.569069
48.688999 44.87051 20.492411
48.947056 43.522031 20.77863
51.822374 39.867588 17.496314
51.586565 41.25959 17.288245
51.066788 40.476448 18.320606
52.607394 39.238611 16.655003
51.822374 39.867588 17.496314
53.369537 38.579151 15.864216
53.104296 39.99127 15.673166
52.607394 39.238611 16.655003
54.129078 37.896527 15.032201
53.369537 38.579151 15.864216
44.004961 67.822449 -11.569371
43.582448 67.981304 -12.717385
45.026831 66.502941 -11.143282
44.004961 67.822449 -11.569371
44.351239 67.615071 -10.40848
43.921571 66.197429 0.52392
43.934145 65.569996 1.887021
44.707832 64.812149 0.874776
43.07707 67.562953 0.161137
43.921571 66.197429 0.52392
43.850758 66.805107 -0.851109
42.233231 68.859291 -0.171878
43.07707 67.562953 0.161137
42.086975 69.439544 -1.561577
42.233231 68.859291 -0.171878
42.086975 69.439544 -1.561577
42.884442 68.710026 -2.570717
43.359951 68.859383 -6.200435
43.553448 68.397526 -4.870195
44.141041 67.947086 -7.095903
43.359951 68.859383 -6.200435
45.096145 66.589996 -6.668176
45.240919 66.159698 -5.392376
45.992795 65.204063 -6.247704
44.141041 67.947086 -7.095903
45.096145 66.589996 -6.668176
45.610565 65.964962 -8.752947
44.655461 67.322052 -9.180675
46.275364 64.930256 -9.495756
45.610565 65.964962 -8.752947
46.512821 64.599655 -8.266312
52.657055 49.362766 -1.76384
52.22089 49.794124 -2.795571
52.482426 50.625824 -2.719843
52.906347 48.066902 -0.878997
52.657055 49.362766 -1.76384
53.167883 48.898601 -0.80327
52.987049 46.779297 0.060828
52.476221 47.243461 -0.899742
52.906347 48.066902 -0.878997
53.119835 38.490799 4.60293
52.409279 39.035064 3.953235
53.194996 39.956265 3.976938
54.500017 38.852491 5.307826
54.435164 40.285089 4.7834
55.029629 39.725582 5.464593
53.876513 37.932579 5.119315
54.500017 38.852491 5.307826
53.119835 38.490799 4.60293
53.876513 37.932579 5.119315
56.136893 38.009183 7.87996
56.418169 37.414805 8.615182
46.623013 63.021385 -12.970572
46.180649 64.18695 -12.435499
47.029964 62.904586 -11.882089
37.960041 39.963576 -5.508911
38.74422 41.443888 -5.887952
38.46722 40.306736 -4.68048
3 0 36 35
3 0 38 37
3 0 35 38
3 1 42 40
3 1 45 43
3 1 40 45
3 2 140 142
3 142 141 47
3 140 141 142
3 3 50 48
3 4 53 51
3 4 54 53
3 4 56 54
3 5 59 57
3 7 61 60
3 7 63 61
3 143 66 144
3 145 144 64
3 143 144 145
3 8 70 68
3 8 72 70
3 8 74 72
3 5 77 75
3 5 57 77
3 6 146 148
3 148 147 79
3 146 147 148
3 150 149 80
3 9 151 152
3 153 83 154
3 155 154 81
3 153 154 155
3 156 84 157
3 158 85 159
3 160 159 84
3 158 159 160
3 162 161 85
3 9 87 39
3 9 163 165
3 165 164 87
3 163 164 165
3 11 90 88
3 13 91 41
3 13 92 91
3 166 93 167
3 15 94 44
3 15 95 94
3 15 97 95
3 11 98 46
3 11 88 98
3 17 168 169
3 170 101 171
3 172 171 99
3 170 171 172
3 173 102 174
3 176 175 102
3 177 99 178
3 19 179 181
3 181 180 103
3 179 180 181
3 20 104 49
3 20 182 184
3 184 183 104
3 182 183 184
3 10 105 82
3 21 106 52
3 21 185 187
3 187 186 106
3 185 186 187
3 21 188 189
3 22 190 191
3 22 192 193
3 22 194 196
3 194 107 195
3 194 195 196
3 24 108 55
3 24 197 199
3 199 198 108
3 197 198 199
3 200 109 201
3 202 201 86
3 200 201 202
3 25 112 110
3 27 113 58
3 27 114 113
3 12 115 89
3 203 116 204
3 205 117 206
3 207 206 116
3 205 206 207
3 208 118 209
3 210 209 117
3 208 209 210
3 28 119 62
3 28 211 213
3 213 212 119
3 211 212 213
3 18 120 100
3 29 121 65
3 29 122 121
3 214 123 215
3 30 124 67
3 30 125 124
3 30 126 125
3 216 127 217
3 14 218 219
3 31 128 69
3 31 220 222
3 222 221 128
3 220 221 222
3 31 223 225
3 223 129 224
3 223 224 225
3 32 226 228
3 228 227 71
3 226 227 228
3 32 229 231
3 229 130 230
3 229 230 231
3 32 131 130
3 33 132 73
3 33 133 132
3 16 134 96
3 34 135 76
3 34 136 135
3 34 137 136
3 25 138 78
3 25 110 138
3 26 139 111
3 23 232 233
3 35 234 236
3 236 235 9
3 234 235 236
3 36 237 239
3 239 238 35
3 237 238 239
3 36 240 242
3 240 241 242
3 37 243 244
3 38 245 247
3 247 246 37
3 245 246 247
3 38 248 249
3 38 250 252
3 250 39 251
3 250 251 252
3 35 39 38
3 35 9 39
3 40 41 11
3 42 41 40
3 42 13 41
3 43 253 255
3 253 44 254
3 253 254 255
3 45 44 43
3 45 15 44
3 45 46 15
3 40 46 45
3 40 11 46
3 257 256 17
3 47 258 259
3 262 261 47
3 260 261 262
3 48 49 19
3 50 49 48
3 50 20 49
3 51 52 10
3 53 52 51
3 53 21 52
3 53 263 265
3 265 264 21
3 263 264 265
3 54 266 268
3 268 267 53
3 266 267 268
3 54 269 271
3 269 22 270
3 269 270 271
3 54 55 22
3 56 55 54
3 56 24 55
3 57 58 25
3 59 58 57
3 59 27 58
3 60 272 274
3 274 273 12
3 272 273 274
3 61 275 277
3 277 276 60
3 275 276 277
3 61 278 279
3 61 280 282
3 280 62 281
3 280 281 282
3 63 62 61
3 63 28 62
3 64 65 18
3 66 65 64
3 66 29 65
3 283 67 284
3 285 67 286
3 287 30 288
3 289 288 67
3 287 288 289
3 292 291 30
3 290 291 292
3 68 69 14
3 70 69 68
3 70 31 69
3 70 71 31
3 72 71 70
3 72 32 71
3 72 73 32
3 74 73 72
3 74 33 73
3 75 76 16
3 77 76 75
3 77 34 76
3 77 78 34
3 57 78 77
3 57 25 78
3 79 293 295
3 295 294 26
3 293 294 295
3 297 296 79
3 80 298 299
3 301 300 80
3 304 303 23
3 302 303 304
3 306 305 9
3 81 82 3
3 83 82 81
3 83 10 82
3 307 83 308
3 84 309 311
3 309 83 310
3 309 310 311
3 84 10 83
3 84 51 10
3 85 51 84
3 85 4 51
3 85 86 4
3 312 86 313
3 314 313 85
3 312 313 314
3 316 315 86
3 39 317 318
3 87 319 321
3 321 320 39
3 319 320 321
3 87 322 323
3 87 324 325
3 327 326 87
3 88 89 5
3 90 89 88
3 90 12 89
3 41 90 11
3 91 90 41
3 91 12 90
3 91 60 12
3 92 60 91
3 92 7 60
3 93 328 329
3 93 330 332
3 330 14 331
3 330 331 332
3 44 333 335
3 333 93 334
3 333 334 335
3 94 93 44
3 94 14 93
3 94 68 14
3 95 68 94
3 95 8 68
3 95 96 8
3 97 96 95
3 97 16 96
3 46 97 15
3 98 97 46
3 98 16 97
3 98 75 16
3 88 75 98
3 88 5 75
3 337 336 6
3 339 338 17
3 99 100 1
3 101 100 99
3 101 18 100
3 340 101 341
3 102 342 344
3 342 101 343
3 342 343 344
3 102 18 101
3 102 64 18
3 345 64 346
3 347 346 102
3 345 346 347
3 349 348 64
3 350 43 351
3 99 352 354
3 352 43 353
3 352 353 354
3 99 1 43
3 103 355 357
3 357 356 2
3 355 356 357
3 359 358 103
3 49 360 362
3 362 361 19
3 360 361 362
3 104 363 365
3 365 364 49
3 363 364 365
3 104 366 367
3 104 368 370
3 368 80 369
3 368 369 370
3 371 80 372
3 373 372 104
3 371 372 373
3 375 374 80
3 82 50 3
3 105 50 82
3 105 20 50
3 52 105 10
3 106 105 52
3 106 20 105
3 106 376 378
3 378 377 20
3 376 377 378
3 380 379 106
3 382 381 21
3 107 383 384
3 107 385 387
3 385 23 386
3 385 386 387
3 55 107 22
3 108 107 55
3 108 23 107
3 108 388 390
3 390 389 23
3 388 389 390
3 392 391 108
3 86 56 4
3 109 56 86
3 109 24 56
3 393 109 394
3 395 109 396
3 397 24 398
3 399 398 109
3 397 398 399
3 401 400 24
3 110 111 0
3 112 111 110
3 112 26 111
3 58 112 25
3 113 112 58
3 113 26 112
3 113 79 26
3 114 79 113
3 114 6 79
3 89 59 5
3 115 59 89
3 115 27 59
3 402 115 403
3 404 403 12
3 402 403 404
3 116 405 407
3 405 115 406
3 405 406 407
3 116 27 115
3 116 114 27
3 117 114 116
3 117 6 114
3 117 408 410
3 410 409 6
3 408 409 410
3 118 411 413
3 413 412 117
3 411 412 413
3 118 414 416
3 414 17 415
3 414 415 416
3 62 417 419
3 417 118 418
3 417 418 419
3 119 118 62
3 119 17 118
3 119 420 422
3 422 421 17
3 420 421 422
3 424 423 119
3 100 42 1
3 120 42 100
3 120 13 42
3 65 120 18
3 121 120 65
3 121 13 120
3 121 92 13
3 122 92 121
3 122 7 92
3 425 66 426
3 123 427 429
3 427 66 428
3 427 428 429
3 123 29 66
3 67 430 432
3 430 123 431
3 430 431 432
3 124 123 67
3 124 29 123
3 124 122 29
3 125 122 124
3 125 7 122
3 125 63 7
3 126 63 125
3 126 28 63
3 433 126 434
3 435 434 30
3 433 434 435
3 436 126 437
3 438 28 439
3 440 439 126
3 438 439 440
3 442 441 28
3 443 47 444
3 127 445 447
3 445 47 446
3 445 446 447
3 127 2 47
3 69 448 450
3 450 449 14
3 448 449 450
3 128 451 453
3 453 452 69
3 451 452 453
3 128 454 455
3 128 456 457
3 459 458 128
3 129 460 461
3 129 462 463
3 71 129 31
3 464 129 465
3 466 465 71
3 464 465 466
3 468 467 129
3 469 127 470
3 130 471 473
3 471 127 472
3 471 472 473
3 130 2 127
3 130 103 2
3 131 103 130
3 131 19 103
3 73 131 32
3 132 131 73
3 132 19 131
3 132 48 19
3 133 48 132
3 133 3 48
3 96 74 8
3 134 74 96
3 134 33 74
3 76 134 16
3 135 134 76
3 135 33 134
3 135 133 33
3 136 133 135
3 136 3 133
3 136 81 3
3 137 81 136
3 137 474 476
3 476 475 81
3 474 475 476
3 78 137 34
3 138 137 78
3 138 477 479
3 479 478 137
3 477 478 479
3 138 480 482
3 480 37 481
3 480 481 482
3 110 37 138
3 110 0 37
3 111 36 0
3 139 36 111
3 139 483 485
3 485 484 36
3 483 484 485
3 486 139 487
3 488 487 26
3 486 487 488
3 489 139 490
3 492 491 139
3 494 493 6
3 497 496 2
3 495 496 497
3 500 499 23
3 498 499 500
