ply
format ascii 1.0
element vertex 415
property float x
property float y
property float z
element face 433
property list uchar int vertex_index
end_header
6.655773 38.4352 -33.075203
9.998684 64.695969 -32.218971
12.213037 23.880409 -29.976263
21.493032 61.556236 -26.877401
10.181911 84.713005 -20.462393
4.757772 75.901688 -29.055029
6.982426 51.358734 -35.054306
12.271032 37.570675 -33.429329
15.316761 50.134987 -32.290161
19.201355 22.955685 -31.11706
8.688526 25.002655 -29.800325
8.796366 31.982243 -31.630175
12.87849 80.914307 -23.85359
8.141315 58.196533 -34.319084
10.78145 51.227997 -34.149879
12.738132 57.546776 -32.395973
23.802834 54.215355 -27.296793
7.216644 70.983757 -31.282473
3.086376 69.406929 -32.155785
5.466129 64.404495 -33.815689
4.368822 57.214745 -35.105469
16.10141 36.717701 -32.892197
15.427614 30.164825 -32.199768
12.584885 70.618546 -29.207952
15.429079 63.52523 -29.645628
18.843212 68.926353 -26.538965
7.108955 81.16304 -25.087946
9.683651 76.644913 -27.864344
6.518005 44.444134 -34.396523
9.027424 38.302338 -33.35778
9.569941 44.743111 -34.426636
13.367311 43.953384 -33.640076
17.804625 42.921249 -32.105316
18.050085 56.042389 -29.78583
20.427177 48.770393 -30.007582
11.956772 30.949566 -31.949911
15.703634 23.198959 -30.574759
6.233368 36.456371 -32.526421
7.534086 35.618519 -32.440895
8.981756 61.501335 -33.416382
10.340996 58.025032 -33.485756
11.387236 61.190804 -32.368233
8.595028 67.984352 -31.880869
6.256516 67.785316 -32.683479
7.607719 64.777328 -33.17112
6.793848 61.425629 -34.180611
10.456635 24.381584 -29.81143
10.628805 20.576302 -28.91482
12.501053 20.123444 -29.038218
14.334654 19.782803 -29.311563
14.158823 73.252342 -27.514059
15.629454 69.89743 -27.894617
8.560108 83.179199 -22.847372
11.196547 78.986122 -25.922251
12.66604 76.301247 -26.880774
11.121744 73.801521 -28.68799
6.664667 47.884926 -34.875374
7.945538 44.801136 -34.501457
8.280073 48.133125 -34.794266
12.961613 50.748764 -33.316757
12.071104 47.60408 -33.92662
14.238256 47.07238 -33.149193
15.519213 43.433662 -32.942619
16.564613 46.484665 -32.208488
18.402897 62.607178 -28.228994
16.770187 59.789673 -29.720392
19.686726 58.857887 -28.337595
22.029835 51.546295 -28.678621
21.522522 45.319016 -30.146544
5.67098 54.396614 -35.174988
5.365828 50.768097 -35.127563
5.240414 47.108398 -34.752869
10.569931 37.984512 -33.451691
10.402294 34.736195 -32.682198
12.028358 34.299438 -32.804504
17.240803 26.508259 -31.600164
15.459693 26.7374 -31.449488
17.450806 23.020195 -30.879213
7.075672 29.403954 -30.789343
8.715685 28.623184 -30.70503
10.36167 27.99696 -30.778658
11.458603 82.998505 -22.355165
7.474808 54.807175 -34.87339
8.787592 51.471138 -34.73407
9.474504 54.777267 -34.292099
11.667387 54.418701 -33.437729
14.045723 53.839447 -32.357559
5.917662 73.635696 -30.357504
4.981863 70.46714 -31.887602
4.209927 67.078972 -33.159874
3.59141 63.507164 -34.135635
4.837427 60.873352 -34.634338
6.148441 57.957581 -34.858925
14.11977 37.129356 -33.246704
13.774815 33.870403 -32.828796
15.635705 33.488071 -32.711464
11.197897 67.748833 -30.793974
12.615635 64.248375 -31.01362
14.029764 67.164825 -29.50017
17.048855 66.317917 -28.105322
20.208138 65.28138 -26.725012
22.168144 67.770897 -25.247889
23.454456 64.10923 -25.460531
5.842043 78.716393 -27.165022
9.807915 81.278687 -24.586138
8.326233 79.104347 -26.676344
7.029306 76.534935 -28.608839
8.356434 73.955803 -29.661715
9.764191 71.008995 -30.368395
6.528809 41.16338 -33.729805
7.677013 38.461861 -33.210693
7.762884 41.540043 -33.933533
9.229492 41.500618 -34.023712
10.884567 41.210995 -33.967842
10.082851 47.995193 -34.482292
11.37953 44.420471 -34.142982
12.712152 40.785751 -33.728531
14.700785 40.314831 -33.29512
16.827894 39.861485 -32.690514
13.99194 60.590721 -31.102583
15.316752 56.859398 -31.127234
16.590883 53.129555 -31.136797
20.897648 55.150772 -28.481234
19.26923 52.353035 -29.879332
17.820286 49.46096 -31.156351
19.011919 45.89315 -31.183443
5.306242 43.476582 -34.126823
8.901052 35.158146 -32.532127
10.341623 31.429508 -31.760435
12.026258 27.486858 -30.973623
13.650898 30.522949 -32.118233
13.722416 27.067181 -31.221453
13.959747 23.487309 -30.252279
15.781337 72.822392 -26.877086
15.032308 74.420124 -26.628777
9.638578 85.402752 -19.327393
11.062685 85.224392 -19.20492
8.842648 84.710422 -20.587418
9.638578 85.402752 -19.327393
9.371009 83.946102 -21.654882
8.031747 83.94352 -21.779907
8.842648 84.710422 -20.587418
14.285916 75.944577 -26.312134
13.523519 77.371548 -25.9251
15.032308 74.420124 -26.628777
13.412432 74.776794 -27.197416
14.285916 75.944577 -26.312134
3.828753 75.303143 -29.115307
4.274644 76.834125 -28.202252
19.396201 21.200815 -30.814281
18.520927 21.233071 -30.695358
18.32608 22.98794 -30.998137
6.439718 31.538155 -31.297701
6.258382 29.876103 -30.899919
8.756025 30.302713 -31.167603
8.006272 30.661693 -31.170347
8.046613 32.341223 -31.632919
8.710575 23.073025 -29.377405
7.803209 25.377275 -29.870976
10.753256 18.598499 -28.520399
11.753433 18.40898 -28.564392
23.855131 67.123646 -24.675631
23.207798 68.896664 -24.523531
24.498287 65.292812 -24.781952
22.8113 65.940064 -25.35421
23.855131 67.123646 -24.675631
25.089963 63.472297 -24.918776
24.498287 65.292812 -24.781952
5.978331 80.828861 -25.200685
6.596303 81.995384 -24.090503
6.475499 79.939717 -26.126484
5.344876 79.605537 -26.239224
5.978331 80.828861 -25.200685
18.428512 41.189816 -32.032485
17.940147 39.659934 -32.325084
17.31626 41.391367 -32.397915
22.350241 54.683064 -27.889014
21.795898 56.496811 -27.769316
23.248491 56.029103 -27.177096
20.847883 43.88123 -30.669418
22.040073 43.659098 -30.199284
2.619967 70.385044 -31.460109
3.465331 71.093872 -31.442495
3.589349 56.558022 -35.09095
3.745934 58.49527 -34.943444
15.914734 21.376529 -30.131377
15.042791 21.520705 -29.970137
14.831691 23.343134 -30.413519
6.765114 34.578287 -32.081042
6.018566 35.064363 -32.16624
7.415473 34.159361 -32.03828
6.765114 34.578287 -32.081042
6.883727 36.037445 -32.483658
8.165226 33.800381 -32.035535
8.046613 32.341223 -31.632919
7.415473 34.159361 -32.03828
16.847065 34.950115 -32.666333
17.143587 36.543894 -32.63794
12.689557 18.18255 -28.626091
11.753433 18.40898 -28.564392
11.564929 20.349873 -28.976519
13.661696 18.04938 -28.755867
12.689557 18.18255 -28.626091
14.578496 17.879059 -28.892539
13.661696 18.04938 -28.755867
13.417853 19.953124 -29.174891
15.51344 17.80332 -29.095735
14.578496 17.879059 -28.892539
16.516652 71.144936 -27.067366
14.894139 71.574886 -27.704338
15.781337 72.822392 -26.877086
18.123531 70.659397 -26.389539
17.236333 69.411891 -27.216791
16.516652 71.144936 -27.067366
7.321879 83.003463 -22.970216
8.031747 83.94352 -21.779907
7.834531 82.17112 -23.967659
6.596303 81.995384 -24.090503
7.321879 83.003463 -22.970216
12.788772 78.713986 -25.445839
12.037519 79.950214 -24.88792
13.629744 79.678078 -24.411509
11.931294 77.643685 -26.401512
12.788772 78.713986 -25.445839
13.523519 77.371548 -25.9251
23.416846 51.134563 -28.134515
22.916334 52.880825 -27.987707
24.303346 52.469093 -27.443601
22.551865 49.812962 -28.79587
23.416846 51.134563 -28.134515
21.750536 48.42501 -29.46035
21.228506 50.158344 -29.343101
22.551865 49.812962 -28.79587
22.298209 46.699322 -29.529831
20.974849 47.044704 -30.077063
21.750536 48.42501 -29.46035
22.772467 45.038992 -29.642744
22.298209 46.699322 -29.529831
22.040073 43.659098 -30.199284
22.772467 45.038992 -29.642744
2.311951 68.595639 -32.121998
2.778948 67.613259 -32.728863
4.868368 53.922321 -35.19553
4.217289 55.331387 -35.16077
5.019901 55.805679 -35.140228
4.715792 52.108063 -35.171818
4.868368 53.922321 -35.19553
5.518404 52.582355 -35.151275
4.652986 50.181522 -35.05444
4.715792 52.108063 -35.171818
5.303121 48.938248 -34.940216
4.590279 48.351673 -34.867092
4.652986 50.181522 -35.05444
17.663866 21.230415 -30.49295
16.79028 21.319797 -30.340723
16.57722 23.109577 -30.726986
17.663866 21.230415 -30.49295
18.520927 21.233071 -30.695358
6.996781 27.577925 -30.365485
6.258382 29.876103 -30.899919
7.882099 27.203305 -30.294834
7.803209 25.377275 -29.870976
6.996781 27.577925 -30.365485
7.186266 31.052079 -31.212503
6.439718 31.538155 -31.297701
7.895679 29.013569 -30.747186
7.186266 31.052079 -31.212503
8.006272 30.661693 -31.170347
11.713919 84.46698 -20.227936
11.062685 85.224392 -19.20492
12.594693 84.978367 -18.970463
12.352265 83.60973 -21.174322
10.820257 83.855755 -21.408779
11.713919 84.46698 -20.227936
13.077133 82.687107 -22.009611
12.352265 83.60973 -21.174322
13.787076 81.645008 -22.758823
12.168546 81.956406 -23.104377
13.077133 82.687107 -22.009611
14.555654 80.537521 -23.405882
13.787076 81.645008 -22.758823
13.629744 79.678078 -24.411509
14.555654 80.537521 -23.405882
22.09359 59.699543 -26.967399
23.068886 60.98468 -26.277771
24.766312 55.493199 -26.62055
23.248491 56.029103 -27.177096
25.247056 53.731945 -26.782017
24.766312 55.493199 -26.62055
26.210534 55.009788 -26.105774
24.303346 52.469093 -27.443601
25.247056 53.731945 -26.782017
4.880974 73.208256 -30.543354
4.301029 74.341251 -29.892117
5.337717 74.768692 -29.706266
4.413074 71.623977 -31.308403
4.880974 73.208256 -30.543354
5.449763 72.051418 -31.122553
4.03412 69.937035 -32.021693
3.465331 71.093872 -31.442495
4.413074 71.623977 -31.308403
3.340723 66.44928 -33.230908
2.778948 67.613259 -32.728863
3.648151 68.242951 -32.65783
3.031465 64.663376 -33.718788
3.340723 66.44928 -33.230908
3.900669 65.293068 -33.647755
2.792928 62.775978 -34.136246
3.031465 64.663376 -33.718788
3.357229 61.64148 -34.458527
2.792928 62.775978 -34.136246
3.980237 60.324573 -34.707878
3.357229 61.64148 -34.458527
4.214418 62.190258 -34.384986
4.603124 59.044049 -34.869903
3.745934 58.49527 -34.943444
3.980237 60.324573 -34.707878
16.614213 33.3353 -32.575966
15.868558 35.102886 -32.801831
16.847065 34.950115 -32.666333
16.458088 31.691988 -32.433396
16.614213 33.3353 -32.575966
16.354043 30.030365 -32.177548
15.531659 31.826448 -32.455616
16.458088 31.691988 -32.433396
17.260638 28.202082 -31.877745
16.334208 28.336542 -31.899966
16.354043 30.030365 -32.177548
18.14891 26.447531 -31.620174
17.260638 28.202082 -31.877745
19.129186 24.671244 -31.378622
18.221079 24.731972 -31.358612
18.14891 26.447531 -31.620174
9.680715 20.859848 -28.934652
8.710575 23.073025 -29.377405
9.658665 22.789479 -29.357572
9.680715 20.859848 -28.934652
10.753256 18.598499 -28.520399
19.816351 70.111645 -25.755242
18.123531 70.659397 -26.389539
21.478817 69.533917 -25.109704
23.207798 68.896664 -24.523531
20.505678 68.348625 -25.893427
19.816351 70.111645 -25.755242
21.478817 69.533917 -25.109704
24.049599 62.261177 -25.569336
23.068886 60.98468 -26.277771
22.473744 62.832733 -26.168966
24.049599 62.261177 -25.569336
25.089963 63.472297 -24.918776
4.81678 78.241478 -27.257248
5.344876 79.605537 -26.239224
5.299907 77.30904 -28.110025
4.274644 76.834125 -28.202252
4.81678 78.241478 -27.257248
17.506829 38.115786 -32.537098
17.143587 36.543894 -32.63794
16.464652 38.289593 -32.791356
17.506829 38.115786 -32.537098
17.940147 39.659934 -32.325084
21.190437 58.350369 -27.697496
20.589879 60.207061 -27.607498
22.09359 59.699543 -26.967399
20.292187 57.004329 -28.409415
21.190437 58.350369 -27.697496
21.795898 56.496811 -27.769316
19.592582 44.168296 -31.187868
20.267221 45.606083 -30.664994
20.847883 43.88123 -30.669418
18.988934 42.682346 -31.648805
18.408272 44.4072 -31.644379
19.592582 44.168296 -31.187868
18.428512 41.189816 -32.032485
18.988934 42.682346 -31.648805
3.828753 75.303143 -29.115307
4.301029 74.341251 -29.892117
2.619967 70.385044 -31.460109
2.311951 68.595639 -32.121998
3.589349 56.558022 -35.09095
4.217289 55.331387 -35.16077
4.625537 46.396133 -34.60051
4.590279 48.351673 -34.867092
4.658451 44.580225 -34.287487
4.625537 46.396133 -34.60051
5.273328 45.29249 -34.439846
4.80693 42.61047 -33.908703
4.658451 44.580225 -34.287487
5.449404 41.716276 -33.742325
4.80693 42.61047 -33.908703
6.060688 40.559675 -33.543816
5.449404 41.716276 -33.742325
5.917525 42.319981 -33.928314
6.592291 39.79929 -33.402504
6.124169 39.195585 -33.216515
6.060688 40.559675 -33.543816
5.559749 37.111217 -32.657876
6.018566 35.064363 -32.16624
5.912967 38.206171 -32.942124
5.559749 37.111217 -32.657876
6.124169 39.195585 -33.216515
6.44457 37.445785 -32.800812
5.912967 38.206171 -32.942124
15.230244 19.668451 -29.499778
14.147201 21.635056 -29.781921
15.042791 21.520705 -29.970137
15.51344 17.80332 -29.095735
15.230244 19.668451 -29.499778
15.914734 21.376529 -30.131377
16.79028 21.319797 -30.340723
20.073803 22.97863 -31.189218
19.129186 24.671244 -31.378622
20.234634 21.261934 -30.9899
20.073803 22.97863 -31.189218
19.396201 21.200815 -30.814281
20.234634 21.261934 -30.9899
3 0 38 37
3 1 41 39
3 1 44 42
3 1 39 44
3 2 48 46
3 2 49 48
3 134 133 50
3 4 135 136
3 4 137 138
3 4 139 141
3 139 52 140
3 139 140 141
3 142 54 143
3 144 50 145
3 146 145 54
3 144 145 146
3 6 58 56
3 8 61 59
3 8 63 61
3 3 66 64
3 5 147 148
3 6 70 69
3 6 56 70
3 7 74 72
3 9 77 75
3 9 149 151
3 151 150 77
3 149 150 151
3 152 78 153
3 11 154 156
3 154 79 155
3 154 155 156
3 11 80 79
3 13 84 82
3 15 85 40
3 15 86 85
3 17 88 87
3 19 89 43
3 19 90 89
3 19 91 90
3 13 92 45
3 13 82 92
3 21 95 93
3 10 157 158
3 160 159 47
3 23 98 96
3 25 99 51
3 25 100 99
3 161 101 162
3 163 102 164
3 165 164 101
3 163 164 165
3 167 166 102
3 26 168 169
3 26 170 172
3 170 103 171
3 170 171 172
3 12 104 81
3 27 105 53
3 27 106 105
3 27 107 106
3 23 108 55
3 23 96 108
3 28 111 109
3 30 112 57
3 30 113 112
3 14 114 83
3 31 115 60
3 31 116 115
3 31 117 116
3 32 118 62
3 32 173 175
3 175 174 118
3 173 174 175
3 24 119 97
3 33 120 65
3 33 121 120
3 16 176 178
3 176 122 177
3 176 177 178
3 34 123 67
3 34 124 123
3 34 125 124
3 180 179 68
3 18 181 182
3 20 183 184
3 28 126 71
3 28 109 126
3 29 127 110
3 35 128 73
3 35 129 128
3 22 130 94
3 36 131 76
3 36 132 131
3 36 185 187
3 187 186 132
3 185 186 187
3 37 188 189
3 38 190 192
3 192 191 37
3 190 191 192
3 38 193 195
3 193 11 194
3 193 194 195
3 39 40 13
3 41 40 39
3 41 15 40
3 42 43 17
3 44 43 42
3 44 19 43
3 44 45 19
3 39 45 44
3 39 13 45
3 197 196 21
3 46 47 10
3 48 47 46
3 48 198 200
3 200 199 47
3 198 199 200
3 48 201 202
3 49 203 205
3 205 204 48
3 203 204 205
3 49 206 207
3 50 51 23
3 208 51 209
3 210 209 50
3 208 209 210
3 211 25 212
3 213 212 51
3 211 212 213
3 52 214 215
3 52 216 218
3 216 26 217
3 216 217 218
3 219 53 220
3 221 220 12
3 219 220 221
3 54 222 224
3 222 53 223
3 222 223 224
3 54 27 53
3 54 55 27
3 50 55 54
3 50 23 55
3 56 57 28
3 58 57 56
3 58 30 57
3 59 60 14
3 61 60 59
3 61 31 60
3 61 62 31
3 63 62 61
3 63 32 62
3 64 65 24
3 66 65 64
3 66 33 65
3 225 67 226
3 227 226 16
3 225 226 227
3 228 67 229
3 230 34 231
3 232 231 67
3 230 231 232
3 233 68 234
3 235 234 34
3 233 234 235
3 236 68 237
3 239 238 68
3 241 240 18
3 69 242 244
3 244 243 20
3 242 243 244
3 70 245 247
3 247 246 69
3 245 246 247
3 70 248 249
3 70 250 252
3 250 71 251
3 250 251 252
3 56 71 70
3 56 28 71
3 72 73 29
3 74 73 72
3 74 35 73
3 75 76 22
3 77 76 75
3 77 36 76
3 77 253 255
3 255 254 36
3 253 254 255
3 257 256 77
3 78 258 259
3 78 260 262
3 260 10 261
3 260 261 262
3 263 78 264
3 79 265 267
3 265 78 266
3 265 266 267
3 79 10 78
3 79 46 10
3 80 46 79
3 80 2 46
3 268 4 269
3 268 269 270
3 271 81 272
3 273 272 4
3 271 272 273
3 274 81 275
3 276 12 277
3 278 277 81
3 276 277 278
3 279 12 280
3 282 281 12
3 82 83 6
3 84 83 82
3 84 14 83
3 40 84 13
3 85 84 40
3 85 14 84
3 85 59 14
3 86 59 85
3 86 8 59
3 284 283 3
3 285 16 286
3 287 16 288
3 287 288 289
3 291 290 16
3 87 292 294
3 294 293 5
3 292 293 294
3 88 295 297
3 297 296 87
3 295 296 297
3 88 298 300
3 298 18 299
3 298 299 300
3 43 88 17
3 89 88 43
3 89 18 88
3 89 301 303
3 303 302 18
3 301 302 303
3 90 304 306
3 306 305 89
3 304 305 306
3 90 307 308
3 90 309 310
3 91 311 313
3 313 312 90
3 311 312 313
3 91 314 316
3 314 20 315
3 314 315 316
3 45 91 19
3 92 91 45
3 92 20 91
3 92 69 20
3 82 69 92
3 82 6 69
3 93 94 7
3 95 94 93
3 95 22 94
3 317 95 318
3 319 318 21
3 317 318 319
3 320 95 321
3 322 22 323
3 324 323 95
3 322 323 324
3 325 75 326
3 327 326 22
3 325 326 327
3 328 75 329
3 330 9 331
3 332 331 75
3 330 331 332
3 47 333 335
3 335 334 10
3 333 334 335
3 337 336 47
3 96 97 1
3 98 97 96
3 98 24 97
3 51 98 23
3 99 98 51
3 99 24 98
3 99 64 24
3 100 64 99
3 100 3 64
3 338 25 339
3 101 340 341
3 101 342 344
3 342 25 343
3 342 343 344
3 101 100 25
3 102 100 101
3 102 3 100
3 102 345 347
3 347 346 3
3 345 346 347
3 349 348 102
3 103 350 351
3 103 352 354
3 352 5 353
3 352 353 354
3 81 52 4
3 104 52 81
3 104 26 52
3 53 104 12
3 105 104 53
3 105 26 104
3 105 103 26
3 106 103 105
3 106 5 103
3 106 87 5
3 107 87 106
3 107 17 87
3 55 107 27
3 108 107 55
3 108 17 107
3 108 42 17
3 96 42 108
3 96 1 42
3 109 110 0
3 111 110 109
3 111 29 110
3 57 111 28
3 112 111 57
3 112 29 111
3 112 72 29
3 113 72 112
3 113 7 72
3 83 58 6
3 114 58 83
3 114 30 58
3 60 114 14
3 115 114 60
3 115 30 114
3 115 113 30
3 116 113 115
3 116 7 113
3 116 93 7
3 117 93 116
3 117 21 93
3 62 117 31
3 118 117 62
3 118 21 117
3 118 355 357
3 357 356 21
3 355 356 357
3 359 358 118
3 97 41 1
3 119 41 97
3 119 15 41
3 65 119 24
3 120 119 65
3 120 15 119
3 120 86 15
3 121 86 120
3 121 8 86
3 360 66 361
3 362 361 3
3 360 361 362
3 122 363 365
3 363 66 364
3 363 364 365
3 122 33 66
3 67 122 16
3 123 122 67
3 123 33 122
3 123 121 33
3 124 121 123
3 124 8 121
3 124 63 8
3 125 63 124
3 125 32 63
3 68 125 34
3 366 125 367
3 368 367 68
3 366 367 368
3 369 32 370
3 371 370 125
3 369 370 371
3 373 372 32
3 375 374 5
3 377 376 18
3 379 378 20
3 71 380 381
3 126 382 384
3 384 383 71
3 382 383 384
3 126 385 386
3 126 387 388
3 109 389 391
3 391 390 126
3 389 390 391
3 109 392 394
3 392 0 393
3 392 393 394
3 395 37 396
3 397 37 398
3 399 0 400
3 401 400 37
3 399 400 401
3 110 38 0
3 127 38 110
3 127 11 38
3 73 127 29
3 128 127 73
3 128 11 127
3 128 80 11
3 129 80 128
3 129 2 80
3 94 74 7
3 130 74 94
3 130 35 74
3 76 130 22
3 131 130 76
3 131 35 130
3 131 129 35
3 132 129 131
3 132 2 129
3 132 49 2
3 402 49 403
3 404 403 132
3 402 403 404
3 406 405 49
3 408 407 36
3 409 9 410
3 411 9 412
3 414 413 9
