ply
format ascii 1.0
element vertex 195
property float x
property float y
property float z
element face 155
property list uchar int vertex_index
end_header
-3.839468 87.254578 -10.002209
-4.59244 81.961609 -22.825436
-10.97521 88.365204 -0.395224
-6.431536 88.566956 9.91555
-6.756861 89.36438 2.155594
-7.444126 87.602966 -12.149429
-3.967037 85.235214 -16.929722
-7.017189 89.003601 -5.257336
-6.223877 87.689926 13.896928
-5.406023 87.713623 -11.208435
-5.588692 86.719986 -14.584372
-3.860714 86.388306 -13.561659
-5.109631 88.995407 3.691584
-5.191133 89.083496 -0.180552
-4.987831 88.612518 7.636213
-4.824312 87.919556 11.645923
-4.629416 86.906006 15.712428
-8.723577 89.137009 0.778791
-6.609808 89.120178 5.998465
-3.0788 79.575851 -24.913441
-4.200363 83.769547 -20.041313
-2.597355 83.181793 -19.149155
-9.491465 87.885925 -9.657299
-7.190529 88.430954 -8.785397
-5.306299 88.435059 -7.655304
-6.88435 89.319138 -1.601868
-5.24733 88.892776 -3.969166
-3.858385 87.850616 -6.303223
-12.22248 87.757149 -0.865161
-12.031707 87.815026 0.82536
-11.131239 88.230835 -2.114622
-12.22248 87.757149 -0.865161
-9.951469 88.6661 -1.6137
-11.131239 88.230835 -2.114622
-4.48651 88.620323 2.537153
-4.45506 88.512146 4.513815
-5.780568 81.909104 -22.937792
-6.658887 82.83976 -21.809567
-5.470759 82.892266 -21.697211
-5.314681 86.694198 16.820955
-5.426647 87.297966 14.804678
-6.111912 87.086159 15.913205
-4.525685 86.237427 17.767373
-5.314681 86.694198 16.820955
-6.520672 88.843567 7.957007
-7.462327 88.875679 7.143752
-7.373191 88.599068 9.102294
-2.698151 76.982452 -26.997435
-3.33511 78.403793 -26.056415
-2.441841 78.154511 -25.85446
-7.629565 87.054824 -13.725354
-8.68411 87.293953 -12.475946
-4.930238 85.334243 -17.327923
-5.741066 86.076629 -16.155248
-4.777864 85.9776 -15.757047
-4.0837 84.502381 -18.485518
-5.046902 84.60141 -18.883719
-4.930238 85.334243 -17.327923
-2.03403 81.902359 -20.178509
-2.063359 82.62397 -18.537537
-1.500034 81.344536 -19.566891
-2.675769 82.367874 -20.678654
-2.03403 81.902359 -20.178509
-10.581606 87.745155 -8.394545
-10.827231 87.391662 -9.95736
-7.103859 88.717277 -7.021366
-8.18085 88.488327 -7.553088
-8.09418 88.774651 -5.789057
-4.562011 88.537467 -3.235035
-5.219231 88.988136 -2.074859
-4.533912 88.632827 -1.340728
-3.867539 88.016388 -4.402063
-4.552858 88.371696 -5.136195
-4.562011 88.537467 -3.235035
-3.353772 87.436111 -3.641409
-3.344619 87.27034 -5.542568
-3.867539 88.016388 -4.402063
-7.152365 87.799599 13.02889
-6.327706 88.128441 11.906239
-7.256194 88.238113 11.038201
-7.026854 87.27243 14.994788
-7.152365 87.799599 13.02889
-6.111912 87.086159 15.913205
-7.026854 87.27243 14.994788
-7.256194 88.238113 11.038201
-7.373191 88.599068 9.102294
-7.972458 88.985298 -4.044756
-8.09418 88.774651 -5.789057
-4.527261 88.664367 0.601085
-5.150382 89.039451 1.755516
-4.48651 88.620323 2.537153
-4.533912 88.632827 -1.340728
-4.527261 88.664367 0.601085
-3.236799 86.373138 -11.135298
-3.287078 86.738464 -9.289935
-4.33572 88.065842 8.494729
-4.39416 88.320701 6.486129
-4.25396 87.71936 10.499584
-4.33572 88.065842 8.494729
-4.906071 88.266037 9.641068
-4.172338 87.311432 12.537757
-4.25396 87.71936 10.499584
-4.07489 86.804657 14.57101
-4.172338 87.311432 12.537757
-4.726864 87.412781 13.679175
-3.978368 86.239685 16.634794
-4.07489 86.804657 14.57101
-3.874637 85.571106 18.689739
-3.978368 86.239685 16.634794
-4.525685 86.237427 17.767373
-10.837681 88.376404 1.382707
-12.031707 87.815026 0.82536
-9.711864 88.762306 1.969715
-9.849394 88.751107 0.191783
-10.837681 88.376404 1.382707
-8.62501 89.085197 2.634847
-9.711864 88.762306 1.969715
-7.641652 89.198883 3.323249
-7.740219 89.250695 1.467192
-8.62501 89.085197 2.634847
-7.568126 89.076782 5.244684
-7.462327 88.875679 7.143752
-6.683334 89.242279 4.07703
-7.641652 89.198883 3.323249
-7.568126 89.076782 5.244684
-4.39416 88.320701 6.486129
-4.45506 88.512146 4.513815
-5.048731 88.803962 5.663899
-4.119086 79.681358 -25.065315
-4.875906 80.874237 -24.021313
-3.83562 80.76873 -23.869439
-4.119086 79.681358 -25.065315
-3.33511 78.403793 -26.056415
-6.701848 86.613335 -14.942825
-7.629565 87.054824 -13.725354
-6.516409 87.161476 -13.3669
-6.701848 86.613335 -14.942825
-5.741066 86.076629 -16.155248
-5.274721 83.796234 -20.305149
-5.046902 84.60141 -18.883719
-4.396401 82.865578 -21.433374
-5.470759 82.892266 -21.697211
-5.274721 83.796234 -20.305149
-3.247422 85.940002 -12.915023
-3.850091 86.821442 -11.781934
-3.236799 86.373138 -11.135298
-3.216583 85.436844 -14.686794
-3.247422 85.940002 -12.915023
-3.269744 84.860298 -16.370825
-3.913876 85.81176 -15.245691
-3.216583 85.436844 -14.686794
-2.584903 83.833587 -17.480542
-2.063359 82.62397 -18.537537
-3.282196 84.208504 -18.039439
-3.269744 84.860298 -16.370825
-2.584903 83.833587 -17.480542
-3.477273 82.661751 -21.124733
-3.398859 83.47567 -19.595234
-2.675769 82.367874 -20.678654
-3.673311 81.757782 -22.516794
-4.396401 82.865578 -21.433374
-3.477273 82.661751 -21.124733
-2.916492 80.564903 -23.560797
-3.83562 80.76873 -23.869439
-3.673311 81.757782 -22.516794
-2.313893 79.213935 -24.551972
-2.916492 80.564903 -23.560797
-2.441841 78.154511 -25.85446
-2.313893 79.213935 -24.551972
-9.70778 87.435432 -11.229882
-10.827231 87.391662 -9.95736
-8.467795 87.744445 -10.903364
-8.68411 87.293953 -12.475946
-9.70778 87.435432 -11.229882
-9.331318 88.215812 -7.989038
-10.581606 87.745155 -8.394545
-8.340997 88.15844 -9.221348
-9.331318 88.215812 -7.989038
-8.18085 88.488327 -7.553088
-8.825652 89.052002 -1.026693
-9.951469 88.6661 -1.6137
-9.849394 88.751107 0.191783
-7.906039 89.143067 -2.217022
-8.825652 89.052002 -1.026693
-7.803964 89.228073 -0.411539
-6.950769 89.16137 -3.429602
-7.972458 88.985298 -4.044756
-7.906039 89.143067 -2.217022
-3.296537 87.036484 -7.440442
-3.287078 86.738464 -9.289935
-3.848927 87.552597 -8.152716
-3.296537 87.036484 -7.440442
-3.344619 87.27034 -5.542568
-5.780568 81.909104 -22.937792
-4.875906 80.874237 -24.021313
3 0 11 9
3 2 28 29
3 2 30 31
3 2 32 33
3 35 34 12
3 1 36 38
3 36 37 38
3 3 15 14
3 39 16 40
3 41 40 8
3 39 40 41
3 43 42 16
3 3 44 46
3 44 18 45
3 44 45 46
3 3 14 18
3 49 48 19
3 47 48 49
3 5 50 51
3 6 52 54
3 54 53 10
3 52 53 54
3 6 55 57
3 55 20 56
3 55 56 57
3 58 21 59
3 58 59 60
3 62 61 21
3 63 22 64
3 7 65 67
3 65 23 66
3 65 66 67
3 7 24 23
3 4 25 17
3 68 26 69
3 70 69 13
3 68 69 70
3 71 27 72
3 73 72 26
3 71 72 73
3 76 75 27
3 74 75 76
3 77 8 78
3 79 78 3
3 77 78 79
3 80 8 81
3 83 82 8
3 84 3 85
3 9 10 5
3 11 10 9
3 11 6 10
3 86 7 87
3 12 13 4
3 88 13 89
3 90 89 12
3 88 89 90
3 92 91 13
3 94 93 0
3 14 95 96
3 15 97 99
3 99 98 14
3 97 98 99
3 15 100 101
3 8 15 3
3 16 15 8
3 16 102 104
3 104 103 15
3 102 103 104
3 16 105 106
3 109 108 16
3 107 108 109
3 110 2 111
3 112 17 113
3 114 113 2
3 112 113 114
3 115 17 116
3 117 4 118
3 119 118 17
3 117 118 119
3 18 120 121
3 18 122 124
3 122 4 123
3 122 123 124
3 18 12 4
3 14 12 18
3 14 125 127
3 127 126 12
3 125 126 127
3 19 128 130
3 130 129 1
3 128 129 130
3 132 131 19
3 10 133 135
3 135 134 5
3 133 134 135
3 137 136 10
3 20 138 139
3 20 140 142
3 140 1 141
3 140 141 142
3 143 11 144
3 145 144 0
3 143 144 145
3 146 11 147
3 148 6 149
3 150 149 11
3 148 149 150
3 21 151 152
3 21 153 155
3 153 6 154
3 153 154 155
3 21 20 6
3 156 20 157
3 158 157 21
3 156 157 158
3 159 1 160
3 161 160 20
3 159 160 161
3 162 19 163
3 164 163 1
3 162 163 164
3 165 19 166
3 168 167 19
3 22 169 170
3 22 171 173
3 171 5 172
3 171 172 173
3 174 22 175
3 23 176 178
3 176 22 177
3 176 177 178
3 23 5 22
3 23 9 5
3 24 9 23
3 24 0 9
3 17 179 181
3 181 180 2
3 179 180 181
3 25 182 184
3 184 183 17
3 182 183 184
3 25 185 187
3 185 7 186
3 185 186 187
3 13 25 4
3 26 25 13
3 26 7 25
3 26 24 7
3 27 24 26
3 27 0 24
3 27 188 190
3 190 189 0
3 188 189 190
3 192 191 27
3 194 193 1
