ply
format ascii 1.0
element vertex 464
property float x
property float y
property float z
element face 477
property list uchar int vertex_index
end_header
3.022797 54.22295 -14.312969
0.917259 57.477436 11.303925
-0.003195 68.215622 -10.65538
2.506313 58.240627 -2.260046
5.861725 37.297432 -14.221491
5.996712 46.090199 7.061603
3.484844 43.662945 19.576954
0.837196 37.18626 31.773525
4.581264 46.177761 -14.629206
6.367924 40.99585 -9.739462
4.780293 49.378681 -9.482582
1.842192 58.484745 4.369421
4.33252 52.565205 2.350189
3.424545 52.315868 8.836615
4.879776 45.456074 13.303198
2.215927 50.828671 15.497937
-0.070536 44.671894 28.762617
1.943552 58.668644 -19.034969
3.225574 50.712337 -19.631618
4.401314 42.002594 -19.153545
3.799892 30.362846 -25.525734
1.387388 61.495144 -12.986744
2.849934 56.776836 -8.498795
0.92247 63.345654 -6.581097
0.408689 64.095261 0.155144
-0.216171 63.662457 7.234134
0.740891 66.059937 -17.304745
4.771458 51.555759 -3.798845
6.627632 45.509823 1.019934
6.065094 37.92791 17.524588
-1.30369 68.522491 10.957811
-0.036783 55.287884 18.406719
0.974173 48.21944 22.182144
2.067709 40.843422 25.762974
4.244949 36.74905 -22.867279
5.408394 32.519882 -18.025387
3.828182 50.306995 -14.587454
4.689842 47.89909 -12.126661
3.843548 51.875202 -11.907249
1.4002 58.135227 7.806239
2.634575 55.482166 6.584925
2.118738 55.002224 9.971655
2.841679 51.721615 12.155491
1.559473 54.216724 13.401024
2.37875 56.472858 -16.692478
2.588493 54.773716 -19.47905
3.112999 52.582767 -17.044579
3.820892 48.502277 -17.129166
0.641258 64.909775 -11.939058
1.151491 62.550152 -9.824078
0.360023 65.791702 -8.639843
-0.402893 66.838364 1.696908
0.106583 64.028458 3.65305
-0.656658 66.621307 5.304435
-0.174744 70.628525 -12.641994
0.230726 69.589966 -16.060778
0.343882 67.255737 -14.017904
0.959192 63.783344 -15.165951
6.37645 32.631939 -13.918001
6.676052 34.663624 -11.913761
6.57692 42.499073 -7.259258
2.712765 57.654789 -5.431107
3.787155 54.253323 -6.174549
3.652939 55.024723 -3.133179
5.203667 49.433903 4.711808
5.537601 49.19495 1.615105
6.381203 45.951405 4.003666
6.691364 42.538433 9.36161
4.200966 44.697578 16.444555
5.509666 41.769287 15.454922
4.806076 40.963116 18.498789
5.351448 37.094372 20.473358
4.068527 39.894047 21.521128
-1.043083 55.712376 23.835779
-0.794136 57.334377 20.165419
-0.445686 53.792248 21.972271
0.450701 51.79269 20.310604
-0.037642 50.196339 23.754223
0.362598 40.942715 30.298248
0.906322 42.852737 27.174282
1.419853 39.105896 28.794781
2.613262 37.04208 27.457111
3.867043 41.616547 -23.627708
5.082912 39.72604 -16.647068
4.925354 37.343925 -18.631771
5.622906 35.064106 -16.20997
6.102165 30.306614 -15.746349
-0.300957 68.931656 -7.230274
5.262341 41.833462 -14.484976
6.118195 39.264668 -12.062605
5.453678 43.690956 -12.158628
5.630928 45.309978 -9.677937
5.759583 46.686642 -7.050472
2.216015 58.519787 1.009703
3.41766 55.493099 0.015636
3.075127 55.646908 3.260194
3.93066 52.599186 5.561209
4.74416 49.359615 7.876988
5.488358 45.923641 10.169037
4.180431 48.974216 11.087772
3.542217 48.28632 14.323052
2.863472 47.309925 17.564339
3.352524 48.607868 -22.033524
3.858906 44.170067 -21.690811
3.83374 46.460247 -19.50906
4.481213 44.215961 -16.978134
2.195873 57.943264 -13.781096
2.943401 55.626186 -11.460716
2.029711 59.17384 -10.767313
1.857929 60.147015 -7.659634
1.654924 60.843464 -4.459139
0.679699 63.865047 -3.255875
1.400478 61.246639 -1.165211
1.086153 61.345661 2.220531
0.718157 61.136326 5.692205
0.31629 60.620785 9.23913
1.318369 62.423382 -18.304142
1.648808 60.197186 -16.063597
6.978703 36.464279 -9.73575
3.840683 53.196644 -9.100908
4.818584 50.603916 -6.704346
5.804436 47.805882 -4.284199
4.613598 52.214634 -0.775911
5.736431 48.648052 -1.390343
6.73357 44.775497 -1.865271
6.147774 42.297962 12.403431
6.717274 38.497902 14.555395
-1.165525 69.159775 7.164684
-0.899036 66.114624 8.992825
-0.538034 63.000111 10.889021
-0.09041 59.806545 12.846262
-0.469999 58.7057 16.495188
0.427004 56.522953 14.843978
0.992252 53.140476 16.853611
1.582621 49.654194 18.845686
2.178293 46.06348 20.795679
0.416931 46.54929 25.492264
1.51754 44.569206 24.003128
2.763981 42.370853 22.686956
4.088013 33.690643 -24.341217
4.606255 31.66357 -22.008739
4.332798 39.518986 -21.127506
4.778088 34.660374 -20.423981
-0.696227 68.176628 2.573246
-0.594603 68.214569 0.75602
-0.823109 68.0681 4.37701
-0.529775 66.729836 3.500672
-0.696227 68.176628 2.573246
7.018023 40.970562 -6.075931
6.643095 43.132099 -5.944912
6.556672 44.287521 6.706091
6.748917 44.218125 5.177122
6.188957 46.020802 5.532635
6.344038 44.314316 8.211607
6.903998 42.511639 7.856094
6.556672 44.287521 6.706091
-0.911695 53.88601 24.678618
-1.125619 54.787712 25.660777
-0.612997 52.925945 23.746865
-0.744385 54.752312 22.904025
-0.911695 53.88601 24.678618
-0.408975 51.127991 24.63784
-0.241664 51.994293 22.863247
-0.612997 52.925945 23.746865
1.391574 36.245184 31.063004
1.682902 37.205002 29.573631
1.128525 38.146078 30.284153
1.089132 35.289402 32.481493
1.391574 36.245184 31.063004
3.665667 43.937075 -23.910915
3.689919 42.632221 -24.838262
2.102469 57.791343 -20.448087
1.825087 59.751683 -20.17604
3.020916 51.779877 -20.86553
2.702375 53.810566 -20.789246
2.907033 52.743026 -19.555334
3.289049 49.660103 -20.832571
3.08439 50.727642 -22.066483
3.020916 51.779877 -20.86553
3.557228 28.584892 -25.968464
3.2885 29.571411 -26.96687
3.531164 31.349365 -26.52414
-0.09977 67.673523 -6.250523
-0.42976 69.162575 -5.486315
0.544194 63.980154 -1.550366
0.264941 65.316358 -2.541523
0.129436 65.431466 -0.836014
0.709094 67.187127 -18.344311
0.454011 68.952141 -17.722327
0.485808 67.824951 -16.682761
0.957055 65.345574 -18.893937
0.709094 67.187127 -18.344311
1.02963 64.241659 -17.804443
1.245793 63.527296 -19.393635
0.957055 65.345574 -18.893937
7.092262 43.50667 0.76979
7.145231 43.139507 -0.672812
6.680601 45.14266 -0.422669
6.632048 36.235859 17.067478
6.958137 36.520855 15.582881
6.391184 38.212906 16.039991
6.305498 35.938333 18.513551
6.632048 36.235859 17.067478
5.592652 35.098944 21.417784
4.979092 36.552612 21.931325
-1.363169 70.086761 10.087019
-1.376362 69.703537 12.033826
-1.234608 68.841133 9.061248
-1.294086 70.405403 8.190456
-1.363169 70.086761 10.087019
-0.684865 62.524441 12.745997
-0.824124 64.160296 11.821002
-0.461053 60.927658 13.724618
-0.314222 61.403328 11.867641
-0.684865 62.524441 12.745997
0.173198 45.610592 27.12744
-0.018438 47.463585 26.330192
-0.262172 46.524887 27.965369
2.697972 39.711726 25.136735
3.046108 40.475441 23.598726
2.415845 41.607137 24.224965
3.237299 35.867924 26.859676
2.877792 35.102201 28.270454
4.166481 35.219847 -23.604248
3.949173 36.239731 -24.805658
4.027641 37.768934 -24.068689
5.304535 31.07497 -18.848099
4.989382 32.145216 -20.047396
5.093241 33.590128 -19.224684
5.631298 30.063238 -17.718942
5.304535 31.07497 -18.848099
6.312016 27.94977 -15.532822
6.453712 29.133638 -14.700098
3.878088 27.593252 -25.015753
4.077423 29.366156 -24.449232
-0.276355 66.803017 -0.065132
-0.594603 68.214569 0.75602
0.002898 65.466813 0.926026
0.129436 65.431466 -0.836014
-0.276355 66.803017 -0.065132
0.027991 70.109246 -14.351386
0.010467 71.299179 -15.328768
-0.192268 71.818458 -13.619376
6.750838 31.302489 -12.856989
6.590855 30.296301 -13.785924
6.900639 32.318331 -11.854869
6.750838 31.302489 -12.856989
6.526251 33.647782 -12.915881
7.067963 33.217533 -10.830249
6.900639 32.318331 -11.854869
6.91424 40.278605 -7.325657
6.809742 39.526993 -8.565759
6.472422 41.747462 -8.49936
6.91424 40.278605 -7.325657
7.018023 40.970562 -6.075931
6.894289 44.044398 3.699168
7.017504 43.823606 2.207302
6.504418 45.730614 2.5118
6.894289 44.044398 3.699168
6.748917 44.218125 5.177122
7.211691 40.673865 8.991369
6.903998 42.511639 7.856094
6.985895 40.666172 10.471414
7.211691 40.673865 8.991369
4.337631 37.95245 22.45521
4.979092 36.552612 21.931325
4.709988 38.494209 20.997243
-1.346547 68.06308 12.88852
-1.376362 69.703537 12.033826
-1.206952 66.921486 11.855397
-1.346547 68.06308 12.88852
-1.180675 56.653176 24.867015
-1.125619 54.787712 25.660777
-1.139445 57.520477 22.98269
-1.180675 56.653176 24.867015
-0.918609 56.523376 22.000599
-1.014972 58.331478 21.14751
-1.139445 57.520477 22.98269
2.279606 36.173094 28.904796
2.016558 38.073988 28.125946
1.682902 37.205002 29.573631
2.877792 35.102201 28.270454
2.279606 36.173094 28.904796
3.838688 40.202682 -24.448904
3.689919 42.632221 -24.838262
4.055996 39.182798 -23.247493
4.027641 37.768934 -24.068689
3.838688 40.202682 -24.448904
6.590855 30.296301 -13.785924
6.453712 29.133638 -14.700098
6.239308 31.469276 -14.832175
-0.41134 70.180855 -8.193378
-0.152076 68.573639 -8.942827
-0.262459 69.822838 -9.905931
-0.553854 70.460792 -6.42232
-0.41134 70.180855 -8.193378
-0.42976 69.162575 -5.486315
-0.553854 70.460792 -6.42232
-0.385009 72.263313 -11.851577
-0.192268 71.818458 -13.619376
-0.348234 71.02929 -10.899237
-0.385009 72.263313 -11.851577
-0.262459 69.822838 -9.905931
-0.08897 69.422073 -11.648687
-0.348234 71.02929 -10.899237
6.234426 45.225883 -5.840519
6.643095 43.132099 -5.944912
6.168252 44.592858 -7.154865
-0.429257 45.519356 29.6503
-0.262172 46.524887 27.965369
-0.274163 43.64502 30.372225
-0.429257 45.519356 29.6503
-0.057596 41.78043 31.140041
0.146031 42.807305 29.530432
-0.274163 43.64502 30.372225
0.12967 39.906447 31.832153
-0.057596 41.78043 31.140041
0.366969 38.028219 32.569792
0.599897 39.064487 31.035887
0.12967 39.906447 31.832153
0.112806 36.99237 34.029089
0.583033 36.150411 33.232822
0.366969 38.028219 32.569792
2.42494 55.843879 -20.670128
2.102469 57.791343 -20.448087
2.266023 56.72118 -19.25701
2.42494 55.843879 -20.670128
2.702375 53.810566 -20.789246
3.192045 49.647091 -23.263091
3.08439 50.727642 -22.066483
3.408408 47.432736 -23.113823
3.192045 49.647091 -23.263091
3.605715 46.388968 -21.862167
3.661599 45.213835 -22.942467
3.408408 47.432736 -23.113823
3.557228 28.584892 -25.968464
3.878088 27.593252 -25.015753
0.230719 66.103546 -6.955308
0.029533 67.361679 -7.935059
-0.09977 67.673523 -6.250523
0.511943 64.880522 -5.925935
0.641247 64.568678 -7.61047
0.230719 66.103546 -6.955308
0.390558 65.140219 -4.263324
0.264941 65.316358 -2.541523
0.801084 63.605351 -4.918486
0.511943 64.880522 -5.925935
0.390558 65.140219 -4.263324
0.226065 70.734101 -17.053143
0.005806 72.443314 -16.321133
0.010467 71.299179 -15.328768
0.226065 70.734101 -17.053143
0.454011 68.952141 -17.722327
1.512496 61.629052 -19.810627
1.245793 63.527296 -19.393635
1.630961 60.546013 -18.669556
1.825087 59.751683 -20.17604
1.512496 61.629052 -19.810627
7.219288 34.11786 -9.741243
7.067963 33.217533 -10.830249
6.827378 35.563952 -10.824755
7.115132 37.261207 -8.563903
6.673314 38.730064 -9.737606
6.809742 39.526993 -8.565759
7.377827 34.933079 -8.628676
7.115132 37.261207 -8.563903
7.219288 34.11786 -9.741243
7.377827 34.933079 -8.628676
6.256853 45.785503 -4.457382
6.234426 45.225883 -5.840519
5.78201 47.246262 -5.667336
6.72142 44.270311 -3.247918
6.256853 45.785503 -4.457382
6.269003 46.290689 -3.074735
7.151373 42.686806 -2.057557
6.72142 44.270311 -3.247918
7.151373 42.686806 -2.057557
7.145231 43.139507 -0.672812
7.092262 43.50667 0.76979
7.017504 43.823606 2.207302
6.7141 40.545936 11.992324
6.985895 40.666172 10.471414
6.419569 42.418197 10.882521
6.99885 38.645907 13.068307
6.7141 40.545936 11.992324
6.432524 40.397932 13.479413
7.24206 36.688574 14.127884
6.99885 38.645907 13.068307
7.24206 36.688574 14.127884
6.958137 36.520855 15.582881
5.948675 35.521564 19.987936
6.305498 35.938333 18.513551
5.708271 37.511141 18.998973
5.948675 35.521564 19.987936
5.592652 35.098944 21.417784
-1.253502 70.649383 6.280593
-1.294086 70.405403 8.190456
-1.077543 69.337334 5.307135
-1.253502 70.649383 6.280593
-0.911091 67.890541 6.234559
-0.823109 68.0681 4.37701
-1.077543 69.337334 5.307135
-1.004625 65.717552 10.872904
-1.101363 67.318557 9.975318
-1.206952 66.921486 11.855397
-0.718535 64.557367 9.940923
-1.004625 65.717552 10.872904
-0.824124 64.160296 11.821002
-0.932445 59.07711 19.261224
-1.014972 58.331478 21.14751
-0.770376 59.762771 17.426108
-0.932445 59.07711 19.261224
-0.632068 58.020038 18.330303
-0.650848 60.377235 15.549081
-0.770376 59.762771 17.426108
-0.280205 59.256123 14.670725
-0.461053 60.927658 13.724618
-0.650848 60.377235 15.549081
-0.245725 49.287109 25.461172
-0.408975 51.127991 24.63784
0.189644 48.372815 24.623244
-0.245725 49.287109 25.461172
-0.018438 47.463585 26.330192
3.698381 39.237038 23.015812
3.416254 41.13245 22.104042
3.046108 40.475441 23.598726
4.337631 37.95245 22.45521
3.698381 39.237038 23.015812
2.970749 37.811054 25.983804
2.697972 39.711726 25.136735
2.340485 38.942751 26.610042
2.970749 37.811054 25.983804
3.237299 35.867924 26.859676
0.834969 34.253553 33.940791
1.089132 35.289402 32.481493
0.583033 36.150411 33.232822
3.714682 33.025795 -26.050939
3.531164 31.349365 -26.52414
3.858742 34.689694 -25.458681
3.949173 36.239731 -24.805658
3.943952 32.026744 -24.933476
3.714682 33.025795 -26.050939
3.858742 34.689694 -25.458681
4.221483 31.030054 -23.856974
4.077423 29.366156 -24.449232
3.943952 32.026744 -24.933476
4.480605 30.016517 -22.690734
4.221483 31.030054 -23.856974
4.347134 32.677107 -23.174978
4.781467 29.030779 -21.580334
4.480605 30.016517 -22.690734
3.862974 42.893307 -22.659259
3.665667 43.937075 -23.910915
3.661599 45.213835 -22.942467
4.903465 30.646814 -20.839775
4.692172 33.161972 -21.21636
4.989382 32.145216 -20.047396
4.781467 29.030779 -21.580334
4.903465 30.646814 -20.839775
5.978184 28.956604 -16.579424
5.631298 30.063238 -17.718942
5.75528 31.413248 -16.885868
5.978184 28.956604 -16.579424
6.312016 27.94977 -15.532822
3 0 38 36
3 1 41 39
3 1 43 41
3 0 46 44
3 0 36 46
3 2 50 48
3 143 51 144
3 145 53 146
3 147 146 51
3 145 146 147
3 2 56 54
3 2 48 56
3 4 59 58
3 149 148 60
3 3 63 61
3 5 66 64
3 5 150 152
3 152 151 66
3 150 151 152
3 5 153 155
3 153 67 154
3 153 154 155
3 6 70 68
3 6 72 70
3 156 73 157
3 158 75 159
3 160 159 73
3 158 159 160
3 161 77 162
3 163 162 75
3 161 162 163
3 7 80 78
3 7 164 166
3 166 165 80
3 164 165 166
3 7 167 168
3 169 82 170
3 4 85 83
3 4 58 85
3 8 90 88
3 10 91 37
3 10 92 91
3 11 95 93
3 13 96 40
3 13 97 96
3 13 99 97
3 15 100 42
3 15 101 100
3 17 171 172
3 18 173 175
3 175 174 45
3 173 174 175
3 18 176 178
3 176 102 177
3 176 177 178
3 18 104 102
3 8 105 47
3 8 88 105
3 20 179 181
3 179 180 181
3 21 108 106
3 23 109 49
3 23 110 109
3 183 182 87
3 24 184 186
3 184 111 185
3 184 185 186
3 24 112 111
3 24 113 112
3 25 114 52
3 25 115 114
3 26 187 189
3 189 188 55
3 187 188 189
3 26 190 191
3 26 192 194
3 192 116 193
3 192 193 194
3 21 117 57
3 21 106 117
3 9 118 89
3 22 119 107
3 27 120 62
3 27 121 120
3 12 122 94
3 28 123 65
3 28 124 123
3 28 195 197
3 197 196 124
3 195 196 197
3 14 125 98
3 29 126 69
3 29 198 200
3 200 199 126
3 198 199 200
3 29 201 202
3 204 203 71
3 30 205 206
3 30 207 209
3 207 127 208
3 207 208 209
3 30 128 127
3 210 129 211
3 212 130 213
3 214 213 129
3 212 213 214
3 31 131 74
3 31 132 131
3 31 133 132
3 32 134 76
3 32 135 134
3 16 215 217
3 215 136 216
3 215 216 217
3 33 137 79
3 33 138 137
3 33 218 220
3 220 219 138
3 218 219 220
3 222 221 81
3 34 223 225
3 223 139 224
3 223 224 225
3 34 140 139
3 19 141 103
3 35 142 84
3 35 226 228
3 228 227 142
3 226 227 228
3 35 229 230
3 232 231 86
3 36 37 8
3 38 37 36
3 38 10 37
3 39 40 11
3 41 40 39
3 41 13 40
3 41 42 13
3 43 42 41
3 43 15 42
3 44 45 17
3 46 45 44
3 46 18 45
3 46 47 18
3 36 47 46
3 36 8 47
3 234 233 20
3 48 49 21
3 50 49 48
3 50 23 49
3 51 235 236
3 51 237 239
3 237 24 238
3 237 238 239
3 51 52 24
3 53 52 51
3 53 25 52
3 54 240 242
3 240 55 241
3 240 241 242
3 56 55 54
3 56 26 55
3 56 57 26
3 48 57 56
3 48 21 57
3 58 243 244
3 59 245 247
3 247 246 58
3 245 246 247
3 59 248 249
3 60 250 252
3 252 251 9
3 250 251 252
3 254 253 60
3 61 62 22
3 63 62 61
3 63 27 62
3 64 65 12
3 66 65 64
3 66 28 65
3 66 255 257
3 257 256 28
3 255 256 257
3 259 258 66
3 67 260 261
3 67 262 263
3 68 69 14
3 70 69 68
3 70 29 69
3 70 71 29
3 72 71 70
3 72 264 266
3 266 265 71
3 264 265 266
3 267 30 268
3 270 269 30
3 73 271 272
3 73 273 274
3 73 275 277
3 275 74 276
3 275 276 277
3 75 74 73
3 75 31 74
3 75 76 31
3 77 76 75
3 77 32 76
3 78 79 16
3 80 79 78
3 80 33 79
3 80 81 33
3 278 81 279
3 280 279 80
3 278 279 280
3 282 281 81
3 82 283 284
3 82 285 287
3 285 34 286
3 285 286 287
3 83 84 19
3 85 84 83
3 85 35 84
3 85 86 35
3 58 86 85
3 58 288 290
3 290 289 86
3 288 289 290
3 291 87 292
3 293 292 2
3 291 292 293
3 294 87 295
3 297 296 87
3 298 54 299
3 300 54 301
3 302 2 303
3 304 303 54
3 302 303 304
3 88 89 4
3 90 89 88
3 90 9 89
3 37 90 8
3 91 90 37
3 91 9 90
3 91 60 9
3 92 60 91
3 92 305 307
3 307 306 60
3 305 306 307
3 93 94 3
3 95 94 93
3 95 12 94
3 40 95 11
3 96 95 40
3 96 12 95
3 96 64 12
3 97 64 96
3 97 5 64
3 97 98 5
3 99 98 97
3 99 14 98
3 42 99 13
3 100 99 42
3 100 14 99
3 100 68 14
3 101 68 100
3 101 6 68
3 308 16 309
3 310 16 311
3 312 78 313
3 314 313 16
3 312 313 314
3 315 78 316
3 317 7 318
3 319 318 78
3 317 318 319
3 322 321 7
3 320 321 322
3 45 323 325
3 325 324 17
3 323 324 325
3 327 326 45
3 102 328 329
3 102 330 331
3 102 332 334
3 332 103 333
3 332 333 334
3 104 103 102
3 104 19 103
3 47 104 18
3 105 104 47
3 105 19 104
3 105 83 19
3 88 83 105
3 88 4 83
3 336 335 20
3 106 107 0
3 108 107 106
3 108 22 107
3 49 108 21
3 109 108 49
3 109 22 108
3 109 61 22
3 110 61 109
3 110 3 61
3 87 50 2
3 337 50 338
3 339 338 87
3 337 338 339
3 340 23 341
3 342 341 50
3 340 341 342
3 111 343 344
3 111 345 347
3 345 23 346
3 345 346 347
3 111 110 23
3 112 110 111
3 112 3 110
3 112 93 3
3 113 93 112
3 113 11 93
3 52 113 24
3 114 113 52
3 114 11 113
3 114 39 11
3 115 39 114
3 115 1 39
3 55 348 350
3 348 349 350
3 352 351 55
3 116 353 354
3 116 355 357
3 355 17 356
3 355 356 357
3 57 116 26
3 117 116 57
3 117 17 116
3 117 44 17
3 106 44 117
3 106 0 44
3 89 59 4
3 118 59 89
3 118 358 360
3 360 359 59
3 358 359 360
3 361 118 362
3 363 362 9
3 361 362 363
3 364 118 365
3 367 366 118
3 107 38 0
3 119 38 107
3 119 10 38
3 62 119 22
3 120 119 62
3 120 10 119
3 120 92 10
3 121 92 120
3 121 368 370
3 370 369 92
3 368 369 370
3 94 63 3
3 122 63 94
3 122 27 63
3 65 122 12
3 123 122 65
3 123 27 122
3 123 121 27
3 124 121 123
3 124 371 373
3 373 372 121
3 371 372 373
3 124 374 375
3 377 376 124
3 379 378 28
3 98 67 5
3 125 67 98
3 125 380 382
3 382 381 67
3 380 381 382
3 69 125 14
3 126 125 69
3 126 383 385
3 385 384 125
3 383 384 385
3 126 386 387
3 389 388 126
3 71 390 392
3 392 391 29
3 390 391 392
3 394 393 71
3 127 395 396
3 127 397 398
3 127 399 401
3 399 53 400
3 399 400 401
3 128 53 127
3 128 25 53
3 402 128 403
3 404 403 30
3 402 403 404
3 129 405 407
3 405 128 406
3 405 406 407
3 129 25 128
3 129 115 25
3 130 115 129
3 130 1 115
3 74 408 409
3 131 410 412
3 412 411 74
3 410 411 412
3 131 413 414
3 131 415 417
3 415 130 416
3 415 416 417
3 132 130 131
3 132 1 130
3 132 43 1
3 133 43 132
3 133 15 43
3 76 133 31
3 134 133 76
3 134 15 133
3 134 101 15
3 135 101 134
3 135 6 101
3 418 77 419
3 136 420 422
3 420 77 421
3 420 421 422
3 136 32 77
3 79 136 16
3 137 136 79
3 137 32 136
3 137 135 32
3 138 135 137
3 138 6 135
3 138 72 6
3 423 72 424
3 425 424 138
3 423 424 425
3 427 426 72
3 81 428 430
3 430 429 33
3 428 429 430
3 432 431 81
3 435 434 7
3 433 434 435
3 436 20 437
3 139 438 439
3 139 440 442
3 440 20 441
3 440 441 442
3 139 443 445
3 445 444 20
3 443 444 445
3 140 446 448
3 448 447 139
3 446 447 448
3 140 449 450
3 103 451 453
3 451 82 452
3 451 452 453
3 141 82 103
3 141 34 82
3 84 141 19
3 142 141 84
3 142 34 141
3 142 140 34
3 454 140 455
3 456 455 142
3 454 455 456
3 458 457 140
3 86 459 461
3 461 460 35
3 459 460 461
3 463 462 86
