ply
format ascii 1.0
element vertex 628
property float x
property float y
property float z
element face 619
property list uchar int vertex_index
end_header
49.892799 -87.475082 2.170938
37.262806 -110.290932 -3.178179
47.168373 -95.936012 -17.028105
26.221745 -120.441315 -3.160427
31.754402 -117.302307 -12.993803
46.015797 -99.300568 -0.278154
49.567024 -92.42482 -7.603529
42.958527 -105.667023 -11.035622
37.286423 -109.558365 -19.439089
23.193382 -123.686829 -7.202225
51.810539 -81.98848 2.691777
55.095173 -78.526535 -1.392099
52.177193 -83.911346 -1.836981
44.025726 -88.799484 -24.040495
44.790222 -102.607834 -5.718697
40.300583 -108.464615 -7.32255
28.09935 -119.451736 -16.562773
34.621155 -114.148079 -16.697275
44.619171 -98.38826 9.376499
48.63343 -94.477119 -12.514507
51.63961 -87.362144 -11.018845
50.763596 -88.671799 -15.501421
31.709152 -115.557007 -3.6723
34.760036 -114.05014 -8.344942
28.873625 -119.27858 -8.383997
44.96479 -96.634224 -20.581755
49.298115 -89.407669 -19.402502
48.318722 -93.410828 1.177897
50.008488 -90.02417 -2.681318
47.876305 -96.410896 -4.031988
45.153889 -101.485725 -14.275841
37.79237 -111.713867 -12.428173
40.496468 -108.090157 -15.820734
42.833805 -102.994713 -18.506525
39.719009 -103.582237 -21.374392
49.423531 -84.910576 7.063951
47.809769 -87.639832 11.718025
48.1563 -90.436378 6.392812
46.580063 -96.073509 5.201783
43.72213 -101.464073 3.657351
39.414719 -106.599182 2.197042
52.118458 -85.714287 -6.394754
50.754669 -84.645645 2.480586
52.035942 -82.965668 0.422511
50.945103 -85.783905 0.141811
39.88496 -107.611404 -2.610809
41.349384 -106.69072 -4.629206
38.806976 -109.463684 -5.301939
47.979042 -95.294312 -14.855526
49.641323 -91.681885 -14.033165
49.009537 -92.307976 -16.236483
28.933372 -118.079575 -3.543915
30.341183 -117.481789 -6.086349
27.509531 -119.944664 -5.822678
21.500931 -124.871994 -8.87262
24.330112 -123.043419 -9.868494
43.551384 -96.682106 -21.861994
46.000195 -93.11557 -21.460714
45.01218 -84.775925 -24.709955
46.582973 -85.312439 -24.016195
47.321697 -96.385818 0.495493
48.181889 -94.91996 -1.42135
46.996002 -97.976929 -2.177553
43.947701 -104.192947 -8.409933
45.848064 -101.068634 -7.528372
45.048767 -102.486107 -10.166935
44.101772 -103.759537 -12.717493
33.332348 -115.77903 -10.766094
36.302628 -113.016792 -10.468634
34.838306 -114.575241 -12.838972
35.984032 -112.037254 -18.182741
37.684788 -111.195847 -16.365778
38.989189 -108.958412 -17.814337
41.702961 -105.721817 -17.249205
40.214897 -106.353455 -19.064604
41.374252 -103.407768 -20.135889
38.529419 -106.728325 -20.491438
47.256927 -90.362144 11.332678
47.964867 -89.008232 9.038002
47.382225 -91.78511 8.577653
47.479733 -93.270798 5.859294
46.644581 -94.549263 7.981595
43.092697 -100.900238 8.564299
44.237656 -99.877304 6.489752
42.470467 -102.419975 5.693609
40.364281 -104.901131 4.950818
31.601065 -114.12896 1.231054
49.85495 -91.253365 -5.132071
50.980904 -87.984596 -4.552181
50.809254 -89.028427 -6.931192
52.928925 -84.525276 -12.700314
53.23262 -83.901627 -10.469025
24.760521 -122.184448 -5.276764
18.82856 -126.258553 -7.50152
54.86866 -77.939781 0.765172
53.347019 -80.347221 0.619023
53.529636 -81.112465 -1.57938
53.611202 -81.840637 -3.777777
43.384731 -84.072685 -25.237597
45.483139 -100.961685 -3.002159
42.714676 -105.575508 -6.562748
41.693027 -107.220985 -9.235308
30.010033 -118.546646 -14.950071
33.205048 -115.894745 -14.967949
31.393827 -116.915909 -16.775961
45.865734 -94.385002 13.059244
45.780643 -95.782356 10.139459
49.158516 -93.510147 -10.077465
50.525715 -90.011536 -9.3258
50.138718 -90.90654 -11.708748
51.258469 -88.075165 -13.301624
52.528503 -85.072433 -14.876753
34.507507 -112.945404 -3.544306
36.062103 -112.194878 -5.799032
33.212399 -114.878456 -6.071968
31.819031 -116.729012 -8.506229
30.298878 -118.413315 -10.789173
25.9832 -121.627441 -7.953793
28.629402 -119.84845 -12.848835
26.802471 -120.960701 -14.611288
46.170597 -96.385254 -18.957769
48.209614 -92.762466 -18.249041
47.211124 -93.032822 -20.006117
48.266838 -89.517029 -20.989542
49.334213 -85.892593 -21.950502
45.596558 -89.209785 -23.296049
48.040771 -85.685257 -23.108782
50.404377 -82.198334 -22.932196
49.126953 -90.419571 1.739603
50.017899 -88.759232 -0.251217
49.143524 -91.827736 -0.772554
49.003777 -93.217461 -3.296988
48.708778 -94.563713 -5.840544
46.500595 -99.550995 -4.855221
47.411102 -97.851067 -6.653364
47.008125 -98.018387 -13.39023
46.160824 -98.863533 -15.710047
37.618206 -111.288727 -7.935167
39.119995 -110.160599 -9.941141
40.524986 -108.742386 -11.809208
36.297852 -113.061523 -14.707962
39.194927 -110.083984 -14.213835
41.813911 -106.980873 -13.532614
42.993271 -104.84903 -15.106447
44.089287 -102.349312 -16.529539
45.137337 -99.511322 -17.807936
43.913799 -99.947495 -19.608706
42.48251 -100.165909 -21.056555
50.504971 -83.494141 4.838979
49.672092 -86.186508 4.603586
48.538788 -86.280975 9.360888
48.755901 -87.627518 6.79162
48.979023 -89.013359 4.255242
48.297089 -91.909508 3.777258
47.475952 -94.809448 3.169881
46.3797 -97.662285 2.453052
45.623264 -97.254219 7.271729
45.345268 -98.808144 4.45126
44.918316 -100.441223 1.666405
38.378696 -108.407516 -0.510221
35.729832 -111.00666 -0.96067
33.008347 -113.586334 -1.190639
30.287201 -116.115944 -1.178469
51.02726 -86.899345 -2.196898
52.205917 -84.827209 -4.105391
53.582561 -82.545403 -5.990969
51.925919 -86.565559 -8.704834
50.122078 -89.122726 -17.555983
52.002277 -85.50737 -16.944502
22.022556 -124.493946 -10.187931
20.59545 -125.272793 -9.558456
44.069639 -94.847515 -22.227711
42.754188 -96.606896 -22.327619
46.284502 -83.060722 -24.753732
45.499083 -82.726326 -25.086525
46.941223 -91.728531 11.06753
46.925258 -91.03566 12.498905
47.003872 -92.440013 9.690017
47.319576 -91.073627 9.955165
46.941223 -91.728531 11.06753
46.63505 -93.82209 9.391989
47.013403 -93.167186 8.279624
47.003872 -92.440013 9.690017
41.841825 -102.873481 6.730243
42.781582 -101.660106 7.128954
42.15294 -102.113613 8.165588
40.788732 -104.114059 6.358847
41.417374 -103.660553 5.322214
41.841825 -102.873481 6.730243
53.823484 -82.801304 -12.471381
53.652109 -83.036984 -13.545549
18.45752 -126.407299 -6.113354
19.68743 -125.809654 -6.813978
52.578779 -81.167851 1.6554
53.221407 -79.94128 1.727802
52.453167 -80.76191 2.76418
42.035944 -85.765568 -25.081184
42.877365 -86.145302 -24.901944
41.219286 -85.326274 -25.28435
42.568073 -83.633392 -25.440762
42.035944 -85.765568 -25.081184
45.477092 -95.016807 14.199016
45.903078 -93.716644 14.542208
45.377711 -95.685326 12.692803
45.477092 -95.016807 14.199016
25.804202 -121.952168 -10.184334
24.934671 -122.594929 -11.116025
27.084316 -120.997445 -12.606196
27.953847 -120.354683 -11.674504
26.170851 -121.55357 -13.487422
27.715936 -120.404575 -13.730061
27.084316 -120.997445 -12.606196
55.958185 -77.335403 -1.316418
55.844929 -77.042026 -0.237782
54.981916 -78.233158 -0.313464
47.646068 -89.483486 -21.638656
47.133516 -91.316299 -21.225128
46.512747 -91.282757 -21.874243
48.179756 -87.671268 -22.119136
48.800525 -87.704811 -21.470022
47.646068 -89.483486 -21.638656
44.811142 -89.004635 -23.668272
44.303574 -90.969139 -23.356006
43.518158 -90.763989 -23.728229
48.544193 -83.769226 -23.538775
47.311872 -85.498848 -23.562489
47.815294 -83.582817 -23.992481
49.725996 -82.025765 -23.450482
49.222574 -83.941795 -23.020489
48.544193 -83.769226 -23.538775
50.936922 -80.325913 -23.452455
49.725996 -82.025765 -23.450482
47.105805 -98.526909 -7.959736
46.629583 -99.459851 -7.090868
46.324286 -100.135693 -8.39724
47.841751 -96.843418 -7.523785
47.105805 -98.526909 -7.959736
46.081007 -99.752056 -13.833036
46.529478 -99.222496 -12.609234
45.60236 -100.956165 -13.05204
40.28976 -101.874252 -21.75095
41.671511 -100.166088 -21.592031
41.100759 -101.874073 -21.215474
49.964251 -84.202359 5.951465
50.386263 -82.919731 6.0361
49.845543 -83.627949 7.148587
47.79347 -86.991371 13.072595
47.482813 -87.675278 14.274464
47.499111 -88.323738 12.919895
48.113369 -86.316315 11.841834
48.097071 -85.667855 13.196403
47.79347 -86.991371 13.072595
48.174278 -86.960403 10.539457
48.477879 -85.636887 10.663265
48.113369 -86.316315 11.841834
43.393867 -102.304688 2.261734
43.99196 -101.793262 1.266261
44.320223 -100.952648 2.661878
40.13645 -106.195873 1.15764
40.568874 -105.326122 2.540091
38.896707 -107.503349 0.843411
39.618438 -107.10004 -0.195992
40.13645 -106.195873 1.15764
34.99637 -111.32338 0.185285
36.312184 -110.065982 0.351177
33.635628 -112.613216 0.070301
34.36909 -112.296497 -1.075654
34.99637 -111.32338 0.185285
29.623558 -116.333332 0.094428
30.944133 -115.122452 0.026293
30.28049 -115.33984 1.299189
28.948808 -117.326893 -1.051848
29.623558 -116.333332 0.094428
53.342308 -83.568027 -9.34663
54.104164 -82.237977 -10.263844
52.666531 -83.873718 -17.667724
51.65763 -85.653667 -17.894747
52.963453 -83.728424 -16.701284
52.666531 -83.873718 -17.667724
40.617172 -107.151062 -3.620007
41.810778 -105.795468 -3.26223
41.078565 -106.255809 -2.253032
28.756529 -118.522819 -17.381121
27.070878 -119.713802 -17.172919
23.437146 -123.579658 -10.685868
22.915522 -123.957707 -9.370557
22.022556 -124.493946 -10.187931
24.934671 -122.594929 -11.116025
23.437146 -123.579658 -10.685868
56.051855 -77.508659 -2.376521
55.159197 -78.793468 -2.466716
45.294044 -93.064247 -22.027071
44.77579 -94.898838 -21.661354
44.069639 -94.847515 -22.227711
46.512747 -91.282757 -21.874243
45.294044 -93.064247 -22.027071
47.069899 -83.32898 -24.406852
45.797577 -85.044182 -24.363075
46.284502 -83.060722 -24.753732
47.815294 -83.582817 -23.992481
47.069899 -83.32898 -24.406852
45.924637 -100.844429 -9.716521
46.324286 -100.135693 -8.39724
45.448415 -101.777371 -8.847653
45.549799 -101.456356 -10.997587
45.924637 -100.844429 -9.716521
45.076301 -102.093071 -12.272866
45.549799 -101.456356 -10.997587
44.575269 -103.122822 -11.442214
44.627831 -102.622631 -13.496667
45.60236 -100.956165 -13.05204
45.076301 -102.093071 -12.272866
49.327461 -84.289315 8.313149
49.845543 -83.627949 7.148587
47.22269 -89.684894 12.727221
46.925258 -91.03566 12.498905
47.533348 -89.000988 11.525351
47.499111 -88.323738 12.919895
47.22269 -89.684894 12.727221
42.096749 -103.236518 4.288374
42.72258 -102.758567 3.270245
43.096299 -101.942024 4.67548
41.043655 -104.477097 3.916979
42.096749 -103.236518 4.288374
41.417374 -103.660553 5.322214
39.8895 -105.750157 3.57393
40.568874 -105.326122 2.540091
41.043655 -104.477097 3.916979
32.24768 -113.153988 2.448337
32.931987 -112.88453 1.281147
30.947995 -114.33725 2.455146
32.24768 -113.153988 2.448337
31.594611 -113.362278 3.672429
30.28049 -115.33984 1.299189
30.947995 -114.33725 2.455146
53.975332 -82.48948 -11.355736
53.080772 -84.213452 -11.58467
53.823484 -82.801304 -12.471381
54.104164 -82.237977 -10.263844
53.975332 -82.48948 -11.355736
50.305549 -87.603817 -19.123747
49.863284 -87.669319 -19.964042
24.182483 -122.368576 -3.910385
25.491133 -121.312882 -4.218596
24.913095 -121.49701 -2.852216
23.446921 -123.144737 -4.868607
24.182483 -122.368576 -3.910385
22.663351 -123.895927 -5.831337
23.976951 -122.935639 -6.239495
23.446921 -123.144737 -4.868607
21.869841 -124.523792 -6.664331
22.663351 -123.895927 -5.831337
21.33981 -124.732891 -5.293442
21.023615 -125.116375 -7.499528
22.347157 -124.279412 -8.037422
21.869841 -124.523792 -6.664331
20.164746 -125.565274 -8.18707
21.023615 -125.116375 -7.499528
19.68743 -125.809654 -6.813978
19.259264 -125.966072 -8.872905
20.59545 -125.272793 -9.558456
20.164746 -125.565274 -8.18707
53.982228 -78.73756 1.800877
54.722435 -77.612304 1.85701
54.107839 -79.143501 0.692098
53.982228 -78.73756 1.800877
53.221407 -79.94128 1.727802
54.376429 -80.086433 -2.560357
55.159197 -78.793468 -2.466716
54.312404 -79.8195 -1.485739
54.417212 -80.450519 -3.659555
54.376429 -80.086433 -2.560357
53.570419 -81.476551 -2.678578
54.425874 -80.703468 -4.738048
54.417212 -80.450519 -3.659555
42.674332 -90.531578 -24.003792
43.518158 -90.763989 -23.728229
43.197862 -88.508701 -24.303393
42.674332 -90.531578 -24.003792
43.69109 -86.496921 -24.638123
44.518953 -86.787705 -24.375225
43.197862 -88.508701 -24.303393
44.198456 -84.424305 -24.973776
43.69109 -86.496921 -24.638123
42.877365 -86.145302 -24.901944
44.685358 -82.374706 -25.350346
45.499083 -82.726326 -25.086525
44.198456 -84.424305 -24.973776
43.885756 -81.958057 -25.624606
44.685358 -82.374706 -25.350346
43.885756 -81.958057 -25.624606
42.568073 -83.633392 -25.440762
44.908425 -101.549202 -2.048784
45.749468 -100.131126 -1.640156
45.174754 -100.718643 -0.686782
44.539675 -102.41233 -3.421434
44.908425 -101.549202 -2.048784
44.193216 -103.235405 -4.779702
45.13668 -101.78476 -4.360428
44.539675 -102.41233 -3.421434
42.472797 -105.276848 -4.234957
41.810778 -105.795468 -3.26223
43.155443 -104.719242 -5.201728
42.472797 -105.276848 -4.234957
42.03203 -106.133114 -5.595977
43.752449 -104.091671 -6.140722
44.193216 -103.235405 -4.779702
43.155443 -104.719242 -5.201728
30.403768 -117.254906 -17.487715
29.746589 -118.183822 -16.669367
28.756529 -118.522819 -17.381121
32.077312 -115.922714 -17.548634
30.403768 -117.254906 -17.487715
33.690976 -114.538799 -17.50929
33.007491 -115.531994 -16.736618
32.077312 -115.922714 -17.548634
34.372414 -113.483387 -18.252023
35.302594 -113.092667 -17.440008
33.690976 -114.538799 -17.50929
35.041493 -112.307892 -18.892245
34.372414 -113.483387 -18.252023
35.692688 -111.068447 -19.520418
36.635227 -110.797809 -18.810915
35.041493 -112.307892 -18.892245
36.344763 -109.715687 -20.043737
35.692688 -111.068447 -19.520418
46.229662 -93.047089 13.362188
45.903078 -93.716644 14.542208
46.245627 -93.739959 11.930813
46.229662 -93.047089 13.362188
45.823189 -95.083679 11.599352
46.203081 -94.438637 10.470921
46.245627 -93.739959 11.930813
45.335165 -96.384002 11.23291
45.823189 -95.083679 11.599352
45.377711 -95.685326 12.692803
44.754429 -97.686954 10.85143
45.199907 -97.085308 9.757979
45.335165 -96.384002 11.23291
44.104639 -98.935379 10.442364
44.754429 -97.686954 10.85143
43.341402 -100.191368 10.036264
43.855934 -99.644249 8.970399
44.104639 -98.935379 10.442364
42.519379 -101.384895 9.613522
43.341402 -100.191368 10.036264
42.15294 -102.113613 8.165588
42.519379 -101.384895 9.613522
53.451898 -83.310562 -14.633768
53.652109 -83.036984 -13.545549
52.728714 -84.798855 -13.788533
26.630746 -121.244179 -9.226983
25.156656 -122.33543 -8.911143
25.804202 -121.952168 -10.184334
28.075958 -120.069748 -9.442086
27.428413 -120.453011 -8.168895
26.630746 -121.244179 -9.226983
28.788585 -119.637115 -10.644673
29.586251 -118.845947 -9.586585
28.075958 -120.069748 -9.442086
29.46414 -119.130882 -11.819004
28.788585 -119.637115 -10.644673
27.953847 -120.354683 -11.674504
25.230941 -122.013153 -14.260606
26.170851 -121.55357 -13.487422
25.815878 -121.326943 -15.313841
25.230941 -122.013153 -14.260606
26.464317 -120.57246 -16.289583
27.45091 -120.206219 -15.587031
25.815878 -121.326943 -15.313841
25.435845 -120.834526 -16.899729
27.070878 -119.713802 -17.172919
26.464317 -120.57246 -16.289583
55.697784 -76.830528 0.829062
54.722435 -77.612304 1.85701
55.697784 -76.830528 0.829062
55.844929 -77.042026 -0.237782
55.958185 -77.335403 -1.316418
56.051855 -77.508659 -2.376521
49.347645 -87.723999 -20.757562
49.863284 -87.669319 -19.964042
48.782477 -89.462349 -20.196022
49.881332 -85.911781 -21.238042
49.347645 -87.723999 -20.757562
48.800525 -87.704811 -21.470022
50.458412 -84.134956 -21.803957
49.881332 -85.911781 -21.238042
45.092226 -91.111355 -22.944738
44.303574 -90.969139 -23.356006
46.310929 -89.329864 -22.79191
45.092226 -91.111355 -22.944738
47.533035 -87.5676 -22.698276
46.310929 -89.329864 -22.79191
46.818664 -87.447521 -23.202416
48.687492 -85.788925 -22.529642
48.179756 -87.671268 -22.119136
47.533035 -87.5676 -22.698276
50.993494 -82.287826 -22.294804
50.458412 -84.134956 -21.803957
49.869295 -84.045464 -22.441349
51.571619 -80.485039 -22.882483
50.993494 -82.287826 -22.294804
51.571619 -80.485039 -22.882483
50.936922 -80.325913 -23.452455
48.490589 -95.199742 -7.117375
48.05994 -96.20739 -6.246954
47.841751 -96.843418 -7.523785
48.919712 -94.130295 -7.998868
49.137901 -93.494267 -6.722036
48.490589 -95.199742 -7.117375
48.715458 -94.672958 -9.235836
49.36277 -92.967484 -8.840497
48.919712 -94.130295 -7.998868
48.432316 -95.254544 -10.502793
48.715458 -94.672958 -9.235836
48.169773 -95.73803 -11.721315
48.895973 -93.993633 -11.295986
48.432316 -95.254544 -10.502793
47.357121 -97.508664 -12.159176
46.529478 -99.222496 -12.609234
47.820777 -96.247753 -12.952369
48.169773 -95.73803 -11.721315
47.357121 -97.508664 -12.159176
42.205948 -98.424187 -21.994751
43.016947 -98.424008 -21.459274
41.671511 -100.166088 -21.592031
42.754188 -96.606896 -22.327619
42.205948 -98.424187 -21.994751
36.966261 -108.300667 -20.569912
37.907921 -108.143345 -19.965263
36.344763 -109.715687 -20.043737
37.600436 -106.784149 -20.99789
36.966261 -108.300667 -20.569912
38.195231 -105.211105 -21.439367
39.124214 -105.155281 -20.932915
37.600436 -106.784149 -20.99789
38.810373 -103.550015 -21.795796
38.195231 -105.211105 -21.439367
40.28976 -101.874252 -21.75095
38.810373 -103.550015 -21.795796
51.682378 -81.486702 3.840974
52.453167 -80.76191 2.76418
51.029595 -82.239532 4.914575
50.386263 -82.919731 6.0361
51.157755 -82.74131 3.765378
51.682378 -81.486702 3.840974
51.029595 -82.239532 4.914575
48.88509 -84.974514 9.461617
48.477879 -85.636887 10.663265
48.981159 -85.595776 8.212419
49.327461 -84.289315 8.313149
48.88509 -84.974514 9.461617
46.212612 -95.165809 9.060527
46.63505 -93.82209 9.391989
46.203081 -94.438637 10.470921
44.626013 -101.288971 0.285498
45.174754 -100.718643 -0.686782
45.467056 -99.870895 0.694125
44.626013 -101.288971 0.285498
43.99196 -101.793262 1.266261
43.393867 -102.304688 2.261734
42.72258 -102.758567 3.270245
40.371571 -106.701984 -1.246286
41.078565 -106.255809 -2.253032
39.131828 -108.00946 -1.560515
40.371571 -106.701984 -1.246286
39.618438 -107.10004 -0.195992
39.702893 -105.29557 6.002302
40.788732 -104.114059 6.358847
39.18348 -106.123356 4.640076
39.702893 -105.29557 6.002302
38.708698 -106.972381 3.263187
39.8895 -105.750157 3.57393
39.18348 -106.123356 4.640076
38.154627 -107.862244 1.930033
38.708698 -106.972381 3.263187
37.636615 -108.766411 0.576402
38.896707 -107.503349 0.843411
38.154627 -107.862244 1.930033
37.054264 -109.707088 -0.735445
37.636615 -108.766411 0.576402
36.312184 -110.065982 0.351177
32.304706 -113.857647 0.020208
33.635628 -112.613216 0.070301
32.931987 -112.88453 1.281147
28.271894 -118.308708 -2.234571
29.610287 -117.097759 -2.361192
28.948808 -117.326893 -1.051848
26.91608 -119.489578 -2.042826
27.577558 -119.260445 -3.352171
28.271894 -118.308708 -2.234571
25.611342 -120.607296 -1.807988
26.91608 -119.489578 -2.042826
24.913095 -121.49701 -2.852216
25.611342 -120.607296 -1.807988
17.583759 -126.693306 -6.626919
18.45752 -126.407299 -6.113354
17.918445 -126.502022 -8.041072
17.583759 -126.693306 -6.626919
19.259264 -125.966072 -8.872905
17.918445 -126.502022 -8.041072
54.411554 -81.055851 -5.844644
54.425874 -80.703468 -4.738048
53.596881 -82.19302 -4.884373
52.688958 -84.899993 -8.464535
52.579269 -85.233593 -9.58693
53.342308 -83.568027 -9.34663
52.785227 -84.474357 -7.309495
52.022188 -86.139923 -7.549794
52.688958 -84.899993 -8.464535
53.517279 -82.889916 -7.107602
52.85051 -84.129845 -6.192861
52.785227 -84.474357 -7.309495
54.36788 -81.306469 -6.931309
53.517279 -82.889916 -7.107602
54.411554 -81.055851 -5.844644
54.36788 -81.306469 -6.931309
50.717531 -87.461345 -18.200488
49.710097 -89.265197 -18.479242
50.305549 -87.603817 -19.123747
51.062178 -87.315048 -17.250242
50.717531 -87.461345 -18.200488
51.65763 -85.653667 -17.894747
53.226566 -83.510955 -15.66741
52.26539 -85.289901 -15.910628
52.963453 -83.728424 -16.701284
53.451898 -83.310562 -14.633768
53.226566 -83.510955 -15.66741
3 0 44 42
3 1 47 45
3 2 50 48
3 3 53 51
3 170 169 54
3 172 171 56
3 174 173 58
3 5 62 60
3 7 65 63
3 7 66 65
3 4 69 67
3 8 72 70
3 8 74 72
3 8 76 74
3 175 77 176
3 177 79 178
3 179 178 77
3 177 178 179
3 180 81 181
3 182 181 79
3 180 181 182
3 183 84 184
3 185 184 82
3 183 184 185
3 186 85 187
3 188 187 84
3 186 187 188
3 6 89 87
3 190 189 90
3 191 93 192
3 10 193 195
3 193 95 194
3 193 194 195
3 12 96 43
3 12 97 96
3 196 98 197
3 200 199 98
3 198 199 200
3 15 100 46
3 15 101 100
3 16 104 102
3 201 105 202
3 204 203 105
3 19 109 107
3 21 110 49
3 21 111 110
3 22 114 112
3 24 115 52
3 24 116 115
3 9 117 92
3 206 205 55
3 207 118 208
3 209 119 210
3 211 210 118
3 209 210 211
3 11 212 214
3 214 213 94
3 212 213 214
3 25 122 120
3 215 123 216
3 217 216 57
3 215 216 217
3 218 124 219
3 220 219 123
3 218 219 220
3 13 221 223
3 221 125 222
3 221 222 223
3 224 126 225
3 226 225 59
3 224 225 226
3 227 127 228
3 229 228 126
3 227 228 229
3 231 230 127
3 27 130 128
3 29 131 61
3 29 132 131
3 14 133 99
3 232 134 233
3 234 233 64
3 232 233 234
3 236 235 134
3 30 237 239
3 237 135 238
3 237 238 239
3 30 136 135
3 23 137 113
3 31 138 68
3 31 139 138
3 17 140 103
3 32 141 71
3 32 142 141
3 32 143 142
3 33 144 73
3 33 145 144
3 33 146 145
3 34 147 75
3 34 240 242
3 242 241 147
3 240 241 242
3 35 243 245
3 243 148 244
3 243 244 245
3 35 149 148
3 36 246 248
3 246 247 248
3 36 249 251
3 249 250 251
3 36 252 254
3 252 150 253
3 252 253 254
3 37 151 78
3 37 152 151
3 37 153 152
3 38 154 80
3 38 155 154
3 18 156 106
3 39 157 83
3 39 158 157
3 39 255 257
3 257 256 158
3 255 256 257
3 40 258 259
3 40 260 262
3 260 159 261
3 260 261 262
3 263 160 264
3 265 161 266
3 267 266 160
3 265 266 267
3 268 162 269
3 270 269 86
3 268 269 270
3 272 271 162
3 28 163 129
3 41 164 88
3 41 165 164
3 20 166 108
3 274 273 91
3 26 167 121
3 275 168 276
3 278 277 168
3 42 43 10
3 44 43 42
3 44 12 43
3 45 279 281
3 279 46 280
3 279 280 281
3 47 46 45
3 47 15 46
3 283 282 16
3 48 49 19
3 50 49 48
3 50 21 49
3 51 52 22
3 53 52 51
3 53 24 52
3 54 55 9
3 284 55 285
3 286 285 54
3 284 285 286
3 288 287 55
3 290 289 11
3 56 57 25
3 291 57 292
3 293 292 56
3 291 292 293
3 295 294 57
3 58 59 13
3 296 59 297
3 298 297 58
3 296 297 298
3 300 299 59
3 60 61 27
3 62 61 60
3 62 29 61
3 63 64 14
3 65 64 63
3 65 301 303
3 303 302 64
3 301 302 303
3 65 304 305
3 66 306 308
3 308 307 65
3 306 307 308
3 66 309 311
3 309 30 310
3 309 310 311
3 67 68 23
3 69 68 67
3 69 31 68
3 70 71 17
3 72 71 70
3 72 32 71
3 72 73 32
3 74 73 72
3 74 33 73
3 74 75 33
3 76 75 74
3 76 34 75
3 312 35 313
3 77 314 315
3 77 316 318
3 316 36 317
3 316 317 318
3 77 78 36
3 79 78 77
3 79 37 78
3 79 80 37
3 81 80 79
3 81 38 80
3 82 83 18
3 84 83 82
3 84 39 83
3 84 319 321
3 321 320 39
3 319 320 321
3 85 322 324
3 324 323 84
3 322 323 324
3 85 325 327
3 325 40 326
3 325 326 327
3 328 86 329
3 330 86 331
3 330 331 332
3 334 333 86
3 87 88 28
3 89 88 87
3 89 41 88
3 90 91 20
3 335 91 336
3 337 336 90
3 335 336 337
3 339 338 91
3 341 340 26
3 342 92 343
3 344 343 3
3 342 343 344
3 345 92 346
3 347 9 348
3 349 348 92
3 347 348 349
3 350 9 351
3 350 351 352
3 353 54 354
3 355 354 9
3 353 354 355
3 93 356 358
3 356 54 357
3 356 357 358
3 93 359 361
3 361 360 54
3 359 360 361
3 362 94 363
3 95 364 366
3 364 94 365
3 364 365 366
3 95 11 94
3 43 95 10
3 96 95 43
3 96 11 95
3 96 367 369
3 369 368 11
3 367 368 369
3 97 370 372
3 372 371 96
3 370 371 372
3 97 373 374
3 375 13 376
3 377 13 378
3 379 58 380
3 381 380 13
3 379 380 381
3 98 382 384
3 382 58 383
3 382 383 384
3 98 385 387
3 387 386 58
3 385 386 387
3 98 388 389
3 391 390 98
3 392 99 393
3 394 393 5
3 392 393 394
3 395 99 396
3 397 14 398
3 399 398 99
3 397 398 399
3 46 400 401
3 100 402 404
3 404 403 46
3 402 403 404
3 100 405 407
3 405 14 406
3 405 406 407
3 100 63 14
3 101 63 100
3 101 7 63
3 102 103 4
3 104 103 102
3 104 17 103
3 408 104 409
3 410 409 16
3 408 409 410
3 411 104 412
3 413 17 414
3 415 414 104
3 413 414 415
3 416 70 417
3 418 417 17
3 416 417 418
3 419 70 420
3 421 8 422
3 423 422 70
3 421 422 423
3 425 424 8
3 105 426 427
3 105 428 429
3 105 430 432
3 430 106 431
3 430 431 432
3 433 106 434
3 435 434 105
3 433 434 435
3 436 18 437
3 438 437 106
3 436 437 438
3 439 18 440
3 441 82 442
3 443 442 18
3 441 442 443
3 444 82 445
3 447 446 82
3 107 108 6
3 109 108 107
3 109 20 108
3 49 109 19
3 110 109 49
3 110 20 109
3 110 90 20
3 111 90 110
3 111 448 450
3 450 449 90
3 448 449 450
3 112 113 1
3 114 113 112
3 114 23 113
3 52 114 22
3 115 114 52
3 115 23 114
3 115 67 23
3 116 67 115
3 116 4 67
3 92 53 3
3 117 53 92
3 117 24 53
3 55 117 9
3 451 117 452
3 453 452 55
3 451 452 453
3 454 24 455
3 456 455 117
3 454 455 456
3 457 116 458
3 459 458 24
3 457 458 459
3 118 460 462
3 460 116 461
3 460 461 462
3 118 4 116
3 118 102 4
3 119 102 118
3 119 16 102
3 463 119 464
3 465 119 466
3 467 16 468
3 469 468 119
3 467 468 469
3 472 471 16
3 470 471 472
3 94 473 474
3 476 475 94
3 478 477 11
3 120 121 2
3 122 121 120
3 122 26 121
3 57 122 25
3 123 122 57
3 123 26 122
3 123 479 481
3 481 480 26
3 479 480 481
3 124 482 484
3 484 483 123
3 482 483 484
3 124 485 486
3 125 487 488
3 125 489 490
3 59 125 13
3 126 125 59
3 126 491 493
3 493 492 125
3 491 492 493
3 126 494 496
3 494 124 495
3 494 495 496
3 127 124 126
3 127 497 499
3 499 498 124
3 497 498 499
3 127 500 501
3 503 502 127
3 128 129 0
3 130 129 128
3 130 28 129
3 61 130 27
3 131 130 61
3 131 28 130
3 131 87 28
3 132 87 131
3 132 6 87
3 99 62 5
3 133 62 99
3 133 29 62
3 64 133 14
3 134 133 64
3 134 29 133
3 134 132 29
3 504 132 505
3 506 505 134
3 504 505 506
3 507 6 508
3 509 508 132
3 507 508 509
3 510 107 511
3 512 511 6
3 510 511 512
3 513 107 514
3 515 19 516
3 517 516 107
3 515 516 517
3 135 518 519
3 135 520 522
3 520 19 521
3 520 521 522
3 135 48 19
3 136 48 135
3 136 2 48
3 113 47 1
3 137 47 113
3 137 15 47
3 68 137 23
3 138 137 68
3 138 15 137
3 138 101 15
3 139 101 138
3 139 7 101
3 103 69 4
3 140 69 103
3 140 31 69
3 71 140 17
3 141 140 71
3 141 31 140
3 141 139 31
3 142 139 141
3 142 7 139
3 142 66 7
3 143 66 142
3 143 30 66
3 73 143 32
3 144 143 73
3 144 30 143
3 144 136 30
3 145 136 144
3 145 2 136
3 145 120 2
3 146 120 145
3 146 25 120
3 75 146 33
3 147 146 75
3 147 25 146
3 147 56 25
3 523 56 524
3 525 524 147
3 523 524 525
3 527 526 56
3 528 76 529
3 530 529 8
3 528 529 530
3 531 76 532
3 533 34 534
3 535 534 76
3 533 534 535
3 536 34 537
3 539 538 34
3 540 10 541
3 148 542 543
3 148 544 546
3 544 10 545
3 544 545 546
3 148 42 10
3 149 42 148
3 149 0 42
3 150 547 548
3 150 549 551
3 549 35 550
3 549 550 551
3 78 150 36
3 151 150 78
3 151 35 150
3 151 149 35
3 152 149 151
3 152 0 149
3 152 128 0
3 153 128 152
3 153 27 128
3 80 153 37
3 154 153 80
3 154 27 153
3 154 60 27
3 155 60 154
3 155 5 60
3 106 552 554
3 552 81 553
3 552 553 554
3 156 81 106
3 156 38 81
3 83 156 18
3 157 156 83
3 157 38 156
3 157 155 38
3 158 155 157
3 158 5 155
3 158 555 557
3 557 556 5
3 555 556 557
3 559 558 158
3 561 560 39
3 562 45 563
3 159 564 566
3 564 45 565
3 564 565 566
3 159 1 45
3 567 85 568
3 569 85 570
3 571 40 572
3 573 572 85
3 571 572 573
3 574 40 575
3 576 159 577
3 578 577 40
3 576 577 578
3 160 579 581
3 579 159 580
3 579 580 581
3 160 1 159
3 160 112 1
3 161 112 160
3 161 22 112
3 86 582 584
3 582 161 583
3 582 583 584
3 162 161 86
3 162 22 161
3 162 51 22
3 585 51 586
3 587 586 162
3 585 586 587
3 588 3 589
3 590 589 51
3 588 589 590
3 591 3 592
3 594 593 3
3 595 93 596
3 597 93 598
3 600 599 93
3 129 44 0
3 163 44 129
3 163 12 44
3 88 163 28
3 164 163 88
3 164 12 163
3 164 97 12
3 165 97 164
3 165 601 603
3 603 602 97
3 601 602 603
3 108 89 6
3 166 89 108
3 166 41 89
3 91 166 20
3 604 166 605
3 606 605 91
3 604 605 606
3 607 41 608
3 609 608 166
3 607 608 609
3 610 165 611
3 612 611 41
3 610 611 612
3 613 165 614
3 616 615 165
3 121 50 2
3 167 50 121
3 167 21 50
3 617 167 618
3 619 618 26
3 617 618 619
3 168 620 622
3 620 167 621
3 620 621 622
3 168 21 167
3 168 111 21
3 623 111 624
3 625 624 168
3 623 624 625
3 627 626 111
