ply
format ascii 1.0
element vertex 345
property float x
property float y
property float z
element face 360
property list uchar int vertex_index
end_header
-30.503439 11.655523 -49.549889
-46.019119 16.391922 -40.99157
-37.521198 17.4846 -48.532227
-44.140678 17.083576 -50.972939
-34.942738 13.366093 -56.411888
-52.978157 14.701408 -40.266769
-33.534603 15.274944 -49.9216
-35.846458 16.589481 -53.094086
-32.037037 13.327522 -53.827911
-31.489237 9.686392 -56.29969
-29.344641 8.965551 -52.762306
-52.793762 13.101376 -35.176197
-49.482395 16.460903 -40.992039
-43.647507 12.994282 -54.564659
-48.391716 13.639507 -50.336632
-41.911884 17.890045 -45.422741
-45.207684 18.2929 -46.279846
-40.440544 18.335308 -50.48185
-39.285702 15.925457 -54.57061
-39.11599 11.206589 -57.295738
-35.194626 8.47121 -58.141647
-39.0886 16.349297 -43.09481
-35.323471 15.576321 -44.973034
-32.090881 13.202682 -45.214054
-54.97654 8.619848 -29.304134
-56.024059 11.427406 -34.122818
-48.903713 16.664906 -46.041458
-31.876966 13.609802 -49.941818
-32.697552 14.529678 -52.030556
-31.11689 12.623856 -51.884659
-30.543743 11.257376 -53.499153
-29.83573 10.464384 -51.326286
-47.78167 14.991478 -38.455917
-49.529137 15.148281 -38.391132
-47.732361 16.621666 -41.115387
-39.709087 17.927326 -47.174072
-41.195663 18.456867 -48.04726
-38.877983 18.127308 -49.707985
-35.258732 15.243511 -54.932091
-37.430214 16.547157 -54.035995
-37.019512 14.804241 -55.730949
-39.058407 13.787865 -56.12442
-36.895569 12.558992 -57.054573
-34.925423 11.067625 -57.493393
-30.130421 7.511963 -55.559685
-31.627207 7.397511 -56.8993
-40.978844 16.053616 -41.583233
-36.054214 15.359661 -42.235275
-34.37476 14.711159 -42.702171
-33.608131 14.563698 -45.293018
-32.833405 13.700035 -42.784405
-52.990067 14.312347 -37.705864
-54.46138 12.482849 -34.672409
-54.637177 13.208069 -37.214088
-54.660225 13.095806 -39.756882
-44.648117 18.09391 -48.733246
-47.018677 17.753281 -46.270485
-46.574516 17.07476 -48.6437
-50.661724 13.481548 -47.806446
-52.745361 11.06085 -47.099369
-35.436634 16.585873 -49.454445
-36.635994 17.336582 -50.944756
-34.553051 16.120426 -51.722588
-33.814766 15.123245 -53.700638
-33.311497 13.609463 -55.340675
-33.09341 11.648247 -56.597511
-31.623741 11.691582 -55.265182
-30.209347 9.535055 -54.736877
-29.065975 7.180407 -53.811241
-52.296692 11.198381 -32.733383
-51.056412 13.321175 -35.57732
-51.275955 14.94836 -38.117126
-51.241882 15.82996 -40.690434
-43.784794 15.33971 -52.934303
-46.217255 15.608425 -50.778305
-46.027615 13.471779 -52.608444
-44.041523 17.371319 -43.338417
-45.703365 17.689014 -43.681526
-43.49955 18.309086 -46.016354
-42.846081 18.544708 -48.551102
-42.203362 18.000195 -50.888687
-38.079144 17.67432 -52.011848
-39.769547 17.477493 -52.674393
-41.683792 16.694698 -52.967827
-41.374249 14.724609 -54.734993
-41.323902 12.230436 -56.145905
-35.708679 5.689381 -58.327568
-33.168312 9.340063 -57.433632
-33.50996 6.790363 -57.820381
-44.361259 15.898724 -40.554218
-42.467812 16.769348 -42.649746
-40.446568 17.177078 -44.45377
-38.378506 17.107292 -45.901733
-37.806709 15.600975 -41.377224
-37.175751 16.184547 -44.236748
-36.350872 16.569042 -46.943733
-34.44783 15.594311 -47.551914
-32.741241 14.233917 -47.725391
-31.283539 12.551037 -47.491062
-30.104364 10.613611 -46.89922
-29.431011 9.477383 -48.801697
-28.858702 8.109322 -50.415977
-56.581802 8.084572 -28.646366
-54.025505 10.97381 -32.2243
-55.654434 10.390615 -31.639843
-47.442825 17.589317 -43.73634
-49.237385 16.98975 -43.567024
-51.056351 15.865482 -43.228638
-48.591644 15.515179 -48.325459
-50.830315 15.056618 -45.633801
-52.868031 14.242691 -42.759674
-29.650222 5.204051 -55.193283
-30.211793 6.384097 -55.752018
-29.56885 6.331917 -55.00095
-33.901909 14.435678 -41.483288
-34.665135 14.765125 -41.354866
-33.131231 13.930117 -41.524405
-33.604083 14.205597 -42.743288
-33.901909 14.435678 -41.483288
-52.799831 9.820086 -47.937196
-51.682276 11.163006 -48.382689
-53.774889 9.702348 -46.653134
-52.799831 9.820086 -47.937196
-50.17106 13.272209 -35.689741
-50.782135 12.23468 -34.335057
-40.32901 10.286734 -57.229259
-41.432966 10.798658 -56.654343
-40.219946 11.718512 -56.720821
-39.281776 9.767272 -57.671509
-40.32901 10.286734 -57.229259
-36.347279 7.785903 -58.290176
-36.129952 9.209212 -58.055301
-35.451652 7.080296 -58.234607
-36.604305 6.394989 -58.383136
-36.347279 7.785903 -58.290176
-32.757084 5.8502 -57.432975
-32.568584 7.093937 -57.35984
-31.815707 6.153773 -56.972435
-33.79006 5.440247 -57.780254
-32.757084 5.8502 -57.432975
-43.563602 15.60173 -40.155576
-44.370855 15.015732 -39.11786
-42.616878 16.037042 -41.20334
-43.414535 16.334036 -41.601982
-43.563602 15.60173 -40.155576
-37.182304 15.358179 -40.381937
-37.989284 15.309847 -39.891784
-29.946976 10.156757 -45.473354
-30.458225 11.086263 -45.839036
-29.04409 8.306508 -48.283034
-29.321086 8.982421 -47.407994
-28.757936 7.622478 -49.090173
-29.144857 8.793353 -49.608837
-29.04409 8.306508 -48.283034
-55.319561 7.355623 -27.874468
-54.45171 7.460058 -28.216396
-55.779171 8.35221 -28.97525
-56.122192 7.087985 -27.545583
-55.319561 7.355623 -27.874468
-56.586078 10.415648 -32.579766
-56.401266 9.897253 -31.338278
-55.839247 10.909011 -32.881331
-56.738659 10.682924 -33.841164
-56.586078 10.415648 -32.579766
-51.797348 14.02475 -45.352386
-50.74602 14.269083 -46.720123
-51.713053 13.237215 -46.438709
-52.816206 13.617787 -43.915323
-51.849173 14.649655 -44.196737
-51.797348 14.02475 -45.352386
-53.755137 13.211889 -42.469324
-52.816206 13.617787 -43.915323
-48.655403 15.06988 -38.423524
-49.407423 14.185762 -37.096647
-48.533689 14.107361 -37.12904
-44.849316 11.904767 -54.325333
-43.702581 11.598769 -55.194122
-36.980423 11.253103 -57.511764
-38.090633 10.576901 -57.632347
-38.00578 11.88279 -57.175156
-35.99535 10.50742 -57.731174
-36.980423 11.253103 -57.511764
-35.910496 11.813308 -57.273983
-35.060024 9.769417 -57.81752
-36.129952 9.209212 -58.055301
-35.99535 10.50742 -57.731174
-30.960186 6.326871 -56.421825
-30.878814 7.454737 -56.229492
-30.211793 6.384097 -55.752018
-31.815707 6.153773 -56.972435
-30.960186 6.326871 -56.421825
-41.103035 15.421078 -40.086796
-41.872394 15.679177 -40.670084
-40.267785 15.732218 -40.865696
-41.103035 15.421078 -40.086796
-39.322662 15.880059 -41.621485
-40.033722 16.201456 -42.339022
-40.267785 15.732218 -40.865696
-35.504862 15.089377 -41.121418
-36.306056 15.237522 -40.810963
-35.214487 15.03541 -42.468723
-35.504862 15.089377 -41.121418
-34.665135 14.765125 -41.354866
-54.113007 8.729452 -29.605201
-54.45171 7.460058 -28.216396
-55.412216 12.428156 -36.944723
-56.105657 11.537824 -35.399088
-55.330618 12.317737 -35.668453
-55.42374 12.372025 -38.21612
-55.412216 12.428156 -36.944723
-54.648701 13.151937 -38.485485
-55.46125 12.08091 -39.466049
-55.42374 12.372025 -38.21612
-50.640457 12.373355 -48.736227
-49.52672 13.560527 -49.071539
-49.505453 12.452335 -50.00132
-51.703542 12.271199 -47.452908
-50.640457 12.373355 -48.736227
-51.682276 11.163006 -48.382689
-52.754871 12.026866 -46.085171
-51.713053 13.237215 -46.438709
-51.703542 12.271199 -47.452908
-53.708983 10.808788 -45.729662
-52.754871 12.026866 -46.085171
-53.708983 10.808788 -45.729662
-53.774889 9.702348 -46.653134
-29.036628 6.166139 -54.126728
-29.56885 6.331917 -55.00095
-29.598198 7.346185 -54.685463
-51.402275 11.173284 -32.913088
-51.869772 10.013986 -31.555841
-51.676552 12.259778 -34.155352
-51.402275 11.173284 -32.913088
-50.782135 12.23468 -34.335057
-50.292775 14.234728 -36.984226
-50.17106 13.272209 -35.689741
-49.407423 14.185762 -37.096647
-46.03937 12.143515 -53.347225
-44.837561 13.23303 -53.586551
-44.849316 11.904767 -54.325333
-47.195008 12.324543 -52.310764
-46.03937 12.143515 -53.347225
-48.377058 12.408407 -51.174858
-47.209665 13.555643 -51.472538
-47.195008 12.324543 -52.310764
-49.505453 12.452335 -50.00132
-48.377058 12.408407 -51.174858
-42.540779 11.216845 -55.984746
-43.702581 11.598769 -55.194122
-42.485704 12.612359 -55.355282
-42.649843 9.785068 -56.493184
-42.540779 11.216845 -55.984746
-41.432966 10.798658 -56.654343
-39.281776 9.767272 -57.671509
-38.090633 10.576901 -57.632347
-36.927482 4.908219 -58.380783
-36.604305 6.394989 -58.383136
-36.058689 4.248933 -58.180359
-36.927482 4.908219 -58.380783
-34.88942 4.889756 -58.033848
-34.609319 6.239872 -58.073974
-33.79006 5.440247 -57.780254
-36.058689 4.248933 -58.180359
-34.88942 4.889756 -58.033848
-47.648304 13.959868 -37.114536
-48.533689 14.107361 -37.12904
-46.920738 14.796243 -38.347195
-47.648304 13.959868 -37.114536
-46.039463 15.496465 -39.615021
-46.900395 15.6917 -39.723743
-46.920738 14.796243 -38.347195
-45.210533 15.249866 -39.396345
-44.370855 15.015732 -39.11786
-45.190189 16.145323 -40.772894
-46.039463 15.496465 -39.615021
-45.210533 15.249866 -39.396345
-41.723328 16.411482 -42.11649
-42.616878 16.037042 -41.20334
-41.872394 15.679177 -40.670084
-38.681717 15.505897 -40.762692
-37.989284 15.309847 -39.891784
-38.447654 15.975136 -42.236017
-39.322662 15.880059 -41.621485
-38.681717 15.505897 -40.762692
-36.930461 15.480318 -41.806249
-37.182304 15.358179 -40.381937
-36.306056 15.237522 -40.810963
-32.431454 13.443304 -41.481247
-33.131231 13.930117 -41.524405
-32.155609 13.042492 -42.649588
-32.431454 13.443304 -41.481247
-31.784348 12.793816 -43.864413
-32.462143 13.451358 -43.999229
-32.155609 13.042492 -42.649588
-31.451484 12.380798 -44.996453
-31.784348 12.793816 -43.864413
-31.047812 12.054976 -46.134957
-31.68721 12.87686 -46.352558
-31.451484 12.380798 -44.996453
-30.693952 11.582324 -47.195141
-31.047812 12.054976 -46.134957
-30.458225 11.086263 -45.839036
-29.657763 9.550535 -46.456755
-29.946976 10.156757 -45.473354
-29.767688 10.045497 -47.850459
-29.657763 9.550535 -46.456755
-29.321086 8.982421 -47.407994
-28.517325 6.859924 -49.819534
-28.757936 7.622478 -49.090173
-28.646679 7.304475 -51.04932
-28.517325 6.859924 -49.819534
-28.889648 7.732589 -52.222485
-29.101672 8.537437 -51.589141
-28.646679 7.304475 -51.04932
-28.750315 6.840018 -52.746952
-29.205308 8.072979 -53.286774
-28.889648 7.732589 -52.222485
-28.624669 5.921965 -53.185269
-28.750315 6.840018 -52.746952
-29.036628 6.166139 -54.126728
-28.624669 5.921965 -53.185269
-56.92268 6.847874 -27.182277
-56.122192 7.087985 -27.545583
-57.306076 7.63289 -28.318107
-56.92268 6.847874 -27.182277
-52.773083 10.018718 -31.319826
-51.869772 10.013986 -31.555841
-53.63749 9.906433 -31.065285
-52.773083 10.018718 -31.319826
-53.161099 11.086095 -32.478842
-54.501023 9.796829 -30.764217
-54.113007 8.729452 -29.605201
-53.63749 9.906433 -31.065285
-56.86495 8.744231 -29.841539
-56.118118 9.237593 -30.143104
-56.401266 9.897253 -31.338278
-57.306076 7.63289 -28.318107
-56.86495 8.744231 -29.841539
-56.738659 10.682924 -33.841164
-56.105657 11.537824 -35.399088
-54.651234 12.638447 -40.967928
-53.764128 13.669249 -41.258278
-53.755137 13.211889 -42.469324
-55.46125 12.08091 -39.466049
-54.651234 12.638447 -40.967928
3 0 29 27
3 0 31 29
3 1 34 32
3 2 37 35
3 4 40 38
3 4 42 40
3 4 43 42
3 113 112 44
3 111 112 113
3 114 48 115
3 116 50 117
3 118 117 48
3 116 117 118
3 5 53 51
3 5 54 53
3 3 57 55
3 119 59 120
3 122 121 59
3 6 62 60
3 8 63 28
3 8 64 63
3 8 66 64
3 10 67 30
3 10 68 67
3 123 70 124
3 12 71 33
3 12 72 71
3 13 75 73
3 15 78 76
3 17 79 36
3 17 80 79
3 7 81 61
3 18 82 39
3 18 83 82
3 18 84 83
3 19 85 41
3 19 125 127
3 127 126 85
3 125 126 127
3 19 128 129
3 20 130 131
3 20 132 134
3 132 86 133
3 132 133 134
3 9 87 65
3 135 88 136
3 137 136 45
3 135 136 137
3 139 138 88
3 140 89 141
3 142 90 143
3 144 143 89
3 142 143 144
3 21 91 46
3 21 92 91
3 145 93 146
3 22 94 47
3 22 95 94
3 22 96 95
3 23 97 49
3 23 98 97
3 147 99 148
3 149 100 150
3 151 101 152
3 153 152 100
3 151 152 153
3 24 154 155
3 24 156 158
3 156 102 157
3 156 157 158
3 11 103 69
3 25 104 52
3 25 159 161
3 161 160 104
3 159 160 161
3 25 162 163
3 16 105 77
3 26 106 56
3 26 107 106
3 14 108 74
3 164 109 165
3 166 165 58
3 164 165 166
3 167 110 168
3 169 168 109
3 167 168 169
3 171 170 110
3 27 28 6
3 29 28 27
3 29 8 28
3 29 30 8
3 31 30 29
3 31 10 30
3 32 172 174
3 172 33 173
3 172 173 174
3 34 33 32
3 34 12 33
3 176 175 13
3 35 36 15
3 37 36 35
3 37 17 36
3 38 39 7
3 40 39 38
3 40 18 39
3 40 41 18
3 42 41 40
3 42 19 41
3 42 177 179
3 179 178 19
3 177 178 179
3 43 180 182
3 182 181 42
3 180 181 182
3 43 183 185
3 183 20 184
3 183 184 185
3 44 45 9
3 186 45 187
3 188 187 44
3 186 187 188
3 190 189 45
3 191 46 192
3 193 46 194
3 195 21 196
3 197 196 46
3 195 196 197
3 198 47 199
3 48 200 202
3 200 47 201
3 200 201 202
3 48 22 47
3 48 49 22
3 50 49 48
3 50 23 49
3 203 24 204
3 51 52 11
3 53 52 51
3 53 25 52
3 53 205 207
3 207 206 25
3 205 206 207
3 54 208 210
3 210 209 53
3 208 209 210
3 54 211 212
3 55 56 16
3 57 56 55
3 57 26 56
3 213 58 214
3 215 214 14
3 213 214 215
3 59 216 218
3 216 58 217
3 216 217 218
3 59 219 221
3 221 220 58
3 219 220 221
3 59 222 223
3 225 224 59
3 60 61 2
3 62 61 60
3 62 7 61
3 28 62 6
3 63 62 28
3 63 7 62
3 63 38 7
3 64 38 63
3 64 4 38
3 64 65 4
3 66 65 64
3 66 9 65
3 30 66 8
3 67 66 30
3 67 9 66
3 67 44 9
3 68 44 67
3 68 226 228
3 228 227 44
3 226 227 228
3 229 69 230
3 70 231 233
3 231 69 232
3 231 232 233
3 70 11 69
3 33 234 236
3 234 70 235
3 234 235 236
3 71 70 33
3 71 11 70
3 71 51 11
3 72 51 71
3 72 5 51
3 73 74 3
3 75 74 73
3 75 14 74
3 237 75 238
3 239 238 13
3 237 238 239
3 240 75 241
3 242 14 243
3 244 243 75
3 242 243 244
3 246 245 14
3 76 77 1
3 78 77 76
3 78 16 77
3 36 78 15
3 79 78 36
3 79 16 78
3 79 55 16
3 80 55 79
3 80 3 55
3 61 37 2
3 81 37 61
3 81 17 37
3 39 81 7
3 82 81 39
3 82 17 81
3 82 80 17
3 83 80 82
3 83 3 80
3 83 73 3
3 84 73 83
3 84 13 73
3 41 84 18
3 85 84 41
3 85 13 84
3 85 247 249
3 249 248 13
3 247 248 249
3 252 251 85
3 250 251 252
3 254 253 19
3 86 255 256
3 86 257 258
3 65 43 4
3 87 43 65
3 87 20 43
3 45 87 9
3 88 87 45
3 88 20 87
3 88 86 20
3 259 86 260
3 261 260 88
3 259 260 261
3 263 262 86
3 264 32 265
3 266 32 267
3 268 1 269
3 270 269 32
3 268 269 270
3 89 271 272
3 89 273 275
3 273 1 274
3 273 274 275
3 89 76 1
3 90 76 89
3 90 15 76
3 46 276 278
3 276 90 277
3 276 277 278
3 91 90 46
3 91 15 90
3 91 35 15
3 92 35 91
3 92 2 35
3 93 279 280
3 93 281 283
3 281 21 282
3 281 282 283
3 47 284 286
3 284 93 285
3 284 285 286
3 94 93 47
3 94 21 93
3 94 92 21
3 95 92 94
3 95 2 92
3 95 60 2
3 96 60 95
3 96 6 60
3 49 96 22
3 97 96 49
3 97 6 96
3 97 27 6
3 98 27 97
3 98 0 27
3 287 50 288
3 289 50 290
3 291 23 292
3 293 292 50
3 291 292 293
3 294 23 295
3 296 98 297
3 298 297 23
3 296 297 298
3 99 299 301
3 299 98 300
3 299 300 301
3 99 0 98
3 302 99 303
3 100 304 306
3 304 99 305
3 304 305 306
3 100 0 99
3 100 31 0
3 101 31 100
3 101 10 31
3 307 101 308
3 309 101 310
3 311 10 312
3 313 312 101
3 311 312 313
3 314 68 315
3 316 315 10
3 314 315 316
3 317 68 318
3 320 319 68
3 102 321 322
3 102 323 324
3 69 325 326
3 103 327 329
3 329 328 69
3 327 328 329
3 103 330 332
3 330 24 331
3 330 331 332
3 52 103 11
3 104 103 52
3 104 24 103
3 104 102 24
3 333 102 334
3 335 334 104
3 333 334 335
3 337 336 102
3 339 338 25
3 77 34 1
3 105 34 77
3 105 12 34
3 56 105 16
3 106 105 56
3 106 12 105
3 106 72 12
3 107 72 106
3 107 5 72
3 74 57 3
3 108 57 74
3 108 26 57
3 58 108 14
3 109 108 58
3 109 26 108
3 109 107 26
3 110 107 109
3 110 5 107
3 110 54 5
3 340 54 341
3 342 341 110
3 340 341 342
3 344 343 54
