ply
format ascii 1.0
element vertex 477
property float x
property float y
property float z
element face 436
property list uchar int vertex_index
end_header
43.911751 15.802189 -35.057663
53.305443 2.402288 -22.084528
45.850586 -6.430392 -13.278677
62.7286 -5.35404 -12.15044
49.58984 10.340231 -29.492975
44.972565 -13.850804 -5.837412
37.130058 17.392445 -37.274467
54.600922 -6.747833 -13.698616
48.81871 1.62187 -21.140982
47.465656 6.04031 -24.141748
51.709564 6.614716 -25.945211
55.764919 8.287928 -26.542128
40.530792 17.162525 -36.667702
48.617195 -15.240624 -5.6171
49.653946 -11.649286 -9.99984
54.136971 -11.163432 -9.306379
49.702347 -2.976322 -17.80208
45.672752 10.112574 -26.793264
46.97802 13.45784 -32.594734
43.767197 -16.331703 -1.394981
45.705967 -10.585133 -9.857903
50.014893 -7.500249 -14.09271
54.302692 -2.136023 -17.985441
59.03157 -5.572071 -12.81311
58.646488 -0.743353 -17.366465
57.537445 3.960196 -21.978415
51.052647 1.790031 -21.785975
50.375923 3.967873 -23.543276
52.576557 4.561346 -24.048204
53.796394 7.450359 -26.358332
54.720745 5.389084 -24.260263
42.317413 15.81398 -32.985313
42.245567 16.617836 -35.981476
47.508041 -2.658897 -17.190008
47.747334 -5.002324 -15.584345
48.658058 8.045231 -26.812464
46.625546 8.128712 -25.514048
47.623302 9.914007 -28.306349
46.47015 11.64813 -29.688292
48.344269 11.983711 -31.110487
48.725395 14.162834 -33.943161
50.188568 12.747189 -32.211601
43.07534 -17.348095 0.882526
45.297348 -17.514452 -1.308029
44.507465 -18.687408 0.956843
45.410511 -12.329144 -7.918276
52.166183 -9.452844 -11.889381
49.922184 -9.637642 -12.09156
52.289337 -7.272428 -14.008064
52.228622 -5.021706 -16.062201
54.544903 -4.450856 -15.861704
61.004745 -5.276271 -12.422831
61.600677 2.064314 -19.149469
60.52803 -0.360233 -17.015284
60.029289 2.066389 -19.384005
58.178715 1.640268 -19.671869
58.537544 6.713205 -24.188868
46.677528 2.107124 -20.115427
46.107346 4.460461 -21.453764
48.19696 3.86532 -22.682985
49.575939 6.058319 -25.221121
50.712421 8.545662 -27.764975
51.524837 11.14497 -30.353426
52.729065 9.374224 -28.395132
38.809868 17.421196 -37.100304
46.689804 -14.768611 -5.811869
47.213455 -13.156054 -7.985981
49.214024 -13.518174 -7.833792
51.857162 -11.535187 -9.719418
54.464645 -8.993748 -11.508141
62.510147 -2.868872 -14.404774
47.147057 -0.276274 -18.696756
49.324409 -0.668163 -19.515249
51.596176 -0.454086 -19.95273
45.454914 16.341133 -36.897537
43.682922 17.049793 -38.048706
62.783417 -7.83133 -9.995237
64.305115 -8.360764 -9.899748
64.14782 -5.878158 -12.016562
43.809437 14.625031 -32.046295
44.601692 11.971275 -27.970449
45.197659 13.226921 -30.941133
45.496502 14.739616 -33.919701
47.14307 15.369572 -35.51683
44.413754 -15.175083 -3.648832
46.03952 -16.215124 -3.574673
42.385994 -21.635605 7.486606
42.994911 -20.732546 5.376825
43.721313 -19.754219 3.19295
41.859871 17.470715 -38.935745
40.029312 17.587273 -39.530807
36.551556 16.911022 -39.797813
45.850925 -8.61164 -11.642277
47.586956 -11.364799 -10.065775
47.798798 -9.39447 -12.029196
47.849129 -7.262215 -13.867558
49.937584 -5.267019 -15.996096
51.993095 -2.736271 -18.044611
53.885159 0.160019 -20.061689
56.746574 -8.437491 -11.045645
60.854904 -2.816315 -14.689608
58.932846 -3.15773 -15.075405
56.805748 -3.761523 -15.497112
56.547417 -1.39851 -17.723024
56.106674 0.936762 -19.932207
55.494133 3.209583 -22.11455
56.730579 6.185114 -24.273138
45.784621 -5.258977 -14.032535
44.952957 -5.679591 -12.79544
46.79896 -5.716358 -14.431511
46.732995 -4.544942 -15.18537
45.784621 -5.258977 -14.032535
42.731676 -17.798149 2.014754
42.194673 -16.83605 2.008095
43.447738 -18.467806 2.051912
43.791403 -18.017752 0.919685
42.731676 -17.798149 2.014754
36.516474 17.703919 -36.046669
37.312885 17.632645 -35.967517
36.333013 17.24196 -37.237033
36.516474 17.703919 -36.046669
45.191538 -13.089974 -6.877844
44.449548 -12.39557 -6.795683
44.230576 -13.1564 -5.755251
61.866672 -5.315156 -12.286635
60.989757 -6.498529 -11.326751
61.851685 -6.537413 -11.190555
60.474148 3.267434 -20.495102
60.814983 2.065352 -19.266737
61.259842 3.266396 -20.377834
59.6968 3.250298 -20.582175
60.474148 3.267434 -20.495102
55.205427 9.26711 -27.655756
54.221165 8.848325 -27.563858
54.780656 7.869143 -26.45023
56.085926 9.59166 -27.759119
55.205427 9.26711 -27.655756
39.827129 17.309442 -35.484905
40.637542 16.964035 -35.204605
39.67033 17.29186 -36.884003
38.966667 17.438778 -35.701206
39.827129 17.309442 -35.484905
52.997067 -11.34931 -9.512898
51.613319 -12.51906 -8.618286
52.753224 -12.333182 -8.411767
46.309252 -0.957262 -17.441562
46.135138 0.294942 -18.096649
45.260365 17.09148 -38.376091
46.201505 16.76471 -37.672562
62.728363 -9.062129 -8.972772
61.774948 -8.984633 -9.061112
64.762459 -7.615768 -10.955267
64.897484 -8.8448 -9.913282
64.683811 -6.374465 -12.013674
64.226467 -7.119461 -10.958155
64.762459 -7.615768 -10.955267
64.491398 -5.144886 -13.121057
64.683811 -6.374465 -12.013674
43.609301 14.152596 -30.540933
42.954102 14.917967 -31.012459
46.451737 6.399468 -23.428762
45.772582 5.609543 -22.08477
46.786501 5.250386 -22.797756
45.168458 9.545745 -25.347663
45.644855 8.553814 -24.708056
46.149149 9.120643 -26.153656
44.725349 10.605264 -25.902073
45.168458 9.545745 -25.347663
45.137222 11.041925 -27.381856
44.189819 11.534614 -26.490665
44.725349 10.605264 -25.902073
48.732444 15.208217 -35.37698
49.571327 14.614746 -34.465439
51.745733 12.39983 -31.685708
52.451543 11.593111 -30.644588
43.12341 -15.51319 -1.385893
42.830246 -15.950356 -0.25913
44.090475 -15.753393 -2.521907
43.446688 -14.93488 -2.512819
43.12341 -15.51319 -1.385893
46.593429 -17.169055 -2.342409
46.182407 -17.897787 -1.223398
43.107399 -22.404897 7.445988
42.168452 -22.053027 8.493443
44.161646 -20.809791 4.311545
43.757361 -21.39919 5.368853
44.524847 -20.320628 3.219607
43.358112 -20.243382 4.284887
44.161646 -20.809791 4.311545
44.958856 -19.692107 2.133898
44.524847 -20.320628 3.219607
42.492821 17.829186 -39.961887
42.771396 17.260254 -38.492226
43.404347 17.618724 -39.518367
39.644419 17.740168 -40.908848
40.600828 17.897025 -40.669579
39.135854 17.49173 -39.674366
39.644419 17.740168 -40.908848
36.169308 16.620148 -40.995018
36.998747 17.084194 -41.10474
35.776771 16.537132 -39.644146
36.169308 16.620148 -40.995018
44.875553 -9.927878 -9.602079
44.77093 -10.798341 -8.731997
45.778446 -9.598387 -10.75009
44.948032 -8.941132 -10.494266
44.875553 -9.927878 -9.602079
57.889072 -7.004781 -11.929378
57.843328 -8.199469 -10.820476
58.985827 -6.766758 -11.704209
57.952482 -5.844918 -13.039779
56.809984 -7.277627 -12.156046
57.889072 -7.004781 -11.929378
61.493656 -1.602934 -15.716461
61.682525 -2.842593 -14.547191
62.321278 -1.629212 -15.574044
58.044516 7.794243 -25.391132
58.822139 7.866275 -25.39505
41.530853 16.289763 -33.363411
41.500795 16.173769 -31.887972
41.49493 16.69169 -34.861492
41.530853 16.289763 -33.363411
42.28149 16.215908 -34.483395
41.388179 16.89018 -36.324589
40.637542 16.964035 -35.204605
41.49493 16.69169 -34.861492
49.993336 -14.371778 -6.567127
49.668897 -15.295966 -5.460932
53.882203 -12.202894 -8.20929
52.753224 -12.333182 -8.411767
46.613348 -3.373229 -15.988201
46.489744 -2.148573 -16.688188
47.627688 -3.83061 -16.387176
46.613348 -3.373229 -15.988201
46.732995 -4.544942 -15.18537
50.302914 13.906924 -33.599659
49.571327 14.614746 -34.465439
49.456981 13.455012 -33.077381
42.484318 -16.458551 0.879624
42.194673 -16.83605 2.008095
43.421268 -16.839899 -0.256227
42.830246 -15.950356 -0.25913
42.484318 -16.458551 0.879624
45.787466 -18.484265 -0.090962
46.182407 -17.897787 -1.223398
44.902406 -18.10093 -0.175593
44.623202 -11.670346 -7.762183
44.449548 -12.39557 -6.795683
45.558239 -11.457138 -8.888089
44.77093 -10.798341 -8.731997
44.623202 -11.670346 -7.762183
59.972414 -6.618858 -11.509069
60.989757 -6.498529 -11.326751
60.018158 -5.424171 -12.617971
58.985827 -6.766758 -11.704209
59.972414 -6.618858 -11.509069
61.064353 0.85204 -18.082377
61.330219 -0.374893 -16.8793
61.866542 0.83738 -17.946392
58.771513 3.037238 -20.726107
59.104002 1.853328 -19.527937
59.6968 3.250298 -20.582175
58.450878 4.197202 -21.879379
57.85808 2.800232 -20.825142
58.771513 3.037238 -20.726107
58.950927 5.573707 -22.984606
58.037494 5.336701 -23.083641
58.450878 4.197202 -21.879379
59.313015 6.754603 -24.142508
58.950927 5.573707 -22.984606
58.822139 7.866275 -25.39505
59.313015 6.754603 -24.142508
44.982166 -6.829471 -12.09075
44.952957 -5.679591 -12.79544
46.392437 3.283792 -20.784596
45.395344 3.921651 -20.092356
45.680435 2.744982 -19.423187
53.053657 10.707738 -29.665442
52.451543 11.593111 -30.644588
52.126951 10.259597 -29.374279
53.6875 9.810258 -28.582258
53.262729 8.412292 -27.376732
54.221165 8.848325 -27.563858
53.053657 10.707738 -29.665442
53.6875 9.810258 -28.582258
38.15279 17.64702 -35.880436
38.966667 17.438778 -35.701206
37.969963 17.40682 -37.187386
37.312885 17.632645 -35.967517
38.15279 17.64702 -35.880436
50.29175 -13.510553 -7.675473
48.91561 -14.379399 -6.725446
49.993336 -14.371778 -6.567127
50.535593 -12.526681 -8.776605
50.29175 -13.510553 -7.675473
51.613319 -12.51906 -8.618286
63.179386 -3.130773 -14.327938
62.619374 -4.111456 -13.277607
63.288612 -4.373357 -13.200771
62.962361 -1.891033 -15.497276
63.179386 -3.130773 -14.327938
62.321278 -1.629212 -15.574044
62.962361 -1.891033 -15.497276
62.226257 1.80537 -19.082655
61.866542 0.83738 -17.946392
61.882154 3.016007 -20.330093
62.226257 1.80537 -19.082655
61.259842 3.266396 -20.377834
61.882154 3.016007 -20.330093
45.900374 1.486642 -18.805985
45.680435 2.744982 -19.423187
46.912292 0.915425 -19.406092
45.900374 1.486642 -18.805985
46.135138 0.294942 -18.096649
47.327549 -1.467585 -17.943382
46.309252 -0.957262 -17.441562
46.489744 -2.148573 -16.688188
44.374369 17.44581 -38.951676
44.568918 16.695463 -37.473122
45.260365 17.09148 -38.376091
43.404347 17.618724 -39.518367
44.374369 17.44581 -38.951676
61.879093 -7.776058 -10.112954
61.774948 -8.984633 -9.061112
62.756009 -6.592685 -11.072838
61.851685 -6.537413 -11.190555
61.879093 -7.776058 -10.112954
64.310303 -9.598293 -8.904254
64.897484 -8.8448 -9.913282
63.489212 -9.326846 -8.925028
64.310303 -9.598293 -8.904254
63.544266 -8.096047 -9.947492
62.728363 -9.062129 -8.972772
63.489212 -9.326846 -8.925028
63.998222 -4.635416 -13.133832
63.288612 -4.373357 -13.200771
63.43821 -5.616099 -12.083501
63.998222 -4.635416 -13.133832
64.491398 -5.144886 -13.121057
42.208089 15.512442 -31.481969
41.500795 16.173769 -31.887972
43.063425 15.219506 -32.515804
42.208089 15.512442 -31.481969
42.954102 14.917967 -31.012459
45.130927 5.168611 -20.676749
45.395344 3.921651 -20.092356
45.130927 5.168611 -20.676749
45.772582 5.609543 -22.08477
46.031682 7.443669 -24.114912
46.451737 6.399468 -23.428762
47.045601 7.084511 -24.827898
46.031682 7.443669 -24.114912
45.644855 8.553814 -24.708056
43.686394 12.530556 -27.005003
44.189819 11.534614 -26.490665
44.005428 12.825718 -28.503009
43.686394 12.530556 -27.005003
44.303411 13.453541 -29.988352
44.005428 12.825718 -28.503009
44.899676 12.599098 -29.455791
44.503548 13.925976 -31.493714
43.609301 14.152596 -30.540933
44.303411 13.453541 -29.988352
47.045583 16.278929 -36.982208
46.201505 16.76471 -37.672562
46.298992 15.855352 -36.207183
47.941282 15.811587 -36.163815
47.934233 14.766203 -34.729996
48.732444 15.208217 -35.37698
47.045583 16.278929 -36.982208
47.941282 15.811587 -36.163815
51.077598 13.20094 -32.614795
50.856702 11.946079 -31.282514
51.745733 12.39983 -31.685708
50.302914 13.906924 -33.599659
51.077598 13.20094 -32.614795
43.99888 -13.76147 -4.707992
44.230576 -13.1564 -5.755251
43.719475 -14.42361 -3.613702
43.446688 -14.93488 -2.512819
44.69316 -14.512944 -4.743122
43.99888 -13.76147 -4.707992
43.719475 -14.42361 -3.613702
46.964516 -16.519391 -3.475731
45.668434 -16.864788 -2.441351
46.593429 -17.169055 -2.342409
48.253353 -16.032141 -4.496944
47.328358 -15.727874 -4.595886
46.964516 -16.519391 -3.475731
49.668897 -15.295966 -5.460932
48.253353 -16.032141 -4.496944
41.645966 -21.035417 8.519997
42.168452 -22.053027 8.493443
41.816759 -20.706548 7.499035
41.645966 -21.035417 8.519997
43.452902 -21.85072 6.423744
43.107399 -22.404897 7.445988
42.690452 -21.184075 6.431716
43.452902 -21.85072 6.423744
43.757361 -21.39919 5.368853
42.121218 -20.255018 6.444145
41.816759 -20.706548 7.499035
42.690452 -21.184075 6.431716
42.377402 -19.892508 5.371613
42.121218 -20.255018 6.444145
42.740603 -19.403345 4.279675
42.377402 -19.892508 5.371613
43.358112 -20.243382 4.284887
43.054663 -19.001211 3.169966
42.740603 -19.403345 4.279675
44.114389 -19.220813 2.074896
43.447738 -18.467806 2.051912
43.054663 -19.001211 3.169966
45.351933 -19.158701 1.015845
44.114389 -19.220813 2.074896
44.958856 -19.692107 2.133898
45.787466 -18.484265 -0.090962
45.351933 -19.158701 1.015845
41.516108 17.838746 -40.372047
42.492821 17.829186 -39.961887
40.944592 17.528994 -39.233276
41.516108 17.838746 -40.372047
40.600828 17.897025 -40.669579
38.526133 17.408691 -38.459114
39.41959 17.504234 -38.315556
39.135854 17.49173 -39.674366
37.686228 17.394316 -38.546195
37.969963 17.40682 -37.187386
38.526133 17.408691 -38.459114
37.396976 17.153605 -39.807868
36.998747 17.084194 -41.10474
36.840807 17.151733 -38.53614
37.686228 17.394316 -38.546195
37.396976 17.153605 -39.807868
36.043762 17.001249 -38.498706
36.333013 17.24196 -37.237033
36.840807 17.151733 -38.53614
36.043762 17.001249 -38.498706
35.776771 16.537132 -39.644146
44.982336 -7.920095 -11.27255
44.948032 -8.941132 -10.494266
45.850755 -7.521016 -12.460477
44.982166 -6.829471 -12.09075
44.982336 -7.920095 -11.27255
55.282452 -10.931394 -9.078917
53.882203 -12.202894 -8.20929
56.587254 -9.568423 -9.94855
57.843328 -8.199469 -10.820476
55.441772 -9.800462 -10.176012
55.282452 -10.931394 -9.078917
56.587254 -9.568423 -9.94855
55.669019 -7.555756 -12.387294
55.605609 -8.715619 -11.276893
56.809984 -7.277627 -12.156046
55.737158 -6.432799 -13.482532
54.532783 -7.870791 -12.603378
55.669019 -7.555756 -12.387294
60.691467 -1.588274 -15.852446
61.493656 -1.602934 -15.716461
61.330219 -0.374893 -16.8793
57.90312 -4.637747 -14.170926
57.952482 -5.844918 -13.039779
58.982208 -4.364901 -13.944257
56.839571 -4.939643 -14.38178
57.90312 -4.637747 -14.170926
57.869297 -3.459626 -15.286258
55.703335 -5.254678 -14.597864
55.737158 -6.432799 -13.482532
56.839571 -4.939643 -14.38178
57.141033 7.530197 -25.433267
57.634062 6.44916 -24.231003
58.044516 7.794243 -25.391132
56.658203 8.581604 -26.567763
56.247749 7.236521 -25.407633
57.141033 7.530197 -25.433267
56.085926 9.59166 -27.759119
56.658203 8.581604 -26.567763
3 1 28 26
3 1 30 28
3 0 32 31
3 2 107 108
3 2 109 111
3 109 34 110
3 109 110 111
3 4 37 35
3 4 39 37
3 4 41 39
3 112 42 113
3 114 44 115
3 116 115 42
3 114 115 116
3 6 117 118
3 6 119 120
3 5 121 123
3 121 45 122
3 121 122 123
3 7 48 46
3 7 50 48
3 3 124 126
3 124 51 125
3 124 125 126
3 127 54 128
3 129 128 52
3 127 128 129
3 131 130 54
3 8 59 57
3 10 60 27
3 10 61 60
3 10 63 61
3 11 132 134
3 134 133 29
3 132 133 134
3 11 135 136
3 12 137 138
3 12 139 141
3 139 64 140
3 139 140 141
3 13 67 65
3 15 142 144
3 142 68 143
3 142 143 144
3 15 69 68
3 145 71 146
3 16 72 33
3 16 73 72
3 148 147 74
3 149 76 150
3 151 77 152
3 153 78 154
3 155 154 77
3 153 154 155
3 157 156 78
3 158 79 159
3 9 160 162
3 162 161 58
3 160 161 162
3 17 163 165
3 165 164 36
3 163 164 165
3 17 166 167
3 17 168 170
3 168 80 169
3 168 169 170
3 18 81 38
3 18 82 81
3 18 83 82
3 172 171 40
3 174 173 62
3 19 175 176
3 19 177 179
3 177 84 178
3 177 178 179
3 19 85 84
3 181 180 43
3 182 86 183
3 184 87 185
3 186 88 187
3 188 187 87
3 186 187 188
3 190 189 88
3 191 89 192
3 193 192 75
3 191 192 193
3 194 90 195
3 197 196 90
3 198 91 199
3 201 200 91
3 20 202 203
3 20 204 206
3 204 92 205
3 204 205 206
3 14 93 66
3 21 94 47
3 21 95 94
3 21 96 95
3 22 97 49
3 22 98 97
3 23 207 209
3 207 99 208
3 207 208 209
3 23 210 212
3 212 211 99
3 210 211 212
3 213 100 214
3 215 214 70
3 213 214 215
3 24 101 53
3 24 102 101
3 24 103 102
3 25 104 55
3 25 105 104
3 25 106 105
3 217 216 56
3 26 27 8
3 28 27 26
3 28 10 27
3 28 29 10
3 30 29 28
3 30 11 29
3 31 218 219
3 32 220 222
3 222 221 31
3 220 221 222
3 32 223 225
3 223 12 224
3 223 224 225
3 227 226 13
3 228 15 229
3 230 33 231
3 34 232 234
3 232 33 233
3 232 233 234
3 34 16 33
3 35 36 9
3 37 36 35
3 37 17 36
3 37 38 17
3 39 38 37
3 39 18 38
3 39 40 18
3 41 40 39
3 41 235 237
3 237 236 40
3 235 236 237
3 42 238 239
3 42 240 242
3 240 19 241
3 240 241 242
3 42 43 19
3 44 43 42
3 44 243 245
3 245 244 43
3 243 244 245
3 45 246 247
3 45 248 250
3 248 20 249
3 248 249 250
3 46 47 14
3 48 47 46
3 48 21 47
3 48 49 21
3 50 49 48
3 50 22 49
3 51 251 252
3 51 253 255
3 253 23 254
3 253 254 255
3 52 256 258
3 256 53 257
3 256 257 258
3 54 53 52
3 54 24 53
3 54 55 24
3 259 55 260
3 261 260 54
3 259 260 261
3 262 25 263
3 264 263 55
3 262 263 264
3 265 56 266
3 267 266 25
3 265 266 267
3 268 56 269
3 271 270 56
3 272 2 273
3 57 274 276
3 274 58 275
3 274 275 276
3 59 58 57
3 59 9 58
3 27 59 8
3 60 59 27
3 60 9 59
3 60 35 9
3 61 35 60
3 61 4 35
3 61 62 4
3 63 62 61
3 63 277 279
3 279 278 62
3 277 278 279
3 29 63 10
3 280 63 281
3 282 281 29
3 280 281 282
3 284 283 63
3 64 285 286
3 64 287 289
3 287 6 288
3 287 288 289
3 65 66 5
3 67 66 65
3 67 14 66
3 290 67 291
3 292 291 13
3 290 291 292
3 68 293 295
3 293 67 294
3 293 294 295
3 68 14 67
3 68 46 14
3 69 46 68
3 69 7 46
3 296 70 297
3 298 297 3
3 296 297 298
3 299 70 300
3 302 301 70
3 303 52 304
3 305 52 306
3 308 307 52
3 309 57 310
3 71 311 313
3 311 57 312
3 311 312 313
3 71 8 57
3 33 314 316
3 314 71 315
3 314 315 316
3 72 71 33
3 72 8 71
3 72 26 8
3 73 26 72
3 73 1 26
3 74 75 0
3 317 75 318
3 319 318 74
3 317 318 319
3 321 320 75
3 76 322 323
3 76 324 326
3 324 3 325
3 324 325 326
3 77 327 328
3 77 329 330
3 77 331 333
3 331 76 332
3 331 332 333
3 78 76 77
3 78 3 76
3 78 334 336
3 336 335 3
3 334 335 336
3 338 337 78
3 339 31 340
3 79 341 343
3 341 31 342
3 341 342 343
3 79 0 31
3 58 344 345
3 347 346 58
3 36 348 350
3 350 349 9
3 348 349 350
3 352 351 36
3 80 353 354
3 80 355 356
3 38 80 17
3 81 80 38
3 81 357 359
3 359 358 80
3 357 358 359
3 81 360 362
3 360 79 361
3 360 361 362
3 82 79 81
3 82 0 79
3 82 74 0
3 83 74 82
3 83 363 365
3 365 364 74
3 363 364 365
3 40 83 18
3 366 83 367
3 368 367 40
3 366 367 368
3 370 369 83
3 62 41 4
3 371 41 372
3 373 372 62
3 371 372 373
3 375 374 41
3 376 5 377
3 84 378 379
3 84 380 382
3 380 5 381
3 380 381 382
3 84 65 5
3 85 65 84
3 85 13 65
3 43 85 19
3 383 85 384
3 385 384 43
3 383 384 385
3 386 13 387
3 388 387 85
3 386 387 388
3 390 389 13
3 86 391 392
3 86 393 394
3 395 86 396
3 87 397 399
3 397 86 398
3 397 398 399
3 87 400 402
3 402 401 86
3 400 401 402
3 87 403 404
3 88 405 407
3 407 406 87
3 405 406 407
3 88 408 409
3 88 410 412
3 410 44 411
3 410 411 412
3 413 44 414
3 415 414 88
3 413 414 415
3 417 416 44
3 75 32 0
3 89 32 75
3 89 12 32
3 418 89 419
3 90 420 422
3 420 89 421
3 420 421 422
3 90 12 89
3 90 64 12
3 423 64 424
3 425 424 90
3 423 424 425
3 426 6 427
3 428 427 64
3 426 427 428
3 91 429 430
3 91 431 433
3 431 6 432
3 431 432 433
3 91 434 436
3 436 435 6
3 434 435 436
3 438 437 91
3 92 439 440
3 92 441 443
3 441 2 442
3 441 442 443
3 66 45 5
3 93 45 66
3 93 20 45
3 47 93 14
3 94 93 47
3 94 20 93
3 94 92 20
3 95 92 94
3 95 2 92
3 95 34 2
3 96 34 95
3 96 16 34
3 49 96 21
3 97 96 49
3 97 16 96
3 97 73 16
3 98 73 97
3 98 1 73
3 444 15 445
3 99 446 447
3 99 448 450
3 448 15 449
3 448 449 450
3 99 69 15
3 451 69 452
3 453 452 99
3 451 452 453
3 454 7 455
3 456 455 69
3 454 455 456
3 70 51 3
3 100 51 70
3 100 23 51
3 53 457 459
3 457 100 458
3 457 458 459
3 101 100 53
3 101 23 100
3 101 460 462
3 462 461 23
3 460 461 462
3 102 463 465
3 465 464 101
3 463 464 465
3 102 466 468
3 466 7 467
3 466 467 468
3 102 50 7
3 103 50 102
3 103 22 50
3 55 103 24
3 104 103 55
3 104 22 103
3 104 98 22
3 105 98 104
3 105 1 98
3 105 30 1
3 106 30 105
3 106 11 30
3 56 106 25
3 469 106 470
3 471 470 56
3 469 470 471
3 472 11 473
3 474 473 106
3 472 473 474
3 476 475 11
