ply
format ascii 1.0
element vertex 440
property float x
property float y
property float z
element face 468
property list uchar int vertex_index
end_header
3.62484 -98.800415 1.014847
13.334026 -74.56987 -2.105564
2.215578 -110.527573 -0.653854
5.712626 -117.393219 -11.676729
8.464184 -86.885422 0.577958
3.166445 -99.522499 9.137257
9.259214 -89.393875 7.417199
13.704596 -79.669525 4.778914
2.450436 -104.762596 0.245845
2.265038 -109.154083 -5.053541
2.148937 -102.971313 -3.50868
11.309196 -80.837891 -0.692741
7.766632 -83.216057 -2.506655
10.676249 -76.54631 -3.876448
1.209015 -105.015068 9.603779
8.627937 -89.176605 11.560843
12.06287 -84.619576 6.140661
10.938772 -126.227127 -7.416
7.777819 -123.529396 -7.561543
2.903324 -115.879265 -1.351109
5.197063 -119.589027 -7.175062
3.314762 -114.743439 -6.339998
3.611425 -112.318214 -10.393084
5.703695 -92.829529 1.206652
3.048992 -96.448593 -2.237713
4.998421 -89.834267 -1.836802
1.990078 -116.045143 4.227386
1.524126 -110.806213 4.392855
2.1555 -105.243256 4.646094
3.805567 -99.642326 4.796871
5.279943 -94.019669 12.869998
6.043673 -94.297218 8.432982
6.277014 -94.188919 4.572034
9.201134 -88.884415 3.800022
11.973747 -83.532745 2.568504
13.802053 -77.900253 1.193374
8.603985 -121.494148 -12.426931
2.920362 -101.792244 0.675177
2.322983 -104.055443 -1.719412
2.696606 -100.960114 -1.137346
12.481852 -77.731682 -1.417446
10.942091 -78.872086 -2.281313
12.145452 -75.627533 -3.016037
5.565819 -122.614929 -1.801954
7.325418 -124.083466 -4.74901
6.014402 -122.29364 -4.697701
2.446497 -113.267746 -1.039286
3.173569 -115.453659 -3.939552
2.62483 -112.803551 -3.490126
2.264393 -107.936264 -6.931314
2.722021 -110.919609 -7.775217
2.910652 -109.433151 -9.534975
7.026041 -89.859726 0.993984
5.297098 -91.536224 -0.337931
6.605696 -88.395615 -0.535057
7.722197 -80.83728 -4.087997
6.27158 -84.297592 -3.586653
1.098518 -113.348816 7.129273
1.618189 -113.487213 4.293205
2.046038 -102.248528 9.393064
1.721817 -105.172585 7.055979
2.517368 -102.394333 7.001493
2.86224 -102.43277 4.751196
3.568848 -99.651375 6.896229
9.001888 -89.314407 9.418742
7.348808 -91.686234 10.021674
7.653753 -91.812317 7.964351
6.265377 -94.351784 6.434971
7.790993 -91.799446 6.04579
7.714254 -91.526779 4.255749
9.334444 -89.288788 5.548388
13.069986 -82.183792 5.456623
12.111958 -84.255013 4.30302
13.15303 -81.658539 3.617907
13.056374 -80.761322 1.87487
13.841389 -78.971962 2.941034
13.920546 -73.300568 1.753277
11.489302 -125.512032 -10.166645
5.445272 -118.652725 -9.570232
6.742176 -120.787132 -9.916603
7.072973 -119.570358 -12.113071
2.215895 -107.683807 -0.213852
2.294422 -110.005745 -2.950329
2.19133 -107.080986 -2.344959
2.085176 -106.123116 -4.286915
2.051821 -104.783485 -6.02103
9.92923 -83.885117 -0.003981
8.050226 -85.24826 -0.961967
9.535164 -82.078217 -1.568441
9.261568 -79.890427 -3.145144
2.708195 -99.365578 11.528292
10.160742 -86.893951 10.877611
10.530489 -87.004349 8.773277
10.761808 -87.009613 6.802726
12.807673 -82.413666 7.40766
13.392836 -80.053421 6.72268
8.805931 -125.540565 -4.684271
9.29277 -125.061012 -7.567156
9.784971 -124.261414 -10.237341
3.579201 -118.3339 -1.582422
4.879831 -120.228584 -4.543024
3.929354 -117.936806 -4.290421
4.159973 -117.266426 -6.814556
4.328499 -116.289406 -9.102764
2.678513 -112.034508 -5.749233
3.414524 -113.708771 -8.50518
4.550886 -114.97422 -11.107677
4.558155 -95.809082 1.206823
3.318495 -97.826485 -0.671345
4.189539 -94.680305 -0.38895
3.897465 -93.142715 -1.90234
6.31192 -86.527443 -2.048807
4.952444 -87.758453 -3.332134
2.641453 -118.42952 4.19626
3.124041 -118.48893 1.26047
2.489561 -116.06279 1.382415
2.099564 -113.477669 1.56463
1.95612 -110.773079 1.802267
1.210091 -107.952667 7.084181
1.705326 -108.045578 4.516973
2.060305 -107.982246 2.080703
2.410133 -105.135513 2.373048
2.999653 -102.261917 2.640475
3.818533 -99.387688 2.83629
3.699539 -96.60096 13.489043
4.102879 -96.709244 11.07645
6.961134 -91.545532 12.226169
5.680735 -94.147324 10.574906
4.520969 -96.866875 8.82156
4.835949 -96.967171 6.714516
4.956825 -96.891808 4.747017
4.850515 -96.532417 2.913518
6.06971 -93.704552 2.834467
7.43511 -90.898857 2.579584
8.885311 -88.097176 2.152826
10.806782 -86.78669 4.958284
10.653673 -86.230957 3.22552
10.336044 -85.272896 1.581878
11.683119 -82.398308 0.913405
12.81213 -79.45282 0.205173
13.614492 -76.429573 -0.482485
13.540014 -77.607903 6.063081
13.9104 -77.055977 4.135717
14.108797 -76.184433 2.308861
14.13282 -74.949181 0.569772
6.408199 -121.688797 -7.425409
8.195843 -122.669548 -10.143696
2.466993 -99.734489 -2.797476
5.241145 -121.444362 -3.21517
5.79011 -122.454284 -3.249828
5.016853 -121.605007 -1.767297
2.684597 -107.884949 -9.049601
2.587522 -108.684708 -8.233144
2.361467 -107.136505 -7.74777
3.155381 -108.50045 -10.274294
2.684597 -107.884949 -9.049601
7.149312 -81.296909 -4.631235
7.857539 -79.502228 -4.904013
0.801333 -111.923576 8.531856
0.882644 -113.229691 8.595474
1.048891 -112.021293 7.117142
0.801333 -111.923576 8.531856
12.712136 -125.465683 -11.313987
11.776351 -124.988019 -11.402705
9.939139 -76.961182 -4.315896
9.231798 -78.63324 -3.950244
9.968909 -78.218368 -3.510796
2.514438 -99.319474 12.803522
2.139935 -100.729206 11.731148
10.803922 -85.779678 10.529511
10.564155 -85.737533 11.63542
10.988795 -85.834877 9.477343
10.345616 -86.94915 9.825444
10.803922 -85.779678 10.529511
11.1801 -85.861161 8.435389
10.988795 -85.834877 9.477343
12.868427 -81.313198 8.094127
12.600141 -82.432663 8.443426
13.161009 -80.133075 7.751637
13.100255 -81.233543 7.06517
12.868427 -81.313198 8.094127
7.838513 -124.938343 -3.236102
8.591943 -125.619808 -3.184781
4.290334 -112.807964 -11.594424
4.760064 -114.135967 -11.95172
4.081156 -113.646217 -10.750381
4.419881 -90.527878 -2.604594
3.869403 -92.182102 -2.637363
4.447943 -91.488491 -1.869571
5.111403 -86.556694 -4.095727
5.612012 -86.028022 -3.459394
5.770971 -84.826263 -4.222987
4.552621 -88.357781 -4.085744
5.111403 -86.556694 -4.095727
2.315765 -117.237331 4.211823
2.077068 -117.147084 5.677744
1.75138 -115.954895 5.693307
1.209553 -106.483868 8.34398
0.949287 -107.867005 8.433027
0.948748 -106.398205 9.692826
4.489741 -95.310315 13.179521
4.323528 -95.303249 14.406838
5.11373 -94.012604 14.097316
7.794536 -90.361068 11.893506
7.59015 -90.319996 13.036835
8.423551 -89.135532 12.704172
13.100869 -76.566605 6.756554
13.280058 -77.760548 7.080832
13.786149 -75.696003 3.844463
13.572648 -76.057446 4.792976
13.885347 -75.260231 2.931035
14.009598 -76.620205 3.222289
13.786149 -75.696003 3.844463
14.070819 -73.43668 0.306269
14.026683 -74.124875 1.161525
13.964682 -72.612373 0.898022
14.069954 -74.144101 -0.262064
14.070819 -73.43668 0.306269
11.815641 -126.602104 -7.247378
10.690554 -126.417851 -5.951294
9.44039 -122.316566 -12.519358
9.236318 -122.904267 -11.377741
8.399914 -122.081848 -11.285314
6.445619 -123.349198 -3.275482
7.098257 -124.209794 -3.268471
6.218457 -123.475525 -1.794944
3.48409 -109.99382 -10.755987
3.834477 -111.436352 -11.185042
3.261038 -110.875682 -9.964029
3.48409 -109.99382 -10.755987
3.155381 -108.50045 -10.274294
6.424003 -83.027065 -4.380563
6.996889 -82.567436 -3.837325
7.149312 -81.296909 -4.631235
5.770971 -84.826263 -4.222987
6.424003 -83.027065 -4.380563
1.3056 -114.606731 7.144251
0.882644 -113.229691 8.595474
1.544298 -114.696979 5.67833
1.75138 -115.954895 5.693307
1.3056 -114.606731 7.144251
1.308727 -112.090492 5.699109
1.358354 -113.418014 5.711239
1.048891 -112.021293 7.117142
1.261695 -110.749992 5.748933
1.571157 -112.146713 4.34303
1.308727 -112.090492 5.699109
5.933306 -92.757095 13.726719
5.11373 -94.012604 14.097316
13.445999 -72.407638 2.403907
13.791222 -73.818298 2.653243
13.603369 -71.819153 1.52673
13.445999 -72.407638 2.403907
13.964682 -72.612373 0.898022
13.603369 -71.819153 1.52673
12.387363 -125.940003 -10.028968
12.112098 -126.29755 -8.653645
11.214037 -125.86958 -8.791322
12.387363 -125.940003 -10.028968
12.712136 -125.465683 -11.313987
2.725681 -97.281964 -3.279025
3.016946 -95.564335 -2.975829
2.255181 -105.560115 -7.292628
2.361467 -107.136505 -7.74777
2.158107 -106.359874 -6.476172
8.462112 -79.106667 -4.42167
8.491883 -80.363854 -3.61657
9.231798 -78.63324 -3.950244
7.857539 -79.502228 -4.904013
8.462112 -79.106667 -4.42167
0.978569 -104.934238 10.949854
0.948748 -106.398205 9.692826
1.390346 -103.553951 10.768891
0.978569 -104.934238 10.949854
1.808857 -102.170681 10.663534
1.627526 -103.631798 9.498421
1.390346 -103.553951 10.768891
2.377116 -100.807053 10.460678
1.808857 -102.170681 10.663534
2.139935 -100.729206 11.731148
9.173458 -87.987076 12.339411
8.423551 -89.135532 12.704172
9.93986 -86.845748 11.997795
10.564155 -85.737533 11.63542
9.39434 -88.035278 11.219227
9.173458 -87.987076 12.339411
9.93986 -86.845748 11.997795
11.295759 -85.863793 7.450114
10.646148 -87.006981 7.788002
11.1801 -85.861161 8.435389
11.94629 -84.668774 7.119082
11.412339 -85.814594 6.471693
11.295759 -85.863793 7.450114
12.318691 -83.565819 7.752581
12.600141 -82.432663 8.443426
12.435271 -83.516621 6.77416
11.94629 -84.668774 7.119082
12.318691 -83.565819 7.752581
9.624133 -126.074569 -4.58543
8.591943 -125.619808 -3.184781
9.872352 -125.883846 -6.050135
10.690554 -126.417851 -5.951294
9.624133 -126.074569 -4.58543
8.065675 -124.812016 -4.716641
7.838513 -124.938343 -3.236102
7.098257 -124.209794 -3.268471
10.924186 -124.362709 -11.438053
11.776351 -124.988019 -11.402705
10.637137 -124.886723 -10.201993
6.60781 -117.705806 -12.825692
5.918582 -116.589943 -12.567141
13.184036 -73.464493 -2.896837
13.558753 -72.971874 -2.398447
4.229516 -119.281242 -3.062723
4.67386 -120.411834 -3.137831
4.023544 -119.464493 -1.657531
5.337712 -115.380443 -12.282616
5.918582 -116.589943 -12.567141
5.131756 -116.183719 -11.392203
5.337712 -115.380443 -12.282616
4.760064 -114.135967 -11.95172
4.290334 -112.807964 -11.594424
3.834477 -111.436352 -11.185042
3.441183 -93.911396 -2.808142
3.016946 -95.564335 -2.975829
3.473229 -94.795654 -2.070026
3.441183 -93.911396 -2.808142
3.869403 -92.182102 -2.637363
4.396892 -89.489971 -3.352259
4.419881 -90.527878 -2.604594
4.975433 -88.79636 -2.584468
4.396892 -89.489971 -3.352259
4.552621 -88.357781 -4.085744
12.589749 -73.993324 -3.352073
12.739739 -75.098702 -2.560801
13.184036 -73.464493 -2.896837
12.016993 -74.410202 -3.809502
12.589749 -73.993324 -3.352073
11.282391 -74.869591 -4.239707
11.410851 -76.086922 -3.446242
12.016993 -74.410202 -3.809502
10.635709 -75.233799 -4.68175
11.282391 -74.869591 -4.239707
9.939139 -76.961182 -4.315896
10.635709 -75.233799 -4.68175
5.345555 -122.638226 -0.305343
6.218457 -123.475525 -1.794944
4.784042 -121.661251 -0.302086
5.345555 -122.638226 -0.305343
5.016853 -121.605007 -1.767297
4.784042 -121.661251 -0.302086
2.443218 -118.306004 5.693257
2.077068 -117.147084 5.677744
3.108062 -119.506153 4.195688
2.443218 -118.306004 5.693257
3.321859 -119.568546 2.697021
3.108062 -119.506153 4.195688
3.563153 -119.598252 1.229127
3.321859 -119.568546 2.697021
2.882747 -118.459225 2.728365
3.795965 -119.542007 -0.236085
3.563153 -119.598252 1.229127
3.351621 -118.411415 -0.160976
4.023544 -119.464493 -1.657531
3.795965 -119.542007 -0.236085
1.104677 -109.323219 7.094596
0.949287 -107.867005 8.433027
1.367109 -109.37944 5.738518
1.261695 -110.749992 5.748933
1.104677 -109.323219 7.094596
3.560749 -96.609597 14.776958
4.323528 -95.303249 14.406838
3.01011 -97.937164 13.783898
3.560749 -96.609597 14.776958
3.203867 -97.983269 12.508668
2.514438 -99.319474 12.803522
3.01011 -97.937164 13.783898
6.773901 -91.520027 13.404804
7.59015 -90.319996 13.036835
6.120539 -92.782601 12.548084
5.933306 -92.757095 13.726719
6.773901 -91.520027 13.404804
13.20647 -78.983307 7.410631
13.161009 -80.133075 7.751637
13.466425 -78.830662 6.392881
13.20647 -78.983307 7.410631
13.280058 -77.760548 7.080832
13.387455 -76.333408 5.756659
13.100869 -76.566605 6.756554
13.725207 -77.33194 5.099399
13.387455 -76.333408 5.756659
13.572648 -76.057446 4.792976
14.014671 -74.742501 2.031069
13.885347 -75.260231 2.931035
13.791222 -73.818298 2.653243
13.81079 -74.884297 -0.788192
13.873656 -75.689377 0.043643
14.069954 -74.144101 -0.262064
13.670557 -73.954445 -1.599732
13.474259 -75.499721 -1.294025
13.81079 -74.884297 -0.788192
13.558753 -72.971874 -2.398447
13.670557 -73.954445 -1.599732
11.815641 -126.602104 -7.247378
12.112098 -126.29755 -8.653645
5.447116 -121.261112 -4.620363
5.241145 -121.444362 -3.21517
4.67386 -120.411834 -3.137831
10.030883 -123.700199 -11.424564
8.990407 -123.465481 -10.190518
9.236318 -122.904267 -11.377741
10.924186 -124.362709 -11.438053
10.030883 -123.700199 -11.424564
7.287983 -118.794376 -13.043863
6.3928 -118.481788 -11.8949
6.60781 -117.705806 -12.825692
8.074597 -119.779972 -13.239054
7.287983 -118.794376 -13.043863
8.840103 -120.741867 -13.395983
7.838479 -120.532253 -12.270001
8.074597 -119.779972 -13.239054
9.707826 -121.590301 -13.530188
8.840103 -120.741867 -13.395983
9.44039 -122.316566 -12.519358
9.707826 -121.590301 -13.530188
2.434681 -98.924912 -3.558906
2.757993 -98.091541 -2.517594
2.725681 -97.281964 -3.279025
2.280622 -100.615371 -3.958686
2.434681 -98.924912 -3.558906
2.121595 -102.233783 -4.314288
2.307965 -101.352901 -3.153078
2.280622 -100.615371 -3.958686
2.073036 -103.13987 -5.570463
2.100379 -103.877399 -4.764855
2.121595 -102.233783 -4.314288
2.15707 -103.921279 -6.783058
2.073036 -103.13987 -5.570463
2.255181 -105.560115 -7.292628
2.15707 -103.921279 -6.783058
3 0 39 37
3 1 42 40
3 148 45 149
3 150 149 43
3 148 149 150
3 2 48 46
3 151 51 152
3 153 152 49
3 151 152 153
3 155 154 51
3 4 54 52
3 157 156 55
3 158 57 159
3 161 160 57
3 5 61 59
3 5 63 61
3 6 66 64
3 6 68 66
3 6 70 68
3 7 73 71
3 7 75 73
3 163 162 77
3 3 80 78
3 8 83 81
3 10 84 38
3 10 85 84
3 11 88 86
3 13 89 41
3 13 164 166
3 166 165 89
3 164 165 166
3 167 90 168
3 169 91 170
3 171 92 172
3 173 172 91
3 171 172 173
3 175 174 92
3 176 94 177
3 178 95 179
3 180 179 94
3 178 179 180
3 181 96 182
3 18 97 44
3 18 98 97
3 19 101 99
3 21 102 47
3 21 103 102
3 9 104 82
3 22 105 50
3 22 106 105
3 22 183 185
3 185 184 106
3 183 184 185
3 23 109 107
3 25 110 53
3 25 186 188
3 188 187 110
3 186 187 188
3 12 111 87
3 189 112 190
3 191 190 56
3 189 190 191
3 193 192 112
3 26 194 196
3 194 113 195
3 194 195 196
3 26 114 113
3 26 115 114
3 27 116 58
3 27 117 116
3 14 197 199
3 197 118 198
3 197 198 199
3 28 119 60
3 28 120 119
3 28 121 120
3 29 122 62
3 29 123 122
3 30 200 202
3 200 124 201
3 200 201 202
3 30 125 124
3 15 203 205
3 203 126 204
3 203 204 205
3 31 127 65
3 31 128 127
3 31 129 128
3 32 130 67
3 32 131 130
3 32 132 131
3 33 133 69
3 33 134 133
3 16 135 93
3 34 136 72
3 34 137 136
3 34 138 137
3 35 139 74
3 35 140 139
3 206 141 207
3 208 142 209
3 210 143 211
3 212 211 142
3 210 211 212
3 213 144 214
3 215 214 76
3 213 214 215
3 217 216 144
3 17 218 219
3 20 145 100
3 36 146 79
3 36 220 222
3 222 221 146
3 220 221 222
3 24 147 108
3 37 38 8
3 39 38 37
3 39 10 38
3 40 41 11
3 42 41 40
3 42 13 41
3 43 223 225
3 223 44 224
3 223 224 225
3 45 44 43
3 45 18 44
3 46 47 19
3 48 47 46
3 48 21 47
3 49 50 9
3 51 50 49
3 51 22 50
3 51 226 228
3 228 227 22
3 226 227 228
3 230 229 51
3 52 53 23
3 54 53 52
3 54 25 53
3 55 56 12
3 231 56 232
3 233 232 55
3 231 232 233
3 235 234 56
3 57 236 237
3 57 238 240
3 238 26 239
3 238 239 240
3 57 58 26
3 241 58 242
3 243 242 57
3 241 242 243
3 244 27 245
3 246 245 58
3 244 245 246
3 59 60 14
3 61 60 59
3 61 28 60
3 61 62 28
3 63 62 61
3 63 29 62
3 247 30 248
3 64 65 15
3 66 65 64
3 66 31 65
3 66 67 31
3 68 67 66
3 68 32 67
3 68 69 32
3 70 69 68
3 70 33 69
3 71 72 16
3 73 72 71
3 73 34 72
3 73 74 34
3 75 74 73
3 75 35 74
3 249 76 250
3 251 76 252
3 254 253 76
3 77 255 257
3 257 256 17
3 255 256 257
3 259 258 77
3 78 79 20
3 80 79 78
3 80 36 79
3 261 260 24
3 81 82 2
3 83 82 81
3 83 9 82
3 38 83 8
3 84 83 38
3 84 9 83
3 84 49 9
3 85 49 84
3 85 262 264
3 264 263 49
3 262 263 264
3 86 87 4
3 88 87 86
3 88 12 87
3 41 88 11
3 89 88 41
3 89 12 88
3 89 55 12
3 265 55 266
3 267 266 89
3 265 266 267
3 269 268 55
3 270 14 271
3 272 14 273
3 274 59 275
3 276 275 14
3 274 275 276
3 90 277 279
3 277 59 278
3 277 278 279
3 90 5 59
3 280 15 281
3 91 282 283
3 91 284 286
3 284 15 285
3 284 285 286
3 91 64 15
3 92 64 91
3 92 6 64
3 92 93 6
3 287 93 288
3 289 288 92
3 287 288 289
3 290 16 291
3 292 291 93
3 290 291 292
3 94 293 294
3 94 295 297
3 295 16 296
3 295 296 297
3 94 71 16
3 95 71 94
3 95 7 71
3 96 298 299
3 96 300 302
3 300 17 301
3 300 301 302
3 44 303 305
3 303 96 304
3 303 304 305
3 97 96 44
3 97 17 96
3 97 77 17
3 98 77 97
3 98 306 308
3 308 307 77
3 306 307 308
3 310 309 3
3 312 311 1
3 99 313 315
3 313 100 314
3 313 314 315
3 101 100 99
3 101 20 100
3 47 101 19
3 102 101 47
3 102 20 101
3 102 78 20
3 103 78 102
3 103 3 78
3 82 48 2
3 104 48 82
3 104 21 48
3 50 104 9
3 105 104 50
3 105 21 104
3 105 103 21
3 106 103 105
3 106 3 103
3 106 316 318
3 318 317 3
3 316 317 318
3 320 319 106
3 322 321 22
3 107 108 0
3 109 108 107
3 109 24 108
3 53 109 23
3 110 109 53
3 110 24 109
3 110 323 325
3 325 324 24
3 323 324 325
3 327 326 110
3 87 54 4
3 111 54 87
3 111 25 54
3 56 111 12
3 112 111 56
3 112 25 111
3 112 328 330
3 330 329 25
3 328 329 330
3 332 331 112
3 333 42 334
3 335 334 1
3 333 334 335
3 336 42 337
3 338 13 339
3 340 339 42
3 338 339 340
3 341 13 342
3 344 343 13
3 345 43 346
3 347 43 348
3 350 349 43
3 113 351 352
3 113 353 354
3 113 355 356
3 114 357 359
3 359 358 113
3 357 358 359
3 114 360 361
3 114 362 364
3 362 99 363
3 362 363 364
3 115 99 114
3 115 19 99
3 58 115 26
3 116 115 58
3 116 19 115
3 116 46 19
3 117 46 116
3 117 2 46
3 118 365 366
3 118 367 369
3 367 27 368
3 367 368 369
3 60 118 14
3 119 118 60
3 119 27 118
3 119 117 27
3 120 117 119
3 120 2 117
3 120 81 2
3 121 81 120
3 121 8 81
3 62 121 28
3 122 121 62
3 122 8 121
3 122 37 8
3 123 37 122
3 123 0 37
3 124 370 371
3 124 372 373
3 124 374 376
3 374 90 375
3 374 375 376
3 125 90 124
3 125 5 90
3 126 377 378
3 126 379 381
3 379 30 380
3 379 380 381
3 65 126 15
3 127 126 65
3 127 30 126
3 127 125 30
3 128 125 127
3 128 5 125
3 128 63 5
3 129 63 128
3 129 29 63
3 67 129 31
3 130 129 67
3 130 29 129
3 130 123 29
3 131 123 130
3 131 0 123
3 131 107 0
3 132 107 131
3 132 23 107
3 69 132 32
3 133 132 69
3 133 23 132
3 133 52 23
3 134 52 133
3 134 4 52
3 93 70 6
3 135 70 93
3 135 33 70
3 72 135 16
3 136 135 72
3 136 33 135
3 136 134 33
3 137 134 136
3 137 4 134
3 137 86 4
3 138 86 137
3 138 11 86
3 74 138 34
3 139 138 74
3 139 11 138
3 139 40 11
3 140 40 139
3 140 1 40
3 382 95 383
3 141 384 386
3 384 95 385
3 384 385 386
3 141 7 95
3 387 141 388
3 142 389 391
3 389 141 390
3 389 390 391
3 142 7 141
3 142 75 7
3 143 75 142
3 143 35 75
3 76 392 394
3 392 143 393
3 392 393 394
3 144 143 76
3 144 35 143
3 144 140 35
3 395 140 396
3 397 396 144
3 395 396 397
3 398 1 399
3 400 399 140
3 398 399 400
3 402 401 1
3 404 403 17
3 100 405 407
3 405 45 406
3 405 406 407
3 145 45 100
3 145 18 45
3 79 145 20
3 146 145 79
3 146 18 145
3 146 98 18
3 408 98 409
3 410 409 146
3 408 409 410
3 412 411 98
3 413 80 414
3 415 414 3
3 413 414 415
3 416 80 417
3 418 36 419
3 420 419 80
3 418 419 420
3 421 36 422
3 424 423 36
3 108 39 0
3 147 39 108
3 147 10 39
3 425 147 426
3 427 426 24
3 425 426 427
3 428 147 429
3 430 10 431
3 432 431 147
3 430 431 432
3 433 85 434
3 435 434 10
3 433 434 435
3 436 85 437
3 439 438 85
