ply
format ascii 1.0
element vertex 242
property float x
property float y
property float z
element face 210
property list uchar int vertex_index
end_header
-29.00728 5.151871 -54.442215
-28.825886 8.967598 -38.349411
-28.834412 12.719946 -34.984245
-26.688013 10.429516 -33.725163
-31.275711 14.52383 -35.585522
-30.789661 11.956657 -39.791725
-29.789589 9.699902 -44.047489
-28.657169 7.135633 -47.76437
-27.80097 3.901894 -50.332184
-27.433275 -0.02247 -51.383156
-27.605375 -4.486532 -50.919342
-29.1544 2.930588 -54.643547
-29.993519 15.553001 -33.691319
-28.873526 10.77487 -36.60067
-29.929192 12.045473 -37.225372
-29.723061 10.531515 -39.162262
-30.33474 10.830856 -41.946381
-29.410162 9.101324 -41.142296
-28.592781 6.231283 -44.903111
-28.164932 4.682693 -46.504719
-28.175949 5.610525 -49.223091
-27.768871 3.013121 -47.814533
-27.161047 -0.722788 -49.36792
-26.981916 -2.777861 -49.583549
-27.450937 -2.197237 -51.327133
-26.906708 -4.942378 -49.44735
-28.725225 14.834076 -33.536015
-27.728485 11.616377 -34.414707
-27.933731 9.396549 -35.831703
-32.606567 15.128685 -35.522781
-32.413795 14.068424 -37.830956
-30.015821 13.704281 -35.390701
-31.110264 13.161442 -37.653721
-32.029503 13.186573 -40.178089
-31.477814 12.384949 -42.514771
-30.812086 11.558914 -44.778851
-25.698591 9.183044 -32.94886
-27.091434 7.946016 -34.960426
-29.020571 7.688334 -43.085972
-29.211161 8.487459 -46.01429
-28.434656 6.499628 -51.682663
-28.183363 4.663523 -52.559296
-27.428381 1.210726 -48.778114
-27.550816 2.017929 -51.055794
-28.109594 2.631313 -53.024437
-28.205223 0.437967 -53.079124
-28.45656 -1.885111 -52.745232
-28.849682 -4.314667 -52.061165
-29.650222 5.204051 -55.193283
-29.56885 6.331917 -55.00095
-29.08084 4.04123 -54.542881
-29.723782 4.093409 -55.293949
-29.650222 5.204051 -55.193283
-29.287697 16.340496 -32.974986
-29.945159 16.582939 -32.912642
-28.046232 3.422581 -45.792088
-28.194534 4.2884 -45.064434
-27.848202 2.587795 -46.446995
-27.966901 3.847907 -47.159626
-28.046232 3.422581 -45.792088
-26.872273 -4.188415 -48.628353
-26.995537 -3.150888 -48.565613
-26.834669 -5.270673 -48.560254
-26.944312 -3.860119 -49.51545
-26.872273 -4.188415 -48.628353
-27.208249 11.022946 -34.069935
-27.007112 12.336163 -33.562767
-26.486877 11.742733 -33.217995
-31.941139 14.826258 -35.554152
-31.950212 15.616362 -34.571478
-31.284785 15.313934 -34.602848
-29.946976 10.156757 -45.473354
-30.458225 11.086263 -45.839036
-30.300838 10.629408 -44.41317
-25.220658 8.535785 -32.529495
-24.821399 10.093602 -32.195854
-27.275789 6.771919 -35.664655
-26.706869 7.196126 -34.488451
-27.586053 7.628789 -36.182896
-27.275789 6.771919 -35.664655
-28.753032 6.632967 -42.520308
-28.856415 7.470377 -41.624842
-29.04409 8.306508 -48.283034
-29.321086 8.982421 -47.407994
-28.934165 7.811546 -46.88933
-28.757936 7.622478 -49.090173
-29.04409 8.306508 -48.283034
-27.364705 -0.16365 -47.926401
-27.521117 0.783494 -47.511921
-25.896974 11.243116 -32.921268
-26.486877 11.742733 -33.217995
-29.909433 2.881565 -55.264595
-29.723782 4.093409 -55.293949
-29.317877 1.746776 -54.533901
-29.909433 2.881565 -55.264595
-30.643688 15.828519 -33.655746
-29.945159 16.582939 -32.912642
-30.634615 15.038415 -34.63842
-31.284785 15.313934 -34.602848
-30.643688 15.828519 -33.655746
-28.408459 5.062696 -44.26363
-28.539137 5.904442 -43.428877
-28.378856 5.456988 -45.703915
-28.408459 5.062696 -44.26363
-28.194534 4.2884 -45.064434
-27.085102 -2.123352 -48.457798
-27.231038 -1.130406 -48.221304
-27.071481 -1.750325 -49.475735
-27.085102 -2.123352 -48.457798
-26.995537 -3.150888 -48.565613
-29.036628 6.166139 -54.126728
-29.56885 6.331917 -55.00095
-27.991912 15.67601 -32.855986
-28.65355 15.981034 -32.897334
-28.1078 14.411978 -33.365736
-27.991912 15.67601 -32.855986
-28.162394 13.354913 -34.089851
-28.779818 13.777011 -34.26013
-28.1078 14.411978 -33.365736
-27.609431 12.803128 -33.805082
-27.007112 12.336163 -33.562767
-28.281448 12.168162 -34.699476
-28.162394 13.354913 -34.089851
-27.609431 12.803128 -33.805082
-32.61166 15.786188 -34.405941
-31.950212 15.616362 -34.571478
-33.297004 15.30019 -35.345493
-32.61166 15.786188 -34.405941
-33.213836 14.919859 -36.616295
-33.297004 15.30019 -35.345493
-33.117451 14.389729 -37.770382
-33.213836 14.919859 -36.616295
-32.510181 14.598555 -36.676868
-32.921426 14.114311 -39.04768
-33.117451 14.389729 -37.770382
-29.359372 15.193538 -33.613667
-29.287697 16.340496 -32.974986
-28.65355 15.981034 -32.897334
-32.729281 13.673385 -40.221246
-32.921426 14.114311 -39.04768
-32.221649 13.627498 -39.004523
-32.431454 13.443304 -41.481247
-32.729281 13.673385 -40.221246
-32.155609 13.042492 -42.649588
-32.431454 13.443304 -41.481247
-31.753659 12.785761 -41.34643
-31.784348 12.793816 -43.864413
-32.155609 13.042492 -42.649588
-31.451484 12.380798 -44.996453
-31.784348 12.793816 -43.864413
-31.14495 11.971932 -43.646811
-31.047812 12.054976 -46.134957
-31.451484 12.380798 -44.996453
-31.047812 12.054976 -46.134957
-30.458225 11.086263 -45.839036
-25.402264 10.619881 -32.533117
-24.821399 10.093602 -32.195854
-26.193302 9.80628 -33.337012
-25.896974 11.243116 -32.921268
-25.402264 10.619881 -32.533117
-26.010447 7.81464 -33.482668
-25.220658 8.535785 -32.529495
-26.395012 8.56453 -33.954643
-26.010447 7.81464 -33.482668
-26.706869 7.196126 -34.488451
-28.007202 8.354056 -36.618534
-27.512583 8.671283 -35.396064
-27.586053 7.628789 -36.182896
-28.45328 8.139581 -37.877388
-28.379809 9.182074 -37.090557
-28.007202 8.354056 -36.618534
-28.759073 8.110008 -39.256562
-28.45328 8.139581 -37.877388
-29.05121 8.176872 -40.653004
-29.118024 9.034461 -39.745854
-28.759073 8.110008 -39.256562
-29.215367 8.394829 -42.114134
-29.05121 8.176872 -40.653004
-28.856415 7.470377 -41.624842
-28.806676 6.959809 -43.994541
-28.753032 6.632967 -42.520308
-28.539137 5.904442 -43.428877
-29.657763 9.550535 -46.456755
-29.946976 10.156757 -45.473354
-29.500375 9.09368 -45.03089
-29.657763 9.550535 -46.456755
-29.321086 8.982421 -47.407994
-28.517325 6.859924 -49.819534
-28.757936 7.622478 -49.090173
-28.416559 6.373079 -48.49373
-28.646679 7.304475 -51.04932
-28.517325 6.859924 -49.819534
-28.305302 6.055077 -50.452877
-28.889648 7.732589 -52.222485
-28.646679 7.304475 -51.04932
-28.750315 6.840018 -52.746952
-28.889648 7.732589 -52.222485
-28.624669 5.921965 -53.185269
-28.750315 6.840018 -52.746952
-28.30901 5.581575 -52.12098
-28.595322 4.907697 -53.500755
-29.036628 6.166139 -54.126728
-28.624669 5.921965 -53.185269
-27.691362 1.684692 -47.03013
-27.848202 2.587795 -46.446995
-27.598626 2.111924 -48.296323
-27.691362 1.684692 -47.03013
-27.521117 0.783494 -47.511921
-27.294714 0.243969 -49.073017
-27.364705 -0.16365 -47.926401
-27.231038 -1.130406 -48.221304
-28.843288 0.500465 -53.751689
-29.317877 1.746776 -54.533901
-28.679811 1.684278 -53.861335
-28.968957 -0.661074 -53.584744
-28.843288 0.500465 -53.751689
-28.330891 -0.723572 -52.912178
-29.207935 -1.900618 -53.278847
-29.720332 -0.676581 -54.118358
-28.968957 -0.661074 -53.584744
-29.404496 -3.115395 -52.936813
-29.207935 -1.900618 -53.278847
-28.653121 -3.099889 -52.403199
-29.705431 -4.400057 -52.456627
-29.404496 -3.115395 -52.936813
-26.748621 -6.350433 -48.463486
-26.834669 -5.270673 -48.560254
-26.929815 -6.073802 -49.221992
-26.748621 -6.350433 -48.463486
-27.279149 -5.845879 -49.957988
-27.256041 -4.714455 -50.183346
-26.929815 -6.073802 -49.221992
-27.751994 -5.68103 -50.561329
-27.279149 -5.845879 -49.957988
-28.374147 -5.595097 -51.132241
-28.227528 -4.4006 -51.490254
-27.751994 -5.68103 -50.561329
-29.110821 -5.575515 -51.568592
-28.374147 -5.595097 -51.132241
-29.96657 -5.660906 -51.964054
-29.705431 -4.400057 -52.456627
-29.110821 -5.575515 -51.568592
3 0 48 49
3 0 50 52
3 50 11 51
3 50 51 52
3 53 12 54
3 1 15 13
3 1 17 15
3 55 19 56
3 57 21 58
3 59 58 19
3 57 58 59
3 60 23 61
3 62 25 63
3 64 63 23
3 62 63 64
3 3 65 67
3 65 27 66
3 65 66 67
3 3 28 27
3 4 68 70
3 68 29 69
3 68 69 70
3 4 30 29
3 2 31 26
3 5 32 14
3 5 33 32
3 5 34 33
3 6 35 16
3 6 71 73
3 73 72 35
3 71 72 73
3 74 36 75
3 76 37 77
3 79 78 37
3 80 38 81
3 7 39 18
3 7 82 84
3 84 83 39
3 82 83 84
3 7 85 86
3 8 40 20
3 8 41 40
3 87 42 88
3 9 43 22
3 9 44 43
3 9 45 44
3 10 46 24
3 10 47 46
3 89 3 90
3 11 91 92
3 11 93 94
3 12 95 96
3 12 97 99
3 97 4 98
3 97 98 99
3 13 14 2
3 15 14 13
3 15 5 14
3 15 16 5
3 17 16 15
3 17 6 16
3 100 18 101
3 19 102 104
3 102 18 103
3 102 103 104
3 19 7 18
3 19 20 7
3 21 20 19
3 21 8 20
3 105 22 106
3 23 107 109
3 107 22 108
3 107 108 109
3 23 9 22
3 23 24 9
3 25 24 23
3 25 10 24
3 110 0 111
3 112 26 113
3 114 26 115
3 116 2 117
3 118 117 26
3 116 117 118
3 27 119 120
3 27 121 123
3 121 2 122
3 121 122 123
3 27 13 2
3 28 13 27
3 28 1 13
3 29 124 125
3 29 126 127
3 29 128 129
3 30 130 132
3 132 131 29
3 130 131 132
3 30 133 134
3 26 135 137
3 135 12 136
3 135 136 137
3 31 12 26
3 31 4 12
3 14 31 2
3 32 31 14
3 32 4 31
3 32 30 4
3 33 30 32
3 33 138 140
3 140 139 30
3 138 139 140
3 33 141 142
3 34 143 145
3 145 144 33
3 143 144 145
3 34 146 147
3 16 34 5
3 35 34 16
3 35 148 150
3 150 149 34
3 148 149 150
3 35 151 152
3 154 153 35
3 36 155 156
3 36 157 159
3 157 3 158
3 157 158 159
3 160 36 161
3 37 162 164
3 162 36 163
3 162 163 164
3 37 3 36
3 37 28 3
3 165 28 166
3 167 166 37
3 165 166 167
3 168 1 169
3 170 169 28
3 168 169 170
3 171 1 172
3 173 17 174
3 175 174 1
3 173 174 175
3 38 176 178
3 176 17 177
3 176 177 178
3 38 6 17
3 18 179 181
3 179 38 180
3 179 180 181
3 39 38 18
3 39 6 38
3 39 182 184
3 184 183 6
3 182 183 184
3 186 185 39
3 20 187 189
3 189 188 7
3 187 188 189
3 40 190 192
3 192 191 20
3 190 191 192
3 40 193 194
3 40 195 196
3 41 197 199
3 199 198 40
3 197 198 199
3 41 200 202
3 200 0 201
3 200 201 202
3 203 21 204
3 42 205 207
3 205 21 206
3 205 206 207
3 42 8 21
3 22 208 210
3 208 42 209
3 208 209 210
3 43 42 22
3 43 8 42
3 43 41 8
3 44 41 43
3 44 0 41
3 44 11 0
3 45 11 44
3 45 211 213
3 213 212 11
3 211 212 213
3 24 45 9
3 46 45 24
3 46 214 216
3 216 215 45
3 214 215 216
3 46 217 219
3 217 218 219
3 47 220 222
3 222 221 46
3 220 221 222
3 47 223 224
3 225 25 226
3 227 25 228
3 229 10 230
3 231 230 25
3 229 230 231
3 232 10 233
3 234 47 235
3 236 235 10
3 234 235 236
3 237 47 238
3 241 240 47
3 239 240 241
