ply
format ascii 1.0
element vertex 439
property float x
property float y
property float z
element face 438
property list uchar int vertex_index
end_header
-26.266478 -25.451096 -37.110443
-24.0476 -45.186226 -24.320877
-26.834 -14.707661 -45.376041
-29.491798 -25.088177 -40.247883
-32.927296 -37.273296 -34.490082
-27.184557 -35.627064 -32.199673
-26.212318 -20.168671 -41.322517
-27.84709 -19.727957 -43.046257
-26.832462 -25.024038 -39.1106
-26.461775 -47.283997 -25.052055
-25.909779 -40.582932 -28.095852
-28.442459 -42.042072 -29.083435
-29.955265 -36.499519 -33.30394
-31.219561 -43.45713 -30.338249
-14.930495 -53.405739 -13.937267
-17.815468 -50.525764 -16.837193
-20.670231 -47.244858 -19.886322
-23.068661 -43.569176 -23.20113
-21.465721 -49.434757 -21.030926
-26.524958 -9.998066 -47.006126
-28.33201 -9.354585 -49.227516
-29.599415 -14.558723 -46.689434
-31.263752 -20.034645 -43.693214
-33.00919 -25.618423 -40.687912
-34.565426 -31.2523 -38.089081
-26.486015 -30.39604 -32.882183
-24.766016 -39.499645 -26.851711
-25.756668 -35.029621 -30.813423
-26.293842 -30.178829 -34.965237
-28.23621 -30.395111 -36.351528
-31.388723 -30.86953 -37.289059
-26.18224 -22.844746 -39.22897
-26.41423 -22.5457 -40.294254
-26.24371 -25.179245 -38.221741
-27.878237 -48.374573 -25.49157
-27.534513 -44.70689 -27.017998
-28.945772 -45.620956 -27.535698
-29.865578 -42.780922 -29.655472
-30.287498 -46.479366 -28.186333
-13.626623 -54.702038 -12.513807
-16.384926 -53.481354 -16.24036
-17.913414 -51.837337 -17.634754
-19.276432 -48.935349 -18.335686
-19.429087 -50.092888 -19.070477
-20.869617 -48.252434 -20.571789
-26.291742 -15.099251 -44.262024
-26.33606 -12.820488 -44.961838
-26.597473 -12.314793 -46.293045
-27.13809 -9.557921 -48.275146
-27.476364 -11.994846 -47.326321
-28.90274 -11.917515 -48.040443
-27.974522 -14.512302 -46.189766
-28.607048 -22.362553 -41.68874
-29.415129 -19.774143 -43.501144
-30.301018 -22.507118 -42.030163
-31.235825 -25.299221 -40.539169
-23.339371 -44.296188 -23.849865
-24.011345 -41.584229 -24.983604
-24.314404 -42.18092 -25.645554
-26.601688 -38.146751 -30.122448
-25.737682 -37.668777 -29.523487
-26.235281 -35.273445 -31.568748
-26.0567 -32.648663 -32.876522
-26.648682 -32.79277 -33.649387
-27.034994 -30.239014 -35.733418
-27.710625 -33.036381 -34.289303
-31.471258 -36.92276 -33.873032
-30.661238 -33.673691 -35.350605
-32.243969 -33.978241 -35.854404
-33.027229 -31.104134 -37.686432
-26.212324 -17.869963 -42.185314
-26.416798 -17.445776 -43.374496
-27.250198 -17.177774 -44.284927
-26.735998 -19.86842 -42.319267
-27.256617 -22.379337 -41.114128
-27.963383 -24.994308 -39.780502
-25.131758 -46.200996 -24.690945
-25.06715 -42.929733 -26.153412
-26.188074 -43.790321 -26.582561
-27.071383 -41.290943 -28.584663
-27.818356 -38.707375 -30.658855
-28.477577 -36.051445 -32.760136
-29.232002 -39.299644 -31.197086
-30.690784 -39.871773 -31.788422
-32.08633 -40.375763 -32.460194
-13.497885 -51.555553 -9.981915
-13.652016 -53.084499 -11.324686
-15.006043 -51.941681 -12.783915
-16.447014 -50.709579 -14.269747
-16.34609 -52.015327 -15.375389
-17.928112 -49.379993 -15.787994
-19.395203 -47.947449 -17.345436
-20.794205 -46.409142 -18.949848
-22.076759 -44.763977 -20.609241
-23.203819 -43.011429 -22.330662
-21.946938 -45.455872 -21.504185
-22.184818 -46.319717 -22.160149
-22.843277 -47.354095 -22.612976
-23.883179 -48.523224 -22.936771
-26.590534 -7.758487 -47.479622
-26.952923 -7.205226 -48.996635
-27.898613 -6.875527 -50.203316
-29.37196 -6.836364 -51.076019
-30.009853 -9.442724 -49.844398
-30.744875 -12.129257 -48.423588
-28.62752 -17.106941 -44.902119
-30.39859 -17.26963 -45.222782
-33.376755 -40.768913 -33.211941
-35.302189 -28.556215 -39.578773
-26.392595 -27.971813 -34.987808
-24.147671 -41.150841 -24.119114
-24.893261 -39.181442 -25.976849
-25.439568 -37.102962 -27.902828
-25.108433 -39.972038 -27.541668
-25.339823 -37.314499 -28.799118
-25.801058 -34.916367 -29.892227
-26.008743 -32.624413 -31.935707
-26.109852 -30.231995 -34.018787
-26.165195 -27.746616 -36.12191
-26.530899 -27.631655 -37.052624
-27.454502 -27.630867 -37.787476
-28.814854 -27.732748 -38.348331
-29.102396 -33.344173 -34.841316
-29.743519 -30.617588 -36.856846
-30.443535 -27.916645 -38.76643
-32.164188 -28.154472 -39.07869
-33.822006 -28.401058 -39.328117
-26.224359 -24.147921 -38.169706
-26.373466 -23.045943 -38.580444
-26.415585 -24.349117 -37.521181
-29.090951 -47.519174 -26.804903
-28.412005 -46.997765 -26.513634
-28.557184 -48.895983 -25.782839
-29.761814 -47.94838 -27.130221
-29.616635 -46.050161 -27.861016
-29.090951 -47.519174 -26.804903
-18.122352 -52.581302 -17.907232
-17.300148 -53.479829 -17.243771
-18.880189 -51.709078 -18.625093
-18.67125 -50.965113 -18.352615
-18.122352 -52.581302 -17.907232
-19.687328 -50.759868 -19.316044
-18.880189 -51.709078 -18.625093
-33.342709 -35.73901 -35.434444
-33.001045 -34.091482 -36.116606
-32.585633 -35.625768 -35.172243
-26.212321 -19.019317 -41.753915
-26.267737 -19.231971 -41.127956
-26.267734 -20.381325 -40.696558
-13.065574 -54.498255 -11.212198
-13.034385 -53.616289 -10.605507
-23.798061 -50.345459 -22.251556
-23.163437 -49.640909 -22.13393
-24.537557 -49.146912 -23.081741
-23.798061 -50.345459 -22.251556
-26.518743 -10.301184 -46.226444
-26.424295 -11.712395 -45.2043
-26.430509 -11.409277 -45.983982
-26.557746 -8.878277 -47.242874
-26.551532 -9.181394 -46.463192
-26.518743 -10.301184 -46.226444
-30.57455 -14.723935 -46.781286
-31.14728 -13.509203 -47.648363
-30.172145 -13.34399 -47.556511
-31.824932 -18.87064 -44.474702
-31.392351 -17.488132 -45.239486
-30.831171 -18.652138 -44.457998
-32.235315 -20.291677 -43.667259
-31.824932 -18.87064 -44.474702
-33.48646 -24.486371 -41.396278
-32.579009 -24.223279 -41.424097
-33.820208 -25.822592 -40.710243
-33.48646 -24.486371 -41.396278
-33.472617 -42.612621 -32.618214
-32.912548 -42.398201 -32.174233
-14.095779 -50.396921 -10.016172
-14.238906 -51.06635 -10.721923
-26.811207 -29.338152 -33.27111
-26.899557 -30.518494 -32.223203
-26.439305 -29.183926 -33.934995
-26.764497 -28.126038 -34.323923
-26.811207 -29.338152 -33.27111
-26.252696 -21.719363 -39.649784
-26.373466 -23.045943 -38.580444
-26.197279 -21.506709 -40.275743
-26.267734 -20.381325 -40.696558
-26.252696 -21.719363 -39.649784
-13.018403 -56.253225 -12.315786
-13.052878 -55.307024 -11.806758
-13.597497 -55.581793 -13.003775
-13.018403 -56.253225 -12.315786
-14.249433 -54.933644 -13.715505
-14.278559 -54.053888 -13.225537
-13.597497 -55.581793 -13.003775
-16.535904 -54.301838 -16.546574
-15.736383 -55.146031 -15.894366
-17.14917 -52.659346 -16.937557
-16.535904 -54.301838 -16.546574
-17.300148 -53.479829 -17.243771
-20.407592 -49.839641 -20.0667
-20.149352 -49.172661 -19.821133
-19.687328 -50.759868 -19.316044
-20.705644 -50.430803 -20.296269
-21.167669 -48.843595 -20.801358
-20.407592 -49.839641 -20.0667
-26.313901 -13.959869 -44.611931
-26.357556 -14.226095 -43.91655
-26.335397 -15.365476 -43.566643
-31.224922 -22.667626 -42.095223
-31.706289 -21.43139 -42.926748
-30.782385 -21.270882 -42.861688
-31.692326 -24.063678 -41.349726
-31.224922 -22.667626 -42.095223
-30.768421 -23.903169 -41.284666
-32.122507 -25.458822 -40.61354
-32.579009 -24.223279 -41.424097
-31.692326 -24.063678 -41.349726
-26.482526 -31.556023 -31.846689
-26.899557 -30.518494 -32.223203
-33.392675 -32.654429 -37.03262
-32.635599 -32.541187 -36.770418
-33.001045 -34.091482 -36.116606
-34.161774 -32.728512 -37.233944
-33.796328 -31.178217 -37.887757
-33.392675 -32.654429 -37.03262
-26.416378 -18.134038 -41.46396
-26.267737 -19.231971 -41.127956
-26.295687 -16.750833 -42.528288
-26.416378 -18.134038 -41.46396
-26.252033 -16.484607 -43.223669
-26.335397 -15.365476 -43.566643
-26.295687 -16.750833 -42.528288
-26.564366 -25.632023 -36.449393
-26.415585 -24.349117 -37.521181
-12.95732 -52.851816 -9.934121
-12.797959 -52.008173 -9.255773
-13.57495 -52.320026 -10.653301
-12.95732 -52.851816 -9.934121
-13.034385 -53.616289 -10.605507
-14.315972 -51.830824 -11.393308
-14.238906 -51.06635 -10.721923
-13.57495 -52.320026 -10.653301
-13.639319 -53.893269 -11.919246
-13.065574 -54.498255 -11.212198
-13.052878 -55.307024 -11.806758
-14.992985 -51.259415 -12.122923
-14.315972 -51.830824 -11.393308
-14.32903 -52.51309 -12.054301
-15.763691 -50.727124 -12.880805
-14.992985 -51.259415 -12.122923
-16.484177 -50.111072 -13.623721
-15.763691 -50.727124 -12.880805
-15.726529 -51.32563 -13.526831
-17.265745 -49.53006 -14.402304
-16.484177 -50.111072 -13.623721
-14.921915 -54.214042 -14.401273
-14.249433 -54.933644 -13.715505
-15.649131 -54.25185 -15.552819
-15.736383 -55.146031 -15.894366
-15.629713 -53.518836 -15.120334
-15.649131 -54.25185 -15.552819
-16.365508 -52.74834 -15.807875
-15.638293 -52.710533 -14.656328
-14.921915 -54.214042 -14.401273
-15.629713 -53.518836 -15.120334
-18.006293 -48.865267 -15.161427
-17.265745 -49.53006 -14.402304
-17.187563 -50.044786 -15.028871
-18.775402 -48.231133 -15.962619
-18.006293 -48.865267 -15.161427
-19.508947 -47.51486 -16.74134
-18.775402 -48.231133 -15.962619
-18.661657 -48.663721 -16.566715
-20.241043 -46.824543 -17.566448
-19.508947 -47.51486 -16.74134
-20.940545 -46.05539 -18.368654
-20.241043 -46.824543 -17.566448
-20.094704 -47.178296 -18.147642
-21.612599 -45.306929 -19.218643
-20.940545 -46.05539 -18.368654
-22.253875 -44.484347 -20.04834
-21.612599 -45.306929 -19.218643
-21.435482 -45.586559 -19.779545
-22.846252 -43.676552 -20.924011
-22.253875 -44.484347 -20.04834
-22.640289 -43.887703 -21.469952
-23.409782 -42.800278 -21.784721
-22.846252 -43.676552 -20.924011
-21.151014 -51.170606 -20.448662
-20.705644 -50.430803 -20.296269
-21.954708 -50.096676 -21.181007
-21.151014 -51.170606 -20.448662
-22.643486 -49.056345 -21.972032
-22.154499 -48.394426 -21.821951
-21.954708 -50.096676 -21.181007
-23.363228 -47.938659 -22.774873
-22.643486 -49.056345 -21.972032
-23.163437 -49.640909 -22.13393
-25.161847 -47.985798 -23.958828
-24.507469 -47.36211 -23.813858
-24.537557 -49.146912 -23.081741
-25.826856 -48.527298 -24.139383
-25.796767 -46.742497 -24.8715
-25.161847 -47.985798 -23.958828
-26.539611 -49.159094 -24.315378
-25.826856 -48.527298 -24.139383
-27.247842 -49.704382 -24.535135
-27.170006 -47.829285 -25.271812
-26.539611 -49.159094 -24.315378
-27.943753 -50.315964 -24.78076
-27.247842 -49.704382 -24.535135
-28.557184 -48.895983 -25.782839
-27.943753 -50.315964 -24.78076
-26.500424 -13.130667 -44.161676
-26.357556 -14.226095 -43.91655
-26.500424 -13.130667 -44.161676
-26.424295 -11.712395 -45.2043
-26.684148 -8.10322 -46.580841
-26.551532 -9.181394 -46.463192
-26.676582 -6.678727 -47.57639
-26.684148 -8.10322 -46.580841
-26.748621 -6.350433 -48.463486
-26.676582 -6.678727 -47.57639
-26.929815 -6.073802 -49.221992
-26.748621 -6.350433 -48.463486
-26.771729 -7.481856 -48.238129
-27.279149 -5.845879 -49.957988
-26.929815 -6.073802 -49.221992
-27.751994 -5.68103 -50.561329
-27.279149 -5.845879 -49.957988
-27.425768 -7.040376 -49.599975
-28.374147 -5.595097 -51.132241
-27.751994 -5.68103 -50.561329
-29.110821 -5.575515 -51.568592
-28.374147 -5.595097 -51.132241
-28.635286 -6.855945 -50.639668
-29.96657 -5.660906 -51.964054
-29.110821 -5.575515 -51.568592
-30.31679 -6.986019 -51.337502
-29.96657 -5.660906 -51.964054
-30.635737 -8.289198 -50.721691
-30.31679 -6.986019 -51.337502
-29.690907 -8.139544 -50.460209
-31.021902 -9.65382 -49.980896
-30.635737 -8.289198 -50.721691
-31.389413 -10.997086 -49.270491
-31.021902 -9.65382 -49.980896
-30.377364 -10.785991 -49.133993
-31.795493 -12.400756 -48.450527
-31.389413 -10.997086 -49.270491
-31.795493 -12.400756 -48.450527
-31.14728 -13.509203 -47.648363
-30.974137 -16.079389 -46.04796
-30.57455 -14.723935 -46.781286
-29.999002 -15.914176 -45.956108
-30.974137 -16.079389 -46.04796
-31.392351 -17.488132 -45.239486
-32.235315 -20.291677 -43.667259
-31.706289 -21.43139 -42.926748
-30.36489 -48.422647 -27.507824
-29.761814 -47.94838 -27.130221
-30.886604 -46.858223 -28.585934
-30.36489 -48.422647 -27.507824
-31.352635 -45.347105 -29.661892
-30.753529 -44.968248 -29.262291
-30.886604 -46.858223 -28.585934
-31.833951 -43.74231 -30.737386
-31.352635 -45.347105 -29.661892
-32.267336 -42.201626 -31.798359
-31.652945 -41.916446 -31.399222
-31.833951 -43.74231 -30.737386
-32.731543 -40.572338 -32.836067
-32.267336 -42.201626 -31.798359
-32.912548 -42.398201 -32.174233
-33.982331 -40.892311 -33.615834
-33.472617 -42.612621 -32.618214
-33.833964 -39.136757 -34.184833
-33.982331 -40.892311 -33.615834
-33.609234 -37.388948 -34.823904
-33.152026 -39.021104 -33.851011
-33.833964 -39.136757 -34.184833
-33.342709 -35.73901 -35.434444
-33.609234 -37.388948 -34.823904
-34.871785 -32.772043 -37.515179
-34.161774 -32.728512 -37.233944
-35.27574 -31.228894 -38.319885
-34.871785 -32.772043 -37.515179
-35.644121 -29.880851 -39.064732
-34.933808 -29.904257 -38.833927
-35.27574 -31.228894 -38.319885
-35.95862 -28.44175 -39.785951
-35.644121 -29.880851 -39.064732
-35.580319 -27.506219 -40.148168
-35.95862 -28.44175 -39.785951
-13.265701 -50.800432 -9.269721
-12.797959 -52.008173 -9.255773
-13.265701 -50.800432 -9.269721
-14.095779 -50.396921 -10.016172
-26.627425 -26.892381 -35.388075
-26.764497 -28.126038 -34.323923
-26.329536 -26.711455 -36.049126
-26.564366 -25.632023 -36.449393
-26.627425 -26.892381 -35.388075
-23.907311 -41.932438 -22.686861
-23.409782 -42.800278 -21.784721
-24.379236 -41.002144 -23.581087
-23.907311 -41.932438 -22.686861
-23.675745 -42.081135 -23.224888
-24.77189 -40.07396 -24.510483
-24.379236 -41.002144 -23.581087
-25.144685 -39.08926 -25.439351
-24.77189 -40.07396 -24.510483
-24.520466 -40.166141 -25.047981
-25.428261 -38.100994 -26.396653
-25.144685 -39.08926 -25.439351
-25.701414 -37.061754 -27.359642
-25.428261 -38.100994 -26.396653
-25.166415 -38.142202 -26.939839
-25.878456 -36.014348 -28.344938
-25.701414 -37.061754 -27.359642
-26.059202 -34.921051 -29.339637
-25.878456 -36.014348 -28.344938
-25.620313 -36.009664 -28.897527
-26.140048 -33.816187 -30.351711
-26.059202 -34.921051 -29.339637
-26.24389 -32.67021 -31.373451
-26.140048 -33.816187 -30.351711
-25.904901 -33.77039 -30.913967
-26.247379 -31.510226 -32.408945
-26.482526 -31.556023 -31.846689
-26.24389 -32.67021 -31.373451
-34.226616 -27.213909 -40.030345
-33.820208 -25.822592 -40.710243
-33.415598 -27.00974 -40.008015
-34.966707 -27.291488 -40.155673
-34.226616 -27.213909 -40.030345
-34.562098 -28.478637 -39.453445
-35.580319 -27.506219 -40.148168
-34.966707 -27.291488 -40.155673
3 0 127 129
3 127 31 128
3 127 128 129
3 0 33 31
3 130 36 131
3 132 131 34
3 130 131 132
3 133 38 134
3 135 134 36
3 133 134 135
3 136 41 137
3 138 43 139
3 140 139 41
3 138 139 140
3 142 141 43
3 2 47 45
3 2 49 47
3 2 51 49
3 3 54 52
3 3 55 54
3 1 58 56
3 5 61 59
3 5 63 61
3 5 65 63
3 4 68 66
3 4 143 145
3 145 144 68
3 143 144 145
3 6 146 148
3 146 70 147
3 146 147 148
3 6 71 70
3 6 73 71
3 8 74 32
3 8 75 74
3 9 78 76
3 11 79 35
3 11 80 79
3 11 82 80
3 13 83 37
3 13 84 83
3 149 86 150
3 14 87 39
3 14 88 87
3 15 89 40
3 15 90 89
3 15 91 90
3 16 92 42
3 16 93 92
3 16 95 93
3 18 96 44
3 18 97 96
3 151 98 152
3 154 153 98
3 19 155 157
3 157 156 46
3 155 156 157
3 19 158 160
3 158 99 159
3 158 159 160
3 19 100 99
3 20 101 48
3 20 102 101
3 20 103 102
3 21 104 50
3 21 161 163
3 163 162 104
3 161 162 163
3 7 105 72
3 22 106 53
3 22 164 166
3 166 165 106
3 164 165 166
3 22 167 168
3 23 169 170
3 23 171 172
3 173 107 174
3 176 175 85
3 25 177 178
3 25 179 181
3 179 109 180
3 179 180 181
3 17 110 94
3 26 111 57
3 26 112 111
3 10 113 77
3 27 114 60
3 27 115 114
3 27 116 115
3 28 117 62
3 28 118 117
3 28 119 118
3 29 120 64
3 29 121 120
3 12 122 81
3 30 123 67
3 30 124 123
3 30 125 124
3 24 126 69
3 24 108 126
3 31 182 183
3 31 184 186
3 184 6 185
3 184 185 186
3 31 32 6
3 33 32 31
3 33 8 32
3 34 35 9
3 36 35 34
3 36 11 35
3 36 37 11
3 38 37 36
3 38 13 37
3 187 39 188
3 189 39 190
3 191 14 192
3 193 192 39
3 191 192 193
3 194 40 195
3 41 196 198
3 196 40 197
3 196 197 198
3 41 15 40
3 41 42 15
3 43 42 41
3 43 16 42
3 43 44 16
3 199 44 200
3 201 200 43
3 199 200 201
3 202 18 203
3 204 203 44
3 202 203 204
3 45 205 207
3 205 46 206
3 205 206 207
3 47 46 45
3 47 19 46
3 47 48 19
3 49 48 47
3 49 20 48
3 49 50 20
3 51 50 49
3 51 21 50
3 52 53 7
3 54 53 52
3 54 22 53
3 54 208 210
3 210 209 22
3 208 209 210
3 55 211 213
3 213 212 54
3 211 212 213
3 55 214 216
3 214 23 215
3 214 215 216
3 217 25 218
3 56 57 17
3 58 57 56
3 58 26 57
3 59 60 10
3 61 60 59
3 61 27 60
3 61 62 27
3 63 62 61
3 63 28 62
3 63 64 28
3 65 64 63
3 65 29 64
3 66 67 12
3 68 67 66
3 68 30 67
3 68 69 30
3 219 69 220
3 221 220 68
3 219 220 221
3 222 24 223
3 224 223 69
3 222 223 224
3 70 225 226
3 70 227 228
3 70 229 231
3 229 45 230
3 229 230 231
3 71 45 70
3 71 2 45
3 71 72 2
3 73 72 71
3 73 7 72
3 32 73 6
3 74 73 32
3 74 7 73
3 74 52 7
3 75 52 74
3 75 3 52
3 76 77 1
3 78 77 76
3 78 10 77
3 35 78 9
3 79 78 35
3 79 10 78
3 79 59 10
3 80 59 79
3 80 5 59
3 80 81 5
3 82 81 80
3 82 12 81
3 37 82 11
3 83 82 37
3 83 12 82
3 83 66 12
3 84 66 83
3 84 4 66
3 232 0 233
3 234 85 235
3 86 236 238
3 236 85 237
3 236 237 238
3 86 239 241
3 241 240 85
3 239 240 241
3 39 242 244
3 242 86 243
3 242 243 244
3 87 86 39
3 87 245 247
3 247 246 86
3 245 246 247
3 87 248 249
3 88 250 252
3 252 251 87
3 250 251 252
3 88 253 254
3 255 14 256
3 40 257 258
3 89 259 261
3 261 260 40
3 259 260 261
3 89 262 264
3 262 14 263
3 262 263 264
3 89 88 14
3 90 88 89
3 90 265 267
3 267 266 88
3 265 266 267
3 90 268 269
3 91 270 272
3 272 271 90
3 270 271 272
3 91 273 274
3 42 91 15
3 92 91 42
3 92 275 277
3 277 276 91
3 275 276 277
3 92 278 279
3 93 280 282
3 282 281 92
3 280 281 282
3 93 283 284
3 93 285 287
3 285 94 286
3 285 286 287
3 95 94 93
3 95 17 94
3 44 95 16
3 96 95 44
3 96 17 95
3 96 56 17
3 97 56 96
3 97 1 56
3 288 18 289
3 290 18 291
3 292 97 293
3 294 293 18
3 292 293 294
3 98 295 297
3 295 97 296
3 295 296 297
3 98 1 97
3 98 76 1
3 298 76 299
3 300 299 98
3 298 299 300
3 301 9 302
3 303 302 76
3 301 302 303
3 304 9 305
3 306 34 307
3 308 307 9
3 306 307 308
3 309 34 310
3 312 311 34
3 46 313 314
3 316 315 46
3 99 317 318
3 99 319 320
3 99 321 322
3 100 323 325
3 325 324 99
3 323 324 325
3 100 326 327
3 48 100 19
3 101 100 48
3 101 328 330
3 330 329 100
3 328 329 330
3 101 331 332
3 102 333 335
3 335 334 101
3 333 334 335
3 102 336 337
3 102 338 339
3 103 340 342
3 342 341 102
3 340 341 342
3 103 343 344
3 50 103 20
3 104 103 50
3 104 345 347
3 347 346 103
3 345 346 347
3 104 348 349
3 351 350 104
3 72 51 2
3 105 51 72
3 105 21 51
3 53 105 7
3 106 105 53
3 106 21 105
3 106 352 354
3 354 353 21
3 352 353 354
3 356 355 106
3 358 357 22
3 359 38 360
3 361 38 362
3 363 13 364
3 365 364 38
3 363 364 365
3 366 13 367
3 368 84 369
3 370 369 13
3 368 369 370
3 107 371 373
3 371 84 372
3 371 372 373
3 107 4 84
3 374 107 375
3 376 107 377
3 378 4 379
3 380 379 107
3 378 379 380
3 382 381 4
3 383 24 384
3 385 24 386
3 387 108 388
3 389 388 24
3 387 388 389
3 390 108 391
3 393 392 108
3 85 394 395
3 397 396 85
3 109 398 399
3 109 400 402
3 400 0 401
3 400 401 402
3 94 403 404
3 110 405 407
3 407 406 94
3 405 406 407
3 110 408 409
3 57 110 17
3 111 110 57
3 111 410 412
3 412 411 110
3 410 411 412
3 111 413 414
3 112 415 417
3 417 416 111
3 415 416 417
3 112 418 419
3 77 58 1
3 113 58 77
3 113 26 58
3 60 113 10
3 114 113 60
3 114 26 113
3 114 112 26
3 115 112 114
3 115 420 422
3 422 421 112
3 420 421 422
3 115 423 424
3 116 425 427
3 427 426 115
3 425 426 427
3 116 428 430
3 428 25 429
3 428 429 430
3 62 116 27
3 117 116 62
3 117 25 116
3 117 109 25
3 118 109 117
3 118 0 109
3 118 33 0
3 119 33 118
3 119 8 33
3 64 119 28
3 120 119 64
3 120 8 119
3 120 75 8
3 121 75 120
3 121 3 75
3 81 65 5
3 122 65 81
3 122 29 65
3 67 122 12
3 123 122 67
3 123 29 122
3 123 121 29
3 124 121 123
3 124 3 121
3 124 55 3
3 125 55 124
3 125 23 55
3 69 125 30
3 126 125 69
3 126 23 125
3 126 431 433
3 433 432 23
3 431 432 433
3 108 434 436
3 436 435 126
3 434 435 436
3 108 437 438
