ply
format ascii 1.0
element vertex 227
property float x
property float y
property float z
element face 193
property list uchar int vertex_index
end_header
41.794807 62.963242 -18.702749
41.055084 51.244164 -19.044291
39.980633 68.870346 -17.06378
44.71077 64.217583 -15.493031
30.832235 77.638504 -16.12137
33.953346 72.959206 -18.428919
36.409904 66.929779 -20.031752
37.972618 60.311935 -21.071066
45.483276 58.799431 -16.684042
42.227085 56.903214 -19.389647
38.362106 53.909767 -21.546289
34.655254 36.612198 -19.550478
45.773697 64.303749 -13.523983
34.137535 75.827347 -15.345377
32.460945 75.498146 -17.374105
35.703808 73.599464 -16.633005
41.03437 65.985764 -17.993704
38.313961 68.096893 -18.658953
39.283657 64.992149 -19.403395
37.319633 63.63855 -20.617296
39.974327 61.795662 -19.966043
42.758698 52.531967 -17.833628
43.572968 55.216896 -18.132196
41.834946 54.010468 -19.344133
40.34824 55.519539 -20.505377
39.984276 52.564911 -20.45669
38.063454 50.928001 -21.527998
39.281555 49.747719 -20.19145
35.486851 38.540943 -17.966852
38.687298 71.514198 -15.929674
41.37339 69.24659 -15.218395
42.526276 66.595421 -16.342276
43.383354 63.77552 -17.221487
39.967213 48.575226 -18.521833
29.012093 77.222939 -18.176916
30.572315 74.747337 -19.192026
37.108006 70.999115 -17.735979
35.855263 58.566238 -22.095934
45.316364 61.514122 -16.252768
43.877098 60.884232 -17.826136
43.950439 58.010071 -18.133043
42.207336 59.906502 -19.173231
40.341255 58.611259 -20.337831
38.330296 57.0467 -21.386751
46.180649 64.18695 -12.435499
45.227125 65.507035 -12.914078
36.45356 73.716228 -15.619319
34.920671 74.713405 -15.989191
35.670423 74.83017 -14.975505
35.939238 39.441946 -17.188513
35.871205 40.028568 -18.239296
35.584299 37.87693 -16.940538
35.939238 39.441946 -17.188513
41.928867 69.249439 -14.174495
40.682429 70.4426 -14.549467
43.618523 65.406502 -15.917654
43.132812 66.710831 -15.390379
44.22506 65.521912 -14.965757
29.922164 77.430722 -17.149143
28.178553 78.258069 -17.556142
29.088624 78.465851 -16.52837
32.972695 72.428326 -19.222279
31.282179 73.322392 -19.603832
32.26283 73.853272 -18.810472
35.844133 68.501583 -19.66976
36.796161 69.08514 -18.98336
37.361932 67.513336 -19.345353
34.830004 67.838669 -20.359112
35.844133 68.501583 -19.66976
35.369644 66.165428 -20.636555
34.830004 67.838669 -20.359112
36.59032 61.141941 -21.389384
36.263828 62.805249 -21.162498
37.646125 61.975243 -20.844181
36.91394 59.439087 -21.5835
35.531643 60.269092 -21.901817
36.59032 61.141941 -21.389384
45.39982 60.156776 -16.468405
46.061349 60.382454 -15.635354
46.144805 59.025109 -15.850991
37.298954 54.588279 -21.970858
37.283049 56.156746 -21.891089
38.346201 55.478234 -21.46652
37.34272 53.015736 -22.06193
37.298954 54.588279 -21.970858
37.091576 50.03281 -22.068091
37.768641 49.505867 -21.424509
38.517414 46.478733 -18.78705
39.147074 47.799542 -19.127699
39.337553 47.254418 -18.181185
34.353355 37.153614 -20.47325
34.884556 38.140444 -19.74655
34.283981 35.595299 -20.358934
34.353355 37.153614 -20.47325
34.620041 34.976815 -19.48115
34.283981 35.595299 -20.358934
44.756523 65.564995 -13.981233
45.227125 65.507035 -12.914078
45.242233 64.260666 -14.508507
44.22506 65.521912 -14.965757
44.756523 65.564995 -13.981233
46.03804 57.771191 -15.952082
46.144805 59.025109 -15.850991
43.165833 53.874432 -17.982912
43.968611 54.390957 -17.322643
43.561476 53.048493 -17.173359
38.377691 48.915726 -20.756235
37.768641 49.505867 -21.424509
38.672505 50.33786 -20.859724
35.300354 39.104816 -18.954736
35.684708 40.592441 -19.22718
35.871205 40.028568 -18.239296
35.071053 37.576571 -18.758665
34.884556 38.140444 -19.74655
35.300354 39.104816 -18.954736
35.290411 36.933477 -17.804308
34.874612 35.969105 -18.596121
35.071053 37.576571 -18.758665
35.290411 36.933477 -17.804308
35.584299 37.87693 -16.940538
39.339382 71.576404 -14.905107
37.945305 72.673596 -15.267653
40.030344 70.380394 -15.574034
39.339382 71.576404 -14.905107
40.682429 70.4426 -14.549467
42.55637 68.036416 -14.828439
41.928867 69.249439 -14.174495
41.949833 67.921006 -15.780335
42.55637 68.036416 -14.828439
43.132812 66.710831 -15.390379
42.948941 51.802692 -16.894613
43.561476 53.048493 -17.173359
42.168627 51.235668 -17.554178
42.948941 51.802692 -16.894613
41.31682 50.591766 -18.15951
41.906891 51.888065 -18.43896
42.168627 51.235668 -17.554178
40.772885 49.257297 -17.898281
40.511149 49.909695 -18.783062
41.31682 50.591766 -18.15951
40.065604 47.977836 -17.523161
40.772885 49.257297 -17.898281
39.337553 47.254418 -18.181185
40.065604 47.977836 -17.523161
29.971129 78.507332 -15.386966
29.088624 78.465851 -16.52837
31.641053 77.646446 -14.994577
29.971129 78.507332 -15.386966
33.293703 76.740868 -14.606581
32.484885 76.732925 -15.733373
31.641053 77.646446 -14.994577
34.856207 75.801525 -14.223927
33.293703 76.740868 -14.606581
34.012375 76.715046 -13.485131
35.670423 74.83017 -14.975505
34.856207 75.801525 -14.223927
27.218691 78.005768 -18.609037
28.178553 78.258069 -17.556142
28.021377 76.796566 -19.112215
27.218691 78.005768 -18.609037
28.801488 75.558765 -19.61977
28.021377 76.796566 -19.112215
29.792204 75.985138 -18.684471
29.548592 74.156277 -20.011643
28.801488 75.558765 -19.61977
29.548592 74.156277 -20.011643
31.282179 73.322392 -19.603832
37.195553 72.556831 -16.28134
36.45356 73.716228 -15.619319
37.945305 72.673596 -15.267653
36.193184 70.536251 -18.521873
37.710983 69.548004 -18.197466
36.796161 69.08514 -18.98336
34.615854 71.516296 -18.868344
35.530676 71.979161 -18.082449
36.193184 70.536251 -18.521873
32.972695 72.428326 -19.222279
34.615854 71.516296 -18.868344
35.824509 64.519813 -20.929327
35.369644 66.165428 -20.636555
36.864768 65.284165 -20.324524
35.824509 64.519813 -20.929327
36.263828 62.805249 -21.162498
34.439522 59.308453 -22.426832
35.531643 60.269092 -21.901817
34.773611 57.590225 -22.607518
34.439522 59.308453 -22.426832
46.623013 63.021385 -12.970572
46.180649 64.18695 -12.435499
46.142956 63.047775 -13.983642
46.623013 63.021385 -12.970572
45.611492 63.004692 -14.968166
45.242233 64.260666 -14.508507
46.142956 63.047775 -13.983642
45.914289 61.652962 -15.348034
46.061349 60.382454 -15.635354
45.013567 62.865853 -15.872899
45.611492 63.004692 -14.968166
45.914289 61.652962 -15.348034
45.324493 57.468899 -16.726364
46.03804 57.771191 -15.952082
44.369339 55.677632 -17.450441
43.968611 54.390957 -17.322643
44.558075 57.074219 -17.450865
44.369339 55.677632 -17.450441
43.761704 56.613484 -18.13262
44.716858 58.404751 -17.408543
45.324493 57.468899 -16.726364
44.558075 57.074219 -17.450865
36.045533 56.916515 -22.24568
37.092779 57.806469 -21.741343
37.283049 56.156746 -21.891089
34.963881 55.940502 -22.757264
34.773611 57.590225 -22.607518
36.045533 56.916515 -22.24568
37.193394 51.524853 -22.052784
37.34272 53.015736 -22.06193
38.21278 52.418884 -21.537143
37.193394 51.524853 -22.052784
37.091576 50.03281 -22.068091
38.804245 48.385788 -19.962507
39.624384 49.161473 -19.356642
39.147074 47.799542 -19.127699
38.377691 48.915726 -20.756235
38.804245 48.385788 -19.962507
34.620041 34.976815 -19.48115
34.874612 35.969105 -18.596121
3 44 12 45
3 46 15 47
3 48 47 13
3 46 47 48
3 0 18 16
3 0 20 18
3 1 23 21
3 1 25 23
3 1 27 25
3 49 28 50
3 52 51 28
3 53 30 54
3 3 55 57
3 55 31 56
3 55 56 57
3 3 32 31
3 4 58 60
3 58 34 59
3 58 59 60
3 5 35 14
3 5 61 63
3 63 62 35
3 61 62 63
3 2 36 29
3 6 64 66
3 66 65 17
3 64 65 66
3 6 67 68
3 6 69 70
3 7 71 73
3 73 72 19
3 71 72 73
3 7 74 76
3 74 37 75
3 74 75 76
3 8 77 79
3 77 38 78
3 77 78 79
3 8 39 38
3 9 40 22
3 9 41 40
3 9 42 41
3 10 43 24
3 10 80 82
3 82 81 43
3 80 81 82
3 10 83 84
3 86 85 26
3 89 88 33
3 87 88 89
3 11 90 91
3 11 92 93
3 11 94 95
3 12 96 97
3 12 98 100
3 98 3 99
3 98 99 100
3 13 14 4
3 15 14 13
3 15 5 14
3 16 17 2
3 18 17 16
3 18 6 17
3 18 19 6
3 20 19 18
3 20 7 19
3 101 8 102
3 21 103 105
3 103 22 104
3 103 104 105
3 23 22 21
3 23 9 22
3 23 24 9
3 25 24 23
3 25 10 24
3 25 26 10
3 27 26 25
3 27 106 108
3 108 107 26
3 106 107 108
3 28 109 111
3 109 110 111
3 28 112 114
3 112 11 113
3 112 113 114
3 28 115 117
3 117 116 11
3 115 116 117
3 119 118 28
3 120 29 121
3 30 122 124
3 122 29 123
3 122 123 124
3 30 2 29
3 125 30 126
3 31 127 129
3 127 30 128
3 127 128 129
3 31 2 30
3 31 16 2
3 32 16 31
3 32 0 16
3 130 21 131
3 132 21 133
3 134 1 135
3 136 135 21
3 134 135 136
3 137 33 138
3 139 138 1
3 137 138 139
3 140 33 141
3 143 142 33
3 144 4 145
3 146 4 147
3 148 13 149
3 150 149 4
3 148 149 150
3 151 13 152
3 151 152 153
3 155 154 13
3 34 156 157
3 34 158 159
3 14 34 4
3 35 34 14
3 35 160 162
3 162 161 34
3 160 161 162
3 35 163 164
3 166 165 35
3 29 167 169
3 167 15 168
3 167 168 169
3 36 15 29
3 36 5 15
3 17 36 2
3 170 36 171
3 172 171 17
3 170 171 172
3 173 5 174
3 175 174 36
3 173 174 175
3 177 176 5
3 19 178 180
3 180 179 6
3 178 179 180
3 182 181 19
3 37 183 184
3 37 185 186
3 187 12 188
3 189 12 190
3 191 3 192
3 193 192 12
3 191 192 193
3 38 194 195
3 38 196 198
3 196 3 197
3 196 197 198
3 38 32 3
3 39 32 38
3 39 0 32
3 199 8 200
3 22 201 202
3 40 203 205
3 205 204 22
3 203 204 205
3 40 206 208
3 206 8 207
3 206 207 208
3 40 39 8
3 41 39 40
3 41 0 39
3 41 20 0
3 42 20 41
3 42 7 20
3 24 42 9
3 43 42 24
3 43 7 42
3 43 37 7
3 209 37 210
3 211 210 43
3 209 210 211
3 214 213 37
3 212 213 214
3 26 215 217
3 217 216 10
3 215 216 217
3 219 218 26
3 33 27 1
3 220 27 221
3 222 221 33
3 220 221 222
3 224 223 27
3 226 225 11
