ply
format ascii 1.0
element vertex 616
property float x
property float y
property float z
element face 658
property list uchar int vertex_index
end_header
-35.858448 -26.456223 -40.717564
-40.031567 -81.838455 -26.799374
-30.56118 -4.485447 -52.852089
-38.808308 -51.995644 -33.808342
-31.975267 -68.749191 -26.407295
-39.614773 -67.098618 -30.230389
-33.657696 -15.549621 -46.753582
-47.610806 -77.6539 -24.318581
-48.015984 -63.967682 -30.39204
-38.319729 -37.201416 -37.301041
-27.735226 -65.971985 -21.750072
-33.298153 -52.288334 -29.894562
-35.563919 -76.195786 -27.249119
-39.99054 -74.552475 -28.485291
-34.920937 -5.985421 -53.348373
-36.555813 -11.851168 -49.677528
-32.033951 -9.864916 -50.117393
-47.807648 -56.89962 -33.286873
-43.805252 -28.423584 -42.05151
-25.840214 -74.557419 -20.540146
-35.33242 -60.499786 -30.279285
-32.60841 -60.476326 -28.025295
-35.541592 -52.555443 -32.039616
-35.80761 -44.795197 -33.880188
-38.653214 -44.428875 -35.555264
-28.271656 -76.348091 -22.728172
-31.487801 -76.922028 -25.116806
-35.39999 -68.411499 -28.653664
-39.132774 -59.580032 -32.019409
-35.077045 -21.382637 -43.365688
-37.789509 -18.071627 -45.730774
-38.180702 -24.485022 -42.178871
-44.033661 -79.662048 -26.066391
-51.555832 -69.783859 -25.767029
-47.922935 -70.975952 -27.338482
-44.161335 -72.63295 -28.443813
-43.959484 -65.409531 -30.794994
-43.489864 -58.176537 -33.026566
-42.934227 -50.916077 -35.078606
-46.61924 -42.645618 -38.11797
-42.367123 -43.577065 -36.940136
-41.616817 -36.332886 -38.695103
-40.321873 -29.707129 -40.465485
-37.357262 -30.888704 -39.111149
-28.994566 -57.504955 -23.576439
-29.585985 -67.878853 -23.967854
-30.779259 -59.416798 -25.634109
-31.476929 -51.181538 -27.748413
-33.568478 -44.456329 -32.024487
-35.594307 -37.577194 -35.863068
-37.822708 -82.866028 -26.624626
-37.84573 -79.192642 -27.301949
-40.058147 -78.229797 -27.633671
-34.078682 -3.166008 -54.838364
-32.625404 -5.035498 -53.280609
-33.434475 -7.807158 -51.768433
-31.26162 -7.135673 -51.598984
-37.044262 -56.253963 -32.103672
-35.405304 -56.521881 -31.148338
-37.040043 -52.366821 -32.9842
-37.082932 -48.500145 -33.867153
-38.723896 -48.196426 -34.68692
-31.2388 -80.928047 -24.619358
-37.633526 -71.663116 -28.765442
-35.490253 -72.323715 -27.920422
-37.44833 -67.844963 -29.553864
-37.263779 -64.001968 -30.378166
-39.367737 -63.346973 -31.121254
-32.148827 -22.828135 -42.160282
-35.056046 -13.58877 -48.22076
-37.249989 -14.919641 -47.690166
-35.775192 -16.592915 -46.358681
-36.360493 -19.63728 -44.551407
-34.419594 -18.471901 -45.023014
-47.439331 -80.762245 -22.881458
-45.852413 -78.620193 -25.272873
-49.869881 -66.919418 -28.261997
-48.006302 -67.492165 -28.873825
-46.08091 -71.749718 -27.989323
-46.096432 -68.201111 -29.353718
-44.103092 -69.028778 -29.629597
-46.029255 -64.628609 -30.694824
-45.677326 -57.488861 -33.242622
-45.423923 -53.921787 -34.424286
-43.213242 -54.555336 -34.077526
-45.136673 -50.339893 -35.534389
-46.130081 -39.012917 -39.133739
-44.457973 -43.094299 -37.550652
-44.03315 -39.450417 -38.483475
-42.035294 -39.918503 -37.822285
-43.509125 -35.844093 -39.39452
-41.999645 -29.041691 -41.227821
-40.94067 -26.033897 -42.155838
-39.366699 -26.866619 -41.349922
-39.648483 -23.418995 -43.057983
-25.834839 -69.015579 -20.127132
-26.750977 -64.727478 -20.832256
-27.443953 -60.48019 -21.721313
-28.471516 -61.71014 -22.579571
-30.206568 -72.649048 -24.500435
-28.932865 -72.123535 -23.293667
-30.666424 -68.461472 -25.183609
-32.968971 -56.356628 -28.930557
-31.626623 -60.068386 -26.818398
-32.064487 -55.914333 -27.76112
-31.222336 -55.254005 -26.632294
-32.393677 -51.831467 -28.790314
-32.54155 -47.856796 -29.913258
-33.523186 -48.308437 -30.922356
-37.086765 -40.995979 -35.655682
-35.794231 -41.092903 -34.846588
-36.910015 -37.472137 -36.584545
-36.543926 -34.187744 -37.550312
-37.934673 -33.886345 -38.199852
-33.758121 -34.204723 -36.378807
-33.351509 -80.616325 -25.715496
-35.582485 -80.014923 -26.64019
-37.777153 -75.450378 -28.015121
-39.834572 -70.836029 -29.351192
-37.229439 -0.118898 -57.259468
-35.612473 -1.531775 -56.195503
-36.479225 -4.410864 -54.798485
-37.337982 -7.345608 -53.073364
-38.136478 -10.358863 -51.115372
-35.762333 -8.875566 -51.596909
-34.25909 -10.657099 -50.053345
-32.846111 -12.672255 -48.477467
-47.948051 -60.432194 -31.869858
-44.755566 -31.831545 -41.078201
-26.841208 -70.261642 -21.075207
-33.659161 -64.68309 -28.360817
-32.269176 -64.615685 -27.181255
-33.826305 -60.620663 -29.196156
-34.055344 -56.561008 -30.077408
-34.313087 -52.532291 -30.996403
-34.538403 -48.570377 -31.953106
-35.698082 -48.63253 -32.948689
-37.121433 -44.692604 -34.754379
-38.540241 -40.742016 -36.422375
-29.959309 -1.916124 -53.812462
-29.761152 -76.803146 -23.91848
-31.722721 -72.856873 -25.71537
-33.439999 -76.707626 -26.254837
-33.495552 -72.740128 -26.879086
-33.556412 -68.727821 -27.584175
-35.335758 -64.467407 -29.443424
-37.120129 -60.136654 -31.231541
-38.941479 -55.795216 -32.917664
-31.549685 -14.889148 -46.873138
-32.386112 -17.706635 -45.256191
-33.206879 -20.54871 -43.641304
-33.96373 -23.354319 -42.104645
-35.5751 -24.159723 -41.87302
-34.631226 -26.02676 -40.732574
-38.820976 -13.472163 -49.033623
-39.336075 -16.695198 -46.93845
-39.627636 -20.019279 -44.925488
-38.117863 -21.275782 -43.878399
-36.752007 -22.656364 -42.872681
-36.880219 -25.549503 -41.374252
-42.103577 -80.750168 -26.601097
-49.555695 -73.623817 -24.911022
-49.734367 -70.324631 -26.574833
-47.782143 -74.378143 -25.811497
-45.991653 -75.237541 -26.621605
-44.132774 -76.191071 -27.250572
-42.160851 -77.206116 -27.609272
-42.131496 -73.587456 -28.625439
-42.009747 -69.929962 -29.640057
-41.808842 -66.257858 -30.647121
-45.884697 -61.055489 -31.995808
-43.746864 -61.791588 -31.930073
-41.556187 -62.581593 -31.642246
-41.285271 -58.899746 -32.620686
-41.026424 -55.204754 -33.576778
-40.798229 -51.490879 -34.50547
-44.818062 -46.73082 -36.573452
-42.656593 -47.253365 -36.030346
-40.600845 -47.762451 -35.405106
-40.412659 -44.040535 -36.279976
-40.191582 -40.366791 -37.140934
-39.881889 -36.803978 -38.002529
-42.844868 -32.344864 -40.305279
-41.061142 -32.897598 -39.574657
-39.426228 -33.433556 -38.876026
-38.780701 -30.352577 -39.758457
-37.928497 -27.675282 -40.618126
-36.615051 -28.327284 -39.99313
-26.236177 -59.111176 -21.057541
-27.86998 -56.308788 -22.803307
-29.257133 -53.393211 -24.744797
-26.986876 -75.584007 -21.592793
-27.841333 -71.312576 -22.1404
-28.6457 -67.035187 -22.808613
-31.145773 -64.260193 -25.958565
-30.214369 -63.635048 -24.74762
-29.363037 -62.772846 -23.603561
-29.940435 -58.551483 -24.534248
-30.317642 -54.403286 -25.608822
-30.442282 -50.365929 -26.829315
-31.48571 -47.23708 -28.985535
-32.448341 -44.027489 -31.136524
-34.654388 -44.717007 -32.956154
-34.587906 -41.015709 -34.019726
-34.291172 -37.504601 -35.157726
-35.178143 -34.291786 -36.941277
-35.986053 -31.205488 -38.55069
-38.927138 -82.352241 -26.712
-37.76757 -84.652329 -26.304182
-38.872 -84.138542 -26.391556
-31.593292 -4.760472 -53.066349
-32.247582 -3.685736 -53.896385
-31.215469 -3.41071 -53.682125
-31.09329 -82.891766 -24.422646
-30.037424 -82.930408 -23.855308
-46.653605 -79.753715 -24.141551
-46.567868 -81.307888 -23.422989
-47.525069 -79.208072 -23.600019
-46.731609 -78.137046 -24.795727
-45.774408 -80.236862 -24.618696
-46.653605 -79.753715 -24.141551
-48.011143 -65.729923 -29.632933
-48.974575 -65.471337 -29.408938
-48.979416 -63.709095 -30.168045
-46.381804 -51.873014 -35.151085
-46.513498 -53.644899 -34.525381
-46.238179 -50.082068 -35.706136
-45.280298 -52.13084 -34.979337
-46.381804 -51.873014 -35.151085
-45.824909 -37.200661 -39.62276
-46.864681 -37.008686 -39.986135
-44.776443 -37.419411 -39.297629
-45.081615 -39.231667 -38.808607
-45.824909 -37.200661 -39.62276
-44.514431 -35.616249 -39.753151
-43.771137 -37.647255 -38.938997
-44.776443 -37.419411 -39.297629
-41.095482 -24.23237 -43.081226
-41.791418 -25.64626 -42.59503
-40.449388 -22.924919 -43.532299
-40.294576 -24.726446 -42.60691
-41.095482 -24.23237 -43.081226
-33.342709 -35.73901 -35.434444
-33.001045 -34.091482 -36.116606
-35.55187 -81.88797 -26.365648
-34.391857 -82.231209 -25.950276
-34.446484 -0.968823 -56.091545
-35.201609 -0.113686 -56.693546
-25.294669 -73.93837 -20.063555
-24.693022 -76.089107 -19.865414
-26.340711 -72.40953 -20.807676
-25.795166 -71.790481 -20.331086
-25.294669 -73.93837 -20.063555
-29.720332 -0.676581 -54.118358
-30.581428 -0.812433 -54.6049
-30.624477 -76.862587 -24.517643
-29.536272 -78.853927 -23.682615
-30.399597 -78.913368 -24.281779
-30.57455 -14.723935 -46.781286
-31.14728 -13.509203 -47.648363
-31.824932 -18.87064 -44.474702
-31.392351 -17.488132 -45.239486
-32.235315 -20.291677 -43.667259
-32.796495 -19.127672 -44.448747
-31.824932 -18.87064 -44.474702
-33.48646 -24.486371 -41.396278
-33.056278 -23.091227 -42.132464
-32.579009 -24.223279 -41.424097
-33.820208 -25.822592 -40.710243
-34.297478 -24.690539 -41.41861
-33.48646 -24.486371 -41.396278
-38.51751 -1.03303 -57.108413
-37.667845 -1.596409 -56.646752
-43.008847 -81.91996 -25.840044
-43.964338 -81.331795 -25.487944
-43.068619 -80.206108 -26.333744
-42.043805 -82.46402 -26.107397
-43.008847 -81.91996 -25.840044
-51.452991 -71.374046 -24.878428
-52.480788 -69.552101 -25.359699
-50.555763 -71.703838 -25.339025
-50.452923 -73.294025 -24.450424
-51.452991 -71.374046 -24.878428
-47.705368 -42.459017 -38.374821
-47.44395 -40.645449 -38.940382
-46.817385 -44.449148 -37.578442
-47.705368 -42.459017 -38.374821
-45.718651 -44.688219 -37.345711
-45.916796 -46.491749 -36.806183
-46.817385 -44.449148 -37.578442
-25.930011 -61.220951 -20.572359
-25.287267 -60.457013 -20.293959
-27.629266 -75.966049 -22.160483
-26.544633 -77.707111 -21.378466
-27.187023 -78.089153 -21.946155
-33.472617 -42.612621 -32.618214
-32.912548 -42.398201 -32.174233
-33.008409 -44.241909 -31.580506
-36.598907 -85.136421 -26.111709
-37.76757 -84.652329 -26.304182
-36.671982 -83.313523 -26.357866
-36.598907 -85.136421 -26.111709
-37.834219 -81.029335 -26.963287
-36.683492 -81.47683 -26.696528
-36.671982 -83.313523 -26.357866
-32.974221 -2.750991 -54.675263
-33.679589 -1.785939 -55.412976
-33.352043 -4.100753 -54.059486
-32.974221 -2.750991 -54.675263
-32.247582 -3.685736 -53.896385
-25.305807 -76.699433 -20.336588
-24.693022 -76.089107 -19.865414
-30.275096 -80.916378 -24.033054
-30.037424 -82.930408 -23.855308
-31.363301 -78.925038 -24.868082
-30.399597 -78.913368 -24.281779
-30.275096 -80.916378 -24.033054
-31.224922 -22.667626 -42.095223
-31.706289 -21.43139 -42.926748
-31.692326 -24.063678 -41.349726
-31.224922 -22.667626 -42.095223
-32.579009 -24.223279 -41.424097
-31.692326 -24.063678 -41.349726
-46.497709 -82.831539 -22.796383
-46.423635 -84.286659 -22.111591
-47.365257 -82.217365 -22.196666
-46.497709 -82.831539 -22.796383
-46.567868 -81.307888 -23.422989
-44.873714 -80.810867 -25.091185
-45.774408 -80.236862 -24.618696
-44.943037 -79.14112 -25.669632
-43.964338 -81.331795 -25.487944
-44.873714 -80.810867 -25.091185
-52.576554 -67.949661 -26.31831
-52.480788 -69.552101 -25.359699
-49.906364 -65.184963 -29.103023
-50.855835 -64.994873 -28.832971
-48.938091 -67.205792 -28.567911
-49.906364 -65.184963 -29.103023
-48.974575 -65.471337 -29.408938
-46.6402 -55.428436 -33.934549
-46.742487 -57.19424 -33.264747
-47.70536 -55.133815 -33.956674
-45.550624 -55.705324 -33.833454
-46.6402 -55.428436 -33.934549
-46.513498 -53.644899 -34.525381
-47.199371 -38.829098 -39.448267
-46.864681 -37.008686 -39.986135
-46.37466 -40.829268 -38.625855
-47.44395 -40.645449 -38.940382
-47.199371 -38.829098 -39.448267
-42.320906 -27.150157 -42.131022
-42.902449 -28.732638 -41.639665
-43.223709 -26.841104 -42.542866
-41.470157 -27.537794 -41.691829
-42.320906 -27.150157 -42.131022
-41.791418 -25.64626 -42.59503
-25.288923 -68.311996 -19.724716
-24.735726 -70.463448 -19.437297
-25.746992 -66.167946 -20.077278
-25.288923 -68.311996 -19.724716
-26.292908 -66.871529 -20.479694
-26.18741 -64.029103 -20.459716
-25.746992 -66.167946 -20.077278
-27.097465 -62.603834 -21.276784
-26.533898 -61.905459 -20.904245
-26.18741 -64.029103 -20.459716
-33.392675 -32.654429 -37.03262
-33.001045 -34.091482 -36.116606
-34.161774 -32.728512 -37.233944
-33.392675 -32.654429 -37.03262
-33.276369 -82.53191 -25.487929
-32.149644 -82.735905 -24.970714
-34.466997 -80.315624 -26.177843
-33.276369 -82.53191 -25.487929
-34.391857 -82.231209 -25.950276
-36.714107 -79.603782 -26.971069
-35.55187 -81.88797 -26.365648
-36.683492 -81.47683 -26.696528
-36.010092 0.592753 -57.225528
-36.819069 1.344793 -57.646309
-36.420956 -0.825337 -56.727486
-36.010092 0.592753 -57.225528
-35.201609 -0.113686 -56.693546
-36.859362 -2.302847 -56.114769
-37.667845 -1.596409 -56.646752
-36.420956 -0.825337 -56.727486
-34.845578 -2.348892 -55.516934
-34.446484 -0.968823 -56.091545
-33.679589 -1.785939 -55.412976
-37.292738 -3.742392 -55.41626
-36.859362 -2.302847 -56.114769
-36.045849 -2.971319 -55.496994
-37.728473 -5.238054 -54.606781
-37.292738 -3.742392 -55.41626
-38.157852 -6.705426 -53.74422
-37.728473 -5.238054 -54.606781
-36.908603 -5.878236 -53.935924
-38.561563 -8.232212 -52.781971
-38.157852 -6.705426 -53.74422
-37.73723 -8.852235 -52.094368
-38.960811 -9.738839 -51.802975
-38.561563 -8.232212 -52.781971
-48.303749 -80.252094 -22.316692
-47.365257 -82.217365 -22.196666
-48.229675 -81.707214 -21.631901
-48.399262 -78.768448 -23.089185
-48.303749 -80.252094 -22.316692
-48.484999 -77.214275 -23.807747
-47.525069 -79.208072 -23.600019
-48.399262 -78.768448 -23.089185
-48.979641 -61.960043 -30.992664
-48.979416 -63.709095 -30.168045
-48.945674 -60.192299 -31.731573
-47.982017 -62.199938 -31.130949
-48.979641 -61.960043 -30.992664
-48.908622 -58.439028 -32.526996
-48.945674 -60.192299 -31.731573
-48.838421 -56.672741 -33.235504
-47.877849 -58.665907 -32.578366
-48.908622 -58.439028 -32.526996
-48.76462 -54.9176 -33.990727
-48.838421 -56.672741 -33.235504
-47.70536 -55.133815 -33.956674
-48.76462 -54.9176 -33.990727
-45.755669 -31.615049 -41.482776
-45.137652 -33.609975 -40.594991
-45.234327 -29.865422 -42.005177
-45.755669 -31.615049 -41.482776
-44.75917 -28.161441 -42.491831
-44.280409 -30.127564 -41.564856
-45.234327 -29.865422 -42.005177
-44.128842 -26.508865 -43.016739
-44.75917 -28.161441 -42.491831
-43.223709 -26.841104 -42.542866
-44.128842 -26.508865 -43.016739
-25.291981 -71.16745 -19.857048
-24.735726 -70.463448 -19.437297
-26.338023 -69.63861 -20.601169
-25.291981 -71.16745 -19.857048
-25.795166 -71.790481 -20.331086
-30.914534 -2.126049 -54.162312
-30.581428 -0.812433 -54.6049
-30.260244 -3.200785 -53.332275
-31.215469 -3.41071 -53.682125
-30.914534 -2.126049 -54.162312
-27.936696 -78.440312 -22.502737
-27.187023 -78.089153 -21.946155
-26.852063 -80.181374 -21.72072
-28.681444 -78.667839 -23.097891
-29.536272 -78.853927 -23.682615
-29.016404 -76.575618 -23.323326
-27.936696 -78.440312 -22.502737
-28.681444 -78.667839 -23.097891
-32.295155 -80.772186 -25.167427
-31.09329 -82.891766 -24.422646
-32.149644 -82.735905 -24.970714
-39.978592 -83.589859 -26.394073
-38.872 -84.138542 -26.391556
-29.207935 -1.900618 -53.278847
-29.720332 -0.676581 -54.118358
-29.404496 -3.115395 -52.936813
-29.207935 -1.900618 -53.278847
-29.705431 -4.400057 -52.456627
-30.260244 -3.200785 -53.332275
-29.404496 -3.115395 -52.936813
-29.96657 -5.660906 -51.964054
-29.705431 -4.400057 -52.456627
-30.31679 -6.986019 -51.337502
-30.9114 -5.81056 -52.225537
-29.96657 -5.660906 -51.964054
-30.635737 -8.289198 -50.721691
-30.31679 -6.986019 -51.337502
-31.021902 -9.65382 -49.980896
-31.647786 -8.500294 -50.858188
-30.635737 -8.289198 -50.721691
-31.389413 -10.997086 -49.270491
-31.021902 -9.65382 -49.980896
-31.795493 -12.400756 -48.450527
-32.440031 -11.268586 -49.29743
-31.389413 -10.997086 -49.270491
-32.197898 -13.780701 -47.675303
-31.795493 -12.400756 -48.450527
-31.14728 -13.509203 -47.648363
-30.974137 -16.079389 -46.04796
-30.57455 -14.723935 -46.781286
-31.967898 -16.297891 -46.064664
-30.974137 -16.079389 -46.04796
-31.392351 -17.488132 -45.239486
-32.677853 -21.688423 -42.900793
-32.235315 -20.291677 -43.667259
-31.706289 -21.43139 -42.926748
-38.083807 0.490291 -57.5988
-36.819069 1.344793 -57.646309
-38.083807 0.490291 -57.5988
-38.51751 -1.03303 -57.108413
-39.303713 -11.31232 -50.743504
-38.960811 -9.738839 -51.802975
-39.645961 -12.86897 -49.702629
-39.303713 -11.31232 -50.743504
-38.478727 -11.915513 -50.074497
-39.899618 -14.501385 -48.606644
-39.645961 -12.86897 -49.702629
-40.157167 -16.112903 -47.559058
-39.899618 -14.501385 -48.606644
-39.078525 -15.08368 -47.986036
-40.294632 -17.808686 -46.483656
-40.157167 -16.112903 -47.559058
-40.440413 -19.470726 -45.477175
-40.294632 -17.808686 -46.483656
-39.481856 -18.357239 -45.931969
-40.438965 -21.225061 -44.466051
-40.440413 -19.470726 -45.477175
-39.638059 -21.719137 -43.991736
-40.449388 -22.924919 -43.532299
-40.438965 -21.225061 -44.466051
-41.014597 -83.045716 -26.294935
-42.043805 -82.46402 -26.107397
-41.067572 -81.294311 -26.700235
-39.978592 -83.589859 -26.394073
-41.014597 -83.045716 -26.294935
-49.457443 -75.199234 -24.103967
-50.452923 -73.294025 -24.450424
-48.58325 -75.638858 -24.614801
-48.484999 -77.214275 -23.807747
-49.457443 -75.199234 -24.103967
-51.640829 -68.128056 -26.674174
-52.576554 -67.949661 -26.31831
-50.797854 -66.695835 -27.921658
-50.855835 -64.994873 -28.832971
-50.730097 -68.398441 -27.078076
-50.797854 -66.695835 -27.921658
-49.802124 -68.622024 -27.418415
-50.6451 -70.054245 -26.170931
-51.640829 -68.128056 -26.674174
-50.730097 -68.398441 -27.078076
-46.076102 -48.296286 -36.286651
-46.238179 -50.082068 -35.706136
-44.977367 -48.535357 -36.053921
-46.076102 -48.296286 -36.286651
-45.916796 -46.491749 -36.806183
-44.132345 -33.837819 -40.236361
-44.514431 -35.616249 -39.753151
-45.137652 -33.609975 -40.594991
-25.55285 -58.370611 -20.823505
-25.287267 -60.457013 -20.293959
-26.398881 -57.052904 -21.643946
-25.55285 -58.370611 -20.823505
-26.840065 -59.795683 -21.389427
-25.930011 -61.220951 -20.572359
-26.533898 -61.905459 -20.904245
-27.215782 -55.651711 -22.516829
-26.398881 -57.052904 -21.643946
-27.053079 -57.709982 -21.930424
-27.939625 -54.283071 -23.436628
-27.215782 -55.651711 -22.516829
-28.633201 -52.825283 -24.407373
-27.939625 -54.283071 -23.436628
-28.563557 -54.851 -23.774052
-29.246631 -51.405302 -25.409453
-28.633201 -52.825283 -24.407373
-25.879138 -77.212727 -20.862912
-26.544633 -77.707111 -21.378466
-26.413545 -75.070713 -21.06647
-25.305807 -76.699433 -20.336588
-25.879138 -77.212727 -20.862912
-29.839206 -49.891661 -26.451712
-29.246631 -51.405302 -25.409453
-29.849708 -51.87957 -25.787056
-30.36489 -48.422647 -27.507824
-29.761814 -47.94838 -27.130221
-29.839206 -49.891661 -26.451712
-30.886604 -46.858223 -28.585934
-30.36489 -48.422647 -27.507824
-30.963996 -48.801505 -27.907425
-31.352635 -45.347105 -29.661892
-30.886604 -46.858223 -28.585934
-31.833951 -43.74231 -30.737386
-31.352635 -45.347105 -29.661892
-31.967025 -45.632284 -30.06103
-32.267336 -42.201626 -31.798359
-31.833951 -43.74231 -30.737386
-32.267336 -42.201626 -31.798359
-32.912548 -42.398201 -32.174233
-33.982331 -40.892311 -33.615834
-33.472617 -42.612621 -32.618214
-34.078192 -42.736019 -33.022106
-33.833964 -39.136757 -34.184833
-33.982331 -40.892311 -33.615834
-34.439539 -39.260155 -34.588726
-33.609234 -37.388948 -34.823904
-33.833964 -39.136757 -34.184833
-34.024647 -35.854662 -35.768266
-33.342709 -35.73901 -35.434444
-33.609234 -37.388948 -34.823904
-34.871785 -32.772043 -37.515179
-34.161774 -32.728512 -37.233944
-34.468132 -34.248255 -36.660042
-35.27574 -31.228894 -38.319885
-34.871785 -32.772043 -37.515179
-35.582098 -32.748637 -37.745984
-35.644121 -29.880851 -39.064732
-35.27574 -31.228894 -38.319885
-35.95862 -28.44175 -39.785951
-35.644121 -29.880851 -39.064732
-36.300552 -29.766386 -39.27191
-36.23675 -27.391754 -40.355347
-35.580319 -27.506219 -40.148168
-35.95862 -28.44175 -39.785951
-34.226616 -27.213909 -40.030345
-33.820208 -25.822592 -40.710243
-34.966707 -27.291488 -40.155673
-34.226616 -27.213909 -40.030345
-35.580319 -27.506219 -40.148168
-35.244837 -26.241492 -40.725069
-34.966707 -27.291488 -40.155673
3 1 207 209
3 207 50 208
3 207 208 209
3 1 52 50
3 2 210 212
3 210 54 211
3 210 211 212
3 2 56 54
3 3 59 57
3 3 61 59
3 213 62 214
3 5 65 63
3 5 67 65
3 6 71 69
3 6 73 71
3 7 215 217
3 217 216 74
3 215 216 217
3 7 218 220
3 218 75 219
3 218 219 220
3 8 221 223
3 221 77 222
3 221 222 223
3 8 79 77
3 8 81 79
3 224 83 225
3 226 85 227
3 228 227 83
3 226 227 228
3 229 86 230
3 231 88 232
3 233 232 86
3 231 232 233
3 234 90 235
3 236 235 88
3 234 235 236
3 237 92 238
3 239 94 240
3 241 240 92
3 239 240 241
3 10 96 95
3 10 98 96
3 4 101 99
3 11 104 102
3 11 106 104
3 11 108 106
3 9 111 109
3 9 113 111
3 242 114 243
3 244 116 245
3 13 117 51
3 13 118 117
3 246 120 247
3 14 121 53
3 14 122 121
3 14 124 122
3 16 125 55
3 16 126 125
3 19 248 249
3 19 250 252
3 250 129 251
3 250 251 252
3 20 132 130
3 22 133 58
3 22 134 133
3 22 136 134
3 24 137 60
3 24 138 137
3 253 139 254
3 26 255 257
3 255 140 256
3 255 256 257
3 26 141 140
3 12 142 115
3 27 143 64
3 27 144 143
3 27 145 144
3 28 146 66
3 28 147 146
3 258 148 259
3 260 149 261
3 262 150 263
3 264 263 149
3 262 263 264
3 265 151 266
3 267 266 68
3 265 266 267
3 268 153 269
3 270 269 151
3 268 269 270
3 272 271 119
3 15 154 123
3 30 155 70
3 30 156 155
3 30 157 156
3 29 158 72
3 29 152 158
3 32 273 274
3 32 275 277
3 275 160 276
3 275 276 277
3 33 278 279
3 33 280 282
3 280 161 281
3 280 281 282
3 34 162 76
3 34 163 162
3 34 164 163
3 35 165 78
3 35 166 165
3 35 167 166
3 36 168 80
3 36 169 168
3 17 170 127
3 37 171 82
3 37 172 171
3 37 173 172
3 38 174 84
3 38 175 174
3 39 283 284
3 39 285 286
3 39 287 289
3 287 176 288
3 287 288 289
3 40 177 87
3 40 178 177
3 40 179 178
3 41 180 89
3 41 181 180
3 18 182 128
3 42 183 91
3 42 184 183
3 42 185 184
3 31 186 93
3 31 159 186
3 290 188 291
3 44 189 97
3 44 190 189
3 25 292 294
3 292 191 293
3 292 293 294
3 45 192 100
3 45 193 192
3 21 194 131
3 46 195 103
3 46 196 195
3 46 197 196
3 47 198 105
3 47 199 198
3 47 200 199
3 48 201 107
3 48 295 297
3 297 296 201
3 295 296 297
3 23 202 135
3 49 203 110
3 49 204 203
3 49 205 204
3 43 206 112
3 43 187 206
3 50 298 299
3 50 300 301
3 50 302 304
3 302 51 303
3 302 303 304
3 52 51 50
3 52 13 51
3 305 53 306
3 54 307 309
3 307 53 308
3 307 308 309
3 54 14 53
3 54 55 14
3 56 55 54
3 56 16 55
3 310 19 311
3 57 58 20
3 59 58 57
3 59 22 58
3 59 60 22
3 61 60 59
3 61 24 60
3 62 312 313
3 62 314 316
3 314 26 315
3 314 315 316
3 63 64 12
3 65 64 63
3 65 27 64
3 65 66 27
3 67 66 65
3 67 28 66
3 317 68 318
3 319 68 320
3 322 321 68
3 69 70 15
3 71 70 69
3 71 30 70
3 71 72 30
3 73 72 71
3 73 29 72
3 74 323 325
3 323 324 325
3 327 326 74
3 75 328 329
3 75 330 332
3 330 32 331
3 330 331 332
3 333 33 334
3 335 76 336
3 77 337 339
3 337 76 338
3 337 338 339
3 77 34 76
3 77 78 34
3 79 78 77
3 79 35 78
3 79 80 35
3 81 80 79
3 81 36 80
3 340 82 341
3 342 341 17
3 340 341 342
3 83 343 345
3 343 82 344
3 343 344 345
3 83 37 82
3 83 84 37
3 85 84 83
3 85 38 84
3 86 346 347
3 86 348 350
3 348 39 349
3 348 349 350
3 86 87 39
3 88 87 86
3 88 40 87
3 88 89 40
3 90 89 88
3 90 41 89
3 351 91 352
3 353 352 18
3 351 352 353
3 92 354 356
3 354 91 355
3 354 355 356
3 92 42 91
3 92 93 42
3 94 93 92
3 94 31 93
3 95 357 358
3 96 359 361
3 361 360 95
3 359 360 361
3 96 362 363
3 96 364 366
3 364 97 365
3 364 365 366
3 98 97 96
3 98 44 97
3 99 100 25
3 101 100 99
3 101 45 100
3 102 103 21
3 104 103 102
3 104 46 103
3 104 105 46
3 106 105 104
3 106 47 105
3 106 107 47
3 108 107 106
3 108 48 107
3 109 110 23
3 111 110 109
3 111 49 110
3 111 112 49
3 113 112 111
3 113 43 112
3 114 367 368
3 114 369 370
3 371 115 372
3 116 373 375
3 373 115 374
3 373 374 375
3 116 12 115
3 51 376 378
3 376 116 377
3 376 377 378
3 117 116 51
3 117 12 116
3 117 63 12
3 118 63 117
3 118 5 63
3 379 119 380
3 120 381 383
3 381 119 382
3 381 382 383
3 120 384 386
3 386 385 119
3 384 385 386
3 53 387 389
3 387 120 388
3 387 388 389
3 121 120 53
3 121 390 392
3 392 391 120
3 390 391 392
3 121 393 394
3 122 395 397
3 397 396 121
3 395 396 397
3 122 398 399
3 122 400 402
3 400 123 401
3 400 401 402
3 124 123 122
3 124 15 123
3 55 124 14
3 125 124 55
3 125 15 124
3 125 69 15
3 126 69 125
3 126 6 69
3 403 74 404
3 403 404 405
3 406 74 407
3 408 7 409
3 410 409 74
3 408 409 410
3 411 8 412
3 413 127 414
3 415 414 8
3 413 414 415
3 416 127 417
3 418 17 419
3 420 419 127
3 418 419 420
3 421 17 422
3 424 423 17
3 425 128 426
3 427 128 428
3 429 18 430
3 431 430 128
3 429 430 431
3 432 18 433
3 435 434 18
3 436 95 437
3 129 438 440
3 438 95 439
3 438 439 440
3 129 10 95
3 130 131 4
3 132 131 130
3 132 21 131
3 58 132 20
3 133 132 58
3 133 21 132
3 133 102 21
3 134 102 133
3 134 11 102
3 134 135 11
3 136 135 134
3 136 23 135
3 60 136 22
3 137 136 60
3 137 23 136
3 137 109 23
3 138 109 137
3 138 9 109
3 139 441 442
3 139 443 445
3 443 2 444
3 443 444 445
3 446 25 447
3 446 447 448
3 140 449 450
3 140 451 453
3 451 25 452
3 451 452 453
3 140 99 25
3 141 99 140
3 141 4 99
3 115 454 456
3 454 62 455
3 454 455 456
3 142 62 115
3 142 26 62
3 64 142 12
3 143 142 64
3 143 26 142
3 143 141 26
3 144 141 143
3 144 4 141
3 144 130 4
3 145 130 144
3 145 20 130
3 66 145 27
3 146 145 66
3 146 20 145
3 146 57 20
3 147 57 146
3 147 3 57
3 457 1 458
3 459 139 460
3 461 139 462
3 463 2 464
3 465 464 139
3 463 464 465
3 466 2 467
3 468 56 469
3 470 469 2
3 468 469 470
3 471 56 472
3 473 16 474
3 475 474 56
3 473 474 475
3 476 16 477
3 478 126 479
3 480 479 16
3 478 479 480
3 148 481 483
3 481 126 482
3 481 482 483
3 148 6 126
3 484 148 485
3 149 486 488
3 486 148 487
3 486 487 488
3 149 6 148
3 149 73 6
3 150 73 149
3 150 29 73
3 68 489 491
3 489 150 490
3 489 490 491
3 151 150 68
3 151 29 150
3 151 152 29
3 153 152 151
3 153 0 152
3 119 492 493
3 495 494 119
3 123 496 497
3 154 498 500
3 500 499 123
3 498 499 500
3 154 501 502
3 70 154 15
3 155 154 70
3 155 503 505
3 505 504 154
3 503 504 505
3 155 506 507
3 156 508 510
3 510 509 155
3 508 509 510
3 156 511 512
3 156 513 515
3 513 94 514
3 513 514 515
3 157 94 156
3 157 31 94
3 72 157 30
3 158 157 72
3 158 31 157
3 158 159 31
3 152 159 158
3 152 0 159
3 160 516 517
3 160 518 520
3 518 1 519
3 518 519 520
3 161 521 522
3 161 523 525
3 523 7 524
3 523 524 525
3 526 33 527
3 76 528 529
3 162 530 532
3 532 531 76
3 530 531 532
3 162 533 535
3 533 33 534
3 533 534 535
3 162 161 33
3 163 161 162
3 163 7 161
3 163 75 7
3 164 75 163
3 164 32 75
3 78 164 34
3 165 164 78
3 165 32 164
3 165 160 32
3 166 160 165
3 166 1 160
3 166 52 1
3 167 52 166
3 167 13 52
3 80 167 35
3 168 167 80
3 168 13 167
3 168 118 13
3 169 118 168
3 169 5 118
3 127 81 8
3 170 81 127
3 170 36 81
3 82 170 17
3 171 170 82
3 171 36 170
3 171 169 36
3 172 169 171
3 172 5 169
3 172 67 5
3 173 67 172
3 173 28 67
3 84 173 37
3 174 173 84
3 174 28 173
3 174 147 28
3 175 147 174
3 175 3 147
3 536 85 537
3 176 538 540
3 538 85 539
3 538 539 540
3 176 38 85
3 87 176 39
3 177 176 87
3 177 38 176
3 177 175 38
3 178 175 177
3 178 3 175
3 178 61 3
3 179 61 178
3 179 24 61
3 89 179 40
3 180 179 89
3 180 24 179
3 180 138 24
3 181 138 180
3 181 9 138
3 128 541 543
3 541 90 542
3 541 542 543
3 182 90 128
3 182 41 90
3 91 182 18
3 183 182 91
3 183 41 182
3 183 181 41
3 184 181 183
3 184 9 181
3 184 113 9
3 185 113 184
3 185 43 113
3 93 185 42
3 186 185 93
3 186 43 185
3 186 187 43
3 159 187 186
3 159 0 187
3 188 544 545
3 188 546 547
3 97 548 550
3 548 188 549
3 548 549 550
3 189 188 97
3 189 551 553
3 553 552 188
3 551 552 553
3 189 554 555
3 190 556 558
3 558 557 189
3 556 557 558
3 190 559 560
3 191 561 562
3 191 563 565
3 563 19 564
3 563 564 565
3 100 191 25
3 192 191 100
3 192 19 191
3 192 129 19
3 193 129 192
3 193 10 129
3 131 101 4
3 194 101 131
3 194 45 101
3 103 194 21
3 195 194 103
3 195 45 194
3 195 193 45
3 196 193 195
3 196 10 193
3 196 98 10
3 197 98 196
3 197 44 98
3 105 197 46
3 198 197 105
3 198 44 197
3 198 190 44
3 199 190 198
3 199 566 568
3 568 567 190
3 566 567 568
3 199 569 571
3 569 570 571
3 200 572 574
3 574 573 199
3 572 573 574
3 200 575 576
3 107 200 47
3 201 200 107
3 201 577 579
3 579 578 200
3 577 578 579
3 201 580 581
3 583 582 201
3 135 108 11
3 202 108 135
3 202 48 108
3 110 202 23
3 203 202 110
3 203 48 202
3 203 584 586
3 586 585 48
3 584 585 586
3 204 587 589
3 589 588 203
3 587 588 589
3 204 590 591
3 204 592 594
3 592 114 593
3 592 593 594
3 205 114 204
3 205 595 597
3 597 596 114
3 595 596 597
3 112 205 49
3 206 205 112
3 206 598 600
3 600 599 205
3 598 599 600
3 206 601 602
3 187 603 605
3 605 604 206
3 603 604 605
3 187 606 608
3 606 0 607
3 606 607 608
3 609 153 610
3 611 153 612
3 613 0 614
3 615 614 153
3 613 614 615
