ply
format ascii 1.0
element vertex 509
property float x
property float y
property float z
element face 542
property list uchar int vertex_index
end_header
-1.269779 -119.455109 -3.612608
-5.426655 -97.988327 5.072063
-12.717447 -80.313629 1.102376
-0.605923 -109.002121 2.118323
-1.732515 -102.337601 -2.612814
-1.128853 -112.538086 -8.877348
-7.077288 -126.060013 -9.699503
-6.135807 -119.773987 -15.378782
-8.081692 -89.805389 12.202354
-1.904495 -100.291794 11.831027
-7.868162 -91.44458 -0.020724
-0.236984 -114.483932 -0.537788
-0.551962 -111.64299 -3.441158
-1.244701 -116.521637 -6.759668
-8.859602 -92.719269 5.470083
-10.330582 -90.133606 2.756076
-6.844727 -95.51944 2.372836
-1.078228 -102.291931 -6.776031
-2.35202 -96.928329 -4.255203
-11.360451 -80.205429 -1.616863
-2.420549 -103.420944 4.031309
-3.521292 -100.905518 1.392601
-1.306992 -106.329819 -0.575954
-0.666899 -107.635834 -5.447685
-3.582781 -123.457214 -6.78026
-3.272011 -120.57991 -10.092014
-6.531103 -123.449493 -13.157867
-12.390921 -82.558456 5.977412
-9.853828 -88.981537 8.70483
-7.0007 -94.016159 8.554932
-5.11812 -94.828644 12.084479
-3.661013 -99.310059 8.175034
-0.960796 -104.955597 7.24403
0.422436 -110.832535 5.57383
0.303291 -116.557159 3.211085
-12.614647 -84.733017 3.132225
-11.184721 -85.894073 0.401966
-8.634447 -85.854462 -2.186581
-4.306929 -96.910889 -0.830265
-5.13043 -91.427078 -2.828154
-6.265274 -84.812012 -4.788145
-2.989174 -116.697052 -12.303804
-0.585835 -117.061951 -2.044121
-0.689041 -115.727112 -3.679098
-1.282682 -118.100571 -5.307966
-7.158703 -95.339478 5.324802
-7.961416 -94.278381 3.921852
-6.189056 -96.938705 3.679315
-11.931114 -77.382721 -1.153193
-12.198822 -80.377754 -0.278955
-1.338346 -106.203156 3.183363
-1.843071 -105.062485 1.783187
-1.007866 -107.807266 0.678581
-0.713734 -112.315979 -6.221481
-0.609732 -109.804459 -4.549461
-0.714663 -110.157593 -7.128193
-0.801683 -107.668808 -7.825901
-1.179642 -110.076691 -9.566843
-5.188053 -124.957626 -8.296122
-4.964037 -123.694489 -10.119957
-6.785734 -124.890411 -11.575005
-9.901754 -87.007721 10.45429
-8.954758 -89.418671 10.396812
-8.565636 -91.474319 8.640226
-7.62048 -91.887527 10.335251
-3.463892 -97.498474 11.991541
-4.361309 -97.057144 10.132036
-2.749542 -99.79277 9.923992
-2.175667 -102.089615 7.795613
-1.333956 -102.638763 9.592399
0.548342 -113.745361 4.468337
-2.474993 -123.685379 -1.119631
-12.713305 -83.749237 4.548402
-12.174841 -86.332794 4.334029
-9.213541 -90.964828 1.359988
-10.842375 -88.219604 1.534545
-9.655745 -88.681824 0.193423
-9.982601 -86.019516 -0.903833
-8.274466 -88.815475 -1.126863
-2.559055 -101.813522 -0.573772
-3.934311 -99.105591 0.240418
-2.847492 -99.629929 -1.58005
-3.5819 -94.187027 -3.409451
-4.124714 -91.012726 -4.300085
-5.653818 -88.232971 -3.803995
-4.810621 -87.606384 -5.210869
-4.555338 -120.421799 -12.932932
-3.109119 -118.776291 -11.341089
-4.407759 -118.39003 -13.894581
-12.860209 -80.033974 2.51501
-0.239525 -111.77887 0.86441
-0.538713 -110.529388 -0.633341
-0.435999 -113.185867 -2.104019
-0.724104 -114.160461 -5.074957
-1.175169 -114.679321 -7.949247
-9.232843 -126.726273 -10.931122
-0.571436 -103.205811 11.560463
-10.367071 -90.116104 5.567616
-11.119108 -88.971329 4.186588
-9.661772 -91.624374 4.068057
-7.398623 -93.689133 1.142519
-1.189215 -102.491318 -4.694796
-1.984293 -99.798798 -3.462332
-1.509821 -99.638077 -5.385612
-10.319681 -79.80262 -2.916212
-3.809177 -100.679977 4.654828
-4.501581 -99.618408 3.272632
-3.024137 -102.327057 2.649308
-2.241402 -103.617004 0.538025
-1.529974 -104.515625 -1.663414
-0.742992 -109.017731 -1.920115
-0.878555 -107.19046 -3.006411
-1.002825 -105.016235 -3.918051
-0.798262 -105.126648 -6.172895
-2.2731 -121.60553 -5.204353
-2.201578 -120.253433 -6.948195
-3.432396 -122.134232 -8.563925
-4.753262 -122.184174 -11.672903
-6.305151 -121.745987 -14.42646
-8.345036 -122.716476 -15.798964
-8.159767 -120.817596 -16.747311
-10.734884 -86.533737 8.768047
-10.730612 -88.38707 7.126633
-9.498491 -90.920212 7.052423
-7.958229 -93.484329 6.96358
-6.263706 -96.087296 6.817883
-6.711386 -92.270523 12.146683
-6.036572 -94.427414 10.256434
-5.314222 -96.622238 8.414206
-4.571875 -98.744995 6.564648
-3.021265 -101.470734 6.156017
-1.719007 -104.265915 5.557412
-0.736603 -107.115189 4.753863
-0.214014 -105.581635 9.103277
-0.112581 -109.985733 3.750759
0.140657 -112.830383 2.569769
0.028418 -115.592178 1.242489
-0.43442 -118.208755 -0.195128
-0.295006 -119.198029 1.833734
-1.230061 -120.615967 -1.705338
-2.342216 -122.750214 -3.247705
-3.757647 -124.550629 -4.776293
-5.464514 -125.961273 -6.237581
-7.447817 -126.934143 -7.571594
-12.687611 -81.291512 4.853419
-12.940348 -82.099777 3.459045
-12.800976 -82.717468 2.058775
-11.706718 -87.426529 2.912445
-12.092916 -85.461151 1.746517
-12.257557 -83.094368 0.685246
-11.355379 -83.201004 -0.646494
-10.201727 -83.036636 -1.938755
-8.956104 -82.625443 -3.208572
-5.088667 -98.207062 1.991533
-5.585934 -96.399139 0.795162
-6.025534 -94.184525 -0.332607
-3.169241 -97.07605 -2.513638
-4.690624 -94.337738 -1.84457
-6.444536 -91.586182 -1.408676
-6.873495 -88.650742 -2.450186
-7.328424 -85.436951 -3.471916
-7.808277 -82.005859 -4.482141
-6.947771 -81.217026 -5.785442
-2.098553 -118.677383 -8.444555
-1.978302 -116.847885 -9.670572
-1.892004 -114.732574 -10.620806
-1.911598 -112.307358 -11.311098
-12.546226 -78.948113 0.676013
-12.598043 -78.954041 1.396168
-12.458134 -80.345692 0.41171
-12.286913 -78.980175 -0.014653
-12.546226 -78.948113 0.676013
-8.518225 -89.61203 11.299583
-9.019479 -88.417122 11.328005
-8.582946 -88.610481 12.230776
-2.684194 -98.895134 11.911284
-3.072496 -97.763787 13.000543
-2.292797 -99.160447 12.920286
-11.850471 -86.932594 5.000599
-12.19654 -85.663506 5.067075
-3.86428 -90.696427 -5.066846
-3.504699 -92.392273 -4.666958
-4.207234 -88.993256 -5.522238
-4.467668 -89.309555 -4.755477
-3.86428 -90.696427 -5.066846
-4.655579 -87.203201 -5.944417
-4.207234 -88.993256 -5.522238
-12.74895 -79.811284 3.221657
-12.549953 -78.745728 2.831367
-11.429619 -126.490715 -12.951079
-10.233115 -126.388535 -12.45099
-10.429347 -126.828453 -11.431211
-7.746994 -94.17559 2.487195
-8.305338 -93.555061 3.261703
-7.403071 -94.89891 3.147344
-7.121675 -94.604287 1.757678
-8.023942 -93.260437 1.872037
-7.746994 -94.17559 2.487195
-11.287011 -78.593689 -2.064443
-11.572342 -77.182335 -1.832608
-11.645782 -78.794075 -1.385028
-10.840066 -80.004024 -2.266538
-10.766625 -78.392285 -2.714118
-11.287011 -78.593689 -2.064443
-0.925618 -106.262825 -8.09469
-1.101675 -107.481735 -8.943655
-9.403465 -122.107048 -16.890857
-9.500823 -123.01271 -16.407231
-10.559252 -122.403282 -17.499125
-9.31083 -121.157608 -17.36503
-8.252402 -121.767036 -16.273138
-9.403465 -122.107048 -16.890857
-9.263235 -120.112495 -17.675857
-9.31083 -121.157608 -17.36503
-5.499255 -93.773308 13.085272
-4.706721 -95.069519 13.069915
-5.914753 -93.549583 12.115581
-6.295888 -92.494248 13.116373
-5.499255 -93.773308 13.085272
0.112292 -105.899781 10.121516
-0.392725 -104.393723 10.33187
-0.06642 -104.711869 11.350109
0.169531 -109.358216 6.038704
0.484841 -109.710174 7.003998
0.154927 -110.409134 4.662294
-0.097977 -108.934814 5.127169
0.169531 -109.358216 6.038704
-0.760968 -120.397583 1.10427
-0.274863 -119.61924 2.91878
-1.228495 -121.106552 -0.665266
-0.762533 -119.906998 0.064198
-0.760968 -120.397583 1.10427
-1.784572 -122.173676 -1.436449
-1.786139 -121.68309 -2.476522
-1.228495 -121.106552 -0.665266
-3.891002 -124.974312 -3.685891
-3.11632 -124.118004 -2.947962
-3.249675 -124.541687 -1.85756
-4.744435 -125.679634 -4.416535
-4.61108 -125.255951 -5.506937
-3.891002 -124.974312 -3.685891
-7.703696 -127.206093 -6.409622
-6.653761 -126.80587 -5.781917
-8.565684 -127.183533 -8.144407
-7.703696 -127.206093 -6.409622
-12.539266 -81.924984 5.415415
-12.386097 -80.810685 5.522603
-12.237752 -81.444157 6.084599
-2.532993 -111.967346 -12.374948
-2.44606 -113.312736 -12.151667
-2.010848 -110.93621 -11.544942
-2.532993 -111.967346 -12.374948
-1.321828 -100.729469 -7.044979
-1.297872 -102.021156 -7.788092
-12.153059 -77.482658 -0.451772
-11.868194 -75.992447 -0.830497
-12.064968 -78.880237 -0.716074
-12.153059 -77.482658 -0.451772
-12.286913 -78.980175 -0.014653
-1.290655 -108.685676 -9.814126
-1.101675 -107.481735 -8.943655
-0.990663 -108.872749 -8.696372
-9.492977 -87.211647 11.356744
-9.758629 -86.048614 11.381732
-9.428256 -88.213196 10.425551
-9.492977 -87.211647 11.356744
-9.019479 -88.417122 11.328005
-3.879607 -96.404434 13.023446
-3.072496 -97.763787 13.000543
-4.291006 -96.163559 12.03801
-4.706721 -95.069519 13.069915
-3.879607 -96.404434 13.023446
0.671254 -111.219109 6.575318
0.484841 -109.710174 7.003998
0.734208 -112.675522 6.022571
0.485389 -112.288948 5.021083
0.671254 -111.219109 6.575318
0.724515 -114.157692 5.50287
0.734208 -112.675522 6.022571
0.601989 -115.563591 4.874244
0.425816 -115.15126 3.839711
0.724515 -114.157692 5.50287
-1.911348 -123.039017 0.73294
-1.850961 -122.641258 -0.372412
-2.615957 -124.038025 0.007485
-1.911348 -123.039017 0.73294
-2.052313 -123.391662 1.860056
-3.249675 -124.541687 -1.85756
-2.615957 -124.038025 0.007485
-12.465772 -84.371727 5.174261
-12.552113 -83.153847 5.262907
-12.30458 -83.776337 5.888766
-12.444073 -85.041016 4.441216
-12.465772 -84.371727 5.174261
-12.19654 -85.663506 5.067075
-3.233292 -93.979423 -4.221641
-2.96696 -95.557678 -3.832327
-2.618352 -95.350075 -4.644517
-3.853307 -92.599876 -3.854768
-3.233292 -93.979423 -4.221641
-3.504699 -92.392273 -4.666958
-5.217919 -85.811607 -5.683179
-5.945246 -84.414421 -5.471817
-5.537947 -86.209198 -4.999507
-5.217919 -85.811607 -5.683179
-4.655579 -87.203201 -5.944417
-12.669424 -78.814213 2.102485
-12.549953 -78.745728 2.831367
-12.788828 -80.173801 1.808693
-12.598043 -78.954041 1.396168
-12.669424 -78.814213 2.102485
-9.058003 -126.205635 -11.904621
-7.980225 -125.872505 -11.288811
-8.155066 -126.393143 -10.315313
-9.058003 -126.205635 -11.904621
-10.233115 -126.388535 -12.45099
-8.19902 -88.826721 13.189419
-8.582946 -88.610481 12.230776
-1.54932 -100.58561 12.869938
-2.292797 -99.160447 12.920286
-0.882791 -102.042618 12.734656
-1.237966 -101.748802 11.695745
-1.54932 -100.58561 12.869938
-0.267984 -103.527946 12.632333
-0.882791 -102.042618 12.734656
-0.06642 -104.711869 11.350109
-0.267984 -103.527946 12.632333
-10.743089 -89.543717 4.877102
-11.322604 -88.251861 4.926879
-10.946585 -88.824249 5.617393
-9.155516 -92.228058 3.334805
-8.811594 -92.951378 3.994954
-8.305338 -93.555061 3.261703
-9.489921 -91.482674 2.678815
-9.996177 -90.87899 3.412066
-9.155516 -92.228058 3.334805
-8.931401 -91.898284 1.980771
-9.772061 -90.549217 2.058032
-9.489921 -91.482674 2.678815
-8.306082 -92.32698 1.251254
-8.931401 -91.898284 1.980771
-8.023942 -93.260437 1.872037
-1.537625 -99.402542 -6.349769
-1.294024 -100.965004 -6.080821
-1.321828 -100.729469 -7.044979
-1.76497 -98.067749 -5.713527
-1.537625 -99.402542 -6.349769
-2.18607 -96.712875 -5.148322
-1.930921 -98.283203 -4.820407
-1.76497 -98.067749 -5.713527
-2.618352 -95.350075 -4.644517
-2.18607 -96.712875 -5.148322
-6.106635 -118.646721 -15.705331
-7.108344 -119.207238 -16.37774
-11.707142 -75.78537 -1.546235
-11.868194 -75.992447 -0.830497
-11.34837 -75.584984 -2.225651
-11.707142 -75.78537 -1.546235
-11.572342 -77.182335 -1.832608
-10.331696 -78.095936 -3.375313
-10.766625 -78.392285 -2.714118
-9.779169 -79.498722 -3.555699
-10.331696 -78.095936 -3.375313
-0.923907 -104.991745 -7.268187
-0.799972 -106.397728 -6.999398
-0.925618 -106.262825 -8.09469
-1.06389 -103.574387 -7.569755
-0.938245 -103.70929 -6.474463
-0.923907 -104.991745 -7.268187
-1.297872 -102.021156 -7.788092
-1.06389 -103.574387 -7.569755
-7.834448 -125.287704 -12.226562
-6.931511 -125.475212 -10.637254
-7.980225 -125.872505 -11.288811
-7.688941 -124.615875 -13.042075
-7.834448 -125.287704 -12.226562
-7.561625 -123.895416 -13.833506
-6.658418 -124.169952 -12.366436
-7.688941 -124.615875 -13.042075
-8.468592 -123.528908 -15.154055
-9.624379 -123.825142 -15.762322
-9.500823 -123.01271 -16.407231
-7.43807 -123.082985 -14.478416
-7.561625 -123.895416 -13.833506
-8.468592 -123.528908 -15.154055
-8.120324 -119.729042 -17.062005
-7.108344 -119.207238 -16.37774
-7.147787 -120.295792 -16.063046
-9.223792 -119.023941 -17.990551
-8.120324 -119.729042 -17.062005
-9.263235 -120.112495 -17.675857
-12.021002 -81.869671 6.694752
-12.237752 -81.444157 6.084599
-12.112015 -83.016251 6.644763
-12.021002 -81.869671 6.694752
-12.30458 -83.776337 5.888766
-12.112015 -83.016251 6.644763
-10.135445 -85.829834 10.479477
-9.758629 -86.048614 11.381732
-10.55201 -85.592842 9.636355
-10.135445 -85.829834 10.479477
-10.318319 -86.770729 9.611168
-10.931895 -85.338074 8.799586
-10.749022 -84.397178 9.667894
-10.55201 -85.592842 9.636355
-11.132867 -86.214058 7.9898
-10.931895 -85.338074 8.799586
-11.130731 -87.140725 7.169093
-11.132867 -86.214058 7.9898
-10.732748 -87.460403 7.94734
-11.128356 -87.959732 6.396902
-11.130731 -87.140725 7.169093
-10.548841 -89.251587 6.347124
-10.946585 -88.824249 5.617393
-11.128356 -87.959732 6.396902
-7.676395 -90.020966 13.163716
-8.19902 -88.826721 13.189419
-6.991242 -91.253533 13.13588
-6.295888 -92.494248 13.116373
-7.396539 -91.037956 12.174518
-7.676395 -90.020966 13.163716
-6.991242 -91.253533 13.13588
0.166615 -107.084724 8.768721
0.112292 -105.899781 10.121516
-0.148694 -106.732765 7.803428
0.166615 -107.084724 8.768721
-0.522085 -106.419747 6.873805
-0.587405 -105.268616 8.173654
-0.148694 -106.732765 7.803428
-0.409988 -107.499542 5.628721
-0.848699 -106.035393 5.998947
-0.522085 -106.419747 6.873805
-0.424592 -108.550461 4.252311
-0.409988 -107.499542 5.628721
-0.097977 -108.934814 5.127169
0.402699 -116.982231 4.273386
0.601989 -115.563591 4.874244
0.103551 -118.302666 3.584711
-0.274863 -119.61924 2.91878
0.004142 -117.877594 2.52241
0.402699 -116.982231 4.273386
0.103551 -118.302666 3.584711
-2.408605 -123.217796 -2.183668
-1.784572 -122.173676 -1.436449
-1.850961 -122.641258 -0.372412
-5.662109 -126.319435 -5.11491
-4.744435 -125.679634 -4.416535
-6.456166 -126.447708 -6.904587
-5.662109 -126.319435 -5.11491
-6.653761 -126.80587 -5.781917
-9.458196 -127.079598 -9.824171
-8.34033 -126.830208 -9.251358
-8.565684 -127.183533 -8.144407
-10.429347 -126.828453 -11.431211
-9.458196 -127.079598 -9.824171
-12.40608 -80.173862 5.067781
-12.386097 -80.810685 5.522603
-12.662651 -80.440053 4.390861
-12.40608 -80.173862 5.067781
-12.78902 -80.844185 3.693675
-12.662651 -80.440053 4.390861
-12.81398 -81.695645 4.156232
-12.900278 -81.066876 2.987027
-12.74895 -79.811284 3.221657
-12.78902 -80.844185 3.693675
-11.646975 -87.652062 4.260309
-11.850471 -86.932594 5.000599
-11.322604 -88.251861 4.926879
-9.09738 -80.910134 -3.701879
-9.779169 -79.498722 -3.555699
-9.637892 -81.214032 -3.062392
-8.523467 -80.600341 -4.338663
-9.09738 -80.910134 -3.701879
-8.382191 -82.315651 -3.845357
-8.053553 -80.210945 -4.980228
-8.523467 -80.600341 -4.338663
-7.623299 -79.816529 -5.631879
-8.053553 -80.210945 -4.980228
-7.378024 -81.611443 -5.133792
-7.309356 -79.356926 -6.285994
-7.623299 -79.816529 -5.631879
-6.286494 -82.616928 -5.970465
-6.606523 -83.014519 -5.286793
-5.945246 -84.414421 -5.471817
-6.740257 -80.751717 -6.459262
-6.286494 -82.616928 -5.970465
-7.309356 -79.356926 -6.285994
-6.740257 -80.751717 -6.459262
-5.242611 -117.954742 -14.963231
-5.271783 -119.082009 -14.636681
-6.106635 -118.646721 -15.705331
-4.39041 -117.229019 -14.232581
-5.242611 -117.954742 -14.963231
-3.681117 -116.38253 -13.437192
-3.698467 -117.543541 -13.099193
-4.39041 -117.229019 -14.232581
-2.984848 -115.507584 -12.64802
-3.681117 -116.38253 -13.437192
-2.436263 -114.525345 -11.806521
-2.440589 -115.714813 -11.462305
-2.984848 -115.507584 -12.64802
-1.901801 -113.519966 -10.965952
-2.436263 -114.525345 -11.806521
-2.44606 -113.312736 -12.151667
-1.64487 -109.820877 -10.672815
-1.54562 -111.192025 -10.43897
-2.010848 -110.93621 -11.544942
-1.290655 -108.685676 -9.814126
-1.64487 -109.820877 -10.672815
3 0 44 42
3 1 47 45
3 2 167 168
3 2 169 171
3 169 49 170
3 169 170 171
3 3 52 50
3 5 55 53
3 5 57 55
3 6 60 58
3 8 172 174
3 172 62 173
3 172 173 174
3 8 64 62
3 9 175 177
3 175 65 176
3 175 176 177
3 9 67 65
3 9 69 67
3 178 73 179
3 10 76 74
3 10 78 76
3 4 81 79
3 180 83 181
3 182 85 183
3 184 183 83
3 182 183 184
3 186 185 85
3 7 88 86
3 187 89 188
3 11 92 90
3 13 93 43
3 13 94 93
3 191 190 95
3 189 190 191
3 14 99 97
3 16 192 194
3 194 193 46
3 192 193 194
3 16 195 197
3 195 100 196
3 195 196 197
3 17 103 101
3 19 198 200
3 200 199 48
3 198 199 200
3 19 201 203
3 201 104 202
3 201 202 203
3 20 107 105
3 22 108 51
3 22 109 108
3 12 110 91
3 23 111 54
3 23 112 111
3 23 113 112
3 205 204 56
3 24 116 114
3 26 117 59
3 26 118 117
3 206 119 207
3 206 207 208
3 209 120 210
3 211 210 119
3 209 210 211
3 213 212 120
3 28 121 61
3 28 122 121
3 28 123 122
3 29 124 63
3 29 125 124
3 30 214 215
3 30 216 218
3 216 126 217
3 216 217 218
3 30 127 126
3 31 128 66
3 31 129 128
3 31 130 129
3 32 131 68
3 32 132 131
3 219 133 220
3 221 220 96
3 219 220 221
3 33 222 223
3 33 224 226
3 224 134 225
3 224 225 226
3 33 135 134
3 34 136 70
3 34 137 136
3 227 138 228
3 229 139 230
3 231 230 138
3 229 230 231
3 232 140 233
3 234 233 139
3 232 233 234
3 235 141 236
3 237 236 71
3 235 236 237
3 238 142 239
3 240 239 141
3 238 239 240
3 241 143 242
3 244 243 143
3 27 245 247
3 245 144 246
3 245 246 247
3 35 145 72
3 35 146 145
3 15 147 98
3 36 148 75
3 36 149 148
3 36 150 149
3 37 151 77
3 37 152 151
3 21 153 106
3 38 154 80
3 38 155 154
3 18 156 102
3 39 157 82
3 39 158 157
3 39 159 158
3 40 160 84
3 40 161 160
3 40 162 161
3 25 163 115
3 41 164 87
3 41 165 164
3 248 166 249
3 251 250 166
3 42 43 11
3 44 43 42
3 44 13 43
3 45 46 14
3 47 46 45
3 47 16 46
3 253 252 17
3 254 48 255
3 49 256 258
3 256 48 257
3 256 257 258
3 49 19 48
3 50 51 20
3 52 51 50
3 52 22 51
3 53 54 12
3 55 54 53
3 55 23 54
3 55 56 23
3 57 56 55
3 57 259 261
3 261 260 56
3 259 260 261
3 58 59 24
3 60 59 58
3 60 26 59
3 262 61 263
3 62 264 266
3 264 61 265
3 264 265 266
3 62 28 61
3 62 63 28
3 64 63 62
3 64 29 63
3 65 267 268
3 65 269 271
3 269 30 270
3 269 270 271
3 65 66 30
3 67 66 65
3 67 31 66
3 67 68 31
3 69 68 67
3 69 32 68
3 272 33 273
3 274 70 275
3 276 275 33
3 274 275 276
3 277 70 278
3 279 34 280
3 281 280 70
3 279 280 281
3 282 71 283
3 284 71 285
3 284 285 286
3 288 287 71
3 289 72 290
3 291 290 27
3 289 290 291
3 73 292 294
3 292 72 293
3 292 293 294
3 73 35 72
3 74 75 15
3 76 75 74
3 76 36 75
3 76 77 36
3 78 77 76
3 78 37 77
3 79 80 21
3 81 80 79
3 81 38 80
3 295 82 296
3 297 296 18
3 295 296 297
3 83 298 300
3 298 82 299
3 298 299 300
3 83 39 82
3 83 84 39
3 85 84 83
3 85 40 84
3 85 301 303
3 303 302 40
3 301 302 303
3 305 304 85
3 86 87 25
3 88 87 86
3 88 41 87
3 89 306 307
3 89 308 310
3 308 2 309
3 308 309 310
3 90 91 3
3 92 91 90
3 92 12 91
3 43 92 11
3 93 92 43
3 93 12 92
3 93 53 12
3 94 53 93
3 94 5 53
3 95 311 313
3 313 312 6
3 311 312 313
3 315 314 95
3 316 8 317
3 318 9 319
3 320 96 321
3 322 321 9
3 320 321 322
3 323 96 324
3 326 325 96
3 97 327 329
3 327 98 328
3 327 328 329
3 99 98 97
3 99 15 98
3 46 99 14
3 330 99 331
3 332 331 46
3 330 331 332
3 333 15 334
3 335 334 99
3 333 334 335
3 336 74 337
3 338 337 15
3 336 337 338
3 100 339 341
3 339 74 340
3 339 340 341
3 100 10 74
3 101 102 4
3 103 102 101
3 103 18 102
3 342 103 343
3 344 343 17
3 342 343 344
3 345 103 346
3 347 18 348
3 349 348 103
3 347 348 349
3 351 350 18
3 353 352 7
3 48 354 355
3 358 357 48
3 356 357 358
3 104 359 360
3 104 361 362
3 105 106 1
3 107 106 105
3 107 21 106
3 51 107 20
3 108 107 51
3 108 21 107
3 108 79 21
3 109 79 108
3 109 4 79
3 91 52 3
3 110 52 91
3 110 22 52
3 54 110 12
3 111 110 54
3 111 22 110
3 111 109 22
3 112 109 111
3 112 4 109
3 112 101 4
3 113 101 112
3 113 17 101
3 56 113 23
3 363 113 364
3 365 364 56
3 363 364 365
3 366 17 367
3 368 367 113
3 366 367 368
3 370 369 17
3 114 115 0
3 116 115 114
3 116 25 115
3 59 116 24
3 117 116 59
3 117 25 116
3 117 86 25
3 118 86 117
3 118 7 86
3 371 60 372
3 373 372 6
3 371 372 373
3 374 60 375
3 376 26 377
3 378 377 60
3 376 377 378
3 119 379 381
3 379 380 381
3 119 382 384
3 382 26 383
3 382 383 384
3 119 118 26
3 120 118 119
3 120 7 118
3 120 385 387
3 387 386 7
3 385 386 387
3 390 389 120
3 388 389 390
3 391 27 392
3 393 27 394
3 396 395 27
3 61 397 398
3 121 399 401
3 401 400 61
3 399 400 401
3 121 402 404
3 402 403 404
3 121 405 406
3 122 407 409
3 409 408 121
3 407 408 409
3 122 410 411
3 122 412 414
3 412 97 413
3 412 413 414
3 123 97 122
3 123 14 97
3 63 123 28
3 124 123 63
3 124 14 123
3 124 45 14
3 125 45 124
3 125 1 45
3 415 8 416
3 126 417 418
3 126 419 421
3 419 8 420
3 419 420 421
3 126 64 8
3 127 64 126
3 127 29 64
3 66 127 30
3 128 127 66
3 128 29 127
3 128 125 29
3 129 125 128
3 129 1 125
3 129 105 1
3 130 105 129
3 130 20 105
3 68 130 31
3 131 130 68
3 131 20 130
3 131 50 20
3 132 50 131
3 132 3 50
3 96 69 9
3 133 69 96
3 133 32 69
3 422 133 423
3 424 133 425
3 426 32 427
3 428 427 133
3 426 427 428
3 429 132 430
3 431 430 32
3 429 430 431
3 134 432 434
3 432 132 433
3 432 433 434
3 134 3 132
3 134 90 3
3 135 90 134
3 135 11 90
3 70 135 33
3 136 135 70
3 136 11 135
3 136 42 11
3 137 42 136
3 137 0 42
3 435 34 436
3 138 437 438
3 138 439 441
3 439 34 440
3 439 440 441
3 138 137 34
3 139 137 138
3 139 0 137
3 139 114 0
3 140 114 139
3 140 24 114
3 71 442 444
3 442 140 443
3 442 443 444
3 141 140 71
3 141 24 140
3 141 58 24
3 142 58 141
3 142 6 58
3 445 142 446
3 143 447 449
3 447 142 448
3 447 448 449
3 143 6 142
3 143 95 6
3 450 95 451
3 452 451 143
3 450 451 452
3 454 453 95
3 144 455 456
3 144 457 458
3 72 144 27
3 145 144 72
3 145 459 461
3 461 460 144
3 459 460 461
3 145 462 464
3 462 89 463
3 462 463 464
3 146 89 145
3 146 2 89
3 98 465 467
3 465 73 466
3 465 466 467
3 147 73 98
3 147 35 73
3 75 147 15
3 148 147 75
3 148 35 147
3 148 146 35
3 149 146 148
3 149 2 146
3 149 49 2
3 150 49 149
3 150 19 49
3 77 150 36
3 151 150 77
3 151 19 150
3 151 104 19
3 152 104 151
3 152 468 470
3 470 469 104
3 468 469 470
3 106 47 1
3 153 47 106
3 153 16 47
3 80 153 21
3 154 153 80
3 154 16 153
3 154 100 16
3 155 100 154
3 155 10 100
3 102 81 4
3 156 81 102
3 156 38 81
3 82 156 18
3 157 156 82
3 157 38 156
3 157 155 38
3 158 155 157
3 158 10 155
3 158 78 10
3 159 78 158
3 159 37 78
3 84 159 39
3 160 159 84
3 160 37 159
3 160 152 37
3 161 152 160
3 161 471 473
3 473 472 152
3 471 472 473
3 161 474 475
3 162 476 478
3 478 477 161
3 476 477 478
3 162 479 480
3 481 162 482
3 483 482 40
3 481 482 483
3 484 162 485
3 487 486 162
3 115 44 0
3 163 44 115
3 163 13 44
3 87 163 25
3 164 163 87
3 164 13 163
3 164 94 13
3 165 94 164
3 165 5 94
3 488 88 489
3 490 489 7
3 488 489 490
3 491 88 492
3 493 41 494
3 495 494 88
3 493 494 495
3 496 41 497
3 498 165 499
3 500 499 41
3 498 499 500
3 166 501 503
3 501 165 502
3 501 502 503
3 166 5 165
3 166 57 5
3 504 57 505
3 506 505 166
3 504 505 506
3 508 507 57
