ply
format ascii 1.0
element vertex 528
property float x
property float y
property float z
element face 581
property list uchar int vertex_index
end_header
49.896248 -10.885262 16.426113
66.836197 -10.679463 18.143646
42.8857 -10.122377 15.434201
58.69133 -11.097974 16.332146
39.055138 6.370296 9.106703
43.844425 4.926525 11.826288
50.940903 2.91194 11.220535
57.57933 13.828037 7.335328
58.359665 1.020283 10.80404
65.115601 0.107254 13.160477
46.040352 -10.541408 16.278091
42.647972 -16.794044 16.657242
45.748459 -17.079391 17.901846
63.053459 -10.950062 16.854584
58.821213 -16.59837 18.902336
63.230438 -16.123981 19.75316
37.982822 6.559826 6.145959
38.611416 14.669212 7.729095
43.99543 12.89282 10.015154
47.583496 11.578362 9.707941
47.239311 3.955757 11.766649
51.310772 10.171793 8.971285
59.661469 12.151119 8.559456
58.034004 7.389765 8.507599
60.879627 6.290035 9.590255
61.872444 0.428236 11.619246
69.526329 -10.31741 20.376677
66.877167 -15.534645 21.439915
40.637611 -9.684425 13.634786
54.199905 -11.082246 16.302776
49.692501 -17.132931 18.41165
54.167183 -16.954111 18.592485
39.279221 -1.739285 10.13611
40.904266 14.000488 9.444124
41.042648 5.765482 10.999386
40.911655 -2.236435 12.432501
43.418877 -2.822905 13.727684
46.658417 -3.481256 14.10829
50.403538 -4.162932 13.902319
54.850883 8.73764 8.390144
54.695423 1.886515 10.739973
54.428219 -4.766189 13.588854
58.553806 -5.184176 13.588564
62.597244 -5.37534 14.140505
66.250595 -5.390535 15.376004
67.788933 -0.088816 15.370736
69.049889 -5.34484 17.418634
47.89624 -10.727566 16.414452
45.829197 -13.883318 17.171631
47.70385 -14.001108 17.40057
65.05024 -10.827762 17.388725
63.174942 -13.595743 18.272356
65.16523 -13.397348 18.884125
49.651768 18.308979 7.885608
47.673733 15.393154 8.875329
49.565636 14.609943 8.53363
49.4524 10.882769 9.358572
51.424423 13.811142 8.156948
60.289871 9.217936 8.918695
70.345871 -10.111694 21.844437
69.484314 -12.617367 22.140612
41.639629 -9.9043 14.660304
41.499638 -13.340754 15.236257
42.788338 -19.854437 17.035799
41.676685 -19.610516 15.976662
56.439461 -11.112702 16.275143
54.150932 -14.080045 17.499733
56.449596 -14.013468 17.52368
58.902031 -19.159214 20.187729
56.589851 -19.441004 19.855314
38.4035 6.530293 7.754488
43.953304 8.898647 10.897243
42.392361 9.415472 10.695009
42.353149 5.367002 11.539721
41.01004 1.714153 11.735688
42.240101 1.376755 12.384168
42.061897 -2.519575 13.205323
43.662373 1.009085 12.781269
49.069649 3.438725 11.521382
46.971619 0.201145 12.929161
48.793678 -0.227777 12.772629
48.482849 -3.824559 14.049955
50.684425 -0.660236 12.545163
54.873562 12.188038 7.599166
56.41106 11.382809 7.559142
58.216763 4.191509 9.552036
56.534737 4.718222 9.403024
56.543308 1.424438 10.683702
54.567902 -1.474163 12.146109
56.522934 -1.821543 12.088439
56.488388 -5.003106 13.530422
58.468452 -2.110189 12.175824
63.541656 0.239943 12.303944
62.267624 -2.490189 12.844227
64.068886 -2.590544 13.433582
64.499123 -5.398694 14.665077
65.749184 -2.649416 14.197234
68.777298 -0.214008 16.723917
68.517654 -2.728945 16.276741
69.488815 -2.798965 17.605907
49.781246 -20.043715 19.19943
47.721107 -20.119446 18.901949
44.360462 -10.336722 15.964984
42.699837 -13.545408 16.11985
44.15094 -13.728689 16.757463
44.075512 -16.963053 17.391092
44.185875 -20.025076 17.860691
60.913284 -11.041954 16.513327
58.754631 -13.906996 17.630476
61.016018 -13.76627 17.86623
61.087227 -16.374071 19.238014
61.14003 -18.852852 20.663364
37.661697 10.598312 5.546992
38.134773 10.647579 7.147713
38.855347 10.522938 8.467462
45.749035 12.251793 9.947502
45.650436 8.34219 10.875944
45.485111 4.453873 11.887527
47.44352 7.757051 10.678284
49.290661 7.150736 10.364773
51.152042 6.530769 10.006739
58.684982 12.962315 7.81319
57.815964 10.604387 7.750852
59.101498 9.875347 8.202601
59.49316 6.799688 8.926099
59.841038 3.734936 9.923486
60.139053 0.686695 11.116209
61.409821 3.359318 10.513569
62.919273 3.065536 11.305058
64.35363 2.84343 12.276407
68.345947 -10.508337 19.138161
66.918671 -13.17007 19.727526
68.373558 -12.910926 20.814909
68.257065 -15.18115 22.634268
41.491016 -16.580536 15.679523
40.865318 -19.303669 14.680503
52.008072 -11.005565 16.370161
49.740108 -14.075184 17.494057
51.90152 -14.101604 17.50808
51.884506 -17.069969 18.514376
51.977711 -19.896433 19.418297
56.495834 -16.793972 18.703644
54.263733 -19.690794 19.61731
65.182686 -15.846216 20.480564
63.237808 -18.52294 21.321348
39.325935 -5.587573 10.537855
39.642525 14.408043 8.739037
39.81675 10.254745 9.496529
42.367043 13.484283 9.860328
41.003502 9.875572 10.235382
39.937668 6.106876 10.189887
39.982517 -1.975071 11.406446
39.932995 -5.814058 11.921797
40.772903 -6.047418 13.072029
41.846542 -6.289396 13.974037
43.144447 -6.541468 14.625254
45.250076 0.615723 12.949995
44.960304 -3.144783 14.0173
44.648323 -6.802745 15.038434
46.333199 -7.068583 15.243042
48.170151 -7.330386 15.28384
50.129051 -7.57661 15.216358
53.205112 13.001572 7.820581
53.119698 9.452902 8.623346
52.994072 5.907806 9.680573
56.489471 8.042934 8.336325
54.792694 5.297176 9.459251
52.823421 2.388758 10.937243
52.616371 -1.081436 12.315205
52.393158 -4.481827 13.728924
52.18084 -7.794716 15.100161
54.298431 -7.973455 14.991878
56.455948 -8.104837 14.94019
58.625839 -8.185379 14.984212
60.39024 -2.332895 12.425665
60.600815 -5.30697 13.786505
60.774895 -8.216352 15.155202
62.860313 -8.20313 15.480062
64.827957 -8.153894 15.984282
66.614365 -8.078172 16.692268
65.68277 2.671635 13.409039
66.863495 2.519239 14.689602
66.549538 0.007355 14.183084
67.252403 -2.687534 15.142174
67.788292 -5.366869 16.289616
68.153252 -7.985741 17.62446
69.385269 -7.886375 18.792042
47.633537 -17.136805 18.225965
45.842094 -20.114367 18.47118
50.53846 16.018549 8.05154
49.608702 16.459461 8.209619
50.581526 17.868067 7.727529
51.467854 15.619148 7.863198
50.49503 14.210542 8.345289
50.53846 16.018549 8.05154
70.287483 -11.201072 22.760893
70.573253 -10.0064 22.674181
42.450037 -21.137985 16.58137
42.979554 -21.284275 17.149231
57.82534 -20.550755 20.608936
58.959408 -20.36902 20.859972
38.839485 4.409942 8.676856
38.513666 4.489941 8.000749
38.729319 6.450295 8.430595
39.125484 4.317499 9.383585
38.839485 4.409942 8.676856
57.464388 15.441824 7.303252
57.811155 16.559793 7.526332
57.926097 14.946006 7.558408
56.946998 14.276142 7.224855
56.832056 15.889929 7.192779
57.464388 15.441824 7.303252
56.995195 12.605423 7.447235
56.362864 13.053528 7.336762
56.946998 14.276142 7.224855
69.121242 -0.308049 17.481656
68.675339 0.951789 17.1926
69.019284 0.857748 17.950339
69.477001 -1.600527 17.922651
69.133057 -1.506487 17.164912
69.121242 -0.308049 17.481656
69.806755 -2.860958 18.365434
69.477001 -1.600527 17.922651
48.888914 -21.487929 19.331844
49.905798 -21.417406 19.550325
37.490679 12.605144 5.170496
37.547836 10.475496 4.615504
38.373095 12.658396 7.438404
37.983935 12.697363 6.779295
38.222256 14.708179 7.069985
59.345061 13.627275 8.552473
59.663279 13.175438 9.061112
59.173226 12.556717 8.186323
58.856817 14.032874 8.179339
59.345061 13.627275 8.552473
63.192989 4.299822 11.435754
62.561531 4.467356 10.892553
63.910168 4.188769 11.921428
63.636451 2.954483 11.790733
63.192989 4.299822 11.435754
68.77052 -14.980112 23.340677
68.870689 -13.899259 22.38744
69.384144 -13.69822 23.093849
68.658509 -16.047038 24.310391
68.145054 -16.248076 23.603982
68.77052 -14.980112 23.340677
40.26625 -11.282293 13.180141
40.261213 -9.57265 12.999698
41.114843 -20.669085 14.726719
41.271001 -19.457093 15.328582
41.520527 -20.822508 15.374798
41.146137 -21.800904 13.992234
40.896612 -20.435488 13.946019
41.114843 -20.669085 14.726719
54.360641 -20.983517 20.12211
55.426792 -19.565899 19.736312
55.523701 -20.858622 20.241112
53.232158 -21.128242 19.9435
54.360641 -20.983517 20.12211
63.233219 -19.653956 22.159737
64.182346 -18.343419 21.754716
62.21853 -19.858171 21.749389
63.233219 -19.653956 22.159737
38.049768 4.549897 5.451118
37.88446 6.497186 5.223388
39.109734 -3.55362 9.539503
38.86838 -3.452282 8.790778
39.037867 -1.637948 9.387385
39.302578 -3.663429 10.336983
39.133091 -5.477764 9.740375
39.109734 -3.55362 9.539503
40.273395 14.204265 9.09158
40.206473 16.251581 8.674391
40.837343 16.047804 9.026934
43.181236 13.188551 9.937741
43.179406 15.179626 9.520091
43.993599 14.883895 9.597504
40.517181 3.889757 10.913185
39.964691 4.060454 10.508436
40.490158 5.936179 10.594637
54.04033 14.316056 7.468537
53.235674 14.767575 7.555122
65.711857 3.858804 13.811827
65.169029 3.970372 13.114343
67.326214 1.215211 15.030169
67.35387 2.433838 15.399558
67.816589 1.12981 15.740125
45.994473 -21.543081 18.688654
46.781601 -20.116906 18.686564
46.933979 -21.545621 18.904038
45.183792 -21.507041 18.327057
45.994473 -21.543081 18.688654
38.48155 16.713428 7.299048
38.222256 14.708179 7.069985
38.092391 16.752396 6.639938
48.662751 16.851067 8.380469
47.706306 17.284282 8.521437
48.695324 18.742195 8.026577
60.103708 11.784076 9.061727
59.663279 13.175438 9.061112
60.41791 10.317485 9.241347
59.97567 10.684527 8.739076
60.103708 11.784076 9.061727
60.847469 8.93319 9.400344
60.41791 10.317485 9.241347
61.142347 7.469239 9.736125
60.584749 7.753985 9.254475
60.847469 8.93319 9.400344
61.541708 6.079605 10.035152
61.142347 7.469239 9.736125
69.856705 -12.453909 22.90898
69.915093 -11.364531 21.992525
70.287483 -11.201072 22.760893
69.384144 -13.69822 23.093849
69.856705 -12.453909 22.90898
41.101854 -11.511633 14.380864
40.600845 -11.401696 13.868105
41.13862 -9.794362 14.147545
41.031858 -13.229861 14.66884
41.101854 -11.511633 14.380864
41.569633 -11.622527 14.94828
41.058857 -14.835295 14.845398
41.031858 -13.229861 14.66884
41.89421 -21.016024 16.051802
42.232512 -19.732477 16.506231
42.450037 -21.137985 16.58137
41.520527 -20.822508 15.374798
41.89421 -21.016024 16.051802
56.669251 -20.69165 20.442729
57.745941 -19.300109 20.021521
57.82534 -20.550755 20.608936
55.523701 -20.858622 20.241112
56.669251 -20.69165 20.442729
66.002026 -16.849272 21.814
66.809948 -16.649935 22.357193
38.336084 4.539377 7.179419
38.125746 4.554143 6.375155
38.193161 6.54506 6.950223
38.336084 4.539377 7.179419
38.513666 4.489941 8.000749
39.237526 0.262709 9.898288
39.037867 -1.637948 9.387385
41.602443 15.767161 9.235522
40.837343 16.047804 9.026934
55.594115 13.456143 7.356774
54.874555 13.909289 7.35783
55.642311 11.785424 7.579154
55.594115 13.456143 7.356774
56.362864 13.053528 7.336762
68.310772 1.067214 16.416716
68.675339 0.951789 17.1926
68.283116 -0.151412 16.047327
67.816589 1.12981 15.740125
68.310772 1.067214 16.416716
69.736759 -4.070435 18.186145
69.517296 -5.343372 18.092509
69.269352 -4.071903 17.51227
69.736759 -4.070435 18.186145
69.806755 -2.860958 18.365434
47.858845 -21.525795 19.183104
48.751176 -20.081581 19.050689
48.888914 -21.487929 19.331844
46.933979 -21.545621 18.904038
47.858845 -21.525795 19.183104
43.678322 -21.369594 17.561677
42.979554 -21.284275 17.149231
43.487107 -19.939757 17.448245
60.078407 -20.215838 21.09779
58.959408 -20.36902 20.859972
60.021031 -19.006033 20.425547
37.723897 8.51643 4.923905
37.547836 10.475496 4.615504
37.82226 8.579069 5.846476
37.88446 6.497186 5.223388
37.723897 8.51643 4.923905
37.747396 12.672729 5.978934
37.490679 12.605144 5.170496
37.898235 10.622946 6.347353
37.747396 12.672729 5.978934
37.983935 12.697363 6.779295
44.897167 14.522979 9.563369
43.993599 14.883895 9.597504
46.736318 15.773146 8.993457
47.706306 17.284282 8.521437
45.773969 14.202465 9.529543
46.736318 15.773146 8.993457
46.711384 13.822473 9.411416
44.872232 12.572306 9.981328
44.897167 14.522979 9.563369
45.773969 14.202465 9.529543
58.478924 14.513146 7.797339
58.856817 14.032874 8.179339
58.132156 13.395176 7.574259
57.926097 14.946006 7.558408
58.478924 14.513146 7.797339
61.806805 4.614247 10.496809
61.144724 4.824676 10.051912
61.541708 6.079605 10.035152
62.164547 3.212427 10.909313
61.806805 4.614247 10.496809
62.561531 4.467356 10.892553
67.499897 -16.473187 22.954369
66.809948 -16.649935 22.357193
67.567116 -15.357897 22.037091
67.499897 -16.473187 22.954369
68.145054 -16.248076 23.603982
49.694029 20.133413 7.627827
48.695324 18.742195 8.026577
50.622984 19.654764 7.527961
49.694029 20.133413 7.627827
50.581526 17.868067 7.727529
50.622984 19.654764 7.527961
40.26625 -11.282293 13.180141
40.600845 -11.401696 13.868105
41.054546 -16.455186 15.067031
41.058857 -14.835295 14.845398
41.495327 -14.960645 15.45789
40.741697 -17.816752 14.567521
41.054546 -16.455186 15.067031
41.178167 -17.942102 15.180013
40.609154 -19.123264 13.919865
40.741697 -17.816752 14.567521
40.609154 -19.123264 13.919865
40.896612 -20.435488 13.946019
51.00403 -21.343765 19.659758
49.905798 -21.417406 19.550325
50.879479 -19.970074 19.308864
52.089147 -21.231062 19.843994
53.120722 -19.793613 19.517803
53.232158 -21.128242 19.9435
51.00403 -21.343765 19.659758
52.089147 -21.231062 19.843994
65.154785 -17.005057 21.334324
66.029927 -15.69043 20.96024
66.002026 -16.849272 21.814
64.210247 -17.184578 20.900956
65.154785 -17.005057 21.334324
64.182346 -18.343419 21.754716
61.169641 -20.023128 21.420397
62.188919 -18.687896 20.992356
62.21853 -19.858171 21.749389
60.078407 -20.215838 21.09779
61.169641 -20.023128 21.420397
38.049768 4.549897 5.451118
38.125746 4.554143 6.375155
39.208798 -7.286241 9.855914
39.133091 -5.477764 9.740375
39.350572 -7.408456 10.70328
39.208798 -7.286241 9.855914
39.026792 16.593296 7.81287
38.48155 16.713428 7.299048
39.542347 16.462711 8.317841
40.206473 16.251581 8.674391
39.12697 14.538628 8.234066
39.026792 16.593296 7.81287
39.542347 16.462711 8.317841
42.333832 15.509058 9.443624
43.179406 15.179626 9.520091
41.635655 13.742386 9.652226
41.602443 15.767161 9.235522
42.333832 15.509058 9.443624
39.56675 4.185789 9.925177
39.125484 4.317499 9.383585
39.496403 6.238586 9.648295
39.56675 4.185789 9.925177
39.964691 4.060454 10.508436
39.635468 0.137373 10.481547
39.237526 0.262709 9.898288
40.500877 1.864092 11.281336
40.517181 3.889757 10.913185
41.026344 3.739818 11.367537
39.987116 0.01948 11.116715
40.500877 1.864092 11.281336
40.496279 -0.130459 11.571067
39.630869 -1.857178 10.771278
39.635468 0.137373 10.481547
39.987116 0.01948 11.116715
39.654103 -7.521698 11.395251
39.350572 -7.408456 10.70328
39.629465 -5.700816 11.229826
39.908905 -7.637466 12.143204
39.654103 -7.521698 11.395251
40.328859 -7.754146 12.718319
39.908905 -7.637466 12.143204
40.352949 -5.930738 12.496913
40.705257 -7.865921 13.353407
40.261213 -9.57265 12.999698
40.328859 -7.754146 12.718319
52.345329 15.17236 7.723306
51.467854 15.619148 7.863198
52.314768 13.406357 7.988765
52.345329 15.17236 7.723306
53.235674 14.767575 7.555122
54.039337 12.594805 7.709874
54.04033 14.316056 7.468537
54.874555 13.909289 7.35783
64.504459 4.056269 12.548027
63.910168 4.188769 11.921428
65.0182 2.757532 12.842723
64.504459 4.056269 12.548027
65.169029 3.970372 13.114343
66.773056 3.672375 15.210907
67.35387 2.433838 15.399558
66.30222 3.782606 14.452109
66.773056 3.672375 15.210907
66.273133 2.595437 14.049321
65.711857 3.858804 13.811827
66.30222 3.782606 14.452109
69.684986 -6.61414 18.779213
69.217579 -6.615607 18.105338
69.517296 -5.343372 18.092509
69.826961 -7.838499 19.49165
69.684986 -6.61414 18.779213
69.897492 -9.054016 20.283967
69.455799 -9.101892 19.584359
69.826961 -7.838499 19.49165
70.307263 -8.951158 21.017847
69.9361 -10.214552 21.110557
69.897492 -9.054016 20.283967
70.566597 -8.911641 21.82179
70.307263 -8.951158 21.017847
70.573253 -10.0064 22.674181
70.566597 -8.911641 21.82179
44.355683 -21.462395 18.021812
45.013985 -20.069721 18.165935
45.183792 -21.507041 18.327057
43.678322 -21.369594 17.561677
44.355683 -21.462395 18.021812
3 0 49 47
3 1 52 50
3 189 55 190
3 191 190 53
3 189 190 191
3 192 57 193
3 194 193 55
3 192 193 194
3 196 195 59
3 2 62 61
3 198 197 63
3 3 67 65
3 200 199 68
3 4 201 203
3 203 202 70
3 201 202 203
3 4 204 205
3 5 73 71
3 5 75 73
3 5 77 75
3 6 80 78
3 6 82 80
3 7 206 208
3 206 207 208
3 7 209 211
3 209 210 211
3 7 212 214
3 212 84 213
3 212 213 214
3 8 87 85
3 8 89 87
3 8 91 89
3 9 94 92
3 9 96 94
3 215 97 216
3 215 216 217
3 218 99 219
3 220 219 97
3 218 219 220
3 222 221 99
3 224 223 100
3 10 104 102
3 12 105 48
3 12 106 105
3 13 109 107
3 15 110 51
3 15 111 110
3 225 112 226
3 17 227 229
3 227 113 228
3 227 228 229
3 17 114 113
3 19 115 54
3 19 116 115
3 19 118 116
3 21 119 56
3 21 120 119
3 22 230 231
3 22 232 234
3 232 121 233
3 232 233 234
3 22 123 121
3 24 124 58
3 24 125 124
3 24 127 125
3 235 128 236
3 237 129 238
3 239 238 128
3 237 238 239
3 26 132 130
3 240 133 241
3 242 241 60
3 240 241 242
3 245 244 133
3 243 244 245
3 28 246 247
3 11 134 103
3 248 135 249
3 250 249 64
3 248 249 250
3 253 252 135
3 251 252 253
3 29 138 136
3 31 139 66
3 31 140 139
3 14 141 108
3 254 142 255
3 256 255 69
3 254 255 256
3 258 257 142
3 27 143 131
3 259 144 260
3 262 261 144
3 16 263 264
3 32 265 267
3 265 266 267
3 32 268 270
3 268 145 269
3 268 269 270
3 33 271 273
3 271 146 272
3 271 272 273
3 33 147 146
3 18 274 276
3 274 148 275
3 274 275 276
3 34 149 72
3 34 150 149
3 34 277 279
3 279 278 150
3 277 278 279
3 35 151 74
3 35 152 151
3 35 153 152
3 36 154 76
3 36 155 154
3 20 156 117
3 37 157 79
3 37 158 157
3 37 159 158
3 38 160 81
3 38 161 160
3 280 162 281
3 39 163 83
3 39 164 163
3 23 165 122
3 40 166 86
3 40 167 166
3 40 168 167
3 41 169 88
3 41 170 169
3 41 171 170
3 42 172 90
3 42 173 172
3 25 174 126
3 43 175 93
3 43 176 175
3 43 177 176
3 44 178 95
3 44 179 178
3 282 180 283
3 45 284 286
3 284 181 285
3 284 285 286
3 45 182 181
3 45 183 182
3 46 184 98
3 46 185 184
3 46 186 185
3 30 187 137
3 287 188 288
3 289 288 101
3 287 288 289
3 291 290 188
3 47 48 10
3 49 48 47
3 49 12 48
3 50 51 13
3 52 51 50
3 52 15 51
3 292 17 293
3 292 293 294
3 53 295 297
3 295 54 296
3 295 296 297
3 55 54 53
3 55 19 54
3 55 56 19
3 57 56 55
3 57 21 56
3 298 22 299
3 300 58 301
3 302 301 22
3 300 301 302
3 303 58 304
3 305 24 306
3 307 306 58
3 305 306 307
3 309 308 24
3 59 60 26
3 310 60 311
3 312 311 59
3 310 311 312
3 314 313 60
3 61 315 317
3 317 316 28
3 315 316 317
3 62 318 320
3 320 319 61
3 318 319 320
3 62 321 322
3 63 64 11
3 323 64 324
3 325 324 63
3 323 324 325
3 327 326 64
3 65 66 29
3 67 66 65
3 67 31 66
3 68 69 14
3 328 69 329
3 330 329 68
3 328 329 330
3 332 331 69
3 334 333 27
3 70 335 337
3 337 336 16
3 335 336 337
3 339 338 70
3 340 32 341
3 342 33 343
3 71 72 18
3 73 72 71
3 73 34 72
3 73 74 34
3 75 74 73
3 75 35 74
3 75 76 35
3 77 76 75
3 77 36 76
3 78 79 20
3 80 79 78
3 80 37 79
3 80 81 37
3 82 81 80
3 82 38 81
3 344 83 345
3 84 346 348
3 346 83 347
3 346 347 348
3 84 39 83
3 85 86 23
3 87 86 85
3 87 40 86
3 87 88 40
3 89 88 87
3 89 41 88
3 89 90 41
3 91 90 89
3 91 42 90
3 92 93 25
3 94 93 92
3 94 43 93
3 94 95 43
3 96 95 94
3 96 44 95
3 97 349 350
3 97 351 353
3 351 45 352
3 351 352 353
3 97 98 45
3 99 98 97
3 99 46 98
3 99 354 356
3 356 355 46
3 354 355 356
3 358 357 99
3 100 101 30
3 359 101 360
3 361 360 100
3 359 360 361
3 363 362 101
3 102 103 2
3 104 103 102
3 104 11 103
3 48 104 10
3 105 104 48
3 105 11 104
3 105 63 11
3 106 63 105
3 106 364 366
3 366 365 63
3 364 365 366
3 107 108 3
3 109 108 107
3 109 14 108
3 51 109 13
3 110 109 51
3 110 14 109
3 110 68 14
3 111 68 110
3 111 367 369
3 369 368 68
3 367 368 369
3 112 370 371
3 112 372 374
3 372 16 373
3 372 373 374
3 375 112 376
3 113 377 379
3 377 112 378
3 377 378 379
3 113 16 112
3 113 70 16
3 114 70 113
3 114 4 70
3 380 18 381
3 54 382 383
3 115 384 386
3 386 385 54
3 384 385 386
3 115 387 389
3 387 18 388
3 387 388 389
3 115 71 18
3 116 71 115
3 116 5 71
3 116 117 5
3 118 117 116
3 118 20 117
3 56 118 19
3 119 118 56
3 119 20 118
3 119 78 20
3 120 78 119
3 120 6 78
3 121 390 391
3 121 392 394
3 392 7 393
3 392 393 394
3 121 122 7
3 123 122 121
3 123 23 122
3 58 123 22
3 124 123 58
3 124 23 123
3 124 85 23
3 125 85 124
3 125 8 85
3 125 126 8
3 127 126 125
3 127 25 126
3 395 127 396
3 397 396 24
3 395 396 397
3 128 398 400
3 398 127 399
3 398 399 400
3 128 25 127
3 128 92 25
3 129 92 128
3 129 9 92
3 130 131 1
3 132 131 130
3 132 27 131
3 60 132 26
3 133 132 60
3 133 27 132
3 133 401 403
3 403 402 27
3 401 402 403
3 405 404 133
3 406 53 407
3 408 53 409
3 411 410 53
3 413 412 28
3 103 62 2
3 134 62 103
3 134 414 416
3 416 415 62
3 414 415 416
3 64 134 11
3 135 134 64
3 135 417 419
3 419 418 134
3 417 418 419
3 135 420 421
3 423 422 135
3 136 137 0
3 138 137 136
3 138 30 137
3 66 138 29
3 139 138 66
3 139 30 138
3 139 100 30
3 140 100 139
3 140 424 426
3 426 425 100
3 424 425 426
3 108 67 3
3 141 67 108
3 141 31 67
3 69 141 14
3 142 141 69
3 142 31 141
3 142 140 31
3 427 140 428
3 429 428 142
3 427 428 429
3 431 430 140
3 131 52 1
3 143 52 131
3 143 15 52
3 432 143 433
3 434 433 27
3 432 433 434
3 144 435 437
3 435 143 436
3 435 436 437
3 144 15 143
3 144 111 15
3 438 111 439
3 440 439 144
3 438 439 440
3 442 441 111
3 444 443 16
3 145 445 446
3 145 447 448
3 449 17 450
3 146 451 452
3 146 453 455
3 453 17 454
3 453 454 455
3 146 114 17
3 147 114 146
3 147 4 114
3 148 456 457
3 148 458 460
3 458 33 459
3 458 459 460
3 72 148 18
3 149 148 72
3 149 33 148
3 149 147 33
3 150 147 149
3 150 4 147
3 150 461 463
3 463 462 4
3 461 462 463
3 465 464 150
3 466 32 467
3 74 468 470
3 470 469 34
3 468 469 470
3 151 471 473
3 473 472 74
3 471 472 473
3 151 474 476
3 474 32 475
3 474 475 476
3 151 145 32
3 152 145 151
3 152 477 479
3 479 478 145
3 477 478 479
3 152 480 481
3 153 482 484
3 484 483 152
3 482 483 484
3 153 485 487
3 485 28 486
3 485 486 487
3 76 153 35
3 154 153 76
3 154 28 153
3 154 61 28
3 155 61 154
3 155 2 61
3 117 77 5
3 156 77 117
3 156 36 77
3 79 156 20
3 157 156 79
3 157 36 156
3 157 155 36
3 158 155 157
3 158 2 155
3 158 102 2
3 159 102 158
3 159 10 102
3 81 159 37
3 160 159 81
3 160 10 159
3 160 47 10
3 161 47 160
3 161 0 47
3 488 57 489
3 162 490 492
3 490 57 491
3 490 491 492
3 162 21 57
3 83 493 495
3 493 162 494
3 493 494 495
3 163 162 83
3 163 21 162
3 163 120 21
3 164 120 163
3 164 6 120
3 122 84 7
3 165 84 122
3 165 39 84
3 86 165 23
3 166 165 86
3 166 39 165
3 166 164 39
3 167 164 166
3 167 6 164
3 167 82 6
3 168 82 167
3 168 38 82
3 88 168 40
3 169 168 88
3 169 38 168
3 169 161 38
3 170 161 169
3 170 0 161
3 170 136 0
3 171 136 170
3 171 29 136
3 90 171 41
3 172 171 90
3 172 29 171
3 172 65 29
3 173 65 172
3 173 3 65
3 126 91 8
3 174 91 126
3 174 42 91
3 93 174 25
3 175 174 93
3 175 42 174
3 175 173 42
3 176 173 175
3 176 3 173
3 176 107 3
3 177 107 176
3 177 13 107
3 95 177 43
3 178 177 95
3 178 13 177
3 178 50 13
3 179 50 178
3 179 1 50
3 496 129 497
3 180 498 500
3 498 129 499
3 498 499 500
3 180 9 129
3 181 501 502
3 181 503 504
3 181 505 507
3 505 180 506
3 505 506 507
3 182 180 181
3 182 9 180
3 182 96 9
3 183 96 182
3 183 44 96
3 98 183 45
3 184 183 98
3 184 44 183
3 184 179 44
3 185 179 184
3 185 1 179
3 185 130 1
3 186 130 185
3 186 26 130
3 508 186 509
3 510 509 46
3 508 509 510
3 511 186 512
3 513 26 514
3 515 514 186
3 513 514 515
3 516 59 517
3 518 517 26
3 516 517 518
3 519 59 520
3 522 521 59
3 137 49 0
3 187 49 137
3 187 12 49
3 101 187 30
3 188 187 101
3 188 12 187
3 188 106 12
3 523 106 524
3 525 524 188
3 523 524 525
3 527 526 106
