ply
format ascii 1.0
element vertex 209
property float x
property float y
property float z
element face 181
property list uchar int vertex_index
end_header
40.666019 45.65435 -10.237114
47.220535 54.726784 -13.422504
36.391624 40.342949 -16.410173
44.469658 50.284889 -12.244444
44.364254 53.565018 -16.51309
41.613773 48.615288 -15.16765
38.707893 45.933609 -17.840536
38.3894 43.452721 -13.332739
37.409538 40.105328 -8.43996
47.92038 59.370064 -13.140818
42.603634 48.036148 -11.284437
43.049595 49.595665 -13.746052
41.26543 47.211983 -12.789064
39.963089 46.108566 -14.251642
39.487564 44.687225 -11.789904
37.922569 41.921745 -10.886477
38.87109 43.039871 -9.24328
45.405853 48.749802 -8.154474
46.806335 59.250786 -15.017939
46.592804 56.74295 -15.220121
37.453766 43.223118 -17.096224
37.260448 44.312897 -19.141905
36.255558 41.516193 -18.51174
46.061764 52.492554 -12.990051
45.853981 54.303963 -15.047789
44.635525 51.934845 -14.533268
43.139183 51.073418 -15.955599
38.692314 44.765362 -15.682013
37.359638 41.991447 -14.869551
36.344604 38.966904 -14.218803
37.087048 40.55014 -12.545088
47.472328 61.739021 -12.417162
48.836151 59.185318 -11.080431
48.464745 54.834641 -11.643148
47.417305 52.735413 -11.32498
45.874989 50.661659 -10.659872
43.983135 48.552231 -9.736996
41.937088 46.320045 -8.678194
39.953663 43.866688 -7.624088
46.512215 61.791801 -14.4433
45.16571 56.138367 -16.768686
38.237041 41.100727 -6.716383
46.906669 55.734867 -14.321313
47.220825 56.881901 -14.350119
47.53469 55.873818 -13.451311
35.939238 39.441946 -17.188513
35.871205 40.028568 -18.239296
36.323591 40.929571 -17.460957
36.036686 38.777933 -16.162199
35.939238 39.441946 -17.188513
41.596165 49.277328 -16.22119
42.358869 50.506394 -16.615164
42.376478 49.844353 -15.561625
40.888884 47.997867 -15.846069
41.596165 49.277328 -16.22119
37.076187 39.469784 -9.325024
37.332702 40.377993 -10.548283
37.666054 41.013537 -9.663218
36.91316 38.450114 -8.191821
37.076187 39.469784 -9.325024
49.202051 58.962193 -9.978084
48.525352 60.290329 -10.646897
49.027317 54.742981 -10.686792
48.702038 55.91087 -11.604008
47.341244 51.730851 -10.162771
48.059799 52.705418 -10.437949
46.570086 50.693973 -9.830217
46.646147 51.698536 -10.992426
47.341244 51.730851 -10.162771
43.645617 47.608483 -8.430454
44.694494 48.651016 -8.945735
44.356976 47.707268 -7.639194
42.622593 46.49239 -7.901053
42.960111 47.436138 -9.207595
43.645617 47.608483 -8.430454
41.561507 45.347574 -7.361366
42.622593 46.49239 -7.901053
46.061349 60.382454 -15.635354
46.144805 59.025109 -15.850991
38.517414 46.478733 -18.78705
39.337553 47.254418 -18.181185
36.973548 44.8157 -20.042183
36.552267 43.429003 -19.795901
36.059478 37.300635 -14.0362
36.275674 38.147911 -13.117028
38.74422 41.443888 -5.887952
39.095352 42.483708 -7.170236
39.602531 42.826868 -6.341805
46.135814 48.695248 -7.351655
46.335518 49.738045 -8.577519
45.091131 47.719501 -6.871249
46.135814 48.695248 -7.351655
44.356976 47.707268 -7.639194
45.091131 47.719501 -6.871249
47.32759 58.135818 -14.249028
47.363357 59.310425 -14.079379
47.884613 58.195458 -13.310468
46.699569 57.996868 -15.11903
47.32759 58.135818 -14.249028
47.220825 56.881901 -14.350119
46.03804 57.771191 -15.952082
46.144805 59.025109 -15.850991
46.699569 57.996868 -15.11903
43.968611 54.390957 -17.322643
43.561476 53.048493 -17.173359
36.049822 42.030651 -19.480818
36.552267 43.429003 -19.795901
36.758003 42.914545 -18.826822
35.684708 40.592441 -19.22718
36.049822 42.030651 -19.480818
35.684708 40.592441 -19.22718
35.871205 40.028568 -18.239296
42.948941 51.802692 -16.894613
43.561476 53.048493 -17.173359
43.751719 52.319218 -16.234344
42.948941 51.802692 -16.894613
42.358869 50.506394 -16.615164
39.435944 46.657028 -17.182512
39.337553 47.254418 -18.181185
40.063541 46.744506 -15.388065
40.888884 47.997867 -15.846069
40.788431 47.361927 -14.709646
39.428154 46.072904 -16.103251
40.063541 46.744506 -15.388065
39.327702 45.436964 -14.966828
38.700103 45.349486 -16.761274
39.435944 46.657028 -17.182512
39.428154 46.072904 -16.103251
36.646896 38.939529 -12.280171
36.275674 38.147911 -13.117028
36.715826 39.758522 -13.381946
36.914942 39.69219 -11.377588
37.504809 41.235943 -11.715782
37.332702 40.377993 -10.548283
36.646896 38.939529 -12.280171
36.914942 39.69219 -11.377588
47.843441 61.56718 -11.315262
47.029964 62.904586 -11.882089
48.15424 60.46217 -11.748797
47.843441 61.56718 -11.315262
48.525352 60.290329 -10.646897
49.354107 57.930584 -10.292375
49.202051 58.962193 -9.978084
48.887741 58.086208 -11.32265
49.354107 57.930584 -10.292375
48.429856 58.178581 -12.352843
48.378265 59.277691 -12.110625
48.887741 58.086208 -11.32265
47.884613 58.195458 -13.310468
48.429856 58.178581 -12.352843
48.156796 55.927746 -12.561633
48.702038 55.91087 -11.604008
47.84264 54.780712 -12.532826
47.53469 55.873818 -13.451311
48.156796 55.927746 -12.561633
48.583519 53.755032 -10.597033
49.027317 54.742981 -10.686792
47.941025 53.785027 -11.484064
48.583519 53.755032 -10.597033
48.059799 52.705418 -10.437949
45.640421 49.705731 -9.407173
46.570086 50.693973 -9.830217
46.335518 49.738045 -8.577519
40.569794 44.120896 -6.834313
40.945375 45.093367 -8.151141
41.561507 45.347574 -7.361366
39.602531 42.826868 -6.341805
40.569794 44.120896 -6.834313
46.623013 63.021385 -12.970572
47.029964 62.904586 -11.882089
46.142956 63.047775 -13.983642
46.623013 63.021385 -12.970572
46.992272 61.765411 -13.430231
45.611492 63.004692 -14.968166
46.142956 63.047775 -13.983642
45.914289 61.652962 -15.348034
46.659275 60.521293 -14.730619
46.061349 60.382454 -15.635354
45.611492 63.004692 -14.968166
45.914289 61.652962 -15.348034
45.324493 57.468899 -16.726364
46.03804 57.771191 -15.952082
45.879257 56.440658 -15.994404
44.369339 55.677632 -17.450441
44.764982 54.851692 -16.640888
43.968611 54.390957 -17.322643
44.558075 57.074219 -17.450865
44.369339 55.677632 -17.450441
45.324493 57.468899 -16.726364
44.558075 57.074219 -17.450865
37.793691 45.668377 -19.437735
38.517414 46.478733 -18.78705
37.98417 45.123253 -18.491221
37.793691 45.668377 -19.437735
36.973548 44.8157 -20.042183
36.013176 38.089911 -15.066514
36.036686 38.777933 -16.162199
36.368114 39.654927 -15.314488
36.013176 38.089911 -15.066514
36.059478 37.300635 -14.0362
37.960041 39.963576 -5.508911
38.74422 41.443888 -5.887952
37.591898 39.52849 -6.398247
37.960041 39.963576 -5.508911
37.178146 39.03079 -7.260035
37.82329 40.603027 -7.578171
37.591898 39.52849 -6.398247
36.91316 38.450114 -8.191821
37.178146 39.03079 -7.260035
3 0 12 10
3 0 14 12
3 0 16 14
3 1 42 44
3 42 19 43
3 42 43 44
3 2 22 20
3 2 45 47
3 47 46 22
3 45 46 47
3 2 48 49
3 3 25 23
3 5 26 11
3 5 50 52
3 52 51 26
3 50 51 52
3 5 53 54
3 7 27 13
3 7 28 27
3 7 30 28
3 8 55 57
3 57 56 15
3 55 56 57
3 8 58 59
3 60 32 61
3 62 33 63
3 64 34 65
3 66 35 67
3 68 67 34
3 66 67 68
3 69 36 70
3 71 70 17
3 69 70 71
3 72 37 73
3 74 73 36
3 72 73 74
3 76 75 37
3 9 39 31
3 78 77 18
3 4 40 24
3 6 79 80
3 82 81 21
3 84 83 29
3 85 41 86
3 87 86 38
3 85 86 87
3 10 11 3
3 12 11 10
3 12 5 11
3 12 13 5
3 14 13 12
3 14 7 13
3 14 15 7
3 16 15 14
3 16 8 15
3 88 17 89
3 90 17 91
3 93 92 17
3 94 18 95
3 96 95 9
3 94 95 96
3 19 97 99
3 97 18 98
3 97 98 99
3 19 100 102
3 102 101 18
3 100 101 102
3 104 103 4
3 20 21 6
3 22 21 20
3 22 105 107
3 107 106 21
3 105 106 107
3 22 108 109
3 111 110 22
3 23 24 1
3 25 24 23
3 25 4 24
3 11 25 3
3 26 25 11
3 26 4 25
3 26 112 114
3 114 113 4
3 112 113 114
3 116 115 26
3 117 6 118
3 13 119 121
3 121 120 5
3 119 120 121
3 27 122 124
3 124 123 13
3 122 123 124
3 27 125 127
3 125 6 126
3 125 126 127
3 27 20 6
3 28 20 27
3 28 2 20
3 28 29 2
3 30 29 28
3 30 128 130
3 130 129 29
3 128 129 130
3 15 30 7
3 131 30 132
3 133 132 15
3 131 132 133
3 135 134 30
3 136 31 137
3 32 138 140
3 138 31 139
3 138 139 140
3 32 9 31
3 141 32 142
3 143 32 144
3 145 9 146
3 147 146 32
3 145 146 147
3 149 148 9
3 33 150 151
3 33 152 154
3 152 1 153
3 152 153 154
3 155 33 156
3 34 157 159
3 157 33 158
3 157 158 159
3 34 1 33
3 34 23 1
3 35 23 34
3 35 3 23
3 17 160 162
3 160 35 161
3 160 161 162
3 36 35 17
3 36 3 35
3 36 10 3
3 37 10 36
3 37 0 10
3 37 38 0
3 163 38 164
3 165 164 37
3 163 164 165
3 167 166 38
3 31 168 169
3 39 170 172
3 172 171 31
3 170 171 172
3 39 173 174
3 18 39 9
3 175 39 176
3 177 176 18
3 175 176 177
3 179 178 39
3 24 19 1
3 40 19 24
3 40 180 182
3 182 181 19
3 180 181 182
3 183 40 184
3 185 184 4
3 183 184 185
3 186 40 187
3 189 188 40
3 21 190 192
3 192 191 6
3 190 191 192
3 194 193 21
3 29 195 197
3 197 196 2
3 195 196 197
3 199 198 29
3 38 16 0
3 41 16 38
3 41 8 16
3 200 41 201
3 202 41 203
3 204 8 205
3 206 205 41
3 204 205 206
3 208 207 8
