ply
format ascii 1.0
element vertex 241
property float x
property float y
property float z
element face 197
property list uchar int vertex_index
end_header
2.329779 81.102547 -20.01346
-1.752775 50.997208 -31.126356
-0.354288 67.907143 -27.704775
0.823519 75.040977 -24.304525
-2.560465 43.371758 -27.925692
-2.917078 45.236748 -23.594309
-2.136072 52.867111 -27.261957
-1.246965 61.434555 -25.449194
-1.256853 59.885239 -30.029173
3.266441 83.620285 -17.597952
1.528246 78.754982 -19.364958
0.854513 75.633018 -21.536043
1.524912 78.225441 -22.257833
-2.195841 47.287926 -29.646574
-2.187613 42.34906 -29.644011
-1.778677 46.225136 -31.198076
-2.466597 50.643791 -20.489424
-0.336006 68.633591 -25.222879
-0.704277 65.390457 -24.111429
-0.868271 64.800583 -26.690733
-1.345919 60.754333 -27.880297
-0.844582 64.003342 -29.012159
0.238018 72.249535 -23.497057
0.201633 71.591705 -26.128099
-2.913393 39.319237 -26.027655
-2.871218 34.090191 -26.002825
-2.531061 38.281796 -27.88542
-1.988356 37.206242 -29.396574
-1.241529 36.087681 -30.508471
4.716311 85.076813 -18.010965
3.562578 82.914009 -20.47637
2.576153 80.336472 -22.781008
4.08399 81.883759 -23.068884
-3.189695 40.331188 -23.891062
-2.784983 44.327553 -25.885309
-2.420748 48.237213 -27.730474
-2.039141 52.003441 -29.363062
-1.734461 57.263351 -26.502241
-1.745813 56.490891 -28.774614
-1.568903 55.550964 -30.737612
1.735237 77.400085 -24.89908
0.392078 70.652283 -28.474081
2.307441 81.337845 -18.512117
2.775772 82.596714 -17.304364
2.79811 82.361416 -18.805706
1.929012 79.928764 -19.689209
1.906674 80.164062 -18.187866
2.307441 81.337845 -18.512117
-1.495455 50.412449 -31.808661
-1.508406 48.026413 -31.844521
-1.765726 48.611172 -31.162216
-2.48547 50.26622 -21.788433
-2.220337 52.466915 -21.410919
-1.802938 39.226256 -30.186357
-2.087985 39.777651 -29.520293
-1.902567 41.797664 -30.310076
-1.429525 38.666975 -30.742306
-1.614943 36.646962 -29.952523
-1.802938 39.226256 -30.186357
-1.030828 38.074253 -31.196494
-1.429525 38.666975 -30.742306
5.000007 84.599335 -19.364288
5.691184 85.486699 -18.113243
4.42314 83.517933 -20.596991
4.139444 83.995411 -19.243668
5.000007 84.599335 -19.364288
4.683846 83.002808 -21.893248
3.823284 82.398884 -21.772627
4.42314 83.517933 -20.596991
-3.164831 43.285028 -22.56752
-2.962198 45.678685 -22.354786
-3.053387 42.783968 -23.742686
-3.301139 40.832248 -22.715896
-3.164831 43.285028 -22.56752
-2.27841 50.552162 -27.496215
-2.462893 48.666095 -26.625436
-2.320555 50.981044 -26.391178
-1.129568 61.700836 -24.127083
-0.858224 63.678787 -23.458201
-0.975621 63.412506 -24.780311
-1.417196 59.669731 -24.720681
-1.129568 61.700836 -24.127083
-1.490713 59.348953 -25.975718
-1.660944 57.584129 -25.247204
-1.417196 59.669731 -24.720681
2.397358 78.318184 -25.072357
2.155695 78.868279 -23.840044
2.817816 79.786377 -24.013321
0.92391 71.797138 -28.723984
0.7032 72.404984 -27.639525
-2.754395 31.386429 -25.941161
-2.590496 33.543613 -26.835196
3.211082 83.827988 -16.049468
3.812905 84.672073 -16.317733
3.211082 83.827988 -16.049468
2.775772 82.596714 -17.304364
1.612315 78.892696 -17.826183
1.906674 80.164062 -18.187866
1.294701 77.366726 -18.965952
1.612315 78.892696 -17.826183
1.19138 77.194 -20.450501
0.957834 75.805744 -20.051495
1.294701 77.366726 -18.965952
-1.698099 43.735703 -31.087108
-1.902567 41.797664 -30.310076
-1.983145 44.287098 -30.421043
-1.456269 45.631218 -31.76566
-1.698099 43.735703 -31.087108
-1.456269 45.631218 -31.76566
-1.508406 48.026413 -31.844521
-2.736957 48.382206 -20.802343
-2.779022 48.818798 -19.491131
-2.736957 48.382206 -20.802343
-2.48547 50.26622 -21.788433
-2.710711 47.562698 -23.340875
-2.962198 45.678685 -22.354786
-2.711057 47.165863 -24.557354
-2.710711 47.562698 -23.340875
-2.116163 53.242695 -26.078865
-2.320555 50.981044 -26.391178
-0.520142 67.012024 -24.667154
-0.417914 67.263653 -23.307911
-0.233778 68.88522 -23.863636
-2.445393 51.010033 -19.127167
-2.779022 48.818798 -19.491131
-2.140912 52.777187 -20.056681
-2.445393 51.010033 -19.127167
-2.220337 52.466915 -21.410919
-2.140912 52.777187 -20.056681
0.655706 74.152042 -21.092144
0.957834 75.805744 -20.051495
0.347459 72.4603 -22.072651
0.655706 74.152042 -21.092144
0.546265 73.941277 -22.51655
0.053234 70.693191 -23.000725
0.347459 72.4603 -22.072651
-0.048994 70.441563 -24.359968
-0.233778 68.88522 -23.863636
0.053234 70.693191 -23.000725
-2.892305 36.704714 -26.01524
-3.088879 34.636781 -25.017595
-3.109967 37.251305 -25.03001
-2.420418 35.639416 -27.776493
-2.590496 33.543613 -26.835196
-2.70114 36.185993 -26.944122
-2.149065 35.101639 -28.53207
-2.420418 35.639416 -27.776493
-2.259708 37.744019 -28.640997
-1.780301 34.55226 -29.181849
-2.149065 35.101639 -28.53207
-1.406887 33.992979 -29.737797
-1.780301 34.55226 -29.181849
-1.614943 36.646962 -29.952523
-0.932294 33.441544 -30.186771
-1.406887 33.992979 -29.737797
-0.754794 35.509287 -30.855328
-0.932294 33.441544 -30.186771
-0.754794 35.509287 -30.855328
-1.030828 38.074253 -31.196494
5.382082 85.925866 -16.710183
5.691184 85.486699 -18.113243
4.53784 85.400338 -16.52424
5.382082 85.925866 -16.710183
3.991376 84.348549 -17.804458
3.812905 84.672073 -16.317733
4.53784 85.400338 -16.52424
3.571734 80.560021 -24.157259
2.817816 79.786377 -24.013321
3.330071 81.110116 -22.924946
5.08382 82.355743 -23.080973
4.683846 83.002808 -21.893248
4.465849 81.189221 -24.191154
5.08382 82.355743 -23.080973
3.571734 80.560021 -24.157259
4.465849 81.189221 -24.191154
-3.429136 38.308704 -22.85578
-3.301139 40.832248 -22.715896
-3.248118 37.75728 -23.961714
-3.429136 38.308704 -22.85578
-3.051544 39.825212 -24.959359
-3.109967 37.251305 -25.03001
-3.248118 37.75728 -23.961714
-2.64501 46.711265 -25.702854
-2.851031 44.782151 -24.739809
-2.711057 47.165863 -24.557354
-2.602866 46.282383 -26.807892
-2.64501 46.711265 -25.702854
-2.462893 48.666095 -26.625436
-0.554427 65.603725 -22.725963
-0.417914 67.263653 -23.307911
-0.554427 65.603725 -22.725963
-0.858224 63.678787 -23.458201
-1.915358 55.440815 -25.699007
-1.660944 57.584129 -25.247204
-1.935267 55.065231 -26.882099
-2.116163 53.242695 -26.078865
-1.915358 55.440815 -25.699007
1.962994 76.818928 -26.060795
2.397358 78.318184 -25.072357
1.374779 75.778885 -25.852024
1.962994 76.818928 -26.060795
0.918921 74.599331 -25.554747
1.279378 76.220531 -24.601803
1.374779 75.778885 -25.852024
0.607977 72.874695 -26.466533
0.512576 73.316341 -25.216312
0.918921 74.599331 -25.554747
0.296855 71.121994 -27.30109
0.607977 72.874695 -26.466533
0.7032 72.404984 -27.639525
0.614142 70.02216 -29.474297
0.92391 71.797138 -28.723984
0.124486 68.782925 -29.178469
0.614142 70.02216 -29.474297
-0.248697 67.410355 -28.793816
0.018895 69.279713 -28.089428
0.124486 68.782925 -29.178469
-0.493844 65.458455 -29.447508
-0.599435 65.955242 -28.358467
-0.248697 67.410355 -28.793816
-0.717572 63.480652 -30.010236
-0.493844 65.458455 -29.447508
-0.923707 61.4216 -30.518743
-1.050717 61.944291 -29.520666
-0.717572 63.480652 -30.010236
-1.097294 59.33836 -30.928869
-0.923707 61.4216 -30.518743
-1.253319 57.171222 -31.283089
-1.412878 57.718102 -30.383392
-1.097294 59.33836 -30.928869
-1.365848 54.982754 -31.531606
-1.253319 57.171222 -31.283089
-1.457784 52.705876 -31.725978
-1.660839 53.274086 -30.931984
-1.365848 54.982754 -31.531606
-1.495455 50.412449 -31.808661
-1.457784 52.705876 -31.725978
-3.062082 31.957733 -25.044037
-3.088879 34.636781 -25.017595
-3.062082 31.957733 -25.044037
-2.754395 31.386429 -25.941161
3 0 42 44
3 44 43 9
3 42 43 44
3 0 45 47
3 45 10 46
3 45 46 47
3 0 12 10
3 1 15 13
3 1 48 50
3 50 49 15
3 48 49 50
3 52 51 16
3 2 19 17
3 2 21 19
3 3 22 11
3 3 23 22
3 4 26 24
3 53 27 54
3 55 54 14
3 53 54 55
3 56 28 57
3 58 57 27
3 56 57 58
3 60 59 28
3 61 29 62
3 63 30 64
3 65 64 29
3 63 64 65
3 66 32 67
3 68 67 30
3 66 67 68
3 5 69 70
3 5 71 73
3 71 33 72
3 71 72 73
3 5 34 33
3 6 74 76
3 74 35 75
3 74 75 76
3 6 36 35
3 7 77 79
3 79 78 18
3 77 78 79
3 7 80 81
3 7 82 84
3 82 37 83
3 82 83 84
3 8 38 20
3 8 39 38
3 85 40 86
3 87 86 31
3 85 86 87
3 88 41 89
3 91 90 25
3 9 92 93
3 95 94 9
3 10 96 97
3 10 98 99
3 10 100 102
3 100 11 101
3 100 101 102
3 12 11 10
3 12 3 11
3 13 14 4
3 15 14 13
3 15 103 105
3 105 104 14
3 103 104 105
3 15 106 107
3 109 108 15
3 16 110 111
3 113 112 16
3 114 5 115
3 117 116 5
3 118 6 119
3 17 120 122
3 120 18 121
3 120 121 122
3 19 18 17
3 19 7 18
3 19 20 7
3 21 20 19
3 21 8 20
3 123 16 124
3 125 16 126
3 128 127 16
3 11 129 130
3 22 131 133
3 133 132 11
3 131 132 133
3 22 134 135
3 22 136 138
3 136 17 137
3 136 137 138
3 23 17 22
3 23 2 17
3 24 139 141
3 139 25 140
3 139 140 141
3 26 25 24
3 26 142 144
3 144 143 25
3 142 143 144
3 14 26 4
3 27 26 14
3 27 145 147
3 147 146 26
3 145 146 147
3 27 148 149
3 28 150 152
3 152 151 27
3 150 151 152
3 28 153 154
3 28 155 156
3 158 157 28
3 29 159 160
3 29 161 162
3 29 163 165
3 163 9 164
3 163 164 165
3 30 9 29
3 30 0 9
3 30 31 0
3 32 31 30
3 32 166 168
3 168 167 31
3 166 167 168
3 169 32 170
3 171 32 172
3 174 173 32
3 33 175 176
3 33 177 178
3 33 179 181
3 179 24 180
3 179 180 181
3 34 24 33
3 34 4 24
3 182 34 183
3 184 183 5
3 182 183 184
3 35 185 187
3 185 34 186
3 185 186 187
3 35 4 34
3 35 13 4
3 36 13 35
3 36 1 13
3 18 188 189
3 191 190 18
3 37 192 193
3 37 194 196
3 194 6 195
3 194 195 196
3 20 37 7
3 38 37 20
3 38 6 37
3 38 36 6
3 39 36 38
3 39 1 36
3 31 12 0
3 40 12 31
3 40 3 12
3 197 40 198
3 199 40 200
3 201 3 202
3 203 202 40
3 201 202 203
3 204 23 205
3 206 205 3
3 204 205 206
3 41 207 209
3 207 23 208
3 207 208 209
3 41 2 23
3 210 41 211
3 212 41 213
3 214 2 215
3 216 215 41
3 214 215 216
3 217 21 218
3 219 218 2
3 217 218 219
3 220 21 221
3 222 8 223
3 224 223 21
3 222 223 224
3 225 8 226
3 227 39 228
3 229 228 8
3 227 228 229
3 230 39 231
3 232 1 233
3 234 233 39
3 232 233 234
3 236 235 1
3 25 237 238
3 240 239 25
