ply
format ascii 1.0
element vertex 380
property float x
property float y
property float z
element face 382
property list uchar int vertex_index
end_header
-41.798634 -31.329998 13.8415
-56.142498 -31.922735 21.937916
-46.807205 -32.965546 18.749395
-52.008804 -40.869019 19.392393
-44.756683 -22.579742 18.124792
-64.977539 -29.977272 26.030949
-59.737701 -40.119843 25.772535
-43.56284 -32.577934 16.591103
-46.049332 -36.671402 16.033232
-48.988472 -22.778271 18.896568
-61.003769 -31.007214 23.686226
-62.331608 -35.142567 25.972088
-57.862473 -36.112186 23.50959
-55.393402 -44.357903 20.686062
-51.179359 -32.650898 20.429878
-53.203564 -36.853935 21.227669
-49.088966 -37.145409 18.799646
-49.382835 -40.165047 15.86209
-42.06226 -27.699593 16.923021
-40.213482 -26.59182 14.318583
-54.765717 -27.447012 20.743179
-49.724144 -28.001244 19.833874
-45.326813 -28.153057 18.694958
-65.777985 -34.031044 28.882267
-63.592518 -39.139317 28.943697
-61.656635 -44.04084 28.522827
-55.625782 -40.762283 22.665384
-58.310749 -44.542534 24.704941
-61.097977 -48.295609 26.900536
-42.483212 -32.061962 15.289163
-43.64246 -34.156982 14.910655
-59.388176 -33.588322 23.643112
-56.97261 -34.047153 22.64603
-48.882099 -32.878696 19.634195
-49.886223 -35.034977 19.791252
-47.857994 -35.124664 18.736408
-46.686295 -37.814606 14.20138
-47.620758 -38.479748 15.86494
-43.155708 -25.266495 17.785664
-41.702026 -24.922798 16.862364
-63.795219 -23.6457 22.649338
-61.690369 -24.068058 21.741982
-56.836876 -24.78064 20.516386
-54.265511 -25.072216 20.113344
-52.201202 -27.759815 20.287176
-51.713726 -25.308229 19.774302
-46.978359 -25.529217 19.028362
-44.926704 -25.467014 18.495619
-43.529541 -28.009785 17.906446
-65.395813 -32.022614 27.372395
-60.966202 -37.669647 25.93516
-62.979156 -37.154953 27.382515
-61.751144 -39.663235 27.33568
-62.51931 -41.636131 28.846973
-60.696213 -42.087536 27.116924
-52.324009 -39.021461 20.463055
-54.374107 -38.834183 21.855862
-53.718132 -40.898857 21.060274
-57.188744 -46.083107 21.505474
-56.762154 -44.547935 22.726341
-58.364136 -46.36002 23.690413
-59.706635 -46.421021 25.816097
-45.016945 -32.874592 17.742004
-46.108864 -35.028183 17.577715
-44.690384 -34.712257 16.302402
-45.048962 -36.066151 14.519658
-63.149426 -30.50655 24.769543
-63.699287 -32.573311 25.979103
-61.665138 -33.095493 24.742146
-60.173248 -35.64798 24.697313
-58.789612 -38.131783 24.555332
-52.345787 -42.313347 18.034744
-53.655491 -42.628189 19.963211
-63.976517 -45.52858 31.921659
-53.626858 -32.320946 21.180607
-54.521935 -34.458893 21.70425
-52.131721 -34.799564 20.768034
-51.040421 -37.075165 20.048561
-50.479378 -39.051228 19.005405
-47.408901 -37.022972 17.462715
-48.896717 -38.882992 17.471682
-50.550674 -40.635963 17.656528
-51.308346 -41.759304 16.057753
-41.584404 -29.757563 15.579191
-40.871815 -29.082378 14.156003
-40.953476 -27.22286 15.727286
-40.587627 -24.441957 15.70703
-57.940414 -29.315491 21.986227
-59.341675 -24.445097 21.042803
-57.333767 -27.085236 21.263571
-55.398285 -29.726486 21.327877
-52.845329 -30.092628 20.73307
-50.369415 -30.390173 20.14362
-48.04998 -30.58691 19.502865
-49.261028 -25.468685 19.434418
-47.410423 -28.14225 19.321884
-45.957397 -30.64764 18.760242
-44.152153 -30.541162 17.875061
-42.683067 -30.246643 16.819256
-40.538868 -28.241394 12.562476
-64.231308 -34.60228 27.363398
-64.721848 -36.596802 28.919693
-63.264679 -43.591621 30.399601
-62.605812 -45.979553 29.918591
-55.506256 -36.521893 22.367867
-56.55843 -38.527313 23.208424
-57.661674 -40.493271 24.226547
-55.20443 -42.733227 21.82902
-56.94331 -42.659447 23.632513
-58.803303 -42.43581 25.38743
-59.971474 -44.365669 26.631174
-61.149422 -46.286263 27.887943
-41.652912 -30.865476 13.051949
-42.2661 -31.833763 12.835975
-42.393908 -32.345061 13.627751
-42.736197 -32.711043 14.351583
-42.140923 -31.69598 14.565331
-42.2661 -31.833763 12.835975
-42.393908 -32.345061 13.627751
-56.557554 -32.984944 22.291973
-57.803558 -32.763823 22.701059
-57.388502 -31.701614 22.347002
-47.610188 -38.622197 14.116498
-47.355391 -38.116024 13.199122
-43.890482 -22.441756 17.804586
-43.089995 -23.785132 17.635022
-43.956195 -23.923119 17.955228
-63.648977 -22.560784 22.090153
-64.578533 -22.35112 22.61386
-62.596552 -22.771963 21.636475
-62.742794 -23.856879 22.19566
-63.648977 -22.560784 22.090153
-54.087521 -23.83005 19.748313
-55.363926 -23.730823 19.900008
-52.811628 -23.948056 19.578792
-52.989618 -25.190223 19.943823
-54.087521 -23.83005 19.748313
-44.841694 -24.023378 18.310206
-45.842598 -24.101256 18.536933
-45.757587 -22.65762 18.35152
-65.186676 -30.999943 26.701672
-65.903603 -30.720791 27.423434
-65.694466 -29.69812 26.752712
-58.680309 -47.090407 23.023971
-57.77644 -46.221564 22.597943
-58.092613 -46.95195 21.931501
-59.484209 -47.999157 23.506828
-59.168036 -47.268771 24.173271
-58.680309 -47.090407 23.023971
-44.741062 -35.633036 13.73022
-44.345711 -35.111566 14.715156
-44.037812 -34.678452 13.925719
-45.583163 -36.471336 13.513282
-44.741062 -35.633036 13.73022
-53.298221 -43.130974 18.311087
-52.853561 -42.805844 17.241118
-64.333153 -44.285612 32.098582
-64.56813 -45.246736 32.913187
-41.088832 -23.175773 16.163791
-41.144826 -24.682378 16.284697
-41.646032 -23.416194 16.741458
-40.528614 -22.92444 15.611097
-41.088832 -23.175773 16.163791
-58.877805 -28.00121 21.945822
-59.158802 -29.093983 22.3744
-59.1558 -23.291354 20.578384
-60.343609 -23.139775 20.879567
-49.12475 -24.123478 19.165493
-50.327284 -24.095821 19.288373
-50.191006 -22.750614 19.019448
-66.338879 -33.733131 29.700004
-66.229016 -32.738428 28.90044
-65.939785 -35.017303 29.716243
-66.338879 -33.733131 29.700004
-64.37446 -38.850401 29.777641
-64.939125 -37.579144 29.765639
-64.157183 -37.86806 28.931695
-63.878389 -40.12012 29.77102
-64.37446 -38.850401 29.777641
-61.703181 -48.244605 27.9966
-61.728903 -47.239931 28.490304
-61.1237 -47.290936 27.394239
-61.766419 -49.227311 27.4032
-61.703181 -48.244605 27.9966
-43.315821 -33.758553 14.162329
-43.062836 -33.109472 15.099909
-42.736197 -32.711043 14.351583
-44.037812 -34.678452 13.925719
-43.315821 -33.758553 14.162329
-59.011341 -32.534407 23.1996
-60.195972 -32.297768 23.664669
-59.819137 -31.243853 23.221157
-58.180393 -33.817737 23.144571
-59.011341 -32.534407 23.1996
-57.803558 -32.763823 22.701059
-48.07742 -38.954768 14.948277
-47.153526 -38.147177 15.03316
-47.610188 -38.622197 14.116498
-48.958458 -39.797417 14.946853
-48.501796 -39.322398 15.863515
-48.07742 -38.954768 14.948277
-49.973799 -40.554062 14.960593
-48.958458 -39.797417 14.946853
-42.363153 -23.613284 17.173372
-42.428867 -25.094646 17.324014
-43.089995 -23.785132 17.635022
-41.646032 -23.416194 16.741458
-42.363153 -23.613284 17.173372
-64.68629 -23.409516 23.216268
-64.578533 -22.35112 22.61386
-63.972476 -24.715601 23.189303
-64.68629 -23.409516 23.216268
-62.956156 -24.950255 22.682787
-63.972476 -24.715601 23.189303
-61.90373 -25.161434 22.229109
-62.956156 -24.950255 22.682787
-62.742794 -23.856879 22.19566
-60.752783 -25.377494 21.8237
-61.90373 -25.161434 22.229109
-56.649608 -23.585034 20.101529
-57.903401 -23.459125 20.315175
-55.551193 -24.926428 20.314865
-56.649608 -23.585034 20.101529
-55.363926 -23.730823 19.900008
-46.868426 -24.132357 18.803305
-47.983415 -24.153744 18.962465
-47.873482 -22.756884 18.737407
-45.952531 -25.498115 18.761991
-46.868426 -24.132357 18.803305
-45.842598 -24.101256 18.536933
-40.022993 -26.208985 13.514376
-40.01573 -25.2149 14.318866
-66.03793 -31.734213 28.145504
-65.903603 -30.720791 27.423434
-65.586899 -33.026829 28.127331
-66.229016 -32.738428 28.90044
-66.03793 -31.734213 28.145504
-59.839285 -47.299271 25.236112
-59.035386 -46.390521 24.753255
-59.168036 -47.268771 24.173271
-60.534956 -48.236565 25.778332
-60.402306 -47.358315 26.358317
-59.839285 -47.299271 25.236112
-61.314793 -49.147204 26.234452
-60.534956 -48.236565 25.778332
-46.401829 -37.345564 13.354143
-45.867629 -36.940378 14.360519
-45.583163 -36.471336 13.513282
-47.355391 -38.116024 13.199122
-46.401829 -37.345564 13.354143
-44.779087 -21.034405 17.844437
-45.749329 -21.16715 18.035525
-50.11425 -21.384123 18.627474
-50.191006 -22.750614 19.019448
-48.945566 -21.348745 18.543468
-50.11425 -21.384123 18.627474
-47.873482 -22.756884 18.737407
-48.945566 -21.348745 18.543468
-45.749329 -21.16715 18.035525
-45.757587 -22.65762 18.35152
-53.953074 -43.288395 19.27532
-53.000639 -42.470768 18.998978
-53.298221 -43.130974 18.311087
-54.822029 -44.153252 19.636745
-54.524446 -43.493046 20.324637
-53.953074 -43.288395 19.27532
-55.808931 -44.9658 19.976627
-54.822029 -44.153252 19.636745
-56.706603 -45.828401 20.386333
-56.291073 -45.220505 21.095768
-55.808931 -44.9658 19.976627
-57.701733 -46.64891 20.758937
-56.706603 -45.828401 20.386333
-58.092613 -46.95195 21.931501
-57.701733 -46.64891 20.758937
-64.304039 -46.485462 32.636397
-64.56813 -45.246736 32.913187
-63.747312 -46.713268 31.580962
-64.304039 -46.485462 32.636397
-52.334841 -42.528822 16.252622
-52.853561 -42.805844 17.241118
-51.827067 -42.036326 17.046249
-50.936554 -41.351191 15.058425
-50.345591 -40.962176 15.959922
-49.973799 -40.554062 14.960593
-52.02402 -42.074917 15.176492
-50.936554 -41.351191 15.058425
-52.334841 -42.528822 16.252622
-52.02402 -42.074917 15.176492
-40.202802 -24.139969 15.013089
-40.01573 -25.2149 14.318866
-40.400554 -25.516889 15.012806
-40.202802 -24.139969 15.013089
-40.528614 -22.92444 15.611097
-43.890482 -22.441756 17.804586
-44.779087 -21.034405 17.844437
-65.548935 -28.668411 26.100279
-65.694466 -29.69812 26.752712
-64.764836 -28.937126 25.432524
-65.548935 -28.668411 26.100279
-63.850779 -29.201765 24.801821
-64.063482 -30.241911 25.400246
-64.764836 -28.937126 25.432524
-62.880596 -29.453522 24.235721
-63.850779 -29.201765 24.801821
-61.807768 -29.703854 23.694063
-62.076597 -30.756882 24.227885
-62.880596 -29.453522 24.235721
-60.690479 -29.939844 23.2244
-61.807768 -29.703854 23.694063
-59.819137 -31.243853 23.221157
-60.690479 -29.939844 23.2244
-58.28746 -30.397992 22.371157
-59.158802 -29.093983 22.3744
-57.041456 -30.619113 21.962072
-57.388502 -31.701614 22.347002
-58.28746 -30.397992 22.371157
-61.517956 -22.951255 21.229157
-62.596552 -22.771963 21.636475
-60.516022 -24.256577 21.392392
-61.517956 -22.951255 21.229157
-60.343609 -23.139775 20.879567
-59.578436 -25.566014 21.474111
-60.752783 -25.377494 21.8237
-60.516022 -24.256577 21.392392
-58.089275 -24.612868 20.779595
-59.1558 -23.291354 20.578384
-57.903401 -23.459125 20.315175
-58.574482 -26.886083 21.584494
-59.578436 -25.566014 21.474111
-58.337721 -25.765166 21.153187
-57.63709 -28.200364 21.624899
-58.877805 -28.00121 21.945822
-58.574482 -26.886083 21.584494
-51.553632 -24.015593 19.458315
-52.811628 -23.948056 19.578792
-50.487377 -25.388457 19.60436
-51.553632 -24.015593 19.458315
-50.327284 -24.095821 19.288373
-41.189503 -29.741667 13.209201
-41.652912 -30.865476 13.051949
-41.335224 -30.206188 13.998752
-41.023029 -29.321174 12.412437
-41.189503 -29.741667 13.209201
-40.705342 -28.661886 13.35924
-41.061617 -28.772359 11.565787
-41.023029 -29.321174 12.412437
-40.185686 -27.033772 12.636323
-40.376175 -27.416607 13.44053
-40.022993 -26.208985 13.514376
-40.548628 -27.750877 11.689986
-40.185686 -27.033772 12.636323
-41.061617 -28.772359 11.565787
-40.548628 -27.750877 11.689986
-65.411716 -36.300182 29.734956
-65.939785 -35.017303 29.716243
-65.249916 -35.313923 28.90098
-65.411716 -36.300182 29.734956
-64.939125 -37.579144 29.765639
-63.341786 -41.368527 29.722658
-63.878389 -40.12012 29.77102
-63.055914 -40.387724 28.895335
-63.71447 -42.346272 30.498972
-63.341786 -41.368527 29.722658
-62.891994 -42.613876 29.623287
-63.977234 -43.317133 31.337553
-63.71447 -42.346272 30.498972
-63.620598 -44.560101 31.16063
-64.333153 -44.285612 32.098582
-63.977234 -43.317133 31.337553
-63.06196 -46.938755 30.579428
-63.747312 -46.713268 31.580962
-63.291165 -45.754067 30.920125
-62.457098 -47.086577 29.505628
-61.877617 -46.132908 28.903267
-61.728903 -47.239931 28.490304
-63.06196 -46.938755 30.579428
-62.457098 -47.086577 29.505628
-61.766419 -49.227311 27.4032
-61.314793 -49.147204 26.234452
3 0 112 113
3 0 114 116
3 116 115 29
3 114 115 116
3 0 117 118
3 1 119 121
3 119 32 120
3 119 120 121
3 2 35 33
3 123 122 36
3 4 124 126
3 126 125 38
3 124 125 126
3 127 40 128
3 129 41 130
3 131 130 40
3 129 130 131
3 132 43 133
3 134 45 135
3 136 135 43
3 134 135 136
3 4 137 139
3 137 47 138
3 137 138 139
3 4 38 47
3 5 140 142
3 140 49 141
3 140 141 142
3 6 52 50
3 6 54 52
3 3 57 55
3 143 60 144
3 145 144 58
3 143 144 145
3 148 147 60
3 146 147 148
3 7 64 62
3 149 65 150
3 151 150 30
3 149 150 151
3 153 152 65
3 10 68 66
3 12 69 31
3 12 70 69
3 155 154 71
3 156 73 157
3 14 76 74
3 16 77 34
3 16 78 77
3 8 79 63
3 17 80 37
3 17 81 80
3 17 82 81
3 18 85 83
3 158 86 159
3 160 159 39
3 158 159 160
3 162 161 86
3 163 87 164
3 165 88 166
3 20 89 42
3 20 90 89
3 20 91 90
3 21 92 44
3 21 93 92
3 9 167 169
3 167 94 168
3 167 168 169
3 22 95 46
3 22 96 95
3 22 97 96
3 18 98 48
3 18 83 98
3 19 99 84
3 23 170 171
3 23 172 173
3 11 100 67
3 24 101 51
3 24 174 176
3 176 175 101
3 174 175 176
3 24 177 178
3 25 102 53
3 25 103 102
3 15 104 75
3 26 105 56
3 26 106 105
3 13 107 72
3 27 108 59
3 27 109 108
3 27 110 109
3 28 111 61
3 28 179 181
3 181 180 111
3 179 180 181
3 28 182 183
3 29 30 7
3 184 30 185
3 186 185 29
3 184 185 186
3 188 187 30
3 189 31 190
3 191 190 10
3 189 190 191
3 32 192 194
3 192 31 193
3 192 193 194
3 32 12 31
3 33 34 14
3 35 34 33
3 35 16 34
3 36 37 8
3 195 37 196
3 197 196 36
3 195 196 197
3 198 17 199
3 200 199 37
3 198 199 200
3 202 201 17
3 38 39 18
3 203 39 204
3 205 204 38
3 203 204 205
3 207 206 39
3 40 208 209
3 40 210 211
3 40 212 213
3 41 214 216
3 216 215 40
3 214 215 216
3 41 217 218
3 219 42 220
3 43 221 223
3 221 42 222
3 221 222 223
3 43 20 42
3 43 44 20
3 45 44 43
3 45 21 44
3 224 46 225
3 226 225 9
3 224 225 226
3 47 227 229
3 227 46 228
3 227 228 229
3 47 22 46
3 47 48 22
3 38 48 47
3 38 18 48
3 231 230 19
3 49 232 233
3 49 234 236
3 234 23 235
3 234 235 236
3 50 51 11
3 52 51 50
3 52 24 51
3 52 53 24
3 54 53 52
3 54 25 53
3 55 56 15
3 57 56 55
3 57 26 56
3 58 59 13
3 60 59 58
3 60 27 59
3 60 61 27
3 237 61 238
3 239 238 60
3 237 238 239
3 240 28 241
3 242 241 61
3 240 241 242
3 244 243 28
3 62 63 2
3 64 63 62
3 64 8 63
3 30 64 7
3 65 64 30
3 65 8 64
3 65 36 8
3 245 36 246
3 247 246 65
3 245 246 247
3 249 248 36
3 251 250 4
3 252 9 253
3 254 9 255
3 257 256 9
3 258 4 259
3 66 67 5
3 68 67 66
3 68 11 67
3 31 68 10
3 69 68 31
3 69 11 68
3 69 50 11
3 70 50 69
3 70 6 50
3 71 72 3
3 260 72 261
3 262 261 71
3 260 261 262
3 263 13 264
3 265 264 72
3 263 264 265
3 266 13 267
3 268 58 269
3 270 269 13
3 268 269 270
3 271 58 272
3 274 273 58
3 73 275 276
3 73 277 278
3 74 75 1
3 76 75 74
3 76 15 75
3 34 76 14
3 77 76 34
3 77 15 76
3 77 55 15
3 78 55 77
3 78 3 55
3 63 35 2
3 79 35 63
3 79 16 35
3 37 79 8
3 80 79 37
3 80 16 79
3 80 78 16
3 81 78 80
3 81 3 78
3 81 71 3
3 82 71 81
3 82 279 281
3 281 280 71
3 279 280 281
3 282 82 283
3 284 283 17
3 282 283 284
3 285 82 286
3 288 287 82
3 83 84 0
3 85 84 83
3 85 19 84
3 39 85 18
3 86 85 39
3 86 19 85
3 86 289 291
3 291 290 19
3 289 290 291
3 293 292 86
3 295 294 4
3 296 5 297
3 298 5 299
3 300 66 301
3 302 301 5
3 300 301 302
3 303 66 304
3 305 10 306
3 307 306 66
3 305 306 307
3 308 10 309
3 311 310 10
3 87 312 313
3 87 314 316
3 314 1 315
3 314 315 316
3 317 41 318
3 88 319 321
3 319 41 320
3 319 320 321
3 88 322 324
3 324 323 41
3 322 323 324
3 42 325 327
3 325 88 326
3 325 326 327
3 89 88 42
3 89 328 330
3 330 329 88
3 328 329 330
3 89 331 333
3 331 87 332
3 331 332 333
3 90 87 89
3 90 1 87
3 90 74 1
3 91 74 90
3 91 14 74
3 44 91 20
3 92 91 44
3 92 14 91
3 92 33 14
3 93 33 92
3 93 2 33
3 334 45 335
3 94 336 338
3 336 45 337
3 336 337 338
3 94 21 45
3 46 94 9
3 95 94 46
3 95 21 94
3 95 93 21
3 96 93 95
3 96 2 93
3 96 62 2
3 97 62 96
3 97 7 62
3 48 97 22
3 98 97 48
3 98 7 97
3 98 29 7
3 83 29 98
3 83 0 29
3 84 339 341
3 341 340 0
3 339 340 341
3 99 342 344
3 344 343 84
3 342 343 344
3 99 345 346
3 347 99 348
3 349 348 19
3 347 348 349
3 350 99 351
3 353 352 99
3 67 49 5
3 100 49 67
3 100 23 49
3 51 100 11
3 101 100 51
3 101 23 100
3 101 354 356
3 356 355 23
3 354 355 356
3 358 357 101
3 53 359 361
3 361 360 24
3 359 360 361
3 102 362 364
3 364 363 53
3 362 363 364
3 102 365 366
3 102 367 369
3 367 73 368
3 367 368 369
3 103 73 102
3 103 370 372
3 372 371 73
3 370 371 372
3 75 32 1
3 104 32 75
3 104 12 32
3 56 104 15
3 105 104 56
3 105 12 104
3 105 70 12
3 106 70 105
3 106 6 70
3 72 57 3
3 107 57 72
3 107 26 57
3 59 107 13
3 108 107 59
3 108 26 107
3 108 106 26
3 109 106 108
3 109 6 106
3 109 54 6
3 110 54 109
3 110 25 54
3 61 110 27
3 111 110 61
3 111 25 110
3 111 103 25
3 373 103 374
3 375 374 111
3 373 374 375
3 377 376 103
3 379 378 28
