ply
format ascii 1.0
element vertex 260
property float x
property float y
property float z
element face 235
property list uchar int vertex_index
end_header
1.994446 62.044792 -34.136856
1.679049 45.329498 -34.090981
5.803764 33.672356 -31.806059
-1.617521 41.246269 -30.976141
0.207943 38.801868 -32.374084
-0.480284 48.487 -33.425438
3.059479 79.236282 -25.245634
1.455742 72.941994 -28.973886
0.322758 65.617195 -31.699526
-0.367008 57.448639 -33.228409
1.479836 53.990257 -34.787498
3.940144 49.594948 -34.981316
4.307619 41.744358 -33.690582
2.826559 36.159054 -32.36145
-1.13386 45.0373 -32.333244
-1.238134 49.82769 -32.490967
6.083651 82.827728 -23.093061
3.791517 77.766563 -27.349474
2.19075 76.23777 -27.222509
2.899733 74.704597 -29.175585
2.471519 65.819588 -33.301941
1.537525 67.784348 -32.088211
1.044596 63.995964 -33.119133
-0.082632 61.633736 -32.624748
0.677835 60.013878 -33.832123
0.450562 55.846489 -34.208359
1.659374 58.098274 -34.636177
4.065756 53.448029 -35.216072
0.848274 42.304291 -33.340302
1.440336 37.490082 -32.49984
2.117462 40.801373 -33.32283
3.489079 39.262829 -33.09684
2.972023 43.566246 -33.971123
3.844286 72.780815 -30.729204
3.123047 59.775795 -34.781418
-0.820126 40.060825 -31.884516
-0.25148 43.725578 -33.036842
0.50679 46.981033 -33.939865
4.847708 80.494682 -25.313425
1.014322 74.157684 -26.804968
2.153557 71.363159 -30.764433
0.836205 69.392036 -30.474512
-0.143106 66.913567 -29.882856
-0.590561 62.957962 -31.008314
-0.937735 58.791481 -31.828566
-1.162792 54.414543 -32.3256
-0.508722 53.064934 -33.495728
0.384417 51.499557 -34.240616
1.477219 49.730164 -34.596352
2.809877 55.901299 -35.076431
2.665207 51.897682 -35.019661
2.709816 47.780502 -34.634789
4.01066 45.683868 -34.448151
5.592566 39.955971 -33.357826
3.837015 31.420506 -31.286291
4.30208 34.860321 -32.086075
4.886131 37.766064 -32.78933
-1.495455 50.412449 -31.808661
-1.508406 48.026413 -31.844521
3.828753 75.303143 -29.115307
3.345625 76.23558 -28.262529
4.274644 76.834125 -28.202252
6.439718 31.538155 -31.297701
6.258382 29.876103 -30.899919
5.622428 32.010303 -31.408278
-1.802938 39.226256 -30.186357
-1.902567 41.797664 -30.310076
-1.429525 38.666975 -30.742306
-1.802938 39.226256 -30.186357
-1.218824 40.653547 -31.430329
-1.030828 38.074253 -31.196494
-1.429525 38.666975 -30.742306
5.978331 80.828861 -25.200685
5.46568 81.661205 -24.203243
6.596303 81.995384 -24.090503
5.344876 79.605537 -26.239224
5.978331 80.828861 -25.200685
2.397358 78.318184 -25.072357
2.817816 79.786377 -24.013321
0.92391 71.797138 -28.723984
0.7032 72.404984 -27.639525
1.235032 73.549839 -27.889427
2.619967 70.385044 -31.460109
2.998921 72.071987 -30.746818
3.465331 71.093872 -31.442495
3.589349 56.558022 -35.09095
2.966462 57.838547 -34.928925
3.745934 58.49527 -34.943444
0.567652 36.276084 -31.939767
-0.030058 36.86638 -31.788135
2.569709 34.36412 -31.928313
1.876597 35.029635 -31.997508
2.133447 36.824568 -32.430645
3.331787 33.78978 -31.82387
3.074937 31.994847 -31.390733
2.569709 34.36412 -31.928313
6.765114 34.578287 -32.081042
6.550312 33.186279 -31.720861
6.018566 35.064363 -32.16624
-1.698099 43.735703 -31.087108
-1.902567 41.797664 -30.310076
-1.456269 45.631218 -31.76566
-1.375691 43.141784 -31.654692
-1.698099 43.735703 -31.087108
-1.185997 47.432495 -32.412105
-1.456269 45.631218 -31.76566
-1.508406 48.026413 -31.844521
6.793518 83.767784 -21.902752
5.683677 83.474793 -21.905336
7.321879 83.003463 -22.970216
6.793518 83.767784 -21.902752
8.031747 83.94352 -21.779907
6.596303 81.995384 -24.090503
7.321879 83.003463 -22.970216
2.004522 66.801968 -32.695076
2.311951 68.595639 -32.121998
2.778948 67.613259 -32.728863
4.868368 53.922321 -35.19553
4.217289 55.331387 -35.16077
4.715792 52.108063 -35.171818
4.868368 53.922321 -35.19553
4.652986 50.181522 -35.05444
4.00295 51.521489 -35.098694
4.715792 52.108063 -35.171818
4.590279 48.351673 -34.867092
4.652986 50.181522 -35.05444
7.186266 31.052079 -31.212503
6.439718 31.538155 -31.297701
6.550312 33.186279 -31.720861
4.880974 73.208256 -30.543354
4.301029 74.341251 -29.892117
4.413074 71.623977 -31.308403
4.880974 73.208256 -30.543354
3.465331 71.093872 -31.442495
4.413074 71.623977 -31.308403
3.340723 66.44928 -33.230908
2.778948 67.613259 -32.728863
3.031465 64.663376 -33.718788
3.340723 66.44928 -33.230908
2.792928 62.775978 -34.136246
2.232982 63.93219 -33.719398
3.031465 64.663376 -33.718788
3.357229 61.64148 -34.458527
2.558746 60.910294 -34.459137
2.792928 62.775978 -34.136246
3.980237 60.324573 -34.707878
3.357229 61.64148 -34.458527
3.745934 58.49527 -34.943444
3.980237 60.324573 -34.707878
-0.544092 37.495859 -31.543351
-0.754794 35.509287 -30.855328
-1.030828 38.074253 -31.196494
-0.306092 39.431347 -32.1293
-0.030058 36.86638 -31.788135
-0.544092 37.495859 -31.543351
3.571734 80.560021 -24.157259
2.817816 79.786377 -24.013321
5.08382 82.355743 -23.080973
4.683846 83.002808 -21.893248
5.683677 83.474793 -21.905336
4.465849 81.189221 -24.191154
5.08382 82.355743 -23.080973
5.46568 81.661205 -24.203243
3.953594 79.865482 -25.279529
3.571734 80.560021 -24.157259
4.465849 81.189221 -24.191154
4.81678 78.241478 -27.257248
4.319612 79.130623 -26.331449
5.344876 79.605537 -26.239224
4.274644 76.834125 -28.202252
4.81678 78.241478 -27.257248
1.962994 76.818928 -26.060795
2.397358 78.318184 -25.072357
2.625115 77.737026 -26.234071
1.374779 75.778885 -25.852024
1.962994 76.818928 -26.060795
1.602536 75.197727 -27.013738
0.918921 74.599331 -25.554747
1.374779 75.778885 -25.852024
0.607977 72.874695 -26.466533
0.918921 74.599331 -25.554747
0.607977 72.874695 -26.466533
0.7032 72.404984 -27.639525
3.372009 73.742706 -29.952395
3.828753 75.303143 -29.115307
4.301029 74.341251 -29.892117
1.845541 69.573753 -31.426322
2.619967 70.385044 -31.460109
2.311951 68.595639 -32.121998
0.614142 70.02216 -29.474297
0.92391 71.797138 -28.723984
1.145973 71.167015 -29.724199
0.124486 68.782925 -29.178469
0.614142 70.02216 -29.474297
0.346549 68.152802 -30.178684
-0.248697 67.410355 -28.793816
0.124486 68.782925 -29.178469
-0.493844 65.458455 -29.447508
-0.248697 67.410355 -28.793816
-0.717572 63.480652 -30.010236
-0.493844 65.458455 -29.447508
-0.366834 64.935765 -30.445585
-0.923707 61.4216 -30.518743
-0.717572 63.480652 -30.010236
-1.097294 59.33836 -30.928869
-0.923707 61.4216 -30.518743
-0.764148 60.874721 -31.41844
-1.253319 57.171222 -31.283089
-1.097294 59.33836 -30.928869
-1.365848 54.982754 -31.531606
-1.253319 57.171222 -31.283089
-1.050264 56.603012 -32.077083
-1.457784 52.705876 -31.725978
-1.365848 54.982754 -31.531606
-1.200463 52.121116 -32.408283
-1.495455 50.412449 -31.808661
-1.457784 52.705876 -31.725978
3.437817 54.674664 -35.146251
3.589349 56.558022 -35.09095
4.217289 55.331387 -35.16077
4.625537 46.396133 -34.60051
3.975402 47.639408 -34.714734
4.590279 48.351673 -34.867092
4.658451 44.580225 -34.287487
4.625537 46.396133 -34.60051
4.80693 42.61047 -33.908703
4.15914 43.714113 -34.069367
4.658451 44.580225 -34.287487
5.449404 41.716276 -33.742325
4.950093 40.850164 -33.524204
4.80693 42.61047 -33.908703
6.060688 40.559675 -33.543816
5.449404 41.716276 -33.742325
6.124169 39.195585 -33.216515
6.060688 40.559675 -33.543816
1.183849 35.620192 -32.002645
0.567652 36.276084 -31.939767
0.82414 38.145975 -32.436962
1.183849 35.620192 -32.002645
1.876597 35.029635 -31.997508
3.664416 29.503733 -30.849685
3.074937 31.994847 -31.390733
4.504008 29.020821 -30.733059
3.664416 29.503733 -30.849685
4.639054 30.884379 -31.148393
4.504008 29.020821 -30.733059
4.871587 32.604286 -31.548285
4.639054 30.884379 -31.148393
4.069548 33.140414 -31.686183
5.052922 34.266339 -31.946067
5.622428 32.010303 -31.408278
4.871587 32.604286 -31.548285
5.559749 37.111217 -32.657876
6.018566 35.064363 -32.16624
5.344947 35.71921 -32.297694
5.912967 38.206171 -32.942124
5.559749 37.111217 -32.657876
5.239349 38.861018 -33.073578
6.124169 39.195585 -33.216515
5.912967 38.206171 -32.942124
3 57 15 58
3 59 19 60
3 61 60 17
3 59 60 61
3 0 22 20
3 0 24 22
3 0 26 24
3 1 30 28
3 1 32 30
3 2 62 64
3 62 63 64
3 3 65 66
3 3 67 68
3 3 69 71
3 69 35 70
3 69 70 71
3 5 36 14
3 5 37 36
3 72 38 73
3 74 73 16
3 72 73 74
3 76 75 38
3 6 77 78
3 7 39 18
3 7 79 81
3 81 80 39
3 79 80 81
3 82 40 83
3 84 83 33
3 82 83 84
3 8 41 21
3 8 42 41
3 8 43 42
3 9 44 23
3 9 45 44
3 9 46 45
3 10 47 25
3 10 48 47
3 85 49 86
3 87 86 34
3 85 86 87
3 11 50 27
3 11 51 50
3 11 52 51
3 4 88 89
3 13 90 92
3 92 91 29
3 90 91 92
3 13 93 95
3 93 54 94
3 93 94 95
3 13 55 54
3 12 56 31
3 12 53 56
3 98 97 2
3 96 97 98
3 99 3 100
3 101 14 102
3 103 102 3
3 101 102 103
3 15 104 106
3 104 14 105
3 104 105 106
3 15 5 14
3 107 16 108
3 109 16 110
3 109 110 111
3 113 112 16
3 17 18 6
3 19 18 17
3 19 7 18
3 20 114 116
3 114 21 115
3 114 115 116
3 22 21 20
3 22 8 21
3 22 23 8
3 24 23 22
3 24 9 23
3 24 25 9
3 26 25 24
3 26 10 25
3 117 27 118
3 119 27 120
3 121 11 122
3 123 122 27
3 121 122 123
3 125 124 11
3 28 29 4
3 30 29 28
3 30 13 29
3 30 31 13
3 32 31 30
3 32 12 31
3 128 127 2
3 126 127 128
3 129 33 130
3 131 33 132
3 134 133 33
3 135 20 136
3 137 20 138
3 139 0 140
3 141 140 20
3 139 140 141
3 142 34 143
3 144 143 0
3 142 143 144
3 145 34 146
3 148 147 34
3 35 149 151
3 149 150 151
3 35 152 154
3 152 4 153
3 152 153 154
3 14 35 3
3 36 35 14
3 36 4 35
3 36 28 4
3 37 28 36
3 37 1 28
3 155 6 156
3 16 157 159
3 157 158 159
3 38 160 162
3 162 161 16
3 160 161 162
3 38 163 165
3 163 6 164
3 163 164 165
3 38 17 6
3 166 17 167
3 168 167 38
3 166 167 168
3 170 169 17
3 18 171 173
3 173 172 6
3 171 172 173
3 39 174 176
3 176 175 18
3 174 175 176
3 39 177 178
3 39 179 180
3 182 181 39
3 33 183 185
3 183 19 184
3 183 184 185
3 40 19 33
3 40 7 19
3 21 186 188
3 186 40 187
3 186 187 188
3 41 40 21
3 41 7 40
3 41 189 191
3 191 190 7
3 189 190 191
3 42 192 194
3 194 193 41
3 192 193 194
3 42 195 196
3 42 197 198
3 43 199 201
3 201 200 42
3 199 200 201
3 43 202 203
3 23 43 8
3 44 43 23
3 44 204 206
3 206 205 43
3 204 205 206
3 44 207 208
3 45 209 211
3 211 210 44
3 209 210 211
3 45 212 213
3 45 214 216
3 214 15 215
3 214 215 216
3 46 15 45
3 46 5 15
3 25 46 9
3 47 46 25
3 47 5 46
3 47 37 5
3 48 37 47
3 48 1 37
3 34 26 0
3 49 26 34
3 49 10 26
3 27 217 219
3 217 49 218
3 217 218 219
3 50 49 27
3 50 10 49
3 50 48 10
3 51 48 50
3 51 1 48
3 51 32 1
3 52 32 51
3 52 12 32
3 220 52 221
3 222 221 11
3 220 221 222
3 223 52 224
3 225 12 226
3 227 226 52
3 225 226 227
3 228 53 229
3 230 229 12
3 228 229 230
3 231 53 232
3 234 233 53
3 29 235 237
3 237 236 4
3 235 236 237
3 239 238 29
3 54 240 241
3 54 242 243
3 54 244 245
3 55 246 248
3 248 247 54
3 246 247 248
3 55 249 251
3 249 2 250
3 249 250 251
3 31 55 13
3 56 55 31
3 56 2 55
3 56 252 254
3 254 253 2
3 252 253 254
3 53 255 257
3 257 256 56
3 255 256 257
3 53 258 259
