ply
format ascii 1.0
element vertex 472
property float x
property float y
property float z
element face 453
property list uchar int vertex_index
end_header
34.260532 -92.982216 35.617607
43.424194 -97.9105 19.90414
40.25967 -91.584564 41.664864
39.299358 -98.953766 28.362278
36.562416 -105.41407 15.936792
31.964926 -101.650589 23.236652
47.101246 -87.881676 22.355679
46.625519 -93.094917 10.802382
41.213184 -103.326988 7.766876
37.319416 -92.902679 38.814594
39.833496 -95.471756 35.192932
36.857925 -96.724815 32.024693
35.942253 -100.499229 25.438274
33.465862 -97.13353 29.040127
42.272171 -104.900215 -1.895254
44.023514 -95.244881 26.387505
46.127903 -90.439171 27.620203
45.473339 -93.068855 21.490376
46.624477 -90.38623 16.559496
45.088451 -95.648613 15.338788
42.553886 -100.504829 13.651274
34.237617 -108.834908 10.756348
42.640289 -92.756554 37.582794
42.120026 -96.233826 31.035772
41.512005 -99.252899 24.314169
40.467678 -102.025345 17.869013
38.285667 -102.192688 21.814672
34.304031 -104.369843 19.627928
29.72348 -106.458405 18.532627
37.64579 -88.879738 44.987537
38.812634 -104.848732 11.938157
36.664639 -108.012459 6.490664
34.262909 -111.640099 1.331241
35.822235 -93.044106 37.192451
37.122623 -94.829872 35.442116
35.578552 -94.991867 33.797634
35.22464 -96.966492 30.438332
33.936932 -95.013985 32.271141
43.738506 -96.604042 23.133514
44.800964 -94.260376 23.954224
44.540195 -95.56385 20.778116
45.265755 -94.351807 18.40136
44.279858 -96.847099 17.627197
43.976376 -98.142105 14.531085
43.040241 -99.198128 16.735254
41.764767 -90.337021 42.695744
42.953144 -90.81488 40.619179
41.484413 -92.383766 39.725483
39.602417 -97.255478 31.778057
41.014179 -96.090431 33.186188
40.76384 -97.764153 29.782906
41.849583 -97.790039 27.664953
40.441002 -99.342072 26.391958
39.997017 -100.851067 23.076841
38.873936 -100.590263 25.021294
34.027908 -101.060127 24.185587
35.219418 -102.415504 22.415213
33.14278 -103.194298 21.412516
32.07505 -105.384811 18.905083
30.925457 -104.028442 20.747658
46.395691 -88.312943 36.165634
46.662121 -89.215523 24.987068
47.500999 -86.500984 19.739792
46.59359 -91.709175 13.665131
47.188454 -89.007645 14.121764
41.72303 -104.053062 2.88314
38.619785 -103.79425 16.848749
39.715157 -103.410713 14.835273
37.677807 -105.299889 13.973609
32.948364 -110.663223 8.347715
35.41428 -108.538094 8.645756
34.170197 -110.307976 6.129504
35.483608 -109.771339 3.887574
32.894295 -112.179016 3.66562
38.786785 -92.437729 40.344276
40.040798 -93.584801 38.519791
38.598095 -94.39032 37.059181
38.384075 -96.262306 33.654781
38.100552 -98.070808 30.230206
37.698009 -99.837135 26.873627
36.478882 -98.608025 28.662113
34.718151 -98.985527 27.209696
32.813896 -99.347351 26.009335
44.33371 -102.136719 -1.095409
43.59621 -103.862976 -3.840708
44.31831 -93.804115 29.622938
45.100189 -92.907562 27.118862
45.753029 -91.773445 24.574509
46.299812 -90.485077 22.017031
46.781654 -89.115837 19.46501
46.068161 -91.754929 19.019842
45.940422 -93.048286 16.025173
44.889687 -96.985649 12.326362
43.590107 -99.482498 11.508229
41.94606 -101.869553 10.662745
35.456924 -107.08876 13.271723
44.053955 -90.892967 38.323868
41.241325 -94.300865 36.527477
43.128639 -95.930908 28.759403
42.843468 -97.377594 25.439426
42.505444 -98.745949 22.14296
42.073086 -100.068901 18.91329
41.062248 -100.652672 21.035913
39.395294 -102.323311 19.885946
37.513924 -103.790817 18.781422
37.133663 -101.584656 23.656759
36.382378 -103.336845 20.629721
35.442867 -105.115242 17.816792
30.857067 -107.621712 16.644438
42.082695 -88.168419 45.355461
40.505821 -89.469826 44.533287
39.18399 -88.254425 46.143837
38.979176 -90.393616 43.406147
37.486511 -90.924301 42.033142
32.6096 -92.875465 34.235844
32.183441 -95.059914 31.006607
30.778048 -99.832954 25.179884
47.253311 -87.722702 16.931297
43.065605 -103.145302 0.866116
40.858181 -105.792564 0.118237
41.515678 -101.384789 15.781417
40.819458 -102.734955 12.763008
39.988655 -104.159271 9.85811
36.596504 -106.872894 11.248533
37.78479 -106.374481 9.164728
39.041504 -105.69001 7.053786
38.002678 -107.345581 4.329333
47.342894 -87.270748 23.780987
47.123331 -87.937672 25.096682
46.881684 -88.548599 23.671374
47.521725 -86.603665 22.439745
47.342894 -87.270748 23.780987
47.301123 -87.19133 21.047736
47.721601 -85.913319 21.131802
47.521725 -86.603665 22.439745
46.941223 -91.728531 11.06753
46.925258 -91.03566 12.498905
46.609555 -92.402046 12.233757
47.003872 -92.440013 9.690017
46.941223 -91.728531 11.06753
46.63505 -93.82209 9.391989
47.003872 -92.440013 9.690017
41.841825 -102.873481 6.730243
42.15294 -102.113613 8.165588
40.788732 -104.114059 6.358847
41.841825 -102.873481 6.730243
32.898289 -111.440064 6.065057
33.55928 -110.4856 7.23861
32.287372 -111.617687 7.174163
32.260338 -112.375584 4.833115
33.532246 -111.243496 4.897562
32.898289 -111.440064 6.065057
31.594611 -113.362278 3.672429
32.260338 -112.375584 4.833115
45.477092 -95.016807 14.199016
45.903078 -93.716644 14.542208
45.514437 -94.34845 15.68198
44.989069 -96.317131 13.832575
45.377711 -95.685326 12.692803
45.477092 -95.016807 14.199016
43.172682 -92.73008 36.420822
43.879514 -91.798286 36.791359
43.347122 -91.82476 37.953331
42.245282 -95.397419 32.700118
41.692358 -95.325722 33.775326
41.567103 -96.162128 32.11098
42.762003 -95.306583 31.543521
42.245282 -95.397419 32.700118
42.624333 -96.082367 29.897588
43.266309 -95.155124 30.405337
42.762003 -95.306583 31.543521
33.758747 -105.369843 18.354454
34.328165 -105.742542 17.448886
34.873449 -104.742542 18.72236
29.062378 -107.685623 17.540358
29.629171 -108.267277 16.596264
30.290273 -107.040059 17.588532
41.427921 -87.70832 46.196003
42.250332 -87.031307 46.492752
40.639484 -88.359024 45.784916
41.294258 -88.819122 44.944374
41.427921 -87.70832 46.196003
38.41489 -88.567082 45.565687
38.491947 -87.507148 46.860042
37.722847 -87.819805 46.281892
31.735847 -92.883892 33.708264
31.920594 -91.779354 35.318243
31.522768 -93.976117 32.093645
32.396521 -93.96769 32.621226
31.735847 -92.883892 33.708264
30.181266 -98.842094 26.250514
31.179157 -98.608109 26.572505
47.075156 -87.135106 36.203277
46.772949 -87.932389 34.821669
46.363552 -89.73954 29.1084
45.795285 -90.959221 28.926738
47.482813 -87.675278 14.274464
47.499111 -88.323738 12.919895
43.393867 -102.304688 2.261734
43.99196 -101.793262 1.266261
40.13645 -106.195873 1.15764
41.290605 -104.922813 1.500689
40.568874 -105.326122 2.540091
39.618438 -107.10004 -0.195992
40.13645 -106.195873 1.15764
35.578722 -110.382702 1.497132
36.189071 -109.448322 2.775299
34.873258 -110.705719 2.609407
34.99637 -111.32338 0.185285
35.578722 -110.382702 1.497132
33.635628 -112.613216 0.070301
34.99637 -111.32338 0.185285
41.810778 -105.795468 -3.26223
41.078565 -106.255809 -2.253032
42.358956 -90.575951 41.657461
43.133585 -89.777813 42.010212
42.539396 -89.538883 43.048495
36.950668 -88.007206 45.731413
37.722847 -87.819805 46.281892
36.891393 -89.009209 44.316195
36.950668 -88.007206 45.731413
45.719435 -89.451966 36.009391
45.943482 -88.553288 37.460596
46.146168 -89.133065 34.712988
45.719435 -89.451966 36.009391
46.772949 -87.932389 34.821669
46.146168 -89.133065 34.712988
46.90772 -88.567375 26.444887
46.640612 -89.1792 27.761454
46.395012 -89.827347 26.303635
46.90772 -88.567375 26.444887
47.123331 -87.937672 25.096682
47.898153 -85.236538 19.802666
47.721601 -85.913319 21.131802
47.715878 -85.811748 18.444845
47.898153 -85.236538 19.802666
47.22269 -89.684894 12.727221
46.891022 -90.35841 13.893448
46.925258 -91.03566 12.498905
47.499111 -88.323738 12.919895
47.22269 -89.684894 12.727221
42.096749 -103.236518 4.288374
42.72258 -102.758567 3.270245
41.043655 -104.477097 3.916979
42.096749 -103.236518 4.288374
40.568874 -105.326122 2.540091
41.043655 -104.477097 3.916979
32.24768 -113.153988 2.448337
32.931987 -112.88453 1.281147
33.578602 -111.909558 2.49843
32.24768 -113.153988 2.448337
31.594611 -113.362278 3.672429
44.908425 -101.549202 -2.048784
45.174754 -100.718643 -0.686782
44.539675 -102.41233 -3.421434
44.908425 -101.549202 -2.048784
43.96496 -102.999848 -2.468058
44.193216 -103.235405 -4.779702
44.539675 -102.41233 -3.421434
42.472797 -105.276848 -4.234957
42.93419 -104.381596 -2.867981
41.810778 -105.795468 -3.26223
43.155443 -104.719242 -5.201728
42.472797 -105.276848 -4.234957
44.193216 -103.235405 -4.779702
43.155443 -104.719242 -5.201728
44.890488 -92.641693 29.928106
44.485562 -93.031261 31.208278
45.281427 -92.193416 28.676068
44.890488 -92.641693 29.928106
44.709249 -93.355839 28.3709
45.614046 -91.673367 27.369532
45.795285 -90.959221 28.926738
45.281427 -92.193416 28.676068
46.229662 -93.047089 13.362188
46.267006 -92.378731 14.845152
45.903078 -93.716644 14.542208
46.245627 -93.739959 11.930813
46.609555 -92.402046 12.233757
46.229662 -93.047089 13.362188
46.203081 -94.438637 10.470921
46.245627 -93.739959 11.930813
45.335165 -96.384002 11.23291
45.377711 -95.685326 12.692803
44.754429 -97.686954 10.85143
45.335165 -96.384002 11.23291
44.104639 -98.935379 10.442364
44.754429 -97.686954 10.85143
44.239897 -98.234073 11.917295
43.341402 -100.191368 10.036264
44.104639 -98.935379 10.442364
42.519379 -101.384895 9.613522
43.341402 -100.191368 10.036264
42.768084 -100.676026 11.085487
41.579622 -102.59827 9.21481
42.15294 -102.113613 8.165588
42.519379 -101.384895 9.613522
34.897075 -107.013099 14.243081
36.00967 -106.251415 14.604257
35.449821 -106.175754 15.575616
34.280659 -107.951977 13.032491
34.897075 -107.013099 14.243081
33.671005 -108.825051 11.774804
34.847271 -107.961834 12.014035
34.280659 -107.951977 13.032491
33.013784 -109.793816 10.630592
33.671005 -108.825051 11.774804
32.369158 -110.707974 9.426276
33.59299 -109.749066 9.552032
33.013784 -109.793816 10.630592
31.692076 -111.704292 8.32039
32.369158 -110.707974 9.426276
32.287372 -111.617687 7.174163
31.692076 -111.704292 8.32039
43.704797 -89.880703 40.903107
43.133585 -89.777813 42.010212
44.255203 -89.919747 39.755451
43.704797 -89.880703 40.903107
43.50355 -90.853924 39.471524
44.772614 -89.8433 38.539713
44.255203 -89.919747 39.755451
44.548567 -90.741977 37.088509
44.772614 -89.8433 38.539713
44.548567 -90.741977 37.088509
43.879514 -91.798286 36.791359
41.805931 -94.430938 35.445971
41.127752 -95.195648 34.856832
41.692358 -95.325722 33.775326
42.505413 -93.658783 35.973629
41.940807 -93.528709 37.055135
41.805931 -94.430938 35.445971
43.172682 -92.73008 36.420822
42.505413 -93.658783 35.973629
43.861145 -94.091728 30.837104
44.485562 -93.031261 31.208278
43.723474 -94.867512 29.19117
43.861145 -94.091728 30.837104
43.266309 -95.155124 30.405337
34.890047 -106.026341 16.515615
35.449821 -106.175754 15.575616
36.002641 -105.264656 16.876792
34.890047 -106.026341 16.515615
34.328165 -105.742542 17.448886
32.644256 -105.877327 17.993032
33.758747 -105.369843 18.354454
33.18954 -104.877327 19.266506
32.035265 -106.995778 16.862709
32.644256 -105.877327 17.993032
31.466058 -106.503262 17.77476
31.420392 -108.019345 15.696561
32.035265 -106.995778 16.862709
30.194941 -108.755448 15.613041
31.420392 -108.019345 15.696561
30.194941 -108.755448 15.613041
29.629171 -108.267277 16.596264
42.895701 -87.358497 45.607429
42.250332 -87.031307 46.492752
42.69836 -88.454583 44.378353
42.895701 -87.358497 45.607429
41.923731 -89.25272 44.025602
42.539396 -89.538883 43.048495
42.69836 -88.454583 44.378353
39.286774 -87.139374 47.306537
38.59473 -86.392098 48.022743
38.491947 -87.507148 46.860042
39.978569 -87.751323 46.590191
40.081353 -86.636272 47.752891
39.286774 -87.139374 47.306537
39.844905 -88.862125 45.338562
40.639484 -88.359024 45.784916
39.978569 -87.751323 46.590191
36.811754 -90.03149 42.838997
37.56615 -89.902019 43.51034
36.891393 -89.009209 44.316195
36.742151 -91.012668 41.273251
36.811754 -90.03149 42.838997
36.658603 -92.001857 39.663977
37.402963 -91.91349 40.423868
36.742151 -91.012668 41.273251
35.910013 -92.072571 38.852905
36.570825 -92.973393 38.003523
36.658603 -92.001857 39.663977
35.14991 -92.032204 38.083635
35.910013 -92.072571 38.852905
34.369058 -92.001259 37.296213
35.041383 -93.013161 36.405029
35.14991 -92.032204 38.083635
33.577632 -91.903759 36.588085
34.369058 -92.001259 37.296213
32.752167 -91.850383 35.897204
32.063161 -90.754272 36.979602
31.920594 -91.779354 35.318243
33.435066 -92.928841 34.926726
33.577632 -91.903759 36.588085
32.752167 -91.850383 35.897204
31.253127 -95.173665 30.567386
31.522768 -93.976117 32.093645
31.881854 -96.221588 29.485867
31.253127 -95.173665 30.567386
30.95154 -96.335339 29.046646
32.523065 -97.258397 28.502626
32.824652 -96.096722 30.023367
31.881854 -96.221588 29.485867
32.197081 -98.365307 26.987231
33.139879 -98.240441 27.524731
32.523065 -97.258397 28.502626
31.795972 -99.590153 25.59461
32.197081 -98.365307 26.987231
31.179157 -98.608109 26.572505
29.707442 -100.189537 24.993143
30.181266 -98.842094 26.250514
30.277026 -101.107601 23.933627
29.707442 -100.189537 24.993143
30.870466 -102.016419 22.962011
31.371487 -100.741771 24.208268
30.277026 -101.107601 23.933627
30.350731 -103.205345 21.717514
31.445191 -102.839516 21.992155
30.870466 -102.016419 22.962011
29.760781 -104.511662 20.617904
30.350731 -103.205345 21.717514
29.159792 -105.726643 19.510389
30.324469 -105.243424 19.640143
29.760781 -104.511662 20.617904
28.500658 -107.044186 18.539746
29.159792 -105.726643 19.510389
29.062378 -107.685623 17.540358
28.500658 -107.044186 18.539746
46.669597 -87.431912 37.540594
45.943482 -88.553288 37.460596
46.669597 -87.431912 37.540594
47.075156 -87.135106 36.203277
46.363552 -89.73954 29.1084
46.640612 -89.1792 27.761454
47.592033 -86.422607 17.040598
47.715878 -85.811748 18.444845
47.377155 -87.111843 18.335545
47.515242 -87.032806 15.67923
47.220883 -88.365173 15.52653
47.482813 -87.675278 14.274464
47.592033 -86.422607 17.040598
47.515242 -87.032806 15.67923
46.63505 -93.82209 9.391989
46.203081 -94.438637 10.470921
44.626013 -101.288971 0.285498
45.174754 -100.718643 -0.686782
43.699658 -102.64101 -0.114647
44.626013 -101.288971 0.285498
43.99196 -101.793262 1.266261
42.394317 -103.599182 1.874628
43.393867 -102.304688 2.261734
42.72258 -102.758567 3.270245
40.371571 -106.701984 -1.246286
41.078565 -106.255809 -2.253032
41.565176 -105.34639 -0.888509
40.371571 -106.701984 -1.246286
39.618438 -107.10004 -0.195992
39.702893 -105.29557 6.002302
40.788732 -104.114059 6.358847
40.127344 -104.508499 7.410331
39.18348 -106.123356 4.640076
39.702893 -105.29557 6.002302
38.522091 -106.517796 5.69156
38.708698 -106.972381 3.263187
39.18348 -106.123356 4.640076
37.448606 -108.235443 2.996179
36.743143 -108.55846 4.108453
36.189071 -109.448322 2.775299
38.708698 -106.972381 3.263187
37.448606 -108.235443 2.996179
33.635628 -112.613216 0.070301
32.931987 -112.88453 1.281147
3 0 35 33
3 0 37 35
3 1 40 38
3 1 42 40
3 1 44 42
3 2 47 45
3 3 50 48
3 3 52 50
3 3 54 52
3 5 57 55
3 5 59 57
3 6 127 129
3 129 128 61
3 127 128 129
3 6 130 131
3 6 132 134
3 132 62 133
3 132 133 134
3 7 135 137
3 137 136 63
3 135 136 137
3 7 138 139
3 7 140 141
3 8 142 143
3 8 144 145
3 4 68 66
3 146 71 147
3 148 147 69
3 146 147 148
3 149 73 150
3 151 150 71
3 149 150 151
3 153 152 73
3 9 76 74
3 11 77 34
3 11 78 77
3 11 80 78
3 13 81 36
3 13 82 81
3 14 84 83
3 15 86 85
3 17 87 39
3 17 88 87
3 17 90 88
3 19 91 41
3 19 154 156
3 156 155 91
3 154 155 156
3 19 157 159
3 157 92 158
3 157 158 159
3 20 93 43
3 20 94 93
3 22 96 46
3 22 160 162
3 162 161 96
3 160 161 162
3 10 97 75
3 23 163 165
3 165 164 49
3 163 164 165
3 23 166 167
3 23 168 170
3 168 98 169
3 168 169 170
3 24 99 51
3 24 100 99
3 24 102 100
3 26 103 53
3 26 104 103
3 12 105 79
3 27 106 56
3 27 107 106
3 27 171 173
3 173 172 107
3 171 172 173
3 28 108 58
3 28 174 176
3 176 175 108
3 174 175 176
3 177 109 178
3 179 110 180
3 181 180 109
3 179 180 181
3 29 182 184
3 182 111 183
3 182 183 184
3 29 112 111
3 29 113 112
3 185 114 186
3 187 115 188
3 189 188 114
3 187 188 189
3 190 116 191
3 193 192 60
3 16 194 195
3 18 117 89
3 197 196 64
3 198 118 199
3 200 119 201
3 202 201 65
3 200 201 202
3 204 203 119
3 25 120 101
3 30 121 67
3 30 122 121
3 21 123 95
3 31 124 70
3 31 125 124
3 31 126 125
3 32 205 207
3 207 206 72
3 205 206 207
3 32 208 209
3 32 210 211
3 33 34 9
3 35 34 33
3 35 11 34
3 35 36 11
3 37 36 35
3 37 13 36
3 213 212 14
3 38 39 15
3 40 39 38
3 40 17 39
3 40 41 17
3 42 41 40
3 42 19 41
3 42 43 19
3 44 43 42
3 44 20 43
3 45 214 216
3 214 46 215
3 214 215 216
3 47 46 45
3 47 22 46
3 48 49 10
3 50 49 48
3 50 23 49
3 50 51 23
3 52 51 50
3 52 24 51
3 52 53 24
3 54 53 52
3 54 26 53
3 55 56 12
3 57 56 55
3 57 27 56
3 57 58 27
3 59 58 57
3 59 28 58
3 217 29 218
3 220 219 29
3 221 60 222
3 223 60 224
3 226 225 60
3 61 227 229
3 229 228 16
3 227 228 229
3 231 230 61
3 62 232 233
3 62 234 235
3 63 64 18
3 236 64 237
3 238 237 63
3 236 237 238
3 240 239 64
3 241 65 242
3 243 65 244
3 246 245 65
3 66 67 25
3 68 67 66
3 68 30 67
3 69 70 21
3 71 70 69
3 71 31 70
3 71 72 31
3 73 72 71
3 73 32 72
3 73 247 249
3 249 248 32
3 247 248 249
3 251 250 73
3 74 75 2
3 76 75 74
3 76 10 75
3 34 76 9
3 77 76 34
3 77 10 76
3 77 48 10
3 78 48 77
3 78 3 48
3 78 79 3
3 80 79 78
3 80 12 79
3 36 80 11
3 81 80 36
3 81 12 80
3 81 55 12
3 82 55 81
3 82 5 55
3 83 252 253
3 84 254 256
3 256 255 83
3 254 255 256
3 84 257 258
3 259 84 260
3 261 260 14
3 259 260 261
3 262 84 263
3 265 264 84
3 85 266 267
3 86 268 270
3 270 269 85
3 268 269 270
3 86 271 273
3 271 16 272
3 271 272 273
3 39 86 15
3 87 86 39
3 87 16 86
3 87 61 16
3 88 61 87
3 88 6 61
3 88 89 6
3 90 89 88
3 90 18 89
3 41 90 17
3 91 90 41
3 91 18 90
3 91 63 18
3 274 63 275
3 276 275 91
3 274 275 276
3 277 7 278
3 279 278 63
3 277 278 279
3 281 280 7
3 92 282 283
3 92 284 285
3 43 92 19
3 93 92 43
3 93 286 288
3 288 287 92
3 286 287 288
3 93 289 290
3 94 291 293
3 293 292 93
3 291 292 293
3 94 294 296
3 294 8 295
3 294 295 296
3 297 95 298
3 299 298 4
3 297 298 299
3 300 95 301
3 302 21 303
3 304 303 95
3 302 303 304
3 305 21 306
3 307 69 308
3 309 308 21
3 307 308 309
3 310 69 311
3 313 312 69
3 46 314 315
3 96 316 318
3 318 317 46
3 316 317 318
3 96 319 320
3 96 321 322
3 324 323 96
3 75 47 2
3 97 47 75
3 97 22 47
3 49 97 10
3 325 97 326
3 327 326 49
3 325 326 327
3 328 22 329
3 330 329 97
3 328 329 330
3 332 331 22
3 333 85 334
3 98 335 337
3 335 85 336
3 335 336 337
3 98 15 85
3 51 98 23
3 99 98 51
3 99 15 98
3 99 38 15
3 100 38 99
3 100 1 38
3 100 101 1
3 102 101 100
3 102 25 101
3 53 102 24
3 103 102 53
3 103 25 102
3 103 66 25
3 104 66 103
3 104 4 66
3 79 54 3
3 105 54 79
3 105 26 54
3 56 105 12
3 106 105 56
3 106 26 105
3 106 104 26
3 107 104 106
3 107 4 104
3 107 338 340
3 340 339 4
3 338 339 340
3 342 341 107
3 58 343 345
3 345 344 27
3 343 344 345
3 108 346 348
3 348 347 58
3 346 347 348
3 108 349 350
3 108 351 352
3 354 353 108
3 109 355 356
3 109 357 358
3 109 359 361
3 359 45 360
3 359 360 361
3 110 45 109
3 110 2 45
3 111 362 364
3 362 363 364
3 111 365 367
3 365 366 367
3 111 368 370
3 368 110 369
3 368 369 370
3 112 110 111
3 112 2 110
3 112 74 2
3 113 74 112
3 113 9 74
3 371 113 372
3 373 372 29
3 371 372 373
3 374 113 375
3 376 9 377
3 378 377 113
3 376 377 378
3 379 33 380
3 381 380 9
3 379 380 381
3 382 33 383
3 384 0 385
3 386 385 33
3 384 385 386
3 387 0 388
3 114 389 391
3 389 390 391
3 114 392 394
3 392 0 393
3 392 393 394
3 114 37 0
3 115 37 114
3 115 13 37
3 395 115 396
3 397 115 398
3 397 398 399
3 400 13 401
3 402 401 115
3 400 401 402
3 403 82 404
3 405 404 13
3 403 404 405
3 116 406 408
3 406 82 407
3 406 407 408
3 116 5 82
3 409 116 410
3 411 116 412
3 413 5 414
3 415 414 116
3 413 414 415
3 416 59 417
3 418 417 5
3 416 417 418
3 419 59 420
3 421 28 422
3 423 422 59
3 421 422 423
3 424 28 425
3 427 426 28
3 60 428 429
3 431 430 60
3 433 432 16
3 89 62 6
3 117 62 89
3 117 434 436
3 436 435 62
3 434 435 436
3 64 117 18
3 437 117 438
3 439 438 64
3 437 438 439
3 441 440 117
3 443 442 7
3 444 83 445
3 118 446 448
3 446 83 447
3 446 447 448
3 118 14 83
3 65 449 451
3 449 118 450
3 449 450 451
3 119 118 65
3 119 14 118
3 119 452 454
3 454 453 14
3 452 453 454
3 456 455 119
3 101 44 1
3 120 44 101
3 120 20 44
3 67 120 25
3 121 120 67
3 121 20 120
3 121 94 20
3 122 94 121
3 122 8 94
3 95 68 4
3 123 68 95
3 123 30 68
3 70 123 21
3 124 123 70
3 124 30 123
3 124 122 30
3 125 122 124
3 125 8 122
3 125 457 459
3 459 458 8
3 457 458 459
3 126 460 462
3 462 461 125
3 460 461 462
3 126 463 464
3 72 126 31
3 465 126 466
3 467 466 72
3 465 466 467
3 469 468 126
3 471 470 32
