ply
format ascii 1.0
element vertex 251
property float x
property float y
property float z
element face 241
property list uchar int vertex_index
end_header
52.955032 -15.226645 -4.944427
46.569439 -28.34927 10.645838
61.9795 -15.159016 -4.201662
49.326271 -22.358913 3.234107
43.022045 -25.170279 11.22783
43.828804 -23.174189 7.405369
47.620766 -25.530552 7.016611
54.129723 -23.398014 2.918958
52.422123 -27.342125 6.372011
43.283768 -26.770521 14.591257
57.587776 -14.854855 -4.353504
58.661263 -10.309181 -8.437851
62.673309 -10.292927 -7.950308
47.067467 -18.281122 -1.138767
45.328381 -20.887037 3.246264
51.243683 -18.93449 -0.745335
55.980228 -19.212391 -0.596561
46.52964 -30.572464 14.119224
51.261585 -30.827135 9.94408
44.635418 -26.863194 10.970401
44.995636 -25.704298 9.145765
46.987526 -26.996532 8.848829
49.9188 -26.476198 6.714985
49.255531 -28.135283 8.499973
50.7206 -15.351308 -5.304764
51.369476 -13.502932 -7.517155
53.627434 -13.242355 -7.112202
59.850899 -14.874396 -4.215815
60.387146 -12.522587 -6.121214
62.401962 -12.735678 -6.020411
46.334236 -23.121124 5.290779
44.51981 -22.065834 5.360881
47.20435 -21.723892 3.270929
48.131699 -20.258343 1.194618
50.286186 -20.677963 1.271772
53.570419 -19.060637 -0.623219
52.615971 -21.000502 1.272275
60.97477 -7.720786 -10.230671
58.940083 -7.961446 -10.595308
43.31218 -24.212042 9.366004
45.57914 -24.450779 7.250484
48.418854 -23.978849 5.14687
51.653358 -22.888351 3.116664
50.73592 -24.718641 4.925393
53.231979 -25.410133 4.640667
43.002125 -26.031092 12.974881
44.541275 -27.900448 12.71567
55.265434 -15.013061 -4.60784
55.927917 -12.89196 -6.700787
58.204773 -12.607283 -6.354372
60.766479 -10.137935 -8.126987
47.889511 -16.823658 -3.376789
49.938416 -17.085333 -3.104012
46.1964 -19.629995 1.074847
49.060303 -18.716381 -0.933147
52.148125 -17.120865 -2.818729
54.467804 -17.066906 -2.581409
56.835308 -17.055187 -2.436579
59.179459 -17.194983 -2.404467
55.062813 -21.328012 1.181532
58.402489 -19.485048 -0.67164
44.743221 -28.78442 14.370593
46.407455 -29.553778 12.405173
48.572323 -31.011305 12.086658
48.793945 -29.660686 10.289846
51.750534 -29.161432 8.134933
56.427933 -10.699355 -8.851456
56.873394 -6.117764 -13.266447
60.989757 -6.498529 -11.326751
61.851685 -6.537413 -11.190555
43.167113 -24.691161 10.296917
42.526783 -23.724314 10.380479
42.381715 -24.203432 11.311392
54.131348 -26.725133 5.34642
54.536276 -25.759137 4.480748
52.827051 -26.376129 5.506339
51.613319 -12.51906 -8.618286
52.753224 -12.333182 -8.411767
43.142947 -26.400807 13.783069
42.58147 -25.276683 13.855825
42.722292 -25.646397 14.664013
62.728363 -9.062129 -8.972772
61.774948 -8.984633 -9.061112
61.719894 -10.215431 -8.038647
47.478489 -17.55239 -2.257778
46.593429 -17.169055 -2.342409
46.182407 -17.897787 -1.223398
43.107399 -22.404897 7.445988
42.168452 -22.053027 8.493443
42.889857 -22.822319 8.452825
44.161646 -20.809791 4.311545
43.757361 -21.39919 5.368853
44.924095 -21.476436 4.303572
44.524847 -20.320628 3.219607
44.161646 -20.809791 4.311545
45.76239 -20.258516 2.160556
44.958856 -19.692107 2.133898
44.524847 -20.320628 3.219607
59.581303 -19.714631 -0.752614
57.979878 -20.613321 0.167376
59.913063 -18.523849 -1.576037
59.581303 -19.714631 -0.752614
45.636431 -29.678442 14.244909
44.999614 -29.13422 15.147011
45.892824 -30.028242 15.021327
49.916954 -30.91922 11.015369
49.78134 -31.652837 11.945222
51.12597 -31.560752 10.873933
57.843328 -8.199469 -10.820476
58.985827 -6.766758 -11.704209
57.952482 -5.844918 -13.039779
56.809984 -7.277627 -12.156046
51.045038 -14.42712 -6.410959
49.993336 -14.371778 -6.567127
49.668897 -15.295966 -5.460932
53.882203 -12.202894 -8.20929
52.753224 -12.333182 -8.411767
52.498455 -13.372643 -7.314678
43.061051 -25.888824 15.368331
42.722292 -25.646397 14.664013
45.787466 -18.484265 -0.090962
46.182407 -17.897787 -1.223398
55.843494 -22.569804 1.962675
55.408558 -23.676642 2.789236
46.739418 -30.971955 14.947776
45.892824 -30.028242 15.021327
52.585271 -31.352378 9.795908
51.12597 -31.560752 10.873933
52.834902 -30.468703 8.868346
52.585271 -31.352378 9.795908
59.972414 -6.618858 -11.509069
59.957426 -7.841116 -10.412989
60.989757 -6.498529 -11.326751
58.985827 -6.766758 -11.704209
59.972414 -6.618858 -11.509069
63.078911 -14.230222 -5.122611
62.939305 -15.457835 -4.248007
42.631545 -23.341245 9.433142
42.526783 -23.724314 10.380479
43.570492 -23.693115 8.385687
42.889857 -22.822319 8.452825
42.631545 -23.341245 9.433142
54.959686 -24.682701 3.650091
55.408558 -23.676642 2.789236
53.680851 -24.404073 3.779812
54.959686 -24.682701 3.650091
54.536276 -25.759137 4.480748
50.29175 -13.510553 -7.675473
49.993336 -14.371778 -6.567127
50.29175 -13.510553 -7.675473
51.613319 -12.51906 -8.618286
42.41143 -24.547953 12.1877
42.381715 -24.203432 11.311392
41.771101 -23.581106 12.271262
42.401471 -24.978359 13.061225
42.58147 -25.276683 13.855825
43.012085 -25.600686 12.101356
42.41143 -24.547953 12.1877
42.401471 -24.978359 13.061225
61.879093 -7.776058 -10.112954
60.870624 -8.929361 -9.178829
61.774948 -8.984633 -9.061112
61.851685 -6.537413 -11.190555
61.879093 -7.776058 -10.112954
63.290142 -13.018553 -6.031986
62.190731 -13.947347 -5.111036
63.078911 -14.230222 -5.122611
63.358726 -11.78575 -6.964586
63.290142 -13.018553 -6.031986
63.4944 -10.564374 -7.929534
62.537636 -11.514302 -6.985359
63.358726 -11.78575 -6.964586
63.489212 -9.326846 -8.925028
63.4944 -10.564374 -7.929534
64.310303 -9.598293 -8.904254
62.728363 -9.062129 -8.972772
63.489212 -9.326846 -8.925028
46.964516 -16.519391 -3.475731
46.593429 -17.169055 -2.342409
48.253353 -16.032141 -4.496944
46.964516 -16.519391 -3.475731
49.305055 -16.087483 -4.340776
49.668897 -15.295966 -5.460932
48.253353 -16.032141 -4.496944
43.452902 -21.85072 6.423744
43.107399 -22.404897 7.445988
44.174307 -22.620011 6.383125
43.452902 -21.85072 6.423744
43.757361 -21.39919 5.368853
45.351933 -19.158701 1.015845
44.958856 -19.692107 2.133898
46.631934 -18.955559 -0.03196
45.787466 -18.484265 -0.090962
45.351933 -19.158701 1.015845
56.31004 -21.534803 1.093962
54.596268 -22.363013 2.050245
55.843494 -22.569804 1.962675
56.732651 -20.40653 0.254946
56.31004 -21.534803 1.093962
57.979878 -20.613321 0.167376
60.301548 -17.378817 -2.44245
58.790974 -18.340015 -1.538053
59.913063 -18.523849 -1.576037
61.701569 -16.360833 -3.341048
60.57948 -16.177 -3.303064
60.301548 -17.378817 -2.44245
62.939305 -15.457835 -4.248007
61.701569 -16.360833 -3.341048
43.583437 -27.066519 15.32716
43.061051 -25.888824 15.368331
44.313164 -28.073468 15.216828
44.999614 -29.13422 15.147011
44.013495 -27.77747 14.480925
43.583437 -27.066519 15.32716
44.313164 -28.073468 15.216828
47.573071 -31.3592 14.001666
46.739418 -30.971955 14.947776
47.782849 -31.75869 14.830219
48.594412 -31.57862 12.985383
49.78134 -31.652837 11.945222
47.550981 -30.791885 13.102941
47.573071 -31.3592 14.001666
48.594412 -31.57862 12.985383
53.079376 -29.635852 7.963773
51.506059 -29.994284 9.039506
52.834902 -30.468703 8.868346
53.408006 -28.666871 7.078858
53.079376 -29.635852 7.963773
53.743801 -27.757217 6.197397
52.086329 -28.251779 7.253472
53.408006 -28.666871 7.078858
54.131348 -26.725133 5.34642
53.743801 -27.757217 6.197397
55.282452 -10.931394 -9.078917
53.882203 -12.202894 -8.20929
55.027684 -11.970855 -7.981829
56.587254 -9.568423 -9.94855
57.684008 -9.3304 -9.723382
57.843328 -8.199469 -10.820476
55.282452 -10.931394 -9.078917
56.587254 -9.568423 -9.94855
55.669019 -7.555756 -12.387294
56.809984 -7.277627 -12.156046
55.737158 -6.432799 -13.482532
55.669019 -7.555756 -12.387294
57.90312 -4.637747 -14.170926
57.952482 -5.844918 -13.039779
56.839571 -4.939643 -14.38178
57.90312 -4.637747 -14.170926
55.737158 -6.432799 -13.482532
56.839571 -4.939643 -14.38178
3 1 21 19
3 1 23 21
3 0 26 24
3 2 29 27
3 3 32 30
3 3 34 32
3 3 36 34
3 69 68 37
3 4 70 72
3 70 39 71
3 70 71 72
3 6 40 20
3 6 41 40
3 6 43 41
3 8 44 22
3 8 73 75
3 75 74 44
3 73 74 75
3 77 76 25
3 9 78 80
3 78 45 79
3 78 79 80
3 9 46 45
3 10 49 47
3 12 50 28
3 12 81 83
3 83 82 50
3 81 82 83
3 13 84 86
3 84 51 85
3 84 85 86
3 13 52 51
3 5 87 89
3 87 88 89
3 14 90 92
3 92 91 31
3 90 91 92
3 14 93 94
3 14 95 97
3 95 53 96
3 95 96 97
3 15 54 33
3 15 55 54
3 15 56 55
3 16 57 35
3 16 58 57
3 7 59 42
3 98 60 99
3 101 100 60
3 17 102 104
3 102 61 103
3 102 103 104
3 17 62 61
3 18 105 107
3 105 63 106
3 105 106 107
3 18 64 63
3 18 65 64
3 11 66 48
3 109 108 38
3 110 67 111
3 19 20 4
3 21 20 19
3 21 6 20
3 21 22 6
3 23 22 21
3 23 8 22
3 24 112 114
3 112 25 113
3 112 113 114
3 26 25 24
3 26 115 117
3 117 116 25
3 115 116 117
3 118 9 119
3 27 28 10
3 29 28 27
3 29 12 28
3 120 13 121
3 30 31 5
3 32 31 30
3 32 14 31
3 32 33 14
3 34 33 32
3 34 15 33
3 34 35 15
3 36 35 34
3 36 16 35
3 123 122 7
3 124 17 125
3 126 18 127
3 129 128 18
3 37 38 11
3 130 38 131
3 132 131 37
3 130 131 132
3 134 133 38
3 136 135 2
3 39 137 138
3 39 139 141
3 139 5 140
3 139 140 141
3 20 39 4
3 40 39 20
3 40 5 39
3 40 30 5
3 41 30 40
3 41 3 30
3 41 42 3
3 43 42 41
3 43 7 42
3 22 43 6
3 44 43 22
3 44 7 43
3 44 142 144
3 144 143 7
3 142 143 144
3 146 145 44
3 25 147 148
3 150 149 25
3 151 4 152
3 151 152 153
3 45 154 155
3 45 156 158
3 156 4 157
3 156 157 158
3 45 19 4
3 46 19 45
3 46 1 19
3 47 48 0
3 49 48 47
3 49 11 48
3 28 49 10
3 50 49 28
3 50 11 49
3 50 37 11
3 159 37 160
3 161 160 50
3 159 160 161
3 163 162 37
3 164 29 165
3 166 165 2
3 164 165 166
3 167 29 168
3 169 12 170
3 171 170 29
3 169 170 171
3 172 12 173
3 172 173 174
3 176 175 12
3 51 177 178
3 51 179 180
3 51 181 183
3 181 24 182
3 181 182 183
3 52 24 51
3 52 0 24
3 31 184 186
3 186 185 5
3 184 185 186
3 188 187 31
3 53 189 190
3 53 191 193
3 191 13 192
3 191 192 193
3 33 53 14
3 54 53 33
3 54 13 53
3 54 52 13
3 55 52 54
3 55 0 52
3 55 47 0
3 56 47 55
3 56 10 47
3 35 56 15
3 57 56 35
3 57 10 56
3 57 27 10
3 58 27 57
3 58 2 27
3 42 36 3
3 59 36 42
3 59 16 36
3 194 59 195
3 196 195 7
3 194 195 196
3 60 197 199
3 197 59 198
3 197 198 199
3 60 16 59
3 60 58 16
3 200 58 201
3 202 201 60
3 200 201 202
3 203 2 204
3 205 204 58
3 203 204 205
3 207 206 2
3 208 9 209
3 61 210 211
3 61 212 214
3 212 9 213
3 212 213 214
3 61 46 9
3 62 46 61
3 62 1 46
3 215 17 216
3 215 216 217
3 63 218 219
3 63 220 222
3 220 17 221
3 220 221 222
3 63 62 17
3 64 62 63
3 64 1 62
3 64 23 1
3 65 23 64
3 65 8 23
3 223 65 224
3 225 224 18
3 223 224 225
3 226 65 227
3 228 8 229
3 230 229 65
3 228 229 230
3 232 231 8
3 48 26 0
3 66 26 48
3 66 233 235
3 235 234 26
3 233 234 235
3 38 66 11
3 236 66 237
3 238 237 38
3 236 237 238
3 240 239 66
3 67 241 242
3 67 243 244
3 245 67 246
3 247 67 248
3 250 249 67
