ply
format ascii 1.0
element vertex 775
property float x
property float y
property float z
element face 807
property list uchar int vertex_index
end_header
50.343964 -24.053705 -44.472748
53.287331 -1.474695 -54.474251
56.071259 -67.613022 -26.800783
62.446362 -33.611233 -40.036118
44.132927 9.824764 -57.295509
51.582611 -82.377319 -21.657412
45.985985 -80.676727 -25.463095
66.350418 -20.12406 -39.887909
67.099739 -37.529243 -33.698372
35.176552 5.436583 -57.136673
44.215004 -1.799307 -56.575638
52.845589 -13.260794 -51.396118
60.567055 -68.763847 -21.456987
65.052704 -54.293442 -28.189619
59.996002 -51.310184 -32.978561
56.71302 -28.525669 -43.966263
60.501053 -16.359247 -47.876183
42.800152 -78.836945 -26.4788
32.105373 7.158064 -55.175423
48.719765 4.675463 -56.479866
43.967274 4.0723 -57.937431
48.756363 -1.152611 -56.443459
48.859573 -7.0068 -54.407509
53.237244 -7.380136 -53.857033
65.872154 -62.180626 -17.329668
56.074715 -75.514832 -21.386412
58.644745 -68.538559 -24.554976
63.12397 -61.810841 -24.985243
60.844772 -61.142776 -27.767229
62.628086 -53.165413 -30.862261
58.12339 -59.702122 -29.793745
64.823593 -26.858294 -40.445419
63.641052 -18.234726 -44.133568
62.212494 -24.800062 -43.941635
59.161499 -22.590216 -46.558418
59.808037 -31.161064 -42.473549
53.444496 4.328398 -53.42495
67.175034 -28.743587 -36.608345
39.378979 8.224506 -58.116219
44.509468 -7.845903 -53.321777
48.652172 -13.035687 -50.721069
51.798691 -19.070889 -47.735252
49.998222 -30.596691 -41.556778
53.330784 -82.240067 -18.390947
57.522411 -75.311523 -17.863333
61.841198 -68.618355 -17.644152
64.789909 -61.978943 -21.417982
67.000923 -54.854828 -24.833937
68.43647 -47.189983 -27.724489
66.365471 -46.151718 -31.010485
63.98642 -44.625038 -33.868416
61.547638 -42.537163 -36.370773
57.32695 -48.852257 -34.751244
59.020771 -39.997578 -38.480423
56.22023 -37.132942 -40.025948
53.116867 -34.006912 -40.940651
53.314064 -25.9643 -44.481537
57.59901 -2.498753 -50.994232
61.146751 -10.065785 -47.777718
57.38308 -8.521705 -51.504974
56.881767 -14.576948 -50.458977
55.603432 -20.479523 -47.84008
51.03336 1.716736 -55.61364
48.703045 1.766628 -56.701637
51.037399 -1.211519 -55.680054
51.066803 -4.141141 -55.270172
53.274544 -4.429379 -54.398491
64.342583 -65.447113 -15.412872
54.991512 -71.406296 -25.399549
56.278458 -71.827309 -24.284231
57.427399 -68.172012 -25.778421
59.796234 -64.906029 -26.168062
58.509445 -64.410858 -27.309645
59.521057 -60.521782 -28.859426
57.116051 -63.716854 -28.269751
63.753418 -30.264317 -40.386261
63.559731 -25.853842 -42.267258
62.500114 -29.174833 -41.967957
61.154518 -28.02302 -43.366333
61.177349 -32.419445 -41.354324
47.556824 -81.34552 -24.79751
68.300293 -33.987309 -33.293892
68.248375 -29.656853 -34.676842
67.232239 -33.134247 -35.108727
66.106697 -32.238731 -36.911942
65.968895 -36.681892 -35.372787
33.448647 6.481318 -56.348587
31.87779 4.423368 -55.125885
33.370121 3.621405 -56.053444
41.706451 9.172689 -57.932991
44.062439 1.143999 -57.515999
41.663635 3.367552 -57.976387
41.812977 0.414455 -57.23748
42.01619 -2.573503 -56.004959
44.377579 -4.782035 -55.150009
50.96991 -10.005982 -52.986427
48.810394 -9.985215 -52.714859
50.749607 -12.970045 -51.235298
50.38868 -15.963767 -49.255768
52.407299 -16.188616 -49.638115
44.449196 -17.957239 -46.731239
46.114655 -20.39168 -45.563759
50.428452 -85.930969 -20.525583
52.55785 -82.388969 -20.137403
58.333023 -72.138443 -21.402662
56.885788 -75.473045 -19.715509
59.087608 -72.078911 -19.652208
59.685066 -71.937973 -17.740858
61.274803 -68.706985 -19.619856
63.398735 -65.354919 -19.557348
62.735363 -65.375 -21.481707
64.168228 -58.130463 -26.639151
65.158241 -58.346684 -25.001184
66.100693 -54.620705 -26.595404
67.813217 -51.090981 -26.343775
66.865967 -50.742538 -28.06418
67.462082 -46.716431 -29.424639
65.782677 -50.296879 -29.638582
61.322533 -52.325275 -31.975378
63.3629 -48.955536 -32.365181
62.098801 -48.034294 -33.551155
62.769501 -43.646603 -35.162109
60.827553 -46.958946 -34.644119
54.923523 -51.871456 -33.765274
55.972736 -47.45813 -35.538002
58.250862 -44.435394 -36.576233
57.663635 -38.600342 -39.334312
50.981987 -36.570805 -39.559097
51.532455 -32.34676 -41.245041
49.463837 -34.70573 -39.938622
59.609344 -3.226766 -48.887367
62.12735 -17.296717 -46.107735
62.549553 -14.083942 -45.984642
60.879608 -13.200961 -47.984901
59.318062 -9.257927 -49.77095
59.096252 -12.351741 -49.751534
57.200367 -11.559086 -51.195312
58.752846 -15.440285 -49.352097
58.088875 -25.606464 -45.380928
57.436913 -21.495089 -47.380577
56.373795 -24.411522 -45.928352
54.585461 -23.303127 -46.173187
55.024029 -27.211449 -44.328362
44.38678 -79.84343 -26.011614
41.751415 -83.194099 -25.643927
68.178505 -38.303215 -31.98736
33.699974 9.210577 -56.201553
35.280746 8.288214 -57.214577
46.400887 7.387678 -57.047318
43.9771 6.979649 -57.850739
46.330154 4.501127 -57.433525
46.369446 1.585596 -57.342674
46.47176 -1.335859 -56.737556
46.58577 -4.271431 -55.618416
48.826557 -4.072154 -55.673943
51.062595 -7.068329 -54.361969
53.11198 -10.322845 -52.83992
67.196739 -58.803268 -19.175768
53.821976 -78.920151 -21.463472
55.071068 -75.40274 -22.84355
57.39827 -72.066002 -22.953463
59.694149 -68.72496 -23.111994
61.920319 -65.348473 -23.246897
60.940067 -65.20903 -24.8155
62.05571 -61.564983 -26.481108
63.036331 -57.77187 -28.082567
63.883568 -53.818871 -29.608541
61.788498 -57.230988 -29.33359
60.460083 -56.492798 -30.415125
59.087406 -55.564075 -31.363817
65.686241 -23.452942 -40.25856
65.049973 -19.172628 -42.037018
64.397804 -22.499722 -42.272865
63.024132 -21.522429 -44.186951
61.548092 -20.518196 -45.924599
59.949913 -19.499342 -47.404259
60.753288 -23.704865 -45.395164
59.687584 -26.824451 -44.519836
58.318596 -29.854477 -43.351219
51.10276 4.613655 -55.121399
53.331856 1.460661 -54.130806
67.521095 -21.112352 -37.7379
66.892395 -24.396847 -38.205948
66.026978 -27.817215 -38.542145
64.947784 -31.285065 -38.683411
63.648621 -34.723534 -38.569984
37.340282 9.811249 -57.664169
37.19017 6.977215 -57.842255
41.613667 6.295397 -58.202072
39.346375 5.32214 -58.091774
37.208252 4.053587 -57.540367
40.171398 -6.81649 -53.275002
44.579414 -11.037175 -51.214668
46.663895 -7.252413 -54.03624
46.669998 -10.319242 -52.094658
46.582993 -13.510052 -49.936409
48.381298 -16.176893 -48.58709
49.908539 -18.966032 -47.230629
49.37973 -21.944212 -45.342743
51.064526 -21.803055 -45.905525
50.286743 -26.899292 -43.138069
54.704643 -78.904495 -19.866259
55.397224 -78.743454 -18.066866
55.928833 -78.470024 -16.108477
58.01638 -75.077957 -15.87554
62.290657 -68.562164 -15.576799
63.929779 -65.358849 -17.51956
65.398773 -62.040783 -19.416986
66.67186 -58.609974 -21.231489
64.035088 -61.926979 -23.287924
65.993378 -58.481934 -23.187197
67.737442 -55.0653 -22.929785
68.593613 -51.403942 -24.491213
67.897919 -42.559799 -30.715212
66.805634 -41.883316 -32.347275
64.60173 -49.708981 -31.067732
65.193459 -45.460167 -32.487915
65.65451 -41.10405 -33.909019
64.481468 -40.208782 -35.40464
63.301773 -39.196915 -36.829826
62.107414 -38.076614 -38.167412
57.699287 -54.466415 -32.219452
56.311058 -53.227257 -33.014153
58.664101 -50.143654 -33.898674
59.549686 -45.75164 -35.653496
60.306679 -41.314758 -37.484009
60.872536 -36.860672 -39.38739
59.56448 -35.563221 -40.452057
58.157646 -34.198524 -41.325928
56.644859 -32.781387 -41.987961
54.695354 -35.601044 -40.553177
55.044384 -31.328682 -42.442665
53.401413 -29.860064 -42.727844
51.785751 -28.391851 -42.918594
51.682976 -24.862015 -44.499268
55.569656 1.015619 -52.327225
55.482262 -1.91095 -52.885445
64.103287 -14.995388 -43.838486
62.856255 -10.935923 -45.614929
61.342049 -7.008033 -47.314842
59.47765 -6.198169 -49.463364
57.49807 -5.488594 -51.419075
55.424698 -4.890806 -53.092682
55.351513 -7.882296 -52.891022
55.199265 -10.863755 -52.240616
54.902603 -13.825422 -51.145271
58.218925 -18.495949 -48.551498
56.363674 -17.55773 -49.313881
54.412491 -16.756962 -49.671333
53.706318 -19.630442 -47.947517
52.790474 -22.378202 -46.153778
63.489815 -67.017792 -14.436229
64.490075 -65.551411 -14.3434
46.771405 -81.011123 -25.130302
46.284502 -83.060722 -24.753732
45.499083 -82.726326 -25.086525
47.259146 -78.997978 -25.569994
48.044566 -79.332375 -25.237201
46.771405 -81.011123 -25.130302
46.476607 -78.593773 -25.89715
47.259146 -78.997978 -25.569994
35.202481 3.965876 -56.867108
34.299265 3.058287 -56.325493
34.273336 4.528994 -56.595059
42.919689 9.498727 -57.61425
41.841749 10.555109 -57.570488
43.054987 10.881146 -57.251747
44.507065 -16.177088 -47.851914
43.533451 -16.806204 -47.318641
45.422928 -17.406879 -47.223621
44.507065 -16.177088 -47.851914
55.279111 -46.716106 -35.894314
54.750013 -48.936628 -35.00634
56.441214 -45.243198 -36.468586
55.279111 -46.716106 -35.894314
49.843593 -37.809161 -38.951363
50.585308 -38.762976 -38.729293
49.084519 -36.876623 -39.141125
50.222912 -35.638267 -39.74886
49.843593 -37.809161 -38.951363
60.542084 -3.660025 -47.76585
59.663705 -1.818621 -48.485267
65.939121 -18.034703 -40.754707
66.572895 -18.539632 -39.639381
41.219286 -85.326274 -25.28435
42.568073 -83.633392 -25.440762
68.666493 -38.665093 -31.112715
68.720967 -36.561451 -31.730577
34.637846 10.105172 -56.517853
33.926155 10.478834 -55.910091
35.428232 9.643991 -57.024365
34.49036 8.749396 -56.708065
34.637846 10.105172 -56.517853
66.720104 -60.649353 -17.195124
66.041957 -62.313267 -16.262773
66.534447 -60.491947 -18.252718
67.382396 -58.960674 -18.118174
66.720104 -60.649353 -17.195124
54.475014 -75.26075 -23.459955
53.904964 -77.087242 -22.838159
52.273628 4.471026 -54.273174
51.18808 6.016795 -54.689099
52.358947 5.874166 -53.840874
44.09942 -77.188774 -26.694986
44.892735 -77.692017 -26.461393
43.593466 -79.340187 -26.245207
68.021728 -21.638472 -36.678959
67.692321 -19.581983 -37.461392
67.586533 -27.048759 -36.383476
68.123203 -27.505392 -35.417725
67.711704 -29.20022 -35.642594
67.033715 -26.570217 -37.407146
67.445213 -24.875389 -37.182277
67.586533 -27.048759 -36.383476
64.882263 -33.516556 -37.843494
65.527241 -31.761898 -37.797677
65.46172 -33.993389 -36.95776
64.232681 -35.235791 -37.786781
64.298203 -33.0043 -38.626697
64.882263 -33.516556 -37.843494
31.464792 6.023449 -54.498352
31.650395 7.311594 -54.399781
31.239638 3.291409 -54.37075
31.840471 2.994181 -54.892983
38.359631 9.017878 -57.890194
38.463645 10.420903 -57.664005
39.482994 9.627532 -57.89003
39.398455 3.846012 -57.829941
40.505005 4.344846 -58.034081
40.557085 2.868717 -57.772248
38.329394 3.211735 -57.554237
38.277314 4.687864 -57.816071
39.398455 3.846012 -57.829941
37.281739 2.562905 -57.150272
38.329394 3.211735 -57.554237
40.036225 -5.244125 -54.185212
39.030862 -5.950161 -53.599216
43.466657 -8.323329 -52.836399
43.370582 -6.738009 -53.831707
44.544441 -9.441539 -52.268223
43.501631 -9.918965 -51.782845
43.466657 -8.323329 -52.836399
46.861908 -21.613388 -45.029572
47.067211 -19.907923 -46.01957
48.699749 -20.684189 -45.909061
48.494445 -22.389654 -44.919064
52.666531 -83.873718 -17.667724
52.321884 -84.020016 -18.61797
53.627707 -82.094773 -17.424507
52.666531 -83.873718 -17.667724
60.998543 -70.196625 -16.679953
59.920477 -71.856434 -16.728306
60.763132 -70.278164 -17.692505
62.065928 -68.59026 -16.610475
61.223273 -70.16853 -15.646276
60.998543 -70.196625 -16.679953
68.840557 -47.407087 -26.819409
68.528931 -49.357586 -26.129052
68.124843 -49.140482 -27.034132
69.067795 -45.459831 -27.471931
68.840557 -47.407087 -26.819409
68.658458 -45.17571 -28.365561
69.067795 -45.459831 -27.471931
56.475166 -56.004526 -31.796277
57.194797 -56.583545 -31.418105
53.90611 -34.803978 -40.746914
53.608522 -36.96061 -39.858383
52.819278 -36.163544 -40.05212
56.584333 -0.741567 -51.660728
56.641277 0.703323 -51.306302
57.655954 -1.053863 -50.639805
65.277172 -63.946511 -15.304374
64.490075 -65.551411 -14.3434
65.107369 -63.813869 -16.37127
66.041957 -62.313267 -16.262773
65.277172 -63.946511 -15.304374
55.634985 -71.616803 -24.84189
55.078709 -73.473034 -24.180296
54.435236 -73.262528 -24.737955
53.540882 5.692815 -52.912445
52.358947 5.874166 -53.840874
47.069899 -83.32898 -24.406852
46.284502 -83.060722 -24.753732
48.302219 -81.599357 -24.383139
47.069899 -83.32898 -24.406852
48.803646 -79.656616 -24.852157
48.302219 -81.599357 -24.383139
48.803646 -79.656616 -24.852157
48.044566 -79.332375 -25.237201
43.328054 -76.619301 -26.960389
42.027109 -78.240822 -26.68119
68.274334 -31.822081 -33.985367
68.72612 -30.118445 -33.72028
68.752079 -32.283673 -33.028805
65.392819 -36.214969 -36.188182
65.46172 -33.993389 -36.95776
66.037796 -34.460312 -36.142364
32.586636 2.5932 -55.356762
31.840471 2.994181 -54.892983
32.623956 4.022386 -55.589664
33.402681 2.144938 -55.691246
32.586636 2.5932 -55.356762
33.402681 2.144938 -55.691246
34.299265 3.058287 -56.325493
40.64673 10.101623 -57.798416
41.841749 10.555109 -57.570488
40.542715 8.698597 -58.024605
39.482994 9.627532 -57.89003
40.64673 10.101623 -57.798416
40.631756 1.392169 -57.402794
40.557085 2.868717 -57.772248
41.738306 1.891004 -57.606933
40.730891 -0.103698 -56.895836
40.631756 1.392169 -57.402794
40.832497 -1.597677 -56.279575
40.730891 -0.103698 -56.895836
41.914583 -1.079524 -56.621219
40.958621 -3.122632 -55.55019
40.832497 -1.597677 -56.279575
42.123943 -4.101809 -55.173298
40.958621 -3.122632 -55.55019
43.304638 -5.206075 -54.745823
42.123943 -4.101809 -55.173298
43.196884 -3.677769 -55.577484
44.443523 -6.313969 -54.235893
43.370582 -6.738009 -53.831707
43.304638 -5.206075 -54.745823
43.505938 -18.677413 -46.21236
43.533451 -16.806204 -47.318641
44.332489 -19.849059 -45.66124
43.505938 -18.677413 -46.21236
45.281925 -19.17446 -46.147499
45.165218 -21.06628 -45.0775
44.332489 -19.849059 -45.66124
46.255657 -18.624099 -46.639881
45.281925 -19.17446 -46.147499
45.422928 -17.406879 -47.223621
47.067211 -19.907923 -46.01957
46.255657 -18.624099 -46.639881
50.870718 -85.865467 -19.685288
49.863284 -87.669319 -19.964042
51.935417 -84.094467 -19.491197
50.870718 -85.865467 -19.685288
51.493151 -84.159969 -20.331493
52.944317 -82.314518 -19.264175
52.321884 -84.020016 -18.61797
51.935417 -84.094467 -19.491197
54.225407 -51.143292 -34.119976
53.661079 -53.360594 -33.280052
55.44813 -49.664793 -34.651638
54.225407 -51.143292 -34.119976
54.750013 -48.936628 -35.00634
57.580276 -43.731831 -36.987702
57.111799 -45.946762 -36.057118
56.441214 -45.243198 -36.468586
57.965231 -41.512923 -37.939796
58.635817 -42.216486 -37.528328
57.580276 -43.731831 -36.987702
57.286663 -40.814304 -38.366741
58.342203 -39.29896 -38.907367
57.965231 -41.512923 -37.939796
56.585873 -40.07029 -38.720504
57.286663 -40.814304 -38.366741
55.86417 -39.33659 -39.066322
56.941933 -37.866642 -39.68013
56.585873 -40.07029 -38.720504
51.751838 -37.44549 -39.361343
50.585308 -38.762976 -38.729293
52.049427 -35.288859 -40.249874
52.819278 -36.163544 -40.05212
51.751838 -37.44549 -39.361343
58.661121 -1.41787 -49.586372
59.663705 -1.818621 -48.485267
58.604177 -2.86276 -49.940799
57.655954 -1.053863 -50.639805
58.661121 -1.41787 -49.586372
44.685358 -82.374706 -25.350346
45.499083 -82.726326 -25.086525
43.885756 -81.958057 -25.624606
45.186383 -80.260078 -25.737355
44.685358 -82.374706 -25.350346
43.069097 -81.518765 -25.82777
43.885756 -81.958057 -25.624606
42.568073 -83.633392 -25.440762
40.389242 -84.851715 -25.402319
41.219286 -85.326274 -25.28435
40.951589 -82.660579 -25.802479
40.389242 -84.851715 -25.402319
41.475958 -80.482002 -26.219915
42.275784 -81.015522 -26.061363
40.951589 -82.660579 -25.802479
42.027109 -78.240822 -26.68119
41.475958 -80.482002 -26.219915
68.78186 -34.403498 -32.383843
68.752079 -32.283673 -33.028805
68.239399 -36.145262 -32.640626
68.78186 -34.403498 -32.383843
68.720967 -36.561451 -31.730577
32.307446 8.439462 -54.988747
31.650395 7.311594 -54.399781
33.104746 9.465719 -55.501812
33.926155 10.478834 -55.910091
32.902673 8.184321 -55.688488
32.307446 8.439462 -54.988747
33.104746 9.465719 -55.501812
67.944119 -57.248978 -19.006453
67.382396 -58.960674 -18.118174
67.749668 -57.064028 -20.046973
67.944119 -57.248978 -19.006453
53.280418 -78.845947 -22.14812
52.702293 -80.648735 -21.560442
52.160736 -80.574532 -22.24509
54.446522 -77.161445 -22.153511
53.280418 -78.845947 -22.14812
53.904964 -77.087242 -22.838159
55.674763 -73.615025 -23.56389
54.475014 -75.26075 -23.459955
55.078709 -73.473034 -24.180296
44.296824 11.176903 -56.80661
43.054987 10.881146 -57.251747
45.373642 10.005331 -56.764648
44.296824 11.176903 -56.80661
46.507622 8.786788 -56.640553
45.266907 8.606221 -57.171413
45.373642 10.005331 -56.764648
47.623711 7.459623 -56.438442
46.507622 8.786788 -56.640553
48.78315 6.103515 -56.154716
47.560326 6.03157 -56.763592
47.623711 7.459623 -56.438442
49.974648 6.072611 -55.475483
51.18808 6.016795 -54.689099
49.911263 4.644559 -55.800632
48.78315 6.103515 -56.154716
49.974648 6.072611 -55.475483
49.347645 -87.723999 -20.757562
49.863284 -87.669319 -19.964042
49.881332 -85.911781 -21.238042
49.347645 -87.723999 -20.757562
50.458412 -84.134956 -21.803957
51.005532 -84.154144 -21.091498
49.881332 -85.911781 -21.238042
50.993494 -82.287826 -22.294804
50.458412 -84.134956 -21.803957
52.160736 -80.574532 -22.24509
50.993494 -82.287826 -22.294804
53.758815 -73.032593 -25.249765
54.435236 -73.262528 -24.737955
54.283434 -71.104267 -25.864301
53.758815 -73.032593 -25.249765
54.823307 -69.20763 -26.564918
55.531385 -69.509659 -26.100166
54.283434 -71.104267 -25.864301
55.345489 -67.239475 -27.231752
54.823307 -69.20763 -26.564918
45.677004 -78.177124 -26.17141
46.476607 -78.593773 -25.89715
45.186383 -80.260078 -25.737355
45.677004 -78.177124 -26.17141
44.892735 -77.692017 -26.461393
44.09942 -77.188774 -26.694986
43.328054 -76.619301 -26.960389
67.158233 -19.033778 -38.564377
67.692321 -19.581983 -37.461392
66.935756 -20.618206 -38.812905
66.572895 -18.539632 -39.639381
67.158233 -19.033778 -38.564377
68.605743 -28.003225 -34.409408
68.72612 -30.118445 -33.72028
68.605743 -28.003225 -34.409408
68.123203 -27.505392 -35.417725
67.759563 -23.233142 -36.948254
68.021728 -21.638472 -36.678959
67.206745 -22.7546 -37.971924
67.759563 -23.233142 -36.948254
67.445213 -24.875389 -37.182277
31.351 4.656101 -54.473583
31.464792 6.023449 -54.498352
31.991582 5.790716 -55.150654
31.351 4.656101 -54.473583
31.239638 3.291409 -54.37075
37.515715 11.15071 -57.346813
38.463645 10.420903 -57.664005
36.458 10.405508 -57.249161
37.515715 11.15071 -57.346813
36.310514 9.049732 -57.439373
35.428232 9.643991 -57.024365
36.458 10.405508 -57.249161
36.218331 3.274378 -57.068955
35.202481 3.965876 -56.867108
36.192402 4.745085 -57.33852
36.218331 3.274378 -57.068955
37.281739 2.562905 -57.150272
39.192741 -7.565392 -52.648907
39.030862 -5.950161 -53.599216
40.299154 -8.457557 -52.239316
39.192741 -7.565392 -52.648907
41.201548 -6.223302 -53.808319
40.036225 -5.244125 -54.185212
41.297623 -7.808623 -52.813012
41.201548 -6.223302 -53.808319
40.299154 -8.457557 -52.239316
41.297623 -7.808623 -52.813012
43.570686 -11.583802 -50.688332
43.501631 -9.918965 -51.782845
44.572174 -12.717056 -50.093628
43.570686 -11.583802 -50.688332
45.573964 -13.953494 -49.454498
44.572174 -12.717056 -50.093628
45.581204 -12.273613 -50.575539
46.489826 -15.183285 -48.826206
45.573964 -13.953494 -49.454498
47.388979 -16.516706 -48.151547
46.489826 -15.183285 -48.826206
47.482146 -14.843473 -49.26175
48.200533 -17.800529 -47.531235
47.388979 -16.516706 -48.151547
48.964153 -19.195099 -46.853004
48.200533 -17.800529 -47.531235
49.144919 -17.571462 -47.90886
49.644134 -20.455122 -46.286686
48.699749 -20.684189 -45.909061
48.964153 -19.195099 -46.853004
45.925072 -22.273637 -44.559463
45.165218 -21.06628 -45.0775
45.925072 -22.273637 -44.559463
46.861908 -21.613388 -45.029572
49.162872 -23.516889 -44.489342
48.494445 -22.389654 -44.919064
49.861847 -22.998959 -44.907746
49.644989 -24.571635 -44.054344
49.162872 -23.516889 -44.489342
48.365665 -35.849646 -39.373333
49.084519 -36.876623 -39.141125
48.733292 -33.700441 -40.159859
48.365665 -35.849646 -39.373333
49.000484 -31.645922 -40.968937
49.731029 -32.651211 -40.7477
48.733292 -33.700441 -40.159859
49.274017 -29.637209 -41.777848
49.000484 -31.645922 -40.968937
49.418278 -27.788509 -42.568493
50.142482 -28.747991 -42.347424
49.274017 -29.637209 -41.777848
49.616378 -25.994428 -43.387005
49.418278 -27.788509 -42.568493
49.644989 -24.571635 -44.054344
50.315354 -25.476498 -43.805408
49.616378 -25.994428 -43.387005
54.660927 -80.346466 -17.262467
53.627707 -82.094773 -17.424507
54.364004 -80.49176 -18.228907
54.926731 -80.209751 -16.283272
54.660927 -80.346466 -17.262467
55.663028 -78.606739 -17.087671
55.152063 -80.009357 -15.24963
54.926731 -80.209751 -16.283272
56.13224 -78.299038 -15.07506
55.152063 -80.009357 -15.24963
57.176014 -76.603004 -14.958592
56.13224 -78.299038 -15.07506
56.972606 -76.77399 -15.992009
58.208405 -74.951641 -14.838095
57.176014 -76.603004 -14.958592
59.086134 -73.426426 -15.795647
58.850723 -73.507965 -16.808199
59.920477 -71.856434 -16.728306
58.208405 -74.951641 -14.838095
59.086134 -73.426426 -15.795647
61.407959 -70.103767 -14.599699
61.223273 -70.16853 -15.646276
62.463852 -68.575317 -14.518193
61.407959 -70.103767 -14.599699
63.31662 -67.004638 -15.494836
63.489815 -67.017792 -14.436229
62.463852 -68.575317 -14.518193
67.487229 -56.967381 -21.074833
67.749668 -57.064028 -20.046973
66.934299 -58.706621 -20.203629
68.02002 -55.195043 -21.923981
67.487229 -56.967381 -21.074833
67.204651 -56.837637 -22.080637
68.461975 -53.407578 -22.731127
68.02002 -55.195043 -21.923981
68.890061 -51.576898 -23.511841
68.461975 -53.407578 -22.731127
68.165527 -53.234621 -23.710499
69.222759 -49.741705 -24.250296
68.890061 -51.576898 -23.511841
68.919128 -49.514066 -25.20277
68.203415 -51.247462 -25.417494
68.528931 -49.357586 -26.129052
69.222759 -49.741705 -24.250296
68.919128 -49.514066 -25.20277
68.171265 -44.938935 -29.215635
68.658458 -45.17571 -28.365561
67.949276 -46.953207 -28.574564
68.389183 -42.860619 -29.860922
68.171265 -44.938935 -29.215635
67.680001 -44.638115 -30.069926
68.5262 -40.793385 -30.476641
68.389183 -42.860619 -29.860922
68.038212 -40.431507 -31.351286
68.666493 -38.665093 -31.112715
68.5262 -40.793385 -30.476641
64.649105 -37.978414 -36.204109
65.392819 -36.214969 -36.188182
65.225182 -38.445337 -35.388714
64.059258 -37.472481 -36.916702
64.649105 -37.978414 -36.204109
63.891621 -39.702849 -36.117233
63.475197 -36.960224 -37.699905
64.232681 -35.235791 -37.786781
64.059258 -37.472481 -36.916702
55.867885 -65.291392 -27.966237
56.593655 -65.664938 -27.535267
55.345489 -67.239475 -27.231752
56.387844 -63.275737 -28.682423
55.867885 -65.291392 -27.966237
56.891514 -61.268372 -29.44442
57.61972 -61.709488 -29.031748
56.387844 -63.275737 -28.682423
57.406849 -59.201399 -30.205252
56.891514 -61.268372 -29.44442
57.888857 -57.132376 -30.990288
58.605398 -57.633099 -30.578781
57.406849 -59.201399 -30.205252
58.393346 -55.015245 -31.791635
57.888857 -57.132376 -30.990288
57.194797 -56.583545 -31.418105
54.371921 -54.062221 -32.929924
53.661079 -53.360594 -33.280052
55.065689 -54.740122 -32.554364
54.371921 -54.062221 -32.929924
55.617291 -52.549357 -33.389713
55.781052 -55.384947 -32.193627
55.065689 -54.740122 -32.554364
57.005173 -53.846836 -32.616802
56.475166 -56.004526 -31.796277
55.781052 -55.384947 -32.193627
55.130596 -38.55286 -39.358612
55.86417 -39.33659 -39.066322
54.368158 -37.786911 -39.622227
53.608522 -36.96061 -39.858383
55.457792 -36.366993 -40.289563
55.130596 -38.55286 -39.358612
54.368158 -37.786911 -39.622227
54.575243 4.077466 -52.446247
53.540882 5.692815 -52.912445
55.637823 2.421076 -51.897385
56.641277 0.703323 -51.306302
54.507076 2.672009 -52.876087
54.575243 4.077466 -52.446247
55.637823 2.421076 -51.897385
65.288898 -17.558986 -41.829262
65.939121 -18.034703 -40.754707
65.700196 -19.648344 -40.962463
64.815555 -15.470367 -42.729996
65.288898 -17.558986 -41.829262
64.57663 -17.084008 -42.937752
64.263527 -13.434532 -43.599659
64.815555 -15.470367 -42.729996
63.640011 -11.404799 -44.487881
64.263527 -13.434532 -43.599659
63.479771 -12.965656 -44.726708
62.95797 -9.427575 -45.334034
63.640011 -11.404799 -44.487881
62.200867 -7.463631 -46.183991
62.95797 -9.427575 -45.334034
62.099152 -8.971978 -46.464885
61.408436 -5.550658 -46.979588
62.200867 -7.463631 -46.183991
60.475696 -5.1174 -48.101104
60.542084 -3.660025 -47.76585
61.408436 -5.550658 -46.979588
3 1 64 62
3 1 66 64
3 251 67 252
3 2 70 68
3 2 72 70
3 2 74 72
3 3 77 75
3 3 79 77
3 6 253 255
3 253 80 254
3 253 254 255
3 6 256 258
3 258 257 80
3 256 257 258
3 6 259 260
3 8 83 81
3 8 85 83
3 9 88 86
3 9 261 263
3 263 262 88
3 261 262 263
3 4 264 266
3 264 89 265
3 264 265 266
3 10 92 90
3 10 93 92
3 10 94 93
3 11 97 95
3 11 99 97
3 267 100 268
3 270 269 100
3 5 103 102
3 12 106 104
3 12 108 106
3 12 110 108
3 13 113 111
3 13 115 113
3 13 117 115
3 14 120 118
3 14 122 120
3 271 124 272
3 274 273 124
3 275 127 276
3 277 129 278
3 279 278 127
3 277 278 279
3 280 130 281
3 7 282 283
3 16 133 131
3 16 135 133
3 16 137 135
3 15 140 138
3 15 142 140
3 284 144 285
3 286 145 287
3 288 146 289
3 290 147 291
3 292 291 146
3 290 291 292
3 19 150 148
3 21 151 63
3 21 152 151
3 21 154 152
3 23 155 65
3 23 156 155
3 24 293 294
3 24 295 297
3 295 157 296
3 295 296 297
3 298 159 299
3 26 160 69
3 26 161 160
3 26 163 161
3 28 164 71
3 28 165 164
3 28 167 165
3 30 168 73
3 30 169 168
3 31 172 170
3 33 173 76
3 33 174 173
3 33 176 174
3 35 177 78
3 35 178 177
3 36 300 302
3 300 179 301
3 300 301 302
3 36 180 179
3 17 303 305
3 305 304 143
3 303 304 305
3 306 181 307
3 37 308 310
3 310 309 82
3 308 309 310
3 37 311 313
3 311 182 312
3 311 312 313
3 37 183 182
3 314 184 315
3 316 315 84
3 314 315 316
3 317 185 318
3 319 318 184
3 317 318 319
3 18 320 321
3 323 322 87
3 38 324 326
3 324 186 325
3 324 325 326
3 38 187 186
3 20 188 149
3 327 189 328
3 329 328 91
3 327 328 329
3 330 190 331
3 332 331 189
3 330 331 332
3 334 333 190
3 335 191 336
3 39 337 338
3 39 339 341
3 339 192 340
3 339 340 341
3 22 193 153
3 40 194 96
3 40 195 194
3 40 196 195
3 41 197 98
3 41 199 197
3 343 342 101
3 344 198 345
3 43 346 347
3 43 348 349
3 25 201 158
3 44 202 105
3 44 203 202
3 44 204 203
3 45 350 352
3 352 351 107
3 350 351 352
3 45 353 355
3 353 205 354
3 353 354 355
3 45 206 205
3 46 207 109
3 46 208 207
3 27 209 162
3 47 210 112
3 47 211 210
3 47 212 211
3 48 356 358
3 358 357 114
3 356 357 358
3 48 359 360
3 48 361 362
3 49 213 116
3 49 214 213
3 29 215 166
3 50 216 119
3 50 217 216
3 50 218 217
3 51 219 121
3 51 220 219
3 363 221 364
3 52 222 123
3 52 223 222
3 52 224 223
3 53 225 125
3 53 226 225
3 53 227 226
3 54 228 126
3 54 229 228
3 55 365 367
3 365 230 366
3 365 366 367
3 55 231 230
3 55 232 231
3 42 233 128
3 42 200 233
3 57 368 370
3 368 235 369
3 368 369 370
3 57 236 235
3 32 237 171
3 58 238 132
3 58 239 238
3 58 240 239
3 59 241 134
3 59 242 241
3 59 243 242
3 60 244 136
3 60 245 244
3 34 246 175
3 61 247 139
3 61 248 247
3 61 249 248
3 56 250 141
3 56 234 250
3 62 63 19
3 64 63 62
3 64 21 63
3 64 65 21
3 66 65 64
3 66 23 65
3 67 371 372
3 67 373 375
3 373 24 374
3 373 374 375
3 68 376 378
3 376 69 377
3 376 377 378
3 70 69 68
3 70 26 69
3 70 71 26
3 72 71 70
3 72 28 71
3 72 73 28
3 74 73 72
3 74 30 73
3 75 76 31
3 77 76 75
3 77 33 76
3 77 78 33
3 79 78 77
3 79 35 78
3 379 36 380
3 80 381 382
3 80 383 384
3 80 385 386
3 388 387 80
3 390 389 17
3 81 391 393
3 391 82 392
3 391 392 393
3 83 82 81
3 83 37 82
3 83 84 37
3 85 84 83
3 85 394 396
3 396 395 84
3 394 395 396
3 86 87 18
3 88 87 86
3 88 397 399
3 399 398 87
3 397 398 399
3 88 400 401
3 403 402 88
3 89 404 405
3 89 406 408
3 406 38 407
3 406 407 408
3 90 91 20
3 92 91 90
3 92 409 411
3 411 410 91
3 409 410 411
3 92 412 413
3 93 414 416
3 416 415 92
3 414 415 416
3 93 417 418
3 93 419 420
3 94 421 423
3 423 422 93
3 421 422 423
3 94 424 426
3 424 39 425
3 424 425 426
3 95 96 22
3 97 96 95
3 97 40 96
3 97 98 40
3 99 98 97
3 99 41 98
3 100 427 428
3 100 429 430
3 100 431 433
3 431 101 432
3 431 432 433
3 434 101 435
3 436 435 100
3 434 435 436
3 438 437 101
3 102 439 440
3 103 441 443
3 443 442 102
3 441 442 443
3 103 444 446
3 444 43 445
3 444 445 446
3 104 105 25
3 106 105 104
3 106 44 105
3 106 107 44
3 108 107 106
3 108 45 107
3 108 109 45
3 110 109 108
3 110 46 109
3 111 112 27
3 113 112 111
3 113 47 112
3 113 114 47
3 115 114 113
3 115 48 114
3 115 116 48
3 117 116 115
3 117 49 116
3 118 119 29
3 120 119 118
3 120 50 119
3 120 121 50
3 122 121 120
3 122 51 121
3 447 123 448
3 124 449 451
3 449 123 450
3 449 450 451
3 124 52 123
3 124 125 52
3 452 125 453
3 454 453 124
3 452 453 454
3 455 53 456
3 457 456 125
3 455 456 457
3 458 126 459
3 460 459 53
3 458 459 460
3 461 126 462
3 463 54 464
3 465 464 126
3 463 464 465
3 127 466 467
3 127 468 470
3 468 55 469
3 468 469 470
3 127 128 55
3 129 128 127
3 129 42 128
3 130 471 472
3 130 473 475
3 473 57 474
3 473 474 475
3 131 132 32
3 133 132 131
3 133 58 132
3 133 134 58
3 135 134 133
3 135 59 134
3 135 136 59
3 137 136 135
3 137 60 136
3 138 139 34
3 140 139 138
3 140 61 139
3 140 141 61
3 142 141 140
3 142 56 141
3 476 6 477
3 478 143 479
3 480 479 6
3 478 479 480
3 144 481 483
3 481 143 482
3 481 482 483
3 144 17 143
3 484 144 485
3 486 144 487
3 488 17 489
3 490 489 144
3 488 489 490
3 492 491 17
3 493 81 494
3 145 495 497
3 495 81 496
3 495 496 497
3 145 8 81
3 498 18 499
3 146 500 501
3 146 502 504
3 502 18 503
3 502 503 504
3 146 86 18
3 147 86 146
3 147 9 86
3 148 149 4
3 150 149 148
3 150 20 149
3 63 150 19
3 151 150 63
3 151 20 150
3 151 90 20
3 152 90 151
3 152 10 90
3 152 153 10
3 154 153 152
3 154 22 153
3 65 154 21
3 155 154 65
3 155 22 154
3 155 95 22
3 156 95 155
3 156 11 95
3 157 505 506
3 157 507 508
3 509 158 510
3 511 510 5
3 509 510 511
3 159 512 514
3 512 158 513
3 512 513 514
3 159 25 158
3 69 515 517
3 515 159 516
3 515 516 517
3 160 159 69
3 160 25 159
3 160 104 25
3 161 104 160
3 161 12 104
3 161 162 12
3 163 162 161
3 163 27 162
3 71 163 26
3 164 163 71
3 164 27 163
3 164 111 27
3 165 111 164
3 165 13 111
3 165 166 13
3 167 166 165
3 167 29 166
3 73 167 28
3 168 167 73
3 168 29 167
3 168 118 29
3 169 118 168
3 169 14 118
3 170 171 7
3 172 171 170
3 172 32 171
3 76 172 31
3 173 172 76
3 173 32 172
3 173 131 32
3 174 131 173
3 174 16 131
3 174 175 16
3 176 175 174
3 176 34 175
3 78 176 33
3 177 176 78
3 177 34 176
3 177 138 34
3 178 138 177
3 178 15 138
3 518 4 519
3 520 4 521
3 522 148 523
3 524 523 4
3 522 523 524
3 525 148 526
3 527 19 528
3 529 528 148
3 527 528 529
3 179 530 531
3 179 532 534
3 532 19 533
3 532 533 534
3 179 62 19
3 180 62 179
3 180 1 62
3 535 102 536
3 537 102 538
3 539 5 540
3 541 540 102
3 539 540 541
3 542 5 543
3 545 544 5
3 546 68 547
3 548 68 549
3 550 2 551
3 552 551 68
3 550 551 552
3 554 553 2
3 143 555 557
3 557 556 6
3 555 556 557
3 559 558 143
3 561 560 17
3 181 562 563
3 181 564 566
3 564 7 565
3 564 565 566
3 82 567 568
3 570 569 82
3 571 181 572
3 182 573 575
3 573 181 574
3 573 574 575
3 182 7 181
3 182 170 7
3 183 170 182
3 183 31 170
3 84 183 37
3 184 183 84
3 184 31 183
3 184 75 31
3 185 75 184
3 185 3 75
3 87 576 578
3 578 577 18
3 576 577 578
3 580 579 87
3 186 581 582
3 186 583 584
3 186 585 587
3 585 147 586
3 585 586 587
3 187 147 186
3 187 9 147
3 149 89 4
3 188 89 149
3 188 38 89
3 91 188 20
3 189 188 91
3 189 38 188
3 189 187 38
3 190 187 189
3 190 9 187
3 190 588 590
3 590 589 9
3 588 589 590
3 592 591 190
3 191 593 594
3 191 595 596
3 597 191 598
3 599 191 600
3 602 601 191
3 192 603 604
3 192 605 606
3 153 94 10
3 193 94 153
3 193 39 94
3 96 193 22
3 194 193 96
3 194 39 193
3 194 192 39
3 195 192 194
3 195 607 609
3 609 608 192
3 607 608 609
3 195 610 611
3 196 612 614
3 614 613 195
3 612 613 614
3 196 615 616
3 98 196 40
3 197 196 98
3 197 617 619
3 619 618 196
3 617 618 619
3 197 620 622
3 620 198 621
3 620 621 622
3 199 198 197
3 199 0 198
3 101 623 624
3 626 625 101
3 198 627 628
3 198 629 631
3 629 0 630
3 629 630 631
3 632 129 633
3 634 129 635
3 636 42 637
3 638 637 129
3 636 637 638
3 639 42 640
3 641 200 642
3 643 642 42
3 641 642 643
3 644 200 645
3 646 0 647
3 648 647 200
3 646 647 648
3 158 103 5
3 201 103 158
3 201 43 103
3 105 201 25
3 202 201 105
3 202 43 201
3 202 649 651
3 651 650 43
3 649 650 651
3 203 652 654
3 654 653 202
3 652 653 654
3 203 655 656
3 203 657 658
3 204 659 661
3 661 660 203
3 659 660 661
3 204 662 663
3 107 204 44
3 664 204 665
3 666 665 107
3 664 665 666
3 668 667 204
3 205 669 670
3 205 671 672
3 205 673 675
3 673 67 674
3 673 674 675
3 206 67 205
3 206 24 67
3 109 206 45
3 207 206 109
3 207 24 206
3 207 157 24
3 208 157 207
3 208 676 678
3 678 677 157
3 676 677 678
3 162 110 12
3 209 110 162
3 209 46 110
3 112 209 27
3 210 209 112
3 210 46 209
3 210 208 46
3 211 208 210
3 211 679 681
3 681 680 208
3 679 680 681
3 211 682 683
3 212 684 686
3 686 685 211
3 684 685 686
3 212 687 688
3 114 212 47
3 689 212 690
3 691 690 114
3 689 690 691
3 693 692 212
3 116 694 696
3 696 695 48
3 694 695 696
3 213 697 699
3 699 698 116
3 697 698 699
3 213 700 701
3 213 702 704
3 702 145 703
3 702 703 704
3 214 145 213
3 214 8 145
3 166 117 13
3 215 117 166
3 215 49 117
3 119 215 29
3 216 215 119
3 216 49 215
3 216 214 49
3 217 214 216
3 217 8 214
3 217 85 8
3 218 85 217
3 218 705 707
3 707 706 85
3 705 706 707
3 121 218 50
3 219 218 121
3 219 708 710
3 710 709 218
3 708 709 710
3 219 711 713
3 711 185 712
3 711 712 713
3 220 185 219
3 220 3 185
3 714 74 715
3 716 715 2
3 714 715 716
3 717 74 718
3 719 30 720
3 721 720 74
3 719 720 721
3 722 30 723
3 724 169 725
3 726 725 30
3 724 725 726
3 221 727 729
3 727 169 728
3 727 728 729
3 221 14 169
3 123 730 731
3 222 732 734
3 734 733 123
3 732 733 734
3 222 735 736
3 222 737 739
3 737 221 738
3 737 738 739
3 223 221 222
3 223 14 221
3 223 122 14
3 224 122 223
3 224 51 122
3 125 224 52
3 225 224 125
3 225 51 224
3 225 220 51
3 226 220 225
3 226 3 220
3 226 79 3
3 227 79 226
3 227 35 79
3 126 227 53
3 228 227 126
3 228 35 227
3 228 178 35
3 229 178 228
3 229 15 178
3 740 54 741
3 230 742 743
3 230 744 746
3 744 54 745
3 744 745 746
3 230 229 54
3 231 229 230
3 231 15 229
3 231 142 15
3 232 142 231
3 232 56 142
3 128 232 55
3 233 232 128
3 233 56 232
3 233 234 56
3 200 234 233
3 200 0 234
3 747 36 748
3 235 749 750
3 235 751 753
3 751 36 752
3 751 752 753
3 235 180 36
3 236 180 235
3 236 1 180
3 171 754 756
3 756 755 7
3 754 755 756
3 237 757 759
3 759 758 171
3 757 758 759
3 237 760 761
3 132 237 32
3 238 237 132
3 238 762 764
3 764 763 237
3 762 763 764
3 238 765 766
3 239 767 769
3 769 768 238
3 767 768 769
3 239 770 771
3 239 772 774
3 772 130 773
3 772 773 774
3 240 130 239
3 240 57 130
3 134 240 58
3 241 240 134
3 241 57 240
3 241 236 57
3 242 236 241
3 242 1 236
3 242 66 1
3 243 66 242
3 243 23 66
3 136 243 59
3 244 243 136
3 244 23 243
3 244 156 23
3 245 156 244
3 245 11 156
3 175 137 16
3 246 137 175
3 246 60 137
3 139 246 34
3 247 246 139
3 247 60 246
3 247 245 60
3 248 245 247
3 248 11 245
3 248 99 11
3 249 99 248
3 249 41 99
3 141 249 61
3 250 249 141
3 250 41 249
3 250 199 41
3 234 199 250
3 234 0 199
