ply
format ascii 1.0
element vertex 271
property float x
property float y
property float z
element face 244
property list uchar int vertex_index
end_header
3.590025 -52.441551 72.396652
0.533854 -45.019615 78.97171
0.579529 -47.316475 87.757957
2.225525 -55.116833 81.77832
5.43852 -49.703064 62.152931
-0.048866 -43.291653 89.421875
-1.300272 -42.494034 86.483322
0.05167 -46.411976 83.857628
4.671547 -51.051052 67.229904
2.628468 -53.844887 77.358864
2.490606 -48.757187 75.711609
3.816372 -47.249786 70.375893
2.586542 -51.826485 88.169052
1.570154 -51.24876 85.108192
1.622076 -50.156853 80.764801
-1.646086 -40.444641 87.532669
4.132284 -53.560764 68.198181
4.143803 -51.740288 69.820648
3.066183 -53.147984 74.922157
3.190886 -54.958607 73.168961
1.570671 -46.89933 77.344696
2.175428 -46.119659 74.687386
0.174103 -45.315269 88.732544
1.055355 -45.482201 89.85891
1.275251 -47.533016 89.145103
2.408415 -49.704136 89.279755
1.598173 -49.578018 88.123085
1.936117 -51.611496 86.835953
1.076515 -49.293091 86.536133
0.181921 -45.76292 81.499596
0.862574 -48.297455 82.356346
1.119276 -47.634338 79.919403
1.975117 -49.481388 78.295975
5.588375 -49.031006 59.747063
4.520149 -46.491245 67.695763
-0.501385 -43.094978 80.592255
-0.013865 -41.255096 89.799248
-0.978958 -40.934246 88.885498
-0.823709 -42.976532 88.15696
-0.410807 -44.978931 87.173195
0.175877 -46.937836 85.97049
-0.70409 -44.482162 85.244743
-0.724707 -43.845081 83.024658
5.119438 -50.373734 64.660942
2.331444 -54.510254 79.662094
3.188578 -50.605412 74.064911
3.800932 -49.883743 71.439941
3.121357 -48.007835 73.058914
2.71875 -53.940693 86.791451
2.208426 -53.631165 85.329315
1.974806 -53.189056 83.511833
0.838026 -48.859406 84.587646
1.474682 -50.755539 83.058968
1.995312 -52.637508 81.410866
2.234669 -52.004501 79.096642
2.648886 -51.31868 76.631004
4.430498 -49.164783 68.791939
5.019835 -48.451725 66.155403
5.511156 -47.741318 63.567062
5.849798 -47.026375 61.067451
5.89801 -45.551071 56.503319
3.866914 -52.090919 71.10865
3.904466 -52.995758 70.26228
3.627577 -53.34639 71.550282
3.627577 -53.34639 71.550282
3.428007 -54.604917 71.936436
3.390455 -53.700079 72.782806
0.802308 -44.615507 77.654968
1.320717 -45.555364 76.841461
1.052262 -45.959473 78.158203
5.22603 -50.656328 61.477101
5.142482 -50.973282 62.681095
5.513447 -49.367035 60.949997
5.300957 -50.320299 60.274166
5.22603 -50.656328 61.477101
2.280807 -56.368576 81.799118
2.289513 -55.376093 82.71183
-0.809312 -41.669314 80.159988
-0.960265 -42.097723 81.391648
-1.325982 -39.639706 88.619427
-0.897425 -39.900416 89.109401
-1.244449 -38.605875 88.84333
-1.071927 -42.472774 82.607849
-1.107676 -42.852722 83.746681
-0.960265 -42.097723 81.391648
-0.613046 -43.470029 81.808457
-1.071927 -42.472774 82.607849
4.606244 -51.971498 66.458763
4.336613 -53.226354 66.942902
4.401916 -52.305908 67.714043
4.895492 -50.712393 65.945423
4.830189 -51.63284 65.174282
4.606244 -51.971498 66.458763
2.536732 -55.107329 77.592762
2.38822 -55.440012 78.744377
2.479956 -54.177571 78.510479
2.532102 -45.718322 73.339016
1.964498 -44.741816 74.168827
0.485994 -43.363647 89.826897
0.503494 -42.345369 90.015583
-0.031365 -42.273375 89.610562
1.638356 -45.483281 90.186169
1.657609 -46.53365 89.966813
3.052739 -51.856983 88.609604
2.963675 -50.795809 89.164955
2.497479 -50.76531 88.724403
3.049451 -52.964802 88.002445
3.052739 -51.856983 88.609604
2.652646 -52.883589 87.480251
3.115555 -54.021906 87.313644
3.049451 -52.964802 88.002445
5.096199 -47.092268 65.60352
4.769992 -47.471485 66.925583
4.846357 -46.112028 66.3737
5.34186 -46.737065 64.309349
5.265496 -48.096522 64.861232
5.096199 -47.092268 65.60352
5.961816 -45.610031 60.544754
5.780279 -45.997942 61.773754
6.031631 -45.246151 59.360733
5.919613 -46.662495 59.88343
5.961816 -45.610031 60.544754
5.990595 -44.064097 56.059449
6.053895 -44.474493 57.112049
5.730495 -45.165411 55.506489
5.990595 -44.064097 56.059449
-1.941469 -39.055988 87.240398
-1.659546 -39.394903 87.943012
-1.832821 -40.121803 86.662533
-1.941469 -39.055988 87.240398
-1.659914 -41.1465 86.137859
-1.473179 -41.469337 87.007995
-1.832821 -40.121803 86.662533
-1.395458 -42.177199 85.476013
-1.659914 -41.1465 86.137859
3.898707 -53.905996 69.451046
3.783995 -54.788172 68.594448
4.138044 -52.650526 69.009415
3.898707 -53.905996 69.451046
3.904466 -52.995758 70.26228
2.915673 -54.409554 75.239395
2.696815 -54.758005 76.457749
2.847326 -53.496436 76.140511
2.978024 -55.314865 74.362797
2.915673 -54.409554 75.239395
3.128534 -54.053296 74.045559
2.918162 -56.213486 73.432945
2.978024 -55.314865 74.362797
3.111353 -55.845711 72.272392
2.918162 -56.213486 73.432945
3.111353 -55.845711 72.272392
3.428007 -54.604917 71.936436
1.623096 -45.165529 75.512806
1.87305 -46.509495 76.016041
1.320717 -45.555364 76.841461
1.964498 -44.741816 74.168827
1.623096 -45.165529 75.512806
1.767557 -47.559057 89.609909
1.657609 -46.53365 89.966813
1.165303 -46.507609 89.502006
1.841833 -48.618576 89.212429
2.334139 -48.644617 89.677235
1.767557 -47.559057 89.609909
5.303623 -50.006317 59.12397
5.300957 -50.320299 60.274166
5.564834 -48.69009 58.615074
5.303623 -50.006317 59.12397
4.090601 -45.498243 68.492416
4.16826 -46.870515 69.035828
3.738713 -45.877513 69.832482
4.477992 -45.090696 67.154602
4.090601 -45.498243 68.492416
4.846357 -46.112028 66.3737
4.477992 -45.090696 67.154602
-0.284596 -42.678344 79.306068
0.233024 -43.640663 78.495796
0.016235 -44.057296 79.781982
-0.284596 -42.678344 79.306068
-0.809312 -41.669314 80.159988
-0.414878 -40.06084 89.566277
0.157773 -40.238349 89.828774
-0.496412 -41.094671 89.342373
-0.414878 -40.06084 89.566277
-0.897425 -39.900416 89.109401
-1.312522 -40.689443 88.209083
-1.325982 -39.639706 88.619427
-1.659546 -39.394903 87.943012
-1.097367 -43.171262 84.856724
-1.002181 -43.488098 85.864033
-1.395458 -42.177199 85.476013
-0.714398 -44.163622 84.134701
-1.097367 -43.171262 84.856724
-1.107676 -42.852722 83.746681
3.969461 -54.444367 67.387402
3.783995 -54.788172 68.594448
3.969461 -54.444367 67.387402
4.336613 -53.226354 66.942902
4.982941 -51.308617 63.935101
4.830189 -51.63284 65.174282
5.278979 -50.038399 63.406937
5.142482 -50.973282 62.681095
4.982941 -51.308617 63.935101
2.308496 -55.769749 79.797264
2.255536 -56.073038 80.855377
2.278485 -54.813544 80.720207
2.308496 -55.769749 79.797264
2.38822 -55.440012 78.744377
2.536732 -55.107329 77.592762
2.696815 -54.758005 76.457749
3.005066 -46.662411 72.52478
2.648392 -47.063747 73.87315
2.532102 -45.718322 73.339016
3.352574 -46.283386 71.183269
3.468865 -47.628811 71.717404
3.005066 -46.662411 72.52478
3.738713 -45.877513 69.832482
3.352574 -46.283386 71.183269
0.802308 -44.615507 77.654968
0.233024 -43.640663 78.495796
0.611526 -41.331581 90.025483
0.783164 -40.314835 90.055008
0.157773 -40.238349 89.828774
0.611526 -41.331581 90.025483
0.503494 -42.345369 90.015583
1.038104 -44.458922 90.045414
0.485994 -43.363647 89.826897
0.503244 -44.386927 89.640392
1.038104 -44.458922 90.045414
1.638356 -45.483281 90.186169
2.952168 -49.689165 89.620041
2.334139 -48.644617 89.677235
2.952168 -49.689165 89.620041
2.963675 -50.795809 89.164955
3.069405 -55.12282 86.58073
3.46621 -55.204033 87.102924
3.115555 -54.021906 87.313644
2.732595 -54.989599 85.994057
3.069405 -55.12282 86.58073
2.477432 -54.834835 85.262989
2.732595 -54.989599 85.994057
2.463588 -53.785929 86.060383
2.280964 -54.633259 84.487327
2.477432 -54.834835 85.262989
2.164154 -54.412205 83.578587
2.280964 -54.633259 84.487327
2.091616 -53.410111 84.420574
2.100166 -54.152945 82.645076
2.289513 -55.376093 82.71183
2.164154 -54.412205 83.578587
5.610958 -46.355413 63.02356
5.34186 -46.737065 64.309349
5.680477 -47.383847 62.317256
5.610958 -46.355413 63.02356
5.780279 -45.997942 61.773754
5.788901 -47.664811 59.223236
5.719086 -48.02869 60.407257
5.919613 -46.662495 59.88343
5.564834 -48.69009 58.615074
5.788901 -47.664811 59.223236
5.943719 -45.924843 57.601364
6.099604 -44.848265 58.210094
6.053895 -44.474493 57.112049
5.719652 -46.950122 56.993202
5.943719 -45.924843 57.601364
5.591878 -46.601005 55.948234
5.719652 -46.950122 56.993202
5.424364 -46.215345 54.951404
5.591878 -46.601005 55.948234
5.730495 -45.165411 55.506489
2.280807 -56.368576 81.799118
2.255536 -56.073038 80.855377
3 0 61 63
3 61 17 62
3 61 62 63
3 0 19 18
3 0 64 66
3 66 65 19
3 64 65 66
3 1 67 69
3 69 68 20
3 67 68 69
3 2 24 22
3 2 26 24
3 2 28 26
3 1 31 29
3 1 20 31
3 4 70 71
3 4 72 74
3 72 33 73
3 72 73 74
3 3 75 76
3 78 77 35
3 79 37 80
3 79 80 81
3 6 38 15
3 6 39 38
3 6 41 39
3 82 42 83
3 84 35 85
3 86 85 42
3 84 85 86
3 8 87 89
3 89 88 16
3 87 88 89
3 8 90 92
3 90 43 91
3 90 91 92
3 9 93 95
3 95 94 44
3 93 94 95
3 10 47 45
3 97 96 21
3 5 98 100
3 100 99 36
3 98 99 100
3 102 101 23
3 12 103 105
3 105 104 25
3 103 104 105
3 12 106 107
3 12 108 110
3 108 48 109
3 108 109 110
3 13 49 27
3 13 50 49
3 7 51 40
3 14 52 30
3 14 53 52
3 14 54 53
3 10 55 32
3 10 45 55
3 11 56 46
3 111 57 112
3 113 112 34
3 111 112 113
3 114 58 115
3 116 115 57
3 114 115 116
3 117 59 118
3 121 120 59
3 119 120 121
3 122 60 123
3 125 124 60
3 126 15 127
3 128 15 129
3 130 6 131
3 132 131 15
3 130 131 132
3 134 133 6
3 135 16 136
3 17 137 139
3 137 16 138
3 137 138 139
3 17 8 16
3 18 140 142
3 142 141 9
3 140 141 142
3 19 143 145
3 145 144 18
3 143 144 145
3 19 146 147
3 19 148 149
3 151 150 19
3 20 21 10
3 152 21 153
3 154 153 20
3 152 153 154
3 156 155 21
3 22 23 5
3 24 23 22
3 24 157 159
3 159 158 23
3 157 158 159
3 24 160 162
3 160 25 161
3 160 161 162
3 26 25 24
3 26 12 25
3 26 27 12
3 28 27 26
3 28 13 27
3 29 30 7
3 31 30 29
3 31 14 30
3 31 32 14
3 20 32 31
3 20 10 32
3 33 163 164
3 33 165 166
3 167 34 168
3 169 168 11
3 167 168 169
3 170 34 171
3 173 172 34
3 35 174 176
3 176 175 1
3 174 175 176
3 178 177 35
3 179 36 180
3 37 181 183
3 181 36 182
3 181 182 183
3 37 5 36
3 15 184 186
3 184 37 185
3 184 185 186
3 38 37 15
3 38 5 37
3 38 22 5
3 39 22 38
3 39 2 22
3 39 40 2
3 41 40 39
3 41 7 40
3 187 41 188
3 189 188 6
3 187 188 189
3 42 190 192
3 190 41 191
3 190 191 192
3 42 7 41
3 42 29 7
3 35 29 42
3 35 1 29
3 16 193 194
3 196 195 16
3 43 197 198
3 43 199 201
3 199 4 200
3 199 200 201
3 44 202 204
3 204 203 3
3 202 203 204
3 206 205 44
3 208 207 9
3 45 46 0
3 47 46 45
3 47 11 46
3 21 47 10
3 209 47 210
3 211 210 21
3 209 210 211
3 212 11 213
3 214 213 47
3 212 213 214
3 216 215 11
3 218 217 1
3 36 219 221
3 219 220 221
3 223 222 36
3 23 224 226
3 226 225 5
3 224 225 226
3 228 227 23
3 25 229 230
3 232 231 25
3 48 233 235
3 233 234 235
3 48 236 237
3 27 48 12
3 49 48 27
3 49 238 240
3 240 239 48
3 238 239 240
3 49 241 242
3 50 243 245
3 245 244 49
3 243 244 245
3 50 246 248
3 246 3 247
3 246 247 248
3 40 28 2
3 51 28 40
3 51 13 28
3 30 51 7
3 52 51 30
3 52 13 51
3 52 50 13
3 53 50 52
3 53 3 50
3 53 44 3
3 54 44 53
3 54 9 44
3 32 54 14
3 55 54 32
3 55 9 54
3 55 18 9
3 45 18 55
3 45 0 18
3 46 17 0
3 56 17 46
3 56 8 17
3 34 56 11
3 57 56 34
3 57 8 56
3 57 43 8
3 58 43 57
3 58 4 43
3 249 58 250
3 59 251 253
3 251 58 252
3 251 252 253
3 59 4 58
3 59 33 4
3 254 33 255
3 256 255 59
3 254 255 256
3 258 257 33
3 60 259 261
3 259 260 261
3 60 262 263
3 60 264 265
3 268 267 60
3 266 267 268
3 270 269 3
