ply
format ascii 1.0
element vertex 394
property float x
property float y
property float z
element face 415
property list uchar int vertex_index
end_header
55.463177 15.703011 -42.721413
36.820679 15.66938 -54.796257
49.825195 18.684467 -40.687126
41.224079 19.465435 -46.529991
46.45512 18.670467 -51.198868
56.666946 13.048172 -31.578508
33.927593 14.529316 -46.44162
60.919006 4.468479 -21.606199
52.640049 18.416595 -42.03231
48.27002 20.022552 -46.282578
51.278419 17.87149 -47.359055
50.002312 14.938248 -51.713982
54.601601 13.550018 -47.498169
53.37825 12.041252 -30.935751
38.864014 18.677063 -51.263313
37.155987 17.631283 -47.287941
34.889 15.691254 -51.302261
32.097145 11.566607 -49.715897
33.109623 12.046621 -54.015938
35.575718 10.999767 -56.834152
46.948097 17.188286 -38.447586
43.125771 18.187656 -40.988029
45.607384 19.799591 -44.217384
43.51886 20.155529 -49.502945
41.450645 17.938164 -53.808388
39.998867 13.659359 -56.770905
44.968361 14.985832 -54.956711
50.417259 15.066658 -34.987717
53.562653 16.346558 -36.356873
56.326569 15.60812 -37.163673
39.259525 17.893063 -42.286888
35.78706 16.329273 -42.192223
59.106735 9.019344 -26.601233
54.048161 17.357162 -42.455193
51.974876 18.46838 -44.783745
53.473598 16.943413 -45.115555
52.908836 15.940781 -47.549759
55.015968 14.885284 -45.245506
37.76226 17.427631 -53.200745
36.755638 17.355274 -51.501892
35.699547 15.905251 -53.239128
33.90963 14.06031 -52.839272
34.820721 14.008247 -54.621407
34.152336 11.747091 -55.618629
36.08614 13.492607 -56.018044
48.400551 18.060093 -39.701019
46.416218 18.720837 -41.36248
47.760895 19.411366 -42.578003
47.352707 19.676262 -48.861534
45.916142 20.286137 -48.04969
44.901314 19.714935 -50.503265
42.437408 19.352623 -51.805496
43.942211 18.500267 -52.685204
43.107433 16.722572 -54.550728
45.643669 17.073074 -53.242126
51.928349 12.413734 -51.537636
55.104267 12.75095 -31.316702
53.645164 14.420033 -33.591286
55.198296 14.802151 -34.005981
54.993965 16.286243 -36.807045
56.6091 14.636238 -34.328072
42.281376 19.041496 -43.832535
41.172344 18.206776 -41.80835
40.231503 18.668766 -44.552048
35.40881 16.212788 -47.052704
36.475689 16.891994 -44.837578
34.889233 15.558075 -44.419525
31.336624 9.636438 -50.89109
41.977047 11.937529 -57.207985
39.587009 11.030558 -57.663841
59.364311 4.434208 -21.780344
60.088486 6.796 -24.096148
58.185261 9.548403 -44.825401
51.235184 18.846653 -41.450874
49.124985 19.684284 -43.531723
50.525932 19.388664 -44.258499
49.728577 19.252327 -46.936417
48.920998 18.455372 -49.404633
48.165421 17.053505 -51.601128
50.607323 16.671108 -49.68502
52.386864 14.406391 -49.699959
54.228767 11.752665 -49.443085
54.645935 10.246292 -28.769384
56.406933 10.895393 -28.97611
40.050331 19.35915 -49.024551
39.116322 18.728493 -47.115387
37.924171 18.301743 -49.447372
35.996506 16.888046 -49.439491
34.331261 15.167034 -49.016258
32.975582 13.202538 -48.220047
33.32288 13.739437 -50.689835
32.444725 11.948536 -52.036926
31.732359 9.837938 -53.024147
32.509518 9.720861 -54.802071
45.065815 17.841827 -39.854645
44.36153 19.055447 -42.755814
43.409637 19.82267 -45.551254
46.90115 20.179138 -45.3843
44.60825 20.300816 -46.952721
42.302612 20.029385 -48.182076
41.143486 19.617832 -50.588539
40.032501 18.586018 -52.717079
39.052853 16.988991 -54.522369
38.262646 14.919903 -55.971001
40.624493 16.00214 -55.474243
42.444351 14.493557 -56.068504
44.46072 12.529043 -56.317711
47.508652 15.133537 -53.485855
48.739494 16.253601 -36.810799
50.281044 17.102516 -37.821541
51.966629 13.65469 -33.01799
52.034348 15.879322 -35.771156
51.766827 17.651501 -38.597511
53.198845 17.701668 -39.194061
54.580177 17.143421 -39.653374
55.917496 15.956398 -39.995682
38.242397 17.396187 -39.817924
38.275017 17.943718 -44.888588
37.445938 17.257366 -42.411667
37.691147 12.490171 -57.029457
57.551487 8.87528 -26.593397
57.968323 11.11195 -29.102327
60.398598 8.602703 -26.629995
59.301567 10.764294 -29.214808
58.042664 12.785213 -31.788546
57.872421 13.8493 -34.597694
57.566414 14.306339 -37.442284
57.217533 14.187481 -40.216034
56.333508 10.792267 -47.191437
51.740028 11.23301 -52.297379
52.91589 10.987583 -51.30574
33.740865 14.265635 -45.060558
34.221685 14.780014 -44.049511
34.408413 15.043696 -45.430572
33.335786 13.589567 -45.97604
33.740865 14.265635 -45.060558
30.966561 8.415826 -50.181702
31.025914 8.541134 -51.301544
41.841749 10.555109 -57.570488
43.054987 10.881146 -57.251747
60.474148 3.267434 -20.495102
61.259842 3.266396 -20.377834
60.141659 4.451344 -21.693272
59.6968 3.250298 -20.582175
60.474148 3.267434 -20.495102
55.205427 9.26711 -27.655756
54.221165 8.848325 -27.563858
56.085926 9.59166 -27.759119
55.526434 10.570843 -28.872747
55.205427 9.26711 -27.655756
34.637846 10.105172 -56.517853
33.926155 10.478834 -55.910091
34.864027 11.373429 -56.226391
35.428232 9.643991 -57.024365
34.637846 10.105172 -56.517853
46.006956 17.515057 -39.151116
45.260365 17.09148 -38.376091
46.201505 16.76471 -37.672562
49.578377 15.66013 -35.899258
48.732444 15.208217 -35.37698
49.571327 14.614746 -34.465439
52.672439 12.847971 -31.97687
51.745733 12.39983 -31.685708
52.451543 11.593111 -30.644588
42.492821 17.829186 -39.961887
43.404347 17.618724 -39.518367
39.644419 17.740168 -40.908848
40.600828 17.897025 -40.669579
40.215935 18.04992 -42.047619
38.750961 17.644625 -41.052406
39.135854 17.49173 -39.674366
39.644419 17.740168 -40.908848
36.169308 16.620148 -40.995018
36.998747 17.084194 -41.10474
36.616499 16.79332 -42.301945
35.394523 16.246257 -40.841351
35.776771 16.537132 -39.644146
36.169308 16.620148 -40.995018
32.025163 11.317291 -48.415184
32.464382 12.135257 -47.667259
32.536364 12.384573 -48.967972
38.463645 10.420903 -57.664005
39.482994 9.627532 -57.89003
58.329111 8.947312 -26.597315
58.044516 7.794243 -25.391132
58.822139 7.866275 -25.39505
60.906841 8.095617 -26.668671
60.873513 7.465471 -25.342624
59.262592 11.334081 -30.599291
59.849179 10.285317 -29.280543
58.633141 12.344541 -31.88616
58.672116 11.774753 -30.501677
59.262592 11.334081 -30.599291
58.54802 12.876584 -33.290734
57.957543 13.317256 -33.19312
58.633141 12.344541 -31.88616
58.145436 13.371965 -37.536652
58.280476 13.377045 -36.133656
57.970995 13.312537 -38.923527
57.391974 14.24691 -38.829159
58.145436 13.371965 -37.536652
57.205966 9.270161 -46.906613
57.259384 10.170335 -46.008419
58.131842 8.648229 -45.723595
56.216646 9.791719 -48.05151
57.205966 9.270161 -46.906613
50.710962 12.589894 -52.479962
49.747944 13.852151 -52.568134
50.965331 13.675991 -51.625809
50.710962 12.589894 -52.479962
51.740028 11.23301 -52.297379
50.302914 13.906924 -33.599659
49.571327 14.614746 -34.465439
34.607645 15.356951 -43.040302
35.056558 15.74255 -41.926651
35.338146 15.943674 -43.305874
34.607645 15.356951 -43.040302
34.221685 14.780014 -44.049511
31.282316 9.441529 -49.67004
31.662577 10.406613 -49.082443
31.716884 10.601522 -50.303494
31.282316 9.441529 -49.67004
30.966561 8.415826 -50.181702
40.64673 10.101623 -57.798416
40.782028 11.484043 -57.435913
41.841749 10.555109 -57.570488
39.482994 9.627532 -57.89003
40.64673 10.101623 -57.798416
58.771513 3.037238 -20.726107
59.6968 3.250298 -20.582175
58.450878 4.197202 -21.879379
58.771513 3.037238 -20.726107
58.950927 5.573707 -22.984606
58.450878 4.197202 -21.879379
59.313015 6.754603 -24.142508
58.950927 5.573707 -22.984606
59.726399 5.615104 -22.938246
59.597611 7.907672 -25.348691
58.822139 7.866275 -25.39505
59.313015 6.754603 -24.142508
58.961928 8.796506 -43.601009
58.248403 10.249119 -43.76683
58.982675 7.996301 -44.53429
58.961928 8.796506 -43.601009
58.131842 8.648229 -45.723595
58.982675 7.996301 -44.53429
54.066099 10.657049 -50.258465
52.91589 10.987583 -51.30574
53.078558 12.083199 -50.490361
53.053657 10.707738 -29.665442
52.451543 11.593111 -30.644588
53.6875 9.810258 -28.582258
54.221165 8.848325 -27.563858
54.012093 11.143772 -29.852567
53.053657 10.707738 -29.665442
53.6875 9.810258 -28.582258
31.223782 8.641883 -52.368072
31.025914 8.541134 -51.301544
31.534492 9.737188 -51.957618
31.463888 8.651531 -53.324143
31.223782 8.641883 -52.368072
31.852467 8.592992 -54.213105
31.463888 8.651531 -53.324143
32.120939 9.7794 -53.913109
32.307446 8.439462 -54.988747
31.650395 7.311594 -54.399781
31.852467 8.592992 -54.213105
33.104746 9.465719 -55.501812
33.330927 10.733976 -55.21035
33.926155 10.478834 -55.910091
32.307446 8.439462 -54.988747
33.104746 9.465719 -55.501812
61.541319 4.21809 -21.558458
61.259842 3.266396 -20.377834
61.133717 5.398359 -22.830727
61.541319 4.21809 -21.558458
44.374369 17.44581 -38.951676
45.260365 17.09148 -38.376091
44.095793 18.014741 -40.421337
43.404347 17.618724 -39.518367
44.374369 17.44581 -38.951676
44.296824 11.176903 -56.80661
43.054987 10.881146 -57.251747
43.218884 12.233286 -56.762848
48.501114 13.949796 -53.454071
48.755482 15.035892 -52.599919
49.747944 13.852151 -52.568134
47.246792 13.969292 -54.261192
48.501114 13.949796 -53.454071
45.976647 13.89544 -54.99662
46.238506 15.059684 -54.221283
47.246792 13.969292 -54.261192
45.722826 12.667046 -55.677121
44.71454 13.757437 -55.637211
45.976647 13.89544 -54.99662
45.537538 11.35747 -56.27575
45.722826 12.667046 -55.677121
45.373642 10.005331 -56.764648
44.296824 11.176903 -56.80661
45.537538 11.35747 -56.27575
47.045583 16.278929 -36.982208
46.201505 16.76471 -37.672562
47.941282 15.811587 -36.163815
48.732444 15.208217 -35.37698
47.843795 16.720944 -37.629193
47.045583 16.278929 -36.982208
47.941282 15.811587 -36.163815
51.077598 13.20094 -32.614795
51.745733 12.39983 -31.685708
51.191944 14.360674 -34.002854
50.302914 13.906924 -33.599659
51.077598 13.20094 -32.614795
41.516108 17.838746 -40.372047
42.492821 17.829186 -39.961887
42.149057 18.197216 -41.39819
41.516108 17.838746 -40.372047
40.600828 17.897025 -40.669579
38.526133 17.408691 -38.459114
39.135854 17.49173 -39.674366
37.686228 17.394316 -38.546195
38.526133 17.408691 -38.459114
37.396976 17.153605 -39.807868
37.844167 17.326777 -41.114795
36.998747 17.084194 -41.10474
37.686228 17.394316 -38.546195
37.396976 17.153605 -39.807868
35.394523 16.246257 -40.841351
35.056558 15.74255 -41.926651
32.859781 12.926178 -46.865254
33.335786 13.589567 -45.97604
33.451588 13.865927 -47.330833
32.859781 12.926178 -46.865254
32.464382 12.135257 -47.667259
32.025163 11.317291 -48.415184
31.662577 10.406613 -49.082443
37.515715 11.15071 -57.346813
38.639078 11.760364 -57.346649
38.463645 10.420903 -57.664005
36.458 10.405508 -57.249161
36.633432 11.744969 -56.931804
37.515715 11.15071 -57.346813
35.428232 9.643991 -57.024365
36.458 10.405508 -57.249161
57.141033 7.530197 -25.433267
58.044516 7.794243 -25.391132
56.658203 8.581604 -26.567763
57.141033 7.530197 -25.433267
56.97921 9.885337 -27.784754
56.085926 9.59166 -27.759119
56.658203 8.581604 -26.567763
60.718457 6.562119 -24.075701
60.503746 5.63224 -22.851174
61.133717 5.398359 -22.830727
60.243542 7.699352 -25.363072
60.718457 6.562119 -24.075701
60.873513 7.465471 -25.342624
60.397694 9.204522 -27.988136
60.906841 8.095617 -26.668671
59.850082 9.683498 -27.922401
60.397694 9.204522 -27.988136
59.849179 10.285317 -29.280543
58.433479 13.148526 -34.71136
58.54802 12.876584 -33.290734
57.719418 14.07782 -36.019989
58.433479 13.148526 -34.71136
58.280476 13.377045 -36.133656
57.85253 13.055651 -40.253071
57.970995 13.312537 -38.923527
57.051222 13.86093 -41.515232
57.85253 13.055651 -40.253071
56.174044 14.618695 -42.767921
56.340355 14.945246 -41.468723
57.051222 13.86093 -41.515232
55.95044 14.209831 -44.029968
55.239573 15.294148 -43.983459
56.174044 14.618695 -42.767921
55.803663 13.637057 -45.200432
55.95044 14.209831 -44.029968
55.59648 12.969424 -46.326763
54.808785 14.217651 -46.371837
55.803663 13.637057 -45.200432
57.388309 10.968616 -44.990379
58.248403 10.249119 -43.76683
56.462433 11.590549 -46.173397
57.388309 10.968616 -44.990379
57.259384 10.170335 -46.008419
55.467555 12.171143 -47.344803
55.59648 12.969424 -46.326763
56.462433 11.590549 -46.173397
55.164276 10.271918 -49.177334
55.281137 11.272466 -48.317261
56.216646 9.791719 -48.05151
54.066099 10.657049 -50.258465
55.164276 10.271918 -49.177334
3 0 35 33
3 0 37 35
3 1 40 38
3 1 42 40
3 1 44 42
3 2 47 45
3 4 50 48
3 4 52 50
3 4 54 52
3 130 129 55
3 5 58 56
3 5 60 58
3 3 63 61
3 6 66 64
3 6 131 133
3 133 132 66
3 131 132 133
3 6 134 135
3 137 136 67
3 139 138 68
3 7 140 141
3 7 142 144
3 142 70 143
3 142 143 144
3 7 71 70
3 8 75 73
3 10 76 34
3 10 77 76
3 10 79 77
3 12 80 36
3 12 81 80
3 145 82 146
3 147 83 148
3 149 148 82
3 147 148 149
3 14 86 84
3 16 87 39
3 16 88 87
3 16 90 88
3 18 91 41
3 18 92 91
3 18 93 92
3 19 150 152
3 152 151 43
3 150 151 152
3 19 153 154
3 20 155 157
3 155 94 156
3 155 156 157
3 22 95 46
3 22 96 95
3 9 97 74
3 23 98 49
3 23 99 98
3 23 100 99
3 24 101 51
3 24 102 101
3 24 104 102
3 26 105 53
3 26 106 105
3 11 107 78
3 27 158 160
3 158 108 159
3 158 159 160
3 27 109 108
3 13 161 163
3 161 110 162
3 161 162 163
3 28 111 57
3 28 112 111
3 28 113 112
3 29 114 59
3 29 115 114
3 21 164 165
3 30 166 168
3 168 167 62
3 166 167 168
3 30 169 171
3 169 116 170
3 169 170 171
3 15 117 85
3 31 118 65
3 31 172 174
3 174 173 118
3 172 173 174
3 31 175 177
3 175 176 177
3 17 178 180
3 180 179 89
3 178 179 180
3 25 119 103
3 182 181 69
3 32 183 185
3 183 120 184
3 183 184 185
3 32 121 120
3 186 122 187
3 188 123 189
3 190 124 191
3 192 191 123
3 190 191 192
3 193 125 194
3 195 194 124
3 193 194 195
3 196 126 197
3 198 127 199
3 200 199 126
3 198 199 200
3 201 128 202
3 203 202 72
3 201 202 203
3 205 204 128
3 33 34 8
3 35 34 33
3 35 10 34
3 35 36 10
3 37 36 35
3 37 12 36
3 38 39 14
3 40 39 38
3 40 16 39
3 40 41 16
3 42 41 40
3 42 18 41
3 42 43 18
3 44 43 42
3 44 19 43
3 45 46 20
3 47 46 45
3 47 22 46
3 48 49 9
3 50 49 48
3 50 23 49
3 50 51 23
3 52 51 50
3 52 24 51
3 52 53 24
3 54 53 52
3 54 26 53
3 55 206 208
3 208 207 11
3 206 207 208
3 210 209 55
3 211 27 212
3 56 57 13
3 58 57 56
3 58 28 57
3 58 59 28
3 60 59 58
3 60 29 59
3 61 62 21
3 63 62 61
3 63 30 62
3 64 65 15
3 66 65 64
3 66 31 65
3 66 213 215
3 215 214 31
3 213 214 215
3 217 216 66
3 67 218 220
3 220 219 17
3 218 219 220
3 222 221 67
3 68 69 25
3 223 69 224
3 225 224 68
3 223 224 225
3 227 226 69
3 70 228 229
3 70 230 231
3 70 232 233
3 71 234 236
3 236 235 70
3 234 235 236
3 71 237 239
3 237 32 238
3 237 238 239
3 240 72 241
3 242 72 243
3 245 244 72
3 73 74 2
3 75 74 73
3 75 9 74
3 34 75 8
3 76 75 34
3 76 9 75
3 76 48 9
3 77 48 76
3 77 4 48
3 77 78 4
3 79 78 77
3 79 11 78
3 36 79 10
3 80 79 36
3 80 11 79
3 80 55 11
3 81 55 80
3 81 246 248
3 248 247 55
3 246 247 248
3 249 13 250
3 82 251 252
3 82 253 255
3 253 13 254
3 253 254 255
3 82 56 13
3 83 56 82
3 83 5 56
3 84 85 3
3 86 85 84
3 86 15 85
3 39 86 14
3 87 86 39
3 87 15 86
3 87 64 15
3 88 64 87
3 88 6 64
3 88 89 6
3 90 89 88
3 90 17 89
3 41 90 16
3 91 90 41
3 91 17 90
3 91 67 17
3 92 67 91
3 92 256 258
3 258 257 67
3 256 257 258
3 92 259 260
3 93 261 263
3 263 262 92
3 261 262 263
3 93 264 266
3 264 265 266
3 43 93 18
3 267 93 268
3 269 268 43
3 267 268 269
3 271 270 93
3 272 7 273
3 275 274 7
3 94 276 277
3 94 278 280
3 278 21 279
3 278 279 280
3 46 94 20
3 95 94 46
3 95 21 94
3 95 61 21
3 96 61 95
3 96 3 61
3 74 47 2
3 97 47 74
3 97 22 47
3 49 97 9
3 98 97 49
3 98 22 97
3 98 96 22
3 99 96 98
3 99 3 96
3 99 84 3
3 100 84 99
3 100 14 84
3 51 100 23
3 101 100 51
3 101 14 100
3 101 38 14
3 102 38 101
3 102 1 38
3 102 103 1
3 104 103 102
3 104 25 103
3 53 104 24
3 105 104 53
3 105 25 104
3 105 68 25
3 106 68 105
3 106 281 283
3 283 282 68
3 281 282 283
3 78 54 4
3 107 54 78
3 107 26 54
3 284 107 285
3 286 285 11
3 284 285 286
3 287 107 288
3 289 26 290
3 291 290 107
3 289 290 291
3 292 106 293
3 294 293 26
3 292 293 294
3 295 106 296
3 299 298 106
3 297 298 299
3 300 20 301
3 108 302 303
3 108 304 306
3 304 20 305
3 304 305 306
3 108 45 20
3 109 45 108
3 109 2 45
3 110 307 308
3 110 309 311
3 309 27 310
3 309 310 311
3 57 110 13
3 111 110 57
3 111 27 110
3 111 109 27
3 112 109 111
3 112 2 109
3 112 73 2
3 113 73 112
3 113 8 73
3 59 113 28
3 114 113 59
3 114 8 113
3 114 33 8
3 115 33 114
3 115 0 33
3 62 312 314
3 314 313 21
3 312 313 314
3 316 315 62
3 116 317 318
3 116 319 320
3 85 63 3
3 117 63 85
3 117 30 63
3 65 117 15
3 118 117 65
3 118 30 117
3 118 116 30
3 321 116 322
3 323 322 118
3 321 322 323
3 325 324 116
3 327 326 31
3 89 328 330
3 330 329 6
3 328 329 330
3 332 331 89
3 334 333 17
3 103 44 1
3 119 44 103
3 119 19 44
3 69 119 25
3 335 119 336
3 337 336 69
3 335 336 337
3 338 19 339
3 340 339 119
3 338 339 340
3 342 341 19
3 120 343 344
3 120 345 346
3 120 347 349
3 347 83 348
3 347 348 349
3 121 83 120
3 121 5 83
3 350 71 351
3 352 351 7
3 350 351 352
3 122 353 355
3 353 71 354
3 353 354 355
3 122 32 71
3 356 122 357
3 123 358 360
3 358 122 359
3 358 359 360
3 123 32 122
3 123 121 32
3 124 121 123
3 124 5 121
3 124 60 5
3 125 60 124
3 125 29 60
3 361 125 362
3 126 363 365
3 363 125 364
3 363 364 365
3 126 29 125
3 126 115 29
3 127 115 126
3 127 0 115
3 366 127 367
3 368 127 369
3 370 0 371
3 372 371 127
3 370 371 372
3 373 37 374
3 375 374 0
3 373 374 375
3 376 37 377
3 378 12 379
3 380 379 37
3 378 379 380
3 72 381 382
3 128 383 385
3 385 384 72
3 383 384 385
3 128 386 388
3 386 12 387
3 386 387 388
3 128 81 12
3 389 81 390
3 391 390 128
3 389 390 391
3 393 392 81
