ply
format ascii 1.0
element vertex 357
property float x
property float y
property float z
element face 338
property list uchar int vertex_index
end_header
20.324636 36.093727 -31.753332
28.197561 35.128887 -28.282503
25.680761 47.385567 -27.897837
33.918861 44.344112 -23.644773
31.101881 34.144939 -25.800409
29.471317 52.253166 -25.369967
30.408924 45.937431 -25.962446
34.286232 50.189392 -23.648008
19.18808 29.725487 -31.973055
28.983919 18.385895 -32.392563
24.51651 35.665569 -30.217726
23.015848 29.622494 -31.224421
26.579617 29.575916 -30.009108
22.557625 41.99918 -30.252024
27.059729 41.119434 -28.313986
30.723396 40.053993 -26.048525
33.223351 38.611008 -23.119425
37.473827 48.083733 -21.32102
35.844086 42.545109 -20.449896
22.668373 23.140648 -31.303686
32.267502 33.402584 -24.356188
28.713238 55.654694 -25.007967
31.546576 54.500702 -24.200903
32.038609 51.231316 -24.531763
34.119934 53.318192 -23.42993
18.185764 36.370087 -32.383682
17.59272 33.182529 -32.440468
19.610641 32.963428 -32.027397
26.444876 35.433441 -29.310087
25.512585 32.595745 -30.096678
27.264812 32.423824 -29.225996
24.803858 50.722832 -27.59041
23.073895 48.079628 -28.913118
24.022413 44.758968 -29.138945
24.879726 41.567837 -29.299719
26.427195 44.195198 -28.157827
32.351017 45.161896 -24.891676
30.613131 42.969692 -26.078936
32.255772 42.273235 -24.847216
32.122898 39.389713 -24.676451
33.546555 41.503277 -23.417707
35.113857 39.66869 -19.942621
17.876926 19.440636 -30.106688
19.591047 19.445946 -30.511503
24.461811 26.522747 -31.04624
22.699139 26.424866 -31.35882
24.34763 23.341438 -31.245607
29.750673 34.710869 -27.114447
28.86034 32.145088 -28.224672
26.691277 53.248535 -26.267241
27.505878 49.881882 -26.617239
28.157011 46.675789 -26.936228
30.038334 49.018036 -25.709204
32.300312 48.12838 -24.779345
34.200504 47.214584 -23.727808
17.280472 29.895905 -32.155327
19.057018 26.386803 -31.640184
27.64205 17.867992 -32.120796
22.456692 35.870789 -31.028357
21.639883 32.817039 -31.492228
23.624554 32.709854 -30.848574
24.848589 29.617176 -30.675016
28.191528 29.444935 -29.221609
30.324398 18.840561 -32.595306
19.052399 39.458382 -31.959654
20.173244 42.443443 -31.192293
21.315281 39.108501 -31.147875
23.545856 38.791344 -30.280909
25.671041 38.472305 -29.355574
27.625319 38.112179 -28.344133
28.650307 43.605366 -27.160036
29.025787 40.623501 -27.247923
29.359486 37.674206 -27.208952
30.846704 37.127197 -25.919924
32.084831 36.445034 -24.468039
33.094421 35.60376 -22.870531
36.235802 55.266792 -22.395426
36.323334 52.121704 -22.57757
36.119698 49.137619 -22.608183
35.672207 46.279297 -22.46715
38.326935 47.023857 -19.733564
36.686649 45.318504 -20.942461
35.080662 43.477268 -22.169054
34.487511 40.643608 -21.775953
34.051456 37.69503 -21.396021
33.912708 34.5784 -21.167391
16.125835 19.5541 -29.687994
21.114603 29.64399 -31.659082
20.886726 26.366711 -31.558802
20.946251 23.001575 -31.261377
24.48756 20.104191 -31.337824
22.902531 19.79557 -31.140032
21.267912 19.568184 -30.862741
32.513279 31.839214 -24.42427
32.771935 32.930977 -23.586727
32.619267 55.557457 -23.660002
31.192725 56.215664 -24.02133
33.905946 54.966202 -23.274515
32.833255 53.909447 -23.815416
32.619267 55.557457 -23.660002
19.396201 21.200815 -30.814281
18.520927 21.233071 -30.695358
25.157812 23.450968 -31.168194
24.40472 24.932092 -31.145924
25.214903 25.041622 -31.06851
30.699589 32.930712 -26.445301
30.023985 33.213677 -27.10232
30.426277 34.427904 -26.457428
28.312984 18.126944 -32.25668
27.569561 19.340508 -31.810706
28.240496 19.599459 -31.94659
26.36439 28.093443 -30.316508
25.498876 28.114073 -30.649462
25.714103 29.596546 -30.342062
28.93759 29.309536 -28.766718
28.525934 30.795012 -28.72314
29.271996 30.659613 -28.26825
31.008012 19.00931 -32.654247
30.340342 20.077625 -31.969731
30.966656 17.941047 -33.428417
31.008012 19.00931 -32.654247
18.428512 41.189816 -32.032485
17.940147 39.659934 -32.325084
21.365434 42.221311 -30.722158
20.847883 43.88123 -30.669418
22.040073 43.659098 -30.199284
37.298954 54.588279 -21.970858
37.283049 56.156746 -21.891089
37.34272 53.015736 -22.06193
36.279568 53.694248 -22.486498
37.298954 54.588279 -21.970858
36.796762 48.610676 -21.964602
37.091576 50.03281 -22.068091
37.768641 49.505867 -21.424509
38.517414 46.478733 -18.78705
39.147074 47.799542 -19.127699
36.265367 43.931806 -20.696179
36.973548 44.8157 -20.042183
36.552267 43.429003 -19.795901
34.353355 37.153614 -20.47325
34.582656 38.68186 -20.669321
34.884556 38.140444 -19.74655
34.283981 35.595299 -20.358934
33.982082 36.136715 -21.281706
34.353355 37.153614 -20.47325
34.248767 33.959916 -20.289606
34.283981 35.595299 -20.358934
15.914734 21.376529 -30.131377
15.042791 21.520705 -29.970137
18.178659 17.615763 -29.744999
19.031873 17.660351 -30.016859
25.379557 18.721272 -31.563834
25.252877 20.281303 -31.397688
23.13535 18.106703 -31.049809
23.876943 18.319067 -31.271454
22.31804 17.993009 -30.911163
22.085221 19.681877 -31.001387
23.13535 18.106703 -31.049809
21.541346 17.829803 -30.662817
22.31804 17.993009 -30.911163
31.928403 32.252615 -25.096151
31.345592 32.623793 -25.818262
31.684691 33.773761 -25.078298
31.928403 32.252615 -25.096151
32.513279 31.839214 -24.42427
29.776055 56.79266 -24.424862
28.251041 57.427594 -24.839798
30.129907 55.077698 -24.604435
29.776055 56.79266 -24.424862
31.192725 56.215664 -24.02133
17.889242 34.776308 -32.412075
16.847065 34.950115 -32.666333
17.143587 36.543894 -32.63794
29.057817 17.031657 -32.854798
29.665415 17.390572 -33.109352
23.416846 51.134563 -28.134515
24.303346 52.469093 -27.443601
22.551865 49.812962 -28.79587
23.416846 51.134563 -28.134515
23.938876 49.40123 -28.251764
21.750536 48.42501 -29.46035
22.551865 49.812962 -28.79587
22.298209 46.699322 -29.529831
21.750536 48.42501 -29.46035
22.772467 45.038992 -29.642744
22.298209 46.699322 -29.529831
23.548154 46.419298 -29.026032
23.290019 43.379074 -29.695484
22.040073 43.659098 -30.199284
22.772467 45.038992 -29.642744
38.377691 48.915726 -20.756235
37.768641 49.505867 -21.424509
36.049822 42.030651 -19.480818
36.552267 43.429003 -19.795901
35.684708 40.592441 -19.22718
35.478972 41.106899 -20.196258
36.049822 42.030651 -19.480818
35.300354 39.104816 -18.954736
35.684708 40.592441 -19.22718
34.884556 38.140444 -19.74655
35.300354 39.104816 -18.954736
17.663866 21.230415 -30.49295
16.79028 21.319797 -30.340723
18.733987 19.443291 -30.309095
17.663866 21.230415 -30.49295
18.520927 21.233071 -30.695358
19.888934 17.663006 -30.219267
19.031873 17.660351 -30.016859
18.733987 19.443291 -30.309095
29.578819 31.930786 -27.657432
29.305506 33.427979 -27.669559
30.023985 33.213677 -27.10232
29.271996 30.659613 -28.26825
29.578819 31.930786 -27.657432
30.699589 32.930712 -26.445301
31.345592 32.623793 -25.818262
27.221514 56.212868 -25.476137
28.251041 57.427594 -24.839798
26.210534 55.009788 -26.105774
27.221514 56.212868 -25.476137
27.702258 54.451614 -25.637604
25.247056 53.731945 -26.782017
26.210534 55.009788 -26.105774
25.747568 51.985683 -26.928825
24.303346 52.469093 -27.443601
25.247056 53.731945 -26.782017
16.614213 33.3353 -32.575966
16.847065 34.950115 -32.666333
16.458088 31.691988 -32.433396
16.614213 33.3353 -32.575966
17.436596 31.539217 -32.297898
16.354043 30.030365 -32.177548
16.458088 31.691988 -32.433396
17.260638 28.202082 -31.877745
16.354043 30.030365 -32.177548
18.14891 26.447531 -31.620174
17.260638 28.202082 -31.877745
18.168745 28.141354 -31.897756
19.129186 24.671244 -31.378622
18.14891 26.447531 -31.620174
26.830122 19.163204 -31.789174
27.569561 19.340508 -31.810706
26.956803 17.603172 -31.95532
26.830122 19.163204 -31.789174
28.386882 16.772705 -32.718914
28.312984 18.126944 -32.25668
29.057817 17.031657 -32.854798
27.784098 16.404333 -32.438358
28.386882 16.772705 -32.718914
26.956803 17.603172 -31.95532
27.784098 16.404333 -32.438358
25.305487 26.566858 -30.835074
24.6552 28.069961 -30.860628
25.498876 28.114073 -30.649462
25.214903 25.041622 -31.06851
25.305487 26.566858 -30.835074
28.726539 27.992781 -29.334524
28.93759 29.309536 -28.766718
27.970018 28.039973 -29.656337
28.726539 27.992781 -29.334524
27.164062 28.105463 -30.050087
27.385573 29.510426 -29.615358
27.970018 28.039973 -29.656337
26.36439 28.093443 -30.316508
27.164062 28.105463 -30.050087
28.960192 19.751181 -31.928655
28.240496 19.599459 -31.94659
29.630431 19.978514 -32.030026
30.340342 20.077625 -31.969731
29.654159 18.613228 -32.493935
28.960192 19.751181 -31.928655
29.630431 19.978514 -32.030026
30.335654 17.617905 -33.210724
29.665415 17.390572 -33.109352
29.654159 18.613228 -32.493935
30.335654 17.617905 -33.210724
30.966656 17.941047 -33.428417
17.506829 38.115786 -32.537098
17.143587 36.543894 -32.63794
18.619082 37.914234 -32.171668
17.506829 38.115786 -32.537098
17.940147 39.659934 -32.325084
19.592582 44.168296 -31.187868
20.847883 43.88123 -30.669418
18.988934 42.682346 -31.648805
19.592582 44.168296 -31.187868
19.612822 40.950913 -31.575973
18.428512 41.189816 -32.032485
18.988934 42.682346 -31.648805
33.185394 34.031565 -22.843899
32.771935 32.930977 -23.586727
32.680961 34.503172 -23.61336
36.045533 56.916515 -22.24568
37.283049 56.156746 -21.891089
34.963881 55.940502 -22.757264
36.045533 56.916515 -22.24568
35.177868 54.292492 -22.912678
33.905946 54.966202 -23.274515
34.963881 55.940502 -22.757264
37.193394 51.524853 -22.052784
37.34272 53.015736 -22.06193
36.221516 50.629661 -22.592877
37.193394 51.524853 -22.052784
37.091576 50.03281 -22.068091
38.804245 48.385788 -19.962507
39.147074 47.799542 -19.127699
37.900381 47.553795 -20.527292
38.377691 48.915726 -20.756235
38.804245 48.385788 -19.962507
37.793691 45.668377 -19.437735
38.517414 46.478733 -18.78705
37.506792 46.17118 -20.338013
37.793691 45.668377 -19.437735
36.973548 44.8157 -20.042183
33.594538 33.518885 -21.992328
33.185394 34.031565 -22.843899
33.503564 35.09108 -22.018961
34.037294 32.935805 -21.199224
33.594538 33.518885 -21.992328
34.037294 32.935805 -21.199224
34.248767 33.959916 -20.289606
15.230244 19.668451 -29.499778
15.042791 21.520705 -29.970137
16.409031 17.688968 -29.283951
15.230244 19.668451 -29.499778
17.00138 19.497368 -29.897341
15.914734 21.376529 -30.131377
16.79028 21.319797 -30.340723
17.303113 17.672495 -29.535652
17.00138 19.497368 -29.897341
18.178659 17.615763 -29.744999
16.409031 17.688968 -29.283951
17.303113 17.672495 -29.535652
20.073803 22.97863 -31.189218
19.129186 24.671244 -31.378622
20.001635 24.694189 -31.450781
25.182912 21.899927 -31.351579
25.157812 23.450968 -31.168194
24.417595 21.722814 -31.291716
25.182912 21.899927 -31.351579
25.252877 20.281303 -31.397688
24.669458 18.473377 -31.37035
25.379557 18.721272 -31.563834
23.695045 19.94988 -31.238928
24.669458 18.473377 -31.37035
23.876943 18.319067 -31.271454
20.234634 21.261934 -30.9899
20.073803 22.97863 -31.189218
21.107081 21.284879 -31.062059
20.429479 19.507065 -30.687122
19.396201 21.200815 -30.814281
20.234634 21.261934 -30.9899
20.702914 17.768684 -30.487198
20.429479 19.507065 -30.687122
21.541346 17.829803 -30.662817
19.888934 17.663006 -30.219267
20.702914 17.768684 -30.487198
3 94 93 20
3 95 22 96
3 97 24 98
3 99 98 22
3 97 98 99
3 0 27 25
3 1 30 28
3 2 32 31
3 2 33 32
3 2 35 33
3 3 38 36
3 3 40 38
3 100 43 101
3 102 46 103
3 104 103 44
3 102 103 104
3 4 105 107
3 107 106 47
3 105 106 107
3 5 49 21
3 5 50 49
3 5 52 50
3 7 53 23
3 7 54 53
3 8 55 26
3 8 56 55
3 9 108 110
3 108 57 109
3 108 109 110
3 10 60 58
3 12 61 29
3 12 111 113
3 113 112 61
3 111 112 113
3 114 62 115
3 116 115 48
3 114 115 116
3 117 63 118
3 120 119 63
3 121 64 122
3 13 123 125
3 123 65 124
3 123 124 125
3 13 66 65
3 13 67 66
3 14 68 34
3 14 69 68
3 6 70 51
3 15 71 37
3 15 72 71
3 15 73 72
3 16 74 39
3 16 75 74
3 126 76 127
3 128 77 129
3 130 129 76
3 128 129 130
3 17 131 133
3 131 78 132
3 131 132 133
3 17 79 78
3 134 80 135
3 18 136 138
3 136 81 137
3 136 137 138
3 18 82 81
3 18 83 82
3 139 84 140
3 141 140 41
3 139 140 141
3 142 85 143
3 144 143 84
3 142 143 144
3 146 145 85
3 147 86 148
3 150 149 42
3 11 87 59
3 19 88 45
3 19 89 88
3 151 90 152
3 153 91 154
3 155 92 156
3 157 156 91
3 155 156 157
3 159 158 92
3 20 160 162
3 162 161 4
3 160 161 162
3 164 163 20
3 165 21 166
3 22 167 169
3 167 21 168
3 167 168 169
3 22 5 21
3 22 23 5
3 24 23 22
3 24 7 23
3 25 170 172
3 170 26 171
3 170 171 172
3 27 26 25
3 27 8 26
3 174 173 9
3 28 29 10
3 30 29 28
3 30 12 29
3 31 175 176
3 32 177 179
3 179 178 31
3 177 178 179
3 32 180 181
3 32 182 183
3 33 184 186
3 186 185 32
3 184 185 186
3 33 187 189
3 187 13 188
3 187 188 189
3 33 34 13
3 35 34 33
3 35 14 34
3 36 37 6
3 38 37 36
3 38 15 37
3 38 39 15
3 40 39 38
3 40 16 39
3 190 17 191
3 192 18 193
3 194 41 195
3 196 195 18
3 194 195 196
3 197 41 198
3 200 199 41
3 201 42 202
3 43 203 205
3 203 42 204
3 203 204 205
3 43 206 208
3 208 207 42
3 206 207 208
3 44 45 11
3 46 45 44
3 46 19 45
3 47 48 1
3 209 48 210
3 211 210 47
3 209 210 211
3 213 212 48
3 215 214 4
3 21 216 217
3 49 218 220
3 220 219 21
3 218 219 220
3 49 221 222
3 49 223 225
3 223 31 224
3 223 224 225
3 50 31 49
3 50 2 31
3 50 51 2
3 52 51 50
3 52 6 51
3 23 52 5
3 53 52 23
3 53 6 52
3 53 36 6
3 54 36 53
3 54 3 36
3 26 226 227
3 55 228 230
3 230 229 26
3 228 229 230
3 55 231 232
3 55 233 234
3 56 235 237
3 237 236 55
3 235 236 237
3 56 238 239
3 57 240 241
3 57 242 243
3 244 57 245
3 246 245 9
3 244 245 246
3 247 57 248
3 250 249 57
3 58 59 0
3 60 59 58
3 60 11 59
3 29 60 10
3 61 60 29
3 61 11 60
3 61 44 11
3 251 44 252
3 253 252 61
3 251 252 253
3 255 254 44
3 48 30 1
3 62 30 48
3 62 12 30
3 256 62 257
3 258 62 259
3 260 12 261
3 262 261 62
3 260 261 262
3 264 263 12
3 265 9 266
3 63 267 268
3 63 269 271
3 269 9 270
3 269 270 271
3 63 272 274
3 274 273 9
3 272 273 274
3 276 275 63
3 277 25 278
3 64 279 281
3 279 25 280
3 279 280 281
3 64 0 25
3 65 282 283
3 65 284 285
3 65 286 288
3 286 64 287
3 286 287 288
3 66 64 65
3 66 0 64
3 66 58 0
3 67 58 66
3 67 10 58
3 34 67 13
3 68 67 34
3 68 10 67
3 68 28 10
3 69 28 68
3 69 1 28
3 51 35 2
3 70 35 51
3 70 14 35
3 37 70 6
3 71 70 37
3 71 14 70
3 71 69 14
3 72 69 71
3 72 1 69
3 72 47 1
3 73 47 72
3 73 4 47
3 39 73 15
3 74 73 39
3 74 4 73
3 74 20 4
3 75 20 74
3 75 289 291
3 291 290 20
3 289 290 291
3 76 292 293
3 76 294 295
3 76 296 298
3 296 24 297
3 296 297 298
3 77 24 76
3 77 7 24
3 299 77 300
3 78 301 303
3 301 77 302
3 301 302 303
3 78 7 77
3 78 54 7
3 79 54 78
3 79 3 54
3 80 304 305
3 80 306 308
3 306 17 307
3 306 307 308
3 309 80 310
3 81 311 313
3 311 80 312
3 311 312 313
3 81 17 80
3 81 79 17
3 82 79 81
3 82 3 79
3 82 40 3
3 83 40 82
3 83 16 40
3 41 83 18
3 84 83 41
3 84 16 83
3 84 75 16
3 85 75 84
3 85 314 316
3 316 315 75
3 314 315 316
3 85 317 318
3 320 319 85
3 86 321 322
3 86 323 324
3 42 325 327
3 325 86 326
3 325 326 327
3 328 86 329
3 330 329 42
3 328 329 330
3 332 331 86
3 59 27 0
3 87 27 59
3 87 8 27
3 45 87 11
3 88 87 45
3 88 8 87
3 88 56 8
3 89 56 88
3 89 333 335
3 335 334 56
3 333 334 335
3 336 46 337
3 90 338 340
3 338 46 339
3 338 339 340
3 90 19 46
3 341 90 342
3 91 343 345
3 343 90 344
3 343 344 345
3 91 19 90
3 91 89 19
3 92 89 91
3 92 346 348
3 348 347 89
3 346 347 348
3 92 349 351
3 349 43 350
3 349 350 351
3 352 43 353
3 354 353 92
3 352 353 354
3 356 355 43
