ply
format ascii 1.0
element vertex 273
property float x
property float y
property float z
element face 233
property list uchar int vertex_index
end_header
-42.32148 63.32159 -17.993347
-34.201569 59.648289 -22.735653
-31.012531 72.238113 -19.451118
-40.797188 68.115814 -15.321835
-37.350784 67.937393 -18.795151
-35.311974 72.851852 -15.909534
-36.534176 45.833561 -22.090511
-38.392075 50.735859 -22.246456
-39.131241 56.232433 -21.791656
-38.710472 62.148563 -20.700077
-32.874382 66.21431 -21.405327
-34.813538 53.278652 -23.762695
-28.741987 76.934387 -16.564514
-38.211216 70.55574 -15.637451
-39.191502 49.622059 -20.995049
-40.122025 52.068905 -21.075661
-42.673378 60.751553 -18.868195
-40.985607 60.125309 -20.20549
-40.646946 62.917507 -19.466927
-35.220409 67.261765 -20.179741
-32.0028 69.347244 -20.530083
-28.560471 71.328995 -20.99575
-36.912483 57.909519 -22.32906
-37.04388 54.862263 -22.786388
-30.91917 76.793488 -14.402124
-41.67878 65.803131 -16.809044
-40.044003 65.645996 -18.46484
-39.217503 68.221634 -17.187225
-36.400024 70.54985 -17.478226
-33.281708 72.746246 -17.772385
-36.655075 45.069462 -20.397945
-37.580376 48.215656 -22.247299
-36.49654 49.211246 -23.368511
-31.129499 61.409161 -23.154499
-31.751593 58.003315 -23.711224
-40.73951 54.6497 -20.984936
-41.024807 57.348637 -20.702858
-39.054424 59.164715 -21.333714
-36.544205 61.04472 -21.76067
-38.131653 65.104141 -19.863037
-35.970768 64.193253 -21.056404
-33.613468 62.947124 -22.124115
-30.380695 64.830643 -22.553387
-32.820667 37.744694 -17.115677
-38.914314 53.411091 -22.093498
-36.909748 51.954311 -23.137897
-32.139221 74.978256 -16.205734
-29.918455 74.790039 -18.134304
-25.184669 78.735931 -16.988743
-26.372671 76.678162 -18.591518
-40.889359 52.62207 -20.439796
-40.371952 51.447895 -20.367435
-31.507666 70.792678 -19.9906
-33.159797 69.746872 -19.811982
-32.664663 71.192307 -19.272499
-43.214486 62.170189 -17.632888
-43.023589 63.336277 -17.118926
-42.497429 62.036572 -18.430771
-43.390434 60.88517 -18.070312
-43.214486 62.170189 -17.632888
-34.40695 58.026203 -23.00647
-35.762407 57.156818 -22.803173
-35.557026 58.778904 -22.532356
-41.914554 66.849014 -15.100096
-41.444334 67.878997 -14.260076
-41.237984 66.959473 -16.06544
-42.355351 65.692672 -15.843701
-41.914554 66.849014 -15.100096
-29.863782 60.51569 -23.689286
-29.474475 62.281456 -23.429041
-41.858996 57.75782 -20.073448
-41.690148 56.488308 -20.223896
-33.344454 39.216577 -18.17429
-32.926248 38.136663 -18.002133
-33.238872 38.824608 -17.287834
-35.943487 44.692116 -21.934641
-36.003936 44.310067 -21.088358
-36.594625 45.451512 -21.244228
-34.794643 51.794914 -23.969776
-35.842748 51.132744 -23.657377
-35.861643 52.616481 -23.450296
-31.986307 56.345104 -23.982309
-30.511357 57.074581 -24.231631
-23.367103 79.567077 -17.217371
-24.58148 79.549034 -16.052079
-25.120945 76.339241 -19.552692
-24.545752 77.546174 -18.861044
-26.939433 75.435425 -19.256363
-25.120945 76.339241 -19.552692
-33.238872 38.824608 -17.287834
-33.029985 38.228365 -16.361013
-38.972712 70.369278 -14.596559
-39.504202 69.335777 -15.479643
-40.265698 69.149315 -14.438751
-37.640817 71.564224 -14.73646
-38.972712 70.369278 -14.596559
-36.191197 72.71228 -14.872501
-36.761595 71.703796 -15.773492
-37.640817 71.564224 -14.73646
-40.265698 69.149315 -14.438751
-41.444334 67.878997 -14.260076
-39.906691 50.224472 -20.32713
-39.251404 49.099464 -20.173478
-39.656763 50.845482 -21.035355
-39.906691 50.224472 -20.32713
-40.371952 51.447895 -20.367435
-41.829493 60.438431 -19.536842
-41.839396 59.146157 -19.824764
-42.683281 59.459278 -19.156116
-34.768602 68.704133 -19.63681
-36.285596 67.599579 -19.487446
-35.833789 69.041946 -18.944516
-33.611604 68.304505 -20.354912
-34.768602 68.704133 -19.63681
-33.159797 69.746872 -19.811982
-30.762076 68.760147 -21.192284
-31.197868 67.19368 -21.629906
-32.438591 67.780777 -20.967705
-29.040912 69.751023 -21.425117
-30.762076 68.760147 -21.192284
-30.281636 70.33812 -20.762917
-27.279906 70.683915 -21.732069
-29.040912 69.751023 -21.425117
-43.39998 59.701581 -18.412817
-43.390434 60.88517 -18.070312
-42.683281 59.459278 -19.156116
-43.39998 59.701581 -18.412817
-35.737219 45.012003 -22.723638
-36.177357 46.232815 -22.770426
-35.828105 55.63319 -23.031838
-36.978182 56.385891 -22.557724
-35.762407 57.156818 -22.803173
-34.712935 54.841385 -23.519991
-35.928709 54.070458 -23.274541
-35.828105 55.63319 -23.031838
-30.288708 77.489525 -13.39265
-31.892761 76.544579 -13.244205
-29.216668 77.718796 -14.573903
-30.288708 77.489525 -13.39265
-28.128076 77.789245 -15.655098
-29.830579 76.863937 -15.483319
-29.216668 77.718796 -14.573903
-35.35841 70.348175 -18.286053
-35.833789 69.041946 -18.944516
-36.875404 69.243622 -18.136688
-33.799251 71.446373 -18.433132
-35.35841 70.348175 -18.286053
-34.840866 71.648048 -17.625305
-32.14712 72.492179 -18.611752
-32.664663 71.192307 -19.272499
-33.799251 71.446373 -18.433132
-42.702238 64.577047 -16.526775
-42.355351 65.692672 -15.843701
-42.00013 64.56236 -17.401196
-43.023589 63.336277 -17.118926
-42.702238 64.577047 -16.526775
-37.23885 45.733532 -19.661924
-36.470512 44.658851 -19.413992
-37.329347 46.184498 -20.579859
-37.23885 45.733532 -19.661924
-37.268898 46.566547 -21.426141
-36.594625 45.451512 -21.244228
-37.329347 46.184498 -20.579859
-38.597561 48.460797 -20.878411
-39.251404 49.099464 -20.173478
-37.791998 47.757595 -21.504536
-38.597561 48.460797 -20.878411
-38.385939 48.918858 -21.621174
-37.057276 47.024608 -22.168905
-37.268898 46.566547 -21.426141
-37.791998 47.757595 -21.504536
-36.700457 47.423862 -22.84882
-36.177357 46.232815 -22.770426
-37.057276 47.024608 -22.168905
-36.158539 47.921658 -23.409426
-36.700457 47.423862 -22.84882
-37.038458 48.713451 -22.807905
-35.491585 48.3633 -23.92454
-36.158539 47.921658 -23.409426
-30.17483 58.812767 -23.967648
-31.440546 59.706238 -23.432862
-29.863782 60.51569 -23.689286
-28.934594 57.884033 -24.488055
-30.511357 57.074581 -24.231631
-30.17483 58.812767 -23.967648
-41.547499 55.13884 -20.364935
-41.198101 53.912468 -20.394434
-40.882159 55.999168 -20.843897
-41.547499 55.13884 -20.364935
-41.690148 56.488308 -20.223896
-41.005207 58.736973 -20.454174
-41.858996 57.75782 -20.073448
-41.839396 59.146157 -19.824764
-29.100074 63.992197 -23.128485
-29.474475 62.281456 -23.429041
-30.755097 63.119902 -22.853943
-29.951024 66.501846 -22.203936
-31.627538 65.522476 -21.979357
-31.197868 67.19368 -21.629906
-28.665788 65.744934 -22.847341
-29.951024 66.501846 -22.203936
-29.100074 63.992197 -23.128485
-28.665788 65.744934 -22.847341
-32.617807 37.051934 -17.749224
-32.410615 36.115412 -17.665686
-32.613474 36.808172 -17.032139
-32.617807 37.051934 -17.749224
-32.926248 38.136663 -18.002133
-35.966431 43.97848 -20.166303
-36.470512 44.658851 -19.413992
-35.315292 43.219084 -20.856716
-35.966431 43.97848 -20.166303
-36.003936 44.310067 -21.088358
-35.943487 44.692116 -21.934641
-35.737219 45.012003 -22.723638
-40.430768 53.359302 -21.030299
-40.889359 52.62207 -20.439796
-41.198101 53.912468 -20.394434
-35.636145 49.761211 -23.772684
-36.703144 50.582779 -23.253204
-35.842748 51.132744 -23.657377
-35.491585 48.3633 -23.92454
-35.636145 49.761211 -23.772684
-33.181962 57.203716 -23.494256
-34.40695 58.026203 -23.00647
-32.976581 58.825802 -23.223439
-33.181962 57.203716 -23.494256
-31.986307 56.345104 -23.982309
-33.517279 53.982772 -24.008045
-34.712935 54.841385 -23.519991
-33.659588 52.394207 -24.270036
-33.517279 53.982772 -24.008045
-34.794643 51.794914 -23.969776
-33.659588 52.394207 -24.270036
-34.716698 73.81459 -15.006353
-36.191197 72.71228 -14.872501
-32.520296 75.785408 -14.252648
-31.892761 76.544579 -13.244205
-33.130322 74.877792 -15.154453
-32.520296 75.785408 -14.252648
-31.529196 75.885872 -15.303929
-33.725597 73.915054 -16.057634
-34.716698 73.81459 -15.006353
-33.130322 74.877792 -15.154453
-26.349418 78.690017 -15.867213
-25.746229 79.50312 -14.930548
-24.58148 79.549034 -16.052079
-26.963328 77.835159 -16.776629
-28.128076 77.789245 -15.655098
-26.349418 78.690017 -15.867213
-23.95175 78.575058 -18.059656
-23.367103 79.567077 -17.217371
-25.77867 77.707046 -17.790131
-23.95175 78.575058 -18.059656
-24.545752 77.546174 -18.861044
-28.712325 74.491364 -19.027755
-28.145563 75.7341 -18.362911
-26.939433 75.435425 -19.256363
-29.259363 73.215401 -19.686163
-30.465493 73.514076 -18.792711
-28.712325 74.491364 -19.027755
-28.033333 72.760841 -20.458478
-29.786501 71.783554 -20.223434
-29.259363 73.215401 -19.686163
-26.764807 72.257096 -21.304325
-28.033333 72.760841 -20.458478
-27.279906 70.683915 -21.732069
-26.764807 72.257096 -21.304325
-32.729962 37.078051 -16.369838
-32.93928 37.561721 -15.615174
-33.029985 38.228365 -16.361013
-32.613474 36.808172 -17.032139
-32.729962 37.078051 -16.369838
3 50 15 51
3 0 18 16
3 2 52 54
3 52 20 53
3 52 53 54
3 2 21 20
3 0 55 56
3 0 57 59
3 57 16 58
3 57 58 59
3 1 60 62
3 62 61 22
3 60 61 62
3 3 27 25
3 5 28 13
3 5 29 28
3 3 63 64
3 3 65 67
3 65 25 66
3 65 66 67
3 7 31 14
3 7 32 31
3 69 68 33
3 70 36 71
3 9 37 17
3 9 38 37
3 4 39 26
3 10 40 19
3 10 41 40
3 10 42 41
3 74 73 43
3 72 73 74
3 6 75 77
3 77 76 30
3 75 76 77
3 8 44 35
3 11 45 23
3 11 78 80
3 80 79 45
3 78 79 80
3 82 81 34
3 12 46 24
3 12 47 46
3 83 48 84
3 85 49 86
3 88 87 49
3 89 43 90
3 91 13 92
3 93 92 3
3 91 92 93
3 94 13 95
3 96 5 97
3 98 97 13
3 96 97 98
3 99 3 100
3 101 14 102
3 15 103 105
3 103 14 104
3 103 104 105
3 15 7 14
3 16 106 108
3 106 17 107
3 106 107 108
3 18 17 16
3 18 9 17
3 109 19 110
3 111 110 4
3 109 110 111
3 20 112 114
3 112 19 113
3 112 113 114
3 20 10 19
3 20 115 117
3 117 116 10
3 115 116 117
3 21 118 120
3 120 119 20
3 118 119 120
3 21 121 122
3 16 123 124
3 16 125 126
3 128 127 6
3 22 23 8
3 129 23 130
3 131 130 22
3 129 130 131
3 132 11 133
3 134 133 23
3 132 133 134
3 135 24 136
3 137 24 138
3 139 12 140
3 141 140 24
3 139 140 141
3 25 26 0
3 27 26 25
3 27 4 26
3 13 27 3
3 28 27 13
3 28 4 27
3 28 142 144
3 144 143 4
3 142 143 144
3 29 145 147
3 147 146 28
3 145 146 147
3 29 148 150
3 148 2 149
3 148 149 150
3 25 151 152
3 25 153 155
3 153 0 154
3 153 154 155
3 156 30 157
3 158 30 159
3 160 6 161
3 162 161 30
3 160 161 162
3 14 163 164
3 31 165 167
3 167 166 14
3 165 166 167
3 31 168 170
3 168 6 169
3 168 169 170
3 31 171 173
3 173 172 6
3 171 172 173
3 32 174 176
3 176 175 31
3 174 175 176
3 32 177 178
3 33 34 1
3 179 34 180
3 181 180 33
3 179 180 181
3 184 183 34
3 182 183 184
3 185 35 186
3 36 187 189
3 187 35 188
3 187 188 189
3 36 8 35
3 17 190 192
3 190 36 191
3 190 191 192
3 37 36 17
3 37 8 36
3 37 22 8
3 38 22 37
3 38 1 22
3 26 18 0
3 39 18 26
3 39 9 18
3 19 39 4
3 40 39 19
3 40 9 39
3 40 38 9
3 41 38 40
3 41 1 38
3 41 33 1
3 42 33 41
3 42 193 195
3 195 194 33
3 193 194 195
3 196 42 197
3 198 197 10
3 196 197 198
3 199 42 200
3 202 201 42
3 43 203 205
3 203 204 205
3 207 206 43
3 30 208 209
3 212 211 30
3 210 211 212
3 214 213 6
3 35 215 217
3 215 15 216
3 215 216 217
3 44 15 35
3 44 7 15
3 23 44 8
3 45 44 23
3 45 7 44
3 45 32 7
3 218 32 219
3 220 219 45
3 218 219 220
3 222 221 32
3 34 223 225
3 225 224 1
3 223 224 225
3 227 226 34
3 228 11 229
3 230 11 231
3 233 232 11
3 234 5 235
3 24 236 237
3 46 238 240
3 240 239 24
3 238 239 240
3 46 241 243
3 241 5 242
3 241 242 243
3 46 29 5
3 47 29 46
3 47 2 29
3 48 244 246
3 244 245 246
3 48 247 249
3 247 12 248
3 247 248 249
3 250 48 251
3 49 252 254
3 252 48 253
3 252 253 254
3 49 12 48
3 49 47 12
3 255 47 256
3 257 256 49
3 255 256 257
3 258 2 259
3 260 259 47
3 258 259 260
3 261 21 262
3 263 262 2
3 261 262 263
3 264 21 265
3 267 266 21
3 43 268 270
3 268 269 270
3 43 271 272
