ply
format ascii 1.0
element vertex 577
property float x
property float y
property float z
element face 544
property list uchar int vertex_index
end_header
-49.146347 51.047604 -3.999538
-42.081482 66.680679 -0.805864
-48.354313 55.360508 1.322517
-46.535316 61.398525 -9.498486
-49.409645 47.099209 11.920856
-52.17868 44.426292 4.82606
-46.530266 40.43832 2.851989
-42.023445 45.951588 -3.46904
-44.53743 64.397614 -5.60647
-43.122337 66.837387 -10.842707
-44.717354 53.704258 16.180542
-46.963615 48.112423 16.336512
-46.557487 52.717724 11.311935
-49.764408 53.288311 -2.077471
-50.776611 49.819805 3.034998
-50.704132 48.001591 0.5257
-50.365776 42.654003 3.085891
-46.305653 48.686367 -4.32094
-42.99609 62.817432 5.027771
-45.976616 57.108318 5.771371
-45.373203 61.07983 0.033335
-47.604897 58.761654 -4.198996
-48.60997 56.098507 -7.189487
-47.600929 53.335621 -8.590479
-47.210342 58.024212 -12.029125
-49.362938 42.577019 16.402872
-52.017082 41.657551 12.356216
-48.967476 51.404285 6.790529
-53.341698 40.509342 8.749633
-49.112354 36.952148 5.054951
-37.64732 42.31488 -2.373606
-44.593731 50.512783 -8.451944
-40.43433 47.333546 -7.359762
-36.437477 43.284275 -6.26594
-41.962147 68.444626 -8.736225
-45.523376 53.259029 13.724196
-45.175259 55.568981 11.037495
-49.746277 52.180729 -3.241869
-50.400368 50.633526 -0.808048
-49.926613 49.60387 -1.716967
-47.974514 49.889675 -4.347731
-42.568233 64.831818 2.101405
-44.14299 62.031765 2.46485
-47.12574 60.189526 -6.896166
-48.324638 57.455776 -5.877277
-47.756012 58.713367 -8.47027
-47.952122 57.188717 -9.665348
-47.085579 59.735416 -10.956644
-48.134834 47.630627 14.096
-48.151932 45.329601 16.395622
-49.47261 44.862797 14.260845
-50.766968 42.137928 14.351104
-50.778351 44.355816 12.18976
-47.203468 56.283733 3.446522
-47.483055 54.237087 6.248605
-48.672924 53.438511 4.079845
-51.628883 47.1152 3.952977
-51.224609 47.899799 5.525537
-52.168167 45.191929 6.236283
-52.615578 43.188293 8.418557
-52.818588 42.500572 6.847178
-53.157143 39.804344 7.287153
-52.411957 41.72636 5.58131
-48.639107 41.617004 2.796062
-49.81773 39.862682 4.16807
-47.821228 38.726688 4.032491
-46.946041 35.671417 5.063085
-45.560135 37.403973 4.208322
-42.998051 44.853725 -1.665342
-40.676746 43.28019 -1.111765
-39.756184 44.283157 -2.882732
-46.82233 54.108166 -10.828403
-46.310631 51.942547 -8.689117
-45.517529 52.565113 -10.827585
-39.786118 47.556332 -9.360279
-38.329224 45.450382 -6.749479
-43.31414 65.644989 -3.289547
-42.727375 67.160019 -6.070473
-43.924171 65.742966 -8.296576
-44.981026 64.125046 -10.278494
-44.121693 65.009979 -12.688688
-43.031921 65.582214 -14.878357
-45.071522 51.298946 18.642851
-46.001198 48.531445 18.616665
-45.819725 50.910992 16.260502
-46.807297 50.434177 13.90764
-47.982002 49.888538 11.613685
-49.260635 54.355213 -0.538904
-49.664848 52.563602 2.140283
-50.286682 51.624004 0.491947
-51.032013 48.936878 1.597131
-51.46286 46.267498 2.712142
-51.573486 43.583706 3.763262
-50.681007 45.354992 1.849524
-49.315235 44.367844 1.382667
-45.253429 46.209171 -2.114069
-44.267307 47.394566 -3.992226
-44.822136 57.821033 8.238251
-44.482124 59.986118 5.367416
-45.684635 59.161755 2.907829
-46.907845 58.207714 0.615873
-46.573528 59.980846 -2.208452
-48.005085 57.143452 -1.447851
-49.208565 54.788425 -4.647764
-49.07357 53.552532 -5.681618
-48.371468 52.302898 -6.30076
-48.378098 54.719578 -8.097904
-47.64653 55.647915 -10.45188
-46.279663 60.485126 -13.285465
-44.545696 51.570858 21.03335
-41.478409 65.533157 4.730352
-46.966095 45.751842 18.570513
-47.983536 42.980125 18.486105
-51.956085 39.459473 14.296697
-53.061447 39.000134 12.343773
-46.269348 54.950336 8.586231
-47.749825 52.096714 8.984447
-49.224644 49.284016 9.417517
-50.036903 50.644154 4.786724
-50.367386 48.621967 7.368483
-50.628868 46.520084 9.849302
-52.927963 41.120998 10.466164
-53.70401 38.466064 10.503611
-51.389362 40.853104 4.679178
-50.963127 38.046925 5.406712
-47.12513 51.03767 -6.51531
-45.417027 49.731785 -6.372683
-43.377872 48.337772 -5.956612
-43.819592 50.99181 -10.515886
-42.581112 48.99773 -7.970119
-41.171673 46.790607 -5.380722
-38.978386 45.016552 -4.776737
-36.975636 42.94521 -4.27936
-35.319717 40.523251 -4.010822
-34.906624 40.790363 -6.020576
-44.508741 56.9888 10.915285
-44.731829 55.82412 12.295477
-49.002609 49.792416 -3.10883
-49.392742 49.070549 -1.967545
-49.53648 50.325737 -2.858252
-48.56043 50.468639 -4.173634
-48.416692 49.213451 -3.282926
-49.002609 49.792416 -3.10883
-42.925453 65.303904 -0.619175
-43.168829 64.379473 0.83446
-42.324858 65.756248 0.647771
-46.830528 60.794026 -8.197326
-46.387478 61.57893 -7.296347
-46.092266 62.18343 -8.597506
-45.369084 39.753422 3.009232
-44.884018 38.236248 3.687399
-46.0452 38.921146 3.530156
-45.764088 53.574318 -11.89734
-46.16993 53.336639 -10.827994
-46.416488 54.345844 -11.897749
-39.486237 47.504948 -10.348981
-40.47765 48.455196 -10.66365
-38.781826 46.563656 -9.056849
-39.486237 47.504948 -10.348981
-41.725283 68.474755 -6.248483
-42.105318 67.750336 -4.86528
-41.914554 66.849014 -15.100096
-42.561701 66.612197 -14.038337
-41.444334 67.878997 -14.260076
-42.355351 65.692672 -15.843701
-41.914554 66.849014 -15.100096
-48.793104 45.167143 0.47873
-49.541331 45.691603 0.61743
-48.389668 43.82481 1.336512
-48.793104 45.167143 0.47873
-45.779541 47.447769 -3.217505
-46.25711 46.81356 -2.222428
-46.783223 48.052158 -3.325863
-43.739107 61.401775 5.197593
-43.946731 60.325847 6.652596
-43.203715 61.741504 6.482774
-44.77145 63.615797 -4.211584
-44.159805 64.239485 -3.053123
-43.925785 65.021301 -4.448009
-47.089213 59.37125 -3.203724
-46.370146 60.778755 -3.600169
-46.88583 60.169159 -4.595441
-48.211925 57.377903 -3.710277
-48.412019 56.568802 -2.334704
-47.804991 57.952553 -2.823424
-47.032627 57.162308 -12.362627
-47.250721 55.974159 -11.574005
-47.428436 56.836063 -11.240502
-45.57686 61.751773 -13.753903
-46.038691 61.41983 -12.621662
-44.136242 52.888054 21.067929
-44.357126 51.635196 22.225518
-44.342407 52.799915 19.840787
-44.136242 52.888054 21.067929
-40.671076 66.797119 4.588615
-41.006462 65.777588 6.067495
-41.197525 66.51062 3.259865
-40.671076 66.797119 4.588615
-49.205332 41.405693 17.362752
-48.515631 41.607246 18.404368
-48.673237 42.778572 17.444488
-49.959339 41.221484 16.351869
-49.205332 41.405693 17.362752
-50.987265 47.254608 7.650894
-50.795997 48.260883 6.44701
-51.415876 46.893524 6.729421
-51.118005 46.203666 8.891303
-50.498127 47.571025 8.608892
-50.987265 47.254608 7.650894
-51.257747 45.161035 10.036134
-51.118005 46.203666 8.891303
-53.553812 39.171694 8.804685
-53.734968 38.150055 9.681674
-53.522854 39.487703 9.626622
-53.178696 38.443649 7.395129
-52.752575 39.396957 6.721179
-49.739435 36.046993 5.490594
-50.664822 36.594381 5.666474
-50.03774 37.499537 5.230831
-48.721552 35.426928 5.398764
-49.739435 36.046993 5.490594
-45.361437 33.298859 5.61966
-46.518036 34.054091 5.480004
-45.789442 34.916185 5.202741
-37.10239 40.751333 -1.316782
-38.06048 41.864159 -1.484888
-36.753838 41.150442 -2.223936
-37.10239 40.751333 -1.316782
-43.441471 51.067116 -11.517428
-44.268935 51.931858 -11.699987
-41.507721 48.165638 -7.664941
-42.21896 49.169883 -8.979313
-41.145569 48.337791 -8.674135
-40.859576 69.722854 -8.902282
-41.342669 69.117058 -7.581359
-41.46921 68.955002 -9.99053
-40.859576 69.722854 -8.902282
-42.049305 68.151383 -11.043771
-42.542242 67.641007 -9.789466
-41.46921 68.955002 -9.99053
-42.606909 67.239784 -12.020512
-42.049305 68.151383 -11.043771
-44.905887 54.669144 13.638827
-45.120365 53.481644 14.952369
-44.502876 54.891758 14.867
-45.349317 54.414005 12.380845
-44.905887 54.669144 13.638827
-44.731829 55.82412 12.295477
-49.84702 48.309616 -0.932387
-50.235779 47.508477 0.188947
-50.315373 48.80273 -0.595633
-49.84702 48.309616 -0.932387
-49.392742 49.070549 -1.967545
-47.617653 48.653813 -3.339258
-48.416692 49.213451 -3.282926
-47.140084 49.288021 -4.334335
-46.783223 48.052158 -3.325863
-47.617653 48.653813 -3.339258
-43.956207 62.979447 1.016182
-43.355611 63.431792 2.283127
-43.168829 64.379473 0.83446
-44.571314 62.503479 -0.199575
-44.758096 61.555797 1.249093
-43.956207 62.979447 1.016182
-45.352097 62.987139 -5.299178
-45.093323 63.682974 -6.651498
-46.646252 60.883095 -5.944026
-46.387478 61.57893 -7.296347
-47.365319 59.47559 -5.547581
-46.88583 60.169159 -4.595441
-46.646252 60.883095 -5.944026
-51.887655 45.539589 7.084794
-51.415876 46.893524 6.729421
-51.696388 46.545864 5.88091
-52.391872 44.190111 7.32742
-52.111361 44.537771 8.175931
-51.887655 45.539589 7.084794
-52.379982 40.357965 5.868258
-52.752575 39.396957 6.721179
-52.78455 40.765352 6.434232
-45.096489 35.782463 4.77536
-45.789442 34.916185 5.202741
-46.253088 36.537695 4.635703
-44.384651 36.623158 4.397068
-45.096489 35.782463 4.77536
-44.384651 36.623158 4.397068
-44.884018 38.236248 3.687399
-42.36791 43.450742 -0.582412
-43.543215 44.197027 -0.832748
-41.207258 42.663975 -0.305623
-42.36791 43.450742 -0.582412
-41.837398 44.066958 -1.388553
-40.06774 41.777262 -0.049845
-41.207258 42.663975 -0.305623
-39.575193 42.346813 -0.853967
-40.06774 41.777262 -0.049845
-39.114912 42.848297 -1.739451
-39.575193 42.346813 -0.853967
-40.216465 43.781673 -1.997248
-38.701752 43.299019 -2.628169
-38.06048 41.864159 -1.484888
-39.114912 42.848297 -1.739451
-40.821463 48.449185 -9.674394
-40.47765 48.455196 -10.66365
-40.110224 47.444939 -8.360021
-41.145569 48.337791 -8.674135
-40.821463 48.449185 -9.674394
-38.053379 45.510681 -7.751449
-39.057671 46.503357 -8.054879
-38.781826 46.563656 -9.056849
-37.107506 44.427627 -7.509679
-37.383351 44.367328 -6.507709
-38.053379 45.510681 -7.751449
-36.216503 43.306888 -7.275374
-37.107506 44.427627 -7.509679
-42.398701 66.99282 -3.474818
-42.697811 66.162834 -2.047706
-41.782371 67.510666 -2.232976
-43.020758 66.402504 -4.68001
-42.398701 66.99282 -3.474818
-42.105318 67.750336 -4.86528
-42.344761 67.802323 -7.403349
-41.725283 68.474755 -6.248483
-41.342669 69.117058 -7.581359
-44.786693 64.35565 -7.996551
-45.093323 63.682974 -6.651498
-44.230801 65.07029 -6.951523
-45.315121 63.54669 -8.98751
-44.786693 64.35565 -7.996551
-44.452599 64.934006 -9.287535
-45.758171 62.761786 -9.88849
-46.092266 62.18343 -8.597506
-45.315121 63.54669 -8.98751
-45.389372 63.23979 -11.118177
-46.166517 61.87653 -10.728172
-45.758171 62.761786 -9.88849
-44.959705 63.682257 -12.323273
-45.389372 63.23979 -11.118177
-44.55136 64.567512 -11.483591
-44.497875 64.0142 -13.455514
-44.959705 63.682257 -12.323273
-43.106586 66.32608 -12.943503
-43.622015 65.923683 -11.765698
-42.606909 67.239784 -12.020512
-43.576807 65.296097 -13.783523
-43.106586 66.32608 -12.943503
-42.561701 66.612197 -14.038337
-43.95299 64.300317 -14.550349
-44.497875 64.0142 -13.455514
-43.576807 65.296097 -13.783523
-43.378809 64.466589 -15.561431
-43.95299 64.300317 -14.550349
-42.702238 64.577047 -16.526775
-43.378809 64.466589 -15.561431
-42.355351 65.692672 -15.843701
-45.53636 49.915195 18.629758
-45.643051 48.697918 19.768476
-45.178213 50.081668 19.781568
-50.224216 46.185177 0.850859
-50.69257 46.678292 1.187612
-50.235779 47.508477 0.188947
-49.998121 44.861418 1.616096
-50.224216 46.185177 0.850859
-49.541331 45.691603 0.61743
-48.051603 42.44939 2.04321
-48.977171 42.992424 2.089365
-48.389668 43.82481 1.336512
-46.997183 41.860048 2.071174
-47.584687 41.027662 2.824026
-48.051603 42.44939 2.04321
-45.902659 41.24666 2.180027
-46.997183 41.860048 2.071174
-45.789741 45.51693 -1.231178
-46.25711 46.81356 -2.222428
-44.670904 44.87475 -1.057111
-45.789741 45.51693 -1.231178
-44.12574 45.531448 -1.889706
-43.543215 44.197027 -0.832748
-44.670904 44.87475 -1.057111
-44.116737 59.243305 8.088014
-44.33218 58.114826 9.515663
-44.65213 58.903576 6.802834
-44.116737 59.243305 8.088014
-43.946731 60.325847 6.652596
-43.541782 64.786058 -1.861017
-42.925453 65.303904 -0.619175
-42.697811 66.162834 -2.047706
-43.541782 64.786058 -1.861017
-44.159805 64.239485 -3.053123
-45.189336 61.956906 -1.391682
-44.571314 62.503479 -0.199575
-44.77145 63.615797 -4.211584
-45.352097 62.987139 -5.299178
-45.789499 61.407414 -2.512575
-46.370146 60.778755 -3.600169
-45.973365 60.530338 -1.087558
-45.189336 61.956906 -1.391682
-45.789499 61.407414 -2.512575
-49.039794 55.174683 -1.880231
-48.63286 55.749333 -0.993378
-48.412019 56.568802 -2.334704
-49.291681 54.641232 -2.649514
-49.512522 53.821762 -1.308188
-49.039794 55.174683 -1.880231
-48.571796 56.724964 -4.549418
-48.211925 57.377903 -3.710277
-47.964768 58.108715 -5.038137
-49.013759 55.391289 -3.934661
-48.571796 56.724964 -4.549418
-48.766602 56.122101 -5.26252
-49.486486 54.038368 -3.362617
-49.291681 54.641232 -2.649514
-49.013759 55.391289 -3.934661
-46.838621 55.204285 -11.762266
-47.23443 54.87804 -10.640141
-47.250721 55.974159 -11.574005
-46.416488 54.345844 -11.897749
-46.838621 55.204285 -11.762266
-46.441648 61.044975 -11.457251
-46.810448 60.56697 -10.227565
-46.166517 61.87653 -10.728172
-46.682621 60.110271 -12.121054
-46.441648 61.044975 -11.457251
-46.038691 61.41983 -12.621662
-45.789705 60.704514 -14.345154
-45.57686 61.751773 -13.753903
-46.315559 59.526257 -13.757303
-45.789705 60.704514 -14.345154
-46.780899 58.2958 -13.129133
-46.745002 59.254669 -12.657295
-46.315559 59.526257 -13.757303
-47.032627 57.162308 -12.362627
-46.780899 58.2958 -13.129133
-44.665804 50.327282 22.13559
-44.357126 51.635196 22.225518
-44.9153 50.217624 20.976818
-44.665804 50.327282 22.13559
-44.808609 51.434902 19.8381
-45.178213 50.081668 19.781568
-44.9153 50.217624 20.976818
-44.60532 52.66396 18.645537
-44.808609 51.434902 19.8381
-44.342407 52.799915 19.840787
-44.428236 53.866616 17.414383
-44.894438 52.501602 17.411696
-44.60532 52.66396 18.645537
-44.172998 55.082405 16.136249
-44.428236 53.866616 17.414383
-44.502876 54.891758 14.867
-44.172998 55.082405 16.136249
-42.499555 63.120109 6.347955
-43.203715 61.741504 6.482774
-41.740715 64.477972 6.199245
-41.006462 65.777588 6.067495
-42.23725 64.175295 4.879062
-42.499555 63.120109 6.347955
-41.740715 64.477972 6.199245
-41.742437 66.159951 1.945391
-42.023321 65.182488 3.415878
-41.197525 66.51062 3.259865
-41.499061 67.084381 0.491757
-42.324858 65.756248 0.647771
-41.742437 66.159951 1.945391
-41.173818 67.973251 -0.963545
-41.499061 67.084381 0.491757
-41.782371 67.510666 -2.232976
-41.173818 67.973251 -0.963545
-46.004633 47.322239 19.695802
-45.643051 48.697918 19.768476
-46.487082 45.932438 19.672726
-46.004633 47.322239 19.695802
-46.483647 47.141644 18.593589
-46.86793 44.545841 19.582226
-46.487082 45.932438 19.672726
-47.37665 43.159982 19.540022
-46.86793 44.545841 19.582226
-47.474816 44.365983 18.528309
-47.794754 41.773933 19.420051
-47.187868 41.95379 20.473968
-47.37665 43.159982 19.540022
-47.794754 41.773933 19.420051
-48.515631 41.607246 18.404368
-50.661354 41.001938 15.325985
-49.959339 41.221484 16.351869
-50.064953 42.357473 15.376988
-51.255913 39.662711 15.298781
-50.661354 41.001938 15.325985
-51.361526 40.798701 14.323901
-51.818295 38.332741 15.156633
-51.255913 39.662711 15.298781
-52.470199 38.144104 14.158582
-51.818295 38.332741 15.156633
-53.02288 37.914434 13.18212
-52.470199 38.144104 14.158582
-52.508766 39.229804 13.320235
-53.464729 37.688839 12.211986
-53.02288 37.914434 13.18212
-44.998697 56.695007 9.637873
-44.508741 56.9888 10.915285
-44.33218 58.114826 9.515663
-51.332489 44.078902 11.206364
-50.703609 45.43795 11.019531
-51.257747 45.161035 10.036134
-51.951854 42.729769 11.289592
-51.397717 43.006683 12.272988
-51.332489 44.078902 11.206364
-52.251103 43.49514 9.320762
-52.111361 44.537771 8.175931
-52.407295 42.461492 10.344565
-52.251103 43.49514 9.320762
-52.771771 42.154646 9.44236
-52.472522 41.389274 11.41119
-51.951854 42.729769 11.289592
-52.407295 42.461492 10.344565
-53.786011 37.421804 11.291904
-53.464729 37.688839 12.211986
-53.382728 38.733099 11.423692
-53.950836 37.145744 10.390137
-53.786011 37.421804 11.291904
-53.950836 37.145744 10.390137
-53.734968 38.150055 9.681674
-53.461534 38.819195 8.073445
-53.553812 39.171694 8.804685
-53.24942 40.156843 8.018393
-53.461534 38.819195 8.073445
-53.178696 38.443649 7.395129
-51.868685 39.921337 5.417191
-52.379982 40.357965 5.868258
-51.90066 41.289732 5.130244
-51.655567 38.518248 5.780958
-51.868685 39.921337 5.417191
-51.176244 39.450015 5.042945
-51.499523 37.119924 5.95882
-51.655567 38.518248 5.780958
-51.499523 37.119924 5.95882
-50.664822 36.594381 5.666474
-47.638396 34.786562 5.402831
-48.721552 35.426928 5.398764
-48.029198 36.311782 5.059018
-47.638396 34.786562 5.402831
-46.518036 34.054091 5.480004
-45.369084 39.753422 3.009232
-45.902659 41.24666 2.180027
-45.117903 52.718509 -11.855837
-45.764088 53.574318 -11.89734
-44.66856 51.778461 -10.671736
-45.117903 52.718509 -11.855837
-44.268935 51.931858 -11.699987
-42.8382 50.166923 -10.252197
-43.441471 51.067116 -11.517428
-43.200352 49.99477 -9.243002
-42.8382 50.166923 -10.252197
-42.21896 49.169883 -8.979313
-36.417996 41.465607 -3.176812
-36.753838 41.150442 -2.223936
-37.311478 42.630045 -3.326483
-35.590036 40.254627 -3.042543
-36.417996 41.465607 -3.176812
-36.147677 41.734231 -4.145091
-34.921047 38.893631 -3.052497
-35.590036 40.254627 -3.042543
-34.722894 39.125641 -4.039599
-34.921047 38.893631 -3.052497
-34.516348 39.259197 -5.044477
-34.722894 39.125641 -4.039599
-35.11317 40.656807 -5.015699
-34.373417 39.372585 -6.060548
-33.983141 37.841419 -5.084449
-34.516348 39.259197 -5.044477
-35.451076 42.059933 -7.152692
-35.67205 42.037319 -6.143258
-36.216503 43.306888 -7.275374
-34.742525 40.792647 -7.038101
-35.451076 42.059933 -7.152692
-34.209318 39.374869 -7.078074
-34.373417 39.372585 -6.060548
-34.742525 40.792647 -7.038101
3 135 36 136
3 0 39 37
3 0 137 139
3 139 138 39
3 137 138 139
3 0 140 142
3 140 40 141
3 140 141 142
3 1 143 145
3 145 144 41
3 143 144 145
3 3 146 148
3 146 43 147
3 146 147 148
3 3 45 43
3 3 47 45
3 4 50 48
3 4 52 50
3 2 55 53
3 5 58 56
3 5 60 58
3 5 62 60
3 6 65 63
3 6 67 65
3 6 149 151
3 151 150 67
3 149 150 151
3 7 69 68
3 7 70 69
3 152 73 153
3 154 153 71
3 152 153 154
3 155 74 156
3 158 157 74
3 159 77 160
3 9 78 34
3 9 79 78
3 9 80 79
3 161 81 162
3 161 162 163
3 165 164 81
3 10 84 82
3 12 85 35
3 12 86 85
3 13 89 87
3 15 90 38
3 15 91 90
3 15 93 91
3 166 94 167
3 169 168 94
3 17 170 172
3 170 95 171
3 170 171 172
3 17 96 95
3 18 173 175
3 173 98 174
3 173 174 175
3 20 99 42
3 20 100 99
3 8 176 178
3 178 177 76
3 176 177 178
3 21 179 181
3 179 101 180
3 179 180 181
3 21 102 101
3 21 182 184
3 184 183 102
3 182 183 184
3 22 103 44
3 22 104 103
3 22 106 104
3 24 107 46
3 24 185 187
3 187 186 107
3 185 186 187
3 188 108 189
3 190 109 191
3 193 192 109
3 194 110 195
3 197 196 110
3 11 111 83
3 25 112 49
3 25 198 200
3 200 199 112
3 198 199 200
3 25 201 202
3 26 113 51
3 26 114 113
3 19 115 97
3 27 116 54
3 27 117 116
3 14 118 88
3 203 119 204
3 205 204 57
3 203 204 205
3 206 120 207
3 208 207 119
3 206 207 208
3 210 209 120
3 28 121 59
3 28 122 121
3 28 211 213
3 213 212 122
3 211 212 213
3 215 214 61
3 16 123 92
3 29 124 64
3 29 216 218
3 218 217 124
3 216 217 218
3 29 219 220
3 223 222 66
3 221 222 223
3 30 224 225
3 30 226 227
3 23 125 105
3 31 126 72
3 31 127 126
3 228 128 229
3 32 230 232
3 230 129 231
3 230 231 232
3 32 130 129
3 32 131 130
3 33 132 75
3 33 133 132
3 33 134 133
3 233 34 234
3 235 34 236
3 237 9 238
3 239 238 34
3 237 238 239
3 241 240 9
3 242 35 243
3 244 243 10
3 242 243 244
3 36 245 247
3 245 35 246
3 245 246 247
3 36 12 35
3 37 38 13
3 39 38 37
3 39 15 38
3 39 248 250
3 250 249 15
3 248 249 250
3 252 251 39
3 40 253 254
3 40 255 257
3 255 17 256
3 255 256 257
3 41 42 18
3 258 42 259
3 260 259 41
3 258 259 260
3 261 20 262
3 263 262 42
3 261 262 263
3 265 264 8
3 43 266 267
3 43 268 270
3 268 21 269
3 268 269 270
3 43 44 21
3 45 44 43
3 45 22 44
3 45 46 22
3 47 46 45
3 47 24 46
3 48 49 11
3 50 49 48
3 50 25 49
3 50 51 25
3 52 51 50
3 52 26 51
3 53 54 19
3 55 54 53
3 55 27 54
3 56 57 14
3 58 57 56
3 58 271 273
3 273 272 57
3 271 272 273
3 58 274 276
3 274 59 275
3 274 275 276
3 60 59 58
3 60 28 59
3 60 61 28
3 62 61 60
3 62 277 279
3 279 278 61
3 277 278 279
3 63 64 16
3 65 64 63
3 65 29 64
3 65 66 29
3 67 66 65
3 67 280 282
3 282 281 66
3 280 281 282
3 67 283 284
3 286 285 67
3 68 287 288
3 69 289 291
3 291 290 68
3 289 290 291
3 69 292 293
3 69 294 295
3 70 296 298
3 298 297 69
3 296 297 298
3 70 299 301
3 299 30 300
3 299 300 301
3 71 72 23
3 73 72 71
3 73 31 72
3 74 302 303
3 74 304 306
3 304 32 305
3 304 305 306
3 74 75 32
3 307 75 308
3 309 308 74
3 307 308 309
3 310 33 311
3 312 311 75
3 310 311 312
3 314 313 33
3 315 76 316
3 317 316 1
3 315 316 317
3 77 318 320
3 318 76 319
3 318 319 320
3 77 8 76
3 34 321 323
3 321 77 322
3 321 322 323
3 78 77 34
3 78 8 77
3 78 324 326
3 326 325 8
3 324 325 326
3 79 327 329
3 329 328 78
3 327 328 329
3 79 330 332
3 330 3 331
3 330 331 332
3 79 333 335
3 335 334 3
3 333 334 335
3 80 336 338
3 338 337 79
3 336 337 338
3 80 339 340
3 341 80 342
3 343 342 9
3 341 342 343
3 81 344 346
3 344 80 345
3 344 345 346
3 81 347 349
3 349 348 80
3 347 348 349
3 81 350 351
3 354 353 81
3 352 353 354
3 82 355 357
3 355 83 356
3 355 356 357
3 84 83 82
3 84 11 83
3 35 84 10
3 85 84 35
3 85 11 84
3 85 48 11
3 86 48 85
3 86 4 48
3 87 88 2
3 89 88 87
3 89 14 88
3 38 89 13
3 90 89 38
3 90 14 89
3 90 56 14
3 91 56 90
3 91 5 56
3 91 92 5
3 93 92 91
3 93 16 92
3 358 93 359
3 360 359 15
3 358 359 360
3 94 361 363
3 361 93 362
3 361 362 363
3 94 16 93
3 94 63 16
3 364 63 365
3 366 365 94
3 364 365 366
3 367 6 368
3 369 368 63
3 367 368 369
3 371 370 6
3 95 372 373
3 95 374 375
3 95 376 378
3 376 68 377
3 376 377 378
3 96 68 95
3 96 7 68
3 379 97 380
3 98 381 383
3 381 97 382
3 381 382 383
3 98 19 97
3 42 98 18
3 99 98 42
3 99 19 98
3 99 53 19
3 100 53 99
3 100 2 53
3 76 384 386
3 386 385 1
3 384 385 386
3 388 387 76
3 389 20 390
3 392 391 8
3 101 393 394
3 101 395 397
3 395 20 396
3 395 396 397
3 101 100 20
3 102 100 101
3 102 2 100
3 102 87 2
3 398 87 399
3 400 399 102
3 398 399 400
3 401 13 402
3 403 402 87
3 401 402 403
3 44 404 406
3 406 405 21
3 404 405 406
3 103 407 409
3 409 408 44
3 407 408 409
3 103 410 412
3 410 13 411
3 410 411 412
3 103 37 13
3 104 37 103
3 104 0 37
3 104 105 0
3 106 105 104
3 106 23 105
3 46 106 22
3 107 106 46
3 107 23 106
3 107 71 23
3 413 71 414
3 415 414 107
3 413 414 415
3 417 416 71
3 418 47 419
3 420 419 3
3 418 419 420
3 108 421 423
3 421 47 422
3 421 422 423
3 108 24 47
3 424 108 425
3 426 108 427
3 428 24 429
3 430 429 108
3 428 429 430
3 432 431 24
3 109 433 434
3 109 435 436
3 109 437 439
3 437 82 438
3 437 438 439
3 440 82 441
3 442 441 109
3 440 441 442
3 443 10 444
3 445 444 82
3 443 444 445
3 446 10 447
3 449 448 10
3 450 18 451
3 110 452 453
3 110 454 456
3 454 18 455
3 454 455 456
3 110 41 18
3 457 41 458
3 459 458 110
3 457 458 459
3 460 1 461
3 462 461 41
3 460 461 462
3 463 1 464
3 466 465 1
3 83 467 468
3 111 469 471
3 471 470 83
3 469 470 471
3 111 472 473
3 49 111 11
3 112 111 49
3 112 474 476
3 476 475 111
3 474 475 476
3 112 477 479
3 477 478 479
3 481 480 112
3 51 482 484
3 484 483 25
3 482 483 484
3 113 485 487
3 487 486 51
3 485 486 487
3 113 488 489
3 113 490 491
3 114 492 494
3 494 493 113
3 492 493 494
3 114 495 496
3 97 497 499
3 497 36 498
3 497 498 499
3 115 36 97
3 115 12 36
3 54 115 19
3 116 115 54
3 116 12 115
3 116 86 12
3 117 86 116
3 117 4 86
3 88 55 2
3 118 55 88
3 118 27 55
3 57 118 14
3 119 118 57
3 119 27 118
3 119 117 27
3 120 117 119
3 120 4 117
3 120 52 4
3 500 52 501
3 502 501 120
3 500 501 502
3 503 26 504
3 505 504 52
3 503 504 505
3 59 506 507
3 121 508 510
3 510 509 59
3 508 509 510
3 121 511 513
3 511 26 512
3 511 512 513
3 121 114 26
3 122 114 121
3 122 514 516
3 516 515 114
3 514 515 516
3 122 517 518
3 520 519 122
3 61 521 523
3 523 522 28
3 521 522 523
3 525 524 61
3 92 62 5
3 123 62 92
3 123 526 528
3 528 527 62
3 526 527 528
3 64 123 16
3 124 123 64
3 124 529 531
3 531 530 123
3 529 530 531
3 124 532 533
3 535 534 124
3 66 536 538
3 538 537 29
3 536 537 538
3 540 539 66
3 542 541 6
3 105 40 0
3 125 40 105
3 125 17 40
3 72 125 23
3 126 125 72
3 126 17 125
3 126 96 17
3 127 96 126
3 127 7 96
3 543 73 544
3 128 545 547
3 545 73 546
3 545 546 547
3 128 31 73
3 548 128 549
3 129 550 552
3 550 128 551
3 550 551 552
3 129 31 128
3 129 127 31
3 130 127 129
3 130 7 127
3 130 70 7
3 131 70 130
3 131 30 70
3 75 131 32
3 132 131 75
3 132 30 131
3 132 553 555
3 555 554 30
3 553 554 555
3 133 556 558
3 558 557 132
3 556 557 558
3 133 559 560
3 133 561 562
3 134 563 565
3 565 564 133
3 563 564 565
3 134 566 568
3 566 567 568
3 569 134 570
3 571 570 33
3 569 570 571
3 572 134 573
3 576 575 134
3 574 575 576
