ply
format ascii 1.0
element vertex 281
property float x
property float y
property float z
element face 286
property list uchar int vertex_index
end_header
-46.781338 -20.386074 -1.312229
-49.361092 -31.904053 5.432495
-54.145748 -23.138411 -0.305429
-42.659241 -26.720022 6.90132
-58.262611 -13.448835 -7.171316
-50.705627 -12.07436 -10.388014
-44.363514 -32.747383 9.678873
-45.64782 -29.556152 6.380133
-41.584366 -29.303324 10.569099
-44.433163 -35.199921 12.940783
-48.050037 -35.59436 8.651962
-50.316528 -21.926119 -0.50862
-56.496765 -18.408571 -3.442852
-52.660053 -17.592731 -4.395256
-54.538231 -12.809087 -8.688961
-48.922939 -16.526711 -5.77117
-51.582253 -27.667133 2.530345
-47.819878 -25.902664 3.031682
-44.557281 -23.745901 2.926353
-61.645996 -14.697287 -6.413799
-42.733566 -32.337528 11.83045
-42.855804 -31.118221 10.177991
-41.507191 -30.400955 12.262399
-42.989182 -33.360123 13.414003
-44.209293 -34.084503 11.320089
-48.496628 -21.247795 -0.866531
-51.530968 -19.810501 -2.402035
-49.665981 -19.259775 -2.934612
-50.762737 -17.147137 -5.07748
-47.882908 -18.52696 -3.517826
-53.607662 -28.559612 2.137994
-50.391052 -29.834665 3.952561
-44.056473 -28.226938 6.713692
-46.658295 -27.774036 4.719073
-45.012554 -26.614164 4.908518
-46.114548 -24.913458 3.048917
-43.537525 -25.277519 4.948912
-48.561943 -33.83799 6.99589
-51.464401 -33.004284 4.978396
-56.10231 -23.827238 -0.468904
-57.297157 -21.406082 -1.817888
-57.467106 -15.960117 -5.222549
-59.286682 -16.478662 -4.884275
-60.009926 -13.968779 -6.682699
-62.062218 -12.208585 -8.287254
-60.532032 -11.428505 -8.68508
-58.871063 -10.876105 -9.293303
-52.619534 -12.509777 -9.566864
-55.247654 -10.243471 -10.979393
-53.339333 -9.990424 -11.899754
-46.612427 -32.579399 7.512151
-47.41925 -30.766319 5.930099
-44.860802 -31.22514 8.031013
-43.315536 -29.736938 8.470127
-41.987095 -28.067646 8.777747
-45.92395 -35.673058 10.811157
-46.098236 -34.228653 9.140522
-52.209373 -22.526636 -0.311694
-55.376495 -20.799109 -1.814381
-53.445194 -20.291426 -2.01071
-54.582336 -17.979479 -3.826164
-55.585052 -15.580343 -5.774212
-56.429401 -13.088165 -7.860117
-53.670387 -15.260624 -6.491919
-51.755081 -14.898102 -7.290554
-49.871292 -14.375799 -8.063707
-54.848724 -26.216206 0.830163
-52.85873 -25.429527 1.126712
-48.45562 -28.828575 4.384035
-49.648758 -26.797838 2.850644
-50.923546 -24.694521 1.297454
-49.06102 -23.953564 1.296495
-47.295856 -23.127386 1.126496
-45.65699 -22.119936 0.837831
-58.373371 -18.957003 -3.273737
-61.017025 -17.186687 -4.761282
-63.441357 -13.234646 -8.093634
-57.101276 -10.505829 -10.080214
-40.558388 -27.260359 10.817497
-40.887318 -26.163616 8.942005
-41.472046 -24.968927 6.956485
-42.253613 -23.684444 4.879459
-43.172272 -22.308083 2.727071
-44.171066 -20.829063 0.513537
-45.198421 -19.231279 -1.748085
-41.652912 -30.865476 13.051949
-42.120379 -31.369242 12.046425
-42.2661 -31.833763 12.835975
-42.393908 -32.345061 13.627751
-42.736197 -32.711043 14.351583
-42.2661 -31.833763 12.835975
-42.861374 -32.848826 12.622227
-42.393908 -32.345061 13.627751
-49.876072 -30.869359 4.692528
-51.42313 -30.334086 3.729944
-50.90815 -31.36878 4.469911
-50.90815 -31.36878 4.469911
-51.959805 -31.918896 4.242861
-50.412746 -32.454169 5.205445
-51.057659 -10.853831 -11.563946
-52.374512 -9.811863 -12.319816
-52.02248 -11.032392 -11.143884
-44.741062 -35.633036 13.73022
-44.037812 -34.678452 13.925719
-45.275263 -36.038222 12.723845
-45.583163 -36.471336 13.513282
-44.741062 -35.633036 13.73022
-45.178556 -35.43649 11.87597
-46.020657 -36.27479 11.659032
-45.275263 -36.038222 12.723845
-49.126455 -36.233866 8.476137
-47.957115 -36.36322 9.52249
-62.396736 -15.177027 -6.378405
-62.082251 -16.421726 -5.552147
-61.33151 -15.941987 -5.58754
-62.543676 -13.965967 -7.253716
-63.294416 -14.445706 -7.218323
-62.396736 -15.177027 -6.378405
-62.793156 -11.528096 -9.188128
-62.166916 -10.967444 -9.339704
-56.420704 -9.045041 -11.70241
-55.517969 -8.911882 -12.167516
-40.170654 -26.103632 10.870758
-40.195446 -26.543255 11.763833
-40.33512 -25.555261 9.933012
-40.722853 -26.711987 9.879751
-40.170654 -26.103632 10.870758
-40.988928 -23.938409 6.940743
-40.747957 -24.469981 7.97148
-40.264839 -23.439464 7.955738
-41.379711 -23.296168 5.90223
-41.86283 -24.326685 5.917972
-40.988928 -23.938409 6.940743
-42.573843 -21.410799 2.629789
-42.173466 -22.033009 3.746437
-43.07324 -20.671289 1.523022
-43.671669 -21.568573 1.620304
-42.573843 -21.410799 2.629789
-44.482185 -18.45833 -1.912326
-44.026817 -19.19626 -0.751155
-45.704165 -18.364492 -2.89677
-44.482185 -18.45833 -1.912326
-43.315821 -33.758553 14.162329
-42.736197 -32.711043 14.351583
-43.711173 -34.280022 13.177393
-44.037812 -34.678452 13.925719
-43.315821 -33.758553 14.162329
-53.031435 -29.69656 2.82266
-54.660317 -29.033538 1.950832
-51.999357 -29.197139 3.045278
-53.031435 -29.69656 2.82266
-51.42313 -30.334086 3.729944
-49.629938 -34.434838 6.785203
-49.373985 -35.313023 7.613239
-48.30599 -34.716175 7.823926
-51.081167 -34.017984 5.776457
-49.629938 -34.434838 6.785203
-50.013172 -33.421137 5.987143
-52.588335 -33.549155 4.817084
-51.081167 -34.017984 5.776457
-53.049772 -32.429046 4.059669
-52.588335 -33.549155 4.817084
-53.049772 -32.429046 4.059669
-51.959805 -31.918896 4.242861
-57.643517 -22.993107 -1.223836
-57.081652 -24.231212 -0.603735
-58.24094 -21.782529 -1.898328
-57.643517 -22.993107 -1.223836
-56.699734 -22.61666 -1.143396
-58.741806 -20.540288 -2.558534
-58.24094 -21.782529 -1.898328
-61.401823 -10.577405 -9.538616
-62.166916 -10.967444 -9.339704
-61.297125 -11.818545 -8.486167
-60.693587 -10.146899 -9.788187
-61.401823 -10.577405 -9.538616
-59.863102 -9.8707 -10.092299
-60.693587 -10.146899 -9.788187
-59.701548 -11.152305 -8.989192
-59.080551 -9.564066 -10.437496
-59.863102 -9.8707 -10.092299
-54.563809 -8.785359 -12.627697
-55.517969 -8.911882 -12.167516
-54.293493 -10.116948 -11.439573
-53.620747 -8.674845 -13.092586
-54.563809 -8.785359 -12.627697
-53.620747 -8.674845 -13.092586
-52.374512 -9.811863 -12.319816
-46.894071 -36.402569 10.602088
-46.020657 -36.27479 11.659032
-46.986993 -35.633709 9.731559
-47.957115 -36.36322 9.52249
-46.894071 -36.402569 10.602088
-55.243553 -27.825547 1.312947
-54.660317 -29.033538 1.950832
-55.864084 -26.653844 0.659031
-55.243553 -27.825547 1.312947
-54.228193 -27.387909 1.484078
-56.454859 -25.425695 0.045799
-55.864084 -26.653844 0.659031
-55.475517 -25.021722 0.180629
-57.081652 -24.231212 -0.603735
-56.454859 -25.425695 0.045799
-49.126455 -36.233866 8.476137
-49.373985 -35.313023 7.613239
-59.279913 -19.315748 -3.286458
-58.741806 -20.540288 -2.558534
-57.835264 -20.181542 -2.545813
-60.60174 -18.430591 -4.030231
-59.279913 -19.315748 -3.286458
-59.695198 -18.071845 -4.01751
-61.825506 -17.647769 -4.787483
-60.60174 -18.430591 -4.030231
-61.825506 -17.647769 -4.787483
-62.082251 -16.421726 -5.552147
-64.045626 -13.868873 -8.079339
-63.294416 -14.445706 -7.218323
-64.019499 -12.727183 -9.024377
-64.623768 -13.361411 -9.010082
-64.045626 -13.868873 -8.079339
-63.482726 -12.041127 -9.091317
-62.751787 -12.721615 -8.190444
-62.793156 -11.528096 -9.188128
-64.019499 -12.727183 -9.024377
-63.482726 -12.041127 -9.091317
-58.195657 -9.378929 -10.830951
-59.080551 -9.564066 -10.437496
-57.98617 -10.690967 -9.686758
-57.347515 -9.17622 -11.252821
-56.174465 -10.37465 -10.529803
-56.420704 -9.045041 -11.70241
-58.195657 -9.378929 -10.830951
-57.347515 -9.17622 -11.252821
-41.189503 -29.741667 13.209201
-41.652912 -30.865476 13.051949
-41.023029 -29.321174 12.412437
-41.189503 -29.741667 13.209201
-41.061617 -28.772359 11.565787
-41.545778 -29.852139 11.415749
-41.023029 -29.321174 12.412437
-40.548628 -27.750877 11.689986
-40.185686 -27.033772 12.636323
-40.195446 -26.543255 11.763833
-41.071377 -28.281841 10.693298
-41.061617 -28.772359 11.565787
-40.548628 -27.750877 11.689986
-40.455593 -25.067326 8.96424
-40.33512 -25.555261 9.933012
-41.179682 -25.566271 7.949245
-40.455593 -25.067326 8.96424
-40.747957 -24.469981 7.97148
-41.714137 -22.72119 4.822631
-41.379711 -23.296168 5.90223
-42.712942 -22.996263 3.803265
-41.714137 -22.72119 4.822631
-42.173466 -22.033009 3.746437
-43.51314 -19.995151 0.379657
-43.07324 -20.671289 1.523022
-44.684744 -20.030171 -0.617274
-43.51314 -19.995151 0.379657
-44.026817 -19.19626 -0.751155
-47.046408 -18.012332 -3.78164
-46.540665 -18.87912 -2.632956
-45.704165 -18.364492 -2.89677
-47.566423 -17.012208 -4.908312
-48.402923 -17.526835 -4.644498
-47.046408 -18.012332 -3.78164
-48.046152 -16.070822 -6.069187
-47.566423 -17.012208 -4.908312
-48.520328 -14.995366 -7.215456
-49.397115 -15.451255 -6.917439
-48.046152 -16.070822 -6.069187
-48.960217 -13.976318 -8.383843
-48.520328 -14.995366 -7.215456
-49.377384 -12.825598 -9.545997
-50.28846 -13.225079 -9.22586
-48.960217 -13.976318 -8.383843
-49.767416 -11.730456 -10.718913
-49.377384 -12.825598 -9.545997
-51.057659 -10.853831 -11.563946
-49.767416 -11.730456 -10.718913
3 85 22 86
3 87 86 20
3 85 86 87
3 88 23 89
3 90 20 91
3 92 91 23
3 90 91 92
3 0 27 25
3 0 29 27
3 1 93 95
3 93 31 94
3 93 94 95
3 3 34 32
3 3 36 34
3 1 38 37
3 1 96 98
3 98 97 38
3 96 97 98
3 2 40 39
3 4 43 41
3 4 45 43
3 4 46 45
3 5 49 47
3 5 99 101
3 101 100 49
3 99 100 101
3 6 52 50
3 8 53 21
3 8 54 53
3 9 102 103
3 9 104 106
3 104 105 106
3 9 107 109
3 107 55 108
3 107 108 109
3 6 56 24
3 6 50 56
3 11 59 57
3 13 60 26
3 13 61 60
3 13 63 61
3 15 64 28
3 15 65 64
3 16 66 30
3 16 67 66
3 7 68 51
3 17 69 33
3 17 70 69
3 17 71 70
3 18 72 35
3 18 73 72
3 10 110 111
3 12 74 58
3 19 75 42
3 19 112 114
3 114 113 75
3 112 113 114
3 19 115 117
3 115 76 116
3 115 116 117
3 119 118 44
3 14 77 62
3 121 120 48
3 122 78 123
3 124 79 125
3 126 125 78
3 124 125 126
3 127 80 128
3 127 128 129
3 130 81 131
3 132 131 80
3 130 131 132
3 133 82 134
3 135 83 136
3 137 136 82
3 135 136 137
3 138 84 139
3 141 140 84
3 20 21 6
3 22 21 20
3 22 8 21
3 23 142 143
3 23 144 146
3 144 9 145
3 144 145 146
3 23 24 9
3 20 24 23
3 20 6 24
3 25 26 11
3 27 26 25
3 27 13 26
3 27 28 13
3 29 28 27
3 29 15 28
3 147 30 148
3 31 149 151
3 149 30 150
3 149 150 151
3 31 16 30
3 32 33 7
3 34 33 32
3 34 17 33
3 34 35 17
3 36 35 34
3 36 18 35
3 37 152 154
3 154 153 10
3 152 153 154
3 38 155 157
3 157 156 37
3 155 156 157
3 38 158 159
3 38 160 161
3 163 162 38
3 39 164 165
3 40 166 168
3 168 167 39
3 166 167 168
3 40 169 170
3 41 42 12
3 43 42 41
3 43 19 42
3 43 44 19
3 45 44 43
3 45 171 173
3 173 172 44
3 171 172 173
3 45 174 175
3 46 176 178
3 178 177 45
3 176 177 178
3 46 179 180
3 47 48 14
3 49 48 47
3 49 181 183
3 183 182 48
3 181 182 183
3 49 184 185
3 187 186 49
3 50 51 1
3 52 51 50
3 52 7 51
3 21 52 6
3 53 52 21
3 53 7 52
3 53 32 7
3 54 32 53
3 54 3 32
3 55 188 189
3 55 190 192
3 190 10 191
3 190 191 192
3 24 55 9
3 56 55 24
3 56 10 55
3 56 37 10
3 50 37 56
3 50 1 37
3 57 58 2
3 59 58 57
3 59 12 58
3 26 59 11
3 60 59 26
3 60 12 59
3 60 41 12
3 61 41 60
3 61 4 41
3 61 62 4
3 63 62 61
3 63 14 62
3 28 63 13
3 64 63 28
3 64 14 63
3 64 47 14
3 65 47 64
3 65 5 47
3 30 193 194
3 66 195 197
3 197 196 30
3 195 196 197
3 66 198 199
3 66 200 202
3 200 39 201
3 200 201 202
3 67 39 66
3 67 2 39
3 51 31 1
3 68 31 51
3 68 16 31
3 33 68 7
3 69 68 33
3 69 16 68
3 69 67 16
3 70 67 69
3 70 2 67
3 70 57 2
3 71 57 70
3 71 11 57
3 35 71 17
3 72 71 35
3 72 11 71
3 72 25 11
3 73 25 72
3 73 0 25
3 204 203 10
3 58 40 2
3 74 40 58
3 74 205 207
3 207 206 40
3 205 206 207
3 42 74 12
3 75 74 42
3 75 208 210
3 210 209 74
3 208 209 210
3 75 211 212
3 214 213 75
3 76 215 216
3 76 217 219
3 217 218 219
3 44 76 19
3 220 76 221
3 222 221 44
3 220 221 222
3 224 223 76
3 62 46 4
3 77 46 62
3 77 225 227
3 227 226 46
3 225 226 227
3 48 77 14
3 228 77 229
3 230 229 48
3 228 229 230
3 232 231 77
3 233 22 234
3 235 22 236
3 237 8 238
3 239 238 22
3 237 238 239
3 78 240 242
3 240 241 242
3 78 243 245
3 243 8 244
3 243 244 245
3 78 54 8
3 79 54 78
3 79 3 54
3 246 79 247
3 80 248 250
3 248 79 249
3 248 249 250
3 80 3 79
3 80 36 3
3 81 36 80
3 81 18 36
3 251 81 252
3 82 253 255
3 253 81 254
3 253 254 255
3 82 18 81
3 82 73 18
3 83 73 82
3 83 0 73
3 256 83 257
3 84 258 260
3 258 83 259
3 258 259 260
3 84 0 83
3 84 29 0
3 261 29 262
3 263 262 84
3 261 262 263
3 264 15 265
3 266 265 29
3 264 265 266
3 267 15 268
3 269 65 270
3 271 270 15
3 269 270 271
3 272 65 273
3 274 5 275
3 276 275 65
3 274 275 276
3 277 5 278
3 280 279 5
