ply
format ascii 1.0
element vertex 234
property float x
property float y
property float z
element face 206
property list uchar int vertex_index
end_header
-4.192778 -53.289368 69.938187
-4.963737 -52.043228 87.932472
-0.375378 -44.263664 84.75959
-3.369648 -53.670765 80.621803
-4.942215 -48.348068 67.063629
-5.817709 -47.315758 61.791199
-4.722544 -52.56517 64.485123
-1.184616 -43.672943 87.842148
-2.449722 -48.562458 86.74263
-2.098106 -49.157444 82.861549
-3.752539 -53.187523 84.982323
-3.72529 -48.946594 72.543839
-2.635521 -49.229439 77.938477
-3.622637 -53.656361 75.439774
-4.615551 -50.886299 68.507721
-5.025684 -50.507324 65.784927
-4.48456 -52.977886 67.185455
-3.021139 -48.025612 88.097595
-3.671894 -50.381912 87.493988
-3.167683 -50.902809 85.953239
-4.2495 -52.703026 86.667641
-5.37252 -54.380451 87.015785
-5.500021 -49.386475 60.596706
-5.98514 -46.589943 59.333389
-0.626741 -44.034378 86.512642
-0.414347 -44.372353 82.659943
-2.85807 -51.454163 81.798149
-2.273895 -49.246979 80.490662
-3.003658 -51.523983 79.339188
-3.299818 -51.489166 76.725128
-3.434675 -53.713936 78.098389
-5.336081 -50.013092 63.134365
-2.048244 -43.179878 88.694786
-2.435787 -45.627964 88.490242
-1.739935 -46.156586 87.365768
-1.337088 -46.534561 85.793701
-1.218245 -46.766567 83.840187
-2.1472 -48.936272 84.972832
-2.902626 -51.255054 84.029266
-3.465633 -53.503643 82.941727
-4.346598 -48.691544 69.795929
-4.156481 -51.16861 71.264305
-0.905739 -41.104866 88.192284
-1.359503 -46.869247 81.586937
-1.724775 -46.865116 79.117477
-3.136505 -49.125572 75.271881
-3.700663 -51.368149 74.017075
-3.890427 -53.513397 72.703644
-4.317816 -51.21257 87.71323
-4.046495 -50.036632 88.042496
-4.692417 -50.86729 88.261738
-5.48929 -49.002064 59.404438
-5.191802 -50.381351 59.997358
-0.048336 -42.949343 85.197178
-0.174017 -42.834699 86.073704
-0.501059 -44.149021 85.636116
0.013219 -43.001648 84.244354
-0.048336 -42.949343 85.197178
-0.394863 -44.318008 83.709767
-0.006265 -43.055993 83.19453
0.013219 -43.001648 84.244354
-3.465442 -54.742857 79.965763
-3.497956 -54.764443 78.704056
-3.402162 -53.692351 79.360096
-5.197223 -48.12228 65.722973
-5.04816 -47.007507 66.359016
-4.794781 -52.300263 63.180853
-5.101549 -51.024224 62.505474
-5.029312 -51.289131 63.809744
-3.149237 -46.479467 88.738231
-2.926773 -45.293798 88.810119
-3.92566 -54.303514 84.401913
-3.782207 -54.461574 83.381615
-3.609086 -53.345583 83.962025
-5.980149 -45.891934 61.144735
-5.779638 -46.227156 62.406748
-6.141552 -45.116574 58.730744
-5.948749 -46.151791 58.192319
-4.035944 -48.819069 71.169884
-4.017368 -47.537579 70.43977
-3.706715 -47.665104 71.813725
-2.452385 -48.00246 77.222359
-1.997012 -46.820299 77.811859
-2.180148 -48.047277 78.527977
-2.886013 -49.177505 76.605179
-2.702877 -47.950527 75.889061
-2.452385 -48.00246 77.222359
-3.601738 -54.698357 74.746811
-3.735633 -54.626875 73.378746
-3.756532 -53.584879 74.071709
-3.721118 -48.858483 88.344299
-3.441914 -47.678292 88.541908
-3.346516 -49.203762 87.795792
-3.721118 -48.858483 88.344299
-4.046495 -50.036632 88.042496
-4.444254 -53.845332 86.142701
-4.195774 -54.08758 85.300041
-4.001019 -52.945274 85.824982
-5.005764 -54.684044 86.316772
-4.444254 -53.845332 86.142701
-4.81101 -53.541739 86.841713
-5.469416 -55.534643 86.437443
-5.005764 -54.684044 86.316772
-5.73185 -47.603798 58.772779
-5.742581 -47.988209 59.965047
-5.48929 -49.002064 59.404438
-5.695458 -47.165645 57.63171
-5.948749 -46.151791 58.192319
-5.73185 -47.603798 58.772779
-3.333736 -47.780378 73.178483
-3.706715 -47.665104 71.813725
-0.391013 -42.730076 86.828595
-0.66995 -42.549358 87.493347
-0.905678 -43.85366 87.177395
-0.391013 -42.730076 86.828595
-0.174017 -42.834699 86.073704
-0.088997 -43.063087 82.08574
-0.006265 -43.055993 83.19453
-0.563743 -44.375767 81.479862
-0.088997 -43.063087 82.08574
-3.476365 -54.769659 77.419815
-3.570346 -54.740871 76.090508
-3.528656 -53.685148 76.769081
-3.476365 -54.769659 77.419815
-3.497956 -54.764443 78.704056
-5.63497 -47.606125 63.086758
-5.779638 -46.227156 62.406748
-5.238958 -49.201908 65.083622
-5.197223 -48.12228 65.722973
-4.983949 -49.427696 66.424278
-5.394157 -48.954792 63.758341
-5.238958 -49.201908 65.083622
-5.180883 -50.260208 64.459646
-5.576895 -48.664425 62.462782
-5.63497 -47.606125 63.086758
-5.394157 -48.954792 63.758341
-5.18352 -50.710915 61.236644
-5.418051 -49.699783 61.865536
-5.101549 -51.024224 62.505474
-5.191802 -50.381351 59.997358
-5.18352 -50.710915 61.236644
-2.733002 -44.069755 88.912391
-2.624188 -42.874809 88.874157
-2.242015 -44.403921 88.592514
-2.733002 -44.069755 88.912391
-2.926773 -45.293798 88.810119
-2.728463 -46.826788 88.293918
-3.149237 -46.479467 88.738231
-3.441914 -47.678292 88.541908
-3.605558 -54.595804 82.317882
-3.557565 -54.679365 81.157921
-3.417641 -53.587204 81.781765
-3.605558 -54.595804 82.317882
-3.782207 -54.461574 83.381615
-3.92566 -54.303514 84.401913
-4.195774 -54.08758 85.300041
-5.427475 -51.630592 88.333046
-4.692417 -50.86729 88.261738
-5.629288 -52.822207 87.94944
-5.427475 -51.630592 88.333046
-6.063864 -45.529026 59.91583
-5.980149 -45.891934 61.144735
-5.901425 -46.95285 60.562294
-6.063864 -45.529026 59.91583
-6.141552 -45.116574 58.730744
-4.031163 -54.306233 69.238666
-3.951874 -54.430821 70.620957
-4.694619 -47.211143 67.708443
-5.04816 -47.007507 66.359016
-4.39681 -47.382881 69.074592
-4.017368 -47.537579 70.43977
-4.644407 -48.519806 68.429779
-4.694619 -47.211143 67.708443
-4.39681 -47.382881 69.074592
-2.004018 -41.927942 88.719146
-2.579962 -41.622873 88.898517
-2.624188 -42.874809 88.874157
-1.432766 -40.890436 88.467895
-2.004018 -41.927942 88.719146
-1.476992 -42.142372 88.443535
-0.943588 -39.781559 88.313187
-1.432766 -40.890436 88.467895
-0.530512 -41.26532 87.668416
-1.045177 -42.388904 88.017216
-0.66995 -42.549358 87.493347
-0.463921 -39.908886 87.943261
-0.530512 -41.26532 87.668416
-0.50177 -38.585579 88.064164
-0.943588 -39.781559 88.313187
-0.463921 -39.908886 87.943261
-1.036321 -45.624214 80.943359
-0.563743 -44.375767 81.479862
-0.886925 -45.6208 82.12344
-1.218957 -45.622149 79.70863
-1.036321 -45.624214 80.943359
-1.542139 -46.867182 80.352207
-1.477793 -45.584479 78.439346
-1.218957 -45.622149 79.70863
-1.477793 -45.584479 78.439346
-1.997012 -46.820299 77.811859
-3.039343 -47.869867 74.542503
-2.702877 -47.950527 75.889061
-3.430898 -49.036083 73.90786
-3.333736 -47.780378 73.178483
-3.039343 -47.869867 74.542503
-3.800699 -54.542835 72.003685
-3.951874 -54.430821 70.620957
-4.041602 -53.401382 71.320915
-3.800699 -54.542835 72.003685
-3.735633 -54.626875 73.378746
-3.601738 -54.698357 74.746811
-3.570346 -54.740871 76.090508
-3.465442 -54.742857 79.965763
-3.557565 -54.679365 81.157921
-5.83368 -53.990818 87.491096
-5.168128 -53.211839 87.474129
-5.629288 -52.822207 87.94944
-5.95109 -55.178703 86.975479
-5.83368 -53.990818 87.491096
-6.047986 -56.332895 86.397137
-5.469416 -55.534643 86.437443
-5.95109 -55.178703 86.975479
-4.177055 -54.150492 67.862301
-4.338669 -53.133627 68.561821
-4.031163 -54.306233 69.238666
-4.252154 -53.981814 66.494293
-4.177055 -54.150492 67.862301
-4.371145 -53.775455 65.144127
-4.603552 -52.771528 65.835289
-4.252154 -53.981814 66.494293
-4.425334 -53.556559 63.810379
-4.371145 -53.775455 65.144127
-4.794781 -52.300263 63.180853
-4.425334 -53.556559 63.810379
3 0 16 14
3 1 48 50
3 48 18 49
3 48 49 50
3 1 20 18
3 1 21 20
3 52 51 22
3 2 53 55
3 55 54 24
3 53 54 55
3 2 56 57
3 2 58 60
3 58 25 59
3 58 59 60
3 3 28 26
3 3 30 28
3 3 61 63
3 63 62 30
3 61 62 63
3 4 64 65
3 6 31 15
3 6 66 68
3 68 67 31
3 66 67 68
3 69 33 70
3 8 34 17
3 8 35 34
3 8 37 35
3 10 38 19
3 10 39 38
3 10 71 73
3 73 72 39
3 71 72 73
3 5 74 75
3 77 76 23
3 11 78 80
3 78 40 79
3 78 79 80
3 11 41 40
3 7 42 32
3 9 43 36
3 12 44 27
3 12 81 83
3 83 82 44
3 81 82 83
3 12 84 86
3 84 45 85
3 84 85 86
3 13 46 29
3 13 47 46
3 13 87 89
3 89 88 47
3 87 88 89
3 14 15 4
3 16 15 14
3 16 6 15
3 90 17 91
3 18 92 94
3 92 17 93
3 92 93 94
3 18 8 17
3 18 19 8
3 20 19 18
3 20 10 19
3 20 95 97
3 97 96 10
3 95 96 97
3 21 98 100
3 100 99 20
3 98 99 100
3 21 101 102
3 22 23 5
3 103 23 104
3 105 104 22
3 103 104 105
3 108 107 23
3 106 107 108
3 109 11 110
3 24 111 113
3 113 112 7
3 111 112 113
3 115 114 24
3 25 116 117
3 25 118 119
3 26 27 9
3 28 27 26
3 28 12 27
3 28 29 12
3 30 29 28
3 30 13 29
3 30 120 122
3 122 121 13
3 120 121 122
3 124 123 30
3 125 5 126
3 15 127 129
3 129 128 4
3 127 128 129
3 31 130 132
3 132 131 15
3 130 131 132
3 31 133 135
3 133 5 134
3 133 134 135
3 31 22 5
3 136 22 137
3 138 137 31
3 136 137 138
3 140 139 22
3 141 32 142
3 33 143 145
3 143 32 144
3 143 144 145
3 33 7 32
3 17 146 148
3 146 33 147
3 146 147 148
3 34 33 17
3 34 7 33
3 34 24 7
3 35 24 34
3 35 2 24
3 35 36 2
3 37 36 35
3 37 9 36
3 19 37 8
3 38 37 19
3 38 9 37
3 38 26 9
3 39 26 38
3 39 3 26
3 39 149 151
3 151 150 3
3 149 150 151
3 153 152 39
3 155 154 10
3 156 1 157
3 159 158 1
3 23 160 162
3 162 161 5
3 160 161 162
3 164 163 23
3 166 165 0
3 167 4 168
3 40 169 170
3 40 171 173
3 171 4 172
3 171 172 173
3 40 14 4
3 41 14 40
3 41 0 14
3 32 174 176
3 174 175 176
3 42 177 179
3 179 178 32
3 177 178 179
3 42 180 181
3 182 42 183
3 184 183 7
3 182 183 184
3 185 42 186
3 189 188 42
3 187 188 189
3 36 25 2
3 43 25 36
3 43 190 192
3 192 191 25
3 190 191 192
3 27 43 9
3 44 43 27
3 44 193 195
3 195 194 43
3 193 194 195
3 44 196 197
3 199 198 44
3 45 200 201
3 45 202 204
3 202 11 203
3 202 203 204
3 29 45 12
3 46 45 29
3 46 11 45
3 46 41 11
3 47 41 46
3 47 0 41
3 47 205 207
3 207 206 0
3 205 206 207
3 209 208 47
3 211 210 13
3 213 212 3
3 214 21 215
3 216 215 1
3 214 215 216
3 217 21 218
3 221 220 21
3 219 220 221
3 222 16 223
3 224 223 0
3 222 223 224
3 225 16 226
3 227 6 228
3 229 228 16
3 227 228 229
3 230 6 231
3 233 232 6
