ply
format ascii 1.0
element vertex 734
property float x
property float y
property float z
element face 812
property list uchar int vertex_index
end_header
-2.24815 -4.416752 58.641224
0.997042 -6.024637 75.093018
-0.290756 21.990761 63.268311
-1.320612 43.338524 39.24865
-2.854338 -10.933605 52.84005
-0.890516 8.181854 79.688126
0.134115 36.959774 62.484024
-0.164278 -5.421893 65.838066
-3.184181 -16.642799 59.084152
-0.205475 23.360756 73.240486
0.598814 8.648355 71.229996
-0.931356 7.529554 61.453304
-0.755529 28.28548 43.049576
-1.349445 18.456566 53.21122
-2.168964 -0.728067 56.41914
-2.066908 -3.559383 53.168003
-2.835911 -7.295973 55.912163
-0.399723 -13.473104 84.756157
0.773708 -5.810991 70.394394
-0.132444 -12.438888 66.909477
0.836246 -12.941881 71.652069
-1.136738 30.453659 72.256348
0.342068 1.111197 77.921944
0.369465 8.622175 75.87381
0.863297 1.312092 73.496506
0.501152 1.392668 68.770065
-0.801781 40.420868 35.141296
-0.10317 32.921547 37.545689
-1.215002 35.725754 41.263435
-0.70488 27.773308 57.841564
-1.298092 25.73938 52.725452
-1.026016 20.431362 57.977146
-1.270475 13.201626 57.700001
-0.560238 14.672955 62.610374
-4.575722 -21.269646 55.621223
-1.121382 -7.159113 50.318264
0.419939 -6.185523 79.527596
1.126669 -13.095175 76.524101
0.713388 -13.161424 81.080406
-1.234495 38.341412 45.719856
-0.531939 40.862518 50.782471
-0.263294 35.312492 57.219738
-0.02375 29.428425 63.250408
-1.398897 -4.897962 61.741615
-2.603233 -9.892662 58.899849
-1.489429 -11.457021 62.587933
-1.852386 -18.353024 63.206448
-0.521433 37.678719 66.979431
0.021446 30.424747 68.301376
0.191704 23.027874 68.587082
-0.53882 15.855846 77.029831
0.338535 16.038887 72.850494
0.180756 15.619873 67.837616
0.008307 8.311562 66.26252
-0.479063 1.322266 64.164215
-1.543541 0.837774 60.011787
-0.062035 20.814526 44.634251
-1.364536 30.804504 47.123985
-1.166405 23.450859 48.28093
-0.803869 16.057957 49.213287
-1.365374 11.153549 53.425179
-1.619625 6.087948 57.123928
-3.631863 -14.167906 55.651459
-3.87653 -18.335527 52.578491
-3.06027 -22.583088 50.145615
-2.264627 -2.782087 57.682602
-2.492693 -4.005053 56.122482
-2.565062 -5.690814 57.415775
0.986399 -5.936182 72.748535
0.824451 -9.404246 71.038254
1.03492 -9.529491 73.427689
0.754768 -2.465189 76.608429
0.718136 1.232023 75.775589
0.939571 -2.377747 74.342682
0.907507 -2.292021 72.009109
-1.21015 41.896347 37.10321
-1.045319 38.113129 38.235741
-1.311373 39.502815 40.286903
-0.509331 24.945789 60.636303
-0.883148 24.083019 57.966835
-0.66987 21.267265 60.582005
-0.814259 17.621349 60.394253
-0.422903 18.316212 63.014515
-2.42613 -7.240344 53.009033
-1.693123 -5.28152 51.6833
-2.070368 -9.094697 51.569843
-0.146133 -6.326545 81.490707
0.539515 -9.710632 80.30043
0.020958 -9.829652 82.277603
-0.119581 -16.862238 85.497803
0.503256 -16.660482 83.836235
-1.016741 -2.997625 82.403847
-0.23917 -2.742306 80.700226
0.144884 40.052948 59.344875
-0.047138 39.164261 56.718098
0.028297 36.224926 59.899014
-0.141132 32.423855 60.299236
0.083261 33.187271 62.960709
-0.783936 -5.169033 63.712376
-1.407473 -8.09594 62.229645
-0.75174 -8.551673 64.250671
-0.211815 -15.929401 67.38636
-0.908278 -15.490189 65.076416
1.222099 -16.513041 77.257263
1.109869 -16.488228 74.78051
-1.380022 37.574467 68.72377
-0.612364 26.94619 72.915619
-0.384563 30.575928 70.454956
-0.077536 26.958481 70.901672
0.138668 26.734192 68.578629
0.135246 23.294624 71.041611
-1.422209 15.506302 78.651962
-0.723097 12.019156 78.483772
0.606667 8.68108 73.625504
0.368328 12.365236 74.510956
0.503937 12.341396 72.172646
0.366461 15.898632 70.410263
0.404577 12.199747 69.689095
0.121834 11.943815 67.134186
0.381807 8.527056 68.754028
0.251722 -2.092745 67.348053
0.059647 1.386005 66.428955
-0.290636 -1.992416 65.110916
-0.88681 -1.921684 62.98996
-0.462465 30.636669 40.331696
0.336805 29.161869 38.667736
-0.069937 26.898567 41.302917
-0.423185 24.569054 43.866875
-1.140291 35.770844 48.855972
-1.341909 34.538498 46.455017
-1.287367 31.998848 49.44392
-1.343479 22.092247 53.004673
-1.351017 24.627422 50.406071
-1.287954 20.977318 50.788807
-0.988728 19.772572 48.775238
-1.197617 17.315823 51.110329
-1.114904 13.624199 51.371067
-1.346115 14.813503 53.350155
-1.128366 10.426582 59.690769
-1.421423 9.622503 57.441116
-1.343138 6.907368 59.216797
-1.614073 3.489735 58.693718
-1.204979 4.094671 60.75378
-2.866665 -13.208521 58.988155
-3.17963 -12.065555 57.294785
-3.553602 -15.504477 57.279057
-4.927172 -23.477858 54.05983
-4.402027 -19.871012 53.999775
-4.429026 -22.013573 52.564358
-3.596422 -20.444542 51.269894
-1.935728 1.495226 54.975571
-1.78072 0.116669 53.301159
-2.222788 -2.022575 54.754959
-2.56159 -5.52818 54.543915
-2.951241 -9.059937 54.352409
-0.665094 -10.045419 83.981194
-1.230335 -13.804432 86.092583
-0.952711 -17.179493 86.785042
0.09409 40.723553 61.825825
0.376577 -5.639241 68.077576
-0.112179 -8.921412 66.413849
0.431934 -9.204879 68.687294
0.427456 -12.745077 69.24324
-0.868111 23.205845 75.112137
-0.212742 4.670099 78.970673
-0.130316 8.461107 77.912521
0.35393 4.85598 76.988068
0.67473 4.961983 74.805794
0.752403 5.003523 72.482132
0.606838 4.987202 70.078064
0.783306 1.364847 71.142807
0.668406 -2.196808 69.661575
0.328869 35.114563 34.69212
-0.487944 36.667427 36.371284
-0.793823 34.366085 39.310425
-1.026831 31.994434 42.18277
-0.874956 30.502304 54.928291
-1.057644 26.791241 55.216637
-1.276131 19.493439 55.507694
-1.344961 15.871559 55.526051
-1.147247 16.806267 57.883663
-0.959257 14.005405 60.090469
-0.722088 11.069902 62.081066
-3.542048 -20.11451 59.23415
-3.966818 -19.003342 57.317677
-1.403191 -1.468626 51.751984
-0.826164 -3.233184 50.331341
-0.09808 -5.161703 49.031197
0.805183 -6.097419 77.373138
1.054239 -9.600748 75.80751
0.88632 -9.648351 78.120255
1.006433 -13.11841 78.875488
1.162548 -16.521477 79.641403
0.246351 -13.267254 83.064743
0.926331 -16.557228 81.859886
-1.88867 7.765524 81.157364
-1.011974 4.382544 80.700691
-0.25692 0.926945 79.877556
0.357462 -2.576496 78.747948
-1.297503 40.869263 42.518349
-0.929707 39.621407 48.191463
-0.146948 42.024723 53.439133
-0.392633 38.119141 54.042015
-0.646069 34.276173 54.537674
-0.492495 31.514301 57.5938
-0.329029 28.663227 60.544384
-0.155493 25.694931 63.351303
-1.918087 -4.633013 59.991676
-2.397263 -6.839702 58.78384
-1.986685 -7.544675 60.389816
-2.12306 -10.762019 60.652332
-2.326351 -14.142929 60.857098
-0.795721 -12.011971 64.682198
-1.64212 -14.898148 62.892712
-2.5877 -17.589655 61.064774
1.070997 -13.048871 74.095917
-0.719557 -20.521414 87.386185
-0.271427 41.116482 64.063065
-0.028212 37.461189 64.87532
-0.811745 34.124302 69.719711
-0.188906 34.081375 67.762665
0.092123 33.755703 65.481308
0.120201 30.02948 65.868874
0.088596 26.301991 66.030029
0.024481 22.584965 65.965126
-0.361357 19.649582 75.286865
-0.036352 12.262129 76.634193
0.046724 16.029083 75.079506
0.105345 19.718555 73.216354
0.277884 19.6026 70.872345
0.20249 19.319183 68.333023
-0.056484 18.885555 65.685455
-0.153305 15.210377 65.213112
-0.278822 11.570486 64.578033
-0.454842 7.987064 63.813263
0.275999 4.909346 67.653221
-0.184376 4.75515 65.261826
-0.703903 4.497496 62.950069
-1.039181 1.16194 62.014931
-1.454451 -1.927439 61.027874
-1.919319 -2.111101 59.271305
-1.352205 37.043194 43.403374
-1.318937 33.284061 44.225471
-1.193993 29.574284 44.989414
-1.356884 28.292076 49.959179
-1.301085 27.118149 47.731277
-0.988871 25.886883 45.6996
-0.729023 22.190594 46.358528
-0.44924 18.4561 46.965229
-0.187393 14.661858 47.514107
-0.648453 12.2913 49.59021
-1.072811 9.894388 51.56868
-1.434113 7.478024 53.438976
-1.423166 12.25362 55.471592
-1.537476 8.642313 55.353558
-1.706152 5.050838 55.18288
-1.87178 2.628603 56.771175
-1.93244 0.23674 58.158661
-2.853077 -8.762903 57.335743
-3.211733 -10.682573 55.763199
-3.393074 -12.636833 54.184036
-4.092247 -17.710943 55.592014
-3.881985 -16.248747 54.055206
-1.306439 44.531195 37.579052
-1.289058 45.285967 38.697197
-1.265381 42.617435 38.17593
-1.251209 43.810107 36.506332
-1.306439 44.531195 37.579052
-2.689896 -11.917095 52.138803
-2.297911 -10.99764 51.5037
-2.462353 -10.014151 52.204946
-0.429607 -8.194637 82.736656
-0.062588 -8.078098 81.884155
-0.513152 -6.443084 82.343208
0.319296 -18.444966 85.031899
0.009117 -18.544075 85.835926
-0.948456 -4.778624 82.799778
-1.485085 -3.187018 83.101899
-0.513152 -6.443084 82.343208
-0.581437 -4.662085 81.947277
-0.948456 -4.778624 82.799778
-0.642067 -17.435024 66.437774
-0.271285 -17.646404 67.638233
1.190605 -18.184332 76.373542
1.279901 -18.191676 77.630752
-1.99078 37.351219 69.395218
-1.739689 39.232029 68.11055
-0.806806 10.100505 79.085949
-1.201917 11.82051 79.249786
-1.285627 9.901859 79.851963
-1.153643 32.579954 50.685671
-1.213829 33.884846 49.149946
-1.080105 34.465952 50.391697
-4.69827 -23.833107 52.624785
-4.678099 -22.745716 53.312094
-4.947343 -24.56525 53.372521
-4.292622 -23.084477 51.943945
-4.69827 -23.833107 52.624785
-1.738878 -14.03742 86.562164
-1.878811 -12.34201 86.211239
-1.600066 -15.72495 86.908394
-1.091523 -15.491962 86.438813
-1.738878 -14.03742 86.562164
0.013264 42.583691 61.40881
0.133666 42.302359 60.232016
0.608414 -14.584988 70.724533
0.404019 -14.486586 69.520118
0.631851 -12.843479 70.447654
-1.36382 23.011192 75.861096
-1.178803 24.941553 74.836464
-0.639785 41.519506 33.561565
-0.92016 42.308029 34.496801
-0.452519 39.645523 34.253677
-0.639785 41.519506 33.561565
-0.644863 38.544148 35.75629
-0.295601 37.768803 34.868671
-0.452519 39.645523 34.253677
-1.106996 21.779613 56.692285
-1.035562 23.605442 56.68713
-0.954582 22.257191 57.971991
-1.151073 19.962401 56.74242
-1.232053 21.310652 55.45756
-1.106996 21.779613 56.692285
-3.970807 -21.312008 58.343394
-3.730128 -21.844248 59.358785
-0.759718 -8.168231 49.695149
-0.248067 -7.169526 49.051615
-0.609731 -6.160408 49.67473
1.039683 -18.238185 82.239517
0.714794 -16.608855 82.848061
0.828145 -18.289812 83.227691
1.133274 -18.217588 81.132889
1.039683 -18.238185 82.239517
-2.485933 7.479476 81.721512
-2.380828 9.411022 81.178757
-1.035973 2.516555 81.143482
-1.513816 4.175554 81.415924
-0.658447 0.788755 80.731915
-0.634447 2.654745 80.289124
-1.035973 2.516555 81.143482
-0.730823 40.241962 49.486967
-0.805871 41.585943 47.819124
-0.606987 42.206499 49.114628
-0.661733 38.917976 51.091193
-0.860617 38.297421 49.795688
-0.730823 40.241962 49.486967
-0.013429 42.538656 54.763508
-0.045988 43.997982 53.082385
-2.370879 -19.696152 62.267317
-2.738536 -19.314467 61.19648
-2.220043 -17.971339 62.135611
0.968697 -16.446711 73.528172
0.961688 -18.139889 73.855358
-1.266827 -20.713787 87.777809
-1.359472 -19.066885 87.523434
-0.39643 39.3976 65.521248
-0.634867 41.149512 65.01783
-0.759869 39.43063 66.476013
-0.974241 32.288981 70.98803
-1.304264 33.991125 70.506698
-1.46676 32.155803 71.775017
-0.84106 17.618326 77.027164
-1.282755 17.443554 77.83823
-0.980514 15.681074 77.840896
-0.450089 17.752714 76.158348
-0.752329 19.515194 76.155682
-0.84106 17.618326 77.027164
0.35094 32.128565 36.754093
0.56696 33.225073 35.327309
0.11285 34.018055 36.118904
0.820653 28.337028 37.922857
0.572046 27.262123 39.202936
0.358133 20.048008 43.862879
0.146526 21.968454 43.4293
0.11447 18.905577 44.990351
0.358133 20.048008 43.862879
-1.327488 27.015728 51.342315
-1.27459 28.8568 51.163595
-1.245194 27.580452 52.546731
-3.609862 -16.485938 52.631633
-3.612589 -15.442548 53.369991
-3.879257 -17.292137 53.316848
-3.459364 -17.511916 51.950702
-3.609862 -16.485938 52.631633
-2.783082 -20.689844 50.13496
-3.051158 -19.620571 50.6971
-3.328346 -21.513815 50.707755
-2.421154 -21.771873 49.613136
-2.783082 -20.689844 50.13496
-1.124344 43.045768 35.477758
-1.251209 43.810107 36.506332
-1.005966 41.158608 36.122253
-0.92016 42.308029 34.496801
-1.124344 43.045768 35.477758
-1.790587 -10.082987 50.91238
-1.316095 -9.115195 50.286591
-1.595875 -8.126905 50.944053
-1.790587 -10.082987 50.91238
-2.297911 -10.99764 51.5037
0.630715 -18.344088 84.201115
0.191838 -16.76136 84.667019
0.319296 -18.444966 85.031899
0.828145 -18.289812 83.227691
0.630715 -18.344088 84.201115
-1.528118 -1.372936 82.699489
-1.485085 -3.187018 83.101899
-1.038357 -1.17353 81.99506
-1.528118 -1.372936 82.699489
-0.627955 -2.869966 81.552036
-0.649571 -1.04587 81.143249
-1.038357 -1.17353 81.99506
-0.403155 42.840067 50.427084
-0.606987 42.206499 49.114628
0.048873 39.608604 58.031486
0.036476 41.108425 56.402991
0.132487 41.552768 57.716379
-0.990298 -17.215418 65.282803
-0.560047 -15.709795 66.231388
-0.642067 -17.435024 66.437774
-1.462353 -18.646836 64.347819
-1.380332 -16.921607 64.141432
-0.990298 -17.215418 65.282803
-1.976147 -20.065342 63.392521
-1.462353 -18.646836 64.347819
1.13449 -18.171926 75.135166
1.165984 -16.500635 76.018887
1.190605 -18.184332 76.373542
0.961688 -18.139889 73.855358
1.13449 -18.171926 75.135166
-1.189164 39.378504 67.348183
-1.739689 39.232029 68.11055
-0.950728 37.626593 67.851601
-0.759869 39.43063 66.476013
-1.189164 39.378504 67.348183
-1.551474 13.564083 79.333881
-2.000193 15.238173 79.283733
-1.072653 13.762729 78.567867
-1.551474 13.564083 79.333881
-1.201917 11.82051 79.249786
0.368675 26.130472 40.520527
0.572046 27.262123 39.202936
0.133434 28.030218 39.985326
0.142575 25.010475 41.763633
0.368675 26.130472 40.520527
-0.034049 23.845719 43.045613
0.142575 25.010475 41.763633
-0.246561 25.733811 42.584896
-0.24261 22.69179 44.250563
0.146526 21.968454 43.4293
-0.034049 23.845719 43.045613
-3.87632 -22.299961 51.296713
-4.012724 -21.229057 51.917126
-4.292622 -23.084477 51.943945
-3.608244 -23.369234 50.734573
-3.328346 -21.513815 50.707755
-3.87632 -22.299961 51.296713
-1.858224 0.805947 54.138365
-1.675354 1.95635 53.348196
-1.752858 2.645629 54.185402
-1.21727 -8.482358 84.280602
-0.772633 -8.30252 83.588451
-1.090451 -10.217486 84.664471
-1.21727 -8.482358 84.280602
-0.957766 -11.931328 85.051952
-0.532408 -11.759262 84.368675
-1.090451 -10.217486 84.664471
-1.373072 -12.096992 85.720166
-1.878811 -12.34201 86.211239
-0.815029 -13.638768 85.42437
-0.957766 -11.931328 85.051952
-1.373072 -12.096992 85.720166
-0.407448 -18.702703 86.479546
0.009117 -18.544075 85.835926
-0.536146 -17.020865 86.141423
0.159064 41.967056 58.99154
0.132487 41.552768 57.716379
0.119487 40.38825 60.58535
0.159064 41.967056 58.99154
0.133666 42.302359 60.232016
0.084383 -16.078747 68.591679
0.10782 -14.337239 68.3148
0.404019 -14.486586 69.520118
-0.271285 -17.646404 67.638233
0.084383 -16.078747 68.591679
-1.688133 30.247566 72.958966
-1.46676 32.155803 71.775017
-1.313117 28.56546 73.408569
-1.688133 30.247566 72.958966
-1.05093 26.811726 73.738205
-0.874551 28.699925 72.585983
-1.313117 28.56546 73.408569
-0.740237 25.076017 74.013878
-1.05093 26.811726 73.738205
-1.178803 24.941553 74.836464
0.112806 36.99237 34.029089
0.583033 36.150411 33.232822
-0.079537 35.890995 35.531702
0.112806 36.99237 34.029089
-0.295601 37.768803 34.868671
-1.033627 29.961914 53.648151
-0.947437 31.831682 53.427857
-1.12497 28.106383 53.792324
-1.033627 29.961914 53.648151
-0.9663 28.646772 55.072464
-1.177868 26.26531 53.971044
-1.245194 27.580452 52.546731
-1.12497 28.106383 53.792324
-1.12281 24.959553 55.312031
-0.970396 25.43713 56.591736
-1.035562 23.605442 56.68713
-1.243034 24.433622 54.066439
-1.177868 26.26531 53.971044
-1.12281 24.959553 55.312031
-1.265727 22.610056 54.206049
-1.320785 23.915813 52.865062
-1.243034 24.433622 54.066439
-1.309805 20.792843 54.256183
-1.265727 22.610056 54.206049
-1.232053 21.310652 55.45756
-4.183191 -20.756424 57.385157
-3.754433 -19.558926 58.275914
-3.970807 -21.312008 58.343394
-4.487643 -21.889576 56.53693
-4.27127 -20.136494 56.46945
-4.183191 -20.756424 57.385157
-4.815673 -23.040162 55.700927
-4.487643 -21.889576 56.53693
-4.991398 -24.144268 54.920231
-4.751447 -22.373752 54.840526
-4.815673 -23.040162 55.700927
-5.175698 -25.262265 54.167412
-4.991398 -24.144268 54.920231
-4.947343 -24.56525 53.372521
-5.175698 -25.262265 54.167412
-1.492783 1.227173 52.530527
-1.675354 1.95635 53.348196
-1.304018 0.434525 51.755939
-1.492783 1.227173 52.530527
-1.591956 -0.675979 52.526572
-1.018242 -0.388748 51.011581
-1.304018 0.434525 51.755939
-0.729729 -1.271027 50.30126
-1.018242 -0.388748 51.011581
-1.114677 -2.350905 51.041663
-0.365308 -2.183584 49.622753
-0.729729 -1.271027 50.30126
-0.001266 -3.147844 48.972681
-0.365308 -2.183584 49.622753
-0.462122 -4.197444 49.681269
0.408031 -4.147557 48.346882
-0.001266 -3.147844 48.972681
0.308477 -6.20393 48.430084
0.408031 -4.147557 48.346882
0.308477 -6.20393 48.430084
-0.248067 -7.169526 49.051615
-0.759718 -8.168231 49.695149
-1.316095 -9.115195 50.286591
1.250125 -18.195895 78.822823
1.279901 -18.191676 77.630752
1.192324 -16.517259 78.449333
-0.322068 -9.937535 83.129399
-0.429607 -8.194637 82.736656
-0.772633 -8.30252 83.588451
1.251383 -18.199712 80.023647
1.044439 -16.539352 80.750644
1.133274 -18.217588 81.132889
1.250125 -18.195895 78.822823
1.251383 -18.199712 80.023647
-1.784704 9.693694 80.586582
-2.380828 9.411022 81.178757
-1.389593 7.973689 80.422745
-1.285627 9.901859 79.851963
-1.784704 9.693694 80.586582
-1.952164 5.867044 81.644261
-2.485933 7.479476 81.721512
-1.450322 6.074034 80.929028
-1.952164 5.867044 81.644261
-1.513816 4.175554 81.415924
-0.248045 -0.907681 80.288891
-0.658447 0.788755 80.731915
-0.649571 -1.04587 81.143249
-1.245939 44.052885 40.407497
-1.289058 45.285967 38.697197
-1.234385 42.818254 42.042347
-1.309057 42.103893 40.883499
-1.245939 44.052885 40.407497
-1.17796 41.546032 43.716326
-1.234385 42.818254 42.042347
-1.146456 40.282106 45.317079
-1.265999 39.605337 44.119102
-1.17796 41.546032 43.716326
-0.994061 40.922104 46.552883
-0.805871 41.585943 47.819124
-1.082101 38.981409 46.955659
-1.146456 40.282106 45.317079
-0.994061 40.922104 46.552883
-0.965909 36.372139 50.127943
-1.034999 37.696125 48.523718
-0.860617 38.297421 49.795688
-1.080105 34.465952 50.391697
-0.965909 36.372139 50.127943
-0.21066 43.42117 51.755415
-0.045988 43.997982 53.082385
-0.339444 41.443621 52.110802
-0.403155 42.840067 50.427084
-0.21066 43.42117 51.755415
-0.097043 40.594492 55.078615
-0.013429 42.538656 54.763508
0.036476 41.108425 56.402991
-0.59208 37.546287 52.720965
-0.661733 38.917976 51.091193
-0.462286 39.49083 52.412243
-0.718798 35.624803 52.968794
-0.59208 37.546287 52.720965
-0.519351 36.197657 54.289845
-0.832994 33.718616 53.232548
-0.718798 35.624803 52.968794
-0.760512 32.389238 54.732983
-0.947437 31.831682 53.427857
-0.832994 33.718616 53.232548
-3.21571 -20.576895 60.281168
-3.064874 -18.852083 60.149462
-2.738536 -19.314467 61.19648
-3.730128 -21.844248 59.358785
-3.21571 -20.576895 60.281168
-2.370879 -19.696152 62.267317
-1.976147 -20.065342 63.392521
0.949261 -14.727033 73.185875
1.090433 -14.768549 74.438214
0.968697 -16.446711 73.528172
0.831886 -14.673538 71.963951
0.953622 -12.995376 72.873993
0.949261 -14.727033 73.185875
0.608414 -14.584988 70.724533
0.831886 -14.673538 71.963951
-1.47605 -17.395924 87.222863
-1.600066 -15.72495 86.908394
-0.836134 -18.850454 87.085613
-1.47605 -17.395924 87.222863
-1.359472 -19.066885 87.523434
-0.290871 -20.373663 86.780117
-0.407448 -18.702703 86.479546
-0.836134 -18.850454 87.085613
-0.641844 -22.171354 87.623596
-1.266827 -20.713787 87.777809
-0.192205 -22.04217 87.070694
-0.641844 -22.171354 87.623596
-0.290871 -20.373663 86.780117
-0.192205 -22.04217 87.070694
-0.465509 42.898859 63.559835
-0.634867 41.149512 65.01783
-0.169494 42.780155 62.52743
-0.465509 42.898859 63.559835
-0.088668 40.920018 62.944445
0.013264 42.583691 61.40881
-0.169494 42.780155 62.52743
-1.588402 35.716207 70.008728
-1.99078 37.351219 69.395218
-1.095884 35.849384 69.221741
-1.588402 35.716207 70.008728
-1.304264 33.991125 70.506698
-1.826283 17.204224 78.52256
-2.000193 15.238173 79.283733
-1.826283 17.204224 78.52256
-1.282755 17.443554 77.83823
-1.005706 21.293326 76.068318
-1.36382 23.011192 75.861096
-0.614734 21.427713 75.199501
-1.005706 21.293326 76.068318
-0.752329 19.515194 76.155682
0.834969 34.253553 33.940791
0.583033 36.150411 33.232822
0.834969 34.253553 33.940791
0.56696 33.225073 35.327309
0.570928 30.248726 37.315117
0.35094 32.128565 36.754093
0.116818 31.041708 38.106713
0.570928 30.248726 37.315117
0.820653 28.337028 37.922857
-1.239832 30.710186 50.905966
-1.153643 32.579954 50.685671
-1.322125 30.145462 49.701549
-1.239832 30.710186 50.905966
-1.27459 28.8568 51.163595
-0.079133 17.726364 46.15584
0.11447 18.905577 44.990351
-0.255637 19.635313 45.79974
0.051791 15.829243 46.430279
-0.079133 17.726364 46.15584
-0.318317 16.558979 47.239668
0.206269 13.881186 46.753601
0.051791 15.829243 46.430279
-0.082947 12.729938 47.754586
0.206269 13.881186 46.753601
-0.313476 11.544659 48.792637
-0.082947 12.729938 47.754586
-0.417923 13.476579 48.552159
-0.601326 10.380039 49.743997
-0.313476 11.544659 48.792637
-0.813505 9.181583 50.733232
-0.601326 10.380039 49.743997
-0.860632 11.092844 50.579445
-1.08504 8.011699 51.633959
-0.813505 9.181583 50.733232
-1.265691 6.803517 52.569107
-1.08504 8.011699 51.633959
-1.253462 8.686206 52.503828
-1.50205 5.637028 53.417104
-1.265691 6.803517 52.569107
-1.63807 4.423435 54.289057
-1.50205 5.637028 53.417104
-1.570132 6.264431 54.310928
-1.82094 3.273032 55.079225
-1.752858 2.645629 54.185402
-1.63807 4.423435 54.289057
-3.368133 -13.636591 53.434406
-3.637529 -14.44279 54.119621
-3.612589 -15.442548 53.369991
-3.098765 -12.784977 52.762413
-3.123706 -11.785219 53.512043
-3.368133 -13.636591 53.434406
-2.689896 -11.917095 52.138803
-3.098765 -12.784977 52.762413
-3.31931 -18.566423 51.296404
-3.459364 -17.511916 51.950702
-3.736476 -19.390034 51.924193
-3.31931 -18.566423 51.296404
-3.051158 -19.620571 50.6971
-3.333935 -24.443114 50.21312
-3.608244 -23.369234 50.734573
-2.690792 -23.667435 49.665409
-3.333935 -24.443114 50.21312
-2.421154 -21.771873 49.613136
-2.690792 -23.667435 49.665409
3 0 67 65
3 1 70 68
3 1 73 71
3 1 68 73
3 3 263 264
3 3 265 267
3 265 75 266
3 265 266 267
3 3 77 75
3 2 80 78
3 2 82 80
3 4 85 83
3 4 268 270
3 270 269 85
3 268 269 270
3 271 88 272
3 273 272 86
3 271 272 273
3 275 274 89
3 276 91 277
3 278 86 279
3 280 279 91
3 278 279 280
3 6 95 93
3 6 97 95
3 7 100 98
3 282 281 101
3 284 283 103
3 285 105 286
3 9 108 106
3 9 110 108
3 5 287 289
3 287 112 288
3 287 288 289
3 10 115 113
3 10 117 115
3 10 119 117
3 7 122 120
3 7 98 122
3 12 126 124
3 12 127 126
3 290 130 291
3 292 291 128
3 290 291 292
3 13 133 131
3 13 135 133
3 13 137 135
3 11 140 138
3 11 142 140
3 8 145 143
3 293 148 294
3 295 294 146
3 293 294 295
3 297 296 148
3 14 152 150
3 16 153 66
3 16 154 153
3 298 156 299
3 300 157 301
3 302 301 156
3 300 301 302
3 303 158 304
3 18 161 159
3 20 162 69
3 20 305 307
3 307 306 162
3 305 306 307
3 308 163 309
3 22 166 164
3 24 167 72
3 24 168 167
3 24 170 168
3 18 171 74
3 18 159 171
3 26 310 311
3 26 312 313
3 26 314 316
3 314 173 315
3 314 315 316
3 28 174 76
3 28 175 174
3 29 177 176
3 31 317 319
3 319 318 79
3 317 318 319
3 31 320 322
3 320 178 321
3 320 321 322
3 31 180 178
3 33 181 81
3 33 182 181
3 324 323 183
3 15 185 151
3 35 186 84
3 35 187 186
3 35 325 327
3 327 326 187
3 325 326 327
3 36 190 188
3 38 191 87
3 38 192 191
3 17 193 155
3 328 194 329
3 330 329 90
3 328 329 330
3 332 331 194
3 333 195 334
3 335 196 336
3 337 197 338
3 339 338 196
3 337 338 339
3 36 198 92
3 36 188 198
3 40 340 342
3 340 200 341
3 340 341 342
3 40 343 345
3 345 344 200
3 343 344 345
3 346 201 347
3 41 202 94
3 41 203 202
3 41 204 203
3 42 205 96
3 42 206 205
3 43 209 207
3 45 210 99
3 45 211 210
3 19 212 160
3 46 213 102
3 46 214 213
3 46 348 350
3 350 349 214
3 348 349 350
3 37 215 189
3 352 351 104
3 353 216 354
3 47 355 357
3 355 217 356
3 355 356 357
3 47 218 217
3 21 358 360
3 358 219 359
3 358 359 360
3 48 220 107
3 48 221 220
3 48 222 221
3 49 223 109
3 49 224 223
3 50 361 363
3 363 362 111
3 361 362 363
3 50 364 366
3 364 225 365
3 364 365 366
3 23 226 165
3 51 227 114
3 51 228 227
3 51 229 228
3 52 230 116
3 52 231 230
3 52 232 231
3 53 233 118
3 53 234 233
3 25 235 169
3 54 236 121
3 54 237 236
3 54 238 237
3 43 239 123
3 43 207 239
3 27 367 369
3 369 368 172
3 367 368 369
3 371 370 125
3 56 372 373
3 56 374 375
3 39 241 199
3 57 242 129
3 57 243 242
3 30 376 378
3 376 244 377
3 376 377 378
3 58 245 132
3 58 246 245
3 58 247 246
3 59 248 134
3 59 249 248
3 59 250 249
3 60 251 136
3 60 252 251
3 32 253 179
3 61 254 139
3 61 255 254
3 61 256 255
3 55 257 141
3 55 240 257
3 44 258 208
3 62 259 144
3 62 260 259
3 34 261 184
3 63 262 147
3 63 379 381
3 381 380 262
3 379 380 381
3 63 382 383
3 64 384 386
3 386 385 149
3 384 385 386
3 64 387 388
3 65 66 14
3 67 66 65
3 67 16 66
3 68 69 18
3 70 69 68
3 70 20 69
3 71 72 22
3 73 72 71
3 73 24 72
3 73 74 24
3 68 74 73
3 68 18 74
3 75 389 390
3 75 391 393
3 391 26 392
3 391 392 393
3 75 76 26
3 77 76 75
3 77 28 76
3 78 79 29
3 80 79 78
3 80 31 79
3 80 81 31
3 82 81 80
3 82 33 81
3 83 84 15
3 85 84 83
3 85 35 84
3 85 394 396
3 396 395 35
3 394 395 396
3 398 397 85
3 86 87 36
3 88 87 86
3 88 38 87
3 89 90 17
3 399 90 400
3 401 400 89
3 399 400 401
3 403 402 90
3 91 404 405
3 91 406 407
3 91 408 410
3 408 92 409
3 408 409 410
3 86 92 91
3 86 36 92
3 411 40 412
3 93 413 415
3 413 94 414
3 413 414 415
3 95 94 93
3 95 41 94
3 95 96 41
3 97 96 95
3 97 42 96
3 98 99 43
3 100 99 98
3 100 45 99
3 101 102 19
3 416 102 417
3 418 417 101
3 416 417 418
3 419 46 420
3 421 420 102
3 419 420 421
3 423 422 46
3 103 104 37
3 424 104 425
3 426 425 103
3 424 425 426
3 428 427 104
3 105 429 430
3 105 431 433
3 431 47 432
3 431 432 433
3 106 107 21
3 108 107 106
3 108 48 107
3 108 109 48
3 110 109 108
3 110 49 109
3 434 111 435
3 112 436 438
3 436 111 437
3 436 437 438
3 112 50 111
3 113 114 23
3 115 114 113
3 115 51 114
3 115 116 51
3 117 116 115
3 117 52 116
3 117 118 52
3 119 118 117
3 119 53 118
3 120 121 25
3 122 121 120
3 122 54 121
3 122 123 54
3 98 123 122
3 98 43 123
3 124 125 27
3 126 125 124
3 126 439 441
3 441 440 125
3 439 440 441
3 126 442 443
3 127 444 446
3 446 445 126
3 444 445 446
3 127 447 449
3 447 56 448
3 447 448 449
3 128 129 39
3 130 129 128
3 130 57 129
3 131 132 30
3 133 132 131
3 133 58 132
3 133 134 58
3 135 134 133
3 135 59 134
3 135 136 59
3 137 136 135
3 137 60 136
3 138 139 32
3 140 139 138
3 140 61 139
3 140 141 61
3 142 141 140
3 142 55 141
3 143 144 44
3 145 144 143
3 145 62 144
3 146 147 34
3 148 147 146
3 148 63 147
3 148 149 63
3 450 149 451
3 452 451 148
3 450 451 452
3 453 64 454
3 455 454 149
3 453 454 455
3 150 456 458
3 456 151 457
3 456 457 458
3 152 151 150
3 152 15 151
3 66 152 14
3 153 152 66
3 153 15 152
3 153 83 15
3 154 83 153
3 154 4 83
3 459 155 460
3 461 155 462
3 463 17 464
3 465 464 155
3 463 464 465
3 156 466 467
3 156 468 470
3 468 17 469
3 468 469 470
3 156 89 17
3 157 89 156
3 157 471 473
3 473 472 89
3 471 472 473
3 474 93 475
3 158 476 478
3 476 93 477
3 476 477 478
3 158 6 93
3 159 160 7
3 161 160 159
3 161 19 160
3 69 161 18
3 162 161 69
3 162 19 161
3 162 101 19
3 479 101 480
3 481 480 162
3 479 480 481
3 483 482 101
3 484 21 485
3 486 21 487
3 488 106 489
3 490 489 21
3 488 489 490
3 163 491 493
3 491 106 492
3 491 492 493
3 163 9 106
3 164 165 5
3 166 165 164
3 166 23 165
3 72 166 22
3 167 166 72
3 167 23 166
3 167 113 23
3 168 113 167
3 168 10 113
3 168 169 10
3 170 169 168
3 170 25 169
3 74 170 24
3 171 170 74
3 171 25 170
3 171 120 25
3 159 120 171
3 159 7 120
3 494 172 495
3 173 496 498
3 496 172 497
3 496 497 498
3 173 27 172
3 76 173 26
3 174 173 76
3 174 27 173
3 174 124 27
3 175 124 174
3 175 12 124
3 176 499 500
3 177 501 503
3 503 502 176
3 501 502 503
3 177 504 506
3 504 30 505
3 504 505 506
3 79 177 29
3 507 177 508
3 509 508 79
3 507 508 509
3 510 30 511
3 512 511 177
3 510 511 512
3 513 131 514
3 515 514 30
3 513 514 515
3 178 516 518
3 516 131 517
3 516 517 518
3 178 13 131
3 178 179 13
3 180 179 178
3 180 32 179
3 81 180 31
3 181 180 81
3 181 32 180
3 181 138 32
3 182 138 181
3 182 11 138
3 183 184 8
3 519 184 520
3 521 520 183
3 519 520 521
3 522 34 523
3 524 523 184
3 522 523 524
3 525 34 526
3 527 146 528
3 529 528 34
3 527 528 529
3 530 146 531
3 533 532 146
3 151 534 535
3 185 536 538
3 538 537 151
3 536 537 538
3 185 539 540
3 84 185 15
3 186 185 84
3 186 541 543
3 543 542 185
3 541 542 543
3 186 544 545
3 187 546 548
3 548 547 186
3 546 547 548
3 187 549 550
3 187 551 552
3 554 553 187
3 556 555 35
3 188 189 1
3 190 189 188
3 190 37 189
3 87 190 36
3 191 190 87
3 191 37 190
3 191 103 37
3 192 103 191
3 192 557 559
3 559 558 103
3 557 558 559
3 155 560 562
3 560 88 561
3 560 561 562
3 193 88 155
3 193 38 88
3 90 193 17
3 194 193 90
3 194 38 193
3 194 192 38
3 563 192 564
3 565 564 194
3 563 564 565
3 567 566 192
3 195 568 569
3 195 570 572
3 570 5 571
3 570 571 572
3 573 195 574
3 196 575 577
3 575 195 576
3 575 576 577
3 196 5 195
3 196 164 5
3 197 164 196
3 197 22 164
3 92 578 580
3 578 197 579
3 578 579 580
3 198 197 92
3 198 22 197
3 198 71 22
3 188 71 198
3 188 1 71
3 581 3 582
3 583 199 584
3 585 584 3
3 583 584 585
3 586 199 587
3 588 39 589
3 590 589 199
3 588 589 590
3 200 591 592
3 200 593 595
3 593 39 594
3 593 594 595
3 200 128 39
3 596 128 597
3 598 597 200
3 596 597 598
3 600 599 128
3 201 601 602
3 201 603 605
3 603 40 604
3 603 604 605
3 94 606 608
3 606 201 607
3 606 607 608
3 202 201 94
3 202 40 201
3 202 609 611
3 611 610 40
3 609 610 611
3 203 612 614
3 614 613 202
3 612 613 614
3 203 615 616
3 203 617 619
3 617 176 618
3 617 618 619
3 204 176 203
3 204 29 176
3 96 204 41
3 205 204 96
3 205 29 204
3 205 78 29
3 206 78 205
3 206 2 78
3 207 208 0
3 209 208 207
3 209 44 208
3 99 209 43
3 210 209 99
3 210 44 209
3 210 143 44
3 211 143 210
3 211 8 143
3 160 100 7
3 212 100 160
3 212 45 100
3 102 212 19
3 213 212 102
3 213 45 212
3 213 211 45
3 214 211 213
3 214 8 211
3 214 183 8
3 620 183 621
3 622 621 214
3 620 621 622
3 624 623 183
3 626 625 46
3 189 70 1
3 215 70 189
3 215 20 70
3 104 215 37
3 627 215 628
3 629 628 104
3 627 628 629
3 630 20 631
3 632 631 215
3 630 631 632
3 634 633 20
3 635 157 636
3 216 637 639
3 637 157 638
3 637 638 639
3 216 640 642
3 642 641 157
3 640 641 642
3 643 216 644
3 645 216 646
3 648 647 216
3 217 649 650
3 217 651 652
3 217 653 655
3 653 158 654
3 653 654 655
3 218 158 217
3 218 6 158
3 656 105 657
3 219 658 660
3 658 105 659
3 658 659 660
3 219 47 105
3 107 219 21
3 220 219 107
3 220 47 219
3 220 218 47
3 221 218 220
3 221 6 218
3 221 97 6
3 222 97 221
3 222 42 97
3 109 222 48
3 223 222 109
3 223 42 222
3 223 206 42
3 224 206 223
3 224 2 206
3 111 661 662
3 664 663 111
3 665 163 666
3 225 667 669
3 667 163 668
3 667 668 669
3 225 9 163
3 165 112 5
3 226 112 165
3 226 50 112
3 114 226 23
3 227 226 114
3 227 50 226
3 227 225 50
3 228 225 227
3 228 9 225
3 228 110 9
3 229 110 228
3 229 49 110
3 116 229 51
3 230 229 116
3 230 49 229
3 230 224 49
3 231 224 230
3 231 2 224
3 231 82 2
3 232 82 231
3 232 33 82
3 118 232 52
3 233 232 118
3 233 33 232
3 233 182 33
3 234 182 233
3 234 11 182
3 169 119 10
3 235 119 169
3 235 53 119
3 121 235 25
3 236 235 121
3 236 53 235
3 236 234 53
3 237 234 236
3 237 11 234
3 237 142 11
3 238 142 237
3 238 55 142
3 123 238 54
3 239 238 123
3 239 55 238
3 239 240 55
3 207 240 239
3 207 0 240
3 172 670 671
3 673 672 172
3 125 674 676
3 676 675 27
3 674 675 676
3 678 677 125
3 199 77 3
3 241 77 199
3 241 28 77
3 129 241 39
3 242 241 129
3 242 28 241
3 242 175 28
3 243 175 242
3 243 12 175
3 679 130 680
3 244 681 683
3 681 130 682
3 681 682 683
3 244 57 130
3 132 244 30
3 245 244 132
3 245 57 244
3 245 243 57
3 246 243 245
3 246 12 243
3 246 127 12
3 247 127 246
3 247 56 127
3 134 247 58
3 248 247 134
3 248 56 247
3 248 684 686
3 686 685 56
3 684 685 686
3 249 687 689
3 689 688 248
3 687 688 689
3 249 690 691
3 249 692 693
3 250 694 696
3 696 695 249
3 694 695 696
3 250 697 698
3 136 250 59
3 251 250 136
3 251 699 701
3 701 700 250
3 699 700 701
3 251 702 703
3 252 704 706
3 706 705 251
3 704 705 706
3 252 707 708
3 179 137 13
3 253 137 179
3 253 60 137
3 139 253 32
3 254 253 139
3 254 60 253
3 254 252 60
3 255 252 254
3 255 709 711
3 711 710 252
3 709 710 711
3 255 712 714
3 712 150 713
3 712 713 714
3 256 150 255
3 256 14 150
3 141 256 61
3 257 256 141
3 257 14 256
3 257 65 14
3 240 65 257
3 240 0 65
3 208 67 0
3 258 67 208
3 258 16 67
3 144 258 44
3 259 258 144
3 259 16 258
3 259 154 16
3 260 154 259
3 260 4 154
3 184 145 8
3 261 145 184
3 261 62 145
3 147 261 34
3 262 261 147
3 262 62 261
3 262 260 62
3 715 260 716
3 717 716 262
3 715 716 717
3 718 4 719
3 720 719 260
3 718 719 720
3 722 721 4
3 149 723 725
3 725 724 63
3 723 724 725
3 727 726 149
3 728 64 729
3 730 64 731
3 733 732 64
