ply
format ascii 1.0
element vertex 685
property float x
property float y
property float z
element face 749
property list uchar int vertex_index
end_header
36.002796 -6.775681 -52.556732
36.840179 -37.967403 -36.152702
27.14016 -77.567055 -21.449865
44.38781 -57.398571 -32.334053
27.700565 -64.132378 -20.990908
33.342098 -57.469273 -28.121805
32.292004 -45.537918 -29.001463
50.118759 -63.651058 -29.787161
44.564934 -14.396937 -48.972588
37.36837 -20.935324 -44.3283
43.312828 -29.997295 -40.771652
34.929256 -68.476196 -27.944872
39.666199 -48.538616 -34.285576
48.7052 -39.047516 -38.343628
54.585487 -45.974083 -36.250626
30.693691 -54.717499 -24.705126
33.619537 -17.600502 -45.568596
36.755039 -13.520237 -48.5755
40.759132 -17.216223 -46.7789
40.42691 -10.098624 -51.203629
30.950947 -73.458336 -24.76779
35.422951 -47.476471 -32.122055
36.090755 -53.124187 -31.596472
38.171501 -43.281456 -35.191383
41.74807 -39.01683 -37.447548
39.751465 -33.919445 -38.76886
53.87896 -75.118759 -24.076361
47.207874 -60.8134 -31.111921
52.398636 -54.849731 -32.79483
49.550819 -51.719894 -34.112946
51.682568 -42.733944 -37.423576
46.699562 -48.091721 -35.265701
27.392748 -71.091522 -20.966108
30.618229 -67.645546 -24.431555
30.83375 -61.258953 -24.357016
33.187012 -51.395905 -28.414156
34.517639 -41.922909 -32.765938
51.057739 -74.027893 -25.951754
53.119797 -65.945312 -28.416647
47.975426 -72.281815 -27.335794
44.937458 -69.905457 -28.538153
42.054821 -66.848885 -29.611162
35.402573 -0.51532 -55.617912
39.450535 2.369883 -57.568108
39.901051 -3.671761 -55.095421
48.019768 -19.424166 -46.47538
34.899994 -33.099018 -37.138611
34.492344 -25.005413 -41.423019
37.482269 -29.093727 -40.182076
40.611763 -25.176603 -42.562027
44.215782 -21.740879 -44.59124
47.157059 -26.514105 -42.666977
37.058025 -72.817551 -27.719492
39.43026 -63.027561 -30.462366
33.698029 -63.287167 -28.020597
37.351143 -58.412441 -31.086695
41.776245 -53.311596 -33.372643
44.024609 -43.848785 -36.314491
45.897682 -34.784538 -39.347313
55.251045 -57.542637 -31.373102
34.260761 -8.695303 -51.044472
34.674992 -12.032234 -49.142342
36.375446 -10.073765 -50.636436
38.532909 -11.693174 -49.936104
38.214085 -8.314295 -52.022812
29.384239 -78.412949 -23.384619
29.062609 -75.64801 -23.086309
36.221741 -42.649406 -34.141525
36.698647 -45.397091 -33.763054
37.535088 -40.599464 -35.664398
39.040775 -38.532791 -36.971954
38.207157 -35.941933 -37.56134
45.784584 -59.184071 -31.743505
48.382458 -56.258785 -32.566597
46.961548 -54.562851 -33.194534
48.119087 -49.976185 -34.710739
45.559113 -52.719925 -33.780174
25.492893 -72.371979 -19.448664
27.593935 -67.646004 -20.905737
29.251467 -66.208755 -22.556231
29.388952 -62.828465 -22.589434
31.660027 -50.072418 -26.80261
32.023434 -53.152592 -26.515482
32.874283 -48.408524 -28.670969
33.975967 -46.589958 -30.574305
33.433311 -43.790916 -30.892466
48.532307 -77.319229 -25.676893
49.525433 -73.233566 -26.681086
46.967228 -76.510818 -26.331205
43.855957 -74.401657 -27.441977
42.355591 -73.08313 -27.930246
43.473572 -68.467598 -29.096464
40.908867 -71.572426 -28.36899
33.435242 0.66847 -55.329048
35.228409 2.495169 -56.597542
39.648804 -0.621851 -56.554192
42.231697 -5.630115 -54.341637
33.763741 -35.054939 -35.378326
35.522133 -19.146769 -45.045441
35.861507 -22.953178 -42.946289
36.077858 -26.937275 -40.84613
37.508732 -24.921711 -42.234833
38.977421 -27.104599 -41.441559
39.07328 -22.954849 -43.478905
42.617706 -15.655169 -47.906044
42.562679 -19.397587 -45.693481
46.39666 -16.856518 -47.716003
33.648602 -73.4841 -26.482775
34.643108 -75.684906 -26.510931
35.899231 -70.759888 -27.860807
38.251755 -67.930634 -29.056681
37.110806 -65.788445 -29.301378
32.065968 -62.559975 -26.213247
32.12326 -65.555466 -26.253904
33.437653 -60.436588 -28.057169
37.763836 -50.848595 -33.048187
36.615997 -55.837246 -31.347311
38.523735 -53.438641 -32.691483
39.477329 -55.879765 -32.317032
40.641079 -51.004284 -33.83699
42.92654 -48.541946 -34.84108
41.770775 -46.204727 -35.348228
42.610931 -34.42963 -39.067772
43.783775 -36.892036 -38.397232
44.591019 -32.435593 -39.99942
46.605057 -30.512575 -40.959686
45.237663 -28.174717 -41.706978
51.61116 -64.86882 -29.112837
54.18042 -61.784637 -29.837252
52.706577 -60.589218 -30.539446
53.52729 -50.415127 -34.474678
56.909691 -43.028267 -37.39917
55.50811 -41.540237 -38.106697
50.188629 -40.955147 -37.89949
52.52169 -38.320175 -39.163589
29.375378 -59.423134 -22.755087
29.13224 -56.057243 -23.050417
30.26062 -51.545738 -25.04524
31.022661 -47.128696 -27.170237
35.109928 -15.510485 -47.123711
37.101448 -17.136417 -46.453133
39.004814 -19.001532 -45.594521
38.810307 -15.249569 -47.765343
40.634586 -13.556295 -49.001656
42.561958 -12.130429 -50.161995
31.489187 -76.053329 -24.966673
32.886036 -71.049583 -26.414026
34.460125 -52.426991 -30.10581
34.63562 -55.342915 -29.937551
35.725136 -50.318932 -31.849932
37.177654 -48.150421 -33.401535
38.855457 -45.947998 -34.733536
40.753403 -43.726822 -35.865265
39.860989 -41.150166 -36.405113
40.742432 -36.469624 -38.086128
41.46492 -31.926727 -39.816208
52.738861 -78.771744 -22.832769
48.651596 -62.299572 -30.454821
51.25053 -59.26585 -31.227175
49.811356 -57.822975 -31.905989
50.977982 -53.340069 -33.471275
52.110901 -48.86277 -35.134361
53.154572 -44.401993 -36.879417
50.669891 -47.207653 -35.736145
49.21347 -45.434883 -36.281288
47.76585 -43.526314 -36.786285
33.90065 -5.479382 -52.759697
25.267002 -75.850975 -19.616083
27.206553 -74.414505 -21.155962
28.980854 -72.667038 -22.828852
29.076231 -69.505676 -22.643156
30.709356 -64.50029 -24.349451
32.114048 -59.457657 -26.230291
30.865046 -57.977531 -24.472712
32.142685 -56.302151 -26.325872
33.302505 -54.436581 -28.2348
34.283783 -49.48922 -30.313501
35.060127 -44.657223 -32.425148
35.628017 -39.970566 -34.541626
51.469467 -78.453491 -23.972715
52.526119 -74.65889 -25.099981
53.575356 -70.802238 -26.329054
54.61972 -66.865929 -27.662722
52.078766 -70.024139 -27.120123
50.549576 -69.08432 -27.825102
49.024494 -67.993088 -28.487562
45.398689 -75.540604 -26.911173
46.440361 -71.173874 -27.950029
47.524166 -66.755234 -29.132597
46.055008 -65.368805 -29.764532
44.617111 -63.825871 -30.372225
43.214905 -62.114868 -30.938879
33.618916 -2.363556 -54.211876
35.669483 -3.598784 -54.246536
37.355225 1.072222 -56.760178
37.593719 -1.96629 -55.533012
37.890327 -5.083832 -53.923431
42.423847 -8.800755 -52.351021
34.82095 -37.421051 -34.959824
35.983334 -35.448658 -36.649734
34.77853 -28.961483 -39.294289
36.128376 -31.102573 -38.749062
37.262497 -33.445198 -38.160767
38.691383 -31.438667 -39.477074
40.278042 -29.460024 -40.619797
42.007309 -27.548801 -41.640709
40.76329 -21.090508 -44.617455
42.36792 -23.364998 -43.595993
43.844166 -25.757675 -42.603394
45.735489 -24.155594 -43.555168
47.609161 -22.835096 -44.495384
48.946014 -25.089565 -43.635941
35.829182 -77.645218 -26.479486
38.360229 -74.64679 -27.509516
39.531586 -69.857758 -28.746767
40.696754 -65.038124 -30.068468
41.866219 -60.224072 -31.451891
30.672749 -70.645294 -24.579851
32.37994 -68.397751 -26.329115
34.189041 -65.977982 -27.990667
34.930172 -58.18082 -29.791616
35.425869 -60.891788 -29.649839
36.156124 -63.43684 -29.493048
38.299557 -60.816109 -30.797422
40.60535 -58.145607 -31.908667
43.039391 -55.443768 -32.875908
44.20155 -50.715485 -34.324814
45.3228 -46.051315 -35.792137
46.360641 -41.466644 -37.282364
42.831978 -41.493797 -36.85955
45.028755 -39.250694 -37.808044
47.267494 -36.993561 -38.808044
48.002747 -32.695152 -40.381096
48.549812 -28.677727 -41.998917
55.659637 -62.834621 -29.095095
56.690308 -58.700676 -30.616758
53.82032 -56.252987 -32.094574
54.040962 -39.972778 -38.691277
26.117867 -79.931904 -20.886797
26.122359 -78.37035 -20.684103
27.20759 -79.038235 -21.63278
26.117867 -79.931904 -20.886797
28.101385 -76.607532 -22.268087
28.168814 -78.078712 -22.451002
27.20759 -79.038235 -21.63278
26.69115 -66.459557 -20.214102
26.721778 -64.64188 -20.290101
27.64725 -65.889191 -20.948322
26.637834 -68.21637 -20.171516
26.69115 -66.459557 -20.214102
47.259146 -78.997978 -25.569994
48.044566 -79.332375 -25.237201
46.476607 -78.593773 -25.89715
47.749768 -76.915024 -26.004049
47.259146 -78.997978 -25.569994
41.061691 -74.667786 -27.579655
41.804828 -75.363914 -27.406914
40.33833 -73.912433 -27.799027
41.632229 -72.327778 -28.149618
41.061691 -74.667786 -27.579655
35.202481 3.965876 -56.867108
34.299265 3.058287 -56.325493
44.507065 -16.177088 -47.851914
43.533451 -16.806204 -47.318641
43.59132 -15.026053 -48.439316
45.480797 -15.626728 -48.344296
45.422928 -17.406879 -47.223621
44.507065 -16.177088 -47.851914
55.279111 -46.716106 -35.894314
54.750013 -48.936628 -35.00634
54.056388 -48.194605 -35.362652
55.747589 -44.501175 -36.824898
56.441214 -45.243198 -36.468586
55.279111 -46.716106 -35.894314
49.843593 -37.809161 -38.951363
50.585308 -38.762976 -38.729293
49.446914 -40.001331 -38.121559
49.084519 -36.876623 -39.141125
49.843593 -37.809161 -38.951363
28.228229 -56.604227 -22.318655
28.378166 -58.334289 -22.137171
29.922362 -50.040184 -25.252092
29.45246 -52.174112 -24.247684
30.303382 -47.831663 -26.314591
30.641641 -49.337217 -26.107738
29.922362 -50.040184 -25.252092
54.475014 -75.26075 -23.459955
53.904964 -77.087242 -22.838159
53.30891 -76.945251 -23.454565
32.968826 -4.953474 -52.68264
33.110063 -6.517178 -51.940357
50.258541 -80.153343 -23.970741
50.936922 -80.325913 -23.452455
51.791929 -74.343391 -25.525868
51.288294 -76.313301 -25.003393
50.554103 -75.997803 -25.429279
44.09942 -77.188774 -26.694986
44.892735 -77.692017 -26.461393
39.398455 3.846012 -57.829941
40.557085 2.868717 -57.772248
38.329394 3.211735 -57.554237
39.398455 3.846012 -57.829941
38.40288 1.721053 -57.164143
37.281739 2.562905 -57.150272
38.329394 3.211735 -57.554237
40.036225 -5.244125 -54.185212
39.030862 -5.950161 -53.599216
38.895689 -4.377797 -54.509426
43.466657 -8.323329 -52.836399
42.327772 -7.215435 -53.346329
43.370582 -6.738009 -53.831707
43.501631 -9.918965 -51.782845
43.466657 -8.323329 -52.836399
32.964222 -18.669886 -44.732628
32.710802 -16.949292 -45.706574
33.653351 -24.162405 -41.641475
34.290289 -23.113899 -42.470993
33.877392 -26.030508 -40.587833
33.653351 -24.162405 -41.641475
34.635437 -26.983448 -40.358654
34.020485 -28.008543 -39.523468
33.877392 -26.030508 -40.587833
47.814464 -21.129631 -45.485382
46.861908 -21.613388 -45.029572
47.067211 -19.907923 -46.01957
48.699749 -20.684189 -45.909061
48.494445 -22.389654 -44.919064
47.814464 -21.129631 -45.485382
56.475166 -56.004526 -31.796277
57.194797 -56.583545 -31.418105
55.970676 -58.121657 -30.99493
53.608522 -36.96061 -39.858383
52.819278 -36.163544 -40.05212
34.467877 -10.363768 -50.093407
33.684773 -11.407404 -49.278458
33.477657 -9.738938 -50.229523
28.329629 -79.461182 -22.600157
28.522216 -80.812363 -22.801005
29.223424 -77.030479 -23.235464
28.329629 -79.461182 -22.600157
28.168814 -78.078712 -22.451002
55.078709 -73.473034 -24.180296
54.435236 -73.262528 -24.737955
25.587314 -70.579358 -19.44298
24.422787 -72.85186 -18.774708
26.543414 -70.008992 -20.1772
25.587314 -70.579358 -19.44298
26.637834 -68.21637 -20.171516
49.291387 -77.643471 -25.291849
48.044566 -79.332375 -25.237201
49.795023 -75.673561 -25.814324
50.554103 -75.997803 -25.429279
49.291387 -77.643471 -25.291849
42.555011 -76.023178 -27.162779
43.328054 -76.619301 -26.960389
42.027109 -78.240822 -26.68119
43.105774 -73.742393 -27.686112
42.555011 -76.023178 -27.162779
41.804828 -75.363914 -27.406914
33.402681 2.144938 -55.691246
32.619197 1.116732 -54.994564
34.331826 1.58182 -55.963295
33.402681 2.144938 -55.691246
34.299265 3.058287 -56.325493
40.631756 1.392169 -57.402794
40.557085 2.868717 -57.772248
40.730891 -0.103698 -56.895836
39.54967 0.874016 -57.06115
40.631756 1.392169 -57.402794
40.832497 -1.597677 -56.279575
40.730891 -0.103698 -56.895836
40.958621 -3.122632 -55.55019
39.774928 -2.146806 -55.824807
40.832497 -1.597677 -56.279575
42.123943 -4.101809 -55.173298
41.066374 -4.650938 -54.718529
40.958621 -3.122632 -55.55019
43.304638 -5.206075 -54.745823
42.123943 -4.101809 -55.173298
43.370582 -6.738009 -53.831707
43.304638 -5.206075 -54.745823
33.134367 -33.986335 -35.569431
33.218653 -35.998737 -34.44883
33.680014 -33.009299 -36.483188
33.134367 -33.986335 -35.569431
34.24814 -32.031339 -37.363331
34.331868 -34.076978 -36.258468
33.680014 -33.009299 -36.483188
34.805183 -20.184577 -44.282204
33.853886 -19.411443 -44.543782
34.570835 -18.373635 -45.307018
34.974871 -22.087781 -43.232628
34.805183 -20.184577 -44.282204
35.69182 -21.049974 -43.995865
35.176926 -23.979295 -42.184654
34.290289 -23.113899 -42.470993
34.974871 -22.087781 -43.232628
43.505938 -18.677413 -46.21236
42.590193 -17.526378 -46.799762
43.533451 -16.806204 -47.318641
44.332489 -19.849059 -45.66124
43.38923 -20.569233 -45.14236
43.505938 -18.677413 -46.21236
45.165218 -21.06628 -45.0775
44.332489 -19.849059 -45.66124
46.255657 -18.624099 -46.639881
45.422928 -17.406879 -47.223621
47.208214 -18.140342 -47.095692
47.067211 -19.907923 -46.01957
46.255657 -18.624099 -46.639881
34.145855 -74.584503 -26.496853
33.464855 -77.047196 -25.829313
32.967602 -75.946793 -25.815236
54.225407 -51.143292 -34.119976
53.661079 -53.360594 -33.280052
52.962963 -52.632429 -33.634754
54.225407 -51.143292 -34.119976
54.750013 -48.936628 -35.00634
57.580276 -43.731831 -36.987702
56.441214 -45.243198 -36.468586
57.965231 -41.512923 -37.939796
57.580276 -43.731831 -36.987702
57.286663 -40.814304 -38.366741
57.965231 -41.512923 -37.939796
56.585873 -40.07029 -38.720504
57.286663 -40.814304 -38.366741
56.2089 -42.284252 -37.752933
55.86417 -39.33659 -39.066322
56.585873 -40.07029 -38.720504
51.751838 -37.44549 -39.361343
51.355159 -39.637661 -38.53154
50.585308 -38.762976 -38.729293
52.819278 -36.163544 -40.05212
51.751838 -37.44549 -39.361343
27.662329 -62.371857 -21.107416
26.721778 -64.64188 -20.290101
28.499735 -60.017235 -21.989506
28.537972 -61.777756 -21.872998
27.662329 -62.371857 -21.107416
29.253809 -57.740189 -22.902752
28.499735 -60.017235 -21.989506
28.378166 -58.334289 -22.137171
28.88827 -54.429865 -23.250273
28.228229 -56.604227 -22.318655
29.69643 -53.80149 -24.047829
28.88827 -54.429865 -23.250273
29.45246 -52.174112 -24.247684
33.379534 -15.863107 -46.557637
32.710802 -16.949292 -45.706574
33.907261 -13.078973 -48.34451
33.684773 -11.407404 -49.278458
34.124729 -14.818098 -47.335194
33.907261 -13.078973 -48.34451
34.89246 -13.771359 -48.133026
34.364733 -16.555493 -46.346153
33.379534 -15.863107 -46.557637
34.124729 -14.818098 -47.335194
29.67767 -79.674797 -23.537894
28.522216 -80.812363 -22.801005
30.730144 -78.494988 -24.328921
29.67767 -79.674797 -23.537894
30.436713 -77.233139 -24.175646
31.887895 -77.231407 -25.057184
30.730144 -78.494988 -24.328921
32.568894 -74.768715 -25.724724
32.967602 -75.946793 -25.815236
31.887895 -77.231407 -25.057184
53.280418 -78.845947 -22.14812
52.160736 -80.574532 -22.24509
53.280418 -78.845947 -22.14812
53.904964 -77.087242 -22.838159
54.475014 -75.26075 -23.459955
55.078709 -73.473034 -24.180296
33.290119 -8.125138 -51.082745
33.477657 -9.738938 -50.229523
34.080706 -7.087343 -51.902085
33.290119 -8.125138 -51.082745
33.110063 -6.517178 -51.940357
24.305524 -74.663528 -18.837916
24.422787 -72.85186 -18.774708
24.192579 -76.403027 -18.921625
24.305524 -74.663528 -18.837916
25.379948 -74.111477 -19.532373
24.08466 -78.145573 -19.06629
24.192579 -76.403027 -18.921625
25.18578 -77.51231 -19.767212
24.003437 -79.806907 -19.217419
24.08466 -78.145573 -19.06629
26.155555 -76.794075 -20.537152
25.18578 -77.51231 -19.767212
26.236778 -75.13274 -20.386022
27.173357 -75.99078 -21.302913
26.122359 -78.37035 -20.684103
26.155555 -76.794075 -20.537152
51.571619 -80.485039 -22.882483
52.160736 -80.574532 -22.24509
50.993494 -82.287826 -22.294804
52.104164 -78.612617 -23.402742
51.571619 -80.485039 -22.882483
50.936922 -80.325913 -23.452455
50.759968 -78.210601 -24.43976
50.258541 -80.153343 -23.970741
51.997793 -76.55619 -24.536348
50.759968 -78.210601 -24.43976
51.288294 -76.313301 -25.003393
53.758815 -73.032593 -25.249765
54.435236 -73.262528 -24.737955
53.20254 -74.888824 -24.588171
54.283434 -71.104267 -25.864301
53.758815 -73.032593 -25.249765
53.050737 -72.730564 -25.714517
54.823307 -69.20763 -26.564918
54.283434 -71.104267 -25.864301
54.097538 -68.834083 -26.995888
55.345489 -67.239475 -27.231752
54.823307 -69.20763 -26.564918
45.677004 -78.177124 -26.17141
46.476607 -78.593773 -25.89715
46.182958 -76.025711 -26.621189
45.677004 -78.177124 -26.17141
44.892735 -77.692017 -26.461393
44.627323 -74.971131 -27.176575
44.09942 -77.188774 -26.694986
43.328054 -76.619301 -26.960389
32.648163 -0.360119 -54.566921
32.619197 1.116732 -54.994564
32.74 -1.876132 -54.008335
32.648163 -0.360119 -54.566921
33.527079 -0.847543 -54.770462
32.827959 -3.395561 -53.408729
32.74 -1.876132 -54.008335
33.759783 -3.921469 -53.485787
32.968826 -4.953474 -52.68264
32.827959 -3.395561 -53.408729
36.218331 3.274378 -57.068955
35.202481 3.965876 -56.867108
36.291817 1.783696 -56.67886
36.218331 3.274378 -57.068955
37.281739 2.562905 -57.150272
39.192741 -7.565392 -52.648907
38.052206 -6.699063 -52.973122
39.030862 -5.950161 -53.599216
40.299154 -8.457557 -52.239316
39.320498 -9.206459 -51.61322
39.192741 -7.565392 -52.648907
41.201548 -6.223302 -53.808319
40.036225 -5.244125 -54.185212
41.066374 -4.650938 -54.718529
41.297623 -7.808623 -52.813012
41.201548 -6.223302 -53.808319
42.327772 -7.215435 -53.346329
41.425379 -9.449689 -51.777325
40.299154 -8.457557 -52.239316
41.297623 -7.808623 -52.813012
43.570686 -11.583802 -50.688332
42.492902 -10.465592 -51.256508
43.501631 -9.918965 -51.782845
44.572174 -12.717056 -50.093628
43.563446 -13.263683 -49.567291
43.570686 -11.583802 -50.688332
45.573964 -13.953494 -49.454498
44.572174 -12.717056 -50.093628
46.489826 -15.183285 -48.826206
45.480797 -15.626728 -48.344296
45.573964 -13.953494 -49.454498
47.388979 -16.516706 -48.151547
46.489826 -15.183285 -48.826206
48.200533 -17.800529 -47.531235
47.208214 -18.140342 -47.095692
47.388979 -16.516706 -48.151547
48.964153 -19.195099 -46.853004
48.200533 -17.800529 -47.531235
48.699749 -20.684189 -45.909061
48.964153 -19.195099 -46.853004
30.59612 -45.759779 -27.372381
30.303382 -47.831663 -26.314591
29.876841 -46.462746 -26.516735
31.23548 -44.988512 -28.2746
30.59612 -45.759779 -27.372381
31.870151 -44.193123 -29.190213
31.657332 -46.333307 -28.08585
31.23548 -44.988512 -28.2746
32.454785 -43.345401 -30.128031
31.870151 -44.193123 -29.190213
33.025438 -42.471901 -31.073532
32.862657 -44.664417 -29.946964
32.454785 -43.345401 -30.128031
33.577139 -41.561996 -32.015695
33.025438 -42.471901 -31.073532
34.119303 -40.627992 -32.952431
33.975475 -42.856912 -31.829202
33.577139 -41.561996 -32.015695
33.742354 -37.194007 -34.258625
33.218653 -35.998737 -34.44883
34.270958 -38.377063 -34.049374
33.742354 -37.194007 -34.258625
34.292346 -36.237995 -35.169075
34.669295 -39.67198 -33.862881
34.119303 -40.627992 -32.952431
34.270958 -38.377063 -34.049374
32.964222 -18.669886 -44.732628
33.853886 -19.411443 -44.543782
34.187409 -29.962571 -38.44117
34.020485 -28.008543 -39.523468
34.839262 -31.030251 -38.21645
34.24814 -32.031339 -37.363331
34.187409 -29.962571 -38.44117
45.925072 -22.273637 -44.559463
44.975635 -22.948237 -44.073204
45.165218 -21.06628 -45.0775
46.672325 -23.495345 -44.025276
45.925072 -22.273637 -44.559463
46.861908 -21.613388 -45.029572
49.162872 -23.516889 -44.489342
48.277587 -23.962331 -44.065663
48.494445 -22.389654 -44.919064
49.644989 -24.571635 -44.054344
49.162872 -23.516889 -44.489342
33.97999 -78.100532 -25.898288
33.464855 -77.047196 -25.829313
34.573027 -79.080689 -25.882566
33.97999 -78.100532 -25.898288
35.236145 -76.665062 -26.495209
35.185648 -80.008377 -25.921115
34.573027 -79.080689 -25.882566
36.496994 -78.505798 -26.428773
35.185648 -80.008377 -25.921115
37.762518 -77.006585 -26.943789
36.496994 -78.505798 -26.428773
37.094706 -76.146004 -26.994501
39.06401 -75.449615 -27.36929
37.762518 -77.006585 -26.943789
39.634548 -73.109608 -27.939253
40.33833 -73.912433 -27.799027
39.06401 -75.449615 -27.36929
48.365665 -35.849646 -39.373333
49.084519 -36.876623 -39.141125
47.986347 -38.020539 -38.575836
48.733292 -33.700441 -40.159859
48.365665 -35.849646 -39.373333
47.63512 -34.844357 -39.59457
49.000484 -31.645922 -40.968937
48.733292 -33.700441 -40.159859
49.274017 -29.637209 -41.777848
49.000484 -31.645922 -40.968937
48.27628 -30.686439 -41.190006
49.418278 -27.788509 -42.568493
49.274017 -29.637209 -41.777848
49.616378 -25.994428 -43.387005
49.418278 -27.788509 -42.568493
48.747913 -26.883646 -42.817429
49.644989 -24.571635 -44.054344
49.616378 -25.994428 -43.387005
55.867885 -65.291392 -27.966237
55.345489 -67.239475 -27.231752
56.387844 -63.275737 -28.682423
55.867885 -65.291392 -27.966237
55.139679 -64.850275 -28.378909
56.891514 -61.268372 -29.44442
56.387844 -63.275737 -28.682423
57.406849 -59.201399 -30.205252
56.891514 -61.268372 -29.44442
56.174972 -60.767648 -29.855927
57.888857 -57.132376 -30.990288
57.406849 -59.201399 -30.205252
57.888857 -57.132376 -30.990288
57.194797 -56.583545 -31.418105
54.371921 -54.062221 -32.929924
53.109478 -55.551359 -32.444702
53.661079 -53.360594 -33.280052
55.065689 -54.740122 -32.554364
54.371921 -54.062221 -32.929924
55.781052 -55.384947 -32.193627
54.535683 -56.897812 -31.733838
55.065689 -54.740122 -32.554364
56.475166 -56.004526 -31.796277
55.781052 -55.384947 -32.193627
55.130596 -38.55286 -39.358612
55.86417 -39.33659 -39.066322
54.774536 -40.756507 -38.398987
54.368158 -37.786911 -39.622227
53.281326 -39.146476 -38.927433
53.608522 -36.96061 -39.858383
55.130596 -38.55286 -39.358612
54.368158 -37.786911 -39.622227
3 0 62 60
3 0 64 62
3 2 238 239
3 2 240 241
3 2 242 244
3 242 66 243
3 242 243 244
3 1 69 67
3 1 71 69
3 3 74 72
3 3 76 74
3 4 245 246
3 4 247 249
3 247 78 248
3 247 248 249
3 4 80 78
3 6 83 81
3 6 85 83
3 250 86 251
3 252 88 253
3 254 253 86
3 252 253 254
3 255 90 256
3 257 92 258
3 259 258 90
3 257 258 259
3 260 94 261
3 9 99 98
3 9 101 99
3 9 103 101
3 8 262 264
3 264 263 104
3 262 263 264
3 8 265 267
3 265 106 266
3 265 266 267
3 11 109 107
3 11 111 109
3 5 114 112
3 12 117 115
3 12 119 117
3 12 121 119
3 10 124 122
3 10 126 124
3 7 129 127
3 14 268 270
3 270 269 130
3 268 269 270
3 14 271 273
3 271 131 272
3 271 272 273
3 14 132 131
3 13 274 276
3 276 275 133
3 274 275 276
3 13 277 278
3 279 136 280
3 281 137 282
3 283 138 284
3 285 284 137
3 283 284 285
3 17 139 61
3 17 140 139
3 17 142 140
3 19 143 63
3 19 144 143
3 20 145 65
3 20 146 145
3 21 149 147
3 23 150 68
3 23 151 150
3 23 153 151
3 25 154 70
3 25 155 154
3 26 286 288
3 288 287 156
3 286 287 288
3 27 159 157
3 29 160 73
3 29 161 160
3 29 163 161
3 31 164 75
3 31 165 164
3 289 166 290
3 32 167 77
3 32 168 167
3 32 170 168
3 34 171 79
3 34 172 171
3 15 173 135
3 35 174 82
3 35 175 174
3 35 176 175
3 36 177 84
3 36 178 177
3 291 179 292
3 37 293 295
3 293 180 294
3 293 294 295
3 37 181 180
3 37 183 181
3 39 184 87
3 39 185 184
3 296 186 297
3 40 187 89
3 40 188 187
3 40 189 188
3 41 190 91
3 41 191 190
3 42 192 93
3 42 193 192
3 43 298 299
3 43 300 301
3 43 302 304
3 302 194 303
3 302 303 304
3 44 195 95
3 44 196 195
3 44 305 307
3 307 306 196
3 305 306 307
3 308 197 309
3 310 309 96
3 308 309 310
3 312 311 197
3 46 198 97
3 46 199 198
3 16 313 314
3 47 315 316
3 47 317 318
3 47 319 321
3 319 200 320
3 319 320 321
3 48 201 100
3 48 202 201
3 48 203 202
3 49 204 102
3 49 205 204
3 18 206 141
3 50 207 105
3 50 208 207
3 50 209 208
3 45 322 324
3 322 210 323
3 322 323 324
3 45 325 327
3 327 326 210
3 325 326 327
3 52 212 108
3 52 213 212
3 52 214 213
3 53 215 110
3 53 216 215
3 33 217 169
3 54 218 113
3 54 219 218
3 22 220 148
3 55 221 116
3 55 222 221
3 55 223 222
3 56 224 118
3 56 225 224
3 56 226 225
3 57 227 120
3 57 228 227
3 24 229 152
3 58 230 123
3 58 231 230
3 58 232 231
3 51 233 125
3 51 211 233
3 38 234 182
3 59 235 128
3 59 328 330
3 330 329 235
3 328 329 330
3 28 236 158
3 30 237 162
3 332 331 134
3 60 333 335
3 333 61 334
3 333 334 335
3 62 61 60
3 62 17 61
3 62 63 17
3 64 63 62
3 64 19 63
3 336 65 337
3 66 338 340
3 338 65 339
3 338 339 340
3 66 20 65
3 67 68 21
3 69 68 67
3 69 23 68
3 69 70 23
3 71 70 69
3 71 25 70
3 342 341 26
3 72 73 27
3 74 73 72
3 74 29 73
3 74 75 29
3 76 75 74
3 76 31 75
3 343 77 344
3 78 345 347
3 345 77 346
3 345 346 347
3 78 32 77
3 78 79 32
3 80 79 78
3 80 34 79
3 81 82 15
3 83 82 81
3 83 35 82
3 83 84 35
3 85 84 83
3 85 36 84
3 86 348 349
3 86 350 352
3 350 37 351
3 350 351 352
3 86 87 37
3 88 87 86
3 88 39 87
3 353 89 354
3 353 354 355
3 90 356 358
3 356 89 357
3 356 357 358
3 90 40 89
3 90 91 40
3 92 91 90
3 92 41 91
3 359 93 360
3 94 361 363
3 361 93 362
3 361 362 363
3 94 42 93
3 364 43 365
3 366 95 367
3 368 367 43
3 366 367 368
3 369 95 370
3 371 44 372
3 373 372 95
3 371 372 373
3 374 96 375
3 376 375 44
3 374 375 376
3 377 96 378
3 380 379 96
3 381 97 382
3 383 97 384
3 385 46 386
3 387 386 97
3 385 386 387
3 98 388 390
3 390 389 16
3 388 389 390
3 99 391 393
3 393 392 98
3 391 392 393
3 99 394 396
3 394 47 395
3 394 395 396
3 99 100 47
3 101 100 99
3 101 48 100
3 101 102 48
3 103 102 101
3 103 49 102
3 104 105 18
3 397 105 398
3 399 398 104
3 397 398 399
3 400 50 401
3 402 401 105
3 400 401 402
3 404 403 50
3 106 405 406
3 106 407 409
3 407 45 408
3 407 408 409
3 107 410 412
3 410 108 411
3 410 411 412
3 109 108 107
3 109 52 108
3 109 110 52
3 111 110 109
3 111 53 110
3 112 113 33
3 114 113 112
3 114 54 113
3 115 116 22
3 117 116 115
3 117 55 116
3 117 118 55
3 119 118 117
3 119 56 118
3 119 120 56
3 121 120 119
3 121 57 120
3 122 123 24
3 124 123 122
3 124 58 123
3 124 125 58
3 126 125 124
3 126 51 125
3 127 128 38
3 129 128 127
3 129 59 128
3 130 413 415
3 415 414 28
3 413 414 415
3 417 416 130
3 131 418 419
3 131 420 421
3 131 422 423
3 132 424 426
3 426 425 131
3 424 425 426
3 132 427 428
3 133 134 30
3 429 134 430
3 431 430 133
3 429 430 431
3 433 432 134
3 434 4 435
3 436 135 437
3 438 437 4
3 436 437 438
3 136 439 441
3 439 135 440
3 439 440 441
3 136 15 135
3 442 136 443
3 137 444 446
3 444 136 445
3 444 445 446
3 137 15 136
3 137 81 15
3 138 81 137
3 138 6 81
3 447 16 448
3 61 449 450
3 139 451 453
3 453 452 61
3 451 452 453
3 139 454 456
3 454 16 455
3 454 455 456
3 139 98 16
3 140 98 139
3 140 9 98
3 140 141 9
3 142 141 140
3 142 18 141
3 63 142 17
3 143 142 63
3 143 18 142
3 143 104 18
3 144 104 143
3 144 8 104
3 65 457 458
3 145 459 461
3 461 460 65
3 459 460 461
3 145 462 463
3 145 464 466
3 464 107 465
3 464 465 466
3 146 107 145
3 146 11 107
3 147 148 5
3 149 148 147
3 149 22 148
3 68 149 21
3 150 149 68
3 150 22 149
3 150 115 22
3 151 115 150
3 151 12 115
3 151 152 12
3 153 152 151
3 153 24 152
3 70 153 23
3 154 153 70
3 154 24 153
3 154 122 24
3 155 122 154
3 155 10 122
3 156 467 468
3 470 469 156
3 472 471 26
3 157 158 7
3 159 158 157
3 159 28 158
3 73 159 27
3 160 159 73
3 160 28 159
3 160 130 28
3 161 130 160
3 161 14 130
3 161 162 14
3 163 162 161
3 163 30 162
3 75 163 29
3 164 163 75
3 164 30 163
3 164 133 30
3 165 133 164
3 165 13 133
3 473 60 474
3 166 475 477
3 475 60 476
3 475 476 477
3 166 0 60
3 77 478 479
3 167 480 482
3 482 481 77
3 480 481 482
3 167 483 484
3 167 485 487
3 485 486 487
3 168 488 490
3 490 489 167
3 488 489 490
3 168 491 493
3 491 2 492
3 491 492 493
3 168 169 2
3 170 169 168
3 170 33 169
3 79 170 32
3 171 170 79
3 171 33 170
3 171 112 33
3 172 112 171
3 172 5 112
3 135 80 4
3 173 80 135
3 173 34 80
3 82 173 15
3 174 173 82
3 174 34 173
3 174 172 34
3 175 172 174
3 175 5 172
3 175 147 5
3 176 147 175
3 176 21 147
3 84 176 35
3 177 176 84
3 177 21 176
3 177 67 21
3 178 67 177
3 178 1 67
3 494 156 495
3 494 495 496
3 179 497 499
3 497 156 498
3 497 498 499
3 179 26 156
3 500 179 501
3 180 502 504
3 502 179 503
3 502 503 504
3 180 26 179
3 180 505 507
3 507 506 26
3 505 506 507
3 181 508 510
3 510 509 180
3 508 509 510
3 181 511 512
3 181 513 515
3 513 182 514
3 513 514 515
3 183 182 181
3 183 38 182
3 87 183 37
3 184 183 87
3 184 38 183
3 184 127 38
3 185 127 184
3 185 7 127
3 516 88 517
3 186 518 520
3 518 88 519
3 518 519 520
3 186 39 88
3 89 521 523
3 521 186 522
3 521 522 523
3 187 186 89
3 187 39 186
3 187 185 39
3 188 185 187
3 188 7 185
3 188 157 7
3 189 157 188
3 189 27 157
3 91 189 40
3 190 189 91
3 190 27 189
3 190 72 27
3 191 72 190
3 191 3 72
3 93 524 525
3 192 526 528
3 528 527 93
3 526 527 528
3 192 529 530
3 192 531 533
3 531 166 532
3 531 532 533
3 193 166 192
3 193 0 166
3 534 94 535
3 194 536 538
3 536 94 537
3 536 537 538
3 194 42 94
3 95 194 43
3 195 194 95
3 195 42 194
3 195 193 42
3 196 193 195
3 196 0 193
3 196 64 0
3 539 64 540
3 541 540 196
3 539 540 541
3 542 19 543
3 544 543 64
3 542 543 544
3 96 545 547
3 547 546 44
3 545 546 547
3 197 548 550
3 550 549 96
3 548 549 550
3 197 551 553
3 551 19 552
3 551 552 553
3 197 144 19
3 554 144 555
3 556 555 197
3 554 555 556
3 557 8 558
3 559 558 144
3 557 558 559
3 560 8 561
3 562 106 563
3 564 563 8
3 562 563 564
3 565 106 566
3 567 45 568
3 569 568 106
3 567 568 569
3 570 45 571
3 573 572 45
3 574 138 575
3 574 575 576
3 577 138 578
3 579 6 580
3 581 580 138
3 579 580 581
3 582 6 583
3 584 85 585
3 586 585 6
3 584 585 586
3 587 85 588
3 589 36 590
3 591 590 85
3 589 590 591
3 97 592 593
3 198 594 596
3 596 595 97
3 594 595 596
3 198 597 599
3 597 36 598
3 597 598 599
3 198 178 36
3 199 178 198
3 199 1 178
3 601 600 16
3 200 602 603
3 200 604 606
3 604 46 605
3 604 605 606
3 100 200 47
3 201 200 100
3 201 46 200
3 201 199 46
3 202 199 201
3 202 1 199
3 202 71 1
3 203 71 202
3 203 25 71
3 102 203 48
3 204 203 102
3 204 25 203
3 204 155 25
3 205 155 204
3 205 10 155
3 141 103 9
3 206 103 141
3 206 49 103
3 105 206 18
3 207 206 105
3 207 49 206
3 207 205 49
3 208 205 207
3 208 10 205
3 208 126 10
3 209 126 208
3 209 51 126
3 607 209 608
3 609 608 50
3 607 608 609
3 210 610 612
3 610 209 611
3 610 611 612
3 210 51 209
3 210 211 51
3 613 211 614
3 615 614 210
3 613 614 615
3 617 616 211
3 108 618 619
3 212 620 622
3 622 621 108
3 620 621 622
3 212 623 624
3 212 625 626
3 213 627 629
3 629 628 212
3 627 628 629
3 213 630 631
3 213 632 634
3 632 92 633
3 632 633 634
3 214 92 213
3 214 41 92
3 110 214 52
3 215 214 110
3 215 41 214
3 215 191 41
3 216 191 215
3 216 3 191
3 169 66 2
3 217 66 169
3 217 20 66
3 113 217 33
3 218 217 113
3 218 20 217
3 218 146 20
3 219 146 218
3 219 11 146
3 148 114 5
3 220 114 148
3 220 54 114
3 116 220 22
3 221 220 116
3 221 54 220
3 221 219 54
3 222 219 221
3 222 11 219
3 222 111 11
3 223 111 222
3 223 53 111
3 118 223 55
3 224 223 118
3 224 53 223
3 224 216 53
3 225 216 224
3 225 3 216
3 225 76 3
3 226 76 225
3 226 31 76
3 120 226 56
3 227 226 120
3 227 31 226
3 227 165 31
3 228 165 227
3 228 13 165
3 152 121 12
3 229 121 152
3 229 57 121
3 123 229 24
3 230 229 123
3 230 57 229
3 230 228 57
3 231 228 230
3 231 13 228
3 231 635 637
3 637 636 13
3 635 636 637
3 232 638 640
3 640 639 231
3 638 639 640
3 232 641 642
3 125 232 58
3 233 232 125
3 233 643 645
3 645 644 232
3 643 644 645
3 233 646 647
3 211 648 650
3 650 649 233
3 648 649 650
3 211 651 652
3 182 653 654
3 234 655 657
3 657 656 182
3 655 656 657
3 234 658 659
3 128 234 38
3 235 234 128
3 235 660 662
3 662 661 234
3 660 661 662
3 235 663 664
3 666 665 235
3 158 129 7
3 236 129 158
3 236 59 129
3 667 236 668
3 669 668 28
3 667 668 669
3 670 236 671
3 672 59 673
3 674 673 236
3 672 673 674
3 676 675 59
3 162 132 14
3 237 132 162
3 237 677 679
3 679 678 132
3 677 678 679
3 134 237 30
3 680 237 681
3 682 681 134
3 680 681 682
3 684 683 237
