ply
format ascii 1.0
element vertex 387
property float x
property float y
property float z
element face 369
property list uchar int vertex_index
end_header
28.770947 -24.248219 -37.430534
30.246103 -15.23662 -45.833664
25.883593 -41.957405 -22.698122
28.692789 -36.446182 -30.166445
32.164204 -29.076363 -37.951195
28.473654 -33.857342 -29.679007
28.815264 -30.154228 -33.97776
30.289608 -32.941429 -34.095543
29.625711 -26.123791 -38.184998
32.694553 -10.782574 -49.414574
28.849384 -18.570335 -40.381004
28.935772 -19.791952 -41.822891
28.566042 -13.796758 -44.875725
29.647896 -8.987889 -48.964699
32.037003 -4.427565 -52.605583
19.385601 -48.887589 -13.945679
21.016479 -48.221149 -17.107676
22.994665 -47.138847 -20.127211
25.3927 -45.528236 -23.086138
27.244276 -39.476257 -26.36537
27.981943 -43.291882 -26.234266
30.444031 -40.402184 -29.750109
32.673565 -36.942535 -33.519333
31.200338 -21.889322 -42.102455
29.003443 -26.39435 -35.135262
28.821264 -29.197807 -33.528481
28.79203 -27.164589 -35.759483
29.139482 -28.172203 -36.104424
28.919138 -25.06266 -37.947662
28.553909 -16.201113 -42.675751
28.604658 -13.365813 -43.930229
28.903116 -5.558352 -49.249672
28.856693 -8.431789 -48.231255
29.53001 -5.991718 -50.219574
30.697948 -6.653664 -50.84668
20.175472 -48.600384 -15.5403
23.634579 -45.301624 -19.737257
24.510277 -44.491058 -21.389898
24.149979 -46.406712 -21.600355
25.438358 -43.537601 -23.038561
28.334984 -34.988808 -30.059378
27.919247 -36.625122 -28.032587
27.954481 -38.025928 -28.245279
27.42075 -41.188805 -26.420259
28.440105 -39.792877 -28.196386
29.243509 -41.926376 -27.945158
29.455891 -38.25486 -30.03998
31.180862 -31.045069 -36.051727
31.471462 -34.799248 -33.859955
32.504993 -32.917732 -35.760536
33.596287 -30.963659 -37.588051
29.438669 -17.51667 -43.881432
29.84528 -20.716478 -42.101913
30.695805 -18.505573 -44.0298
34.088234 -21.222385 -43.518967
28.938755 -31.144342 -31.277784
28.609863 -32.05468 -31.829504
28.79896 -33.240063 -32.104736
29.466785 -34.747074 -32.123055
29.340639 -31.392605 -34.155014
29.989162 -29.460699 -36.186958
30.771536 -27.459679 -38.169983
31.342646 -12.979372 -47.677467
31.802067 -16.298082 -45.844551
33.13953 -14.125712 -47.546677
28.783377 -21.387165 -38.975838
28.726473 -22.041662 -39.667122
28.597216 -19.091518 -41.248199
28.697292 -16.75849 -43.431091
29.125443 -14.408703 -45.512924
28.549948 -10.901971 -46.133018
28.928963 -11.382061 -46.973045
29.889242 -12.067581 -47.489372
30.967186 -9.768545 -49.35981
32.319477 -7.554974 -51.121017
16.341927 -51.192516 -10.226526
17.039124 -51.1287 -11.723143
17.697672 -51.012829 -13.225504
18.398287 -50.844749 -14.711592
19.211853 -50.617737 -16.160036
20.187937 -50.317505 -17.556826
22.802486 -45.974571 -18.065256
21.94945 -47.738651 -18.635798
28.35375 -35.544121 -27.539541
27.521931 -38.135208 -26.028929
26.556633 -40.78904 -24.520727
26.413668 -42.437431 -24.707029
26.684875 -44.492222 -24.620382
30.169579 -44.390862 -27.574526
31.448298 -42.848328 -29.378962
30.463072 -36.585072 -31.938101
31.580379 -38.733723 -31.623487
32.617565 -41.152885 -31.254599
33.720966 -39.333076 -33.138924
29.257927 -22.908051 -40.069084
30.306589 -24.024065 -40.192635
31.709187 -25.406271 -40.070786
32.308907 -19.739271 -43.89666
32.814358 -23.319397 -41.859932
33.26244 -27.055603 -39.752647
28.887195 -25.321284 -36.282898
29.092708 -25.01023 -35.884293
28.97646 -23.937165 -37.031929
28.883574 -13.211977 -43.313087
28.790878 -14.579686 -42.779506
29.531599 -4.535304 -50.713951
29.216563 -5.775035 -49.734623
29.218152 -4.318621 -50.229
30.037475 -4.809236 -51.152966
29.531599 -4.535304 -50.713951
25.196935 -43.224232 -22.04401
24.860694 -43.733306 -21.13651
25.547352 -42.46648 -21.790623
29.139322 -29.802518 -32.042163
29.312943 -30.784495 -30.874198
29.111404 -19.726406 -39.19445
29.217202 -18.365302 -39.811798
28.816381 -19.97875 -39.678421
29.0784 -21.134821 -38.491867
29.111404 -19.726406 -39.19445
28.596311 -9.488454 -46.652378
28.646918 -10.744164 -45.55904
32.968826 -4.953474 -52.68264
33.110063 -6.517178 -51.940357
32.17824 -5.991269 -51.8633
17.034939 -50.202604 -10.494597
16.540147 -50.225032 -9.722415
17.383538 -50.170696 -11.242905
16.690525 -51.160608 -10.974835
17.034939 -50.202604 -10.494597
18.988169 -48.988941 -13.145433
19.829234 -48.058255 -13.457765
18.541637 -49.950209 -13.585591
18.144204 -50.051562 -12.785346
18.988169 -48.988941 -13.145433
23.659945 -44.906887 -18.565724
23.287847 -45.260364 -17.656204
22.171151 -48.531115 -19.514594
21.648543 -48.831016 -18.768887
22.472057 -47.438749 -19.381504
22.838149 -48.275032 -20.170179
22.171151 -48.531115 -19.514594
24.7727 -47.142521 -22.305239
24.151339 -47.581758 -21.562348
24.771339 -45.967474 -22.343246
25.547643 -46.733654 -22.982794
24.7727 -47.142521 -22.305239
28.413702 -34.700732 -28.609274
28.712093 -34.26367 -28.283668
28.772044 -33.420281 -29.353401
27.622343 -45.117224 -25.278106
26.973809 -45.717394 -24.471165
27.333409 -43.892052 -25.427324
28.374872 -44.525644 -26.058888
27.622343 -45.117224 -25.278106
32.964222 -18.669886 -44.732628
32.055487 -18.018676 -44.870605
32.710802 -16.949292 -45.706574
33.653351 -24.162405 -41.641475
33.451296 -22.270891 -42.68945
34.290289 -23.113899 -42.470993
33.877392 -26.030508 -40.587833
33.038399 -25.1875 -40.80629
33.653351 -24.162405 -41.641475
34.020485 -28.008543 -39.523468
33.877392 -26.030508 -40.587833
29.349614 -26.091091 -34.691093
29.092708 -25.01023 -35.884293
29.171665 -27.427521 -33.970901
29.349614 -26.091091 -34.691093
28.912354 -27.796079 -34.331871
29.080576 -28.82925 -33.167511
29.171665 -27.427521 -33.970901
33.684773 -11.407404 -49.278458
33.477657 -9.738938 -50.229523
28.913241 -17.181947 -41.004894
29.217202 -18.365302 -39.811798
28.765503 -15.997336 -42.152268
28.701647 -17.385724 -41.528377
28.913241 -17.181947 -41.004894
28.579284 -14.783463 -43.30299
28.765503 -15.997336 -42.152268
28.790878 -14.579686 -42.779506
28.879905 -6.995071 -48.740463
28.749683 -8.253363 -47.701496
28.772894 -6.816645 -48.210705
30.621443 -5.14021 -51.466518
30.113979 -6.322691 -50.533127
30.037475 -4.809236 -51.152966
31.290971 -4.02716 -52.34597
31.367475 -5.540615 -51.726132
30.621443 -5.14021 -51.466518
20.274013 -47.909859 -14.30589
19.829234 -48.058255 -13.457765
20.668948 -47.766256 -15.1032
19.780537 -48.743986 -14.74299
20.274013 -47.909859 -14.30589
21.083014 -47.558186 -15.95581
20.668948 -47.766256 -15.1032
21.503518 -47.368568 -16.739498
20.595976 -48.410766 -16.323988
21.083014 -47.558186 -15.95581
24.422845 -44.138589 -20.31019
24.075992 -44.570414 -19.401724
24.072428 -44.896341 -20.563578
24.422845 -44.138589 -20.31019
24.860694 -43.733306 -21.13651
33.134367 -33.986335 -35.569431
33.218653 -35.998737 -34.44883
32.589279 -34.930133 -34.639935
33.680014 -33.009299 -36.483188
33.134367 -33.986335 -35.569431
33.05064 -31.940696 -36.674294
34.24814 -32.031339 -37.363331
33.680014 -33.009299 -36.483188
34.805183 -20.184577 -44.282204
33.853886 -19.411443 -44.543782
34.974871 -22.087781 -43.232628
34.805183 -20.184577 -44.282204
34.290289 -23.113899 -42.470993
34.974871 -22.087781 -43.232628
28.865516 -5.439618 -48.601906
28.772894 -6.816645 -48.210705
28.979454 -4.163184 -49.617897
28.865516 -5.439618 -48.601906
29.218152 -4.318621 -50.229
28.979454 -4.163184 -49.617897
26.269364 -41.338482 -22.389372
25.547352 -42.46648 -21.790623
29.004595 -32.063781 -30.15279
29.312943 -30.784495 -30.874198
28.706204 -32.500842 -30.478395
28.772044 -33.420281 -29.353401
29.004595 -32.063781 -30.15279
28.880009 -30.171075 -32.403132
29.139322 -29.802518 -32.042163
29.080576 -28.82925 -33.167511
33.379534 -15.863107 -46.557637
32.710802 -16.949292 -45.706574
32.470799 -15.211897 -46.695614
33.907261 -13.078973 -48.34451
32.917041 -12.454143 -48.480626
33.684773 -11.407404 -49.278458
34.124729 -14.818098 -47.335194
33.907261 -13.078973 -48.34451
33.379534 -15.863107 -46.557637
34.124729 -14.818098 -47.335194
28.982675 -22.506638 -37.804581
29.0784 -21.134821 -38.491867
28.777162 -22.817692 -38.203186
28.97646 -23.937165 -37.031929
28.982675 -22.506638 -37.804581
28.674273 -11.976085 -44.457645
28.883574 -13.211977 -43.313087
28.577303 -12.133892 -45.031623
28.674273 -11.976085 -44.457645
28.646918 -10.744164 -45.55904
28.703321 -9.66688 -47.182136
28.596311 -9.488454 -46.652378
28.749683 -8.253363 -47.701496
33.290119 -8.125138 -51.082745
33.477657 -9.738938 -50.229523
32.507015 -9.168774 -50.267796
33.290119 -8.125138 -51.082745
33.110063 -6.517178 -51.940357
31.949044 -2.908137 -53.205189
31.290971 -4.02716 -52.34597
32.827959 -3.395561 -53.408729
31.949044 -2.908137 -53.205189
32.968826 -4.953474 -52.68264
32.827959 -3.395561 -53.408729
15.935963 -51.196674 -9.490167
16.540147 -50.225032 -9.722415
15.769372 -52.28278 -9.930421
15.935963 -51.196674 -9.490167
16.021788 -52.282388 -10.635932
15.769372 -52.28278 -9.930421
16.370387 -52.250481 -11.384241
16.021788 -52.282388 -10.635932
16.690525 -51.160608 -10.974835
16.609119 -52.233423 -12.087471
16.370387 -52.250481 -11.384241
17.81493 -50.109497 -12.034166
17.383538 -50.170696 -11.242905
17.368398 -51.070765 -12.474324
17.81493 -50.109497 -12.034166
18.144204 -50.051562 -12.785346
16.938394 -52.175488 -12.838652
16.609119 -52.233423 -12.087471
17.368398 -51.070765 -12.474324
17.214242 -52.145188 -13.530826
16.938394 -52.175488 -12.838652
17.564549 -52.061148 -14.273869
17.214242 -52.145188 -13.530826
18.04798 -50.928789 -13.968548
17.922622 -52.016267 -14.945439
17.564549 -52.061148 -14.273869
18.329405 -51.902761 -15.669662
17.922622 -52.016267 -14.945439
18.80507 -50.731243 -15.435814
18.801567 -51.83618 -16.312939
18.329405 -51.902761 -15.669662
19.289609 -51.686064 -17.011333
18.801567 -51.83618 -16.312939
19.699895 -50.467621 -16.858431
19.889647 -51.585398 -17.62417
19.289609 -51.686064 -17.011333
22.396521 -46.245279 -17.218288
23.287847 -45.260364 -17.656204
21.909482 -47.09786 -17.586466
21.503518 -47.368568 -16.739498
22.396521 -46.245279 -17.218288
23.218532 -45.638098 -18.901257
23.659945 -44.906887 -18.565724
24.075992 -44.570414 -19.401724
20.767787 -50.120443 -18.229401
21.068694 -49.028078 -18.096312
21.648543 -48.831016 -18.768887
19.889647 -51.585398 -17.62417
20.767787 -50.120443 -18.229401
23.415806 -47.908964 -20.906751
22.838149 -48.275032 -20.170179
23.572322 -46.772779 -20.863783
23.415806 -47.908964 -20.906751
24.151339 -47.581758 -21.562348
26.497664 -40.731093 -23.372261
26.269364 -41.338482 -22.389372
28.747787 -35.117249 -27.167654
28.712093 -34.26367 -28.283668
28.275148 -36.319527 -26.479414
28.747787 -35.117249 -27.167654
27.859238 -37.615071 -25.724108
28.275148 -36.319527 -26.479414
27.937841 -36.839664 -26.784235
27.316834 -38.819994 -25.037664
27.859238 -37.615071 -25.724108
26.834184 -40.14691 -24.283563
27.316834 -38.819994 -25.037664
27.039282 -39.462124 -25.274828
26.220113 -41.373222 -23.609425
26.497664 -40.731093 -23.372261
26.834184 -40.14691 -24.283563
26.193731 -46.215647 -23.749916
25.547643 -46.733654 -22.982794
26.038788 -45.010229 -23.85326
26.193731 -46.215647 -23.749916
26.973809 -45.717394 -24.471165
29.005655 -43.842892 -26.914333
28.374872 -44.525644 -26.058888
28.612726 -42.609129 -27.089712
29.46869 -45.075135 -26.729017
29.005655 -43.842892 -26.914333
29.706544 -43.158619 -27.759842
29.876841 -46.462746 -26.516735
29.46869 -45.075135 -26.729017
30.59612 -45.759779 -27.372381
29.876841 -46.462746 -26.516735
31.23548 -44.988512 -28.2746
30.59612 -45.759779 -27.372381
30.808939 -43.619595 -28.476744
31.870151 -44.193123 -29.190213
31.23548 -44.988512 -28.2746
32.454785 -43.345401 -30.128031
31.870151 -44.193123 -29.190213
32.032932 -42.000607 -30.316781
33.025438 -42.471901 -31.073532
32.454785 -43.345401 -30.128031
33.577139 -41.561996 -32.015695
33.025438 -42.471901 -31.073532
33.169265 -40.242981 -32.196762
34.119303 -40.627992 -32.952431
33.577139 -41.561996 -32.015695
33.742354 -37.194007 -34.258625
33.197266 -38.137805 -33.329129
33.218653 -35.998737 -34.44883
34.270958 -38.377063 -34.049374
33.742354 -37.194007 -34.258625
34.119303 -40.627992 -32.952431
34.270958 -38.377063 -34.049374
33.198571 -20.480828 -43.707814
32.964222 -18.669886 -44.732628
33.853886 -19.411443 -44.543782
34.187409 -29.962571 -38.44117
33.429363 -29.009631 -38.670349
34.020485 -28.008543 -39.523468
34.24814 -32.031339 -37.363331
34.187409 -29.962571 -38.44117
3 0 100 102
3 100 24 101
3 100 101 102
3 0 26 24
3 0 28 26
3 103 30 104
3 105 33 106
3 107 106 31
3 105 106 107
3 109 108 33
3 2 110 112
3 110 37 111
3 110 111 112
3 2 39 37
3 3 42 40
3 3 44 42
3 3 46 44
3 4 49 47
3 4 50 49
3 1 53 51
3 113 55 114
3 6 56 25
3 6 57 56
3 6 59 57
3 8 60 27
3 8 61 60
3 9 64 62
3 10 115 116
3 10 117 119
3 117 65 118
3 117 118 119
3 10 67 65
3 12 68 29
3 12 69 68
3 120 70 121
3 13 71 32
3 13 72 71
3 13 73 72
3 14 74 34
3 14 122 124
3 124 123 74
3 122 123 124
3 125 75 126
3 127 76 128
3 129 128 75
3 127 128 129
3 15 130 131
3 15 132 134
3 132 77 133
3 132 133 134
3 15 78 77
3 16 79 35
3 16 80 79
3 135 81 136
3 17 82 36
3 17 137 139
3 139 138 82
3 137 138 139
3 17 140 141
3 18 142 144
3 144 143 38
3 142 143 144
3 18 145 146
3 5 147 149
3 147 83 148
3 147 148 149
3 19 84 41
3 19 85 84
3 19 86 85
3 20 87 43
3 20 150 152
3 152 151 87
3 150 151 152
3 20 153 154
3 21 88 45
3 21 89 88
3 7 90 58
3 22 91 48
3 22 92 91
3 22 93 92
3 11 94 66
3 23 95 52
3 23 96 95
3 155 97 156
3 157 156 63
3 155 156 157
3 158 98 159
3 160 159 54
3 158 159 160
3 161 99 162
3 163 162 98
3 161 162 163
3 165 164 99
3 24 166 167
3 24 168 169
3 24 170 172
3 170 25 171
3 170 171 172
3 26 25 24
3 26 6 25
3 26 27 6
3 28 27 26
3 28 8 27
3 174 173 9
3 175 10 176
3 177 29 178
3 179 178 10
3 177 178 179
3 30 180 182
3 180 29 181
3 180 181 182
3 30 12 29
3 31 183 185
3 183 32 184
3 183 184 185
3 33 32 31
3 33 13 32
3 33 34 13
3 186 34 187
3 188 187 33
3 186 187 188
3 189 14 190
3 191 190 34
3 189 190 191
3 192 15 193
3 194 35 195
3 196 195 15
3 194 195 196
3 197 35 198
3 199 16 200
3 201 200 35
3 199 200 201
3 202 36 203
3 37 204 206
3 204 36 205
3 204 205 206
3 37 17 36
3 37 38 17
3 39 38 37
3 39 18 38
3 40 41 5
3 42 41 40
3 42 19 41
3 42 43 19
3 44 43 42
3 44 20 43
3 44 45 20
3 46 45 44
3 46 21 45
3 47 48 7
3 49 48 47
3 49 22 48
3 49 207 209
3 209 208 22
3 207 208 209
3 50 210 212
3 212 211 49
3 210 211 212
3 50 213 214
3 51 52 11
3 53 52 51
3 53 23 52
3 215 54 216
3 217 54 218
3 220 219 54
3 221 31 222
3 223 31 224
3 226 225 31
3 227 2 228
3 55 229 230
3 55 231 233
3 231 5 232
3 231 232 233
3 25 234 236
3 234 55 235
3 234 235 236
3 56 55 25
3 56 5 55
3 56 40 5
3 57 40 56
3 57 3 40
3 57 58 3
3 59 58 57
3 59 7 58
3 27 59 6
3 60 59 27
3 60 7 59
3 60 47 7
3 61 47 60
3 61 4 47
3 62 63 1
3 64 63 62
3 64 237 239
3 239 238 63
3 237 238 239
3 240 64 241
3 242 241 9
3 240 241 242
3 243 64 244
3 246 245 64
3 65 247 248
3 65 249 251
3 249 0 250
3 249 250 251
3 65 66 0
3 67 66 65
3 67 11 66
3 29 67 10
3 68 67 29
3 68 11 67
3 68 51 11
3 69 51 68
3 69 1 51
3 252 30 253
3 70 254 256
3 254 30 255
3 254 255 256
3 70 12 30
3 32 257 259
3 257 70 258
3 257 258 259
3 71 70 32
3 71 12 70
3 71 69 12
3 72 69 71
3 72 1 69
3 72 62 1
3 73 62 72
3 73 9 62
3 34 73 13
3 74 73 34
3 74 9 73
3 74 260 262
3 262 261 9
3 260 261 262
3 264 263 74
3 265 14 266
3 267 14 268
3 270 269 14
3 75 271 272
3 75 273 274
3 75 275 276
3 76 277 279
3 279 278 75
3 277 278 279
3 76 280 281
3 282 76 283
3 77 284 286
3 284 76 285
3 284 285 286
3 77 287 289
3 289 288 76
3 287 288 289
3 77 290 291
3 78 292 294
3 294 293 77
3 292 293 294
3 78 295 296
3 35 78 15
3 79 78 35
3 79 297 299
3 299 298 78
3 297 298 299
3 79 300 301
3 80 302 304
3 304 303 79
3 302 303 304
3 80 305 306
3 81 307 308
3 81 309 311
3 309 16 310
3 309 310 311
3 36 312 314
3 312 81 313
3 312 313 314
3 82 81 36
3 82 16 81
3 82 80 16
3 315 80 316
3 317 316 82
3 315 316 317
3 319 318 80
3 38 320 322
3 322 321 17
3 320 321 322
3 324 323 38
3 325 2 326
3 83 327 328
3 83 329 330
3 41 83 5
3 84 83 41
3 84 331 333
3 333 332 83
3 331 332 333
3 84 334 335
3 85 336 338
3 338 337 84
3 336 337 338
3 85 339 341
3 339 2 340
3 339 340 341
3 85 39 2
3 86 39 85
3 86 18 39
3 43 86 19
3 87 86 43
3 87 18 86
3 87 342 344
3 344 343 18
3 342 343 344
3 346 345 87
3 45 347 349
3 349 348 20
3 347 348 349
3 88 350 352
3 352 351 45
3 350 351 352
3 88 353 354
3 88 355 356
3 89 357 359
3 359 358 88
3 357 358 359
3 89 360 361
3 58 46 3
3 90 46 58
3 90 21 46
3 48 90 7
3 91 90 48
3 91 21 90
3 91 89 21
3 92 89 91
3 92 362 364
3 364 363 89
3 362 363 364
3 92 365 366
3 93 367 369
3 369 368 92
3 367 368 369
3 93 370 371
3 372 93 373
3 374 373 22
3 372 373 374
3 375 93 376
3 378 377 93
3 66 28 0
3 94 28 66
3 94 8 28
3 52 94 11
3 95 94 52
3 95 8 94
3 95 61 8
3 96 61 95
3 96 4 61
3 63 53 1
3 97 53 63
3 97 23 53
3 54 379 381
3 379 97 380
3 379 380 381
3 98 97 54
3 98 23 97
3 98 96 23
3 99 96 98
3 99 4 96
3 99 50 4
3 382 50 383
3 384 383 99
3 382 383 384
3 386 385 50
