ply
format ascii 1.0
element vertex 694
property float x
property float y
property float z
element face 795
property list uchar int vertex_index
end_header
67.789528 -19.42757 -4.882795
63.376541 -36.916237 -3.588648
67.054916 -47.874947 14.167121
63.965462 -0.755936 -21.70075
59.026382 -46.117004 0.087723
70.77404 -41.502659 11.127046
66.240753 -10.14474 -12.23649
67.711342 -27.481136 -5.194647
64.499222 -20.014164 -12.483673
61.14053 -31.266651 -11.300512
60.274921 -55.048592 17.892046
59.804718 -50.243546 8.669014
70.333076 -34.907848 1.982778
66.102036 -42.444275 4.71163
61.044731 8.403227 -32.319397
63.190933 -11.949158 -21.559767
65.636208 -11.783588 -7.978813
67.167519 -14.792255 -8.300333
65.824829 -32.156998 -4.684864
64.064117 -28.919245 -8.293213
61.970337 -34.152092 -7.419577
57.599243 -56.642025 14.747515
70.039818 -31.504375 1.472455
70.094284 -35.409908 5.490618
69.707367 -44.55489 12.474018
69.556877 -41.709824 7.597552
66.831978 -45.224129 9.326433
62.837784 -46.31781 6.685756
63.412018 -48.877068 11.289751
64.345375 -1.95623 -16.558691
62.132408 -0.389553 -16.743315
63.079865 2.904829 -21.509916
61.415085 7.588531 -26.707346
62.676083 3.919903 -26.954645
62.202553 -22.10713 -16.28372
63.529869 -16.105694 -16.806616
60.957932 -41.597584 -1.947159
60.216057 -39.314621 -6.00754
69.771263 -38.826637 10.154495
69.289101 -41.568695 15.302434
70.407242 -44.080833 16.302322
69.429054 -46.997139 17.589994
65.219803 -6.870772 -12.010786
65.141502 -5.465304 -16.737249
68.486488 -23.136843 -5.201164
67.1968 -18.93733 -8.604527
65.996208 -23.76646 -8.655993
62.734688 -25.615444 -12.110214
61.247261 -28.124676 -15.359861
68.846275 -48.88987 22.920496
66.859093 -50.209309 19.196121
63.625626 -51.381451 16.056986
60.12043 -52.676071 13.188691
57.617531 -54.26302 10.291206
57.592911 -52.019997 6.151187
68.016365 -24.053947 -1.754248
69.492043 -27.348701 -1.979799
69.25943 -31.216129 -1.774969
67.54557 -35.398148 -0.987095
70.812065 -38.395672 6.296448
68.846283 -38.614288 3.078235
64.883797 -39.664177 0.405643
61.948898 -43.885288 2.268446
59.361328 -48.021133 4.32212
59.223618 11.903868 -31.983774
65.864632 -14.713287 -12.482151
64.710243 -10.394635 -16.921347
63.839989 -5.936949 -21.831251
63.305367 -7.552051 -26.577795
63.161491 -1.369673 -27.03137
66.851677 -17.913645 -4.670265
66.778801 -15.516396 -6.339413
67.524063 -17.110308 -6.536837
64.632828 -34.538555 -4.2103
63.783997 -33.042126 -6.066315
62.631016 -35.541653 -5.510807
68.533524 -46.187855 13.283364
68.496323 -44.850979 10.821667
67.002808 -46.57692 11.722975
65.155899 -47.033932 10.296001
65.320923 -48.344185 12.677906
64.322556 -1.086798 -19.059416
63.759285 0.48698 -18.993235
63.672356 1.308258 -21.586927
62.959152 3.678213 -24.183455
63.344711 1.593655 -24.302916
61.906631 -23.335852 -18.024637
62.276489 -20.234844 -18.499407
62.37822 -21.451777 -20.230139
59.91188 -43.881874 -0.96533
59.678932 -42.871685 -3.048523
58.995049 -45.224663 -2.006855
70.158669 -45.133259 18.976212
70.160881 -45.494293 16.905529
69.90419 -46.531292 19.562229
66.303566 -10.715299 -10.040644
65.489853 -9.328835 -9.926815
65.918221 -8.310637 -12.099409
65.451591 -5.902764 -14.297066
65.704758 -7.809825 -14.420038
68.266129 -25.249479 -5.251139
67.503021 -23.269215 -6.924158
66.850639 -25.622429 -6.896166
62.351936 -30.00993 -9.814346
63.317764 -27.283476 -10.161755
61.885963 -28.44442 -11.76268
61.646065 -26.821552 -13.781019
61.064667 -29.736084 -13.305609
59.63129 -40.756866 -7.146914
60.065842 -38.11554 -8.010296
68.045197 -49.582375 20.972473
66.640518 -51.204353 21.790859
63.621071 -52.542942 18.50576
61.89362 -53.195118 16.997913
61.827255 -51.997009 14.611154
60.212082 -53.885098 15.517117
68.967422 -25.615007 -1.908077
69.123596 -27.815626 -0.29372
70.427704 -33.154926 1.657136
70.074455 -31.206337 -0.202698
69.868149 -33.076073 0.041975
68.560074 -33.283966 -1.458982
69.245407 -35.021793 0.438055
70.542892 -40.111801 10.595083
70.67466 -38.548645 8.14841
70.847008 -40.006798 8.657257
68.032722 -41.998871 6.083841
69.277237 -40.184631 5.284491
67.587715 -40.521553 3.836453
67.002052 -39.02927 1.687129
65.546326 -41.050011 2.516439
63.408585 -41.783966 1.292516
63.989853 -43.067692 3.449984
61.249138 -48.27198 7.700453
60.930687 -47.087608 5.477626
59.587914 -49.091682 6.476374
58.350346 -50.042835 5.29633
58.46085 -51.092743 7.393367
61.262688 8.261147 -29.495821
60.39679 9.806341 -29.346277
60.217323 10.420296 -32.168854
58.994537 12.447752 -34.825027
59.991493 10.495626 -34.991707
65.965813 -19.307405 -10.533207
66.520668 -16.832792 -10.473677
65.270477 -17.303551 -12.524118
63.285683 -14.061043 -19.138762
64.176399 -13.188217 -16.912546
63.805359 -11.058707 -19.288439
64.239838 -8.183664 -19.327829
63.546227 -8.877149 -21.75857
63.247627 -4.388325 -26.885359
62.797363 0.913996 -29.681616
58.319492 -48.286381 1.176268
58.480919 -47.512688 -0.889606
66.594116 -13.11694 -8.12319
66.734161 -12.47135 -10.196491
66.875641 -29.794851 -5.010763
65.966568 -28.057095 -6.753082
64.919998 -30.539711 -6.479525
63.002968 -31.536882 -7.923498
61.455574 -32.732742 -9.34243
58.785618 -55.815033 16.3424
69.169029 -29.980267 1.414013
69.110046 -32.079781 3.259053
70.124687 -33.503624 3.398748
70.638611 -35.046135 3.665154
70.479477 -42.98838 11.753277
70.503677 -41.553307 9.275522
69.694908 -43.172794 10.000082
68.333542 -43.447784 8.417397
66.53273 -43.840118 6.985398
64.486305 -44.376381 5.674238
64.877953 -45.703674 7.959088
63.170959 -47.590279 8.966499
61.510487 -49.504044 9.96365
63.848625 -3.392674 -14.251102
63.414574 -0.913193 -16.589777
62.851837 1.546427 -19.015841
62.163631 3.967701 -21.510717
61.348427 6.328239 -24.055254
62.302711 5.279408 -24.088236
62.165215 6.003992 -26.826975
61.924164 6.199621 -29.633768
63.14064 -20.975729 -14.417677
63.93615 -18.086754 -14.583599
62.848083 -19.092159 -16.596766
62.754105 -17.133772 -18.873953
62.841042 -15.095161 -21.231234
62.129898 -39.273033 -2.828999
61.527847 -38.020947 -4.816271
60.530384 -40.467415 -3.9911
59.571358 -41.840199 -5.106995
69.534805 -40.290241 12.68263
70.348495 -41.523849 13.144729
69.06147 -42.651421 17.987179
70.119965 -42.770004 15.77177
70.619125 -42.865906 13.681895
70.3582 -44.307907 14.300835
69.612839 -45.836288 15.006004
68.460609 -47.436066 15.795167
64.834976 -4.411613 -14.225552
64.916565 -3.493326 -16.622702
64.561172 -3.11234 -19.171206
68.334389 -21.182558 -5.069456
67.880577 -18.967167 -6.719448
67.86264 -21.03619 -6.857355
66.722565 -21.291771 -8.673384
65.197556 -21.902071 -10.510778
65.085922 -26.320164 -8.534065
64.289925 -24.572262 -10.390926
63.628685 -22.796854 -12.348471
62.355507 -23.896029 -14.150843
61.653614 -25.123381 -15.870771
61.025745 -36.748741 -6.780203
60.680851 -35.43808 -8.741892
69.598099 -47.405785 22.271786
69.17038 -48.019562 20.226675
68.293259 -48.573799 18.356667
67.001984 -49.093395 16.656971
65.244064 -51.891918 20.0882
65.35051 -50.797783 17.570196
65.381332 -49.607628 15.101945
63.560722 -50.150608 13.652984
61.703026 -50.756477 12.267102
59.98587 -51.450405 10.905992
58.736961 -54.638386 14.022362
58.670612 -53.434547 11.75514
58.576492 -52.238113 9.544509
67.95475 -21.743752 -3.303665
68.701607 -23.399883 -3.481974
69.038185 -25.242332 -3.592636
68.971481 -27.236591 -3.608341
69.829178 -29.443314 -0.307957
69.583382 -29.226542 -1.943039
68.528976 -29.347027 -3.504616
67.756927 -31.538198 -3.261705
66.718079 -33.77681 -2.867571
65.487312 -36.034073 -2.319555
69.967789 -37.192982 7.748111
70.714935 -36.852634 5.831476
70.646049 -36.688778 4.067082
70.408455 -40.020699 6.886709
70.173943 -38.408745 4.608231
69.787071 -36.736122 2.4569
68.264488 -37.014267 0.988708
66.291809 -37.53154 -0.361473
64.145782 -38.287643 -1.624479
62.77425 -40.52243 -0.797897
61.446796 -42.729561 0.136585
60.226074 -44.903427 1.147603
62.423214 -45.079933 4.451824
60.578705 -45.965652 3.294165
59.161049 -47.036522 2.195846
58.287987 -49.1129 3.233012
67.359924 -16.752205 -8.471382
66.794823 -14.532999 -10.352463
66.208519 -12.303688 -12.376837
64.667221 -15.267439 -14.652569
65.254837 -12.56971 -14.63393
65.622726 -10.058689 -14.546272
65.054779 -7.793775 -16.851885
64.514702 -5.50726 -19.27677
64.002098 -3.201441 -21.799074
63.214149 -9.77467 -24.046835
63.374359 -6.648967 -24.298784
63.492165 -3.660894 -24.407156
63.503464 -0.884224 -24.394846
62.990356 1.42951 -27.040251
62.41983 3.717205 -29.712862
61.738106 5.948853 -32.392242
62.359948 -23.033463 -19.909489
62.142426 -22.393814 -19.127388
62.124153 -23.975501 -18.806738
70.022152 -45.572356 20.337466
69.903672 -44.925928 20.081682
69.894913 -46.271372 20.630474
70.03143 -45.832276 19.26922
70.022152 -45.572356 20.337466
59.762804 -40.176697 -8.160531
59.739244 -41.531759 -7.674655
66.499184 -51.635374 23.118405
67.183647 -50.82642 22.719567
61.096624 -54.687309 18.661541
60.301134 -55.597262 19.103496
61.084271 -54.121855 17.44498
61.905974 -53.760573 18.214475
61.096624 -54.687309 18.661541
68.483272 -28.207784 0.585179
68.550029 -27.08091 -0.238218
58.220331 -48.998178 0.72599
58.057798 -49.320764 1.716209
68.231865 -32.474415 4.210334
68.36964 -31.432917 3.246439
70.109486 -34.456766 4.444683
69.542575 -33.791954 4.334172
69.527374 -34.745096 5.380107
62.654492 -17.703107 -19.828318
62.515297 -18.684308 -18.68668
62.415684 -19.253643 -19.641044
62.69796 -16.683802 -21.006958
62.797573 -16.114466 -20.052594
62.654492 -17.703107 -19.828318
59.336628 -43.078543 -4.597387
59.625145 -42.355942 -4.077759
59.390415 -43.594286 -3.56815
59.474613 -42.597399 -5.630206
59.336628 -43.078543 -4.597387
58.638953 -47.123302 -1.926442
58.553406 -48.293222 -1.320024
69.411953 -40.929468 13.992532
68.737945 -40.382345 13.783518
68.615094 -41.021572 15.093421
68.966645 -43.091387 19.352083
68.322449 -42.547584 19.127402
70.263603 -43.425418 16.037046
70.000675 -43.304062 17.114179
70.144314 -43.959477 17.379455
64.975849 -11.309705 -7.943786
64.907265 -12.542508 -7.011186
64.762459 -7.615768 -10.955267
64.897484 -8.8448 -9.913282
65.354828 -8.099804 -10.968801
64.683811 -6.374465 -12.013674
64.762459 -7.615768 -10.955267
65.027389 -5.641192 -13.118169
64.491398 -5.144886 -13.121057
64.683811 -6.374465 -12.013674
61.465309 -27.272231 -16.408714
61.668486 -25.771583 -16.664169
61.450437 -26.624029 -15.615316
60.402294 -36.143783 -9.376694
60.373346 -36.77681 -8.376094
60.09479 -37.482514 -9.010897
60.612042 -34.754486 -9.730211
60.402294 -36.143783 -9.376694
69.045597 -48.499775 23.978675
68.653477 -49.245171 24.297654
69.222187 -48.147828 22.596141
69.421509 -47.757733 23.65432
69.045597 -48.499775 23.978675
64.40382 -52.753002 20.546444
65.160538 -52.382519 21.375011
58.144071 -53.848783 11.023173
58.142603 -54.446981 12.120336
57.616062 -54.861217 11.388369
57.610622 -53.679735 9.233886
58.090103 -52.667282 8.860537
58.097012 -53.250566 9.917858
67.341896 -23.371902 -1.648865
67.222409 -24.552924 -0.875945
67.985557 -22.89885 -2.528957
67.311089 -22.216805 -2.423573
67.341896 -23.371902 -1.648865
69.869526 -38.00981 8.951303
69.222752 -37.42169 8.775495
69.124489 -38.238518 9.978687
57.614094 -51.560554 5.174164
57.992812 -50.571973 4.746736
57.971629 -51.031416 5.723759
57.41399 -52.487623 5.573679
57.614094 -51.560554 5.174164
61.493656 -1.602934 -15.716461
62.321278 -1.629212 -15.574044
60.906841 8.095617 -26.668671
60.873513 7.465471 -25.342624
61.381756 6.958385 -25.3813
59.262592 11.334081 -30.599291
59.849179 10.285317 -29.280543
59.810204 10.855104 -30.665025
58.633141 12.344541 -31.88616
59.262592 11.334081 -30.599291
58.54802 12.876584 -33.290734
58.633141 12.344541 -31.88616
58.145436 13.371965 -37.536652
58.280476 13.377045 -36.133656
58.859497 12.442672 -36.228023
63.344967 -9.17773 -26.341724
63.507168 -8.071576 -27.58231
63.259758 -8.66336 -25.312315
63.299358 -10.28904 -25.076245
63.344967 -9.17773 -26.341724
62.378402 3.438178 -31.025559
62.608596 2.3156 -29.697239
62.567169 2.036574 -31.009936
62.037541 4.554002 -32.36525
62.078968 4.833029 -31.052552
62.378402 3.438178 -31.025559
66.815239 -16.715021 -5.504839
66.160297 -16.098033 -5.401004
66.196735 -17.296658 -4.56643
69.41761 -35.67866 6.472476
69.527374 -34.745096 5.380107
62.466549 -19.86211 -20.506411
62.415684 -19.253643 -19.641044
62.327354 -20.843311 -19.364773
59.048474 -44.770775 -3.047316
59.390415 -43.594286 -3.56815
59.33699 -44.048174 -2.527689
68.508374 -41.568784 16.427532
68.615094 -41.021572 15.093421
70.020027 -44.48569 18.7164
69.903672 -44.925928 20.081682
70.282955 -44.607046 17.639267
70.144314 -43.959477 17.379455
70.020027 -44.48569 18.7164
59.98008 -38.856034 -8.592222
59.848566 -39.436203 -7.578605
59.762804 -40.176697 -8.160531
60.09479 -37.482514 -9.010897
59.98008 -38.856034 -8.592222
68.286526 -49.669178 23.284385
68.653477 -49.245171 24.297654
68.093727 -50.024479 24.661544
67.885987 -50.015431 22.310374
68.445736 -49.236123 21.946485
68.286526 -49.669178 23.284385
67.342858 -50.393364 21.381666
67.885987 -50.015431 22.310374
67.183647 -50.82642 22.719567
62.769699 -53.434484 18.968398
63.592323 -53.078514 19.755224
62.757345 -52.86903 17.751836
62.769699 -53.434484 18.968398
61.905974 -53.760573 18.214475
57.225335 -56.490932 12.786592
57.606918 -56.05072 13.616523
57.217659 -57.082237 13.917583
57.284859 -55.294085 10.592375
57.616062 -54.861217 11.388369
57.334091 -54.691559 9.541927
57.284859 -55.294085 10.592375
67.996414 -25.20007 -0.968482
67.222409 -24.552924 -0.875945
68.471942 -25.9806 -1.045397
68.491894 -24.834477 -1.831163
67.996414 -25.20007 -0.968482
69.045509 -26.715317 -1.100899
68.471942 -25.9806 -1.045397
68.550029 -27.08091 -0.238218
61.330219 -0.374893 -16.8793
61.866542 0.83738 -17.946392
59.357975 11.466609 -36.311363
58.859497 12.442672 -36.228023
59.493015 11.471689 -34.908367
63.351711 -6.429129 -27.855435
63.507168 -8.071576 -27.58231
63.322841 -4.847266 -28.009217
63.276497 -5.970188 -26.731577
63.351711 -6.429129 -27.855435
63.177566 -3.25358 -28.191116
63.322841 -4.847266 -28.009217
63.134498 -1.744254 -28.264122
63.204559 -2.878999 -26.958365
63.177566 -3.25358 -28.191116
62.952434 -0.602419 -29.589245
62.979427 -0.227838 -28.356493
63.134498 -1.744254 -28.264122
62.840076 0.5205 -30.8983
62.952434 -0.602419 -29.589245
62.567169 2.036574 -31.009936
62.840076 0.5205 -30.8983
58.301045 -48.611332 -0.306948
58.400205 -47.899535 0.143331
58.220331 -48.998178 0.72599
58.553406 -48.293222 -1.320024
58.301045 -48.611332 -0.306948
65.644848 -13.008883 -7.070607
64.907265 -12.542508 -7.011186
66.216144 -14.875287 -6.250907
66.160297 -16.098033 -5.401004
66.123802 -13.675559 -7.142796
66.216144 -14.875287 -6.250907
66.686459 -14.316668 -7.231301
66.115162 -12.450264 -8.051001
65.644848 -13.008883 -7.070607
66.123802 -13.675559 -7.142796
59.555364 -55.994682 18.302437
60.301134 -55.597262 19.103496
58.810713 -56.377903 17.527614
59.53027 -55.431812 17.117223
59.555364 -55.994682 18.302437
58.188339 -56.799052 16.705375
58.810713 -56.377903 17.527614
57.595152 -57.212547 15.907932
58.192431 -56.228529 15.544958
58.188339 -56.799052 16.705375
57.16074 -57.660646 15.051699
57.595152 -57.212547 15.907932
57.217659 -57.082237 13.917583
57.16074 -57.660646 15.051699
68.399131 -30.38316 2.323918
68.505989 -29.290104 1.439045
69.139537 -31.030024 2.336533
68.399131 -30.38316 2.323918
68.36964 -31.432917 3.246439
69.035255 -33.080033 4.264324
68.231865 -32.474415 4.210334
69.617367 -32.791702 3.328901
69.035255 -33.080033 4.264324
69.542575 -33.791954 4.334172
63.179386 -3.130773 -14.327938
63.288612 -4.373357 -13.200771
62.962361 -1.891033 -15.497276
63.179386 -3.130773 -14.327938
63.6316 -2.152934 -15.42044
62.773491 -0.651373 -16.666546
62.321278 -1.629212 -15.574044
62.962361 -1.891033 -15.497276
62.226257 1.80537 -19.082655
61.866542 0.83738 -17.946392
62.492123 0.578437 -17.879578
61.882154 3.016007 -20.330093
62.226257 1.80537 -19.082655
62.507734 2.757064 -20.263279
61.541319 4.21809 -21.558458
61.259842 3.266396 -20.377834
61.882154 3.016007 -20.330093
61.756029 5.14797 -22.782986
61.133717 5.398359 -22.830727
61.541319 4.21809 -21.558458
59.504579 -42.055733 -6.650166
59.601324 -41.298533 -6.126955
59.474613 -42.597399 -5.630206
59.739244 -41.531759 -7.674655
59.504579 -42.055733 -6.650166
58.896017 -45.97929 -2.485066
58.737984 -46.368675 -1.44823
58.638953 -47.123302 -1.926442
59.048474 -44.770775 -3.047316
58.896017 -45.97929 -2.485066
68.986004 -38.995815 11.222416
69.124489 -38.238518 9.978687
68.867775 -39.727617 12.486483
68.737945 -40.382345 13.783518
69.653034 -39.558439 11.418563
68.986004 -38.995815 11.222416
68.867775 -39.727617 12.486483
68.394558 -42.110147 17.769904
68.322449 -42.547584 19.127402
69.175286 -42.110058 16.644807
68.508374 -41.568784 16.427532
68.394558 -42.110147 17.769904
69.471428 -43.244771 18.221884
68.966645 -43.091387 19.352083
69.376603 -43.684736 19.586789
69.590717 -42.710712 16.879475
69.471428 -43.244771 18.221884
70.000675 -43.304062 17.114179
64.902672 -10.082328 -8.917787
64.975849 -11.309705 -7.943786
65.56303 -10.556211 -8.952814
64.310303 -9.598293 -8.904254
64.902672 -10.082328 -8.917787
64.897484 -8.8448 -9.913282
63.998222 -4.635416 -13.133832
63.288612 -4.373357 -13.200771
64.341801 -3.902144 -14.238327
63.998222 -4.635416 -13.133832
64.491398 -5.144886 -13.121057
61.794994 -24.877819 -17.741102
61.780122 -24.229616 -16.947704
61.668486 -25.771583 -16.664169
62.124153 -23.975501 -18.806738
61.794994 -24.877819 -17.741102
60.999403 -33.401817 -10.03048
61.068213 -34.085411 -9.042161
60.612042 -34.754486 -9.730211
60.841881 -32.668771 -11.009521
61.298052 -31.999696 -10.321471
60.999403 -33.401817 -10.03048
60.894703 -31.948583 -12.010391
60.841881 -32.668771 -11.009521
60.856772 -31.1833 -13.012939
61.102598 -30.501368 -12.303061
60.894703 -31.948583 -12.010391
61.039215 -30.419506 -14.027422
60.856772 -31.1833 -13.012939
61.130512 -29.613802 -15.054548
61.155964 -28.93038 -14.332735
61.039215 -30.419506 -14.027422
61.438183 -28.80152 -16.080434
61.130512 -29.613802 -15.054548
61.465309 -27.272231 -16.408714
61.438183 -28.80152 -16.080434
69.59441 -47.056744 23.370548
69.421509 -47.757733 23.65432
69.741867 -46.708619 21.985253
69.59441 -47.056744 23.370548
69.751145 -46.968539 20.917007
69.894913 -46.271372 20.630474
69.741867 -46.708619 21.985253
65.858765 -52.038736 22.226341
66.499184 -51.635374 23.118405
65.942291 -51.548136 20.939529
65.858765 -52.038736 22.226341
65.160538 -52.382519 21.375011
64.432568 -52.21743 19.29698
64.40382 -52.753002 20.546444
63.592323 -53.078514 19.755224
58.175777 -55.048901 13.253947
58.168102 -55.640205 14.384939
57.606918 -56.05072 13.616523
58.703786 -54.036467 12.888751
58.175777 -55.048901 13.253947
58.142603 -54.446981 12.120336
58.032282 -52.094597 7.784966
58.518671 -51.665428 8.468938
58.090103 -52.667282 8.860537
57.598312 -52.558224 7.163876
58.026881 -51.55637 6.772277
58.032282 -52.094597 7.784966
57.610622 -53.679735 9.233886
57.334091 -54.691559 9.541927
57.363058 -52.992227 6.48298
57.598312 -52.558224 7.163876
57.41399 -52.487623 5.573679
57.363058 -52.992227 6.48298
66.07986 -18.51565 -3.76209
66.196735 -17.296658 -4.56643
66.832119 -19.11013 -3.87767
66.07986 -18.51565 -3.76209
67.301045 -19.867093 -3.983935
67.320603 -18.670607 -4.77653
66.832119 -19.11013 -3.87767
67.383656 -21.025184 -3.19437
67.311089 -22.216805 -2.423573
67.872139 -20.585661 -4.09323
67.301045 -19.867093 -3.983935
67.383656 -21.025184 -3.19437
69.146312 -28.897947 0.560146
68.483272 -28.207784 0.585179
68.505989 -29.290104 1.439045
69.354363 -36.570197 7.601223
69.222752 -37.42169 8.775495
70.031036 -36.301445 6.619364
69.41761 -35.67866 6.472476
69.354363 -36.570197 7.601223
58.042046 -49.734024 2.744581
58.057798 -49.320764 1.716209
58.303739 -48.699641 2.20464
57.961632 -50.107006 3.715077
58.319167 -49.577867 4.264671
57.992812 -50.571973 4.746736
58.042046 -49.734024 2.744581
57.961632 -50.107006 3.715077
61.493656 -1.602934 -15.716461
61.330219 -0.374893 -16.8793
60.718457 6.562119 -24.075701
61.133717 5.398359 -22.830727
60.718457 6.562119 -24.075701
60.873513 7.465471 -25.342624
60.397694 9.204522 -27.988136
60.906841 8.095617 -26.668671
60.905938 8.697436 -28.026812
60.397694 9.204522 -27.988136
59.849179 10.285317 -29.280543
58.433479 13.148526 -34.71136
58.54802 12.876584 -33.290734
59.109077 12.17581 -33.404401
58.433479 13.148526 -34.71136
58.280476 13.377045 -36.133656
62.772221 -22.082791 -20.986894
62.359948 -23.033463 -19.909489
62.697747 -20.462708 -21.351927
62.772221 -22.082791 -20.986894
62.466549 -19.86211 -20.506411
62.697747 -20.462708 -21.351927
62.916863 -15.659029 -22.17383
62.69796 -16.683802 -21.006958
62.955761 -14.037653 -22.439758
62.916863 -15.659029 -22.17383
63.130707 -12.464652 -22.604025
63.015988 -13.52216 -21.395501
62.955761 -14.037653 -22.439758
63.142314 -11.377408 -23.847559
63.299358 -10.28904 -25.076245
63.202541 -10.861914 -22.803301
63.130707 -12.464652 -22.604025
63.142314 -11.377408 -23.847559
61.725327 5.638454 -33.688236
62.037541 4.554002 -32.36525
61.312868 7.018479 -33.726059
61.725327 5.638454 -33.688236
60.966181 8.245666 -33.689636
61.391419 7.17604 -32.35582
61.312868 7.018479 -33.726059
60.439561 9.291866 -35.025791
60.518112 9.449426 -33.655552
60.966181 8.245666 -33.689636
59.90398 10.294868 -36.345062
60.439561 9.291866 -35.025791
59.357975 11.466609 -36.311363
59.90398 10.294868 -36.345062
3 0 72 70
3 1 75 73
3 2 78 76
3 2 80 78
3 3 83 81
3 3 85 83
3 271 88 272
3 273 272 86
3 271 272 273
3 4 91 89
3 274 92 275
3 276 94 277
3 278 277 92
3 276 277 278
3 6 97 95
3 6 99 97
3 7 102 100
3 9 105 103
3 9 107 105
3 280 279 108
3 281 111 282
3 10 283 284
3 10 285 287
3 285 113 286
3 285 286 287
3 10 115 113
3 288 117 289
3 12 120 118
3 12 122 120
3 5 125 123
3 13 128 126
3 13 130 128
3 13 132 130
3 11 135 133
3 11 137 135
3 14 140 138
3 14 142 140
3 8 145 143
3 15 148 146
3 15 150 148
3 291 290 153
3 17 155 71
3 17 156 155
3 18 159 157
3 20 160 74
3 20 161 160
3 292 164 293
3 23 294 296
3 294 165 295
3 294 295 296
3 23 166 165
3 24 169 167
3 26 170 77
3 26 171 170
3 26 173 171
3 28 174 79
3 28 175 174
3 29 177 176
3 31 178 82
3 31 179 178
3 31 181 179
3 33 182 84
3 33 183 182
3 34 186 184
3 297 187 298
3 299 298 87
3 297 298 299
3 300 188 301
3 302 301 187
3 300 301 302
3 36 191 189
3 303 192 304
3 305 304 90
3 303 304 305
3 307 306 192
3 309 308 154
3 39 310 312
3 310 193 311
3 310 311 312
3 39 194 193
3 313 195 314
3 40 315 317
3 315 196 316
3 315 316 317
3 40 197 196
3 40 198 197
3 41 199 93
3 41 200 199
3 16 318 319
3 42 320 322
3 322 321 96
3 320 321 322
3 42 323 324
3 42 325 327
3 325 201 326
3 325 326 327
3 43 202 98
3 43 203 202
3 44 206 204
3 46 207 101
3 46 208 207
3 19 209 158
3 47 210 104
3 47 211 210
3 47 212 211
3 48 213 106
3 48 328 330
3 330 329 213
3 328 329 330
3 37 214 190
3 331 215 332
3 333 332 109
3 331 332 333
3 335 334 215
3 49 336 337
3 49 338 340
3 338 216 339
3 338 339 340
3 49 217 216
3 50 218 110
3 50 219 218
3 341 220 342
3 51 221 112
3 51 222 221
3 51 223 222
3 52 224 114
3 52 225 224
3 21 226 162
3 53 343 345
3 343 227 344
3 343 344 345
3 53 228 227
3 53 346 348
3 348 347 228
3 346 347 348
3 55 349 350
3 55 351 353
3 351 229 352
3 351 352 353
3 55 230 229
3 56 231 116
3 56 232 231
3 22 233 163
3 57 234 119
3 57 235 234
3 57 236 235
3 58 237 121
3 58 238 237
3 38 354 356
3 354 239 355
3 354 355 356
3 59 240 124
3 59 241 240
3 25 242 168
3 60 243 127
3 60 244 243
3 60 245 244
3 61 246 129
3 61 247 246
3 61 248 247
3 62 249 131
3 62 250 249
3 27 251 172
3 63 252 134
3 63 253 252
3 63 254 253
3 54 357 359
3 359 358 136
3 357 358 359
3 54 360 361
3 30 362 363
3 32 364 366
3 366 365 180
3 364 365 366
3 64 367 369
3 369 368 139
3 367 368 369
3 64 370 371
3 64 372 373
3 376 375 141
3 374 375 376
3 45 255 205
3 65 256 144
3 65 257 256
3 35 258 185
3 66 259 147
3 66 260 259
3 66 261 260
3 67 262 149
3 67 263 262
3 68 377 378
3 68 379 381
3 379 264 380
3 379 380 381
3 68 265 264
3 69 266 151
3 69 267 266
3 69 268 267
3 382 269 383
3 384 383 152
3 382 383 384
3 385 270 386
3 387 386 269
3 385 386 387
3 70 388 390
3 388 71 389
3 388 389 390
3 72 71 70
3 72 17 71
3 73 74 18
3 75 74 73
3 75 20 74
3 391 23 392
3 76 77 24
3 78 77 76
3 78 26 77
3 78 79 26
3 80 79 78
3 80 28 79
3 81 82 29
3 83 82 81
3 83 31 82
3 83 84 31
3 85 84 83
3 85 33 84
3 86 87 34
3 88 87 86
3 88 393 395
3 395 394 87
3 393 394 395
3 89 90 36
3 91 90 89
3 91 396 398
3 398 397 90
3 396 397 398
3 399 39 400
3 92 401 402
3 92 403 405
3 403 40 404
3 403 404 405
3 92 93 40
3 94 93 92
3 94 41 93
3 95 96 16
3 97 96 95
3 97 42 96
3 97 98 42
3 99 98 97
3 99 43 98
3 100 101 44
3 102 101 100
3 102 46 101
3 103 104 19
3 105 104 103
3 105 47 104
3 105 106 47
3 107 106 105
3 107 48 106
3 108 109 37
3 406 109 407
3 408 407 108
3 406 407 408
3 410 409 109
3 411 49 412
3 411 412 413
3 414 110 415
3 416 415 49
3 414 415 416
3 111 417 419
3 417 110 418
3 417 418 419
3 111 50 110
3 420 112 421
3 113 422 424
3 422 112 423
3 422 423 424
3 113 51 112
3 113 114 51
3 115 114 113
3 115 52 114
3 427 426 21
3 425 426 427
3 428 53 429
3 431 430 53
3 432 55 433
3 434 116 435
3 436 435 55
3 434 435 436
3 117 437 439
3 437 116 438
3 437 438 439
3 117 56 116
3 118 119 22
3 120 119 118
3 120 57 119
3 120 121 57
3 122 121 120
3 122 58 121
3 123 124 38
3 125 124 123
3 125 59 124
3 126 127 25
3 128 127 126
3 128 60 127
3 128 129 60
3 130 129 128
3 130 61 129
3 130 131 61
3 132 131 130
3 132 62 131
3 133 134 27
3 135 134 133
3 135 63 134
3 135 136 63
3 137 136 135
3 137 54 136
3 441 440 30
3 138 139 32
3 140 139 138
3 140 64 139
3 140 141 64
3 142 141 140
3 142 442 444
3 444 443 141
3 442 443 444
3 143 144 45
3 145 144 143
3 145 65 144
3 146 147 35
3 148 147 146
3 148 66 147
3 148 149 66
3 150 149 148
3 150 67 149
3 445 68 446
3 447 151 448
3 449 448 68
3 447 448 449
3 450 151 451
3 452 69 453
3 454 453 151
3 452 453 454
3 455 152 456
3 457 456 69
3 455 456 457
3 458 152 459
3 461 460 152
3 153 154 4
3 462 154 463
3 464 463 153
3 462 463 464
3 466 465 154
3 467 16 468
3 71 469 470
3 155 471 473
3 473 472 71
3 471 472 473
3 155 474 476
3 474 16 475
3 474 475 476
3 155 95 16
3 156 95 155
3 156 6 95
3 157 158 7
3 159 158 157
3 159 19 158
3 74 159 18
3 160 159 74
3 160 19 159
3 160 103 19
3 161 103 160
3 161 9 103
3 477 10 478
3 479 162 480
3 481 480 10
3 479 480 481
3 482 162 483
3 484 21 485
3 486 485 162
3 484 485 486
3 487 21 488
3 490 489 21
3 491 163 492
3 164 493 495
3 493 163 494
3 493 494 495
3 164 22 163
3 496 164 497
3 165 498 500
3 498 164 499
3 498 499 500
3 165 22 164
3 165 118 22
3 166 118 165
3 166 12 118
3 167 168 5
3 169 168 167
3 169 25 168
3 77 169 24
3 170 169 77
3 170 25 169
3 170 126 25
3 171 126 170
3 171 13 126
3 171 172 13
3 173 172 171
3 173 27 172
3 79 173 26
3 174 173 79
3 174 27 173
3 174 133 27
3 175 133 174
3 175 11 133
3 176 501 502
3 177 503 505
3 505 504 176
3 503 504 505
3 177 506 508
3 506 30 507
3 506 507 508
3 82 177 29
3 178 177 82
3 178 30 177
3 178 509 511
3 511 510 30
3 509 510 511
3 179 512 514
3 514 513 178
3 512 513 514
3 179 515 517
3 515 516 517
3 179 518 520
3 518 180 519
3 518 519 520
3 181 180 179
3 181 32 180
3 84 181 31
3 182 181 84
3 182 32 181
3 182 138 32
3 183 138 182
3 183 14 138
3 184 185 8
3 186 185 184
3 186 35 185
3 87 186 34
3 187 186 87
3 187 35 186
3 187 146 35
3 188 146 187
3 188 15 146
3 189 190 1
3 191 190 189
3 191 37 190
3 90 191 36
3 192 191 90
3 192 37 191
3 192 108 37
3 521 108 522
3 523 522 192
3 521 522 523
3 525 524 108
3 154 91 4
3 526 91 527
3 528 527 154
3 526 527 528
3 530 529 91
3 531 38 532
3 193 533 534
3 193 535 537
3 535 38 536
3 535 536 537
3 193 123 38
3 194 123 193
3 194 5 123
3 195 538 539
3 195 540 542
3 540 39 541
3 540 541 542
3 543 195 544
3 543 544 545
3 196 546 548
3 546 195 547
3 546 547 548
3 196 39 195
3 196 194 39
3 197 194 196
3 197 5 194
3 197 167 5
3 198 167 197
3 198 24 167
3 93 198 40
3 199 198 93
3 199 24 198
3 199 76 24
3 200 76 199
3 200 2 76
3 96 549 551
3 551 550 16
3 549 550 551
3 554 553 96
3 552 553 554
3 555 176 556
3 201 557 559
3 557 176 558
3 557 558 559
3 201 29 176
3 98 201 42
3 202 201 98
3 202 29 201
3 202 81 29
3 203 81 202
3 203 3 81
3 204 205 0
3 206 205 204
3 206 45 205
3 101 206 44
3 207 206 101
3 207 45 206
3 207 143 45
3 208 143 207
3 208 8 143
3 158 102 7
3 209 102 158
3 209 46 102
3 104 209 19
3 210 209 104
3 210 46 209
3 210 208 46
3 211 208 210
3 211 8 208
3 211 184 8
3 212 184 211
3 212 34 184
3 106 212 47
3 213 212 106
3 213 34 212
3 213 86 34
3 560 86 561
3 562 561 213
3 560 561 562
3 564 563 86
3 190 75 1
3 214 75 190
3 214 20 75
3 109 214 37
3 215 214 109
3 215 20 214
3 215 161 20
3 565 161 566
3 567 566 215
3 565 566 567
3 568 9 569
3 570 569 161
3 568 569 570
3 571 9 572
3 573 107 574
3 575 574 9
3 573 574 575
3 576 107 577
3 578 48 579
3 580 579 107
3 578 579 580
3 581 48 582
3 584 583 48
3 216 585 586
3 216 587 588
3 216 589 591
3 589 94 590
3 589 590 591
3 217 94 216
3 217 41 94
3 110 217 49
3 218 217 110
3 218 41 217
3 218 200 41
3 219 200 218
3 219 2 200
3 592 111 593
3 220 594 596
3 594 111 595
3 594 595 596
3 220 50 111
3 112 597 599
3 597 220 598
3 597 598 599
3 221 220 112
3 221 50 220
3 221 219 50
3 222 219 221
3 222 2 219
3 222 80 2
3 223 80 222
3 223 28 80
3 114 223 51
3 224 223 114
3 224 28 223
3 224 175 28
3 225 175 224
3 225 11 175
3 162 115 10
3 226 115 162
3 226 52 115
3 600 226 601
3 602 601 21
3 600 601 602
3 227 603 605
3 603 226 604
3 603 604 605
3 227 52 226
3 227 225 52
3 228 225 227
3 228 11 225
3 228 137 11
3 606 137 607
3 608 607 228
3 606 607 608
3 609 54 610
3 611 610 137
3 609 610 611
3 613 612 53
3 614 54 615
3 617 616 54
3 618 70 619
3 620 70 621
3 622 0 623
3 624 623 70
3 622 623 624
3 229 625 626
3 229 627 629
3 627 0 628
3 627 628 629
3 229 204 0
3 230 204 229
3 230 44 204
3 116 230 55
3 231 230 116
3 231 44 230
3 231 100 44
3 232 100 231
3 232 7 100
3 163 630 632
3 630 117 631
3 630 631 632
3 233 117 163
3 233 56 117
3 119 233 22
3 234 233 119
3 234 56 233
3 234 232 56
3 235 232 234
3 235 7 232
3 235 157 7
3 236 157 235
3 236 18 157
3 121 236 57
3 237 236 121
3 237 18 236
3 237 73 18
3 238 73 237
3 238 1 73
3 239 633 634
3 239 635 637
3 635 23 636
3 635 636 637
3 124 239 38
3 240 239 124
3 240 23 239
3 240 166 23
3 241 166 240
3 241 12 166
3 168 125 5
3 242 125 168
3 242 59 125
3 127 242 25
3 243 242 127
3 243 59 242
3 243 241 59
3 244 241 243
3 244 12 241
3 244 122 12
3 245 122 244
3 245 58 122
3 129 245 60
3 246 245 129
3 246 58 245
3 246 238 58
3 247 238 246
3 247 1 238
3 247 189 1
3 248 189 247
3 248 36 189
3 131 248 61
3 249 248 131
3 249 36 248
3 249 89 36
3 250 89 249
3 250 4 89
3 172 132 13
3 251 132 172
3 251 62 132
3 134 251 27
3 252 251 134
3 252 62 251
3 252 250 62
3 253 250 252
3 253 4 250
3 253 153 4
3 254 153 253
3 254 638 640
3 640 639 153
3 638 639 640
3 136 254 63
3 641 254 642
3 643 642 136
3 641 642 643
3 645 644 254
3 647 646 30
3 180 648 649
3 651 650 180
3 139 652 654
3 654 653 32
3 652 653 654
3 656 655 139
3 141 657 659
3 659 658 64
3 657 658 659
3 661 660 141
3 205 72 0
3 255 72 205
3 255 17 72
3 144 255 45
3 256 255 144
3 256 17 255
3 256 156 17
3 257 156 256
3 257 6 156
3 185 145 8
3 258 145 185
3 258 65 145
3 147 258 35
3 259 258 147
3 259 65 258
3 259 257 65
3 260 257 259
3 260 6 257
3 260 99 6
3 261 99 260
3 261 43 99
3 149 261 66
3 262 261 149
3 262 43 261
3 262 203 43
3 263 203 262
3 263 3 203
3 662 88 663
3 664 88 665
3 667 666 88
3 668 188 669
3 670 188 671
3 672 15 673
3 674 673 188
3 672 673 674
3 264 675 676
3 264 677 679
3 677 15 678
3 677 678 679
3 264 150 15
3 265 150 264
3 265 67 150
3 151 265 68
3 266 265 151
3 266 67 265
3 266 263 67
3 267 263 266
3 267 3 263
3 267 85 3
3 268 85 267
3 268 33 85
3 152 268 69
3 269 268 152
3 269 33 268
3 269 183 33
3 270 183 269
3 270 14 183
3 680 270 681
3 682 270 683
3 684 14 685
3 686 685 270
3 684 685 686
3 687 142 688
3 689 688 14
3 687 688 689
3 690 142 691
3 693 692 142
