ply
format ascii 1.0
element vertex 410
property float x
property float y
property float z
element face 417
property list uchar int vertex_index
end_header
-1.347937 56.535416 -10.884073
0.287195 54.229294 14.779689
1.485544 47.925331 27.065704
-4.670412 39.688534 -14.200459
-3.30654 35.183372 -24.032366
-5.041265 44.002415 10.154436
-0.696503 57.159447 1.810526
2.266714 69.300064 -3.830549
0.487524 41.364658 29.968483
-3.441458 50.145958 -6.92811
-5.300539 41.854637 -8.510181
-3.287683 48.695206 -12.907389
-3.091448 46.993805 -18.492838
-1.650404 55.495735 -16.803247
-1.441568 47.585472 18.319355
-4.083036 42.669525 16.306097
-2.306288 49.692497 12.117985
-2.988646 50.854851 5.759041
-0.244209 56.180031 8.330876
2.716845 68.331253 2.85067
-0.492823 44.721798 24.300434
0.870848 51.417725 21.060843
-6.335913 32.298393 -9.794033
-4.001661 37.406876 -19.421984
-3.376993 50.972878 -0.648504
-1.053736 57.200272 -4.645496
2.093412 57.816711 18.423006
1.872847 60.498238 11.856041
1.600449 62.289001 5.209222
1.220146 63.187943 -1.407177
0.693953 63.343933 -7.872835
-2.333799 53.347878 -8.991837
-3.380766 49.473457 -9.963095
-2.365408 52.754906 -12.008228
-2.391176 52.086098 -14.934671
-1.494223 56.043968 -13.887289
-0.588524 50.963318 16.484455
-1.88933 48.746414 15.242553
-0.94953 52.094185 13.34024
-1.284464 52.998787 10.155321
0.013485 55.321281 11.570832
0.990978 44.674843 28.439642
-0.003511 43.082428 27.182476
0.585905 46.448486 25.574833
0.183834 48.113045 22.614086
1.176294 49.742287 24.107464
-5.001261 40.806412 -11.409697
-5.922564 37.228859 -9.161236
-5.524294 36.009575 -11.992489
-5.098448 34.741478 -14.707134
-4.664438 33.467743 -17.295759
-4.333261 38.545464 -16.874804
-3.007318 46.120621 -21.115263
-4.599401 43.454647 13.25419
-5.358316 39.773987 15.458668
-5.858351 40.355572 12.40955
-5.384844 44.290859 7.016365
-1.837442 54.06395 3.707608
-3.224424 51.044044 2.551459
-2.038343 54.213432 0.476505
-2.184031 54.122063 -2.731815
-0.886398 57.287056 -1.435526
2.199242 56.166115 21.643198
2.510454 62.361969 14.01796
1.746716 61.507965 8.536106
2.388525 64.538101 7.296773
2.531881 68.899757 -0.50868
2.096403 65.852638 0.597277
1.863707 66.217049 -2.711138
0.976227 63.343643 -4.665852
1.569513 66.418785 -5.97578
-3.766729 31.001934 -22.0208
0.967831 39.636753 32.634373
1.387182 42.851292 31.176252
-4.58568 46.884552 -4.727907
-4.465918 46.160851 -7.783976
-4.282682 45.295547 -10.752481
-4.065035 44.341743 -13.620892
-3.839441 43.345207 -16.381716
-3.185743 47.857452 -15.752819
-2.424189 51.376274 -17.76491
-2.228003 44.091564 20.252853
-3.516455 41.671902 19.305584
-2.755613 45.270691 17.243265
-3.251757 46.248703 14.181438
-3.69837 47.000771 11.072156
-4.074751 47.504349 7.923113
-2.677999 50.401276 8.953188
-1.5837 53.659081 6.93989
-0.481997 56.793694 5.07225
-0.560564 39.632614 28.908064
-1.124487 41.23872 26.094208
-1.681803 42.737606 23.205526
-0.973789 46.23455 21.341606
-0.209023 49.628006 19.579136
0.573729 52.921318 17.946762
-4.225809 32.216736 -19.74299
-3.668577 36.286221 -21.820498
-3.622164 42.337559 -19.027052
-3.412584 41.333309 -21.540731
-4.782438 38.96833 18.453808
-4.361383 47.742683 4.747204
-3.446222 50.66153 -3.816458
-2.278788 53.819557 -5.894688
-1.204496 56.935249 -7.800114
1.93593 51.137459 25.852264
1.728184 52.97673 22.794424
1.523623 54.64669 19.659843
1.323967 56.126617 16.467333
2.536304 60.948898 17.353708
1.986214 59.264641 15.155945
1.128433 57.398941 13.231035
0.935217 58.448448 9.963038
0.7423 59.263725 6.675525
0.547623 59.840309 3.382384
2.2691 65.299232 3.937647
1.426908 62.844482 1.889652
0.348906 60.184105 0.09984
0.143326 60.313416 -3.154217
-0.072615 60.2584 -6.362234
-0.30279 60.057213 -9.509426
0.375572 63.223938 -11.017952
-0.550261 59.749519 -12.585344
-5.648603 42.345408 9.733605
-6.057146 40.521986 10.861162
-5.449808 42.178994 11.281993
-5.213055 44.146637 8.585401
-5.820393 42.489629 8.16457
-5.648603 42.345408 9.733605
2.629351 65.576339 8.468642
2.426767 64.048839 8.979012
-3.279743 32.504323 -24.058808
-3.509838 30.413604 -23.053024
-3.536634 33.092653 -23.026583
1.192521 38.814787 33.897116
0.762685 37.975309 33.446829
1.728234 43.454674 31.874065
1.570812 41.960272 32.457179
1.588091 44.430296 30.540093
1.728234 43.454674 31.874065
-1.732815 55.203159 -18.213592
-2.119708 53.143428 -18.694424
-2.037297 53.436005 -17.284078
-0.03652 40.498636 29.438274
-0.278252 38.801021 30.27077
0.245791 39.667043 30.80098
-5.782453 40.100021 -7.366953
-5.4188 42.316986 -7.011602
-6.549017 32.94671 -8.353428
-6.342342 35.411943 -8.03703
-6.129238 34.763626 -9.477635
-6.692621 30.426786 -8.711892
-6.549017 32.94671 -8.353428
-6.449103 29.696254 -10.128408
-6.692621 30.426786 -8.711892
-3.164831 43.285028 -22.56752
-3.209951 43.726965 -21.327997
-2.962198 45.678685 -22.354786
-3.301139 40.832248 -22.715896
-3.164831 43.285028 -22.56752
-5.664854 37.876492 16.554274
-5.938392 38.178177 15.054727
-3.960512 49.341328 0.457488
-3.884228 49.376911 2.05747
-3.300708 51.008461 0.951477
-3.997038 49.193878 -1.126142
-3.960512 49.341328 0.457488
-3.411608 50.817204 -2.232481
-4.031652 49.038204 -2.710119
-3.997038 49.193878 -1.126142
2.120775 52.731644 25.325877
2.173252 51.724213 26.86104
2.016902 53.65128 23.796957
1.832057 52.057095 24.323344
2.120775 52.731644 25.325877
2.680017 62.506851 16.899607
2.649417 61.711258 18.587043
2.492973 66.815243 3.394159
2.547529 66.436699 5.08758
2.771402 67.952709 4.544092
0.201724 63.119243 -12.556041
0.598992 64.837414 -11.678576
-0.261192 61.382034 -13.339737
-0.087344 61.486728 -11.801648
0.201724 63.119243 -12.556041
-0.682594 59.559173 -14.08421
-0.261192 61.382034 -13.339737
-5.692503 33.466249 -12.277311
-6.098313 31.610658 -11.178083
-5.930103 34.153984 -10.893261
-5.47958 32.832201 -13.634634
-5.692503 33.466249 -12.277311
-5.311371 35.375526 -13.349812
-5.228327 32.132086 -14.956555
-5.47958 32.832201 -13.634634
-4.881443 34.10461 -16.001447
-5.011322 31.495219 -16.250867
-5.228327 32.132086 -14.956555
-2.736957 48.382206 -20.802343
-3.049383 46.557213 -19.80405
-2.779022 48.818798 -19.491131
-2.755831 48.004635 -22.101352
-2.736957 48.382206 -20.802343
-2.48547 50.26622 -21.788433
-2.710711 47.562698 -23.340875
-2.962198 45.678685 -22.354786
-2.755831 48.004635 -22.101352
-6.18841 38.46897 13.530168
-5.938392 38.178177 15.054727
-5.608334 40.06478 13.934109
-6.409738 38.652783 12.002985
-6.18841 38.46897 13.530168
-6.409738 38.652783 12.002985
-6.057146 40.521986 10.861162
-5.956991 42.521499 6.598773
-5.820393 42.489629 8.16457
-5.498015 44.298243 5.436222
-5.956991 42.521499 6.598773
2.381383 56.833767 22.773528
2.252431 55.245972 23.221344
2.375596 57.7463 21.148788
2.381383 56.833767 22.773528
2.32268 58.571598 19.538691
2.146327 56.991413 20.033102
2.375596 57.7463 21.148788
2.687349 63.903686 13.53273
2.667092 63.213386 15.231732
2.487732 62.960774 12.339606
2.687349 63.903686 13.53273
2.168928 62.028908 11.258646
2.191651 61.430104 12.937
2.487732 62.960774 12.339606
2.105863 62.533772 9.598679
1.809781 61.003101 10.196074
2.168928 62.028908 11.258646
2.06762 63.023033 7.91644
2.105863 62.533772 9.598679
2.426767 64.048839 8.979012
-3.730612 28.264213 -22.115895
-4.029146 28.902672 -21.039907
-3.730612 28.264213 -22.115895
-3.509838 30.413604 -23.053024
0.485945 38.803091 32.133924
0.762685 37.975309 33.446829
0.727677 40.500705 31.301428
0.245791 39.667043 30.80098
0.485945 38.803091 32.133924
1.361136 40.353003 33.186239
1.192521 38.814787 33.897116
1.585826 39.531036 34.448982
1.177507 41.244022 31.905313
1.361136 40.353003 33.186239
1.570812 41.960272 32.457179
1.389989 45.342072 29.171788
1.18908 43.763068 29.807947
1.588091 44.430296 30.540093
1.637272 46.967315 28.484819
1.238261 46.300087 27.752673
1.389989 45.342072 29.171788
-5.061371 44.831944 -5.120465
-5.133352 45.204988 -3.582002
-5.00149 44.470093 -6.648499
-5.061371 44.831944 -5.120465
-4.525799 46.522701 -6.255942
-4.883228 44.007744 -8.147078
-5.4188 42.316986 -7.011602
-5.00149 44.470093 -6.648499
-2.445393 51.010033 -19.127167
-2.779022 48.818798 -19.491131
-2.757818 49.18504 -18.128874
-2.140912 52.777187 -20.056681
-2.445393 51.010033 -19.127167
-2.119708 53.143428 -18.694424
-2.872229 42.881733 19.779218
-3.218351 41.07948 20.778005
-2.574126 42.28931 21.25164
2.88912 69.484398 4.093675
2.771402 67.952709 4.544092
2.835335 69.867199 2.386923
2.88912 69.484398 4.093675
2.742853 70.151451 0.707248
2.624363 68.615505 1.170995
2.835335 69.867199 2.386923
2.643279 70.448089 -0.983013
2.742853 70.151451 0.707248
2.510695 70.648243 -2.643947
2.399297 69.09991 -2.169614
2.643279 70.448089 -0.983013
-3.088879 34.636781 -25.017595
-3.109967 37.251305 -25.03001
-0.812426 37.861795 29.813339
-0.278252 38.801021 30.27077
-1.124654 38.648016 28.43567
-0.812426 37.861795 29.813339
-1.406616 39.451069 27.028742
-1.124654 38.648016 28.43567
-0.842526 40.435667 27.501136
-1.716515 40.189876 25.616104
-1.406616 39.451069 27.028742
-1.995173 40.939319 24.171763
-1.716515 40.189876 25.616104
-1.403145 41.988163 24.649867
-2.301025 41.612331 22.727976
-1.995173 40.939319 24.171763
-1.954903 43.414585 21.72919
-2.574126 42.28931 21.25164
-2.301025 41.612331 22.727976
-6.093466 37.787132 -7.69248
-5.782453 40.100021 -7.366953
-5.611552 39.541748 -8.835708
-6.093466 37.787132 -7.69248
-6.342342 35.411943 -8.03703
-6.449103 29.696254 -10.128408
-6.098313 31.610658 -11.178083
-4.751062 30.803974 -17.504003
-5.011322 31.495219 -16.250867
-4.531748 30.17847 -18.727619
-4.751062 30.803974 -17.504003
-4.445123 32.842239 -18.519374
-4.258686 29.510073 -19.901002
-4.531748 30.17847 -18.727619
-3.996269 31.609335 -20.881895
-4.029146 28.902672 -21.039907
-4.258686 29.510073 -19.901002
-3.429136 38.308704 -22.85578
-3.54058 38.809765 -21.680615
-3.301139 40.832248 -22.715896
-3.248118 37.75728 -23.961714
-3.487559 35.734797 -22.926432
-3.429136 38.308704 -22.85578
-3.109967 37.251305 -25.03001
-3.248118 37.75728 -23.961714
-3.836975 39.817763 20.349348
-3.218351 41.07948 20.778005
-4.469966 38.465976 19.92346
-3.836975 39.817763 20.349348
-4.149446 40.320116 18.879696
-5.065345 37.066647 19.521918
-4.469966 38.465976 19.92346
-5.376915 37.473663 18.051843
-5.070377 39.371158 16.956238
-5.664854 37.876492 16.554274
-5.065345 37.066647 19.521918
-5.376915 37.473663 18.051843
-4.986284 46.024154 4.301641
-5.498015 44.298243 5.436222
-4.873114 46.016771 5.881785
-4.452707 47.72623 3.155342
-3.792903 49.393363 3.649331
-3.884228 49.376911 2.05747
-4.986284 46.024154 4.301641
-4.452707 47.72623 3.155342
-4.601382 47.149715 -3.165843
-5.133352 45.204988 -3.582002
-4.015951 48.773041 -4.272182
-4.601382 47.149715 -3.165843
-4.031652 49.038204 -2.710119
1.813173 48.540443 27.936212
1.637272 46.967315 28.484819
2.038366 50.146507 27.329493
2.173252 51.724213 26.86104
1.710737 49.531395 26.458984
1.813173 48.540443 27.936212
2.038366 50.146507 27.329493
1.963713 54.571422 22.218811
2.016902 53.65128 23.796957
2.252431 55.245972 23.221344
2.544126 60.137692 19.004043
2.649417 61.711258 18.587043
2.314858 59.382804 17.888357
2.32268 58.571598 19.538691
2.544126 60.137692 19.004043
2.523379 61.655434 15.685834
2.680017 62.506851 16.899607
2.667092 63.213386 15.231732
2.607241 66.056133 6.767143
2.629351 65.576339 8.468642
2.328812 64.918667 5.61721
2.607241 66.056133 6.767143
2.547529 66.436699 5.08758
2.365706 70.867752 -4.314447
2.510695 70.648243 -2.643947
2.096095 69.428108 -5.468775
2.365706 70.867752 -4.314447
1.747494 67.987469 -6.541391
1.918114 67.859425 -4.903164
2.096095 69.428108 -5.468775
1.394037 66.453213 -7.581583
1.747494 67.987469 -6.541391
0.956257 64.915786 -8.530111
1.131733 64.881359 -6.924308
1.394037 66.453213 -7.581583
0.797067 64.855789 -10.102669
0.598992 64.837414 -11.678576
0.534763 63.283935 -9.445393
0.956257 64.915786 -8.530111
0.797067 64.855789 -10.102669
-1.154575 57.706398 -14.735183
-1.022242 57.896743 -13.236317
-0.682594 59.559173 -14.08421
-1.232665 57.432282 -16.193161
-1.572313 55.769852 -15.345268
-1.154575 57.706398 -14.735183
-1.370175 57.215626 -17.649269
-1.232665 57.432282 -16.193161
-1.732815 55.203159 -18.213592
-1.370175 57.215626 -17.649269
-3.062082 31.957733 -25.044037
-3.279743 32.504323 -24.058808
-3.088879 34.636781 -25.017595
3 0 33 31
3 0 35 33
3 1 38 36
3 1 40 38
3 2 43 41
3 2 45 43
3 3 48 46
3 3 49 48
3 3 51 49
3 5 55 53
3 5 123 125
3 125 124 55
3 123 124 125
3 5 126 128
3 126 56 127
3 126 127 128
3 6 59 57
3 6 61 59
3 129 65 130
3 7 68 66
3 7 70 68
3 4 131 133
3 133 132 71
3 131 132 133
3 134 72 135
3 136 73 137
3 139 138 73
3 9 75 74
3 11 76 32
3 11 77 76
3 11 79 77
3 13 80 34
3 13 140 142
3 142 141 80
3 140 141 142
3 14 83 81
3 16 84 37
3 16 85 84
3 16 87 85
3 18 88 39
3 18 89 88
3 8 143 145
3 143 90 144
3 143 144 145
3 20 91 42
3 20 92 91
3 20 93 92
3 21 94 44
3 21 95 94
3 10 146 147
3 22 148 150
3 150 149 47
3 148 149 150
3 22 151 152
3 22 153 154
3 23 96 50
3 23 97 96
3 12 98 78
3 155 99 156
3 157 156 52
3 155 156 157
3 159 158 99
3 15 100 82
3 161 160 54
3 17 101 86
3 24 162 164
3 164 163 58
3 162 163 164
3 24 165 166
3 24 167 169
3 167 102 168
3 167 168 169
3 25 103 60
3 25 104 103
3 170 105 171
3 172 106 173
3 174 173 105
3 172 173 174
3 26 107 62
3 26 108 107
3 175 109 176
3 27 110 63
3 27 111 110
3 27 112 111
3 28 113 64
3 28 114 113
3 19 177 179
3 177 115 178
3 177 178 179
3 29 116 67
3 29 117 116
3 29 118 117
3 30 119 69
3 30 120 119
3 180 121 181
3 182 122 183
3 184 183 121
3 182 183 184
3 186 185 122
3 31 32 9
3 33 32 31
3 33 11 32
3 33 34 11
3 35 34 33
3 35 13 34
3 36 37 14
3 38 37 36
3 38 16 37
3 38 39 16
3 40 39 38
3 40 18 39
3 41 42 8
3 43 42 41
3 43 20 42
3 43 44 20
3 45 44 43
3 45 21 44
3 46 47 10
3 48 47 46
3 48 22 47
3 48 187 189
3 189 188 22
3 187 188 189
3 49 190 192
3 192 191 48
3 190 191 192
3 49 193 194
3 49 195 197
3 195 50 196
3 195 196 197
3 51 50 49
3 51 23 50
3 198 52 199
3 200 199 12
3 198 199 200
3 201 52 202
3 201 202 203
3 206 205 52
3 204 205 206
3 53 54 15
3 55 54 53
3 55 207 209
3 209 208 54
3 207 208 209
3 55 210 211
3 213 212 55
3 56 214 215
3 56 216 217
3 57 58 17
3 59 58 57
3 59 24 58
3 59 60 24
3 61 60 59
3 61 25 60
3 218 62 219
3 220 62 221
3 222 26 223
3 224 223 62
3 222 223 224
3 225 63 226
3 227 63 228
3 229 27 230
3 231 230 63
3 229 230 231
3 232 64 233
3 234 233 27
3 232 233 234
3 65 235 237
3 235 64 236
3 235 236 237
3 65 28 64
3 66 67 19
3 68 67 66
3 68 29 67
3 68 69 29
3 70 69 68
3 70 30 69
3 71 238 239
3 241 240 71
3 72 242 243
3 72 244 246
3 244 8 245
3 244 245 246
3 247 72 248
3 247 248 249
3 73 250 252
3 250 72 251
3 250 251 252
3 73 8 72
3 73 41 8
3 253 41 254
3 255 254 73
3 253 254 255
3 256 2 257
3 258 257 41
3 256 257 258
3 74 259 260
3 75 261 263
3 263 262 74
3 261 262 263
3 75 264 266
3 264 10 265
3 264 265 266
3 32 75 9
3 76 75 32
3 76 10 75
3 76 46 10
3 77 46 76
3 77 3 46
3 77 78 3
3 79 78 77
3 79 12 78
3 34 79 11
3 80 79 34
3 80 12 79
3 80 267 269
3 269 268 12
3 267 268 269
3 272 271 80
3 270 271 272
3 81 273 275
3 273 82 274
3 273 274 275
3 83 82 81
3 83 15 82
3 37 83 14
3 84 83 37
3 84 15 83
3 84 53 15
3 85 53 84
3 85 5 53
3 85 86 5
3 87 86 85
3 87 17 86
3 39 87 16
3 88 87 39
3 88 17 87
3 88 57 17
3 89 57 88
3 89 6 57
3 276 19 277
3 278 19 279
3 280 66 281
3 282 281 19
3 280 281 282
3 283 66 284
3 285 7 286
3 287 286 66
3 285 286 287
3 289 288 4
3 90 290 291
3 90 292 293
3 42 90 8
3 91 90 42
3 91 294 296
3 296 295 90
3 294 295 296
3 91 297 298
3 92 299 301
3 301 300 91
3 299 300 301
3 92 302 303
3 92 304 306
3 304 81 305
3 304 305 306
3 93 81 92
3 93 14 81
3 44 93 20
3 94 93 44
3 94 14 93
3 94 36 14
3 95 36 94
3 95 1 36
3 47 307 309
3 309 308 10
3 307 308 309
3 311 310 47
3 313 312 22
3 50 314 315
3 96 316 318
3 318 317 50
3 316 317 318
3 96 319 320
3 96 321 323
3 321 71 322
3 321 322 323
3 97 71 96
3 97 4 71
3 78 51 3
3 98 51 78
3 98 23 51
3 52 98 12
3 99 98 52
3 99 23 98
3 99 97 23
3 324 97 325
3 326 325 99
3 324 325 326
3 327 4 328
3 329 328 97
3 327 328 329
3 331 330 4
3 82 332 333
3 100 334 336
3 336 335 82
3 334 335 336
3 100 337 338
3 54 100 15
3 339 100 340
3 341 340 54
3 339 340 341
3 343 342 100
3 86 56 5
3 101 56 86
3 101 344 346
3 346 345 56
3 344 345 346
3 58 101 17
3 347 101 348
3 349 348 58
3 347 348 349
3 351 350 101
3 352 74 353
3 102 354 356
3 354 74 355
3 354 355 356
3 102 9 74
3 60 102 24
3 103 102 60
3 103 9 102
3 103 31 9
3 104 31 103
3 104 0 31
3 357 2 358
3 105 359 360
3 105 361 363
3 361 2 362
3 361 362 363
3 105 45 2
3 106 45 105
3 106 21 45
3 62 364 366
3 364 106 365
3 364 365 366
3 107 106 62
3 107 21 106
3 107 95 21
3 108 95 107
3 108 1 95
3 109 367 368
3 109 369 371
3 369 26 370
3 369 370 371
3 63 372 374
3 372 109 373
3 372 373 374
3 110 109 63
3 110 26 109
3 110 108 26
3 111 108 110
3 111 1 108
3 111 40 1
3 112 40 111
3 112 18 40
3 64 112 27
3 113 112 64
3 113 18 112
3 113 89 18
3 114 89 113
3 114 6 89
3 375 65 376
3 115 377 379
3 377 65 378
3 377 378 379
3 115 28 65
3 67 115 19
3 116 115 67
3 116 28 115
3 116 114 28
3 117 114 116
3 117 6 114
3 117 61 6
3 118 61 117
3 118 25 61
3 69 118 29
3 119 118 69
3 119 25 118
3 119 104 25
3 120 104 119
3 120 0 104
3 380 7 381
3 382 7 383
3 384 70 385
3 386 385 7
3 384 385 386
3 387 70 388
3 389 30 390
3 391 390 70
3 389 390 391
3 121 392 393
3 121 394 396
3 394 30 395
3 394 395 396
3 121 120 30
3 122 120 121
3 122 0 120
3 122 35 0
3 397 35 398
3 399 398 122
3 397 398 399
3 400 13 401
3 402 401 35
3 400 401 402
3 403 13 404
3 406 405 13
3 409 408 4
3 407 408 409
