ply
format ascii 1.0
element vertex 186
property float x
property float y
property float z
element face 139
property list uchar int vertex_index
end_header
7.045027 88.504112 -9.574484
7.800879 88.162239 10.338911
4.359369 85.723862 -15.037514
10.251995 89.243301 -3.772657
8.220436 87.170906 -15.584801
6.318277 88.767441 -2.855204
6.666056 85.896584 -18.215521
6.645195 88.338264 7.293608
6.090696 87.460777 10.996878
8.60372 89.128441 -6.708649
8.104055 89.342232 -3.372589
6.654255 88.770012 -6.280787
14.695663 82.37571 -21.664057
7.158525 88.948746 3.652774
5.620672 87.364105 -12.356218
5.334152 87.678268 -9.115393
12.690836 88.536652 -4.028584
10.923134 88.832008 -6.988049
9.189787 88.653801 -9.880892
7.549059 87.971397 -12.693123
6.047853 86.774918 -15.409401
14.323814 86.693764 8.706625
5.504267 86.328331 14.748526
9.643324 89.396255 -0.40379
7.636538 89.28405 0.090448
5.924373 87.758754 7.617214
6.132359 88.151672 5.784027
15.647376 82.857262 -20.507608
13.970795 83.298333 -20.828768
8.104361 89.110412 3.370011
7.799529 88.904663 5.163915
4.263225 85.905686 -13.449571
4.893877 86.725807 -12.108923
4.99002 86.543983 -13.696866
14.017415 87.940014 -4.077644
13.561894 88.17477 -2.523462
11.31666 88.509117 -8.500047
12.231316 88.402584 -7.044413
10.449987 88.420014 -9.946468
10.056461 88.742905 -8.43447
11.31666 88.509117 -8.500047
9.068995 87.550667 -14.214866
9.524993 87.066414 -15.567681
7.884747 87.571151 -14.138962
8.733307 87.950913 -12.769027
9.068995 87.550667 -14.214866
5.000007 84.599335 -19.364288
5.691184 85.486699 -18.113243
5.97488 85.00922 -19.466566
15.507811 85.974743 8.528061
15.05134 85.826645 10.220375
14.758398 86.765629 7.005285
15.507811 85.974743 8.528061
7.467646 87.673985 12.199793
8.432678 87.801807 11.862969
5.121022 86.23988 13.203306
5.797481 86.894554 12.872702
5.414237 86.806102 11.327482
4.869861 85.610492 15.082334
5.121022 86.23988 13.203306
9.94766 89.319778 -2.088224
10.789106 89.13491 -0.592079
11.093442 89.058434 -2.276513
6.151821 88.632469 -1.092323
6.810951 88.890774 0.380503
6.977407 89.025745 -1.382378
5.231025 87.702515 -7.425944
4.707479 86.932644 -8.827382
3.211082 83.827988 -16.049468
3.757547 84.879776 -14.769249
3.812905 84.672073 -16.317733
8.65784 86.631703 -16.888597
9.524993 87.066414 -15.567681
7.88065 85.994541 -18.203957
7.443246 86.533745 -16.900161
8.65784 86.631703 -16.888597
7.084721 85.302212 -19.463981
7.88065 85.994541 -18.203957
5.97488 85.00922 -19.466566
7.084721 85.302212 -19.463981
5.647124 87.320011 9.468849
6.367946 87.89952 9.145243
5.924373 87.758754 7.617214
5.414237 86.806102 11.327482
5.647124 87.320011 9.468849
13.077133 82.687107 -22.009611
12.352265 83.60973 -21.174322
13.970795 83.298333 -20.828768
13.787076 81.645008 -22.758823
13.077133 82.687107 -22.009611
16.433463 81.893414 -21.250737
15.647376 82.857262 -20.507608
15.464241 81.268223 -22.311115
16.433463 81.893414 -21.250737
14.555654 80.537521 -23.405882
13.787076 81.645008 -22.758823
15.464241 81.268223 -22.311115
8.801075 88.201542 10.028903
8.432678 87.801807 11.862969
8.120706 88.511409 8.506983
8.801075 88.201542 10.028903
7.542864 88.599422 6.984331
7.223037 88.250251 8.816259
8.120706 88.511409 8.506983
6.90186 88.643505 5.473191
7.542864 88.599422 6.984331
7.799529 88.904663 5.163915
6.389024 88.456913 3.96361
6.132359 88.151672 5.784027
6.90186 88.643505 5.473191
4.750617 86.882889 -10.488511
5.477412 87.521186 -10.735805
4.893877 86.725807 -12.108923
4.707479 86.932644 -8.827382
4.750617 86.882889 -10.488511
4.263225 85.905686 -13.449571
3.757547 84.879776 -14.769249
12.312862 88.705109 -2.404477
13.561894 88.17477 -2.523462
11.471415 88.889977 -3.900621
11.093442 89.058434 -2.276513
12.312862 88.705109 -2.404477
13.115167 88.254906 -5.56468
14.017415 87.940014 -4.077644
11.806985 88.68433 -5.508317
13.115167 88.254906 -5.56468
12.231316 88.402584 -7.044413
9.553671 88.292114 -11.362911
10.449987 88.420014 -9.946468
8.369423 88.312599 -11.287007
9.553671 88.292114 -11.362911
8.733307 87.950913 -12.769027
5.382082 85.925866 -16.710183
6.356955 86.335751 -16.812461
5.691184 85.486699 -18.113243
4.53784 85.400338 -16.52424
5.203611 86.24939 -15.223458
5.382082 85.925866 -16.710183
3.812905 84.672073 -16.317733
4.53784 85.400338 -16.52424
13.897828 86.474033 10.455459
15.05134 85.826645 10.220375
13.164203 87.210209 8.937068
13.897828 86.474033 10.455459
13.56038 87.365784 7.181434
13.164203 87.210209 8.937068
13.56038 87.365784 7.181434
14.758398 86.765629 7.005285
6.612554 87.323253 12.528776
7.467646 87.673985 12.199793
6.945787 87.811508 10.667894
6.31934 86.757031 14.404601
6.612554 87.323253 12.528776
5.797481 86.894554 12.872702
5.979971 86.136482 16.286411
6.31934 86.757031 14.404601
5.204149 85.640918 16.64227
5.679854 85.44907 18.180156
5.979971 86.136482 16.286411
5.204149 85.640918 16.64227
4.869861 85.610492 15.082334
10.433497 89.173713 1.103993
10.789106 89.13491 -0.592079
9.34676 89.334167 1.341729
10.433497 89.173713 1.103993
8.343367 89.278064 1.588847
9.34676 89.334167 1.341729
8.639931 89.340152 -0.156671
7.397531 89.116398 1.871611
8.104361 89.110412 3.370011
8.343367 89.278064 1.588847
6.571945 88.723122 2.161666
7.397531 89.116398 1.871611
6.810951 88.890774 0.380503
6.389024 88.456913 3.96361
6.571945 88.723122 2.161666
5.891076 88.248386 -6.008641
5.994203 88.22414 -7.69809
5.231025 87.702515 -7.425944
5.723087 88.247101 -4.29585
6.486266 88.768726 -4.567996
5.891076 88.248386 -6.008641
5.630968 88.142441 -2.555798
5.723087 88.247101 -4.29585
6.151821 88.632469 -1.092323
5.630968 88.142441 -2.555798
3 26 25 7
3 0 11 9
3 27 12 28
3 29 13 30
3 2 31 33
3 33 32 14
3 31 32 33
3 34 16 35
3 36 17 37
3 38 18 39
3 40 39 17
3 38 39 40
3 4 41 42
3 4 43 45
3 43 19 44
3 43 44 45
3 4 20 19
3 48 47 6
3 46 47 48
3 49 21 50
3 52 51 21
3 1 53 54
3 55 22 56
3 57 56 8
3 55 56 57
3 59 58 22
3 3 60 62
3 60 23 61
3 60 61 62
3 5 24 10
3 5 63 65
3 65 64 24
3 63 64 65
3 67 66 15
3 70 69 2
3 68 69 70
3 71 4 72
3 73 6 74
3 75 74 4
3 73 74 75
3 76 6 77
3 79 78 6
3 7 8 1
3 80 8 81
3 82 81 7
3 80 81 82
3 84 83 8
3 9 10 3
3 11 10 9
3 11 5 10
3 12 85 87
3 85 86 87
3 12 88 89
3 90 12 91
3 92 12 93
3 96 95 12
3 94 95 96
3 97 1 98
3 99 1 100
3 101 7 102
3 103 102 1
3 101 102 103
3 13 104 106
3 104 7 105
3 104 105 106
3 13 107 109
3 109 108 7
3 107 108 109
3 14 15 0
3 110 15 111
3 112 111 14
3 110 111 112
3 114 113 15
3 116 115 2
3 16 117 118
3 16 119 121
3 119 3 120
3 119 120 121
3 122 16 123
3 17 124 126
3 124 16 125
3 124 125 126
3 17 3 16
3 17 9 3
3 18 9 17
3 18 0 9
3 127 18 128
3 19 129 131
3 129 18 130
3 129 130 131
3 19 0 18
3 19 14 0
3 20 14 19
3 20 2 14
3 6 20 4
3 132 20 133
3 134 133 6
3 132 133 134
3 135 2 136
3 137 136 20
3 135 136 137
3 139 138 2
3 21 140 141
3 21 142 143
3 21 144 145
3 147 146 21
3 8 148 150
3 150 149 1
3 148 149 150
3 22 151 153
3 153 152 8
3 151 152 153
3 22 154 155
3 22 156 158
3 156 157 158
3 160 159 22
3 23 161 162
3 23 163 164
3 10 23 3
3 24 23 10
3 24 165 167
3 167 166 23
3 165 166 167
3 24 168 170
3 168 13 169
3 168 169 170
3 171 13 172
3 173 172 24
3 171 172 173
3 175 174 13
3 15 11 0
3 176 11 177
3 178 177 15
3 176 177 178
3 179 5 180
3 181 180 11
3 179 180 181
3 182 5 183
3 185 184 5
