ply
format ascii 1.0
element vertex 707
property float x
property float y
property float z
element face 756
property list uchar int vertex_index
end_header
26.237247 -50.730114 -22.496977
9.012888 -81.193024 -10.802362
9.300985 -108.816353 -16.79817
12.822594 -64.293381 -8.120504
2.458542 -106.336746 -8.564226
18.888882 -66.531219 -16.307661
18.014568 -81.919662 -16.008543
3.275688 -92.553642 -5.13854
7.99288 -78.167175 -5.72003
12.382881 -65.674911 -12.314407
19.591356 -52.853291 -17.691515
15.296179 -116.884613 -18.845968
7.430115 -96.397644 -12.941547
18.041145 -95.172699 -18.384069
23.179457 -58.589863 -19.194124
23.553223 -65.88163 -18.373224
27.324219 -57.151211 -21.586893
29.584103 -48.53463 -25.458944
11.957544 -64.965622 -10.221846
14.279205 -58.842766 -12.950336
15.907524 -59.106659 -15.174166
17.446957 -53.187786 -15.179287
6.80835 -113.818031 -14.895702
9.712988 -118.141617 -15.938604
11.819756 -113.41214 -18.053396
18.169403 -111.133888 -20.073053
5.247677 -87.382431 -7.959028
4.13665 -94.900162 -9.099644
7.883289 -88.987793 -11.360723
22.902317 -80.44017 -18.516497
22.866024 -86.820457 -19.456625
23.739681 -92.205353 -20.586348
13.797455 -68.181259 -3.121788
12.796566 -69.857094 -5.229876
13.505239 -63.422733 -5.883423
4.878407 -108.418213 -13.251961
13.88089 -74.1707 -13.585127
13.011673 -82.076019 -13.529577
18.553921 -74.303482 -15.77622
23.35268 -73.331741 -18.100752
5.270361 -85.354935 -4.85932
7.178905 -79.742355 -8.052641
10.7612 -71.066315 -7.102386
9.58009 -72.174294 -9.078432
10.584953 -73.303596 -11.301058
14.811499 -66.325272 -14.361176
19.052685 -59.143604 -17.196535
22.677483 -52.117405 -20.03034
13.373617 -121.355095 -16.493017
19.452917 -119.180275 -19.176508
2.328968 -99.64048 -6.568405
3.995409 -102.026299 -11.117901
7.853437 -103.101562 -14.985306
12.396406 -89.651436 -14.42737
12.37595 -96.567963 -16.021334
13.253731 -102.538567 -17.74132
19.399494 -100.288544 -19.728331
24.8776 -54.62587 -20.785112
25.310581 -57.992954 -20.312925
26.828815 -53.829262 -22.035299
28.6443 -52.802486 -23.450129
27.975592 -49.737286 -23.900537
15.782816 -55.935265 -14.121168
7.855177 -111.489265 -15.997972
10.429506 -111.255753 -17.495035
13.359812 -110.554832 -18.682795
12.106983 -108.331833 -18.083845
6.937391 -84.40271 -9.381268
6.266479 -88.270233 -9.666407
8.37771 -85.119949 -10.937084
22.7934 -83.74147 -18.939775
25.306238 -85.18589 -20.793375
13.401791 -65.040329 -3.361145
13.620647 -65.895744 -4.562107
13.331127 -62.801777 -4.671482
4.057529 -110.554489 -11.976999
3.40011 -107.567749 -11.013613
16.426846 -70.410843 -14.944212
16.124401 -74.356552 -14.687838
18.758633 -70.407768 -15.961729
25.742992 -65.151382 -19.589293
23.519411 -69.621437 -18.151075
25.681734 -68.786736 -19.437296
6.576427 -81.756538 -5.174473
6.011263 -82.669464 -6.434849
7.270607 -78.953979 -6.816069
12.702389 -67.139664 -6.716135
11.790594 -70.495834 -6.17457
11.916557 -67.6147 -7.710262
11.939085 -65.312637 -11.267498
10.802307 -68.49913 -9.696398
10.855837 -68.960403 -10.732397
9.772612 -72.745567 -10.165201
11.466238 -69.427353 -11.795397
12.647247 -69.862221 -12.864479
13.345701 -66.027527 -13.350517
17.761473 -55.921703 -16.461657
17.307846 -59.175648 -16.206743
19.231808 -55.81583 -17.545038
20.969246 -55.590271 -18.595945
21.035839 -52.552109 -18.869101
12.325773 -117.75985 -17.553507
11.466768 -119.894211 -16.2778
14.227459 -119.288078 -17.842573
16.270092 -120.51104 -17.998701
17.312569 -118.189262 -19.087183
20.651831 -116.629791 -20.062647
18.554497 -115.541306 -19.872435
2.9849 -94.680077 -3.713945
2.402369 -98.115334 -4.320337
2.665468 -96.12516 -5.735722
5.519045 -95.789124 -11.087992
3.940617 -98.533386 -10.043165
5.480019 -99.362823 -12.098253
5.683571 -102.755028 -13.18186
7.521385 -99.858101 -13.952452
15.466092 -82.150627 -14.792923
12.652016 -85.925926 -13.864693
15.185039 -85.902084 -15.178774
15.170965 -96.070877 -17.262022
12.688587 -99.685547 -16.90291
15.594797 -98.983086 -18.05266
16.279518 -101.618919 -18.787848
18.587086 -97.87133 -19.085161
21.16596 -62.574894 -17.711512
21.224075 -66.333542 -17.299154
23.429892 -62.178516 -18.739153
25.619953 -61.529205 -19.89316
27.624092 -60.611336 -21.223925
9.202028 -77.376053 -4.755344
13.211567 -61.409458 -9.412479
12.311895 -64.633682 -9.177404
13.000383 -61.637829 -10.540804
12.989708 -61.871696 -11.649067
13.323002 -62.120834 -12.737236
14.091251 -62.37291 -13.797039
14.899818 -58.983231 -14.087383
16.609543 -55.949375 -15.322001
18.391281 -53.054623 -16.465841
6.124538 -115.786667 -13.457554
7.502993 -118.018394 -13.974655
8.149637 -116.114632 -15.483189
10.607601 -115.946907 -17.156713
13.452028 -115.288666 -18.498053
16.612194 -114.159225 -19.564508
14.869333 -112.496147 -19.169016
16.556129 -109.405075 -19.637976
4.018446 -90.109077 -6.546137
3.372395 -93.79866 -7.079109
4.576393 -91.170601 -8.382732
5.786589 -92.077751 -10.250731
7.558622 -92.760239 -12.048914
20.524464 -81.354691 -17.229151
17.788647 -85.542084 -16.422186
20.318726 -88.089989 -18.203932
20.493074 -91.116234 -18.826925
20.912064 -93.87899 -19.469767
23.17234 -89.647881 -20.020521
13.78348 -71.373878 -2.69133
13.034046 -72.359116 -3.68811
13.533152 -69.099518 -4.222702
13.3388 -66.58255 -5.676107
13.28521 -63.905117 -7.029369
13.449326 -61.158653 -8.256298
4.969242 -113.297714 -12.795763
5.713406 -111.250885 -14.153496
6.864637 -108.843048 -15.192995
11.368021 -77.77449 -12.206642
10.807255 -81.738159 -12.194639
13.432476 -78.14299 -13.440819
15.794797 -78.286957 -14.628498
18.290649 -78.157974 -15.788382
21.17284 -70.155449 -17.011362
21.008743 -73.970932 -16.894323
20.770376 -77.721222 -16.968008
23.118156 -76.955078 -18.227167
3.841341 -91.221489 -3.372385
4.152798 -88.957108 -4.839354
4.9091 -86.39257 -6.330673
6.127539 -83.565285 -7.855024
7.770422 -80.506004 -9.400389
11.888533 -73.192871 -4.602966
10.595169 -73.921288 -5.487051
9.422367 -74.596474 -6.400364
11.211327 -68.055603 -8.69368
9.955336 -71.61573 -8.059738
8.613678 -75.261353 -7.393587
8.350473 -75.935822 -8.491791
8.729515 -76.609055 -9.686598
9.758505 -77.241516 -10.941397
11.98686 -73.799133 -12.451828
14.339464 -70.210251 -13.917055
16.70108 -66.512054 -15.3416
15.321262 -62.594326 -14.817795
16.976421 -62.736992 -15.796865
18.966911 -62.747322 -16.749128
21.050074 -58.962517 -18.175417
22.887154 -55.204849 -19.657393
24.441334 -51.518257 -21.222101
14.007088 -73.33902 -1.093899
13.950823 -70.20816 -1.582958
13.462547 -67.076385 -1.916433
21.347637 -49.923382 -18.901976
22.681633 -49.411217 -20.213148
24.152699 -48.756805 -21.52434
25.702587 -47.939072 -22.87945
27.262743 -46.942566 -24.321947
28.767801 -45.759407 -25.883509
10.276794 -123.138985 -12.611786
9.076221 -119.989586 -14.365036
10.811666 -121.686455 -14.633444
12.674538 -123.080132 -14.759495
15.392361 -122.492737 -16.546045
18.405418 -121.396454 -17.965075
20.001522 -112.588814 -20.432112
2.094252 -101.496254 -5.119896
2.26232 -103.059074 -7.545086
2.985874 -97.431099 -7.883081
2.862503 -100.966614 -8.875204
3.001184 -104.360054 -9.952648
4.306446 -105.334198 -12.218699
6.142004 -105.925468 -14.239613
8.443047 -106.094955 -15.953634
10.331547 -85.648613 -12.447878
9.974274 -89.467224 -12.962536
9.771103 -93.154549 -13.699902
9.75655 -96.670006 -14.592075
10.411259 -103.033707 -16.497019
11.123529 -105.82386 -17.353491
14.086077 -105.111557 -18.485628
21.594948 -96.364487 -20.086443
13.004517 -62.402697 -4.033088
13.366459 -63.921053 -4.016313
13.039848 -63.521973 -3.377919
2.684597 -107.884949 -9.049601
2.361467 -107.136505 -7.74777
2.929326 -106.952247 -9.788919
3.155381 -108.50045 -10.274294
2.684597 -107.884949 -9.049601
26.69115 -66.459557 -20.214102
25.712363 -66.969059 -19.513295
26.721778 -64.64188 -20.290101
26.637834 -68.21637 -20.171516
26.69115 -66.459557 -20.214102
7.284654 -79.961857 -5.447252
7.149312 -81.296909 -4.631235
7.857539 -79.502228 -4.904013
16.606055 -95.621788 -17.823045
16.45979 -94.13689 -17.464661
17.89488 -93.687802 -18.025684
28.228229 -56.604227 -22.318655
28.378166 -58.334289 -22.137171
27.474156 -58.881274 -21.405409
29.922362 -50.040184 -25.252092
29.45246 -52.174112 -24.247684
29.114202 -50.668558 -24.454536
30.303382 -47.831663 -26.314591
29.922362 -50.040184 -25.252092
9.939139 -76.961182 -4.315896
9.231798 -78.63324 -3.950244
13.450882 -60.106823 -10.554186
13.105975 -61.523644 -9.976641
13.556475 -59.992638 -9.990023
13.634456 -60.357231 -12.299702
13.486543 -60.289003 -11.711488
14.131292 -58.774538 -12.362122
11.213679 -114.679523 -17.605055
9.858039 -114.901951 -16.901386
10.464116 -113.634568 -17.349728
15.872687 -108.402282 -19.37672
14.95797 -109.979953 -19.160385
14.274528 -108.977161 -18.89913
17.504512 -107.722736 -19.811472
15.872687 -108.402282 -19.37672
21.625717 -82.632442 -18.085455
20.436791 -83.089703 -17.441782
21.71339 -80.89743 -17.872824
25.540014 -86.501499 -21.039713
26.483216 -84.198834 -21.505383
13.624549 -59.708242 -8.167739
13.494076 -61.002638 -7.659111
13.669832 -59.797157 -8.796048
13.624549 -59.708242 -8.167739
4.290334 -112.807964 -11.594424
4.760064 -114.135967 -11.95172
4.419881 -90.527878 -2.604594
3.869403 -92.182102 -2.637363
5.111403 -86.556694 -4.095727
5.770971 -84.826263 -4.222987
4.71158 -87.156022 -4.849337
4.552621 -88.357781 -4.085744
5.111403 -86.556694 -4.095727
14.007953 -72.631599 -0.525566
14.069954 -74.144101 -0.262064
14.070819 -73.43668 0.306269
13.97982 -71.06617 -0.770096
13.978955 -71.77359 -1.338429
14.007953 -72.631599 -0.525566
12.978978 -66.42588 -1.265465
13.451884 -67.965294 -1.137387
13.039668 -65.532909 -1.996351
12.978978 -66.42588 -1.265465
22.171151 -48.531115 -19.514594
21.648543 -48.831016 -18.768887
22.838149 -48.275032 -20.170179
22.014635 -49.667299 -19.557562
22.171151 -48.531115 -19.514594
24.7727 -47.142521 -22.305239
24.151339 -47.581758 -21.562348
25.547643 -46.733654 -22.982794
24.927643 -48.347938 -22.201895
24.7727 -47.142521 -22.305239
27.622343 -45.117224 -25.278106
26.973809 -45.717394 -24.471165
28.374872 -44.525644 -26.058888
28.015272 -46.350987 -25.102728
27.622343 -45.117224 -25.278106
9.44039 -122.316566 -12.519358
9.236318 -122.904267 -11.377741
20.557275 -119.503769 -19.108642
20.033526 -120.611859 -18.502926
18.929167 -120.288365 -18.570791
21.151324 -118.291569 -19.623695
20.557275 -119.503769 -19.108642
22.404552 -115.640816 -20.443403
21.332979 -115.197743 -20.381004
16.397828 -87.520363 -16.089327
17.734276 -87.262283 -16.707514
12.333115 -94.889889 -15.595467
13.681317 -94.734044 -16.247351
11.06625 -96.618985 -15.306704
11.023415 -94.940911 -14.880838
12.333115 -94.889889 -15.595467
11.168736 -98.271138 -15.787346
9.859036 -98.322159 -15.072716
11.06625 -96.618985 -15.306704
18.316413 -102.129734 -19.581242
16.756425 -102.794922 -19.111
17.839506 -100.953732 -19.25809
19.938579 -101.356015 -20.011143
18.316413 -102.129734 -19.581242
14.75977 -57.373701 -12.90915
14.131292 -58.774538 -12.362122
15.511576 -55.91995 -13.494566
15.031011 -57.389015 -13.535752
14.75977 -57.373701 -12.90915
16.256814 -54.606406 -13.978658
15.511576 -55.91995 -13.494566
17.088884 -53.232666 -14.507717
16.614887 -54.561526 -14.650227
16.256814 -54.606406 -13.978658
8.481827 -112.67313 -16.322015
7.958414 -113.837513 -15.770881
7.331764 -112.653648 -15.446837
9.768992 -112.556374 -17.070547
8.481827 -112.67313 -16.322015
9.142342 -111.372509 -16.746504
11.124631 -112.333946 -17.774216
10.464116 -113.634568 -17.349728
9.768992 -112.556374 -17.070547
13.648114 -107.865662 -18.599655
14.274528 -108.977161 -18.89913
12.733397 -109.443332 -18.38332
23.948978 -81.457558 -19.429058
22.847859 -82.09082 -18.728136
24.003437 -79.806907 -19.217419
23.944487 -83.019112 -19.631752
23.948978 -81.457558 -19.429058
23.980798 -84.558605 -19.890177
22.829712 -85.280964 -19.1982
23.944487 -83.019112 -19.631752
25.200906 -83.741321 -20.558552
24.086131 -86.003174 -20.125
23.980798 -84.558605 -19.890177
26.290629 -82.847653 -21.304535
25.200906 -83.741321 -20.558552
26.483216 -84.198834 -21.505383
26.290629 -82.847653 -21.304535
3.48409 -109.99382 -10.755987
3.834477 -111.436352 -11.185042
3.72882 -109.061119 -11.495306
3.48409 -109.99382 -10.755987
3.155381 -108.50045 -10.274294
25.587314 -70.579358 -19.44298
24.422787 -72.85186 -18.774708
24.517207 -71.059238 -18.769024
25.587314 -70.579358 -19.44298
26.637834 -68.21637 -20.171516
6.424003 -83.027065 -4.380563
7.149312 -81.296909 -4.631235
5.923394 -83.555736 -5.016896
5.770971 -84.826263 -4.222987
6.424003 -83.027065 -4.380563
20.284312 -114.6535 -20.285899
21.332979 -115.197743 -20.381004
19.603164 -116.085549 -19.967541
19.898103 -110.245731 -20.461105
19.047144 -109.483807 -20.262627
2.693634 -96.397706 -4.017141
2.725681 -97.281964 -3.279025
3.016946 -95.564335 -2.975829
15.078825 -94.485501 -16.867695
16.45979 -94.13689 -17.464661
13.773457 -96.31942 -16.641678
13.681317 -94.734044 -16.247351
15.078825 -94.485501 -16.867695
24.15654 -93.345177 -20.852507
25.12407 -91.19138 -21.175477
2.255181 -105.560115 -7.292628
2.361467 -107.136505 -7.74777
27.662329 -62.371857 -21.107416
26.721778 -64.64188 -20.290101
26.683542 -62.881359 -20.406609
28.499735 -60.017235 -21.989506
27.662329 -62.371857 -21.107416
28.499735 -60.017235 -21.989506
28.378166 -58.334289 -22.137171
28.88827 -54.429865 -23.250273
28.228229 -56.604227 -22.318655
27.98426 -54.976849 -22.518511
28.88827 -54.429865 -23.250273
29.45246 -52.174112 -24.247684
8.462112 -79.106667 -4.42167
9.231798 -78.63324 -3.950244
8.597454 -77.771614 -5.237687
7.857539 -79.502228 -4.904013
8.462112 -79.106667 -4.42167
13.491881 -60.17207 -11.157356
13.450882 -60.106823 -10.554186
12.995045 -61.754762 -11.094936
13.491881 -60.17207 -11.157356
13.486543 -60.289003 -11.711488
6.813766 -116.90253 -13.716105
6.60781 -117.705806 -12.825692
5.918582 -116.589943 -12.567141
8.629057 -114.985814 -16.064624
7.478993 -114.966331 -15.189445
7.958414 -113.837513 -15.770881
9.378619 -116.030769 -16.319951
8.629057 -114.985814 -16.064624
9.858039 -114.901951 -16.901386
18.240507 -108.6194 -20.045088
19.047144 -109.483807 -20.262627
17.362766 -110.269481 -19.855514
18.240507 -108.6194 -20.045088
17.504512 -107.722736 -19.811472
19.068882 -85.1834 -17.0383
19.156555 -83.448387 -16.825668
20.436791 -83.089703 -17.441782
17.734276 -87.262283 -16.707514
19.068882 -85.1834 -17.0383
21.571258 -84.283093 -18.297094
21.625717 -82.632442 -18.085455
22.847859 -82.09082 -18.728136
20.333922 -86.457352 -17.929172
21.571258 -84.283093 -18.297094
21.556063 -85.915729 -18.571853
18.999316 -88.536236 -17.598387
20.333922 -86.457352 -17.929172
19.03367 -90.146446 -17.935615
18.999316 -88.536236 -17.598387
19.120845 -91.659569 -18.247112
19.03367 -90.146446 -17.935615
20.4059 -89.603112 -18.515428
19.26711 -93.144466 -18.605497
17.89488 -93.687802 -18.025684
19.120845 -91.659569 -18.247112
24.473065 -88.732495 -20.653286
24.239289 -87.416886 -20.406948
25.540014 -86.501499 -21.039713
24.756736 -90.011231 -20.9362
23.45601 -90.926617 -20.303435
24.473065 -88.732495 -20.653286
25.12407 -91.19138 -21.175477
24.756736 -90.011231 -20.9362
13.408763 -71.866497 -3.18972
13.184036 -73.464493 -2.896837
13.558753 -72.971874 -2.398447
13.038756 -61.336326 -4.607369
13.004517 -62.402697 -4.033088
13.333037 -61.616478 -5.247433
13.038756 -61.336326 -4.607369
13.420092 -61.926956 -5.853404
13.418183 -63.112255 -5.277452
13.333037 -61.616478 -5.247433
13.522032 -62.134678 -6.472673
13.420092 -61.926956 -5.853404
13.412018 -62.37587 -7.045647
13.395224 -63.663925 -6.456396
13.522032 -62.134678 -6.472673
13.367268 -62.531885 -7.642834
13.412018 -62.37587 -7.045647
13.494076 -61.002638 -7.659111
13.550952 -59.92256 -9.374139
13.330447 -61.284056 -8.834388
13.669832 -59.797157 -8.796048
13.556475 -59.992638 -9.990023
13.550952 -59.92256 -9.374139
5.337712 -115.380443 -12.282616
5.918582 -116.589943 -12.567141
5.54689 -114.542191 -13.126659
5.337712 -115.380443 -12.282616
4.760064 -114.135967 -11.95172
4.513386 -111.926102 -12.386381
4.290334 -112.807964 -11.594424
3.834477 -111.436352 -11.185042
24.305524 -74.663528 -18.837916
23.235418 -75.143409 -18.16396
24.422787 -72.85186 -18.774708
24.192579 -76.403027 -18.921625
24.305524 -74.663528 -18.837916
24.08466 -78.145573 -19.06629
23.010236 -78.697624 -18.371832
24.192579 -76.403027 -18.921625
24.003437 -79.806907 -19.217419
24.08466 -78.145573 -19.06629
3.441183 -93.911396 -2.808142
3.016946 -95.564335 -2.975829
3.41312 -92.950783 -3.543165
3.441183 -93.911396 -2.808142
3.869403 -92.182102 -2.637363
4.396892 -89.489971 -3.352259
4.419881 -90.527878 -2.604594
3.997069 -90.089299 -4.105869
4.396892 -89.489971 -3.352259
4.552621 -88.357781 -4.085744
12.589749 -73.993324 -3.352073
13.184036 -73.464493 -2.896837
12.016993 -74.410202 -3.809502
12.589749 -73.993324 -3.352073
12.461289 -72.775993 -4.145538
11.282391 -74.869591 -4.239707
12.016993 -74.410202 -3.809502
10.635709 -75.233799 -4.68175
11.282391 -74.869591 -4.239707
11.241851 -73.55708 -5.045008
9.898599 -75.648671 -5.121198
9.939139 -76.961182 -4.315896
10.635709 -75.233799 -4.68175
13.81079 -74.884297 -0.788192
14.069954 -74.144101 -0.262064
13.670557 -73.954445 -1.599732
13.81079 -74.884297 -0.788192
13.895284 -72.356449 -1.892614
13.558753 -72.971874 -2.398447
13.670557 -73.954445 -1.599732
13.696022 -69.531181 -0.97065
13.97982 -71.06617 -0.770096
13.706685 -68.642273 -1.749696
13.696022 -69.531181 -0.97065
13.451884 -67.965294 -1.137387
13.00929 -64.514881 -2.718707
13.432169 -66.058357 -2.638789
13.039668 -65.532909 -1.996351
12.647348 -62.996524 -2.735481
13.039848 -63.521973 -3.377919
13.00929 -64.514881 -2.718707
17.922622 -52.016267 -14.945439
17.088884 -53.232666 -14.507717
17.564549 -52.061148 -14.273869
18.329405 -51.902761 -15.669662
17.922622 -52.016267 -14.945439
18.801567 -51.83618 -16.312939
17.919119 -53.121205 -15.822564
18.329405 -51.902761 -15.669662
19.289609 -51.686064 -17.011333
18.801567 -51.83618 -16.312939
19.889647 -51.585398 -17.62417
18.991318 -52.953957 -17.078678
19.289609 -51.686064 -17.011333
20.767787 -50.120443 -18.229401
21.648543 -48.831016 -18.768887
20.469496 -51.388336 -18.296746
19.889647 -51.585398 -17.62417
20.767787 -50.120443 -18.229401
23.415806 -47.908964 -20.906751
22.838149 -48.275032 -20.170179
23.417166 -49.084011 -20.868744
23.415806 -47.908964 -20.906751
24.151339 -47.581758 -21.562348
26.193731 -46.215647 -23.749916
25.547643 -46.733654 -22.982794
26.482665 -47.440819 -23.600699
26.193731 -46.215647 -23.749916
26.973809 -45.717394 -24.471165
29.005655 -43.842892 -26.914333
28.374872 -44.525644 -26.058888
29.46869 -45.075135 -26.729017
29.005655 -43.842892 -26.914333
29.876841 -46.462746 -26.516735
29.175952 -47.147019 -25.671226
29.46869 -45.075135 -26.729017
30.303382 -47.831663 -26.314591
29.876841 -46.462746 -26.516735
10.030883 -123.700199 -11.424564
9.236318 -122.904267 -11.377741
11.170097 -123.801495 -12.625276
10.924186 -124.362709 -11.438053
10.030883 -123.700199 -11.424564
7.287983 -118.794376 -13.043863
6.60781 -117.705806 -12.825692
8.074597 -119.779972 -13.239054
7.287983 -118.794376 -13.043863
8.289607 -119.00399 -14.169846
8.840103 -120.741867 -13.395983
8.074597 -119.779972 -13.239054
9.707826 -121.590301 -13.530188
8.840103 -120.741867 -13.395983
9.943943 -120.83802 -14.49924
10.54423 -122.41272 -13.622615
9.44039 -122.316566 -12.519358
9.707826 -121.590301 -13.530188
12.368969 -123.772069 -13.69913
11.170097 -123.801495 -12.625276
11.475666 -123.109559 -13.68564
13.6519 -123.604512 -14.72842
12.368969 -123.772069 -13.69913
15.010812 -123.310814 -15.621695
13.6519 -123.604512 -14.72842
14.033449 -122.786435 -15.65277
16.435563 -122.879505 -16.460451
15.010812 -123.310814 -15.621695
17.942092 -122.331364 -17.169966
16.435563 -122.879505 -16.460451
16.898889 -121.944596 -17.25556
19.493001 -121.651799 -17.815939
19.029675 -122.586708 -17.02083
17.942092 -122.331364 -17.169966
19.493001 -121.651799 -17.815939
20.033526 -120.611859 -18.502926
21.750781 -117.016327 -20.066765
21.151324 -118.291569 -19.623695
20.052374 -117.905033 -19.619577
21.750781 -117.016327 -20.066765
22.404552 -115.640816 -20.443403
21.007824 -113.177254 -20.565737
20.284312 -114.6535 -20.285899
19.27801 -114.06506 -20.152273
20.814163 -110.973194 -20.640635
19.085462 -111.861351 -20.252583
19.898103 -110.245731 -20.461105
21.763915 -111.601597 -20.801524
20.814163 -110.973194 -20.640635
21.007824 -113.177254 -20.565737
21.763915 -111.601597 -20.801524
2.434681 -98.924912 -3.558906
2.725681 -97.281964 -3.279025
2.280622 -100.615371 -3.958686
2.434681 -98.924912 -3.558906
2.248311 -99.805794 -4.720116
2.121595 -102.233783 -4.314288
2.280622 -100.615371 -3.958686
2.073036 -103.13987 -5.570463
2.121595 -102.233783 -4.314288
2.15707 -103.921279 -6.783058
2.073036 -103.13987 -5.570463
2.178286 -102.277664 -6.332491
2.360431 -104.69791 -8.054656
2.255181 -105.560115 -7.292628
2.15707 -103.921279 -6.783058
15.096024 -87.700363 -15.467621
16.486843 -85.722084 -15.80048
16.397828 -87.520363 -16.089327
13.701708 -89.575039 -15.091919
13.790723 -87.77676 -14.803072
15.096024 -87.700363 -15.467621
12.343343 -91.431625 -14.798485
13.701708 -89.575039 -15.091919
11.030691 -93.183182 -14.434752
11.083755 -91.402993 -14.063636
12.343343 -91.431625 -14.798485
9.763827 -94.912278 -14.145988
11.030691 -93.183182 -14.434752
11.023415 -94.940911 -14.880838
8.741453 -99.916207 -14.752905
8.638967 -98.264054 -14.272263
9.859036 -98.322159 -15.072716
8.907479 -101.537937 -15.269332
7.687411 -101.479832 -14.468879
8.741453 -99.916207 -14.752905
11.325054 -99.829929 -16.228134
11.168736 -98.271138 -15.787346
12.532269 -98.126755 -16.462122
10.18639 -101.504009 -16.025188
11.325054 -99.829929 -16.228134
11.549923 -101.359627 -16.699965
9.132348 -103.067634 -15.741163
8.907479 -101.537937 -15.269332
10.18639 -101.504009 -16.025188
14.637661 -106.255524 -18.800546
13.648114 -107.865662 -18.599655
13.09653 -106.721695 -18.284737
15.659705 -104.541241 -18.959891
15.182797 -103.365238 -18.636738
16.756425 -102.794922 -19.111
14.637661 -106.255524 -18.800546
15.659705 -104.541241 -18.959891
23.084173 -95.424744 -20.602555
22.667314 -94.28492 -20.336396
24.15654 -93.345177 -20.852507
22.069271 -97.46671 -20.366907
23.084173 -95.424744 -20.602555
20.971544 -99.428738 -20.187851
20.497221 -98.326515 -19.907387
22.069271 -97.46671 -20.366907
19.938579 -101.356015 -20.011143
20.971544 -99.428738 -20.187851
3 0 59 57
3 0 61 59
3 2 64 63
3 2 66 64
3 1 69 67
3 231 74 232
3 233 232 72
3 231 232 233
3 4 234 235
3 4 236 238
3 236 76 237
3 236 237 238
3 5 79 77
3 239 82 240
3 241 240 80
3 239 240 241
3 243 242 82
3 8 244 246
3 244 83 245
3 244 245 246
3 8 85 83
3 3 88 86
3 9 91 89
3 9 93 91
3 9 95 93
3 10 98 96
3 10 100 98
3 11 103 101
3 11 105 103
3 11 107 105
3 7 110 108
3 12 113 111
3 12 115 113
3 6 118 116
3 13 247 249
3 247 119 248
3 247 248 249
3 13 121 119
3 13 123 121
3 14 126 124
3 16 127 58
3 16 128 127
3 16 250 252
3 252 251 128
3 250 251 252
3 17 253 255
3 255 254 60
3 253 254 255
3 17 256 257
3 258 129 259
3 260 132 261
3 262 261 130
3 260 261 262
3 19 263 265
3 263 133 264
3 263 264 265
3 19 134 133
3 19 136 134
3 21 137 62
3 21 138 137
3 22 141 139
3 24 266 268
3 266 142 267
3 266 267 268
3 24 143 142
3 24 145 143
3 269 146 270
3 271 270 65
3 269 270 271
3 273 272 146
3 26 149 147
3 28 150 68
3 28 151 150
3 29 274 276
3 276 275 152
3 274 275 276
3 30 154 70
3 30 155 154
3 30 157 155
3 278 277 71
3 32 160 158
3 34 161 73
3 34 162 161
3 279 163 280
3 282 281 163
3 283 164 284
3 35 165 75
3 35 166 165
3 36 169 167
3 38 170 78
3 38 171 170
3 15 172 125
3 39 173 81
3 39 174 173
3 39 175 174
3 285 176 286
3 40 287 288
3 40 289 291
3 289 177 290
3 289 290 291
3 40 178 177
3 41 179 84
3 41 180 179
3 33 181 159
3 42 182 87
3 42 183 182
3 18 184 131
3 43 185 90
3 43 186 185
3 43 187 186
3 44 188 92
3 44 189 188
3 44 190 189
3 45 191 94
3 45 192 191
3 20 193 135
3 46 194 97
3 46 195 194
3 46 196 195
3 47 197 99
3 47 198 197
3 292 199 293
3 292 293 294
3 295 200 296
3 297 296 199
3 295 296 297
3 298 201 299
3 301 300 201
3 302 202 303
3 304 203 305
3 306 305 202
3 304 305 306
3 307 204 308
3 309 205 310
3 311 310 204
3 309 310 311
3 312 206 313
3 314 207 315
3 316 315 206
3 314 315 316
3 317 208 318
3 23 209 140
3 48 210 102
3 48 211 210
3 48 212 211
3 49 213 104
3 49 319 321
3 321 320 213
3 319 320 321
3 49 322 323
3 325 324 106
3 25 214 144
3 50 215 109
3 50 216 215
3 27 217 148
3 51 218 112
3 51 219 218
3 51 220 219
3 52 221 114
3 52 222 221
3 37 223 168
3 53 224 117
3 53 225 224
3 327 326 153
3 54 328 329
3 54 330 332
3 330 226 331
3 330 331 332
3 54 333 335
3 335 334 226
3 333 334 335
3 55 227 120
3 55 228 227
3 55 229 228
3 56 336 338
3 338 337 122
3 336 337 338
3 56 339 340
3 31 230 156
3 57 58 14
3 59 58 57
3 59 16 58
3 59 60 16
3 61 60 59
3 61 17 60
3 341 19 342
3 343 62 344
3 345 344 19
3 343 344 345
3 346 62 347
3 348 21 349
3 350 349 62
3 348 349 350
3 63 351 353
3 353 352 22
3 351 352 353
3 64 354 356
3 356 355 63
3 354 355 356
3 64 357 359
3 357 24 358
3 357 358 359
3 64 65 24
3 66 65 64
3 66 360 362
3 362 361 65
3 360 361 362
3 67 68 26
3 69 68 67
3 69 28 68
3 363 70 364
3 365 364 29
3 363 364 365
3 366 70 367
3 368 30 369
3 370 369 70
3 368 369 370
3 371 71 372
3 373 372 30
3 371 372 373
3 374 71 375
3 377 376 71
3 72 73 32
3 74 73 72
3 74 34 73
3 378 75 379
3 76 380 382
3 380 75 381
3 380 381 382
3 76 35 75
3 77 78 36
3 79 78 77
3 79 38 78
3 80 81 15
3 82 81 80
3 82 39 81
3 82 383 385
3 385 384 39
3 383 384 385
3 387 386 82
3 83 388 389
3 83 390 392
3 390 40 391
3 390 391 392
3 83 84 40
3 85 84 83
3 85 41 84
3 86 87 33
3 88 87 86
3 88 42 87
3 89 90 18
3 91 90 89
3 91 43 90
3 91 92 43
3 93 92 91
3 93 44 92
3 93 94 44
3 95 94 93
3 95 45 94
3 96 97 20
3 98 97 96
3 98 46 97
3 98 99 46
3 100 99 98
3 100 47 99
3 101 102 23
3 103 102 101
3 103 48 102
3 103 104 48
3 105 104 103
3 105 49 104
3 105 106 49
3 107 106 105
3 107 393 395
3 395 394 106
3 393 394 395
3 397 396 25
3 108 398 400
3 398 109 399
3 398 399 400
3 110 109 108
3 110 50 109
3 111 112 27
3 113 112 111
3 113 51 112
3 113 114 51
3 115 114 113
3 115 52 114
3 116 117 37
3 118 117 116
3 118 53 117
3 119 401 402
3 119 403 405
3 403 54 404
3 403 404 405
3 119 120 54
3 121 120 119
3 121 55 120
3 121 122 55
3 123 122 121
3 123 56 122
3 407 406 31
3 408 4 409
3 124 125 5
3 126 125 124
3 126 15 125
3 58 126 14
3 127 126 58
3 127 15 126
3 127 80 15
3 128 80 127
3 128 410 412
3 412 411 80
3 410 411 412
3 128 413 414
3 416 415 128
3 60 417 419
3 419 418 16
3 417 418 419
3 421 420 60
3 129 422 423
3 129 424 426
3 424 8 425
3 424 425 426
3 130 131 3
3 132 131 130
3 132 18 131
3 427 132 428
3 133 429 431
3 429 132 430
3 429 430 431
3 133 18 132
3 133 89 18
3 134 89 133
3 134 9 89
3 134 135 9
3 136 135 134
3 136 20 135
3 62 136 19
3 137 136 62
3 137 20 136
3 137 96 20
3 138 96 137
3 138 10 96
3 139 432 434
3 432 140 433
3 432 433 434
3 141 140 139
3 141 23 140
3 435 141 436
3 437 436 22
3 435 436 437
3 142 438 440
3 438 141 439
3 438 439 440
3 142 23 141
3 142 101 23
3 143 101 142
3 143 11 101
3 143 144 11
3 145 144 143
3 145 25 144
3 65 145 24
3 146 145 65
3 146 25 145
3 146 441 443
3 443 442 25
3 441 442 443
3 445 444 146
3 147 148 7
3 149 148 147
3 149 27 148
3 68 149 26
3 150 149 68
3 150 27 149
3 150 111 27
3 151 111 150
3 151 12 111
3 152 153 6
3 446 153 447
3 448 447 152
3 446 447 448
3 450 449 153
3 70 451 453
3 453 452 29
3 451 452 453
3 154 454 456
3 456 455 70
3 454 455 456
3 154 457 458
3 154 459 460
3 155 461 463
3 463 462 154
3 461 462 463
3 155 464 466
3 464 13 465
3 464 465 466
3 155 156 13
3 157 156 155
3 157 31 156
3 71 157 30
3 467 157 468
3 469 468 71
3 467 468 469
3 470 31 471
3 472 471 157
3 470 471 472
3 474 473 31
3 158 475 477
3 475 159 476
3 475 476 477
3 160 159 158
3 160 33 159
3 73 160 32
3 161 160 73
3 161 33 160
3 161 86 33
3 162 86 161
3 162 3 86
3 478 74 479
3 480 74 481
3 482 34 483
3 484 483 74
3 482 483 484
3 485 34 486
3 487 162 488
3 489 488 34
3 487 488 489
3 163 490 492
3 490 162 491
3 490 491 492
3 163 3 162
3 163 130 3
3 493 130 494
3 495 494 163
3 493 494 495
3 497 496 130
3 498 139 499
3 164 500 502
3 500 139 501
3 500 501 502
3 164 22 139
3 75 503 505
3 503 164 504
3 503 504 505
3 165 164 75
3 165 22 164
3 165 63 22
3 166 63 165
3 166 2 63
3 167 168 1
3 169 168 167
3 169 37 168
3 78 169 36
3 170 169 78
3 170 37 169
3 170 116 37
3 171 116 170
3 171 6 116
3 125 79 5
3 172 79 125
3 172 38 79
3 81 172 15
3 173 172 81
3 173 38 172
3 173 171 38
3 174 171 173
3 174 6 171
3 174 152 6
3 175 152 174
3 175 29 152
3 506 175 507
3 508 507 39
3 506 507 508
3 509 175 510
3 511 29 512
3 513 512 175
3 511 512 513
3 515 514 29
3 516 108 517
3 176 518 520
3 518 108 519
3 518 519 520
3 176 7 108
3 521 176 522
3 177 523 525
3 523 176 524
3 523 524 525
3 177 7 176
3 177 147 7
3 178 147 177
3 178 26 147
3 84 178 40
3 179 178 84
3 179 26 178
3 179 67 26
3 180 67 179
3 180 1 67
3 159 526 527
3 181 528 530
3 530 529 159
3 528 529 530
3 181 531 532
3 87 181 33
3 182 181 87
3 182 533 535
3 535 534 181
3 533 534 535
3 182 536 538
3 536 129 537
3 536 537 538
3 183 129 182
3 183 8 129
3 131 88 3
3 184 88 131
3 184 42 88
3 90 184 18
3 185 184 90
3 185 42 184
3 185 183 42
3 186 183 185
3 186 8 183
3 186 85 8
3 187 85 186
3 187 41 85
3 92 187 43
3 188 187 92
3 188 41 187
3 188 180 41
3 189 180 188
3 189 1 180
3 189 167 1
3 190 167 189
3 190 36 167
3 94 190 44
3 191 190 94
3 191 36 190
3 191 77 36
3 192 77 191
3 192 5 77
3 135 95 9
3 193 95 135
3 193 45 95
3 97 193 20
3 194 193 97
3 194 45 193
3 194 192 45
3 195 192 194
3 195 5 192
3 195 124 5
3 196 124 195
3 196 14 124
3 99 196 46
3 197 196 99
3 197 14 196
3 197 57 14
3 198 57 197
3 198 0 57
3 199 539 540
3 199 541 542
3 199 543 545
3 543 158 544
3 543 544 545
3 200 158 199
3 200 32 158
3 546 200 547
3 201 548 550
3 548 200 549
3 548 549 550
3 201 32 200
3 201 72 32
3 551 72 552
3 553 552 201
3 551 552 553
3 556 555 72
3 554 555 556
3 557 21 558
3 557 558 559
3 560 21 561
3 562 138 563
3 564 563 21
3 562 563 564
3 565 138 566
3 567 10 568
3 569 568 138
3 567 568 569
3 202 570 571
3 202 572 574
3 572 10 573
3 572 573 574
3 202 100 10
3 203 100 202
3 203 47 100
3 575 203 576
3 204 577 579
3 577 203 578
3 577 578 579
3 204 47 203
3 204 198 47
3 205 198 204
3 205 0 198
3 580 205 581
3 206 582 584
3 582 205 583
3 582 583 584
3 206 0 205
3 206 61 0
3 207 61 206
3 207 17 61
3 585 207 586
3 587 207 588
3 589 17 590
3 591 590 207
3 589 590 591
3 593 592 17
3 208 594 595
3 208 596 598
3 596 597 598
3 140 599 600
3 209 601 603
3 603 602 140
3 601 602 603
3 209 604 605
3 102 209 23
3 210 209 102
3 210 606 608
3 608 607 209
3 606 607 608
3 210 609 611
3 609 208 610
3 609 610 611
3 211 208 210
3 211 612 614
3 614 613 208
3 612 613 614
3 211 615 616
3 212 617 619
3 619 618 211
3 617 618 619
3 212 620 621
3 104 212 48
3 213 212 104
3 213 622 624
3 624 623 212
3 622 623 624
3 213 625 627
3 625 626 627
3 629 628 213
3 106 630 632
3 632 631 49
3 630 631 632
3 634 633 106
3 144 107 11
3 214 107 144
3 214 635 637
3 637 636 107
3 635 636 637
3 638 214 639
3 640 639 25
3 638 639 640
3 641 214 642
3 644 643 214
3 109 645 646
3 215 647 649
3 649 648 109
3 647 648 649
3 215 650 651
3 215 652 653
3 216 654 656
3 656 655 215
3 654 655 656
3 216 657 659
3 657 4 658
3 657 658 659
3 148 110 7
3 217 110 148
3 217 50 110
3 112 217 27
3 218 217 112
3 218 50 217
3 218 216 50
3 219 216 218
3 219 4 216
3 219 76 4
3 220 76 219
3 220 35 76
3 114 220 51
3 221 220 114
3 221 35 220
3 221 166 35
3 222 166 221
3 222 2 166
3 168 69 1
3 223 69 168
3 223 28 69
3 117 223 37
3 224 223 117
3 224 28 223
3 224 151 28
3 225 151 224
3 225 12 151
3 153 118 6
3 660 118 661
3 662 661 153
3 660 661 662
3 663 53 664
3 665 664 118
3 663 664 665
3 666 53 667
3 668 225 669
3 670 669 53
3 668 669 670
3 226 671 673
3 671 225 672
3 671 672 673
3 226 12 225
3 226 115 12
3 674 115 675
3 676 675 226
3 674 675 676
3 677 52 678
3 679 678 115
3 677 678 679
3 120 680 682
3 682 681 54
3 680 681 682
3 227 683 685
3 685 684 120
3 683 684 685
3 227 686 688
3 686 52 687
3 686 687 688
3 227 222 52
3 228 222 227
3 228 2 222
3 228 66 2
3 229 66 228
3 229 689 691
3 691 690 66
3 689 690 691
3 122 229 55
3 692 229 693
3 694 693 122
3 692 693 694
3 696 695 229
3 156 123 13
3 230 123 156
3 230 56 123
3 697 230 698
3 699 698 31
3 697 698 699
3 700 230 701
3 702 56 703
3 704 703 230
3 702 703 704
3 706 705 56
