ply
format ascii 1.0
element vertex 230
property float x
property float y
property float z
element face 189
property list uchar int vertex_index
end_header
5.171001 26.621136 -30.179827
-0.623058 30.795406 -29.865072
-2.309774 32.997036 -27.667566
-5.358206 29.522694 -15.205976
-4.291563 26.80341 -20.059015
-3.007002 24.313438 -24.119432
-1.179867 22.074032 -26.988348
1.463388 20.089172 -28.380007
1.934399 28.621113 -30.515451
7.29686 32.700203 -31.635664
4.99799 22.607006 -29.340994
6.841379 21.823132 -29.12343
-5.860712 30.922924 -12.562134
-3.694494 25.526493 -22.210989
-3.252947 29.825275 -24.085249
-1.572245 31.898277 -28.967123
-1.87068 27.569611 -27.344027
-0.910376 26.485435 -28.432474
0.032307 21.047626 -27.86989
0.267511 25.435139 -29.128588
1.663643 24.42902 -29.458555
0.550409 29.697701 -30.364332
5.441093 30.348251 -31.010496
6.917891 25.751896 -29.941626
-0.268059 34.930893 -31.202185
8.732624 21.143394 -28.954485
-6.562292 27.094116 -10.462782
-6.029436 25.582413 -13.177008
-5.460863 24.074951 -15.758066
-4.852705 22.61425 -18.186197
-4.837687 28.140205 -17.712248
-4.185331 21.228279 -20.4312
-3.425467 19.931549 -22.450602
-2.532061 18.728767 -24.193151
-2.637571 28.682667 -25.879496
-2.183035 23.163105 -25.728605
3.100674 19.206982 -28.568167
3.254593 23.481022 -29.493666
3.491817 27.58696 -30.41308
0.927361 33.750301 -31.505449
2.312859 32.569187 -31.495176
-3.279743 32.504323 -24.058808
-3.509838 30.413604 -23.053024
6.258382 29.876103 -30.899919
5.622428 32.010303 -31.408278
8.006272 30.661693 -31.170347
8.046613 32.341223 -31.632919
8.710575 23.073025 -29.377405
7.825257 23.447645 -29.448055
7.803209 25.377275 -29.870976
-6.449103 29.696254 -10.128408
-6.805811 27.824648 -9.046266
-2.473673 30.839852 -26.773531
-2.754395 31.386429 -25.941161
-2.590496 33.543613 -26.835196
-1.322326 19.846773 -26.298345
-1.82391 20.391309 -25.668474
-1.681451 22.618569 -26.358477
-0.686381 19.338282 -26.824312
-1.322326 19.846773 -26.298345
1.380537 17.883747 -27.860948
0.664996 18.362974 -27.60589
0.747847 20.568399 -28.124949
2.231984 17.469476 -28.032457
1.380537 17.883747 -27.860948
2.282031 19.648077 -28.474087
3.050627 17.028382 -28.126537
2.231984 17.469476 -28.032457
0.567652 36.276084 -31.939767
0.329651 34.340597 -31.353817
-0.030058 36.86638 -31.788135
2.569709 34.36412 -31.928313
1.876597 35.029635 -31.997508
3.074937 31.994847 -31.390733
2.569709 34.36412 -31.928313
6.765114 34.578287 -32.081042
6.550312 33.186279 -31.720861
7.415473 34.159361 -32.03828
6.765114 34.578287 -32.081042
8.046613 32.341223 -31.632919
7.415473 34.159361 -32.03828
5.922097 20.158163 -28.850277
4.954426 20.508806 -28.93215
6.843791 19.766226 -28.741495
5.922097 20.158163 -28.850277
5.919684 22.215069 -29.232212
7.846964 19.467009 -28.658974
6.843791 19.766226 -28.741495
-5.692503 33.466249 -12.277311
-6.098313 31.610658 -11.178083
-5.47958 32.832201 -13.634634
-5.692503 33.466249 -12.277311
-5.228327 32.132086 -14.956555
-5.609459 30.222809 -13.884055
-5.47958 32.832201 -13.634634
-5.011322 31.495219 -16.250867
-5.228327 32.132086 -14.956555
-3.730612 28.264213 -22.115895
-3.993029 26.164952 -21.135002
-4.029146 28.902672 -21.039907
-3.47372 27.675884 -23.148119
-3.730612 28.264213 -22.115895
-3.509838 30.413604 -23.053024
6.996781 27.577925 -30.365485
6.179492 28.050073 -30.476061
6.258382 29.876103 -30.899919
7.803209 25.377275 -29.870976
6.996781 27.577925 -30.365485
7.186266 31.052079 -31.212503
6.550312 33.186279 -31.720861
7.186266 31.052079 -31.212503
8.006272 30.661693 -31.170347
-2.420418 35.639416 -27.776493
-2.590496 33.543613 -26.835196
-2.149065 35.101639 -28.53207
-2.420418 35.639416 -27.776493
-1.780301 34.55226 -29.181849
-1.941009 32.447657 -28.317345
-2.149065 35.101639 -28.53207
-1.406887 33.992979 -29.737797
-1.780301 34.55226 -29.181849
-0.932294 33.441544 -30.186771
-1.097652 31.346842 -29.416097
-1.406887 33.992979 -29.737797
-0.754794 35.509287 -30.855328
-0.445558 32.863149 -30.533628
-0.932294 33.441544 -30.186771
-0.544092 37.495859 -31.543351
-0.754794 35.509287 -30.855328
-0.030058 36.86638 -31.788135
-0.544092 37.495859 -31.543351
8.792586 19.12714 -28.574501
7.846964 19.467009 -28.658974
7.787001 21.483263 -29.038957
9.680715 20.859848 -28.934652
8.710575 23.073025 -29.377405
9.805165 18.882046 -28.540231
9.680715 20.859848 -28.934652
8.792586 19.12714 -28.574501
9.805165 18.882046 -28.540231
-6.85972 25.181654 -9.439434
-6.805811 27.824648 -9.046266
-6.594642 24.379779 -10.837763
-6.85972 25.181654 -9.439434
-6.211502 29.00852 -11.512458
-6.449103 29.696254 -10.128408
-6.098313 31.610658 -11.178083
-6.328214 23.623928 -12.194876
-6.594642 24.379779 -10.837763
-6.295864 26.338265 -11.819895
-6.036989 22.813792 -13.530627
-6.328214 23.623928 -12.194876
-5.752702 22.06006 -14.821155
-6.036989 22.813792 -13.530627
-5.74515 24.828682 -14.467537
-5.43309 21.269779 -16.084032
-5.752702 22.06006 -14.821155
-5.156784 23.3446 -16.972131
-5.129011 20.539428 -17.298098
-5.43309 21.269779 -16.084032
-4.751062 30.803974 -17.504003
-5.097946 28.83145 -16.459112
-5.011322 31.495219 -16.250867
-4.531748 30.17847 -18.727619
-4.751062 30.803974 -17.504003
-4.258686 29.510073 -19.901002
-4.564625 27.471808 -18.885631
-4.531748 30.17847 -18.727619
-4.029146 28.902672 -21.039907
-4.258686 29.510073 -19.901002
-4.772072 19.790304 -18.47377
-5.129011 20.539428 -17.298098
-4.438385 19.097319 -19.596272
-4.772072 19.790304 -18.47377
-4.519018 21.921264 -19.308698
-4.029136 18.40294 -20.665087
-4.438385 19.097319 -19.596272
-3.649204 17.754576 -21.674788
-4.029136 18.40294 -20.665087
-3.805399 20.579914 -21.440901
-3.169054 17.121534 -22.612621
-3.649204 17.754576 -21.674788
-2.722352 16.520143 -23.483896
-3.169054 17.121534 -22.612621
-2.978764 19.330158 -23.321877
-2.152741 15.949942 -24.265716
-2.722352 16.520143 -23.483896
-3.062082 31.957733 -25.044037
-3.279743 32.504323 -24.058808
-2.945259 29.253971 -24.982373
-3.062082 31.957733 -25.044037
-2.754395 31.386429 -25.941161
-1.998423 18.174141 -24.900747
-2.357548 20.945936 -24.960878
-1.82391 20.391309 -25.668474
-2.152741 15.949942 -24.265716
-1.998423 18.174141 -24.900747
-0.080294 18.825079 -27.265083
-0.686381 19.338282 -26.824312
-0.57378 21.560829 -27.429119
-0.080294 18.825079 -27.265083
0.664996 18.362974 -27.60589
3.99501 16.664156 -28.164657
3.050627 17.028382 -28.126537
4.005768 18.808794 -28.545737
3.99501 16.664156 -28.164657
4.082727 20.945814 -29.008486
4.005768 18.808794 -28.545737
3.177633 21.344002 -29.030917
4.126291 23.044014 -29.41733
4.954426 20.508806 -28.93215
4.082727 20.945814 -29.008486
1.183849 35.620192 -32.002645
0.567652 36.276084 -31.939767
1.62011 33.159744 -31.500312
1.183849 35.620192 -32.002645
1.876597 35.029635 -31.997508
3.664416 29.503733 -30.849685
2.902338 30.078074 -30.954128
3.074937 31.994847 -31.390733
4.504008 29.020821 -30.733059
4.331409 27.104048 -30.296453
3.664416 29.503733 -30.849685
4.639054 30.884379 -31.148393
5.306047 28.484693 -30.595161
4.504008 29.020821 -30.733059
4.871587 32.604286 -31.548285
4.639054 30.884379 -31.148393
5.622428 32.010303 -31.408278
4.871587 32.604286 -31.548285
3 0 11 10
3 41 14 42
3 1 17 15
3 1 19 17
3 1 21 19
3 44 43 22
3 46 45 9
3 47 25 48
3 49 48 23
3 47 48 49
3 50 26 51
3 3 27 12
3 3 28 27
3 3 30 28
3 4 31 29
3 5 32 13
3 5 33 32
3 2 52 54
3 52 34 53
3 52 53 54
3 6 35 16
3 6 55 57
3 57 56 35
3 55 56 57
3 6 58 59
3 7 60 62
3 62 61 18
3 60 61 62
3 7 63 64
3 7 65 67
3 65 36 66
3 65 66 67
3 8 37 20
3 8 38 37
3 68 39 69
3 70 69 24
3 68 69 70
3 71 40 72
3 74 73 40
3 75 9 76
3 77 9 78
3 80 79 9
3 10 81 82
3 11 83 85
3 85 84 10
3 83 84 85
3 11 86 87
3 88 12 89
3 90 12 91
3 92 3 93
3 94 93 12
3 92 93 94
3 96 95 3
3 97 13 98
3 99 98 4
3 97 98 99
3 14 100 102
3 100 13 101
3 100 101 102
3 14 5 13
3 15 16 2
3 17 16 15
3 17 6 16
3 17 18 6
3 19 18 17
3 19 7 18
3 19 20 7
3 21 20 19
3 21 8 20
3 22 23 0
3 103 23 104
3 105 104 22
3 103 104 105
3 107 106 23
3 9 108 109
3 111 110 9
3 112 2 113
3 114 2 115
3 116 15 117
3 118 117 2
3 116 117 118
3 119 15 120
3 121 1 122
3 123 122 15
3 121 122 123
3 124 24 125
3 126 125 1
3 124 125 126
3 127 24 128
3 130 129 24
3 23 11 0
3 25 11 23
3 25 131 133
3 133 132 11
3 131 132 133
3 134 25 135
3 136 25 137
3 139 138 25
3 26 140 141
3 26 142 143
3 12 144 146
3 144 26 145
3 144 145 146
3 27 26 12
3 27 147 149
3 149 148 26
3 147 148 149
3 27 150 151
3 28 152 154
3 154 153 27
3 152 153 154
3 28 155 156
3 28 157 159
3 157 29 158
3 157 158 159
3 30 29 28
3 30 4 29
3 160 30 161
3 162 161 3
3 160 161 162
3 163 30 164
3 165 4 166
3 167 166 30
3 165 166 167
3 169 168 4
3 29 170 171
3 31 172 174
3 174 173 29
3 172 173 174
3 31 175 176
3 13 31 4
3 32 31 13
3 32 177 179
3 179 178 31
3 177 178 179
3 32 180 181
3 33 182 184
3 184 183 32
3 182 183 184
3 33 185 186
3 187 14 188
3 34 189 191
3 189 14 190
3 189 190 191
3 34 5 14
3 16 34 2
3 35 34 16
3 35 5 34
3 35 33 5
3 192 33 193
3 194 193 35
3 192 193 194
3 196 195 33
3 18 197 199
3 199 198 6
3 197 198 199
3 201 200 18
3 36 202 203
3 36 204 205
3 20 36 7
3 37 36 20
3 37 206 208
3 208 207 36
3 206 207 208
3 37 209 211
3 209 10 210
3 209 210 211
3 38 10 37
3 38 0 10
3 24 21 1
3 39 21 24
3 39 8 21
3 212 39 213
3 40 214 216
3 214 39 215
3 214 215 216
3 40 8 39
3 40 38 8
3 217 38 218
3 219 218 40
3 217 218 219
3 220 0 221
3 222 221 38
3 220 221 222
3 223 22 224
3 225 224 0
3 223 224 225
3 226 22 227
3 229 228 22
