ply
format ascii 1.0
element vertex 1068
property float x
property float y
property float z
element face 1077
property list uchar int vertex_index
end_header
46.346249 -66.273041 50.361885
46.506927 -84.825897 43.900452
55.842518 -62.785625 20.594648
50.797157 -78.366135 22.371367
38.095104 -62.993671 51.370918
40.857025 -72.651733 52.485313
56.482155 -66.205521 30.621853
53.809883 -70.530518 21.792034
53.640564 -74.00766 32.270641
60.393517 -61.075497 38.078217
60.539753 -58.92271 27.865288
53.442974 -68.310852 48.220749
52.370216 -76.218964 42.810089
48.037212 -75.875702 50.219124
41.255127 -82.547531 50.681282
34.805485 -85.260643 47.953022
56.2603 -66.742538 12.187141
49.639908 -82.752548 33.361591
66.357849 -52.066395 24.44595
36.515747 -58.615379 51.767296
56.844284 -67.456596 35.783073
55.052483 -70.024544 31.562229
55.16584 -71.29673 36.824371
57.561653 -64.869949 43.769562
58.519356 -64.600533 39.451759
58.623817 -63.799622 34.503494
50.302826 -67.533218 49.890617
50.974285 -72.091003 49.34565
47.724113 -71.134811 50.944443
37.769234 -75.163292 53.498634
41.379318 -77.634628 52.374542
52.484818 -63.892445 48.686943
55.316513 -64.813309 16.51963
52.550217 -74.340355 22.091156
53.514313 -72.412659 16.999815
51.705704 -76.154152 17.123446
49.620605 -80.505623 43.549721
51.082626 -79.691376 38.370743
48.384796 -84.248131 38.862526
57.832291 -60.839977 24.332111
60.385586 -57.163506 22.78661
57.615032 -58.867374 19.442169
42.041367 -64.681976 50.499405
43.778881 -69.619919 51.440033
39.667984 -67.723099 51.84417
37.081551 -70.331497 53.425392
56.016014 -64.614273 25.531586
54.739258 -66.6996 21.348103
54.747211 -68.446083 26.373795
53.623352 -72.328751 26.94573
52.202835 -76.34639 27.400673
43.314026 -88.740746 43.401245
45.491272 -88.793633 38.755558
62.997566 -56.770466 31.486479
60.642532 -60.253529 33.045265
58.254681 -62.512909 29.38158
55.561111 -68.550735 45.084
54.66124 -72.125168 41.884689
53.295826 -72.413338 46.243
50.613831 -76.422272 47.180618
44.697296 -74.57531 51.788712
44.709732 -79.48526 50.753281
44.105282 -84.259613 47.93187
40.773148 -87.248222 47.036545
34.625694 -89.101036 42.226593
31.470282 -88.653214 39.686119
54.661835 -68.711929 16.852802
53.335503 -75.365936 37.660774
51.87624 -78.222534 32.870422
50.31958 -80.670876 27.807423
48.201363 -85.419426 27.997688
47.930756 -85.122513 17.149899
63.343346 -55.432106 26.163612
63.563576 -53.614086 21.004688
56.005096 -69.350143 36.334148
55.937759 -69.817238 38.891777
57.212036 -66.612251 42.394299
58.164543 -64.801773 41.723602
57.588112 -66.406433 40.123581
48.404037 -66.956314 50.23365
49.070816 -69.345352 50.443703
47.163193 -68.717926 50.77491
45.321156 -63.805466 49.820595
47.486954 -64.52523 49.793236
55.643333 -62.787544 16.233408
55.376823 -63.796719 18.598675
51.725426 -76.307404 22.232433
52.097244 -75.258904 19.614388
51.156197 -77.23468 19.718796
50.667419 -78.162315 17.191591
50.163029 -79.330704 19.815479
48.09317 -82.681213 43.798752
49.015366 -82.427124 41.312263
47.518204 -84.669678 41.473846
56.687332 -61.799229 22.502506
57.692261 -59.887787 21.864681
56.622826 -60.819843 20.070368
56.641144 -59.779938 17.686172
39.974842 -63.833359 50.787651
40.888451 -66.249313 51.14991
38.904766 -65.323151 51.535431
37.286423 -60.753845 51.429634
39.018501 -61.474174 50.591461
40.994179 -62.246803 50.095917
56.232986 -65.444656 28.06024
55.334465 -66.524918 25.994328
55.524616 -67.342422 28.543999
54.369583 -71.992363 31.937454
54.28326 -71.212257 29.292889
53.641827 -73.19516 29.590267
52.970581 -74.311111 27.17915
52.916382 -75.224884 29.861725
60.017193 -61.27758 40.401031
61.367496 -59.331928 37.403419
61.628227 -58.985973 34.877365
60.586018 -60.732597 35.604469
57.548611 -65.030121 32.606583
58.47068 -63.211384 31.943775
57.057922 -63.569672 27.492411
54.634178 -68.498398 46.828079
54.471436 -70.460297 45.690166
53.494987 -70.399879 47.431179
49.564911 -73.990562 49.816208
50.902058 -74.28479 48.46637
49.42749 -76.246002 48.890129
49.097504 -78.453049 47.554977
47.84293 -78.194153 49.237358
42.35347 -71.18605 51.962769
44.356075 -72.099564 51.744446
42.811523 -73.678741 52.181778
41.384079 -80.107956 51.762901
43.103123 -78.655869 51.69059
42.979099 -81.115974 50.814926
44.457417 -81.897705 49.57148
42.733131 -83.535767 49.461044
42.417969 -85.894196 47.630043
41.036125 -84.934464 49.101685
37.799904 -86.759872 47.576248
36.255547 -87.134674 46.475288
36.136997 -89.13868 43.644852
34.731064 -87.191971 45.255177
53.106079 -66.142288 48.621353
54.531944 -66.451134 47.587002
55.693771 -66.633621 46.183662
31.616743 -86.771904 42.921108
29.981049 -86.585503 42.044777
56.363731 -64.732758 12.101545
54.2883 -68.626015 21.599566
54.563908 -67.723343 19.131395
54.135906 -69.62587 19.292347
54.350494 -71.479904 14.561199
53.567619 -74.144569 42.369156
54.024639 -73.789009 39.870872
52.947205 -75.865417 40.294838
50.373756 -81.276367 35.91851
51.557056 -79.024391 35.632286
50.80909 -80.445404 33.139805
51.106747 -79.493011 30.364262
50.036831 -81.762436 30.575855
47.15332 -87.919228 27.902706
47.584541 -86.659821 25.206295
48.295307 -83.972092 19.86554
67.726776 -50.448486 23.648275
61.849388 -57.894516 29.645191
63.190163 -56.163696 28.813499
61.886055 -57.164085 27.029018
60.327347 -56.145931 20.314945
61.918343 -55.371914 21.914055
61.918327 -54.326027 19.431036
56.836075 -57.522449 13.087651
37.138149 -64.397385 52.234039
35.807587 -56.579208 52.409424
35.863033 -60.12376 52.616051
56.706192 -66.881378 33.20406
55.741123 -68.09726 31.127748
55.921722 -68.772133 33.732742
55.163696 -70.708496 34.195625
54.39032 -72.69574 34.603142
58.501373 -63.090733 43.11483
59.095634 -63.028034 41.051704
59.450264 -62.828037 38.764351
59.601501 -62.489796 36.322803
58.657753 -64.265396 37.023575
51.993298 -67.987854 49.237709
52.263283 -70.193848 48.81205
50.782394 -69.840927 49.810532
49.456909 -71.69014 50.325653
48.010925 -73.521317 50.779282
39.318802 -73.988258 53.003174
41.208317 -75.14418 52.582756
39.580677 -76.457092 52.928848
51.615417 -61.563286 48.512146
50.607384 -63.365509 49.069534
51.433689 -65.711563 49.29567
56.316582 -59.612148 13.565594
56.001419 -61.707371 13.930637
55.807076 -63.780903 14.19582
55.633968 -65.805962 14.374484
53.243156 -72.42659 21.948729
53.602234 -71.496635 19.412106
52.923843 -73.361351 19.513746
52.67849 -74.254608 17.058083
52.507935 -75.129242 14.600522
51.053593 -78.343254 43.208405
51.753632 -78.001976 40.684666
50.43792 -80.194046 41.032982
49.77755 -81.948494 38.661629
49.09346 -83.595642 36.138271
45.462666 -91.479271 30.233273
66.018326 -52.789726 27.159889
59.160316 -59.891624 26.107864
60.457817 -58.091881 25.305412
59.015495 -58.987156 23.598276
58.907825 -58.001106 21.132084
58.835808 -56.940773 18.712828
57.591061 -57.78307 17.06835
56.722237 -58.679268 15.355884
44.19717 -65.505707 50.402771
45.112392 -67.976288 50.90995
42.990921 -67.144043 50.985703
41.699501 -68.705307 51.579323
40.333717 -70.172432 52.19873
37.785973 -66.703705 52.361382
38.392338 -69.088821 52.600174
38.915291 -71.525131 52.852501
37.470718 -72.740273 53.535049
37.187897 -56.984585 50.979485
43.12664 -63.035442 49.876274
55.876839 -63.726181 23.041771
55.2341 -64.750061 21.017828
55.225006 -65.658585 23.48447
54.680107 -67.588196 23.838589
54.179298 -69.511757 24.118641
54.891937 -69.263809 28.950377
54.197273 -70.378441 26.684336
53.656654 -71.434052 24.344826
53.05439 -73.36972 24.539715
52.335159 -75.342979 24.722387
51.491417 -77.384315 24.90152
44.902176 -86.873703 43.788769
45.986351 -86.868065 41.45417
44.456451 -88.946526 41.187035
61.774719 -58.504444 32.273666
60.612404 -59.646751 30.453098
59.596458 -62.017105 33.791615
59.488003 -61.41851 31.222923
59.327988 -60.705807 28.653856
58.02813 -61.718166 26.840061
55.677826 -70.162941 41.349831
55.19548 -70.379425 43.640327
54.094769 -72.341721 44.188515
52.900829 -74.353638 44.684566
52.256214 -72.33168 47.978817
52.014046 -74.403786 46.740116
51.594109 -76.409531 45.131409
50.168186 -78.499176 45.524433
48.634422 -80.602966 45.842564
45.812653 -70.438141 51.276794
46.261684 -72.885559 51.392784
46.452782 -75.314552 51.168243
43.05806 -76.172371 52.123169
44.805492 -77.040138 51.480476
46.408577 -77.720444 50.540916
46.174042 -80.095024 49.479378
45.806763 -82.425308 47.98185
45.365551 -84.692436 46.07122
43.708706 -86.548576 45.859398
35.997791 -91.101036 40.513359
34.477585 -91.020302 38.974819
53.480408 -62.08675 48.110115
56.692253 -64.808395 45.524944
56.585663 -66.687729 44.436104
33.231812 -77.473625 54.625542
33.265091 -85.197128 46.943493
33.19445 -87.026001 44.029572
33.078453 -88.887489 40.862923
32.894733 -90.825302 37.558563
29.79248 -88.562065 38.813629
54.951447 -65.778954 18.906399
55.018532 -66.791718 16.720428
55.382648 -67.763657 14.481806
54.174511 -70.578156 16.938126
54.971115 -69.649857 14.536643
55.967339 -68.67215 12.216534
55.010254 -71.773254 39.406624
54.289406 -73.300812 37.262207
53.555229 -74.739487 34.970657
52.271454 -77.49556 38.030602
52.618275 -76.846619 35.31221
52.819038 -76.080322 32.578651
52.073555 -77.318192 30.119989
51.312057 -78.45903 27.614357
50.547096 -79.524048 25.070063
46.943504 -86.55088 38.915554
47.75462 -85.957268 36.240921
48.407028 -85.132446 33.49255
46.599201 -89.039909 30.596596
47.747696 -86.567169 30.742893
48.90313 -84.126945 30.71839
49.548912 -81.78389 25.203728
49.819092 -80.548523 22.489786
48.724331 -82.642311 17.241249
48.465332 -83.778183 14.597812
47.777172 -86.342911 14.427164
64.601471 -54.459419 27.977226
64.860954 -53.730755 25.293322
61.906307 -56.32077 24.448032
63.467934 -54.580246 23.557623
65.077011 -52.873119 22.661823
56.291821 -69.037544 39.826404
56.388801 -68.867806 38.605961
57.116997 -67.332142 40.442307
57.400074 -66.509342 41.25894
56.928959 -67.435051 41.577665
57.213978 -67.162403 39.221863
57.116997 -67.332142 40.442307
55.609671 -63.291172 19.596661
55.647441 -62.793728 18.396752
55.880289 -62.288181 19.394739
55.880289 -62.288181 19.394739
56.270443 -61.30529 19.132599
56.232672 -61.802734 20.332508
60.670376 -60.306444 38.931591
60.482214 -60.407486 40.092999
60.205355 -61.176538 39.239624
60.880507 -60.203712 37.740818
61.157365 -59.43466 38.594192
60.670376 -60.306444 38.931591
56.896876 -65.275391 30.330641
57.430104 -64.687691 31.323006
57.015383 -65.617821 31.614218
56.35757 -65.825088 29.341047
56.772291 -64.894959 29.049834
56.896876 -65.275391 30.330641
35.530516 -86.197659 47.214155
36.304125 -86.103092 47.691967
35.579094 -85.166077 48.430834
29.205763 -85.651401 43.34718
30.036999 -85.684041 43.618511
56.74461 -66.173302 11.080648
56.796326 -65.168412 11.03785
56.312016 -65.737648 12.144343
56.682568 -67.167938 11.085045
56.74461 -66.173302 11.080648
47.342894 -87.270748 23.780987
47.123331 -87.937672 25.096682
47.763373 -85.992737 23.865053
47.342894 -87.270748 23.780987
67.042313 -51.257441 24.047113
67.535488 -50.807018 25.017049
66.851024 -51.615972 25.415886
66.499184 -51.635374 23.118405
67.183647 -50.82642 22.719567
67.042313 -51.257441 24.047113
61.096624 -54.687309 18.661541
61.122837 -55.235979 19.872991
60.301134 -55.597262 19.103496
61.905974 -53.760573 18.214475
61.096624 -54.687309 18.661541
56.894131 -56.9238 11.990598
56.701187 -57.973021 12.222615
35.53774 -60.801653 53.079185
35.321079 -59.875526 53.351845
36.175387 -61.160668 52.456734
35.53774 -60.801653 53.079185
58.031513 -63.980341 43.442196
58.07309 -63.055765 44.001623
57.603229 -63.945374 44.328989
57.277666 -66.533024 35.476873
57.292731 -66.763759 36.73854
56.775238 -67.168987 34.493567
57.20862 -66.245415 34.187366
57.277666 -66.533024 35.476873
49.580069 -63.056463 49.144291
50.088124 -62.160108 48.872669
50.868257 -66.62239 49.593143
50.489519 -65.439605 49.476639
49.924087 -66.350433 49.774113
56.04422 -61.221146 14.889741
56.159 -60.659759 13.748116
56.201802 -60.173535 14.707219
51.556099 -76.605732 15.878557
51.957215 -76.093277 14.617095
52.10682 -75.641697 15.861984
50.488752 -78.643497 15.927801
50.158218 -79.240657 17.216801
65.820793 -53.081823 28.540067
66.458622 -52.261656 28.168784
56.404629 -59.707094 15.602364
56.681691 -59.229603 16.521028
56.364082 -60.25743 16.767508
56.201802 -60.173535 14.707219
56.519409 -59.145708 14.460739
56.404629 -59.707094 15.602364
36.967854 -66.189911 52.78577
37.462061 -65.550545 52.297711
36.643941 -65.036751 52.722099
37.736944 -69.710159 53.012783
37.511256 -68.527191 52.94262
36.855862 -69.148529 53.355229
56.426968 -63.665895 25.254776
56.947921 -63.143595 26.235188
56.536968 -64.091972 26.511999
55.946427 -64.170227 24.286679
56.35738 -63.221849 24.009868
56.426968 -63.665895 25.254776
55.378296 -69.46508 44.362164
55.711433 -69.424583 43.339878
55.894249 -68.510238 44.061715
48.059292 -80.535884 46.839793
48.865963 -79.528008 46.698771
48.290833 -79.460926 47.695999
47.827587 -81.644363 45.943422
48.059292 -80.535884 46.839793
41.427921 -87.70832 46.196003
42.250332 -87.031307 46.492752
41.595558 -86.571209 47.333294
40.639484 -88.359024 45.784916
41.427921 -87.70832 46.196003
38.491947 -87.507148 46.860042
37.722847 -87.819805 46.281892
56.12138 -64.714946 46.232708
56.604839 -63.816677 45.923975
55.894249 -68.510238 44.061715
56.406525 -67.578735 43.737766
56.073387 -67.619232 44.760052
32.491479 -77.656372 54.742165
32.492441 -76.676147 55.363816
33.256439 -78.492717 53.989289
32.491479 -77.656372 54.742165
32.483426 -85.094234 46.465515
32.505495 -84.226269 47.861021
32.448106 -86.008671 45.008555
33.229771 -86.111565 45.486532
32.483426 -85.094234 46.465515
28.923991 -88.659367 38.573719
29.04025 -87.589439 40.153473
55.197921 -70.088261 13.37282
54.660804 -70.564881 14.548921
54.887611 -71.003285 13.385098
55.696033 -69.599407 12.212766
55.469227 -69.161003 13.376589
55.197921 -70.088261 13.37282
56.329544 -69.085358 11.083244
55.696033 -69.599407 12.212766
47.452414 -86.754551 34.859312
47.075156 -87.135106 36.203277
47.778618 -86.34214 33.485126
48.080824 -85.544857 34.866736
47.452414 -86.754551 34.859312
46.363552 -89.73954 29.1084
46.030934 -90.25959 30.414935
45.795285 -90.959221 28.926738
48.734356 -84.20636 27.973684
49.08524 -83.56012 29.334035
48.552246 -84.773186 29.358039
49.200539 -82.327259 23.879141
49.048956 -82.976212 25.233963
49.335628 -81.709575 22.52217
49.684002 -81.166207 23.846757
49.200539 -82.327259 23.879141
49.504559 -81.061672 21.183453
49.335628 -81.709575 22.52217
47.79347 -86.991371 13.072595
47.482813 -87.675278 14.274464
48.097071 -85.667855 13.196403
47.79347 -86.991371 13.072595
63.646668 -55.913786 31.09142
63.464355 -56.146889 32.452331
64.40382 -52.753002 20.546444
65.160538 -52.382519 21.375011
64.320293 -53.243603 21.833255
56.42247 -68.634258 37.327146
56.42469 -68.403369 36.058611
56.842064 -67.687485 37.051609
55.971428 -69.583691 37.612962
56.42247 -68.634258 37.327146
56.388801 -68.867806 38.605961
57.664645 -66.238678 38.908794
58.130267 -65.335728 38.572884
58.053734 -65.503483 39.78767
57.664645 -66.238678 38.908794
57.213978 -67.162403 39.221863
56.842064 -67.687485 37.051609
57.292731 -66.763759 36.73854
37.864593 -76.369777 53.346305
37.000851 -75.654857 53.722626
45.849852 -62.931939 49.532959
44.739169 -62.565195 49.549179
46.932751 -63.291821 49.519279
45.849852 -62.931939 49.532959
46.404055 -64.165348 49.806916
48.019853 -63.636323 49.506142
46.932751 -63.291821 49.519279
48.516151 -64.846439 49.725422
48.019853 -63.636323 49.506142
48.974693 -66.061981 49.945629
48.516151 -64.846439 49.725422
47.945495 -65.740772 50.013443
49.353431 -67.244766 50.062134
49.924087 -66.350433 49.774113
48.974693 -66.061981 49.945629
55.780696 -62.289141 17.214119
55.865177 -61.761232 16.041126
55.510078 -63.292131 17.416041
55.780696 -62.289141 17.214119
55.647441 -62.793728 18.396752
49.906023 -79.824852 18.528745
50.158218 -79.240657 17.216801
50.415224 -78.74651 18.503535
56.279602 -60.785337 17.940501
56.631985 -60.299891 18.87827
56.270443 -61.30529 19.132599
56.364082 -60.25743 16.767508
56.279602 -60.785337 17.940501
36.267179 -69.716926 53.867798
36.855862 -69.148529 53.355229
36.418991 -70.883934 53.86768
36.267179 -69.716926 53.867798
37.680554 -59.970605 51.034214
37.295215 -58.901372 51.203045
36.901085 -59.684612 51.598465
38.546593 -60.33077 50.615127
37.680554 -59.970605 51.034214
38.152462 -61.114009 51.010548
39.467726 -60.664037 50.233727
38.546593 -60.33077 50.615127
40.00634 -61.860489 50.343689
40.455565 -61.050352 49.985954
39.467726 -60.664037 50.233727
43.133585 -89.777813 42.010212
42.539396 -89.538883 43.048495
60.171492 -60.439298 41.174265
59.717121 -61.308205 41.451107
60.171492 -60.439298 41.174265
60.482214 -60.407486 40.092999
61.638514 -58.565273 38.304066
61.157365 -59.43466 38.594192
61.880442 -58.461965 37.072853
61.638514 -58.565273 38.304066
61.497861 -59.158951 36.140392
62.010807 -58.288988 35.809826
61.880442 -58.461965 37.072853
57.891138 -63.778323 30.991602
58.009646 -64.120752 32.275179
57.430104 -64.687691 31.323006
57.783138 -63.429085 29.710504
58.36268 -62.862147 30.662678
57.891138 -63.778323 30.991602
57.184759 -63.957466 28.76592
57.656301 -63.041291 28.436996
57.783138 -63.429085 29.710504
56.645454 -64.507164 27.776325
57.184759 -63.957466 28.76592
56.772291 -64.894959 29.049834
47.663545 -79.331478 48.537189
48.290833 -79.460926 47.695999
48.470217 -78.323601 48.396168
37.076303 -85.915691 48.242447
37.867203 -85.661175 48.647221
37.027726 -86.947273 47.025768
37.076303 -85.915691 48.242447
36.304125 -86.103092 47.691967
36.950668 -88.007206 45.731413
37.722847 -87.819805 46.281892
37.027726 -86.947273 47.025768
36.196272 -88.136677 45.06007
36.891393 -89.009209 44.316195
36.950668 -88.007206 45.731413
53.624178 -65.228218 48.306598
53.313547 -64.103296 48.339393
52.795448 -65.017366 48.654148
54.337111 -65.382641 47.789423
53.624178 -65.228218 48.306598
53.819012 -66.296711 48.104177
55.041226 -65.536316 47.263737
54.337111 -65.382641 47.789423
55.112858 -66.542378 46.885332
55.622139 -65.62756 46.562067
55.041226 -65.536316 47.263737
30.854846 -85.777241 44.056676
31.659252 -85.881623 44.454323
30.798896 -86.678704 42.482943
30.854846 -85.777241 44.056676
30.036999 -85.684041 43.618511
56.75218 -64.135628 11.005261
56.36866 -63.694991 12.022893
56.75218 -64.135628 11.005261
56.796326 -65.168412 11.03785
53.933101 -72.384598 14.569274
53.932403 -71.946281 15.780507
53.515011 -72.850975 15.788582
54.485439 -71.906666 13.373643
53.933101 -72.384598 14.569274
54.887611 -71.003285 13.385098
54.485439 -71.906666 13.373643
45.943482 -88.553288 37.460596
45.267226 -89.69231 37.304354
46.90772 -88.567375 26.444887
46.640612 -89.1792 27.761454
47.368931 -87.289524 26.5545
46.90772 -88.567375 26.444887
47.123331 -87.937672 25.096682
48.066771 -85.414177 25.235247
48.375181 -84.79398 26.630943
47.892952 -86.039624 26.601992
48.066771 -85.414177 25.235247
47.763373 -85.992737 23.865053
48.118755 -84.648873 21.194675
48.573736 -83.42136 21.210047
47.898153 -85.236538 19.802666
48.118755 -84.648873 21.194675
47.715878 -85.811748 18.444845
48.113032 -84.547303 18.50772
47.898153 -85.236538 19.802666
68.093727 -50.024479 24.661544
67.535488 -50.807018 25.017049
68.286526 -49.669178 23.284385
68.093727 -50.024479 24.661544
67.885987 -50.015431 22.310374
68.286526 -49.669178 23.284385
67.885987 -50.015431 22.310374
67.183647 -50.82642 22.719567
62.769699 -53.434484 18.968398
63.592323 -53.078514 19.755224
62.740951 -53.970056 20.217862
62.769699 -53.434484 18.968398
61.905974 -53.760573 18.214475
57.225335 -56.490932 12.786592
57.217659 -57.082237 13.917583
57.225335 -56.490932 12.786592
56.894131 -56.9238 11.990598
36.812945 -63.29748 52.265728
37.616626 -63.695528 51.802479
37.291422 -62.595623 51.834168
36.404307 -63.949398 52.75449
36.812945 -63.29748 52.265728
36.643941 -65.036751 52.722099
36.404307 -63.949398 52.75449
35.275335 -56.455883 53.284054
35.491745 -55.608877 52.878945
35.543571 -57.377441 52.822018
35.275335 -56.455883 53.284054
35.897651 -58.395527 52.500954
36.161667 -57.597293 52.08836
35.543571 -57.377441 52.822018
35.571295 -59.149717 52.925331
35.321079 -59.875526 53.351845
36.18939 -59.369569 52.191674
35.897651 -58.395527 52.500954
35.571295 -59.149717 52.925331
36.887082 -61.47571 51.863526
36.574728 -60.438802 52.022842
36.175387 -61.160668 52.456734
37.291422 -62.595623 51.834168
37.690764 -61.873758 51.400276
36.887082 -61.47571 51.863526
58.533434 -62.177156 43.712993
58.07309 -63.055765 44.001623
58.959211 -62.214781 42.808006
58.533434 -62.177156 43.712993
59.256341 -62.183431 41.776443
58.959211 -62.214781 42.808006
58.798503 -63.059383 42.083267
59.556413 -62.152807 40.726368
59.717121 -61.308205 41.451107
59.256341 -62.183431 41.776443
58.199465 -65.16816 37.358791
58.588555 -64.432964 38.237667
58.130267 -65.335728 38.572884
58.1844 -64.937423 36.097124
58.199465 -65.16816 37.358791
58.167433 -64.704537 34.837084
58.640785 -64.032509 35.763535
58.1844 -64.937423 36.097124
57.629829 -65.319786 33.888628
58.086214 -64.414872 33.555039
58.167433 -64.704537 34.837084
57.127402 -65.955749 32.905321
57.629829 -65.319786 33.888628
57.20862 -66.245415 34.187366
38.770315 -77.016678 53.061413
38.674955 -75.810192 53.213741
37.864593 -76.369777 53.346305
39.63893 -77.684944 52.720833
38.770315 -77.016678 53.061413
40.53825 -78.273712 52.44368
40.479997 -77.04586 52.651695
39.63893 -77.684944 52.720833
40.54063 -79.510376 52.137859
41.381698 -78.871292 52.068721
40.53825 -78.273712 52.44368
40.533621 -80.72274 51.712265
40.54063 -79.510376 52.137859
40.469145 -81.942528 51.171456
41.319603 -81.327743 51.222092
40.533621 -80.72274 51.712265
40.411644 -83.13065 50.499779
40.469145 -81.942528 51.171456
34.826938 -84.270256 49.094354
35.579094 -85.166077 48.430834
50.59214 -61.258997 48.593975
51.088898 -60.36278 48.36462
51.111401 -62.464398 48.79084
50.59214 -61.258997 48.593975
50.088124 -62.160108 48.872669
50.076367 -64.266579 49.363571
49.580069 -63.056463 49.144291
51.020537 -64.538536 49.182602
50.076367 -64.266579 49.363571
50.489519 -65.439605 49.476639
56.360196 -60.077791 12.633524
56.44144 -59.01787 12.461586
56.202614 -61.125402 12.816046
56.360196 -60.077791 12.633524
56.159 -60.659759 13.748116
56.187504 -62.182297 12.937439
56.202614 -61.125402 12.816046
55.822376 -62.247457 15.082023
56.04422 -61.221146 14.889741
55.865177 -61.761232 16.041126
56.090333 -63.219063 13.07003
56.187504 -62.182297 12.937439
55.904247 -62.744137 14.063229
56.085403 -64.256831 13.148682
56.36866 -63.694991 12.022893
56.090333 -63.219063 13.07003
53.097099 -73.77195 15.817716
53.515011 -72.850975 15.788582
53.096401 -73.333634 17.028949
53.011822 -74.209267 14.588935
53.097099 -73.77195 15.817716
52.593212 -74.691925 15.829303
53.050877 -74.63459 13.383552
53.011822 -74.209267 14.588935
52.468401 -75.567669 13.380279
53.050877 -74.63459 13.383552
52.468401 -75.567669 13.380279
51.957215 -76.093277 14.617095
51.036957 -77.609814 15.912629
51.556099 -76.605732 15.878557
51.186561 -77.158233 17.157519
51.036957 -77.609814 15.912629
50.488752 -78.643497 15.927801
44.890488 -92.641693 29.928106
45.057739 -91.86884 31.513445
45.281427 -92.193416 28.676068
44.890488 -92.641693 29.928106
45.795285 -90.959221 28.926738
45.281427 -92.193416 28.676068
66.681263 -51.977638 26.772855
66.458622 -52.261656 28.168784
66.188087 -52.428061 25.80292
66.851024 -51.615972 25.415886
66.681263 -51.977638 26.772855
59.555364 -55.994682 18.302437
60.301134 -55.597262 19.103496
59.581578 -56.543352 19.513886
58.810713 -56.377903 17.527614
59.555364 -55.994682 18.302437
58.188339 -56.799052 16.705375
58.810713 -56.377903 17.527614
58.213435 -57.361922 17.890589
57.595152 -57.212547 15.907932
58.188339 -56.799052 16.705375
57.16074 -57.660646 15.051699
57.595152 -57.212547 15.907932
57.156649 -58.231169 16.212117
56.779156 -58.100859 14.221767
57.217659 -57.082237 13.917583
57.16074 -57.660646 15.051699
56.44144 -59.01787 12.461586
56.701187 -57.973021 12.222615
56.576329 -58.567298 13.326622
37.208073 -67.334633 52.823223
36.967854 -66.189911 52.78577
38.089156 -67.896263 52.480778
37.208073 -67.334633 52.823223
37.511256 -68.527191 52.94262
36.613575 -72.088322 53.922508
37.276134 -71.535885 53.480221
36.418991 -70.883934 53.86768
36.747299 -73.267449 53.880703
36.613575 -72.088322 53.922508
36.896557 -74.478958 53.862496
37.619976 -73.951783 53.516841
36.747299 -73.267449 53.880703
37.000851 -75.654857 53.722626
36.896557 -74.478958 53.862496
36.098991 -55.726 52.020969
35.491745 -55.608877 52.878945
36.789147 -55.928688 51.306
36.098991 -55.726 52.020969
36.497742 -56.781897 51.694454
37.547985 -56.121291 50.622749
37.149235 -55.065393 50.949264
36.789147 -55.928688 51.306
37.63129 -58.085976 50.80914
36.851822 -57.799982 51.37339
37.295215 -58.901372 51.203045
38.029635 -57.251926 50.448162
37.63129 -58.085976 50.80914
37.547985 -56.121291 50.622749
38.029635 -57.251926 50.448162
41.483679 -61.412644 49.772545
40.455565 -61.050352 49.985954
42.549909 -61.806963 49.662723
41.483679 -61.412644 49.772545
42.06041 -62.641123 49.986096
43.641911 -62.180183 49.577019
42.549909 -61.806963 49.662723
44.223898 -63.420454 49.848434
44.739169 -62.565195 49.549179
43.641911 -62.180183 49.577019
43.704797 -89.880703 40.903107
43.885238 -88.843636 42.29414
43.133585 -89.777813 42.010212
44.255203 -89.919747 39.755451
43.704797 -89.880703 40.903107
44.772614 -89.8433 38.539713
44.973861 -88.87008 39.971297
44.255203 -89.919747 39.755451
45.267226 -89.69231 37.304354
44.772614 -89.8433 38.539713
62.870255 -57.009251 32.81668
63.464355 -56.146889 32.452331
62.185585 -58.117004 34.512123
62.010807 -58.288988 35.809826
62.258831 -57.876239 33.210273
62.185585 -58.117004 34.512123
61.701473 -58.745209 33.575515
62.386142 -57.637455 31.880072
62.870255 -57.009251 32.81668
62.258831 -57.876239 33.210273
57.433025 -62.217842 25.909014
57.543026 -62.643919 27.166236
56.947921 -63.143595 26.235188
57.335106 -61.778747 24.655038
57.930211 -61.279072 25.586086
57.433025 -62.217842 25.909014
56.762626 -62.258373 23.740236
57.259811 -61.319603 23.417309
57.335106 -61.778747 24.655038
56.282085 -62.762705 22.772139
56.762626 -62.258373 23.740236
56.35738 -63.221849 24.009868
55.952606 -69.316341 42.19463
56.161854 -69.210396 41.055431
55.436653 -70.271183 42.495079
55.952606 -69.316341 42.19463
55.711433 -69.424583 43.339878
47.556961 -82.683487 44.921516
48.363796 -81.642089 44.820658
47.827587 -81.644363 45.943422
46.76384 -83.755829 44.972366
47.300049 -83.753555 43.849602
47.556961 -82.683487 44.921516
46.829102 -80.281914 48.658199
47.663545 -79.331478 48.537189
47.008486 -79.144588 49.358368
46.645462 -81.447056 47.909436
46.829102 -80.281914 48.658199
45.990403 -81.260166 48.730614
46.413758 -82.555534 47.013065
46.645462 -81.447056 47.909436
46.193151 -83.689098 46.05775
46.413758 -82.555534 47.013065
45.586157 -83.558872 47.026535
45.936239 -84.759166 44.985836
46.76384 -83.755829 44.972366
46.193151 -83.689098 46.05775
42.895701 -87.358497 45.607429
43.063338 -86.221386 46.74472
42.250332 -87.031307 46.492752
42.69836 -88.454583 44.378353
43.511366 -87.644661 44.630322
42.895701 -87.358497 45.607429
42.539396 -89.538883 43.048495
42.69836 -88.454583 44.378353
40.302143 -84.324116 49.70998
41.145626 -83.740998 49.891484
40.411644 -83.13065 50.499779
40.212841 -85.479394 48.785461
40.302143 -84.324116 49.70998
40.081353 -86.636272 47.752891
40.904636 -86.091343 48.069115
40.212841 -85.479394 48.785461
38.59473 -86.392098 48.022743
37.867203 -85.661175 48.647221
38.59473 -86.392098 48.022743
38.491947 -87.507148 46.860042
39.978569 -87.751323 46.590191
40.081353 -86.636272 47.752891
40.639484 -88.359024 45.784916
39.978569 -87.751323 46.590191
36.811754 -90.03149 42.838997
36.891393 -89.009209 44.316195
36.742151 -91.012668 41.273251
36.811754 -90.03149 42.838997
36.067394 -90.119858 42.079105
36.658603 -92.001857 39.663977
36.742151 -91.012668 41.273251
35.910013 -92.072571 38.852905
36.658603 -92.001857 39.663977
35.14991 -92.032204 38.083635
35.910013 -92.072571 38.852905
35.237688 -91.060669 39.744089
34.369058 -92.001259 37.296213
35.14991 -92.032204 38.083635
52.105308 -60.66823 48.277035
51.088898 -60.36278 48.36462
53.037804 -60.929962 48.07602
52.105308 -60.66823 48.277035
52.547912 -61.825018 48.311131
53.962131 -61.194717 47.865452
53.037804 -60.929962 48.07602
53.811342 -63.200449 48.050979
52.982613 -62.989598 48.398529
53.313547 -64.103296 48.339393
54.302086 -62.298777 47.752251
53.811342 -63.200449 48.050979
53.962131 -61.194717 47.865452
54.302086 -62.298777 47.752251
57.16853 -63.914597 45.20668
56.604839 -63.816677 45.923975
57.126953 -64.839172 44.647253
57.603229 -63.945374 44.328989
57.16853 -63.914597 45.20668
56.193012 -65.721008 45.854303
56.12138 -64.714946 46.232708
55.622139 -65.62756 46.562067
56.719711 -67.540997 42.716864
56.898849 -66.64999 43.415201
56.406525 -67.578735 43.737766
56.928959 -67.435051 41.577665
56.719711 -67.540997 42.716864
33.200659 -76.417171 55.076813
32.492441 -76.676147 55.363816
33.976246 -77.1954 54.475327
33.200659 -76.417171 55.076813
34.021178 -78.291432 54.014557
33.976246 -77.1954 54.475327
34.021178 -78.291432 54.014557
33.256439 -78.492717 53.989289
34.053324 -84.308933 48.73002
34.826938 -84.270256 49.094354
33.283127 -84.277176 48.225256
32.505495 -84.226269 47.861021
34.035288 -85.228886 47.448257
34.053324 -84.308933 48.73002
33.283127 -84.277176 48.225256
32.405597 -86.898953 43.47534
32.448106 -86.008671 45.008555
31.659252 -85.881623 44.454323
33.577632 -91.903759 36.588085
34.369058 -92.001259 37.296213
33.686159 -90.922802 38.266691
29.134534 -86.601158 41.769047
29.205763 -85.651401 43.34718
29.886764 -87.573784 40.429203
29.134534 -86.601158 41.769047
29.04025 -87.589439 40.153473
29.641037 -89.658493 37.214386
28.923991 -88.659367 38.573719
30.512034 -89.622654 37.607135
29.641037 -89.658493 37.214386
31.350935 -89.668228 38.04338
30.631381 -88.60764 39.249874
30.512034 -89.622654 37.607135
32.063161 -90.754272 36.979602
32.182507 -89.739258 38.622341
31.350935 -89.668228 38.04338
32.752167 -91.850383 35.897204
32.063161 -90.754272 36.979602
33.577632 -91.903759 36.588085
32.752167 -91.850383 35.897204
56.536088 -68.132744 11.099742
56.682568 -67.167938 11.085045
56.11382 -67.707344 12.201837
56.536088 -68.132744 11.099742
56.329544 -69.085358 11.083244
55.807793 -69.99009 40.120804
56.291821 -69.037544 39.826404
56.161854 -69.210396 41.055431
46.669597 -87.431912 37.540594
46.217388 -87.672257 38.835556
45.943482 -88.553288 37.460596
47.349062 -86.254074 37.578238
46.669597 -87.431912 37.540594
47.075156 -87.135106 36.203277
45.679655 -90.716228 31.746808
45.057739 -91.86884 31.513445
46.247923 -89.496547 31.928469
45.679655 -90.716228 31.746808
46.030934 -90.25959 30.414935
46.874704 -88.295872 32.037149
46.247923 -89.496547 31.928469
46.876261 -88.479568 29.249651
46.363552 -89.73954 29.1084
46.640612 -89.1792 27.761454
47.448952 -87.059502 32.110298
46.874704 -88.295872 32.037149
47.173448 -87.803539 30.669745
48.077362 -85.849807 32.117722
47.778618 -86.34214 33.485126
47.448952 -87.059502 32.110298
49.65209 -82.377865 29.262768
49.46998 -82.944691 30.647123
49.08524 -83.56012 29.334035
49.793464 -81.832085 27.878552
50.178206 -81.216656 29.191639
49.65209 -82.377865 29.262768
48.734356 -84.20636 27.973684
48.375181 -84.79398 26.630943
49.40813 -82.388592 26.576704
49.048956 -82.976212 25.233963
49.934246 -81.227383 26.505575
49.793464 -81.832085 27.878552
49.40813 -82.388592 26.576704
49.676527 -80.452763 19.846299
49.991061 -79.939614 21.152632
49.504559 -81.061672 21.183453
49.906023 -79.824852 18.528745
49.676527 -80.452763 19.846299
48.742666 -82.773457 19.87133
48.573736 -83.42136 21.210047
48.957178 -82.108566 18.559184
48.742666 -82.773457 19.87133
48.509819 -83.307202 18.553394
49.186674 -81.480656 17.24163
48.957178 -82.108566 18.559184
49.017432 -82.002922 15.952731
49.186674 -81.480656 17.24163
48.887932 -82.570858 14.631013
49.017432 -82.002922 15.952731
48.594831 -83.210247 15.919531
48.820538 -83.129357 13.348399
48.887932 -82.570858 14.631013
47.592033 -86.422607 17.040598
47.715878 -85.811748 18.444845
47.515242 -87.032806 15.67923
47.482813 -87.675278 14.274464
47.853964 -85.732712 15.788532
47.592033 -86.422607 17.040598
47.515242 -87.032806 15.67923
48.44115 -84.385491 13.281727
48.121252 -85.060547 14.512488
48.097071 -85.667855 13.196403
48.820538 -83.129357 13.348399
48.44115 -84.385491 13.281727
63.742966 -55.610401 29.754931
63.646668 -55.913786 31.09142
63.093864 -56.467081 30.149989
64.44862 -54.758263 29.336794
63.742966 -55.610401 29.754931
63.895817 -55.311557 28.395363
65.112366 -53.916669 28.948735
64.44862 -54.758263 29.336794
65.309899 -53.624572 27.568558
65.820793 -53.081823 28.540067
65.112366 -53.916669 28.948735
65.858765 -52.038736 22.226341
66.499184 -51.635374 23.118405
65.71743 -52.469757 23.553886
65.858765 -52.038736 22.226341
65.160538 -52.382519 21.375011
64.40382 -52.753002 20.546444
63.592323 -53.078514 19.755224
3 309 75 310
3 311 78 312
3 313 312 76
3 311 312 313
3 315 314 78
3 0 81 79
3 0 83 82
3 0 79 83
3 2 316 318
3 316 85 317
3 316 317 318
3 3 88 86
3 3 90 88
3 1 93 91
3 2 96 94
3 2 319 321
3 321 320 96
3 319 320 321
3 4 100 98
3 4 102 101
3 4 98 102
3 6 106 104
3 8 109 107
3 8 111 109
3 9 322 324
3 324 323 112
3 322 323 324
3 9 325 327
3 325 113 326
3 325 326 327
3 9 115 113
3 6 328 330
3 330 329 116
3 328 329 330
3 6 331 333
3 331 104 332
3 331 332 333
3 11 121 119
3 13 124 122
3 13 126 124
3 5 129 127
3 14 132 130
3 14 134 132
3 14 136 134
3 15 334 336
3 334 138 335
3 334 335 336
3 15 140 138
3 11 142 141
3 11 119 142
3 337 145 338
3 16 339 341
3 341 340 146
3 339 340 341
3 16 342 343
3 7 149 147
3 12 153 151
3 17 156 154
3 17 158 156
3 344 160 345
3 347 346 160
3 18 348 350
3 348 162 349
3 348 349 350
3 18 351 353
3 353 352 162
3 351 352 353
3 10 165 163
3 354 168 355
3 356 355 166
3 354 355 356
3 358 357 168
3 360 359 169
3 361 172 362
3 364 363 172
3 20 175 173
3 22 176 74
3 22 177 176
3 23 365 367
3 365 178 366
3 365 366 367
3 24 179 77
3 24 180 179
3 24 182 180
3 20 368 369
3 20 370 372
3 370 173 371
3 370 371 372
3 26 185 183
3 28 186 80
3 28 187 186
3 29 190 188
3 373 192 374
3 26 375 377
3 375 193 376
3 375 376 377
3 26 183 193
3 378 195 379
3 380 379 194
3 378 379 380
3 32 196 84
3 32 197 196
3 33 200 198
3 35 201 87
3 35 202 201
3 35 381 383
3 383 382 202
3 381 382 383
3 385 384 89
3 36 205 203
3 38 206 92
3 38 207 206
3 386 209 387
3 39 212 210
3 41 213 95
3 41 214 213
3 41 215 214
3 388 216 389
3 390 389 97
3 388 389 390
3 391 194 392
3 393 392 216
3 391 392 393
3 42 219 217
3 44 220 99
3 44 221 220
3 394 222 395
3 396 395 170
3 394 395 396
3 45 397 399
3 397 223 398
3 397 398 399
3 45 224 223
3 45 225 224
3 19 226 171
3 42 227 103
3 42 217 227
3 46 230 228
3 48 231 105
3 48 232 231
3 21 233 174
3 49 234 108
3 49 235 234
3 49 236 235
3 50 237 110
3 50 238 237
3 51 241 239
3 54 242 114
3 54 243 242
3 25 244 181
3 55 245 117
3 55 246 245
3 55 247 246
3 46 400 402
3 402 401 118
3 400 401 402
3 46 403 405
3 403 228 404
3 403 404 405
3 56 406 408
3 406 249 407
3 406 407 408
3 58 250 120
3 58 251 250
3 27 252 184
3 59 253 123
3 59 254 253
3 59 255 254
3 409 256 410
3 411 410 125
3 409 410 411
3 413 412 256
3 43 257 218
3 60 258 128
3 60 259 258
3 30 260 189
3 61 261 131
3 61 262 261
3 61 263 262
3 62 264 133
3 62 265 264
3 62 266 265
3 63 414 416
3 416 415 135
3 414 415 416
3 63 417 418
3 420 419 137
3 64 267 139
3 64 268 267
3 31 269 191
3 421 270 422
3 56 271 143
3 56 423 425
3 425 424 271
3 423 424 425
3 426 272 427
3 429 428 272
3 430 273 431
3 432 274 433
3 434 433 273
3 432 433 434
3 65 275 144
3 65 276 275
3 435 277 436
3 47 278 229
3 66 279 148
3 66 280 279
3 34 281 199
3 437 282 438
3 439 438 150
3 437 438 439
3 440 283 441
3 442 441 282
3 440 441 442
3 444 443 283
3 57 284 248
3 67 285 152
3 67 286 285
3 37 287 204
3 68 288 155
3 68 289 288
3 68 290 289
3 69 291 157
3 69 292 291
3 52 293 240
3 445 294 446
3 447 295 448
3 449 448 294
3 447 448 449
3 450 296 451
3 452 451 208
3 450 451 452
3 70 297 159
3 70 298 297
3 70 453 455
3 455 454 298
3 453 454 455
3 456 299 457
3 458 300 459
3 460 459 299
3 458 459 460
3 462 461 300
3 71 301 161
3 71 302 301
3 463 303 464
3 466 465 303
3 53 467 468
3 72 304 164
3 72 305 304
3 40 306 211
3 73 307 167
3 73 308 307
3 73 469 471
3 471 470 308
3 469 470 471
3 472 74 473
3 474 473 20
3 472 473 474
3 75 475 477
3 475 74 476
3 475 476 477
3 75 22 74
3 76 77 23
3 78 77 76
3 78 24 77
3 78 478 480
3 480 479 24
3 478 479 480
3 482 481 78
3 483 20 484
3 79 80 26
3 81 80 79
3 81 28 80
3 486 485 29
3 82 487 488
3 83 489 491
3 491 490 82
3 489 490 491
3 83 492 493
3 83 494 495
3 79 496 498
3 498 497 83
3 496 497 498
3 79 499 501
3 499 26 500
3 499 500 501
3 502 84 503
3 85 504 506
3 504 84 505
3 504 505 506
3 85 32 84
3 86 87 33
3 88 87 86
3 88 35 87
3 88 89 35
3 90 89 88
3 90 507 509
3 509 508 89
3 507 508 509
3 91 92 36
3 93 92 91
3 93 38 92
3 94 95 39
3 96 95 94
3 96 41 95
3 96 97 41
3 510 97 511
3 512 511 96
3 510 511 512
3 514 513 97
3 98 99 42
3 100 99 98
3 100 44 99
3 515 45 516
3 518 517 45
3 101 519 521
3 521 520 19
3 519 520 521
3 102 522 524
3 524 523 101
3 522 523 524
3 102 525 526
3 102 527 529
3 527 103 528
3 527 528 529
3 98 103 102
3 98 42 103
3 104 105 46
3 106 105 104
3 106 48 105
3 107 108 21
3 109 108 107
3 109 49 108
3 109 110 49
3 111 110 109
3 111 50 110
3 531 530 51
3 112 532 533
3 535 534 112
3 113 536 537
3 113 538 539
3 113 540 542
3 540 114 541
3 540 541 542
3 115 114 113
3 115 54 114
3 116 117 25
3 543 117 544
3 545 544 116
3 543 544 545
3 546 55 547
3 548 547 117
3 546 547 548
3 549 118 550
3 551 550 55
3 549 550 551
3 104 552 554
3 552 118 553
3 552 553 554
3 104 46 118
3 119 120 56
3 121 120 119
3 121 58 120
3 122 123 27
3 124 123 122
3 124 59 123
3 124 125 59
3 126 125 124
3 126 555 557
3 557 556 125
3 555 556 557
3 127 128 43
3 129 128 127
3 129 60 128
3 130 131 30
3 132 131 130
3 132 61 131
3 132 133 61
3 134 133 132
3 134 62 133
3 134 135 62
3 136 135 134
3 136 63 135
3 558 137 559
3 138 560 562
3 560 137 561
3 560 561 562
3 138 563 565
3 565 564 137
3 563 564 565
3 138 566 568
3 566 139 567
3 566 567 568
3 140 139 138
3 140 64 139
3 141 569 571
3 571 570 31
3 569 570 571
3 142 572 574
3 574 573 141
3 572 573 574
3 142 575 576
3 142 577 579
3 577 143 578
3 577 578 579
3 119 143 142
3 119 56 143
3 580 144 581
3 145 582 584
3 582 144 583
3 582 583 584
3 145 65 144
3 146 585 586
3 588 587 146
3 147 148 47
3 149 148 147
3 149 66 148
3 589 150 590
3 591 590 34
3 589 590 591
3 592 150 593
3 595 594 150
3 151 152 57
3 153 152 151
3 153 67 152
3 154 155 37
3 156 155 154
3 156 68 155
3 156 157 68
3 158 157 156
3 158 69 157
3 597 596 52
3 598 159 599
3 160 600 602
3 600 159 601
3 600 601 602
3 160 70 159
3 160 603 605
3 605 604 70
3 603 604 605
3 607 606 160
3 608 161 609
3 610 161 611
3 612 71 613
3 614 613 161
3 612 613 614
3 162 615 616
3 162 617 618
3 162 619 620
3 622 621 162
3 163 164 53
3 165 164 163
3 165 72 164
3 166 167 40
3 168 167 166
3 168 73 167
3 168 623 625
3 625 624 73
3 623 624 625
3 627 626 168
3 169 628 629
3 631 630 169
3 632 170 633
3 634 633 4
3 632 633 634
3 635 170 636
3 638 637 170
3 639 171 640
3 641 171 642
3 643 19 644
3 645 644 171
3 643 644 645
3 172 646 647
3 172 648 650
3 648 19 649
3 648 649 650
3 172 101 19
3 651 101 652
3 653 652 172
3 651 652 653
3 654 4 655
3 656 655 101
3 654 655 656
3 173 174 6
3 175 174 173
3 175 21 174
3 74 175 20
3 176 175 74
3 176 21 175
3 176 107 21
3 177 107 176
3 177 8 107
3 178 657 658
3 178 659 660
3 77 178 23
3 179 178 77
3 179 661 663
3 663 662 178
3 661 662 663
3 179 664 666
3 664 112 665
3 664 665 666
3 180 112 179
3 180 9 112
3 180 181 9
3 182 181 180
3 182 25 181
3 667 182 668
3 669 668 24
3 667 668 669
3 670 182 671
3 672 25 673
3 674 673 182
3 672 673 674
3 675 116 676
3 677 676 25
3 675 676 677
3 173 678 680
3 678 116 679
3 678 679 680
3 173 6 116
3 183 184 11
3 185 184 183
3 185 27 184
3 80 185 26
3 186 185 80
3 186 27 185
3 186 122 27
3 187 122 186
3 187 13 122
3 188 189 5
3 190 189 188
3 190 30 189
3 681 190 682
3 683 682 29
3 681 682 683
3 684 190 685
3 686 30 687
3 688 687 190
3 686 687 688
3 689 130 690
3 691 690 30
3 689 690 691
3 692 130 693
3 694 14 695
3 696 695 130
3 694 695 696
3 698 697 14
3 699 15 700
3 701 191 702
3 192 703 705
3 703 191 704
3 703 704 705
3 192 31 191
3 706 192 707
3 193 708 710
3 708 192 709
3 708 709 710
3 193 31 192
3 193 141 31
3 183 141 193
3 183 11 141
3 194 711 712
3 195 713 715
3 715 714 194
3 713 714 715
3 195 716 717
3 84 718 720
3 718 195 719
3 718 719 720
3 196 195 84
3 196 721 723
3 723 722 195
3 721 722 723
3 196 724 726
3 724 146 725
3 724 725 726
3 197 146 196
3 197 16 146
3 198 199 7
3 200 199 198
3 200 34 199
3 87 200 33
3 201 200 87
3 201 34 200
3 201 727 729
3 729 728 34
3 727 728 729
3 202 730 732
3 732 731 201
3 730 731 732
3 202 733 734
3 202 735 736
3 738 737 202
3 89 739 741
3 741 740 35
3 739 740 741
3 743 742 89
3 203 204 12
3 205 204 203
3 205 37 204
3 92 205 36
3 206 205 92
3 206 37 205
3 206 154 37
3 207 154 206
3 207 17 154
3 744 208 745
3 746 208 747
3 749 748 208
3 209 750 751
3 209 752 754
3 752 18 753
3 752 753 754
3 210 211 10
3 212 211 210
3 212 40 211
3 95 212 39
3 213 212 95
3 213 40 212
3 213 166 40
3 214 166 213
3 214 755 757
3 757 756 166
3 755 756 757
3 214 758 759
3 215 760 762
3 762 761 214
3 760 761 762
3 215 763 764
3 97 215 41
3 216 215 97
3 216 765 767
3 767 766 215
3 765 766 767
3 216 768 770
3 768 169 769
3 768 769 770
3 194 169 216
3 194 771 773
3 773 772 169
3 771 772 773
3 217 218 0
3 219 218 217
3 219 43 218
3 99 219 42
3 220 219 99
3 220 43 219
3 220 127 43
3 221 127 220
3 221 5 127
3 170 100 4
3 222 100 170
3 222 44 100
3 774 222 775
3 223 776 778
3 776 222 777
3 776 777 778
3 223 44 222
3 223 221 44
3 224 221 223
3 224 5 221
3 224 188 5
3 225 188 224
3 225 29 188
3 779 225 780
3 781 780 45
3 779 780 781
3 782 225 783
3 784 29 785
3 786 785 225
3 784 785 786
3 788 787 29
3 171 789 790
3 226 791 793
3 793 792 171
3 791 792 793
3 226 794 796
3 794 795 796
3 797 226 798
3 799 798 19
3 797 798 799
3 800 226 801
3 803 802 226
3 103 804 805
3 227 806 808
3 808 807 103
3 806 807 808
3 227 809 810
3 227 811 813
3 811 82 812
3 811 812 813
3 217 82 227
3 217 0 82
3 228 229 2
3 230 229 228
3 230 47 229
3 105 230 46
3 231 230 105
3 231 47 230
3 231 147 47
3 232 147 231
3 232 7 147
3 174 106 6
3 233 106 174
3 233 48 106
3 108 233 21
3 234 233 108
3 234 48 233
3 234 232 48
3 235 232 234
3 235 7 232
3 235 198 7
3 236 198 235
3 236 33 198
3 110 236 49
3 237 236 110
3 237 33 236
3 237 86 33
3 238 86 237
3 238 3 86
3 239 240 1
3 241 240 239
3 241 52 240
3 814 241 815
3 816 815 51
3 814 815 816
3 817 241 818
3 819 52 820
3 821 820 241
3 819 820 821
3 823 822 52
3 824 53 825
3 114 826 827
3 242 828 830
3 830 829 114
3 828 829 830
3 242 831 833
3 831 53 832
3 831 832 833
3 242 163 53
3 243 163 242
3 243 10 163
3 181 115 9
3 244 115 181
3 244 54 115
3 117 244 25
3 245 244 117
3 245 54 244
3 245 243 54
3 246 243 245
3 246 10 243
3 246 210 10
3 247 210 246
3 247 39 210
3 118 247 55
3 834 247 835
3 836 835 118
3 834 835 836
3 837 39 838
3 839 838 247
3 837 838 839
3 840 94 841
3 842 841 39
3 840 841 842
3 228 843 845
3 843 94 844
3 843 844 845
3 228 2 94
3 846 248 847
3 249 848 850
3 848 248 849
3 848 849 850
3 249 57 248
3 120 249 56
3 250 249 120
3 250 57 249
3 250 151 57
3 251 151 250
3 251 12 151
3 184 121 11
3 252 121 184
3 252 58 121
3 123 252 27
3 253 252 123
3 253 58 252
3 253 251 58
3 254 251 253
3 254 12 251
3 254 203 12
3 255 203 254
3 255 36 203
3 125 255 59
3 256 255 125
3 256 36 255
3 256 91 36
3 851 91 852
3 853 852 256
3 851 852 853
3 854 1 855
3 856 855 91
3 854 855 856
3 218 81 0
3 257 81 218
3 257 28 81
3 128 257 43
3 258 257 128
3 258 28 257
3 258 187 28
3 259 187 258
3 259 13 187
3 189 129 5
3 260 129 189
3 260 60 129
3 131 260 30
3 261 260 131
3 261 60 260
3 261 259 60
3 262 259 261
3 262 13 259
3 262 126 13
3 263 126 262
3 263 857 859
3 859 858 126
3 857 858 859
3 133 263 61
3 264 263 133
3 264 860 862
3 862 861 263
3 860 861 862
3 264 863 864
3 265 865 867
3 867 866 264
3 865 866 867
3 265 868 870
3 868 1 869
3 868 869 870
3 265 239 1
3 266 239 265
3 266 51 239
3 135 266 62
3 871 266 872
3 873 872 135
3 871 872 873
3 874 51 875
3 876 875 266
3 874 875 876
3 878 877 51
3 879 136 880
3 881 880 14
3 879 880 881
3 882 136 883
3 884 63 885
3 886 885 136
3 884 885 886
3 137 887 888
3 890 889 137
3 891 63 892
3 894 893 63
3 139 895 896
3 267 897 899
3 899 898 139
3 897 898 899
3 267 900 901
3 267 902 903
3 268 904 906
3 906 905 267
3 904 905 906
3 268 907 908
3 191 909 910
3 269 911 913
3 913 912 191
3 911 912 913
3 269 914 915
3 916 269 917
3 918 917 31
3 916 917 918
3 919 269 920
3 922 921 269
3 270 923 924
3 270 925 927
3 925 23 926
3 925 926 927
3 143 928 930
3 928 270 929
3 928 929 930
3 271 270 143
3 271 23 270
3 271 76 23
3 931 76 932
3 933 932 271
3 931 932 933
3 935 934 76
3 272 936 937
3 272 938 939
3 272 940 941
3 943 942 272
3 944 15 945
3 273 946 947
3 273 948 950
3 948 15 949
3 948 949 950
3 273 140 15
3 274 140 273
3 274 64 140
3 144 951 953
3 951 274 952
3 951 952 953
3 275 274 144
3 275 64 274
3 275 268 64
3 276 268 275
3 276 954 956
3 956 955 268
3 954 955 956
3 957 145 958
3 277 959 961
3 959 145 960
3 959 960 961
3 277 65 145
3 962 277 963
3 964 277 965
3 966 65 967
3 968 967 277
3 966 967 968
3 969 276 970
3 971 970 65
3 969 970 971
3 972 276 973
3 975 974 276
3 229 85 2
3 278 85 229
3 278 32 85
3 148 278 47
3 279 278 148
3 279 32 278
3 279 197 32
3 280 197 279
3 280 16 197
3 199 149 7
3 281 149 199
3 281 66 149
3 150 281 34
3 282 281 150
3 282 66 281
3 282 280 66
3 283 280 282
3 283 16 280
3 283 976 978
3 978 977 16
3 976 977 978
3 980 979 283
3 248 981 983
3 981 75 982
3 981 982 983
3 284 75 248
3 284 22 75
3 152 284 57
3 285 284 152
3 285 22 284
3 285 177 22
3 286 177 285
3 286 8 177
3 204 153 12
3 287 153 204
3 287 67 153
3 155 287 37
3 288 287 155
3 288 67 287
3 288 286 67
3 289 286 288
3 289 8 286
3 289 111 8
3 290 111 289
3 290 50 111
3 157 290 68
3 291 290 157
3 291 50 290
3 291 238 50
3 292 238 291
3 292 3 238
3 240 93 1
3 293 93 240
3 293 38 93
3 984 293 985
3 986 985 52
3 984 985 986
3 294 987 989
3 987 293 988
3 987 988 989
3 294 38 293
3 294 207 38
3 295 207 294
3 295 17 207
3 208 990 991
3 296 992 994
3 994 993 208
3 992 993 994
3 296 995 996
3 159 997 999
3 997 296 998
3 997 998 999
3 297 296 159
3 297 1000 1002
3 1002 1001 296
3 1000 1001 1002
3 297 1003 1005
3 1003 295 1004
3 1003 1004 1005
3 298 295 297
3 298 17 295
3 298 158 17
3 1006 158 1007
3 1008 1007 298
3 1006 1007 1008
3 1009 69 1010
3 1011 1010 158
3 1009 1010 1011
3 1013 1012 70
3 299 1014 1015
3 299 1016 1018
3 1016 69 1017
3 1016 1017 1018
3 299 292 69
3 300 292 299
3 300 3 292
3 300 90 3
3 1019 90 1020
3 1021 1020 300
3 1019 1020 1021
3 1023 1022 90
3 161 1024 1025
3 301 1026 1028
3 1028 1027 161
3 1026 1027 1028
3 301 1029 1030
3 301 1031 1032
3 302 1033 1035
3 1035 1034 301
3 1033 1034 1035
3 302 1036 1037
3 1038 71 1039
3 303 1040 1041
3 303 1042 1044
3 1042 71 1043
3 1042 1043 1044
3 303 302 71
3 1045 302 1046
3 1047 1046 303
3 1045 1046 1047
3 1049 1048 302
3 164 1050 1052
3 1052 1051 53
3 1050 1051 1052
3 304 1053 1055
3 1055 1054 164
3 1053 1054 1055
3 304 1056 1057
3 304 1058 1060
3 1058 209 1059
3 1058 1059 1060
3 305 209 304
3 305 18 209
3 211 165 10
3 306 165 211
3 306 72 165
3 167 306 40
3 307 306 167
3 307 72 306
3 307 305 72
3 308 305 307
3 308 18 305
3 308 1061 1063
3 1063 1062 18
3 1061 1062 1063
3 1065 1064 308
3 1067 1066 73
