ply
format ascii 1.0
element vertex 412
property float x
property float y
property float z
element face 436
property list uchar int vertex_index
end_header
53.000072 -31.874119 22.917637
66.253845 -26.89855 33.759777
66.56028 -19.858797 25.22102
43.170769 -22.714113 17.262663
59.377373 -38.0303 27.063494
50.03035 -22.791098 19.90122
59.016785 -21.578825 21.532215
60.460014 -29.765764 27.998539
64.295364 -35.81469 35.232738
66.633461 -32.428722 42.230412
47.663784 -31.927483 17.362925
66.253708 -23.637493 29.385178
63.334366 -24.886021 26.705526
63.871864 -28.430792 30.784777
62.136147 -33.013592 31.685635
64.91761 -31.473991 34.968727
66.906845 -36.825508 42.420204
51.089848 -27.731915 21.274376
47.493118 -28.084768 19.563187
49.899406 -32.307278 20.288174
41.364368 -22.0345 14.772934
55.80867 -35.256752 24.923059
53.319595 -35.643272 21.338409
54.45755 -22.276241 20.626911
55.222435 -26.949831 22.813341
63.22863 -20.784973 22.998125
59.471161 -25.969952 24.53714
56.653835 -30.9408 25.417446
58.885498 -34.304798 28.34621
61.797977 -37.153259 31.255156
66.513428 -29.747549 38.127514
66.137459 -34.175388 38.943581
46.146851 -22.971796 18.906128
44.799057 -27.784782 17.380707
66.208595 -25.328905 31.55904
65.029381 -26.05587 30.097158
65.228607 -27.691986 32.2547
64.342415 -30.008423 32.883476
65.532028 -29.209328 34.424419
51.932907 -29.903606 22.047661
50.157524 -30.184748 21.006313
51.359657 -32.17395 21.63221
42.111736 -22.421532 16.126942
42.160816 -24.522274 14.73677
42.838333 -25.007126 16.145405
57.518105 -36.707588 25.99761
56.340797 -36.959522 24.013464
58.359524 -38.24017 24.888842
56.74865 -21.942295 21.030144
54.769104 -24.698454 21.677103
56.995972 -24.288401 22.277428
66.742729 -17.765224 23.274471
65.126884 -18.163898 22.188084
65.036552 -20.344664 24.012093
61.794693 -27.35046 27.418941
61.485855 -25.442112 25.556673
59.883224 -27.940266 26.2192
57.87635 -28.501295 25.106026
58.568291 -30.374052 26.686914
57.668671 -32.695126 26.859943
59.45248 -32.101284 28.341211
63.185623 -34.460091 33.498581
61.753159 -35.164482 31.681393
63.079109 -36.532089 33.271896
66.623535 -31.088951 40.230576
66.27655 -31.979824 38.660091
66.583206 -33.303001 40.653381
66.762451 -37.617584 40.450821
47.996582 -22.932144 19.464258
47.190487 -30.248381 18.685408
46.012825 -28.025188 18.543653
46.077995 -29.975201 17.363522
45.256008 -29.48402 15.923429
46.949196 -31.371445 15.776329
52.374233 -35.52224 19.471878
66.381508 -21.815556 27.264553
64.959915 -22.386362 25.949108
64.945168 -24.289272 27.985271
63.535423 -26.726105 28.712784
62.255051 -29.119576 29.363815
61.214577 -31.453606 29.836395
62.874161 -30.756296 31.35113
63.63237 -32.27182 33.336155
64.4814 -33.684368 35.275169
66.745697 -34.640778 42.513168
66.698662 -36.032074 44.200829
50.460579 -25.358465 20.573868
48.483795 -25.557131 19.965101
49.200356 -27.978306 20.462107
48.562782 -30.310841 19.894356
48.656364 -32.234833 18.867754
68.033043 -17.315002 24.573696
67.75061 -19.313606 26.610092
67.462044 -21.180439 28.720964
67.211304 -22.920229 30.884274
67.023491 -24.540127 33.078392
41.800816 -23.925627 13.14757
54.294621 -33.652885 23.883707
52.802917 -33.953426 22.351999
54.472862 -35.540421 23.155214
55.345886 -37.025063 21.980459
52.200584 -22.565691 20.269691
52.572647 -25.063198 21.126793
53.113945 -27.378124 22.042564
53.844139 -29.506065 23.052971
61.199253 -21.193403 22.177429
63.245407 -22.906233 24.794212
61.300606 -23.390327 23.805725
59.194557 -23.849995 22.974688
57.361351 -26.474525 23.631996
55.843071 -29.028971 24.060371
54.78001 -31.450296 24.169868
55.931141 -33.221069 25.379986
57.294151 -34.833618 26.649761
58.84639 -36.306213 27.933971
60.524345 -33.693634 30.022648
60.27943 -35.784821 29.827065
60.540482 -37.659508 29.185656
66.898575 -26.0525 35.281616
66.847183 -26.56942 38.941978
66.811127 -27.47805 37.470688
66.370033 -28.362705 35.959343
65.90152 -30.628374 36.571465
65.541359 -32.851673 37.001205
65.347511 -35.021263 37.12878
66.620056 -35.486034 40.760788
66.13974 -36.318626 38.863266
65.374382 -37.107712 36.853848
44.52549 -22.899715 18.182934
46.690899 -25.634172 19.251799
45.127396 -25.57148 18.394096
43.833019 -25.361271 17.363804
43.883106 -27.362516 16.063063
51.492287 -34.079319 20.768745
50.394009 -33.987888 19.124863
49.535301 -33.64463 17.421097
42.641253 -22.567822 16.694803
42.450037 -21.137985 16.58137
42.979554 -21.284275 17.149231
57.882717 -21.76056 21.28118
57.82534 -20.550755 20.608936
58.959408 -20.36902 20.859972
64.355251 -36.818344 34.995361
63.747124 -37.177044 34.01494
63.687237 -36.173389 34.252317
66.5952 -31.313361 41.960985
66.455673 -31.999839 42.940115
66.628498 -31.758837 41.230494
66.590237 -30.643476 40.961067
66.5952 -31.313361 41.960985
49.013466 -22.861621 19.682739
48.888914 -21.487929 19.331844
49.905798 -21.417406 19.550325
66.408932 -35.645246 44.975094
66.58987 -34.919943 44.142826
68.658509 -16.047038 24.310391
68.145054 -16.248076 23.603982
68.16476 -19.006988 27.379407
68.358017 -18.05906 26.335102
68.772167 -17.752443 27.104417
68.020477 -19.940405 28.434843
67.606327 -20.247022 27.665528
68.16476 -19.006988 27.379407
67.502137 -22.527888 31.66928
67.69313 -21.697422 30.585757
67.40823 -23.337837 32.766339
67.117398 -23.730178 31.981333
67.502137 -22.527888 31.66928
41.114843 -20.669085 14.726719
41.520527 -20.822508 15.374798
41.146137 -21.800904 13.992234
41.114843 -20.669085 14.726719
41.582592 -22.980063 13.960252
41.364361 -22.746467 13.179552
41.146137 -21.800904 13.992234
42.58147 -25.276683 13.855825
42.722292 -25.646397 14.664013
56.432644 -37.641499 22.322918
55.843342 -36.992293 22.996961
56.930099 -37.608728 23.33942
57.197215 -38.153525 21.534496
56.110456 -37.537089 21.192037
56.432644 -37.641499 22.322918
54.360641 -20.983517 20.12211
55.523701 -20.858622 20.241112
53.329067 -22.420966 20.448301
53.232158 -21.128242 19.9435
54.360641 -20.983517 20.12211
63.233219 -19.653956 22.159737
64.182346 -18.343419 21.754716
64.177757 -19.474435 22.593105
62.213942 -20.989188 22.587777
62.21853 -19.858171 21.749389
63.233219 -19.653956 22.159737
62.049779 -38.035389 30.809886
61.421032 -38.288514 29.775136
61.16923 -37.406384 30.220406
67.02221 -25.608001 36.041118
67.175202 -24.872937 34.956478
66.680153 -27.256178 39.985744
66.678547 -26.111019 39.65237
66.662278 -28.6128 37.799101
66.763515 -28.162613 38.544564
66.614666 -29.297362 38.872977
66.229294 -37.347759 38.600069
66.451096 -36.968105 39.657044
66.54065 -37.997238 39.393846
65.846615 -37.742302 37.59536
65.757061 -36.713169 37.858557
66.229294 -37.347759 38.600069
65.514545 -38.08767 36.484499
65.846615 -37.742302 37.59536
45.994473 -21.543081 18.688654
46.933979 -21.545621 18.904038
45.33617 -22.935755 18.544531
45.183792 -21.507041 18.327057
45.994473 -21.543081 18.688654
44.999614 -29.13422 15.147011
45.892824 -30.028242 15.021327
51.025383 -34.564165 18.344729
51.384121 -34.755064 19.298371
52.015495 -35.331341 18.518237
50.596029 -34.392536 17.492846
49.964655 -33.816259 18.27298
51.025383 -34.564165 18.344729
41.89421 -21.016024 16.051802
42.450037 -21.137985 16.58137
41.738052 -22.228016 15.449938
41.520527 -20.822508 15.374798
41.89421 -21.016024 16.051802
43.061051 -25.888824 15.368331
42.722292 -25.646397 14.664013
42.499574 -24.7647 15.441088
57.939463 -38.249053 23.77711
56.930099 -37.608728 23.33942
57.350161 -37.599846 24.451153
56.669251 -20.69165 20.442729
57.82534 -20.550755 20.608936
55.6031 -22.109268 20.828527
55.523701 -20.858622 20.241112
56.669251 -20.69165 20.442729
65.934807 -17.964561 22.731277
66.002026 -16.849272 21.814
66.809948 -16.649935 22.357193
63.219646 -37.482727 32.93193
62.579081 -37.793312 31.923561
62.438543 -36.842674 32.263526
63.219646 -37.482727 32.93193
63.747124 -37.177044 34.01494
66.669719 -29.968063 39.924508
66.590237 -30.643476 40.961067
66.568482 -30.41825 39.179045
66.614666 -29.297362 38.872977
66.669719 -29.968063 39.924508
66.946514 -38.287686 41.160068
66.834648 -37.221546 41.435513
67.018711 -37.891648 42.14476
66.894901 -38.640148 40.058212
66.946514 -38.287686 41.160068
66.54065 -37.997238 39.393846
66.894901 -38.640148 40.058212
47.858845 -21.525795 19.183104
48.888914 -21.487929 19.331844
47.071716 -22.95197 19.185193
46.933979 -21.545621 18.904038
47.858845 -21.525795 19.183104
46.739418 -30.971955 14.947776
45.892824 -30.028242 15.021327
46.102602 -30.427733 15.849879
53.464056 -36.193188 19.688271
52.846914 -35.582756 20.405144
53.936737 -36.253704 20.621536
53.176077 -35.981405 18.636668
53.464056 -36.193188 19.688271
52.015495 -35.331341 18.518237
53.176077 -35.981405 18.636668
43.678322 -21.369594 17.561677
42.979554 -21.284275 17.149231
59.918678 -38.722544 26.403253
60.346676 -38.641295 27.571945
60.078407 -20.215838 21.09779
58.959408 -20.36902 20.859972
66.55727 -33.118267 43.157618
66.455673 -31.999839 42.940115
66.613388 -34.224295 43.298996
66.689579 -33.53475 42.37179
66.55727 -33.118267 43.157618
66.72218 -35.336426 43.356999
66.613388 -34.224295 43.298996
66.58987 -34.919943 44.142826
66.548374 -36.768179 44.93985
66.408932 -35.645246 44.975094
66.81572 -37.130577 44.046482
66.548374 -36.768179 44.93985
66.919811 -37.527294 43.15617
66.802753 -36.428791 43.310516
66.81572 -37.130577 44.046482
67.018711 -37.891648 42.14476
66.919811 -37.527294 43.15617
67.499897 -16.473187 22.954369
66.809948 -16.649935 22.357193
67.387886 -17.540113 23.924084
67.499897 -16.473187 22.954369
68.145054 -16.248076 23.603982
68.499234 -17.059758 25.316904
68.658509 -16.047038 24.310391
69.124699 -15.791794 25.053598
67.891827 -18.314304 25.591894
68.499234 -17.059758 25.316904
68.358017 -18.05906 26.335102
67.8185 -20.827527 29.504103
68.020477 -19.940405 28.434843
68.376934 -19.587493 29.217982
67.336674 -22.050334 29.802619
67.8185 -20.827527 29.504103
67.69313 -21.697422 30.585757
41.771101 -23.581106 12.271262
41.364361 -22.746467 13.179552
42.41143 -24.547953 12.1877
41.771101 -23.581106 12.271262
42.401471 -24.978359 13.061225
41.980816 -24.223951 13.94217
42.58147 -25.276683 13.855825
42.41143 -24.547953 12.1877
42.401471 -24.978359 13.061225
54.949883 -36.9446 20.942561
53.936737 -36.253704 20.621536
54.33274 -36.334168 21.659434
54.949883 -36.9446 20.942561
56.110456 -37.537089 21.192037
59.409754 -38.827478 25.315926
58.868448 -38.135235 25.976168
59.918678 -38.722544 26.403253
59.064621 -38.809835 24.123889
59.409754 -38.827478 25.315926
57.939463 -38.249053 23.77711
59.064621 -38.809835 24.123889
51.00403 -21.343765 19.659758
49.905798 -21.417406 19.550325
52.089147 -21.231062 19.843994
53.232158 -21.128242 19.9435
51.115467 -22.678395 20.085456
51.00403 -21.343765 19.659758
52.089147 -21.231062 19.843994
65.154785 -17.005057 21.334324
66.002026 -16.849272 21.814
65.154785 -17.005057 21.334324
64.182346 -18.343419 21.754716
61.169641 -20.023128 21.420397
62.21853 -19.858171 21.749389
60.108019 -21.386114 21.854822
60.078407 -20.215838 21.09779
61.169641 -20.023128 21.420397
60.92823 -38.455899 28.633026
60.346676 -38.641295 27.571945
59.958928 -37.844904 28.124575
60.92823 -38.455899 28.633026
61.421032 -38.288514 29.775136
62.049779 -38.035389 30.809886
62.579081 -37.793312 31.923561
67.23766 -24.116751 33.854866
67.40823 -23.337837 32.766339
66.961033 -25.296313 34.180004
67.23766 -24.116751 33.854866
67.175202 -24.872937 34.956478
66.931018 -25.40842 38.621042
66.678547 -26.111019 39.65237
66.996513 -25.866461 37.871299
66.931018 -25.40842 38.621042
66.781543 -27.708298 39.280209
66.680153 -27.256178 39.985744
66.829155 -27.023735 38.206333
66.781543 -27.708298 39.280209
66.763515 -28.162613 38.544564
66.978486 -26.320776 37.135655
66.996513 -25.866461 37.871299
66.829155 -27.023735 38.206333
66.854851 -26.765275 36.376152
67.02221 -25.608001 36.041118
66.978486 -26.320776 37.135655
64.89476 -37.464855 35.805916
64.355251 -36.818344 34.995361
64.834873 -36.461201 36.043293
64.89476 -37.464855 35.805916
65.514545 -38.08767 36.484499
44.355683 -21.462395 18.021812
45.183792 -21.507041 18.327057
43.848129 -22.806914 17.722798
43.678322 -21.369594 17.561677
44.355683 -21.462395 18.021812
43.583437 -27.066519 15.32716
43.061051 -25.888824 15.368331
43.36072 -26.184821 16.104234
44.313164 -28.073468 15.216828
44.569557 -28.423268 15.993246
44.999614 -29.13422 15.147011
43.583437 -27.066519 15.32716
44.313164 -28.073468 15.216828
50.358863 -34.059702 16.527978
50.596029 -34.392536 17.492846
49.236751 -33.337507 16.544719
50.358863 -34.059702 16.527978
48.300993 -32.478933 16.515633
48.599542 -32.786057 17.392011
49.236751 -33.337507 16.544719
47.943699 -32.200914 15.722335
47.30649 -31.649464 16.569627
48.300993 -32.478933 16.515633
47.782849 -31.75869 14.830219
47.943699 -32.200914 15.722335
46.739418 -30.971955 14.947776
47.782849 -31.75869 14.830219
3 1 36 34
3 1 38 36
3 0 41 39
3 3 136 138
3 136 42 137
3 136 137 138
3 3 44 42
3 4 47 45
3 6 139 141
3 139 48 140
3 139 140 141
3 6 50 48
3 2 53 51
3 7 56 54
3 7 58 56
3 7 60 58
3 8 63 61
3 8 142 144
3 144 143 63
3 142 143 144
3 9 145 146
3 9 147 149
3 147 64 148
3 147 148 149
3 9 66 64
3 5 150 152
3 150 68 151
3 150 151 152
3 10 71 69
3 10 73 71
3 11 77 75
3 13 78 35
3 13 79 78
3 13 81 79
3 15 82 37
3 15 83 82
3 153 85 154
3 17 88 86
3 19 89 40
3 19 90 89
3 155 91 156
3 157 92 158
3 157 158 159
3 160 93 161
3 162 161 92
3 160 161 162
3 163 94 164
3 165 95 166
3 167 166 94
3 165 166 167
3 20 168 169
3 20 170 171
3 20 172 174
3 172 96 173
3 172 173 174
3 176 175 43
3 21 99 97
3 177 100 178
3 179 178 46
3 177 178 179
3 182 181 100
3 180 181 182
3 23 183 184
3 23 185 187
3 185 101 186
3 185 186 187
3 23 102 101
3 24 103 49
3 24 104 103
3 25 188 190
3 190 189 52
3 188 189 190
3 25 191 193
3 191 105 192
3 191 192 193
3 12 106 76
3 26 107 55
3 26 108 107
3 26 109 108
3 27 110 57
3 27 111 110
3 27 112 111
3 28 113 59
3 28 114 113
3 14 115 80
3 29 116 62
3 29 117 116
3 29 194 196
3 196 195 117
3 194 195 196
3 197 118 198
3 199 119 200
3 30 201 203
3 201 120 202
3 201 202 203
3 30 121 120
3 30 122 121
3 31 123 65
3 31 124 123
3 16 125 84
3 204 126 205
3 206 205 67
3 204 205 206
3 207 127 208
3 209 208 126
3 207 208 209
3 211 210 127
3 32 212 213
3 32 214 216
3 214 128 215
3 214 215 216
3 18 129 87
3 33 130 70
3 33 131 130
3 33 132 131
3 218 217 72
3 22 133 98
3 219 134 220
3 221 220 74
3 219 220 221
3 222 135 223
3 224 223 134
3 222 223 224
3 34 35 11
3 36 35 34
3 36 13 35
3 36 37 13
3 38 37 36
3 38 15 37
3 39 40 17
3 41 40 39
3 41 19 40
3 42 225 226
3 42 227 229
3 227 20 228
3 227 228 229
3 42 43 20
3 44 43 42
3 44 230 232
3 232 231 43
3 230 231 232
3 45 46 21
3 47 46 45
3 47 233 235
3 235 234 46
3 233 234 235
3 48 236 237
3 48 238 240
3 238 23 239
3 238 239 240
3 48 49 23
3 50 49 48
3 50 24 49
3 51 241 243
3 241 52 242
3 241 242 243
3 53 52 51
3 53 25 52
3 54 55 12
3 56 55 54
3 56 26 55
3 56 57 26
3 58 57 56
3 58 27 57
3 58 59 27
3 60 59 58
3 60 28 59
3 61 62 14
3 63 62 61
3 63 29 62
3 63 244 246
3 246 245 29
3 244 245 246
3 248 247 63
3 64 249 250
3 64 251 253
3 251 30 252
3 251 252 253
3 64 65 30
3 66 65 64
3 66 31 65
3 254 67 255
3 256 255 16
3 254 255 256
3 257 67 258
3 260 259 67
3 68 261 262
3 68 263 265
3 263 32 264
3 263 264 265
3 69 70 18
3 71 70 69
3 71 33 70
3 71 72 33
3 73 72 71
3 73 266 268
3 268 267 72
3 266 267 268
3 269 74 270
3 271 270 22
3 269 270 271
3 272 74 273
3 275 274 74
3 276 3 277
3 279 278 4
3 280 6 281
3 75 76 2
3 77 76 75
3 77 12 76
3 35 77 11
3 78 77 35
3 78 12 77
3 78 54 12
3 79 54 78
3 79 7 54
3 79 80 7
3 81 80 79
3 81 14 80
3 37 81 13
3 82 81 37
3 82 14 81
3 82 61 14
3 83 61 82
3 83 8 61
3 282 9 283
3 284 84 285
3 286 285 9
3 284 285 286
3 85 287 289
3 287 84 288
3 287 288 289
3 85 16 84
3 290 85 291
3 292 85 293
3 294 16 295
3 296 295 85
3 294 295 296
3 298 297 16
3 86 87 5
3 88 87 86
3 88 18 87
3 40 88 17
3 89 88 40
3 89 18 88
3 89 69 18
3 90 69 89
3 90 10 69
3 299 51 300
3 91 301 303
3 301 51 302
3 301 302 303
3 91 2 51
3 304 91 305
3 304 305 306
3 92 307 309
3 307 91 308
3 307 308 309
3 92 2 91
3 92 75 2
3 93 75 92
3 93 11 75
3 310 93 311
3 310 311 312
3 94 313 315
3 313 93 314
3 313 314 315
3 94 11 93
3 94 34 11
3 95 34 94
3 95 1 34
3 96 316 317
3 96 318 319
3 43 96 20
3 320 96 321
3 322 321 43
3 320 321 322
3 324 323 96
3 97 98 0
3 99 98 97
3 99 22 98
3 46 99 21
3 100 99 46
3 100 22 99
3 100 325 327
3 327 326 22
3 325 326 327
3 329 328 100
3 330 47 331
3 332 331 4
3 330 331 332
3 333 47 334
3 336 335 47
3 337 5 338
3 101 339 340
3 101 341 343
3 341 5 342
3 341 342 343
3 101 86 5
3 102 86 101
3 102 17 86
3 49 102 23
3 103 102 49
3 103 17 102
3 103 39 17
3 104 39 103
3 104 0 39
3 52 344 345
3 347 346 52
3 105 348 349
3 105 350 352
3 350 6 351
3 350 351 352
3 76 53 2
3 106 53 76
3 106 25 53
3 55 106 12
3 107 106 55
3 107 25 106
3 107 105 25
3 108 105 107
3 108 6 105
3 108 50 6
3 109 50 108
3 109 24 50
3 57 109 26
3 110 109 57
3 110 24 109
3 110 104 24
3 111 104 110
3 111 0 104
3 111 97 0
3 112 97 111
3 112 21 97
3 59 112 27
3 113 112 59
3 113 21 112
3 113 45 21
3 114 45 113
3 114 4 45
3 80 60 7
3 115 60 80
3 115 28 60
3 62 115 14
3 116 115 62
3 116 28 115
3 116 114 28
3 117 114 116
3 117 4 114
3 117 353 355
3 355 354 4
3 353 354 355
3 357 356 117
3 359 358 29
3 360 95 361
3 118 362 364
3 362 95 363
3 362 363 364
3 118 1 95
3 119 365 366
3 119 367 368
3 369 119 370
3 120 371 373
3 371 119 372
3 371 372 373
3 120 374 376
3 376 375 119
3 374 375 376
3 120 377 379
3 377 118 378
3 377 378 379
3 121 118 120
3 121 1 118
3 121 38 1
3 122 38 121
3 122 15 38
3 65 122 30
3 123 122 65
3 123 15 122
3 123 83 15
3 124 83 123
3 124 8 83
3 84 66 9
3 125 66 84
3 125 31 66
3 67 125 16
3 126 125 67
3 126 31 125
3 126 124 31
3 127 124 126
3 127 8 124
3 127 380 382
3 382 381 8
3 380 381 382
3 384 383 127
3 128 385 386
3 128 387 389
3 387 3 388
3 387 388 389
3 87 68 5
3 129 68 87
3 129 32 68
3 70 129 18
3 130 129 70
3 130 32 129
3 130 128 32
3 131 128 130
3 131 3 128
3 131 44 3
3 132 44 131
3 132 390 392
3 392 391 44
3 390 391 392
3 72 132 33
3 393 132 394
3 395 394 72
3 393 394 395
3 397 396 132
3 98 41 0
3 133 41 98
3 133 19 41
3 74 133 22
3 134 133 74
3 134 19 133
3 134 90 19
3 135 90 134
3 135 10 90
3 398 135 399
3 400 135 401
3 402 10 403
3 404 403 135
3 402 403 404
3 405 73 406
3 407 406 10
3 405 406 407
3 408 73 409
3 411 410 73
