ply
format ascii 1.0
element vertex 417
property float x
property float y
property float z
element face 394
property list uchar int vertex_index
end_header
-38.96447 10.508842 -16.933002
-39.664848 -20.809399 14.168738
-39.208244 -17.659943 6.829954
-41.352806 -13.170429 -2.149315
-43.700638 -6.905521 -11.4102
-41.847797 4.745193 -19.053162
-41.74395 8.081278 -23.293098
-39.168457 13.751034 -30.80999
-36.747116 15.240807 -33.540661
-39.924095 -13.943883 13.499281
-38.944008 -19.37776 10.828504
-38.824093 -12.490334 10.537216
-38.813641 -8.892638 2.896078
-39.403046 -6.690345 -1.380789
-42.597069 -10.266764 -6.787601
-40.106728 -4.218551 -5.78743
-40.819466 -1.484697 -10.242615
-38.698368 12.994392 -20.918373
-40.88554 11.225382 -27.286137
-39.782921 -24.946905 10.924019
-38.533646 -10.81968 6.927027
-40.12888 -15.616653 2.434668
-44.575981 -3.137569 -15.998495
-41.454166 1.512341 -14.682423
-38.733177 8.069372 -12.760927
-40.367569 7.402119 -18.015003
-41.875835 6.414776 -21.194759
-40.3605 8.859388 -20.092018
-36.460976 15.890686 -30.636711
-35.236847 16.352737 -31.789516
-35.383228 15.515911 -34.505859
-33.94175 16.534721 -32.679176
-39.261059 -13.242023 12.113998
-38.356544 -3.883647 1.283623
-38.524326 -2.799486 -0.780077
-39.748833 -5.487418 -3.573498
-38.735764 -1.675419 -2.891964
-38.979027 -0.512676 -5.039742
-38.301434 14.184303 -22.808861
-39.841141 11.715202 -24.068939
-39.283371 13.026211 -25.929802
-39.817978 -23.83798 14.319148
-39.832504 -25.826151 12.710169
-39.381557 -23.12796 12.713543
-38.971882 -18.555414 8.894548
-39.392601 -21.444553 8.955249
-39.758186 -20.482676 6.865612
-40.299843 -19.43639 4.677371
-38.522411 -7.75629 8.76993
-38.305096 -6.86333 7.048025
-39.860451 -11.365086 0.387534
-39.425713 -12.473486 2.599043
-40.723278 -14.448427 0.156204
-41.711281 -17.046587 0.111597
-42.488029 -15.677099 -2.22296
-43.260292 -14.176809 -4.570131
-43.172394 -8.641204 -9.103058
-44.686069 -10.76811 -9.260826
-44.172485 -5.067474 -13.708248
-39.522434 1.935987 -9.394049
-41.154228 -0.018843 -12.467945
-39.797962 3.229654 -11.576494
-40.050434 4.573944 -13.747438
-38.525463 6.899702 -10.632519
-43.422001 2.587513 -19.933315
-43.474495 4.472094 -22.143028
-43.362354 6.354168 -24.324467
-38.52066 14.191422 -27.668839
-37.569397 15.160477 -29.250702
-38.026115 14.645863 -32.296329
-39.717228 -17.506657 13.888338
-39.16412 -20.130053 12.597511
-39.14146 -16.830109 12.390396
-38.818962 -16.094051 10.696119
-38.72216 -15.296715 8.837772
-38.223106 -5.919063 5.213376
-38.248886 -4.924784 3.286245
-39.084198 -7.825894 0.780001
-40.335213 -10.164865 -1.856916
-41.985279 -11.777136 -4.467405
-40.823242 -8.871334 -4.120893
-41.305664 -7.485022 -6.394264
-41.770092 -6.007836 -8.669552
-42.207539 -4.442558 -10.941385
-40.466557 -2.884411 -8.013256
-39.244675 0.689981 -7.211178
-38.911293 11.757429 -18.954769
-40.194649 10.310305 -22.115513
-41.420948 9.702082 -25.331478
-40.131088 12.594038 -29.125332
-39.252159 -22.327009 10.91534
-40.023869 -23.971035 8.986475
-38.591045 -11.684723 8.798187
-38.817013 -14.432506 6.848727
-38.619259 -9.890123 4.95165
-39.064972 -13.493931 4.760151
-39.609135 -16.68372 4.667158
-40.967144 -18.29538 2.418175
-43.999619 -12.540364 -6.918528
-42.608467 -2.79287 -13.206066
-42.959156 -1.064251 -15.461081
-43.239384 0.73423 -17.704384
-41.695541 3.104153 -16.879688
-40.251736 5.96759 -15.896782
-38.89217 9.274378 -14.864838
-34.48187 17.153114 -31.03257
-35.071551 16.982416 -30.471338
-33.834322 17.244106 -31.477399
-34.589298 16.443729 -32.234346
-34.48187 17.153114 -31.03257
-38.09963 -0.679685 -0.454016
-38.086458 -1.20291 0.527165
-38.205349 -0.117652 -1.50996
-38.630045 -2.237452 -1.836021
-38.09963 -0.679685 -0.454016
-38.249819 0.411862 -2.524598
-38.205349 -0.117652 -1.50996
-38.496963 14.155403 -25.268019
-38.792403 13.605257 -24.369332
-38.005995 14.734449 -23.707549
-38.195891 -4.742364 7.114721
-38.386071 -5.213501 7.891352
-44.503433 -7.885771 -11.502007
-44.239311 -8.753613 -10.348436
-43.436516 -7.773363 -10.256629
-44.77517 -6.875271 -12.6642
-44.503433 -7.885771 -11.502007
-43.936561 -5.986498 -12.559224
-45.011093 -5.956247 -13.813225
-44.77517 -6.875271 -12.6642
-39.05003 4.496829 -10.03452
-39.660198 2.58282 -10.485271
-38.912266 3.849995 -8.943297
-38.41378 6.331853 -9.562532
-39.161713 5.064678 -11.104506
-39.05003 4.496829 -10.03452
-42.398809 8.135169 -24.877687
-43.208011 7.271614 -25.393372
-42.553152 7.217723 -23.808782
-36.778008 16.09883 -28.53117
-37.250664 15.705162 -27.76755
-37.494186 14.941018 -34.45273
-38.133686 14.643546 -33.830564
-37.386615 14.943335 -32.918495
-36.768568 15.131554 -35.00692
-37.494186 14.941018 -34.45273
-35.339945 15.278225 -35.882864
-34.685335 15.493803 -34.837032
-37.973078 -2.78055 3.501107
-38.042907 -3.284215 4.39468
-38.574995 2.130119 -5.724851
-39.111851 0.088652 -6.12546
-38.442171 1.52879 -4.639133
-38.666892 2.673268 -6.783499
-38.574995 2.130119 -5.724851
-41.704973 10.573901 -27.909479
-41.972677 9.812251 -26.93215
-41.153244 10.463732 -26.308808
-40.170654 -26.103632 10.870758
-40.195446 -26.543255 11.763833
-39.807713 -25.386528 11.817094
-40.33512 -25.555261 9.933012
-40.170654 -26.103632 10.870758
-40.264839 -23.439464 7.955738
-39.708235 -22.707794 8.970862
-39.949205 -22.176223 7.940125
-40.747957 -24.469981 7.97148
-40.264839 -23.439464 7.955738
-42.283247 -18.103913 0.178686
-42.738615 -17.365984 -0.982485
-45.500257 -11.583686 -9.191415
-45.853516 -10.555744 -10.364922
-45.616478 -2.824365 -17.278726
-45.440567 -3.928929 -16.118216
-44.73478 -2.133757 -17.140863
-45.616478 -2.824365 -17.278726
-35.683615 16.75139 -29.894935
-36.223797 16.463934 -29.224174
-35.848911 16.121711 -31.213113
-35.683615 16.75139 -29.894935
-35.071551 16.982416 -30.471338
-33.964596 16.003208 -33.92369
-34.685335 15.493803 -34.837032
-34.662489 16.025316 -33.592517
-39.743761 -11.695097 12.566166
-39.592577 -13.592953 12.806639
-40.075279 -12.046027 13.258807
-39.362419 -11.31853 11.946963
-39.743761 -11.695097 12.566166
-39.143936 -10.942686 11.158572
-39.042576 -12.866179 11.325607
-39.362419 -11.31853 11.946963
-38.002567 -1.74499 1.559016
-38.026906 -2.259981 2.499796
-38.440435 -3.341566 0.251773
-38.002567 -1.74499 1.559016
-38.086458 -1.20291 0.527165
-38.371451 0.993234 -3.598487
-38.857396 -1.094048 -3.965853
-38.249819 0.411862 -2.524598
-38.442171 1.52879 -4.639133
-38.371451 0.993234 -3.598487
-39.972588 13.295426 -31.570673
-39.378536 13.827677 -32.389395
-39.825241 -24.832065 13.514658
-40.022993 -26.208985 13.514376
-40.01573 -25.2149 14.318866
-40.131998 -21.695284 6.895307
-39.949205 -22.176223 7.940125
-39.575394 -20.963614 7.910431
-40.466423 -21.120306 5.815708
-40.131998 -21.695284 6.895307
-40.737251 -20.597162 4.721588
-40.466423 -21.120306 5.815708
-40.029015 -19.959533 5.771491
-41.137629 -19.974953 3.604939
-40.737251 -20.597162 4.721588
-38.494728 -5.65998 8.752304
-38.759908 -6.111629 9.457287
-38.413753 -7.30981 7.908978
-38.494728 -5.65998 8.752304
-38.386071 -5.213501 7.891352
-43.126989 -16.68124 -2.149763
-42.738615 -17.365984 -0.982485
-42.099655 -16.361843 -1.055681
-43.577247 -15.874364 -3.321199
-43.126989 -16.68124 -2.149763
-43.963379 -15.124219 -4.494785
-43.577247 -15.874364 -3.321199
-42.874161 -14.926954 -3.396546
-44.392149 -14.243624 -5.670438
-43.963379 -15.124219 -4.494785
-44.996149 -9.817066 -10.427319
-43.929232 -9.704657 -9.181942
-44.239311 -8.753613 -10.348436
-45.853516 -10.555744 -10.364922
-44.996149 -9.817066 -10.427319
-45.238819 -4.893881 -14.973093
-45.011093 -5.956247 -13.813225
-44.374233 -4.102521 -14.853371
-45.440567 -3.928929 -16.118216
-45.238819 -4.893881 -14.973093
-44.295265 2.81042 -21.38702
-44.261536 1.761733 -20.248766
-44.321512 3.752711 -22.491877
-44.295265 2.81042 -21.38702
-43.448248 3.529803 -21.038172
-44.268805 4.799138 -23.62512
-44.321512 3.752711 -22.491877
-44.212734 5.740175 -24.71584
-44.268805 4.799138 -23.62512
-43.418425 5.413131 -23.233747
-44.057798 6.761277 -25.837692
-44.212734 5.740175 -24.71584
-44.057798 6.761277 -25.837692
-43.208011 7.271614 -25.393372
-37.726295 15.220634 -26.976618
-38.115608 14.738008 -26.137538
-38.045029 14.675949 -28.45977
-37.726295 15.220634 -26.976618
-37.250664 15.705162 -27.76755
-37.015186 15.525582 -29.943706
-36.778008 16.09883 -28.53117
-36.223797 16.463934 -29.224174
-38.807365 14.275092 -33.132565
-39.378536 13.827677 -32.389395
-38.597286 14.198449 -31.553159
-38.807365 14.275092 -33.132565
-38.133686 14.643546 -33.830564
-36.086624 15.269106 -35.489519
-36.768568 15.131554 -35.00692
-36.065172 15.378359 -34.02326
-36.086624 15.269106 -35.489519
-35.339945 15.278225 -35.882864
-38.030017 -3.781354 5.358246
-38.154896 -4.270231 6.197396
-38.235996 -5.421924 4.249811
-38.030017 -3.781354 5.358246
-38.042907 -3.284215 4.39468
-38.302715 -4.404215 2.284934
-37.973078 -2.78055 3.501107
-38.026906 -2.259981 2.499796
-38.805771 3.296271 -7.874935
-39.383555 1.312984 -8.302613
-38.666892 2.673268 -6.783499
-38.912266 3.849995 -8.943297
-38.805771 3.296271 -7.874935
-38.268079 12.865672 -17.442978
-38.937882 11.133135 -17.943886
-38.294668 12.241378 -16.432094
-38.213852 13.386582 -18.433363
-38.268079 12.865672 -17.442978
-38.107389 14.005064 -19.415165
-38.804831 12.37591 -19.936571
-38.213852 13.386582 -18.433363
-37.973313 14.517427 -20.376978
-38.107389 14.005064 -19.415165
-37.774845 15.112383 -21.322222
-38.499901 13.589347 -21.863617
-37.973313 14.517427 -20.376978
-37.552336 15.601322 -22.249409
-37.774845 15.112383 -21.322222
-38.005995 14.734449 -23.707549
-37.552336 15.601322 -22.249409
-40.202802 -24.139969 15.013089
-40.01573 -25.2149 14.318866
-40.143789 -22.622452 14.917156
-40.202802 -24.139969 15.013089
-40.067224 -21.108161 14.841951
-39.741413 -22.32369 14.243943
-40.143789 -22.622452 14.917156
-40.115369 -19.464883 14.665947
-40.067224 -21.108161 14.841951
-40.141559 -17.813512 14.525747
-39.691038 -19.158028 14.028538
-40.115369 -19.464883 14.665947
-40.272796 -16.051655 14.278581
-40.141559 -17.813512 14.525747
-40.37623 -14.270268 14.084052
-39.820661 -15.72527 13.69381
-40.272796 -16.051655 14.278581
-40.561821 -12.402628 13.775199
-40.37623 -14.270268 14.084052
-40.075279 -12.046027 13.258807
-40.561821 -12.402628 13.775199
-42.237308 8.945571 -25.896877
-42.398809 8.135169 -24.877687
-41.582449 8.89168 -24.312288
-42.237308 8.945571 -25.896877
-41.972677 9.812251 -26.93215
-38.902016 13.608816 -26.799321
-38.496963 14.155403 -25.268019
-38.115608 14.738008 -26.137538
-40.453903 12.716928 -30.728344
-39.649772 13.172536 -29.967661
-39.972588 13.295426 -31.570673
-40.947288 12.043728 -29.814245
-40.453903 12.716928 -30.728344
-41.324514 11.3594 -28.894648
-40.508314 11.90971 -28.205734
-40.947288 12.043728 -29.814245
-41.704973 10.573901 -27.909479
-41.324514 11.3594 -28.894648
-40.185686 -27.033772 12.636323
-40.022993 -26.208985 13.514376
-40.185686 -27.033772 12.636323
-40.195446 -26.543255 11.763833
-40.455593 -25.067326 8.96424
-40.33512 -25.555261 9.933012
-39.903395 -24.45897 9.955247
-40.455593 -25.067326 8.96424
-40.747957 -24.469981 7.97148
-38.862673 -10.544718 10.446435
-39.143936 -10.942686 11.158572
-38.711832 -8.177696 9.562792
-38.759908 -6.111629 9.457287
-38.746149 -10.141913 9.57692
-38.711832 -8.177696 9.562792
-38.556728 -9.720506 8.784059
-38.707569 -12.087529 9.667701
-38.862673 -10.544718 10.446435
-38.746149 -10.141913 9.57692
-38.264101 -6.391197 6.1307
-38.195891 -4.742364 7.114721
-38.154896 -4.270231 6.197396
-41.471279 -19.404448 2.475341
-41.137629 -19.974953 3.604939
-40.633494 -18.865885 3.547773
-41.911178 -18.72831 1.331975
-41.339213 -17.670983 1.264886
-42.283247 -18.103913 0.178686
-41.471279 -19.404448 2.475341
-41.911178 -18.72831 1.331975
-44.761813 -13.425402 -6.844637
-44.392149 -14.243624 -5.670438
-43.629956 -13.358587 -5.74433
-45.157032 -12.469813 -8.020266
-44.342844 -11.654237 -8.089677
-45.500257 -11.583686 -9.191415
-44.761813 -13.425402 -6.844637
-45.157032 -12.469813 -8.020266
-43.926367 -1.097098 -16.872155
-44.73478 -2.133757 -17.140863
-43.767568 -2.10091 -15.729788
-44.066481 -0.197858 -17.993807
-43.926367 -1.097098 -16.872155
-43.09927 -0.165011 -16.582732
-44.170227 0.835092 -19.134301
-44.066481 -0.197858 -17.993807
-43.330692 1.660872 -18.818849
-44.261536 1.761733 -20.248766
-44.170227 0.835092 -19.134301
-37.838085 8.410015 -9.137868
-38.41378 6.331853 -9.562532
-37.926357 8.904688 -10.1892
-37.838085 8.410015 -9.137868
-38.030214 9.489523 -11.253404
-38.62932 7.484537 -11.696723
-37.926357 8.904688 -10.1892
-38.112039 9.991511 -12.299153
-38.030214 9.489523 -11.253404
-38.191536 10.594013 -13.351109
-38.812674 8.671875 -13.812883
-38.112039 9.991511 -12.299153
-38.247909 11.105204 -14.383945
-38.191536 10.594013 -13.351109
-38.284059 11.722437 -15.418026
-38.92832 9.89161 -15.89892
-38.247909 11.105204 -14.383945
-38.294668 12.241378 -16.432094
-38.284059 11.722437 -15.418026
-33.212131 17.295765 -31.916041
-33.834322 17.244106 -31.477399
-33.279252 16.489206 -32.984139
-33.212131 17.295765 -31.916041
-33.964596 16.003208 -33.92369
-33.279252 16.489206 -32.984139
3 0 27 25
3 105 29 106
3 107 31 108
3 109 108 29
3 107 108 109
3 110 34 111
3 112 36 113
3 114 113 34
3 112 113 114
3 116 115 36
3 117 40 118
3 119 118 38
3 117 118 119
3 1 43 41
3 2 46 44
3 2 47 46
3 120 49 121
3 3 52 50
3 3 54 52
3 3 55 54
3 4 122 124
3 124 123 56
3 122 123 124
3 4 125 126
3 4 127 129
3 127 58 128
3 127 128 129
3 130 61 131
3 132 131 59
3 130 131 132
3 133 63 134
3 135 134 61
3 133 134 135
3 5 65 64
3 6 66 26
3 6 136 138
3 138 137 66
3 136 137 138
3 139 68 140
3 8 69 28
3 8 141 143
3 143 142 69
3 141 142 143
3 8 144 145
3 147 146 30
3 9 72 70
3 11 73 32
3 11 74 73
3 148 76 149
3 13 77 33
3 13 78 77
3 13 80 78
3 15 81 35
3 15 82 81
3 15 84 82
3 150 85 151
3 152 151 37
3 150 151 152
3 154 153 85
3 17 87 86
3 18 88 39
3 18 155 157
3 157 156 88
3 155 156 157
3 7 89 67
3 19 158 160
3 160 159 42
3 158 159 160
3 19 161 162
3 10 90 71
3 163 91 164
3 165 164 45
3 163 164 165
3 167 166 91
3 20 92 48
3 20 93 92
3 12 94 75
3 21 95 51
3 21 96 95
3 21 97 96
3 169 168 53
3 14 98 79
3 171 170 57
3 22 172 173
3 22 174 175
3 16 99 83
3 23 100 60
3 23 101 100
3 23 102 101
3 24 103 62
3 24 104 103
3 25 26 5
3 27 26 25
3 27 6 26
3 176 28 177
3 29 178 180
3 178 28 179
3 178 179 180
3 29 8 28
3 29 30 8
3 31 30 29
3 31 181 183
3 183 182 30
3 181 182 183
3 184 32 185
3 186 185 9
3 184 185 186
3 187 32 188
3 189 11 190
3 191 190 32
3 189 190 191
3 192 33 193
3 34 194 196
3 194 33 195
3 194 195 196
3 34 13 33
3 34 35 13
3 36 35 34
3 36 15 35
3 36 37 15
3 197 37 198
3 199 198 36
3 197 198 199
3 201 200 37
3 38 39 17
3 40 39 38
3 40 18 39
3 203 202 7
3 41 204 206
3 204 42 205
3 204 205 206
3 43 42 41
3 43 19 42
3 44 45 10
3 46 45 44
3 46 207 209
3 209 208 45
3 207 208 209
3 46 210 211
3 47 212 214
3 214 213 46
3 212 213 214
3 47 215 216
3 217 48 218
3 49 219 221
3 219 48 220
3 219 220 221
3 49 20 48
3 50 51 12
3 52 51 50
3 52 21 51
3 52 53 21
3 54 53 52
3 54 222 224
3 224 223 53
3 222 223 224
3 54 225 226
3 55 227 229
3 229 228 54
3 227 228 229
3 55 230 231
3 56 57 14
3 232 57 233
3 234 233 56
3 232 233 234
3 236 235 57
3 58 237 238
3 58 239 241
3 239 22 240
3 239 240 241
3 59 60 16
3 61 60 59
3 61 23 60
3 61 62 23
3 63 62 61
3 63 24 62
3 64 242 243
3 65 244 246
3 246 245 64
3 244 245 246
3 65 247 248
3 26 65 5
3 66 65 26
3 66 249 251
3 251 250 65
3 249 250 251
3 66 252 253
3 255 254 66
3 256 67 257
3 68 258 260
3 258 67 259
3 258 259 260
3 68 7 67
3 28 261 263
3 261 68 262
3 261 262 263
3 69 68 28
3 69 7 68
3 69 264 266
3 266 265 7
3 264 265 266
3 268 267 69
3 30 269 271
3 271 270 8
3 269 270 271
3 273 272 30
3 70 71 1
3 72 71 70
3 72 10 71
3 32 72 9
3 73 72 32
3 73 10 72
3 73 44 10
3 74 44 73
3 74 2 44
3 274 75 275
3 76 276 278
3 276 75 277
3 276 277 278
3 76 12 75
3 33 279 281
3 279 76 280
3 279 280 281
3 77 76 33
3 77 12 76
3 77 50 12
3 78 50 77
3 78 3 50
3 78 79 3
3 80 79 78
3 80 14 79
3 35 80 13
3 81 80 35
3 81 14 80
3 81 56 14
3 82 56 81
3 82 4 56
3 82 83 4
3 84 83 82
3 84 16 83
3 37 84 15
3 85 84 37
3 85 16 84
3 85 59 16
3 282 59 283
3 284 283 85
3 282 283 284
3 286 285 59
3 287 86 288
3 289 288 0
3 287 288 289
3 290 86 291
3 292 17 293
3 294 293 86
3 292 293 294
3 295 17 296
3 297 38 298
3 299 298 17
3 297 298 299
3 300 38 301
3 303 302 38
3 304 41 305
3 306 41 307
3 308 1 309
3 310 309 41
3 308 309 310
3 311 1 312
3 313 70 314
3 315 314 1
3 313 314 315
3 316 70 317
3 318 9 319
3 320 319 70
3 318 319 320
3 321 9 322
3 324 323 9
3 86 27 0
3 87 27 86
3 87 6 27
3 39 87 17
3 88 87 39
3 88 6 87
3 88 325 327
3 327 326 6
3 325 326 327
3 329 328 88
3 67 330 332
3 330 40 331
3 330 331 332
3 89 40 67
3 89 18 40
3 333 89 334
3 335 334 7
3 333 334 335
3 336 89 337
3 338 18 339
3 340 339 89
3 338 339 340
3 342 341 18
3 42 343 344
3 346 345 42
3 71 43 1
3 90 43 71
3 90 19 43
3 45 90 10
3 91 90 45
3 91 19 90
3 91 347 349
3 349 348 19
3 347 348 349
3 351 350 91
3 352 11 353
3 48 354 355
3 92 356 358
3 358 357 48
3 356 357 358
3 92 359 361
3 359 11 360
3 359 360 361
3 92 74 11
3 93 74 92
3 93 2 74
3 75 362 364
3 362 49 363
3 362 363 364
3 94 49 75
3 94 20 49
3 51 94 12
3 95 94 51
3 95 20 94
3 95 93 20
3 96 93 95
3 96 2 93
3 96 47 2
3 97 47 96
3 97 365 367
3 367 366 47
3 365 366 367
3 53 97 21
3 368 97 369
3 370 369 53
3 368 369 370
3 372 371 97
3 79 55 3
3 98 55 79
3 98 373 375
3 375 374 55
3 373 374 375
3 57 98 14
3 376 98 377
3 378 377 57
3 376 377 378
3 380 379 98
3 83 58 4
3 99 58 83
3 99 22 58
3 60 99 16
3 100 99 60
3 100 22 99
3 100 381 383
3 383 382 22
3 381 382 383
3 101 384 386
3 386 385 100
3 384 385 386
3 101 387 388
3 101 389 391
3 389 64 390
3 389 390 391
3 102 64 101
3 102 5 64
3 62 102 23
3 103 102 62
3 103 5 102
3 103 25 5
3 104 25 103
3 104 0 25
3 392 63 393
3 394 63 395
3 396 24 397
3 398 397 63
3 396 397 398
3 399 24 400
3 401 104 402
3 403 402 24
3 401 402 403
3 404 104 405
3 406 0 407
3 408 407 104
3 406 407 408
3 410 409 0
3 411 31 412
3 413 31 414
3 416 415 31
