ply
format ascii 1.0
element vertex 373
property float x
property float y
property float z
element face 375
property list uchar int vertex_index
end_header
47.362888 20.020355 28.231661
54.830681 33.506935 15.139504
50.027161 26.796013 21.242685
57.118088 21.557362 12.451482
56.090893 16.77103 18.7694
56.896919 26.69276 8.462997
52.334118 37.569599 4.579227
48.11525 23.301266 24.51976
52.407539 21.35136 19.984167
51.627907 18.565186 23.573189
56.718315 32.942413 9.046719
56.863907 30.349213 11.538561
58.433861 18.089466 8.864546
52.520584 30.276848 18.214123
55.742085 27.469574 14.118795
53.990852 24.39526 16.874199
56.444424 19.014748 15.312115
51.68708 36.214241 18.695045
49.003517 32.695896 22.11702
46.440998 28.920731 25.421843
44.6675 25.12891 28.94096
55.120007 35.313824 6.700931
55.01091 29.03587 7.163147
57.487854 24.182434 10.19205
57.151421 20.281399 7.512169
47.569473 21.624592 26.318253
49.659309 20.795052 24.039885
49.404587 19.310081 25.920404
51.651665 17.298092 25.539959
55.679955 34.983494 13.516178
56.578117 33.390682 11.862485
51.246685 28.554562 19.715551
53.142159 27.298672 17.618416
52.036964 25.639477 19.089718
54.118267 18.947491 19.348179
54.533234 20.248672 17.644424
56.198067 17.846214 16.970533
51.302597 39.084446 18.528675
50.115639 37.412338 20.46846
50.372292 34.499447 20.441961
48.831932 35.640728 22.30007
45.1637 32.878006 27.838999
46.241714 31.870934 25.780741
45.091576 29.927448 27.518105
45.417255 27.011429 27.138054
44.146236 27.986107 29.308762
55.094482 38.292984 5.989019
55.993767 37.144405 7.413429
56.815601 29.848003 8.873598
56.119217 31.055309 7.940697
56.116951 27.882214 7.766338
54.94352 25.76659 7.075564
56.121235 24.64724 7.45155
56.350891 24.476353 13.304847
56.855282 25.893425 12.078945
57.385498 22.874371 11.24983
57.898689 19.183128 8.077644
57.349445 17.055611 7.271176
56.222366 18.055904 6.997033
48.956116 25.034042 22.833857
51.033619 23.981586 20.634014
50.218239 22.357689 22.278572
51.889194 19.916534 21.717022
53.903976 17.735302 21.181456
56.155922 15.789745 20.690254
53.921436 16.612503 23.129665
54.178017 15.560921 25.167294
56.432926 37.655426 10.095437
56.55632 35.955647 8.883872
56.752602 34.710011 10.375437
56.973614 31.680557 10.280743
57.153107 28.588223 9.872414
58.045605 18.737232 11.687844
58.041519 19.914394 10.473776
53.748253 31.934479 16.699427
54.250053 28.926613 16.18737
54.894638 25.944653 15.463963
55.731445 23.04248 14.631434
53.132004 22.853348 18.374012
55.095535 21.62265 16.073971
56.775551 20.260578 13.804646
58.004154 17.614777 13.089809
54.391716 36.461243 15.182022
52.872635 37.826492 16.846054
53.316307 34.914661 16.928873
52.063438 33.266865 18.587446
50.717403 31.530136 20.182882
49.370773 29.72604 21.753304
47.515602 33.785416 24.056511
47.664276 30.82642 23.761881
48.11718 27.883595 23.342209
47.044922 26.035748 24.990494
46.231533 24.214512 26.729612
45.738564 22.44574 28.576756
44.250248 23.296688 30.846075
45.606014 20.745029 30.532978
53.847473 36.453159 5.611998
53.739452 33.367561 6.270094
56.092361 34.147984 7.848783
55.079903 32.223915 7.073769
53.613377 30.165581 6.636653
56.429665 28.943535 12.815775
57.14909 27.268978 10.938694
57.344536 25.459206 9.267268
57.913864 21.11702 9.451595
57.587223 22.318089 8.616827
57.001312 23.497925 7.956746
56.154526 21.367271 7.146785
48.420393 18.96241 28.069676
49.441243 18.607273 26.914048
48.383737 19.665218 27.076033
55.445274 32.746752 14.233229
55.869912 33.485031 13.421566
55.255318 34.245215 14.327841
57.068905 16.198652 17.586635
57.122492 16.736244 16.687202
56.14448 17.308622 17.869967
57.154555 15.774088 18.521522
57.068905 16.198652 17.586635
49.430642 37.965681 21.377778
49.982395 38.828153 20.366481
48.788788 37.079876 22.293583
49.473786 36.526533 21.384265
49.430642 37.965681 21.377778
44.599158 30.426508 28.586161
45.127638 31.402727 27.678552
44.635219 31.901787 28.746608
44.126487 29.455838 29.48149
44.618906 28.956778 28.413434
44.599158 30.426508 28.586161
56.136893 38.009183 7.87996
55.887054 38.590551 7.015613
57.464388 15.441824 7.303252
57.811155 16.559793 7.526332
56.832056 15.889929 7.192779
57.464388 15.441824 7.303252
51.365167 36.58213 4.688173
51.489733 38.110962 4.082088
52.245157 36.031357 5.049005
51.365167 36.58213 4.688173
53.070458 15.829716 26.379669
52.914841 16.429507 25.353626
51.807282 16.698301 26.566002
54.416771 15.052849 26.213457
53.070458 15.829716 26.379669
56.490366 35.536789 11.102232
56.592764 36.182719 10.235437
56.330528 37.009496 10.962232
58.429516 17.881155 10.784249
58.573915 17.377351 11.404078
57.334503 14.898815 20.469127
56.279869 15.336924 21.698297
54.129078 37.896527 15.032201
54.806086 37.182585 14.261114
46.928126 34.299499 25.046078
47.536766 35.244044 24.127962
44.22554 22.412492 31.849391
43.696787 23.753471 31.997779
44.903423 21.136663 31.692843
44.928131 22.020858 30.689526
44.22554 22.412492 31.849391
54.252544 27.949787 6.980549
53.553778 28.514643 6.717302
54.312144 29.600725 6.8999
54.17017 24.623325 6.97543
54.920364 24.099821 7.012116
56.085875 28.206555 13.467285
55.842804 29.719591 13.79033
55.499014 28.98261 14.441841
55.549865 18.552944 6.960249
55.548958 16.843222 7.056763
52.409279 39.035064 3.953235
51.489733 38.110962 4.082088
50.564782 17.601278 26.723826
50.528126 18.304087 25.730182
49.441243 18.607273 26.914048
51.807282 16.698301 26.566002
50.564782 17.601278 26.723826
56.129036 34.187088 12.689331
56.403123 34.877125 11.845757
55.954042 35.67353 12.672603
56.318993 32.688625 12.59472
56.129036 34.187088 12.689331
55.869912 33.485031 13.421566
56.461888 31.16789 12.432758
56.721012 31.869947 11.700523
56.318993 32.688625 12.59472
57.092411 17.209364 15.81923
57.21559 17.793631 14.990022
56.321246 18.430481 16.141324
57.092411 17.209364 15.81923
57.122492 16.736244 16.687202
50.575874 39.664208 19.396589
51.066788 40.476448 18.320606
50.709118 38.248392 19.498568
50.575874 39.664208 19.396589
49.982395 38.828153 20.366481
45.702707 32.37447 26.80987
46.291182 33.342258 25.908193
45.752174 33.845794 26.937322
55.437412 39.16484 6.303408
55.029629 39.725582 5.464593
55.544124 37.718694 6.701224
55.437412 39.16484 6.303408
55.887054 38.590551 7.015613
55.509222 23.540146 7.200109
54.920364 24.099821 7.012116
55.532377 25.206915 7.263557
58.085777 17.623552 7.929566
58.166275 18.636297 8.471095
58.353363 17.076721 8.323018
57.624067 18.119369 7.67441
58.085777 17.623552 7.929566
57.811155 16.559793 7.526332
56.268517 16.390076 7.055708
56.785905 17.555757 7.134104
56.832056 15.889929 7.192779
55.548958 16.843222 7.056763
56.268517 16.390076 7.055708
55.162626 15.748303 22.918003
56.279869 15.336924 21.698297
55.038679 16.201124 21.909959
55.290916 15.222511 23.936817
55.162626 15.748303 22.918003
54.049726 16.086712 24.14848
55.500109 14.788926 24.975254
55.290916 15.222511 23.936817
55.500109 14.788926 24.975254
54.416771 15.052849 26.213457
45.332033 34.338631 27.953592
45.752174 33.845794 26.937322
44.795231 33.37343 28.891633
45.332033 34.338631 27.953592
44.635219 31.901787 28.746608
44.795231 33.37343 28.891633
56.494623 36.805537 9.489655
56.418169 37.414805 8.615182
56.356472 38.264694 9.220964
56.66536 34.050347 11.118961
56.490366 35.536789 11.102232
56.403123 34.877125 11.845757
58.427473 18.469736 10.177215
58.043562 19.325813 11.08081
58.429516 17.881155 10.784249
58.623644 17.557272 9.372599
58.23769 19.00193 9.669161
58.427473 18.469736 10.177215
58.731257 16.596449 8.705018
58.623644 17.557272 9.372599
58.353363 17.076721 8.323018
58.731257 16.596449 8.705018
54.502098 31.215063 15.732157
55.043312 32.001291 14.952195
54.289467 32.720707 15.919466
54.752998 29.71113 15.476128
54.502098 31.215063 15.732157
53.999153 30.430546 16.443399
54.996069 28.198093 15.153083
55.499014 28.98261 14.441841
54.752998 29.71113 15.476128
58.55319 16.816124 12.105061
58.573915 17.377351 11.404078
58.024879 18.176004 12.388827
57.995455 17.093646 13.878868
57.224289 18.314763 14.200962
57.21559 17.793631 14.990022
58.683162 16.35294 12.828138
57.995455 17.093646 13.878868
58.55319 16.816124 12.105061
58.683162 16.35294 12.828138
57.187069 15.283445 19.481949
57.154555 15.774088 18.521522
56.123407 16.280387 19.729827
57.187069 15.283445 19.481949
57.334503 14.898815 20.469127
56.198335 39.08127 9.768909
56.356472 38.264694 9.220964
56.093156 38.451943 10.756089
56.198335 39.08127 9.768909
56.330528 37.009496 10.962232
56.093156 38.451943 10.756089
55.450205 36.443711 13.428192
55.954042 35.67353 12.672603
55.035836 35.722369 14.3491
55.450205 36.443711 13.428192
54.806086 37.182585 14.261114
51.822374 39.867588 17.496314
51.066788 40.476448 18.320606
52.607394 39.238611 16.655003
51.822374 39.867588 17.496314
52.087616 38.455469 17.687365
53.369537 38.579151 15.864216
52.607394 39.238611 16.655003
53.632176 37.143867 16.014038
54.129078 37.896527 15.032201
53.369537 38.579151 15.864216
48.194931 36.1717 23.249741
48.788788 37.079876 22.293583
48.173767 34.713072 23.178291
48.194931 36.1717 23.249741
47.536766 35.244044 24.127962
46.878658 32.828175 24.918626
46.928126 34.299499 25.046078
46.291182 33.342258 25.908193
43.698391 28.485037 30.414445
44.126487 29.455838 29.48149
43.812267 27.030051 30.245083
43.698391 28.485037 30.414445
44.072899 25.601452 30.061182
44.406868 26.557509 29.124861
43.812267 27.030051 30.245083
43.864273 24.685341 31.013739
43.696787 23.753471 31.997779
44.458874 24.212799 29.893518
44.072899 25.601452 30.061182
43.864273 24.685341 31.013739
45.726114 19.930446 31.558519
44.903423 21.136663 31.692843
46.560045 19.618188 30.3899
45.726114 19.930446 31.558519
47.438482 19.255851 29.239241
46.484451 20.382692 29.38232
46.560045 19.618188 30.3899
48.420393 18.96241 28.069676
47.438482 19.255851 29.239241
53.119835 38.490799 4.60293
52.409279 39.035064 3.953235
54.500017 38.852491 5.307826
55.029629 39.725582 5.464593
53.876513 37.932579 5.119315
54.500017 38.852491 5.307826
54.470978 37.373071 5.800508
53.090795 37.011379 5.095612
53.119835 38.490799 4.60293
53.876513 37.932579 5.119315
53.001835 35.473136 5.565391
52.245157 36.031357 5.049005
53.090795 37.011379 5.095612
52.947824 33.930338 5.894439
53.001835 35.473136 5.565391
53.793463 34.91036 5.941046
52.85906 32.323649 6.217296
52.947824 33.930338 5.894439
56.275043 36.550026 8.148651
56.136893 38.009183 7.87996
56.418169 37.414805 8.615182
52.796022 30.722659 6.400576
52.85906 32.323649 6.217296
53.676414 31.766571 6.453373
52.717264 29.055952 6.609922
52.796022 30.722659 6.400576
52.717264 29.055952 6.609922
53.553778 28.514643 6.717302
54.21885 26.315148 6.936758
54.252544 27.949787 6.980549
54.977215 27.40123 7.119356
54.21885 26.315148 6.936758
54.17017 24.623325 6.97543
55.445274 32.746752 14.233229
55.043312 32.001291 14.952195
56.244766 30.465052 13.071365
55.842804 29.719591 13.79033
56.646786 29.646374 12.177168
56.461888 31.16789 12.432758
56.244766 30.465052 13.071365
55.525867 21.900161 7.047726
55.509222 23.540146 7.200109
56.13788 23.007255 7.299168
55.515946 20.208627 7.035126
56.188446 19.711588 7.071909
55.549865 18.552944 6.960249
55.525867 21.900161 7.047726
55.515946 20.208627 7.035126
3 0 27 25
3 0 108 110
3 110 109 27
3 108 109 110
3 1 111 113
3 113 112 29
3 111 112 113
3 2 33 31
3 4 36 34
3 4 114 116
3 116 115 36
3 114 115 116
3 4 117 118
3 119 38 120
3 121 40 122
3 123 122 38
3 121 122 123
3 124 43 125
3 126 125 41
3 124 125 126
3 127 45 128
3 129 128 43
3 127 128 129
3 130 47 131
3 5 50 48
3 5 52 50
3 3 55 53
3 132 57 133
3 135 134 57
3 6 136 137
3 6 138 139
3 7 61 59
3 9 62 26
3 9 63 62
3 9 65 63
3 140 66 141
3 142 141 28
3 140 141 142
3 144 143 66
3 145 69 146
3 147 146 67
3 145 146 147
3 11 70 30
3 11 71 70
3 149 148 72
3 13 75 74
3 15 76 32
3 15 77 76
3 8 78 60
3 16 79 35
3 16 80 79
3 16 81 80
3 151 150 64
3 152 82 153
3 17 83 37
3 17 84 83
3 17 85 84
3 18 86 39
3 18 87 86
3 154 88 155
3 19 89 42
3 19 90 89
3 19 91 90
3 20 92 44
3 20 93 92
3 156 94 157
3 158 95 159
3 160 159 94
3 158 159 160
3 21 96 46
3 21 97 96
3 10 98 68
3 22 99 49
3 22 100 99
3 22 161 163
3 163 162 100
3 161 162 163
3 165 164 51
3 14 166 168
3 166 101 167
3 166 167 168
3 23 102 54
3 23 103 102
3 12 104 73
3 24 105 56
3 24 106 105
3 24 107 106
3 170 169 58
3 171 6 172
3 25 26 7
3 27 26 25
3 27 9 26
3 27 28 9
3 173 28 174
3 175 174 27
3 173 174 175
3 177 176 28
3 29 178 180
3 178 30 179
3 178 179 180
3 181 30 182
3 183 182 29
3 181 182 183
3 184 11 185
3 186 185 30
3 184 185 186
3 31 32 13
3 33 32 31
3 33 15 32
3 34 35 8
3 36 35 34
3 36 16 35
3 36 187 189
3 189 188 16
3 187 188 189
3 191 190 36
3 192 37 193
3 38 194 196
3 194 37 195
3 194 195 196
3 38 17 37
3 38 39 17
3 40 39 38
3 40 18 39
3 41 197 199
3 197 42 198
3 197 198 199
3 43 42 41
3 43 19 42
3 43 44 19
3 45 44 43
3 45 20 44
3 200 46 201
3 47 202 204
3 202 46 203
3 202 203 204
3 47 21 46
3 48 49 10
3 50 49 48
3 50 22 49
3 50 51 22
3 52 51 50
3 52 205 207
3 207 206 51
3 205 206 207
3 53 54 14
3 55 54 53
3 55 23 54
3 208 56 209
3 210 209 12
3 208 209 210
3 57 211 213
3 211 56 212
3 211 212 213
3 57 24 56
3 57 58 24
3 214 58 215
3 216 215 57
3 214 215 216
3 218 217 58
3 59 60 2
3 61 60 59
3 61 8 60
3 26 61 7
3 62 61 26
3 62 8 61
3 62 34 8
3 63 34 62
3 63 4 34
3 63 64 4
3 65 64 63
3 65 219 221
3 221 220 64
3 219 220 221
3 28 65 9
3 66 65 28
3 66 222 224
3 224 223 65
3 222 223 224
3 66 225 226
3 228 227 66
3 229 41 230
3 231 41 232
3 234 233 41
3 67 235 237
3 235 68 236
3 235 236 237
3 69 68 67
3 69 10 68
3 30 238 240
3 238 69 239
3 238 239 240
3 70 69 30
3 70 10 69
3 70 48 10
3 71 48 70
3 71 5 48
3 72 73 3
3 241 73 242
3 243 242 72
3 241 242 243
3 244 12 245
3 246 245 73
3 244 245 246
3 247 12 248
3 250 249 12
3 74 251 253
3 253 252 1
3 251 252 253
3 75 254 256
3 256 255 74
3 254 255 256
3 75 257 259
3 257 14 258
3 257 258 259
3 32 75 13
3 76 75 32
3 76 14 75
3 76 53 14
3 77 53 76
3 77 3 53
3 60 33 2
3 78 33 60
3 78 15 33
3 35 78 8
3 79 78 35
3 79 15 78
3 79 77 15
3 80 77 79
3 80 3 77
3 80 72 3
3 81 72 80
3 81 260 262
3 262 261 72
3 260 261 262
3 263 81 264
3 265 264 16
3 263 264 265
3 266 81 267
3 269 268 81
3 64 270 272
3 272 271 4
3 270 271 272
3 274 273 64
3 275 67 276
3 277 67 278
3 280 279 67
3 281 29 282
3 82 283 285
3 283 29 284
3 283 284 285
3 82 1 29
3 37 286 287
3 83 288 290
3 290 289 37
3 288 289 290
3 83 291 292
3 83 293 295
3 293 82 294
3 293 294 295
3 84 82 83
3 84 1 82
3 84 74 1
3 85 74 84
3 85 13 74
3 39 85 17
3 86 85 39
3 86 13 85
3 86 31 13
3 87 31 86
3 87 2 31
3 296 40 297
3 88 298 300
3 298 40 299
3 298 299 300
3 88 18 40
3 42 301 303
3 301 88 302
3 301 302 303
3 89 88 42
3 89 18 88
3 89 87 18
3 90 87 89
3 90 2 87
3 90 59 2
3 91 59 90
3 91 7 59
3 44 91 19
3 92 91 44
3 92 7 91
3 92 25 7
3 93 25 92
3 93 0 25
3 304 45 305
3 306 45 307
3 308 20 309
3 310 309 45
3 308 309 310
3 94 311 312
3 94 313 315
3 313 20 314
3 313 314 315
3 94 93 20
3 95 93 94
3 95 0 93
3 316 95 317
3 318 95 319
3 320 0 321
3 322 321 95
3 320 321 322
3 324 323 0
3 325 6 326
3 46 327 328
3 96 329 331
3 331 330 46
3 329 330 331
3 96 332 334
3 332 6 333
3 332 333 334
3 96 335 337
3 337 336 6
3 335 336 337
3 97 338 340
3 340 339 96
3 338 339 340
3 97 341 342
3 68 343 345
3 343 47 344
3 343 344 345
3 98 47 68
3 98 21 47
3 49 98 10
3 99 98 49
3 99 21 98
3 99 97 21
3 100 97 99
3 100 346 348
3 348 347 97
3 346 347 348
3 100 349 350
3 352 351 100
3 51 353 355
3 355 354 22
3 353 354 355
3 357 356 51
3 359 358 1
3 101 360 361
3 101 362 364
3 362 11 363
3 362 363 364
3 54 101 14
3 102 101 54
3 102 11 101
3 102 71 11
3 103 71 102
3 103 5 71
3 73 55 3
3 104 55 73
3 104 23 55
3 56 104 12
3 105 104 56
3 105 23 104
3 105 103 23
3 106 103 105
3 106 5 103
3 106 52 5
3 107 52 106
3 107 365 367
3 367 366 52
3 365 366 367
3 58 107 24
3 368 107 369
3 370 369 58
3 368 369 370
3 372 371 107
