ply
format ascii 1.0
element vertex 493
property float x
property float y
property float z
element face 507
property list uchar int vertex_index
end_header
-32.406281 35.871651 -16.948601
-33.726894 17.953491 -30.275623
-37.674934 1.440115 -0.127955
-34.106476 25.127125 -14.480883
-37.710556 15.284595 -24.606236
-32.396568 26.775818 -22.018978
-38.086685 -2.621399 7.181417
-34.674217 20.235401 1.408885
-33.414673 37.772118 -10.162464
-38.302097 5.764004 -8.492546
-34.252434 23.226307 -6.416525
-28.76914 27.574516 -28.143581
-28.581875 17.127991 -32.258652
-32.675049 31.607906 -15.299158
-33.472126 25.975887 -18.314362
-32.146435 31.891373 -18.970425
-35.986618 17.037182 -27.811638
-37.697269 -0.636316 3.71597
-37.905315 3.570257 -4.238523
-33.997913 29.385067 0.493006
-34.275448 21.919285 -2.365231
-33.424889 30.711426 -3.363897
-33.223221 31.393661 -7.450052
-33.84021 37.954807 -6.100521
-25.558243 21.631844 -30.83939
-36.348984 17.669495 -15.128487
-35.859253 19.319298 -18.98877
-34.731621 20.79203 -22.605316
-33.035728 21.852268 -25.832771
-38.997406 -4.466969 10.144644
-36.045307 10.649652 1.012584
-35.609276 18.171307 4.642209
-32.924976 36.957558 -13.954657
-35.909824 12.545357 -2.853071
-36.07354 14.302223 -6.951347
-36.32341 15.989819 -11.089964
-34.306053 24.249287 -10.504208
-33.048817 31.594246 -11.486715
-30.866035 27.342613 -25.421894
-30.905136 22.316425 -28.410999
-28.408356 22.185791 -30.095261
-31.199982 17.934399 -31.771511
-32.401237 34.12011 -16.117743
-32.424362 31.692554 -17.129314
-32.219688 34.16045 -17.789898
-34.906254 17.612095 -29.15316
-37.64859 0.393667 1.834408
-37.763874 2.499144 -2.157232
-33.646034 30.132946 -1.386335
-33.706638 34.155815 -2.509792
-33.453213 34.576267 -4.518456
-35.159904 21.442097 -14.623587
-36.181351 18.504318 -17.084316
-34.938103 22.069637 -16.566959
-32.988007 26.391968 -20.186493
-34.074139 23.26189 -20.322968
-33.440079 23.787502 -22.121025
-33.945881 21.388481 -24.281963
-32.684067 24.230312 -23.838154
-36.060909 13.383873 4.649148
-38.467045 -3.563671 8.734678
-35.305168 15.443947 1.341872
-35.931526 11.617601 -0.878531
-35.111435 16.376347 -0.508573
-34.233017 22.615902 -4.372898
-35.029755 18.040455 -4.46665
-35.093487 18.784836 -6.514767
-36.205688 15.149727 -9.026024
-35.180618 19.48534 -8.572802
-35.248699 20.154736 -10.619518
-34.291706 23.764938 -8.467678
-33.151642 34.853634 -8.61138
-33.152779 31.538845 -9.488333
-33.013344 34.764179 -10.620691
-32.839661 34.57233 -12.561687
-33.189049 37.425365 -12.112858
-29.897301 27.499069 -26.891293
-30.828285 24.782959 -26.87624
-29.72525 24.879292 -28.112259
-27.084442 19.182362 -31.322659
-27.025717 21.947857 -30.577797
-28.456207 19.589603 -31.126366
-29.778786 19.87812 -30.703976
-29.896799 17.612877 -32.133965
-33.255985 28.564198 -14.718571
-33.846416 25.551323 -16.413515
-32.983654 28.799751 -16.623001
-32.635002 29.073414 -18.50935
-32.209167 29.373875 -20.390602
-36.931931 16.249847 -26.284397
-37.836929 -1.643646 5.503116
-38.089108 4.656555 -6.35582
-34.215519 24.918617 1.144853
-34.414249 21.126953 -0.426435
-33.902851 25.752407 -0.701424
-33.719135 26.452896 -2.652525
-33.634106 27.023846 -4.669836
-33.607857 27.477154 -6.717615
-33.298656 31.126263 -5.397812
-33.283798 34.801529 -6.565607
-33.618935 37.960224 -8.145527
-37.624866 13.973915 -15.931187
-37.516411 15.015736 -17.911957
-37.248257 16.040462 -19.835583
-36.803238 17.018341 -21.689957
-34.576176 22.681282 -18.467892
-35.374302 20.091648 -20.833618
-36.179333 17.913265 -23.458317
-35.388798 18.686817 -25.117455
-34.454308 19.303642 -26.637737
-33.403194 19.737087 -27.985466
-39.907593 -1.099581 10.951283
-38.392174 0.831387 8.66975
-37.851097 1.838797 7.292041
-37.438793 2.864256 5.773457
-37.141823 3.897736 4.126195
-36.947609 4.929348 2.362615
-36.845367 5.951271 0.496368
-36.261448 9.641565 2.797462
-35.619526 14.444366 3.068824
-35.070358 19.24736 3.107795
-34.676056 23.955788 2.848355
-32.639256 36.411407 -15.623999
-36.82571 6.959242 -1.456638
-36.879051 7.953335 -3.477966
-36.993172 8.937849 -5.547194
-35.026222 17.240486 -2.454758
-35.964703 13.437485 -4.885841
-37.150707 9.920328 -7.643217
-37.327251 10.909674 -9.74588
-37.490902 11.913649 -11.837379
-37.603649 12.936031 -13.903051
-36.384861 16.8293 -13.127789
-35.254456 20.804432 -12.639595
-34.254459 24.697659 -12.51111
-33.59515 27.831802 -8.765612
-33.552299 28.11208 -10.790508
-33.445217 28.345875 -12.776825
-32.889408 31.599693 -13.426168
-32.626198 34.328773 -14.402979
-31.81464 32.152538 -20.846786
-31.689468 29.664555 -22.249889
-31.046564 29.913227 -24.037773
-31.693306 27.099346 -23.780163
-31.813076 24.566544 -25.437744
-32.018246 22.163784 -27.221172
-32.261452 19.973675 -29.127716
-25.653624 24.60117 -30.395866
-27.138695 24.766518 -29.874622
-28.496923 24.867134 -29.115799
-29.701607 22.317436 -29.373829
-31.049183 20.015236 -30.038422
-32.482513 18.056808 -31.152905
-34.48187 17.153114 -31.03257
-35.071551 16.982416 -30.471338
-34.316574 17.782793 -29.714391
-33.834322 17.244106 -31.477399
-34.48187 17.153114 -31.03257
-38.09963 -0.679685 -0.454016
-38.086458 -1.20291 0.527165
-37.661762 0.916891 0.853226
-38.205349 -0.117652 -1.50996
-38.09963 -0.679685 -0.454016
-37.719404 1.969629 -1.142594
-38.249819 0.411862 -2.524598
-38.205349 -0.117652 -1.50996
-34.114508 35.709913 -2.301982
-33.895914 33.843025 -1.546776
-33.916355 35.941923 -3.289084
-34.114508 35.709913 -2.301982
-38.496963 14.155403 -25.268019
-38.005995 14.734449 -23.707549
-38.195891 -4.742364 7.114721
-38.386071 -5.213501 7.891352
-38.276865 -3.092535 7.958048
-39.05003 4.496829 -10.03452
-38.912266 3.849995 -8.943297
-38.41378 6.331853 -9.562532
-39.05003 4.496829 -10.03452
-29.33322 27.536792 -27.517437
-29.575115 28.872484 -27.018625
-29.011035 28.910207 -27.64477
-29.287697 16.340496 -32.974986
-29.945159 16.582939 -32.912642
-29.239337 17.370434 -32.196309
-36.778008 16.09883 -28.53117
-37.250664 15.705162 -27.76755
-36.459274 16.643515 -27.048018
-37.973078 -2.78055 3.501107
-38.042907 -3.284215 4.39468
-37.767099 -1.139981 4.609543
-38.574995 2.130119 -5.724851
-38.442171 1.52879 -4.639133
-37.997212 4.113406 -5.297171
-38.666892 2.673268 -6.783499
-38.574995 2.130119 -5.724851
-40.547922 0.562092 11.051824
-40.402 -1.558161 11.390911
-38.754326 2.561756 9.13232
-38.733341 0.340821 9.28179
-37.722491 4.142342 7.318592
-38.069409 3.600765 7.922845
-37.516339 4.655072 6.559299
-37.644945 2.351527 6.532749
-37.722491 4.142342 7.318592
-36.864563 6.247988 4.291652
-37.08555 5.713324 5.05146
-36.767456 6.763794 3.409861
-37.044716 4.413542 3.244405
-36.864563 6.247988 4.291652
-36.424375 9.119903 3.627285
-36.604529 7.285457 2.580038
-36.767456 6.763794 3.409861
-34.926142 25.682207 3.319716
-34.984291 23.41544 3.611989
-34.590187 26.214117 2.540047
-34.926142 25.682207 3.319716
-38.949329 -6.533036 10.250149
-39.345506 -4.898899 10.768264
-31.595595 32.280106 -21.780684
-31.828227 33.443979 -21.143245
-31.533009 31.036114 -22.482235
-31.752054 30.908546 -21.548338
-31.595595 32.280106 -21.780684
-30.9563 28.62792 -24.729834
-30.646003 30.009804 -24.863774
-30.555739 28.724497 -25.555834
-25.605933 23.116507 -30.617628
-24.854716 24.497274 -30.549097
-24.807025 23.012611 -30.770859
-31.908368 17.189045 -32.530306
-32.549633 17.25025 -32.221003
-31.841247 17.995604 -31.462208
-35.683615 16.75139 -29.894935
-36.223797 16.463934 -29.224174
-35.446436 17.324638 -28.482399
-35.683615 16.75139 -29.894935
-35.071551 16.982416 -30.471338
-38.002567 -1.74499 1.559016
-38.026906 -2.259981 2.499796
-37.672929 -0.121325 2.775189
-38.002567 -1.74499 1.559016
-38.086458 -1.20291 0.527165
-38.371451 0.993234 -3.598487
-38.249819 0.411862 -2.524598
-37.834595 3.0347 -3.197877
-38.442171 1.52879 -4.639133
-38.371451 0.993234 -3.598487
-33.865612 31.83159 -0.985047
-33.821973 29.759006 -0.446665
-34.041551 31.457651 -0.045377
-33.676336 32.14438 -1.948063
-33.865612 31.83159 -0.985047
-33.895914 33.843025 -1.546776
-33.789642 36.152149 -4.293416
-33.579926 34.366041 -3.514124
-33.916355 35.941923 -3.289084
-33.983141 37.841419 -5.084449
-33.646711 36.265537 -5.309488
-33.789642 36.152149 -4.293416
-36.346558 12.828657 5.357383
-36.324106 10.991056 4.553128
-36.17613 15.202267 5.320156
-36.346558 12.828657 5.357383
-35.950314 17.595983 5.316687
-35.835093 15.77759 4.645679
-36.17613 15.202267 5.320156
-38.494728 -5.65998 8.752304
-38.759908 -6.111629 9.457287
-38.732225 -4.01532 9.439661
-38.494728 -5.65998 8.752304
-38.386071 -5.213501 7.891352
-30.071372 28.802725 -26.290534
-29.575115 28.872484 -27.018625
-30.381668 27.420841 -26.156593
-30.555739 28.724497 -25.555834
-30.071372 28.802725 -26.290534
-30.595329 16.858458 -32.87707
-31.24692 17.019219 -32.695842
-30.548391 17.773638 -31.952738
-30.595329 16.858458 -32.87707
-29.945159 16.582939 -32.912642
-37.726295 15.220634 -26.976618
-38.115608 14.738008 -26.137538
-37.321243 15.767221 -25.445316
-37.726295 15.220634 -26.976618
-37.250664 15.705162 -27.76755
-36.778008 16.09883 -28.53117
-36.223797 16.463934 -29.224174
-38.030017 -3.781354 5.358246
-38.154896 -4.270231 6.197396
-37.961807 -2.132522 6.342267
-38.030017 -3.781354 5.358246
-38.042907 -3.284215 4.39468
-37.973078 -2.78055 3.501107
-38.026906 -2.259981 2.499796
-38.805771 3.296271 -7.874935
-38.666892 2.673268 -6.783499
-38.195603 5.21028 -7.424183
-38.912266 3.849995 -8.943297
-38.805771 3.296271 -7.874935
-28.407396 28.958702 -28.254255
-29.011035 28.910207 -27.64477
-24.787966 21.446938 -30.873755
-24.807025 23.012611 -30.770859
-25.612899 20.159996 -31.080078
-24.787966 21.446938 -30.873755
-26.375999 18.935255 -31.321713
-26.321343 20.407103 -31.081025
-25.612899 20.159996 -31.080078
-27.17152 17.850153 -31.749308
-26.375999 18.935255 -31.321713
-27.920237 16.822968 -32.217304
-27.833158 18.155177 -31.790655
-27.17152 17.850153 -31.749308
-28.65355 15.981034 -32.897334
-27.920237 16.822968 -32.217304
-38.268079 12.865672 -17.442978
-38.294668 12.241378 -16.432094
-38.213852 13.386582 -18.433363
-38.268079 12.865672 -17.442978
-37.570639 14.494826 -16.921572
-38.107389 14.005064 -19.415165
-38.213852 13.386582 -18.433363
-37.973313 14.517427 -20.376978
-38.107389 14.005064 -19.415165
-37.382334 15.528099 -18.87377
-37.774845 15.112383 -21.322222
-37.973313 14.517427 -20.376978
-37.552336 15.601322 -22.249409
-37.774845 15.112383 -21.322222
-37.025748 16.529401 -20.76277
-37.256897 16.151468 -23.148097
-38.005995 14.734449 -23.707549
-37.552336 15.601322 -22.249409
-39.8006 -3.215205 11.171584
-40.402 -1.558161 11.390911
-39.4525 -2.783275 10.547963
-39.345506 -4.898899 10.768264
-39.8006 -3.215205 11.171584
-39.995524 1.072153 10.706922
-40.547922 0.562092 11.051824
-39.491051 -0.624662 10.422556
-39.995524 1.072153 10.706922
-39.035957 -2.308356 10.019236
-39.4525 -2.783275 10.547963
-39.491051 -0.624662 10.422556
-38.770777 -1.856707 9.314253
-38.732225 -4.01532 9.439661
-39.035957 -2.308356 10.019236
-38.429609 -1.366142 8.702214
-38.770777 -1.856707 9.314253
-38.733341 0.340821 9.28179
-38.339947 3.09706 8.611699
-38.754326 2.561756 9.13232
-38.121635 1.335092 7.980896
-38.339947 3.09706 8.611699
-38.069409 3.600765 7.922845
-37.234035 5.196584 5.875091
-37.516339 4.655072 6.559299
-37.290308 3.380996 4.949826
-37.234035 5.196584 5.875091
-37.08555 5.713324 5.05146
-36.161179 11.512719 3.723305
-36.424375 9.119903 3.627285
-36.324106 10.991056 4.553128
-35.836674 19.932223 5.171544
-35.950314 17.595983 5.316687
-35.450901 20.523199 4.508916
-35.836674 19.932223 5.171544
-35.181442 21.061226 3.741709
-35.339817 18.709333 3.875002
-35.450901 20.523199 4.508916
-34.873207 21.601574 2.978075
-35.181442 21.061226 3.741709
-34.984291 23.41544 3.611989
-34.359918 26.695532 1.688296
-34.445788 24.437202 1.996604
-34.590187 26.214117 2.540047
-34.251115 28.928756 1.362372
-34.106716 27.151842 0.818929
-34.359918 26.695532 1.688296
-34.308185 31.043795 0.853388
-34.251115 28.928756 1.362372
-34.041551 31.457651 -0.045377
-34.308185 31.043795 0.853388
-38.496963 14.155403 -25.268019
-38.115608 14.738008 -26.137538
-32.410615 36.115412 -17.665686
-32.613474 36.808172 -17.032139
-34.373417 39.372585 -6.060548
-33.983141 37.841419 -5.084449
-34.209318 39.374869 -7.078074
-34.373417 39.372585 -6.060548
-34.098681 39.377577 -8.100576
-33.729573 37.957515 -7.123024
-34.209318 39.374869 -7.078074
-33.952248 39.259802 -9.108829
-34.098681 39.377577 -8.100576
-33.850117 39.165749 -10.117298
-33.516804 37.866171 -9.153996
-33.952248 39.259802 -9.108829
-33.698115 38.943613 -11.096319
-33.850117 39.165749 -10.117298
-33.585302 38.770236 -12.071516
-33.301861 37.598742 -11.137661
-33.698115 38.943613 -11.096319
-33.411915 38.459363 -13.001584
-33.585302 38.770236 -12.071516
-33.279878 38.22546 -13.922483
-33.057012 37.191462 -13.033758
-33.411915 38.459363 -13.001584
-33.08214 37.834797 -14.780503
-33.279878 38.22546 -13.922483
-32.93928 37.561721 -15.615174
-32.782116 36.684483 -14.789328
-33.08214 37.834797 -14.780503
-32.729962 37.078051 -16.369838
-32.93928 37.561721 -15.615174
-32.613474 36.808172 -17.032139
-32.522768 36.141529 -16.2863
-32.729962 37.078051 -16.369838
-38.949329 -6.533036 10.250149
-38.759908 -6.111629 9.457287
-38.195891 -4.742364 7.114721
-38.154896 -4.270231 6.197396
-37.838085 8.410015 -9.137868
-38.41378 6.331853 -9.562532
-37.726402 7.842166 -8.067882
-37.926357 8.904688 -10.1892
-37.838085 8.410015 -9.137868
-37.238979 10.415001 -8.694548
-38.030214 9.489523 -11.253404
-37.926357 8.904688 -10.1892
-38.112039 9.991511 -12.299153
-38.030214 9.489523 -11.253404
-37.409076 11.411662 -10.791629
-38.191536 10.594013 -13.351109
-38.112039 9.991511 -12.299153
-38.247909 11.105204 -14.383945
-38.191536 10.594013 -13.351109
-37.547275 12.42484 -12.870215
-38.284059 11.722437 -15.418026
-38.247909 11.105204 -14.383945
-37.614257 13.454973 -14.917119
-38.294668 12.241378 -16.432094
-38.284059 11.722437 -15.418026
-32.317318 35.259811 -18.086334
-32.312984 35.01605 -17.36925
-32.410615 36.115412 -17.665686
-32.142133 34.29876 -18.678182
-32.317318 35.259811 -18.086334
-32.105507 33.164221 -19.268446
-32.183061 33.025911 -18.380161
-32.142133 34.29876 -18.678182
-31.93961 33.294804 -20.206626
-31.828227 33.443979 -21.143245
-31.980537 32.021956 -19.908606
-32.105507 33.164221 -19.268446
-31.93961 33.294804 -20.206626
-30.910124 31.272054 -24.265421
-30.646003 30.009804 -24.863774
-31.211557 31.16045 -23.376177
-30.910124 31.272054 -24.265421
-31.368016 29.788891 -23.143831
-31.533009 31.036114 -22.482235
-31.211557 31.16045 -23.376177
-28.119235 27.578991 -28.64782
-28.407396 28.958702 -28.254255
-25.010902 26.039642 -30.41957
-24.854716 24.497274 -30.549097
-25.825498 26.073065 -30.154359
-25.010902 26.039642 -30.41957
-26.568033 26.155739 -29.893738
-25.825498 26.073065 -30.154359
-26.396159 24.683844 -30.135244
-27.304012 26.174992 -29.51334
-26.568033 26.155739 -29.893738
-27.983126 26.2253 -29.133928
-27.304012 26.174992 -29.51334
-27.817809 24.816826 -29.49521
-28.633032 26.220825 -28.62969
-28.119235 27.578991 -28.64782
-27.983126 26.2253 -29.133928
-33.212131 17.295765 -31.916041
-33.834322 17.244106 -31.477399
-33.104703 18.00515 -30.714264
-33.212131 17.295765 -31.916041
-32.549633 17.25025 -32.221003
-31.908368 17.189045 -32.530306
-31.24692 17.019219 -32.695842
-29.287697 16.340496 -32.974986
-28.65355 15.981034 -32.897334
3 0 44 42
3 1 153 155
3 155 154 45
3 153 154 155
3 1 156 157
3 2 158 160
3 160 159 46
3 158 159 160
3 2 161 162
3 2 163 165
3 163 47 164
3 163 164 165
3 166 49 167
3 169 168 49
3 3 53 51
3 5 56 54
3 5 58 56
3 4 170 171
3 6 172 174
3 174 173 60
3 172 173 174
3 9 175 176
3 9 177 178
3 7 63 61
3 10 66 64
3 10 68 66
3 10 70 68
3 8 73 71
3 8 75 73
3 11 179 181
3 179 76 180
3 179 180 181
3 11 78 76
3 12 81 79
3 12 83 81
3 12 182 184
3 184 183 83
3 182 183 184
3 13 86 84
3 15 87 43
3 15 88 87
3 16 185 187
3 187 186 89
3 185 186 187
3 17 188 190
3 190 189 90
3 188 189 190
3 18 191 192
3 18 193 195
3 193 91 194
3 193 194 195
3 19 94 92
3 21 95 48
3 21 96 95
3 21 98 96
3 23 99 50
3 23 100 99
3 25 102 101
3 26 103 52
3 26 104 103
3 14 105 85
3 27 106 55
3 27 107 106
3 27 108 107
3 28 109 57
3 28 110 109
3 196 111 197
3 198 112 199
3 200 113 201
3 202 114 203
3 204 203 113
3 202 203 204
3 205 115 206
3 207 116 208
3 209 208 115
3 207 208 209
3 210 118 211
3 212 211 116
3 210 211 212
3 31 119 59
3 31 120 119
3 213 121 214
3 216 215 121
3 29 217 218
3 30 123 117
3 33 124 62
3 33 125 124
3 20 126 93
3 34 127 65
3 34 128 127
3 34 129 128
3 35 130 67
3 35 131 130
3 35 132 131
3 36 133 69
3 36 134 133
3 22 135 97
3 37 136 72
3 37 137 136
3 37 138 137
3 32 139 74
3 32 122 139
3 219 140 220
3 221 141 222
3 223 222 140
3 221 222 223
3 38 224 226
3 224 142 225
3 224 225 226
3 38 143 142
3 38 144 143
3 39 145 77
3 39 146 145
3 24 227 229
3 227 147 228
3 227 228 229
3 40 148 80
3 40 149 148
3 40 150 149
3 41 151 82
3 41 152 151
3 41 230 232
3 232 231 152
3 230 231 232
3 42 43 13
3 44 43 42
3 44 15 43
3 45 233 235
3 235 234 16
3 233 234 235
3 237 236 45
3 46 238 240
3 240 239 17
3 238 239 240
3 242 241 46
3 47 243 244
3 47 245 247
3 245 18 246
3 245 246 247
3 248 48 249
3 250 249 19
3 248 249 250
3 49 251 253
3 251 48 252
3 251 252 253
3 49 21 48
3 49 50 21
3 254 50 255
3 256 255 49
3 254 255 256
3 257 23 258
3 259 258 50
3 257 258 259
3 51 52 25
3 53 52 51
3 53 26 52
3 54 55 14
3 56 55 54
3 56 27 55
3 56 57 27
3 58 57 56
3 58 28 57
3 260 59 261
3 262 59 263
3 264 31 265
3 266 265 59
3 264 265 266
3 60 267 269
3 269 268 29
3 267 268 269
3 271 270 60
3 61 62 30
3 63 62 61
3 63 33 62
3 64 65 20
3 66 65 64
3 66 34 65
3 66 67 34
3 68 67 66
3 68 35 67
3 68 69 35
3 70 69 68
3 70 36 69
3 71 72 22
3 73 72 71
3 73 37 72
3 73 74 37
3 75 74 73
3 75 32 74
3 76 272 273
3 76 274 276
3 274 38 275
3 274 275 276
3 76 77 38
3 78 77 76
3 78 39 77
3 79 80 24
3 81 80 79
3 81 40 80
3 81 82 40
3 83 82 81
3 83 41 82
3 83 277 279
3 279 278 41
3 277 278 279
3 281 280 83
3 84 85 3
3 86 85 84
3 86 14 85
3 43 86 13
3 87 86 43
3 87 14 86
3 87 54 14
3 88 54 87
3 88 5 54
3 89 282 284
3 284 283 4
3 282 283 284
3 286 285 89
3 288 287 16
3 90 289 291
3 291 290 6
3 289 290 291
3 293 292 90
3 295 294 17
3 91 296 297
3 91 298 300
3 298 9 299
3 298 299 300
3 92 93 7
3 94 93 92
3 94 20 93
3 48 94 19
3 95 94 48
3 95 20 94
3 95 64 20
3 96 64 95
3 96 10 64
3 96 97 10
3 98 97 96
3 98 22 97
3 50 98 21
3 99 98 50
3 99 22 98
3 99 71 22
3 100 71 99
3 100 8 71
3 301 11 302
3 303 24 304
3 305 24 306
3 307 79 308
3 309 308 24
3 307 308 309
3 310 79 311
3 312 12 313
3 314 313 79
3 312 313 314
3 316 315 12
3 101 317 318
3 102 319 321
3 321 320 101
3 319 320 321
3 102 322 323
3 52 102 25
3 103 102 52
3 103 324 326
3 326 325 102
3 324 325 326
3 103 327 328
3 104 329 331
3 331 330 103
3 329 330 331
3 104 332 334
3 332 4 333
3 332 333 334
3 85 53 3
3 105 53 85
3 105 26 53
3 55 105 14
3 106 105 55
3 106 26 105
3 106 104 26
3 107 104 106
3 107 4 104
3 107 89 4
3 108 89 107
3 108 16 89
3 57 108 27
3 109 108 57
3 109 16 108
3 109 45 16
3 110 45 109
3 110 1 45
3 111 335 336
3 111 337 339
3 337 29 338
3 337 338 339
3 340 111 341
3 342 111 343
3 344 29 345
3 346 345 111
3 344 345 346
3 347 60 348
3 349 348 29
3 347 348 349
3 112 350 352
3 350 60 351
3 350 351 352
3 112 6 60
3 353 112 354
3 113 355 357
3 355 112 356
3 355 356 357
3 113 6 112
3 113 90 6
3 114 90 113
3 114 17 90
3 358 114 359
3 115 360 362
3 360 114 361
3 360 361 362
3 115 17 114
3 115 46 17
3 116 46 115
3 116 2 46
3 116 117 2
3 118 117 116
3 118 30 117
3 59 363 365
3 363 118 364
3 363 364 365
3 119 118 59
3 119 30 118
3 119 61 30
3 120 61 119
3 120 7 61
3 366 31 367
3 368 31 369
3 370 120 371
3 372 371 31
3 370 371 372
3 121 373 375
3 373 120 374
3 373 374 375
3 121 7 120
3 121 92 7
3 376 92 377
3 378 377 121
3 376 377 378
3 379 19 380
3 381 380 92
3 379 380 381
3 382 19 383
3 385 384 19
3 387 386 4
3 389 388 0
3 390 23 391
3 392 23 393
3 394 100 395
3 396 395 23
3 394 395 396
3 397 100 398
3 399 8 400
3 401 400 100
3 399 400 401
3 402 8 403
3 404 75 405
3 406 405 8
3 404 405 406
3 407 75 408
3 409 32 410
3 411 410 75
3 409 410 411
3 412 32 413
3 414 122 415
3 416 415 32
3 414 415 416
3 417 122 418
3 419 0 420
3 421 420 122
3 419 420 421
3 423 422 29
3 425 424 6
3 117 47 2
3 123 47 117
3 123 18 47
3 62 123 30
3 124 123 62
3 124 18 123
3 124 91 18
3 125 91 124
3 125 9 91
3 93 63 7
3 126 63 93
3 126 33 63
3 65 126 20
3 127 126 65
3 127 33 126
3 127 125 33
3 128 125 127
3 128 9 125
3 128 426 428
3 428 427 9
3 426 427 428
3 129 429 431
3 431 430 128
3 429 430 431
3 129 432 433
3 67 129 34
3 130 129 67
3 130 434 436
3 436 435 129
3 434 435 436
3 130 437 438
3 131 439 441
3 441 440 130
3 439 440 441
3 131 442 443
3 131 444 446
3 444 101 445
3 444 445 446
3 132 101 131
3 132 25 101
3 69 132 35
3 133 132 69
3 133 25 132
3 133 51 25
3 134 51 133
3 134 3 51
3 97 70 10
3 135 70 97
3 135 36 70
3 72 135 22
3 136 135 72
3 136 36 135
3 136 134 36
3 137 134 136
3 137 3 134
3 137 84 3
3 138 84 137
3 138 13 84
3 74 138 37
3 139 138 74
3 139 13 138
3 139 42 13
3 122 42 139
3 122 0 42
3 447 44 448
3 449 448 0
3 447 448 449
3 450 44 451
3 452 15 453
3 454 453 44
3 452 453 454
3 140 455 456
3 140 457 459
3 457 15 458
3 457 458 459
3 140 88 15
3 141 88 140
3 141 5 88
3 142 460 461
3 142 462 463
3 142 464 466
3 464 141 465
3 464 465 466
3 143 141 142
3 143 5 141
3 143 58 5
3 144 58 143
3 144 28 58
3 77 144 38
3 145 144 77
3 145 28 144
3 145 110 28
3 146 110 145
3 146 1 110
3 467 11 468
3 147 469 470
3 147 471 472
3 80 147 24
3 148 147 80
3 148 473 475
3 475 474 147
3 473 474 475
3 148 476 477
3 149 478 480
3 480 479 148
3 478 479 480
3 149 481 483
3 481 11 482
3 481 482 483
3 149 78 11
3 150 78 149
3 150 39 78
3 82 150 40
3 151 150 82
3 151 39 150
3 151 146 39
3 152 146 151
3 152 1 146
3 152 484 486
3 486 485 1
3 484 485 486
3 488 487 152
3 490 489 41
3 492 491 12
