ply
format ascii 1.0
element vertex 361
property float x
property float y
property float z
element face 378
property list uchar int vertex_index
end_header
-8.314447 42.529835 -32.877678
-17.440147 41.045692 -31.139942
-15.135777 26.896774 -30.7178
-8.144985 24.716984 -29.674873
-12.566252 56.237873 -31.080734
-7.822794 71.090042 -29.747959
-2.803162 57.736675 -34.180843
-12.691938 42.033298 -32.146896
-15.638957 34.391907 -31.544178
-11.530058 34.588413 -31.715847
-18.434872 54.188412 -28.870682
-16.271576 61.786274 -28.413769
-5.899792 77.236404 -27.171719
-2.931692 71.44133 -30.638382
-4.828167 64.924362 -32.594799
-0.881121 64.389847 -32.993835
-4.415627 42.084679 -33.216183
-7.723143 34.138752 -31.642345
-20.462608 46.854382 -29.461147
-15.009011 48.530514 -31.097939
-9.915268 49.851917 -32.723759
-9.818621 81.29451 -22.917046
-11.801834 75.944611 -26.048832
-14.025398 69.24855 -27.699356
-10.126091 63.906078 -30.837967
-7.25 57.58749 -33.062069
-5.378384 50.346996 -33.891182
-1.628469 49.605556 -34.284069
-11.540688 26.172657 -30.203587
-15.920045 18.72686 -29.394154
-10.450159 42.37252 -32.556961
-11.96545 38.434944 -32.10778
-9.882551 38.553581 -32.292091
-2.263905 74.258835 -28.957314
-1.16083 70.939316 -30.455956
-1.800434 68.046417 -31.972466
-15.22392 30.744602 -31.251774
-17.219223 30.724606 -31.242661
-16.997711 27.085049 -30.890198
-17.106842 23.287769 -30.384701
-4.250193 37.534142 -32.414478
-15.448972 55.269833 -29.957672
-16.589157 51.458317 -30.08984
-13.790543 52.369228 -31.090435
-12.402924 49.262905 -31.942829
-11.107119 53.153217 -32.070045
-9.000135 83.388931 -20.739388
-6.968695 81.856598 -23.050148
-6.796902 74.324417 -28.675041
-8.667059 76.785904 -26.760147
-9.696545 73.705154 -27.977303
-12.899733 72.734756 -27.032875
-10.80265 70.322357 -28.815948
-11.953348 66.710358 -29.346115
-8.94379 67.593399 -30.443321
-3.701084 61.448177 -33.565483
-5.992773 61.330074 -32.973892
-4.894196 57.838642 -33.759888
-6.194239 54.086369 -33.668926
-4.030422 54.113628 -34.173588
-3.386063 50.145458 -34.203423
-2.117672 53.79211 -34.420483
-7.804365 29.541306 -30.694897
-9.562061 30.127251 -30.875393
-9.81579 25.552319 -29.927124
-15.028726 41.57275 -31.665478
-16.379856 37.826366 -31.516914
-14.135559 38.173775 -31.847172
-13.550266 34.544235 -31.667477
-13.276266 30.684155 -31.17944
-20.523521 56.727535 -27.54324
-17.366991 57.972767 -28.638481
-14.291384 59.115467 -29.831573
-5.159372 79.786865 -25.21719
-3.591421 77.231735 -27.19939
-4.294033 74.524994 -29.025089
-5.172291 71.481781 -30.38409
-6.199167 68.148727 -31.305809
-3.795532 68.31366 -31.838612
-2.656719 64.867355 -32.994308
-1.739536 61.176167 -33.814995
-1.025951 57.257084 -34.275093
-10.354362 20.797462 -28.976776
-17.777544 34.181038 -31.341763
-6.29644 42.448254 -33.100639
-7.894028 38.472385 -32.403019
-6.010229 38.142883 -32.445911
-5.951948 33.557022 -31.549202
-18.807411 44.053074 -30.433605
-19.469145 50.473766 -29.145889
-17.708899 47.712322 -30.252235
-16.223347 44.748795 -31.119099
-13.707611 45.39362 -31.804031
-11.289663 45.936611 -32.443413
-8.986446 46.317371 -32.995621
-11.213573 84.357498 -18.323318
-7.747883 79.511597 -25.121265
-10.763191 78.810837 -24.68721
-16.310764 71.48558 -25.96273
-17.409466 67.93898 -26.523266
-15.154634 65.570221 -28.129444
-13.122427 62.949604 -29.654495
-11.340641 60.099949 -31.021084
-7.339878 64.586578 -31.850601
-8.557993 60.860836 -32.100204
-9.821453 57.032627 -32.144962
-8.565392 53.747334 -32.950989
-7.565754 50.23357 -33.38665
-6.812664 46.473736 -33.431335
-4.789267 46.352283 -33.729427
-9.585955 34.470051 -31.701603
-11.387587 30.494656 -31.045212
-13.314793 26.607376 -30.478474
-11.992697 21.664131 -29.314659
-13.66526 22.346867 -29.686333
-15.370673 22.875774 -30.055779
-17.53307 19.372307 -29.850235
-0.522526 70.461525 -30.136918
-0.955406 72.225174 -29.447662
-0.709705 69.13807 -31.060566
-0.522526 70.461525 -30.136918
-18.055402 39.242937 -31.134388
-18.663994 40.770538 -30.867387
-5.780568 81.909104 -22.937792
-6.658887 82.83976 -21.809567
-21.671655 57.901737 -26.872543
-22.114655 56.075825 -27.080751
-23.262789 57.250027 -26.410055
-16.819283 59.87952 -28.526125
-18.444435 59.225448 -27.934793
-17.896727 61.132202 -27.822437
-2.698151 76.982452 -26.997435
-3.33511 78.403793 -26.056415
-0.517307 62.447199 -33.334505
-0.946514 60.840359 -33.745085
-1.310329 62.783007 -33.404415
-18.228372 30.694874 -31.190575
-18.05212 28.968707 -31.106945
-5.121522 33.131809 -31.481098
-5.101071 35.545582 -31.98184
-4.270644 35.120369 -31.913736
-6.038596 31.134224 -31.031592
-5.121522 33.131809 -31.481098
-20.936045 45.099665 -29.619419
-21.834708 46.42278 -29.105947
-19.635009 45.453728 -29.947376
-20.108447 43.699011 -30.105648
-20.936045 45.099665 -29.619419
-18.952008 52.331089 -29.008285
-20.474469 51.758007 -28.52344
-19.957333 53.61533 -28.385836
-9.771787 84.735954 -18.253725
-10.854186 85.089455 -17.015909
-10.9454 81.921135 -21.75759
-10.536157 82.968345 -20.668761
-9.409378 82.341721 -21.828217
-11.432424 80.824211 -22.707222
-10.9454 81.921135 -21.75759
-12.951511 76.852631 -25.0287
-12.43219 78.285744 -24.347889
-11.282512 77.377724 -25.368021
-13.500993 75.365578 -25.598532
-12.951511 76.852631 -25.0287
-2.287597 47.761986 -34.074206
-3.166393 48.031937 -34.033883
-2.507266 49.875507 -34.243746
-1.474905 47.384045 -34.039459
-2.287597 47.761986 -34.074206
-0.762427 55.184513 -34.318737
-0.312693 56.831318 -34.135791
-12.369231 19.348793 -28.906105
-11.17353 21.230797 -29.145717
-11.550063 18.915458 -28.737164
-14.792652 20.536863 -29.540244
-13.994897 20.151724 -29.307997
-15.12229 18.341721 -29.161907
-17.376897 63.013139 -27.665096
-17.896727 61.132202 -27.822437
-1.506943 73.884934 -28.698341
-2.034394 75.496003 -27.876396
-1.712368 72.599075 -29.706635
-1.506943 73.884934 -28.698341
-0.955406 72.225174 -29.447662
-1.029508 67.69162 -31.818821
-1.480632 69.492867 -31.214211
-0.709705 69.13807 -31.060566
-0.569851 65.863335 -32.329505
-1.340778 66.218132 -32.483151
-1.029508 67.69162 -31.818821
-0.207033 63.944674 -32.77614
-0.569851 65.863335 -32.329505
-17.941364 27.148928 -30.930714
-18.05212 28.968707 -31.106945
-17.108467 28.904828 -31.066429
-17.931669 25.352543 -30.765127
-17.941364 27.148928 -30.930714
-17.986235 23.453903 -30.512379
-17.931669 25.352543 -30.765127
-17.052276 25.186409 -30.63745
-18.134205 21.605963 -30.322122
-17.986235 23.453903 -30.512379
-3.475512 39.47592 -32.806917
-4.33291 39.80941 -32.815331
-3.558228 41.751188 -33.207769
-3.445593 37.085907 -32.346717
-3.475512 39.47592 -32.806917
-4.270644 35.120369 -31.913736
-3.445593 37.085907 -32.346717
-21.420727 48.155716 -28.887528
-21.834708 46.42278 -29.105947
-7.674607 83.605927 -20.654187
-8.665067 84.251671 -19.46176
-7.984415 82.622765 -21.894768
-7.674607 83.605927 -20.654187
-6.658887 82.83976 -21.809567
-16.344826 16.619373 -29.123306
-15.12229 18.341721 -29.161907
-17.087954 17.059607 -29.402493
-16.344826 16.619373 -29.123306
-21.001658 54.884892 -27.722115
-22.114655 56.075825 -27.080751
-19.479197 55.457974 -28.206961
-19.957333 53.61533 -28.385836
-21.001658 54.884892 -27.722115
-20.0227 58.602833 -27.387173
-21.671655 57.901737 -26.872543
-18.945256 57.350151 -28.09086
-20.0227 58.602833 -27.387173
-18.444435 59.225448 -27.934793
-4.119086 79.681358 -25.065315
-4.875906 80.874237 -24.021313
-4.375396 78.5093 -26.20829
-4.119086 79.681358 -25.065315
-3.33511 78.403793 -26.056415
-2.927663 75.745285 -28.078352
-2.698151 76.982452 -26.997435
-2.034394 75.496003 -27.876396
-0.589722 58.880817 -33.975134
-1.382744 59.216625 -34.045044
-0.946514 60.840359 -33.745085
-0.312693 56.831318 -34.135791
-0.589722 58.880817 -33.975134
-0.517307 62.447199 -33.334505
-0.207033 63.944674 -32.77614
-9.554831 20.26301 -28.835951
-9.249674 22.757223 -29.325825
-8.450142 22.222771 -29.184999
-10.769372 18.367532 -28.554424
-9.554831 20.26301 -28.835951
-11.550063 18.915458 -28.737164
-10.769372 18.367532 -28.554424
-17.525257 37.633274 -31.322874
-18.055402 39.242937 -31.134388
-16.910001 39.436029 -31.328428
-18.224101 35.81061 -31.235298
-17.525257 37.633274 -31.322874
-17.0787 36.003702 -31.429339
-18.854119 34.065653 -31.199542
-18.224101 35.81061 -31.235298
-18.507533 32.42309 -31.240126
-17.498383 32.452822 -31.292212
-18.228372 30.694874 -31.190575
-18.854119 34.065653 -31.199542
-18.507533 32.42309 -31.240126
-6.964804 29.126366 -30.604439
-6.878156 31.549164 -31.12205
-6.038596 31.134224 -31.031592
-7.135115 26.714205 -30.094427
-7.974675 27.129145 -30.184885
-6.964804 29.126366 -30.604439
-7.342014 24.184876 -29.563541
-7.135115 26.714205 -30.094427
-8.450142 22.222771 -29.184999
-7.342014 24.184876 -29.563541
-19.347625 42.274229 -30.514219
-20.108447 43.699011 -30.105648
-18.123779 42.549383 -30.786774
-18.663994 40.770538 -30.867387
-19.347625 42.274229 -30.514219
-20.923995 49.965408 -28.729899
-20.474469 51.758007 -28.52344
-19.965877 48.664074 -29.303518
-21.420727 48.155716 -28.887528
-20.923995 49.965408 -28.729899
-12.382876 84.562668 -17.078327
-12.023489 85.294624 -15.770918
-10.854186 85.089455 -17.015909
-12.832644 83.809181 -18.259338
-12.382876 84.562668 -17.078327
-10.106854 83.873215 -19.531353
-9.771787 84.735954 -18.253725
-8.665067 84.251671 -19.46176
-11.642876 83.452629 -19.460726
-10.106854 83.873215 -19.531353
-10.536157 82.968345 -20.668761
-12.832644 83.809181 -18.259338
-11.642876 83.452629 -19.460726
-6.064034 80.821731 -24.133669
-5.780568 81.909104 -22.937792
-4.875906 80.874237 -24.021313
-11.904709 79.582375 -23.592304
-11.432424 80.824211 -22.707222
-10.290906 80.052673 -23.802128
-11.904709 79.582375 -23.592304
-12.43219 78.285744 -24.347889
-14.049943 73.76065 -26.090553
-13.500993 75.365578 -25.598532
-12.350783 74.339684 -26.540854
-15.755458 73.136063 -25.555481
-14.049943 73.76065 -26.090553
-14.605248 72.110168 -26.497802
-17.535095 72.433411 -25.071337
-15.755458 73.136063 -25.555481
-18.075972 70.754478 -25.427091
-17.535095 72.433411 -25.071337
-18.625322 68.981178 -25.707359
-18.075972 70.754478 -25.427091
-16.860115 69.71228 -26.242998
-19.145741 67.197174 -25.966076
-18.625322 68.981178 -25.707359
-17.945842 66.089493 -26.719845
-19.145741 67.197174 -25.966076
-16.818426 64.905113 -27.522934
-17.945842 66.089493 -26.719845
-16.28205 66.754601 -27.326355
-15.713105 63.678247 -28.271606
-17.376897 63.013139 -27.665096
-16.818426 64.905113 -27.522934
-3.867996 46.135349 -33.796885
-4.087665 48.24887 -33.966425
-3.166393 48.031937 -34.033883
-3.681176 44.001547 -33.540262
-4.602447 44.218481 -33.472805
-3.867996 46.135349 -33.796885
-3.558228 41.751188 -33.207769
-3.681176 44.001547 -33.540262
-1.308288 53.452026 -34.391432
-1.571812 55.524597 -34.347788
-0.762427 55.184513 -34.318737
-1.063686 51.358749 -34.323225
-1.873071 51.698833 -34.352276
-1.308288 53.452026 -34.391432
-0.885826 49.168415 -34.183149
-1.063686 51.358749 -34.323225
-1.474905 47.384045 -34.039459
-0.885826 49.168415 -34.183149
-13.158615 19.810356 -29.12216
-12.369231 19.348793 -28.906105
-12.828978 22.005499 -29.500496
-13.158615 19.810356 -29.12216
-13.994897 20.151724 -29.307997
-18.347319 19.648232 -30.05489
-18.134205 21.605963 -30.322122
-17.319956 21.330038 -30.117468
-17.894467 17.38233 -29.630533
-16.726557 19.049583 -29.622194
-17.087954 17.059607 -29.402493
-18.639728 17.772812 -29.901305
-17.894467 17.38233 -29.630533
-18.347319 19.648232 -30.05489
-18.639728 17.772812 -29.901305
3 0 32 30
3 117 34 118
3 120 119 34
3 1 121 122
3 2 38 36
3 2 39 38
3 4 43 41
3 4 45 43
3 123 47 124
3 5 50 48
3 5 52 50
3 5 54 52
3 6 57 55
3 6 59 57
3 6 61 59
3 3 64 62
3 7 67 65
3 9 68 31
3 9 69 68
3 125 70 126
3 125 126 127
3 11 128 130
3 128 71 129
3 128 129 130
3 11 72 71
3 131 74 132
3 13 75 33
3 13 76 75
3 13 78 76
3 15 79 35
3 15 80 79
3 15 133 135
3 135 134 80
3 133 134 135
3 8 83 66
3 137 136 37
3 16 86 84
3 138 87 139
3 140 139 40
3 138 139 140
3 142 141 87
3 18 143 144
3 18 145 147
3 145 88 146
3 145 146 147
3 10 148 150
3 148 89 149
3 148 149 150
3 19 90 42
3 19 91 90
3 19 92 91
3 20 93 44
3 20 94 93
3 151 95 152
3 21 153 155
3 155 154 46
3 153 154 155
3 21 156 157
3 12 96 73
3 22 97 49
3 22 158 160
3 160 159 97
3 158 159 160
3 22 161 162
3 23 98 51
3 23 99 98
3 23 100 99
3 24 101 53
3 24 102 101
3 14 103 77
3 25 104 56
3 25 105 104
3 25 106 105
3 26 107 58
3 26 108 107
3 26 109 108
3 27 163 165
3 165 164 60
3 163 164 165
3 27 166 167
3 169 168 81
3 17 110 85
3 28 111 63
3 28 112 111
3 170 113 171
3 172 171 82
3 170 171 172
3 29 173 175
3 173 114 174
3 173 174 175
3 29 115 114
3 29 116 115
3 30 31 7
3 32 31 30
3 32 9 31
3 176 11 177
3 178 33 179
3 34 180 182
3 180 33 181
3 180 181 182
3 34 13 33
3 34 35 13
3 183 35 184
3 185 184 34
3 183 184 185
3 186 15 187
3 188 187 35
3 186 187 188
3 190 189 15
3 36 37 8
3 38 37 36
3 38 191 193
3 193 192 37
3 191 192 193
3 38 194 195
3 39 196 198
3 198 197 38
3 196 197 198
3 39 199 200
3 201 40 202
3 203 202 16
3 201 202 203
3 204 40 205
3 207 206 40
3 208 18 209
3 41 42 10
3 43 42 41
3 43 19 42
3 43 44 19
3 45 44 43
3 45 20 44
3 210 46 211
3 47 212 214
3 212 46 213
3 212 213 214
3 47 21 46
3 48 49 12
3 50 49 48
3 50 22 49
3 50 51 22
3 52 51 50
3 52 23 51
3 52 53 23
3 54 53 52
3 54 24 53
3 55 56 14
3 57 56 55
3 57 25 56
3 57 58 25
3 59 58 57
3 59 26 58
3 59 60 26
3 61 60 59
3 61 27 60
3 62 63 17
3 64 63 62
3 64 28 63
3 215 29 216
3 218 217 29
3 65 66 1
3 67 66 65
3 67 8 66
3 31 67 7
3 68 67 31
3 68 8 67
3 68 36 8
3 69 36 68
3 69 2 36
3 70 219 220
3 70 221 223
3 221 10 222
3 221 222 223
3 224 70 225
3 71 226 228
3 226 70 227
3 226 227 228
3 71 10 70
3 71 41 10
3 72 41 71
3 72 4 41
3 229 73 230
3 74 231 233
3 231 73 232
3 231 232 233
3 74 12 73
3 33 234 236
3 234 74 235
3 234 235 236
3 75 74 33
3 75 12 74
3 75 48 12
3 76 48 75
3 76 5 48
3 76 77 5
3 78 77 76
3 78 14 77
3 35 78 13
3 79 78 35
3 79 14 78
3 79 55 14
3 80 55 79
3 80 6 55
3 80 81 6
3 237 81 238
3 239 238 80
3 237 238 239
3 241 240 81
3 243 242 15
3 244 82 245
3 246 245 3
3 244 245 246
3 247 82 248
3 250 249 82
3 66 251 253
3 253 252 1
3 251 252 253
3 83 254 256
3 256 255 66
3 254 255 256
3 83 257 258
3 37 83 8
3 259 83 260
3 261 260 37
3 259 260 261
3 263 262 83
3 84 85 0
3 86 85 84
3 86 17 85
3 40 86 16
3 87 86 40
3 87 17 86
3 87 62 17
3 264 62 265
3 266 265 87
3 264 265 266
3 267 3 268
3 269 268 62
3 267 268 269
3 270 3 271
3 273 272 3
3 88 274 275
3 88 276 278
3 276 1 277
3 276 277 278
3 89 279 280
3 89 281 283
3 281 18 282
3 281 282 283
3 42 89 10
3 90 89 42
3 90 18 89
3 90 88 18
3 91 88 90
3 91 1 88
3 91 65 1
3 92 65 91
3 92 7 65
3 44 92 19
3 93 92 44
3 93 7 92
3 93 30 7
3 94 30 93
3 94 0 30
3 95 284 286
3 284 285 286
3 95 287 288
3 46 289 291
3 289 95 290
3 289 290 291
3 292 95 293
3 294 293 46
3 292 293 294
3 296 295 95
3 73 297 299
3 297 47 298
3 297 298 299
3 96 47 73
3 96 21 47
3 49 96 12
3 97 96 49
3 97 21 96
3 97 300 302
3 302 301 21
3 300 301 302
3 304 303 97
3 51 305 307
3 307 306 22
3 305 306 307
3 98 308 310
3 310 309 51
3 308 309 310
3 98 311 312
3 98 313 314
3 99 315 317
3 317 316 98
3 315 316 317
3 99 318 319
3 99 320 321
3 100 322 324
3 324 323 99
3 322 323 324
3 100 325 327
3 325 11 326
3 325 326 327
3 53 100 23
3 101 100 53
3 101 11 100
3 101 72 11
3 102 72 101
3 102 4 72
3 77 54 5
3 103 54 77
3 103 24 54
3 56 103 14
3 104 103 56
3 104 24 103
3 104 102 24
3 105 102 104
3 105 4 102
3 105 45 4
3 106 45 105
3 106 20 45
3 58 106 25
3 107 106 58
3 107 20 106
3 107 94 20
3 108 94 107
3 108 0 94
3 108 84 0
3 109 84 108
3 109 16 84
3 60 109 26
3 328 109 329
3 330 329 60
3 328 329 330
3 331 16 332
3 333 332 109
3 331 332 333
3 335 334 16
3 81 61 6
3 336 61 337
3 338 337 81
3 336 337 338
3 339 27 340
3 341 340 61
3 339 340 341
3 342 27 343
3 345 344 27
3 85 32 0
3 110 32 85
3 110 9 32
3 63 110 17
3 111 110 63
3 111 9 110
3 111 69 9
3 112 69 111
3 112 2 69
3 82 64 3
3 113 64 82
3 113 28 64
3 346 113 347
3 114 348 350
3 348 113 349
3 348 349 350
3 114 28 113
3 114 112 28
3 115 112 114
3 115 2 112
3 115 39 2
3 116 39 115
3 116 351 353
3 353 352 39
3 351 352 353
3 354 116 355
3 356 355 29
3 354 355 356
3 357 116 358
3 360 359 116
