ply
format ascii 1.0
element vertex 450
property float x
property float y
property float z
element face 428
property list uchar int vertex_index
end_header
40.589478 -6.579755 -4.454247
39.37521 -9.229338 10.868705
44.683342 3.382841 -18.730947
40.785374 -21.031933 11.463001
41.969318 12.922829 -23.068964
39.291565 -8.137798 3.237873
42.388012 -18.248203 3.146982
40.294441 -2.235928 -5.890385
42.469429 -2.732096 -10.996986
42.613075 -7.433816 -8.522423
39.007126 -8.723466 7.312295
40.46841 -13.973214 3.159034
39.765442 -14.968496 7.462966
40.684177 16.533558 -30.790632
37.650379 18.448471 -31.99423
41.220215 8.399311 -15.229868
41.981277 2.739061 -13.180706
45.471447 -1.63825 -16.186369
39.709198 -15.728201 11.3211
40.618076 -16.329836 14.45454
39.928513 16.957188 -24.938326
43.409164 13.680161 -29.03557
43.532459 8.317513 -21.009615
39.918991 -7.438541 -0.967287
42.24913 -10.650789 -5.337324
41.422836 -12.61747 -1.262924
41.247524 -19.777491 7.511464
40.458908 -4.73409 -5.098663
41.38102 -5.095816 -7.369076
41.407192 -7.149447 -6.269772
39.09166 -8.98491 9.173973
39.324909 -12.011314 7.404475
39.302402 -12.333635 9.3453
40.744293 16.765545 -33.741508
40.517616 6.023624 -11.374712
40.822994 3.043713 -10.391378
44.055328 -4.92879 -12.312204
43.888023 -2.442308 -13.610357
45.718655 -4.087561 -14.786394
40.564079 -13.118967 14.101423
41.009575 15.026962 -24.025354
41.640625 14.9258 -26.985643
42.771095 13.089836 -26.039557
42.863079 5.495523 -17.06349
42.361382 8.138647 -18.116476
44.154507 5.876762 -19.899733
39.581272 -7.80614 1.11879
40.576767 -10.164588 -1.098511
40.180603 -10.737924 1.037992
41.314007 -16.324005 3.133664
41.893295 -15.569008 0.876721
40.123764 -18.533096 11.435215
40.148762 -18.0742 9.53767
40.905937 -20.435228 9.553389
37.495712 17.872845 -34.660568
36.102364 19.007729 -32.378838
35.902889 18.015392 -34.818871
43.488586 -12.461996 -5.67309
43.835892 -11.011548 -7.606091
40.08828 0.595949 -6.744665
41.07365 0.139156 -9.403404
41.262978 -2.610895 -8.400562
42.592445 -5.22704 -9.812035
44.113747 -7.22855 -10.902822
41.078278 13.190399 -20.133238
39.086857 -8.442027 5.319667
39.809746 -11.224687 3.206374
39.509041 -11.644907 5.344604
40.060207 -14.506775 5.348002
40.794205 -16.981911 5.353147
41.741386 -23.236586 11.394954
41.950909 -22.470449 9.50028
39.043949 18.008541 -28.623514
37.62133 19.199303 -29.312231
39.190147 17.620029 -31.464197
39.123466 17.45636 -34.302109
41.634109 5.57263 -14.215467
43.284229 2.822908 -15.969393
42.261799 -0.050018 -12.112957
43.627388 0.16111 -14.82313
45.123219 0.866159 -17.496542
39.884815 -9.460874 12.36461
39.481663 -12.620571 11.13028
39.89489 -12.880161 12.725495
40.028709 -16.045881 12.994076
40.352989 -18.942858 13.159227
40.927906 -21.567307 13.211535
40.392593 16.575352 -27.847406
42.098766 15.210903 -29.978624
40.733223 11.173485 -16.23498
41.770386 10.715473 -19.137136
42.807724 10.676079 -22.064917
45.437817 6.758625 -22.715776
44.664165 8.978916 -23.902063
43.777946 11.097954 -25.010881
39.841488 -4.511615 -3.026295
40.271172 -7.024467 -2.909723
39.427025 -4.537348 -0.990417
39.104042 -4.643161 1.105501
38.868301 -4.788852 3.201833
38.741646 -4.962764 5.238165
38.754917 -5.157948 7.165195
38.940247 -5.367955 8.942896
39.568886 -1.810074 -3.514181
41.26392 -8.562925 -4.889688
40.954979 -9.467862 -3.116899
41.873997 -11.737461 -3.381014
43.025196 -13.672136 -3.578571
40.939049 -13.351053 0.938419
42.479622 -14.694677 -1.376806
39.633598 -15.371908 9.465992
40.388191 -17.56057 7.499146
41.759892 -19.052471 5.366401
42.503723 -9.248674 -7.054981
44.045139 -9.270623 -9.346254
40.33034 3.330754 -9.015349
40.184275 4.890441 -9.480431
45.784621 -5.258977 -14.032535
44.886992 -4.508176 -13.549299
44.952957 -5.679591 -12.79544
46.732995 -4.544942 -15.18537
45.784621 -5.258977 -14.032535
41.489446 13.974895 -23.547159
40.642128 15.27775 -22.569035
41.122 14.225683 -22.09084
42.731676 -17.798149 2.014754
42.194673 -16.83605 2.008095
41.85101 -17.286104 3.140323
43.447738 -18.467806 2.051912
42.731676 -17.798149 2.014754
36.516474 17.703919 -36.046669
36.6993 17.944119 -34.739719
37.312885 17.632645 -35.967517
35.719429 17.553434 -36.009236
36.516474 17.703919 -36.046669
44.449548 -12.39557 -6.795683
44.230576 -13.1564 -5.755251
40.620399 13.521334 -18.687193
40.287728 14.792687 -19.196045
42.526783 -23.724314 10.380479
42.381715 -24.203432 11.311392
39.827129 17.309442 -35.484905
39.93388 17.110952 -34.021809
40.637542 16.964035 -35.204605
38.966667 17.438778 -35.701206
39.827129 17.309442 -35.484905
46.309252 -0.957262 -17.441562
46.135138 0.294942 -18.096649
45.297333 -0.386045 -16.841456
40.26625 -11.282293 13.180141
39.889853 -11.170517 12.545053
40.261213 -9.57265 12.999698
41.146137 -21.800904 13.992234
40.896612 -20.435488 13.946019
41.364361 -22.746467 13.179552
41.146137 -21.800904 13.992234
39.126704 18.310469 -23.996818
39.641913 17.326843 -23.511185
39.332448 17.820223 -25.375156
39.126704 18.310469 -23.996818
40.160553 16.76627 -26.392866
39.564487 17.629305 -26.829696
39.332448 17.820223 -25.375156
43.609301 14.152596 -30.540933
42.954102 14.917967 -31.012459
42.753965 14.445532 -29.507097
40.976719 9.786398 -15.732424
40.240305 11.571137 -14.801838
40.483801 10.184051 -14.299282
46.451737 6.399468 -23.428762
45.772582 5.609543 -22.08477
45.168458 9.545745 -25.347663
45.644855 8.553814 -24.708056
44.725349 10.605264 -25.902073
44.221055 10.038435 -24.456472
45.168458 9.545745 -25.347663
44.189819 11.534614 -26.490665
44.725349 10.605264 -25.902073
39.242457 -3.015588 -1.123374
39.634256 -4.524482 -2.008356
39.449688 -3.002721 -2.141313
38.801714 -2.948485 2.075511
38.907409 -2.980819 1.01702
38.683844 -3.021331 3.123677
38.986171 -4.716007 2.153667
38.801714 -2.948485 2.075511
38.630902 -3.170634 6.087797
38.585369 -3.120961 5.149805
38.637537 -3.268226 7.051312
38.748282 -5.060356 6.20168
38.630902 -3.170634 6.087797
39.109734 -3.55362 9.539503
38.86838 -3.452282 8.790778
39.133091 -5.477764 9.740375
39.109734 -3.55362 9.539503
39.313387 -1.651951 -2.385255
39.156239 -0.052099 -2.631856
39.449688 -3.002721 -2.141313
39.705187 -3.160845 -3.270238
39.313387 -1.651951 -2.385255
43.12341 -15.51319 -1.385893
42.186459 -15.131843 -0.250043
42.830246 -15.950356 -0.25913
43.446688 -14.93488 -2.512819
43.12341 -15.51319 -1.385893
42.168452 -22.053027 8.493443
42.889857 -22.822319 8.452825
36.903597 19.288864 -30.9525
36.889072 19.66428 -29.6115
37.635855 18.823887 -30.65323
35.391924 19.899574 -31.397165
35.34128 19.154276 -32.499711
44.875553 -9.927878 -9.602079
43.940516 -10.141085 -8.476173
44.77093 -10.798341 -8.731997
44.948032 -8.941132 -10.494266
44.875553 -9.927878 -9.602079
41.530853 16.289763 -33.363411
40.714235 16.649552 -32.26607
41.500795 16.173769 -31.887972
41.49493 16.69169 -34.861492
41.530853 16.289763 -33.363411
40.637542 16.964035 -35.204605
41.49493 16.69169 -34.861492
40.031585 6.380396 -9.972098
39.866745 7.953735 -10.456346
40.670305 4.533669 -10.883045
40.031585 6.380396 -9.972098
40.184275 4.890441 -9.480431
46.613348 -3.373229 -15.988201
46.489744 -2.148573 -16.688188
45.595051 -2.862906 -15.486382
46.613348 -3.373229 -15.988201
46.732995 -4.544942 -15.18537
41.101854 -11.511633 14.380864
40.600845 -11.401696 13.868105
41.031858 -13.229861 14.66884
41.101854 -11.511633 14.380864
41.058857 -14.835295 14.845398
40.591077 -14.724401 14.277981
41.031858 -13.229861 14.66884
40.182443 16.361731 -23.054699
40.642128 15.27775 -22.569035
40.469044 15.992075 -24.48184
39.641913 17.326843 -23.511185
40.182443 16.361731 -23.054699
42.484318 -16.458551 0.879624
41.603651 -15.946506 2.005193
42.194673 -16.83605 2.008095
42.830246 -15.950356 -0.25913
42.484318 -16.458551 0.879624
35.241543 18.658107 -33.719727
35.34128 19.154276 -32.499711
36.002627 18.511561 -33.598855
35.141451 17.958016 -34.803986
35.241543 18.658107 -33.719727
35.141451 17.958016 -34.803986
35.719429 17.553434 -36.009236
44.623202 -11.670346 -7.762183
43.662239 -11.736772 -6.639591
44.449548 -12.39557 -6.795683
44.77093 -10.798341 -8.731997
44.623202 -11.670346 -7.762183
40.580965 0.367552 -8.074034
40.455668 1.878475 -8.521362
39.962982 2.106872 -7.191992
44.982166 -6.829471 -12.09075
44.952957 -5.679591 -12.79544
44.084537 -6.07867 -11.607513
40.676479 14.359468 -20.622977
40.287728 14.792687 -19.196045
41.523798 13.056614 -21.601101
41.122 14.225683 -22.09084
40.676479 14.359468 -20.622977
45.395344 3.921651 -20.092356
45.680435 2.744982 -19.423187
42.631545 -23.341245 9.433142
41.846148 -22.853517 10.447617
42.526783 -23.724314 10.380479
42.889857 -22.822319 8.452825
42.631545 -23.341245 9.433142
38.332639 18.603922 -28.967872
37.537232 19.688712 -27.980345
38.248541 19.093331 -27.635986
38.15279 17.64702 -35.880436
38.309589 17.664603 -34.481338
38.966667 17.438778 -35.701206
37.312885 17.632645 -35.967517
38.15279 17.64702 -35.880436
40.690113 8.707975 -13.796752
40.483801 10.184051 -14.299282
40.338814 7.520131 -11.869174
39.866745 7.953735 -10.456346
40.89706 7.294634 -13.289551
40.338814 7.520131 -11.869174
41.075862 5.798127 -12.795089
41.427162 6.985971 -14.722668
40.690113 8.707975 -13.796752
40.89706 7.294634 -13.289551
40.948322 1.591434 -9.897391
40.33034 3.330754 -9.015349
40.455668 1.878475 -8.521362
45.900374 1.486642 -18.805985
45.680435 2.744982 -19.423187
44.903281 2.1245 -18.113745
45.900374 1.486642 -18.805985
46.135138 0.294942 -18.096649
46.309252 -0.957262 -17.441562
46.489744 -2.148573 -16.688188
40.229484 -12.999564 13.413459
40.26625 -11.282293 13.180141
40.600845 -11.401696 13.868105
41.054546 -16.455186 15.067031
41.058857 -14.835295 14.845398
40.741697 -17.816752 14.567521
41.054546 -16.455186 15.067031
40.609154 -19.123264 13.919865
40.485533 -17.636347 13.806883
40.741697 -17.816752 14.567521
40.640448 -20.255083 13.185381
40.609154 -19.123264 13.919865
40.896612 -20.435488 13.946019
41.771101 -23.581106 12.271262
41.334646 -22.401947 12.303244
41.364361 -22.746467 13.179552
42.381715 -24.203432 11.311392
41.771101 -23.581106 12.271262
38.890165 18.3459 -27.217751
38.248541 19.093331 -27.635986
39.718271 17.291947 -28.23546
38.890165 18.3459 -27.217751
39.564487 17.629305 -26.829696
42.208089 15.512442 -31.481969
41.500795 16.173769 -31.887972
41.391471 15.872231 -30.384628
42.208089 15.512442 -31.481969
42.954102 14.917967 -31.012459
40.002779 13.00172 -15.317853
40.240305 11.571137 -14.801838
40.447872 12.512877 -16.738064
40.002779 13.00172 -15.317853
40.966454 12.28387 -18.189142
40.447872 12.512877 -16.738064
41.251805 10.944479 -17.686058
41.424332 11.952936 -19.635187
40.620399 13.521334 -18.687193
40.966454 12.28387 -18.189142
45.130927 5.168611 -20.676749
44.418925 4.629802 -19.31534
45.395344 3.921651 -20.092356
44.796162 6.317694 -21.307755
45.130927 5.168611 -20.676749
45.772582 5.609543 -22.08477
46.031682 7.443669 -24.114912
46.451737 6.399468 -23.428762
45.050991 7.868771 -23.30892
46.031682 7.443669 -24.114912
45.644855 8.553814 -24.708056
43.686394 12.530556 -27.005003
43.274521 12.093895 -25.525219
44.189819 11.534614 -26.490665
44.005428 12.825718 -28.503009
43.09013 13.384999 -27.537563
43.686394 12.530556 -27.005003
44.303411 13.453541 -29.988352
44.005428 12.825718 -28.503009
43.609301 14.152596 -30.540933
44.303411 13.453541 -29.988352
39.068901 -2.927913 -0.030939
39.242457 -3.015588 -1.123374
39.265534 -4.590255 0.057542
39.068901 -2.927913 -0.030939
38.907409 -2.980819 1.01702
38.648696 -3.034005 4.131639
38.683844 -3.021331 3.123677
38.804974 -4.875808 4.219999
38.648696 -3.034005 4.131639
38.585369 -3.120961 5.149805
38.775715 -3.347279 7.901927
38.637537 -3.268226 7.051312
38.847582 -5.262951 8.054045
38.775715 -3.347279 7.901927
38.86838 -3.452282 8.790778
39.208798 -7.286241 9.855914
39.015953 -7.176432 9.058435
39.133091 -5.477764 9.740375
39.350572 -7.408456 10.70328
39.233435 -9.107124 10.021339
39.208798 -7.286241 9.855914
39.654103 -7.521698 11.395251
39.350572 -7.408456 10.70328
39.908905 -7.637466 12.143204
39.630013 -9.345106 11.616658
39.654103 -7.521698 11.395251
40.328859 -7.754146 12.718319
39.908905 -7.637466 12.143204
40.261213 -9.57265 12.999698
40.328859 -7.754146 12.718319
39.563751 2.461654 -5.855772
39.962982 2.106872 -7.191992
39.701046 0.880844 -5.464592
39.563751 2.461654 -5.855772
39.804126 -0.535094 -5.037452
40.191361 -0.819989 -6.317525
39.701046 0.880844 -5.464592
39.441349 -0.322167 -3.84935
39.156239 -0.052099 -2.631856
39.931663 -2.023001 -4.702283
39.804126 -0.535094 -5.037452
39.441349 -0.322167 -3.84935
43.99888 -13.76147 -4.707992
44.230576 -13.1564 -5.755251
43.256891 -13.067066 -4.625831
43.719475 -14.42361 -3.613702
42.752409 -14.183407 -2.477689
43.446688 -14.93488 -2.512819
43.99888 -13.76147 -4.707992
43.719475 -14.42361 -3.613702
41.645966 -21.035417 8.519997
41.428423 -21.452838 9.526834
42.168452 -22.053027 8.493443
41.816759 -20.706548 7.499035
41.07673 -20.106359 8.532426
41.645966 -21.035417 8.519997
42.121218 -20.255018 6.444145
41.816759 -20.706548 7.499035
42.377402 -19.892508 5.371613
41.503708 -19.414981 6.438932
42.121218 -20.255018 6.444145
42.740603 -19.403345 4.279675
42.377402 -19.892508 5.371613
43.054663 -19.001211 3.169966
42.073952 -18.650337 4.256691
42.740603 -19.403345 4.279675
43.447738 -18.467806 2.051912
43.054663 -19.001211 3.169966
36.863083 20.309948 -28.379047
37.537232 19.688712 -27.980345
36.863083 20.309948 -28.379047
36.889072 19.66428 -29.6115
36.12959 19.568493 -31.144804
36.903597 19.288864 -30.9525
36.876372 18.7281 -32.186534
36.12959 19.568493 -31.144804
35.391924 19.899574 -31.397165
44.982336 -7.920095 -11.27255
44.079443 -8.249586 -10.124538
44.948032 -8.941132 -10.494266
44.982166 -6.829471 -12.09075
44.982336 -7.920095 -11.27255
3 0 29 27
3 1 32 30
3 115 35 116
3 117 38 118
3 119 118 36
3 117 118 119
3 121 120 38
3 4 122 124
3 122 40 123
3 122 123 124
3 4 42 40
3 2 45 43
3 5 48 46
3 6 125 127
3 127 126 49
3 125 126 127
3 6 128 129
3 3 53 51
3 130 56 131
3 132 131 54
3 130 131 132
3 134 133 56
3 136 135 57
3 7 61 59
3 9 62 28
3 9 63 62
3 137 64 138
3 10 67 65
3 12 68 31
3 12 69 68
3 140 139 70
3 13 74 72
3 141 75 142
3 143 142 33
3 141 142 143
3 145 144 75
3 16 76 34
3 16 77 76
3 8 78 60
3 17 79 37
3 17 80 79
3 17 146 148
3 148 147 80
3 146 147 148
3 149 83 150
3 151 150 81
3 149 150 151
3 19 84 39
3 19 85 84
3 152 86 153
3 155 154 86
3 20 156 157
3 20 158 159
3 20 160 162
3 160 87 161
3 160 161 162
3 21 88 41
3 21 163 165
3 165 164 88
3 163 164 165
3 15 166 168
3 166 89 167
3 166 167 168
3 22 90 44
3 22 91 90
3 169 92 170
3 171 93 172
3 173 94 174
3 175 174 93
3 173 174 175
3 177 176 94
3 178 97 179
3 180 179 95
3 178 179 180
3 181 98 182
3 183 99 184
3 185 184 98
3 183 184 185
3 186 100 187
3 188 101 189
3 190 189 100
3 188 189 190
3 191 102 192
3 194 193 102
3 195 103 196
3 197 95 198
3 199 198 103
3 197 198 199
3 23 105 96
3 25 106 47
3 25 107 106
3 11 108 66
3 200 109 201
3 202 201 50
3 200 201 202
3 204 203 109
3 18 110 82
3 26 111 52
3 26 112 111
3 206 205 71
3 14 207 209
3 209 208 73
3 207 208 209
3 211 210 55
3 24 113 104
3 212 114 213
3 214 213 58
3 212 213 214
3 216 215 114
3 27 28 7
3 29 28 27
3 29 9 28
3 30 31 10
3 32 31 30
3 32 12 31
3 217 33 218
3 219 218 13
3 217 218 219
3 220 33 221
3 223 222 33
3 224 34 225
3 35 226 228
3 226 34 227
3 226 227 228
3 35 16 34
3 36 37 8
3 38 37 36
3 38 17 37
3 38 229 231
3 231 230 17
3 229 230 231
3 233 232 38
3 234 39 235
3 236 39 237
3 238 19 239
3 240 239 39
3 238 239 240
3 40 241 242
3 40 243 245
3 243 20 244
3 243 244 245
3 40 41 20
3 42 41 40
3 42 21 41
3 43 44 15
3 45 44 43
3 45 22 44
3 46 47 23
3 48 47 46
3 48 25 47
3 49 50 11
3 246 50 247
3 248 247 49
3 246 247 248
3 250 249 50
3 51 52 18
3 53 52 51
3 53 26 52
3 54 55 14
3 56 55 54
3 56 251 253
3 253 252 55
3 251 252 253
3 56 254 255
3 257 256 56
3 57 58 24
3 258 58 259
3 260 259 57
3 258 259 260
3 262 261 58
3 59 263 265
3 263 60 264
3 263 264 265
3 61 60 59
3 61 8 60
3 28 61 7
3 62 61 28
3 62 8 61
3 62 36 8
3 63 36 62
3 63 266 268
3 268 267 36
3 266 267 268
3 64 269 270
3 64 271 273
3 271 4 272
3 271 272 273
3 275 274 2
3 65 66 5
3 67 66 65
3 67 11 66
3 31 67 10
3 68 67 31
3 68 11 67
3 68 49 11
3 69 49 68
3 69 6 49
3 70 71 3
3 276 71 277
3 278 277 70
3 276 277 278
3 280 279 71
3 72 281 283
3 281 73 282
3 281 282 283
3 74 73 72
3 74 14 73
3 33 74 13
3 75 74 33
3 75 14 74
3 75 54 14
3 284 54 285
3 286 285 75
3 284 285 286
3 288 287 54
3 289 15 290
3 34 291 292
3 76 293 295
3 295 294 34
3 293 294 295
3 76 296 298
3 296 15 297
3 296 297 298
3 76 43 15
3 77 43 76
3 77 2 43
3 60 299 301
3 299 35 300
3 299 300 301
3 78 35 60
3 78 16 35
3 37 78 8
3 79 78 37
3 79 16 78
3 79 77 16
3 80 77 79
3 80 2 77
3 80 302 304
3 304 303 2
3 302 303 304
3 306 305 80
3 308 307 17
3 81 82 1
3 83 82 81
3 83 18 82
3 39 309 311
3 309 83 310
3 309 310 311
3 84 83 39
3 84 18 83
3 84 51 18
3 85 51 84
3 85 3 51
3 312 19 313
3 314 19 315
3 316 85 317
3 318 317 19
3 316 317 318
3 86 319 321
3 319 85 320
3 319 320 321
3 86 3 85
3 86 70 3
3 322 70 323
3 324 323 86
3 322 323 324
3 326 325 70
3 327 72 328
3 87 329 331
3 329 72 330
3 329 330 331
3 87 13 72
3 41 87 20
3 88 87 41
3 88 13 87
3 88 332 334
3 334 333 13
3 332 333 334
3 336 335 88
3 89 337 338
3 89 339 340
3 44 89 15
3 90 89 44
3 90 341 343
3 343 342 89
3 341 342 343
3 90 344 346
3 344 64 345
3 344 345 346
3 91 64 90
3 91 4 64
3 347 45 348
3 349 348 2
3 347 348 349
3 92 350 352
3 350 45 351
3 350 351 352
3 92 22 45
3 353 92 354
3 93 355 357
3 355 92 356
3 355 356 357
3 93 22 92
3 93 91 22
3 94 91 93
3 94 4 91
3 94 42 4
3 358 42 359
3 360 359 94
3 358 359 360
3 361 21 362
3 363 362 42
3 361 362 363
3 364 21 365
3 367 366 21
3 95 96 0
3 97 96 95
3 97 23 96
3 368 97 369
3 98 370 372
3 370 97 371
3 370 371 372
3 98 23 97
3 98 46 23
3 99 46 98
3 99 5 46
3 373 99 374
3 100 375 377
3 375 99 376
3 375 376 377
3 100 5 99
3 100 65 5
3 101 65 100
3 101 10 65
3 378 101 379
3 102 380 382
3 380 101 381
3 380 381 382
3 102 10 101
3 102 30 10
3 383 30 384
3 385 384 102
3 383 384 385
3 386 1 387
3 388 387 30
3 386 387 388
3 389 1 390
3 391 81 392
3 393 392 1
3 391 392 393
3 394 81 395
3 397 396 81
3 398 59 399
3 400 59 401
3 402 7 403
3 404 403 59
3 402 403 404
3 103 405 406
3 103 407 409
3 407 7 408
3 407 408 409
3 103 27 7
3 95 27 103
3 95 0 27
3 96 104 0
3 105 104 96
3 105 24 104
3 47 105 23
3 106 105 47
3 106 24 105
3 106 57 24
3 107 57 106
3 107 410 412
3 412 411 57
3 410 411 412
3 66 48 5
3 108 48 66
3 108 25 48
3 50 108 11
3 109 108 50
3 109 25 108
3 109 107 25
3 413 107 414
3 415 414 109
3 413 414 415
3 417 416 107
3 82 32 1
3 110 32 82
3 110 12 32
3 52 110 18
3 111 110 52
3 111 12 110
3 111 69 12
3 112 69 111
3 112 6 69
3 71 53 3
3 418 53 419
3 420 419 71
3 418 419 420
3 421 26 422
3 423 422 53
3 421 422 423
3 424 26 425
3 426 112 427
3 428 427 26
3 426 427 428
3 429 112 430
3 431 6 432
3 433 432 112
3 431 432 433
3 435 434 6
3 73 436 437
3 439 438 73
3 55 440 442
3 442 441 14
3 440 441 442
3 444 443 55
3 104 29 0
3 113 29 104
3 113 9 29
3 58 113 24
3 114 113 58
3 114 9 113
3 114 63 9
3 445 63 446
3 447 446 114
3 445 446 447
3 449 448 63
