ply
format ascii 1.0
element vertex 226
property float x
property float y
property float z
element face 180
property list uchar int vertex_index
end_header
4.95668 26.397987 -21.151928
-2.257914 19.18018 -28.632885
6.265396 22.715164 -16.840439
0.845982 26.91135 -29.468475
2.56995 23.08213 -27.004913
4.092785 19.135284 -23.618511
-5.013493 22.362289 -29.237339
6.80526 27.960663 -13.653847
4.354954 28.369465 -23.37273
3.956284 24.823658 -24.505772
4.612675 22.87257 -22.470055
-1.742285 24.777267 -29.688919
-3.076263 26.311123 -30.062462
-3.583618 20.862389 -28.983982
1.513535 19.258785 -27.330284
7.125225 29.973038 -11.795977
5.603695 24.495125 -18.947041
5.293842 21.01767 -20.377689
-0.543606 23.063526 -29.1353
-8.755299 19.728558 -28.695126
2.652588 28.768044 -28.111641
3.314564 26.806938 -26.411194
3.338104 21.094456 -25.402695
-4.542412 27.630928 -30.317356
-6.539042 23.652767 -29.452209
1.753889 25.038158 -28.372429
0.5327 21.209332 -28.355816
-1.033306 17.349777 -28.126892
7.141708 23.522308 -13.492445
7.462593 25.335732 -11.795782
7.812565 27.005424 -9.858486
5.200676 29.630058 -19.670811
5.854202 27.606594 -17.412498
6.521866 25.592926 -15.319294
-3.278918 17.254888 -28.343117
-3.94177 18.095993 -28.518666
-2.920766 20.021285 -28.808433
6.124685 21.026003 -17.56884
5.793834 21.915984 -18.622141
5.934546 23.605145 -17.89374
0.325551 27.783632 -29.876162
0.95126 29.673389 -30.065357
0.151188 24.987438 -29.301887
-0.369244 25.85972 -29.709574
0.325551 27.783632 -29.876162
-9.96984 17.833081 -28.413599
-9.200162 17.194387 -28.272821
3.557228 28.584892 -25.968464
3.2885 29.571411 -26.96687
3.705498 17.208976 -24.101436
3.328157 18.188562 -24.993529
3.715445 20.11487 -24.510603
5.07179 19.147098 -21.043562
5.448372 18.310734 -20.05347
-6.109451 20.407716 -28.853115
-6.872225 21.052956 -28.96055
-5.776268 23.007528 -29.344774
0.319052 18.31033 -27.889606
1.023118 20.234058 -27.84305
0.80947 17.335056 -27.376841
-0.463951 16.380552 -27.775145
-0.250303 19.279554 -28.241354
0.319052 18.31033 -27.889606
7.636219 29.388433 -9.802611
7.468895 28.489231 -10.827231
7.292549 30.87224 -10.771357
7.984165 27.797638 -8.79277
7.636219 29.388433 -9.802611
5.304535 31.07497 -18.848099
4.989382 32.145216 -20.047396
5.631298 30.063238 -17.718942
5.527439 28.618326 -18.541654
5.304535 31.07497 -18.848099
6.663563 26.776795 -14.48657
6.312016 27.94977 -15.532822
6.453712 29.133638 -14.700098
6.455707 20.324869 -16.56749
6.575067 21.923723 -15.888052
1.382238 28.78523 -29.505384
0.95126 29.673389 -30.065357
4.155619 26.596561 -23.939251
3.878088 27.593252 -25.015753
4.077423 29.366156 -24.449232
-2.409274 25.544195 -29.87569
-2.236121 28.269996 -30.452534
-1.569132 27.503068 -30.265763
-4.650311 18.921326 -28.627482
-5.365249 19.671276 -28.75416
-4.298555 21.612339 -29.110661
-4.650311 18.921326 -28.627482
-3.94177 18.095993 -28.518666
1.972884 18.260809 -26.697496
2.041742 21.170457 -27.167598
2.501091 20.172481 -26.534811
1.347301 16.335735 -26.91506
1.972884 18.260809 -26.697496
0.80947 17.335056 -27.376841
1.347301 16.335735 -26.91506
6.750838 31.302489 -12.856989
6.965243 28.96685 -12.724912
6.590855 30.296301 -13.785924
6.900639 32.318331 -11.854869
6.750838 31.302489 -12.856989
7.292549 30.87224 -10.771357
6.900639 32.318331 -11.854869
6.590855 30.296301 -13.785924
6.453712 29.133638 -14.700098
5.638908 20.177256 -19.337465
5.448768 22.756397 -19.662365
5.793834 21.915984 -18.622141
5.448372 18.310734 -20.05347
5.638908 20.177256 -19.337465
6.124685 21.026003 -17.56884
6.455707 20.324869 -16.56749
-0.968583 26.71659 -29.986383
-1.569132 27.503068 -30.265763
-1.142946 23.920396 -29.412109
-0.968583 26.71659 -29.986383
-0.369244 25.85972 -29.709574
-9.554831 20.26301 -28.835951
-8.450142 22.222771 -29.184999
-9.554831 20.26301 -28.835951
-9.96984 17.833081 -28.413599
2.957512 30.551964 -27.817093
2.670523 31.508328 -28.694502
2.983576 27.787491 -27.261418
2.957512 30.551964 -27.817093
3.2885 29.571411 -26.96687
3.635424 25.815298 -25.458483
3.557228 28.584892 -25.968464
3.878088 27.593252 -25.015753
2.885168 19.178645 -25.733702
2.501091 20.172481 -26.534811
2.954027 22.088293 -26.203804
2.885168 19.178645 -25.733702
3.328157 18.188562 -24.993529
4.731207 20.074548 -22.089745
4.953259 21.94512 -21.423872
5.07179 19.147098 -21.043562
4.471262 18.205906 -22.663973
4.35273 21.003927 -23.044283
4.731207 20.074548 -22.089745
4.140234 16.263805 -23.271286
4.471262 18.205906 -22.663973
3.705498 17.208976 -24.101436
4.140234 16.263805 -23.271286
-2.920627 28.950678 -30.629793
-2.236121 28.269996 -30.452534
-3.653701 29.610581 -30.75724
-2.920627 28.950678 -30.629793
-3.809337 26.971025 -30.189909
-4.416754 30.168762 -30.865175
-3.653701 29.610581 -30.75724
-5.333828 28.171177 -30.415669
-4.416754 30.168762 -30.865175
-6.332143 26.182097 -29.983095
-5.333828 28.171177 -30.415669
-5.540727 25.641848 -29.884783
-7.342014 24.184876 -29.563541
-6.332143 26.182097 -29.983095
-7.647171 21.690663 -29.073667
-8.450142 22.222771 -29.184999
-7.342014 24.184876 -29.563541
-7.980354 19.090851 -28.582009
-7.647171 21.690663 -29.073667
-6.872225 21.052956 -28.96055
-9.200162 17.194387 -28.272821
-7.980354 19.090851 -28.582009
-6.109451 20.407716 -28.853115
-5.365249 19.671276 -28.75416
2.285541 29.713577 -28.826967
2.670523 31.508328 -28.694502
1.836191 27.848634 -28.957361
2.285541 29.713577 -28.826967
2.203239 26.903101 -28.242035
1.299936 25.974754 -28.920452
1.382238 28.78523 -29.505384
1.836191 27.848634 -28.957361
-1.357017 14.481078 -27.728396
-0.463951 16.380552 -27.775145
-1.995022 15.439284 -27.942538
-1.357017 14.481078 -27.728396
-2.607327 16.354485 -28.195534
-1.64561 18.264978 -28.379888
-1.995022 15.439284 -27.942538
-3.278918 17.254888 -28.343117
-2.607327 16.354485 -28.195534
7.407499 22.240833 -12.751781
7.250437 21.71855 -13.476739
7.567941 23.147545 -11.90345
7.407499 22.240833 -12.751781
7.30215 24.42902 -12.644113
7.749256 23.806466 -10.978712
7.567941 23.147545 -11.90345
7.924242 24.641312 -10.010064
7.749256 23.806466 -10.978712
7.637579 26.170578 -10.827134
8.103812 25.351309 -8.973772
7.924242 24.641312 -10.010064
8.103812 25.351309 -8.973772
7.984165 27.797638 -8.79277
4.221483 31.030054 -23.856974
4.077423 29.366156 -24.449232
4.480605 30.016517 -22.690734
4.221483 31.030054 -23.856974
4.781467 29.030779 -21.580334
4.655817 27.383726 -22.262329
4.480605 30.016517 -22.690734
4.903465 30.646814 -20.839775
4.989382 32.145216 -20.047396
5.078678 28.014022 -20.411369
4.781467 29.030779 -21.580334
4.903465 30.646814 -20.839775
5.978184 28.956604 -16.579424
5.631298 30.063238 -17.718942
6.188034 26.59976 -16.365896
5.978184 28.956604 -16.579424
6.312016 27.94977 -15.532822
6.703302 23.362604 -15.127479
6.575067 21.923723 -15.888052
6.393631 24.154045 -16.079867
7.013224 22.327295 -14.214055
6.703302 23.362604 -15.127479
6.831787 24.557617 -14.405869
7.250437 21.71855 -13.476739
7.013224 22.327295 -14.214055
3 0 10 8
3 1 13 11
3 1 34 36
3 36 35 13
3 34 35 36
3 2 37 39
3 39 38 16
3 37 38 39
3 3 40 41
3 3 42 44
3 42 18 43
3 42 43 44
3 46 45 19
3 47 21 48
3 5 22 9
3 5 49 51
3 51 50 22
3 49 50 51
3 53 52 17
3 6 23 12
3 6 24 23
3 6 54 56
3 56 55 24
3 54 55 56
3 4 25 20
3 57 26 58
3 59 58 14
3 57 58 59
3 60 27 61
3 62 61 26
3 60 61 62
3 7 29 28
3 63 30 64
3 65 64 15
3 63 64 65
3 67 66 30
3 68 31 69
3 70 32 71
3 72 71 31
3 70 71 72
3 7 73 75
3 73 33 74
3 73 74 75
3 7 28 33
3 77 76 2
3 78 3 79
3 8 80 82
3 80 9 81
3 80 81 82
3 10 9 8
3 10 5 9
3 11 83 85
3 83 12 84
3 83 84 85
3 13 12 11
3 13 6 12
3 13 86 88
3 88 87 6
3 86 87 88
3 90 89 13
3 91 14 92
3 93 92 4
3 91 92 93
3 94 14 95
3 97 96 14
3 98 15 99
3 100 99 7
3 98 99 100
3 101 15 102
3 104 103 15
3 105 7 106
3 16 17 0
3 107 17 108
3 109 108 16
3 107 108 109
3 111 110 17
3 113 112 2
3 114 11 115
3 18 116 118
3 116 11 117
3 116 117 118
3 18 1 11
3 19 119 120
3 122 121 19
3 123 20 124
3 21 125 127
3 125 20 126
3 125 126 127
3 21 4 20
3 9 128 130
3 128 21 129
3 128 129 130
3 22 21 9
3 22 4 21
3 22 131 133
3 133 132 4
3 131 132 133
3 135 134 22
3 17 10 0
3 136 10 137
3 138 137 17
3 136 137 138
3 139 5 140
3 141 140 10
3 139 140 141
3 142 5 143
3 145 144 5
3 12 146 147
3 23 148 150
3 150 149 12
3 148 149 150
3 23 151 152
3 23 153 154
3 24 155 157
3 157 156 23
3 155 156 157
3 24 158 159
3 24 160 162
3 160 19 161
3 160 161 162
3 163 19 164
3 165 164 24
3 163 164 165
3 167 166 19
3 169 168 6
3 20 170 171
3 25 172 174
3 174 173 20
3 172 173 174
3 25 175 177
3 175 3 176
3 175 176 177
3 14 25 4
3 26 25 14
3 26 3 25
3 26 18 3
3 27 18 26
3 27 1 18
3 178 27 179
3 180 27 181
3 182 1 183
3 184 183 27
3 182 183 184
3 186 185 1
3 28 187 188
3 29 189 191
3 191 190 28
3 189 190 191
3 29 192 193
3 15 29 7
3 30 29 15
3 30 194 196
3 196 195 29
3 194 195 196
3 30 197 198
3 200 199 30
3 201 8 202
3 203 8 204
3 205 0 206
3 207 206 8
3 205 206 207
3 31 208 209
3 31 210 212
3 210 0 211
3 210 211 212
3 31 16 0
3 32 16 31
3 32 2 16
3 213 32 214
3 33 215 217
3 215 32 216
3 215 216 217
3 33 2 32
3 33 218 220
3 220 219 2
3 218 219 220
3 28 221 223
3 223 222 33
3 221 222 223
3 28 224 225
