ply
format ascii 1.0
element vertex 596
property float x
property float y
property float z
element face 594
property list uchar int vertex_index
end_header
-37.245678 -111.40596 -7.303373
-39.227745 -104.517731 -20.471245
-49.876518 -90.152222 -5.922316
-27.066185 -116.647919 7.003837
-28.226177 -119.360275 -11.564283
-27.921629 -117.88504 -19.970753
-38.383682 -110.252457 -14.514956
-44.519089 -102.341888 -6.280317
-46.25526 -96.898849 -13.468378
-47.07209 -88.847717 -18.941364
-33.369247 -115.043015 -9.462986
-33.306656 -115.458725 -13.833199
-37.738178 -111.342117 -10.683641
-33.90892 -111.722214 -20.811638
-34.071095 -107.922363 -22.698399
-39.325001 -100.139297 -22.292507
-23.342213 -120.497604 2.388636
-28.892775 -116.114014 2.6725
-47.323154 -96.32222 -5.880501
-48.350227 -93.348907 -9.689226
-50.152321 -85.998672 -16.104721
-47.291183 -83.672485 -21.511875
-22.618553 -123.249863 -12.883871
-27.92186 -119.472504 -16.220509
-33.619415 -114.31813 -17.789303
-38.936657 -107.937851 -17.90097
-51.393353 -86.96434 -9.78533
-39.187763 -108.733948 -3.491049
-40.910721 -107.611206 -6.901716
-43.283192 -104.045288 -2.430103
-46.358521 -98.722382 -1.80233
-48.630455 -92.985443 -1.733433
-48.225975 -92.147049 7.05451
-49.448532 -89.952896 2.345874
-36.755291 -110.016495 -0.033364
-34.479118 -113.08139 -4.947506
-23.776619 -122.083832 -7.68351
-29.276161 -117.637756 -6.558498
-41.971733 -106.1828 -10.585917
-42.768929 -103.894913 -14.151756
-43.291107 -100.712555 -17.186558
-49.371262 -89.920197 -13.074297
-46.796982 -93.210663 -16.375093
-43.496815 -96.714951 -19.612328
-43.570206 -91.882935 -21.696682
-35.572151 -113.027771 -8.307093
-35.533508 -113.372574 -10.291803
-37.456135 -111.468369 -8.83049
-36.69223 -108.225204 -20.749702
-34.000351 -109.956696 -21.889599
-36.773708 -106.294418 -21.756489
-36.831028 -104.118454 -22.554985
-39.286163 -102.4431 -21.455284
-22.371172 -120.526962 4.870198
-25.148197 -118.624146 4.730924
-26.119129 -118.384705 2.418043
-27.913231 -116.526947 4.839754
-48.573486 -93.217285 -5.843489
-47.824348 -94.898315 -7.831465
-49.168549 -91.70546 -7.806408
-25.454006 -121.412231 -12.349493
-25.180611 -121.535995 -14.774675
-28.010664 -119.631912 -13.966883
-35.892296 -113.01886 -14.347952
-33.447525 -115.081894 -15.898355
-36.141113 -112.313553 -16.258785
-36.374043 -111.263077 -17.992622
-38.686157 -109.244492 -16.296293
-24.92651 -120.470718 -18.937511
-47.062576 -96.992722 0.443138
-48.112793 -94.222153 0.448888
-49.650322 -88.535294 4.35299
-50.172607 -88.683121 0.077624
-18.944267 -123.983185 0.169012
-20.98827 -124.014664 -7.934111
-31.93292 -115.331009 -5.777937
-42.81221 -105.10405 -6.587679
-41.486614 -106.985565 -8.725439
-43.353588 -104.232086 -8.467518
-44.241844 -101.901001 -12.124834
-44.605633 -100.435608 -13.807232
-43.071022 -102.409134 -15.749834
-44.900166 -98.785141 -15.350063
-52.152725 -85.247513 -11.586397
-50.440536 -88.399063 -11.435965
-51.032887 -86.600235 -13.108406
-48.659538 -87.390015 -17.512241
-48.44511 -89.541061 -16.141026
-46.957977 -91.122345 -17.680016
-45.248032 -94.951096 -18.022816
-45.325981 -92.755142 -19.210308
-43.531784 -94.407593 -20.672905
-45.382095 -90.354828 -20.359074
-30.885925 -117.198853 -10.580093
-30.722105 -117.567062 -12.91221
-33.254765 -115.443954 -11.66716
-35.670628 -113.369751 -12.331533
-38.057331 -110.949142 -12.616816
-30.951498 -114.956879 -20.576096
-31.026506 -113.378937 -21.776779
-34.148895 -105.641846 -23.289608
-36.896744 -101.709213 -23.201843
-27.269289 -117.871307 0.145988
-30.047836 -115.497986 0.554816
-46.005699 -99.390366 -6.032263
-45.010887 -101.245804 -8.194599
-46.475204 -98.106216 -7.968508
-46.939354 -96.664551 -9.826029
-47.391869 -95.081818 -11.576647
-50.43755 -83.795654 -17.575947
-48.832497 -85.050049 -18.878941
-47.173286 -86.368134 -20.205914
-22.287107 -123.188171 -15.287437
-25.019669 -121.218491 -16.998829
-27.905663 -118.882965 -18.246193
-30.704016 -117.523605 -15.147633
-30.766956 -117.06279 -17.216572
-30.860504 -116.197525 -19.045753
-33.780952 -113.187698 -19.441238
-36.561699 -109.890549 -19.497646
-39.117401 -106.354782 -19.29438
-50.616859 -88.596893 -7.899054
-38.107407 -110.245255 -5.639561
-38.943054 -109.782227 -7.161036
-42.156029 -105.827499 -4.732964
-43.956535 -103.264664 -4.350519
-44.957893 -101.45845 -2.050457
-45.512276 -100.506149 -4.05024
-46.844139 -97.601273 -3.861996
-48.036713 -94.61525 -3.800287
-49.211121 -91.621689 -3.862329
-48.811974 -91.108231 4.671189
-48.538292 -92.633621 2.573069
-49.104282 -91.432556 0.316277
-49.745987 -90.111237 -1.887989
-31.653969 -113.75975 3.131455
-34.114189 -112.365875 -0.77449
-35.511154 -111.628311 -2.546881
-36.894848 -110.905548 -4.164789
-36.013878 -112.202835 -6.320473
-20.285477 -124.612442 -10.583506
-23.099398 -122.872528 -10.321081
-25.892433 -120.861069 -9.80621
-26.547127 -119.922836 -7.211908
-28.629427 -118.680252 -9.08025
-31.268963 -116.440323 -8.198055
-33.75367 -114.250397 -7.237442
-39.472527 -109.428497 -8.885834
-39.918404 -108.930252 -10.738447
-40.325676 -108.195175 -12.610954
-43.823547 -103.168701 -10.3302
-42.398312 -105.155884 -12.415257
-40.69397 -107.192108 -14.418324
-41.006889 -105.921432 -16.095854
-41.246174 -104.398163 -17.601406
-41.403378 -102.639954 -18.919464
-49.804192 -90.097519 -9.672291
-48.877754 -91.688766 -11.437115
-47.808807 -93.3694 -13.205959
-49.800125 -88.031158 -14.618708
-48.164154 -91.526886 -14.719032
-46.564671 -95.131897 -14.981882
-45.113365 -96.957535 -16.748829
-43.427467 -98.814316 -18.464962
-41.487617 -100.659058 -20.062416
-41.525909 -98.459702 -21.066402
-41.555149 -96.039764 -21.981678
-41.608982 -93.395737 -22.860226
-45.451515 -87.737854 -21.514847
-26.107191 -117.636032 5.86738
-24.727154 -118.569221 5.880416
-25.686149 -117.581108 7.016872
-26.396262 -118.603844 -20.246305
-24.898702 -119.896682 -19.729685
-26.42407 -119.177879 -19.454132
-47.33913 -96.156662 1.557705
-46.802456 -97.478088 1.526611
-47.864239 -94.771377 1.560581
-47.587685 -95.607438 0.446013
-47.33913 -96.156662 1.557705
-18.926414 -124.48397 -2.499214
-18.245504 -124.640084 -1.10623
-19.625177 -123.827072 -1.223973
-45.430447 -98.667228 -13.637805
-45.243376 -99.474564 -12.814965
-46.06819 -97.706184 -12.645539
-51.939718 -85.012764 -13.215296
-51.592806 -85.923874 -12.347402
-52.499637 -84.336403 -12.454292
-32.581522 -109.712494 -22.675819
-32.546149 -110.72966 -22.27142
-34.035723 -108.939529 -22.293999
-32.620228 -108.641471 -22.972324
-32.581522 -109.712494 -22.675819
-34.109995 -106.782105 -22.994003
-32.659128 -107.501213 -23.267929
-32.620228 -108.641471 -22.972324
-39.352026 -98.874061 -22.665983
-38.137897 -99.659019 -23.120651
-38.110872 -100.924255 -22.747175
-21.953589 -121.434616 2.489585
-21.468068 -121.449295 3.730366
-22.856693 -120.512283 3.629417
-22.527985 -121.350571 1.164905
-21.953589 -121.434616 2.489585
-23.916044 -120.316795 1.162207
-22.527985 -121.350571 1.164905
-50.558768 -82.59695 -18.325659
-51.388197 -82.073563 -17.738064
-49.756241 -83.224148 -18.977156
-49.635024 -84.422852 -18.227444
-50.558768 -82.59695 -18.325659
-48.913507 -83.77652 -19.580849
-49.756241 -83.224148 -18.977156
-22.45283 -123.219017 -14.085654
-21.026601 -123.985336 -14.207217
-21.192324 -124.016182 -13.005434
-39.677019 -108.44722 -4.3274
-39.136841 -109.202874 -5.401656
-38.647585 -109.489601 -4.565305
-42.719611 -104.936394 -3.581533
-41.747785 -106.14701 -3.824942
-42.311367 -105.255905 -2.673512
-45.658207 -100.090416 -1.926394
-45.390905 -100.573654 -0.886108
-46.091219 -99.20562 -0.762044
-48.333584 -93.800347 -2.76686
-47.791134 -95.246689 -2.749258
-48.088005 -94.431786 -1.715831
-47.846276 -93.405327 7.139801
-47.941719 -92.615959 8.274944
-48.115862 -92.927002 5.96582
-47.846276 -93.405327 7.139801
-50.378559 -88.712746 -2.010576
-49.959297 -89.397179 -0.905183
-50.591869 -87.998688 -1.02777
-50.118213 -89.400132 -2.959761
-50.378559 -88.712746 -2.010576
-33.01551 -112.570183 3.443569
-32.509964 -112.881561 4.432733
-32.231687 -113.425315 2.130898
-33.01551 -112.570183 3.443569
-36.136656 -110.358101 0.895151
-37.435421 -109.179337 1.26928
-35.43474 -111.191185 -0.403927
-34.816105 -111.532791 0.524588
-36.136656 -110.358101 0.895151
-38.041305 -109.819748 -3.827919
-37.454363 -110.131447 -2.982984
-38.60082 -109.045647 -2.646113
-19.246241 -125.115356 -9.259151
-18.887076 -125.303292 -10.573274
-27.911644 -118.780296 -6.885203
-27.00144 -119.292214 -5.911052
-28.365957 -118.149674 -5.584347
-44.642894 -101.567879 -10.192671
-44.417217 -102.207253 -9.2624
-45.236565 -100.60643 -9.12487
-49.976223 -87.014915 -15.361715
-50.674771 -86.354805 -14.667808
-50.850869 -85.338562 -15.410815
-23.338642 -119.520629 5.950053
-21.949149 -120.347702 6.099134
-23.759684 -119.575554 4.800561
-23.338642 -119.520629 5.950053
-24.727154 -118.569221 5.880416
-23.412225 -121.118515 -19.097439
-23.492819 -121.57862 -18.188669
-23.412225 -121.118515 -19.097439
-24.898702 -119.896682 -19.729685
-40.263652 -107.600235 -3.203984
-39.771923 -107.905983 -2.303886
-42.878605 -104.387817 -1.476589
-42.311367 -105.255905 -2.673512
-46.443247 -98.34079 0.36069
-46.802456 -97.478088 1.526611
-46.710549 -97.857552 -0.679596
-46.091219 -99.20562 -0.762044
-46.443247 -98.34079 0.36069
-47.304066 -96.435425 -0.627545
-46.952038 -97.300255 -1.750279
-46.710549 -97.857552 -0.679596
-47.829174 -95.05014 -0.624671
-47.304066 -96.435425 -0.627545
-47.587685 -95.607438 0.446013
-48.371624 -93.603798 -0.642273
-48.088005 -94.431786 -1.715831
-47.829174 -95.05014 -0.624671
-48.252653 -91.388275 8.129682
-47.941719 -92.615959 8.274944
-50.142776 -87.28051 4.158749
-49.674711 -87.847237 5.34468
-50.062943 -87.931611 3.191644
-50.142776 -87.28051 4.158749
-49.962047 -88.640411 2.188085
-49.549427 -89.244095 3.349432
-50.062943 -87.931611 3.191644
-50.324085 -88.005524 1.053961
-49.810569 -89.318008 1.211749
-49.962047 -88.640411 2.188085
-50.798763 -87.352104 -0.077253
-50.324085 -88.005524 1.053961
-50.591869 -87.998688 -1.02777
-50.798763 -87.352104 -0.077253
-38.005056 -108.856797 0.335811
-37.435421 -109.179337 1.26928
-37.384585 -109.686921 -0.917271
-38.005056 -108.856797 0.335811
-39.771923 -107.905983 -2.303886
-38.60082 -109.045647 -2.646113
-17.569219 -124.686852 0.394593
-16.994602 -124.65831 1.820614
-18.36965 -123.954644 1.595033
-17.569219 -124.686852 0.394593
-18.245504 -124.640084 -1.10623
-20.063343 -124.422104 -6.597192
-19.597637 -124.816467 -7.934453
-21.45006 -123.520782 -6.597753
-20.063343 -124.422104 -6.597192
-20.525133 -123.928223 -5.260834
-22.844234 -122.555366 -6.472453
-22.382444 -123.049248 -7.80881
-21.45006 -123.520782 -6.597753
-29.737448 -116.969467 -5.287787
-28.365957 -118.149674 -5.584347
-31.065827 -115.816093 -4.897506
-30.60454 -116.484382 -6.168217
-29.737448 -116.969467 -5.287787
-32.413609 -114.635956 -4.542711
-31.065827 -115.816093 -4.897506
-33.686708 -113.511146 -4.127496
-33.206019 -114.206199 -5.362721
-32.413609 -114.635956 -4.542711
-45.061481 -100.20726 -11.973766
-44.852043 -100.934028 -11.089987
-44.423738 -101.168305 -12.966033
-45.061481 -100.20726 -11.973766
-45.243376 -99.474564 -12.814965
-46.423635 -84.286659 -22.111591
-47.365257 -82.217365 -22.196666
-29.449351 -115.735848 -20.959803
-27.934416 -117.199928 -20.657131
-29.436563 -116.42096 -20.273424
-29.486854 -114.946877 -21.560144
-29.449351 -115.735848 -20.959803
-30.989002 -114.167908 -21.176437
-29.503068 -114.096702 -22.06283
-29.486854 -114.946877 -21.560144
-31.059227 -112.440781 -22.21501
-32.513429 -111.667816 -21.833189
-32.546149 -110.72966 -22.27142
-29.503068 -114.096702 -22.06283
-31.059227 -112.440781 -22.21501
-32.717484 -106.308563 -23.455662
-32.659128 -107.501213 -23.267929
-34.205631 -104.385292 -23.509999
-32.717484 -106.308563 -23.455662
-35.579555 -102.418976 -23.466116
-34.205631 -104.385292 -23.509999
-35.522819 -103.67553 -23.245725
-36.947693 -100.390953 -23.480857
-35.579555 -102.418976 -23.466116
-36.947693 -100.390953 -23.480857
-38.137897 -99.659019 -23.120651
-20.980572 -121.346283 5.063106
-20.558549 -121.167023 6.292042
-21.949149 -120.347702 6.099134
-20.980572 -121.346283 5.063106
-21.468068 -121.449295 3.730366
-19.754615 -123.177407 1.379773
-18.36965 -123.954644 1.595033
-20.329012 -123.093361 0.055093
-19.754615 -123.177407 1.379773
-19.625177 -123.827072 -1.223973
-20.329012 -123.093361 0.055093
-25.304502 -119.260345 1.17691
-23.916044 -120.316795 1.162207
-24.730671 -119.441154 2.403339
-25.879582 -119.003647 0.040883
-25.304502 -119.260345 1.17691
-26.694209 -118.128006 1.282015
-26.562264 -118.688477 -1.137723
-25.879582 -119.003647 0.040883
-27.949625 -117.514648 -0.937533
-26.562264 -118.688477 -1.137723
-29.338898 -116.327988 -0.733119
-27.949625 -117.514648 -0.937533
-28.658563 -116.684646 0.350402
-30.719659 -115.127014 -0.450892
-29.338898 -116.327988 -0.733119
-45.968723 -99.036636 -9.011824
-45.236565 -100.60643 -9.12487
-45.743045 -99.67601 -8.081554
-46.200798 -98.315804 -9.940585
-45.968723 -99.036636 -9.011824
-46.707279 -97.385384 -8.897268
-46.410236 -97.589035 -10.824364
-46.200798 -98.315804 -9.940585
-46.636494 -96.797669 -11.699673
-46.410236 -97.589035 -10.824364
-47.165611 -95.873185 -10.701338
-46.823565 -95.990333 -12.522512
-46.06819 -97.706184 -12.645539
-46.636494 -96.797669 -11.699673
-51.066578 -84.301727 -16.202482
-50.850869 -85.338562 -15.410815
-51.209193 -83.200218 -16.938095
-51.388197 -82.073563 -17.738064
-50.294936 -84.897163 -16.840334
-51.066578 -84.301727 -16.202482
-51.209193 -83.200218 -16.938095
-48.083902 -84.435563 -20.244335
-48.002891 -85.709091 -19.542428
-48.913507 -83.77652 -19.580849
-48.14285 -83.087738 -20.897316
-47.232234 -85.020309 -20.858894
-48.083902 -84.435563 -20.244335
-48.229675 -81.707214 -21.631901
-48.14285 -83.087738 -20.897316
-47.365257 -82.217365 -22.196666
-48.229675 -81.707214 -21.631901
-20.836727 -123.850693 -15.378588
-19.576222 -124.647858 -14.298368
-21.026601 -123.985336 -14.207217
-22.173118 -122.937347 -16.363632
-20.836727 -123.850693 -15.378588
-23.539399 -121.952507 -17.219328
-22.173118 -122.937347 -16.363632
-23.653388 -122.203331 -16.143133
-24.97309 -120.844605 -17.96817
-23.492819 -121.57862 -18.188669
-23.539399 -121.952507 -17.219328
-26.681731 -116.521637 8.064335
-25.686149 -117.581108 7.016872
-50.976196 -87.89167 -7.001988
-50.246688 -89.374557 -6.910685
-50.606026 -88.669334 -6.01362
-51.431955 -87.105759 -8.000399
-50.976196 -87.89167 -7.001988
-51.820202 -86.289482 -8.943537
-51.005106 -87.780617 -8.842192
-51.431955 -87.105759 -8.000399
-52.281035 -85.466957 -9.904528
-51.820202 -86.289482 -8.943537
-52.66072 -84.608543 -10.805062
-51.773039 -86.105927 -10.685863
-52.281035 -85.466957 -9.904528
-53.096641 -83.739991 -11.735343
-52.66072 -84.608543 -10.805062
-53.604637 -83.101021 -10.954007
-52.499637 -84.336403 -12.454292
-53.096641 -83.739991 -11.735343
-26.396262 -118.603844 -20.246305
-27.934416 -117.199928 -20.657131
-39.554665 -108.97136 -6.162393
-38.52523 -110.013741 -6.400298
-39.136841 -109.202874 -5.401656
-40.538498 -107.885849 -6.032733
-39.926887 -108.696717 -7.031376
-39.554665 -108.97136 -6.162393
-39.677019 -108.44722 -4.3274
-40.263652 -107.600235 -3.203984
-41.161152 -106.993996 -4.948357
-41.747785 -106.14701 -3.824942
-41.533375 -106.719352 -5.81734
-40.538498 -107.885849 -6.032733
-41.161152 -106.993996 -4.948357
-43.794268 -103.158814 -1.239514
-42.878605 -104.387817 -1.476589
-44.631619 -101.865395 -1.049691
-45.390905 -100.573654 -0.886108
-44.120542 -102.751869 -2.24028
-43.794268 -103.158814 -1.239514
-44.631619 -101.865395 -1.049691
-47.194847 -96.7397 -2.780112
-46.60133 -98.161828 -2.832163
-46.952038 -97.300255 -1.750279
-47.440426 -96.108261 -3.831142
-47.194847 -96.7397 -2.780112
-47.791134 -95.246689 -2.749258
-48.576843 -90.890632 6.898625
-48.252653 -91.388275 8.129682
-49.289017 -89.084755 5.547865
-49.674711 -87.847237 5.34468
-48.869843 -90.371223 5.706964
-49.289017 -89.084755 5.547865
-49.231148 -89.821763 4.51209
-48.518974 -91.62764 5.862849
-48.576843 -90.890632 6.898625
-48.869843 -90.371223 5.706964
-48.408862 -92.407593 4.77416
-48.115862 -92.927002 5.96582
-48.518974 -91.62764 5.862849
-48.27202 -93.170288 3.7251
-48.408862 -92.407593 4.77416
-48.675133 -91.870926 3.622129
-48.076988 -93.977112 2.622671
-48.27202 -93.170288 3.7251
-48.325542 -93.427887 1.510979
-47.864239 -94.771377 1.560581
-48.076988 -93.977112 2.622671
-49.85078 -90.155358 -3.946931
-49.478554 -90.866463 -2.875159
-50.118213 -89.400132 -2.959761
-50.183479 -89.420624 -4.976925
-49.543819 -90.886955 -4.892323
-49.85078 -90.155358 -3.946931
-50.606026 -88.669334 -6.01362
-50.183479 -89.420624 -4.976925
-28.039782 -115.635872 8.136043
-26.681731 -116.521637 8.064335
-28.430571 -115.634819 7.123575
-28.039782 -115.635872 8.136043
-28.854095 -115.574333 6.041534
-27.489708 -116.587433 5.921795
-28.430571 -115.634819 7.123575
-29.285838 -115.414017 5.012129
-28.854095 -115.574333 6.041534
-29.77561 -115.20755 3.928502
-28.403003 -116.320481 3.756127
-29.285838 -115.414017 5.012129
-31.156207 -114.030418 4.157979
-32.509964 -112.881561 4.432733
-30.273372 -114.936882 2.901978
-29.77561 -115.20755 3.928502
-31.156207 -114.030418 4.157979
-31.428621 -114.294433 0.842579
-30.850903 -114.628868 1.843135
-32.231687 -113.425315 2.130898
-30.719659 -115.127014 -0.450892
-31.428621 -114.294433 0.842579
-33.461798 -112.728378 0.177926
-34.816105 -111.532791 0.524588
-32.752835 -113.560958 -1.115545
-33.461798 -112.728378 0.177926
-33.504244 -113.153389 -2.040988
-32.752835 -113.560958 -1.115545
-34.202726 -112.784607 -2.927183
-33.504244 -113.153389 -2.040988
-34.812672 -111.997093 -1.660686
-34.995136 -112.35485 -3.747193
-33.686708 -113.511146 -4.127496
-34.202726 -112.784607 -2.927183
-36.762516 -110.492829 -2.17403
-36.133223 -110.822403 -1.290123
-37.384585 -109.686921 -0.917271
-36.203001 -111.26693 -3.355835
-36.762516 -110.492829 -2.17403
-37.454363 -110.131447 -2.982984
-20.025787 -124.697472 -11.855251
-18.887076 -125.303292 -10.573274
-21.452015 -123.931152 -11.733688
-21.192324 -124.016182 -13.005434
-20.025787 -124.697472 -11.855251
-20.636874 -124.313553 -9.258809
-19.246241 -125.115356 -9.259151
-19.597637 -124.816467 -7.934453
-24.232628 -121.510528 -6.360062
-22.844234 -122.555366 -6.472453
-23.300244 -121.982063 -5.149006
-25.617882 -120.430031 -6.124262
-27.00144 -119.292214 -5.911052
-25.161873 -121.003334 -7.447709
-24.232628 -121.510528 -6.360062
-25.617882 -120.430031 -6.124262
-44.032696 -102.534851 -11.227517
-44.642894 -101.567879 -10.192671
-44.852043 -100.934028 -11.089987
-51.291151 -85.639343 -13.912657
-51.939718 -85.012764 -13.215296
-50.416506 -87.315697 -13.863557
-51.291151 -85.639343 -13.912657
-50.674771 -86.354805 -14.667808
-40.4671 -96.824295 -22.510568
-39.352026 -98.874061 -22.665983
-40.440075 -98.08953 -22.137093
-40.494017 -95.502281 -22.949843
-40.4671 -96.824295 -22.510568
-41.582065 -94.71775 -22.420952
-40.540737 -94.124482 -23.30519
-40.494017 -95.502281 -22.949843
-45.503801 -86.319344 -22.113077
-46.371349 -85.705169 -21.513361
-46.423635 -84.286659 -22.111591
-44.546316 -88.436684 -22.121237
-45.503801 -86.319344 -22.113077
-43.605661 -90.509224 -22.212154
-44.51086 -89.810395 -21.605764
-44.546316 -88.436684 -22.121237
-42.62505 -91.265625 -22.793926
-42.589594 -92.639336 -22.278454
-43.605661 -90.509224 -22.212154
-41.657064 -91.962128 -23.302271
-42.62505 -91.265625 -22.793926
-40.540737 -94.124482 -23.30519
-41.657064 -91.962128 -23.302271
3 0 47 45
3 1 50 48
3 1 52 50
3 3 169 171
3 169 54 170
3 169 170 171
3 3 56 54
3 2 59 57
3 4 62 60
3 6 65 63
3 6 67 65
3 5 172 174
3 174 173 68
3 172 173 174
3 175 69 176
3 177 70 178
3 179 178 69
3 177 178 179
3 182 181 73
3 180 181 182
3 7 78 76
3 8 183 185
3 183 80 184
3 183 184 185
3 8 82 80
3 186 85 187
3 188 187 83
3 186 187 188
3 9 88 86
3 9 90 88
3 9 92 90
3 10 95 93
3 12 96 46
3 12 97 96
3 13 99 98
3 14 189 191
3 191 190 49
3 189 190 191
3 14 192 193
3 14 194 196
3 194 100 195
3 194 195 196
3 15 101 51
3 15 197 199
3 199 198 101
3 197 198 199
3 16 200 202
3 202 201 53
3 200 201 202
3 16 203 204
3 16 205 206
3 17 102 55
3 17 103 102
3 18 106 104
3 19 107 58
3 19 108 107
3 207 109 208
3 209 110 210
3 211 210 109
3 209 210 211
3 213 212 110
3 22 214 216
3 214 112 215
3 214 215 216
3 23 113 61
3 23 114 113
3 11 115 94
3 24 116 64
3 24 117 116
3 24 118 117
3 25 119 66
3 25 120 119
3 27 217 219
3 219 218 122
3 217 218 219
3 29 220 222
3 220 124 221
3 220 221 222
3 29 125 124
3 30 223 225
3 223 126 224
3 223 224 225
3 30 127 126
3 30 128 127
3 31 226 228
3 226 129 227
3 226 227 228
3 31 130 129
3 32 229 230
3 32 231 232
3 33 131 71
3 33 132 131
3 33 133 132
3 233 134 234
3 235 234 72
3 233 234 235
3 237 236 134
3 238 135 239
3 241 240 135
3 34 242 243
3 34 244 246
3 244 136 245
3 244 245 246
3 34 137 136
3 27 247 249
3 247 138 248
3 247 248 249
3 27 122 138
3 250 140 251
3 36 141 74
3 36 142 141
3 37 252 254
3 252 143 253
3 252 253 254
3 37 144 143
3 37 145 144
3 35 146 75
3 35 139 146
3 28 147 123
3 38 148 77
3 38 149 148
3 255 150 256
3 257 256 105
3 255 256 257
3 39 151 79
3 39 152 151
3 39 153 152
3 40 154 81
3 40 155 154
3 26 156 121
3 41 157 84
3 41 158 157
3 20 258 260
3 258 159 259
3 258 259 260
3 42 160 87
3 42 161 160
3 42 162 161
3 43 163 89
3 43 164 163
3 43 165 164
3 44 166 91
3 44 167 166
3 21 168 111
3 45 46 10
3 47 46 45
3 47 12 46
3 48 49 13
3 50 49 48
3 50 14 49
3 50 51 14
3 52 51 50
3 52 15 51
3 261 53 262
3 54 263 265
3 263 53 264
3 263 264 265
3 54 16 53
3 54 55 16
3 56 55 54
3 56 17 55
3 57 58 18
3 59 58 57
3 59 19 58
3 60 61 22
3 62 61 60
3 62 23 61
3 63 64 11
3 65 64 63
3 65 24 64
3 65 66 24
3 67 66 65
3 67 25 66
3 68 266 267
3 269 268 68
3 271 270 27
3 272 29 273
3 69 274 275
3 69 276 278
3 276 30 277
3 276 277 278
3 69 279 281
3 281 280 30
3 279 280 281
3 70 282 284
3 284 283 69
3 282 283 284
3 70 285 287
3 285 31 286
3 285 286 287
3 288 32 289
3 290 71 291
3 292 71 293
3 294 33 295
3 296 295 71
3 294 295 296
3 297 72 298
3 299 298 33
3 297 298 299
3 300 72 301
3 303 302 72
3 304 34 305
3 307 306 34
3 308 27 309
3 73 310 312
3 310 311 312
3 314 313 73
3 315 74 316
3 317 74 318
3 317 318 319
3 320 36 321
3 322 321 74
3 320 321 322
3 323 37 324
3 325 75 326
3 327 326 37
3 325 326 327
3 328 75 329
3 330 35 331
3 332 331 75
3 330 331 332
3 76 77 28
3 78 77 76
3 78 38 77
3 333 79 334
3 80 335 337
3 335 79 336
3 335 336 337
3 80 39 79
3 80 81 39
3 82 81 80
3 82 40 81
3 83 84 26
3 85 84 83
3 85 41 84
3 86 87 20
3 88 87 86
3 88 42 87
3 88 89 42
3 90 89 88
3 90 43 89
3 90 91 43
3 92 91 90
3 92 44 91
3 339 338 21
3 93 94 4
3 95 94 93
3 95 11 94
3 46 95 10
3 96 95 46
3 96 11 95
3 96 63 11
3 97 63 96
3 97 6 63
3 98 340 342
3 342 341 5
3 340 341 342
3 99 343 345
3 345 344 98
3 343 344 345
3 99 346 347
3 49 99 13
3 348 99 349
3 350 349 49
3 348 349 350
3 352 351 99
3 100 353 354
3 100 355 356
3 51 100 14
3 101 100 51
3 101 357 359
3 359 358 100
3 357 358 359
3 101 360 361
3 363 362 101
3 53 364 366
3 364 365 366
3 368 367 53
3 369 73 370
3 371 73 372
3 374 373 73
3 55 375 377
3 377 376 16
3 375 376 377
3 102 378 380
3 380 379 55
3 378 379 380
3 102 381 382
3 102 383 384
3 103 385 387
3 387 386 102
3 385 386 387
3 103 388 389
3 104 105 7
3 106 105 104
3 106 390 392
3 392 391 105
3 390 391 392
3 58 106 18
3 107 106 58
3 107 393 395
3 395 394 106
3 393 394 395
3 107 396 397
3 108 398 400
3 400 399 107
3 398 399 400
3 108 401 403
3 401 8 402
3 401 402 403
3 404 20 405
3 109 406 407
3 109 408 410
3 408 20 409
3 408 409 410
3 109 86 20
3 110 86 109
3 110 9 86
3 110 111 9
3 411 111 412
3 413 412 110
3 411 412 413
3 414 21 415
3 416 415 111
3 414 415 416
3 417 21 418
3 420 419 21
3 112 421 423
3 421 422 423
3 112 424 425
3 61 112 22
3 113 112 61
3 113 426 428
3 428 427 112
3 426 427 428
3 113 429 431
3 429 68 430
3 429 430 431
3 114 68 113
3 114 5 68
3 94 62 4
3 115 62 94
3 115 23 62
3 64 115 11
3 116 115 64
3 116 23 115
3 116 114 23
3 117 114 116
3 117 5 114
3 117 98 5
3 118 98 117
3 118 13 98
3 66 118 24
3 119 118 66
3 119 13 118
3 119 48 13
3 120 48 119
3 120 1 48
3 432 3 433
3 434 121 435
3 436 435 2
3 434 435 436
3 437 121 438
3 439 26 440
3 441 440 121
3 439 440 441
3 442 26 443
3 444 83 445
3 446 445 26
3 444 445 446
3 447 83 448
3 447 448 449
3 451 450 83
3 453 452 5
3 122 123 0
3 454 123 455
3 456 455 122
3 454 455 456
3 457 28 458
3 459 458 123
3 457 458 459
3 461 460 27
3 124 462 463
3 124 464 466
3 464 28 465
3 464 465 466
3 124 76 28
3 125 76 124
3 125 7 76
3 467 29 468
3 126 469 470
3 126 471 473
3 471 29 472
3 471 472 473
3 126 125 29
3 127 125 126
3 127 7 125
3 127 104 7
3 128 104 127
3 128 18 104
3 474 128 475
3 476 475 30
3 474 475 476
3 129 477 479
3 477 128 478
3 477 478 479
3 129 18 128
3 129 57 18
3 130 57 129
3 130 2 57
3 480 32 481
3 71 482 483
3 131 484 486
3 486 485 71
3 484 485 486
3 131 487 489
3 487 32 488
3 487 488 489
3 131 490 492
3 492 491 32
3 490 491 492
3 132 493 495
3 495 494 131
3 493 494 495
3 132 496 497
3 132 498 500
3 498 70 499
3 498 499 500
3 133 70 132
3 133 31 70
3 72 133 33
3 134 133 72
3 134 31 133
3 134 130 31
3 501 130 502
3 503 502 134
3 501 502 503
3 504 2 505
3 506 505 130
3 504 505 506
3 508 507 2
3 509 3 510
3 511 3 512
3 513 56 514
3 515 514 3
3 513 514 515
3 516 56 517
3 518 17 519
3 520 519 56
3 518 519 520
3 135 521 522
3 135 523 525
3 523 17 524
3 523 524 525
3 135 103 17
3 526 103 527
3 528 527 135
3 526 527 528
3 530 529 103
3 136 531 532
3 136 533 534
3 136 535 536
3 137 537 539
3 539 538 136
3 537 538 539
3 137 540 542
3 540 35 541
3 540 541 542
3 543 137 544
3 545 544 34
3 543 544 545
3 138 546 548
3 546 137 547
3 546 547 548
3 138 35 137
3 138 139 35
3 122 139 138
3 122 0 139
3 140 549 550
3 140 551 553
3 551 22 552
3 551 552 553
3 74 554 556
3 554 140 555
3 554 555 556
3 141 140 74
3 141 22 140
3 141 60 22
3 142 60 141
3 142 4 60
3 557 36 558
3 557 558 559
3 143 560 561
3 143 562 564
3 562 36 563
3 562 563 564
3 143 142 36
3 144 142 143
3 144 4 142
3 144 93 4
3 145 93 144
3 145 10 93
3 75 145 37
3 146 145 75
3 146 10 145
3 146 45 10
3 139 45 146
3 139 0 45
3 123 47 0
3 147 47 123
3 147 12 47
3 77 147 28
3 148 147 77
3 148 12 147
3 148 97 12
3 149 97 148
3 149 6 97
3 105 78 7
3 150 78 105
3 150 38 78
3 79 565 567
3 565 150 566
3 565 566 567
3 151 150 79
3 151 38 150
3 151 149 38
3 152 149 151
3 152 6 149
3 152 67 6
3 153 67 152
3 153 25 67
3 81 153 39
3 154 153 81
3 154 25 153
3 154 120 25
3 155 120 154
3 155 1 120
3 121 59 2
3 156 59 121
3 156 19 59
3 84 156 26
3 157 156 84
3 157 19 156
3 157 108 19
3 158 108 157
3 158 8 108
3 568 85 569
3 159 570 572
3 570 85 571
3 570 571 572
3 159 41 85
3 87 159 20
3 160 159 87
3 160 41 159
3 160 158 41
3 161 158 160
3 161 8 158
3 161 82 8
3 162 82 161
3 162 40 82
3 89 162 42
3 163 162 89
3 163 40 162
3 163 155 40
3 164 155 163
3 164 1 155
3 164 52 1
3 165 52 164
3 165 15 52
3 91 165 43
3 166 165 91
3 166 15 165
3 166 573 575
3 575 574 15
3 573 574 575
3 167 576 578
3 578 577 166
3 576 577 578
3 167 579 580
3 111 92 9
3 168 92 111
3 168 44 92
3 581 168 582
3 583 582 21
3 581 582 583
3 584 168 585
3 586 44 587
3 588 587 168
3 586 587 588
3 589 167 590
3 591 590 44
3 589 590 591
3 592 167 593
3 595 594 167
