ply
format ascii 1.0
element vertex 267
property float x
property float y
property float z
element face 241
property list uchar int vertex_index
end_header
2.688457 34.248611 -29.277363
-0.322243 77.399918 -18.274979
1.607151 62.96619 -23.496674
3.464291 46.257603 -24.194122
-2.036217 84.668411 -6.995155
-1.675959 83.206863 -14.422186
2.570744 54.929028 -24.480408
0.193396 74.315903 -24.726212
1.359312 66.940216 -27.287415
0.662479 70.498993 -21.359909
2.259064 58.887943 -28.698536
2.948895 50.221645 -28.769985
3.438866 40.77092 -27.537083
-1.445667 82.199738 -9.110497
1.056538 32.435429 -30.662239
1.918493 30.659111 -29.542294
-0.924189 80.48024 -16.433283
-1.529362 82.066147 -17.925919
-0.694715 79.210892 -19.873196
-0.017948 76.006241 -21.627735
0.553257 72.533264 -23.167122
0.189655 74.049744 -19.924294
1.537577 65.024475 -25.511883
1.835812 62.987431 -28.150108
1.990614 61.055721 -26.266418
3.031567 50.686314 -24.492657
2.820805 52.702526 -26.812389
3.185024 48.277409 -26.583794
3.21595 45.608654 -28.296577
3.512794 43.647896 -26.048817
3.810333 38.788818 -25.2701
-2.734688 86.222351 -8.57766
-2.63413 85.491699 -12.268387
-1.860052 84.068558 -10.762533
-1.19026 81.470215 -12.827696
-0.663225 78.517258 -14.745581
-0.212112 75.29599 -16.492111
1.706623 60.834721 -21.317112
2.091309 59.014515 -24.14489
2.261387 56.914043 -21.861206
2.816257 52.847416 -22.099442
3.262436 32.335884 -27.522545
-2.572451 84.485382 -15.811928
0.819496 70.72937 -26.137718
1.06238 68.857758 -24.46978
1.130173 66.795944 -22.559242
0.221403 71.878235 -18.045509
0.677296 68.314316 -19.383877
1.173218 64.63121 -20.483128
-2.830853 86.690063 -4.781914
2.67326 39.485641 -30.374378
1.958498 60.674709 -30.37833
2.345711 56.452869 -30.698826
2.420643 56.95332 -26.706356
2.630482 54.638821 -28.908733
2.655136 52.061031 -30.663704
2.891411 47.47765 -30.276058
3.062805 42.675514 -29.570026
3.181835 37.631119 -28.617043
3.629471 35.688744 -26.576145
2.303475 32.453861 -29.409828
1.964666 33.359886 -30.131594
2.349648 35.154636 -29.999129
3.665667 43.937075 -23.910915
3.689919 42.632221 -24.838262
3.488542 44.95275 -25.121469
-1.091185 80.423363 -11.963449
-1.317964 81.834976 -10.969096
-1.218889 80.788124 -10.10485
-0.827668 78.946884 -12.922392
-0.926743 79.993736 -13.786638
-1.091185 80.423363 -11.963449
-0.632617 77.402588 -13.840588
-0.827668 78.946884 -12.922392
0.430829 30.545671 -30.473043
0.95126 29.673389 -30.065357
2.102469 57.791343 -20.448087
1.984005 58.874382 -21.589159
1.825087 59.751683 -20.17604
3.020916 51.779877 -20.86553
2.702375 53.810566 -20.789246
3.08439 50.727642 -22.066483
3.020916 51.779877 -20.86553
3.2885 29.571411 -26.96687
3.531164 31.349365 -26.52414
-2.063359 82.62397 -18.537537
-1.500034 81.344536 -19.566891
-0.182497 75.03003 -25.341923
-0.180869 75.977654 -23.90082
0.224032 73.313652 -26.104965
-0.182497 75.03003 -25.341923
0.506446 72.522637 -25.431965
0.537083 71.520386 -26.810719
0.224032 73.313652 -26.104965
0.005806 72.443314 -16.321133
0.004645 73.587113 -17.26881
-0.210952 74.152191 -15.544435
0.709094 67.187127 -18.344311
0.454011 68.952141 -17.722327
0.957055 65.345574 -18.893937
0.925257 66.472763 -19.933502
0.709094 67.187127 -18.344311
1.245793 63.527296 -19.393635
0.957055 65.345574 -18.893937
-3.353772 87.436111 -3.641409
-3.344619 87.27034 -5.542568
2.634116 41.978248 -30.828165
2.348819 40.349466 -31.077873
1.4241 65.837631 -28.503132
1.143283 67.782227 -28.016409
3.949173 36.239731 -24.805658
4.027641 37.768934 -24.068689
-1.549764 82.440163 -7.21309
-1.740942 83.434075 -8.052826
-1.845039 83.674499 -6.155419
-1.358811 81.094978 -8.242392
-1.549764 82.440163 -7.21309
-1.218889 80.788124 -10.10485
-1.358811 81.094978 -8.242392
1.533688 34.248045 -30.691567
1.110984 35.082222 -31.238684
1.487515 31.54727 -30.102266
1.533688 34.248045 -30.691567
1.964666 33.359886 -30.131594
1.382238 28.78523 -29.505384
0.95126 29.673389 -30.065357
1.487515 31.54727 -30.102266
-1.08271 79.916909 -20.540529
-1.500034 81.344536 -19.566891
-1.112039 80.63852 -18.899558
-0.624924 78.425148 -21.474312
-1.08271 79.916909 -20.540529
-0.286541 76.822823 -22.351582
-0.624924 78.425148 -21.474312
-0.356331 77.608566 -20.750466
0.087724 75.161072 -23.176974
-0.180869 75.977654 -23.90082
-0.286541 76.822823 -22.351582
3.838688 40.202682 -24.448904
3.661563 41.218357 -25.659458
3.689919 42.632221 -24.838262
4.027641 37.768934 -24.068689
3.838688 40.202682 -24.448904
-2.684409 85.857025 -10.423023
-3.236799 86.373138 -11.135298
-3.287078 86.738464 -9.289935
-0.40706 75.791954 -14.713854
-0.437668 76.906624 -15.618846
-0.632617 77.402588 -13.840588
-0.210952 74.152191 -15.544435
-0.40706 75.791954 -14.713854
0.539033 33.244093 -31.064039
1.110984 35.082222 -31.238684
0.539033 33.244093 -31.064039
0.430829 30.545671 -30.473043
2.42494 55.843879 -20.670128
2.102469 57.791343 -20.448087
2.538822 54.88073 -21.980324
2.42494 55.843879 -20.670128
2.702375 53.810566 -20.789246
3.192045 49.647091 -23.263091
2.923912 51.766865 -23.29605
3.08439 50.727642 -22.066483
3.408408 47.432736 -23.113823
3.247929 48.471958 -24.34339
3.192045 49.647091 -23.263091
3.661599 45.213835 -22.942467
3.408408 47.432736 -23.113823
2.957512 30.551964 -27.817093
2.670523 31.508328 -28.694502
2.975447 33.292248 -28.399954
2.957512 30.551964 -27.817093
3.2885 29.571411 -26.96687
-3.247422 85.940002 -12.915023
-3.236799 86.373138 -11.135298
-3.216583 85.436844 -14.686794
-3.247422 85.940002 -12.915023
-2.60329 84.98854 -14.040157
-3.269744 84.860298 -16.370825
-3.216583 85.436844 -14.686794
-2.584903 83.833587 -17.480542
-2.050906 83.275765 -16.868924
-2.063359 82.62397 -18.537537
-3.269744 84.860298 -16.370825
-2.584903 83.833587 -17.480542
0.873375 69.676804 -27.441561
0.537083 71.520386 -26.810719
1.089404 68.834793 -26.712567
1.143283 67.782227 -28.016409
0.873375 69.676804 -27.441561
0.226065 70.734101 -17.053143
0.005806 72.443314 -16.321133
0.44935 70.096276 -18.714693
0.226065 70.734101 -17.053143
0.454011 68.952141 -17.722327
1.512496 61.629052 -19.810627
1.43992 62.732965 -20.90012
1.245793 63.527296 -19.393635
1.825087 59.751683 -20.17604
1.512496 61.629052 -19.810627
-3.296537 87.036484 -7.440442
-3.287078 86.738464 -9.289935
-2.78277 86.456207 -6.679787
-3.296537 87.036484 -7.440442
-3.344619 87.27034 -5.542568
-2.860003 86.794021 -2.844357
-3.353772 87.436111 -3.641409
-2.499967 85.852531 -3.965829
-2.860003 86.794021 -2.844357
-2.102649 84.841705 -5.072449
-2.433535 85.679237 -5.888535
-2.499967 85.852531 -3.965829
-1.845039 83.674499 -6.155419
-2.102649 84.841705 -5.072449
2.285541 29.713577 -28.826967
2.303475 32.453861 -29.409828
2.670523 31.508328 -28.694502
1.836191 27.848634 -28.957361
2.285541 29.713577 -28.826967
1.382238 28.78523 -29.505384
1.836191 27.848634 -28.957361
2.342049 37.773151 -30.547636
2.348819 40.349466 -31.077873
2.680859 36.867126 -29.825871
2.349648 35.154636 -29.999129
2.342049 37.773151 -30.547636
1.66235 63.861238 -28.934478
1.4241 65.837631 -28.503132
1.597562 64.963824 -27.718761
1.723693 62.704877 -30.048589
1.66235 63.861238 -28.934478
1.897155 61.83107 -29.264219
1.676443 61.456513 -31.029043
1.723693 62.704877 -30.048589
1.903185 59.378681 -31.24636
1.676443 61.456513 -31.029043
2.096792 57.267761 -31.406608
1.903185 59.378681 -31.24636
2.152105 58.563789 -30.538578
2.269559 55.099815 -31.445101
2.096792 57.267761 -31.406608
2.424272 52.903896 -31.42754
2.269559 55.099815 -31.445101
2.500424 54.25695 -30.681265
2.547184 50.639004 -31.285147
2.424272 52.903896 -31.42754
2.665322 48.347313 -31.091324
2.547184 50.639004 -31.285147
2.773274 49.76934 -30.469881
2.743191 45.974253 -30.779005
2.665322 48.347313 -31.091324
2.828888 43.573185 -30.425989
2.743191 45.974253 -30.779005
2.977108 45.076582 -29.923042
2.868032 41.080578 -29.972202
2.634116 41.978248 -30.828165
2.828888 43.573185 -30.425989
3.714682 33.025795 -26.050939
3.531164 31.349365 -26.52414
3.445953 34.012314 -27.049345
3.858742 34.689694 -25.458681
3.719902 37.238781 -25.923122
3.949173 36.239731 -24.805658
3.714682 33.025795 -26.050939
3.858742 34.689694 -25.458681
3.665667 43.937075 -23.910915
3.661599 45.213835 -22.942467
3 0 60 62
3 60 15 61
3 60 61 62
3 1 18 16
3 1 19 18
3 1 21 19
3 2 24 22
3 3 27 25
3 3 29 27
3 3 63 65
3 65 64 29
3 63 64 65
3 4 33 31
3 66 34 67
3 68 67 13
3 66 67 68
3 69 35 70
3 71 70 34
3 69 70 71
3 73 72 35
3 75 74 14
3 76 39 77
3 78 77 37
3 76 77 78
3 79 40 80
3 82 81 40
3 84 83 41
3 5 42 32
3 86 85 17
3 7 87 88
3 7 89 90
3 7 91 93
3 91 43 92
3 91 92 93
3 9 44 20
3 9 45 44
3 94 46 95
3 96 95 36
3 94 95 96
3 97 47 98
3 99 48 100
3 101 100 47
3 99 100 101
3 103 102 48
3 104 49 105
3 106 50 107
3 8 108 109
3 10 51 23
3 10 52 51
3 6 53 38
3 11 54 26
3 11 55 54
3 11 56 55
3 12 57 28
3 12 58 57
3 12 59 58
3 111 110 30
3 112 13 113
3 114 113 4
3 112 113 114
3 115 13 116
3 118 117 13
3 119 14 120
3 15 121 123
3 121 14 122
3 121 122 123
3 15 124 126
3 126 125 14
3 124 125 126
3 16 17 5
3 18 17 16
3 18 127 129
3 129 128 17
3 127 128 129
3 18 130 131
3 19 132 134
3 134 133 18
3 132 133 134
3 19 135 137
3 135 7 136
3 135 136 137
3 19 20 7
3 21 20 19
3 21 9 20
3 22 23 8
3 24 23 22
3 24 10 23
3 25 26 6
3 27 26 25
3 27 11 26
3 27 28 11
3 29 28 27
3 29 12 28
3 29 30 12
3 138 30 139
3 140 139 29
3 138 139 140
3 142 141 30
3 31 143 145
3 143 32 144
3 143 144 145
3 33 32 31
3 33 5 32
3 13 33 4
3 34 33 13
3 34 5 33
3 34 16 5
3 35 16 34
3 35 1 16
3 35 36 1
3 146 36 147
3 148 147 35
3 146 147 148
3 150 149 36
3 14 151 152
3 154 153 14
3 37 38 2
3 39 38 37
3 39 6 38
3 155 39 156
3 40 157 159
3 157 39 158
3 157 158 159
3 40 6 39
3 40 25 6
3 160 25 161
3 162 161 40
3 160 161 162
3 163 3 164
3 165 164 25
3 163 164 165
3 167 166 3
3 41 168 170
3 170 169 0
3 168 169 170
3 172 171 41
3 32 173 174
3 42 175 177
3 177 176 32
3 175 176 177
3 42 178 179
3 17 42 5
3 180 42 181
3 182 181 17
3 180 181 182
3 184 183 42
3 43 185 186
3 43 187 189
3 187 8 188
3 187 188 189
3 20 43 7
3 44 43 20
3 44 8 43
3 44 22 8
3 45 22 44
3 45 2 22
3 36 21 1
3 46 21 36
3 46 9 21
3 190 46 191
3 47 192 194
3 192 46 193
3 192 193 194
3 47 9 46
3 47 45 9
3 48 45 47
3 48 2 45
3 48 37 2
3 195 37 196
3 197 196 48
3 195 196 197
3 199 198 37
3 200 31 201
3 49 202 204
3 202 31 203
3 202 203 204
3 49 4 31
3 205 49 206
3 207 49 208
3 209 4 210
3 211 210 49
3 209 210 211
3 213 212 4
3 214 15 215
3 216 215 0
3 214 215 216
3 217 15 218
3 220 219 15
3 50 221 222
3 50 223 225
3 223 0 224
3 223 224 225
3 23 226 228
3 228 227 8
3 226 227 228
3 51 229 231
3 231 230 23
3 229 230 231
3 51 232 233
3 51 234 235
3 52 236 238
3 238 237 51
3 236 237 238
3 52 239 240
3 38 24 2
3 53 24 38
3 53 10 24
3 26 53 6
3 54 53 26
3 54 10 53
3 54 52 10
3 55 52 54
3 55 241 243
3 243 242 52
3 241 242 243
3 55 244 245
3 56 246 248
3 248 247 55
3 246 247 248
3 56 249 250
3 28 56 11
3 57 56 28
3 57 251 253
3 253 252 56
3 251 252 253
3 57 254 256
3 254 50 255
3 254 255 256
3 58 50 57
3 58 0 50
3 58 41 0
3 59 41 58
3 59 257 259
3 259 258 41
3 257 258 259
3 30 59 12
3 260 59 261
3 262 261 30
3 260 261 262
3 264 263 59
3 266 265 3
