ply
format ascii 1.0
element vertex 634
property float x
property float y
property float z
element face 629
property list uchar int vertex_index
end_header
-16.923676 -84.235611 -6.667034
-8.513668 -83.872902 12.558245
-22.269123 -74.375648 -6.571964
-10.727991 -74.966682 22.277903
-12.81342 -85.705833 3.303697
-13.840785 -91.124298 -16.600214
-20.49402 -80.815392 -15.950026
-0.860119 -88.189552 11.685755
-5.231377 -92.470871 2.063604
-9.650433 -93.303276 -7.509133
-5.68495 -99.692657 -17.844793
-15.43937 -87.889053 -11.663017
-17.260712 -86.223274 -16.134195
-18.692022 -82.819153 -11.386282
-9.736647 -79.295883 17.786531
-6.23589 -81.360313 17.294996
-2.512331 -83.379791 16.673834
-4.713886 -86.16597 12.079474
-2.975256 -90.765991 6.865397
-6.977102 -88.232773 7.362405
-14.92994 -85.290909 -1.648702
-11.503941 -89.4888 -2.310582
-13.506767 -88.99572 -7.00481
-11.770905 -92.605118 -12.236908
4.32352 -102.894623 -8.231812
-0.806883 -103.152046 -18.142584
-17.995033 -80.628281 -1.194451
-20.604429 -75.891136 -1.407728
-22.825748 -71.328384 -2.093705
-12.020826 -81.035355 13.240738
-10.72578 -85.30603 7.878253
-14.099521 -81.784157 8.573771
-16.18434 -81.516594 3.589798
1.492603 -99.223015 -3.295669
0.869652 -84.819092 16.625425
1.037653 -92.742287 6.815278
-0.877334 -95.174011 1.728468
-3.098207 -96.638985 -3.307269
-9.366228 -89.221115 2.598867
-7.495318 -93.331299 -2.881298
-5.188231 -97.323906 -8.227094
-7.724574 -96.77198 -12.776852
-16.191671 -86.120514 -9.189253
-17.197733 -85.249146 -11.439381
-17.778072 -83.631805 -9.00803
-9.169416 -81.525337 15.28721
-7.978746 -80.417358 17.497725
-7.359486 -82.764709 14.900207
-5.46796 -83.770775 14.733373
-6.579157 -85.109772 12.291476
-5.810007 -87.393089 9.641006
-7.784057 -86.066032 9.971106
-15.955028 -84.790207 -4.081941
-14.280503 -87.138245 -4.401417
-15.308077 -86.640648 -6.876408
-14.517137 -88.476433 -9.349261
1.855682 -101.842369 -8.539674
-18.439632 -78.941025 1.26365
-19.360601 -78.345985 -1.518396
-19.648674 -76.840691 1.024181
-22.039837 -72.002251 0.664657
-13.721192 -79.384262 13.528535
-13.109643 -81.426582 11.065588
-14.620116 -79.85746 11.147508
-16.592569 -79.762817 6.311508
-17.549658 -79.396095 3.813675
-17.112434 -81.10865 1.246755
-12.856139 -92.695045 -18.73209
-13.690388 -91.83149 -20.672955
-18.95899 -83.458916 -15.939848
-18.098349 -85.250694 -18.31801
-20.609509 -81.291611 -20.531338
-5.678368 -77.680054 21.745237
-1.769449 -85.707054 14.268
-0.821582 -84.061943 16.670765
-0.006705 -86.547577 14.150608
0.935863 -88.965958 11.70663
1.971608 -91.258972 9.385991
0.058957 -90.535652 9.194467
-4.177681 -91.708298 4.430247
-2.111796 -92.980072 4.203487
-3.034714 -93.994408 1.721347
-4.229148 -94.595551 -0.676305
-11.933471 -85.395096 5.75528
-10.113287 -87.196007 5.338229
-11.094454 -87.535011 2.99401
-10.588598 -91.422569 -4.880975
-9.537365 -91.54068 -2.727271
-8.407208 -93.600471 -5.313007
-6.333125 -95.406502 -5.585343
-7.437289 -95.417274 -7.892432
-6.438117 -97.133102 -10.424944
-8.690336 -95.097504 -10.144952
-12.880303 -91.884872 -14.484056
-10.976186 -94.13591 -14.854177
-11.845257 -93.596695 -16.887865
-11.037823 -94.843597 -18.976793
-2.433289 -102.41774 -20.411291
-4.747998 -100.729584 -19.934029
-7.025052 -98.853783 -19.673719
-20.033356 -75.11702 3.520921
-16.201828 -77.944153 11.229148
-14.658983 -89.571884 -14.212287
-16.498955 -86.902946 -13.826844
-18.090738 -84.436279 -13.826784
-19.556377 -81.894287 -13.496325
-23.494173 -71.814697 -6.932064
-10.168532 -77.238441 20.022713
-8.439875 -78.184906 19.921852
-6.783738 -79.041985 19.755249
-5.097005 -80.115982 19.282516
-3.282255 -80.918282 19.152884
-4.374097 -82.40979 16.948366
-3.629466 -84.743813 14.498324
-2.751555 -87.216164 11.864134
-1.918549 -89.532265 9.317228
-3.944591 -88.329216 9.645768
-4.951408 -89.536736 7.150014
-6.127394 -90.357445 4.744124
-13.900772 -85.562469 0.866377
-12.137626 -87.661209 0.489213
-13.25526 -87.402382 -1.82315
-12.554434 -89.232475 -4.532724
-11.637207 -91.1791 -7.156346
-10.784862 -92.979858 -9.893472
-12.750072 -90.692184 -9.482378
-13.651198 -90.270187 -11.783888
1.69587 -104.530365 -18.028126
-17.418554 -82.518929 -3.849376
-18.393295 -81.802353 -6.45655
-18.780102 -80.245781 -3.859435
-20.182991 -77.655495 -3.893081
-21.371941 -75.337364 -4.110065
-20.898453 -74.385269 0.905352
-21.766212 -73.589355 -1.781114
-22.586876 -72.834953 -4.4345
-23.758347 -70.290161 -4.794774
-11.374712 -78.129875 18.026047
-10.896426 -80.257706 15.578413
-10.263785 -82.515793 12.941604
-9.60905 -84.732674 10.231458
-11.393857 -83.16468 10.630816
-12.437106 -83.487488 8.49643
-13.557265 -83.683075 5.934038
-15.600857 -79.932877 8.789106
-15.165697 -81.816093 5.967841
-14.570761 -83.650391 3.487957
-15.580495 -83.423569 0.944062
-16.57884 -82.908867 -1.362831
2.953958 -101.187462 -5.809784
0.473253 -99.960007 -5.892497
-12.565663 -93.313286 -22.707804
-16.39819 -87.891342 -18.571758
-19.28845 -81.063736 -8.965045
-20.214045 -80.117226 -11.305697
-21.099041 -79.178955 -13.748535
-1.560601 -81.691887 19.029902
3.226453 -93.550575 7.086451
2.296817 -94.905441 4.55631
-0.97543 -91.817787 6.775949
0.134193 -93.974648 4.415334
1.274169 -96.128723 1.941853
0.377515 -97.258011 -0.716323
-0.721685 -98.079109 -3.365513
-1.878417 -98.642159 -5.980685
-8.916321 -86.812859 7.618987
-8.268197 -88.781715 5.003623
-7.294092 -90.936905 2.330425
-10.340299 -89.623627 -0.00715
-8.426311 -91.33004 -0.159474
-6.306195 -93.081047 -0.462017
-5.406333 -95.01371 -3.131775
-4.093763 -97.124725 -5.794477
-3.015213 -98.983055 -8.552188
-4.105506 -99.071304 -10.883965
-6.584841 -98.44722 -15.408655
-9.792207 -94.793877 -12.626728
-8.827577 -96.366295 -15.101625
0.077136 -103.959328 -20.456448
1.227311 -101.974773 -9.780276
0.637722 -101.16671 -8.526854
-19.253622 -77.032464 2.383939
-19.044153 -77.890858 1.143915
-18.649101 -78.08263 2.503674
-14.454976 -78.652729 13.50335
-13.928113 -78.387955 14.783818
-14.904438 -78.889328 12.312837
-14.170654 -79.620861 12.338021
-14.454976 -78.652729 13.50335
-18.204114 -78.310166 3.778686
-17.751959 -78.547775 5.061764
-18.649101 -78.08263 2.503674
-17.994645 -79.16856 2.538663
-18.204114 -78.310166 3.778686
-14.253919 -90.737972 -17.633647
-13.761596 -91.523346 -18.699585
-13.348462 -91.909672 -17.666152
-20.125296 -81.655865 -17.065811
-19.357782 -82.977627 -17.060721
-19.726505 -82.137154 -15.944937
-20.935359 -80.244534 -17.122048
-20.125296 -81.655865 -17.065811
-22.144273 -75.082111 -7.73922
-21.676654 -75.606976 -6.562542
-10.194949 -74.233799 23.342512
-10.95985 -73.819541 23.354957
-5.157186 -76.775349 22.899755
-4.834758 -78.077656 21.651496
-5.216474 -100.21112 -18.889411
-3.984688 -101.151638 -18.995628
-4.453164 -100.633174 -17.95101
-24.547066 -69.975632 -8.312998
-23.950443 -71.277905 -8.120786
-24.090795 -70.512424 -7.124275
5.03582 -103.638706 -9.376264
6.319454 -104.104649 -9.234766
5.607155 -103.360566 -8.090314
-21.03311 -73.630455 2.107834
-20.465905 -74.751144 2.213137
-20.600562 -73.99633 3.415618
-12.160508 -77.533493 18.074349
-11.638382 -77.051109 19.161127
-11.458626 -80.64653 14.409575
-11.733137 -79.569572 15.697321
-12.295336 -79.958397 14.528483
-16.32191 -78.970639 8.772239
-15.901342 -78.938515 10.009127
-16.622395 -77.976276 9.99226
2.22328 -100.205239 -4.552727
3.440571 -100.749806 -4.479297
2.709894 -99.767582 -3.22224
-12.197923 -93.730381 -21.769673
-11.742522 -94.296456 -22.715624
-13.99134 -91.446766 -21.653493
-14.584762 -90.616158 -20.711601
-16.829451 -87.057308 -17.352976
-16.012593 -88.285736 -17.472013
-16.443854 -87.451702 -16.253232
-17.66252 -86.032803 -19.485876
-18.544536 -84.626385 -19.327455
-21.019669 -80.626507 -21.561411
-21.439849 -79.826649 -20.548772
-19.511339 -80.211052 -7.615841
-18.840872 -81.433044 -7.710797
-19.063761 -80.58036 -6.361593
-20.895395 -78.812591 -11.277936
-20.439208 -79.292286 -10.057416
-21.337893 -78.343456 -12.499355
-20.656543 -79.64809 -12.527116
-20.895395 -78.812591 -11.277936
0.49602 -83.575279 17.857078
-0.349597 -83.196705 17.879748
0.024035 -84.440517 16.648095
1.343278 -83.979526 17.833267
0.49602 -83.575279 17.857078
1.793006 -85.199489 16.679349
1.343278 -83.979526 17.833267
-1.909946 -97.359047 -3.336391
-1.361888 -97.087231 -2.161614
-2.550149 -96.367169 -2.132491
-6.620494 -97.718288 -12.866763
-5.977266 -97.898849 -11.690809
-7.081345 -96.952541 -11.600898
-7.154707 -97.6096 -14.092754
-6.050628 -98.555909 -14.182664
-6.620494 -97.718288 -12.866763
-9.362752 -96.055191 -16.107965
-9.901882 -95.251103 -14.977901
-10.437057 -94.939999 -15.984241
-8.378063 -97.039288 -16.295027
-9.362752 -96.055191 -16.107965
-10.542662 -95.493732 -20.05131
-11.434003 -94.495537 -19.904168
-2.002991 -102.748649 -21.504458
-3.197462 -101.943748 -21.340675
2.517961 -102.627578 -9.744888
3.75188 -103.153706 -9.590957
3.089601 -102.368496 -8.385743
2.517961 -102.627578 -9.744888
1.227311 -101.974773 -9.780276
-22.166198 -71.297905 1.742678
-21.603802 -72.438946 1.987486
-22.568106 -70.874863 0.450731
-22.166198 -71.297905 1.742678
-22.961062 -70.537929 -0.92845
-22.432792 -71.665318 -0.714524
-22.568106 -70.874863 0.450731
-23.380878 -70.085197 -2.255773
-22.961062 -70.537929 -0.92845
-13.145519 -79.132851 14.672382
-13.928113 -78.387955 14.783818
-12.871009 -80.209809 13.384636
-12.295336 -79.958397 14.528483
-13.145519 -79.132851 14.672382
-17.273415 -78.731136 6.310681
-16.817766 -78.885608 7.53344
-17.071114 -79.579456 5.062591
-17.273415 -78.731136 6.310681
-17.751959 -78.547775 5.061764
2.089215 -98.77058 -1.937736
2.709894 -99.767582 -3.22224
-13.273264 -92.263267 -19.702523
-12.760285 -92.989483 -20.752249
-12.34316 -93.42126 -19.781816
-14.178721 -91.091568 -19.670018
-13.273264 -92.263267 -19.702523
-13.761596 -91.523346 -18.699585
-14.584762 -90.616158 -20.711601
-14.178721 -91.091568 -19.670018
-18.927461 -83.873516 -18.249803
-18.528669 -84.354805 -17.128929
-19.357782 -82.977627 -17.060721
-18.544536 -84.626385 -19.327455
-18.927461 -83.873516 -18.249803
-20.183041 -81.893974 -19.356467
-19.800116 -82.646843 -20.434119
-20.993104 -80.482643 -19.412705
-20.183041 -81.893974 -19.356467
-21.439849 -79.826649 -20.548772
-20.993104 -80.482643 -19.412705
-5.999293 -76.483143 22.880799
-6.546144 -77.17897 21.927482
-5.999293 -76.483143 22.880799
-5.157186 -76.775349 22.899755
0.931463 -86.949913 14.166182
1.369642 -86.08567 15.403591
0.431474 -85.683335 15.388016
1.402748 -88.159104 12.944194
0.931463 -86.949913 14.166182
0.464579 -87.756767 12.928619
1.889101 -89.356347 11.759442
1.402748 -88.159104 12.944194
1.453736 -90.112465 10.546311
2.406973 -90.502854 10.599123
1.889101 -89.356347 11.759442
-2.518403 -95.04488 0.381817
-1.439712 -95.634681 0.385377
-1.956024 -94.58421 1.724908
-3.11562 -95.345451 -0.817009
-2.518403 -95.04488 0.381817
-3.631931 -94.29498 0.522521
-3.663678 -95.617268 -1.991787
-2.550149 -96.367169 -2.132491
-3.11562 -95.345451 -0.817009
-10.871593 -94.670391 -17.001085
-10.437057 -94.939999 -15.984241
-11.410722 -93.866302 -15.871021
-11.44154 -94.220146 -17.932329
-10.467875 -95.293842 -18.045549
-10.871593 -94.670391 -17.001085
-12.34316 -93.42126 -19.781816
-11.434003 -94.495537 -19.904168
-11.946981 -93.769321 -18.854442
-2.827334 -101.995716 -19.23426
-1.620086 -102.784893 -19.276937
-2.014131 -102.362869 -18.099906
-3.590643 -101.573662 -20.17266
-2.827334 -101.995716 -19.23426
-3.984688 -101.151638 -18.995628
-4.354816 -101.099671 -21.102044
-3.197462 -101.943748 -21.340675
-3.590643 -101.573662 -20.17266
-5.45165 -100.24836 -20.824714
-4.354816 -101.099671 -21.102044
-6.590177 -99.31046 -20.694559
-5.45165 -100.24836 -20.824714
-5.886525 -99.791684 -19.803874
-7.605787 -98.424026 -20.566066
-6.590177 -99.31046 -20.694559
-19.64848 -75.310577 4.855861
-19.445963 -76.170628 3.632309
-20.233567 -74.260101 4.683309
-19.64848 -75.310577 4.855861
-20.600562 -73.99633 3.415618
-20.233567 -74.260101 4.683309
-16.388314 -77.062329 12.435989
-15.695294 -77.932674 12.353657
-16.890943 -77.005855 11.205953
-16.388314 -77.062329 12.435989
-16.622395 -77.976276 9.99226
-16.890943 -77.005855 11.205953
-15.142989 -89.126007 -15.292278
-14.73389 -89.902214 -16.486241
-14.249884 -90.348091 -15.406251
-16.062975 -87.791538 -15.099556
-15.142989 -89.126007 -15.292278
-15.578969 -88.237415 -14.019565
-16.879834 -86.56311 -14.980519
-16.443854 -87.451702 -16.253232
-16.062975 -87.791538 -15.099556
-23.360948 -72.552093 -8.013856
-22.748423 -73.832569 -7.833806
-22.881648 -73.095172 -6.752014
-23.360948 -72.552093 -8.013856
-23.950443 -71.277905 -8.120786
-9.641364 -76.555347 21.104127
-9.921093 -75.419467 22.231722
-10.448262 -76.102562 21.150308
-8.777035 -77.02858 21.053697
-9.641364 -76.555347 21.104127
-9.304203 -77.711673 19.972282
-7.926898 -77.431397 21.01579
-8.777035 -77.02858 21.053697
-7.098829 -77.859936 20.932488
-7.926898 -77.431397 21.01579
-7.611807 -78.613445 19.838551
-6.231053 -78.361019 20.750243
-6.546144 -77.17897 21.927482
-7.098829 -77.859936 20.932488
-4.544076 -79.29562 20.420136
-4.834758 -78.077656 21.651496
-5.387687 -78.898018 20.513877
-4.18963 -80.517132 19.2177
-3.636701 -79.69677 20.35532
-4.544076 -79.29562 20.420136
5.03582 -103.638706 -9.376264
3.75188 -103.153706 -9.590957
2.442204 -104.662758 -16.842382
2.970061 -105.120521 -17.9864
1.166501 -104.030346 -16.92565
2.442204 -104.662758 -16.842382
-0.084875 -103.341186 -16.982879
0.444493 -103.841206 -18.085355
1.166501 -104.030346 -16.92565
-1.408832 -102.544998 -16.98755
-0.084875 -103.341186 -16.982879
-2.014131 -102.362869 -18.099906
-1.408832 -102.544998 -16.98755
-5.054918 -99.953834 -16.747674
-4.453164 -100.633174 -17.95101
-19.257165 -79.802075 -5.063036
-19.063761 -80.58036 -6.361593
-18.586698 -81.024067 -5.157992
-19.95861 -78.506932 -5.079859
-19.257165 -79.802075 -5.063036
-19.481547 -78.950638 -3.876258
-20.633588 -77.246899 -5.223101
-19.95861 -78.506932 -5.079859
-21.228063 -76.087833 -5.331592
-20.633588 -77.246899 -5.223101
-20.777466 -76.49643 -4.001573
-21.820532 -74.856506 -5.341014
-21.676654 -75.606976 -6.562542
-21.228063 -76.087833 -5.331592
-19.841015 -75.978856 2.272551
-19.253622 -77.032464 2.383939
-19.445963 -76.170628 3.632309
-21.469145 -73.19376 0.785005
-21.03311 -73.630455 2.107834
-21.603802 -72.438946 1.987486
-24.222883 -69.750157 -6.055631
-24.090795 -70.512424 -7.124275
-23.62626 -71.052429 -5.863419
-23.847177 -69.566085 -3.606308
-23.292048 -70.809272 -3.44424
-23.380878 -70.085197 -2.255773
-24.302105 -69.074234 -4.987024
-23.847177 -69.566085 -3.606308
-24.222883 -69.750157 -6.055631
-24.302105 -69.074234 -4.987024
-11.503986 -74.324276 22.467113
-10.95985 -73.819541 23.354957
-11.315021 -75.469513 21.287054
-11.503986 -74.324276 22.467113
-11.035291 -76.605392 20.15946
-10.448262 -76.102562 21.150308
-11.315021 -75.469513 21.287054
-10.771622 -77.684158 19.02438
-11.035291 -76.605392 20.15946
-11.638382 -77.051109 19.161127
-11.972279 -78.505657 16.921138
-12.160508 -77.533493 18.074349
-11.135569 -79.193791 16.80223
-11.972279 -78.505657 16.921138
-11.733137 -79.569572 15.697321
-15.410972 -78.900807 11.188328
-14.904438 -78.889328 12.312837
-15.695294 -77.932674 12.353657
-16.096713 -79.847847 7.550307
-16.32191 -78.970639 8.772239
-16.817766 -78.885608 7.53344
4.938631 -102.546112 -6.861976
5.607155 -103.360566 -8.090314
6.222265 -103.012055 -6.720478
4.25385 -101.692532 -5.650962
3.440571 -100.749806 -4.479297
3.638739 -102.041043 -7.020798
4.938631 -102.546112 -6.861976
4.25385 -101.692532 -5.650962
-0.053493 -100.225529 -7.203266
0.637722 -101.16671 -8.526854
1.164467 -100.901188 -7.216086
-12.024884 -93.92564 -23.510301
-11.742522 -94.296456 -22.715624
-12.863475 -92.861671 -23.629131
-12.024884 -93.92564 -23.510301
-13.128025 -92.572388 -21.690379
-12.197923 -93.730381 -21.769673
-12.760285 -92.989483 -20.752249
-13.428978 -92.187664 -22.670918
-13.128025 -92.572388 -21.690379
-13.99134 -91.446766 -21.653493
-12.863475 -92.861671 -23.629131
-13.428978 -92.187664 -22.670918
-14.253919 -90.737972 -17.633647
-14.73389 -89.902214 -16.486241
-15.532621 -89.121494 -18.619419
-16.012593 -88.285736 -17.472013
-15.938663 -88.646084 -19.661002
-15.532621 -89.121494 -18.619419
-16.812441 -87.353127 -19.61275
-17.248269 -86.571018 -18.444884
-17.66252 -86.032803 -19.485876
-15.938663 -88.646084 -19.661002
-16.812441 -87.353127 -19.61275
-20.124933 -82.139813 -21.540478
-19.800116 -82.646843 -20.434119
-20.124933 -82.139813 -21.540478
-21.019669 -80.626507 -21.561411
-19.976411 -79.765541 -8.88709
-19.511339 -80.211052 -7.615841
-19.751247 -80.590481 -10.135371
-19.976411 -79.765541 -8.88709
-20.439208 -79.292286 -10.057416
-22.144273 -75.082111 -7.73922
-22.748423 -73.832569 -7.833806
-21.835695 -77.757199 -13.746461
-21.337893 -78.343456 -12.499355
-21.56353 -78.590667 -14.853602
-21.835695 -77.757199 -13.746461
-21.261019 -79.408886 -15.954348
-20.79653 -79.997174 -14.84928
-21.56353 -78.590667 -14.853602
-20.935359 -80.244534 -17.122048
-21.261019 -79.408886 -15.954348
-10.194949 -74.233799 23.342512
-9.921093 -75.419467 22.231722
-2.78237 -79.977429 20.400264
-3.636701 -79.69677 20.35532
-1.921543 -80.364231 20.338773
-2.78237 -79.977429 20.400264
-2.421428 -81.305084 19.091393
-1.142078 -80.801002 20.205337
-1.921543 -80.364231 20.338773
-0.719106 -82.011677 19.059316
-1.191091 -82.876915 17.850333
-0.349597 -83.196705 17.879748
-1.142078 -80.801002 20.205337
-0.719106 -82.011677 19.059316
1.793006 -85.199489 16.679349
1.369642 -86.08567 15.403591
3.035262 -91.639423 9.525436
2.406973 -90.502854 10.599123
3.662685 -92.785225 8.375666
3.035262 -91.639423 9.525436
2.599031 -92.404774 8.236221
4.315888 -93.930843 7.240541
3.662685 -92.785225 8.375666
3.863289 -94.659256 5.919801
4.315888 -93.930843 7.240541
3.398471 -95.336689 4.65473
3.863289 -94.659256 5.919801
2.761635 -94.228008 5.821381
2.929234 -96.013596 3.309881
3.398471 -95.336689 4.65473
2.417911 -96.625236 2.002652
2.929234 -96.013596 3.309881
1.785493 -95.517082 3.249081
1.979998 -97.223434 0.681026
2.417911 -96.625236 2.002652
1.531671 -97.788078 -0.648062
1.979998 -97.223434 0.681026
0.825842 -96.693367 0.612765
0.935059 -98.240513 -2.005996
2.089215 -98.77058 -1.937736
1.531671 -97.788078 -0.648062
-0.812288 -96.676682 -0.837018
-0.249909 -96.216011 0.506072
-1.439712 -95.634681 0.385377
-0.172085 -97.66856 -2.040918
-0.812288 -96.676682 -0.837018
-1.361888 -97.087231 -2.161614
-1.229328 -99.566605 -7.247359
-0.053493 -100.225529 -7.203266
-0.702582 -99.301083 -5.936591
-1.797726 -99.737053 -8.533111
-1.229328 -99.566605 -7.247359
-2.446815 -98.812607 -7.266436
-2.425486 -99.83139 -9.821506
-1.797726 -99.737053 -8.533111
-2.970632 -99.875515 -10.987395
-2.425486 -99.83139 -9.821506
-3.56036 -99.027179 -9.718076
-3.601548 -99.829113 -12.167884
-2.970632 -99.875515 -10.987395
-4.810961 -98.867951 -11.920319
-5.271812 -98.102203 -10.654454
-5.977266 -97.898849 -11.690809
-3.601548 -99.829113 -12.167884
-4.810961 -98.867951 -11.920319
-5.504864 -99.331116 -15.529605
-6.050628 -98.555909 -14.182664
-6.134895 -99.069939 -16.626724
-5.054918 -99.953834 -16.747674
-5.504864 -99.331116 -15.529605
-7.256695 -98.07975 -16.448543
-7.706209 -97.406757 -15.25514
-8.378063 -97.039288 -16.295027
-6.80675 -98.702469 -17.666612
-6.134895 -99.069939 -16.626724
-7.256695 -98.07975 -16.448543
-7.4768 -98.283032 -18.581074
-6.355001 -99.27322 -18.759256
-6.80675 -98.702469 -17.666612
-8.033296 -97.907486 -19.513549
-7.4768 -98.283032 -18.581074
-7.605787 -98.424026 -20.566066
-8.033296 -97.907486 -19.513549
-10.039682 -95.902393 -19.165087
-10.467875 -95.293842 -18.045549
-10.039682 -95.902393 -19.165087
-10.542662 -95.493732 -20.05131
2.245429 -104.94426 -19.235259
2.970061 -105.120521 -17.9864
1.436062 -104.658741 -20.44942
2.245429 -104.94426 -19.235259
0.886503 -104.244846 -19.242287
0.598972 -104.288826 -21.532432
1.436062 -104.658741 -20.44942
-0.747778 -103.519443 -21.527036
-1.178076 -103.188534 -20.43387
-2.002991 -102.748649 -21.504458
0.598972 -104.288826 -21.532432
-0.747778 -103.519443 -21.527036
3 0 44 42
3 1 47 45
3 1 49 47
3 1 51 49
3 0 54 52
3 0 42 54
3 180 179 56
3 181 59 182
3 183 182 57
3 181 182 183
3 184 61 185
3 186 63 187
3 188 187 61
3 186 187 188
3 189 65 190
3 191 57 192
3 193 192 65
3 191 192 193
3 5 194 196
3 196 195 67
3 194 195 196
3 6 197 199
3 199 198 69
3 197 198 199
3 6 200 201
3 2 202 203
3 3 204 205
3 207 206 72
3 7 75 73
3 7 76 75
3 7 78 76
3 8 81 79
3 8 82 81
3 4 85 83
3 9 88 86
3 9 90 88
3 9 92 90
3 5 95 93
3 5 67 95
3 10 208 210
3 208 98 209
3 208 209 210
3 10 99 98
3 11 103 102
3 13 104 43
3 13 105 104
3 213 212 106
3 211 212 213
3 14 108 107
3 15 109 46
3 15 110 109
3 15 112 110
3 17 113 48
3 17 114 113
3 17 116 114
3 19 117 50
3 19 118 117
3 20 121 119
3 22 122 53
3 22 123 122
3 22 125 123
3 11 126 55
3 11 102 126
3 24 214 216
3 214 215 216
3 26 130 128
3 27 131 58
3 27 132 131
3 217 133 218
3 219 218 100
3 217 218 219
3 28 134 60
3 28 135 134
3 28 136 135
3 220 137 221
3 29 222 224
3 222 138 223
3 222 223 224
3 29 139 138
3 29 141 139
3 31 142 62
3 31 143 142
3 225 144 226
3 227 226 101
3 225 226 227
3 32 145 64
3 32 146 145
3 32 147 146
3 26 148 66
3 26 128 148
3 33 228 230
3 228 149 229
3 228 229 230
3 33 150 149
3 231 151 232
3 234 233 68
3 12 235 237
3 235 152 236
3 235 236 237
3 239 238 70
3 241 240 71
3 242 153 243
3 244 243 129
3 242 243 244
3 245 154 246
3 247 155 248
3 249 248 154
3 247 248 249
3 16 156 111
3 34 250 252
3 252 251 74
3 250 251 252
3 34 253 254
3 34 255 256
3 35 157 77
3 35 158 157
3 18 159 115
3 36 160 80
3 36 161 160
3 36 162 161
3 37 257 259
3 257 163 258
3 257 258 259
3 37 164 163
3 30 165 140
3 38 166 84
3 38 167 166
3 21 168 120
3 39 169 87
3 39 170 169
3 39 171 170
3 40 172 89
3 40 173 172
3 40 174 173
3 41 260 262
3 262 261 91
3 260 261 262
3 41 263 265
3 263 175 264
3 263 264 265
3 23 176 124
3 266 177 267
3 268 267 94
3 266 267 268
3 270 269 177
3 272 271 96
3 25 178 127
3 274 273 97
3 42 43 11
3 44 43 42
3 44 13 43
3 45 46 14
3 47 46 45
3 47 15 46
3 47 48 15
3 49 48 47
3 49 17 48
3 49 50 17
3 51 50 49
3 51 19 50
3 52 53 20
3 54 53 52
3 54 22 53
3 54 55 22
3 42 55 54
3 42 11 55
3 56 275 277
3 277 276 24
3 275 276 277
3 279 278 56
3 57 58 26
3 59 58 57
3 59 27 58
3 280 60 281
3 282 60 283
3 284 28 285
3 286 285 60
3 284 285 286
3 288 287 28
3 61 289 290
3 61 291 293
3 291 29 292
3 291 292 293
3 61 62 29
3 63 62 61
3 63 31 62
3 294 64 295
3 65 296 298
3 296 64 297
3 296 297 298
3 65 32 64
3 65 66 32
3 57 66 65
3 57 26 66
3 299 33 300
3 67 301 303
3 301 68 302
3 301 302 303
3 304 68 305
3 306 305 67
3 304 305 306
3 308 307 68
3 69 70 12
3 309 70 310
3 311 310 69
3 309 310 311
3 313 312 70
3 314 71 315
3 316 71 317
3 319 318 71
3 72 320 321
3 323 322 72
3 73 74 16
3 75 74 73
3 75 34 74
3 75 324 326
3 326 325 34
3 324 325 326
3 76 327 329
3 329 328 75
3 327 328 329
3 76 330 331
3 76 332 334
3 332 77 333
3 332 333 334
3 78 77 76
3 78 35 77
3 79 80 18
3 81 80 79
3 81 36 80
3 81 335 337
3 337 336 36
3 335 336 337
3 82 338 340
3 340 339 81
3 338 339 340
3 82 341 343
3 341 37 342
3 341 342 343
3 83 84 30
3 85 84 83
3 85 38 84
3 86 87 21
3 88 87 86
3 88 39 87
3 88 89 39
3 90 89 88
3 90 40 89
3 90 91 40
3 92 91 90
3 92 41 91
3 93 94 23
3 95 94 93
3 95 344 346
3 346 345 94
3 344 345 346
3 95 347 349
3 347 96 348
3 347 348 349
3 67 96 95
3 67 350 352
3 352 351 96
3 350 351 352
3 353 97 354
3 355 354 25
3 353 354 355
3 98 356 358
3 356 97 357
3 356 357 358
3 98 359 361
3 361 360 97
3 359 360 361
3 98 362 363
3 99 364 366
3 366 365 98
3 364 365 366
3 99 367 368
3 369 100 370
3 371 100 372
3 374 373 100
3 375 101 376
3 377 101 378
3 380 379 101
3 102 381 383
3 383 382 5
3 381 382 383
3 103 384 386
3 386 385 102
3 384 385 386
3 103 387 389
3 387 12 388
3 387 388 389
3 43 103 11
3 104 103 43
3 104 12 103
3 104 69 12
3 105 69 104
3 105 6 69
3 106 390 392
3 392 391 2
3 390 391 392
3 394 393 106
3 107 395 397
3 397 396 3
3 395 396 397
3 108 398 400
3 400 399 107
3 398 399 400
3 108 401 402
3 46 108 14
3 109 108 46
3 109 403 405
3 405 404 108
3 403 404 405
3 109 406 408
3 406 72 407
3 406 407 408
3 110 72 109
3 110 409 411
3 411 410 72
3 409 410 411
3 110 412 414
3 412 111 413
3 412 413 414
3 112 111 110
3 112 16 111
3 48 112 15
3 113 112 48
3 113 16 112
3 113 73 16
3 114 73 113
3 114 7 73
3 114 115 7
3 116 115 114
3 116 18 115
3 50 116 17
3 117 116 50
3 117 18 116
3 117 79 18
3 118 79 117
3 118 8 79
3 119 120 4
3 121 120 119
3 121 21 120
3 53 121 20
3 122 121 53
3 122 21 121
3 122 86 21
3 123 86 122
3 123 9 86
3 123 124 9
3 125 124 123
3 125 23 124
3 55 125 22
3 126 125 55
3 126 23 125
3 126 93 23
3 102 93 126
3 102 5 93
3 416 415 24
3 417 127 418
3 419 127 420
3 421 25 422
3 423 422 127
3 421 422 423
3 424 25 425
3 427 426 25
3 428 10 429
3 128 129 0
3 130 129 128
3 130 430 432
3 432 431 129
3 430 431 432
3 58 130 26
3 131 130 58
3 131 433 435
3 435 434 130
3 433 434 435
3 131 436 437
3 132 438 440
3 440 439 131
3 438 439 440
3 132 441 443
3 441 2 442
3 441 442 443
3 100 444 446
3 444 59 445
3 444 445 446
3 133 59 100
3 133 27 59
3 60 447 449
3 447 133 448
3 447 448 449
3 134 133 60
3 134 27 133
3 134 132 27
3 135 132 134
3 135 2 132
3 135 106 2
3 136 106 135
3 136 450 452
3 452 451 106
3 450 451 452
3 453 136 454
3 455 454 28
3 453 454 455
3 456 136 457
3 459 458 136
3 460 3 461
3 462 3 463
3 464 107 465
3 466 465 3
3 464 465 466
3 137 467 469
3 467 107 468
3 467 468 469
3 137 14 107
3 470 137 471
3 138 472 474
3 472 137 473
3 472 473 474
3 138 14 137
3 138 45 14
3 139 45 138
3 139 1 45
3 139 140 1
3 141 140 139
3 141 30 140
3 62 141 29
3 142 141 62
3 142 30 141
3 142 83 30
3 143 83 142
3 143 4 83
3 101 475 477
3 475 63 476
3 475 476 477
3 144 63 101
3 144 31 63
3 64 478 480
3 478 144 479
3 478 479 480
3 145 144 64
3 145 31 144
3 145 143 31
3 146 143 145
3 146 4 143
3 146 119 4
3 147 119 146
3 147 20 119
3 66 147 32
3 148 147 66
3 148 20 147
3 148 52 20
3 128 52 148
3 128 0 52
3 481 24 482
3 481 482 483
3 149 484 485
3 149 486 488
3 486 24 487
3 486 487 488
3 149 56 24
3 150 56 149
3 150 489 491
3 491 490 56
3 489 490 491
3 151 492 493
3 151 494 495
3 68 496 498
3 496 151 497
3 496 497 498
3 499 151 500
3 501 500 68
3 499 500 501
3 503 502 151
3 505 504 5
3 152 506 507
3 152 508 509
3 70 152 12
3 510 152 511
3 512 511 70
3 510 511 512
3 514 513 152
3 71 515 516
3 518 517 71
3 129 44 0
3 153 44 129
3 153 13 44
3 519 153 520
3 154 521 523
3 521 153 522
3 521 522 523
3 154 13 153
3 154 105 13
3 155 105 154
3 155 6 105
3 525 524 2
3 526 155 527
3 528 155 529
3 530 6 531
3 532 531 155
3 530 531 532
3 534 533 6
3 536 535 3
3 111 537 538
3 156 539 541
3 541 540 111
3 539 540 541
3 156 542 543
3 74 156 16
3 544 156 545
3 546 545 74
3 544 545 546
3 548 547 156
3 550 549 34
3 77 551 552
3 157 553 555
3 555 554 77
3 553 554 555
3 157 556 557
3 157 558 559
3 158 560 562
3 562 561 157
3 560 561 562
3 158 563 564
3 115 78 7
3 159 78 115
3 159 35 78
3 80 159 18
3 160 159 80
3 160 35 159
3 160 158 35
3 161 158 160
3 161 565 567
3 567 566 158
3 565 566 567
3 161 568 569
3 162 570 572
3 572 571 161
3 570 571 572
3 162 573 575
3 573 33 574
3 573 574 575
3 576 162 577
3 578 577 36
3 576 577 578
3 163 579 581
3 579 162 580
3 579 580 581
3 163 33 162
3 163 150 33
3 164 150 163
3 164 582 584
3 584 583 150
3 582 583 584
3 140 51 1
3 165 51 140
3 165 19 51
3 84 165 30
3 166 165 84
3 166 19 165
3 166 118 19
3 167 118 166
3 167 8 118
3 120 85 4
3 168 85 120
3 168 38 85
3 87 168 21
3 169 168 87
3 169 38 168
3 169 167 38
3 170 167 169
3 170 8 167
3 170 82 8
3 171 82 170
3 171 37 82
3 89 171 39
3 172 171 89
3 172 37 171
3 172 164 37
3 173 164 172
3 173 585 587
3 587 586 164
3 585 586 587
3 173 588 589
3 174 590 592
3 592 591 173
3 590 591 592
3 174 593 594
3 91 174 40
3 595 174 596
3 597 596 91
3 595 596 597
3 599 598 174
3 175 600 601
3 175 602 604
3 602 10 603
3 602 603 604
3 124 92 9
3 176 92 124
3 176 41 92
3 94 176 23
3 177 176 94
3 177 41 176
3 177 175 41
3 605 175 606
3 607 606 177
3 605 606 607
3 608 10 609
3 610 609 175
3 608 609 610
3 611 99 612
3 613 612 10
3 611 612 613
3 614 99 615
3 617 616 99
3 96 618 619
3 621 620 96
3 127 622 623
3 178 624 626
3 626 625 127
3 624 625 626
3 178 627 628
3 97 178 25
3 629 178 630
3 631 630 97
3 629 630 631
3 633 632 178
