ply
format ascii 1.0
element vertex 650
property float x
property float y
property float z
element face 726
property list uchar int vertex_index
end_header
-29.654617 83.020988 19.348715
-28.191431 98.320961 -8.323021
-28.181475 67.190765 41.694912
-26.31517 92.600571 17.423901
-28.983591 92.385872 5.847461
-33.341354 75.063507 -37.426144
-31.053873 71.268654 20.939232
-30.152206 71.033386 31.008354
-27.518299 81.100525 30.533821
-31.156681 80.474159 8.738324
-31.234392 86.993767 -4.567086
-22.576712 105.612068 -11.253939
-27.055216 100.734612 -22.803242
-30.697407 90.228012 -31.624605
-32.068691 63.995361 17.948811
-25.563309 97.100342 10.454553
-30.738489 65.449478 30.619287
-30.297991 64.307915 36.096447
-27.80814 74.561569 36.433292
-30.522261 77.347656 19.889576
-31.089268 76.246208 15.025334
-30.392595 82.21888 14.008677
-28.665834 95.588631 -1.127128
-30.087791 90.252747 0.399149
-29.891226 93.225853 -6.740716
-29.761171 94.916649 -13.747066
-23.940172 104.269562 -23.868807
-26.190983 100.515488 -29.119143
-28.902172 96.306625 -27.53759
-28.199165 95.342072 -33.6035
-29.904785 89.053482 -37.215813
-29.588106 62.100285 41.401508
-28.290628 88.385963 18.324577
-29.365961 87.95974 12.797784
-27.787085 93.076195 11.759596
-27.211994 97.097832 4.632442
-26.553703 100.285049 -2.684009
-31.452347 65.702209 21.483551
-31.070301 65.894539 25.769442
-30.632446 71.626816 25.63863
-29.930105 77.430077 25.290958
-29.377394 69.702316 36.439724
-29.146587 76.332321 30.960665
-28.76594 82.645599 24.937893
-26.954054 87.103912 24.362591
-31.59556 70.130257 16.497641
-31.841394 74.121269 10.596179
-30.206886 86.78434 7.368105
-31.191799 84.13533 2.187132
-23.72164 103.60833 -3.925313
-25.819763 102.556076 -9.871043
-24.996895 103.887115 -17.172585
-27.634859 100.13266 -15.615764
-29.43395 96.069962 -20.741846
-31.039124 90.894226 -25.287542
-32.598289 84.309639 -28.890684
-32.133373 83.3592 -34.851295
-32.282318 60.846745 18.971643
-31.919054 62.262733 20.215927
-30.147335 80.105476 19.728046
-30.450527 80.019089 16.851994
-30.018255 82.890335 16.563951
-28.383247 97.200294 -4.716271
-29.271254 94.541412 -3.85189
-29.122097 95.839363 -7.546119
-29.841146 94.161324 -10.336623
-28.9489 96.910995 -11.244501
-24.47732 102.228279 -29.776485
-25.623453 100.024551 -32.15765
-27.228264 98.114716 -31.419777
-27.366564 90.585281 18.04302
-28.034393 90.820053 15.124949
-27.078051 93.029572 14.588721
-25.172318 99.071533 6.727467
-26.478279 97.246078 7.410267
-26.070211 99.01741 4.08745
-26.867069 98.80883 1.07082
-25.630264 100.750397 0.26828
-33.681412 70.661423 -38.744751
-33.156902 69.159531 -41.030712
-32.859203 74.029388 -39.906822
-31.260305 63.14978 25.694815
-31.093527 62.968193 28.020948
-30.488886 68.100166 30.966827
-30.667578 68.76416 28.24222
-30.413706 71.331909 28.375963
-30.328094 74.503304 25.553288
-30.044832 74.349907 28.191622
-28.966743 64.852249 41.528049
-29.497246 66.017265 38.948128
-28.815687 68.789177 39.005859
-27.665737 77.875107 33.590511
-28.547823 75.454994 33.878208
-28.399479 78.790794 30.888126
-28.912161 79.552109 28.270863
-28.163227 82.127731 27.738882
-27.966297 84.950737 24.69676
-27.214102 84.344292 27.387957
-31.260742 68.520027 21.162115
-31.521183 67.940346 19.043335
-31.297132 71.005714 18.495399
-31.108234 78.494545 12.040297
-31.424343 75.324448 12.808066
-31.505192 77.338593 9.74626
-31.617996 79.007774 6.462151
-29.192106 90.32399 9.150364
-29.762899 87.61422 10.062943
-29.676168 89.560593 6.567805
-30.68117 88.58683 -2.089137
-30.65638 87.240173 1.490965
-31.227541 85.534882 -1.079377
-31.815359 83.670433 -3.468129
-23.301147 104.657318 -7.729038
-24.792921 103.325935 -7.138597
-24.30595 104.279129 -10.759935
-25.628262 102.612305 -23.419018
-24.487991 104.205803 -20.620895
-26.103565 102.432358 -19.919018
-26.456966 102.081276 -16.579311
-27.378613 100.541702 -19.301983
-28.545197 98.289848 -18.310982
-28.267782 98.697502 -21.573591
-29.850863 93.454826 -29.419441
-30.048615 93.733665 -26.372389
-30.907759 90.682816 -28.455841
-31.899035 87.508064 -27.225965
-31.665115 87.548599 -30.278858
-32.454483 83.789116 -31.878056
-31.489246 86.859924 -33.18557
-32.258316 65.558235 15.536892
-25.086512 94.086479 17.165766
-25.978609 94.895706 14.034029
-24.700102 96.467995 13.438677
-24.16227 98.619514 9.813209
-33.704193 75.948235 -34.729973
-30.561512 64.629318 33.467709
-30.255447 67.681755 33.497597
-27.175282 69.635773 41.538788
-27.965183 71.041565 39.141525
-26.950857 73.247452 38.957947
-26.818163 76.527824 36.270924
-26.612913 79.967392 33.261311
-26.371767 83.160797 30.209171
-30.821842 74.29512 20.357199
-31.070539 73.903511 17.932491
-30.779903 77.044281 17.405954
-30.77301 79.265411 14.489414
-30.765234 81.357635 11.455886
-28.798223 94.19091 2.299888
-29.549059 91.426003 3.078372
-29.440935 93.044365 -0.557809
-30.03511 91.660103 -3.095836
-30.585087 90.249191 -5.616631
-31.256498 88.148743 -8.048297
-30.568569 91.309402 -9.096872
-30.568253 92.089966 -12.779449
-30.45368 92.963181 -16.238792
-23.243948 104.119331 -27.112719
-24.972294 102.677475 -26.673868
-26.589895 100.807762 -26.142269
-28.041761 98.617287 -25.154776
-27.64246 98.558647 -28.34086
-28.647842 95.876663 -30.518625
-29.588701 92.863602 -32.506279
-30.313948 89.881638 -34.451759
-29.112518 92.387794 -35.36607
-28.240124 63.607868 44.081821
-27.402557 62.095745 46.501163
-27.298424 65.800766 44.169151
-26.237862 68.006371 43.858063
-29.030336 85.792618 18.947142
-29.51273 85.534668 16.233694
-28.875717 88.21048 15.654643
-28.664255 90.662743 12.148792
-28.441793 92.782196 8.863921
-26.807407 95.279335 10.893865
-27.568054 95.111412 8.155455
-28.192101 94.776459 5.390884
-27.930174 96.635345 1.574315
-27.660912 98.194458 -2.0661
-27.342848 99.606049 -5.737809
-31.644714 62.95417 21.791636
-31.433456 63.143555 23.689522
-31.242067 65.887962 23.633705
-31.047613 68.712158 23.503447
-30.901264 65.702324 28.204948
-30.866642 68.650307 25.846161
-30.832584 71.605812 23.271048
-30.587435 74.516182 22.811871
-30.253529 77.323967 22.658699
-29.792645 80.25016 22.475266
-30.017426 63.077469 38.794369
-29.916014 66.905106 36.361675
-29.816671 70.296638 33.90057
-28.646626 72.171593 36.640785
-29.220272 73.108398 33.942715
-29.706722 73.688217 31.114573
-29.550526 77.176758 28.080429
-29.407526 80.050323 25.279652
-29.225323 83.141273 21.976236
-28.529142 85.615395 21.711691
-27.695444 87.869141 21.342249
-26.673208 89.971275 20.86282
-26.081665 86.312302 26.92815
-25.763727 89.162468 23.664051
-25.414967 91.644897 20.590456
-31.72871 64.84787 19.709841
-31.829496 67.05928 17.226534
-31.991251 68.846451 14.543989
-31.364199 73.08638 15.760335
-31.710554 72.070175 13.714223
-29.918934 85.23954 13.335111
-30.302616 84.587929 10.722775
-30.696217 83.727119 8.131042
-30.169155 88.488731 4.002756
-30.666109 85.662964 4.788229
-31.151217 82.449272 5.608305
-23.218731 102.102486 2.566984
-24.218943 102.284554 -0.269434
-25.269983 102.128258 -3.568093
-26.208048 101.564331 -6.552361
-27.112648 100.584839 -9.323615
-22.068998 106.160858 -14.760461
-22.731104 105.55513 -21.274733
-23.286501 105.403076 -17.691072
-23.823429 104.950417 -14.090109
-25.387838 103.392891 -13.572492
-26.758141 101.503143 -12.844742
-28.005812 99.184555 -11.978016
-28.785885 97.65596 -14.880081
-29.578115 95.711296 -17.214941
-30.426867 93.232895 -19.496382
-29.216799 96.265114 -24.221106
-30.211882 93.756058 -23.0026
-31.145891 90.801819 -21.978172
-31.933914 87.771843 -24.080988
-33.326473 80.520325 -30.377703
-33.114132 79.918732 -33.483505
-32.779079 79.39679 -36.185535
-31.070963 86.431595 -36.045578
-31.785322 82.527405 -37.48278
-32.404797 78.361816 -38.746632
-31.86231 61.588316 21.100916
-31.989404 60.971115 20.682156
-25.276122 99.608315 -33.660336
-24.70036 100.797744 -32.486864
-26.126921 98.763199 -33.306582
-25.276122 99.608315 -33.660336
-25.407347 99.883087 3.648038
-25.621265 99.044472 5.407458
-24.9584 99.910148 4.968046
-25.187373 100.749581 1.738452
-25.850237 99.883904 2.177865
-25.407347 99.883087 3.648038
-33.511383 72.862465 -38.085448
-33.916369 71.170941 -37.429056
-33.74634 73.371983 -36.769752
-31.114888 61.377868 29.070729
-31.191459 61.624088 27.846086
-31.549658 85.953873 -5.701456
-31.840142 84.292206 -5.151978
-31.524876 85.3321 -4.017607
-22.93893 105.134693 -9.491489
-22.406739 105.19022 -7.907823
-22.044522 105.667595 -9.670274
-32.286093 63.18453 17.271934
-32.392906 61.610222 17.78335
-32.175505 62.421053 18.460227
-32.163504 64.776798 16.742852
-32.380905 63.965967 16.065974
-32.286093 63.18453 17.271934
-24.184039 95.987327 14.933252
-24.893307 95.277237 15.302222
-24.377244 94.79657 16.796796
-23.375034 99.206111 9.486224
-23.661611 98.173458 11.341516
-23.992501 99.490238 8.032224
-23.375034 99.206111 9.486224
-33.837566 76.229256 -33.334533
-34.106378 74.169014 -34.029875
-30.429752 64.468616 34.782078
-30.593856 62.925636 34.560753
-30.462096 62.764934 35.875122
-26.456236 72.519073 40.106613
-27.063069 71.441612 40.248368
-26.568448 70.713234 41.397034
-26.209005 77.634807 35.931714
-26.312665 75.943077 37.362207
-26.106381 79.354591 34.426907
-26.715538 78.247608 34.766118
-26.209005 77.634807 35.931714
-25.995218 80.88147 33.028315
-26.106381 79.354591 34.426907
-22.917081 103.858722 -28.641241
-22.258102 104.623253 -27.46288
-28.284387 61.808096 45.157331
-28.623113 62.282637 44.058803
-26.851374 63.172788 46.451969
-26.950632 61.373926 47.50699
-26.799307 65.025299 45.285963
-27.35049 63.948256 45.335157
-26.851374 63.172788 46.451969
-26.269026 66.128101 45.130419
-26.768143 66.903569 44.013607
-26.799307 65.025299 45.285963
-32.765663 68.773899 -42.112631
-32.713285 71.012848 -41.575105
-31.440938 61.797877 24.667147
-31.53242 61.944143 23.624462
-30.819876 65.575901 29.412118
-30.926129 64.039139 29.380014
-30.844742 63.912716 30.587184
-29.802766 62.588877 40.097938
-30.050893 61.21558 39.884113
-29.836233 60.726988 41.187683
-25.571521 85.589405 28.347575
-26.226716 84.736549 28.568661
-25.716572 84.013653 29.988086
-25.065183 89.928093 23.411819
-25.281902 88.532856 25.037285
-24.890804 91.169308 21.875021
-25.589347 90.403683 22.127254
-25.065183 89.928093 23.411819
-24.706336 92.416507 20.233894
-24.890804 91.169308 21.875021
-31.989389 72.506801 11.122407
-31.923969 71.481255 12.681429
-31.775974 73.095722 12.155201
-32.096097 73.250896 9.638725
-31.989389 72.506801 11.122407
-31.418764 82.527145 2.743978
-31.398473 81.684116 4.454565
-31.171508 83.292301 3.897718
-31.591003 87.035961 -9.222317
-31.251838 88.686158 -9.862243
-22.358593 102.628869 2.201856
-22.698463 101.818463 4.03369
-23.173307 103.595169 -2.513954
-22.878941 104.210289 -4.329645
-23.970292 102.946442 -2.097374
-23.421958 102.933281 -0.686014
-23.173307 103.595169 -2.513954
-21.732616 106.343929 -16.478367
-21.025168 106.615711 -15.000092
-23.335638 104.912346 -22.57177
-22.359357 105.537991 -22.928509
-22.963891 104.895207 -24.225546
-32.667797 84.312657 -27.372822
-32.31817 85.911869 -26.540463
-32.248662 85.908851 -28.058324
-33.032882 82.529373 -28.170968
-32.667797 84.312657 -27.372822
-32.962381 82.414982 -29.634194
-33.396974 80.634716 -28.914478
-33.032882 82.529373 -28.170968
-31.5849 81.848186 -38.769573
-31.241964 83.840813 -38.162649
-31.894638 79.765392 -39.401499
-32.09506 80.444611 -38.114706
-31.5849 81.848186 -38.769573
-32.157493 77.747215 -39.93453
-31.894638 79.765392 -39.401499
-32.171036 60.263121 20.060014
-32.376987 59.335884 19.513427
-32.100686 61.554739 19.593785
-32.171036 60.263121 20.060014
-31.989404 60.971115 20.682156
-30.347176 62.368195 37.192642
-30.462096 62.764934 35.875122
-24.127294 101.899608 -31.296281
-23.533767 102.913196 -29.973125
-25.050387 101.126415 -30.967067
-24.127294 101.899608 -31.296281
-24.70036 100.797744 -32.486864
-26.929326 97.808281 -32.937645
-26.425859 99.069634 -31.788714
-26.126921 98.763199 -33.306582
-27.414777 96.421959 -34.029506
-27.713715 96.728394 -32.511638
-26.929326 97.808281 -32.937645
-27.917112 94.975194 -35.025161
-27.414777 96.421959 -34.029506
-34.100104 68.823521 -37.953508
-33.916369 71.170941 -37.429056
-33.841467 68.252685 -39.112702
-34.100104 68.823521 -37.953508
-33.419157 69.910477 -39.887732
-33.579212 67.501739 -40.255682
-33.841467 68.252685 -39.112702
-32.564436 73.447777 -41.01316
-32.713285 71.012848 -41.575105
-33.008053 71.594459 -40.468767
-31.274848 61.714882 26.683019
-31.354363 61.800989 25.669793
-31.176916 63.058987 26.857881
-31.274848 61.714882 26.683019
-31.191459 61.624088 27.846086
-31.732264 76.591454 8.728788
-31.900365 74.982792 9.153747
-31.673293 75.729931 10.171219
-31.788667 77.426044 7.086734
-31.732264 76.591454 8.728788
-31.561594 78.173183 8.104205
-31.846308 78.270176 5.491356
-31.788667 77.426044 7.086734
-31.487561 83.919713 -0.577225
-31.46969 83.219936 1.056029
-31.20967 84.835106 0.553878
-31.78147 82.987488 -1.771601
-31.487561 83.919713 -0.577225
-31.52145 84.602657 -2.273753
-32.075516 81.941197 -2.731747
-31.78147 82.987488 -1.771601
-32.123592 82.611344 -4.501654
-32.075516 81.941197 -2.731747
-32.123592 82.611344 -4.501654
-31.840142 84.292206 -5.151978
-22.668695 104.734783 -6.231508
-22.406739 105.19022 -7.907823
-23.511394 104.132824 -5.827176
-22.878941 104.210289 -4.329645
-22.668695 104.734783 -6.231508
-30.301695 87.103852 -38.029165
-29.661485 88.501358 -38.488928
-32.508382 60.077359 18.306317
-32.376987 59.335884 19.513427
-32.508382 60.077359 18.306317
-32.392906 61.610222 17.78335
-32.512409 64.695314 14.771873
-32.380905 63.965967 16.065974
-32.354433 66.442741 14.199484
-32.512409 64.695314 14.771873
-23.930527 97.097699 13.15425
-24.184039 95.987327 14.933252
-24.431186 97.543755 11.625943
-23.930527 97.097699 13.15425
-23.661611 98.173458 11.341516
-24.497526 99.716248 6.489352
-24.667294 98.845523 8.270338
-23.992501 99.490238 8.032224
-24.9584 99.910148 4.968046
-24.497526 99.716248 6.489352
-33.927759 73.814346 -35.421667
-34.106378 74.169014 -34.029875
-33.522773 75.505871 -36.078058
-33.74634 73.371983 -36.769752
-33.927759 73.814346 -35.421667
-30.769548 63.715458 31.79041
-30.844742 63.912716 30.587184
-30.68106 63.305378 33.214621
-30.593856 62.925636 34.560753
-30.650001 65.039398 32.043498
-30.769548 63.715458 31.79041
-30.68106 63.305378 33.214621
-26.379012 74.302891 38.705719
-26.456236 72.519073 40.106613
-26.88451 74.887638 37.614435
-26.379012 74.302891 38.705719
-26.312665 75.943077 37.362207
-25.874645 82.478172 31.502245
-26.49234 81.564095 31.735241
-25.995218 80.88147 33.028315
-25.716572 84.013653 29.988086
-25.874645 82.478172 31.502245
-30.907873 90.266487 -10.38653
-31.251838 88.686158 -9.862243
-30.912534 89.729073 -8.572584
-30.907715 90.656769 -12.227818
-30.907873 90.266487 -10.38653
-30.568411 91.699684 -10.93816
-30.914741 90.992981 -14.005554
-30.907715 90.656769 -12.227818
-30.857455 91.429588 -15.735226
-30.914741 90.992981 -14.005554
-30.510966 92.526574 -14.50912
-30.844443 91.676762 -17.3474
-30.857455 91.429588 -15.735226
-21.701059 106.06617 -11.489404
-22.044522 105.667595 -9.670274
-22.615779 104.820091 -25.847502
-22.258102 104.623253 -27.46288
-23.59206 104.194446 -25.490763
-22.963891 104.895207 -24.225546
-22.615779 104.820091 -25.847502
-23.860634 103.173805 -28.444602
-22.917081 103.858722 -28.641241
-23.533767 102.913196 -29.973125
-28.373788 93.498054 -35.906447
-28.655842 93.864933 -34.484785
-27.917112 94.975194 -35.025161
-28.820016 92.019306 -36.711828
-28.373788 93.498054 -35.906447
-29.21615 90.35215 -37.6367
-29.508651 90.720638 -36.290942
-28.820016 92.019306 -36.711828
-29.661485 88.501358 -38.488928
-29.21615 90.35215 -37.6367
-29.624049 60.257822 42.438413
-29.836233 60.726988 41.187683
-29.297104 61.528845 42.718647
-29.624049 60.257822 42.438413
-28.986422 62.904827 42.781918
-29.277425 63.476267 41.464779
-29.297104 61.528845 42.718647
-28.603434 64.230058 42.804935
-28.986422 62.904827 42.781918
-28.623113 62.282637 44.058803
-27.487832 60.323791 47.469078
-27.035907 59.601973 48.474905
-26.950632 61.373926 47.50699
-27.865603 61.052035 46.367002
-27.487832 60.323791 47.469078
-27.821341 62.851807 45.291492
-28.284387 61.808096 45.157331
-27.865603 61.052035 46.367002
-26.099739 69.898533 42.556672
-26.568448 70.713234 41.397034
-26.706572 68.821072 42.698425
-25.670334 67.212166 44.87831
-26.269026 66.128101 45.130419
-25.542865 68.96423 43.695771
-25.670334 67.212166 44.87831
-26.099739 69.898533 42.556672
-25.542865 68.96423 43.695771
-33.211069 66.940815 -41.426016
-33.579212 67.501739 -40.255682
-33.211069 66.940815 -41.426016
-32.765663 68.773899 -42.112631
-31.638049 61.849451 22.675519
-31.72514 61.934034 21.88877
-31.539085 63.048862 22.740579
-31.638049 61.849451 22.675519
-31.53242 61.944143 23.624462
-31.34688 63.146667 24.692169
-31.440938 61.797877 24.667147
-31.354363 61.800989 25.669793
-31.022261 62.672073 29.288014
-31.114888 61.377868 29.070729
-30.997396 64.335259 28.112948
-31.022261 62.672073 29.288014
-30.926129 64.039139 29.380014
-30.206894 61.752972 38.541603
-30.050893 61.21558 39.884113
-30.157708 63.692692 37.445408
-30.347176 62.368195 37.192642
-30.206894 61.752972 38.541603
-25.440871 87.107773 26.669334
-25.571521 85.589405 28.347575
-25.922696 87.737385 25.296101
-25.440871 87.107773 26.669334
-25.281902 88.532856 25.037285
-24.542108 93.637298 18.521549
-25.25074 92.865688 18.878111
-24.706336 92.416507 20.233894
-24.377244 94.79657 16.796796
-24.542108 93.637298 18.521549
-31.781884 62.608452 21.003782
-31.86231 61.588316 21.100916
-31.72514 61.934034 21.88877
-32.2209 68.086849 13.703032
-32.354433 66.442741 14.199484
-32.124783 67.202343 15.04044
-32.064317 69.869393 13.096312
-31.850902 70.458313 14.129106
-31.923969 71.481255 12.681429
-32.2209 68.086849 13.703032
-32.064317 69.869393 13.096312
-32.096097 73.250896 9.638725
-31.900365 74.982792 9.153747
-31.631863 79.963368 4.881488
-31.384607 80.728523 6.035228
-31.398473 81.684116 4.454565
-31.846308 78.270176 5.491356
-31.631863 79.963368 4.881488
-31.418764 82.527145 2.743978
-31.46969 83.219936 1.056029
-31.560712 86.531361 -7.442061
-31.549658 85.953873 -5.701456
-31.245445 87.571255 -6.307691
-31.560712 86.531361 -7.442061
-31.591003 87.035961 -9.222317
-23.520732 101.231724 4.409111
-22.698463 101.818463 4.03369
-23.981606 101.425625 2.887805
-23.520732 101.231724 4.409111
-22.921852 102.842247 0.732195
-22.358593 102.628869 2.201856
-23.718837 102.19352 1.148775
-22.921852 102.842247 0.732195
-23.421958 102.933281 -0.686014
-24.481713 101.516659 1.469596
-23.981606 101.425625 2.887805
-23.718837 102.19352 1.148775
-24.924603 101.517476 -0.000577
-25.187373 100.749581 1.738452
-24.481713 101.516659 1.469596
-21.447201 106.340564 -13.242665
-21.025168 106.615711 -15.000092
-22.322855 105.886463 -13.0072
-21.701059 106.06617 -11.489404
-21.447201 106.340564 -13.242665
-21.709089 106.08971 -21.360895
-22.359357 105.537991 -22.928509
-22.063668 106.041065 -19.735504
-21.709089 106.08971 -21.360895
-22.341367 105.965038 -17.943673
-22.063668 106.041065 -19.735504
-23.008803 105.479103 -19.482903
-22.67775 105.781967 -16.225766
-21.732616 106.343929 -16.478367
-22.341367 105.965038 -17.943673
-30.831037 91.811619 -18.976194
-30.844443 91.676762 -17.3474
-30.440273 93.098038 -17.867587
-31.190549 90.596081 -20.21709
-30.831037 91.811619 -18.976194
-30.786379 92.017357 -20.737277
-31.563635 89.20647 -21.265723
-31.190549 90.596081 -20.21709
-31.957647 87.691483 -22.317131
-31.563635 89.20647 -21.265723
-31.539903 89.286831 -23.02958
-32.339889 86.109493 -23.313164
-31.957647 87.691483 -22.317131
-32.33561 86.043758 -24.967975
-31.916474 87.639954 -25.653477
-32.31817 85.911869 -26.540463
-32.339889 86.109493 -23.313164
-32.33561 86.043758 -24.967975
-33.729833 78.784336 -29.61562
-33.396974 80.634716 -28.914478
-33.648707 78.515301 -31.158398
-33.729833 78.784336 -29.61562
-33.542536 78.214505 -32.711299
-33.648707 78.515301 -31.158398
-33.220303 80.219528 -31.930604
-33.409162 77.933483 -34.106739
-33.837566 76.229256 -33.334533
-33.542536 78.214505 -32.711299
-30.884784 85.792908 -37.444048
-30.487874 87.742538 -36.630696
-30.301695 87.103852 -38.029165
-31.428142 84.4795 -36.764179
-30.884784 85.792908 -37.444048
-31.241964 83.840813 -38.162649
-32.384696 75.581001 -40.514625
-32.632 76.195602 -39.326727
-32.157493 77.747215 -39.93453
-32.564436 73.447777 -41.01316
-32.384696 75.581001 -40.514625
3 242 58 243
3 0 61 59
3 1 64 62
3 1 66 64
3 244 68 245
3 247 246 68
3 3 72 70
3 248 75 249
3 250 249 73
3 248 249 250
3 251 77 252
3 253 252 75
3 251 252 253
3 5 254 256
3 254 78 255
3 254 255 256
3 5 80 78
3 257 82 258
3 7 85 83
3 7 87 85
3 2 90 88
3 8 93 91
3 8 95 93
3 8 97 95
3 6 100 98
3 9 103 101
3 9 104 103
3 4 107 105
3 10 110 108
3 10 111 110
3 10 259 261
3 261 260 111
3 259 260 261
3 11 262 264
3 262 112 263
3 262 263 264
3 11 114 112
3 12 117 115
3 12 119 117
3 12 121 119
3 13 124 122
3 13 126 124
3 13 128 126
3 14 265 267
3 267 266 57
3 265 266 267
3 14 268 270
3 268 129 269
3 268 269 270
3 271 132 272
3 273 272 130
3 271 272 273
3 274 133 275
3 277 276 133
3 278 134 279
3 17 280 282
3 280 135 281
3 280 281 282
3 17 136 135
3 283 139 284
3 285 284 137
3 283 284 285
3 286 140 287
3 288 141 289
3 290 289 140
3 288 289 290
3 292 291 141
3 19 145 143
3 21 146 60
3 21 147 146
3 22 150 148
3 24 151 63
3 24 152 151
3 24 154 152
3 25 155 65
3 25 156 155
3 293 157 294
3 27 158 67
3 27 159 158
3 27 161 159
3 29 162 69
3 29 163 162
3 29 165 163
3 295 166 296
3 297 167 298
3 299 168 300
3 301 300 167
3 299 300 301
3 302 169 303
3 304 303 168
3 302 303 304
3 32 172 170
3 34 173 71
3 34 174 173
3 15 175 131
3 35 176 74
3 35 177 176
3 35 178 177
3 36 179 76
3 36 180 179
3 306 305 79
3 307 182 308
3 38 183 81
3 38 184 183
3 16 309 311
3 309 185 310
3 309 310 311
3 39 186 84
3 39 187 186
3 39 188 187
3 40 189 86
3 40 190 189
3 31 312 314
3 312 191 313
3 312 313 314
3 41 192 89
3 41 193 192
3 18 194 138
3 42 195 92
3 42 196 195
3 42 197 196
3 43 198 94
3 43 199 198
3 43 200 199
3 44 201 96
3 44 202 201
3 315 203 316
3 317 316 142
3 315 316 317
3 318 204 319
3 320 205 321
3 322 321 204
3 320 321 322
3 324 323 205
3 37 206 181
3 45 207 99
3 45 208 207
3 20 209 144
3 46 210 102
3 46 325 327
3 327 326 210
3 325 326 327
3 46 328 329
3 33 211 171
3 47 212 106
3 47 213 212
3 23 214 149
3 48 215 109
3 48 216 215
3 48 330 332
3 332 331 216
3 330 331 332
3 334 333 153
3 335 217 336
3 49 337 338
3 49 339 341
3 339 218 340
3 339 340 341
3 49 219 218
3 50 220 113
3 50 221 220
3 342 222 343
3 26 344 346
3 344 223 345
3 344 345 346
3 51 224 116
3 51 225 224
3 51 226 225
3 52 227 118
3 52 228 227
3 52 229 228
3 53 230 120
3 53 231 230
3 28 232 160
3 54 233 123
3 54 234 233
3 54 235 234
3 55 347 349
3 349 348 125
3 347 348 349
3 55 350 351
3 55 352 354
3 352 236 353
3 352 353 354
3 56 237 127
3 56 238 237
3 30 239 164
3 355 240 356
3 357 241 358
3 359 358 240
3 357 358 359
3 361 360 241
3 362 57 363
3 58 364 366
3 364 57 365
3 364 365 366
3 58 14 57
3 367 17 368
3 59 60 19
3 61 60 59
3 61 21 60
3 62 63 22
3 64 63 62
3 64 24 63
3 64 65 24
3 66 65 64
3 66 25 65
3 369 67 370
3 68 371 373
3 371 67 372
3 371 372 373
3 68 27 67
3 68 69 27
3 374 69 375
3 376 375 68
3 374 375 376
3 377 29 378
3 379 378 69
3 377 378 379
3 381 380 29
3 70 71 32
3 72 71 70
3 72 34 71
3 73 74 15
3 75 74 73
3 75 35 74
3 75 76 35
3 77 76 75
3 77 36 76
3 78 382 383
3 78 384 385
3 78 386 388
3 386 79 387
3 386 387 388
3 80 79 78
3 80 389 391
3 391 390 79
3 389 390 391
3 392 81 393
3 82 394 396
3 394 81 395
3 394 395 396
3 82 38 81
3 83 84 16
3 85 84 83
3 85 39 84
3 85 86 39
3 87 86 85
3 87 40 86
3 88 89 31
3 90 89 88
3 90 41 89
3 91 92 18
3 93 92 91
3 93 42 92
3 93 94 42
3 95 94 93
3 95 43 94
3 95 96 43
3 97 96 95
3 97 44 96
3 98 99 37
3 100 99 98
3 100 45 99
3 101 102 20
3 103 102 101
3 103 46 102
3 103 397 399
3 399 398 46
3 397 398 399
3 104 400 402
3 402 401 103
3 400 401 402
3 104 403 404
3 105 106 33
3 107 106 105
3 107 47 106
3 108 109 23
3 110 109 108
3 110 48 109
3 110 405 407
3 407 406 48
3 405 406 407
3 111 408 410
3 410 409 110
3 408 409 410
3 111 411 412
3 111 413 414
3 416 415 111
3 112 417 418
3 112 419 421
3 419 49 420
3 419 420 421
3 112 113 49
3 114 113 112
3 114 50 113
3 115 116 26
3 117 116 115
3 117 51 116
3 117 118 51
3 119 118 117
3 119 52 118
3 119 120 52
3 121 120 119
3 121 53 120
3 122 123 28
3 124 123 122
3 124 54 123
3 124 125 54
3 126 125 124
3 126 55 125
3 126 127 55
3 128 127 126
3 128 56 127
3 423 422 30
3 57 424 425
3 427 426 57
3 129 428 429
3 129 430 431
3 130 131 3
3 132 131 130
3 132 15 131
3 432 132 433
3 133 434 436
3 434 132 435
3 434 435 436
3 133 15 132
3 133 73 15
3 437 73 438
3 439 438 133
3 437 438 439
3 441 440 73
3 134 442 443
3 134 444 446
3 444 5 445
3 444 445 446
3 447 16 448
3 135 449 450
3 135 451 453
3 451 16 452
3 451 452 453
3 135 83 16
3 136 83 135
3 136 7 83
3 137 138 2
3 139 138 137
3 139 18 138
3 454 139 455
3 140 456 458
3 456 139 457
3 456 457 458
3 140 18 139
3 140 91 18
3 141 91 140
3 141 8 91
3 141 142 8
3 459 142 460
3 461 460 141
3 459 460 461
3 463 462 142
3 143 144 6
3 145 144 143
3 145 20 144
3 60 145 19
3 146 145 60
3 146 20 145
3 146 101 20
3 147 101 146
3 147 9 101
3 148 149 4
3 150 149 148
3 150 23 149
3 63 150 22
3 151 150 63
3 151 23 150
3 151 108 23
3 152 108 151
3 152 10 108
3 152 153 10
3 154 153 152
3 154 464 466
3 466 465 153
3 464 465 466
3 65 154 24
3 155 154 65
3 155 467 469
3 469 468 154
3 467 468 469
3 155 470 471
3 156 472 474
3 474 473 155
3 472 473 474
3 156 475 476
3 477 11 478
3 157 479 480
3 157 481 483
3 481 26 482
3 481 482 483
3 67 484 486
3 484 157 485
3 484 485 486
3 158 157 67
3 158 26 157
3 158 115 26
3 159 115 158
3 159 12 115
3 159 160 12
3 161 160 159
3 161 28 160
3 69 161 27
3 162 161 69
3 162 28 161
3 162 122 28
3 163 122 162
3 163 13 122
3 163 164 13
3 165 164 163
3 165 30 164
3 487 165 488
3 489 488 29
3 487 488 489
3 490 165 491
3 492 30 493
3 494 493 165
3 492 493 494
3 496 495 30
3 497 31 498
3 499 31 500
3 501 88 502
3 503 502 31
3 501 502 503
3 166 504 506
3 504 88 505
3 504 505 506
3 166 2 88
3 167 507 509
3 507 508 509
3 167 510 511
3 167 512 514
3 512 166 513
3 512 513 514
3 168 166 167
3 168 2 166
3 168 137 2
3 169 137 168
3 169 515 517
3 517 516 137
3 515 516 517
3 518 169 519
3 520 169 521
3 523 522 169
3 170 171 0
3 172 171 170
3 172 33 171
3 71 172 32
3 173 172 71
3 173 33 172
3 173 105 33
3 174 105 173
3 174 4 105
3 131 72 3
3 175 72 131
3 175 34 72
3 74 175 15
3 176 175 74
3 176 34 175
3 176 174 34
3 177 174 176
3 177 4 174
3 177 148 4
3 178 148 177
3 178 22 148
3 76 178 35
3 179 178 76
3 179 22 178
3 179 62 22
3 180 62 179
3 180 1 62
3 79 524 525
3 527 526 79
3 528 181 529
3 182 530 532
3 530 181 531
3 530 531 532
3 182 37 181
3 81 533 535
3 533 182 534
3 533 534 535
3 183 182 81
3 183 37 182
3 183 98 37
3 184 98 183
3 184 6 98
3 536 82 537
3 185 538 540
3 538 82 539
3 538 539 540
3 185 38 82
3 84 185 16
3 186 185 84
3 186 38 185
3 186 184 38
3 187 184 186
3 187 6 184
3 187 143 6
3 188 143 187
3 188 19 143
3 86 188 39
3 189 188 86
3 189 19 188
3 189 59 19
3 190 59 189
3 190 0 59
3 191 541 542
3 191 543 545
3 543 17 544
3 543 544 545
3 89 191 31
3 192 191 89
3 192 17 191
3 192 136 17
3 193 136 192
3 193 7 136
3 138 90 2
3 194 90 138
3 194 41 90
3 92 194 18
3 195 194 92
3 195 41 194
3 195 193 41
3 196 193 195
3 196 7 193
3 196 87 7
3 197 87 196
3 197 40 87
3 94 197 42
3 198 197 94
3 198 40 197
3 198 190 40
3 199 190 198
3 199 0 190
3 199 170 0
3 200 170 199
3 200 32 170
3 96 200 43
3 201 200 96
3 201 32 200
3 201 70 32
3 202 70 201
3 202 3 70
3 142 97 8
3 203 97 142
3 203 44 97
3 546 203 547
3 204 548 550
3 548 203 549
3 548 549 550
3 204 44 203
3 204 202 44
3 205 202 204
3 205 3 202
3 205 130 3
3 551 130 552
3 553 552 205
3 551 552 553
3 555 554 130
3 181 556 558
3 556 58 557
3 556 557 558
3 206 58 181
3 206 14 58
3 99 206 37
3 207 206 99
3 207 14 206
3 207 129 14
3 208 129 207
3 208 559 561
3 561 560 129
3 559 560 561
3 144 100 6
3 209 100 144
3 209 45 100
3 102 209 20
3 210 209 102
3 210 45 209
3 210 208 45
3 562 208 563
3 564 563 210
3 562 563 564
3 566 565 208
3 568 567 46
3 171 61 0
3 211 61 171
3 211 21 61
3 106 211 33
3 212 211 106
3 212 21 211
3 212 147 21
3 213 147 212
3 213 9 147
3 149 107 4
3 214 107 149
3 214 47 107
3 109 214 23
3 215 214 109
3 215 47 214
3 215 213 47
3 216 213 215
3 216 9 213
3 216 104 9
3 569 104 570
3 571 570 216
3 569 570 571
3 573 572 104
3 575 574 48
3 153 576 578
3 578 577 10
3 576 577 578
3 580 579 153
3 217 581 582
3 217 583 584
3 585 217 586
3 218 587 589
3 587 217 588
3 587 588 589
3 218 590 592
3 592 591 217
3 590 591 592
3 218 593 595
3 593 77 594
3 593 594 595
3 219 77 218
3 219 36 77
3 113 219 49
3 220 219 113
3 220 36 219
3 220 180 36
3 221 180 220
3 221 1 180
3 222 596 597
3 222 598 600
3 598 11 599
3 598 599 600
3 223 601 602
3 223 603 604
3 116 223 26
3 224 223 116
3 224 605 607
3 607 606 223
3 605 606 607
3 224 608 610
3 608 222 609
3 608 609 610
3 225 222 224
3 225 11 222
3 225 114 11
3 226 114 225
3 226 50 114
3 118 226 51
3 227 226 118
3 227 50 226
3 227 221 50
3 228 221 227
3 228 1 221
3 228 66 1
3 229 66 228
3 229 25 66
3 120 229 52
3 230 229 120
3 230 25 229
3 230 156 25
3 231 156 230
3 231 611 613
3 613 612 156
3 611 612 613
3 160 121 12
3 232 121 160
3 232 53 121
3 123 232 28
3 233 232 123
3 233 53 232
3 233 231 53
3 234 231 233
3 234 614 616
3 616 615 231
3 614 615 616
3 234 617 618
3 235 619 621
3 621 620 234
3 619 620 621
3 235 622 623
3 125 235 54
3 624 235 625
3 626 625 125
3 624 625 626
3 628 627 235
3 236 629 630
3 236 631 632
3 127 236 55
3 237 236 127
3 237 633 635
3 635 634 236
3 633 634 635
3 237 636 638
3 636 134 637
3 636 637 638
3 238 134 237
3 238 5 134
3 164 128 13
3 239 128 164
3 239 56 128
3 639 239 640
3 641 640 30
3 639 640 641
3 240 642 644
3 642 239 643
3 642 643 644
3 240 56 239
3 240 238 56
3 241 238 240
3 241 5 238
3 241 80 5
3 645 80 646
3 647 646 241
3 645 646 647
3 649 648 80
