ply
format ascii 1.0
element vertex 694
property float x
property float y
property float z
element face 795
property list uchar int vertex_index
end_header
36.065392 -3.958213 -22.754787
38.660393 -21.086172 -20.764055
38.127335 -31.381596 -2.521331
35.68412 13.021398 -40.643482
36.822697 -30.017202 -17.420744
38.870361 -24.007097 -4.993856
36.314487 4.436263 -31.36919
38.699265 -11.912525 -22.589125
39.06052 -4.407369 -30.761827
39.358784 -14.646382 -28.838461
35.36631 -38.881149 0.518288
36.060295 -34.462444 -9.149208
38.590031 -18.491417 -14.244009
38.27319 -26.724535 -12.04682
33.257011 20.920465 -50.398163
39.056801 3.654367 -39.396439
34.022701 3.543026 -26.971903
36.272453 0.144758 -27.04652
38.979164 -16.440439 -21.809299
39.200912 -12.937631 -25.961899
38.987022 -17.896172 -24.853689
34.241039 -40.388474 -3.139416
37.644947 -14.679832 -14.687207
37.809105 -17.789799 -10.319066
38.840374 -27.604895 -3.958109
38.781376 -25.249872 -8.702762
38.142704 -29.332451 -7.420906
37.274574 -30.738085 -10.672098
37.067432 -33.044014 -6.070168
33.764751 12.056868 -35.815296
31.003796 14.814538 -35.816219
33.186848 16.357342 -40.675858
32.081856 20.481802 -45.632496
34.809586 16.952263 -45.351124
39.689362 -5.626554 -34.194141
39.166794 -0.439111 -35.024719
37.868092 -25.734804 -19.164539
38.325089 -22.942066 -23.246016
38.041851 -20.273306 -5.96818
38.408882 -22.379908 -1.361261
39.100502 -26.059738 -0.022843
38.914364 -29.626381 1.357064
34.145264 7.819004 -31.529163
36.223347 8.682455 -35.931675
37.741196 -7.587218 -22.998518
37.891689 -3.79317 -26.985806
38.868446 -8.19951 -26.670033
39.473629 -9.246971 -30.162949
39.733501 -11.464527 -32.766491
38.816212 -31.311802 6.494578
38.035294 -33.262791 2.720938
36.895477 -35.157616 -0.931928
35.708157 -36.740723 -4.620338
34.745777 -38.045643 -7.748218
35.257767 -35.756935 -11.700275
35.922901 -7.678783 -18.743267
37.612267 -11.309304 -18.784641
38.600147 -15.393791 -18.451145
38.840137 -19.530712 -17.806454
38.701488 -21.524841 -9.684702
38.772884 -22.542479 -13.309687
38.424934 -23.9746 -16.601873
37.535172 -28.265974 -15.061727
36.390568 -32.237465 -13.449734
30.309902 24.260178 -50.319519
38.032433 0.354752 -31.305647
37.960762 4.618433 -35.609089
37.688942 8.684451 -40.118023
38.674141 7.659093 -44.143322
37.068424 12.683347 -44.991104
35.048824 -2.153079 -22.819033
35.100693 -0.08709 -24.892624
36.156525 -1.968967 -24.820013
38.898949 -18.626755 -21.409594
39.015438 -17.069101 -23.441835
38.803974 -19.61915 -22.797113
38.537426 -29.597002 -3.257126
38.533005 -28.482582 -5.750499
38.122395 -30.433121 -4.987778
37.658791 -31.153475 -6.801412
37.609257 -32.251472 -4.298222
34.873283 12.644075 -38.348499
33.610828 14.195745 -38.303562
34.513691 14.686526 -40.58057
34.027916 16.761116 -42.916431
35.286999 15.029488 -42.971657
39.889389 -6.72265 -35.639751
39.772346 -3.799506 -36.357098
39.992733 -5.073241 -37.786774
37.367466 -27.927017 -18.249331
37.624691 -26.599373 -20.255714
37.09026 -28.874237 -19.35195
39.191456 -26.940674 2.363399
39.090614 -27.882545 0.491024
39.144062 -28.707151 3.269231
35.238686 4.071806 -29.183372
33.994183 5.675642 -29.091719
35.248001 6.07329 -31.246416
35.224247 8.380394 -33.713692
36.25148 6.502391 -33.454865
38.283955 -9.759882 -22.708874
38.394009 -7.950801 -24.80813
38.767132 -9.963393 -24.696024
39.305946 -13.665163 -27.421621
39.34132 -11.107085 -28.092665
39.466919 -11.886971 -29.487829
39.628674 -10.184104 -31.598103
39.55019 -12.954573 -30.792892
38.155174 -24.218174 -24.248474
38.580772 -21.511299 -25.200821
38.466488 -32.342644 4.589702
37.883221 -34.213375 5.345655
36.786949 -36.084011 1.570694
36.144768 -37.05088 -0.184023
36.289398 -35.996784 -2.770847
35.576752 -37.744205 -2.154844
36.876781 -9.482458 -18.823893
36.888897 -11.299736 -16.780018
38.222229 -16.536608 -14.573031
38.205067 -15.031516 -16.570059
38.588722 -16.931231 -16.467796
38.80941 -17.551416 -18.067526
38.781326 -19.13043 -15.930923
38.553699 -22.049608 -5.499816
38.456425 -20.946489 -7.781563
38.769421 -22.776157 -7.240995
38.566353 -25.949528 -10.518477
38.765919 -23.907677 -11.171582
38.597328 -24.572464 -12.883604
38.631142 -23.290468 -15.084424
38.321812 -25.481667 -14.314978
38.031174 -26.115572 -15.882854
37.917114 -27.474802 -13.631995
36.676838 -32.62624 -9.966542
36.830078 -31.411486 -12.22933
36.250137 -33.266335 -11.327658
35.825935 -34.060223 -12.433542
35.58342 -35.239361 -10.440148
32.711151 20.826969 -47.965885
31.26717 22.414845 -47.969303
31.887993 22.646435 -50.486523
30.810888 24.408564 -52.798141
32.320835 22.635763 -52.855694
38.571499 -4.105939 -28.91596
37.963009 -1.703144 -29.136063
38.605675 -2.010624 -30.950518
39.12801 1.654471 -37.156528
38.659149 2.193056 -35.41048
38.563271 4.292141 -37.520283
37.849144 6.674798 -37.806622
38.455853 6.255133 -39.792427
37.94397 10.274027 -44.609318
36.526844 14.670394 -47.416
36.263973 -32.019909 -16.387096
36.526966 -31.061703 -18.298977
35.18721 1.902536 -26.955925
36.269218 2.354233 -29.188488
38.922375 -14.132987 -22.313416
38.994064 -12.331867 -24.251995
39.07917 -14.664902 -23.881716
39.152298 -15.451954 -25.394253
39.168949 -16.248566 -26.807207
34.801083 -39.600906 -1.398527
36.903255 -12.849313 -14.855183
36.952183 -14.516895 -12.631934
37.701874 -16.275755 -12.48885
38.247204 -18.078711 -12.216242
38.9445 -25.803345 -4.616295
38.879215 -24.543865 -6.995698
38.79533 -26.514103 -6.418101
38.543472 -27.234217 -8.210271
38.223141 -28.007998 -9.713978
37.821873 -28.757908 -11.375665
37.7635 -29.844587 -9.241343
37.185005 -31.836205 -8.473094
36.578617 -33.699203 -7.667722
32.650681 11.256026 -33.478893
32.454174 13.596669 -35.990265
32.161419 15.727716 -38.318634
31.727131 17.739569 -40.512348
31.274662 19.729752 -42.881111
32.679634 18.43145 -43.070904
33.485889 18.743303 -45.362541
34.104614 18.980986 -47.839012
39.416431 -5.006894 -32.378754
39.120331 -2.47509 -32.785381
39.501888 -3.062325 -34.635574
39.526165 -1.126144 -36.718086
39.501915 0.905959 -38.929512
38.298359 -23.489765 -20.050932
38.508873 -21.873497 -22.107817
38.099689 -24.274487 -21.295282
37.860794 -25.488867 -22.2701
38.21508 -21.376331 -3.752578
38.705925 -23.161985 -3.271034
38.658672 -23.387068 1.045421
38.878185 -24.229221 -0.833295
38.979553 -25.071718 -2.636971
39.026733 -26.886978 -1.98427
38.867817 -28.765045 -1.39517
38.572803 -30.510246 -0.607373
34.038021 9.959105 -33.737476
35.080387 10.547648 -36.014198
35.994194 10.819489 -38.185658
36.998775 -5.747737 -22.90127
37.076973 -3.905299 -24.830223
37.836491 -5.847726 -24.918547
38.456417 -5.997899 -26.805813
38.974255 -6.348927 -28.706306
39.113323 -10.54634 -26.389301
39.227375 -8.816063 -28.346569
39.319401 -6.840602 -30.329134
39.590675 -7.554633 -32.113312
39.769859 -8.52382 -33.60651
38.720242 -20.289082 -24.252766
38.937119 -18.775337 -26.243244
39.141144 -29.451008 5.845171
38.893326 -30.49531 3.90735
38.53656 -31.486526 2.014888
38.088314 -32.346115 -0.037897
37.368633 -35.119251 3.241225
37.503803 -34.166 0.746045
37.562366 -33.219868 -1.877612
36.964138 -34.175575 -3.550979
36.419319 -34.951241 -5.137424
35.915268 -35.541737 -6.928796
34.978313 -38.559555 -3.922264
35.228966 -37.324131 -6.283697
35.391304 -36.291389 -8.468713
36.013603 -5.887586 -20.767187
36.952774 -7.651976 -20.919136
37.652149 -9.509863 -20.831108
38.23177 -11.478628 -20.787504
37.664886 -13.156949 -16.769403
38.197777 -13.28347 -18.66684
38.628239 -13.674539 -20.47822
38.853249 -15.77449 -20.255489
38.897976 -18.032892 -19.79837
38.777336 -20.388376 -19.383179
37.897369 -19.031822 -8.195492
38.365135 -19.676401 -9.966309
38.621288 -19.999729 -11.913419
38.826336 -23.29183 -9.343863
38.791271 -21.965832 -11.579908
38.774078 -20.583303 -13.754495
38.791397 -21.232306 -15.551147
38.715446 -21.67263 -17.253586
38.53072 -22.578989 -18.67268
38.152603 -24.816299 -17.992172
37.689419 -27.004026 -17.164463
37.15218 -29.136955 -16.314533
37.394699 -29.52298 -12.895824
36.975624 -30.286966 -14.315654
36.594162 -31.123703 -15.45218
36.026207 -33.028038 -14.495897
37.16066 -1.762079 -27.041119
37.226337 0.374337 -29.223364
37.232185 2.406663 -31.238033
38.66357 0.13867 -33.247948
38.024361 2.519563 -33.472557
37.194698 4.598034 -33.430904
37.134815 6.796008 -35.798359
37.027355 8.87444 -38.171623
36.726265 11.040267 -40.449669
38.890358 5.802878 -41.797958
38.22707 8.310385 -42.066349
37.445396 10.731502 -42.626221
36.45153 12.931658 -42.768494
36.00407 14.971145 -45.288967
35.409595 16.933207 -47.795048
34.608498 18.852898 -50.088833
40.032989 -6.562701 -37.438936
39.941061 -5.897946 -36.713262
39.981318 -7.387405 -36.365425
39.226616 -27.263097 3.679696
39.184666 -26.446404 3.307902
39.202919 -28.146335 4.132612
39.167759 -27.823912 2.816315
39.226616 -27.263097 3.679696
38.32873 -23.469338 -25.254762
38.113468 -24.844566 -24.748225
37.829367 -34.512383 6.642746
38.114283 -33.657685 6.257499
35.693922 -38.397457 1.397622
35.258785 -39.371788 1.767161
35.755539 -37.966014 0.167132
36.083151 -37.482322 1.046466
35.693922 -38.397457 1.397622
36.440281 -11.220902 -15.83177
36.439081 -10.405371 -16.816842
36.121112 -32.525589 -16.764003
35.986551 -32.955685 -15.913227
36.505944 -14.337911 -11.686414
36.4774 -13.623609 -12.704723
37.755489 -17.032777 -11.403958
37.346702 -16.101865 -11.47887
37.400318 -16.858887 -10.393978
39.664102 -1.548827 -37.552092
39.649255 -2.462825 -36.537592
39.787193 -2.885508 -37.371598
39.651978 -0.532776 -38.657804
39.51404 -0.110093 -37.823799
39.664102 -1.548827 -37.552092
37.617933 -26.63542 -21.755949
37.742742 -26.04412 -21.262907
37.499882 -27.190673 -20.748756
37.77986 -26.077943 -22.748468
37.617933 -26.63542 -21.755949
36.681556 -30.562628 -19.207573
36.390953 -31.684477 -18.599485
38.311981 -21.87812 -2.55692
37.990236 -21.050707 -2.769398
38.087137 -21.552495 -1.573739
38.762277 -23.789512 2.288555
38.480167 -22.887523 1.957923
38.989344 -25.144479 -0.428069
38.953458 -24.647394 0.446895
39.064617 -25.562652 0.852121
33.369503 4.291026 -26.946797
33.372583 3.254446 -25.905713
33.473795 7.486303 -30.363847
33.398255 6.414622 -29.145125
34.069723 6.747323 -30.310441
33.4604 8.482166 -31.408571
33.473795 7.486303 -30.363847
34.091642 8.889055 -32.633319
33.406779 9.552217 -32.512727
33.4604 8.482166 -31.408571
39.82847 -10.54939 -33.887749
39.846649 -9.079036 -34.307758
39.75168 -9.994174 -33.186501
38.899994 -19.410144 -26.74003
38.758946 -20.143318 -25.722033
38.721821 -20.778125 -26.218819
39.047922 -18.058391 -27.214227
38.899994 -19.410144 -26.74003
38.948046 -30.71446 7.447698
38.758038 -31.620882 7.761319
38.978678 -30.381405 6.169874
39.110512 -29.784063 7.122995
38.948046 -30.71446 7.447698
36.996179 -36.069542 3.71989
37.295925 -35.546064 4.641922
34.987371 -37.684887 -7.015957
34.885866 -38.210884 -5.928061
34.644272 -38.57164 -6.660322
34.865071 -37.490519 -8.753722
35.187834 -36.613392 -9.113969
35.06854 -37.168516 -8.108465
35.382191 -6.851446 -18.687538
35.360272 -7.7412 -17.684183
35.968252 -6.783184 -19.755227
35.427542 -5.955847 -19.699498
35.382191 -6.851446 -18.687538
37.96961 -19.652564 -7.081836
37.59876 -18.757151 -7.281287
37.671002 -19.377893 -6.167631
35.36943 -35.264866 -12.632552
35.653514 -34.41651 -12.999185
35.541851 -34.908579 -12.066909
35.114207 -36.056204 -12.28062
35.36943 -35.264866 -12.632552
30.374523 14.361287 -34.647247
31.154598 13.747606 -34.718496
31.338218 21.151743 -45.507809
30.934621 20.775718 -44.132116
31.678259 20.105777 -44.256804
30.038678 24.007188 -49.026823
30.517312 23.084522 -47.851715
30.788536 23.337511 -49.144411
29.494302 24.929079 -50.079214
30.038678 24.007188 -49.026823
29.714774 25.143701 -51.391506
29.494302 24.929079 -50.079214
30.344607 25.203494 -55.150583
30.195919 25.225613 -53.922428
30.959575 24.386445 -54.026297
38.973961 6.200811 -43.834661
38.838241 7.169613 -45.072227
38.782249 6.730986 -42.97064
39.08207 5.272703 -42.66198
38.973961 6.200811 -43.834661
35.590688 16.842329 -48.95644
35.96822 15.8018 -47.605524
36.149313 15.710922 -48.766916
35.19014 17.802174 -50.103333
35.009046 17.893052 -48.941941
35.590688 16.842329 -48.95644
35.074759 -1.120084 -23.855829
34.51729 -0.294146 -23.887328
34.491355 -1.327141 -22.850532
37.461483 -17.500742 -9.392674
37.400318 -16.858887 -10.393978
39.897386 -3.522376 -38.086436
39.787193 -2.885508 -37.371598
39.88254 -4.436374 -37.071936
37.232666 -28.328105 -20.296874
37.499882 -27.190673 -20.748756
37.357475 -27.736805 -19.803832
38.218992 -22.005536 -0.371571
38.087137 -21.552495 -1.573739
39.110094 -26.003121 2.045242
39.184666 -26.446404 3.307902
39.145979 -26.500206 1.170278
39.064617 -25.562652 0.852121
39.110094 -26.003121 2.045242
38.541528 -22.115901 -25.730935
38.367973 -22.864736 -24.724648
38.32873 -23.469338 -25.254762
38.721821 -20.778125 -26.218819
38.541528 -22.115901 -25.730935
38.580779 -32.206898 6.83196
38.758038 -31.620882 7.761319
38.522604 -32.515978 8.098702
38.405917 -32.722319 5.879522
38.64135 -31.827223 5.54214
38.580779 -32.206898 6.83196
38.174854 -33.278009 4.967678
38.405917 -32.722319 5.879522
38.114283 -33.657685 6.257499
36.404241 -36.998888 1.923825
36.705337 -36.551922 2.884625
36.465858 -36.567445 0.693335
36.404241 -36.998888 1.923825
36.083151 -37.482322 1.046466
34.189358 -40.000105 -5.267653
34.391903 -39.743055 -4.35592
34.038494 -40.645523 -4.051148
34.438167 -38.872673 -7.462445
34.644272 -38.57164 -6.660322
34.577005 -38.297405 -8.494002
34.438167 -38.872673 -7.462445
35.956083 -8.594894 -17.798466
35.360272 -7.7412 -17.684183
36.433023 -9.496731 -17.83878
36.399841 -8.580621 -18.78358
35.956083 -8.594894 -17.798466
36.882839 -10.391097 -17.801955
36.433023 -9.496731 -17.83878
36.439081 -10.405371 -16.816842
30.237033 15.394646 -35.726667
30.843324 15.870814 -36.960665
31.714549 23.500045 -54.055073
30.959575 24.386445 -54.026297
31.565862 23.522163 -52.826918
38.497032 8.628327 -45.374747
38.838241 7.169613 -45.072227
38.131946 9.935793 -45.607745
38.309055 8.96656 -44.37632
38.497032 8.628327 -45.374747
37.730509 11.236162 -45.877543
38.131946 9.935793 -45.607745
37.292736 12.440822 -46.068435
37.506197 11.478687 -44.800211
37.730509 11.236162 -45.877543
37.021946 13.434346 -47.280884
36.797634 13.67687 -46.203552
37.292736 12.440822 -46.068435
36.717188 14.396402 -48.477939
37.021946 13.434346 -47.280884
36.149313 15.710922 -48.766916
36.717188 14.396402 -48.477939
36.252609 -32.046486 -17.719943
36.39547 -31.540806 -17.343037
36.121112 -32.525589 -16.764003
36.390953 -31.684477 -18.599485
36.252609 -32.046486 -17.719943
33.962032 2.539064 -25.90248
33.372583 3.254446 -25.905713
34.501028 0.724006 -24.862841
34.51729 -0.294146 -23.887328
34.544286 1.718819 -25.894491
34.501028 0.724006 -24.862841
35.143952 0.907723 -25.924275
34.604956 2.722781 -26.963914
33.962032 2.539064 -25.90248
34.544286 1.718819 -25.894491
34.960039 -39.797331 0.855244
35.258785 -39.371788 1.767161
34.677425 -40.157209 -0.103164
35.083697 -39.241028 -0.44012
34.960039 -39.797331 0.855244
34.390416 -40.561369 -1.024018
34.677425 -40.157209 -0.103164
34.110394 -40.955153 -1.894462
34.521061 -39.99469 -2.268972
34.390416 -40.561369 -1.024018
33.873098 -41.26965 -2.910237
34.110394 -40.955153 -1.894462
34.038494 -40.645523 -4.051148
33.873098 -41.26965 -2.910237
36.452936 -12.789818 -13.816347
36.44746 -11.995691 -14.869353
36.927719 -13.683104 -13.743558
36.452936 -12.789818 -13.816347
36.4774 -13.623609 -12.704723
36.971857 -15.222435 -11.550411
36.505944 -14.337911 -11.686414
37.327028 -15.396325 -12.560392
36.971857 -15.222435 -11.550411
37.346702 -16.101865 -11.47887
31.978041 11.96835 -33.549833
31.987227 10.885832 -32.34789
31.879787 13.138671 -34.805519
31.978041 11.96835 -33.549833
32.552428 12.426348 -34.734579
31.728985 14.205604 -35.903242
31.154598 13.747606 -34.718496
31.879787 13.138671 -34.805519
31.422136 16.327403 -38.211872
30.843324 15.870814 -36.960665
31.582608 15.271127 -37.067426
31.204991 17.333329 -39.308729
31.422136 16.327403 -38.211872
31.944275 16.733642 -39.415491
30.949665 18.350551 -40.378073
30.427526 17.944311 -39.174453
31.204991 17.333329 -39.308729
31.500896 18.734661 -41.69673
30.72343 19.345643 -41.562454
30.949665 18.350551 -40.378073
37.92705 -25.442597 -23.737655
38.007984 -24.853521 -23.259287
37.77986 -26.077943 -22.748468
38.113468 -24.844566 -24.748225
37.92705 -25.442597 -23.737655
36.963203 -29.468895 -19.73406
36.808613 -29.96797 -18.825463
36.681556 -30.562628 -19.207573
37.232666 -28.328105 -20.296874
36.963203 -29.468895 -19.73406
37.79154 -19.995881 -5.028058
37.671002 -19.377893 -6.167631
37.878155 -20.547393 -3.920256
37.990236 -21.050707 -2.769398
38.128466 -20.824818 -4.860379
37.79154 -19.995881 -5.028058
37.878155 -20.547393 -3.920256
38.343887 -22.509116 0.83177
38.480167 -22.887523 1.957923
38.533777 -22.883488 -0.15792
38.218992 -22.005536 -0.371571
38.343887 -22.509116 0.83177
38.843702 -24.226318 1.386254
38.762277 -23.789512 2.288555
38.947307 -24.628762 2.629387
38.768428 -23.808144 0.106063
38.843702 -24.226318 1.386254
38.953458 -24.647394 0.446895
33.355244 5.357334 -28.006705
33.369503 4.291026 -26.946797
34.008442 4.609334 -28.031811
32.759315 6.096314 -28.06011
33.355244 5.357334 -28.006705
33.398255 6.414622 -29.145125
32.713109 10.200678 -32.383436
31.987227 10.885832 -32.34789
33.344351 10.607565 -33.608185
32.713109 10.200678 -32.383436
33.406779 9.552217 -32.512727
39.906414 -8.178451 -35.324379
39.829624 -7.623235 -34.623131
39.846649 -9.079036 -34.307758
39.981318 -7.387405 -36.365425
39.906414 -8.178451 -35.324379
39.163837 -16.795006 -27.496209
39.053034 -17.511952 -26.525225
39.047922 -18.058391 -27.214227
39.258755 -15.993914 -28.511836
39.263866 -15.447474 -27.822834
39.163837 -16.795006 -27.496209
39.384159 -15.167096 -29.524895
39.258755 -15.993914 -28.511836
39.479862 -14.321192 -30.502111
39.454487 -13.800477 -29.815676
39.384159 -15.167096 -29.524895
39.594919 -13.633286 -31.474167
39.479862 -14.321192 -30.502111
39.686574 -12.888263 -32.460966
39.641846 -12.20955 -31.779691
39.594919 -13.633286 -31.474167
39.801593 -12.032681 -33.473039
39.686574 -12.888263 -32.460966
39.82847 -10.54939 -33.887749
39.801593 -12.032681 -33.473039
39.20707 -28.921883 6.741907
39.110512 -29.784063 7.122995
39.20146 -28.518264 5.420582
39.20707 -28.921883 6.741907
39.142603 -29.079079 4.557201
39.202919 -28.146335 4.132612
39.20146 -28.518264 5.420582
37.553219 -35.093126 5.694138
37.829367 -34.512383 6.642746
37.625927 -34.666313 4.29344
37.553219 -35.093126 5.694138
37.295925 -35.546064 4.641922
37.077791 -35.601631 2.405959
36.996179 -36.069542 3.71989
36.705337 -36.551922 2.884625
34.76054 -38.828596 -4.747345
34.609676 -39.474015 -3.53084
34.391903 -39.743055 -4.35592
35.103639 -37.941843 -5.102981
34.76054 -38.828596 -4.747345
34.885866 -38.210884 -5.928061
35.283892 -36.087378 -10.099687
35.487362 -35.765375 -9.454431
35.187834 -36.613392 -9.113969
35.121066 -36.346165 -10.72975
35.420593 -35.498148 -11.070211
35.283892 -36.087378 -10.099687
34.865071 -37.490519 -8.753722
34.577005 -38.297405 -8.494002
34.981566 -36.56924 -11.405854
35.121066 -36.346165 -10.72975
35.114207 -36.056204 -12.28062
34.981566 -36.56924 -11.405854
34.402363 -2.283938 -21.790022
34.491355 -1.327141 -22.850532
34.999655 -3.155387 -21.765435
34.402363 -2.283938 -21.790022
35.507939 -4.057955 -21.733311
35.557108 -3.055646 -22.78691
34.999655 -3.155387 -21.765435
35.482044 -5.022641 -20.739511
35.427542 -5.955847 -19.699498
36.039498 -4.922899 -21.760987
35.507939 -4.057955 -21.733311
35.482044 -5.022641 -20.739511
36.896076 -12.074524 -15.8176
36.440281 -11.220902 -15.83177
36.44746 -11.995691 -14.869353
37.505615 -18.121753 -8.330887
37.59876 -18.757151 -7.281287
37.853237 -18.41081 -9.257279
37.461483 -17.500742 -9.392674
37.505615 -18.121753 -8.330887
35.867668 -33.459749 -14.967627
35.986551 -32.955685 -15.913227
36.14509 -32.523973 -15.441496
35.75365 -33.900418 -14.030363
35.926071 -33.544131 -13.464719
35.653514 -34.41651 -12.999185
35.867668 -33.459749 -14.967627
35.75365 -33.900418 -14.030363
30.374523 14.361287 -34.647247
30.237033 15.394646 -35.726667
30.477912 20.371817 -42.757188
30.72343 19.345643 -41.562454
30.477912 20.371817 -42.757188
30.934621 20.775718 -44.132116
30.930875 22.118265 -46.676212
31.338218 21.151743 -45.507809
31.674513 21.448324 -46.800899
30.930875 22.118265 -46.676212
30.517312 23.084522 -47.851715
29.965267 25.217894 -52.630817
29.714774 25.143701 -51.391506
30.560395 24.334371 -51.55883
29.965267 25.217894 -52.630817
30.195919 25.225613 -53.922428
40.082114 -5.643579 -38.498368
40.032989 -6.562701 -37.438936
40.014494 -4.067266 -38.931288
40.082114 -5.643579 -38.498368
39.897386 -3.522376 -38.086436
40.014494 -4.067266 -38.931288
39.648985 0.363812 -39.727663
39.651978 -0.532776 -38.657804
39.469665 1.854654 -40.087547
39.648985 0.363812 -39.727663
39.247108 3.228858 -40.321011
39.279358 2.280163 -39.162976
39.469665 1.854654 -40.087547
39.163887 4.303114 -41.521771
39.08207 5.272703 -42.66198
38.973579 4.728623 -40.597199
39.247108 3.228858 -40.321011
39.163887 4.303114 -41.521771
34.796667 18.646553 -51.287309
35.19014 17.802174 -50.103333
34.159264 19.748402 -51.382159
34.796667 18.646553 -51.287309
33.48352 20.782186 -51.536823
33.932755 19.886682 -50.243498
34.159264 19.748402 -51.382159
33.015433 21.639834 -52.765589
32.788923 21.778114 -51.626928
33.48352 20.782186 -51.536823
32.45332 22.516754 -53.998385
33.015433 21.639834 -52.765589
31.714549 23.500045 -54.055073
32.45332 22.516754 -53.998385
3 0 72 70
3 1 75 73
3 2 78 76
3 2 80 78
3 3 83 81
3 3 85 83
3 271 88 272
3 273 272 86
3 271 272 273
3 4 91 89
3 274 92 275
3 276 94 277
3 278 277 92
3 276 277 278
3 6 97 95
3 6 99 97
3 7 102 100
3 9 105 103
3 9 107 105
3 280 279 108
3 281 111 282
3 10 283 284
3 10 285 287
3 285 113 286
3 285 286 287
3 10 115 113
3 288 117 289
3 12 120 118
3 12 122 120
3 5 125 123
3 13 128 126
3 13 130 128
3 13 132 130
3 11 135 133
3 11 137 135
3 14 140 138
3 14 142 140
3 8 145 143
3 15 148 146
3 15 150 148
3 291 290 153
3 17 155 71
3 17 156 155
3 18 159 157
3 20 160 74
3 20 161 160
3 292 164 293
3 23 294 296
3 294 165 295
3 294 295 296
3 23 166 165
3 24 169 167
3 26 170 77
3 26 171 170
3 26 173 171
3 28 174 79
3 28 175 174
3 29 177 176
3 31 178 82
3 31 179 178
3 31 181 179
3 33 182 84
3 33 183 182
3 34 186 184
3 297 187 298
3 299 298 87
3 297 298 299
3 300 188 301
3 302 301 187
3 300 301 302
3 36 191 189
3 303 192 304
3 305 304 90
3 303 304 305
3 307 306 192
3 309 308 154
3 39 310 312
3 310 193 311
3 310 311 312
3 39 194 193
3 313 195 314
3 40 315 317
3 315 196 316
3 315 316 317
3 40 197 196
3 40 198 197
3 41 199 93
3 41 200 199
3 16 318 319
3 42 320 322
3 322 321 96
3 320 321 322
3 42 323 324
3 42 325 327
3 325 201 326
3 325 326 327
3 43 202 98
3 43 203 202
3 44 206 204
3 46 207 101
3 46 208 207
3 19 209 158
3 47 210 104
3 47 211 210
3 47 212 211
3 48 213 106
3 48 328 330
3 330 329 213
3 328 329 330
3 37 214 190
3 331 215 332
3 333 332 109
3 331 332 333
3 335 334 215
3 49 336 337
3 49 338 340
3 338 216 339
3 338 339 340
3 49 217 216
3 50 218 110
3 50 219 218
3 341 220 342
3 51 221 112
3 51 222 221
3 51 223 222
3 52 224 114
3 52 225 224
3 21 226 162
3 53 343 345
3 343 227 344
3 343 344 345
3 53 228 227
3 53 346 348
3 348 347 228
3 346 347 348
3 55 349 350
3 55 351 353
3 351 229 352
3 351 352 353
3 55 230 229
3 56 231 116
3 56 232 231
3 22 233 163
3 57 234 119
3 57 235 234
3 57 236 235
3 58 237 121
3 58 238 237
3 38 354 356
3 354 239 355
3 354 355 356
3 59 240 124
3 59 241 240
3 25 242 168
3 60 243 127
3 60 244 243
3 60 245 244
3 61 246 129
3 61 247 246
3 61 248 247
3 62 249 131
3 62 250 249
3 27 251 172
3 63 252 134
3 63 253 252
3 63 254 253
3 54 357 359
3 359 358 136
3 357 358 359
3 54 360 361
3 30 362 363
3 32 364 366
3 366 365 180
3 364 365 366
3 64 367 369
3 369 368 139
3 367 368 369
3 64 370 371
3 64 372 373
3 376 375 141
3 374 375 376
3 45 255 205
3 65 256 144
3 65 257 256
3 35 258 185
3 66 259 147
3 66 260 259
3 66 261 260
3 67 262 149
3 67 263 262
3 68 377 378
3 68 379 381
3 379 264 380
3 379 380 381
3 68 265 264
3 69 266 151
3 69 267 266
3 69 268 267
3 382 269 383
3 384 383 152
3 382 383 384
3 385 270 386
3 387 386 269
3 385 386 387
3 70 388 390
3 388 71 389
3 388 389 390
3 72 71 70
3 72 17 71
3 73 74 18
3 75 74 73
3 75 20 74
3 391 23 392
3 76 77 24
3 78 77 76
3 78 26 77
3 78 79 26
3 80 79 78
3 80 28 79
3 81 82 29
3 83 82 81
3 83 31 82
3 83 84 31
3 85 84 83
3 85 33 84
3 86 87 34
3 88 87 86
3 88 393 395
3 395 394 87
3 393 394 395
3 89 90 36
3 91 90 89
3 91 396 398
3 398 397 90
3 396 397 398
3 399 39 400
3 92 401 402
3 92 403 405
3 403 40 404
3 403 404 405
3 92 93 40
3 94 93 92
3 94 41 93
3 95 96 16
3 97 96 95
3 97 42 96
3 97 98 42
3 99 98 97
3 99 43 98
3 100 101 44
3 102 101 100
3 102 46 101
3 103 104 19
3 105 104 103
3 105 47 104
3 105 106 47
3 107 106 105
3 107 48 106
3 108 109 37
3 406 109 407
3 408 407 108
3 406 407 408
3 410 409 109
3 411 49 412
3 411 412 413
3 414 110 415
3 416 415 49
3 414 415 416
3 111 417 419
3 417 110 418
3 417 418 419
3 111 50 110
3 420 112 421
3 113 422 424
3 422 112 423
3 422 423 424
3 113 51 112
3 113 114 51
3 115 114 113
3 115 52 114
3 427 426 21
3 425 426 427
3 428 53 429
3 431 430 53
3 432 55 433
3 434 116 435
3 436 435 55
3 434 435 436
3 117 437 439
3 437 116 438
3 437 438 439
3 117 56 116
3 118 119 22
3 120 119 118
3 120 57 119
3 120 121 57
3 122 121 120
3 122 58 121
3 123 124 38
3 125 124 123
3 125 59 124
3 126 127 25
3 128 127 126
3 128 60 127
3 128 129 60
3 130 129 128
3 130 61 129
3 130 131 61
3 132 131 130
3 132 62 131
3 133 134 27
3 135 134 133
3 135 63 134
3 135 136 63
3 137 136 135
3 137 54 136
3 441 440 30
3 138 139 32
3 140 139 138
3 140 64 139
3 140 141 64
3 142 141 140
3 142 442 444
3 444 443 141
3 442 443 444
3 143 144 45
3 145 144 143
3 145 65 144
3 146 147 35
3 148 147 146
3 148 66 147
3 148 149 66
3 150 149 148
3 150 67 149
3 445 68 446
3 447 151 448
3 449 448 68
3 447 448 449
3 450 151 451
3 452 69 453
3 454 453 151
3 452 453 454
3 455 152 456
3 457 456 69
3 455 456 457
3 458 152 459
3 461 460 152
3 153 154 4
3 462 154 463
3 464 463 153
3 462 463 464
3 466 465 154
3 467 16 468
3 71 469 470
3 155 471 473
3 473 472 71
3 471 472 473
3 155 474 476
3 474 16 475
3 474 475 476
3 155 95 16
3 156 95 155
3 156 6 95
3 157 158 7
3 159 158 157
3 159 19 158
3 74 159 18
3 160 159 74
3 160 19 159
3 160 103 19
3 161 103 160
3 161 9 103
3 477 10 478
3 479 162 480
3 481 480 10
3 479 480 481
3 482 162 483
3 484 21 485
3 486 485 162
3 484 485 486
3 487 21 488
3 490 489 21
3 491 163 492
3 164 493 495
3 493 163 494
3 493 494 495
3 164 22 163
3 496 164 497
3 165 498 500
3 498 164 499
3 498 499 500
3 165 22 164
3 165 118 22
3 166 118 165
3 166 12 118
3 167 168 5
3 169 168 167
3 169 25 168
3 77 169 24
3 170 169 77
3 170 25 169
3 170 126 25
3 171 126 170
3 171 13 126
3 171 172 13
3 173 172 171
3 173 27 172
3 79 173 26
3 174 173 79
3 174 27 173
3 174 133 27
3 175 133 174
3 175 11 133
3 176 501 502
3 177 503 505
3 505 504 176
3 503 504 505
3 177 506 508
3 506 30 507
3 506 507 508
3 82 177 29
3 178 177 82
3 178 30 177
3 178 509 511
3 511 510 30
3 509 510 511
3 179 512 514
3 514 513 178
3 512 513 514
3 179 515 517
3 515 516 517
3 179 518 520
3 518 180 519
3 518 519 520
3 181 180 179
3 181 32 180
3 84 181 31
3 182 181 84
3 182 32 181
3 182 138 32
3 183 138 182
3 183 14 138
3 184 185 8
3 186 185 184
3 186 35 185
3 87 186 34
3 187 186 87
3 187 35 186
3 187 146 35
3 188 146 187
3 188 15 146
3 189 190 1
3 191 190 189
3 191 37 190
3 90 191 36
3 192 191 90
3 192 37 191
3 192 108 37
3 521 108 522
3 523 522 192
3 521 522 523
3 525 524 108
3 154 91 4
3 526 91 527
3 528 527 154
3 526 527 528
3 530 529 91
3 531 38 532
3 193 533 534
3 193 535 537
3 535 38 536
3 535 536 537
3 193 123 38
3 194 123 193
3 194 5 123
3 195 538 539
3 195 540 542
3 540 39 541
3 540 541 542
3 543 195 544
3 543 544 545
3 196 546 548
3 546 195 547
3 546 547 548
3 196 39 195
3 196 194 39
3 197 194 196
3 197 5 194
3 197 167 5
3 198 167 197
3 198 24 167
3 93 198 40
3 199 198 93
3 199 24 198
3 199 76 24
3 200 76 199
3 200 2 76
3 96 549 551
3 551 550 16
3 549 550 551
3 554 553 96
3 552 553 554
3 555 176 556
3 201 557 559
3 557 176 558
3 557 558 559
3 201 29 176
3 98 201 42
3 202 201 98
3 202 29 201
3 202 81 29
3 203 81 202
3 203 3 81
3 204 205 0
3 206 205 204
3 206 45 205
3 101 206 44
3 207 206 101
3 207 45 206
3 207 143 45
3 208 143 207
3 208 8 143
3 158 102 7
3 209 102 158
3 209 46 102
3 104 209 19
3 210 209 104
3 210 46 209
3 210 208 46
3 211 208 210
3 211 8 208
3 211 184 8
3 212 184 211
3 212 34 184
3 106 212 47
3 213 212 106
3 213 34 212
3 213 86 34
3 560 86 561
3 562 561 213
3 560 561 562
3 564 563 86
3 190 75 1
3 214 75 190
3 214 20 75
3 109 214 37
3 215 214 109
3 215 20 214
3 215 161 20
3 565 161 566
3 567 566 215
3 565 566 567
3 568 9 569
3 570 569 161
3 568 569 570
3 571 9 572
3 573 107 574
3 575 574 9
3 573 574 575
3 576 107 577
3 578 48 579
3 580 579 107
3 578 579 580
3 581 48 582
3 584 583 48
3 216 585 586
3 216 587 588
3 216 589 591
3 589 94 590
3 589 590 591
3 217 94 216
3 217 41 94
3 110 217 49
3 218 217 110
3 218 41 217
3 218 200 41
3 219 200 218
3 219 2 200
3 592 111 593
3 220 594 596
3 594 111 595
3 594 595 596
3 220 50 111
3 112 597 599
3 597 220 598
3 597 598 599
3 221 220 112
3 221 50 220
3 221 219 50
3 222 219 221
3 222 2 219
3 222 80 2
3 223 80 222
3 223 28 80
3 114 223 51
3 224 223 114
3 224 28 223
3 224 175 28
3 225 175 224
3 225 11 175
3 162 115 10
3 226 115 162
3 226 52 115
3 600 226 601
3 602 601 21
3 600 601 602
3 227 603 605
3 603 226 604
3 603 604 605
3 227 52 226
3 227 225 52
3 228 225 227
3 228 11 225
3 228 137 11
3 606 137 607
3 608 607 228
3 606 607 608
3 609 54 610
3 611 610 137
3 609 610 611
3 613 612 53
3 614 54 615
3 617 616 54
3 618 70 619
3 620 70 621
3 622 0 623
3 624 623 70
3 622 623 624
3 229 625 626
3 229 627 629
3 627 0 628
3 627 628 629
3 229 204 0
3 230 204 229
3 230 44 204
3 116 230 55
3 231 230 116
3 231 44 230
3 231 100 44
3 232 100 231
3 232 7 100
3 163 630 632
3 630 117 631
3 630 631 632
3 233 117 163
3 233 56 117
3 119 233 22
3 234 233 119
3 234 56 233
3 234 232 56
3 235 232 234
3 235 7 232
3 235 157 7
3 236 157 235
3 236 18 157
3 121 236 57
3 237 236 121
3 237 18 236
3 237 73 18
3 238 73 237
3 238 1 73
3 239 633 634
3 239 635 637
3 635 23 636
3 635 636 637
3 124 239 38
3 240 239 124
3 240 23 239
3 240 166 23
3 241 166 240
3 241 12 166
3 168 125 5
3 242 125 168
3 242 59 125
3 127 242 25
3 243 242 127
3 243 59 242
3 243 241 59
3 244 241 243
3 244 12 241
3 244 122 12
3 245 122 244
3 245 58 122
3 129 245 60
3 246 245 129
3 246 58 245
3 246 238 58
3 247 238 246
3 247 1 238
3 247 189 1
3 248 189 247
3 248 36 189
3 131 248 61
3 249 248 131
3 249 36 248
3 249 89 36
3 250 89 249
3 250 4 89
3 172 132 13
3 251 132 172
3 251 62 132
3 134 251 27
3 252 251 134
3 252 62 251
3 252 250 62
3 253 250 252
3 253 4 250
3 253 153 4
3 254 153 253
3 254 638 640
3 640 639 153
3 638 639 640
3 136 254 63
3 641 254 642
3 643 642 136
3 641 642 643
3 645 644 254
3 647 646 30
3 180 648 649
3 651 650 180
3 139 652 654
3 654 653 32
3 652 653 654
3 656 655 139
3 141 657 659
3 659 658 64
3 657 658 659
3 661 660 141
3 205 72 0
3 255 72 205
3 255 17 72
3 144 255 45
3 256 255 144
3 256 17 255
3 256 156 17
3 257 156 256
3 257 6 156
3 185 145 8
3 258 145 185
3 258 65 145
3 147 258 35
3 259 258 147
3 259 65 258
3 259 257 65
3 260 257 259
3 260 6 257
3 260 99 6
3 261 99 260
3 261 43 99
3 149 261 66
3 262 261 149
3 262 43 261
3 262 203 43
3 263 203 262
3 263 3 203
3 662 88 663
3 664 88 665
3 667 666 88
3 668 188 669
3 670 188 671
3 672 15 673
3 674 673 188
3 672 673 674
3 264 675 676
3 264 677 679
3 677 15 678
3 677 678 679
3 264 150 15
3 265 150 264
3 265 67 150
3 151 265 68
3 266 265 151
3 266 67 265
3 266 263 67
3 267 263 266
3 267 3 263
3 267 85 3
3 268 85 267
3 268 33 85
3 152 268 69
3 269 268 152
3 269 33 268
3 269 183 33
3 270 183 269
3 270 14 183
3 680 270 681
3 682 270 683
3 684 14 685
3 686 685 270
3 684 685 686
3 687 142 688
3 689 688 14
3 687 688 689
3 690 142 691
3 693 692 142
