ply
format ascii 1.0
element vertex 394
property float x
property float y
property float z
element face 415
property list uchar int vertex_index
end_header
28.26264 27.20348 -59.803776
12.40216 29.470182 -69.584229
21.461481 32.598507 -57.033588
14.160055 34.945221 -62.1563
20.862814 30.432262 -66.592545
27.139935 26.753401 -49.446556
6.652677 33.162342 -63.365078
30.172199 18.961533 -40.243797
24.819929 30.307535 -58.82198
21.27195 32.068111 -62.404282
24.841261 29.23443 -63.631645
24.309872 26.913759 -67.612785
28.169298 25.463573 -64.078575
23.535549 29.11179 -47.937122
13.170174 32.682095 -66.374016
10.324112 34.595055 -63.22625
9.363743 31.342848 -66.810081
5.876871 29.188263 -66.081619
8.503469 27.561768 -69.146927
11.487254 25.177601 -71.647552
18.174948 34.692867 -54.702488
14.703304 36.343483 -57.331875
17.871748 34.290966 -60.122261
17.311832 32.951874 -64.818291
16.473003 30.520536 -68.696678
15.732861 26.872883 -71.493164
20.002258 27.557709 -70.059341
21.105536 32.249378 -51.638092
24.444733 30.107424 -53.467571
28.016815 27.499903 -54.807323
11.215096 36.88549 -59.112465
7.717324 36.479256 -59.964401
28.991682 23.039219 -44.991119
26.644581 28.814739 -59.327736
24.930401 29.908401 -61.259338
26.590982 28.381725 -61.695366
26.612595 27.476673 -63.82317
28.368721 26.414793 -61.979412
12.819632 31.105801 -68.210014
11.228525 32.109867 -66.763069
10.771897 30.406878 -68.312378
8.933672 29.466097 -68.180473
10.468771 28.553232 -69.601471
9.853015 26.487207 -70.457901
11.846415 27.431023 -70.758453
19.77137 33.657955 -55.924847
17.993196 34.640892 -57.482471
19.690882 33.605919 -58.493752
21.069075 31.384092 -64.652138
19.264261 32.647991 -63.756256
18.905462 31.819551 -65.875343
16.874022 31.852654 -66.924843
18.68676 30.612694 -67.796036
18.232042 29.184244 -69.486504
20.444698 29.082575 -68.550247
26.055609 24.890894 -67.530785
25.335667 27.941116 -48.726913
24.018782 29.699642 -50.655056
25.779295 28.540768 -51.40139
26.261774 28.852722 -54.177841
27.499695 27.381243 -52.20269
14.374416 35.766014 -59.811626
12.931535 36.724903 -58.412979
12.612229 35.82621 -60.842857
8.468931 33.829262 -63.63483
8.966242 35.450104 -61.667107
7.280224 34.849251 -61.865929
5.53549 27.073992 -67.008179
17.401596 25.209332 -72.052246
15.163807 24.641239 -72.421852
28.649492 20.049568 -39.948441
29.681162 21.013882 -42.633266
31.485939 21.974819 -61.701477
23.022448 31.584591 -58.010227
21.33886 32.537861 -59.713516
23.084446 31.337952 -60.619652
23.088844 30.774553 -63.002312
22.898943 29.957058 -65.220886
22.481474 28.788553 -67.371223
24.589342 28.294838 -65.711327
26.314247 26.347883 -65.898613
28.029886 24.004044 -65.861229
24.718578 27.21603 -46.022583
26.396519 26.119425 -46.656605
13.635941 33.973907 -64.328018
12.138146 34.898861 -62.840172
11.663157 33.612778 -64.915573
9.751546 33.069759 -65.113197
7.942637 32.1633 -65.198753
6.309108 31.190796 -64.934319
7.536217 30.260632 -66.641418
7.115584 28.384626 -67.659943
6.807665 26.2131 -68.581329
8.060308 25.124588 -69.980171
16.494011 35.626175 -56.203762
16.235331 35.303505 -58.841282
15.954402 34.798359 -61.178581
19.550989 33.254902 -61.233509
17.565735 33.771809 -62.558285
15.705811 33.961227 -63.605129
15.318619 32.929985 -65.763153
14.741143 31.732271 -67.576225
14.519094 30.069538 -69.330322
13.894685 28.234507 -70.684509
16.103783 28.797726 -70.270462
17.925014 27.342192 -70.909714
19.677979 25.5063 -71.343193
22.206472 27.277985 -69.023392
19.604113 33.615543 -53.083702
21.304331 32.533337 -54.34753
22.440695 30.727903 -49.877087
22.71752 31.211882 -52.552174
23.000557 31.443354 -55.191277
24.69289 30.338682 -56.196888
26.424349 29.062464 -56.939674
28.154449 27.557304 -57.399586
9.863041 37.986641 -57.495743
10.75631 35.847855 -61.213875
9.431326 36.819286 -59.613049
13.564878 26.313061 -71.6707
27.3039 24.197001 -44.512939
28.077101 24.924236 -47.07983
30.59458 21.821684 -45.383121
29.767454 23.754198 -47.734127
28.678703 25.59798 -49.838909
29.119646 26.027224 -52.463493
29.58095 26.042662 -55.046715
29.719604 25.937794 -57.551781
29.803097 23.275856 -63.741028
25.843172 23.956122 -68.274155
26.823988 23.709492 -67.469955
6.061906 33.576088 -62.56971
6.37568 34.419543 -61.820135
6.96645 34.005797 -62.615504
5.871469 32.576386 -63.320114
6.061906 33.576088 -62.56971
4.751486 26.269414 -66.529709
5.364377 25.878698 -67.352222
17.172781 24.052827 -72.427132
18.310264 24.259719 -72.160732
29.663815 18.451346 -38.990007
30.427526 17.944311 -39.174453
29.410846 19.50555 -40.096119
28.902461 18.995363 -38.842329
29.663815 18.451346 -38.990007
25.173668 26.24046 -44.963864
24.344184 26.748295 -44.566938
26.012638 25.692158 -45.280874
25.557549 26.667727 -46.339594
25.173668 26.24046 -44.963864
10.52966 24.630993 -71.431622
9.71254 25.285796 -70.836796
10.670134 25.832404 -71.052727
11.26325 23.97992 -71.908035
10.52966 24.630993 -71.431622
17.33448 35.159521 -55.453125
16.524817 35.731036 -54.807035
17.365285 35.264381 -54.056399
20.354824 32.932461 -52.360897
19.562237 33.447313 -51.683478
20.312949 32.76423 -50.960673
22.988122 29.919846 -48.907105
22.196724 30.417533 -48.416718
22.744151 29.609476 -47.446735
14.063166 36.833603 -56.637569
14.869979 36.534284 -55.962986
11.425487 37.342726 -57.953874
12.283707 37.262432 -57.604132
12.073315 36.805196 -58.762722
10.539069 37.436065 -58.304104
10.74946 37.893301 -57.145513
11.425487 37.342726 -57.953874
7.947844 37.192349 -58.989952
8.804845 37.362364 -58.814276
8.574325 36.649271 -59.788725
7.092581 37.026635 -59.165022
7.323102 37.739727 -58.190573
7.947844 37.192349 -58.989952
5.258762 29.53466 -65.262992
5.474881 30.535926 -64.689343
6.092989 30.189529 -65.507969
14.133436 24.214883 -72.448986
15.003459 23.409174 -72.714935
28.147791 23.61811 -44.752029
27.682272 23.197492 -43.417881
28.526163 22.618601 -43.656971
31.338218 21.151743 -45.507809
30.934621 20.775718 -44.132116
30.038678 24.007188 -49.026823
30.517312 23.084522 -47.851715
29.494302 24.929079 -50.079214
29.223078 24.676089 -48.786518
30.038678 24.007188 -49.026823
29.714774 25.143701 -51.391506
28.899175 25.812602 -51.151201
29.494302 24.929079 -50.079214
30.344607 25.203494 -55.150583
30.195919 25.225613 -53.922428
30.413933 25.15106 -56.403116
29.650277 25.990228 -56.299248
30.344607 25.203494 -55.150583
30.512477 21.970989 -63.662523
30.644518 22.625338 -62.721252
31.353898 21.32047 -62.642748
29.694453 22.415644 -64.634888
30.512477 21.970989 -63.662523
25.010323 25.071984 -68.339916
24.137454 26.083416 -68.380916
25.182741 25.902327 -67.571785
25.010323 25.071984 -68.339916
25.843172 23.956122 -68.274155
20.966228 32.008896 -50.201048
20.312949 32.76423 -50.960673
6.675539 35.34948 -61.034211
6.894089 36.164482 -60.083447
7.498774 35.664254 -60.915165
6.675539 35.34948 -61.034211
6.37568 34.419543 -61.820135
4.902745 27.388504 -66.188248
5.073436 28.445639 -65.724968
5.706181 28.131127 -66.544899
4.902745 27.388504 -66.188248
4.751486 26.269414 -66.529709
16.053887 23.76878 -72.611935
16.282702 24.925286 -72.237049
17.172781 24.052827 -72.427132
15.003459 23.409174 -72.714935
16.053887 23.76878 -72.611935
28.109985 19.528495 -38.683234
28.902461 18.995363 -38.842329
27.883331 20.584949 -39.799237
28.109985 19.528495 -38.683234
28.355068 21.123776 -41.135632
27.883331 20.584949 -39.799237
28.870903 21.605933 -42.478044
28.355068 21.123776 -41.135632
29.165327 20.531725 -41.290853
29.336422 22.02655 -43.812192
28.526163 22.618601 -43.656971
28.870903 21.605933 -42.478044
32.210916 21.322323 -60.559639
31.509124 22.530256 -60.650379
32.178961 20.667685 -61.504095
32.210916 21.322323 -60.559639
31.353898 21.32047 -62.642748
32.178961 20.667685 -61.504095
27.811127 23.266067 -66.635177
26.823988 23.709492 -67.469955
27.042748 24.447469 -66.696007
23.313522 28.689542 -46.579561
22.744151 29.609476 -47.446735
23.905036 27.741662 -45.622292
24.344184 26.748295 -44.566938
24.127063 28.16391 -46.979852
23.313522 28.689542 -46.579561
23.905036 27.741662 -45.622292
6.000464 25.448251 -68.138797
5.364377 25.878698 -67.352222
6.171577 26.643546 -67.794754
6.626016 24.973384 -68.890155
6.000464 25.448251 -68.138797
7.252337 24.429127 -69.589576
6.626016 24.973384 -68.890155
7.433986 25.668844 -69.28075
7.933073 23.968693 -70.237881
7.125103 23.273232 -69.847286
7.252337 24.429127 -69.589576
8.816187 24.604487 -70.597931
8.956661 25.805898 -70.219036
9.71254 25.285796 -70.836796
7.933073 23.968693 -70.237881
8.816187 24.604487 -70.597931
30.949665 18.350551 -40.378073
30.427526 17.944311 -39.174453
30.72343 19.345643 -41.562454
30.949665 18.350551 -40.378073
15.765332 36.17563 -55.398929
16.524817 35.731036 -54.807035
15.598657 35.984829 -56.767818
14.869979 36.534284 -55.962986
15.765332 36.17563 -55.398929
19.448455 24.408203 -71.806206
18.310264 24.259719 -72.160732
18.539788 25.357816 -71.69772
23.085754 26.265529 -69.08622
23.258172 27.095872 -68.318089
24.137454 26.083416 -68.380916
22.013376 26.406636 -69.702713
23.085754 26.265529 -69.08622
20.911269 26.546498 -70.220687
21.104365 27.417847 -69.541367
22.013376 26.406636 -69.702713
20.74913 25.520793 -70.862614
19.840119 26.532004 -70.701267
20.911269 26.546498 -70.220687
20.561678 24.482518 -71.389141
20.74913 25.520793 -70.862614
20.332154 23.384421 -71.852154
19.448455 24.408203 -71.806206
20.561678 24.482518 -71.389141
18.112552 34.69795 -53.371584
17.365285 35.264381 -54.056399
18.827134 34.159288 -52.562191
19.562237 33.447313 -51.683478
18.88953 34.154205 -53.893095
18.112552 34.69795 -53.371584
18.827134 34.159288 -52.562191
21.633808 31.248159 -49.320546
22.196724 30.417533 -48.416718
21.773116 31.488641 -50.75759
20.966228 32.008896 -50.201048
21.633808 31.248159 -49.320546
13.177282 37.024313 -57.178122
14.063166 36.833603 -56.637569
13.817419 36.534193 -57.872427
13.177282 37.024313 -57.178122
12.283707 37.262432 -57.604132
10.131625 38.487589 -56.371071
10.74946 37.893301 -57.145513
9.292288 38.575762 -56.738401
10.131625 38.487589 -56.371071
9.020703 37.946041 -57.755623
9.647184 37.402963 -58.554396
8.804845 37.362364 -58.814276
9.292288 38.575762 -56.738401
9.020703 37.946041 -57.755623
7.092581 37.026635 -59.165022
6.894089 36.164482 -60.083447
5.699685 31.590612 -64.104735
5.871469 32.576386 -63.320114
6.480892 32.176569 -64.149698
5.699685 31.590612 -64.104735
5.474881 30.535926 -64.689343
5.258762 29.53466 -65.262992
5.073436 28.445639 -65.724968
13.333971 25.050795 -72.07341
14.364342 25.47715 -72.046276
14.133436 24.214883 -72.448986
12.295159 24.483064 -72.061836
12.526066 25.745331 -71.659126
13.333971 25.050795 -72.07341
11.26325 23.97992 -71.908035
12.295159 24.483064 -72.061836
26.873641 23.744613 -43.207598
27.682272 23.197492 -43.417881
26.466328 24.730946 -44.209041
26.873641 23.744613 -43.207598
26.850209 25.158213 -45.584772
26.012638 25.692158 -45.280874
26.466328 24.730946 -44.209041
30.477912 20.371817 -42.757188
29.92668 19.987707 -41.438531
30.72343 19.345643 -41.562454
30.137871 21.417783 -44.008194
30.477912 20.371817 -42.757188
30.934621 20.775718 -44.132116
30.930875 22.118265 -46.676212
31.338218 21.151743 -45.507809
30.181017 22.787941 -46.558624
30.930875 22.118265 -46.676212
30.517312 23.084522 -47.851715
29.965267 25.217894 -52.630817
29.714774 25.143701 -51.391506
29.350298 26.034943 -53.755104
29.965267 25.217894 -52.630817
30.195919 25.225613 -53.922428
30.478008 25.00228 -57.568298
30.413933 25.15106 -56.403116
29.828401 25.612372 -58.662348
30.478008 25.00228 -57.568298
29.099919 26.245216 -59.788345
28.991122 26.570637 -58.677779
29.828401 25.612372 -58.662348
29.15296 25.850872 -60.876164
28.31568 26.809137 -60.891594
29.099919 26.245216 -59.788345
29.181287 25.387438 -61.900961
29.15296 25.850872 -60.876164
29.081575 24.911828 -62.950542
28.26901 25.939183 -63.028993
29.181287 25.387438 -61.900961
30.739896 23.167451 -61.761994
31.509124 22.530256 -60.650379
29.898475 23.81797 -62.781769
30.739896 23.167451 -61.761994
30.644518 22.625338 -62.721252
28.986198 24.369715 -63.909802
29.081575 24.911828 -62.950542
29.898475 23.81797 -62.781769
28.807847 22.779737 -65.694988
28.916491 23.63995 -64.801129
29.694453 22.415644 -64.634888
27.811127 23.266067 -66.635177
28.807847 22.779737 -65.694988
3 0 35 33
3 0 37 35
3 1 40 38
3 1 42 40
3 1 44 42
3 2 47 45
3 4 50 48
3 4 52 50
3 4 54 52
3 130 129 55
3 5 58 56
3 5 60 58
3 3 63 61
3 6 66 64
3 6 131 133
3 133 132 66
3 131 132 133
3 6 134 135
3 137 136 67
3 139 138 68
3 7 140 141
3 7 142 144
3 142 70 143
3 142 143 144
3 7 71 70
3 8 75 73
3 10 76 34
3 10 77 76
3 10 79 77
3 12 80 36
3 12 81 80
3 145 82 146
3 147 83 148
3 149 148 82
3 147 148 149
3 14 86 84
3 16 87 39
3 16 88 87
3 16 90 88
3 18 91 41
3 18 92 91
3 18 93 92
3 19 150 152
3 152 151 43
3 150 151 152
3 19 153 154
3 20 155 157
3 155 94 156
3 155 156 157
3 22 95 46
3 22 96 95
3 9 97 74
3 23 98 49
3 23 99 98
3 23 100 99
3 24 101 51
3 24 102 101
3 24 104 102
3 26 105 53
3 26 106 105
3 11 107 78
3 27 158 160
3 158 108 159
3 158 159 160
3 27 109 108
3 13 161 163
3 161 110 162
3 161 162 163
3 28 111 57
3 28 112 111
3 28 113 112
3 29 114 59
3 29 115 114
3 21 164 165
3 30 166 168
3 168 167 62
3 166 167 168
3 30 169 171
3 169 116 170
3 169 170 171
3 15 117 85
3 31 118 65
3 31 172 174
3 174 173 118
3 172 173 174
3 31 175 177
3 175 176 177
3 17 178 180
3 180 179 89
3 178 179 180
3 25 119 103
3 182 181 69
3 32 183 185
3 183 120 184
3 183 184 185
3 32 121 120
3 186 122 187
3 188 123 189
3 190 124 191
3 192 191 123
3 190 191 192
3 193 125 194
3 195 194 124
3 193 194 195
3 196 126 197
3 198 127 199
3 200 199 126
3 198 199 200
3 201 128 202
3 203 202 72
3 201 202 203
3 205 204 128
3 33 34 8
3 35 34 33
3 35 10 34
3 35 36 10
3 37 36 35
3 37 12 36
3 38 39 14
3 40 39 38
3 40 16 39
3 40 41 16
3 42 41 40
3 42 18 41
3 42 43 18
3 44 43 42
3 44 19 43
3 45 46 20
3 47 46 45
3 47 22 46
3 48 49 9
3 50 49 48
3 50 23 49
3 50 51 23
3 52 51 50
3 52 24 51
3 52 53 24
3 54 53 52
3 54 26 53
3 55 206 208
3 208 207 11
3 206 207 208
3 210 209 55
3 211 27 212
3 56 57 13
3 58 57 56
3 58 28 57
3 58 59 28
3 60 59 58
3 60 29 59
3 61 62 21
3 63 62 61
3 63 30 62
3 64 65 15
3 66 65 64
3 66 31 65
3 66 213 215
3 215 214 31
3 213 214 215
3 217 216 66
3 67 218 220
3 220 219 17
3 218 219 220
3 222 221 67
3 68 69 25
3 223 69 224
3 225 224 68
3 223 224 225
3 227 226 69
3 70 228 229
3 70 230 231
3 70 232 233
3 71 234 236
3 236 235 70
3 234 235 236
3 71 237 239
3 237 32 238
3 237 238 239
3 240 72 241
3 242 72 243
3 245 244 72
3 73 74 2
3 75 74 73
3 75 9 74
3 34 75 8
3 76 75 34
3 76 9 75
3 76 48 9
3 77 48 76
3 77 4 48
3 77 78 4
3 79 78 77
3 79 11 78
3 36 79 10
3 80 79 36
3 80 11 79
3 80 55 11
3 81 55 80
3 81 246 248
3 248 247 55
3 246 247 248
3 249 13 250
3 82 251 252
3 82 253 255
3 253 13 254
3 253 254 255
3 82 56 13
3 83 56 82
3 83 5 56
3 84 85 3
3 86 85 84
3 86 15 85
3 39 86 14
3 87 86 39
3 87 15 86
3 87 64 15
3 88 64 87
3 88 6 64
3 88 89 6
3 90 89 88
3 90 17 89
3 41 90 16
3 91 90 41
3 91 17 90
3 91 67 17
3 92 67 91
3 92 256 258
3 258 257 67
3 256 257 258
3 92 259 260
3 93 261 263
3 263 262 92
3 261 262 263
3 93 264 266
3 264 265 266
3 43 93 18
3 267 93 268
3 269 268 43
3 267 268 269
3 271 270 93
3 272 7 273
3 275 274 7
3 94 276 277
3 94 278 280
3 278 21 279
3 278 279 280
3 46 94 20
3 95 94 46
3 95 21 94
3 95 61 21
3 96 61 95
3 96 3 61
3 74 47 2
3 97 47 74
3 97 22 47
3 49 97 9
3 98 97 49
3 98 22 97
3 98 96 22
3 99 96 98
3 99 3 96
3 99 84 3
3 100 84 99
3 100 14 84
3 51 100 23
3 101 100 51
3 101 14 100
3 101 38 14
3 102 38 101
3 102 1 38
3 102 103 1
3 104 103 102
3 104 25 103
3 53 104 24
3 105 104 53
3 105 25 104
3 105 68 25
3 106 68 105
3 106 281 283
3 283 282 68
3 281 282 283
3 78 54 4
3 107 54 78
3 107 26 54
3 284 107 285
3 286 285 11
3 284 285 286
3 287 107 288
3 289 26 290
3 291 290 107
3 289 290 291
3 292 106 293
3 294 293 26
3 292 293 294
3 295 106 296
3 299 298 106
3 297 298 299
3 300 20 301
3 108 302 303
3 108 304 306
3 304 20 305
3 304 305 306
3 108 45 20
3 109 45 108
3 109 2 45
3 110 307 308
3 110 309 311
3 309 27 310
3 309 310 311
3 57 110 13
3 111 110 57
3 111 27 110
3 111 109 27
3 112 109 111
3 112 2 109
3 112 73 2
3 113 73 112
3 113 8 73
3 59 113 28
3 114 113 59
3 114 8 113
3 114 33 8
3 115 33 114
3 115 0 33
3 62 312 314
3 314 313 21
3 312 313 314
3 316 315 62
3 116 317 318
3 116 319 320
3 85 63 3
3 117 63 85
3 117 30 63
3 65 117 15
3 118 117 65
3 118 30 117
3 118 116 30
3 321 116 322
3 323 322 118
3 321 322 323
3 325 324 116
3 327 326 31
3 89 328 330
3 330 329 6
3 328 329 330
3 332 331 89
3 334 333 17
3 103 44 1
3 119 44 103
3 119 19 44
3 69 119 25
3 335 119 336
3 337 336 69
3 335 336 337
3 338 19 339
3 340 339 119
3 338 339 340
3 342 341 19
3 120 343 344
3 120 345 346
3 120 347 349
3 347 83 348
3 347 348 349
3 121 83 120
3 121 5 83
3 350 71 351
3 352 351 7
3 350 351 352
3 122 353 355
3 353 71 354
3 353 354 355
3 122 32 71
3 356 122 357
3 123 358 360
3 358 122 359
3 358 359 360
3 123 32 122
3 123 121 32
3 124 121 123
3 124 5 121
3 124 60 5
3 125 60 124
3 125 29 60
3 361 125 362
3 126 363 365
3 363 125 364
3 363 364 365
3 126 29 125
3 126 115 29
3 127 115 126
3 127 0 115
3 366 127 367
3 368 127 369
3 370 0 371
3 372 371 127
3 370 371 372
3 373 37 374
3 375 374 0
3 373 374 375
3 376 37 377
3 378 12 379
3 380 379 37
3 378 379 380
3 72 381 382
3 128 383 385
3 385 384 72
3 383 384 385
3 128 386 388
3 386 12 387
3 386 387 388
3 128 81 12
3 389 81 390
3 391 390 128
3 389 390 391
3 393 392 81
