ply
format ascii 1.0
element vertex 251
property float x
property float y
property float z
element face 241
property list uchar int vertex_index
end_header
25.076122 7.595218 -22.21653
25.195616 -3.933396 -8.002165
31.155298 2.423312 -22.598259
24.891895 1.17836 -14.593688
22.503397 -0.258792 -8.620264
22.024481 2.037099 -11.47241
24.794682 -1.468041 -11.107872
27.859087 -1.779743 -14.568269
27.882368 -4.733864 -10.970621
23.337385 -2.154346 -6.094872
28.120338 4.992857 -22.296413
28.331184 8.843018 -26.606977
31.323446 6.359568 -26.798546
22.067844 7.229806 -18.330969
22.02552 4.36117 -14.669696
25.033373 4.244755 -18.36076
27.960791 1.498735 -18.365065
26.013191 -6.003912 -5.181726
28.183262 -7.255598 -7.658573
23.863245 -2.184386 -8.344473
23.59919 -1.038158 -9.763303
25.054792 -2.841982 -9.5476
26.32527 -3.197081 -10.933547
26.535955 -4.550164 -9.331366
23.542295 8.99267 -22.197321
23.689213 10.612522 -24.189125
25.195612 9.322715 -24.258615
29.693041 3.773641 -22.517412
29.784473 5.586611 -24.49283
31.249643 4.268987 -24.571432
23.405874 1.365841 -12.841656
22.040707 3.119056 -13.042845
23.363482 2.762305 -14.566969
23.367144 4.276382 -16.430588
24.812096 2.716088 -16.330843
26.383698 2.873666 -18.251097
26.451361 1.266361 -16.501534
29.877695 9.597982 -28.822672
28.442745 10.880837 -28.912834
22.184511 0.894605 -9.985554
23.334837 0.252174 -11.221595
24.839849 -0.275582 -12.727106
26.389563 -0.293051 -14.619729
26.27965 -1.764397 -12.708573
27.749031 -3.256641 -12.6768
22.820599 -1.182826 -7.330189
24.137857 -3.164264 -6.907279
26.689072 6.252254 -22.3011
26.638733 8.186471 -24.367916
28.270779 6.897289 -24.46884
29.80393 7.603901 -26.628431
22.089954 8.756927 -20.207632
23.512123 7.274281 -20.174498
22.014275 5.853314 -16.552505
23.572025 5.627775 -18.305048
24.989634 6.010427 -20.336126
26.540987 4.523632 -20.254681
28.115641 3.211416 -20.381588
29.578751 1.85161 -20.393539
27.868387 -0.180769 -16.403662
29.518801 0.063115 -18.43416
24.68679 -4.218709 -5.590319
25.556522 -5.021492 -6.597411
27.064228 -6.834277 -6.236911
26.577856 -5.607552 -7.682651
27.896688 -6.002172 -9.213383
26.886471 10.049119 -26.619652
26.71191 13.946425 -30.733755
29.873486 10.705941 -30.028186
30.600735 10.056809 -30.019779
22.343954 0.317906 -9.302909
21.730812 1.312129 -9.4536
21.890255 0.73543 -8.770955
28.593443 -4.750521 -11.85068
28.526775 -4.01191 -12.703769
27.8157 -3.995252 -11.823711
23.6541 11.540717 -25.178421
24.439895 10.90383 -25.25262
23.078992 -1.668586 -6.71253
22.469233 -0.595365 -6.939362
22.727626 -1.081125 -6.321703
31.338331 7.355487 -27.857654
30.578573 7.977654 -27.772596
30.563688 6.981734 -26.713489
22.078899 7.993366 -19.2693
21.403914 8.794165 -19.290684
21.392859 8.030605 -18.352352
21.442366 2.923364 -11.605353
20.900157 3.312615 -10.964149
21.482272 2.42635 -10.831206
21.402178 4.653479 -13.978576
21.409772 4.032421 -13.16515
22.033113 3.740113 -13.856271
21.382908 5.263051 -14.796493
21.402178 4.653479 -13.978576
22.019897 5.107242 -15.6111
21.377285 6.009123 -15.737897
21.382908 5.263051 -14.796493
30.25452 -0.651703 -18.476233
29.428638 -0.730469 -17.473995
30.325707 0.275448 -19.518628
30.25452 -0.651703 -18.476233
25.34999 -5.111311 -5.386023
24.954744 -4.593064 -4.967723
25.617945 -5.485666 -4.763427
27.623745 -7.044937 -6.947742
27.739555 -7.584774 -6.113796
28.299072 -7.795435 -6.824628
27.588833 11.40267 -28.721409
28.36251 11.867635 -29.927399
27.497092 13.400429 -30.837859
26.723416 12.935465 -29.63187
23.615754 9.802596 -23.193223
22.891296 10.460607 -23.117598
22.817837 9.65068 -22.121696
25.193095 10.258926 -25.287364
24.439895 10.90383 -25.25262
24.442412 9.967619 -24.22387
23.030921 -1.468088 -5.800361
22.727626 -1.081125 -6.321703
21.329545 7.403282 -17.43989
21.392859 8.030605 -18.352352
28.598782 -1.651898 -15.541049
28.616292 -2.49027 -14.617327
26.316242 -6.453831 -4.495833
25.617945 -5.485666 -4.763427
28.905781 -8.055232 -7.50344
28.299072 -7.795435 -6.824628
28.802272 -7.435578 -8.357319
28.905781 -8.055232 -7.50344
29.156011 11.347368 -30.073267
29.16022 10.23941 -28.867753
29.873486 10.705941 -30.028186
28.36251 11.867635 -29.927399
29.156011 11.347368 -30.073267
31.938882 2.694589 -23.718891
31.847134 1.678216 -22.604499
21.562287 1.855103 -10.087778
21.730812 1.312129 -9.4536
22.104496 1.465852 -10.728982
21.482272 2.42635 -10.831206
21.562287 1.855103 -10.087778
28.561264 -3.228719 -13.671592
28.616292 -2.49027 -14.617327
27.804059 -2.518192 -13.622535
28.561264 -3.228719 -13.671592
28.526775 -4.01191 -12.703769
22.938769 11.228756 -24.051929
22.891296 10.460607 -23.117598
22.938769 11.228756 -24.051929
23.6541 11.540717 -25.178421
22.082622 0.264108 -8.183664
21.890255 0.73543 -8.770955
21.46948 1.258331 -8.334355
22.241224 -0.197908 -7.538626
22.469233 -0.595365 -6.939362
22.661998 -0.720809 -7.975226
22.082622 0.264108 -8.183664
22.241224 -0.197908 -7.538626
30.615455 8.974694 -28.869717
29.840812 8.600941 -27.725552
30.578573 7.977654 -27.772596
30.600735 10.056809 -30.019779
30.615455 8.974694 -28.869717
31.986054 3.617426 -24.705478
31.20247 3.34615 -23.584846
31.938882 2.694589 -23.718891
31.982974 4.654006 -25.746561
31.986054 3.617426 -24.705478
32.019875 5.699297 -26.860118
31.286544 5.314278 -25.684989
31.982974 4.654006 -25.746561
32.062886 6.756585 -27.998538
32.019875 5.699297 -26.860118
32.759315 6.096314 -28.06011
31.338331 7.355487 -27.857654
32.062886 6.756585 -27.998538
21.405591 9.521384 -20.197652
21.403914 8.794165 -19.290684
22.091667 9.532809 -21.126852
21.405591 9.521384 -20.197652
22.816125 8.874799 -21.202476
22.817837 9.65068 -22.121696
22.091667 9.532809 -21.126852
21.45048 3.464342 -12.39057
21.442366 2.923364 -11.605353
22.032594 2.578078 -12.257627
21.45048 3.464342 -12.39057
21.409772 4.032421 -13.16515
21.302761 6.715037 -16.550658
21.377285 6.009123 -15.737897
22.04106 6.54156 -17.441737
21.329545 7.403282 -17.43989
21.302761 6.715037 -16.550658
28.603431 -0.852411 -16.458746
27.863737 -0.980256 -15.485966
28.598782 -1.651898 -15.541049
28.693594 -0.058827 -17.418911
28.603431 -0.852411 -16.458746
29.428638 -0.730469 -17.473995
30.355682 1.169695 -20.498317
29.548776 0.957363 -19.413849
30.325707 0.275448 -19.518628
31.143955 1.455547 -21.600677
30.367024 2.137461 -21.495899
30.355682 1.169695 -20.498317
31.847134 1.678216 -22.604499
31.143955 1.455547 -21.600677
23.63225 -2.556015 -5.532704
23.030921 -1.468088 -5.800361
24.306952 -3.588197 -5.280427
24.954744 -4.593064 -4.967723
24.012087 -3.186527 -5.842595
23.63225 -2.556015 -5.532704
24.306952 -3.588197 -5.280427
26.69376 -6.843856 -4.9722
26.316242 -6.453831 -4.495833
26.996811 -7.293775 -4.286306
27.219279 -7.259039 -5.499792
27.739555 -7.584774 -6.113796
26.538709 -6.419094 -5.709319
26.69376 -6.843856 -4.9722
27.219279 -7.259039 -5.499792
28.658985 -6.808865 -9.134725
28.039975 -6.628885 -8.435978
28.802272 -7.435578 -8.357319
28.57743 -6.13173 -9.986611
28.658985 -6.808865 -9.134725
28.57027 -5.497576 -10.86523
27.889528 -5.368018 -10.092002
28.57743 -6.13173 -9.986611
28.593443 -4.750521 -11.85068
28.57027 -5.497576 -10.86523
26.038525 10.622128 -26.467883
25.193095 10.258926 -25.287364
26.041041 9.685917 -25.439133
26.810696 10.986811 -27.574818
27.664608 10.464978 -27.766243
27.588833 11.40267 -28.721409
26.038525 10.622128 -26.467883
26.810696 10.986811 -27.574818
25.916985 13.566592 -29.580346
26.723416 12.935465 -29.63187
25.922581 14.57472 -30.683728
25.916985 13.566592 -29.580346
27.454415 14.409496 -31.933656
27.497092 13.400429 -30.837859
26.636156 14.991081 -31.828257
27.454415 14.409496 -31.933656
25.922581 14.57472 -30.683728
26.636156 14.991081 -31.828257
3 1 21 19
3 1 23 21
3 0 26 24
3 2 29 27
3 3 32 30
3 3 34 32
3 3 36 34
3 69 68 37
3 4 70 72
3 70 39 71
3 70 71 72
3 6 40 20
3 6 41 40
3 6 43 41
3 8 44 22
3 8 73 75
3 75 74 44
3 73 74 75
3 77 76 25
3 9 78 80
3 78 45 79
3 78 79 80
3 9 46 45
3 10 49 47
3 12 50 28
3 12 81 83
3 83 82 50
3 81 82 83
3 13 84 86
3 84 51 85
3 84 85 86
3 13 52 51
3 5 87 89
3 87 88 89
3 14 90 92
3 92 91 31
3 90 91 92
3 14 93 94
3 14 95 97
3 95 53 96
3 95 96 97
3 15 54 33
3 15 55 54
3 15 56 55
3 16 57 35
3 16 58 57
3 7 59 42
3 98 60 99
3 101 100 60
3 17 102 104
3 102 61 103
3 102 103 104
3 17 62 61
3 18 105 107
3 105 63 106
3 105 106 107
3 18 64 63
3 18 65 64
3 11 66 48
3 109 108 38
3 110 67 111
3 19 20 4
3 21 20 19
3 21 6 20
3 21 22 6
3 23 22 21
3 23 8 22
3 24 112 114
3 112 25 113
3 112 113 114
3 26 25 24
3 26 115 117
3 117 116 25
3 115 116 117
3 118 9 119
3 27 28 10
3 29 28 27
3 29 12 28
3 120 13 121
3 30 31 5
3 32 31 30
3 32 14 31
3 32 33 14
3 34 33 32
3 34 15 33
3 34 35 15
3 36 35 34
3 36 16 35
3 123 122 7
3 124 17 125
3 126 18 127
3 129 128 18
3 37 38 11
3 130 38 131
3 132 131 37
3 130 131 132
3 134 133 38
3 136 135 2
3 39 137 138
3 39 139 141
3 139 5 140
3 139 140 141
3 20 39 4
3 40 39 20
3 40 5 39
3 40 30 5
3 41 30 40
3 41 3 30
3 41 42 3
3 43 42 41
3 43 7 42
3 22 43 6
3 44 43 22
3 44 7 43
3 44 142 144
3 144 143 7
3 142 143 144
3 146 145 44
3 25 147 148
3 150 149 25
3 151 4 152
3 151 152 153
3 45 154 155
3 45 156 158
3 156 4 157
3 156 157 158
3 45 19 4
3 46 19 45
3 46 1 19
3 47 48 0
3 49 48 47
3 49 11 48
3 28 49 10
3 50 49 28
3 50 11 49
3 50 37 11
3 159 37 160
3 161 160 50
3 159 160 161
3 163 162 37
3 164 29 165
3 166 165 2
3 164 165 166
3 167 29 168
3 169 12 170
3 171 170 29
3 169 170 171
3 172 12 173
3 172 173 174
3 176 175 12
3 51 177 178
3 51 179 180
3 51 181 183
3 181 24 182
3 181 182 183
3 52 24 51
3 52 0 24
3 31 184 186
3 186 185 5
3 184 185 186
3 188 187 31
3 53 189 190
3 53 191 193
3 191 13 192
3 191 192 193
3 33 53 14
3 54 53 33
3 54 13 53
3 54 52 13
3 55 52 54
3 55 0 52
3 55 47 0
3 56 47 55
3 56 10 47
3 35 56 15
3 57 56 35
3 57 10 56
3 57 27 10
3 58 27 57
3 58 2 27
3 42 36 3
3 59 36 42
3 59 16 36
3 194 59 195
3 196 195 7
3 194 195 196
3 60 197 199
3 197 59 198
3 197 198 199
3 60 16 59
3 60 58 16
3 200 58 201
3 202 201 60
3 200 201 202
3 203 2 204
3 205 204 58
3 203 204 205
3 207 206 2
3 208 9 209
3 61 210 211
3 61 212 214
3 212 9 213
3 212 213 214
3 61 46 9
3 62 46 61
3 62 1 46
3 215 17 216
3 215 216 217
3 63 218 219
3 63 220 222
3 220 17 221
3 220 221 222
3 63 62 17
3 64 62 63
3 64 1 62
3 64 23 1
3 65 23 64
3 65 8 23
3 223 65 224
3 225 224 18
3 223 224 225
3 226 65 227
3 228 8 229
3 230 229 65
3 228 229 230
3 232 231 8
3 48 26 0
3 66 26 48
3 66 233 235
3 235 234 26
3 233 234 235
3 38 66 11
3 236 66 237
3 238 237 38
3 236 237 238
3 240 239 66
3 67 241 242
3 67 243 244
3 245 67 246
3 247 67 248
3 250 249 67
