ply
format ascii 1.0
element vertex 493
property float x
property float y
property float z
element face 507
property list uchar int vertex_index
end_header
-8.31771 55.473354 -37.535313
-6.723172 41.9921 -50.233326
-14.550202 26.169161 -19.842663
-10.017678 46.865871 -36.082592
-11.051484 40.14505 -43.728619
-7.411442 48.961353 -42.78886
-15.472306 20.639458 -13.92986
-12.704807 40.438828 -21.537243
-10.309491 55.793217 -31.664524
-14.154989 31.395214 -27.198954
-11.489249 44.129005 -28.53546
-2.717985 50.479538 -48.14571
-0.807585 41.300247 -53.782513
-8.984982 51.662094 -36.743618
-8.93571 47.995613 -39.415958
-7.887032 52.45731 -39.655338
-9.174723 41.433815 -47.086212
-14.88412 23.433418 -16.638063
-14.313872 28.910019 -23.300066
-12.452987 47.555382 -22.91923
-12.071302 42.363285 -24.894495
-11.580011 49.105259 -26.374393
-10.789449 50.360813 -29.872423
-11.38198 55.44355 -28.254183
1.669123 45.258793 -52.312992
-11.487615 41.542786 -35.49815
-10.439343 43.210075 -39.474957
-8.99013 44.558102 -43.012707
-7.0645 45.324532 -46.380054
-16.327145 17.919907 -11.827921
-13.420637 33.027588 -20.512766
-13.481248 38.18961 -18.552414
-9.247067 56.001606 -34.891094
-12.987142 35.406891 -23.904795
-12.598077 37.648617 -27.662374
-12.160514 39.632729 -31.681627
-10.87678 45.556858 -32.174492
-9.941852 51.027637 -33.450451
-5.363359 50.002552 -45.636826
-4.644026 45.961372 -48.896469
-1.652936 45.98177 -50.938408
-3.835075 41.994678 -52.429771
-8.603057 53.853657 -37.120415
-8.456818 52.171177 -38.188198
-8.085259 54.195 -38.482601
-8.031091 41.745293 -48.788715
-14.667913 24.926197 -18.144371
-14.43209 27.537416 -21.575338
-11.985545 48.271912 -24.674063
-11.9248 51.694824 -25.55138
-11.474218 52.196907 -27.179245
-10.702951 44.231075 -35.751167
-11.056221 42.303848 -37.519855
-10.256232 44.763855 -37.676701
-8.195582 48.569675 -41.183437
-8.936642 46.276489 -41.133022
-8.159945 46.693619 -42.878742
-8.138738 44.941982 -44.707764
-7.223319 47.072838 -44.588829
-13.69401 34.360935 -17.905735
-15.871095 19.315071 -12.786996
-12.99744 36.742798 -21.007111
-13.169099 34.40115 -22.106884
-12.721889 37.845955 -22.613056
-11.7729 43.236679 -26.778606
-12.242721 39.791214 -26.202906
-11.991109 40.859646 -28.036385
-12.383564 38.709053 -29.627024
-11.729009 41.802876 -30.012817
-11.444731 42.641838 -31.962002
-11.181571 44.964134 -30.371693
-10.539385 53.083946 -30.709732
-10.361786 50.750168 -31.731165
-10.062067 53.429501 -32.453697
-9.599533 53.652729 -34.033096
-9.79201 56.000435 -33.276203
-4.107501 50.37516 -46.933315
-4.969986 47.993504 -47.258339
-3.659826 48.19965 -48.44323
0.414855 43.155273 -52.975048
-0.02398 45.60894 -51.751545
-1.165741 43.70528 -52.341877
-2.673777 43.862019 -51.659565
-2.282872 41.716785 -53.22506
-9.453408 49.429028 -36.335682
-9.540197 47.329403 -37.79604
-8.913242 49.895042 -38.0014
-8.340654 50.296677 -39.55389
-7.596584 50.856209 -41.176811
-10.149753 40.910599 -45.420994
-15.139335 22.038509 -15.216558
-14.266035 30.064302 -25.205132
-12.510109 43.87429 -22.249516
-12.387616 41.246075 -23.143606
-12.146056 44.878746 -23.823683
-11.784695 45.678055 -25.576559
-11.446898 46.704472 -27.250359
-11.111233 47.228924 -29.075972
-11.18947 49.643135 -28.10586
-11.029347 52.671524 -28.855457
-10.837894 55.692764 -29.99136
-12.317601 38.992512 -35.639534
-11.900513 39.956127 -37.527935
-11.385362 40.809872 -39.515213
-10.721015 41.648434 -41.436886
-9.621359 45.615093 -39.436447
-9.749341 43.958996 -41.310238
-9.955624 42.354092 -43.272144
-9.128735 42.856636 -44.975639
-8.041819 43.408039 -46.659672
-6.907622 43.542763 -48.345188
-16.639336 20.267448 -11.349235
-15.524339 22.861252 -13.246079
-15.042773 24.304506 -14.480832
-14.694542 25.637678 -15.617998
-14.382858 26.967554 -16.972878
-14.138363 28.22607 -18.481714
-13.93973 29.476204 -20.112247
-13.671797 31.883804 -18.950274
-13.317772 35.478882 -19.463528
-13.058972 39.278133 -20.050997
-12.927786 43.048447 -20.683096
-8.735191 55.741337 -36.353699
-13.724003 31.004671 -21.839811
-13.57262 32.240467 -23.577852
-13.448875 33.382374 -25.448629
-12.456399 38.970131 -24.406326
-12.780246 36.62899 -25.876959
-13.296394 34.551006 -27.325846
-13.150291 35.645256 -29.339624
-12.922072 36.854191 -31.382977
-12.701741 37.820717 -33.564117
-11.857535 40.618622 -33.568779
-11.092814 43.566322 -33.79401
-10.468621 46.25811 -34.202938
-10.73413 47.95631 -30.97842
-10.359898 48.356289 -32.8629
-9.925537 48.920334 -34.65696
-9.472488 51.556232 -35.077194
-9.078972 53.773941 -35.700096
-7.134723 53.262539 -41.090168
-6.790332 51.456131 -42.59586
-5.809237 51.926022 -44.05735
-6.495904 49.493874 -44.213169
-6.167493 47.600155 -45.962772
-5.939326 45.754436 -47.639462
-5.564865 43.915035 -49.570824
1.148381 47.981361 -51.195103
-0.504276 48.137936 -50.495422
-2.16398 48.163864 -49.574581
-3.172145 46.031532 -50.03083
-4.209932 43.96579 -50.681431
-5.369144 41.944572 -51.52702
-7.348762 41.115609 -50.604489
-8.002721 40.992205 -49.882183
-7.377131 41.868696 -49.511021
-6.662215 41.192938 -51.216917
-7.348762 41.115609 -50.604489
-14.914136 24.483712 -19.631842
-14.972991 23.86223 -18.782696
-14.609058 25.547679 -18.993517
-14.907813 25.124336 -20.529898
-14.914136 24.483712 -19.631842
-14.491146 26.853288 -20.709001
-14.848757 25.808464 -21.396235
-14.907813 25.124336 -20.529898
-12.174961 52.908343 -25.212513
-12.16864 51.277341 -24.701705
-11.91243 53.302721 -26.061118
-12.174961 52.908343 -25.212513
-11.682668 39.085325 -43.866194
-11.401731 39.804794 -42.731045
-15.714033 18.918216 -13.752148
-15.913428 18.256023 -13.180716
-15.671701 19.977265 -13.358428
-14.571269 30.680327 -28.253683
-14.647975 29.88559 -27.198384
-14.064405 32.092889 -28.160356
-14.571269 30.680327 -28.253683
-3.412743 50.427349 -47.539513
-3.69433 51.652414 -46.821032
-2.999573 51.704603 -47.427229
-1.397534 40.412886 -54.296326
-2.135178 40.621155 -54.0176
-1.545228 41.508516 -53.503787
-9.73847 40.531166 -47.40744
-10.225985 40.269558 -46.574831
-9.662238 41.172207 -46.253603
-15.190857 21.715492 -16.470864
-15.318465 21.018037 -15.760111
-15.011727 22.735964 -15.92731
-14.742397 27.935887 -24.167957
-14.781186 27.161991 -23.186217
-14.289953 29.487161 -24.252599
-14.718478 28.513029 -25.12049
-14.742397 27.935887 -24.167957
-16.93234 21.432519 -11.164127
-17.021237 19.61497 -10.91096
-15.687754 24.074454 -12.965406
-15.778415 22.230712 -12.751119
-14.90052 26.185201 -14.674621
-15.157929 25.352075 -14.091534
-14.726405 26.851787 -15.243204
-14.868658 24.971092 -15.049415
-14.90052 26.185201 -14.674621
-14.180298 28.784726 -17.228249
-14.359513 28.132176 -16.549529
-14.058051 29.413984 -17.982667
-14.260611 27.596812 -17.727296
-14.180298 28.784726 -17.228249
-13.824768 31.242851 -18.216947
-13.90508 30.054937 -18.715994
-14.058051 29.413984 -17.982667
-13.174046 44.20575 -20.243424
-13.158987 42.379881 -19.92093
-12.916291 44.789727 -21.023573
-13.174046 44.20575 -20.243424
-16.533682 16.171146 -11.59466
-16.604665 17.350893 -11.369335
-6.67758 53.60478 -41.835316
-6.930827 54.462 -41.112679
-6.505384 52.701576 -42.588161
-6.962528 52.359335 -41.843014
-6.67758 53.60478 -41.835316
-5.586298 50.964287 -44.847088
-5.201995 52.223084 -44.757204
-4.979056 51.261348 -45.546942
1.408752 46.620077 -51.754047
1.96877 47.891289 -51.444579
2.229141 46.530004 -52.003523
-4.463493 41.177652 -52.84406
-5.230527 41.152599 -52.392685
-4.60211 41.969625 -51.978396
-8.59722 40.920412 -49.083389
-9.169037 40.764673 -48.232138
-8.602907 41.589554 -47.937464
-8.59722 40.920412 -49.083389
-8.002721 40.992205 -49.882183
-15.023706 23.163857 -18.032871
-15.131809 22.417468 -17.279716
-14.776017 24.179807 -17.391217
-15.023706 23.163857 -18.032871
-14.972991 23.86223 -18.782696
-14.840295 26.47569 -22.323853
-14.848757 25.808464 -21.396235
-14.372981 28.223717 -22.437702
-14.781186 27.161991 -23.186217
-14.840295 26.47569 -22.323853
-12.199013 49.565886 -24.263047
-12.219266 47.913647 -23.796647
-12.432734 49.207621 -23.38563
-11.955172 49.983368 -25.112721
-12.199013 49.565886 -24.263047
-12.16864 51.277341 -24.701705
-11.68714 53.553763 -26.875051
-11.699509 51.945865 -26.365313
-11.91243 53.302721 -26.061118
-11.64102 55.177084 -27.41252
-11.428099 53.820228 -27.716714
-11.68714 53.553763 -26.875051
-13.89151 33.766016 -17.251811
-13.835874 32.481416 -17.694677
-13.830605 35.638206 -17.508651
-13.89151 33.766016 -17.251811
-13.724224 37.552544 -17.831991
-13.587629 36.275272 -18.229074
-13.830605 35.638206 -17.508651
-16.076155 17.619459 -12.614818
-16.304181 16.921876 -12.135281
-16.09912 18.617489 -12.307458
-16.076155 17.619459 -12.614818
-15.913428 18.256023 -13.180716
-4.351127 51.447653 -46.195187
-3.69433 51.652414 -46.821032
-4.73543 50.188856 -46.285071
-4.979056 51.261348 -45.546942
-4.351127 51.447653 -46.195187
-2.921041 40.861326 -53.701021
-3.697143 41.000273 -53.303377
-3.058973 41.855732 -52.827416
-2.921041 40.861326 -53.701021
-2.135178 40.621155 -54.0176
-10.767356 39.897827 -45.692086
-11.218221 39.515053 -44.845898
-10.600618 40.527824 -44.574807
-10.767356 39.897827 -45.692086
-10.225985 40.269558 -46.574831
-9.73847 40.531166 -47.40744
-9.169037 40.764673 -48.232138
-15.411314 20.340827 -15.077682
-15.5778 19.641302 -14.434334
-15.30582 21.338984 -14.573209
-15.411314 20.340827 -15.077682
-15.318465 21.018037 -15.760111
-15.190857 21.715492 -16.470864
-15.131809 22.417468 -17.279716
-14.703498 29.220135 -26.201473
-14.718478 28.513029 -25.12049
-14.210512 30.729758 -26.202043
-14.647975 29.88559 -27.198384
-14.703498 29.220135 -26.201473
-2.314232 51.854503 -47.956459
-2.999573 51.704603 -47.427229
2.496336 45.065491 -52.488214
2.229141 46.530004 -52.003523
1.885649 43.880756 -52.859718
2.496336 45.065491 -52.488214
1.258515 42.828997 -53.190747
1.041989 44.207033 -52.64402
1.885649 43.880756 -52.859718
0.582531 41.897575 -53.592207
1.258515 42.828997 -53.190747
-0.028689 40.970062 -53.99594
-0.196365 42.22776 -53.378781
0.582531 41.897575 -53.592207
-0.609156 40.084194 -54.50169
-0.028689 40.970062 -53.99594
-12.630168 38.200914 -36.634823
-12.816826 37.67823 -35.612223
-12.421625 38.682722 -37.579023
-12.630168 38.200914 -36.634823
-12.109057 39.47432 -36.583734
-12.144263 39.245753 -38.602728
-12.421625 38.682722 -37.579023
-11.886688 39.672625 -39.596367
-12.144263 39.245753 -38.602728
-11.642938 40.382999 -38.521574
-11.56867 40.137206 -40.624342
-11.886688 39.672625 -39.596367
-11.236496 40.556487 -41.585178
-11.56867 40.137206 -40.624342
-11.053189 41.229153 -40.47605
-10.886249 40.896742 -42.582752
-11.401731 39.804794 -42.731045
-11.236496 40.556487 -41.585178
-16.76076 18.524664 -11.129992
-17.021237 19.61497 -10.91096
-16.483241 19.093677 -11.588578
-16.604665 17.350893 -11.369335
-16.76076 18.524664 -11.129992
-16.552266 22.229307 -11.596947
-16.93234 21.432519 -11.164127
-16.335913 20.93381 -11.802698
-16.552266 22.229307 -11.596947
-16.179817 19.760039 -12.04204
-16.483241 19.093677 -11.588578
-16.335913 20.93381 -11.802698
-15.951792 20.457622 -12.521578
-16.09912 18.617489 -12.307458
-16.179817 19.760039 -12.04204
-15.697717 21.088161 -13.016538
-15.951792 20.457622 -12.521578
-15.778415 22.230712 -12.751119
-15.398712 24.630448 -13.474158
-15.687754 24.074454 -12.965406
-15.283556 23.582879 -13.863456
-15.398712 24.630448 -13.474158
-15.157929 25.352075 -14.091534
-14.515355 27.467238 -15.872089
-14.726405 26.851787 -15.243204
-14.5387 26.302616 -16.295438
-14.515355 27.467238 -15.872089
-14.359513 28.132176 -16.549529
-13.682904 33.122369 -18.428005
-13.824768 31.242851 -18.216947
-13.835874 32.481416 -17.694677
-13.703598 39.392125 -18.133722
-13.724224 37.552544 -17.831991
-13.435719 39.950463 -18.855589
-13.703598 39.392125 -18.133722
-13.224581 40.494724 -19.604881
-13.27011 38.733871 -19.301705
-13.435719 39.950463 -18.855589
-12.993379 41.16329 -20.367047
-13.224581 40.494724 -19.604881
-13.158987 42.379881 -19.92093
-12.707453 45.202648 -21.806783
-12.718947 43.461369 -21.466306
-12.916291 44.789727 -21.023573
-12.678892 47.043194 -22.14164
-12.481548 45.714836 -22.584373
-12.707453 45.202648 -21.806783
-12.697672 48.933476 -22.603921
-12.678892 47.043194 -22.14164
-12.432734 49.207621 -23.38563
-12.697672 48.933476 -22.603921
-11.682668 39.085325 -43.866194
-11.218221 39.515053 -44.845898
-8.103388 55.865486 -38.019806
-8.328911 56.388506 -37.399786
-11.644391 56.705501 -27.954312
-11.64102 55.177084 -27.41252
-11.356204 56.940136 -28.792217
-11.644391 56.705501 -27.954312
-11.084161 57.064743 -29.660805
-11.109937 55.568157 -29.122771
-11.356204 56.940136 -28.792217
-10.756384 57.014488 -30.53423
-11.084161 57.064743 -29.660805
-10.492183 57.064715 -31.370812
-10.573692 55.74299 -30.827942
-10.756384 57.014488 -30.53423
-10.178406 57.132238 -32.242722
-10.492183 57.064715 -31.370812
-9.919666 57.235848 -33.048561
-10.05075 55.896826 -32.470364
-10.178406 57.132238 -32.242722
-9.642196 57.106959 -33.780077
-9.919666 57.235848 -33.048561
-9.369725 57.107544 -34.587523
-9.519538 56.001021 -34.083649
-9.642196 57.106959 -33.780077
-9.06259 56.943745 -35.386106
-9.369725 57.107544 -34.587523
-8.806652 56.81361 -36.117409
-8.991129 55.871471 -35.622397
-9.06259 56.943745 -35.386106
-8.537651 56.522498 -36.808979
-8.806652 56.81361 -36.117409
-8.328911 56.388506 -37.399786
-8.52645 55.607346 -36.944506
-8.537651 56.522498 -36.808979
-16.533682 16.171146 -11.59466
-16.304181 16.921876 -12.135281
-15.714033 18.918216 -13.752148
-15.5778 19.641302 -14.434334
-13.635108 33.670786 -28.223802
-14.064405 32.092889 -28.160356
-13.725691 32.97311 -27.2624
-13.562057 34.217911 -29.230691
-13.635108 33.670786 -28.223802
-13.223342 35.098131 -28.332735
-13.499986 34.813704 -30.372857
-13.562057 34.217911 -29.230691
-13.385877 35.418171 -31.394534
-13.499986 34.813704 -30.372857
-13.036181 36.249724 -30.3613
-13.273041 36.033696 -32.494772
-13.385877 35.418171 -31.394534
-13.162876 36.516959 -33.585342
-13.273041 36.033696 -32.494772
-12.811906 37.337454 -32.473547
-13.008896 37.092333 -34.574514
-13.162876 36.516959 -33.585342
-12.509671 38.406615 -34.601826
-12.816826 37.67823 -35.612223
-13.008896 37.092333 -34.574514
-7.987163 55.226309 -38.49345
-8.201484 54.834177 -38.008957
-8.103388 55.865486 -38.019806
-7.798332 54.501182 -39.10907
-7.987163 55.226309 -38.49345
-7.699218 53.632337 -39.695438
-7.986146 53.326155 -39.06897
-7.798332 54.501182 -39.10907
-7.323064 54.034952 -40.412853
-6.930827 54.462 -41.112679
-7.510877 52.859924 -40.372753
-7.699218 53.632337 -39.695438
-7.323064 54.034952 -40.412853
-5.508741 53.241427 -43.997837
-5.201995 52.223084 -44.757204
-6.014837 52.936521 -43.318906
-5.508741 53.241427 -43.997837
-6.299785 51.691077 -43.326605
-6.505384 52.701576 -42.588161
-6.014837 52.936521 -43.318906
-1.981267 50.556455 -48.634514
-2.314232 51.854503 -47.956459
1.655475 49.375929 -50.933487
1.96877 47.891289 -51.444579
0.805393 49.367757 -50.594965
1.655475 49.375929 -50.933487
-0.020936 49.446045 -50.245125
0.805393 49.367757 -50.594965
0.322053 48.059649 -50.845263
-0.874412 49.385655 -49.80937
-0.020936 49.446045 -50.245125
-1.704264 49.398618 -49.34895
-0.874412 49.385655 -49.80937
-1.334128 48.1509 -50.035001
-2.440983 49.321701 -48.860146
-1.981267 50.556455 -48.634514
-1.704264 49.398618 -49.34895
-5.985201 41.169174 -51.863764
-6.662215 41.192938 -51.216917
-6.046158 41.968336 -50.880173
-5.985201 41.169174 -51.863764
-5.230527 41.152599 -52.392685
-4.463493 41.177652 -52.84406
-3.697143 41.000273 -53.303377
-1.397534 40.412886 -54.296326
-0.609156 40.084194 -54.50169
3 0 44 42
3 1 153 155
3 155 154 45
3 153 154 155
3 1 156 157
3 2 158 160
3 160 159 46
3 158 159 160
3 2 161 162
3 2 163 165
3 163 47 164
3 163 164 165
3 166 49 167
3 169 168 49
3 3 53 51
3 5 56 54
3 5 58 56
3 4 170 171
3 6 172 174
3 174 173 60
3 172 173 174
3 9 175 176
3 9 177 178
3 7 63 61
3 10 66 64
3 10 68 66
3 10 70 68
3 8 73 71
3 8 75 73
3 11 179 181
3 179 76 180
3 179 180 181
3 11 78 76
3 12 81 79
3 12 83 81
3 12 182 184
3 184 183 83
3 182 183 184
3 13 86 84
3 15 87 43
3 15 88 87
3 16 185 187
3 187 186 89
3 185 186 187
3 17 188 190
3 190 189 90
3 188 189 190
3 18 191 192
3 18 193 195
3 193 91 194
3 193 194 195
3 19 94 92
3 21 95 48
3 21 96 95
3 21 98 96
3 23 99 50
3 23 100 99
3 25 102 101
3 26 103 52
3 26 104 103
3 14 105 85
3 27 106 55
3 27 107 106
3 27 108 107
3 28 109 57
3 28 110 109
3 196 111 197
3 198 112 199
3 200 113 201
3 202 114 203
3 204 203 113
3 202 203 204
3 205 115 206
3 207 116 208
3 209 208 115
3 207 208 209
3 210 118 211
3 212 211 116
3 210 211 212
3 31 119 59
3 31 120 119
3 213 121 214
3 216 215 121
3 29 217 218
3 30 123 117
3 33 124 62
3 33 125 124
3 20 126 93
3 34 127 65
3 34 128 127
3 34 129 128
3 35 130 67
3 35 131 130
3 35 132 131
3 36 133 69
3 36 134 133
3 22 135 97
3 37 136 72
3 37 137 136
3 37 138 137
3 32 139 74
3 32 122 139
3 219 140 220
3 221 141 222
3 223 222 140
3 221 222 223
3 38 224 226
3 224 142 225
3 224 225 226
3 38 143 142
3 38 144 143
3 39 145 77
3 39 146 145
3 24 227 229
3 227 147 228
3 227 228 229
3 40 148 80
3 40 149 148
3 40 150 149
3 41 151 82
3 41 152 151
3 41 230 232
3 232 231 152
3 230 231 232
3 42 43 13
3 44 43 42
3 44 15 43
3 45 233 235
3 235 234 16
3 233 234 235
3 237 236 45
3 46 238 240
3 240 239 17
3 238 239 240
3 242 241 46
3 47 243 244
3 47 245 247
3 245 18 246
3 245 246 247
3 248 48 249
3 250 249 19
3 248 249 250
3 49 251 253
3 251 48 252
3 251 252 253
3 49 21 48
3 49 50 21
3 254 50 255
3 256 255 49
3 254 255 256
3 257 23 258
3 259 258 50
3 257 258 259
3 51 52 25
3 53 52 51
3 53 26 52
3 54 55 14
3 56 55 54
3 56 27 55
3 56 57 27
3 58 57 56
3 58 28 57
3 260 59 261
3 262 59 263
3 264 31 265
3 266 265 59
3 264 265 266
3 60 267 269
3 269 268 29
3 267 268 269
3 271 270 60
3 61 62 30
3 63 62 61
3 63 33 62
3 64 65 20
3 66 65 64
3 66 34 65
3 66 67 34
3 68 67 66
3 68 35 67
3 68 69 35
3 70 69 68
3 70 36 69
3 71 72 22
3 73 72 71
3 73 37 72
3 73 74 37
3 75 74 73
3 75 32 74
3 76 272 273
3 76 274 276
3 274 38 275
3 274 275 276
3 76 77 38
3 78 77 76
3 78 39 77
3 79 80 24
3 81 80 79
3 81 40 80
3 81 82 40
3 83 82 81
3 83 41 82
3 83 277 279
3 279 278 41
3 277 278 279
3 281 280 83
3 84 85 3
3 86 85 84
3 86 14 85
3 43 86 13
3 87 86 43
3 87 14 86
3 87 54 14
3 88 54 87
3 88 5 54
3 89 282 284
3 284 283 4
3 282 283 284
3 286 285 89
3 288 287 16
3 90 289 291
3 291 290 6
3 289 290 291
3 293 292 90
3 295 294 17
3 91 296 297
3 91 298 300
3 298 9 299
3 298 299 300
3 92 93 7
3 94 93 92
3 94 20 93
3 48 94 19
3 95 94 48
3 95 20 94
3 95 64 20
3 96 64 95
3 96 10 64
3 96 97 10
3 98 97 96
3 98 22 97
3 50 98 21
3 99 98 50
3 99 22 98
3 99 71 22
3 100 71 99
3 100 8 71
3 301 11 302
3 303 24 304
3 305 24 306
3 307 79 308
3 309 308 24
3 307 308 309
3 310 79 311
3 312 12 313
3 314 313 79
3 312 313 314
3 316 315 12
3 101 317 318
3 102 319 321
3 321 320 101
3 319 320 321
3 102 322 323
3 52 102 25
3 103 102 52
3 103 324 326
3 326 325 102
3 324 325 326
3 103 327 328
3 104 329 331
3 331 330 103
3 329 330 331
3 104 332 334
3 332 4 333
3 332 333 334
3 85 53 3
3 105 53 85
3 105 26 53
3 55 105 14
3 106 105 55
3 106 26 105
3 106 104 26
3 107 104 106
3 107 4 104
3 107 89 4
3 108 89 107
3 108 16 89
3 57 108 27
3 109 108 57
3 109 16 108
3 109 45 16
3 110 45 109
3 110 1 45
3 111 335 336
3 111 337 339
3 337 29 338
3 337 338 339
3 340 111 341
3 342 111 343
3 344 29 345
3 346 345 111
3 344 345 346
3 347 60 348
3 349 348 29
3 347 348 349
3 112 350 352
3 350 60 351
3 350 351 352
3 112 6 60
3 353 112 354
3 113 355 357
3 355 112 356
3 355 356 357
3 113 6 112
3 113 90 6
3 114 90 113
3 114 17 90
3 358 114 359
3 115 360 362
3 360 114 361
3 360 361 362
3 115 17 114
3 115 46 17
3 116 46 115
3 116 2 46
3 116 117 2
3 118 117 116
3 118 30 117
3 59 363 365
3 363 118 364
3 363 364 365
3 119 118 59
3 119 30 118
3 119 61 30
3 120 61 119
3 120 7 61
3 366 31 367
3 368 31 369
3 370 120 371
3 372 371 31
3 370 371 372
3 121 373 375
3 373 120 374
3 373 374 375
3 121 7 120
3 121 92 7
3 376 92 377
3 378 377 121
3 376 377 378
3 379 19 380
3 381 380 92
3 379 380 381
3 382 19 383
3 385 384 19
3 387 386 4
3 389 388 0
3 390 23 391
3 392 23 393
3 394 100 395
3 396 395 23
3 394 395 396
3 397 100 398
3 399 8 400
3 401 400 100
3 399 400 401
3 402 8 403
3 404 75 405
3 406 405 8
3 404 405 406
3 407 75 408
3 409 32 410
3 411 410 75
3 409 410 411
3 412 32 413
3 414 122 415
3 416 415 32
3 414 415 416
3 417 122 418
3 419 0 420
3 421 420 122
3 419 420 421
3 423 422 29
3 425 424 6
3 117 47 2
3 123 47 117
3 123 18 47
3 62 123 30
3 124 123 62
3 124 18 123
3 124 91 18
3 125 91 124
3 125 9 91
3 93 63 7
3 126 63 93
3 126 33 63
3 65 126 20
3 127 126 65
3 127 33 126
3 127 125 33
3 128 125 127
3 128 9 125
3 128 426 428
3 428 427 9
3 426 427 428
3 129 429 431
3 431 430 128
3 429 430 431
3 129 432 433
3 67 129 34
3 130 129 67
3 130 434 436
3 436 435 129
3 434 435 436
3 130 437 438
3 131 439 441
3 441 440 130
3 439 440 441
3 131 442 443
3 131 444 446
3 444 101 445
3 444 445 446
3 132 101 131
3 132 25 101
3 69 132 35
3 133 132 69
3 133 25 132
3 133 51 25
3 134 51 133
3 134 3 51
3 97 70 10
3 135 70 97
3 135 36 70
3 72 135 22
3 136 135 72
3 136 36 135
3 136 134 36
3 137 134 136
3 137 3 134
3 137 84 3
3 138 84 137
3 138 13 84
3 74 138 37
3 139 138 74
3 139 13 138
3 139 42 13
3 122 42 139
3 122 0 42
3 447 44 448
3 449 448 0
3 447 448 449
3 450 44 451
3 452 15 453
3 454 453 44
3 452 453 454
3 140 455 456
3 140 457 459
3 457 15 458
3 457 458 459
3 140 88 15
3 141 88 140
3 141 5 88
3 142 460 461
3 142 462 463
3 142 464 466
3 464 141 465
3 464 465 466
3 143 141 142
3 143 5 141
3 143 58 5
3 144 58 143
3 144 28 58
3 77 144 38
3 145 144 77
3 145 28 144
3 145 110 28
3 146 110 145
3 146 1 110
3 467 11 468
3 147 469 470
3 147 471 472
3 80 147 24
3 148 147 80
3 148 473 475
3 475 474 147
3 473 474 475
3 148 476 477
3 149 478 480
3 480 479 148
3 478 479 480
3 149 481 483
3 481 11 482
3 481 482 483
3 149 78 11
3 150 78 149
3 150 39 78
3 82 150 40
3 151 150 82
3 151 39 150
3 151 146 39
3 152 146 151
3 152 1 146
3 152 484 486
3 486 485 1
3 484 485 486
3 488 487 152
3 490 489 41
3 492 491 12
