ply
format ascii 1.0
element vertex 982
property float x
property float y
property float z
element face 1054
property list uchar int vertex_index
end_header
38.766216 -22.581221 11.36142
26.576248 -34.845402 32.674641
36.076595 -20.651478 28.332035
36.261192 -36.636971 18.116011
15.312548 -39.999348 37.708939
40.348381 1.189379 15.894937
35.711483 -11.526642 29.877764
31.203585 -18.454273 34.113094
27.991325 -43.630466 28.398256
32.606537 -36.465221 26.59214
39.261776 -27.58552 4.995993
19.239538 -24.575916 40.185799
25.560316 -25.642982 36.04958
20.050056 -32.966789 36.71167
38.665218 -22.508972 20.44525
31.713572 -27.685732 31.301487
36.55138 -29.317961 24.142368
38.831509 -29.493685 15.213255
30.888863 -13.904076 34.95116
28.285275 -17.564402 36.450485
30.451252 -43.981354 24.729631
37.528248 -19.277847 9.317506
36.502274 -18.60014 5.094601
39.153309 -25.218908 8.34499
16.480505 -28.304098 40.544369
19.451981 -28.690329 38.419613
16.863537 -32.222912 38.736675
16.189478 -44.456898 36.546989
18.421383 -41.052631 35.761421
38.888012 -0.616054 22.629601
37.320824 -3.675751 26.452229
35.900154 -16.097446 29.384453
37.534569 -12.759953 26.590254
37.586395 -17.388609 25.96023
37.716724 -21.785332 24.606779
26.023397 -30.174618 34.413239
28.777117 -26.646996 33.825596
29.25705 -31.139803 32.079056
34.734112 -36.652012 22.770775
34.684761 -32.892376 25.578566
36.573269 -33.080791 21.424831
37.981461 -29.688328 19.782097
37.774391 -33.066753 16.775806
38.495647 -32.436893 11.716951
37.215153 -36.01004 13.128543
14.558175 -35.640137 39.182461
12.589693 -39.121738 39.735756
13.290184 -43.296585 38.542053
39.701321 -3.108794 16.091404
35.4506 -6.958923 29.90601
33.329311 -10.23651 32.731285
33.569839 -14.934897 32.386402
33.812996 -19.507479 31.507029
27.351994 -39.359825 30.705206
30.26046 -40.062946 27.59371
32.68111 -40.307438 23.742565
34.40773 -40.078697 19.453417
34.271439 -15.51045 3.398383
25.356804 -21.423334 37.428299
22.304434 -25.039219 38.072327
22.709677 -29.340834 36.427803
23.296684 -33.980328 34.77351
17.570978 -36.502602 37.111382
20.816473 -37.463379 35.190189
24.903008 -43.086964 31.406792
25.533951 -47.577583 29.195492
38.350052 -19.477209 13.623888
39.750164 -1.982534 19.446928
39.331604 -6.453826 19.832289
37.419594 -8.181157 26.79077
38.624672 -9.635056 23.386364
38.744862 -19.077911 17.925116
38.966675 -22.739258 15.835244
28.436214 -22.221415 35.294109
31.343056 -23.173695 32.949837
34.166634 -24.04501 30.001387
32.212666 -32.172337 29.148346
34.364117 -28.661879 28.123806
36.299271 -25.114038 26.611439
37.894089 -25.833654 22.541046
38.840721 -26.154871 17.988253
39.213024 -26.000933 13.293904
39.221519 -28.862436 10.248365
28.013004 -15.349942 37.016785
26.697477 -17.263609 37.601738
38.221169 -20.880171 10.302936
37.887508 -20.670935 8.170098
38.551796 -22.356474 9.077684
38.987946 -23.980759 9.978746
35.965481 -18.372618 28.967901
36.777763 -16.750849 27.830156
36.912445 -18.983231 27.199076
37.656384 -19.656946 25.326317
37.008064 -21.260544 26.479818
26.381815 -32.54707 33.489372
27.674465 -30.73171 33.26828
27.986074 -33.145348 32.297108
35.550999 -36.711376 20.59383
35.705276 -34.869858 22.094826
36.4566 -34.968548 19.812952
37.073284 -34.896317 17.38098
37.583584 -34.539696 14.928283
36.802681 -36.38821 15.663866
11.894889 -42.65567 39.641972
40.178173 0.781147 14.18326
39.727001 -1.548703 14.196312
40.043327 -0.959059 15.948065
33.250893 -7.997907 32.660397
32.02327 -9.824326 34.018089
31.031517 -16.279995 34.585114
32.379368 -14.357775 33.605843
32.375004 -16.629536 33.380451
33.687405 -17.188047 32.019676
32.514622 -19.030685 32.878071
27.676973 -41.627228 29.600935
28.867073 -39.716473 29.249926
29.095768 -41.897575 28.013504
31.55162 -42.071121 24.358192
32.459229 -42.231483 22.253839
33.529343 -40.355568 21.766218
39.177876 -25.952135 4.252406
39.028732 -25.065567 1.727086
22.299282 -22.925663 38.816612
20.733738 -24.772467 39.116859
19.622189 -30.808903 37.594891
21.03709 -29.016983 37.415638
21.322657 -31.084257 36.607861
23.036493 -31.608992 35.575108
21.699722 -33.40416 35.7472
14.88756 -37.792576 38.411522
16.029854 -36.084202 38.105038
16.421452 -38.24818 37.378483
20.100494 -41.53278 34.764194
19.528179 -39.281391 35.48513
21.23838 -39.812305 34.470901
22.473019 -38.090431 34.176815
24.521744 -40.705002 32.339565
23.272043 -42.582397 32.679588
24.115368 -47.141857 30.733076
37.81028 -18.037434 12.297953
38.207527 -17.781675 14.352335
38.782658 -2.924424 23.144463
39.413269 -1.276467 21.135727
39.307339 -3.564208 21.339325
39.552769 -4.186754 19.633673
35.637115 -9.295837 29.880209
36.559643 -7.509757 28.308546
36.643063 -9.892589 28.357651
38.137447 -13.500573 24.842899
38.109192 -11.114757 25.124498
38.552647 -11.945884 23.345957
38.89048 -10.308393 21.647802
38.59956 -20.493134 21.290966
38.80085 -20.771013 19.119158
38.834789 -20.990992 16.989529
38.896198 -22.736053 18.166807
25.41136 -23.473927 36.791573
26.962364 -21.670391 36.375732
27.010477 -23.963711 35.707527
30.315571 -27.07534 32.622311
30.181332 -24.940992 33.356388
31.684958 -25.321306 32.065338
32.866901 -23.606684 31.489525
33.042255 -25.956345 30.618311
31.265676 -36.179523 28.371592
30.995792 -34.00779 29.595716
32.335846 -34.36319 28.03129
35.688225 -31.01285 24.90947
34.540821 -30.874353 26.878134
35.506172 -28.986784 26.295168
35.455025 -26.813988 27.337948
36.421822 -27.314631 25.447775
37.209911 -25.466599 24.588924
37.254601 -27.434322 23.534327
38.456173 -29.621235 17.638187
38.478157 -27.884886 19.022499
38.85812 -27.967747 16.645266
39.091763 -26.184994 15.589038
39.117748 -27.840607 14.212956
39.259785 -27.433975 11.877712
39.07383 -29.296629 12.74074
38.184536 -33.683262 9.855011
38.699863 -31.929962 9.028061
29.220163 -11.233628 36.473385
30.73094 -11.555617 35.202072
29.424324 -13.47924 36.167625
29.609602 -15.763147 35.773792
29.699263 -18.114546 35.336185
28.112953 -45.715042 27.106838
29.325998 -43.837234 26.620304
36.670338 -17.686363 8.245311
36.044502 -17.413607 6.221987
37.029179 -19.00457 7.188686
37.449455 -20.211632 5.945671
39.264973 -26.527399 6.85752
17.779737 -26.484392 40.395649
19.348295 -26.683674 39.248199
18.110441 -30.558849 38.546345
18.473246 -32.706196 37.632492
15.798532 -42.349709 37.057667
16.774635 -40.431671 36.776669
17.300055 -42.71262 36.132469
18.915991 -43.361507 35.116947
38.070541 -0.017912 24.297375
38.126541 -2.112819 24.613033
38.167236 -4.328773 24.823301
35.812717 -13.92781 29.690279
36.688583 -12.252232 28.324415
36.786762 -14.438566 28.057789
37.514332 -15.122728 26.452759
38.119419 -15.687 24.615988
38.202347 -20.122744 23.439199
38.289436 -22.139477 22.543779
25.772686 -27.971436 35.220383
27.183764 -26.171164 34.956284
27.462498 -28.455866 34.102104
29.099552 -28.89398 32.919868
30.555868 -29.496696 31.656706
33.764671 -36.670921 24.66964
33.654827 -34.673237 26.138134
34.711239 -34.877838 24.247679
35.660717 -33.089561 23.629541
36.571941 -31.332287 22.816696
37.328995 -29.521881 22.082476
37.334839 -31.317919 20.688334
37.898643 -31.431118 18.416174
38.401703 -31.197266 15.939919
38.719219 -31.005802 13.544765
38.199341 -32.775982 14.34951
37.930031 -34.147507 12.604197
13.472866 -37.387833 39.483521
13.881431 -39.583118 38.706791
12.870121 -41.186943 39.134205
14.338027 -41.670246 38.057693
14.726671 -43.777534 37.533619
39.675117 2.268946 10.787337
34.444695 -8.590429 31.368855
34.511032 -10.859467 31.429171
32.192974 -12.173218 33.87899
33.520573 -12.568441 32.556362
34.740925 -13.169407 31.153397
34.792896 -15.598151 30.938808
34.869747 -17.979706 30.548382
35.022251 -20.223906 29.939941
27.03953 -37.135147 31.66231
28.62369 -37.623306 30.284468
30.097157 -37.984341 28.777433
31.362745 -38.179073 27.255095
30.485895 -41.918144 26.211342
31.61861 -40.089977 25.749262
32.687759 -38.40012 25.240002
33.712559 -38.502972 23.285553
34.613544 -38.452858 21.165054
35.400089 -38.322079 18.726345
35.90815 -38.243076 16.352638
34.997124 -39.986233 16.963633
35.426258 -17.043583 4.213107
23.596451 -19.013237 39.257484
25.249298 -19.155815 38.121796
23.728466 -21.095573 38.531815
23.87488 -23.207064 37.768883
23.945528 -25.310078 37.053116
20.959993 -26.964294 38.168594
22.555292 -27.223562 37.191261
24.120596 -27.461843 36.273499
24.361128 -29.708494 35.453709
24.75946 -32.011108 34.558311
24.913034 -34.373871 33.795067
15.706707 -34.048843 38.884552
17.247265 -34.352947 37.847401
18.795759 -34.818424 36.86507
17.974737 -38.652821 36.431816
19.060722 -36.940807 36.214645
20.36759 -35.251957 35.941578
21.991611 -35.785641 34.979374
23.620903 -36.25211 34.001213
25.750523 -38.943924 32.003899
26.202806 -41.267654 30.977552
26.529257 -43.475842 29.930645
25.367712 -45.282593 30.30135
26.724962 -45.623184 28.830517
37.247253 -17.864061 10.210531
37.96582 -19.456848 11.371692
38.515617 -21.028788 12.47435
16.403301 -26.348709 41.526703
39.499657 1.076882 20.762091
39.91481 0.348941 19.239618
40.099205 -0.332428 17.674252
39.835945 -2.624149 17.813074
39.533897 -4.966807 18.025185
36.412807 -5.318897 28.25939
37.376614 -5.810741 26.65959
38.134933 -6.599848 25.063169
37.456585 -10.478143 26.808674
38.078991 -8.993787 25.265894
38.673798 -7.302414 23.445993
38.617188 -19.421871 15.776585
38.732365 -21.095919 14.680305
38.919876 -22.768435 13.571072
26.803574 -19.422163 37.048492
28.354239 -19.889345 35.921539
29.820436 -20.32851 34.800541
28.634573 -24.366972 34.581944
29.964048 -22.694765 34.126045
31.24383 -20.810469 33.609779
32.642799 -21.340223 32.279995
33.986542 -21.831013 30.805513
35.17971 -22.442478 29.199425
29.450565 -33.50502 31.11664
30.714132 -31.858543 30.687845
32.008156 -29.9659 30.229122
33.522472 -32.600262 27.430901
33.31144 -30.379469 28.701681
33.166656 -28.051571 29.774673
34.319271 -26.365843 29.064978
35.238682 -24.645977 28.452801
36.217484 -22.893373 27.501551
37.083801 -23.5455 25.62788
37.817379 -23.750904 23.666845
38.359333 -24.185495 21.553663
37.928101 -27.883123 21.282362
38.424709 -26.100407 20.374327
38.767464 -24.353785 19.24264
39.010155 -24.457762 16.879642
39.113941 -24.488958 14.565876
39.104168 -24.337484 12.191789
39.237129 -25.728518 10.853241
39.303204 -27.081749 9.319995
39.272995 -28.392757 7.638644
38.943501 -30.658352 10.92433
39.07988 -30.117117 8.400819
36.374439 -37.839024 13.982924
25.874529 -17.114798 38.20149
26.615051 -16.190407 37.862911
40.263277 0.985263 15.039099
40.348786 1.894598 14.104999
40.43389 2.098714 14.960838
31.293115 -9.605792 34.679318
31.94873 -8.640849 34.01083
32.386158 -43.025098 21.35409
31.941216 -43.122791 22.47148
32.891406 -42.114439 21.157718
32.386158 -43.025098 21.35409
39.226616 -27.263097 3.679696
39.184666 -26.446404 3.307902
39.219826 -26.768828 4.624199
39.202919 -28.146335 4.132612
39.226616 -27.263097 3.679696
19.986638 -24.674191 39.651329
20.734619 -23.710052 39.528341
19.987519 -23.611777 40.062811
21.45999 -40.997936 34.107641
20.669437 -40.672543 34.617548
20.891047 -41.858173 34.254288
22.051072 -40.055288 33.965626
21.45999 -40.997936 34.107641
22.476822 -42.382982 33.211984
23.067903 -41.440334 33.069969
38.208164 -16.956105 14.767917
37.940963 -17.022488 13.666719
39.051874 -4.320513 22.239984
39.044998 -3.244316 22.241894
38.789534 -4.000621 23.142553
39.244068 -4.681449 21.396876
39.051874 -4.320513 22.239984
38.541773 -12.994932 23.206637
38.345047 -12.723228 24.094428
38.334173 -13.772277 23.955109
38.675333 -12.225064 22.370124
38.541773 -12.994932 23.206637
38.264941 -33.392628 8.512176
37.980024 -34.247326 8.897424
28.670699 -13.27377 36.772516
29.322243 -12.356434 36.320505
28.568618 -12.150963 36.925396
28.724058 -45.790075 26.120175
28.126378 -46.772429 26.354221
37.846592 -21.062775 6.380312
37.668481 -20.441284 7.057885
38.065618 -21.292426 7.492525
37.666245 -20.769759 5.232168
37.846592 -21.062775 6.380312
39.088083 -24.980926 7.132692
38.988281 -24.425418 7.989831
39.209141 -25.873154 7.601255
39.143915 -25.635172 6.388957
39.088083 -24.980926 7.132692
17.243192 -28.341647 39.990673
17.892807 -27.431794 39.916313
17.130121 -27.394245 40.470009
17.486989 -31.390881 38.64151
17.374139 -30.363998 39.093308
16.750687 -31.19603 39.188473
19.163091 -44.562492 34.769179
18.328439 -44.186405 35.331806
19.700962 -43.597401 34.622059
19.163091 -44.562492 34.769179
37.596981 0.394397 25.013694
38.041573 1.14735 24.040976
37.723683 -2.894285 25.532631
37.666775 -1.826246 25.413029
37.263916 -2.607712 26.332626
37.8564 -17.649911 25.083989
38.122912 -16.799107 24.411868
37.852907 -16.537805 25.288109
37.836517 -32.248936 17.59599
37.561577 -32.285562 18.819419
37.499451 -33.10338 17.999235
37.384161 -35.719793 11.847413
37.7416 -34.788527 11.58524
37.572592 -35.078773 12.86637
13.03128 -38.254785 39.609639
12.815826 -37.288372 40.02991
12.374239 -38.155324 40.156027
39.709903 1.279738 11.650658
39.944515 2.460662 11.586729
39.353775 1.043481 10.7713
39.709903 1.279738 11.650658
39.497483 -3.414238 15.203342
39.510323 -2.634192 14.255796
39.714161 -2.328749 15.143858
39.505728 -4.321695 16.176701
39.497483 -3.414238 15.203342
33.622141 -14.701804 2.94544
34.023308 -14.919185 3.775282
33.934956 -15.252707 2.510697
33.622141 -14.701804 2.94544
38.953458 -24.647394 0.446895
39.064617 -25.562652 0.852121
22.920977 -20.948599 39.108238
23.662458 -20.054405 38.894649
22.85497 -19.907431 39.471073
15.132441 -34.84449 39.033507
14.980365 -33.844976 39.465952
14.406099 -34.640623 39.614907
23.875434 -37.339756 33.582184
23.046961 -37.171271 34.089014
23.301492 -38.258916 33.669985
24.502838 -36.43188 33.446589
23.875434 -37.339756 33.582184
24.940244 -38.685663 32.583527
25.567648 -37.777787 32.447931
26.2576 -47.629497 28.313817
26.853105 -46.652298 28.131329
26.129456 -46.600383 29.013005
37.18114 -17.161328 10.619425
36.838777 -17.100855 9.639778
16.35927 -25.363502 42.064977
17.09392 -25.397501 41.426885
39.193835 0.230414 21.695846
39.17014 1.345185 21.549038
38.864317 0.498717 22.482793
39.293646 -6.818435 18.977452
39.394793 -6.074925 18.073899
39.43275 -5.710317 18.928737
35.931703 -6.13891 29.0827
35.873102 -4.939589 28.970796
35.391998 -5.759602 29.794106
38.824123 -8.802128 22.524518
38.848686 -7.635807 22.554333
38.649235 -8.468735 23.416179
39.008881 -9.48706 20.762189
38.915199 -10.66179 20.753113
38.726494 -18.172725 18.300587
38.738552 -18.940999 18.97173
38.643484 -18.375606 17.206302
38.726494 -18.172725 18.300587
38.681025 -19.249891 16.85085
38.579648 -18.547587 16.132036
38.643484 -18.375606 17.206302
29.620764 -34.650091 30.546449
28.831745 -34.472459 31.246156
38.948046 -30.71446 7.447698
38.889871 -31.023539 8.71444
38.758038 -31.620882 7.761319
39.110512 -29.784063 7.122995
38.948046 -30.71446 7.447698
35.926431 -38.746779 14.242164
36.141295 -38.04105 15.167781
35.693287 -38.948805 15.427021
27.272814 -15.233574 37.570435
27.965039 -14.209121 37.197096
27.355241 -16.306776 37.309261
27.272814 -15.233574 37.570435
26.615051 -16.190407 37.862911
38.397762 -22.135196 7.946319
38.065618 -21.292426 7.492525
38.219652 -21.513704 8.623891
38.687525 -22.9942 8.356177
38.397762 -22.135196 7.946319
38.9056 -23.806343 8.806708
38.687525 -22.9942 8.356177
38.769871 -23.168616 9.528215
39.070628 -24.599833 9.161868
38.988281 -24.425418 7.989831
38.9056 -23.806343 8.806708
16.559171 -29.236622 40.09232
15.833412 -29.138417 40.67319
16.101224 -32.077482 39.303897
16.750687 -31.19603 39.188473
16.965183 -44.7341 36.046827
16.420924 -45.617186 36.24843
36.805994 -3.369703 27.236214
37.263916 -2.607712 26.332626
36.840555 -34.054277 19.517808
36.89889 -33.110399 20.323748
36.514935 -34.02467 20.618892
37.148897 -34.018162 18.301822
36.840555 -34.054277 19.517808
36.764942 -34.932433 18.596966
37.423838 -33.981535 17.078393
37.499451 -33.10338 17.999235
37.148897 -34.018162 18.301822
11.888569 -38.932276 40.36339
12.374239 -38.155324 40.156027
11.469438 -43.399368 39.882321
11.286715 -42.385881 40.181692
12.12528 -43.686659 39.341025
11.469438 -43.399368 39.882321
12.822928 -44.007116 38.791065
12.592536 -42.976128 39.092013
12.12528 -43.686659 39.341025
13.555646 -44.356113 38.237438
12.822928 -44.007116 38.791065
40.196043 1.716763 13.28469
40.348786 1.894598 14.104999
39.961432 0.535838 13.348619
40.196043 1.716763 13.28469
39.952587 -0.383778 14.189786
39.735845 -0.629086 13.355145
39.961432 0.535838 13.348619
32.562542 -7.72764 33.331984
33.156773 -6.913719 32.624751
32.637081 -8.911116 33.339243
32.562542 -7.72764 33.331984
31.94873 -8.640849 34.01083
31.487412 -43.04261 23.523657
31.001436 -43.026238 24.543912
30.937227 -43.997726 23.709376
32.005425 -42.151302 23.306016
31.487412 -43.04261 23.523657
31.941216 -43.122791 22.47148
33.426462 -41.176481 20.913907
32.994286 -41.293526 22.010028
32.891406 -42.114439 21.157718
33.865656 -41.038046 19.757507
33.968536 -40.217132 20.609817
33.426462 -41.176481 20.913907
34.226376 -40.863592 18.599123
33.865656 -41.038046 19.757507
34.633303 -15.711976 4.324267
34.023308 -14.919185 3.775282
36.255844 -18.365606 4.024002
36.765837 -19.155576 4.411606
39.103304 -25.508851 2.989746
38.947307 -24.628762 2.629387
39.021879 -25.072046 3.892047
39.110094 -26.003121 2.045242
39.103304 -25.508851 2.989746
39.184666 -26.446404 3.307902
39.064617 -25.562652 0.852121
39.110094 -26.003121 2.045242
21.517391 -22.786651 39.378217
22.206386 -21.863644 39.250637
21.51651 -23.849065 38.966735
21.517391 -22.786651 39.378217
20.734619 -23.710052 39.528341
22.668391 -39.194351 33.818582
21.8557 -38.951368 34.323858
22.051072 -40.055288 33.965626
23.301492 -38.258916 33.669985
22.668391 -39.194351 33.818582
23.692754 -40.501637 32.899957
24.325854 -39.566202 32.75136
23.896894 -41.643699 32.509577
23.692754 -40.501637 32.899957
23.067903 -41.440334 33.069969
23.473478 -48.099525 30.957521
23.389789 -46.914964 31.387323
24.221777 -48.280828 30.183475
23.473478 -48.099525 30.957521
24.931068 -48.498691 29.414683
24.824659 -47.35972 29.964284
24.221777 -48.280828 30.183475
25.625408 -48.583963 28.577881
24.931068 -48.498691 29.414683
37.74234 -17.150367 12.639529
37.462654 -17.248015 11.663135
38.008904 -17.909554 13.325144
37.74234 -17.150367 12.639529
37.940963 -17.022488 13.666719
39.366783 -4.992722 20.544049
39.430054 -3.875481 20.486499
39.244068 -4.681449 21.396876
39.256201 -6.126259 20.643358
39.442186 -5.32029 19.732981
39.366783 -4.992722 20.544049
38.844249 -11.406319 21.521046
38.721564 -11.127139 22.496879
38.675333 -12.225064 22.370124
38.915199 -10.66179 20.753113
38.844249 -11.406319 21.521046
38.665901 -19.648611 20.654654
38.567192 -19.464939 21.703245
38.766546 -19.78755 19.568751
38.665901 -19.648611 20.654654
38.700205 -20.632074 20.205062
38.772856 -19.924462 18.522137
38.738552 -18.940999 18.97173
38.766546 -19.78755 19.568751
31.130734 -35.093657 28.983654
30.393377 -34.901476 29.785986
30.528319 -35.987342 29.173924
38.522604 -32.515978 8.098702
38.4422 -32.806612 9.441536
38.264941 -33.392628 8.512176
38.758038 -31.620882 7.761319
38.522604 -32.515978 8.098702
40.469834 2.299104 15.765375
40.43389 2.098714 14.960838
29.975552 -11.394623 35.837728
30.64695 -10.471438 35.271309
29.891562 -10.310443 35.906965
28.718664 -14.414591 36.592205
28.670699 -13.27377 36.772516
27.965039 -14.209121 37.197096
29.33058 -44.851171 25.876908
28.719476 -44.776138 26.863571
28.724058 -45.790075 26.120175
29.893208 -44.923231 24.931572
29.888625 -43.909294 25.674968
29.33058 -44.851171 25.876908
30.371608 -44.967743 23.930165
29.893208 -44.923231 24.931572
30.937227 -43.997726 23.709376
30.371608 -44.967743 23.930165
36.35742 -17.549985 7.233649
35.866592 -16.756595 6.690368
36.17951 -16.892973 7.70203
37.239428 -19.961322 4.837141
36.765837 -19.155576 4.411606
36.975865 -19.405886 5.520136
37.239428 -19.961322 4.837141
37.666245 -20.769759 5.232168
39.100367 -25.34754 5.0864
39.021879 -25.072046 3.892047
39.221424 -26.239767 5.554963
39.100367 -25.34754 5.0864
39.143915 -25.635172 6.388957
18.677087 -27.531435 39.342588
18.564016 -26.584033 39.821924
17.892807 -27.431794 39.916313
18.728929 -28.534762 38.928295
19.400138 -27.687002 38.833906
18.677087 -27.531435 39.342588
17.243192 -28.341647 39.990673
16.559171 -29.236622 40.09232
18.05816 -29.469023 38.991661
17.374139 -30.363998 39.093308
18.781211 -29.624589 38.482979
18.728929 -28.534762 38.928295
18.05816 -29.469023 38.991661
17.520471 -43.861961 35.839567
16.744767 -43.584759 36.339729
16.965183 -44.7341 36.046827
18.108023 -43.037064 35.624708
17.520471 -43.861961 35.839567
18.328439 -44.186405 35.331806
20.293214 -42.683037 34.445683
19.508243 -42.447144 34.940571
19.700962 -43.597401 34.622059
20.891047 -41.858173 34.254288
20.293214 -42.683037 34.445683
38.455582 0.797789 23.31668
38.041573 1.14735 24.040976
38.479276 -0.316983 23.463488
38.864317 0.498717 22.482793
38.455582 0.797789 23.31668
37.638774 -0.778792 25.255199
37.596981 0.394397 25.013694
38.098541 -1.065365 24.455204
37.638774 -0.778792 25.255199
37.666775 -1.826246 25.413029
38.481823 -4.702796 23.981973
38.789534 -4.000621 23.142553
38.474947 -3.626599 23.983882
38.325159 -14.86549 23.841653
38.334173 -13.772277 23.955109
38.128433 -14.593787 24.729444
38.310312 -15.971075 23.693959
38.325159 -14.86549 23.841653
38.310312 -15.971075 23.693959
38.122912 -16.799107 24.411868
37.891394 -18.78408 24.767032
37.8564 -17.649911 25.083989
37.62139 -18.522778 25.643273
38.164376 -19.016979 23.823473
37.891394 -18.78408 24.767032
37.929366 -19.889845 24.382758
38.368586 -19.279744 22.777361
38.164376 -19.016979 23.823473
38.400953 -20.307939 22.365082
38.567192 -19.464939 21.703245
38.368586 -19.279744 22.777361
37.279674 -32.228963 19.955499
36.954054 -32.199355 21.056583
36.89889 -33.110399 20.323748
37.616741 -31.374519 19.552254
37.279674 -32.228963 19.955499
37.561577 -32.285562 18.819419
37.868853 -34.556404 10.210646
38.057283 -33.915385 11.229604
37.7416 -34.788527 11.58524
37.980024 -34.247326 8.897424
37.868853 -34.556404 10.210646
13.888255 -35.52929 39.71718
14.406099 -34.640623 39.614907
13.3456 -36.403137 39.867711
12.815826 -37.288372 40.02991
14.015521 -36.513985 39.332991
13.888255 -35.52929 39.71718
13.3456 -36.403137 39.867711
12.06681 -39.866582 39.997818
11.888569 -38.932276 40.36339
11.719409 -41.633549 39.950926
11.286715 -42.385881 40.181692
12.207024 -40.899185 39.697043
11.719409 -41.633549 39.950926
12.382505 -41.921307 39.388089
12.729907 -40.154341 39.434981
12.06681 -39.866582 39.997818
12.207024 -40.899185 39.697043
14.273889 -44.596588 37.733221
14.008427 -43.537059 38.037836
13.555646 -44.356113 38.237438
14.974331 -44.927479 37.237013
14.273889 -44.596588 37.733221
15.705735 -45.267161 36.743698
15.458075 -44.117216 37.040304
14.974331 -44.927479 37.237013
16.420924 -45.617186 36.24843
15.705735 -45.267161 36.743698
39.913148 3.424808 10.759405
39.944515 2.460662 11.586729
39.580133 3.279268 9.942459
39.913148 3.424808 10.759405
39.255682 1.986385 9.975715
39.580133 3.279268 9.942459
39.255682 1.986385 9.975715
39.353775 1.043481 10.7713
39.452934 -1.780889 13.328603
39.735845 -0.629086 13.355145
39.452934 -1.780889 13.328603
39.510323 -2.634192 14.255796
34.907746 -6.617706 30.549658
35.391998 -5.759602 29.794106
33.807892 -7.137198 31.926852
33.156773 -6.913719 32.624751
34.404793 -7.433459 31.281081
33.807892 -7.137198 31.926852
33.847794 -8.294168 32.014626
34.947648 -7.774676 30.637432
34.907746 -6.617706 30.549658
34.404793 -7.433459 31.281081
31.377105 -10.689971 34.610081
31.293115 -9.605792 34.679318
30.64695 -10.471438 35.271309
27.626227 -36.287523 31.518991
27.394586 -35.142651 32.025156
26.807889 -35.990274 32.168475
28.418307 -36.531602 30.83007
27.626227 -36.287523 31.518991
27.83161 -37.379227 30.973389
29.207326 -36.709234 30.130363
28.418307 -36.531602 30.83007
29.94406 -36.889752 29.376845
29.207326 -36.709234 30.130363
29.360423 -37.803824 29.53095
30.681416 -37.081932 28.574512
30.528319 -35.987342 29.173924
29.94406 -36.889752 29.376845
35.237774 -39.820383 15.732519
35.693287 -38.948805 15.427021
35.452637 -39.114655 16.658136
34.521073 -40.81736 17.354231
34.702427 -40.032465 18.208525
34.226376 -40.863592 18.599123
34.772146 -40.687038 16.110575
34.521073 -40.81736 17.354231
35.237774 -39.820383 15.732519
34.772146 -40.687038 16.110575
35.519835 -16.663555 5.736069
35.866592 -16.756595 6.690368
35.210712 -16.478542 4.731629
35.519835 -16.663555 5.736069
35.73538 -17.228595 5.217547
34.848849 -16.277017 3.805745
34.633303 -15.711976 4.324267
35.210712 -16.478542 4.731629
35.717836 -17.587327 3.583255
35.964266 -17.821862 4.653854
36.255844 -18.365606 4.024002
35.121473 -16.776792 3.240773
35.717836 -17.587327 3.583255
34.544064 -16.010225 2.833411
34.848849 -16.277017 3.805745
35.121473 -16.776792 3.240773
33.934956 -15.252707 2.510697
34.544064 -16.010225 2.833411
38.843702 -24.226318 1.386254
38.947307 -24.628762 2.629387
38.843702 -24.226318 1.386254
38.953458 -24.647394 0.446895
24.422874 -19.084526 38.68964
25.150439 -18.060901 38.46152
24.324016 -17.989612 39.029364
23.013874 -22.010618 38.674214
22.920977 -20.948599 39.108238
22.206386 -21.863644 39.250637
15.522809 -32.990447 39.377836
14.980365 -33.844976 39.465952
16.285122 -33.135877 38.810614
16.101224 -32.077482 39.303897
15.522809 -32.990447 39.377836
25.148903 -35.49276 33.343516
24.266968 -35.31299 33.89814
24.502838 -36.43188 33.446589
25.980511 -35.728526 32.783303
25.744641 -34.609637 33.234854
25.148903 -35.49276 33.343516
26.212151 -36.873398 32.277137
26.807889 -35.990274 32.168475
25.980511 -35.728526 32.783303
26.395027 -38.039535 31.833104
26.212151 -36.873398 32.277137
25.567648 -37.777787 32.447931
25.136133 -39.824463 32.171732
24.940244 -38.685663 32.583527
24.325854 -39.566202 32.75136
22.678945 -43.528559 32.841482
22.476822 -42.382982 33.211984
23.519634 -43.699079 32.213718
22.678945 -43.528559 32.841482
24.335116 -43.951363 31.57732
24.087525 -42.834681 32.04319
23.519634 -43.699079 32.213718
23.941296 -45.978809 31.240462
23.389789 -46.914964 31.387323
24.567469 -45.049177 31.0246
23.941296 -45.978809 31.240462
24.74154 -46.212225 30.517213
25.13536 -44.184779 30.854071
24.335116 -43.951363 31.57732
24.567469 -45.049177 31.0246
27.547101 -46.698227 27.26949
27.418958 -45.669113 27.968677
26.853105 -46.652298 28.131329
28.126378 -46.772429 26.354221
27.547101 -46.698227 27.26949
26.2576 -47.629497 28.313817
25.625408 -48.583963 28.577881
36.55032 -17.012006 8.657167
36.17951 -16.892973 7.70203
36.958796 -17.775212 9.227921
36.55032 -17.012006 8.657167
36.838777 -17.100855 9.639778
37.528767 -17.950747 11.254242
37.18114 -17.161328 10.619425
37.462654 -17.248015 11.663135
29.130885 -10.138849 36.559515
29.891562 -10.310443 35.906965
28.49413 -11.093908 37.066992
29.130885 -10.138849 36.559515
28.568618 -12.150963 36.925396
28.49413 -11.093908 37.066992
23.524458 -17.955351 39.607597
24.324016 -17.989612 39.029364
22.81317 -18.901483 39.842973
23.524458 -17.955351 39.607597
22.85497 -19.907431 39.471073
22.81317 -18.901483 39.842973
19.154398 -23.566855 40.684235
19.987519 -23.611777 40.062811
18.512039 -24.511105 40.756433
19.154398 -23.566855 40.684235
17.782139 -25.465342 40.861358
18.509638 -25.530154 40.290724
18.512039 -24.511105 40.756433
17.091519 -26.41655 40.961176
17.782139 -25.465342 40.861358
17.09392 -25.397501 41.426885
15.68572 -26.288206 42.19495
16.35927 -25.363502 42.064977
15.720904 -27.228548 41.669026
15.68572 -26.288206 42.19495
15.759506 -28.206243 41.177858
16.441903 -27.326403 41.035536
15.720904 -27.228548 41.669026
15.833412 -29.138417 40.67319
15.759506 -28.206243 41.177858
40.322878 1.498658 16.677149
40.469834 2.299104 15.765375
39.491375 2.159994 20.616957
39.17014 1.345185 21.549038
39.758662 1.840227 19.857179
39.491375 2.159994 20.616957
39.966238 1.476257 19.095942
39.758662 1.840227 19.857179
39.707234 0.712911 20.000855
40.106093 1.078439 18.34949
39.966238 1.476257 19.095942
40.19829 0.737754 17.566807
40.106093 1.078439 18.34949
40.007008 0.008256 18.456935
40.223793 0.428476 16.784595
40.322878 1.498658 16.677149
40.19829 0.737754 17.566807
39.422016 -5.250701 17.143591
39.505728 -4.321695 16.176701
39.617609 -4.037801 17.058295
39.422016 -5.250701 17.143591
39.394793 -6.074925 18.073899
36.351985 -4.191276 28.139795
35.873102 -4.939589 28.970796
36.866816 -4.497324 27.355809
36.805994 -3.369703 27.236214
36.351985 -4.191276 28.139795
38.465671 -5.838333 24.101906
38.481823 -4.702796 23.981973
38.151084 -5.46431 24.943235
38.735104 -6.189616 23.293319
38.465671 -5.838333 24.101906
38.404365 -6.951131 24.254581
38.927298 -6.550553 22.450209
38.735104 -6.189616 23.293319
38.927298 -6.550553 22.450209
38.848686 -7.635807 22.554333
39.177589 -7.211513 20.747481
39.256201 -6.126259 20.643358
38.957027 -9.138796 21.655237
38.824123 -8.802128 22.524518
38.757576 -9.971725 22.517083
38.957027 -9.138796 21.655237
39.008881 -9.48706 20.762189
39.229443 -7.559776 19.854433
39.177589 -7.211513 20.747481
39.293646 -6.818435 18.977452
39.229443 -7.559776 19.854433
38.374817 -17.727488 15.419911
38.208164 -16.956105 14.767917
38.412357 -18.601773 15.06446
38.374817 -17.727488 15.419911
38.579648 -18.547587 16.132036
25.973388 -18.209712 37.861767
25.874529 -17.114798 38.20149
25.150439 -18.060901 38.46152
28.0995 -34.292623 31.83639
27.281161 -33.995375 32.485875
27.394586 -35.142651 32.025156
28.718319 -33.325184 31.706874
28.0995 -34.292623 31.83639
28.831745 -34.472459 31.246156
30.223179 -33.756405 30.356178
29.620764 -34.650091 30.546449
30.393377 -34.901476 29.785986
39.20707 -28.921883 6.741907
39.176438 -29.254937 8.019732
39.110512 -29.784063 7.122995
39.20146 -28.518264 5.420582
39.267386 -27.989138 6.317319
39.20707 -28.921883 6.741907
39.202919 -28.146335 4.132612
39.20146 -28.518264 5.420582
36.158495 -38.431469 12.97008
35.926431 -38.746779 14.242164
36.567173 -37.568394 12.685191
36.158495 -38.431469 12.97008
36.98753 -36.653902 12.258
36.794796 -36.924532 13.555734
36.567173 -37.568394 12.685191
37.384161 -35.719793 11.847413
36.98753 -36.653902 12.258
3 332 84 333
3 0 87 85
3 0 88 87
3 2 91 89
3 2 93 91
3 1 96 94
3 3 99 97
3 3 100 99
3 3 102 100
3 5 334 336
3 334 104 335
3 334 335 336
3 5 106 104
3 337 108 338
3 7 111 109
3 7 113 111
3 8 116 114
3 339 118 340
3 342 341 118
3 10 343 345
3 345 344 120
3 343 344 345
3 10 346 347
3 11 348 350
3 348 123 349
3 348 349 350
3 13 126 124
3 13 128 126
3 4 131 129
3 351 134 352
3 353 352 132
3 351 352 353
3 355 354 134
3 356 137 357
3 358 140 359
3 360 143 361
3 362 361 141
3 360 361 362
3 364 363 143
3 6 147 145
3 365 150 366
3 367 366 148
3 365 366 367
3 369 368 150
3 14 153 152
3 14 155 153
3 12 158 156
3 15 161 159
3 15 163 161
3 9 166 164
3 16 169 167
3 16 171 169
3 16 173 171
3 17 176 174
3 17 178 176
3 17 180 178
3 371 370 181
3 372 185 373
3 374 373 183
3 372 373 374
3 19 186 83
3 19 187 186
3 376 375 188
3 21 192 190
3 377 193 378
3 379 378 86
3 377 378 379
3 381 380 193
3 23 382 383
3 23 384 386
3 384 194 385
3 384 385 386
3 24 387 389
3 389 388 195
3 387 388 389
3 26 390 392
3 390 197 391
3 390 391 392
3 26 198 197
3 27 201 199
3 393 202 394
3 396 395 202
3 397 203 398
3 30 399 401
3 399 204 400
3 399 400 401
3 30 205 204
3 31 208 206
3 33 209 90
3 33 210 209
3 33 402 404
3 404 403 210
3 402 403 404
3 34 211 92
3 34 212 211
3 35 215 213
3 37 216 95
3 37 217 216
3 38 220 218
3 40 221 98
3 40 222 221
3 40 224 222
3 42 405 407
3 405 225 406
3 405 406 407
3 42 226 225
3 42 228 226
3 44 229 101
3 44 408 410
3 410 409 229
3 408 409 410
3 46 411 413
3 411 230 412
3 411 412 413
3 46 231 230
3 47 232 103
3 47 233 232
3 47 234 233
3 414 235 415
3 417 416 235
3 48 418 420
3 420 419 105
3 418 419 420
3 48 421 422
3 50 236 107
3 50 237 236
3 18 238 184
3 51 239 110
3 51 240 239
3 51 241 240
3 52 242 112
3 52 243 242
3 53 245 244
3 54 246 115
3 54 247 246
3 20 248 189
3 55 249 117
3 55 250 249
3 55 251 250
3 56 252 119
3 56 253 252
3 56 255 253
3 57 423 424
3 57 425 426
3 22 256 191
3 428 427 121
3 429 259 430
3 431 430 257
3 429 430 431
3 59 260 122
3 59 261 260
3 25 262 196
3 60 263 125
3 60 264 263
3 60 265 264
3 61 266 127
3 61 267 266
3 45 432 434
3 432 268 433
3 432 433 434
3 62 269 130
3 62 270 269
3 28 271 200
3 63 272 133
3 63 273 272
3 63 274 273
3 435 275 436
3 437 436 135
3 435 436 437
3 439 438 275
3 440 276 441
3 64 277 136
3 64 278 277
3 65 279 138
3 65 280 279
3 65 442 444
3 444 443 280
3 442 443 444
3 445 281 446
3 66 282 139
3 66 283 282
3 447 284 448
3 29 449 451
3 449 285 450
3 449 450 451
3 67 286 142
3 67 287 286
3 67 288 287
3 68 289 144
3 68 452 454
3 454 453 289
3 452 453 454
3 49 455 457
3 455 290 456
3 455 456 457
3 69 291 146
3 69 292 291
3 32 293 207
3 70 294 149
3 70 295 294
3 70 458 460
3 460 459 295
3 458 459 460
3 462 461 151
3 71 463 464
3 71 465 466
3 71 467 469
3 467 296 468
3 467 468 469
3 72 297 154
3 72 298 297
3 58 299 258
3 73 300 157
3 73 301 300
3 36 302 214
3 74 303 160
3 74 304 303
3 74 305 304
3 75 306 162
3 75 307 306
3 470 308 471
3 76 309 165
3 76 310 309
3 39 311 219
3 77 312 168
3 77 313 312
3 77 314 313
3 78 315 170
3 78 316 315
3 78 317 316
3 79 318 172
3 79 319 318
3 41 320 223
3 80 321 175
3 80 322 321
3 80 323 322
3 81 324 177
3 81 325 324
3 81 326 325
3 82 327 179
3 82 328 327
3 43 329 227
3 472 330 473
3 474 473 182
3 472 473 474
3 476 475 330
3 477 331 478
3 479 478 254
3 477 478 479
3 480 83 481
3 84 482 484
3 482 83 483
3 482 483 484
3 84 19 83
3 85 86 21
3 87 86 85
3 87 485 487
3 487 486 86
3 485 486 487
3 87 488 489
3 88 490 492
3 492 491 87
3 490 491 492
3 88 493 495
3 493 23 494
3 493 494 495
3 497 496 24
3 498 26 499
3 501 500 27
3 502 30 503
3 89 90 31
3 91 90 89
3 91 33 90
3 91 92 33
3 93 92 91
3 93 34 92
3 94 95 35
3 96 95 94
3 96 37 95
3 97 98 38
3 99 98 97
3 99 40 98
3 99 504 506
3 506 505 40
3 504 505 506
3 100 507 509
3 509 508 99
3 507 508 509
3 100 510 512
3 510 42 511
3 510 511 512
3 100 101 42
3 102 101 100
3 102 44 101
3 513 46 514
3 515 103 516
3 517 103 518
3 519 47 520
3 521 520 103
3 519 520 521
3 523 522 47
3 104 524 525
3 104 526 527
3 104 528 530
3 528 105 529
3 528 529 530
3 106 105 104
3 106 48 105
3 531 107 532
3 108 533 535
3 533 107 534
3 533 534 535
3 108 50 107
3 109 110 18
3 111 110 109
3 111 51 110
3 111 112 51
3 113 112 111
3 113 52 112
3 114 115 53
3 116 115 114
3 116 54 115
3 536 117 537
3 538 537 20
3 536 537 538
3 118 539 541
3 539 117 540
3 539 540 541
3 118 55 117
3 118 119 55
3 542 119 543
3 544 543 118
3 542 543 544
3 545 56 546
3 547 546 119
3 545 546 547
3 549 548 56
3 550 57 551
3 553 552 22
3 120 554 556
3 554 121 555
3 554 555 556
3 557 121 558
3 559 558 120
3 557 558 559
3 561 560 121
3 562 122 563
3 123 564 566
3 564 122 565
3 564 565 566
3 123 59 122
3 124 125 25
3 126 125 124
3 126 60 125
3 126 127 60
3 128 127 126
3 128 61 127
3 129 130 45
3 131 130 129
3 131 62 130
3 132 133 28
3 134 133 132
3 134 63 133
3 134 135 63
3 567 135 568
3 569 568 134
3 567 568 569
3 571 570 135
3 572 136 573
3 137 574 576
3 574 136 575
3 574 575 576
3 137 64 136
3 577 138 578
3 579 138 580
3 581 65 582
3 583 582 138
3 581 582 583
3 585 584 65
3 586 139 587
3 140 588 590
3 588 139 589
3 588 589 590
3 140 66 139
3 141 142 29
3 143 142 141
3 143 67 142
3 143 144 67
3 591 144 592
3 593 592 143
3 591 592 593
3 594 68 595
3 596 595 144
3 594 595 596
3 145 146 49
3 147 146 145
3 147 69 146
3 148 149 32
3 150 149 148
3 150 70 149
3 150 151 70
3 597 151 598
3 599 598 150
3 597 598 599
3 601 600 151
3 152 602 603
3 153 604 606
3 606 605 152
3 604 605 606
3 153 607 609
3 607 71 608
3 607 608 609
3 153 154 71
3 155 154 153
3 155 72 154
3 156 157 58
3 158 157 156
3 158 73 157
3 159 160 36
3 161 160 159
3 161 74 160
3 161 162 74
3 163 162 161
3 163 75 162
3 164 610 612
3 610 165 611
3 610 611 612
3 166 165 164
3 166 76 165
3 167 168 39
3 169 168 167
3 169 77 168
3 169 170 77
3 171 170 169
3 171 78 170
3 171 172 78
3 173 172 171
3 173 79 172
3 174 175 41
3 176 175 174
3 176 80 175
3 176 177 80
3 178 177 176
3 178 81 177
3 178 179 81
3 180 179 178
3 180 82 179
3 181 182 43
3 613 182 614
3 615 614 181
3 613 614 615
3 617 616 182
3 618 5 619
3 183 620 622
3 620 184 621
3 620 621 622
3 185 184 183
3 185 18 184
3 83 623 625
3 623 185 624
3 623 624 625
3 186 185 83
3 186 18 185
3 186 109 18
3 187 109 186
3 187 7 109
3 188 189 8
3 626 189 627
3 628 627 188
3 626 627 628
3 629 20 630
3 631 630 189
3 629 630 631
3 632 20 633
3 635 634 20
3 190 636 638
3 636 191 637
3 636 637 638
3 192 191 190
3 192 22 191
3 86 192 21
3 193 192 86
3 193 22 192
3 193 639 641
3 641 640 22
3 639 640 641
3 643 642 193
3 644 120 645
3 194 646 648
3 646 120 647
3 646 647 648
3 194 10 120
3 195 196 11
3 649 196 650
3 651 650 195
3 649 650 651
3 652 25 653
3 654 653 196
3 652 653 654
3 656 655 24
3 197 657 658
3 197 659 661
3 659 25 660
3 659 660 661
3 197 124 25
3 198 124 197
3 198 13 124
3 199 200 4
3 201 200 199
3 201 28 200
3 662 201 663
3 664 663 27
3 662 663 664
3 202 665 667
3 665 201 666
3 665 666 667
3 202 28 201
3 202 132 28
3 668 132 669
3 670 669 202
3 668 669 670
3 672 671 132
3 203 673 674
3 203 675 677
3 675 29 676
3 675 676 677
3 678 203 679
3 204 680 682
3 680 203 681
3 680 681 682
3 204 29 203
3 204 141 29
3 205 141 204
3 205 683 685
3 685 684 141
3 683 684 685
3 206 207 6
3 208 207 206
3 208 32 207
3 90 208 31
3 209 208 90
3 209 32 208
3 209 148 32
3 210 148 209
3 210 686 688
3 688 687 148
3 686 687 688
3 210 689 690
3 692 691 210
3 92 693 695
3 695 694 33
3 693 694 695
3 211 696 698
3 698 697 92
3 696 697 698
3 211 699 700
3 211 701 703
3 701 152 702
3 701 702 703
3 212 152 211
3 212 14 152
3 213 214 12
3 215 214 213
3 215 36 214
3 95 215 35
3 216 215 95
3 216 36 215
3 216 159 36
3 217 159 216
3 217 15 159
3 218 219 9
3 220 219 218
3 220 39 219
3 98 220 38
3 221 220 98
3 221 39 220
3 221 167 39
3 222 167 221
3 222 16 167
3 222 223 16
3 224 223 222
3 224 41 223
3 704 224 705
3 706 705 40
3 704 705 706
3 225 707 709
3 707 224 708
3 707 708 709
3 225 41 224
3 225 174 41
3 226 174 225
3 226 17 174
3 226 227 17
3 228 227 226
3 228 43 227
3 101 228 42
3 229 228 101
3 229 43 228
3 229 181 43
3 710 181 711
3 712 711 229
3 710 711 712
3 714 713 181
3 715 45 716
3 230 717 718
3 230 719 721
3 719 45 720
3 719 720 721
3 230 129 45
3 231 129 230
3 231 4 129
3 722 46 723
3 103 724 725
3 232 726 728
3 728 727 103
3 726 727 728
3 232 729 731
3 729 46 730
3 729 730 731
3 232 231 46
3 233 231 232
3 233 4 231
3 233 199 4
3 234 199 233
3 234 27 199
3 732 234 733
3 734 733 47
3 732 733 734
3 735 234 736
3 737 27 738
3 739 738 234
3 737 738 739
3 741 740 27
3 235 742 743
3 235 744 745
3 235 746 747
3 749 748 235
3 105 750 751
3 753 752 105
3 754 49 755
3 107 756 757
3 236 758 760
3 760 759 107
3 758 759 760
3 236 761 763
3 761 49 762
3 761 762 763
3 236 145 49
3 237 145 236
3 237 6 145
3 184 764 766
3 764 108 765
3 764 765 766
3 238 108 184
3 238 50 108
3 110 238 18
3 239 238 110
3 239 50 238
3 239 237 50
3 240 237 239
3 240 6 237
3 240 206 6
3 241 206 240
3 241 31 206
3 112 241 51
3 242 241 112
3 242 31 241
3 242 89 31
3 243 89 242
3 243 2 89
3 244 767 769
3 769 768 1
3 767 768 769
3 245 770 772
3 772 771 244
3 770 771 772
3 245 773 774
3 115 245 53
3 246 245 115
3 246 775 777
3 777 776 245
3 775 776 777
3 246 778 780
3 778 164 779
3 778 779 780
3 247 164 246
3 247 9 164
3 189 116 8
3 248 116 189
3 248 54 116
3 117 248 20
3 249 248 117
3 249 54 248
3 249 247 54
3 250 247 249
3 250 9 247
3 250 218 9
3 251 218 250
3 251 38 218
3 119 251 55
3 252 251 119
3 252 38 251
3 252 97 38
3 253 97 252
3 253 3 97
3 253 254 3
3 255 254 253
3 255 781 783
3 783 782 254
3 781 782 783
3 784 255 785
3 786 785 56
3 784 785 786
3 787 255 788
3 790 789 255
3 191 791 792
3 256 793 795
3 795 794 191
3 793 794 795
3 256 796 798
3 796 57 797
3 796 797 798
3 799 256 800
3 801 800 22
3 799 800 801
3 802 256 803
3 804 57 805
3 806 805 256
3 804 805 806
3 808 807 57
3 121 809 810
3 812 811 121
3 257 813 815
3 813 258 814
3 813 814 815
3 259 258 257
3 259 58 258
3 122 816 818
3 816 259 817
3 816 817 818
3 260 259 122
3 260 58 259
3 260 156 58
3 261 156 260
3 261 12 156
3 196 123 11
3 262 123 196
3 262 59 123
3 125 262 25
3 263 262 125
3 263 59 262
3 263 261 59
3 264 261 263
3 264 12 261
3 264 213 12
3 265 213 264
3 265 35 213
3 127 265 60
3 266 265 127
3 266 35 265
3 266 94 35
3 267 94 266
3 267 1 94
3 268 819 820
3 268 821 823
3 821 26 822
3 821 822 823
3 130 268 45
3 269 268 130
3 269 26 268
3 269 198 26
3 270 198 269
3 270 13 198
3 200 131 4
3 271 131 200
3 271 62 131
3 133 271 28
3 272 271 133
3 272 62 271
3 272 270 62
3 273 270 272
3 273 13 270
3 273 128 13
3 274 128 273
3 274 61 128
3 135 274 63
3 275 274 135
3 275 61 274
3 275 267 61
3 824 267 825
3 826 825 275
3 824 825 826
3 827 1 828
3 829 828 267
3 827 828 829
3 830 244 831
3 832 831 1
3 830 831 832
3 276 833 835
3 833 244 834
3 833 834 835
3 276 53 244
3 136 836 838
3 836 276 837
3 836 837 838
3 277 276 136
3 277 53 276
3 277 114 53
3 278 114 277
3 278 8 114
3 839 137 840
3 841 137 842
3 843 64 844
3 845 844 137
3 843 844 845
3 138 846 847
3 279 848 850
3 850 849 138
3 848 849 850
3 279 851 853
3 851 64 852
3 851 852 853
3 279 278 64
3 280 278 279
3 280 8 278
3 280 188 8
3 854 188 855
3 856 855 280
3 854 855 856
3 858 857 188
3 860 859 65
3 861 190 862
3 281 863 865
3 863 190 864
3 863 864 865
3 281 21 190
3 139 866 868
3 866 281 867
3 866 867 868
3 282 281 139
3 282 21 281
3 282 85 21
3 283 85 282
3 283 0 85
3 869 183 870
3 871 183 872
3 874 873 183
3 875 257 876
3 877 257 878
3 880 879 257
3 881 11 882
3 883 11 884
3 885 195 886
3 887 886 11
3 885 886 887
3 284 888 890
3 888 195 889
3 888 889 890
3 284 24 195
3 891 284 892
3 893 284 894
3 895 24 896
3 897 896 284
3 895 896 897
3 899 898 24
3 900 5 901
3 285 902 903
3 285 904 905
3 142 285 29
3 286 285 142
3 286 906 908
3 908 907 285
3 906 907 908
3 286 909 910
3 287 911 913
3 913 912 286
3 911 912 913
3 287 914 916
3 914 5 915
3 914 915 916
3 287 106 5
3 288 106 287
3 288 48 106
3 144 288 67
3 289 288 144
3 289 48 288
3 289 917 919
3 919 918 48
3 917 918 919
3 921 920 289
3 290 922 923
3 290 924 926
3 924 30 925
3 924 925 926
3 146 290 49
3 291 290 146
3 291 30 290
3 291 205 30
3 292 205 291
3 292 927 929
3 929 928 205
3 927 928 929
3 207 147 6
3 293 147 207
3 293 69 147
3 149 293 32
3 294 293 149
3 294 69 293
3 294 292 69
3 295 292 294
3 295 930 932
3 932 931 292
3 930 931 932
3 295 933 934
3 936 935 295
3 937 68 938
3 151 939 941
3 941 940 70
3 939 940 941
3 943 942 151
3 944 68 945
3 947 946 68
3 948 140 949
3 296 950 952
3 950 140 951
3 950 951 952
3 296 66 140
3 154 296 71
3 297 296 154
3 297 66 296
3 297 283 66
3 298 283 297
3 298 0 283
3 258 953 955
3 953 84 954
3 953 954 955
3 299 84 258
3 299 19 84
3 157 299 58
3 300 299 157
3 300 19 299
3 300 187 19
3 301 187 300
3 301 7 187
3 214 158 12
3 302 158 214
3 302 73 158
3 160 302 36
3 303 302 160
3 303 73 302
3 303 301 73
3 304 301 303
3 304 7 301
3 304 113 7
3 305 113 304
3 305 52 113
3 162 305 74
3 306 305 162
3 306 52 305
3 306 243 52
3 307 243 306
3 307 2 243
3 956 96 957
3 958 957 1
3 956 957 958
3 308 959 961
3 959 96 960
3 959 960 961
3 308 37 96
3 165 962 964
3 962 308 963
3 962 963 964
3 309 308 165
3 309 37 308
3 309 217 37
3 310 217 309
3 310 15 217
3 219 166 9
3 311 166 219
3 311 76 166
3 168 311 39
3 312 311 168
3 312 76 311
3 312 310 76
3 313 310 312
3 313 15 310
3 313 163 15
3 314 163 313
3 314 75 163
3 170 314 77
3 315 314 170
3 315 75 314
3 315 307 75
3 316 307 315
3 316 2 307
3 316 93 2
3 317 93 316
3 317 34 93
3 172 317 78
3 318 317 172
3 318 34 317
3 318 212 34
3 319 212 318
3 319 14 212
3 223 173 16
3 320 173 223
3 320 79 173
3 175 320 41
3 321 320 175
3 321 79 320
3 321 319 79
3 322 319 321
3 322 14 319
3 322 155 14
3 323 155 322
3 323 72 155
3 177 323 80
3 324 323 177
3 324 72 323
3 324 298 72
3 325 298 324
3 325 0 298
3 325 88 0
3 326 88 325
3 326 23 88
3 179 326 81
3 327 326 179
3 327 23 326
3 327 194 23
3 328 194 327
3 328 10 194
3 227 180 17
3 329 180 227
3 329 82 180
3 182 329 43
3 330 329 182
3 330 82 329
3 330 328 82
3 965 328 966
3 967 966 330
3 965 966 967
3 968 10 969
3 970 969 328
3 968 969 970
3 972 971 10
3 254 102 3
3 331 102 254
3 331 44 102
3 973 331 974
3 975 331 976
3 977 44 978
3 979 978 331
3 977 978 979
3 981 980 44
