ply
format ascii 1.0
element vertex 551
property float x
property float y
property float z
element face 623
property list uchar int vertex_index
end_header
37.48822 45.566994 10.075225
32.710022 32.633732 30.191038
37.624447 10.544029 18.289042
30.94385 0.618132 33.173206
30.966967 24.270493 37.74786
32.203079 16.492239 31.775785
36.028435 -6.34866 20.218523
38.860489 -3.581702 11.502884
35.042782 40.333519 20.745323
38.069183 28.118042 15.078429
35.085522 22.957891 24.228546
34.157463 6.178484 26.350353
32.521763 -10.493269 27.550652
38.57634 47.037373 4.261361
35.04092 -14.470881 20.673992
36.592594 -13.051272 16.618452
33.841343 36.391468 25.709501
35.155422 31.607134 22.757944
33.820042 28.320108 27.048565
31.626787 8.658274 32.541512
33.103733 11.610577 29.139971
32.4566 3.316996 29.83807
33.340748 -2.160655 27.106377
31.707611 -4.457472 30.424034
38.015926 19.480251 16.780144
39.089962 11.955677 13.647869
31.714117 28.251171 34.318779
32.524269 24.414171 31.127384
31.429522 20.733162 34.758701
30.386303 5.579342 35.850773
36.918377 1.750181 19.392809
38.51786 3.662129 14.908507
37.607395 -5.061646 15.995049
37.812187 -12.193052 12.140688
36.26889 43.148281 15.66022
37.893089 36.895809 12.807305
36.628368 34.670036 17.694038
36.639591 25.99419 19.743813
36.407673 17.352676 21.344315
33.569168 19.921293 28.230526
34.742176 14.527452 25.422823
35.891235 8.304079 22.595407
35.152084 -0.16879 23.39883
34.314442 -8.517431 23.879028
33.358864 -16.176083 24.431366
36.816311 54.011047 7.002299
35.825813 51.419228 12.958061
34.69239 48.346947 18.812731
33.680122 44.811066 24.024483
30.213106 -7.152472 33.838291
30.941992 -12.383764 30.981758
38.040943 46.516903 7.189978
38.313637 42.364422 8.59798
33.282059 34.660492 27.905951
33.833714 32.442276 26.45751
33.220081 30.425209 28.63942
31.279842 4.621838 32.905293
31.999023 6.104523 31.266014
31.671221 2.139767 31.537239
32.062157 -0.645029 30.195448
31.31938 -1.99023 31.764099
37.859798 15.050875 17.577141
38.618374 15.868041 15.197357
38.414841 11.465608 15.958531
31.32386 26.212425 36.036102
31.616838 24.455755 34.411282
31.159384 22.520613 36.249889
30.723713 9.296974 35.430477
30.216513 7.676479 37.06995
36.519794 -2.231184 19.773752
37.360729 -1.626348 17.576582
36.850452 -5.786882 18.123135
37.2668 -12.634413 14.349133
35.685932 41.517422 18.245043
36.504539 38.990982 16.592344
35.843369 37.308414 19.240726
35.11837 27.411501 23.611044
35.860329 29.046059 21.317299
35.843483 24.493118 22.105255
36.587288 21.537012 20.524124
35.751942 20.044323 22.801483
32.388767 20.456524 31.463072
33.050346 22.510324 29.583685
32.85339 18.357513 30.085608
33.614166 9.112801 27.794525
33.90274 13.304283 27.351217
34.502827 10.314893 25.866264
35.36071 11.837755 23.961527
35.048645 7.450119 24.472437
35.588245 4.089708 22.948879
34.652756 3.149009 24.949825
32.973209 -6.358077 27.248154
33.839569 -5.346993 25.509792
33.44577 -9.221714 25.702673
33.858635 -12.534002 24.092846
33.002247 -13.088028 25.962057
34.99276 54.349854 14.454491
35.257317 50.041592 15.895709
34.514038 52.482162 17.468895
33.188625 43.059196 26.50919
29.344366 -12.052407 35.790955
29.635033 -8.269409 35.473557
29.920622 -10.656656 34.082752
30.552004 -9.936952 32.401005
30.199993 -13.544256 32.781555
38.014961 32.519447 13.991349
38.661411 33.481346 11.356212
38.744389 29.073778 12.52471
38.700939 -0.182735 13.379071
39.136292 4.044271 12.620554
39.281971 0.286792 10.889132
35.548183 -10.457225 20.473856
36.368538 -9.688763 18.458696
35.845146 -13.73609 18.682959
34.437191 38.247711 23.323044
35.169037 35.891838 21.695677
34.493984 34.154076 24.136148
34.456215 29.953587 25.027479
34.426075 25.511326 25.686646
31.934114 12.559452 32.169918
32.598618 13.891927 30.529612
32.337688 9.879803 30.849415
32.793201 7.48669 29.528374
33.300213 5.007346 28.132797
33.72131 1.933358 26.847893
32.878807 0.731918 28.543056
32.516121 -3.379696 28.741219
32.118809 -7.264749 29.012987
38.096451 23.616846 15.946228
38.775097 24.813583 13.482037
38.769165 20.190895 14.288168
39.269577 16.639681 12.84699
38.844318 -7.2136 9.510737
39.303185 -3.428794 8.928788
32.194389 30.585867 32.295639
32.624004 28.533714 30.732756
32.08036 26.395029 32.689529
31.963526 22.449471 32.927387
31.77742 18.513315 33.244919
31.298695 11.020617 33.823273
30.970203 7.145331 34.204693
30.62731 3.040165 34.517227
37.30534 6.073011 18.897108
38.112263 6.804276 16.650806
37.755436 2.623369 17.183393
38.079365 -0.801874 15.505771
38.26162 -4.42381 13.835085
37.134258 -9.078538 16.306681
37.806602 -8.445017 14.121718
38.389191 -7.965984 11.739535
38.283871 -11.437221 9.902328
36.92672 44.210846 12.897325
37.737209 41.124702 11.494084
37.126942 40.030132 14.138056
37.278679 35.694561 15.32766
37.367783 31.48428 16.38744
35.905819 33.238556 20.237305
36.644112 30.359497 18.828516
37.41547 26.994364 17.344936
37.375111 22.577785 18.248087
37.243191 18.451206 19.085691
37.011692 13.972909 19.938313
33.128735 26.385094 29.226027
33.71307 24.094635 27.699345
34.293129 21.369091 26.345594
33.325253 15.786341 28.803053
34.121449 17.264151 26.887569
34.968086 18.708443 24.807878
35.577694 15.728464 23.445679
36.209389 12.78537 21.964367
36.743946 9.484996 20.586048
36.450951 5.077491 21.00316
36.096584 0.986935 21.357466
35.660236 -3.235806 21.731068
34.19627 -1.188519 25.379589
34.718185 -4.339013 23.723812
35.182095 -7.412165 22.083214
34.728619 -11.332889 22.303534
34.241215 -15.307996 22.489481
38.520771 52.287426 -0.492927
38.133797 51.592796 2.593672
37.700272 50.763622 5.567029
37.240593 49.765305 8.388026
35.981651 56.979092 8.358863
36.364017 52.850056 9.860086
36.669754 48.638687 11.408073
36.104115 47.198143 14.300833
35.472759 45.977161 17.09753
34.927681 44.340557 19.664051
34.004265 50.755569 20.384428
34.171375 46.773766 21.424692
34.315571 42.493721 22.450365
33.747654 40.57196 25.039557
33.217918 38.824799 27.403309
32.722134 36.618088 29.716021
29.809156 6.149021 38.713535
29.91934 3.963557 37.359928
30.072447 1.530368 36.077888
30.287107 -0.819685 34.836479
29.954308 -4.429938 35.179295
30.578007 -3.20159 33.514999
30.891159 -5.903769 32.195198
31.283314 -8.362541 30.799259
31.703442 -11.217248 29.314648
31.322342 -15.189236 29.560074
32.159264 -14.267788 27.696932
32.532017 -17.131203 26.213457
38.509491 37.994934 10.041358
38.82325 7.838205 14.394766
39.477757 8.675883 11.899441
30.147092 8.623287 37.731144
30.350367 9.499185 36.96463
34.603426 55.615559 15.310634
34.841169 56.330231 13.782883
34.364065 54.681713 16.817836
34.753399 53.416008 15.961693
34.603426 55.615559 15.310634
29.47439 -13.224912 35.129492
29.227798 -13.8063 35.952443
29.357822 -14.978804 35.29098
29.762518 -12.527036 34.275391
29.632494 -11.354532 34.936853
29.47439 -13.224912 35.129492
29.902203 -13.970836 33.624792
30.060308 -12.100456 33.432153
29.762518 -12.527036 34.275391
38.968237 45.267834 3.541888
38.767144 47.499151 2.787367
39.378412 12.544007 12.485938
39.46822 14.886009 12.085499
39.179769 14.297679 13.247429
38.986211 -7.129224 8.317178
38.725504 -9.098993 8.478704
31.133516 12.007672 34.544953
31.429817 12.92078 33.676695
33.557026 -17.62968 23.534304
33.998201 -17.195636 22.563361
33.800039 -15.742039 23.460424
38.084705 54.058525 0.233963
38.284292 54.256378 -1.334612
37.891219 53.71121 1.777262
38.327284 51.940111 1.050373
38.084705 54.058525 0.233963
37.258291 52.387334 6.284664
37.471333 52.874979 4.826242
37.029352 54.498691 5.543876
35.555927 58.364649 9.185595
35.759124 59.104917 7.565558
36.094915 52.134642 11.409074
35.940984 54.219454 10.654511
35.671882 53.50404 12.203499
33.680237 51.897493 21.24006
33.903951 52.833179 19.761405
33.925748 45.792416 22.724587
33.840812 47.839669 22.321432
33.595186 46.858318 23.621327
32.960814 39.800168 28.254257
33.203271 40.941997 26.956249
32.946167 41.917366 27.807197
32.712922 38.696812 29.410612
32.970026 37.721443 28.559665
32.960814 39.800168 28.254257
29.679572 4.382417 38.823623
29.667419 5.526092 39.518257
29.734664 3.289685 38.14682
29.864248 5.056289 38.036732
29.679572 4.382417 38.823623
29.914068 -0.256866 36.257269
29.849974 0.958982 36.874075
30.021397 -1.431893 35.636564
30.179777 0.355341 35.457183
29.914068 -0.256866 36.257269
31.52559 -16.498425 28.808421
31.15627 -17.01191 29.671979
31.944051 -16.037701 27.87685
31.740803 -14.728512 28.628503
31.52559 -16.498425 28.808421
32.130428 -17.469409 27.135112
32.345641 -15.699495 26.955194
31.944051 -16.037701 27.87685
38.956951 33.886095 10.000393
39.011201 31.682208 10.621476
39.093478 25.147142 12.217233
39.071894 23.007998 12.723527
39.573616 6.702116 11.074983
39.307024 6.360077 12.259998
39.402884 4.38631 11.435539
39.728815 8.946034 10.695685
39.573616 6.702116 11.074983
39.517617 -1.255956 8.673085
39.459229 -3.157783 7.721948
38.443678 44.842987 6.465689
38.711377 45.103222 5.001381
38.308642 46.777138 5.72567
38.580025 42.766746 7.16969
38.443678 44.842987 6.465689
38.17729 44.440663 7.893979
38.695408 40.581986 7.925853
38.580025 42.766746 7.16969
35.157572 -16.140155 19.760019
34.789493 -16.409516 20.722431
30.603967 10.309432 36.144894
30.846025 11.145851 35.348555
30.470113 8.486726 36.250214
30.603967 10.309432 36.144894
30.350367 9.499185 36.96463
36.967858 -14.576871 14.488245
36.929697 -12.842842 15.483792
36.630754 -14.7853 15.622905
37.251906 -14.395573 13.290954
36.967858 -14.576871 14.488245
37.524599 -14.174892 12.186731
37.539494 -12.413733 13.24491
37.251906 -14.395573 13.290954
37.740781 -13.914029 11.066536
37.524599 -14.174892 12.186731
36.607248 56.143026 6.12096
37.029352 54.498691 5.543876
35.255356 54.969353 12.951714
34.841169 56.330231 13.782883
35.409286 52.884541 13.706276
35.671882 53.50404 12.203499
35.255356 54.969353 12.951714
33.37155 45.895418 24.942524
33.595186 46.858318 23.621327
33.125801 45.019483 26.184877
33.434373 43.935131 25.266837
33.37155 45.895418 24.942524
32.927318 43.777748 27.464256
33.125801 45.019483 26.184877
32.946167 41.917366 27.807197
32.927318 43.777748 27.464256
29.114436 -12.54464 36.705524
29.227798 -13.8063 35.952443
29.253774 -10.753439 36.450464
29.114436 -12.54464 36.705524
29.4897 -10.160908 35.632256
29.399107 -8.86194 36.291765
29.253774 -10.753439 36.450464
39.05269 29.478424 11.205725
39.011201 31.682208 10.621476
38.7029 31.277562 11.940461
39.475724 2.50757 10.569828
39.402884 4.38631 11.435539
39.209131 2.165532 11.754843
30.874637 22.36144 37.794464
30.809297 23.124259 38.526264
38.968237 45.267834 3.541888
38.711377 45.103222 5.001381
35.559685 -15.77276 18.764502
35.443033 -14.103486 19.678475
35.157572 -16.140155 19.760019
35.929834 -15.381683 17.745491
35.559685 -15.77276 18.764502
36.303558 -15.039274 16.713237
36.21887 -13.393681 17.650706
35.929834 -15.381683 17.745491
36.630754 -14.7853 15.622905
36.303558 -15.039274 16.713237
39.068928 20.696654 13.126592
39.071894 23.007998 12.723527
38.772131 22.502239 13.885103
39.319133 18.921046 12.406003
39.068928 20.696654 13.126592
39.019371 18.415288 13.567579
39.553671 17.093034 11.635604
39.319133 18.921046 12.406003
39.553671 17.093034 11.635604
39.46822 14.886009 12.085499
39.215645 -5.236821 8.026204
39.073752 -5.321197 9.219763
38.986211 -7.129224 8.317178
39.459229 -3.157783 7.721948
39.215645 -5.236821 8.026204
30.970845 21.4865 37.045479
31.063175 23.395553 36.998874
30.874637 22.36144 37.794464
31.064772 20.669356 36.339846
30.970845 21.4865 37.045479
31.199841 19.77563 35.594251
31.294453 21.626888 35.504295
31.064772 20.669356 36.339846
31.317991 18.797337 34.906234
31.199841 19.77563 35.594251
31.49194 17.687413 34.149344
31.603471 19.623238 34.00181
31.317991 18.797337 34.906234
31.66918 16.667129 33.387518
31.49194 17.687413 34.149344
31.88201 15.656591 32.652951
31.99025 17.502777 32.510352
31.66918 16.667129 33.387518
31.747527 13.690197 32.850017
32.068596 14.525846 31.972852
31.88201 15.656591 32.652951
31.616405 11.790035 32.996595
31.747527 13.690197 32.850017
31.429817 12.92078 33.676695
31.011204 10.158796 34.626875
31.133516 12.007672 34.544953
30.846025 11.145851 35.348555
38.44528 -11.210804 8.674499
38.725504 -9.098993 8.478704
38.564094 -9.325411 9.706533
37.976624 -13.536113 9.947356
38.048029 -11.815136 11.021508
37.740781 -13.914029 11.066536
38.152609 -13.135293 8.836782
37.976624 -13.536113 9.947356
38.44528 -11.210804 8.674499
38.152609 -13.135293 8.836782
34.389641 -16.828073 21.630175
34.789493 -16.409516 20.722431
34.641067 -14.889439 21.581736
34.389641 -16.828073 21.630175
33.998201 -17.195636 22.563361
38.702252 52.371494 -1.948494
38.284292 54.256378 -1.334612
38.948946 50.191232 -1.085576
38.702252 52.371494 -1.948494
38.739359 50.124178 0.410223
38.948946 50.191232 -1.085576
38.545872 49.776863 1.953523
38.739359 50.124178 0.410223
38.327284 51.940111 1.050373
38.355069 49.315084 3.427517
38.767144 47.499151 2.787367
38.545872 49.776863 1.953523
37.688095 53.289566 3.339563
37.891219 53.71121 1.777262
37.917034 51.178209 4.08035
37.688095 53.289566 3.339563
37.471333 52.874979 4.826242
36.189919 57.627049 6.799243
35.759124 59.104917 7.565558
36.398981 55.495069 7.680581
36.607248 56.143026 6.12096
36.189919 57.627049 6.799243
35.749802 56.283972 9.903899
35.555927 58.364649 9.185595
36.172834 54.914574 9.109475
35.749802 56.283972 9.903899
35.940984 54.219454 10.654511
34.158838 53.696476 18.303638
34.364065 54.681713 16.817836
34.259152 51.618865 18.926662
34.158838 53.696476 18.303638
33.903951 52.833179 19.761405
33.757257 49.83057 21.8013
33.680237 51.897493 21.24006
34.08782 48.764668 20.90456
33.757257 49.83057 21.8013
33.840812 47.839669 22.321432
32.494963 37.48113 30.612378
32.712922 38.696812 29.410612
32.489754 35.59339 30.807859
32.494963 37.48113 30.612378
32.483698 33.601212 31.045368
32.716078 34.62591 29.95353
32.489754 35.59339 30.807859
32.225881 32.577279 32.097668
32.452206 31.6098 31.243339
32.483698 33.601212 31.045368
32.020327 31.486277 33.096019
32.225881 32.577279 32.097668
31.780191 30.318929 34.10759
31.954253 29.418519 33.307209
32.020327 31.486277 33.096019
31.584949 29.122879 35.085994
31.780191 30.318929 34.10759
31.38982 28.103506 35.944656
31.518988 27.231798 35.177441
31.584949 29.122879 35.085994
31.2132 26.975752 36.888589
31.38982 28.103506 35.944656
31.034753 26.004787 37.744468
31.145414 25.241459 36.891981
31.2132 26.975752 36.888589
30.890049 24.887592 38.561544
31.034753 26.004787 37.744468
30.809297 23.124259 38.526264
30.890049 24.887592 38.561544
29.791881 7.188514 39.339828
29.667419 5.526092 39.518257
29.943413 7.859558 38.552937
29.791881 7.188514 39.339828
30.012835 6.91275 37.891742
30.147092 8.623287 37.731144
29.943413 7.859558 38.552937
29.773421 2.175577 37.515095
29.734664 3.289685 38.14682
29.995894 2.746962 36.718908
29.773421 2.175577 37.515095
29.849974 0.958982 36.874075
29.537045 -6.991459 36.147863
29.399107 -8.86194 36.291765
29.696682 -5.071723 36.000732
29.537045 -6.991459 36.147863
29.794671 -6.349673 35.326426
29.854998 -3.237019 35.807972
29.597372 -3.878805 36.62941
29.696682 -5.071723 36.000732
30.120708 -2.624811 35.007887
30.021397 -1.431893 35.636564
29.854998 -3.237019 35.807972
30.050842 -15.361903 32.952947
29.902203 -13.970836 33.624792
29.753052 -15.788483 33.796184
30.387575 -14.827471 32.063564
30.050842 -15.361903 32.952947
30.238424 -16.645117 32.234956
30.758575 -14.247224 31.163665
30.570992 -12.96401 31.881656
30.387575 -14.827471 32.063564
30.948749 -15.64996 30.452823
31.15627 -17.01191 29.671979
31.132167 -13.7865 30.270916
30.758575 -14.247224 31.163665
30.948749 -15.64996 30.452823
32.331632 -18.969125 26.29637
32.130428 -17.469409 27.135112
32.742854 -18.54074 25.341026
32.331632 -18.969125 26.29637
33.156277 -18.06318 24.44998
32.945441 -16.653643 25.322412
32.742854 -18.54074 25.341026
33.557026 -17.62968 23.534304
33.156277 -18.06318 24.44998
38.793335 38.397241 8.647543
38.695408 40.581986 7.925853
38.411564 40.179678 9.319669
38.880991 36.142889 9.342966
38.585451 35.73814 10.698785
38.956951 33.886095 10.000393
38.793335 38.397241 8.647543
38.880991 36.142889 9.342966
39.078124 27.277239 11.73857
38.759743 26.94368 13.003374
39.093478 25.147142 12.217233
39.05269 29.478424 11.205725
39.078124 27.277239 11.73857
39.57231 10.90411 11.611724
39.378412 12.544007 12.485938
39.283859 10.31578 12.773655
39.57231 10.90411 11.611724
39.728815 8.946034 10.695685
39.507009 0.601838 9.653257
39.292578 -1.571001 9.90896
39.517617 -1.255956 8.673085
39.475724 2.50757 10.569828
39.507009 0.601838 9.653257
3 0 52 51
3 1 55 53
3 3 58 56
3 3 60 58
3 2 63 61
3 4 66 64
3 210 68 211
3 6 71 69
3 8 75 73
3 10 78 76
3 10 80 78
3 5 83 81
3 11 86 84
3 11 88 86
3 11 90 88
3 12 93 91
3 12 95 93
3 212 96 213
3 214 98 215
3 216 215 96
3 214 215 216
3 217 100 218
3 217 218 219
3 220 102 221
3 222 221 100
3 220 221 222
3 223 104 224
3 225 224 102
3 223 224 225
3 9 107 105
3 7 110 108
3 13 226 227
3 14 113 111
3 16 116 114
3 18 117 54
3 18 118 117
3 19 121 119
3 21 122 57
3 21 123 122
3 21 125 123
3 23 126 59
3 23 127 126
3 24 130 128
3 25 131 62
3 25 228 230
3 230 229 131
3 228 229 230
3 232 231 132
3 26 136 134
3 28 137 65
3 28 138 137
3 233 139 234
3 29 140 67
3 29 141 140
3 30 144 142
3 32 145 70
3 32 146 145
3 15 147 112
3 33 148 72
3 33 149 148
3 33 150 149
3 34 153 151
3 36 154 74
3 36 155 154
3 17 156 115
3 37 157 77
3 37 158 157
3 37 159 158
3 38 160 79
3 38 161 160
3 27 162 135
3 39 163 82
3 39 164 163
3 20 165 120
3 40 166 85
3 40 167 166
3 40 168 167
3 41 169 87
3 41 170 169
3 41 171 170
3 42 172 89
3 42 173 172
3 22 174 124
3 43 175 92
3 43 176 175
3 43 177 176
3 44 178 94
3 44 235 237
3 237 236 178
3 235 236 237
3 238 179 239
3 240 180 241
3 242 241 179
3 240 241 242
3 45 243 245
3 243 181 244
3 243 244 245
3 45 182 181
3 246 183 247
3 46 248 250
3 248 184 249
3 248 249 250
3 46 185 184
3 46 186 185
3 47 187 97
3 47 188 187
3 251 189 252
3 48 253 255
3 253 190 254
3 253 254 255
3 48 191 190
3 48 192 191
3 256 193 257
3 258 257 99
3 256 257 258
3 259 194 260
3 261 260 193
3 259 260 261
3 262 195 263
3 264 196 265
3 266 265 195
3 264 265 266
3 267 197 268
3 269 198 270
3 271 270 197
3 269 270 271
3 49 199 101
3 49 200 199
3 49 201 200
3 50 202 103
3 50 203 202
3 272 204 273
3 274 205 275
3 276 275 204
3 274 275 276
3 277 206 278
3 279 278 205
3 277 278 279
3 35 207 152
3 281 280 106
3 283 282 129
3 31 208 143
3 284 209 285
3 286 285 109
3 284 285 286
3 288 287 209
3 290 289 133
3 51 291 293
3 293 292 13
3 291 292 293
3 52 294 296
3 296 295 51
3 294 295 296
3 52 297 298
3 300 299 14
3 53 54 16
3 55 54 53
3 55 18 54
3 56 57 19
3 58 57 56
3 58 21 57
3 58 59 21
3 60 59 58
3 60 23 59
3 61 62 24
3 63 62 61
3 63 25 62
3 64 65 26
3 66 65 64
3 66 28 65
3 301 67 302
3 68 303 305
3 303 67 304
3 303 304 305
3 68 29 67
3 69 70 30
3 71 70 69
3 71 32 70
3 306 72 307
3 308 307 15
3 306 307 308
3 309 72 310
3 311 33 312
3 313 312 72
3 311 312 313
3 315 314 33
3 73 74 34
3 75 74 73
3 75 36 74
3 76 77 17
3 78 77 76
3 78 37 77
3 78 79 37
3 80 79 78
3 80 38 79
3 81 82 27
3 83 82 81
3 83 39 82
3 84 85 20
3 86 85 84
3 86 40 85
3 86 87 40
3 88 87 86
3 88 41 87
3 88 89 41
3 90 89 88
3 90 42 89
3 91 92 22
3 93 92 91
3 93 43 92
3 93 94 43
3 95 94 93
3 95 44 94
3 316 45 317
3 96 318 319
3 96 320 322
3 320 46 321
3 320 321 322
3 96 97 46
3 98 97 96
3 98 47 97
3 323 48 324
3 325 99 326
3 327 326 48
3 325 326 327
3 328 99 329
3 331 330 99
3 100 332 333
3 100 334 335
3 100 336 338
3 336 101 337
3 336 337 338
3 102 101 100
3 102 49 101
3 102 103 49
3 104 103 102
3 104 50 103
3 105 106 35
3 107 106 105
3 107 339 341
3 341 340 106
3 339 340 341
3 108 109 31
3 110 109 108
3 110 342 344
3 344 343 109
3 342 343 344
3 346 345 4
3 348 347 13
3 111 112 6
3 113 112 111
3 113 15 112
3 349 113 350
3 351 350 14
3 349 350 351
3 352 113 353
3 354 15 355
3 356 355 113
3 354 355 356
3 358 357 15
3 114 115 8
3 116 115 114
3 116 17 115
3 54 116 16
3 117 116 54
3 117 17 116
3 117 76 17
3 118 76 117
3 118 10 76
3 119 120 5
3 121 120 119
3 121 20 120
3 57 121 19
3 122 121 57
3 122 20 121
3 122 84 20
3 123 84 122
3 123 11 84
3 123 124 11
3 125 124 123
3 125 22 124
3 59 125 21
3 126 125 59
3 126 22 125
3 126 91 22
3 127 91 126
3 127 12 91
3 128 129 9
3 130 129 128
3 130 359 361
3 361 360 129
3 359 360 361
3 62 130 24
3 131 130 62
3 131 362 364
3 364 363 130
3 362 363 364
3 131 365 366
3 368 367 131
3 132 133 7
3 369 133 370
3 371 370 132
3 369 370 371
3 373 372 133
3 134 135 1
3 136 135 134
3 136 27 135
3 65 136 26
3 137 136 65
3 137 27 136
3 137 81 27
3 138 81 137
3 138 5 81
3 374 66 375
3 376 375 4
3 374 375 376
3 377 66 378
3 379 28 380
3 381 380 66
3 379 380 381
3 382 28 383
3 384 138 385
3 386 385 28
3 384 385 386
3 387 138 388
3 389 5 390
3 391 390 138
3 389 390 391
3 392 119 393
3 394 393 5
3 392 393 394
3 139 395 397
3 395 119 396
3 395 396 397
3 139 19 119
3 67 398 400
3 398 139 399
3 398 399 400
3 140 139 67
3 140 19 139
3 140 56 19
3 141 56 140
3 141 3 56
3 142 143 2
3 144 143 142
3 144 31 143
3 70 144 30
3 145 144 70
3 145 31 144
3 145 108 31
3 146 108 145
3 146 7 108
3 112 71 6
3 147 71 112
3 147 32 71
3 72 147 15
3 148 147 72
3 148 32 147
3 148 146 32
3 149 146 148
3 149 7 146
3 149 132 7
3 150 132 149
3 150 401 403
3 403 402 132
3 401 402 403
3 404 150 405
3 406 405 33
3 404 405 406
3 407 150 408
3 410 409 150
3 151 152 0
3 153 152 151
3 153 35 152
3 74 153 34
3 154 153 74
3 154 35 153
3 154 105 35
3 155 105 154
3 155 9 105
3 115 75 8
3 156 75 115
3 156 36 75
3 77 156 17
3 157 156 77
3 157 36 156
3 157 155 36
3 158 155 157
3 158 9 155
3 158 128 9
3 159 128 158
3 159 24 128
3 79 159 37
3 160 159 79
3 160 24 159
3 160 61 24
3 161 61 160
3 161 2 61
3 135 55 1
3 162 55 135
3 162 18 55
3 82 162 27
3 163 162 82
3 163 18 162
3 163 118 18
3 164 118 163
3 164 10 118
3 120 83 5
3 165 83 120
3 165 39 83
3 85 165 20
3 166 165 85
3 166 39 165
3 166 164 39
3 167 164 166
3 167 10 164
3 167 80 10
3 168 80 167
3 168 38 80
3 87 168 40
3 169 168 87
3 169 38 168
3 169 161 38
3 170 161 169
3 170 2 161
3 170 142 2
3 171 142 170
3 171 30 142
3 89 171 41
3 172 171 89
3 172 30 171
3 172 69 30
3 173 69 172
3 173 6 69
3 124 90 11
3 174 90 124
3 174 42 90
3 92 174 22
3 175 174 92
3 175 42 174
3 175 173 42
3 176 173 175
3 176 6 173
3 176 111 6
3 177 111 176
3 177 14 111
3 94 177 43
3 178 177 94
3 178 14 177
3 178 411 413
3 413 412 14
3 411 412 413
3 415 414 178
3 179 416 417
3 179 418 419
3 179 420 421
3 180 422 424
3 424 423 179
3 422 423 424
3 180 425 427
3 425 13 426
3 425 426 427
3 428 180 429
3 181 430 432
3 430 180 431
3 430 431 432
3 181 13 180
3 181 51 13
3 182 51 181
3 182 0 51
3 183 433 434
3 183 435 437
3 435 45 436
3 435 436 437
3 438 183 439
3 184 440 442
3 440 183 441
3 440 441 442
3 184 45 183
3 184 182 45
3 185 182 184
3 185 0 182
3 185 151 0
3 186 151 185
3 186 34 151
3 97 186 46
3 187 186 97
3 187 34 186
3 187 73 34
3 188 73 187
3 188 8 73
3 443 98 444
3 189 445 447
3 445 98 446
3 445 446 447
3 189 47 98
3 448 189 449
3 190 450 452
3 450 189 451
3 450 451 452
3 190 47 189
3 190 188 47
3 191 188 190
3 191 8 188
3 191 114 8
3 192 114 191
3 192 16 114
3 99 192 48
3 193 192 99
3 193 16 192
3 193 53 16
3 194 53 193
3 194 1 53
3 453 194 454
3 455 194 456
3 457 1 458
3 459 458 194
3 457 458 459
3 460 134 461
3 462 461 1
3 460 461 462
3 463 134 464
3 465 26 466
3 467 466 134
3 465 466 467
3 468 26 469
3 470 64 471
3 472 471 26
3 470 471 472
3 473 64 474
3 475 4 476
3 477 476 64
3 475 476 477
3 478 4 479
3 481 480 4
3 195 482 483
3 195 484 485
3 195 486 488
3 486 68 487
3 486 487 488
3 196 68 195
3 196 29 68
3 489 196 490
3 197 491 493
3 491 196 492
3 491 492 493
3 197 29 196
3 197 141 29
3 198 141 197
3 198 3 141
3 101 494 495
3 199 496 498
3 498 497 101
3 496 497 498
3 199 499 501
3 499 500 501
3 199 502 504
3 502 198 503
3 502 503 504
3 200 198 199
3 200 3 198
3 200 60 3
3 201 60 200
3 201 23 60
3 103 201 49
3 202 201 103
3 202 23 201
3 202 127 23
3 203 127 202
3 203 12 127
3 505 104 506
3 505 506 507
3 508 104 509
3 508 509 510
3 511 50 512
3 513 512 104
3 511 512 513
3 204 514 515
3 204 516 518
3 516 50 517
3 516 517 518
3 204 203 50
3 205 203 204
3 205 12 203
3 205 95 12
3 206 95 205
3 206 44 95
3 519 206 520
3 521 206 522
3 523 44 524
3 525 524 206
3 523 524 525
3 527 526 44
3 152 52 0
3 207 52 152
3 207 528 530
3 530 529 52
3 528 529 530
3 106 207 35
3 531 207 532
3 533 532 106
3 531 532 533
3 535 534 207
3 129 107 9
3 536 107 537
3 538 537 129
3 536 537 538
3 540 539 107
3 143 63 2
3 208 63 143
3 208 25 63
3 109 208 31
3 209 208 109
3 209 25 208
3 209 541 543
3 543 542 25
3 541 542 543
3 545 544 209
3 133 110 7
3 546 110 547
3 548 547 133
3 546 547 548
3 550 549 110
