ply
format ascii 1.0
element vertex 440
property float x
property float y
property float z
element face 468
property list uchar int vertex_index
end_header
-24.32995 -80.31768 -18.25366
-20.932058 -56.087105 -20.02438
-25.446321 -91.892769 -17.981405
-20.65406 -96.706924 -27.292664
-22.169987 -68.085388 -18.941614
-25.992374 -83.917152 -9.012271
-23.870268 -72.708977 -10.730302
-22.699158 -61.727272 -12.687838
-25.176865 -86.271843 -18.106136
-24.141607 -89.275818 -22.61582
-23.82979 -83.534416 -22.335939
-21.375542 -61.962879 -19.396452
-20.936401 -64.533592 -22.559935
-20.159922 -58.415081 -22.91493
-26.515232 -89.342056 -8.195225
-24.592297 -74.389427 -6.073152
-23.078833 -67.331856 -11.78156
-16.596136 -105.98851 -22.054403
-19.825632 -103.442924 -22.569304
-24.838165 -97.100708 -17.857126
-22.205433 -99.632301 -22.936457
-23.707245 -94.78701 -22.778194
-21.910589 -91.548729 -27.094776
-23.232056 -74.142517 -18.566143
-23.046818 -77.229408 -22.101564
-21.951559 -70.732216 -22.265678
-25.281885 -98.339928 -12.762202
-26.145264 -93.579086 -13.019058
-26.093977 -88.192825 -13.324671
-25.363787 -82.431328 -13.572407
-25.549301 -79.568329 -4.850148
-25.000511 -78.416756 -9.654777
-24.214176 -76.49144 -14.266642
-23.119125 -70.80928 -15.004985
-22.285465 -64.97332 -15.843429
-21.892677 -59.336086 -16.494352
-18.510265 -100.780144 -27.213907
-24.837357 -83.384766 -18.031031
-24.566746 -85.053787 -20.252939
-24.198256 -82.11042 -20.234846
-21.092827 -59.05191 -19.761852
-20.795156 -60.270473 -21.236414
-20.501822 -57.097664 -21.521257
-21.96063 -103.332985 -17.794542
-20.344931 -104.257027 -20.039188
-21.740046 -102.567055 -20.231028
-25.24539 -94.654396 -17.967482
-24.386406 -96.077057 -20.284225
-24.754404 -93.453377 -20.314045
-23.342838 -87.743927 -24.567961
-23.253902 -90.717056 -24.741653
-22.308605 -88.852852 -26.690329
-22.684166 -71.182388 -18.758066
-22.649403 -72.645981 -20.449459
-22.091337 -69.569618 -20.64978
-20.214725 -62.512146 -24.223236
-20.628351 -65.617775 -24.289478
-25.910517 -96.400795 -9.920916
-25.836975 -96.103638 -12.803288
-26.332541 -86.654312 -8.622035
-26.367804 -88.754585 -10.651019
-26.109426 -86.060326 -11.094816
-25.792459 -85.257462 -13.395009
-25.714382 -83.263329 -11.414463
-24.239746 -73.642303 -8.473173
-24.76532 -76.331856 -7.773578
-24.415907 -75.595238 -10.211693
-24.631433 -77.535522 -12.009802
-24.065586 -74.771439 -12.405001
-23.649986 -73.6716 -14.59889
-23.532423 -71.921684 -12.836292
-22.822708 -64.422173 -12.235765
-22.691534 -66.137459 -13.808308
-22.433428 -63.505466 -14.32327
-22.039745 -62.131725 -16.149273
-22.328644 -60.56076 -14.536522
-22.400948 -54.785858 -15.517162
-16.029848 -105.122429 -24.420544
-21.463282 -98.405922 -25.190308
-20.501587 -100.424187 -25.090054
-19.678596 -98.833504 -27.3337
-25.406637 -89.019211 -18.003334
-24.833719 -90.865303 -20.48102
-24.834568 -88.050659 -20.213568
-24.121258 -86.473518 -22.297178
-23.213634 -84.68856 -24.45204
-21.700796 -64.867653 -19.228844
-21.59745 -66.37587 -20.738224
-21.142439 -63.226299 -21.011946
-20.497204 -61.430786 -22.777954
-26.203117 -84.477562 -6.358748
-24.139326 -71.624504 -6.735959
-23.794262 -70.915451 -9.043651
-23.428505 -70.06797 -11.348263
-23.205666 -65.520027 -10.109234
-23.092535 -62.756138 -10.582023
-18.874922 -105.499969 -19.830399
-18.351736 -104.849388 -22.32411
-17.612696 -103.882027 -24.82375
-24.133324 -99.363113 -17.976439
-22.857725 -100.606766 -20.396229
-23.704838 -98.489029 -20.431623
-23.138802 -97.303093 -22.779274
-22.360041 -95.973877 -25.050158
-24.022621 -92.162811 -22.749489
-22.842783 -93.274574 -25.117609
-21.359621 -94.248795 -27.286331
-23.827375 -77.283424 -18.270624
-23.73399 -78.90789 -20.196341
-23.218193 -75.858429 -20.334932
-22.515635 -74.020004 -22.199894
-21.391882 -67.499069 -22.425068
-21.193932 -68.856728 -24.072691
-24.48173 -100.418381 -12.493823
-24.356287 -100.080582 -15.445896
-25.13685 -97.801888 -15.437806
-25.64443 -95.318062 -15.43365
-25.88608 -92.8312 -15.431875
-26.426691 -91.553085 -10.562295
-26.249178 -90.835045 -12.924991
-25.880623 -90.142563 -15.662678
-25.710537 -87.208504 -15.62088
-25.365685 -84.418739 -15.773758
-24.884287 -81.407349 -15.948027
-25.976442 -82.171967 -4.192528
-25.793734 -81.765213 -6.845749
-25.059214 -76.830276 -5.328341
-25.280678 -78.955391 -7.317334
-25.541285 -81.183708 -9.282136
-25.194628 -80.310394 -11.639202
-24.803654 -79.486656 -14.014885
-24.347689 -78.451736 -16.166685
-23.780981 -75.57399 -16.521687
-23.202305 -72.527519 -16.7246
-22.658278 -69.503654 -17.080233
-23.051373 -68.907555 -13.306332
-22.676756 -67.90094 -15.279881
-22.225624 -66.538513 -17.297411
-21.855688 -63.481056 -17.633389
-21.595858 -60.539894 -17.954439
-21.419855 -57.695156 -18.363031
-23.110704 -60.008041 -11.083742
-22.7197 -58.876858 -13.076913
-22.301714 -57.635509 -15.040148
-21.869284 -56.443481 -16.841021
-21.190586 -101.658089 -22.716059
-19.275381 -102.24601 -24.923588
-23.453037 -80.346657 -22.257368
-22.47394 -102.021767 -19.027222
-21.850338 -102.95002 -19.012785
-22.584232 -102.404732 -17.808979
-22.319631 -87.366485 -26.633371
-22.825722 -88.298389 -25.629145
-22.836747 -86.812023 -25.572187
-21.73755 -87.771569 -27.647084
-22.319631 -87.366485 -26.633371
-20.004848 -62.901483 -25.049265
-19.777165 -61.270817 -25.056075
-26.087149 -95.365032 -8.733934
-25.8465 -96.515126 -8.582092
-26.088286 -95.286373 -10.176823
-26.087149 -95.365032 -8.733934
-14.778846 -105.063698 -25.358389
-15.636335 -104.489635 -25.661262
-19.962028 -58.776179 -23.637873
-20.130668 -60.284031 -23.569384
-20.328563 -59.922933 -22.846442
-26.257197 -84.682556 -5.070491
-26.333975 -85.805947 -6.172983
-23.96091 -70.28529 -7.094969
-24.139104 -70.569611 -5.901413
-23.788378 -69.930763 -8.248815
-23.966794 -71.269978 -7.889805
-23.96091 -70.28529 -7.094969
-23.612251 -69.552952 -9.370681
-23.788378 -69.930763 -8.248815
-23.324937 -64.536075 -9.354726
-23.391579 -65.966457 -9.007696
-23.268372 -63.154131 -9.591121
-23.149101 -64.138082 -10.345629
-23.324937 -64.536075 -9.354726
-19.788938 -105.123478 -18.609313
-18.931618 -105.750972 -18.575787
-21.084754 -91.832271 -28.194178
-20.80927 -93.182305 -28.289955
-21.635105 -92.898762 -27.190554
-21.837464 -71.408062 -23.152995
-22.119502 -73.051956 -23.120103
-22.233597 -72.37611 -22.232786
-20.723837 -67.68829 -25.014917
-20.911141 -67.237251 -24.181084
-20.441046 -66.068814 -25.123311
-20.989351 -69.29969 -24.966439
-20.723837 -67.68829 -25.014917
-24.881808 -99.379154 -12.628013
-24.882678 -99.488228 -11.186012
-25.282756 -98.449002 -11.320201
-26.470962 -90.44757 -9.37876
-26.462091 -91.733882 -9.264534
-26.506361 -90.628368 -8.080998
-25.762871 -80.870148 -4.521338
-25.854456 -81.015339 -3.203215
-25.640886 -79.71352 -3.532024
-24.825755 -75.609851 -5.700747
-24.960712 -75.719219 -4.471969
-24.727253 -74.498795 -4.844374
-23.390498 -58.996992 -10.348054
-23.298331 -60.399435 -10.091501
-22.778954 -57.474905 -13.338504
-22.981376 -58.022126 -12.372335
-22.569961 -56.85423 -14.320122
-22.510707 -58.256183 -14.05853
-22.778954 -57.474905 -13.338504
-21.924568 -54.960107 -17.012923
-22.135116 -55.614669 -16.179092
-22.190399 -54.131296 -16.350994
-21.635172 -55.683179 -17.716018
-21.924568 -54.960107 -17.012923
-15.69752 -106.390835 -21.824828
-16.849086 -106.253689 -20.860123
-17.776848 -101.603466 -27.162732
-18.159405 -102.336399 -26.017572
-18.892823 -101.513077 -26.068748
-21.15278 -103.795006 -18.916865
-20.523942 -104.502006 -18.713707
-21.331792 -104.039986 -17.591384
-21.604952 -89.19796 -27.774204
-21.405945 -90.545898 -27.976428
-22.109597 -90.20079 -26.892553
-21.604952 -89.19796 -27.774204
-21.73755 -87.771569 -27.647084
-20.211661 -64.454298 -25.082386
-20.421538 -64.06496 -24.256357
-20.004848 -62.901483 -25.049265
-20.441046 -66.068814 -25.123311
-20.211661 -64.454298 -25.082386
-25.597072 -97.479435 -9.899559
-25.8465 -96.515126 -8.582092
-25.596201 -97.370362 -11.341559
-25.282756 -98.449002 -11.320201
-25.597072 -97.479435 -9.899559
-26.051516 -95.137795 -11.618009
-25.873746 -96.252217 -11.362102
-26.088286 -95.286373 -10.176823
-26.20566 -93.875518 -11.725894
-25.991119 -94.841362 -12.911173
-26.051516 -95.137795 -11.618009
-25.435842 -78.469784 -3.936212
-25.640886 -79.71352 -3.532024
-22.76039 -54.010578 -14.750388
-22.619577 -55.429405 -14.558629
-22.548125 -53.351263 -15.640994
-22.76039 -54.010578 -14.750388
-22.190399 -54.131296 -16.350994
-22.548125 -53.351263 -15.640994
-15.101623 -105.587734 -24.211675
-15.384767 -106.020775 -23.028605
-16.312992 -105.55547 -23.237474
-15.101623 -105.587734 -24.211675
-14.778846 -105.063698 -25.358389
-22.843515 -77.879452 -23.140801
-22.621184 -76.237865 -23.104878
-22.772145 -85.284339 -25.514227
-22.836747 -86.812023 -25.572187
-23.278236 -86.216243 -24.510001
-19.989429 -60.824711 -24.292026
-20.355964 -61.971466 -23.500595
-20.130668 -60.284031 -23.569384
-19.777165 -61.270817 -25.056075
-19.989429 -60.824711 -24.292026
-26.533437 -89.511757 -6.807391
-26.506361 -90.628368 -8.080998
-26.490032 -88.238193 -7.091222
-26.533437 -89.511757 -6.807391
-26.398687 -86.894322 -7.304627
-26.423887 -87.998184 -8.40863
-26.490032 -88.238193 -7.091222
-26.267829 -85.565937 -7.490392
-26.398687 -86.894322 -7.304627
-26.333975 -85.805947 -6.172983
-24.530521 -73.230915 -5.188678
-24.727253 -74.498795 -4.844374
-24.304036 -71.848454 -5.520082
-24.139104 -70.569611 -5.901413
-24.365811 -73.006966 -6.404556
-24.530521 -73.230915 -5.188678
-24.304036 -71.848454 -5.520082
-23.429372 -69.129211 -10.522987
-23.611384 -70.491711 -10.195957
-23.612251 -69.552952 -9.370681
-23.254536 -67.761155 -10.739636
-23.253669 -68.699913 -11.564912
-23.429372 -69.129211 -10.522987
-23.317953 -66.85524 -9.903473
-23.391579 -65.966457 -9.007696
-23.142249 -66.425941 -10.945397
-23.254536 -67.761155 -10.739636
-23.317953 -66.85524 -9.903473
-17.98848 -106.009418 -19.74812
-18.931618 -105.750972 -18.575787
-17.735529 -105.744239 -20.942401
-16.849086 -106.253689 -20.860123
-17.98848 -106.009418 -19.74812
-19.609927 -104.878498 -19.934793
-19.788938 -105.123478 -18.609313
-20.523942 -104.502006 -18.713707
-16.427759 -103.869434 -25.862865
-15.636335 -104.489635 -25.661262
-16.821272 -104.502228 -24.622147
-19.610101 -96.837978 -28.415625
-20.116209 -95.727016 -28.330751
-20.643425 -55.124832 -20.857544
-20.899242 -54.591627 -20.177008
-23.495525 -99.984939 -19.186334
-23.032779 -101.041622 -19.109822
-23.670579 -100.419796 -17.899928
-20.468989 -94.497951 -28.327585
-20.116209 -95.727016 -28.330751
-21.006841 -95.477859 -27.289497
-20.468989 -94.497951 -28.327585
-20.80927 -93.182305 -28.289955
-21.084754 -91.832271 -28.194178
-21.405945 -90.545898 -27.976428
-22.355593 -74.633163 -23.154043
-22.621184 -76.237865 -23.104878
-22.781226 -75.624706 -22.150729
-22.355593 -74.633163 -23.154043
-22.119502 -73.051956 -23.120103
-21.458651 -70.470318 -24.056501
-21.837464 -71.408062 -23.152995
-21.572745 -69.794472 -23.169185
-21.458651 -70.470318 -24.056501
-20.989351 -69.29969 -24.966439
-20.428307 -55.630112 -21.605982
-20.71694 -56.592385 -20.772818
-20.643425 -55.124832 -20.857544
-20.178792 -56.143575 -22.33997
-20.428307 -55.630112 -21.605982
-20.007842 -56.802284 -23.036807
-20.330872 -57.756372 -22.218093
-20.178792 -56.143575 -22.33997
-19.790689 -57.271801 -23.71163
-20.007842 -56.802284 -23.036807
-19.962028 -58.776179 -23.637873
-19.790689 -57.271801 -23.71163
-22.083369 -103.486992 -16.390452
-21.331792 -104.039986 -17.591384
-22.686222 -102.646301 -16.524828
-22.083369 -103.486992 -16.390452
-22.584232 -102.404732 -17.808979
-22.686222 -102.646301 -16.524828
-24.416398 -100.51403 -11.165949
-24.882678 -99.488228 -11.186012
-23.944313 -101.342923 -12.531303
-24.416398 -100.51403 -11.165949
-23.946772 -101.188999 -13.874468
-23.944313 -101.342923 -12.531303
-23.884051 -101.0201 -15.350504
-23.946772 -101.188999 -13.874468
-24.419008 -100.249482 -13.96986
-23.782061 -100.778531 -16.634656
-23.884051 -101.0201 -15.350504
-24.244805 -99.721847 -16.711167
-23.670579 -100.419796 -17.899928
-23.782061 -100.778531 -16.634656
-26.346373 -92.862518 -10.497512
-26.462091 -91.733882 -9.264534
-26.285978 -92.566085 -11.790677
-26.20566 -93.875518 -11.725894
-26.346373 -92.862518 -10.497512
-26.038097 -82.402031 -2.890737
-25.854456 -81.015339 -3.203215
-26.143859 -83.529758 -3.987381
-26.038097 -82.402031 -2.890737
-26.089779 -83.324765 -5.275638
-26.257197 -84.682556 -5.070491
-26.143859 -83.529758 -3.987381
-25.190799 -77.100758 -4.175308
-24.960712 -75.719219 -4.471969
-25.304257 -78.199303 -5.089244
-25.435842 -78.469784 -3.936212
-25.190799 -77.100758 -4.175308
-23.289247 -61.773483 -9.840642
-23.268372 -63.154131 -9.591121
-23.101619 -61.382089 -10.832883
-23.289247 -61.773483 -9.840642
-23.298331 -60.399435 -10.091501
-23.176879 -58.587717 -11.37575
-23.390498 -58.996992 -10.348054
-22.915202 -59.442449 -12.080327
-23.176879 -58.587717 -11.37575
-22.981376 -58.022126 -12.372335
-22.351331 -56.210684 -15.278655
-22.569961 -56.85423 -14.320122
-22.619577 -55.429405 -14.558629
-21.410457 -56.309017 -18.477023
-21.644569 -57.069318 -17.602026
-21.635172 -55.683179 -17.716018
-21.166559 -55.504992 -19.307697
-21.175956 -56.891131 -19.193706
-21.410457 -56.309017 -18.477023
-20.899242 -54.591627 -20.177008
-21.166559 -55.504992 -19.307697
-15.69752 -106.390835 -21.824828
-15.384767 -106.020775 -23.028605
-22.298885 -101.58691 -20.313629
-22.47394 -102.021767 -19.027222
-23.032779 -101.041622 -19.109822
-17.328063 -103.154407 -25.967654
-18.444038 -103.064019 -24.873669
-18.159405 -102.336399 -26.017572
-16.427759 -103.869434 -25.862865
-17.328063 -103.154407 -25.967654
-19.122369 -97.901268 -28.436143
-20.166328 -97.770214 -27.313182
-19.610101 -96.837978 -28.415625
-18.553521 -98.976899 -28.379784
-19.122369 -97.901268 -28.436143
-17.969355 -99.950219 -28.319888
-19.094431 -99.806824 -27.273803
-18.553521 -98.976899 -28.379784
-17.280314 -100.788803 -28.28825
-17.969355 -99.950219 -28.319888
-17.776848 -101.603466 -27.162732
-17.280314 -100.788803 -28.28825
-23.046625 -79.438076 -23.218703
-23.249927 -78.788032 -22.179466
-22.843515 -77.879452 -23.140801
-23.193351 -81.003029 -23.343967
-23.046625 -79.438076 -23.218703
-23.381727 -82.596908 -23.383253
-23.641413 -81.940536 -22.296653
-23.193351 -81.003029 -23.343967
-23.073649 -83.17398 -24.441304
-23.521712 -84.111488 -23.393989
-23.381727 -82.596908 -23.383253
-22.703007 -83.781963 -25.465573
-23.073649 -83.17398 -24.441304
-22.772145 -85.284339 -25.514227
-22.703007 -83.781963 -25.465573
3 0 39 37
3 1 42 40
3 148 45 149
3 150 149 43
3 148 149 150
3 2 48 46
3 151 51 152
3 153 152 49
3 151 152 153
3 155 154 51
3 4 54 52
3 157 156 55
3 158 57 159
3 161 160 57
3 5 61 59
3 5 63 61
3 6 66 64
3 6 68 66
3 6 70 68
3 7 73 71
3 7 75 73
3 163 162 77
3 3 80 78
3 8 83 81
3 10 84 38
3 10 85 84
3 11 88 86
3 13 89 41
3 13 164 166
3 166 165 89
3 164 165 166
3 167 90 168
3 169 91 170
3 171 92 172
3 173 172 91
3 171 172 173
3 175 174 92
3 176 94 177
3 178 95 179
3 180 179 94
3 178 179 180
3 181 96 182
3 18 97 44
3 18 98 97
3 19 101 99
3 21 102 47
3 21 103 102
3 9 104 82
3 22 105 50
3 22 106 105
3 22 183 185
3 185 184 106
3 183 184 185
3 23 109 107
3 25 110 53
3 25 186 188
3 188 187 110
3 186 187 188
3 12 111 87
3 189 112 190
3 191 190 56
3 189 190 191
3 193 192 112
3 26 194 196
3 194 113 195
3 194 195 196
3 26 114 113
3 26 115 114
3 27 116 58
3 27 117 116
3 14 197 199
3 197 118 198
3 197 198 199
3 28 119 60
3 28 120 119
3 28 121 120
3 29 122 62
3 29 123 122
3 30 200 202
3 200 124 201
3 200 201 202
3 30 125 124
3 15 203 205
3 203 126 204
3 203 204 205
3 31 127 65
3 31 128 127
3 31 129 128
3 32 130 67
3 32 131 130
3 32 132 131
3 33 133 69
3 33 134 133
3 16 135 93
3 34 136 72
3 34 137 136
3 34 138 137
3 35 139 74
3 35 140 139
3 206 141 207
3 208 142 209
3 210 143 211
3 212 211 142
3 210 211 212
3 213 144 214
3 215 214 76
3 213 214 215
3 217 216 144
3 17 218 219
3 20 145 100
3 36 146 79
3 36 220 222
3 222 221 146
3 220 221 222
3 24 147 108
3 37 38 8
3 39 38 37
3 39 10 38
3 40 41 11
3 42 41 40
3 42 13 41
3 43 223 225
3 223 44 224
3 223 224 225
3 45 44 43
3 45 18 44
3 46 47 19
3 48 47 46
3 48 21 47
3 49 50 9
3 51 50 49
3 51 22 50
3 51 226 228
3 228 227 22
3 226 227 228
3 230 229 51
3 52 53 23
3 54 53 52
3 54 25 53
3 55 56 12
3 231 56 232
3 233 232 55
3 231 232 233
3 235 234 56
3 57 236 237
3 57 238 240
3 238 26 239
3 238 239 240
3 57 58 26
3 241 58 242
3 243 242 57
3 241 242 243
3 244 27 245
3 246 245 58
3 244 245 246
3 59 60 14
3 61 60 59
3 61 28 60
3 61 62 28
3 63 62 61
3 63 29 62
3 247 30 248
3 64 65 15
3 66 65 64
3 66 31 65
3 66 67 31
3 68 67 66
3 68 32 67
3 68 69 32
3 70 69 68
3 70 33 69
3 71 72 16
3 73 72 71
3 73 34 72
3 73 74 34
3 75 74 73
3 75 35 74
3 249 76 250
3 251 76 252
3 254 253 76
3 77 255 257
3 257 256 17
3 255 256 257
3 259 258 77
3 78 79 20
3 80 79 78
3 80 36 79
3 261 260 24
3 81 82 2
3 83 82 81
3 83 9 82
3 38 83 8
3 84 83 38
3 84 9 83
3 84 49 9
3 85 49 84
3 85 262 264
3 264 263 49
3 262 263 264
3 86 87 4
3 88 87 86
3 88 12 87
3 41 88 11
3 89 88 41
3 89 12 88
3 89 55 12
3 265 55 266
3 267 266 89
3 265 266 267
3 269 268 55
3 270 14 271
3 272 14 273
3 274 59 275
3 276 275 14
3 274 275 276
3 90 277 279
3 277 59 278
3 277 278 279
3 90 5 59
3 280 15 281
3 91 282 283
3 91 284 286
3 284 15 285
3 284 285 286
3 91 64 15
3 92 64 91
3 92 6 64
3 92 93 6
3 287 93 288
3 289 288 92
3 287 288 289
3 290 16 291
3 292 291 93
3 290 291 292
3 94 293 294
3 94 295 297
3 295 16 296
3 295 296 297
3 94 71 16
3 95 71 94
3 95 7 71
3 96 298 299
3 96 300 302
3 300 17 301
3 300 301 302
3 44 303 305
3 303 96 304
3 303 304 305
3 97 96 44
3 97 17 96
3 97 77 17
3 98 77 97
3 98 306 308
3 308 307 77
3 306 307 308
3 310 309 3
3 312 311 1
3 99 313 315
3 313 100 314
3 313 314 315
3 101 100 99
3 101 20 100
3 47 101 19
3 102 101 47
3 102 20 101
3 102 78 20
3 103 78 102
3 103 3 78
3 82 48 2
3 104 48 82
3 104 21 48
3 50 104 9
3 105 104 50
3 105 21 104
3 105 103 21
3 106 103 105
3 106 3 103
3 106 316 318
3 318 317 3
3 316 317 318
3 320 319 106
3 322 321 22
3 107 108 0
3 109 108 107
3 109 24 108
3 53 109 23
3 110 109 53
3 110 24 109
3 110 323 325
3 325 324 24
3 323 324 325
3 327 326 110
3 87 54 4
3 111 54 87
3 111 25 54
3 56 111 12
3 112 111 56
3 112 25 111
3 112 328 330
3 330 329 25
3 328 329 330
3 332 331 112
3 333 42 334
3 335 334 1
3 333 334 335
3 336 42 337
3 338 13 339
3 340 339 42
3 338 339 340
3 341 13 342
3 344 343 13
3 345 43 346
3 347 43 348
3 350 349 43
3 113 351 352
3 113 353 354
3 113 355 356
3 114 357 359
3 359 358 113
3 357 358 359
3 114 360 361
3 114 362 364
3 362 99 363
3 362 363 364
3 115 99 114
3 115 19 99
3 58 115 26
3 116 115 58
3 116 19 115
3 116 46 19
3 117 46 116
3 117 2 46
3 118 365 366
3 118 367 369
3 367 27 368
3 367 368 369
3 60 118 14
3 119 118 60
3 119 27 118
3 119 117 27
3 120 117 119
3 120 2 117
3 120 81 2
3 121 81 120
3 121 8 81
3 62 121 28
3 122 121 62
3 122 8 121
3 122 37 8
3 123 37 122
3 123 0 37
3 124 370 371
3 124 372 373
3 124 374 376
3 374 90 375
3 374 375 376
3 125 90 124
3 125 5 90
3 126 377 378
3 126 379 381
3 379 30 380
3 379 380 381
3 65 126 15
3 127 126 65
3 127 30 126
3 127 125 30
3 128 125 127
3 128 5 125
3 128 63 5
3 129 63 128
3 129 29 63
3 67 129 31
3 130 129 67
3 130 29 129
3 130 123 29
3 131 123 130
3 131 0 123
3 131 107 0
3 132 107 131
3 132 23 107
3 69 132 32
3 133 132 69
3 133 23 132
3 133 52 23
3 134 52 133
3 134 4 52
3 93 70 6
3 135 70 93
3 135 33 70
3 72 135 16
3 136 135 72
3 136 33 135
3 136 134 33
3 137 134 136
3 137 4 134
3 137 86 4
3 138 86 137
3 138 11 86
3 74 138 34
3 139 138 74
3 139 11 138
3 139 40 11
3 140 40 139
3 140 1 40
3 382 95 383
3 141 384 386
3 384 95 385
3 384 385 386
3 141 7 95
3 387 141 388
3 142 389 391
3 389 141 390
3 389 390 391
3 142 7 141
3 142 75 7
3 143 75 142
3 143 35 75
3 76 392 394
3 392 143 393
3 392 393 394
3 144 143 76
3 144 35 143
3 144 140 35
3 395 140 396
3 397 396 144
3 395 396 397
3 398 1 399
3 400 399 140
3 398 399 400
3 402 401 1
3 404 403 17
3 100 405 407
3 405 45 406
3 405 406 407
3 145 45 100
3 145 18 45
3 79 145 20
3 146 145 79
3 146 18 145
3 146 98 18
3 408 98 409
3 410 409 146
3 408 409 410
3 412 411 98
3 413 80 414
3 415 414 3
3 413 414 415
3 416 80 417
3 418 36 419
3 420 419 80
3 418 419 420
3 421 36 422
3 424 423 36
3 108 39 0
3 147 39 108
3 147 10 39
3 425 147 426
3 427 426 24
3 425 426 427
3 428 147 429
3 430 10 431
3 432 431 147
3 430 431 432
3 433 85 434
3 435 434 10
3 433 434 435
3 436 85 437
3 439 438 85
