ply
format ascii 1.0
element vertex 592
property float x
property float y
property float z
element face 602
property list uchar int vertex_index
end_header
26.639883 70.671349 40.601261
28.248569 100.219185 -18.737417
28.180948 92.57077 12.471737
31.732601 90.273857 -11.302322
27.726677 82.772102 27.465693
30.568661 79.642288 18.666004
29.994617 69.269089 32.433414
23.283827 105.932404 -10.056607
28.396069 98.416046 -3.272506
32.941936 72.365532 10.272032
30.228935 95.513245 -22.179127
31.906696 90.640808 -18.394314
30.183525 95.890556 -15.237527
27.339041 77.199799 33.976131
29.052467 76.544792 29.915596
28.689432 70.431641 36.670193
29.615101 63.474812 38.719845
28.132362 64.028877 42.967911
27.942472 99.50061 -25.699099
30.144854 93.805298 -29.081833
23.743395 104.235001 -2.298258
28.309875 96.03196 4.603518
29.931341 93.184647 0.159759
29.764082 90.300026 7.888847
31.322397 72.039345 21.430927
31.673914 76.602852 14.312936
32.336483 68.95459 17.239071
28.0429 87.978294 20.164181
29.601048 86.273933 15.777377
29.357176 81.699738 23.057699
30.274109 74.944382 25.670599
30.952482 67.331841 28.164421
25.952084 103.790573 -14.453988
28.35741 99.90834 -11.292299
26.132389 102.92263 -6.951902
26.268929 100.830505 1.092946
26.379438 97.563194 9.060271
26.238409 93.630493 16.586523
25.985991 88.520096 24.172861
25.474577 82.893356 31.138166
22.608866 106.507919 -17.561827
30.128162 94.915771 -7.55385
32.492401 82.45298 -0.00657
30.870945 83.606308 11.19802
32.09594 79.942139 7.022026
29.286066 97.985069 -20.373152
29.251829 98.256767 -16.960073
27.04418 73.959648 37.362019
28.041399 73.807358 35.527981
27.787405 70.754005 38.647259
28.377851 67.412186 39.921215
27.466974 67.584808 41.695854
26.999611 102.089188 -20.17392
28.136002 99.991768 -22.143522
29.208366 97.57756 -23.917368
28.294104 94.375656 8.452763
29.118237 93.275108 6.121077
29.004311 91.698639 10.022696
31.6078 68.452057 22.537807
31.786015 70.769287 19.314226
32.093548 66.768097 20.578653
32.643833 65.211922 18.36676
31.851446 90.502861 -14.825294
32.642452 87.72699 -16.465326
27.907249 85.544609 23.742525
28.780554 84.945908 21.526844
28.605797 82.426186 25.228889
29.555267 72.983734 31.264612
29.726202 75.820549 27.739059
30.129038 72.190956 29.137686
30.649975 71.162643 26.925875
30.488699 68.516289 30.248528
30.779179 64.676605 31.378698
30.311342 65.649094 33.590752
24.668535 105.059761 -12.358469
26.051603 103.483345 -10.672146
23.70966 103.109146 1.626022
25.091763 102.641777 -0.502287
25.098886 101.36116 3.435683
26.343267 99.273842 5.197129
25.183867 99.748482 7.280786
25.139307 95.928841 14.851333
25.113838 93.497261 18.717726
26.179287 91.117432 20.430824
24.913403 90.888199 22.560463
25.240976 79.823853 34.374916
22.970499 106.36834 -13.905667
24.399971 105.327797 -15.960693
26.85129 60.610199 47.427322
28.383886 99.290382 -7.194592
29.343346 97.468323 -9.448958
29.310791 96.755287 -5.465065
30.534344 90.174057 2.109618
30.730909 91.037697 -1.726781
31.293562 88.030388 -0.094145
31.980791 85.879723 -1.952825
30.147425 83.055138 17.064205
30.227188 85.339157 13.247881
30.741886 81.673805 14.883754
32.260311 74.632767 12.354632
31.890514 78.426666 10.583602
31.16045 92.698212 -23.636724
31.031107 93.117348 -13.216702
27.526613 79.999382 30.87081
28.441395 79.78038 28.691748
28.293423 76.806175 32.125366
28.881763 73.558182 33.355122
29.378805 70.193306 34.469402
29.808989 66.592789 35.513626
29.19121 67.056984 37.716175
28.958305 63.924114 40.858414
29.120729 96.780518 -27.375391
30.207085 94.818047 -25.759232
28.326242 97.46582 0.536774
29.197159 95.999825 -1.616287
29.152367 94.730598 2.407557
29.872583 91.827614 3.945793
30.469627 88.700523 5.666759
31.005356 75.903992 19.869202
31.142365 77.974968 16.600548
31.518454 74.304588 17.861752
32.052788 72.600029 15.810389
32.632568 70.848091 13.696326
33.242649 68.567703 12.145799
32.957657 66.808472 15.299694
33.241608 62.945156 16.740982
33.531307 59.018608 17.952675
32.763779 87.517197 -19.810713
28.179623 90.344444 16.211685
28.977121 89.636909 13.844454
28.876999 87.34729 17.861406
29.530214 83.981392 19.369381
30.009823 80.643303 20.959986
29.231726 79.077095 26.580297
29.89826 78.310966 24.253931
30.484657 77.034615 22.204678
30.836662 73.514023 23.468794
31.135826 69.808472 24.772621
31.408892 66.19046 25.782341
27.178047 102.112274 -16.659599
28.281137 100.266716 -15.050282
27.165588 102.116455 -13.037886
27.359795 101.473015 -9.1281
27.320368 100.877922 -5.133183
24.965971 103.758636 -4.540796
26.305901 101.902153 -2.938935
27.393543 99.82914 -1.266325
27.413408 98.547676 2.693875
27.381765 97.004234 6.812072
27.37553 95.14917 10.775277
25.226284 97.977135 10.958426
26.27285 95.796043 12.830091
27.254551 93.23661 14.651082
27.27747 90.804192 18.418861
27.08707 88.373764 22.274601
26.916876 85.727203 25.917362
24.673443 88.321503 25.969114
25.821466 85.850945 27.563906
26.707436 82.991058 29.360683
26.497929 80.118752 32.621994
26.162823 77.07267 35.90287
25.785217 73.899399 39.032486
25.7988 103.819031 -18.279556
26.327169 67.399254 43.437016
27.113947 64.194191 44.683292
29.296427 98.039162 -13.378419
30.166508 95.554428 -11.53451
30.912785 92.818428 -9.535384
30.074785 93.988083 -3.536972
30.800707 92.121452 -5.528205
29.654449 88.501251 11.895443
30.343645 87.098061 9.536273
31.295498 80.136314 12.838277
31.474987 81.909981 9.015697
31.636959 83.475601 5.331906
32.274574 81.430611 3.450373
31.971312 65.670761 22.226911
31.850674 67.610077 21.55823
31.728439 66.512741 23.206488
32.223301 64.81584 21.191434
31.971312 65.670761 22.226911
32.121302 88.919208 -12.018496
32.180724 89.03371 -13.779982
31.792023 90.388359 -13.063808
32.020258 88.847031 -10.277029
32.121302 88.919208 -12.018496
24.023078 105.275242 -9.269207
24.715432 104.838921 -10.420138
23.976181 105.496082 -11.207538
24.477226 101.484516 4.432968
24.404273 102.235153 2.530852
23.782613 102.358509 3.528137
24.519717 100.678177 6.355519
25.141376 100.554821 5.358235
24.477226 101.484516 4.432968
24.440004 93.319927 19.663806
24.489632 94.567077 17.80793
24.339786 92.015396 21.585175
25.013621 92.19273 20.639094
24.440004 93.319927 19.663806
23.127163 106.150372 -11.981137
22.258243 106.66932 -12.725993
22.414907 106.451352 -10.801463
31.223569 87.422612 1.731119
30.913953 89.102223 1.007737
30.84396 88.494446 2.833
31.562612 86.385601 0.734033
31.223569 87.422612 1.731119
32.742987 74.219475 9.52503
32.402174 75.353093 10.56633
32.601123 73.49915 11.313332
33.072783 73.177903 8.529885
32.742987 74.219475 9.52503
33.271949 71.257664 9.400585
33.072783 73.177903 8.529885
30.69691 94.289787 -21.206365
31.162668 92.882271 -21.935164
30.694693 94.105728 -22.907926
30.632866 94.599285 -15.918397
30.210028 95.846447 -16.91922
30.607316 94.503952 -14.227114
31.056657 93.212681 -14.907985
30.632866 94.599285 -15.918397
28.422691 62.349918 43.414257
28.835662 62.297537 42.359509
28.545333 63.976495 41.913162
27.19076 100.348789 -26.47731
27.355801 100.640453 -24.707666
27.837623 99.060119 -27.415437
27.19076 100.348789 -26.47731
28.5316 98.140564 -26.537245
28.426751 97.700074 -28.253583
27.837623 99.060119 -27.415437
33.073063 62.069177 18.246193
32.942721 64.078539 17.553871
32.774175 63.202561 19.059082
33.217912 60.105903 18.85204
33.386457 60.981882 17.346829
33.073063 62.069177 18.246193
33.337095 58.110607 19.448795
33.217912 60.105903 18.85204
32.335237 89.079003 -19.102514
32.400898 88.817532 -20.771383
31.972357 90.379338 -20.063183
33.070594 86.073689 -17.226415
32.973575 86.186509 -15.433573
31.08409 65.566395 28.555073
31.312295 64.995705 27.364033
31.180687 66.76115 26.973381
30.906559 62.849754 31.725768
30.69281 63.333912 32.878598
29.89969 63.070158 37.598087
29.996634 64.629146 35.994978
29.712045 65.0338 37.116736
30.014891 93.325043 -30.62524
29.525465 94.80402 -29.871548
24.354683 103.996818 -3.419527
24.169494 104.538642 -5.333561
23.558205 104.776825 -4.212292
24.602752 97.879441 12.084115
24.587906 98.89198 10.151024
23.953683 88.004188 26.806942
24.058788 89.415875 25.100664
25.648021 84.372151 29.351036
25.164762 85.70612 28.390651
24.991317 84.227326 30.177781
25.474436 76.806637 36.795164
25.701899 78.448262 35.138893
25.013512 78.182229 36.031187
25.285633 75.220001 38.359972
25.97402 75.486035 37.467678
25.474436 76.806637 36.795164
21.64962 106.885151 -18.262238
21.873442 106.887161 -16.42756
22.494006 106.383099 -19.326888
21.64962 106.885151 -18.262238
23.391177 105.871834 -18.643134
22.494006 106.383099 -19.326888
26.164803 65.659951 44.824463
25.663991 67.108139 44.247734
26.558191 64.057419 45.447601
26.720558 65.796723 44.060154
26.164803 65.659951 44.824463
27.360371 60.682589 46.579757
27.252755 58.889623 47.908518
31.123537 90.577595 -4.695066
30.765808 91.579575 -3.627493
31.088638 90.035717 -2.794354
31.164367 91.088993 -6.59149
31.123537 90.577595 -4.695066
32.598297 82.930664 -1.826937
32.342492 84.644036 -2.800065
32.236596 84.166351 -0.979697
32.845108 81.267452 -0.906627
32.598297 82.930664 -1.826937
30.916494 84.545315 9.341738
30.652845 86.291191 8.510865
30.607295 85.352184 10.367147
33.601814 67.537914 11.087426
33.423125 66.667534 12.787078
29.761299 96.893704 -19.487032
30.232734 95.657792 -20.39002
29.7575 96.749157 -21.276139
29.74418 97.029552 -17.780493
29.761299 96.893704 -19.487032
29.268948 98.120918 -18.666612
29.717677 97.073662 -16.0988
30.210028 95.846447 -16.91922
29.74418 97.029552 -17.780493
26.884371 101.934742 -21.945076
26.243156 102.886654 -21.045807
27.452567 100.886032 -22.929877
26.884371 101.934742 -21.945076
27.567807 101.040478 -21.158721
28.039237 99.746189 -23.921311
27.355801 100.640453 -24.707666
27.452567 100.886032 -22.929877
32.498444 64.037752 20.085487
32.36869 65.990009 19.472707
32.223301 64.81584 21.191434
32.774175 63.202561 19.059082
32.498444 64.037752 20.085487
32.576227 87.645775 -14.599998
32.246949 89.114925 -15.64531
32.180724 89.03371 -13.779982
32.973575 86.186509 -15.433573
32.576227 87.645775 -14.599998
30.458892 63.820157 33.984625
30.69281 63.333912 32.878598
30.54526 65.162849 32.484725
29.810949 61.674435 39.040198
29.519611 61.85651 40.254476
30.584691 92.340351 -29.736535
30.641259 92.86335 -28.066844
25.406966 104.050713 -9.576977
25.360069 104.271553 -11.515307
24.715432 104.838921 -10.420138
25.447359 103.770355 -7.716855
26.091996 103.202988 -8.812024
25.406966 104.050713 -9.576977
24.502366 95.782868 15.874733
24.559263 96.855294 14.030569
25.126573 94.713051 16.784529
24.502366 95.782868 15.874733
24.489632 94.567077 17.80793
24.780786 82.628406 31.963349
24.991317 84.227326 30.177781
24.663985 81.093655 33.581724
25.357776 81.358604 32.756541
24.780786 82.628406 31.963349
24.516628 79.457806 35.202078
24.663985 81.093655 33.581724
25.013512 78.182229 36.031187
24.516628 79.457806 35.202078
22.054258 106.817372 -14.59948
22.258243 106.66932 -12.725993
22.789682 106.43813 -15.733747
21.873442 106.887161 -16.42756
22.054258 106.817372 -14.59948
26.23088 60.359735 48.233697
26.426863 62.265423 46.819616
26.693974 58.821293 48.727233
26.23088 60.359735 48.233697
26.073564 58.57083 49.533609
27.252755 58.889623 47.908518
26.693974 58.821293 48.727233
31.369965 88.532062 -1.978036
31.088638 90.035717 -2.794354
31.012236 89.534042 -0.910463
31.637177 86.955056 -1.023485
31.713579 87.45673 -2.907376
31.369965 88.532062 -1.978036
31.906226 85.310269 -0.195307
31.637177 86.955056 -1.023485
31.562612 86.385601 0.734033
32.162031 83.596897 0.77782
32.236596 84.166351 -0.979697
31.906226 85.310269 -0.195307
32.217275 77.250042 9.680815
32.075412 76.529717 11.469117
32.402174 75.353093 10.56633
32.319989 78.007779 7.900027
31.993227 79.184403 8.802814
32.217275 77.250042 9.680815
32.414399 78.884418 6.109362
32.319989 78.007779 7.900027
31.599234 91.40804 -22.684388
31.580934 91.203579 -24.454422
31.599234 91.40804 -22.684388
31.162668 92.882271 -21.935164
31.535791 91.853569 -19.313958
31.972357 90.379338 -20.063183
30.69691 94.289787 -21.206365
30.232734 95.657792 -20.39002
31.494452 91.974411 -17.496791
31.535791 91.853569 -19.313958
31.466826 91.905438 -15.712281
31.879071 90.571834 -16.609804
31.494452 91.974411 -17.496791
31.441277 91.810104 -14.020998
31.466826 91.905438 -15.712281
31.056657 93.212681 -14.907985
29.191213 62.081162 41.323761
29.519611 61.85651 40.254476
29.286703 63.699463 39.78913
29.191213 62.081162 41.323761
28.835662 62.297537 42.359509
29.013402 96.29163 -29.018327
28.426751 97.700074 -28.253583
29.632791 95.292908 -28.228612
29.525465 94.80402 -29.871548
29.013402 96.29163 -29.018327
30.672375 93.369725 -26.405544
30.641259 92.86335 -28.066844
30.17597 94.311673 -27.420533
31.149057 92.309807 -25.34429
30.672375 93.369725 -26.405544
30.683768 93.758129 -24.697978
31.580934 91.203579 -24.454422
31.149057 92.309807 -25.34429
23.328421 105.625527 -8.091466
22.559765 106.16816 -8.903923
22.901158 104.863213 -2.959603
23.558205 104.776825 -4.212292
22.999412 104.330826 -1.163471
22.901158 104.863213 -2.959603
22.982544 103.767899 0.798669
23.726527 103.672073 -0.336118
22.999412 104.330826 -1.163471
23.042549 103.046322 2.802764
22.982544 103.767899 0.798669
23.782613 102.358509 3.528137
23.042549 103.046322 2.802764
22.559765 106.16816 -8.903923
22.414907 106.451352 -10.801463
30.811602 87.757679 4.611571
30.84396 88.494446 2.833
30.501985 89.43729 3.888189
33.280628 65.787918 14.364025
33.423125 66.667534 12.787078
33.100153 67.688087 13.722746
33.422604 63.85626 15.084669
33.280628 65.787918 14.364025
33.099632 64.876814 16.020338
33.579296 61.933396 15.775491
33.422604 63.85626 15.084669
33.724146 59.970122 16.381338
33.579296 61.933396 15.775491
33.386457 60.981882 17.346829
33.872699 57.949936 17.059726
33.724146 59.970122 16.381338
33.667473 56.964698 18.545528
33.872699 57.949936 17.059726
33.667473 56.964698 18.545528
33.337095 58.110607 19.448795
32.797596 87.310005 -21.476868
32.400898 88.817532 -20.771383
33.184376 85.820763 -20.551713
32.797596 87.310005 -21.476868
33.131258 85.968792 -18.899108
32.703115 87.622094 -18.138019
33.070594 86.073689 -17.226415
33.184376 85.820763 -20.551713
33.131258 85.968792 -18.899108
31.628985 65.381943 24.828755
31.728439 66.512741 23.206488
31.508346 67.321258 24.160074
31.520487 64.184129 26.414232
31.628985 65.381943 24.828755
31.520487 64.184129 26.414232
31.312295 64.995705 27.364033
30.997439 64.238777 30.162212
31.08409 65.566395 28.555073
30.865831 66.004223 29.77156
30.997439 64.238777 30.162212
30.906559 62.849754 31.725768
30.24781 64.157299 35.033541
30.060166 66.120942 34.552189
29.996634 64.629146 35.994978
30.458892 63.820157 33.984625
30.24781 64.157299 35.033541
29.89969 63.070158 37.598087
29.810949 61.674435 39.040198
30.014891 93.325043 -30.62524
30.584691 92.340351 -29.736535
24.023078 105.275242 -9.269207
23.328421 105.625527 -8.091466
24.86415 104.188358 -6.511302
24.169494 104.538642 -5.333561
25.54918 103.340633 -5.746349
25.447359 103.770355 -7.716855
24.86415 104.188358 -6.511302
24.566698 99.777653 8.312204
24.519717 100.678177 6.355519
25.205075 98.862808 9.119606
24.566698 99.777653 8.312204
24.587906 98.89198 10.151024
25.182795 96.952988 12.904879
24.602752 97.879441 12.084115
24.559263 96.855294 14.030569
24.178768 90.699222 23.396338
24.339786 92.015396 21.585175
24.793423 89.604851 24.264789
24.178768 90.699222 23.396338
24.058788 89.415875 25.100664
24.59075 86.941399 27.593255
23.953683 88.004188 26.806942
25.247454 87.086224 26.76651
24.59075 86.941399 27.593255
25.164762 85.70612 28.390651
24.28673 105.281773 -17.842567
23.391177 105.871834 -18.643134
23.504418 105.917858 -16.76126
24.986145 104.527389 -19.001998
24.28673 105.281773 -17.842567
25.099386 104.573414 -17.120124
25.64275 103.751576 -20.098625
24.986145 104.527389 -19.001998
26.399206 102.954109 -19.226738
26.243156 102.886654 -21.045807
25.64275 103.751576 -20.098625
25.085065 73.58873 39.839489
25.285633 75.220001 38.359972
25.567792 72.202423 40.56822
25.085065 73.58873 39.839489
25.995126 70.588398 41.352608
26.21255 72.285374 39.816873
25.567792 72.202423 40.56822
25.838769 68.95235 42.770485
25.663991 67.108139 44.247734
26.483526 69.035302 42.019138
25.995126 70.588398 41.352608
25.838769 68.95235 42.770485
26.982619 62.402195 46.055307
26.558191 64.057419 45.447601
26.426863 62.265423 46.819616
27.491699 62.474585 45.207743
26.982619 62.402195 46.055307
27.360371 60.682589 46.579757
28.000907 62.391927 44.350052
27.623154 64.111534 43.825602
27.491699 62.474585 45.207743
28.422691 62.349918 43.414257
28.000907 62.391927 44.350052
31.220406 91.437481 -8.59508
30.856746 92.46994 -7.531795
31.164367 91.088993 -6.59149
31.630314 90.165196 -9.478549
31.322693 91.546143 -10.418853
31.220406 91.437481 -8.59508
32.020258 88.847031 -10.277029
31.630314 90.165196 -9.478549
32.051385 86.391201 -3.799722
31.713579 87.45673 -2.907376
32.051385 86.391201 -3.799722
32.342492 84.644036 -2.800065
30.715835 87.092422 6.576108
30.406636 87.899292 7.601516
30.652845 86.291191 8.510865
30.811602 87.757679 4.611571
30.715835 87.092422 6.576108
31.218515 83.697152 8.250577
30.916494 84.545315 9.341738
31.172966 82.758145 10.106858
31.299501 84.479962 6.408682
31.218515 83.697152 8.250577
31.555973 82.692791 7.173801
31.395268 85.145218 4.444144
31.299501 84.479962 6.408682
31.73431 84.108207 3.447058
31.395268 85.145218 4.444144
32.053117 83.085712 2.506292
31.73431 84.108207 3.447058
31.955767 82.453106 4.391139
32.383488 81.941795 1.721901
32.162031 83.596897 0.77782
32.053117 83.085712 2.506292
32.503715 79.628654 4.323535
32.185257 80.686375 5.236199
32.414399 78.884418 6.109362
32.635809 80.147377 2.597959
32.503715 79.628654 4.323535
32.744723 80.658561 0.869488
32.383488 81.941795 1.721901
32.635809 80.147377 2.597959
32.845108 81.267452 -0.906627
32.744723 80.658561 0.869488
33.422306 69.358749 10.337468
33.271949 71.257664 9.400585
33.092292 70.466617 11.208915
33.422306 69.358749 10.337468
33.601814 67.537914 11.087426
3 1 46 45
3 0 49 47
3 0 51 49
3 1 53 52
3 1 45 53
3 2 57 55
3 176 60 177
3 178 177 58
3 176 177 178
3 180 179 60
3 3 181 183
3 183 182 62
3 181 182 183
3 3 184 185
3 4 66 64
3 6 69 67
3 6 71 69
3 6 73 71
3 7 186 188
3 188 187 74
3 186 187 188
3 189 78 190
3 191 190 76
3 189 190 191
3 192 80 193
3 194 193 78
3 192 193 194
3 195 82 196
3 197 84 198
3 199 198 82
3 197 198 199
3 7 200 202
3 200 86 201
3 200 201 202
3 7 74 86
3 8 91 89
3 203 94 204
3 205 204 92
3 203 204 205
3 207 206 94
3 5 98 96
3 9 208 210
3 210 209 99
3 208 209 210
3 9 211 212
3 9 213 214
3 10 215 217
3 217 216 101
3 215 216 217
3 12 218 219
3 12 220 222
3 220 102 221
3 220 221 222
3 13 105 103
3 15 106 48
3 15 107 106
3 15 109 107
3 17 110 50
3 17 223 225
3 225 224 110
3 223 224 225
3 18 226 227
3 18 228 229
3 18 230 232
3 230 111 231
3 230 231 232
3 10 112 54
3 10 101 112
3 21 115 113
3 23 116 56
3 23 117 116
3 24 120 118
3 26 121 59
3 26 122 121
3 26 124 122
3 233 125 234
3 235 234 61
3 233 234 235
3 236 126 237
3 238 237 125
3 236 237 238
3 240 239 126
3 11 241 243
3 241 127 242
3 241 242 243
3 245 244 63
3 27 130 128
3 29 131 65
3 29 132 131
3 14 133 104
3 30 134 68
3 30 135 134
3 30 136 135
3 31 137 70
3 31 138 137
3 31 246 248
3 248 247 138
3 246 247 248
3 250 249 72
3 16 251 253
3 253 252 108
3 251 252 253
3 19 254 255
3 32 141 139
3 34 142 75
3 34 143 142
3 20 256 258
3 256 144 257
3 256 257 258
3 35 145 77
3 35 146 145
3 35 147 146
3 36 148 79
3 36 149 148
3 259 150 260
3 37 151 81
3 37 152 151
3 37 153 152
3 38 154 83
3 38 155 154
3 261 156 262
3 39 263 265
3 263 157 264
3 263 264 265
3 39 158 157
3 39 159 158
3 266 160 267
3 268 267 85
3 266 267 268
3 269 161 270
3 271 270 160
3 269 270 271
3 40 272 273
3 40 274 275
3 40 276 277
3 32 162 87
3 32 139 162
3 278 163 279
3 280 164 281
3 282 281 163
3 280 281 282
3 284 283 88
3 33 165 140
3 41 166 90
3 41 167 166
3 22 168 114
3 285 169 286
3 287 286 93
3 285 286 287
3 289 288 169
3 42 290 292
3 292 291 95
3 290 291 292
3 42 293 294
3 28 170 129
3 43 171 97
3 43 295 297
3 297 296 171
3 295 296 297
3 25 172 119
3 44 173 100
3 44 174 173
3 44 175 174
3 299 298 123
3 45 300 302
3 302 301 10
3 300 301 302
3 46 303 305
3 305 304 45
3 303 304 305
3 46 306 308
3 306 12 307
3 306 307 308
3 47 48 13
3 49 48 47
3 49 15 48
3 49 50 15
3 51 50 49
3 51 17 50
3 52 309 310
3 53 311 313
3 313 312 52
3 311 312 313
3 53 314 316
3 314 18 315
3 314 315 316
3 53 54 18
3 45 54 53
3 45 10 54
3 55 56 21
3 57 56 55
3 57 23 56
3 58 59 24
3 60 59 58
3 60 26 59
3 60 61 26
3 317 61 318
3 319 318 60
3 317 318 319
3 321 320 61
3 62 63 11
3 322 63 323
3 324 323 62
3 322 323 324
3 326 325 63
3 64 65 27
3 66 65 64
3 66 29 65
3 67 68 14
3 69 68 67
3 69 30 68
3 69 70 30
3 71 70 69
3 71 31 70
3 71 72 31
3 73 72 71
3 73 327 329
3 329 328 72
3 327 328 329
3 331 330 16
3 333 332 19
3 74 75 32
3 334 75 335
3 336 335 74
3 334 335 336
3 337 34 338
3 339 338 75
3 337 338 339
3 76 77 20
3 78 77 76
3 78 35 77
3 78 79 35
3 80 79 78
3 80 36 79
3 340 81 341
3 82 342 344
3 342 81 343
3 342 343 344
3 82 37 81
3 82 83 37
3 84 83 82
3 84 38 83
3 345 39 346
3 347 85 348
3 349 348 39
3 347 348 349
3 350 85 351
3 353 352 85
3 86 354 355
3 86 356 358
3 356 40 357
3 356 357 358
3 86 87 40
3 74 87 86
3 74 32 87
3 359 88 360
3 361 88 362
3 361 362 363
3 365 364 88
3 89 90 33
3 91 90 89
3 91 41 90
3 92 93 22
3 94 93 92
3 94 366 368
3 368 367 93
3 366 367 368
3 94 369 371
3 369 95 370
3 369 370 371
3 372 95 373
3 374 373 94
3 372 373 374
3 375 42 376
3 377 376 95
3 375 376 377
3 96 97 28
3 98 97 96
3 98 43 97
3 99 100 25
3 378 100 379
3 380 379 99
3 378 379 380
3 381 44 382
3 383 382 100
3 381 382 383
3 385 384 44
3 101 386 387
3 389 388 101
3 390 11 391
3 393 392 10
3 394 11 395
3 396 62 397
3 398 397 11
3 396 397 398
3 102 399 401
3 399 62 400
3 399 400 401
3 102 3 62
3 103 104 4
3 105 104 103
3 105 14 104
3 48 105 13
3 106 105 48
3 106 14 105
3 106 67 14
3 107 67 106
3 107 6 67
3 107 108 6
3 109 108 107
3 109 16 108
3 50 109 15
3 110 109 50
3 110 16 109
3 110 402 404
3 404 403 16
3 402 403 404
3 406 405 110
3 111 407 408
3 111 409 411
3 409 19 410
3 409 410 411
3 54 111 18
3 112 111 54
3 112 19 111
3 112 412 414
3 414 413 19
3 412 413 414
3 101 415 417
3 417 416 112
3 415 416 417
3 101 418 419
3 421 420 7
3 422 20 423
3 424 20 425
3 426 76 427
3 428 427 20
3 426 427 428
3 429 76 430
3 432 431 76
3 433 7 434
3 113 114 8
3 115 114 113
3 115 22 114
3 56 115 21
3 116 115 56
3 116 22 115
3 116 92 22
3 117 92 116
3 117 435 437
3 437 436 92
3 435 436 437
3 118 119 5
3 120 119 118
3 120 25 119
3 59 120 24
3 121 120 59
3 121 25 120
3 121 99 25
3 122 99 121
3 122 9 99
3 122 123 9
3 124 123 122
3 124 438 440
3 440 439 123
3 438 439 440
3 61 124 26
3 125 124 61
3 125 441 443
3 443 442 124
3 441 442 443
3 125 444 445
3 126 446 448
3 448 447 125
3 446 447 448
3 126 449 450
3 126 451 452
3 454 453 126
3 127 455 456
3 127 457 458
3 63 127 11
3 459 127 460
3 461 460 63
3 459 460 461
3 463 462 127
3 128 129 2
3 130 129 128
3 130 28 129
3 65 130 27
3 131 130 65
3 131 28 130
3 131 96 28
3 132 96 131
3 132 5 96
3 104 66 4
3 133 66 104
3 133 29 66
3 68 133 14
3 134 133 68
3 134 29 133
3 134 132 29
3 135 132 134
3 135 5 132
3 135 118 5
3 136 118 135
3 136 24 118
3 70 136 30
3 137 136 70
3 137 24 136
3 137 58 24
3 138 58 137
3 138 464 466
3 466 465 58
3 464 465 466
3 138 467 468
3 470 469 138
3 72 471 473
3 473 472 31
3 471 472 473
3 475 474 72
3 108 73 6
3 476 73 477
3 478 477 108
3 476 477 478
3 480 479 73
3 482 481 16
3 484 483 19
3 139 140 1
3 141 140 139
3 141 33 140
3 75 141 32
3 142 141 75
3 142 33 141
3 142 89 33
3 143 89 142
3 143 8 89
3 486 485 7
3 144 487 488
3 144 489 491
3 489 34 490
3 489 490 491
3 77 144 20
3 145 144 77
3 145 34 144
3 145 143 34
3 146 143 145
3 146 8 143
3 146 113 8
3 147 113 146
3 147 21 113
3 79 147 35
3 148 147 79
3 148 21 147
3 148 55 21
3 149 55 148
3 149 2 55
3 492 80 493
3 150 494 496
3 494 80 495
3 494 495 496
3 150 36 80
3 81 497 499
3 497 150 498
3 497 498 499
3 151 150 81
3 151 36 150
3 151 149 36
3 152 149 151
3 152 2 149
3 152 128 2
3 153 128 152
3 153 27 128
3 83 153 37
3 154 153 83
3 154 27 153
3 154 64 27
3 155 64 154
3 155 4 64
3 500 84 501
3 156 502 504
3 502 84 503
3 502 503 504
3 156 38 84
3 505 156 506
3 157 507 509
3 507 156 508
3 507 508 509
3 157 38 156
3 157 155 38
3 158 155 157
3 158 4 155
3 158 103 4
3 159 103 158
3 159 13 103
3 85 159 39
3 160 159 85
3 160 13 159
3 160 47 13
3 161 47 160
3 161 0 47
3 87 510 512
3 512 511 40
3 510 511 512
3 162 513 515
3 515 514 87
3 513 514 515
3 162 516 517
3 162 518 520
3 518 52 519
3 518 519 520
3 139 52 162
3 139 1 52
3 521 161 522
3 523 161 524
3 525 0 526
3 527 526 161
3 525 526 527
3 163 528 529
3 163 530 532
3 530 0 531
3 530 531 532
3 163 51 0
3 164 51 163
3 164 17 51
3 88 533 535
3 533 164 534
3 533 534 535
3 536 164 537
3 538 537 88
3 536 537 538
3 539 17 540
3 541 540 164
3 539 540 541
3 543 542 17
3 140 46 1
3 165 46 140
3 165 12 46
3 90 165 33
3 166 165 90
3 166 12 165
3 166 102 12
3 167 102 166
3 167 3 102
3 114 91 8
3 168 91 114
3 168 41 91
3 93 168 22
3 169 168 93
3 169 41 168
3 169 167 41
3 544 167 545
3 546 545 169
3 544 545 546
3 547 3 548
3 549 548 167
3 547 548 549
3 551 550 3
3 95 552 553
3 555 554 95
3 129 57 2
3 170 57 129
3 170 23 57
3 97 170 28
3 171 170 97
3 171 23 170
3 171 117 23
3 556 117 557
3 558 557 171
3 556 557 558
3 560 559 117
3 119 98 5
3 172 98 119
3 172 43 98
3 100 172 25
3 173 172 100
3 173 43 172
3 173 561 563
3 563 562 43
3 561 562 563
3 174 564 566
3 566 565 173
3 564 565 566
3 174 567 568
3 174 569 570
3 175 571 573
3 573 572 174
3 571 572 573
3 175 574 576
3 574 42 575
3 574 575 576
3 577 175 578
3 579 578 44
3 577 578 579
3 580 175 581
3 582 42 583
3 584 583 175
3 582 583 584
3 586 585 42
3 123 587 589
3 589 588 9
3 587 588 589
3 591 590 123
