ply
format ascii 1.0
element vertex 283
property float x
property float y
property float z
element face 242
property list uchar int vertex_index
end_header
2.087947 37.675297 -57.051666
4.485586 14.074 -67.914154
-3.744584 34.528259 -55.591137
5.193264 24.683403 -67.696266
2.446621 10.212641 -64.662262
-0.839025 36.182495 -56.557568
1.297248 32.965828 -59.439667
5.351575 38.772797 -56.926365
4.33689 34.947739 -60.201073
3.503626 30.835701 -62.701019
2.84094 26.296265 -64.370979
4.844291 19.568981 -68.420563
7.315032 17.244371 -70.659836
1.047975 39.422447 -55.68964
-0.454954 38.853092 -55.573311
0.547858 36.940174 -56.860237
0.219504 34.372673 -57.950466
1.654537 35.355946 -58.318924
5.65862 12.701612 -68.883423
-5.111094 30.577188 -55.410065
-3.814861 31.531633 -56.114635
5.906688 40.485771 -55.13279
6.070855 35.849709 -60.202492
5.471135 33.989834 -61.774342
3.887911 32.903316 -61.568604
5.090261 31.990429 -63.27515
4.27 27.703016 -65.368317
3.967481 25.464836 -66.051239
2.64557 23.762403 -64.968193
3.755447 23.107164 -66.562958
3.65845 20.414907 -66.953957
4.999506 22.270979 -68.183655
3.400791 15.018707 -66.71579
-2.352709 35.291138 -56.109184
-2.506975 32.528484 -56.778233
-1.167965 33.450439 -57.403996
-0.16537 31.913435 -58.73914
6.444367 23.733667 -69.198982
2.628823 39.942478 -55.657734
4.238549 40.151749 -55.607819
3.681157 38.36602 -57.033447
6.467839 37.574013 -58.365643
4.75338 36.890324 -58.64267
3.176619 36.302006 -58.482548
2.787381 34.07991 -59.875027
2.36236 31.878521 -60.966568
2.059709 29.705238 -61.887184
4.640653 29.881056 -64.444366
3.054019 28.526157 -63.589901
3.510202 17.694641 -66.9524
4.708848 16.839224 -68.357475
6.274857 21.144217 -69.618706
6.06612 18.47094 -69.673103
5.887183 15.655773 -69.449387
7.149692 14.395432 -70.317337
4.47069 12.510312 -67.644863
3.931723 13.085045 -67.113216
5.072103 13.387806 -68.398788
5.057208 11.824118 -68.129497
4.47069 12.510312 -67.644863
-4.352227 35.708689 -55.110895
-3.604127 35.962299 -55.3221
-4.389378 34.14613 -55.337969
-4.352227 35.708689 -55.110895
-3.779723 33.029946 -55.852886
-4.424516 32.647817 -55.599718
-4.389378 34.14613 -55.337969
6.061906 33.576088 -62.56971
6.37568 34.419543 -61.820135
5.871469 32.576386 -63.320114
5.280698 32.990132 -62.524746
6.061906 33.576088 -62.56971
4.580373 25.074119 -66.873752
4.751486 26.269414 -66.529709
5.364377 25.878698 -67.352222
2.903763 15.466344 -66.06419
2.862974 13.996106 -65.853573
-1.367836 37.114916 -55.98968
-1.175801 38.450215 -55.497551
-0.646989 37.517793 -56.065439
-1.595867 35.736817 -56.333376
-2.124678 36.669237 -55.765487
-1.367836 37.114916 -55.98968
1.087749 31.808742 -59.831732
0.356439 31.282545 -59.481468
0.565939 32.439632 -59.089404
2.957577 40.977682 -54.935383
2.13405 40.86405 -55.038252
2.462804 41.899254 -54.315901
2.416506 8.697156 -64.238081
1.978479 9.183619 -63.68204
-5.104718 29.083877 -55.515927
-4.473363 29.586476 -55.955803
-2.579845 31.061654 -57.04567
-1.972879 31.620277 -57.427546
7.092581 37.026635 -59.165022
7.323102 37.739727 -58.190573
5.258762 29.53466 -65.262992
5.474881 30.535926 -64.689343
2.321152 26.769005 -63.541769
2.427691 27.883951 -63.15123
2.94748 27.411211 -63.98044
2.243874 25.471315 -63.88014
2.321152 26.769005 -63.541769
2.070966 22.85633 -64.371947
2.632837 22.533854 -65.216919
7.040348 21.978507 -70.057148
6.359612 22.438942 -69.408844
7.125103 23.273232 -69.847286
6.690576 17.857655 -70.16647
6.817868 19.324015 -70.211182
7.442324 18.710731 -70.704548
0.296511 39.137769 -55.631475
-0.235625 40.121156 -55.044787
0.51584 40.405834 -55.102951
2.907012 9.598031 -65.155128
2.912241 11.154366 -65.48727
5.614947 11.187817 -68.536743
5.057208 11.824118 -68.129497
6.267991 12.017314 -69.246006
5.614947 11.187817 -68.536743
-5.072632 32.170594 -55.247433
-5.766922 31.77798 -54.964726
-4.462978 31.05441 -55.76235
-5.072632 32.170594 -55.247433
-4.424516 32.647817 -55.599718
-3.825247 30.063699 -56.308088
-4.473363 29.586476 -55.955803
-4.462978 31.05441 -55.76235
6.745341 40.472566 -54.882351
6.168126 41.248734 -54.244482
7.006779 41.235529 -53.994043
6.471909 39.796547 -55.827252
6.745341 40.472566 -54.882351
6.194353 38.94006 -56.724039
5.629131 39.629284 -56.029578
6.471909 39.796547 -55.827252
6.675539 35.34948 -61.034211
6.894089 36.164482 -60.083447
5.770995 34.919771 -60.988417
6.675539 35.34948 -61.034211
6.37568 34.419543 -61.820135
4.902745 27.388504 -66.188248
5.073436 28.445639 -65.724968
4.11874 26.583926 -65.709778
4.902745 27.388504 -66.188248
4.751486 26.269414 -66.529709
3.187776 22.206235 -66.014301
2.632837 22.533854 -65.216919
3.200509 23.434784 -65.765575
3.706949 21.761035 -66.758457
3.139278 20.860106 -66.209801
3.187776 22.206235 -66.014301
8.098917 18.083165 -71.145588
7.442324 18.710731 -70.704548
8.790571 17.456355 -71.535598
8.006686 16.617561 -71.049847
8.098917 18.083165 -71.145588
1.945857 10.614864 -63.969034
1.978479 9.183619 -63.68204
2.385889 11.593073 -64.826809
1.945857 10.614864 -63.969034
2.912241 11.154366 -65.48727
2.385889 11.593073 -64.826809
3.389326 13.557398 -66.514035
2.862974 13.996106 -65.853573
3.943188 14.546353 -67.314972
3.931723 13.085045 -67.113216
3.389326 13.557398 -66.514035
-0.983836 39.848772 -55.04653
-0.235625 40.121156 -55.044787
-0.983836 39.848772 -55.04653
-1.175801 38.450215 -55.497551
-2.908189 36.343739 -55.581123
-2.124678 36.669237 -55.765487
-3.048647 34.909698 -55.850161
-3.604127 35.962299 -55.3221
-2.908189 36.343739 -55.581123
-1.303374 32.081255 -57.740427
-1.972879 31.620277 -57.427546
-1.83747 32.989462 -57.091115
-0.802076 31.312753 -58.408
-1.303374 32.081255 -57.740427
-0.666667 32.681937 -58.071568
-0.259587 30.603491 -59.130747
-0.802076 31.312753 -58.408
-0.259587 30.603491 -59.130747
0.356439 31.282545 -59.481468
6.000464 25.448251 -68.138797
5.364377 25.878698 -67.352222
6.626016 24.973384 -68.890155
5.818815 24.208535 -68.447624
6.000464 25.448251 -68.138797
7.252337 24.429127 -69.589576
6.626016 24.973384 -68.890155
7.125103 23.273232 -69.847286
7.252337 24.429127 -69.589576
1.343626 40.604034 -55.054205
0.51584 40.405834 -55.102951
1.838399 39.682462 -55.673687
1.343626 40.604034 -55.054205
2.13405 40.86405 -55.038252
2.416506 8.697156 -64.238081
2.907012 9.598031 -65.155128
-5.78517 30.180416 -55.037278
-5.766922 31.77798 -54.964726
-5.78517 30.180416 -55.037278
-5.104718 29.083877 -55.515927
-3.233788 30.563229 -56.713871
-3.160918 32.030058 -56.446434
-2.579845 31.061654 -57.04567
-3.825247 30.063699 -56.308088
-3.233788 30.563229 -56.713871
5.387967 41.255795 -54.523439
6.168126 41.248734 -54.244482
4.553897 41.088784 -54.760954
5.387967 41.255795 -54.523439
5.072618 40.31876 -55.370305
3.76244 41.082318 -54.910426
4.553897 41.088784 -54.760954
3.433686 40.047114 -55.632776
2.957577 40.977682 -54.935383
3.76244 41.082318 -54.910426
6.752485 38.340668 -57.443678
7.323102 37.739727 -58.190573
5.909707 38.173405 -57.646004
6.194353 38.94006 -56.724039
6.752485 38.340668 -57.443678
6.269347 36.711861 -59.284067
7.092581 37.026635 -59.165022
6.894089 36.164482 -60.083447
1.620304 31.265088 -60.595182
1.087749 31.808742 -59.831732
1.829804 32.422174 -60.203118
1.468979 30.178446 -61.05549
1.620304 31.265088 -60.595182
2.211034 30.79188 -61.426876
1.425254 28.942323 -61.519621
1.468979 30.178446 -61.05549
5.699685 31.590612 -64.104735
5.871469 32.576386 -63.320114
4.865457 30.935742 -63.859758
5.699685 31.590612 -64.104735
5.474881 30.535926 -64.689343
4.455326 28.792036 -64.906341
5.258762 29.53466 -65.262992
5.073436 28.445639 -65.724968
1.930536 28.473492 -62.299871
2.556864 29.115698 -62.738542
2.427691 27.883951 -63.15123
1.425254 28.942323 -61.519621
1.930536 28.473492 -62.299871
2.146189 24.204384 -64.178747
2.243874 25.471315 -63.88014
2.743255 25.029334 -64.669586
2.146189 24.204384 -64.178747
2.070966 22.85633 -64.371947
3.058769 19.575229 -66.228341
3.139278 20.860106 -66.209801
2.984645 18.215096 -66.227562
3.058769 19.575229 -66.228341
3.584326 19.054774 -66.953179
2.958468 16.80431 -66.182495
2.984645 18.215096 -66.227562
3.455496 16.356674 -66.834095
2.903763 15.466344 -66.06419
2.958468 16.80431 -66.182495
6.922237 20.660654 -70.183983
7.040348 21.978507 -70.057148
6.170488 19.807578 -69.645905
6.922237 20.660654 -70.183983
6.817868 19.324015 -70.211182
7.013527 12.864224 -69.962963
6.267991 12.017314 -69.246006
6.404156 13.548522 -69.60038
7.924016 15.193091 -70.878597
7.232362 15.819902 -70.488586
8.006686 16.617561 -71.049847
7.801892 13.693946 -70.616291
7.924016 15.193091 -70.878597
7.665727 12.162738 -70.261917
7.013527 12.864224 -69.962963
7.801892 13.693946 -70.616291
3 0 15 13
3 0 17 15
3 1 55 56
3 1 57 59
3 57 18 58
3 57 58 59
3 2 60 61
3 2 62 63
3 2 64 66
3 64 20 65
3 64 65 66
3 67 23 68
3 69 25 70
3 71 70 23
3 69 70 71
3 3 72 74
3 72 27 73
3 72 73 74
3 3 29 27
3 3 31 29
3 75 32 76
3 5 77 79
3 79 78 14
3 77 78 79
3 5 80 82
3 80 33 81
3 80 81 82
3 5 35 33
3 6 36 16
3 6 83 85
3 85 84 36
3 83 84 85
3 86 38 87
3 86 87 88
3 4 89 90
3 92 91 19
3 94 93 34
3 7 39 21
3 7 40 39
3 95 41 96
3 8 42 22
3 8 43 42
3 8 44 43
3 9 45 24
3 9 46 45
3 97 47 98
3 10 48 26
3 10 99 101
3 101 100 48
3 99 100 101
3 10 102 103
3 105 104 28
3 11 49 30
3 11 50 49
3 106 51 107
3 108 107 37
3 106 107 108
3 12 109 111
3 109 52 110
3 109 110 111
3 12 53 52
3 12 54 53
3 13 112 114
3 112 14 113
3 112 113 114
3 15 14 13
3 15 5 14
3 15 16 5
3 17 16 15
3 17 6 16
3 116 115 4
3 18 117 118
3 18 119 120
3 121 19 122
3 20 123 125
3 123 19 124
3 123 124 125
3 20 126 128
3 128 127 19
3 126 127 128
3 129 21 130
3 129 130 131
3 132 21 133
3 134 7 135
3 136 135 21
3 134 135 136
3 137 22 138
3 23 139 141
3 139 22 140
3 139 140 141
3 23 8 22
3 23 24 8
3 25 24 23
3 25 9 24
3 142 26 143
3 27 144 146
3 144 26 145
3 144 145 146
3 27 10 26
3 27 28 10
3 29 28 27
3 29 147 149
3 149 148 28
3 147 148 149
3 29 150 152
3 150 30 151
3 150 151 152
3 31 30 29
3 31 11 30
3 153 12 154
3 157 156 12
3 155 156 157
3 158 4 159
3 160 4 161
3 163 162 4
3 32 164 165
3 32 166 168
3 166 1 167
3 166 167 168
3 14 169 170
3 172 171 14
3 33 173 174
3 33 175 177
3 175 2 176
3 175 176 177
3 33 34 2
3 35 34 33
3 35 178 180
3 180 179 34
3 178 179 180
3 16 35 5
3 36 35 16
3 36 181 183
3 183 182 35
3 181 182 183
3 36 184 185
3 187 186 36
3 188 3 189
3 190 37 191
3 192 191 3
3 190 191 192
3 193 37 194
3 196 195 37
3 197 13 198
3 38 199 201
3 199 13 200
3 199 200 201
3 38 0 13
3 203 202 4
3 19 204 205
3 207 206 19
3 34 20 2
3 208 20 209
3 210 209 34
3 208 209 210
3 212 211 20
3 21 213 214
3 39 215 217
3 217 216 21
3 215 216 217
3 39 218 219
3 39 220 222
3 220 38 221
3 220 221 222
3 40 38 39
3 40 0 38
3 41 223 224
3 41 225 227
3 225 7 226
3 225 226 227
3 22 228 230
3 228 41 229
3 228 229 230
3 42 41 22
3 42 7 41
3 42 40 7
3 43 40 42
3 43 0 40
3 43 17 0
3 44 17 43
3 44 6 17
3 24 44 8
3 45 44 24
3 45 6 44
3 45 231 233
3 233 232 6
3 231 232 233
3 46 234 236
3 236 235 45
3 234 235 236
3 46 237 238
3 239 25 240
3 47 241 243
3 241 25 242
3 241 242 243
3 47 9 25
3 26 244 246
3 244 47 245
3 244 245 246
3 48 47 26
3 48 9 47
3 48 46 9
3 247 46 248
3 249 248 48
3 247 248 249
3 251 250 46
3 28 252 254
3 254 253 10
3 252 253 254
3 256 255 28
3 30 257 258
3 49 259 261
3 261 260 30
3 259 260 261
3 49 262 263
3 49 264 266
3 264 32 265
3 264 265 266
3 50 32 49
3 50 1 32
3 37 31 3
3 51 31 37
3 51 11 31
3 267 51 268
3 52 269 271
3 269 51 270
3 269 270 271
3 52 11 51
3 52 50 11
3 53 50 52
3 53 1 50
3 53 18 1
3 54 18 53
3 54 272 274
3 274 273 18
3 272 273 274
3 275 54 276
3 277 276 12
3 275 276 277
3 278 54 279
3 282 281 54
3 280 281 282
