ply
format ascii 1.0
element vertex 279
property float x
property float y
property float z
element face 254
property list uchar int vertex_index
end_header
-10.263027 -107.35881 -15.650969
-7.999218 -106.1147 -24.059803
-17.109613 -106.913513 -17.189896
-15.242822 -103.856842 -26.901981
-9.56528 -107.296761 -19.466766
-20.702953 -104.746986 -17.388226
-6.163639 -103.758568 -28.577759
-12.734025 -106.810249 -11.964457
-13.454274 -107.674767 -16.489532
-16.800638 -106.678642 -12.253839
-20.550327 -105.068741 -12.124619
-10.917928 -104.792297 -7.721639
-8.58135 -105.929985 -12.431474
-13.02667 -107.273857 -20.950775
-11.748682 -105.712845 -25.693869
-9.976473 -102.927406 -30.092598
-8.635518 -106.941956 -16.234592
-9.903821 -107.422165 -17.374952
-5.435851 -105.055321 -25.057549
-4.364612 -103.812363 -27.320108
-7.093002 -105.059891 -26.420361
-14.145479 -106.134781 -9.6619
-14.842307 -106.869232 -11.964613
-16.202679 -106.099281 -9.740787
-21.186342 -103.427094 -6.931154
-19.993996 -104.929665 -9.650033
-12.266256 -103.99295 -5.330165
-13.146132 -105.186577 -7.548164
-12.050659 -105.940605 -9.810567
-7.542655 -104.756729 -10.43964
-15.264047 -107.450958 -16.779325
-13.257844 -107.615868 -18.689604
-15.225049 -107.237526 -19.235786
-14.173397 -106.05304 -24.002806
-13.527843 -105.004967 -26.296234
-10.993966 -104.483002 -27.927553
-12.667231 -103.631111 -28.562494
-7.121213 -106.52478 -20.450453
-18.988314 -106.001976 -17.321175
-17.102037 -106.518867 -19.665842
-3.445295 -102.405518 -29.3799
-11.415367 -107.23304 -14.056744
-11.701962 -107.611481 -15.990908
-13.240942 -107.420364 -14.217925
-15.140982 -107.328667 -14.343625
-17.056746 -106.950256 -14.702065
-18.136919 -105.722435 -9.793922
-18.689947 -106.093132 -12.332602
-18.928188 -106.19976 -14.818298
-20.645876 -105.116898 -14.834582
-7.395277 -102.61895 -5.918517
-10.999816 -102.451408 -2.995399
-9.843297 -103.422607 -5.57332
-9.772772 -105.48188 -10.130676
-10.686825 -106.50383 -12.158291
-9.515414 -106.814301 -14.224338
-11.54293 -107.660278 -18.011049
-11.19253 -107.419182 -20.299614
-10.467072 -106.877647 -22.657333
-14.798903 -106.793159 -21.595253
-12.402703 -106.657364 -23.318142
-9.912181 -106.062042 -25.004375
-9.086477 -104.9655 -27.226645
-8.035471 -103.541542 -29.374722
-6.717535 -105.585011 -24.558676
-5.860008 -105.491619 -23.895418
-7.141692 -106.021309 -23.396544
-15.832866 -105.676319 -8.540425
-15.174079 -106.117031 -9.701344
-14.804267 -105.694069 -8.500982
-21.435911 -103.615398 -8.270933
-21.937702 -102.824791 -6.976606
-14.304593 -105.219967 -7.444114
-13.810495 -104.676224 -6.265916
-14.804267 -105.694069 -8.500982
-13.645805 -105.660679 -8.605032
-14.304593 -105.219967 -7.444114
-6.916978 -104.044495 -9.463107
-6.33375 -104.221314 -10.581565
-14.385333 -104.430904 -26.599107
-14.778846 -105.063698 -25.358389
-15.636335 -104.489635 -25.661262
-8.343246 -106.910771 -19.95861
-7.530273 -106.699528 -19.385704
-8.752306 -107.085518 -18.893861
-9.138208 -107.06152 -20.59561
-7.916174 -106.67553 -21.087454
-8.343246 -106.910771 -19.95861
-19.788938 -105.123478 -18.609313
-18.931618 -105.750972 -18.575787
-19.845633 -105.374481 -17.3547
-5.637978 -102.905475 -29.658093
-4.278806 -102.22895 -30.059164
-4.804467 -103.082043 -28.978829
-18.747909 -105.069607 -8.421958
-17.827466 -105.361786 -8.499369
-8.05735 -102.179939 -4.547618
-6.886819 -101.723927 -4.666503
-12.128308 -102.617264 -2.792835
-11.575214 -101.826233 -1.586129
-9.814607 -104.509407 -7.909191
-9.277291 -103.824562 -6.835031
-10.380612 -104.107452 -6.647479
-10.34535 -105.137089 -8.926157
-9.242028 -104.854198 -9.113709
-9.814607 -104.509407 -7.909191
-8.029858 -106.036873 -13.536024
-7.472696 -105.48399 -12.551268
-9.048382 -106.372143 -13.327906
-8.49689 -106.479031 -14.432456
-8.029858 -106.036873 -13.536024
-15.69752 -106.390835 -21.824828
-15.95047 -106.656013 -20.630547
-16.849086 -106.253689 -20.860123
-8.506087 -102.311287 -30.815376
-7.535585 -102.618355 -30.456438
-9.005972 -103.234474 -29.73366
-8.287425 -106.908116 -17.277774
-7.561144 -106.551499 -16.604144
-8.921577 -107.14822 -17.847954
-8.287425 -106.908116 -17.277774
-9.269669 -107.182061 -16.804772
-9.734551 -107.359463 -18.420859
-8.752306 -107.085518 -18.893861
-8.921577 -107.14822 -17.847954
-20.523942 -104.502006 -18.713707
-21.331792 -104.039986 -17.591384
-4.5635 -104.842537 -24.361733
-5.860008 -105.491619 -23.895418
-4.030424 -104.299679 -25.464629
-4.5635 -104.842537 -24.361733
-4.900232 -104.433842 -26.188828
-3.494804 -103.6782 -26.595908
-4.030424 -104.299679 -25.464629
-20.590169 -104.17838 -8.290593
-19.676448 -104.673222 -8.350013
-20.272621 -103.921937 -6.990574
-20.839738 -104.366684 -9.630373
-20.590169 -104.17838 -8.290593
-21.435911 -103.615398 -8.270933
-21.117903 -104.436222 -10.867665
-20.272161 -104.999203 -10.887326
-20.839738 -104.366684 -9.630373
-21.291791 -104.481735 -12.296365
-21.117903 -104.436222 -10.867665
-13.370557 -104.07941 -5.156916
-12.761527 -103.388035 -3.960218
-12.706194 -104.589764 -6.439165
-13.370557 -104.07941 -5.156916
-13.810495 -104.676224 -6.265916
-6.953348 -104.897362 -11.555351
-6.33375 -104.221314 -10.581565
-8.062003 -105.343357 -11.435557
-7.472696 -105.48399 -12.551268
-6.953348 -104.897362 -11.555351
-15.101623 -105.587734 -24.211675
-15.384767 -106.020775 -23.028605
-13.85062 -105.529003 -25.14952
-15.101623 -105.587734 -24.211675
-14.778846 -105.063698 -25.358389
-6.322597 -106.205498 -19.780048
-7.530273 -106.699528 -19.385704
-5.824877 -105.938866 -20.902706
-6.322597 -106.205498 -19.780048
-6.702689 -106.226349 -21.59187
-5.824877 -105.938866 -20.902706
-6.702689 -106.226349 -21.59187
-7.916174 -106.67553 -21.087454
-8.355177 -106.470489 -22.892129
-7.141692 -106.021309 -23.396544
-20.815776 -103.176289 -5.701958
-20.272621 -103.921937 -6.990574
-21.593361 -102.608494 -5.544335
-20.815776 -103.176289 -5.701958
-21.937702 -102.824791 -6.976606
-21.593361 -102.608494 -5.544335
-17.98848 -106.009418 -19.74812
-18.045175 -106.260422 -18.493509
-18.931618 -105.750972 -18.575787
-16.849086 -106.253689 -20.860123
-17.98848 -106.009418 -19.74812
-19.788938 -105.123478 -18.609313
-20.523942 -104.502006 -18.713707
-16.427759 -103.869434 -25.862865
-15.636335 -104.489635 -25.661262
-2.965745 -103.005154 -27.677329
-3.494804 -103.6782 -26.595908
-2.506087 -102.301732 -28.707225
-2.965745 -103.005154 -27.677329
-3.904954 -103.108941 -28.350004
-2.001146 -101.502079 -29.742894
-2.506087 -102.301732 -28.707225
-2.771756 -101.424385 -30.437132
-2.001146 -101.502079 -29.742894
-2.771756 -101.424385 -30.437132
-4.278806 -102.22895 -30.059164
-16.860346 -105.550209 -8.472801
-15.832866 -105.676319 -8.540425
-17.169799 -105.910858 -9.767354
-16.860346 -105.550209 -8.472801
-17.827466 -105.361786 -8.499369
-19.065458 -105.32605 -9.721978
-18.747909 -105.069607 -8.421958
-19.676448 -104.673222 -8.350013
-21.339565 -104.505814 -13.651346
-20.598101 -105.09282 -13.479601
-21.291791 -104.481735 -12.296365
-21.425992 -104.378949 -14.910472
-21.339565 -104.505814 -13.651346
-21.454531 -104.193993 -16.187294
-20.674415 -104.931942 -16.111404
-21.425992 -104.378949 -14.910472
-21.331792 -104.039986 -17.591384
-21.454531 -104.193993 -16.187294
-6.265729 -102.139297 -6.065725
-6.886819 -101.723927 -4.666503
-6.84329 -102.975605 -7.202545
-6.265729 -102.139297 -6.065725
-10.406073 -101.544846 -1.734166
-11.575214 -101.826233 -1.586129
-9.85962 -102.096169 -3.08606
-10.406073 -101.544846 -1.734166
-11.633036 -103.222179 -4.162782
-12.128308 -102.617264 -2.792835
-12.761527 -103.388035 -3.960218
-9.28136 -102.581768 -4.37502
-9.85962 -102.096169 -3.08606
-10.421556 -102.937007 -4.284359
-8.619287 -103.020779 -5.745919
-8.05735 -102.179939 -4.547618
-9.28136 -102.581768 -4.37502
-8.053281 -103.422733 -7.00763
-8.619287 -103.020779 -5.745919
-9.277291 -103.824562 -6.835031
-6.84329 -102.975605 -7.202545
-8.053281 -103.422733 -7.00763
-8.12697 -104.491623 -9.268192
-6.916978 -104.044495 -9.463107
-8.657713 -105.119304 -10.285158
-8.12697 -104.491623 -9.268192
-9.242028 -104.854198 -9.113709
-8.056942 -106.542858 -15.437583
-7.561144 -106.551499 -16.604144
-9.075466 -106.878129 -15.229465
-8.056942 -106.542858 -15.437583
-8.49689 -106.479031 -14.432456
-9.951833 -107.122731 -21.012034
-9.138208 -107.06152 -20.59561
-10.378905 -107.357972 -19.88319
-9.589104 -106.851963 -22.190894
-9.951833 -107.122731 -21.012034
-10.829801 -107.148415 -21.478473
-9.233145 -106.496173 -23.358568
-8.355177 -106.470489 -22.892129
-9.589104 -106.851963 -22.190894
-14.48615 -106.4231 -22.799029
-15.69752 -106.390835 -21.824828
-15.384767 -106.020775 -23.028605
-6.573894 -102.796963 -30.056575
-5.637978 -102.905475 -29.658093
-7.099555 -103.650055 -28.97624
-6.573894 -102.796963 -30.056575
-7.535585 -102.618355 -30.456438
-16.143126 -103.141815 -27.006769
-16.427759 -103.869434 -25.862865
-14.831542 -103.101925 -27.992394
-16.143126 -103.141815 -27.006769
-13.543746 -102.989059 -28.822651
-13.955026 -103.743977 -27.732238
-14.831542 -103.101925 -27.992394
-12.135603 -102.763981 -29.66357
-13.543746 -102.989059 -28.822651
-10.790224 -102.412128 -30.428621
-11.321852 -103.279258 -29.327546
-12.135603 -102.763981 -29.66357
-9.367022 -101.944389 -31.158975
-10.790224 -102.412128 -30.428621
-8.506087 -102.311287 -30.815376
-9.367022 -101.944389 -31.158975
3 0 17 16
3 1 64 66
3 64 18 65
3 64 65 66
3 1 20 18
3 67 23 68
3 69 68 21
3 67 68 69
3 71 70 24
3 72 27 73
3 74 21 75
3 76 75 27
3 74 75 76
3 77 29 78
3 2 32 30
3 3 79 81
3 79 34 80
3 79 80 81
3 3 36 34
3 4 82 84
3 82 37 83
3 82 83 84
3 4 85 87
3 87 86 37
3 85 86 87
3 5 88 90
3 90 89 38
3 88 89 90
3 6 40 19
3 6 91 93
3 93 92 40
3 91 92 93
3 7 43 41
3 9 44 22
3 9 45 44
3 94 46 95
3 10 47 25
3 10 48 47
3 10 49 48
3 96 50 97
3 98 51 99
3 11 52 26
3 11 100 102
3 102 101 52
3 100 101 102
3 11 103 105
3 103 53 104
3 103 104 105
3 7 54 28
3 7 41 54
3 12 106 107
3 12 108 110
3 108 55 109
3 108 109 110
3 8 56 42
3 13 57 31
3 13 58 57
3 111 59 112
3 113 112 39
3 111 112 113
3 14 60 33
3 14 61 60
3 14 62 61
3 15 63 35
3 15 114 116
3 116 115 63
3 114 115 116
3 16 117 118
3 17 119 121
3 121 120 16
3 119 120 121
3 17 122 124
3 122 4 123
3 122 123 124
3 126 125 5
3 18 127 128
3 18 129 130
3 18 131 133
3 131 19 132
3 131 132 133
3 20 19 18
3 20 6 19
3 21 22 7
3 23 22 21
3 23 9 22
3 24 134 136
3 134 25 135
3 134 135 136
3 137 25 138
3 139 138 24
3 137 138 139
3 140 10 141
3 142 141 25
3 140 141 142
3 144 143 10
3 145 26 146
3 27 147 149
3 147 26 148
3 147 148 149
3 27 11 26
3 27 28 11
3 21 28 27
3 21 7 28
3 29 150 151
3 29 152 154
3 152 12 153
3 152 153 154
3 30 31 8
3 32 31 30
3 32 13 31
3 155 33 156
3 34 157 159
3 157 33 158
3 157 158 159
3 34 14 33
3 34 35 14
3 36 35 34
3 36 15 35
3 37 160 161
3 37 162 163
3 37 164 165
3 167 166 37
3 168 1 169
3 170 24 171
3 172 24 173
3 175 174 24
3 38 39 2
3 176 39 177
3 178 177 38
3 176 177 178
3 180 179 39
3 182 181 5
3 183 3 184
3 19 185 186
3 40 187 189
3 189 188 19
3 187 188 189
3 40 190 191
3 40 192 193
3 195 194 40
3 41 42 0
3 43 42 41
3 43 8 42
3 22 43 7
3 44 43 22
3 44 8 43
3 44 30 8
3 45 30 44
3 45 2 30
3 196 23 197
3 46 198 200
3 198 23 199
3 198 199 200
3 46 9 23
3 25 201 203
3 201 46 202
3 201 202 203
3 47 46 25
3 47 9 46
3 47 45 9
3 48 45 47
3 48 2 45
3 48 38 2
3 49 38 48
3 49 5 38
3 204 49 205
3 206 205 10
3 204 205 206
3 207 49 208
3 209 5 210
3 211 210 49
3 209 210 211
3 213 212 5
3 50 214 215
3 50 216 217
3 51 218 219
3 51 220 221
3 26 222 224
3 222 51 223
3 222 223 224
3 52 51 26
3 52 225 227
3 227 226 51
3 225 226 227
3 52 228 230
3 228 50 229
3 228 229 230
3 231 50 232
3 233 232 52
3 231 232 233
3 235 234 50
3 236 29 237
3 53 238 240
3 238 29 239
3 238 239 240
3 53 12 29
3 28 53 11
3 54 53 28
3 54 12 53
3 54 55 12
3 41 55 54
3 41 0 55
3 241 16 242
3 55 243 245
3 243 16 244
3 243 244 245
3 55 0 16
3 42 17 0
3 56 17 42
3 56 4 17
3 31 56 8
3 57 56 31
3 57 4 56
3 57 246 248
3 248 247 4
3 246 247 248
3 58 249 251
3 251 250 57
3 249 250 251
3 58 252 254
3 252 1 253
3 252 253 254
3 39 32 2
3 59 32 39
3 59 13 32
3 33 255 257
3 255 59 256
3 255 256 257
3 60 59 33
3 60 13 59
3 60 58 13
3 61 58 60
3 61 1 58
3 61 20 1
3 62 20 61
3 62 6 20
3 35 62 14
3 63 62 35
3 63 6 62
3 63 258 260
3 260 259 6
3 258 259 260
3 262 261 63
3 263 3 264
3 265 3 266
3 267 36 268
3 269 268 3
3 267 268 269
3 270 36 271
3 272 15 273
3 274 273 36
3 272 273 274
3 275 15 276
3 278 277 15
