ply
format ascii 1.0
element vertex 209
property float x
property float y
property float z
element face 181
property list uchar int vertex_index
end_header
13.616772 63.721127 -29.478897
15.361182 75.839066 -29.286892
10.028214 59.508213 -36.381958
14.57956 70.055809 -29.649315
12.749164 74.516243 -32.957417
12.236762 68.293198 -33.024551
9.951637 65.919197 -36.484711
11.725621 61.951031 -32.902924
12.78918 57.141319 -29.257292
15.433653 80.909531 -28.460951
14.164993 66.81144 -29.455788
13.418033 69.296349 -31.311409
13.066776 66.201965 -31.202488
12.013418 65.333847 -32.907845
12.64622 63.140968 -31.237436
12.331841 59.79958 -31.124735
13.137113 60.561111 -29.457836
16.360886 67.88929 -26.195862
14.044511 80.848686 -30.621195
14.215122 78.030449 -30.870472
9.939366 62.668015 -36.457111
8.904675 64.59153 -38.128277
9.059925 61.293629 -38.092312
15.04605 73.028862 -29.51067
14.100317 75.130081 -31.093521
13.834109 72.373344 -31.215866
12.49575 71.512321 -33.075539
10.985349 64.161018 -34.621441
10.821195 60.839413 -34.704174
10.80908 57.405235 -34.716103
11.515157 58.637833 -32.950748
15.198135 83.342979 -27.740131
16.640347 80.905182 -26.352268
16.57415 75.973747 -27.417395
16.178301 73.261719 -27.834562
15.794732 70.544006 -27.878056
15.292986 67.633896 -27.826452
14.669551 64.575035 -27.821325
14.066859 61.309525 -27.727379
13.91608 83.272888 -29.924295
12.836223 77.438416 -32.819332
13.513748 57.972019 -27.653648
14.788152 76.934758 -30.078682
14.824143 78.311386 -29.937873
15.397174 77.215694 -29.146083
9.662976 58.74579 -37.236553
9.178832 59.638498 -38.09173
9.544069 60.400921 -37.237135
10.085796 57.959961 -36.442669
9.662976 58.74579 -37.236553
11.739307 69.436207 -33.919201
11.8688 71.045769 -33.944694
12.366256 69.90276 -33.050045
11.670019 67.833119 -33.882338
11.739307 69.436207 -33.919201
12.436438 56.824347 -30.196649
12.207768 58.153477 -31.130371
12.56051 58.47045 -30.191014
12.634218 55.627859 -29.337972
12.436438 56.824347 -30.196649
17.198886 80.815449 -25.246029
16.483611 82.11911 -25.929823
17.13183 76.063934 -26.49318
16.619563 77.257912 -27.226559
16.576337 71.988361 -26.958702
16.809974 73.376041 -26.859344
16.384552 70.629505 -26.980449
15.986517 71.902862 -27.856309
16.576337 71.988361 -26.958702
15.518363 66.247268 -26.945894
15.826936 67.761593 -27.011157
16.052313 66.374966 -26.130599
15.206646 64.717838 -26.943331
14.981269 66.104466 -27.823889
15.518363 66.247268 -26.945894
14.868174 63.266071 -26.933333
15.206646 64.717838 -26.943331
13.28419 81.886727 -31.364494
13.414422 80.504109 -31.578529
9.377267 66.894241 -37.328369
10.018496 67.56147 -36.440832
8.296125 65.38163 -38.938341
8.401798 63.800593 -38.94113
10.860312 55.889404 -34.73238
11.12772 56.404457 -33.848284
13.942706 58.417393 -26.859371
13.790304 59.640772 -27.690514
14.219262 60.086146 -26.896237
16.927073 67.87994 -25.303846
16.66763 69.302147 -26.139352
16.57115 66.597072 -25.373126
16.927073 67.87994 -25.303846
16.052313 66.374966 -26.130599
16.57115 66.597072 -25.373126
14.738838 79.720505 -29.813235
14.739082 80.879109 -29.541073
15.433409 79.750927 -28.733113
14.129817 79.439568 -30.745833
14.738838 79.720505 -29.813235
14.824143 78.311386 -29.937873
13.499727 79.09499 -31.703167
13.414422 80.504109 -31.578529
14.129817 79.439568 -30.745833
12.077084 75.554558 -33.838475
12.044788 74.010342 -33.897953
8.479423 62.151642 -38.923147
8.401798 63.800593 -38.94113
8.9823 62.94258 -38.110294
8.640526 60.501734 -38.917251
8.479423 62.151642 -38.923147
8.640526 60.501734 -38.917251
9.178832 59.638498 -38.09173
11.918081 72.508381 -33.957014
12.044788 74.010342 -33.897953
12.622457 73.014282 -33.016478
11.918081 72.508381 -33.957014
11.8688 71.045769 -33.944694
10.527456 66.646118 -35.612417
10.018496 67.56147 -36.440832
11.558346 66.353443 -33.823985
11.670019 67.833119 -33.882338
12.12509 66.813523 -32.966198
11.044312 65.767029 -34.680782
11.558346 66.353443 -33.823985
11.499384 64.747433 -33.764643
10.468493 65.040108 -35.553076
10.527456 66.646118 -35.612417
11.044312 65.767029 -34.680782
11.480759 57.020756 -32.965606
11.12772 56.404457 -33.848284
11.162119 58.021534 -33.833425
11.799426 57.572603 -32.043377
11.923499 59.218706 -32.037741
12.207768 58.153477 -31.130371
11.480759 57.020756 -32.965606
11.799426 57.572603 -32.043377
15.762505 83.338009 -26.623755
14.961583 84.554192 -27.240526
15.919241 82.12408 -27.0462
15.762505 83.338009 -26.623755
16.483611 82.11911 -25.929823
17.249765 79.62621 -25.641268
17.198886 80.815449 -25.246029
16.652662 79.723629 -26.693995
17.249765 79.62621 -25.641268
16.049315 79.725803 -27.748337
16.037 80.907356 -27.40661
16.652662 79.723629 -26.693995
15.433409 79.750927 -28.733113
16.049315 79.725803 -27.748337
16.003657 77.283035 -28.211334
16.619563 77.257912 -27.226559
15.967666 75.906407 -28.352144
15.397174 77.215694 -29.146083
16.003657 77.283035 -28.211334
17.007898 74.732056 -26.65076
17.13183 76.063934 -26.49318
16.376226 74.617733 -27.625978
17.007898 74.732056 -26.65076
16.809974 73.376041 -26.859344
16.077809 69.216648 -27.036959
16.384552 70.629505 -26.980449
16.66763 69.302147 -26.139352
14.566827 61.633316 -26.88636
14.368205 62.94228 -27.774352
14.868174 63.266071 -26.933333
14.219262 60.086146 -26.896237
14.566827 61.633316 -26.88636
14.34899 84.555946 -28.409556
14.961583 84.554192 -27.240526
13.707963 84.5209 -29.501638
14.34899 84.555946 -28.409556
14.557108 83.307933 -28.832213
13.057903 84.354042 -30.645168
13.707963 84.5209 -29.501638
13.219974 83.098827 -31.016044
13.980296 82.060787 -30.272745
13.28419 81.886727 -31.364494
13.057903 84.354042 -30.645168
13.219974 83.098827 -31.016044
12.810278 78.798974 -32.677597
13.499727 79.09499 -31.703167
13.525672 77.734432 -31.844902
12.120614 77.015645 -33.769432
12.792694 75.977329 -32.888374
12.077084 75.554558 -33.838475
12.118615 78.510411 -33.612888
12.120614 77.015645 -33.769432
12.810278 78.798974 -32.677597
12.118615 78.510411 -33.612888
8.853786 66.230408 -38.150152
9.377267 66.894241 -37.328369
9.428156 65.255364 -37.306494
8.853786 66.230408 -38.150152
8.296125 65.38163 -38.938341
10.476229 56.908472 -35.609741
10.085796 57.959961 -36.442669
10.418647 58.456724 -35.549031
10.476229 56.908472 -35.609741
10.860312 55.889404 -34.73238
13.654891 56.66359 -26.756425
13.942706 58.417393 -26.859371
13.318637 56.398302 -27.595205
13.654891 56.66359 -26.756425
12.956353 55.982952 -28.397027
13.151464 57.556669 -28.45547
13.318637 56.398302 -27.595205
12.634218 55.627859 -29.337972
12.956353 55.982952 -28.397027
3 0 12 10
3 0 14 12
3 0 16 14
3 1 42 44
3 42 19 43
3 42 43 44
3 2 22 20
3 2 45 47
3 47 46 22
3 45 46 47
3 2 48 49
3 3 25 23
3 5 26 11
3 5 50 52
3 52 51 26
3 50 51 52
3 5 53 54
3 7 27 13
3 7 28 27
3 7 30 28
3 8 55 57
3 57 56 15
3 55 56 57
3 8 58 59
3 60 32 61
3 62 33 63
3 64 34 65
3 66 35 67
3 68 67 34
3 66 67 68
3 69 36 70
3 71 70 17
3 69 70 71
3 72 37 73
3 74 73 36
3 72 73 74
3 76 75 37
3 9 39 31
3 78 77 18
3 4 40 24
3 6 79 80
3 82 81 21
3 84 83 29
3 85 41 86
3 87 86 38
3 85 86 87
3 10 11 3
3 12 11 10
3 12 5 11
3 12 13 5
3 14 13 12
3 14 7 13
3 14 15 7
3 16 15 14
3 16 8 15
3 88 17 89
3 90 17 91
3 93 92 17
3 94 18 95
3 96 95 9
3 94 95 96
3 19 97 99
3 97 18 98
3 97 98 99
3 19 100 102
3 102 101 18
3 100 101 102
3 104 103 4
3 20 21 6
3 22 21 20
3 22 105 107
3 107 106 21
3 105 106 107
3 22 108 109
3 111 110 22
3 23 24 1
3 25 24 23
3 25 4 24
3 11 25 3
3 26 25 11
3 26 4 25
3 26 112 114
3 114 113 4
3 112 113 114
3 116 115 26
3 117 6 118
3 13 119 121
3 121 120 5
3 119 120 121
3 27 122 124
3 124 123 13
3 122 123 124
3 27 125 127
3 125 6 126
3 125 126 127
3 27 20 6
3 28 20 27
3 28 2 20
3 28 29 2
3 30 29 28
3 30 128 130
3 130 129 29
3 128 129 130
3 15 30 7
3 131 30 132
3 133 132 15
3 131 132 133
3 135 134 30
3 136 31 137
3 32 138 140
3 138 31 139
3 138 139 140
3 32 9 31
3 141 32 142
3 143 32 144
3 145 9 146
3 147 146 32
3 145 146 147
3 149 148 9
3 33 150 151
3 33 152 154
3 152 1 153
3 152 153 154
3 155 33 156
3 34 157 159
3 157 33 158
3 157 158 159
3 34 1 33
3 34 23 1
3 35 23 34
3 35 3 23
3 17 160 162
3 160 35 161
3 160 161 162
3 36 35 17
3 36 3 35
3 36 10 3
3 37 10 36
3 37 0 10
3 37 38 0
3 163 38 164
3 165 164 37
3 163 164 165
3 167 166 38
3 31 168 169
3 39 170 172
3 172 171 31
3 170 171 172
3 39 173 174
3 18 39 9
3 175 39 176
3 177 176 18
3 175 176 177
3 179 178 39
3 24 19 1
3 40 19 24
3 40 180 182
3 182 181 19
3 180 181 182
3 183 40 184
3 185 184 4
3 183 184 185
3 186 40 187
3 189 188 40
3 21 190 192
3 192 191 6
3 190 191 192
3 194 193 21
3 29 195 197
3 197 196 2
3 195 196 197
3 199 198 29
3 38 16 0
3 41 16 38
3 41 8 16
3 200 41 201
3 202 41 203
3 204 8 205
3 206 205 41
3 204 205 206
3 208 207 8
