ply
format ascii 1.0
element vertex 345
property float x
property float y
property float z
element face 360
property list uchar int vertex_index
end_header
-5.613364 29.445332 -65.26532
-18.978903 31.235666 -55.964214
-12.573693 32.623173 -62.722458
-20.395658 28.423046 -65.288147
-12.739565 26.946716 -70.018173
-26.437347 25.807159 -56.593014
-9.004798 31.590166 -64.582909
-12.680813 30.251247 -66.763519
-8.919678 28.421505 -68.008133
-8.889956 24.448641 -70.466385
-5.532343 25.623814 -67.884689
-24.901787 26.412086 -51.858982
-22.619364 28.788076 -56.704132
-20.777428 25.31465 -68.741577
-24.44957 25.215597 -65.214546
-15.863613 32.509529 -59.865494
-19.703669 30.309891 -61.035988
-16.276468 30.807854 -64.501144
-16.513315 28.152 -68.402946
-16.713011 24.523634 -71.052628
-12.681582 22.662584 -72.072296
-12.458892 34.373253 -58.26487
-9.267519 34.117668 -60.625797
-5.706524 32.66906 -62.033184
-26.389599 23.446167 -46.585667
-28.542383 23.231081 -51.411133
-23.640783 27.622568 -61.34885
-7.352966 30.672647 -65.084328
-8.943569 29.970074 -66.526947
-7.186428 29.008818 -66.648842
-7.218365 27.17724 -68.096611
-5.5672 27.562731 -66.713638
-20.237146 30.276564 -53.75568
-21.963499 29.052063 -54.040504
-20.753042 30.070211 -56.497902
-14.305949 32.703053 -61.365078
-16.169575 31.733356 -62.217945
-14.411837 31.782902 -63.637661
-12.583318 28.692995 -68.550491
-14.509259 29.236872 -67.777687
-14.554895 27.679468 -69.364845
-16.588095 26.495237 -69.866791
-14.664906 25.786995 -70.714844
-12.762739 24.88903 -71.222557
-7.238864 23.039619 -70.159256
-9.054275 22.265598 -71.293602
-13.98726 34.11198 -56.655563
-9.220572 35.221821 -58.588303
-7.5314 34.965149 -59.390568
-7.453078 33.576668 -61.430126
-5.860105 34.298153 -60.150463
-25.653883 26.275723 -54.36116
-26.700317 24.914463 -51.749317
-27.479725 24.688931 -54.027073
-28.275146 24.120434 -56.292229
-19.95941 29.574038 -63.234303
-21.681076 29.032627 -61.324738
-22.030729 28.145332 -63.526058
-26.09791 24.82729 -63.032444
-27.88802 22.89959 -62.784714
-10.902794 32.170929 -63.934532
-12.658879 31.53684 -64.807098
-10.763557 30.917862 -65.82135
-10.74777 29.439669 -67.591156
-10.875863 27.769714 -69.153633
-10.822744 25.840139 -70.425613
-9.025895 26.606947 -69.386292
-7.291544 25.264931 -69.272079
-5.583963 23.604103 -68.831749
-23.992796 26.434523 -49.266933
-23.155521 27.735691 -51.623295
-23.757341 27.741024 -54.203449
-24.476732 27.408251 -56.623264
-20.49354 27.056665 -67.222649
-22.371431 26.940001 -65.427238
-22.725697 25.414749 -67.030914
-17.565969 31.96435 -58.008965
-19.390017 30.850161 -58.604221
-17.876892 31.420053 -60.425117
-17.992445 30.70216 -62.93919
-18.275803 29.677982 -65.117088
-14.553565 30.61414 -65.822937
-16.411142 29.593161 -66.607941
-18.365227 28.499937 -67.005722
-18.567389 26.958275 -68.649895
-18.786346 25.080633 -70.018089
-12.8408 20.125566 -72.656624
-10.803935 23.755224 -71.386749
-10.85291 21.289162 -72.113335
-17.137104 32.436069 -55.50111
-15.752689 33.057411 -57.290756
-14.060684 33.48555 -59.088245
-12.59411 33.488411 -60.651485
-10.776276 35.353924 -57.327274
-10.947515 34.379139 -59.522717
-10.877607 33.371216 -61.723644
-9.188635 32.93042 -62.644218
-7.342142 32.189598 -63.275566
-5.643952 31.074911 -63.729546
-3.984968 29.878252 -63.691528
-4.028709 27.951927 -65.179375
-3.932946 25.998453 -66.306038
-28.065968 21.849871 -46.215202
-25.762539 24.970205 -49.233505
-27.560192 23.405191 -49.079578
-21.199478 29.686329 -59.019997
-23.251936 28.283726 -58.932568
-25.237129 26.744162 -58.899155
-24.131124 26.555477 -63.361824
-25.564991 26.056959 -61.150555
-27.000448 25.178835 -58.909504
-6.472523 21.041407 -70.175365
-7.279724 21.860936 -70.487274
-6.431664 22.22009 -69.847347
-6.806372 35.401838 -58.805537
-7.64054 35.615474 -58.354885
-5.970724 35.06834 -59.185484
-6.695752 34.631651 -59.770516
-6.806372 35.401838 -58.805537
-28.065424 22.07273 -63.543602
-27.122999 23.095579 -63.864544
-28.885801 21.746508 -62.393919
-28.065424 22.07273 -63.543602
-22.219322 28.429426 -51.4415
-22.695358 27.756976 -50.262514
-17.723618 23.717484 -71.114148
-18.760285 23.995983 -70.596878
-17.749679 24.802134 -70.535359
-16.765217 23.403643 -71.499085
-17.723618 23.717484 -71.114148
-13.677868 21.998278 -72.273087
-13.725992 23.136279 -71.921444
-12.761191 21.394075 -72.36446
-13.757477 20.729768 -72.56525
-13.677868 21.998278 -72.273087
-9.929537 20.605174 -71.934143
-9.953592 21.77738 -71.703469
-9.030219 21.093392 -71.524277
-10.878794 20.113018 -72.29126
-9.929537 20.605174 -71.934143
-16.252382 33.03705 -55.061105
-16.916078 32.628517 -54.119433
-15.560175 33.347721 -55.955928
-16.444896 32.74674 -56.395933
-16.252382 33.03705 -55.061105
-9.999845 35.887878 -56.797463
-10.750553 35.848532 -56.116602
-3.291311 30.161644 -62.916037
-4.038312 30.790987 -62.92769
-3.262734 27.072729 -64.968357
-3.329035 28.151364 -64.40538
-3.214853 26.095992 -65.531689
-3.980828 26.97519 -65.742706
-3.262734 27.072729 -64.968357
-26.656019 22.547151 -45.160376
-25.837972 23.344823 -45.315049
-27.227784 22.648019 -46.400435
-27.494204 21.749002 -44.975144
-26.656019 22.547151 -45.160376
-28.909201 22.468508 -49.972732
-28.418105 22.555563 -48.806955
-28.051288 23.318136 -50.245356
-29.386859 22.37733 -51.169562
-28.909201 22.468508 -49.972732
-26.583058 25.093733 -60.972115
-25.83145 25.442124 -62.091499
-26.849518 24.478898 -61.913059
-27.300787 24.654671 -59.851589
-26.282719 25.617897 -60.030029
-26.583058 25.093733 -60.972115
-27.950032 24.240153 -58.655163
-27.300787 24.654671 -59.851589
-21.100322 29.664313 -53.898092
-21.623311 29.087612 -52.650104
-20.760134 29.699863 -52.507692
-21.759152 24.4387 -68.674747
-20.804458 24.304713 -69.390934
-14.717654 24.698484 -71.242718
-15.741707 24.066804 -71.41161
-15.688959 25.155315 -70.883736
-13.766571 24.249502 -71.496574
-14.717654 24.698484 -71.242718
-13.713822 25.338013 -70.9687
-12.722161 23.775807 -71.647426
-13.725992 23.136279 -71.921444
-13.766571 24.249502 -71.496574
-8.187429 21.473925 -71.054447
-8.14657 22.652608 -70.726429
-7.279724 21.860936 -70.487274
-9.030219 21.093392 -71.524277
-8.187429 21.473925 -71.054447
-13.864034 34.437014 -55.395765
-14.67746 33.875006 -55.638332
-13.114482 34.680401 -56.211205
-13.864034 34.437014 -55.395765
-12.350299 34.811037 -57.015858
-13.223076 34.242616 -57.460217
-13.114482 34.680401 -56.211205
-8.485126 35.74381 -57.953753
-9.221993 35.821827 -57.427977
-8.375986 35.093485 -58.989435
-8.485126 35.74381 -57.953753
-7.64054 35.615474 -58.354885
-25.53057 24.194354 -46.624396
-25.837972 23.344823 -45.315049
-28.368697 23.840613 -53.849882
-28.900026 23.111688 -52.541912
-28.011054 23.960006 -52.719103
-28.766407 23.556365 -54.98246
-28.368697 23.840613 -53.849882
-27.877435 24.404682 -55.159651
-29.204921 23.146554 -56.006562
-28.766407 23.556365 -54.98246
-26.227944 24.059429 -63.988409
-25.27374 25.021444 -64.123495
-25.403773 24.253582 -65.07946
-26.992965 23.86344 -62.908579
-26.227944 24.059429 -63.988409
-27.122999 23.095579 -63.864544
-27.744573 23.515048 -61.789194
-26.849518 24.478898 -61.913059
-26.992965 23.86344 -62.908579
-28.676428 22.472172 -61.607185
-27.744573 23.515048 -61.789194
-28.676428 22.472172 -61.607185
-28.885801 21.746508 -62.393919
-5.604213 22.502331 -69.183594
-6.431664 22.22009 -69.847347
-6.411414 23.321861 -69.495503
-23.113996 27.106392 -49.084333
-23.48591 26.382362 -47.862054
-23.574158 27.085107 -50.445114
-23.113996 27.106392 -49.084333
-22.695358 27.756976 -50.262514
-22.55951 28.393877 -52.831899
-22.219322 28.429426 -51.4415
-21.623311 29.087612 -52.650104
-22.733286 24.48875 -67.819416
-21.751562 25.3647 -67.886246
-21.759152 24.4387 -68.674747
-23.669747 24.447288 -66.995396
-22.733286 24.48875 -67.819416
-24.531683 24.347713 -66.087211
-23.587634 25.315173 -66.12273
-23.669747 24.447288 -66.995396
-25.403773 24.253582 -65.07946
-24.531683 24.347713 -66.087211
-19.808917 24.187705 -70.02919
-20.804458 24.304713 -69.390934
-19.781887 25.197641 -69.379833
-19.782856 23.103055 -70.607979
-19.808917 24.187705 -70.02919
-18.760285 23.995983 -70.596878
-16.765217 23.403643 -71.499085
-15.741707 24.066804 -71.41161
-13.798997 19.453482 -72.762974
-13.757477 20.729768 -72.56525
-12.795417 18.85021 -72.758881
-13.798997 19.453482 -72.762974
-11.872739 19.53122 -72.562905
-11.846855 20.707364 -72.38498
-10.878794 20.113018 -72.29126
-12.795417 18.85021 -72.758881
-11.872739 19.53122 -72.562905
-19.868426 30.394495 -52.419473
-20.760134 29.699863 -52.507692
-19.337001 30.913362 -53.544565
-19.868426 30.394495 -52.419473
-18.707879 31.392913 -54.648832
-19.608024 30.756115 -54.859947
-19.337001 30.913362 -53.544565
-17.78698 31.993115 -54.41728
-16.916078 32.628517 -54.119433
-18.058003 31.835867 -55.732662
-18.707879 31.392913 -54.648832
-17.78698 31.993115 -54.41728
-14.869974 33.584696 -56.97316
-15.560175 33.347721 -55.955928
-14.67746 33.875006 -55.638332
-11.50899 35.301372 -56.54706
-10.750553 35.848532 -56.116602
-11.617584 34.863588 -57.796072
-12.350299 34.811037 -57.015858
-11.50899 35.301372 -56.54706
-9.998424 35.287872 -57.957789
-9.999845 35.887878 -56.797463
-9.221993 35.821827 -57.427977
-5.139781 34.749321 -59.469786
-5.970724 35.06834 -59.185484
-5.095429 33.890856 -60.350898
-5.139781 34.749321 -59.469786
-5.018638 33.07631 -61.292259
-5.783314 33.483607 -61.091824
-5.095429 33.890856 -60.350898
-4.89909 32.186391 -62.098518
-5.018638 33.07631 -61.292259
-4.867805 31.389316 -62.9467
-5.675238 31.871986 -62.881365
-4.89909 32.186391 -62.098518
-4.81446 30.476582 -63.710537
-4.867805 31.389316 -62.9467
-4.038312 30.790987 -62.92769
-3.307164 29.114526 -63.661457
-3.291311 30.161644 -62.916037
-4.006838 28.91509 -64.435451
-3.307164 29.114526 -63.661457
-3.329035 28.151364 -64.40538
-3.266081 25.070954 -66.055477
-3.214853 26.095992 -65.531689
-4.007589 24.947116 -66.866878
-3.266081 25.070954 -66.055477
-4.807288 24.759797 -67.656204
-4.732645 25.811134 -67.095363
-4.007589 24.947116 -66.866878
-4.833098 23.749941 -68.129734
-5.558153 24.613958 -68.358219
-4.807288 24.759797 -67.656204
-4.840889 22.5931 -68.50954
-4.833098 23.749941 -68.129734
-5.604213 22.502331 -69.183594
-4.840889 22.5931 -68.50954
-28.336203 20.947382 -44.848222
-27.494204 21.749002 -44.975144
-28.955947 20.965443 -45.994658
-28.336203 20.947382 -44.848222
-24.332169 25.688532 -47.965029
-23.48591 26.382362 -47.862054
-25.21704 24.956373 -47.948315
-24.332169 25.688532 -47.965029
-24.877668 25.702364 -49.250219
-26.076069 24.208186 -47.909586
-25.53057 24.194354 -46.624396
-25.21704 24.956373 -47.948315
-28.670993 21.777903 -47.374767
-27.81308 22.627531 -47.64739
-28.418105 22.555563 -48.806955
-28.955947 20.965443 -45.994658
-28.670993 21.777903 -47.374767
-29.386859 22.37733 -51.169562
-28.900026 23.111688 -52.541912
-28.587381 23.710952 -57.346525
-27.637797 24.649634 -57.600866
-27.950032 24.240153 -58.655163
-29.204921 23.146554 -56.006562
-28.587381 23.710952 -57.346525
3 0 29 27
3 0 31 29
3 1 34 32
3 2 37 35
3 4 40 38
3 4 42 40
3 4 43 42
3 113 112 44
3 111 112 113
3 114 48 115
3 116 50 117
3 118 117 48
3 116 117 118
3 5 53 51
3 5 54 53
3 3 57 55
3 119 59 120
3 122 121 59
3 6 62 60
3 8 63 28
3 8 64 63
3 8 66 64
3 10 67 30
3 10 68 67
3 123 70 124
3 12 71 33
3 12 72 71
3 13 75 73
3 15 78 76
3 17 79 36
3 17 80 79
3 7 81 61
3 18 82 39
3 18 83 82
3 18 84 83
3 19 85 41
3 19 125 127
3 127 126 85
3 125 126 127
3 19 128 129
3 20 130 131
3 20 132 134
3 132 86 133
3 132 133 134
3 9 87 65
3 135 88 136
3 137 136 45
3 135 136 137
3 139 138 88
3 140 89 141
3 142 90 143
3 144 143 89
3 142 143 144
3 21 91 46
3 21 92 91
3 145 93 146
3 22 94 47
3 22 95 94
3 22 96 95
3 23 97 49
3 23 98 97
3 147 99 148
3 149 100 150
3 151 101 152
3 153 152 100
3 151 152 153
3 24 154 155
3 24 156 158
3 156 102 157
3 156 157 158
3 11 103 69
3 25 104 52
3 25 159 161
3 161 160 104
3 159 160 161
3 25 162 163
3 16 105 77
3 26 106 56
3 26 107 106
3 14 108 74
3 164 109 165
3 166 165 58
3 164 165 166
3 167 110 168
3 169 168 109
3 167 168 169
3 171 170 110
3 27 28 6
3 29 28 27
3 29 8 28
3 29 30 8
3 31 30 29
3 31 10 30
3 32 172 174
3 172 33 173
3 172 173 174
3 34 33 32
3 34 12 33
3 176 175 13
3 35 36 15
3 37 36 35
3 37 17 36
3 38 39 7
3 40 39 38
3 40 18 39
3 40 41 18
3 42 41 40
3 42 19 41
3 42 177 179
3 179 178 19
3 177 178 179
3 43 180 182
3 182 181 42
3 180 181 182
3 43 183 185
3 183 20 184
3 183 184 185
3 44 45 9
3 186 45 187
3 188 187 44
3 186 187 188
3 190 189 45
3 191 46 192
3 193 46 194
3 195 21 196
3 197 196 46
3 195 196 197
3 198 47 199
3 48 200 202
3 200 47 201
3 200 201 202
3 48 22 47
3 48 49 22
3 50 49 48
3 50 23 49
3 203 24 204
3 51 52 11
3 53 52 51
3 53 25 52
3 53 205 207
3 207 206 25
3 205 206 207
3 54 208 210
3 210 209 53
3 208 209 210
3 54 211 212
3 55 56 16
3 57 56 55
3 57 26 56
3 213 58 214
3 215 214 14
3 213 214 215
3 59 216 218
3 216 58 217
3 216 217 218
3 59 219 221
3 221 220 58
3 219 220 221
3 59 222 223
3 225 224 59
3 60 61 2
3 62 61 60
3 62 7 61
3 28 62 6
3 63 62 28
3 63 7 62
3 63 38 7
3 64 38 63
3 64 4 38
3 64 65 4
3 66 65 64
3 66 9 65
3 30 66 8
3 67 66 30
3 67 9 66
3 67 44 9
3 68 44 67
3 68 226 228
3 228 227 44
3 226 227 228
3 229 69 230
3 70 231 233
3 231 69 232
3 231 232 233
3 70 11 69
3 33 234 236
3 234 70 235
3 234 235 236
3 71 70 33
3 71 11 70
3 71 51 11
3 72 51 71
3 72 5 51
3 73 74 3
3 75 74 73
3 75 14 74
3 237 75 238
3 239 238 13
3 237 238 239
3 240 75 241
3 242 14 243
3 244 243 75
3 242 243 244
3 246 245 14
3 76 77 1
3 78 77 76
3 78 16 77
3 36 78 15
3 79 78 36
3 79 16 78
3 79 55 16
3 80 55 79
3 80 3 55
3 61 37 2
3 81 37 61
3 81 17 37
3 39 81 7
3 82 81 39
3 82 17 81
3 82 80 17
3 83 80 82
3 83 3 80
3 83 73 3
3 84 73 83
3 84 13 73
3 41 84 18
3 85 84 41
3 85 13 84
3 85 247 249
3 249 248 13
3 247 248 249
3 252 251 85
3 250 251 252
3 254 253 19
3 86 255 256
3 86 257 258
3 65 43 4
3 87 43 65
3 87 20 43
3 45 87 9
3 88 87 45
3 88 20 87
3 88 86 20
3 259 86 260
3 261 260 88
3 259 260 261
3 263 262 86
3 264 32 265
3 266 32 267
3 268 1 269
3 270 269 32
3 268 269 270
3 89 271 272
3 89 273 275
3 273 1 274
3 273 274 275
3 89 76 1
3 90 76 89
3 90 15 76
3 46 276 278
3 276 90 277
3 276 277 278
3 91 90 46
3 91 15 90
3 91 35 15
3 92 35 91
3 92 2 35
3 93 279 280
3 93 281 283
3 281 21 282
3 281 282 283
3 47 284 286
3 284 93 285
3 284 285 286
3 94 93 47
3 94 21 93
3 94 92 21
3 95 92 94
3 95 2 92
3 95 60 2
3 96 60 95
3 96 6 60
3 49 96 22
3 97 96 49
3 97 6 96
3 97 27 6
3 98 27 97
3 98 0 27
3 287 50 288
3 289 50 290
3 291 23 292
3 293 292 50
3 291 292 293
3 294 23 295
3 296 98 297
3 298 297 23
3 296 297 298
3 99 299 301
3 299 98 300
3 299 300 301
3 99 0 98
3 302 99 303
3 100 304 306
3 304 99 305
3 304 305 306
3 100 0 99
3 100 31 0
3 101 31 100
3 101 10 31
3 307 101 308
3 309 101 310
3 311 10 312
3 313 312 101
3 311 312 313
3 314 68 315
3 316 315 10
3 314 315 316
3 317 68 318
3 320 319 68
3 102 321 322
3 102 323 324
3 69 325 326
3 103 327 329
3 329 328 69
3 327 328 329
3 103 330 332
3 330 24 331
3 330 331 332
3 52 103 11
3 104 103 52
3 104 24 103
3 104 102 24
3 333 102 334
3 335 334 104
3 333 334 335
3 337 336 102
3 339 338 25
3 77 34 1
3 105 34 77
3 105 12 34
3 56 105 16
3 106 105 56
3 106 12 105
3 106 72 12
3 107 72 106
3 107 5 72
3 74 57 3
3 108 57 74
3 108 26 57
3 58 108 14
3 109 108 58
3 109 26 108
3 109 107 26
3 110 107 109
3 110 5 107
3 110 54 5
3 340 54 341
3 342 341 110
3 340 341 342
3 344 343 54
