ply
format ascii 1.0
element vertex 271
property float x
property float y
property float z
element face 244
property list uchar int vertex_index
end_header
-29.876299 -34.131741 56.108456
-30.449402 -25.322344 62.964272
-28.348089 -28.200466 69.758018
-29.182905 -37.098438 63.974663
-29.219492 -30.772476 47.589344
-27.289171 -23.501492 71.804977
-29.345491 -22.568254 69.416832
-29.794418 -27.127285 66.778038
-29.560789 -32.412601 51.76609
-29.844246 -35.648846 60.223473
-30.148619 -29.921597 59.612709
-29.903419 -28.067541 55.166107
-26.935791 -33.577995 69.82058
-28.834593 -32.671753 67.240555
-29.853804 -31.604109 63.752811
-28.947874 -20.173855 70.465843
-29.655348 -35.347607 52.160301
-29.748796 -33.385689 54.020523
-29.922941 -34.841213 58.151684
-29.863997 -36.965126 56.39793
-30.306301 -27.740734 61.324902
-30.28437 -26.88648 59.197083
-27.872368 -26.021009 70.874214
-26.6665 -26.359314 71.818321
-27.246344 -28.800772 70.883942
-26.402266 -31.296583 70.947701
-27.677036 -30.933332 69.84787
-27.975637 -33.387836 68.610741
-28.619127 -30.489262 68.57196
-30.207809 -26.466702 64.915527
-29.846704 -29.459387 65.286964
-30.175705 -28.542032 63.357944
-30.095839 -30.66877 61.746395
-29.101866 -30.103661 45.388626
-29.676985 -27.226225 52.877228
-30.49312 -23.274977 64.654541
-26.583904 -21.297421 72.470825
-27.910192 -20.816349 71.590996
-28.445555 -23.197994 70.723747
-28.852663 -25.577847 69.651245
-29.190262 -27.814709 68.316978
-29.630827 -24.858021 68.164406
-30.189201 -24.024054 66.408951
-29.370855 -31.630707 49.537815
-29.597763 -36.527077 62.145729
-29.996084 -32.002209 57.734886
-29.892525 -31.133078 55.751354
-30.079815 -29.000597 57.508373
-27.250443 -35.883148 68.645561
-28.297064 -35.526741 67.181747
-29.028313 -34.876801 65.691887
-29.342772 -30.031147 67.029175
-29.465322 -32.07983 65.58094
-29.534822 -34.347233 63.930462
-29.867197 -33.479427 62.062744
-30.003075 -32.852692 59.922474
-29.698479 -30.38282 53.444572
-29.488457 -29.508865 51.233082
-29.292578 -28.565872 49.102184
-29.129696 -27.678421 46.899349
-28.998661 -25.868069 42.866589
-29.812548 -33.758715 55.064489
-29.773333 -34.73013 54.213794
-29.837085 -35.103155 55.257761
-29.837085 -35.103155 55.257761
-29.830934 -36.519848 55.402498
-29.870148 -35.548434 56.253193
-30.464232 -25.010101 61.881815
-30.392681 -26.219296 61.06213
-30.377851 -26.531539 62.144587
-29.217197 -31.868248 46.7621
-29.27753 -32.284574 47.751272
-29.160679 -30.438068 46.488985
-29.158385 -31.53384 45.661741
-29.217197 -31.868248 46.7621
-28.932653 -38.484079 64.071503
-28.842843 -37.423861 64.839664
-30.60027 -21.765811 64.407367
-30.488495 -22.011659 65.370484
-28.114582 -19.31295 71.508763
-27.53384 -19.687838 71.95102
-27.73823 -18.184439 71.868786
-30.336536 -22.386198 66.247689
-30.097176 -22.900472 67.15807
-30.488495 -22.011659 65.370484
-30.341161 -23.649515 65.531746
-30.336536 -22.386198 66.247689
-29.521426 -33.37643 50.881361
-29.568706 -34.843933 51.078466
-29.608069 -33.880104 51.963195
-29.465822 -32.021654 50.651953
-29.426459 -32.985484 49.767224
-29.521426 -33.37643 50.881361
-29.739292 -37.13422 60.339493
-29.616051 -37.573336 61.300621
-29.721004 -36.087961 61.184601
-30.218632 -26.440112 58.10035
-30.345385 -25.275056 58.966766
-26.601952 -23.756847 72.169876
-26.249319 -22.654812 72.5028
-26.936538 -22.399456 72.137901
-25.925246 -26.521166 72.153568
-26.271861 -27.634532 71.818153
-26.251295 -33.674086 70.308472
-25.984533 -32.533379 70.872032
-26.669028 -32.437289 70.384141
-26.490856 -34.90641 69.751755
-26.251295 -33.674086 70.308472
-27.093117 -34.730571 69.23307
-26.648182 -36.058987 69.164245
-26.490856 -34.90641 69.751755
-29.469284 -27.963546 50.949643
-29.582721 -28.367545 52.055155
-29.563548 -26.822226 51.771715
-29.371344 -27.492049 49.884194
-29.390518 -29.037368 50.167633
-29.469284 -27.963546 50.949643
-29.120362 -26.110921 46.652538
-29.193741 -26.505083 47.710203
-29.070481 -25.723727 45.581934
-29.079815 -27.291227 45.828745
-29.120362 -26.110921 46.652538
-29.006759 -24.342368 42.598748
-29.014941 -24.687616 43.649651
-29.024315 -25.654515 41.844893
-29.006759 -24.342368 42.598748
-29.112305 -18.697303 70.34396
-28.633423 -18.991703 70.946186
-29.349578 -19.800939 69.771492
-29.112305 -18.697303 70.34396
-29.548386 -20.998139 69.246986
-29.146682 -21.371054 69.941338
-29.349578 -19.800939 69.771492
-29.675321 -22.172572 68.66201
-29.548386 -20.998139 69.246986
-29.72661 -35.711089 53.283683
-29.708241 -36.675556 52.368847
-29.702072 -34.366648 53.090412
-29.72661 -35.711089 53.283683
-29.773333 -34.73013 54.213794
-29.87613 -36.261711 58.297779
-29.836782 -36.665527 59.333674
-29.883593 -35.24503 59.187579
-29.846658 -37.323667 57.420902
-29.87613 -36.261711 58.297779
-29.893469 -35.90317 57.274807
-29.845063 -38.396889 56.620302
-29.846658 -37.323667 57.420902
-29.852673 -37.942369 55.503046
-29.845063 -38.396889 56.620302
-29.852673 -37.942369 55.503046
-29.830934 -36.519848 55.402498
-30.381715 -25.792168 59.998221
-30.295336 -27.313607 60.260993
-30.392681 -26.219296 61.06213
-30.345385 -25.275056 58.966766
-30.381715 -25.792168 59.998221
-26.561783 -28.855261 71.350964
-26.271861 -27.634532 71.818153
-26.956422 -27.580043 71.351132
-26.824305 -30.048677 70.915821
-26.139744 -30.103167 71.382844
-26.561783 -28.855261 71.350964
-29.125274 -31.205767 44.611023
-29.158385 -31.53384 45.661741
-29.074458 -29.657814 44.325435
-29.125274 -31.205767 44.611023
-29.804274 -26.171886 53.758065
-29.790202 -27.646883 54.021667
-29.91749 -26.592544 54.902504
-29.687078 -25.652781 52.635111
-29.804274 -26.171886 53.758065
-29.563548 -26.822226 51.771715
-29.687078 -25.652781 52.635111
-30.562401 -22.865963 63.59289
-30.540541 -23.889647 62.747755
-30.471261 -24.298661 63.809406
-30.562401 -22.865963 63.59289
-30.60027 -21.765811 64.407367
-26.870696 -19.928375 72.390934
-26.190142 -20.244523 72.695221
-27.247048 -21.056885 72.030911
-26.870696 -19.928375 72.390934
-27.53384 -19.687838 71.95102
-28.429033 -20.495102 71.02842
-28.114582 -19.31295 71.508763
-28.633423 -18.991703 70.946186
-29.817989 -23.317456 68.035797
-29.488159 -23.713138 68.790619
-29.675321 -22.172572 68.66201
-29.910014 -24.441038 67.286678
-29.817989 -23.317456 68.035797
-30.097176 -22.900472 67.15807
-29.64423 -36.331142 51.301878
-29.708241 -36.675556 52.368847
-29.64423 -36.331142 51.301878
-29.568706 -34.843933 51.078466
-29.353212 -32.71369 48.725508
-29.426459 -32.985484 49.767224
-29.295173 -31.201591 48.56358
-29.27753 -32.284574 47.751272
-29.353212 -32.71369 48.725508
-29.423012 -37.975468 62.266417
-29.215583 -38.261149 63.180884
-29.390334 -36.812758 63.060196
-29.423012 -37.975468 62.266417
-29.616051 -37.573336 61.300621
-29.739292 -37.13422 60.339493
-29.836782 -36.665527 59.333674
-30.116354 -27.49717 57.255994
-30.182092 -27.943538 58.352728
-30.218632 -26.440112 58.10035
-30.028156 -27.030642 56.084862
-29.991617 -28.534069 56.33724
-30.116354 -27.49717 57.255994
-29.91749 -26.592544 54.902504
-30.028156 -27.030642 56.084862
-30.464232 -25.010101 61.881815
-30.540541 -23.889647 62.747755
-25.828018 -21.606139 72.731323
-25.434255 -20.553241 72.955719
-26.190142 -20.244523 72.695221
-25.828018 -21.606139 72.731323
-26.249319 -22.654812 72.5028
-26.290617 -25.185758 72.176548
-26.601952 -23.756847 72.169876
-26.977835 -24.930403 71.811649
-26.290617 -25.185758 72.176548
-25.925246 -26.521166 72.153568
-25.681406 -31.372107 71.32267
-26.139744 -30.103167 71.382844
-25.681406 -31.372107 71.32267
-25.984533 -32.533379 70.872032
-26.886924 -37.210111 68.515431
-26.284663 -37.38595 69.034115
-26.648182 -36.058987 69.164245
-27.410019 -37.051544 67.946213
-26.886924 -37.210111 68.515431
-27.933329 -36.87334 67.214305
-27.410019 -37.051544 67.946213
-27.773753 -35.704944 67.913654
-28.399922 -36.638012 66.443207
-27.933329 -36.87334 67.214305
-28.765547 -36.313042 65.698276
-28.399922 -36.638012 66.443207
-28.662689 -35.201771 66.436817
-29.105609 -35.98762 64.833275
-28.842843 -37.423861 64.839664
-28.765547 -36.313042 65.698276
-29.275182 -26.948808 48.811621
-29.371344 -27.492049 49.884194
-29.211137 -28.122146 48.000766
-29.275182 -26.948808 48.811621
-29.193741 -26.505083 47.710203
-29.0659 -28.503847 45.073384
-29.115781 -28.891041 46.143988
-29.079815 -27.291227 45.828745
-29.074458 -29.657814 44.325435
-29.0659 -28.503847 45.073384
-29.014297 -26.386052 43.812365
-29.030577 -25.205599 44.595427
-29.014941 -24.687616 43.649651
-29.022855 -27.540018 43.064417
-29.014297 -26.386052 43.812365
-29.03425 -27.132986 42.0539
-29.022855 -27.540018 43.064417
-29.059904 -26.919432 41.032204
-29.03425 -27.132986 42.0539
-29.024315 -25.654515 41.844893
-28.932653 -38.484079 64.071503
-29.215583 -38.261149 63.180884
3 0 61 63
3 61 17 62
3 61 62 63
3 0 19 18
3 0 64 66
3 66 65 19
3 64 65 66
3 1 67 69
3 69 68 20
3 67 68 69
3 2 24 22
3 2 26 24
3 2 28 26
3 1 31 29
3 1 20 31
3 4 70 71
3 4 72 74
3 72 33 73
3 72 73 74
3 3 75 76
3 78 77 35
3 79 37 80
3 79 80 81
3 6 38 15
3 6 39 38
3 6 41 39
3 82 42 83
3 84 35 85
3 86 85 42
3 84 85 86
3 8 87 89
3 89 88 16
3 87 88 89
3 8 90 92
3 90 43 91
3 90 91 92
3 9 93 95
3 95 94 44
3 93 94 95
3 10 47 45
3 97 96 21
3 5 98 100
3 100 99 36
3 98 99 100
3 102 101 23
3 12 103 105
3 105 104 25
3 103 104 105
3 12 106 107
3 12 108 110
3 108 48 109
3 108 109 110
3 13 49 27
3 13 50 49
3 7 51 40
3 14 52 30
3 14 53 52
3 14 54 53
3 10 55 32
3 10 45 55
3 11 56 46
3 111 57 112
3 113 112 34
3 111 112 113
3 114 58 115
3 116 115 57
3 114 115 116
3 117 59 118
3 121 120 59
3 119 120 121
3 122 60 123
3 125 124 60
3 126 15 127
3 128 15 129
3 130 6 131
3 132 131 15
3 130 131 132
3 134 133 6
3 135 16 136
3 17 137 139
3 137 16 138
3 137 138 139
3 17 8 16
3 18 140 142
3 142 141 9
3 140 141 142
3 19 143 145
3 145 144 18
3 143 144 145
3 19 146 147
3 19 148 149
3 151 150 19
3 20 21 10
3 152 21 153
3 154 153 20
3 152 153 154
3 156 155 21
3 22 23 5
3 24 23 22
3 24 157 159
3 159 158 23
3 157 158 159
3 24 160 162
3 160 25 161
3 160 161 162
3 26 25 24
3 26 12 25
3 26 27 12
3 28 27 26
3 28 13 27
3 29 30 7
3 31 30 29
3 31 14 30
3 31 32 14
3 20 32 31
3 20 10 32
3 33 163 164
3 33 165 166
3 167 34 168
3 169 168 11
3 167 168 169
3 170 34 171
3 173 172 34
3 35 174 176
3 176 175 1
3 174 175 176
3 178 177 35
3 179 36 180
3 37 181 183
3 181 36 182
3 181 182 183
3 37 5 36
3 15 184 186
3 184 37 185
3 184 185 186
3 38 37 15
3 38 5 37
3 38 22 5
3 39 22 38
3 39 2 22
3 39 40 2
3 41 40 39
3 41 7 40
3 187 41 188
3 189 188 6
3 187 188 189
3 42 190 192
3 190 41 191
3 190 191 192
3 42 7 41
3 42 29 7
3 35 29 42
3 35 1 29
3 16 193 194
3 196 195 16
3 43 197 198
3 43 199 201
3 199 4 200
3 199 200 201
3 44 202 204
3 204 203 3
3 202 203 204
3 206 205 44
3 208 207 9
3 45 46 0
3 47 46 45
3 47 11 46
3 21 47 10
3 209 47 210
3 211 210 21
3 209 210 211
3 212 11 213
3 214 213 47
3 212 213 214
3 216 215 11
3 218 217 1
3 36 219 221
3 219 220 221
3 223 222 36
3 23 224 226
3 226 225 5
3 224 225 226
3 228 227 23
3 25 229 230
3 232 231 25
3 48 233 235
3 233 234 235
3 48 236 237
3 27 48 12
3 49 48 27
3 49 238 240
3 240 239 48
3 238 239 240
3 49 241 242
3 50 243 245
3 245 244 49
3 243 244 245
3 50 246 248
3 246 3 247
3 246 247 248
3 40 28 2
3 51 28 40
3 51 13 28
3 30 51 7
3 52 51 30
3 52 13 51
3 52 50 13
3 53 50 52
3 53 3 50
3 53 44 3
3 54 44 53
3 54 9 44
3 32 54 14
3 55 54 32
3 55 9 54
3 55 18 9
3 45 18 55
3 45 0 18
3 46 17 0
3 56 17 46
3 56 8 17
3 34 56 11
3 57 56 34
3 57 8 56
3 57 43 8
3 58 43 57
3 58 4 43
3 249 58 250
3 59 251 253
3 251 58 252
3 251 252 253
3 59 4 58
3 59 33 4
3 254 33 255
3 256 255 59
3 254 255 256
3 258 257 33
3 60 259 261
3 259 260 261
3 60 262 263
3 60 264 265
3 268 267 60
3 266 267 268
3 270 269 3
