ply
format ascii 1.0
element vertex 438
property float x
property float y
property float z
element face 462
property list uchar int vertex_index
end_header
-29.977304 -16.238115 68.86586
-30.307217 -7.881915 52.732025
-29.98098 -22.005087 54.184189
-30.984755 -12.313551 61.334534
-29.596855 -14.227453 37.956196
-29.994816 -2.343149 67.439377
-29.226894 -17.935442 45.534904
-29.837954 -3.48199 44.42215
-30.483871 -20.748341 66.086426
-30.79384 -19.078377 62.207912
-30.817989 -14.405429 65.361061
-28.318972 -17.809551 71.426529
-30.097269 -6.612409 37.61253
-31.062031 -4.783832 34.048012
-30.132004 -15.096819 53.402176
-29.529577 -19.909447 49.850327
-29.680897 -13.134459 48.928272
-29.498962 -10.711266 45.021759
-29.962809 -5.497807 48.470093
-30.642206 -0.017987 63.804749
-30.406401 -23.663631 58.73645
-30.603441 -17.024683 57.953533
-30.72257 -9.966674 56.945259
-29.273319 -21.267891 38.448116
-28.748064 -11.63765 70.975121
-30.239086 -9.593084 68.06485
-28.67473 -5.118754 70.344856
-29.450111 -26.418226 50.666203
-29.111029 -24.543421 46.405727
-29.014856 -22.816666 42.330906
-29.219425 -16.035212 41.589844
-29.588991 -8.808709 41.092407
-30.875929 -7.237158 64.52639
-30.970697 -5.093388 60.700603
-30.752354 -2.386096 56.381393
-30.442089 -0.193945 52.068695
-30.243734 2.037575 47.994167
-30.299994 -18.556608 67.572388
-30.686789 -17.704773 65.683151
-30.495081 -15.498885 67.195007
-29.276737 -17.220751 70.222076
-29.751282 -19.428024 69.077141
-30.005152 -21.77689 67.907188
-30.39678 -2.917398 37.327747
-30.508774 -5.824322 35.850018
-30.207518 -11.48798 52.935009
-29.899584 -13.926009 51.188213
-30.004793 -10.348992 50.886143
-29.825003 -9.36196 48.770184
-30.101585 -6.707104 50.509731
-30.479061 -24.697857 60.799358
-30.915827 -15.594134 61.785892
-30.745142 -18.092314 60.094513
-30.828707 -14.759251 59.60574
-30.652113 -13.635036 57.280323
-30.888855 -11.188744 59.134762
-29.401003 -17.77352 38.23608
-27.795397 -9.315808 71.700623
-28.868404 -8.570821 70.582672
-27.752487 -6.152515 71.369774
-27.731848 -12.629351 71.964668
-29.931562 -25.117548 54.638901
-29.69717 -24.079338 52.392994
-29.35771 -18.738781 47.730503
-29.29538 -22.178711 48.188457
-29.155766 -21.258713 46.05772
-29.031221 -23.507164 44.432713
-29.077568 -20.35339 43.838448
-29.087679 -19.566729 41.873882
-29.17963 -16.946796 43.458549
-29.648901 -7.213376 44.526382
-29.48222 -10.023573 42.929214
-29.682396 -6.202343 42.734592
-29.818626 -5.094357 40.828728
-29.895786 -2.477667 42.525105
-30.158173 -6.062567 67.785973
-30.645325 -8.586435 66.367363
-30.548565 -4.841237 66.07428
-30.743719 1.332445 61.968422
-30.883808 -2.426617 62.189461
-30.882349 -1.213463 60.217758
-30.881937 -3.691892 58.452522
-30.819487 0.208796 58.244423
-30.505501 3.769547 51.816792
-30.318335 0.861626 49.984028
-30.631681 -22.456949 62.531239
-30.70742 -20.256645 64.160194
-30.873119 -16.68185 63.787403
-30.973764 -13.252916 63.386791
-29.84289 -10.533196 37.665501
-29.954807 -13.146448 36.23465
-30.230482 -9.493038 35.982117
-26.535414 -4.091358 71.806992
-30.048706 -18.613539 53.778011
-29.754921 -20.887779 52.05928
-29.822653 -17.55603 51.680775
-29.606346 -16.535526 49.486279
-29.430893 -15.425714 47.156769
-29.345087 -14.346271 45.159836
-29.568298 -11.830022 47.000523
-29.707584 -8.272243 46.700123
-29.852213 -4.629406 46.271202
-30.374077 -1.210835 65.807343
-30.152893 -25.993744 57.003616
-30.222595 -22.795403 56.471497
-30.63562 -21.288551 60.515797
-30.509684 -20.35857 58.328018
-30.293928 -19.415512 55.988068
-30.372757 -16.145521 55.623871
-30.430998 -12.668628 55.076115
-30.518412 -8.976631 54.831429
-29.499392 -13.795659 69.960129
-30.169333 -13.012815 68.457069
-29.640783 -10.652865 69.58593
-29.584934 -7.217052 69.315224
-29.443842 -3.743835 68.975616
-27.615763 -2.735574 70.939903
-28.529755 -1.545418 69.854729
-29.245134 -0.09015 68.515091
-28.667587 -14.821326 71.138931
-29.482155 -23.195496 50.312351
-29.257786 -25.331745 48.521057
-29.049969 -25.440962 40.823196
-29.091419 -21.985281 40.387032
-29.201645 -18.578457 39.96666
-29.364826 -15.078013 39.65427
-29.324358 -13.387861 43.309319
-29.386692 -12.492611 41.344952
-29.562145 -11.333798 39.542507
-29.783581 -7.920458 39.284187
-30.044374 -4.100393 39.082912
-30.603506 -12.24248 66.85202
-30.887957 -11.026812 64.938782
-31.007948 -9.820261 62.943645
-30.769661 -3.537817 64.262367
-30.973486 -6.216063 62.627464
-31.003763 -8.766099 60.814934
-30.918531 -7.358486 58.864754
-30.763664 -6.216643 56.702068
-30.56625 -5.114008 54.482388
-30.723347 1.377725 56.087978
-30.374523 -4.209893 52.414284
-30.22266 -2.848689 50.357525
-30.09725 -1.889356 48.226326
-30.626784 -2.383193 36.44253
-30.555381 -0.967669 37.181212
-30.464232 -25.010101 61.881815
-30.392681 -26.219296 61.06213
-29.664738 -15.570944 37.17182
-29.566812 -17.343978 37.311762
-29.498929 -16.000487 38.096138
-27.183186 -6.810339 71.790657
-27.773942 -7.734162 71.535199
-27.204642 -8.391985 71.956081
-27.204642 -8.391985 71.956081
-27.236827 -9.924834 72.080937
-30.823518 0.820204 60.103001
-30.813034 0.059491 61.09309
-30.754203 2.093158 60.978332
-30.792087 1.531333 59.116333
-30.850918 -0.502333 59.231091
-30.823518 0.820204 60.103001
-30.531744 5.792584 51.690912
-30.563615 5.074985 52.776348
-30.466186 4.381125 50.777206
-30.531744 5.792584 51.690912
-30.595645 -20.502493 65.12331
-30.60027 -21.765811 64.407367
-30.488495 -22.011659 65.370484
-28.114582 -19.31295 71.508763
-27.73823 -18.184439 71.868786
-30.336536 -22.386198 66.247689
-30.097176 -22.900472 67.15807
-30.244512 -21.262616 66.996807
-30.488495 -22.011659 65.370484
-30.336536 -22.386198 66.247689
-30.88819 -6.73409 34.168362
-30.611561 -7.254335 35.069365
-30.785403 -5.304077 34.949015
-31.165677 -6.355301 33.351536
-30.88819 -6.73409 34.168362
-30.279647 -24.828688 57.870033
-30.218632 -26.440112 58.10035
-30.345385 -25.275056 58.966766
-29.355198 -22.522836 37.724114
-29.234518 -22.838131 38.656098
-30.054428 -14.577015 35.459494
-30.18813 -12.740657 35.353985
-26.909295 -1.682278 71.159717
-27.075589 -3.413466 71.373447
-26.369121 -2.36017 71.593262
-28.386248 0.197636 69.631108
-27.907515 -0.504604 70.20604
-27.764008 1.23845 69.982418
-28.743938 0.92527 68.961288
-28.887445 -0.817784 69.18491
-28.386248 0.197636 69.631108
-29.091154 1.772674 68.285481
-28.743938 0.92527 68.961288
-29.469284 -27.963546 50.949643
-29.563548 -26.822226 51.771715
-29.371344 -27.492049 49.884194
-29.469284 -27.963546 50.949643
-29.120362 -26.110921 46.652538
-29.193741 -26.505083 47.710203
-29.184407 -24.937583 47.463392
-29.070481 -25.723727 45.581934
-29.120362 -26.110921 46.652538
-29.006759 -24.342368 42.598748
-29.014941 -24.687616 43.649651
-29.023038 -23.161915 43.38181
-29.032412 -24.128814 41.577051
-29.024315 -25.654515 41.844893
-29.006759 -24.342368 42.598748
-30.05821 -2.617826 39.877306
-29.9315 -4.597375 39.95582
-29.945336 -3.114807 40.750214
-30.194103 -2.098558 38.932764
-30.05821 -2.617826 39.877306
-30.705018 3.312598 55.946062
-30.734027 2.661716 56.992652
-30.523007 -0.711688 53.188533
-30.524031 1.121924 52.9619
-30.408306 -2.201919 52.24149
-30.489224 -2.719661 53.361328
-30.523007 -0.711688 53.188533
-30.137576 0.626117 47.050157
-30.064334 -1.337348 47.166237
-30.170492 0.074109 48.110247
-29.112305 -18.697303 70.34396
-28.633423 -18.991703 70.946186
-28.797854 -17.515151 70.824303
-29.349578 -19.800939 69.771492
-29.112305 -18.697303 70.34396
-29.51401 -18.324388 69.649608
-29.548386 -20.998139 69.246986
-29.349578 -19.800939 69.771492
-29.878217 -20.602457 68.492165
-29.675321 -22.172572 68.66201
-29.548386 -20.998139 69.246986
-30.68278 -3.836655 35.703665
-30.452777 -4.37086 36.588882
-30.626784 -2.383193 36.44253
-30.959409 -3.31641 34.802662
-30.785403 -5.304077 34.949015
-30.68278 -3.836655 35.703665
-30.381715 -25.792168 59.998221
-30.392681 -26.219296 61.06213
-30.442731 -24.180744 59.767904
-30.345385 -25.275056 58.966766
-30.381715 -25.792168 59.998221
-29.47345 -19.046752 37.475676
-29.409608 -20.793937 37.581694
-29.337161 -19.520705 38.342098
-29.47345 -19.046752 37.475676
-29.566812 -17.343978 37.311762
-27.205053 -11.581605 72.212959
-27.08696 -13.015533 72.336754
-27.763623 -10.97258 71.832645
-27.205053 -11.581605 72.212959
-27.236827 -9.924834 72.080937
-29.804274 -26.171886 53.758065
-29.91749 -26.592544 54.902504
-29.687078 -25.652781 52.635111
-29.804274 -26.171886 53.758065
-29.814366 -24.598443 53.515947
-29.57364 -25.248782 51.529599
-29.563548 -26.822226 51.771715
-29.687078 -25.652781 52.635111
-29.983916 -1.806462 41.598403
-29.945336 -3.114807 40.750214
-29.857206 -3.786012 41.676917
-30.555737 3.10367 52.835949
-30.563615 5.074985 52.776348
-30.473795 1.787801 51.942743
-30.524031 1.121924 52.9619
-30.555737 3.10367 52.835949
-30.372604 2.927164 49.860824
-30.411918 2.315587 50.90041
-30.466186 4.381125 50.777206
-30.335303 3.515138 48.865894
-30.281035 1.4496 48.989097
-30.372604 2.927164 49.860824
-30.562401 -22.865963 63.59289
-30.540541 -23.889647 62.747755
-30.66955 -21.356797 63.345717
-30.562401 -22.865963 63.59289
-30.60027 -21.765811 64.407367
-28.114582 -19.31295 71.508763
-28.633423 -18.991703 70.946186
-29.817989 -23.317456 68.035797
-29.675321 -22.172572 68.66201
-29.817989 -23.317456 68.035797
-30.097176 -22.900472 67.15807
-30.325967 -10.913951 35.227719
-30.18813 -12.740657 35.353985
-30.092644 -11.319743 36.108384
-30.472415 -9.088693 35.135414
-30.369628 -7.65868 35.916067
-30.611561 -7.254335 35.069365
-30.325967 -10.913951 35.227719
-30.472415 -9.088693 35.135414
-25.884963 -4.697961 72.107617
-26.57465 -5.77976 72.009266
-25.828866 -3.061316 71.887226
-25.884963 -4.697961 72.107617
-26.369121 -2.36017 71.593262
-25.828866 -3.061316 71.887226
-30.081492 0.043128 66.396126
-30.184446 -1.776992 66.62336
-29.891862 -0.523029 67.212143
-30.287507 0.633798 65.534359
-30.081492 0.043128 66.396126
-30.421571 1.230222 64.533062
-30.508142 -0.614411 64.806046
-30.287507 0.633798 65.534359
-30.529305 1.977911 63.689444
-30.421571 1.230222 64.533062
-30.580061 2.653127 62.771281
-30.692963 0.657229 62.886585
-30.529305 1.977911 63.689444
-30.658086 3.281511 61.819307
-30.580061 2.653127 62.771281
-30.754203 2.093158 60.978332
-30.658086 3.281511 61.819307
-30.116354 -27.49717 57.255994
-30.218632 -26.440112 58.10035
-30.028156 -27.030642 56.084862
-30.116354 -27.49717 57.255994
-30.042227 -25.555646 55.821258
-29.91749 -26.592544 54.902504
-30.028156 -27.030642 56.084862
-30.555371 -23.577403 61.665298
-30.464232 -25.010101 61.881815
-30.540541 -23.889647 62.747755
-29.355198 -22.522836 37.724114
-29.409608 -20.793937 37.581694
-29.843713 -15.030442 36.311047
-29.664738 -15.570944 37.17182
-29.775831 -13.686951 37.095423
-29.843713 -15.030442 36.311047
-30.054428 -14.577015 35.459494
-27.14395 -5.121937 71.588383
-27.183186 -6.810339 71.790657
-26.57465 -5.77976 72.009266
-27.450519 -1.099682 70.748627
-26.909295 -1.682278 71.159717
-28.072759 -2.140496 70.397316
-27.450519 -1.099682 70.748627
-27.907515 -0.504604 70.20604
-29.517021 0.603471 67.75
-29.891862 -0.523029 67.212143
-29.619975 -1.216649 67.977234
-29.517021 0.603471 67.75
-29.091154 1.772674 68.285481
-27.905786 -16.736869 71.79816
-27.73823 -18.184439 71.868786
-27.612224 -14.146769 72.06723
-27.08696 -13.015533 72.336754
-28.080094 -15.242756 71.654361
-27.612224 -14.146769 72.06723
-28.199717 -13.725338 71.5518
-28.493279 -16.315438 71.28273
-27.905786 -16.736869 71.79816
-28.080094 -15.242756 71.654361
-29.275182 -26.948808 48.811621
-29.371344 -27.492049 49.884194
-29.353949 -25.874986 49.59363
-29.275182 -26.948808 48.811621
-29.193741 -26.505083 47.710203
-29.030577 -25.205599 44.595427
-29.070481 -25.723727 45.581934
-29.071125 -24.025292 45.41922
-29.030577 -25.205599 44.595427
-29.014941 -24.687616 43.649651
-29.059904 -26.919432 41.032204
-29.024315 -25.654515 41.844893
-29.115638 -26.61915 40.062939
-29.125573 -28.09762 40.271946
-29.059904 -26.919432 41.032204
-29.122843 -24.924667 39.843637
-29.115638 -26.61915 40.062939
-29.143568 -23.196826 39.625555
-29.122843 -24.924667 39.843637
-29.070694 -23.713121 40.605114
-29.182369 -21.626586 39.417574
-29.234518 -22.838131 38.656098
-29.143568 -23.196826 39.625555
-30.370306 -1.50706 38.055182
-30.220577 -3.508896 38.20533
-30.194103 -2.098558 38.932764
-30.555381 -0.967669 37.181212
-30.370306 -1.50706 38.055182
-30.782097 2.077252 58.070875
-30.792087 1.531333 59.116333
-30.771417 0.793261 57.166201
-30.782097 2.077252 58.070875
-30.734027 2.661716 56.992652
-30.664661 1.907758 54.971542
-30.705018 3.312598 55.946062
-30.663637 0.074148 55.198175
-30.664661 1.907758 54.971542
-30.67814 -1.807763 55.344882
-30.737851 -0.504186 56.234685
-30.663637 0.074148 55.198175
-30.585088 -3.171719 54.39538
-30.659302 -3.750052 55.431891
-30.67814 -1.807763 55.344882
-30.470387 -4.66195 53.448336
-30.585088 -3.171719 54.39538
-30.489224 -2.719661 53.361328
-29.941815 -2.707373 46.188675
-29.974731 -3.259381 47.248764
-30.064334 -1.337348 47.166237
-29.934686 -2.133665 45.264149
-29.845084 -4.055698 45.346676
-29.941815 -2.707373 46.188675
-30.316305 4.142618 47.902469
-30.335303 3.515138 48.865894
-30.231358 2.665837 47.024932
-30.316305 4.142618 47.902469
-30.137576 0.626117 47.050157
-30.231358 2.665837 47.024932
-29.942414 -1.502985 44.286608
-29.934686 -2.133665 45.264149
-29.971331 -1.000823 43.338086
-29.86687 -2.979828 43.473628
-29.942414 -1.502985 44.286608
-30.01764 -0.409541 42.447394
-29.971331 -1.000823 43.338086
-29.983916 -1.806462 41.598403
-30.01764 -0.409541 42.447394
-31.234597 -2.849418 33.926569
-30.959409 -3.31641 34.802662
-31.366971 -4.409119 33.17625
-31.234597 -2.849418 33.926569
-31.165677 -6.355301 33.351536
-31.366971 -4.409119 33.17625
3 0 39 37
3 0 41 40
3 0 37 41
3 145 144 43
3 1 47 45
3 1 49 47
3 146 50 147
3 3 53 51
3 3 55 53
3 4 148 150
3 150 149 56
3 148 149 150
3 151 59 152
3 153 152 57
3 151 152 153
3 154 57 155
3 2 62 61
3 6 65 63
3 6 67 65
3 6 69 67
3 7 72 70
3 7 74 72
3 5 77 75
3 156 80 157
3 158 157 78
3 156 157 158
3 159 82 160
3 161 160 80
3 159 160 161
3 162 83 163
3 165 164 83
3 8 166 168
3 166 86 167
3 166 167 168
3 10 87 38
3 10 88 87
3 11 169 170
3 8 171 173
3 173 172 42
3 171 172 173
3 8 174 175
3 12 91 89
3 13 176 178
3 178 177 44
3 176 177 178
3 13 179 180
3 14 95 93
3 16 96 46
3 16 97 96
3 16 99 97
3 18 100 48
3 18 101 100
3 20 181 183
3 181 103 182
3 181 182 183
3 20 104 103
3 9 105 85
3 21 106 52
3 21 107 106
3 21 108 107
3 22 109 54
3 22 110 109
3 23 184 185
3 187 186 90
3 24 113 111
3 26 114 58
3 26 115 114
3 188 116 189
3 190 189 92
3 188 189 190
3 191 117 192
3 191 192 193
3 194 118 195
3 196 195 117
3 194 195 196
3 198 197 118
3 24 119 60
3 24 111 119
3 27 199 200
3 27 201 202
3 15 120 94
3 28 121 64
3 28 203 205
3 205 204 121
3 203 204 205
3 28 206 207
3 29 208 210
3 210 209 66
3 208 209 210
3 29 211 213
3 211 122 212
3 211 212 213
3 29 123 122
3 30 124 68
3 30 125 124
3 17 126 98
3 31 127 71
3 31 128 127
3 31 129 128
3 214 130 215
3 216 215 73
3 214 215 216
3 218 217 130
3 25 131 112
3 32 132 76
3 32 133 132
3 19 134 102
3 33 135 79
3 33 136 135
3 33 137 136
3 34 138 81
3 34 139 138
3 219 140 220
3 35 221 222
3 35 223 225
3 223 141 224
3 223 224 225
3 35 142 141
3 36 143 84
3 36 226 228
3 228 227 143
3 226 227 228
3 37 38 8
3 39 38 37
3 39 10 38
3 40 229 231
3 231 230 11
3 229 230 231
3 41 232 234
3 234 233 40
3 232 233 234
3 41 235 236
3 41 237 239
3 237 42 238
3 237 238 239
3 37 42 41
3 37 8 42
3 43 44 12
3 240 44 241
3 242 241 43
3 240 241 242
3 243 13 244
3 245 244 44
3 243 244 245
3 45 46 14
3 47 46 45
3 47 16 46
3 47 48 16
3 49 48 47
3 49 18 48
3 50 246 247
3 50 248 250
3 248 20 249
3 248 249 250
3 51 52 9
3 53 52 51
3 53 21 52
3 53 54 21
3 55 54 53
3 55 22 54
3 56 251 253
3 253 252 23
3 251 252 253
3 255 254 56
3 57 58 24
3 59 58 57
3 59 26 58
3 256 60 257
3 57 258 260
3 258 60 259
3 258 259 260
3 57 24 60
3 61 261 262
3 62 263 265
3 265 264 61
3 263 264 265
3 62 266 268
3 266 27 267
3 266 267 268
3 63 64 15
3 65 64 63
3 65 28 64
3 65 66 28
3 67 66 65
3 67 29 66
3 67 68 29
3 69 68 67
3 69 30 68
3 70 71 17
3 72 71 70
3 72 31 71
3 72 73 31
3 74 73 72
3 74 269 271
3 271 270 73
3 269 270 271
3 75 76 25
3 77 76 75
3 77 32 76
3 78 79 19
3 80 79 78
3 80 33 79
3 80 81 33
3 82 81 80
3 82 34 81
3 83 272 273
3 83 274 276
3 274 35 275
3 274 275 276
3 83 84 35
3 277 84 278
3 279 278 83
3 277 278 279
3 280 36 281
3 282 281 84
3 280 281 282
3 283 85 284
3 86 285 287
3 285 85 286
3 285 286 287
3 86 9 85
3 38 86 8
3 87 86 38
3 87 9 86
3 87 51 9
3 88 51 87
3 88 3 51
3 289 288 11
3 42 290 291
3 293 292 42
3 89 90 4
3 91 90 89
3 91 294 296
3 296 295 90
3 294 295 296
3 44 91 12
3 297 91 298
3 299 298 44
3 297 298 299
3 301 300 91
3 302 92 303
3 304 92 305
3 307 306 92
3 93 94 2
3 95 94 93
3 95 15 94
3 46 95 14
3 96 95 46
3 96 15 95
3 96 63 15
3 97 63 96
3 97 6 63
3 97 98 6
3 99 98 97
3 99 17 98
3 48 99 16
3 100 99 48
3 100 17 99
3 100 70 17
3 101 70 100
3 101 7 70
3 308 102 309
3 310 309 5
3 308 309 310
3 311 102 312
3 313 19 314
3 315 314 102
3 313 314 315
3 316 19 317
3 318 78 319
3 320 319 19
3 318 319 320
3 321 78 322
3 324 323 78
3 103 325 326
3 103 327 328
3 103 329 331
3 329 61 330
3 329 330 331
3 104 61 103
3 104 2 61
3 85 332 334
3 332 50 333
3 332 333 334
3 105 50 85
3 105 20 50
3 52 105 9
3 106 105 52
3 106 20 105
3 106 104 20
3 107 104 106
3 107 2 104
3 107 93 2
3 108 93 107
3 108 14 93
3 54 108 21
3 109 108 54
3 109 14 108
3 109 45 14
3 110 45 109
3 110 1 45
3 336 335 23
3 90 337 339
3 339 338 4
3 337 338 339
3 341 340 90
3 111 112 0
3 113 112 111
3 113 25 112
3 58 113 24
3 114 113 58
3 114 25 113
3 114 75 25
3 115 75 114
3 115 5 75
3 92 342 344
3 342 59 343
3 342 343 344
3 116 59 92
3 116 26 59
3 345 116 346
3 117 347 349
3 347 116 348
3 347 348 349
3 117 26 116
3 117 115 26
3 118 115 117
3 118 5 115
3 118 350 352
3 352 351 5
3 350 351 352
3 354 353 118
3 355 11 356
3 60 357 358
3 119 359 361
3 361 360 60
3 359 360 361
3 119 362 364
3 362 11 363
3 362 363 364
3 119 40 11
3 111 40 119
3 111 0 40
3 94 62 2
3 120 62 94
3 120 27 62
3 64 120 15
3 121 120 64
3 121 27 120
3 121 365 367
3 367 366 27
3 365 366 367
3 369 368 121
3 66 370 372
3 372 371 28
3 370 371 372
3 374 373 66
3 122 375 376
3 122 377 379
3 377 378 379
3 122 380 381
3 123 382 384
3 384 383 122
3 382 383 384
3 123 385 387
3 385 23 386
3 385 386 387
3 68 123 29
3 124 123 68
3 124 23 123
3 124 56 23
3 125 56 124
3 125 4 56
3 98 69 6
3 126 69 98
3 126 30 69
3 71 126 17
3 127 126 71
3 127 30 126
3 127 125 30
3 128 125 127
3 128 4 125
3 128 89 4
3 129 89 128
3 129 12 89
3 73 129 31
3 130 129 73
3 130 12 129
3 130 43 12
3 388 43 389
3 390 389 130
3 388 389 390
3 392 391 43
3 112 39 0
3 131 39 112
3 131 10 39
3 76 131 25
3 132 131 76
3 132 10 131
3 132 88 10
3 133 88 132
3 133 3 88
3 102 77 5
3 134 77 102
3 134 32 77
3 79 134 19
3 135 134 79
3 135 32 134
3 135 133 32
3 136 133 135
3 136 3 133
3 136 55 3
3 137 55 136
3 137 22 55
3 81 137 33
3 138 137 81
3 138 22 137
3 138 110 22
3 139 110 138
3 139 1 110
3 393 82 394
3 140 395 397
3 395 82 396
3 395 396 397
3 140 34 82
3 398 140 399
3 400 140 401
3 402 34 403
3 404 403 140
3 402 403 404
3 405 139 406
3 407 406 34
3 405 406 407
3 141 408 410
3 408 139 409
3 408 409 410
3 141 1 139
3 141 49 1
3 142 49 141
3 142 18 49
3 84 142 35
3 143 142 84
3 143 18 142
3 143 101 18
3 411 101 412
3 413 412 143
3 411 412 413
3 414 7 415
3 416 415 101
3 414 415 416
3 417 36 418
3 419 36 420
3 422 421 36
3 423 7 424
3 425 74 426
3 427 426 7
3 425 426 427
3 428 74 429
3 431 430 74
3 432 13 433
3 434 13 435
3 437 436 13
