ply
format ascii 1.0
element vertex 347
property float x
property float y
property float z
element face 345
property list uchar int vertex_index
end_header
6.100946 -75.283157 -43.880764
-3.994784 -100.154594 -32.628738
12.78373 -78.711784 -40.601032
11.57533 -58.518627 -48.21051
0.806557 -89.541084 -39.143723
-5.499354 -83.653511 -40.273411
0.713821 -67.793343 -44.556896
9.357569 -77.631927 -42.586498
12.07366 -69.544136 -44.953602
8.918941 -67.015022 -46.026371
2.029612 -96.182678 -33.988892
4.512986 -90.748016 -37.336998
-1.716709 -95.515541 -36.084259
-1.217598 -62.793388 -44.502861
3.956108 -58.907135 -46.86668
6.89822 -84.636185 -40.117569
3.606487 -82.558197 -41.735592
-5.168711 -93.353653 -37.443703
-2.693183 -87.076126 -40.075092
0.3017 -79.968269 -42.357159
-2.482189 -76.163712 -42.414017
3.291743 -71.915138 -44.489082
6.355738 -63.151051 -46.654583
7.825049 -76.527367 -43.333401
10.56821 -73.654907 -43.818645
9.038397 -72.532494 -44.469589
10.450859 -68.557266 -45.524544
7.514924 -71.139153 -44.974503
-2.098216 -100.443253 -31.494364
0.769692 -98.500671 -32.126293
-1.024418 -98.240608 -33.535889
0.151477 -95.997238 -35.158592
-2.934948 -97.952858 -34.454288
-4.952558 -58.433407 -43.106968
-4.338158 -61.447243 -43.186855
-1.985681 -60.041 -44.487419
15.561638 -75.856743 -40.522499
13.107967 -59.764748 -47.85656
2.727443 -90.306801 -38.323914
5.579441 -87.873817 -38.782013
3.891831 -87.215935 -39.702625
5.044264 -83.893776 -41.000378
2.222043 -86.176353 -40.477154
-6.952853 -86.832916 -39.161133
-5.657486 -88.808006 -39.017509
-4.154255 -85.475685 -40.250534
-1.296234 -83.68222 -41.225262
-2.658607 -81.706894 -41.42662
-1.767084 -69.530838 -43.500706
-3.341725 -73.530006 -42.455215
-0.726491 -71.994148 -43.539921
0.462739 -74.060356 -43.546906
1.858765 -69.923691 -44.553291
4.643038 -67.717415 -45.502201
3.480265 -65.586159 -45.637703
11.077769 -78.214661 -41.728046
13.952519 -75.369492 -41.808002
12.319004 -74.536743 -42.935032
13.432566 -70.904671 -44.077538
11.658593 -64.270844 -46.667229
10.219929 -62.859901 -47.082733
3.778657 -96.143097 -32.574429
4.991765 -93.745819 -34.360817
6.14607 -91.091774 -36.075085
3.181181 -93.634148 -35.740452
1.45285 -93.247208 -36.819839
-0.341046 -92.568459 -37.713924
-2.73891 -67.025787 -43.398121
-0.212936 -65.21833 -44.587593
2.329852 -63.322826 -45.686634
1.329421 -60.747746 -45.742386
-5.112317 -102.052383 -30.738428
11.377005 -82.268143 -39.248398
7.327876 -88.186249 -37.662674
8.536249 -85.162987 -39.0653
9.775888 -81.722946 -40.488293
8.013296 -81.259827 -41.411434
6.502487 -80.271851 -42.19986
4.861599 -78.962578 -42.846264
-7.0357 -101.695168 -31.538155
-5.897875 -99.527397 -33.542747
-4.955614 -97.321602 -35.205559
-3.487387 -94.58609 -36.87735
-2.341425 -91.684776 -38.349003
-3.845523 -90.157288 -38.8969
-0.859504 -88.477234 -39.712769
0.460217 -85.037506 -40.968174
1.809579 -81.559692 -42.088547
3.09022 -77.789627 -43.170517
-9.356012 -82.695488 -38.878082
-6.725537 -81.515305 -40.183002
-5.112843 -77.574158 -41.313877
-4.047167 -80.028595 -41.348423
-1.057669 -78.030159 -42.496735
1.907869 -75.723915 -43.51627
4.644066 -73.825943 -44.235687
6.029855 -69.629295 -45.288635
7.349791 -65.45446 -46.315037
8.904506 -60.930973 -47.459866
5.006652 -61.259529 -46.732525
-3.611348 -59.498486 -43.752719
-4.645358 -59.940325 -43.146912
-3.918548 -57.991568 -43.712776
-2.43511 -58.795364 -44.403002
-3.161919 -60.744121 -43.837137
-3.611348 -59.498486 -43.752719
-1.264582 -57.777168 -45.094145
-2.43511 -58.795364 -44.403002
14.172684 -77.284263 -40.561765
14.833146 -77.657989 -39.857899
13.444192 -79.08551 -39.897165
12.931082 -56.925878 -48.638405
13.697401 -57.548939 -48.46143
12.341648 -59.141688 -48.033535
12.184863 -56.173016 -48.842344
12.931082 -56.925878 -48.638405
13.414904 -68.277783 -45.075489
14.094356 -68.95805 -44.637457
12.753113 -70.224403 -44.51557
12.65411 -67.557594 -45.511398
13.414904 -68.277783 -45.075489
-1.978254 -64.909588 -43.950491
-3.238602 -65.736755 -43.307
-2.477946 -63.620555 -43.859369
-5.637978 -102.905475 -29.658093
-4.278806 -102.22895 -30.059164
15.229941 -73.911225 -41.866064
14.511481 -73.57219 -42.431061
10.754514 -83.859985 -38.534964
12.140345 -82.425369 -38.526713
-8.506087 -102.311287 -30.815376
-7.535585 -102.618355 -30.456438
-6.867065 -99.12524 -33.823415
-7.327723 -100.244384 -32.88405
-6.395935 -98.022343 -34.654821
-5.426744 -98.424499 -34.374153
-6.867065 -99.12524 -33.823415
-4.328049 -93.969871 -37.160527
-5.068873 -95.348945 -36.380825
-5.909535 -94.732727 -36.664001
-8.506196 -80.861332 -39.480686
-9.744536 -81.425072 -38.805023
-7.190958 -80.271241 -40.133146
-8.040774 -82.105396 -39.530542
-8.506196 -80.861332 -39.480686
-0.664262 -99.471962 -31.810328
0.106348 -99.549656 -31.11609
-1.327606 -100.520947 -30.800126
-5.759828 -60.637867 -42.468611
-5.995356 -59.080174 -42.416256
-5.452628 -62.144785 -42.508555
-5.759828 -60.637867 -42.468611
-4.645358 -59.940325 -43.146912
-5.198115 -63.577911 -42.558846
-5.452628 -62.144785 -42.508555
-4.038226 -62.947483 -43.201366
-5.198115 -63.577911 -42.558846
-2.861987 -62.244361 -43.851648
-4.038226 -62.947483 -43.201366
-3.161919 -60.744121 -43.837137
-1.60164 -61.417194 -44.49514
-2.477946 -63.620555 -43.859369
-2.861987 -62.244361 -43.851648
-0.852256 -59.246002 -45.077118
-0.468215 -60.622196 -45.084839
-1.60164 -61.417194 -44.49514
-0.852256 -59.246002 -45.077118
-1.264582 -57.777168 -45.094145
16.263416 -75.97966 -39.8464
14.833146 -77.657989 -39.857899
16.892654 -74.210483 -40.565252
16.263416 -75.97966 -39.8464
14.414561 -58.324362 -48.168167
13.832836 -60.512285 -47.553326
14.414561 -58.324362 -48.168167
13.697401 -57.548939 -48.46143
-6.694059 -94.103683 -36.83185
-5.909535 -94.732727 -36.664001
-6.305169 -87.820461 -39.089321
-7.004892 -89.476975 -38.445045
-7.652575 -88.489429 -38.516857
-2.554404 -71.530422 -42.977961
-3.829294 -72.290627 -42.389313
-3.041974 -70.291043 -42.912058
5.246568 -57.70879 -47.421478
4.651221 -56.571277 -47.489124
13.694723 -73.155815 -42.994575
14.511481 -73.57219 -42.431061
13.135762 -74.953117 -42.371517
14.251504 -71.339779 -43.565828
13.694723 -73.155815 -42.994575
12.875785 -72.720707 -43.506285
14.854816 -69.405113 -44.183269
14.251504 -71.339779 -43.565828
14.854816 -69.405113 -44.183269
14.094356 -68.95805 -44.637457
11.84271 -67.06416 -45.796869
12.65411 -67.557594 -45.511398
11.262259 -69.050701 -45.239073
12.446577 -64.920949 -46.368212
11.84271 -67.06416 -45.796869
11.054726 -66.414055 -46.095886
13.108149 -62.765333 -46.958661
12.446577 -64.920949 -46.368212
12.38328 -62.017796 -47.261894
13.832836 -60.512285 -47.553326
13.108149 -62.765333 -46.958661
1.601819 -98.44484 -31.380543
0.106348 -99.549656 -31.11609
3.106302 -97.266053 -31.604612
1.601819 -98.44484 -31.380543
2.274174 -97.321884 -32.350361
4.522297 -96.067062 -31.751705
3.106302 -97.266053 -31.604612
5.150209 -94.94476 -32.658038
4.522297 -96.067062 -31.751705
5.756763 -93.74612 -33.551232
5.150209 -94.94476 -32.658038
4.385211 -94.944458 -33.467623
6.338391 -92.499565 -34.455191
5.756763 -93.74612 -33.551232
5.568917 -92.418796 -35.217951
6.915543 -91.172542 -35.312325
6.338391 -92.499565 -34.455191
-8.285309 -87.579292 -38.501182
-7.652575 -88.489429 -38.516857
-7.627003 -85.962277 -39.084225
-8.285309 -87.579292 -38.501182
-6.900253 -84.372574 -39.640364
-6.226104 -85.243213 -39.717272
-7.627003 -85.962277 -39.084225
-4.013736 -67.854691 -42.746783
-3.238602 -65.736755 -43.307
-3.527887 -69.038517 -42.860765
-4.013736 -67.854691 -42.746783
-2.252997 -68.278312 -43.449414
-3.041974 -70.291043 -42.912058
-3.527887 -69.038517 -42.860765
0.805295 -59.599375 -45.704602
0.055912 -61.770567 -45.122624
-0.468215 -60.622196 -45.084839
2.121652 -58.601801 -46.347018
0.805295 -59.599375 -45.704602
3.434995 -57.681495 -46.909165
2.642765 -59.82744 -46.304533
2.121652 -58.601801 -46.347018
4.651221 -56.571277 -47.489124
3.434995 -57.681495 -46.909165
-2.771756 -101.424385 -30.437132
-1.327606 -100.520947 -30.800126
-3.605266 -101.247818 -31.116396
-2.771756 -101.424385 -30.437132
-4.278806 -102.22895 -30.059164
-5.23675 -57.075705 -43.042986
-5.995356 -59.080174 -42.416256
-4.102678 -56.362908 -43.790273
-5.23675 -57.075705 -43.042986
-3.918548 -57.991568 -43.712776
-4.102678 -56.362908 -43.790273
16.0345 -74.15485 -41.223313
14.757079 -75.613117 -41.16525
15.229941 -73.911225 -41.866064
16.892654 -74.210483 -40.565252
16.0345 -74.15485 -41.223313
12.740829 -80.863689 -39.220848
12.140345 -82.425369 -38.526713
12.080368 -80.489963 -39.924715
13.444192 -79.08551 -39.897165
12.740829 -80.863689 -39.220848
7.592843 -89.714897 -36.159388
6.915543 -91.172542 -35.312325
8.183746 -88.262135 -36.953182
7.592843 -89.714897 -36.159388
6.736973 -89.639012 -36.86888
8.72995 -86.819039 -37.742102
8.183746 -88.262135 -36.953182
9.334136 -85.307408 -38.443415
8.72995 -86.819039 -37.742102
7.932062 -86.674618 -38.363987
9.956627 -83.715565 -39.156849
10.754514 -83.859985 -38.534964
9.334136 -85.307408 -38.443415
-6.573894 -102.796963 -30.056575
-5.637978 -102.905475 -29.658093
-6.074008 -101.873775 -31.138292
-6.573894 -102.796963 -30.056575
-7.535585 -102.618355 -30.456438
-7.896636 -101.32827 -31.881754
-8.506087 -102.311287 -30.815376
-6.466788 -100.611282 -32.540451
-7.896636 -101.32827 -31.881754
-7.327723 -100.244384 -32.88405
-5.802986 -96.716701 -35.54493
-6.395935 -98.022343 -34.654821
-4.2215 -95.953846 -36.041455
-5.802986 -96.716701 -35.54493
-5.068873 -95.348945 -36.380825
-5.969695 -92.593284 -37.612397
-6.694059 -94.103683 -36.83185
-6.214082 -90.320461 -38.399299
-7.004892 -89.476975 -38.445045
-5.308101 -90.995102 -38.338995
-6.214082 -90.320461 -38.399299
-4.751504 -89.482647 -38.957205
-4.507117 -91.755471 -38.170302
-5.969695 -92.593284 -37.612397
-5.308101 -90.995102 -38.338995
-10.656983 -83.198101 -38.121809
-9.744536 -81.425072 -38.805023
-10.08295 -84.415306 -38.283939
-10.656983 -83.198101 -38.121809
-8.828582 -83.893563 -38.9427
-10.08295 -84.415306 -38.283939
-7.513345 -83.303471 -39.59516
-8.828582 -83.893563 -38.9427
-8.040774 -82.105396 -39.530542
-6.112445 -82.584408 -40.228206
-6.900253 -84.372574 -39.640364
-7.513345 -83.303471 -39.59516
-4.652462 -74.297436 -41.841999
-3.829294 -72.290627 -42.389313
-5.538021 -76.319512 -41.27133
-4.652462 -74.297436 -41.841999
-4.227284 -75.552082 -41.884546
-6.384611 -78.300667 -40.698583
-5.538021 -76.319512 -41.27133
-5.91919 -79.544731 -40.74844
-7.190958 -80.271241 -40.133146
-6.384611 -78.300667 -40.698583
5.77184 -58.884987 -47.3544
4.48138 -60.083332 -46.799603
5.246568 -57.70879 -47.421478
6.322769 -60.008707 -47.240969
5.77184 -58.884987 -47.3544
6.997312 -60.954468 -47.201998
5.681195 -62.20529 -46.693554
6.322769 -60.008707 -47.240969
8.271695 -59.844429 -47.604639
7.630122 -62.041012 -47.057225
6.997312 -60.954468 -47.201998
9.594843 -58.637705 -48.056723
8.271695 -59.844429 -47.604639
10.930255 -57.431532 -48.432045
10.239918 -59.7248 -47.835188
9.594843 -58.637705 -48.056723
12.184863 -56.173016 -48.842344
10.930255 -57.431532 -48.432045
3 0 25 23
3 0 27 25
3 1 30 28
3 1 32 30
3 100 34 101
3 102 101 33
3 100 101 102
3 103 35 104
3 105 104 34
3 103 104 105
3 107 106 35
3 2 108 110
3 108 36 109
3 108 109 110
3 3 111 113
3 113 112 37
3 111 112 113
3 3 114 115
3 4 40 38
3 4 42 40
3 5 45 43
3 5 47 45
3 6 50 48
3 6 52 50
3 6 54 52
3 7 57 55
3 8 58 24
3 8 116 118
3 118 117 58
3 116 117 118
3 8 119 120
3 9 59 26
3 9 60 59
3 10 61 29
3 10 62 61
3 10 64 62
3 12 65 31
3 12 66 65
3 13 121 123
3 121 67 122
3 121 122 123
3 13 68 67
3 13 70 68
3 124 71 125
3 127 126 56
3 128 72 129
3 11 73 63
3 15 74 39
3 15 75 74
3 15 76 75
3 16 77 41
3 16 78 77
3 130 79 131
3 132 80 133
3 134 81 135
3 136 135 80
3 134 135 136
3 17 137 139
3 137 82 138
3 137 138 139
3 17 83 82
3 18 84 44
3 18 85 84
3 18 86 85
3 19 87 46
3 19 88 87
3 140 89 141
3 142 90 143
3 144 143 89
3 142 143 144
3 20 91 49
3 20 92 91
3 20 93 92
3 21 94 51
3 21 95 94
3 21 96 95
3 22 97 53
3 22 98 97
3 14 99 69
3 23 24 7
3 25 24 23
3 25 8 24
3 25 26 8
3 27 26 25
3 27 9 26
3 28 145 147
3 145 29 146
3 145 146 147
3 30 29 28
3 30 10 29
3 30 31 10
3 32 31 30
3 32 12 31
3 33 148 149
3 34 150 152
3 152 151 33
3 150 151 152
3 34 153 154
3 34 155 156
3 35 157 159
3 159 158 34
3 157 158 159
3 35 160 162
3 160 13 161
3 160 161 162
3 35 163 165
3 165 164 13
3 163 164 165
3 167 166 35
3 36 168 169
3 36 170 171
3 37 172 173
3 175 174 37
3 38 39 11
3 40 39 38
3 40 15 39
3 40 41 15
3 42 41 40
3 42 16 41
3 176 17 177
3 43 178 180
3 178 44 179
3 178 179 180
3 45 44 43
3 45 18 44
3 45 46 18
3 47 46 45
3 47 19 46
3 48 181 183
3 181 49 182
3 181 182 183
3 50 49 48
3 50 20 49
3 50 51 20
3 52 51 50
3 52 21 51
3 52 53 21
3 54 53 52
3 54 22 53
3 185 184 14
3 55 56 2
3 57 56 55
3 57 186 188
3 188 187 56
3 186 187 188
3 24 57 7
3 58 57 24
3 58 189 191
3 191 190 57
3 189 190 191
3 58 192 193
3 195 194 58
3 26 196 198
3 198 197 8
3 196 197 198
3 59 199 201
3 201 200 26
3 199 200 201
3 59 202 203
3 59 204 206
3 204 37 205
3 204 205 206
3 60 37 59
3 60 3 37
3 29 207 208
3 61 209 211
3 211 210 29
3 209 210 211
3 61 212 213
3 61 214 215
3 62 216 218
3 218 217 61
3 216 217 218
3 62 219 220
3 62 221 223
3 221 63 222
3 221 222 223
3 64 63 62
3 64 11 63
3 31 64 10
3 65 64 31
3 65 11 64
3 65 38 11
3 66 38 65
3 66 4 38
3 224 43 225
3 226 43 227
3 228 5 229
3 230 229 43
3 228 229 230
3 67 231 232
3 67 233 234
3 67 235 237
3 235 48 236
3 235 236 237
3 68 48 67
3 68 6 48
3 68 69 6
3 70 69 68
3 70 14 69
3 238 70 239
3 240 239 13
3 238 239 240
3 241 70 242
3 243 14 244
3 245 244 70
3 243 244 245
3 247 246 14
3 248 28 249
3 71 250 252
3 250 28 251
3 250 251 252
3 71 1 28
3 253 33 254
3 255 33 256
3 258 257 33
3 56 36 2
3 259 36 260
3 261 260 56
3 259 260 261
3 263 262 36
3 72 264 265
3 72 266 268
3 266 2 267
3 266 267 268
3 63 269 270
3 73 271 273
3 273 272 63
3 271 272 273
3 73 274 275
3 39 73 11
3 74 73 39
3 74 276 278
3 278 277 73
3 276 277 278
3 74 279 281
3 279 72 280
3 279 280 281
3 75 72 74
3 75 2 72
3 75 55 2
3 76 55 75
3 76 7 55
3 41 76 15
3 77 76 41
3 77 7 76
3 77 23 7
3 78 23 77
3 78 0 23
3 282 71 283
3 79 284 286
3 284 71 285
3 284 285 286
3 79 1 71
3 287 79 288
3 80 289 291
3 289 79 290
3 289 290 291
3 80 1 79
3 80 32 1
3 81 32 80
3 81 12 32
3 292 81 293
3 82 294 296
3 294 81 295
3 294 295 296
3 82 12 81
3 82 66 12
3 83 66 82
3 83 4 66
3 297 17 298
3 44 299 300
3 84 301 303
3 303 302 44
3 301 302 303
3 84 304 306
3 304 17 305
3 304 305 306
3 84 83 17
3 85 83 84
3 85 4 83
3 85 42 4
3 86 42 85
3 86 16 42
3 46 86 18
3 87 86 46
3 87 16 86
3 87 78 16
3 88 78 87
3 88 0 78
3 89 307 308
3 89 309 310
3 89 311 312
3 90 313 315
3 315 314 89
3 313 314 315
3 90 316 318
3 316 5 317
3 316 317 318
3 49 319 320
3 91 321 323
3 323 322 49
3 321 322 323
3 91 324 325
3 91 326 328
3 326 90 327
3 326 327 328
3 92 90 91
3 92 5 90
3 92 47 5
3 93 47 92
3 93 19 47
3 51 93 20
3 94 93 51
3 94 19 93
3 94 88 19
3 95 88 94
3 95 0 88
3 95 27 0
3 96 27 95
3 96 9 27
3 53 96 21
3 97 96 53
3 97 9 96
3 97 60 9
3 98 60 97
3 98 3 60
3 69 54 6
3 99 54 69
3 99 22 54
3 329 99 330
3 331 330 14
3 329 330 331
3 332 99 333
3 334 22 335
3 336 335 99
3 334 335 336
3 337 98 338
3 339 338 22
3 337 338 339
3 340 98 341
3 342 3 343
3 344 343 98
3 342 343 344
3 346 345 3
