ply
format ascii 1.0
element vertex 260
property float x
property float y
property float z
element face 235
property list uchar int vertex_index
end_header
-25.055664 79.681992 -49.069157
-25.850475 62.889072 -50.949558
-21.577196 52.104603 -51.983803
-30.280018 60.490906 -47.194698
-27.666294 57.595451 -49.557453
-28.404991 66.675323 -49.020493
-23.249777 96.923592 -40.110111
-25.562683 90.640617 -43.494026
-27.206093 83.300789 -46.130955
-28.182354 75.359734 -47.9063
-25.863533 71.487724 -50.358673
-23.283575 67.167809 -51.824818
-23.079561 59.685081 -52.059589
-24.643322 54.417309 -51.110401
-29.485106 63.615936 -48.097626
-29.551622 68.24826 -47.719936
-19.793867 100.508171 -38.156315
-22.311386 95.365593 -42.255848
-24.555365 93.867325 -41.886459
-23.506897 92.304016 -43.93277
-24.209164 83.406372 -48.273109
-25.43652 85.156822 -46.79446
-26.166262 81.65609 -47.712025
-27.828863 79.51149 -47.026817
-26.731749 77.809975 -48.526932
-27.162319 73.579201 -49.179077
-25.608418 75.594452 -49.787273
-23.052486 70.927223 -51.534691
-26.836586 60.294838 -50.306664
-26.137745 55.924522 -50.458809
-25.388365 58.749348 -51.084885
-24.00839 57.364517 -51.628372
-24.500025 61.359173 -51.584633
-22.430431 90.285347 -45.815041
-23.885691 77.43206 -50.179352
-29.044476 58.864475 -48.460003
-28.277042 62.035664 -49.263485
-27.147003 64.775856 -50.114426
-20.999273 98.112167 -40.357063
-26.362024 92.229599 -41.334232
-24.546358 88.903976 -45.449787
-26.350424 87.074554 -45.037495
-27.971298 85.25827 -44.24707
-28.701893 81.325821 -45.289219
-29.175785 76.996353 -46.324474
-29.49456 72.511276 -47.109055
-28.424501 71.041679 -48.533184
-27.253 69.452614 -49.720451
-26.008495 67.115936 -50.721592
-24.320526 73.254951 -50.812355
-24.655886 69.056564 -51.210629
-24.613167 65.261009 -51.484943
-23.394396 63.319344 -51.967876
-21.735699 57.949486 -52.357056
-23.615648 50.338448 -51.091991
-23.154848 53.490417 -51.631927
-22.482819 55.892414 -52.056259
-30.081659 68.940456 -46.933943
-30.052253 66.740318 -47.234201
-22.419849 92.883163 -44.076842
-22.909141 93.834805 -43.094309
-21.822094 94.413952 -43.238381
-20.995802 50.381531 -51.950796
-21.225516 49.049941 -51.738968
-21.806909 50.773013 -51.771974
-30.654256 58.738754 -46.634355
-30.842495 61.159165 -46.432606
-30.049886 58.260528 -47.325935
-30.654256 58.738754 -46.634355
-29.662247 59.67769 -47.827351
-29.432115 57.447313 -47.958588
-30.049886 58.260528 -47.325935
-19.83767 98.4235 -40.457208
-20.39657 99.310169 -39.256689
-19.234967 99.621502 -39.356834
-20.572546 97.153671 -41.440025
-19.83767 98.4235 -40.457208
-24.25293 96.146744 -39.900978
-23.693905 97.556923 -38.930592
-26.376055 89.820141 -43.173595
-26.775725 90.614632 -42.093699
-25.962353 91.435108 -42.414129
-24.034308 87.885468 -46.29208
-23.488394 89.594662 -45.632414
-22.976344 88.576153 -46.474707
-23.495944 74.087772 -50.934055
-24.103109 75.343506 -50.495853
-23.278526 76.176327 -50.617554
-27.266213 55.307535 -49.614615
-28.047299 55.972623 -49.094439
-24.941798 52.926452 -50.784804
-25.689009 53.680059 -50.459007
-25.390534 55.170916 -50.784605
-24.129485 52.377879 -51.101196
-24.427961 50.887022 -50.775599
-24.941798 52.926452 -50.784804
-20.623702 53.173288 -52.28298
-20.85517 51.856321 -52.11806
-21.345728 53.42157 -52.148724
-30.416452 62.861641 -46.971582
-30.842495 61.159165 -46.432606
-30.018995 64.424156 -47.423046
-29.882562 62.053421 -47.646162
-30.416452 62.861641 -46.971582
-29.518364 65.932098 -47.908781
-30.018995 64.424156 -47.423046
-30.052253 66.740318 -47.234201
-19.032298 101.477127 -37.08229
-20.253318 101.143624 -37.00001
-18.534698 100.702286 -38.267588
-19.032298 101.477127 -37.08229
-17.773129 101.671242 -37.193563
-19.234967 99.621502 -39.356834
-18.534698 100.702286 -38.267588
-24.822842 84.281597 -47.533784
-24.479388 86.01189 -46.964416
-23.86571 85.136665 -47.703741
-22.154303 71.596256 -51.629696
-22.861924 72.923908 -51.295224
-22.422191 69.677906 -51.793007
-22.154303 71.596256 -51.629696
-22.537736 67.798199 -51.93807
-23.168031 69.047516 -51.679755
-22.422191 69.677906 -51.793007
-22.643203 66.002137 -52.033794
-22.537736 67.798199 -51.93807
-20.273776 50.13325 -52.085053
-20.995802 50.381531 -51.950796
-20.85517 51.856321 -52.11806
-21.348158 90.768074 -45.896735
-21.881616 91.873829 -45.017977
-21.932824 89.210194 -46.566613
-21.348158 90.768074 -45.896735
-22.976344 88.576153 -46.474707
-21.932824 89.210194 -46.566613
-23.225897 84.108139 -48.394705
-23.86571 85.136665 -47.703741
-23.653316 82.311753 -48.87376
-23.225897 84.108139 -48.394705
-24.076566 80.449562 -49.271784
-24.632414 81.544182 -48.671133
-23.653316 82.311753 -48.87376
-23.491579 79.324597 -49.826881
-24.470678 78.557026 -49.624254
-24.076566 80.449562 -49.271784
-22.908372 78.138096 -50.303992
-23.491579 79.324597 -49.826881
-23.278526 76.176327 -50.617554
-22.908372 78.138096 -50.303992
-28.73639 56.607135 -48.545714
-29.124029 55.189973 -48.044298
-29.432115 57.447313 -47.958588
-28.355385 58.229963 -49.008728
-28.047299 55.972623 -49.094439
-28.73639 56.607135 -48.545714
-22.616391 98.205056 -39.137678
-23.693905 97.556923 -38.930592
-20.888435 99.997345 -38.16078
-21.347887 100.632798 -37.004475
-20.253318 101.143624 -37.00001
-21.491138 98.799343 -39.261154
-20.888435 99.997345 -38.16078
-20.39657 99.310169 -39.256689
-22.124525 97.517879 -40.233587
-22.616391 98.205056 -39.137678
-21.491138 98.799343 -39.261154
-21.228603 95.780384 -42.389418
-21.65533 96.73888 -41.306455
-20.572546 97.153671 -41.440025
-21.822094 94.413952 -43.238381
-21.228603 95.780384 -42.389418
-24.905724 94.61861 -40.789152
-24.25293 96.146744 -39.900978
-23.902571 95.395458 -40.998285
-25.809054 93.799747 -40.513039
-24.905724 94.61861 -40.789152
-25.458695 93.048462 -41.610346
-26.676583 92.873501 -40.227615
-25.809054 93.799747 -40.513039
-27.198137 91.242413 -40.936033
-26.676583 92.873501 -40.227615
-27.198137 91.242413 -40.936033
-26.775725 90.614632 -42.093699
-22.968664 91.294681 -44.873905
-22.419849 92.883163 -44.076842
-21.881616 91.873829 -45.017977
-24.991439 87.030399 -46.122124
-24.034308 87.885468 -46.29208
-24.479388 86.01189 -46.964416
-26.769925 88.037109 -43.94533
-26.376055 89.820141 -43.173595
-25.956553 88.857585 -44.26576
-27.580362 87.128967 -43.550117
-26.769925 88.037109 -43.94533
-27.160861 86.166412 -44.642283
-28.33894 86.073375 -43.170229
-27.580362 87.128967 -43.550117
-28.712057 84.095535 -43.791828
-28.33894 86.073375 -43.170229
-29.077354 82.129311 -44.312902
-28.712057 84.095535 -43.791828
-28.336596 83.292046 -44.768145
-29.358982 80.02182 -44.871035
-29.077354 82.129311 -44.312902
-29.595928 77.857086 -45.388662
-29.358982 80.02182 -44.871035
-28.938839 79.161087 -45.806847
-29.805978 75.663208 -45.828512
-29.595928 77.857086 -45.388662
-29.965366 73.42067 -46.220802
-29.805978 75.663208 -45.828512
-29.335172 74.753815 -46.716764
-30.053128 71.071964 -46.628502
-29.965366 73.42067 -46.220802
-29.523091 70.379768 -47.414496
-30.081659 68.940456 -46.933943
-30.053128 71.071964 -46.628502
-23.686506 72.091087 -51.173523
-23.495944 74.087772 -50.934055
-22.861924 72.923908 -51.295224
-22.698614 64.077904 -52.105323
-23.338985 65.243577 -51.896347
-22.643203 66.002137 -52.033794
-22.682944 62.304051 -52.156629
-22.698614 64.077904 -52.105323
-22.525526 60.486919 -52.202486
-23.236978 61.502212 -52.013733
-22.682944 62.304051 -52.156629
-21.853595 59.619121 -52.351219
-22.40763 58.817284 -52.208323
-22.525526 60.486919 -52.202486
-21.214734 58.603442 -52.451531
-21.853595 59.619121 -52.351219
-21.166369 57.260286 -52.432888
-21.214734 58.603442 -52.451531
-26.501939 54.472071 -50.065292
-27.266213 55.307535 -49.614615
-26.90202 56.759986 -50.008131
-26.501939 54.472071 -50.065292
-25.689009 53.680059 -50.459007
-23.848396 48.762402 -50.763546
-24.427961 50.887022 -50.775599
-22.97654 48.259966 -51.05871
-23.848396 48.762402 -50.763546
-22.826135 49.889935 -51.326069
-22.97654 48.259966 -51.05871
-22.595735 51.465919 -51.596036
-22.826135 49.889935 -51.326069
-23.385248 51.914433 -51.361959
-22.366022 52.79751 -51.807865
-21.806909 50.773013 -51.771974
-22.595735 51.465919 -51.596036
-21.79854 55.315476 -52.184951
-21.345728 53.42157 -52.148724
-22.030007 53.998508 -52.020031
-21.424979 56.344012 -52.33535
-21.79854 55.315476 -52.184951
-22.109259 56.92095 -52.206657
-21.166369 57.260286 -52.432888
-21.424979 56.344012 -52.33535
3 57 15 58
3 59 19 60
3 61 60 17
3 59 60 61
3 0 22 20
3 0 24 22
3 0 26 24
3 1 30 28
3 1 32 30
3 2 62 64
3 62 63 64
3 3 65 66
3 3 67 68
3 3 69 71
3 69 35 70
3 69 70 71
3 5 36 14
3 5 37 36
3 72 38 73
3 74 73 16
3 72 73 74
3 76 75 38
3 6 77 78
3 7 39 18
3 7 79 81
3 81 80 39
3 79 80 81
3 82 40 83
3 84 83 33
3 82 83 84
3 8 41 21
3 8 42 41
3 8 43 42
3 9 44 23
3 9 45 44
3 9 46 45
3 10 47 25
3 10 48 47
3 85 49 86
3 87 86 34
3 85 86 87
3 11 50 27
3 11 51 50
3 11 52 51
3 4 88 89
3 13 90 92
3 92 91 29
3 90 91 92
3 13 93 95
3 93 54 94
3 93 94 95
3 13 55 54
3 12 56 31
3 12 53 56
3 98 97 2
3 96 97 98
3 99 3 100
3 101 14 102
3 103 102 3
3 101 102 103
3 15 104 106
3 104 14 105
3 104 105 106
3 15 5 14
3 107 16 108
3 109 16 110
3 109 110 111
3 113 112 16
3 17 18 6
3 19 18 17
3 19 7 18
3 20 114 116
3 114 21 115
3 114 115 116
3 22 21 20
3 22 8 21
3 22 23 8
3 24 23 22
3 24 9 23
3 24 25 9
3 26 25 24
3 26 10 25
3 117 27 118
3 119 27 120
3 121 11 122
3 123 122 27
3 121 122 123
3 125 124 11
3 28 29 4
3 30 29 28
3 30 13 29
3 30 31 13
3 32 31 30
3 32 12 31
3 128 127 2
3 126 127 128
3 129 33 130
3 131 33 132
3 134 133 33
3 135 20 136
3 137 20 138
3 139 0 140
3 141 140 20
3 139 140 141
3 142 34 143
3 144 143 0
3 142 143 144
3 145 34 146
3 148 147 34
3 35 149 151
3 149 150 151
3 35 152 154
3 152 4 153
3 152 153 154
3 14 35 3
3 36 35 14
3 36 4 35
3 36 28 4
3 37 28 36
3 37 1 28
3 155 6 156
3 16 157 159
3 157 158 159
3 38 160 162
3 162 161 16
3 160 161 162
3 38 163 165
3 163 6 164
3 163 164 165
3 38 17 6
3 166 17 167
3 168 167 38
3 166 167 168
3 170 169 17
3 18 171 173
3 173 172 6
3 171 172 173
3 39 174 176
3 176 175 18
3 174 175 176
3 39 177 178
3 39 179 180
3 182 181 39
3 33 183 185
3 183 19 184
3 183 184 185
3 40 19 33
3 40 7 19
3 21 186 188
3 186 40 187
3 186 187 188
3 41 40 21
3 41 7 40
3 41 189 191
3 191 190 7
3 189 190 191
3 42 192 194
3 194 193 41
3 192 193 194
3 42 195 196
3 42 197 198
3 43 199 201
3 201 200 42
3 199 200 201
3 43 202 203
3 23 43 8
3 44 43 23
3 44 204 206
3 206 205 43
3 204 205 206
3 44 207 208
3 45 209 211
3 211 210 44
3 209 210 211
3 45 212 213
3 45 214 216
3 214 15 215
3 214 215 216
3 46 15 45
3 46 5 15
3 25 46 9
3 47 46 25
3 47 5 46
3 47 37 5
3 48 37 47
3 48 1 37
3 34 26 0
3 49 26 34
3 49 10 26
3 27 217 219
3 217 49 218
3 217 218 219
3 50 49 27
3 50 10 49
3 50 48 10
3 51 48 50
3 51 1 48
3 51 32 1
3 52 32 51
3 52 12 32
3 220 52 221
3 222 221 11
3 220 221 222
3 223 52 224
3 225 12 226
3 227 226 52
3 225 226 227
3 228 53 229
3 230 229 12
3 228 229 230
3 231 53 232
3 234 233 53
3 29 235 237
3 237 236 4
3 235 236 237
3 239 238 29
3 54 240 241
3 54 242 243
3 54 244 245
3 55 246 248
3 248 247 54
3 246 247 248
3 55 249 251
3 249 2 250
3 249 250 251
3 31 55 13
3 56 55 31
3 56 2 55
3 56 252 254
3 254 253 2
3 252 253 254
3 53 255 257
3 257 256 56
3 255 256 257
3 53 258 259
