ply
format ascii 1.0
element vertex 356
property float x
property float y
property float z
element face 377
property list uchar int vertex_index
end_header
-28.936014 41.314075 3.626086
-24.416458 57.992569 -5.871986
-24.155535 50.482342 8.094124
-26.425591 49.674435 -0.658565
-23.033861 60.031513 2.167185
-29.55978 39.275188 -4.04625
-25.81707 46.227539 -7.309085
-22.320774 53.267517 -11.412629
-23.496517 55.272133 5.358971
-29.697054 40.595901 -0.44292
-25.453453 53.646847 -3.141323
-26.612892 48.291359 -4.367642
-25.160198 52.354977 -6.581172
-24.005226 49.916138 -9.254821
-23.781534 55.920677 -9.117818
-26.452698 45.914391 5.859587
-27.631802 45.342228 1.517394
-25.50458 50.243484 3.611285
-24.752787 54.781445 0.951244
-24.079044 59.335617 -2.069497
-27.73843 41.407642 8.072361
-25.11393 45.642551 10.668223
-22.646637 50.299992 12.98011
-28.062462 44.55201 -2.274116
-27.637907 42.755775 -5.620966
-26.318758 39.945995 -7.93748
-24.083126 43.37822 -9.401538
-22.149315 46.471802 -10.962933
-20.173452 49.689896 -12.975215
-22.367254 59.721287 -11.920923
-30.199381 39.050781 2.443402
-30.44828 38.906101 0.384937
-29.352171 41.14138 1.548129
-24.907253 55.970806 -4.408037
-25.437902 53.047173 -4.887107
-24.818073 55.137455 -6.223133
-24.457478 54.157471 -7.861814
-24.195772 57.218124 -7.641479
-25.26631 48.150692 7.095661
-25.937151 48.067276 4.798837
-24.843994 50.448486 5.832579
-23.262793 57.704231 3.744201
-24.216759 55.03495 2.998191
-23.903307 57.321667 1.691683
-24.402546 57.073368 -0.447723
-23.596136 59.826248 0.045217
-26.427624 43.458801 9.355641
-25.659437 43.465202 11.763641
-26.998974 47.550243 0.350378
-27.903643 45.115089 -0.379935
-27.282681 47.016796 -1.520557
-26.359308 47.180099 -5.973026
-27.19458 45.48658 -4.917053
-26.742472 44.368301 -6.445006
-27.067295 41.475533 -6.927835
-26.042387 43.150867 -7.686616
-25.180475 41.707436 -8.648646
-25.074263 44.887184 -8.455791
-23.115829 51.641792 -10.352625
-23.149094 48.395073 -10.220917
-22.212532 49.746075 -11.19237
-21.114014 47.955341 -11.929013
-21.321411 51.603271 -12.266465
-23.093098 52.645287 9.22637
-23.814709 52.795536 6.779675
-22.816294 55.18512 7.641168
-30.652462 38.283203 -1.453516
-29.800026 39.932575 -2.316808
-25.901779 51.775833 -1.86593
-26.647421 49.029785 -2.607349
-26.026447 51.026672 -3.817936
-25.909678 50.141186 -5.466919
-25.524765 49.332127 -6.901182
-24.916788 47.998878 -8.239202
-24.736029 51.109875 -7.977771
-23.904388 52.87207 -9.203392
-23.14197 54.850117 -10.375597
-27.660791 43.598831 4.819582
-28.26549 43.284397 2.64076
-27.130276 45.592297 3.660641
-26.568998 47.805862 2.498044
-26.07976 49.911335 1.412946
-24.521191 52.764248 4.369358
-25.160248 52.407192 2.220769
-25.614714 52.116344 0.219674
-25.167356 54.438286 -1.185157
-24.754911 56.647079 -2.59944
-24.318916 58.935711 -4.094621
-31.027308 37.094948 3.324041
-29.676773 39.284874 4.628934
-29.08663 39.322784 6.875657
-28.322136 41.54987 5.774459
-27.046551 43.659672 7.012438
-25.829002 45.789551 8.185566
-24.618593 48.048027 9.341578
-24.36463 45.621613 13.018488
-23.851524 48.015896 11.781384
-23.420366 50.282192 10.628726
-28.644497 43.034641 0.534596
-28.863029 42.559067 -1.354752
-28.847145 41.95771 -3.118279
-27.371778 46.293793 -3.309386
-27.988533 43.794579 -4.000572
-28.605776 41.045723 -4.763103
-28.120365 39.946949 -6.130484
-27.433802 38.57399 -7.242309
-26.52244 36.968224 -8.113524
-25.290123 38.417347 -8.758816
-24.068827 46.636803 -9.333776
-23.086899 45.057831 -10.164412
-22.113611 62.680321 2.685164
-22.756554 62.452831 0.573774
-23.341967 62.134686 -1.776065
-23.57366 59.154572 -9.138976
-23.094467 57.933842 -10.441552
-22.394842 56.356327 -11.600611
-21.46876 55.108601 -12.66229
-20.400572 53.311069 -13.478413
-19.253963 51.145145 -14.083226
-26.027969 42.248201 12.287812
-26.33486 42.415622 11.115911
-29.907746 37.999134 -4.346875
-30.057961 38.462376 -3.594415
-29.364356 38.718727 -4.769856
-29.907746 37.999134 -4.346875
-22.43078 55.130777 8.854302
-22.954696 53.915204 8.433769
-22.569183 53.860861 9.646903
-30.73825 37.214505 4.420646
-31.417361 36.161505 3.836177
-30.062983 38.309467 5.073092
-30.352041 38.189911 3.976488
-30.73825 37.214505 4.420646
-28.41253 40.365213 7.474009
-28.73787 39.279493 8.111329
-28.063771 40.321922 8.709681
-24.012425 45.443556 14.30058
-24.671821 44.386651 13.629325
-23.24908 49.157944 12.380747
-23.508874 47.880902 12.987281
-22.90643 49.02295 13.586644
-22.46628 51.503287 12.299498
-22.853144 51.494387 11.123806
-23.033501 50.291092 11.804418
-24.111857 41.766167 -9.402036
-24.660532 40.930775 -9.02559
-24.631801 42.542828 -9.025092
-23.526391 42.55221 -9.765743
-24.111857 41.766167 -9.402036
-22.024478 44.760326 -10.912393
-22.49327 44.053341 -10.513133
-22.618107 45.764816 -10.563672
-21.552643 45.546648 -11.294911
-22.024478 44.760326 -10.912393
-20.040803 47.849516 -12.759743
-20.511084 46.982238 -12.236642
-20.643733 48.822618 -12.452114
-19.585028 48.609842 -13.246589
-20.040803 47.849516 -12.759743
-21.623807 64.041855 2.869318
-21.750335 62.707369 3.799461
-22.635035 63.64882 -0.343987
-22.313738 63.836981 0.704565
-22.927741 63.489748 -1.518906
-23.049261 62.293759 -0.601145
-22.635035 63.64882 -0.343987
-23.449618 60.699995 -9.095471
-23.737769 59.554127 -8.293215
-22.73086 58.827564 -11.181237
-23.022368 59.521742 -10.528306
-22.658761 60.415464 -11.267991
-21.061761 55.926701 -13.303554
-21.546362 56.751337 -12.825863
-20.527667 55.027935 -13.711616
-20.934666 54.209835 -13.070352
-21.061761 55.926701 -13.303554
-18.869158 51.939489 -14.649158
-19.398604 52.890152 -14.370791
-18.690205 50.052326 -14.329352
-18.869158 51.939489 -14.649158
-30.32383 38.978441 1.414169
-30.890778 37.94252 0.821852
-30.766329 38.01486 1.851084
-27.374357 41.386843 9.270271
-28.063771 40.321922 8.709681
-26.718954 42.412422 9.911911
-27.083027 42.433222 8.714001
-27.374357 41.386843 9.270271
-26.043531 43.462001 10.559641
-26.718954 42.412422 9.911911
-26.33486 42.415622 11.115911
-22.308971 50.105947 14.205624
-22.90643 49.02295 13.586644
-22.099663 51.418616 13.476216
-22.308971 50.105947 14.205624
-22.345974 61.334436 -12.025965
-22.658761 60.415464 -11.267991
-22.287155 56.432566 8.074889
-22.43078 55.130777 8.854302
-22.661811 56.501385 6.885193
-22.287155 56.432566 8.074889
-23.001922 56.544891 5.744094
-23.156405 55.228626 6.50007
-22.661811 56.501385 6.885193
-22.885061 57.760941 4.936709
-23.379655 56.488182 4.551586
-23.001922 56.544891 5.744094
-22.822274 58.878256 4.076042
-22.885061 57.760941 4.936709
-22.707808 60.041897 3.287534
-23.148327 58.867872 2.955693
-22.822274 58.878256 4.076042
-30.974469 37.777706 -0.097885
-30.890778 37.94252 0.821852
-31.07656 37.466257 -1.017111
-30.974469 37.777706 -0.097885
-30.550371 38.594652 -0.53429
-31.098123 37.113979 -1.91281
-31.07656 37.466257 -1.017111
-30.604301 37.966383 -2.298048
-31.098123 37.113979 -1.91281
-30.178083 38.791069 -2.729694
-30.604301 37.966383 -2.298048
-30.226244 39.107889 -1.885162
-29.679903 39.603881 -3.181529
-30.057961 38.462376 -3.594415
-30.178083 38.791069 -2.729694
-31.629924 36.075825 2.742869
-31.417361 36.161505 3.836177
-31.180293 37.036943 2.291404
-31.629924 36.075825 2.742869
-30.613345 38.072865 2.883722
-30.766329 38.01486 1.851084
-31.180293 37.036943 2.291404
-29.444817 38.344622 7.357085
-28.73787 39.279493 8.111329
-29.767911 38.328423 6.196454
-29.444817 38.344622 7.357085
-29.381701 39.303829 5.752296
-30.062983 38.309467 5.073092
-29.767911 38.328423 6.196454
-25.319225 43.308445 13.001901
-26.027969 42.248201 12.287812
-25.012034 44.543408 12.391064
-25.319225 43.308445 13.001901
-24.671821 44.386651 13.629325
-23.765427 46.68376 13.605832
-24.012425 45.443556 14.30058
-24.108077 46.818754 12.399936
-23.765427 46.68376 13.605832
-23.508874 47.880902 12.987281
-22.689511 52.675934 10.422628
-23.256732 51.46374 9.927548
-22.853144 51.494387 11.123806
-22.569183 53.860861 9.646903
-22.689511 52.675934 10.422628
-22.46628 51.503287 12.299498
-22.099663 51.418616 13.476216
-28.887354 39.603994 -5.128283
-29.364356 38.718727 -4.769856
-29.082778 40.160455 -4.404676
-28.644649 39.054608 -5.811974
-28.887354 39.603994 -5.128283
-28.36307 40.496336 -5.446794
-28.352847 38.487102 -6.349859
-28.644649 39.054608 -5.811974
-28.009566 37.800623 -6.905772
-28.352847 38.487102 -6.349859
-27.777083 39.260469 -6.686396
-27.56669 37.10981 -7.377521
-28.009566 37.800623 -6.905772
-27.11101 36.306927 -7.813128
-27.56669 37.10981 -7.377521
-26.978121 37.771107 -7.677917
-26.556381 35.421658 -8.181897
-27.11101 36.306927 -7.813128
-25.917303 36.179789 -8.465131
-26.556381 35.421658 -8.181897
-25.301144 36.90435 -8.787777
-25.917303 36.179789 -8.465131
-25.906281 37.692785 -8.43617
-24.650413 37.567881 -9.094368
-25.301144 36.90435 -8.787777
-24.715356 39.28573 -9.080675
-25.235299 40.062392 -8.703731
-24.660532 40.930775 -9.02559
-24.650413 37.567881 -9.094368
-24.715356 39.28573 -9.080675
-23.028278 43.392015 -10.147181
-23.526391 42.55221 -9.765743
-23.585012 44.218025 -9.782975
-23.028278 43.392015 -10.147181
-22.49327 44.053341 -10.513133
-21.034993 46.288417 -11.77795
-21.552643 45.546648 -11.294911
-21.631664 47.213572 -11.445973
-21.034993 46.288417 -11.77795
-20.511084 46.982238 -12.236642
-22.247682 61.366301 3.546524
-21.750335 62.707369 3.799461
-22.573736 61.355917 2.426175
-22.707808 60.041897 3.287534
-22.247682 61.366301 3.546524
-21.992266 63.950726 1.760259
-21.623807 64.041855 2.869318
-22.435083 62.566576 1.629469
-21.992266 63.950726 1.760259
-22.313738 63.836981 0.704565
-23.183842 63.30652 -2.645653
-22.927741 63.489748 -1.518906
-23.534152 61.892624 -2.807705
-23.183842 63.30652 -2.645653
-23.90269 60.493089 -2.954422
-23.710506 60.735152 -1.922781
-23.534152 61.892624 -2.807705
-24.022626 60.293137 -3.966983
-24.19898 59.135664 -3.082059
-23.90269 60.493089 -2.954422
-24.121178 59.931787 -4.90304
-24.022626 60.293137 -3.966983
-24.169948 59.460217 -5.791722
-24.367687 58.46414 -4.983303
-24.121178 59.931787 -4.90304
-24.159168 58.973126 -6.65972
-24.169948 59.460217 -5.791722
-24.048825 58.585903 -7.544467
-24.306115 57.605347 -6.756733
-24.159168 58.973126 -6.65972
-23.884716 58.186348 -8.390227
-24.048825 58.585903 -7.544467
-23.737769 59.554127 -8.293215
-23.261964 60.132107 -9.877018
-23.449618 60.699995 -9.095471
-23.334063 58.544207 -9.790264
-23.261964 60.132107 -9.877018
-23.022368 59.521742 -10.528306
-21.990258 60.623026 -12.697924
-22.345974 61.334436 -12.025965
-21.995609 59.05768 -12.455179
-21.990258 60.623026 -12.697924
-22.009403 57.3752 -12.295023
-22.381048 58.038807 -11.760767
-21.995609 59.05768 -12.455179
-21.931801 55.732464 -12.13145
-22.009403 57.3752 -12.295023
-21.546362 56.751337 -12.825863
-19.971908 53.973114 -14.068385
-20.527667 55.027935 -13.711616
-19.827267 52.228107 -13.780819
-19.971908 53.973114 -14.068385
-19.398604 52.890152 -14.370791
-19.125284 49.337467 -13.800595
-19.585028 48.609842 -13.246589
-19.713707 50.41752 -13.529221
-19.125284 49.337467 -13.800595
-18.690205 50.052326 -14.329352
3 0 32 30
3 1 35 33
3 1 37 35
3 2 40 38
3 4 43 41
3 4 45 43
3 119 47 120
3 5 121 122
3 5 123 124
3 3 50 48
3 6 53 51
3 6 55 53
3 6 57 55
3 7 60 58
3 7 62 60
3 125 65 126
3 127 126 63
3 125 126 127
3 9 66 31
3 9 67 66
3 10 70 68
3 12 71 34
3 12 72 71
3 12 74 72
3 14 75 36
3 14 76 75
3 15 79 77
3 17 80 39
3 17 81 80
3 8 82 64
3 18 83 42
3 18 84 83
3 18 85 84
3 19 86 44
3 19 87 86
3 128 88 129
3 130 89 131
3 132 131 88
3 130 131 132
3 20 133 135
3 133 90 134
3 133 134 135
3 20 91 90
3 20 92 91
3 21 93 46
3 21 94 93
3 136 95 137
3 22 138 140
3 138 96 139
3 138 139 140
3 22 97 96
3 22 141 143
3 143 142 97
3 141 142 143
3 16 98 78
3 23 99 49
3 23 100 99
3 11 101 69
3 24 102 52
3 24 103 102
3 24 104 103
3 25 105 54
3 25 106 105
3 25 107 106
3 26 144 146
3 146 145 56
3 144 145 146
3 26 147 148
3 13 108 73
3 27 109 59
3 27 149 151
3 151 150 109
3 149 150 151
3 27 152 153
3 28 154 156
3 156 155 61
3 154 155 156
3 28 157 158
3 159 110 160
3 161 111 162
3 163 112 164
3 165 164 111
3 163 164 165
3 166 113 167
3 29 168 170
3 168 114 169
3 168 169 170
3 29 115 114
3 171 116 172
3 173 117 174
3 175 174 116
3 173 174 175
3 176 118 177
3 179 178 118
3 30 180 182
3 180 31 181
3 180 181 182
3 32 31 30
3 32 9 31
3 33 34 10
3 35 34 33
3 35 12 34
3 35 36 12
3 37 36 35
3 37 14 36
3 38 39 15
3 40 39 38
3 40 17 39
3 41 42 8
3 43 42 41
3 43 18 42
3 43 44 18
3 45 44 43
3 45 19 44
3 183 20 184
3 185 46 186
3 187 186 20
3 185 186 187
3 47 188 190
3 188 46 189
3 188 189 190
3 47 21 46
3 191 22 192
3 194 193 22
3 48 49 16
3 50 49 48
3 50 23 49
3 51 52 11
3 53 52 51
3 53 24 52
3 53 54 24
3 55 54 53
3 55 25 54
3 55 56 25
3 57 56 55
3 57 26 56
3 58 59 13
3 60 59 58
3 60 27 59
3 60 61 27
3 62 61 60
3 62 28 61
3 195 29 196
3 63 64 2
3 65 64 63
3 65 8 64
3 197 65 198
3 199 65 200
3 201 8 202
3 203 202 65
3 201 202 203
3 204 41 205
3 206 205 8
3 204 205 206
3 207 41 208
3 209 4 210
3 211 210 41
3 209 210 211
3 31 212 213
3 66 214 216
3 216 215 31
3 214 215 216
3 66 217 218
3 66 219 220
3 67 221 223
3 223 222 66
3 221 222 223
3 67 224 226
3 224 5 225
3 224 225 226
3 68 69 3
3 70 69 68
3 70 11 69
3 34 70 10
3 71 70 34
3 71 11 70
3 71 51 11
3 72 51 71
3 72 6 51
3 72 73 6
3 74 73 72
3 74 13 73
3 36 74 12
3 75 74 36
3 75 13 74
3 75 58 13
3 76 58 75
3 76 7 58
3 77 78 0
3 79 78 77
3 79 16 78
3 39 79 15
3 80 79 39
3 80 16 79
3 80 48 16
3 81 48 80
3 81 3 48
3 64 40 2
3 82 40 64
3 82 17 40
3 42 82 8
3 83 82 42
3 83 17 82
3 83 81 17
3 84 81 83
3 84 3 81
3 84 68 3
3 85 68 84
3 85 10 68
3 44 85 18
3 86 85 44
3 86 10 85
3 86 33 10
3 87 33 86
3 87 1 33
3 88 227 228
3 88 229 230
3 88 231 233
3 231 30 232
3 231 232 233
3 89 30 88
3 89 0 30
3 90 234 235
3 90 236 237
3 90 238 240
3 238 89 239
3 238 239 240
3 91 89 90
3 91 0 89
3 91 77 0
3 92 77 91
3 92 15 77
3 46 92 20
3 93 92 46
3 93 15 92
3 93 38 15
3 94 38 93
3 94 2 38
3 241 47 242
3 95 243 245
3 243 47 244
3 243 244 245
3 95 21 47
3 246 95 247
3 96 248 250
3 248 95 249
3 248 249 250
3 96 21 95
3 96 94 21
3 97 94 96
3 97 2 94
3 97 63 2
3 251 63 252
3 253 252 97
3 251 252 253
3 255 254 63
3 257 256 22
3 78 32 0
3 98 32 78
3 98 9 32
3 49 98 16
3 99 98 49
3 99 9 98
3 99 67 9
3 100 67 99
3 100 5 67
3 69 50 3
3 101 50 69
3 101 23 50
3 52 101 11
3 102 101 52
3 102 23 101
3 102 100 23
3 103 100 102
3 103 5 100
3 103 258 260
3 260 259 5
3 258 259 260
3 104 261 263
3 263 262 103
3 261 262 263
3 104 264 265
3 54 104 24
3 105 104 54
3 105 266 268
3 268 267 104
3 266 267 268
3 105 269 270
3 106 271 273
3 273 272 105
3 271 272 273
3 106 274 275
3 106 276 277
3 107 278 280
3 280 279 106
3 278 279 280
3 107 281 282
3 56 107 25
3 283 107 284
3 285 284 56
3 283 284 285
3 287 286 107
3 73 57 6
3 108 57 73
3 108 26 57
3 59 108 13
3 109 108 59
3 109 26 108
3 109 288 290
3 290 289 26
3 288 289 290
3 292 291 109
3 61 293 295
3 295 294 27
3 293 294 295
3 297 296 61
3 110 298 299
3 110 300 302
3 300 4 301
3 300 301 302
3 303 110 304
3 111 305 307
3 305 110 306
3 305 306 307
3 111 4 110
3 111 45 4
3 112 45 111
3 112 19 45
3 308 112 309
3 310 112 311
3 312 19 313
3 314 313 112
3 312 313 314
3 315 87 316
3 317 316 19
3 315 316 317
3 318 87 319
3 320 1 321
3 322 321 87
3 320 321 322
3 323 1 324
3 325 37 326
3 327 326 1
3 325 326 327
3 113 328 330
3 328 37 329
3 328 329 330
3 113 14 37
3 331 113 332
3 114 333 335
3 333 113 334
3 333 334 335
3 114 14 113
3 114 76 14
3 115 76 114
3 115 7 76
3 336 29 337
3 338 29 339
3 340 115 341
3 342 341 29
3 340 341 342
3 116 343 345
3 343 115 344
3 343 344 345
3 116 7 115
3 116 62 7
3 117 62 116
3 117 28 62
3 346 117 347
3 118 348 350
3 348 117 349
3 348 349 350
3 118 28 117
3 118 351 353
3 353 352 28
3 351 352 353
3 355 354 118
