ply
format ascii 1.0
element vertex 547
property float x
property float y
property float z
element face 600
property list uchar int vertex_index
end_header
-36.140617 24.743269 -2.762159
-27.877342 8.522047 -4.472547
-17.605505 15.61138 -10.025839
-26.590322 33.875092 -8.250269
-33.407303 17.995834 -4.516971
-27.006483 21.00374 -7.32307
-34.620991 7.441425 -0.618486
-17.242313 30.304398 -11.91748
-21.671423 11.27799 -7.197966
-21.398729 25.25255 -9.351578
-36.119534 -2.380083 4.530548
-29.457264 -2.240732 -0.758959
-35.249786 21.847075 -3.890259
-32.727123 23.309883 -5.585141
-36.181309 17.391493 -2.405836
-15.704782 32.956635 -13.680019
-25.102388 3.658598 -4.400133
-22.247456 5.174368 -5.956969
-24.521759 9.650179 -5.899381
-26.81629 27.396423 -8.042606
-24.088573 22.967949 -8.322462
-24.071461 29.712093 -9.037519
-21.580307 32.411098 -10.102205
-38.120876 2.672256 4.97876
-31.341251 8.024161 -2.837941
-32.025028 2.360278 -0.594369
-28.602093 2.854141 -2.622851
-30.828434 13.523044 -4.642313
-27.317522 14.599846 -6.091542
-30.341753 19.327816 -6.079933
-29.768789 25.192122 -6.940632
-29.222195 31.045712 -7.119814
-37.531322 7.520549 2.173289
-36.868679 12.46729 -0.357445
-34.050972 12.78219 -2.803934
-17.225344 22.597589 -10.97902
-15.851169 25.287655 -12.684733
-14.758267 28.065895 -14.86841
-13.977738 30.601898 -17.48362
-20.926704 0.954433 -6.367955
-19.945221 6.868007 -7.458177
-19.364504 13.386274 -8.540758
-24.169693 16.266848 -7.278676
-21.36598 18.195713 -8.392928
-19.111771 20.542603 -9.581773
-19.103659 27.632502 -10.508416
-35.33614 2.303087 1.913295
-32.896492 -2.424332 1.60635
-35.858509 23.587074 -3.324842
-34.849121 24.098719 -4.236974
-36.632481 23.24271 -2.276652
-36.314159 21.512833 -2.822751
-26.43009 6.031105 -4.400391
-24.78997 6.678267 -5.179717
-26.234123 9.044352 -5.187624
-26.773832 30.536877 -8.194415
-25.48037 28.740551 -8.538354
-25.374027 31.980612 -8.740412
-24.113163 33.388447 -9.2644
-25.312166 35.391354 -8.816738
-29.601202 8.28354 -3.721084
-29.970516 5.454178 -2.719788
-28.218344 5.80934 -3.615824
-26.85965 3.395839 -3.5711
-17.919403 12.246794 -9.531073
-17.260456 13.346479 -10.407122
-32.176266 15.696325 -4.606751
-30.431383 16.372345 -5.470312
-31.888891 18.475769 -5.334414
-32.373207 25.798111 -5.796213
-31.308832 24.00956 -6.275502
-30.985126 26.826368 -6.473747
-29.591263 28.087238 -7.078037
-30.640194 29.800699 -6.460022
-38.011017 12.46099 1.098098
-37.658947 14.89941 -0.074221
-34.851204 17.481974 -3.5242
-35.282635 15.097109 -2.615889
-33.778435 15.422246 -3.714493
-32.513988 13.010849 -3.744674
-17.165035 26.580164 -11.487574
-16.465195 24.191166 -11.844658
-16.405926 28.075508 -12.31564
-15.108044 30.213139 -14.185631
-14.557589 31.872013 -15.358909
-14.336168 29.296797 -16.126179
-14.089011 33.171097 -16.597887
-21.969961 0.204934 -5.501103
-21.94702 8.249401 -6.588009
-21.049541 5.966846 -6.679193
-20.677887 9.034754 -7.285177
-19.542448 9.934175 -8.031267
-20.436295 12.220563 -7.85292
-27.142086 17.819382 -6.773177
-25.72699 15.318289 -6.686572
-25.605667 18.557062 -7.298264
-22.738897 24.253649 -8.838995
-22.743198 20.564781 -8.338623
-21.380217 21.67938 -8.887438
-20.185648 19.126884 -8.937988
-20.165432 23.051607 -9.478798
-19.025919 24.066252 -10.078717
-20.236942 26.432995 -9.893031
-37.488075 -2.099271 6.125241
-36.145973 7.563379 0.634229
-36.547276 5.076269 2.004812
-35.084717 4.889398 0.699982
-30.793257 -0.034166 -0.582904
-32.523613 -0.118598 0.568835
-31.104406 -2.539201 0.365637
-24.649992 -1.140036 -3.692255
-34.409248 20.17119 -4.317873
-33.10981 20.715691 -5.139505
-34.032143 22.58169 -4.808507
-33.676582 24.943001 -5.045726
-37.277508 17.223835 -1.100457
-36.811028 19.443062 -2.045615
-35.65448 19.58559 -3.295075
-16.431013 31.751501 -12.769647
-24.003374 1.466783 -4.477865
-22.635307 2.116331 -5.296136
-23.613596 4.322773 -5.184362
-23.301462 7.411372 -5.893969
-23.03857 10.652661 -6.596693
-26.888041 24.215544 -7.750427
-25.509874 22.06547 -7.848816
-25.447855 25.272709 -8.244267
-24.159718 26.312708 -8.696445
-22.722803 27.476351 -9.222357
-21.541624 28.88372 -9.740617
-22.850473 31.028906 -9.533398
-22.795238 34.661854 -9.840927
-37.075424 0.197866 4.61124
-32.971989 7.55426 -1.779579
-33.415203 4.930536 -0.579464
-31.743887 5.138356 -1.691217
-30.356649 2.666224 -1.668957
-29.069523 0.331347 -1.677563
-27.80625 -1.987069 -1.781919
-27.253912 0.573247 -2.685371
-25.648254 1.064464 -3.589045
-29.333113 11.055344 -4.585247
-27.671764 11.490211 -5.280514
-29.085018 14.092861 -5.423588
-28.829338 17.020529 -6.139329
-28.69655 19.965637 -6.704515
-31.644352 21.265356 -5.881417
-30.102787 22.27519 -6.579997
-28.473955 23.077477 -7.182562
-28.234915 26.29303 -7.528934
-28.180967 29.277239 -7.650536
-27.944113 32.466057 -7.66715
-37.217918 9.95652 0.885408
-35.839073 9.988238 -0.533
-36.571625 14.977857 -1.422911
-35.537395 12.581017 -1.664766
-34.330372 10.102192 -1.76168
-32.826096 10.208201 -2.7372
-31.103401 10.694918 -3.754903
-17.403137 18.962492 -10.472685
-16.882185 16.781879 -10.910749
-16.03249 21.600172 -12.25616
-15.696145 29.066067 -13.213643
-15.273086 26.399645 -13.702236
-20.067993 1.941562 -7.233884
-21.433611 2.929269 -6.100189
-20.403999 3.830991 -6.896597
-19.503363 4.728576 -7.736423
-19.019033 7.798271 -8.258024
-18.702837 10.968656 -8.725841
-18.417536 14.470013 -9.254356
-25.95673 12.045493 -5.950358
-24.450115 12.931572 -6.584192
-22.867392 13.812187 -7.223685
-24.220617 19.724751 -7.831759
-22.756636 17.161627 -7.816692
-21.465918 14.755341 -7.8345
-20.226963 15.758598 -8.448822
-19.133871 16.941877 -9.106687
-18.231232 18.119215 -9.765924
-18.136496 21.637844 -10.235709
-18.016527 25.108927 -10.737794
-18.074059 28.824739 -11.187551
-20.351076 30.062857 -10.297591
-19.197153 31.473398 -10.961879
-18.20051 32.704082 -11.642625
-37.836128 4.956495 3.599668
-36.808842 2.648104 3.277489
-35.674801 -0.029201 3.146898
-33.826878 2.358537 0.64383
-34.154797 -0.130982 1.809175
-34.529045 -2.594119 3.020749
-37.159275 23.332996 -0.986117
-16.740219 14.422385 -11.3614
-35.764729 25.111975 -3.142564
-35.623674 24.533878 -3.423905
-35.999563 24.165171 -3.0435
-31.472866 27.716115 -6.130759
-31.679167 26.312239 -6.13498
-32.166906 27.201986 -5.791991
-31.3004 29.20328 -6.123896
-30.81266 28.313533 -6.466885
-31.472866 27.716115 -6.130759
-37.909549 16.02757 0.158352
-38.093385 14.846747 0.680304
-14.511302 33.665458 -15.612011
-14.806565 33.012262 -15.02748
-14.277013 34.315 -16.231499
-14.3233 32.521555 -15.978398
-14.511302 33.665458 -15.612011
-14.028105 35.043288 -16.854727
-14.277013 34.315 -16.231499
-22.606634 -0.274299 -5.035702
-22.313459 -1.195175 -5.181388
-36.322297 -3.494495 5.196422
-37.006567 -3.354089 5.993768
-36.803804 -2.239677 5.327894
-35.547512 -3.658735 4.395293
-36.322297 -3.494495 5.196422
-29.765548 -3.554963 -0.230839
-30.589119 -3.704198 0.33146
-30.280835 -2.389966 -0.196661
-28.968501 -3.412999 -0.782803
-29.765548 -3.554963 -0.230839
-24.264929 -2.146606 -3.80664
-23.946649 -0.946784 -4.131278
-34.011343 25.720192 -4.686373
-34.262851 24.52086 -4.64135
-34.597612 25.298051 -4.281997
-33.445179 26.187194 -5.065155
-34.011343 25.720192 -4.686373
-36.995865 20.440509 -1.778736
-37.244266 19.381815 -1.353382
-23.40297 35.690134 -9.635424
-23.4542 34.02515 -9.552664
-24.061932 35.053431 -9.347161
-22.837358 36.454584 -9.930175
-23.40297 35.690134 -9.635424
-38.200542 1.539077 5.604107
-38.605175 2.76671 5.777045
-37.59815 1.435061 4.795
-37.677816 0.301882 5.420347
-38.200542 1.539077 5.604107
-16.93234 21.432519 -11.164127
-17.021237 19.61497 -10.91096
-17.314241 20.78004 -10.725853
-15.687754 24.074454 -12.965406
-15.778415 22.230712 -12.751119
-15.94183 23.443914 -12.470446
-14.90052 26.185201 -14.674621
-15.157929 25.352075 -14.091534
-15.015676 27.23277 -14.285323
-14.726405 26.851787 -15.243204
-14.90052 26.185201 -14.674621
-14.180298 28.784726 -17.228249
-14.359513 28.132176 -16.549529
-14.156953 29.949348 -16.804899
-14.058051 29.413984 -17.982667
-14.180298 28.784726 -17.228249
-13.824768 31.242851 -18.216947
-14.058051 29.413984 -17.982667
-20.859416 0.028834 -6.536952
-21.28645 -0.397824 -6.068504
-20.497349 1.447998 -6.80092
-20.430061 0.522398 -6.969916
-20.859416 0.028834 -6.536952
-19.247607 33.367086 -11.182402
-19.777392 32.60929 -10.844312
-18.749285 33.982428 -11.522775
-18.698832 32.08874 -11.302252
-19.247607 33.367086 -11.182402
-18.24175 34.580821 -11.886758
-18.749285 33.982428 -11.522775
-37.683725 6.238522 2.886478
-38.226246 6.284096 3.659361
-38.073843 7.566123 2.946172
-33.119074 -3.618615 2.16342
-33.93535 -3.703509 2.87062
-33.712769 -2.509226 2.313549
-27.322769 -3.088458 -1.842952
-26.951243 -1.831148 -2.289126
-37.010217 24.227646 -0.633918
-37.334885 23.328462 -0.244483
-36.851221 24.132056 -1.371762
-37.010217 24.227646 -0.633918
-16.533682 16.171146 -11.59466
-16.811202 15.602132 -11.136074
-16.604665 17.350893 -11.369335
-35.11898 24.789701 -3.879971
-35.353815 23.842897 -3.780908
-35.623674 24.533878 -3.423905
-34.597612 25.298051 -4.281997
-35.11898 24.789701 -3.879971
-36.47332 22.377772 -2.549701
-36.74743 21.475395 -2.167304
-36.906591 22.340333 -1.894255
-24.661434 36.054884 -9.12333
-24.061932 35.053431 -9.347161
-24.712665 34.3899 -9.040569
-38.519732 4.046163 5.051979
-38.605175 2.76671 5.777045
-17.800167 11.131484 -9.757462
-18.103697 10.587151 -9.303394
-17.470694 11.681327 -10.195487
-17.800167 11.131484 -9.757462
-17.58993 12.796636 -9.969098
-17.245171 12.215267 -10.664923
-17.470694 11.681327 -10.195487
-38.269421 13.627537 1.266464
-38.45611 12.47144 1.886135
-37.834982 13.6802 0.511938
-38.269421 13.627537 1.266464
-38.093385 14.846747 0.680304
-15.081792 32.182825 -14.440842
-15.406413 31.584887 -13.932825
-15.380161 33.554574 -14.188035
-14.832816 31.042576 -14.77227
-15.081792 32.182825 -14.440842
-14.806565 33.012262 -15.02748
-13.89151 33.766016 -17.251811
-13.835874 32.481416 -17.694677
-14.033375 31.886498 -17.040754
-13.830605 35.638206 -17.508651
-13.89151 33.766016 -17.251811
-14.028105 35.043288 -16.854727
-21.808079 -0.772574 -5.635078
-22.313459 -1.195175 -5.181388
-21.448332 0.579684 -5.934529
-21.28645 -0.397824 -6.068504
-21.808079 -0.772574 -5.635078
-20.968969 33.07814 -10.414475
-21.58361 34.213529 -10.271622
-37.597717 -3.241253 6.765473
-38.125765 -3.123664 7.558119
-38.016123 -1.981682 6.917887
-37.116209 -4.496071 6.634
-37.597717 -3.241253 6.765473
-37.006567 -3.354089 5.993768
-31.418481 -3.677665 0.909203
-32.314523 -3.62023 1.529559
-32.000449 -2.481766 0.985993
-31.418481 -3.677665 0.909203
-30.589119 -3.704198 0.33146
-24.968049 -2.508375 -3.30529
-25.373114 -1.407632 -3.244294
-24.968049 -2.508375 -3.30529
-24.264929 -2.146606 -3.80664
-32.793492 26.614749 -5.440399
-33.024895 25.370556 -5.420969
-33.445179 26.187194 -5.065155
-32.166906 27.201986 -5.791991
-32.793492 26.614749 -5.440399
-37.477506 18.272202 -0.880802
-37.71883 17.189783 -0.354766
-37.044268 18.333449 -1.573036
-37.477506 18.272202 -0.880802
-37.244266 19.381815 -1.353382
-36.562593 20.477947 -2.434183
-36.995865 20.440509 -1.778736
-36.74743 21.475395 -2.167304
-16.878743 32.94456 -12.588408
-16.836663 31.027949 -12.343564
-17.284393 32.221008 -12.162325
-16.483035 33.716803 -13.020889
-16.878743 32.94456 -12.588408
-16.119919 34.31937 -13.476074
-16.067898 32.354068 -13.224833
-16.483035 33.716803 -13.020889
-15.742439 34.863911 -13.936151
-16.119919 34.31937 -13.476074
-15.380161 33.554574 -14.188035
-15.742439 34.863911 -13.936151
-23.319341 1.791557 -4.887001
-22.939307 0.6814 -4.933218
-23.623341 0.356625 -4.524083
-22.191076 35.338907 -10.140983
-21.58361 34.213529 -10.271622
-22.187773 33.536476 -9.971566
-22.191076 35.338907 -10.140983
-22.837358 36.454584 -9.930175
-37.884142 -0.846686 6.177347
-38.016123 -1.981682 6.917887
-37.28175 -0.950703 5.36824
-37.884142 -0.846686 6.177347
-37.677816 0.301882 5.420347
-26.675075 -0.55099 -2.740852
-26.951243 -1.831148 -2.289126
-27.530081 -0.706911 -2.233645
-25.872245 -0.305382 -3.192689
-26.675075 -0.55099 -2.740852
-26.451083 0.818855 -3.137208
-25.149123 -0.037786 -3.64065
-25.373114 -1.407632 -3.244294
-25.872245 -0.305382 -3.192689
-23.623341 0.356625 -4.524083
-23.946649 -0.946784 -4.131278
-24.326683 0.163373 -4.08506
-37.938578 8.792469 2.279457
-38.073843 7.566123 2.946172
-38.178425 11.26269 1.741862
-38.45611 12.47144 1.886135
-37.781875 10.010454 1.635517
-38.178425 11.26269 1.741862
-37.614468 11.208755 0.991753
-37.37462 8.738535 1.529348
-37.938578 8.792469 2.279457
-37.781875 10.010454 1.635517
-37.468227 16.061622 -0.587339
-37.909549 16.02757 0.158352
-37.71883 17.189783 -0.354766
-16.76076 18.524664 -11.129992
-17.142661 17.872186 -10.691717
-17.021237 19.61497 -10.91096
-16.604665 17.350893 -11.369335
-16.76076 18.524664 -11.129992
-16.552266 22.229307 -11.596947
-16.93234 21.432519 -11.164127
-16.84527 23.394377 -11.411839
-16.335913 20.93381 -11.802698
-16.552266 22.229307 -11.596947
-16.248843 22.895669 -12.050409
-16.179817 19.760039 -12.04204
-16.335913 20.93381 -11.802698
-15.951792 20.457622 -12.521578
-16.179817 19.760039 -12.04204
-15.951792 20.457622 -12.521578
-15.778415 22.230712 -12.751119
-15.398712 24.630448 -13.474158
-15.687754 24.074454 -12.965406
-15.562127 25.84365 -13.193485
-15.398712 24.630448 -13.474158
-15.157929 25.352075 -14.091534
-14.515355 27.467238 -15.872089
-14.726405 26.851787 -15.243204
-14.547218 28.681346 -15.497295
-14.515355 27.467238 -15.872089
-14.359513 28.132176 -16.549529
-13.824768 31.242851 -18.216947
-13.835874 32.481416 -17.694677
-20.083263 1.103069 -7.425911
-20.44533 -0.316094 -7.161943
-20.430061 0.522398 -6.969916
-19.729944 2.407152 -7.680506
-20.083263 1.103069 -7.425911
-22.302634 1.160633 -5.398619
-22.606634 -0.274299 -5.035702
-22.939307 0.6814 -4.933218
-19.447629 3.800659 -7.931776
-19.729944 2.407152 -7.680506
-19.785678 3.335069 -7.485154
-19.163941 5.191812 -8.149299
-19.447629 3.800659 -7.931776
-18.921776 6.726659 -8.4101
-19.163941 5.191812 -8.149299
-19.261198 6.263424 -7.997224
-18.653512 8.362889 -8.66687
-18.921776 6.726659 -8.4101
-18.495414 9.948082 -8.900778
-18.653512 8.362889 -8.66687
-18.860935 9.383463 -8.491933
-18.31112 11.607725 -9.128457
-18.103697 10.587151 -9.303394
-18.495414 9.948082 -8.900778
-20.354353 31.90402 -10.512168
-20.965691 31.236978 -10.199898
-20.968969 33.07814 -10.414475
-19.774114 30.768127 -10.629735
-20.354353 31.90402 -10.512168
-19.777392 32.60929 -10.844312
-17.763492 33.420851 -12.024898
-17.284393 32.221008 -12.162325
-17.721412 31.50424 -11.780053
-17.763492 33.420851 -12.024898
-18.24175 34.580821 -11.886758
-38.377358 5.188282 4.362433
-38.226246 6.284096 3.659361
-37.978502 3.814376 4.289214
-38.519732 4.046163 5.051979
-38.377358 5.188282 4.362433
-34.752268 -3.765753 3.640394
-35.547512 -3.658735 4.395293
-35.32429 -2.487101 3.775648
-34.752268 -3.765753 3.640394
-33.93535 -3.703509 2.87062
-33.119074 -3.618615 2.16342
-32.314523 -3.62023 1.529559
-28.142994 -3.286167 -1.294284
-28.968501 -3.412999 -0.782803
-28.631757 -2.1139 -1.270439
-28.142994 -3.286167 -1.294284
-27.322769 -3.088458 -1.842952
-35.975502 25.531596 -2.63147
-36.341892 24.837193 -2.259783
-37.459301 22.327069 -0.549129
-37.334885 23.328462 -0.244483
-37.169989 22.385476 -1.248987
-37.470014 21.379549 -0.811999
-37.459301 22.327069 -0.549129
-36.895878 23.287853 -1.631385
-36.906591 22.340333 -1.894255
-37.169989 22.385476 -1.248987
-36.587824 24.086913 -2.017029
-36.895878 23.287853 -1.631385
-36.851221 24.132056 -1.371762
-36.341892 24.837193 -2.259783
-36.386549 23.99299 -2.519405
-36.587824 24.086913 -2.017029
-35.764729 25.111975 -3.142564
-35.975502 25.531596 -2.63147
-31.024926 30.645844 -6.027123
-31.3004 29.20328 -6.123896
-30.4013 31.210265 -6.388902
-31.024926 30.645844 -6.027123
-29.6923 31.832771 -6.718797
-29.931195 30.423206 -6.789918
-30.4013 31.210265 -6.388902
-29.083286 32.617453 -7.008017
-29.6923 31.832771 -6.718797
-28.444246 33.327625 -7.281685
-28.583154 31.755885 -7.393482
-29.083286 32.617453 -7.008017
-27.821846 34.055843 -7.589942
-28.444246 33.327625 -7.281685
-27.144951 34.760361 -7.881501
-27.267218 33.170575 -7.958709
-27.821846 34.055843 -7.589942
-26.556381 35.421658 -8.181897
-27.144951 34.760361 -7.881501
-27.11101 36.306927 -7.813128
-25.917303 36.179789 -8.465131
-25.951244 34.633223 -8.533504
-26.556381 35.421658 -8.181897
-25.301144 36.90435 -8.787777
-25.917303 36.179789 -8.465131
-24.650413 37.567881 -9.094368
-24.661434 36.054884 -9.12333
-25.301144 36.90435 -8.787777
-16.985052 12.753221 -11.142062
-17.245171 12.215267 -10.664923
-17.000338 13.884432 -10.884261
-16.510717 15.173115 -11.90202
-16.533682 16.171146 -11.59466
-16.304181 16.921876 -12.135281
-16.779466 13.500535 -11.700864
-16.510717 15.173115 -11.90202
-16.985052 12.753221 -11.142062
-16.779466 13.500535 -11.700864
3 0 194 196
3 196 195 48
3 194 195 196
3 0 48 50
3 1 54 52
3 3 57 55
3 3 59 57
3 1 62 60
3 1 52 62
3 2 65 64
3 4 68 66
3 197 71 198
3 199 198 69
3 197 198 199
3 200 73 201
3 202 201 71
3 200 201 202
3 203 75 204
3 4 78 76
3 4 66 78
3 7 82 80
3 205 84 206
3 207 86 208
3 209 208 84
3 207 208 209
3 211 210 86
3 212 87 213
3 8 90 88
3 8 92 90
3 5 95 93
3 9 98 96
3 9 100 98
3 9 102 100
3 10 214 216
3 216 215 103
3 214 215 216
3 10 217 218
3 6 106 104
3 11 109 107
3 11 219 221
3 221 220 109
3 219 220 221
3 11 222 223
3 225 224 110
3 12 113 111
3 226 114 227
3 228 227 49
3 226 227 228
3 230 229 114
3 231 116 232
3 12 117 51
3 12 111 117
3 16 121 119
3 18 122 53
3 18 123 122
3 19 126 124
3 21 127 56
3 21 128 127
3 21 130 128
3 233 131 234
3 235 234 58
3 233 234 235
3 237 236 131
3 23 238 239
3 23 240 242
3 240 132 241
3 240 241 242
3 24 135 133
3 26 136 61
3 26 137 136
3 26 139 137
3 16 140 63
3 16 119 140
3 27 143 141
3 29 144 67
3 29 145 144
3 13 146 112
3 30 147 70
3 30 148 147
3 30 149 148
3 31 150 72
3 31 151 150
3 33 152 74
3 33 153 152
3 14 154 115
3 34 155 77
3 34 156 155
3 34 157 156
3 27 158 79
3 27 141 158
3 35 243 245
3 245 244 159
3 243 244 245
3 36 161 81
3 36 246 248
3 248 247 161
3 246 247 248
3 15 162 118
3 37 163 83
3 37 249 251
3 251 250 163
3 249 250 251
3 37 252 253
3 38 254 256
3 256 255 85
3 254 255 256
3 38 257 258
3 38 259 260
3 39 261 262
3 39 263 265
3 263 164 264
3 263 264 265
3 17 165 120
3 40 166 89
3 40 167 166
3 40 168 167
3 41 169 91
3 41 170 169
3 28 171 142
3 42 172 94
3 42 173 172
3 20 174 125
3 43 175 97
3 43 176 175
3 43 177 176
3 44 178 99
3 44 179 178
3 44 180 179
3 45 181 101
3 45 182 181
3 22 183 129
3 266 184 267
3 268 185 269
3 270 269 184
3 268 269 270
3 272 271 185
3 32 273 275
3 273 186 274
3 273 274 275
3 46 187 105
3 46 188 187
3 25 189 134
3 47 190 108
3 47 191 190
3 47 276 278
3 278 277 191
3 276 277 278
3 280 279 138
3 281 192 282
3 284 283 192
3 285 193 286
3 287 286 160
3 285 286 287
3 48 49 12
3 288 49 289
3 290 289 48
3 288 289 290
3 292 291 49
3 50 293 295
3 293 51 294
3 293 294 295
3 48 51 50
3 48 12 51
3 52 53 16
3 54 53 52
3 54 18 53
3 55 56 19
3 57 56 55
3 57 21 56
3 57 58 21
3 59 58 57
3 59 296 298
3 298 297 58
3 296 297 298
3 299 23 300
3 60 61 24
3 62 61 60
3 62 26 61
3 62 63 26
3 52 63 62
3 52 16 63
3 64 301 302
3 65 303 305
3 305 304 64
3 303 304 305
3 65 306 307
3 66 67 27
3 68 67 66
3 68 29 67
3 69 70 13
3 71 70 69
3 71 30 70
3 71 72 30
3 73 72 71
3 73 31 72
3 308 74 309
3 75 310 312
3 310 74 311
3 310 311 312
3 75 33 74
3 76 77 14
3 78 77 76
3 78 34 77
3 78 79 34
3 66 79 78
3 66 27 79
3 80 81 35
3 82 81 80
3 82 36 81
3 313 83 314
3 315 314 15
3 313 314 315
3 84 316 318
3 316 83 317
3 316 317 318
3 84 37 83
3 84 85 37
3 86 85 84
3 86 38 85
3 86 319 321
3 321 320 38
3 319 320 321
3 324 323 86
3 322 323 324
3 87 325 326
3 87 327 329
3 327 39 328
3 327 328 329
3 88 89 17
3 90 89 88
3 90 40 89
3 90 91 40
3 92 91 90
3 92 41 91
3 93 94 28
3 95 94 93
3 95 42 94
3 96 97 20
3 98 97 96
3 98 43 97
3 98 99 43
3 100 99 98
3 100 44 99
3 100 101 44
3 102 101 100
3 102 45 101
3 331 330 22
3 103 332 334
3 332 333 334
3 337 336 103
3 335 336 337
3 104 105 32
3 106 105 104
3 106 46 105
3 107 108 25
3 109 108 107
3 109 47 108
3 109 338 340
3 340 339 47
3 338 339 340
3 342 341 109
3 110 343 344
3 346 345 110
3 111 112 4
3 113 112 111
3 113 13 112
3 49 113 12
3 114 113 49
3 114 13 113
3 114 69 13
3 347 69 348
3 349 348 114
3 347 348 349
3 351 350 69
3 352 115 353
3 116 354 356
3 354 115 355
3 354 355 356
3 116 14 115
3 51 357 359
3 357 116 358
3 357 358 359
3 117 116 51
3 117 14 116
3 117 76 14
3 111 76 117
3 111 4 76
3 360 118 361
3 362 361 7
3 360 361 362
3 363 118 364
3 365 15 366
3 367 366 118
3 365 366 367
3 368 15 369
3 371 370 15
3 119 372 374
3 372 120 373
3 372 373 374
3 121 120 119
3 121 17 120
3 53 121 16
3 122 121 53
3 122 17 121
3 122 88 17
3 123 88 122
3 123 8 88
3 124 125 5
3 126 125 124
3 126 20 125
3 56 126 19
3 127 126 56
3 127 20 126
3 127 96 20
3 128 96 127
3 128 9 96
3 128 129 9
3 130 129 128
3 130 22 129
3 58 130 21
3 131 130 58
3 131 22 130
3 131 375 377
3 377 376 22
3 375 376 377
3 379 378 131
3 380 103 381
3 132 382 384
3 382 103 383
3 382 383 384
3 132 10 103
3 133 134 6
3 135 134 133
3 135 25 134
3 61 135 24
3 136 135 61
3 136 25 135
3 136 107 25
3 137 107 136
3 137 11 107
3 137 138 11
3 139 138 137
3 139 385 387
3 387 386 138
3 385 386 387
3 63 139 26
3 140 139 63
3 140 388 390
3 390 389 139
3 388 389 390
3 140 391 393
3 391 110 392
3 391 392 393
3 119 110 140
3 119 394 396
3 396 395 110
3 394 395 396
3 141 142 1
3 143 142 141
3 143 28 142
3 67 143 27
3 144 143 67
3 144 28 143
3 144 93 28
3 145 93 144
3 145 5 93
3 112 68 4
3 146 68 112
3 146 29 68
3 70 146 13
3 147 146 70
3 147 29 146
3 147 145 29
3 148 145 147
3 148 5 145
3 148 124 5
3 149 124 148
3 149 19 124
3 72 149 30
3 150 149 72
3 150 19 149
3 150 55 19
3 151 55 150
3 151 3 55
3 397 32 398
3 74 399 400
3 152 401 403
3 403 402 74
3 401 402 403
3 152 404 406
3 404 32 405
3 404 405 406
3 152 104 32
3 153 104 152
3 153 6 104
3 115 407 409
3 407 75 408
3 407 408 409
3 154 75 115
3 154 33 75
3 77 154 14
3 155 154 77
3 155 33 154
3 155 153 33
3 156 153 155
3 156 6 153
3 156 133 6
3 157 133 156
3 157 24 133
3 79 157 34
3 158 157 79
3 158 24 157
3 158 60 24
3 141 60 158
3 141 1 60
3 159 160 2
3 410 160 411
3 412 411 159
3 410 411 412
3 414 413 160
3 81 415 417
3 417 416 35
3 415 416 417
3 161 418 420
3 420 419 81
3 418 419 420
3 161 421 422
3 161 423 424
3 426 425 161
3 118 82 7
3 162 82 118
3 162 36 82
3 83 162 15
3 163 162 83
3 163 36 162
3 163 427 429
3 429 428 36
3 427 428 429
3 431 430 163
3 85 432 434
3 434 433 37
3 432 433 434
3 436 435 85
3 438 437 38
3 164 439 441
3 439 440 441
3 164 442 443
3 120 444 446
3 444 87 445
3 444 445 446
3 165 87 120
3 165 39 87
3 89 165 17
3 166 165 89
3 166 39 165
3 166 164 39
3 167 164 166
3 167 447 449
3 449 448 164
3 447 448 449
3 167 450 451
3 168 452 454
3 454 453 167
3 452 453 454
3 168 455 456
3 91 168 40
3 169 168 91
3 169 457 459
3 459 458 168
3 457 458 459
3 169 460 462
3 460 64 461
3 460 461 462
3 170 64 169
3 170 2 64
3 142 54 1
3 171 54 142
3 171 18 54
3 94 171 28
3 172 171 94
3 172 18 171
3 172 123 18
3 173 123 172
3 173 8 123
3 125 95 5
3 174 95 125
3 174 42 95
3 97 174 20
3 175 174 97
3 175 42 174
3 175 173 42
3 176 173 175
3 176 8 173
3 176 92 8
3 177 92 176
3 177 41 92
3 99 177 43
3 178 177 99
3 178 41 177
3 178 170 41
3 179 170 178
3 179 2 170
3 179 159 2
3 180 159 179
3 180 35 159
3 101 180 44
3 181 180 101
3 181 35 180
3 181 80 35
3 182 80 181
3 182 7 80
3 129 102 9
3 183 102 129
3 183 45 102
3 463 183 464
3 465 464 22
3 463 464 465
3 184 466 468
3 466 183 467
3 466 467 468
3 184 45 183
3 184 182 45
3 185 182 184
3 185 7 182
3 185 469 471
3 471 470 7
3 469 470 471
3 473 472 185
3 186 474 475
3 186 476 478
3 476 23 477
3 476 477 478
3 105 186 32
3 187 186 105
3 187 23 186
3 187 132 23
3 188 132 187
3 188 10 132
3 134 106 6
3 189 106 134
3 189 46 106
3 108 189 25
3 190 189 108
3 190 46 189
3 190 188 46
3 191 188 190
3 191 10 188
3 191 479 481
3 481 480 10
3 479 480 481
3 483 482 191
3 485 484 47
3 138 486 488
3 488 487 11
3 486 487 488
3 490 489 138
3 492 491 0
3 192 493 494
3 192 495 497
3 495 496 497
3 192 498 500
3 498 50 499
3 498 499 500
3 501 50 502
3 503 502 192
3 501 502 503
3 504 0 505
3 506 505 50
3 504 505 506
3 508 507 0
3 509 73 510
3 511 73 512
3 513 31 514
3 515 514 73
3 513 514 515
3 516 31 517
3 518 151 519
3 520 519 31
3 518 519 520
3 521 151 522
3 523 3 524
3 525 524 151
3 523 524 525
3 526 3 527
3 526 527 528
3 529 59 530
3 531 530 3
3 529 530 531
3 532 59 533
3 536 535 59
3 534 535 536
3 160 65 2
3 193 65 160
3 193 537 539
3 539 538 65
3 537 538 539
3 540 193 541
3 540 541 542
3 543 193 544
3 546 545 193
