ply
format ascii 1.0
element vertex 452
property float x
property float y
property float z
element face 483
property list uchar int vertex_index
end_header
28.680504 -8.791149 47.526157
28.89456 -12.63067 65.377419
29.563591 0.713356 62.044571
27.179058 -0.824224 69.090874
28.238106 -21.957628 50.663063
28.205482 -18.7806 41.847904
29.650637 2.034346 53.338844
29.247784 -11.238466 56.518913
28.558199 -23.56164 60.023567
25.601391 -12.920989 71.48719
29.008778 -4.522088 39.68182
29.327812 -6.156971 63.735912
29.590677 -5.739565 59.543068
29.317705 -12.261396 61.173195
28.980986 -17.54443 58.447803
28.908365 -18.127968 62.787304
29.019955 -1.787791 46.231754
28.656271 -6.927646 43.437244
28.695898 -16.547228 37.959099
28.715515 0.05369 66.111794
28.350782 -6.81755 67.606606
28.410606 -15.479771 48.857655
28.304506 -13.964599 44.669449
28.10449 -20.45023 46.130817
28.097252 -25.463209 43.260933
29.166908 -3.526078 50.342873
29.763292 1.239056 57.687588
29.449636 -4.726768 54.908833
28.93461 -10.385562 52.00592
28.708546 -16.821257 53.641556
28.479013 -22.892418 55.316704
26.542534 -6.946466 70.432327
27.744286 -12.651102 68.893806
26.678368 -18.336227 70.078804
28.222563 -18.34071 66.850853
28.179289 -23.762646 64.520493
28.513748 -11.763564 40.746346
29.163181 -9.454471 37.109974
29.128117 -9.319344 64.648232
29.384657 -9.236359 62.428921
29.189291 -12.237556 63.411983
29.13912 -15.206285 61.972683
28.955048 -15.328976 64.166733
28.846087 -5.268698 46.908699
28.805391 -4.60809 44.807911
28.626007 -8.017879 45.447437
28.036869 -0.337223 67.726364
28.586016 -3.383439 66.805649
27.889746 -3.810384 68.368645
28.325041 -18.584995 49.756786
28.227608 -17.921047 47.43021
28.144951 -21.273241 48.271656
29.563942 2.799961 51.177032
29.7173 0.744221 59.926006
29.46316 -8.36112 58.042297
29.557728 -5.234995 57.257992
29.354431 -8.143294 55.796753
29.207113 -7.484741 53.401691
29.102806 -10.725699 54.179855
28.826504 -13.601125 52.860889
28.978006 -14.216537 55.086922
28.791769 -20.559006 59.186226
28.715899 -20.393837 56.829147
28.552031 -23.376419 57.726551
28.344521 -25.936296 56.275505
28.364847 -26.179329 58.687729
25.328949 -7.25319 71.415863
26.132841 -10.09233 71.001572
27.198412 -9.6612 69.813477
26.788277 -12.762494 70.355034
25.954441 -21.089293 70.541962
26.926394 -21.087172 69.233719
27.534742 -18.413157 68.646828
27.685003 -21.17975 67.606438
28.215271 -21.298014 65.780441
29.343702 -3.272704 37.97263
28.217178 -16.370989 43.143578
28.367683 -12.779483 42.607941
28.34025 -15.310931 41.190193
29.111229 -15.560193 36.11393
28.884506 -13.036872 37.620094
28.177227 -25.057579 51.629955
28.096039 -24.366922 49.228382
28.06838 -27.506666 50.058075
29.825687 5.368667 54.663078
29.460503 -2.825285 62.919521
29.631668 -2.613153 60.879715
29.529549 -5.875524 61.693462
29.474335 -8.938545 60.296429
29.327578 -11.828459 58.816914
29.123278 -14.480131 57.450783
29.182106 -14.939495 59.792332
28.997969 -17.910778 60.631767
28.75428 -20.894814 61.435261
29.004868 -1.097848 44.196068
28.866329 -3.41142 42.905235
28.779144 -5.731852 41.530987
28.285484 -21.319361 40.397385
28.394527 -17.868427 39.837112
28.539106 -20.153276 38.464104
29.352062 -18.170671 34.835308
29.901691 -17.17955 33.12434
29.234322 0.45608 64.168228
29.108418 -2.935666 64.983864
28.946142 -6.309189 65.747055
28.725403 -9.588573 66.489494
28.537741 -12.188941 48.238323
28.475315 -11.260719 46.12674
28.335157 -14.598533 46.679832
28.187643 -17.23461 45.338108
28.111877 -19.75231 44.047905
28.046965 -23.80965 46.760223
28.055973 -22.882643 44.611828
28.127657 -22.048231 42.47488
28.232481 -24.694777 41.078548
29.078587 -2.599353 48.289074
28.928448 -6.058114 48.972286
29.842733 4.741008 56.919456
29.735855 1.775765 55.51091
29.686588 -2.232908 58.672916
29.646524 -1.918414 56.452766
29.564186 -1.121575 54.194733
29.324244 -3.881054 52.636532
29.063845 -6.797381 51.248474
28.799728 -9.398879 49.73867
28.661047 -12.935065 50.48502
28.553684 -16.113989 51.268841
28.448294 -19.405619 52.083126
28.873386 -17.243586 56.134007
28.604496 -19.769905 54.464725
28.364742 -22.546967 53.116581
28.271669 -25.541103 53.951572
25.742682 -4.048245 70.831879
26.871109 -3.849356 69.803017
27.56139 -6.690241 69.144234
28.066465 -9.647926 68.310364
28.425491 -12.476512 67.252274
25.596386 -18.287954 71.245384
26.16905 -15.637705 70.923485
27.215023 -15.430889 69.624748
27.999527 -15.608029 68.053963
28.570753 -15.547496 66.250969
28.649145 -18.444084 64.894516
28.584133 -21.046339 63.684456
28.446772 -23.755289 62.288174
28.264477 -26.55039 61.039917
28.461546 -10.51885 44.034275
28.555489 -9.238187 42.146778
28.738831 -8.211342 40.245552
28.554245 -14.206172 39.400536
28.758186 -10.882257 38.949863
29.024437 -7.066776 38.527809
29.439056 -5.713508 36.82217
27.607964 -0.580723 68.408619
27.707032 1.092272 68.042766
27.278126 0.848771 68.725021
29.60729 2.417154 52.257938
29.66082 4.208328 51.847337
29.704168 3.82552 52.928244
29.537741 0.652929 52.570861
29.494394 1.035737 51.489955
29.60729 2.417154 52.257938
29.640445 0.728789 60.985288
29.681674 2.473102 60.56435
29.604819 2.457669 61.623632
25.867116 -11.50666 71.244381
25.508184 -10.11638 71.433845
25.242459 -11.53071 71.676654
26.994594 -22.449827 68.737602
26.588696 -22.366763 69.453243
27.373898 -22.496116 67.923962
27.305698 -21.133461 68.420078
26.994594 -22.449827 68.737602
27.690928 -22.592934 67.055046
27.373898 -22.496116 67.923962
29.139094 -2.771224 39.489725
29.002263 -3.514816 40.395544
29.17624 -3.897396 38.827225
29.306556 -2.146532 38.63513
29.139094 -2.771224 39.489725
29.227798 -13.8063 35.952443
29.357822 -14.978804 35.29098
28.099646 -27.728629 51.282873
28.122803 -26.282122 50.844015
28.15407 -26.504086 52.068813
29.876794 6.851807 55.442251
29.870064 7.008571 54.260437
29.012411 -1.442819 45.213911
29.107669 0.301137 44.893889
29.115212 -0.043834 45.911732
28.490979 -21.895387 38.764519
28.412295 -20.736319 39.430745
28.364168 -22.47843 39.73116
29.26401 -20.00216 35.005838
29.118274 -18.738972 35.743128
29.502994 -19.549896 34.15052
29.26401 -20.00216 35.005838
28.778064 1.72111 65.716492
28.453702 1.558739 66.533951
28.974919 0.254885 65.140011
29.037468 1.922305 64.744709
28.778064 1.72111 65.716492
28.040621 -25.353843 47.229944
28.071502 -24.088286 47.994303
28.065158 -25.632479 48.464024
28.076613 -24.172926 43.93638
28.048065 -24.47836 44.95736
28.068705 -25.768642 44.281912
29.122747 -3.062715 49.315973
29.195908 -1.335344 48.969196
29.240068 -1.798707 49.996096
29.803013 2.990032 57.303522
29.820392 4.552958 57.984893
29.780672 2.801982 58.36896
28.262622 -27.242032 55.590895
28.268263 -27.4006 56.710428
28.097525 -27.8613 61.530699
28.164084 -26.483842 62.168709
28.196534 -27.787795 60.329642
28.097525 -27.8613 61.530699
30.238424 -16.645117 32.234956
30.098451 -18.543426 32.346057
28.114379 1.363283 67.341236
27.707032 1.092272 68.042766
28.376192 -0.141766 66.919079
28.453702 1.558739 66.533951
28.114379 1.363283 67.341236
28.107421 -27.025821 43.65356
28.068705 -25.768642 44.281912
28.161465 -26.647535 42.550736
28.107421 -27.025821 43.65356
29.626694 4.582904 50.751667
29.66082 4.208328 51.847337
29.522486 3.167864 50.106981
29.626694 4.582904 50.751667
29.438586 1.364313 50.413175
29.522486 3.167864 50.106981
29.438586 1.364313 50.413175
29.494394 1.035737 51.489955
29.295876 -2.127283 51.072876
29.240068 -1.798707 49.996096
29.757676 2.554565 59.488169
29.681674 2.473102 60.56435
29.740296 0.991638 58.806797
29.780672 2.801982 58.36896
29.757676 2.554565 59.488169
28.278426 -27.522116 57.91654
28.268263 -27.4006 56.710428
28.354684 -26.057812 57.481617
25.106238 -8.69681 71.640991
24.659349 -7.216633 71.726208
25.730895 -8.67276 71.208718
25.106238 -8.69681 71.640991
25.508184 -10.11638 71.433845
26.10272 -22.367823 70.107365
25.509459 -22.265632 70.772705
26.440417 -21.088233 69.88784
26.10272 -22.367823 70.107365
26.588696 -22.366763 69.453243
27.956062 -22.652065 66.142047
27.950137 -21.238882 66.693439
27.690928 -22.592934 67.055046
27.938071 -23.884381 65.512073
28.19728 -22.53033 65.150467
27.956062 -22.652065 66.142047
29.485602 -1.442554 37.821446
29.306556 -2.146532 38.63513
29.549695 -2.658403 37.204639
29.485602 -1.442554 37.821446
29.114436 -12.54464 36.705524
28.997867 -14.298533 36.867012
29.227798 -13.8063 35.952443
29.253774 -10.753439 36.450464
29.023843 -11.245672 37.365034
29.114436 -12.54464 36.705524
29.399107 -8.86194 36.291765
29.253774 -10.753439 36.450464
26.761772 0.742206 69.290913
27.278126 0.848771 68.725021
28.051329 -27.202351 48.87887
28.065158 -25.632479 48.464024
28.08221 -25.936794 49.643229
28.068212 -29.002553 50.542763
28.099646 -27.728629 51.282873
28.060154 -28.72047 49.270865
28.068212 -29.002553 50.542763
28.051329 -27.202351 48.87887
28.060154 -28.72047 49.270865
29.791692 5.492681 53.590361
29.870064 7.008571 54.260437
29.738162 3.701507 54.000961
29.704168 3.82552 52.928244
29.791692 5.492681 53.590361
24.891119 -12.809658 71.886249
25.242459 -11.53071 71.676654
29.117078 0.72965 43.958059
29.107669 0.301137 44.893889
29.053047 -0.457693 43.252849
29.117078 0.72965 43.958059
28.983778 -1.614479 42.607433
29.053047 -0.457693 43.252849
28.935598 -2.254634 43.550652
28.931038 -2.959482 42.007251
28.983778 -1.614479 42.607433
28.887445 -4.119698 41.320127
28.931038 -2.959482 42.007251
28.822736 -4.571636 42.218111
28.893961 -5.12697 40.606403
29.002263 -3.514816 40.395544
28.887445 -4.119698 41.320127
28.639487 -21.500315 37.823099
28.490979 -21.895387 38.764519
28.711796 -19.730275 37.557526
28.639487 -21.500315 37.823099
28.790192 -17.927251 37.305024
28.617502 -18.350252 38.211602
28.711796 -19.730275 37.557526
28.997858 -17.433733 36.382439
28.903564 -16.053711 37.036515
28.790192 -17.927251 37.305024
29.231645 -16.865432 35.474619
28.997858 -17.433733 36.382439
29.118274 -18.738972 35.743128
29.478238 -16.284043 34.651668
29.357822 -14.978804 35.29098
29.231645 -16.865432 35.474619
29.626877 -17.67511 33.979824
29.753052 -15.788483 33.796184
29.478238 -16.284043 34.651668
29.777809 -19.054336 33.295036
29.626877 -17.67511 33.979824
29.502994 -19.549896 34.15052
30.098451 -18.543426 32.346057
29.777809 -19.054336 33.295036
29.457447 2.233668 62.655105
29.604819 2.457669 61.623632
29.292813 2.10503 63.716934
29.037468 1.922305 64.744709
29.398956 0.584718 63.106399
29.457447 2.233668 62.655105
29.292813 2.10503 63.716934
28.043561 -24.941863 46.031557
28.040621 -25.353843 47.229944
28.051469 -23.346147 45.686025
28.043561 -24.941863 46.031557
28.048065 -24.47836 44.95736
28.337666 -24.166138 40.071741
28.364168 -22.47843 39.73116
28.258983 -23.007069 40.737966
28.22908 -26.263319 41.459543
28.164867 -25.078993 42.169741
28.161465 -26.647535 42.550736
28.325243 -25.986079 40.358846
28.22908 -26.263319 41.459543
28.321842 -27.554621 40.739841
28.337666 -24.166138 40.071741
28.325243 -25.986079 40.358846
29.129774 -0.515108 46.910832
29.115212 -0.043834 45.911732
29.15909 -0.920889 47.939492
29.195908 -1.335344 48.969196
29.049271 -2.193572 47.260414
29.129774 -0.515108 46.910832
29.15909 -0.920889 47.939492
29.859262 6.480372 57.598909
29.820392 4.552958 57.984893
29.885317 6.537978 56.57044
29.859262 6.480372 57.598909
29.83421 5.054837 55.791267
29.876794 6.851807 55.442251
29.885317 6.537978 56.57044
29.494515 -0.925032 52.998806
29.537741 0.652929 52.570861
29.607411 0.456386 53.766789
29.374544 -2.304771 52.219706
29.494515 -0.925032 52.998806
29.444215 -2.501314 53.415633
29.245576 -3.703566 51.489702
29.295876 -2.127283 51.072876
29.374544 -2.304771 52.219706
28.201291 -26.745847 53.229622
28.15407 -26.504086 52.068813
28.224448 -25.299341 52.790763
28.226196 -27.044435 54.428928
28.308095 -25.738699 55.113539
28.262622 -27.242032 55.590895
28.201291 -26.745847 53.229622
28.226196 -27.044435 54.428928
26.611901 -0.86157 69.649674
26.761772 0.742206 69.290913
24.882075 -5.704534 71.480823
24.659349 -7.216633 71.726208
25.088942 -4.102062 71.188831
24.882075 -5.704534 71.480823
25.535815 -5.650717 71.123871
25.237903 -2.616404 70.930481
25.088942 -4.102062 71.188831
25.893712 -2.47358 70.520176
25.388934 -1.04174 70.618778
25.237903 -2.616404 70.930481
26.457926 -2.374136 70.005745
25.893712 -2.47358 70.520176
26.306895 -3.9488 70.317448
27.025084 -2.33679 69.446945
26.611901 -0.86157 69.649674
26.457926 -2.374136 70.005745
25.274121 -14.181947 71.688076
24.891119 -12.809658 71.886249
25.359867 -20.891353 71.083519
25.509459 -22.265632 70.772705
25.180839 -19.490683 71.43523
25.359867 -20.891353 71.083519
25.775413 -19.688623 70.893673
24.925224 -18.144261 71.700863
25.180839 -19.490683 71.43523
25.271619 -16.865429 71.567173
24.925224 -18.144261 71.700863
25.557951 -15.540305 71.406224
25.271619 -16.865429 71.567173
25.882718 -16.962829 71.084435
25.88522 -14.279347 71.205337
25.274121 -14.181947 71.688076
25.557951 -15.540305 71.406224
27.922179 -25.136844 64.947888
27.938071 -23.884381 65.512073
28.12149 -25.08997 63.908997
27.922179 -25.136844 64.947888
28.255231 -25.086292 62.792837
28.31303 -23.758968 63.404333
28.12149 -25.08997 63.908997
28.355624 -25.152839 61.664046
28.255231 -25.086292 62.792837
28.164084 -26.483842 62.168709
28.24672 -27.602265 59.153548
28.314662 -26.36486 59.863823
28.196534 -27.787795 60.329642
28.278426 -27.522116 57.91654
28.24672 -27.602265 59.153548
29.597372 -3.878805 36.62941
29.549695 -2.658403 37.204639
29.391379 -4.493106 37.3974
29.537045 -6.991459 36.147863
29.301119 -7.583989 36.966072
29.399107 -8.86194 36.291765
29.696682 -5.071723 36.000732
29.537045 -6.991459 36.147863
29.597372 -3.878805 36.62941
29.696682 -5.071723 36.000732
30.050842 -15.361903 32.952947
29.753052 -15.788483 33.796184
30.050842 -15.361903 32.952947
30.238424 -16.645117 32.234956
3 1 40 38
3 1 42 40
3 0 45 43
3 3 153 155
3 153 46 154
3 153 154 155
3 3 48 46
3 4 51 49
3 6 156 158
3 156 52 157
3 156 157 158
3 6 159 161
3 161 160 52
3 159 160 161
3 2 162 164
3 162 53 163
3 162 163 164
3 7 56 54
3 7 58 56
3 7 60 58
3 8 63 61
3 8 65 63
3 9 165 167
3 165 67 166
3 165 166 167
3 9 69 67
3 168 71 169
3 170 73 171
3 172 171 71
3 170 171 172
3 174 173 73
3 10 175 176
3 10 177 179
3 177 75 178
3 177 178 179
3 5 78 76
3 181 180 79
3 182 83 183
3 184 183 81
3 182 183 184
3 185 84 186
3 11 87 85
3 13 88 39
3 13 89 88
3 13 91 89
3 15 92 41
3 15 93 92
3 16 187 189
3 187 94 188
3 187 188 189
3 17 95 44
3 17 96 95
3 190 99 191
3 192 191 97
3 190 191 192
3 193 100 194
3 196 195 100
3 19 197 198
3 19 199 201
3 199 102 200
3 199 200 201
3 19 103 102
3 20 104 47
3 20 105 104
3 21 108 106
3 23 109 50
3 23 110 109
3 202 111 203
3 204 203 82
3 202 203 204
3 24 205 207
3 205 112 206
3 205 206 207
3 24 113 112
3 24 114 113
3 25 208 210
3 208 115 209
3 208 209 210
3 25 116 115
3 26 211 213
3 211 117 212
3 211 212 213
3 26 118 117
3 12 119 86
3 27 120 55
3 27 121 120
3 27 122 121
3 28 123 57
3 28 124 123
3 28 125 124
3 29 126 59
3 29 127 126
3 14 128 90
3 30 129 62
3 30 130 129
3 30 131 130
3 215 214 64
3 31 132 66
3 31 133 132
3 31 134 133
3 32 135 68
3 32 136 135
3 33 137 70
3 33 138 137
3 33 139 138
3 34 140 72
3 34 141 140
3 34 142 141
3 35 143 74
3 35 144 143
3 216 145 217
3 219 218 145
3 22 146 107
3 36 147 77
3 36 148 147
3 18 149 98
3 37 150 80
3 37 151 150
3 37 152 151
3 221 220 101
3 38 39 11
3 40 39 38
3 40 13 39
3 40 41 13
3 42 41 40
3 42 15 41
3 43 44 16
3 45 44 43
3 45 17 44
3 46 222 223
3 46 224 226
3 224 19 225
3 224 225 226
3 46 47 19
3 48 47 46
3 48 20 47
3 49 50 21
3 51 50 49
3 51 23 50
3 227 24 228
3 230 229 24
3 52 231 232
3 52 233 234
3 52 235 236
3 238 237 52
3 239 25 240
3 53 241 242
3 53 243 245
3 243 26 244
3 243 244 245
3 54 55 12
3 56 55 54
3 56 27 55
3 56 57 27
3 58 57 56
3 58 28 57
3 58 59 28
3 60 59 58
3 60 29 59
3 61 62 14
3 63 62 61
3 63 30 62
3 63 64 30
3 65 64 63
3 65 246 248
3 248 247 64
3 246 247 248
3 249 66 250
3 67 251 253
3 251 66 252
3 251 252 253
3 67 31 66
3 67 68 31
3 69 68 67
3 69 32 68
3 254 70 255
3 71 256 258
3 256 70 257
3 256 257 258
3 71 33 70
3 71 72 33
3 73 72 71
3 73 34 72
3 73 74 34
3 259 74 260
3 261 260 73
3 259 260 261
3 262 35 263
3 264 263 74
3 262 263 264
3 75 265 266
3 75 267 268
3 76 77 22
3 78 77 76
3 78 36 77
3 79 80 18
3 269 80 270
3 271 270 79
3 269 270 271
3 272 37 273
3 274 273 80
3 272 273 274
3 276 275 37
3 277 3 278
3 81 82 4
3 83 82 81
3 83 279 281
3 281 280 82
3 279 280 281
3 282 83 283
3 284 83 285
3 287 286 83
3 84 288 289
3 84 290 292
3 290 6 291
3 290 291 292
3 85 86 2
3 87 86 85
3 87 12 86
3 39 87 11
3 88 87 39
3 88 12 87
3 88 54 12
3 89 54 88
3 89 7 54
3 89 90 7
3 91 90 89
3 91 14 90
3 41 91 13
3 92 91 41
3 92 14 91
3 92 61 14
3 93 61 92
3 93 8 61
3 293 9 294
3 94 295 296
3 94 297 298
3 44 94 16
3 95 94 44
3 95 299 301
3 301 300 94
3 299 300 301
3 95 302 303
3 96 304 306
3 306 305 95
3 304 305 306
3 96 307 309
3 307 10 308
3 307 308 309
3 97 98 5
3 99 98 97
3 99 18 98
3 310 99 311
3 312 99 313
3 314 18 315
3 316 315 99
3 314 315 316
3 317 79 318
3 319 318 18
3 317 318 319
3 100 320 322
3 320 79 321
3 320 321 322
3 100 323 325
3 325 324 79
3 323 324 325
3 100 326 328
3 326 101 327
3 326 327 328
3 329 101 330
3 331 330 100
3 329 330 331
3 333 332 101
3 334 2 335
3 102 336 337
3 102 338 340
3 338 2 339
3 338 339 340
3 102 85 2
3 103 85 102
3 103 11 85
3 47 103 19
3 104 103 47
3 104 11 103
3 104 38 11
3 105 38 104
3 105 1 38
3 106 107 0
3 108 107 106
3 108 22 107
3 50 108 21
3 109 108 50
3 109 22 108
3 109 76 22
3 110 76 109
3 110 5 76
3 82 51 4
3 111 51 82
3 111 23 51
3 341 111 342
3 112 343 345
3 343 111 344
3 343 344 345
3 112 23 111
3 112 110 23
3 113 110 112
3 113 5 110
3 113 97 5
3 114 97 113
3 114 346 348
3 348 347 97
3 346 347 348
3 349 114 350
3 351 350 24
3 349 350 351
3 352 114 353
3 352 353 354
3 356 355 114
3 357 16 358
3 115 359 360
3 115 361 363
3 361 16 362
3 361 362 363
3 115 43 16
3 116 43 115
3 116 0 43
3 117 364 365
3 117 366 367
3 117 368 370
3 368 84 369
3 368 369 370
3 118 84 117
3 118 6 84
3 86 53 2
3 119 53 86
3 119 26 53
3 55 119 12
3 120 119 55
3 120 26 119
3 120 118 26
3 121 118 120
3 121 6 118
3 121 371 373
3 373 372 6
3 371 372 373
3 122 374 376
3 376 375 121
3 374 375 376
3 122 377 379
3 377 25 378
3 377 378 379
3 57 122 27
3 123 122 57
3 123 25 122
3 123 116 25
3 124 116 123
3 124 0 116
3 124 106 0
3 125 106 124
3 125 21 106
3 59 125 28
3 126 125 59
3 126 21 125
3 126 49 21
3 127 49 126
3 127 4 49
3 90 60 7
3 128 60 90
3 128 29 60
3 62 128 14
3 129 128 62
3 129 29 128
3 129 127 29
3 130 127 129
3 130 4 127
3 130 81 4
3 131 81 130
3 131 380 382
3 382 381 81
3 380 381 382
3 64 131 30
3 383 131 384
3 385 384 64
3 383 384 385
3 387 386 131
3 388 3 389
3 66 390 391
3 132 392 394
3 394 393 66
3 392 393 394
3 132 395 396
3 132 397 399
3 397 398 399
3 133 400 402
3 402 401 132
3 400 401 402
3 133 403 405
3 403 3 404
3 403 404 405
3 133 48 3
3 134 48 133
3 134 20 48
3 68 134 31
3 135 134 68
3 135 20 134
3 135 105 20
3 136 105 135
3 136 1 105
3 406 9 407
3 70 408 409
3 137 410 412
3 412 411 70
3 410 411 412
3 137 413 414
3 137 415 416
3 138 417 419
3 419 418 137
3 417 418 419
3 138 420 422
3 420 9 421
3 420 421 422
3 138 69 9
3 139 69 138
3 139 32 69
3 72 139 33
3 140 139 72
3 140 32 139
3 140 136 32
3 141 136 140
3 141 1 136
3 141 42 1
3 142 42 141
3 142 15 42
3 74 142 34
3 143 142 74
3 143 15 142
3 143 93 15
3 144 93 143
3 144 8 93
3 423 35 424
3 425 35 426
3 427 144 428
3 429 428 35
3 427 428 429
3 145 430 432
3 430 144 431
3 430 431 432
3 145 8 144
3 145 65 8
3 433 65 434
3 435 434 145
3 433 434 435
3 437 436 65
3 107 45 0
3 146 45 107
3 146 17 45
3 77 146 22
3 147 146 77
3 147 17 146
3 147 96 17
3 148 96 147
3 148 10 96
3 98 78 5
3 149 78 98
3 149 36 78
3 80 149 18
3 150 149 80
3 150 36 149
3 150 148 36
3 151 148 150
3 151 10 148
3 151 75 10
3 152 75 151
3 152 438 440
3 440 439 75
3 438 439 440
3 441 152 442
3 443 442 37
3 441 442 443
3 444 152 445
3 447 446 152
3 101 448 449
3 451 450 101
