ply
format ascii 1.0
element vertex 387
property float x
property float y
property float z
element face 369
property list uchar int vertex_index
end_header
0.5548 -5.926605 -56.475021
4.192447 1.464197 -64.315552
-5.337533 -24.225563 -43.484829
-1.063585 -19.281502 -50.507858
3.276666 -12.904658 -58.049446
-1.829467 -15.735155 -49.787899
0.018994 -12.405716 -53.646061
1.010359 -16.184998 -54.27874
1.822868 -9.245955 -57.461948
6.537355 5.13424 -67.67247
0.772224 0.269692 -58.9641
2.216322 -2.296621 -60.43998
2.399963 4.149558 -62.92609
4.38378 7.966296 -66.592293
6.877362 11.333016 -69.608589
-12.419728 -32.357655 -34.255943
-9.778469 -31.729252 -37.428913
-7.402918 -30.551376 -40.555077
-5.095305 -28.862911 -43.810589
-3.150345 -22.178856 -46.874313
-2.741199 -26.643578 -47.294666
-0.313185 -23.653267 -50.944824
2.110324 -20.65889 -54.440292
3.881884 -5.460009 -61.390991
-0.187276 -7.91672 -54.538074
-0.496717 -10.981037 -53.115528
0.418395 -9.149856 -55.229706
0.903224 -11.004333 -55.503853
1.20045 -7.611361 -57.026817
1.565351 2.026477 -60.917099
1.537877 5.146084 -61.881367
3.377861 12.09609 -66.312279
3.367403 8.98342 -65.647995
4.455795 10.946624 -67.375572
5.571274 9.674022 -68.190063
-11.090792 -32.299232 -35.805538
-7.478789 -28.212496 -40.424713
-6.295749 -27.279675 -42.038826
-6.297534 -29.814312 -42.087658
-5.201573 -26.502409 -43.607555
-1.477997 -17.583488 -50.072868
-2.454705 -19.042572 -48.278233
-2.140401 -20.919077 -48.58535
-2.90076 -24.261385 -47.154205
-1.784299 -22.756624 -48.974686
-1.544715 -25.140055 -49.096497
-0.687689 -21.315855 -50.789398
2.104189 -14.575431 -56.173569
1.487695 -18.462677 -54.328495
2.724533 -16.728132 -56.225857
3.994829 -15.186477 -57.963272
3.149287 -0.463107 -62.391533
3.034404 -3.895882 -60.985645
4.054132 -2.051349 -62.865501
5.946186 -5.674436 -63.17345
-1.377998 -12.684284 -51.175453
-0.899588 -14.219607 -51.647255
-0.480963 -15.855569 -52.032215
-0.047427 -17.916796 -52.328354
0.498485 -14.361269 -53.961105
1.474319 -12.67296 -55.895691
2.475217 -10.87838 -57.806614
5.33193 3.177706 -66.037338
5.157576 -0.082036 -64.69735
6.478463 1.576932 -66.388847
0.746679 -2.78056 -57.868763
1.387166 -4.405021 -58.402397
1.477161 -1.032351 -59.718678
2.356532 0.976919 -61.804794
3.266929 2.66871 -63.646534
2.386391 7.18167 -63.8139
3.356908 5.936368 -64.806267
4.261058 4.704139 -65.493065
5.339029 6.420121 -67.097672
6.678727 8.22253 -68.707405
-15.925651 -34.923943 -30.059273
-14.655306 -35.192177 -31.49086
-13.32722 -35.126633 -33.051865
-12.131828 -34.964134 -34.501732
-10.962366 -34.786701 -35.972473
-9.77703 -34.288868 -37.512875
-8.68283 -28.859293 -38.867172
-8.517778 -31.086393 -39.054737
-2.73509 -16.902384 -48.139992
-3.434168 -20.203009 -46.609863
-4.228986 -23.34951 -45.141541
-4.074644 -25.454817 -45.30817
-3.875439 -27.66745 -45.605007
-1.291693 -27.587633 -49.169716
0.023568 -26.220226 -50.917969
0.441343 -19.838053 -52.652508
0.874867 -22.144991 -52.70406
1.340593 -24.798794 -52.602962
2.711498 -23.288736 -54.272991
2.099387 -5.73664 -59.052517
2.859688 -7.337517 -59.515053
3.578204 -9.159481 -59.692738
5.013029 -3.787439 -63.144722
4.749162 -7.263549 -61.558277
4.426479 -11.031843 -59.842384
0.183762 -6.921663 -55.506547
-0.101342 -6.305632 -55.208044
0.269697 -5.310574 -56.176518
1.115191 5.685437 -61.329555
1.161871 4.213898 -60.944162
4.47069 12.510312 -67.644863
3.916828 11.521357 -66.843926
3.931723 13.085045 -67.113216
5.057208 11.824118 -68.129497
4.47069 12.510312 -67.644863
-5.816641 -25.752619 -42.761827
-6.401154 -26.278261 -41.937697
-5.922046 -24.751206 -42.660698
-1.185746 -11.082828 -51.925258
-1.597908 -11.804775 -51.046888
0.392829 -0.68687 -57.967165
0.415099 0.874772 -58.546009
0.759451 -1.255434 -58.416432
0.380056 -2.211996 -57.419497
0.392829 -0.68687 -57.967165
2.416506 8.697156 -64.238081
1.948364 7.668134 -63.257858
7.533893 10.619573 -69.86227
7.434576 9.064329 -69.411678
6.778045 9.777773 -69.157997
-15.451702 -33.790386 -30.732664
-16.194655 -33.742745 -29.937848
-14.816529 -33.924504 -31.448457
-15.290478 -35.05806 -30.775067
-15.451702 -33.790386 -30.732664
-13.06821 -32.558821 -33.51334
-12.635459 -31.191139 -34.149997
-12.873474 -33.742144 -33.653904
-13.521956 -33.94331 -32.911301
-13.06821 -32.558821 -33.51334
-8.208427 -27.492977 -39.543039
-8.896828 -27.861194 -38.695351
-8.002914 -32.155214 -39.821136
-8.560344 -32.422722 -39.070966
-7.960348 -30.818885 -39.804907
-7.378036 -31.812098 -40.674031
-8.002914 -32.155214 -39.821136
-5.671411 -30.553957 -43.06296
-6.272526 -31.029657 -42.201494
-5.696419 -29.338611 -42.949123
-5.073569 -30.045569 -43.891939
-5.671411 -30.553957 -43.06296
-2.282278 -16.31877 -48.963946
-2.494247 -15.392375 -48.812613
-2.041435 -14.80876 -49.636566
-3.302993 -28.497093 -46.461557
-3.870113 -29.009028 -45.616727
-3.308319 -27.155514 -46.449837
-2.668289 -27.843665 -47.339899
-3.302993 -28.497093 -46.461557
5.595189 -2.950934 -63.950333
5.085303 -1.934737 -63.921036
5.667463 -1.098232 -64.726647
5.249605 -8.231355 -61.595447
5.347674 -6.468993 -62.365864
5.848117 -7.436798 -62.403034
5.088264 -10.115502 -60.737501
4.58782 -9.147696 -60.70033
5.249605 -8.231355 -61.595447
4.868005 -12.149553 -59.791082
5.088264 -10.115502 -60.737501
-0.487411 -7.130597 -54.266361
-0.101342 -6.305632 -55.208044
-0.590385 -8.699046 -53.606569
-0.487411 -7.130597 -54.266361
-0.341997 -9.448878 -53.826801
-0.745105 -10.231204 -52.895296
-0.590385 -8.699046 -53.606569
7.165879 4.196015 -67.766666
7.281128 5.805098 -68.370709
0.779044 1.775702 -59.485529
0.415099 0.874772 -58.546009
1.175607 2.654095 -60.462029
1.168788 1.148084 -59.9406
0.779044 1.775702 -59.485529
1.551614 3.58628 -61.399233
1.175607 2.654095 -60.462029
1.161871 4.213898 -60.944162
3.372632 10.539755 -65.980137
2.907012 9.598031 -65.155128
2.912241 11.154366 -65.48727
5.614947 11.187817 -68.536743
5.013535 10.310323 -67.782817
5.057208 11.824118 -68.129497
6.267991 12.017314 -69.246006
6.224318 10.503519 -68.899326
5.614947 11.187817 -68.536743
-11.940678 -31.130612 -34.904278
-12.635459 -31.191139 -34.149997
-11.27621 -31.101401 -35.679075
-11.75526 -32.328444 -35.030741
-11.940678 -31.130612 -34.904278
-10.58847 -30.867256 -36.476812
-11.27621 -31.101401 -35.679075
-9.932309 -30.582266 -37.2885
-10.434631 -32.014242 -36.617226
-10.58847 -30.867256 -36.476812
-6.992674 -26.744672 -41.13064
-7.606407 -27.169579 -40.32181
-6.887269 -27.746085 -41.231769
-6.992674 -26.744672 -41.13064
-6.401154 -26.278261 -41.937697
3.081781 -17.942394 -56.188505
2.774676 -19.907773 -55.295723
2.417428 -18.693511 -55.333074
3.716929 -17.171567 -57.057213
3.081781 -17.942394 -56.188505
3.359681 -15.957304 -57.094565
4.407545 -16.214987 -57.94154
3.716929 -17.171567 -57.057213
6.619497 -4.871412 -63.955568
6.061768 -3.894432 -63.964697
6.49899 -6.720555 -63.130432
6.619497 -4.871412 -63.955568
5.848117 -7.436798 -62.403034
6.49899 -6.720555 -63.130432
2.851509 12.534797 -65.651817
2.912241 11.154366 -65.48727
3.389326 13.557398 -66.514035
2.851509 12.534797 -65.651817
3.931723 13.085045 -67.113216
3.389326 13.557398 -66.514035
-5.520313 -23.254866 -43.334816
-5.922046 -24.751206 -42.660698
-1.815701 -13.283325 -50.330343
-1.597908 -11.804775 -51.046888
-1.603733 -14.20972 -50.481676
-2.041435 -14.80876 -49.636566
-1.815701 -13.283325 -50.330343
-0.937358 -11.83266 -52.14549
-1.185746 -11.082828 -51.925258
-0.745105 -10.231204 -52.895296
6.327906 -0.268748 -65.572395
5.667463 -1.098232 -64.726647
5.81802 0.747448 -65.543098
7.136433 2.417361 -67.124855
6.507909 3.355586 -67.030659
7.165879 4.196015 -67.766666
7.005235 0.575081 -66.359745
7.136433 2.417361 -67.124855
6.327906 -0.268748 -65.572395
7.005235 0.575081 -66.359745
0.365636 -3.737552 -56.873389
0.380056 -2.211996 -57.419497
0.65074 -4.353582 -57.171892
0.269697 -5.310574 -56.176518
0.365636 -3.737552 -56.873389
1.524107 6.650341 -62.291592
1.115191 5.685437 -61.329555
1.962134 6.163877 -62.847634
1.524107 6.650341 -62.291592
1.948364 7.668134 -63.257858
2.876897 8.082545 -64.730947
2.416506 8.697156 -64.238081
2.907012 9.598031 -65.155128
7.351814 7.349243 -68.888176
7.281128 5.805098 -68.370709
6.608041 6.678385 -68.189937
7.351814 7.349243 -68.888176
7.434576 9.064329 -69.411678
7.013527 12.864224 -69.962963
6.267991 12.017314 -69.246006
7.665727 12.162738 -70.261917
7.013527 12.864224 -69.962963
7.533893 10.619573 -69.86227
7.665727 12.162738 -70.261917
-16.576815 -34.90658 -29.316843
-16.194655 -33.742745 -29.937848
-16.309293 -36.207825 -29.464517
-16.576815 -34.90658 -29.316843
-15.759799 -36.275574 -30.133952
-16.309293 -36.207825 -29.464517
-15.124626 -36.409691 -30.849746
-15.759799 -36.275574 -30.133952
-15.290478 -35.05806 -30.775067
-14.558616 -36.438425 -31.54875
-15.124626 -36.409691 -30.849746
-14.185999 -33.976082 -32.130798
-14.816529 -33.924504 -31.448457
-13.991263 -35.159405 -32.271363
-14.185999 -33.976082 -32.130798
-13.521956 -33.94331 -32.911301
-13.894573 -36.405653 -32.329252
-14.558616 -36.438425 -31.54875
-13.991263 -35.159405 -32.271363
-13.299131 -36.384907 -33.080527
-13.894573 -36.405653 -32.329252
-12.701435 -36.303657 -33.80546
-13.299131 -36.384907 -33.080527
-12.729524 -35.045383 -33.776798
-12.127914 -36.229139 -34.549233
-12.701435 -36.303657 -33.80546
-11.543183 -36.140422 -35.284603
-12.127914 -36.229139 -34.549233
-11.547097 -34.875417 -35.237102
-10.95429 -36.000231 -36.06909
-11.543183 -36.140422 -35.284603
-10.361622 -35.751314 -36.839291
-10.95429 -36.000231 -36.06909
-10.369698 -34.537785 -36.742674
-9.791462 -35.553411 -37.61264
-10.361622 -35.751314 -36.839291
-9.38449 -29.147286 -38.007629
-8.896828 -27.861194 -38.695351
-9.230649 -30.294272 -38.148043
-9.932309 -30.582266 -37.2885
-9.38449 -29.147286 -38.007629
-8.080809 -28.535895 -39.645942
-8.208427 -27.492977 -39.543039
-7.606407 -27.169579 -40.32181
-9.189971 -34.02396 -38.300035
-9.147404 -32.68763 -38.283806
-8.560344 -32.422722 -39.070966
-9.791462 -35.553411 -37.61264
-9.189971 -34.02396 -38.300035
-6.825344 -31.443566 -41.440321
-7.378036 -31.812098 -40.674031
-6.850226 -30.182844 -41.321367
-6.825344 -31.443566 -41.440321
-6.272526 -31.029657 -42.201494
-4.912684 -22.781363 -44.211027
-5.520313 -23.254866 -43.334816
-2.971759 -16.074058 -47.953091
-2.494247 -15.392375 -48.812613
-3.257861 -17.62497 -47.246943
-2.971759 -16.074058 -47.953091
-3.6074 -19.275283 -46.481878
-3.257861 -17.62497 -47.246943
-3.084629 -18.552697 -47.374927
-3.961002 -20.770086 -45.773544
-3.6074 -19.275283 -46.481878
-4.35841 -22.343336 -45.039383
-3.961002 -20.770086 -45.773544
-3.831577 -21.77626 -45.875702
-4.783259 -23.787537 -44.313185
-4.912684 -22.781363 -44.211027
-4.35841 -22.343336 -45.039383
-4.463636 -29.447839 -44.789148
-5.073569 -30.045569 -43.891939
-4.485372 -28.26518 -44.707798
-4.463636 -29.447839 -44.789148
-3.870113 -29.009028 -45.616727
-2.070047 -27.091903 -48.240814
-2.668289 -27.843665 -47.339899
-2.142957 -25.891817 -48.195582
-1.943536 -28.315692 -48.277424
-2.070047 -27.091903 -48.240814
-1.418204 -26.363844 -49.133106
-1.835273 -29.608205 -48.32974
-1.943536 -28.315692 -48.277424
-1.166078 -28.954233 -49.143696
-1.835273 -29.608205 -48.32974
-0.508447 -28.27053 -50.017823
-1.166078 -28.954233 -49.143696
-0.634062 -26.90393 -50.043842
0.204444 -27.53541 -50.861439
-0.508447 -28.27053 -50.017823
0.862956 -26.824694 -51.703936
0.204444 -27.53541 -50.861439
0.68208 -25.50951 -51.760465
1.617565 -26.014396 -52.564527
0.862956 -26.824694 -51.703936
2.303018 -25.259367 -53.399542
1.617565 -26.014396 -52.564527
2.026045 -24.043765 -53.437976
3.063897 -24.423735 -54.22541
2.303018 -25.259367 -53.399542
3.075264 -21.222696 -55.212072
2.410911 -21.973813 -54.356641
2.774676 -19.907773 -55.295723
3.471999 -22.340535 -55.171183
3.075264 -21.222696 -55.212072
3.063897 -24.423735 -54.22541
3.471999 -22.340535 -55.171183
5.479608 -4.730937 -63.159086
5.595189 -2.950934 -63.950333
6.061768 -3.894432 -63.964697
4.652181 -14.226869 -58.851526
4.210654 -13.10916 -58.902828
4.868005 -12.149553 -59.791082
4.407545 -16.214987 -57.94154
4.652181 -14.226869 -58.851526
3 0 100 102
3 100 24 101
3 100 101 102
3 0 26 24
3 0 28 26
3 103 30 104
3 105 33 106
3 107 106 31
3 105 106 107
3 109 108 33
3 2 110 112
3 110 37 111
3 110 111 112
3 2 39 37
3 3 42 40
3 3 44 42
3 3 46 44
3 4 49 47
3 4 50 49
3 1 53 51
3 113 55 114
3 6 56 25
3 6 57 56
3 6 59 57
3 8 60 27
3 8 61 60
3 9 64 62
3 10 115 116
3 10 117 119
3 117 65 118
3 117 118 119
3 10 67 65
3 12 68 29
3 12 69 68
3 120 70 121
3 13 71 32
3 13 72 71
3 13 73 72
3 14 74 34
3 14 122 124
3 124 123 74
3 122 123 124
3 125 75 126
3 127 76 128
3 129 128 75
3 127 128 129
3 15 130 131
3 15 132 134
3 132 77 133
3 132 133 134
3 15 78 77
3 16 79 35
3 16 80 79
3 135 81 136
3 17 82 36
3 17 137 139
3 139 138 82
3 137 138 139
3 17 140 141
3 18 142 144
3 144 143 38
3 142 143 144
3 18 145 146
3 5 147 149
3 147 83 148
3 147 148 149
3 19 84 41
3 19 85 84
3 19 86 85
3 20 87 43
3 20 150 152
3 152 151 87
3 150 151 152
3 20 153 154
3 21 88 45
3 21 89 88
3 7 90 58
3 22 91 48
3 22 92 91
3 22 93 92
3 11 94 66
3 23 95 52
3 23 96 95
3 155 97 156
3 157 156 63
3 155 156 157
3 158 98 159
3 160 159 54
3 158 159 160
3 161 99 162
3 163 162 98
3 161 162 163
3 165 164 99
3 24 166 167
3 24 168 169
3 24 170 172
3 170 25 171
3 170 171 172
3 26 25 24
3 26 6 25
3 26 27 6
3 28 27 26
3 28 8 27
3 174 173 9
3 175 10 176
3 177 29 178
3 179 178 10
3 177 178 179
3 30 180 182
3 180 29 181
3 180 181 182
3 30 12 29
3 31 183 185
3 183 32 184
3 183 184 185
3 33 32 31
3 33 13 32
3 33 34 13
3 186 34 187
3 188 187 33
3 186 187 188
3 189 14 190
3 191 190 34
3 189 190 191
3 192 15 193
3 194 35 195
3 196 195 15
3 194 195 196
3 197 35 198
3 199 16 200
3 201 200 35
3 199 200 201
3 202 36 203
3 37 204 206
3 204 36 205
3 204 205 206
3 37 17 36
3 37 38 17
3 39 38 37
3 39 18 38
3 40 41 5
3 42 41 40
3 42 19 41
3 42 43 19
3 44 43 42
3 44 20 43
3 44 45 20
3 46 45 44
3 46 21 45
3 47 48 7
3 49 48 47
3 49 22 48
3 49 207 209
3 209 208 22
3 207 208 209
3 50 210 212
3 212 211 49
3 210 211 212
3 50 213 214
3 51 52 11
3 53 52 51
3 53 23 52
3 215 54 216
3 217 54 218
3 220 219 54
3 221 31 222
3 223 31 224
3 226 225 31
3 227 2 228
3 55 229 230
3 55 231 233
3 231 5 232
3 231 232 233
3 25 234 236
3 234 55 235
3 234 235 236
3 56 55 25
3 56 5 55
3 56 40 5
3 57 40 56
3 57 3 40
3 57 58 3
3 59 58 57
3 59 7 58
3 27 59 6
3 60 59 27
3 60 7 59
3 60 47 7
3 61 47 60
3 61 4 47
3 62 63 1
3 64 63 62
3 64 237 239
3 239 238 63
3 237 238 239
3 240 64 241
3 242 241 9
3 240 241 242
3 243 64 244
3 246 245 64
3 65 247 248
3 65 249 251
3 249 0 250
3 249 250 251
3 65 66 0
3 67 66 65
3 67 11 66
3 29 67 10
3 68 67 29
3 68 11 67
3 68 51 11
3 69 51 68
3 69 1 51
3 252 30 253
3 70 254 256
3 254 30 255
3 254 255 256
3 70 12 30
3 32 257 259
3 257 70 258
3 257 258 259
3 71 70 32
3 71 12 70
3 71 69 12
3 72 69 71
3 72 1 69
3 72 62 1
3 73 62 72
3 73 9 62
3 34 73 13
3 74 73 34
3 74 9 73
3 74 260 262
3 262 261 9
3 260 261 262
3 264 263 74
3 265 14 266
3 267 14 268
3 270 269 14
3 75 271 272
3 75 273 274
3 75 275 276
3 76 277 279
3 279 278 75
3 277 278 279
3 76 280 281
3 282 76 283
3 77 284 286
3 284 76 285
3 284 285 286
3 77 287 289
3 289 288 76
3 287 288 289
3 77 290 291
3 78 292 294
3 294 293 77
3 292 293 294
3 78 295 296
3 35 78 15
3 79 78 35
3 79 297 299
3 299 298 78
3 297 298 299
3 79 300 301
3 80 302 304
3 304 303 79
3 302 303 304
3 80 305 306
3 81 307 308
3 81 309 311
3 309 16 310
3 309 310 311
3 36 312 314
3 312 81 313
3 312 313 314
3 82 81 36
3 82 16 81
3 82 80 16
3 315 80 316
3 317 316 82
3 315 316 317
3 319 318 80
3 38 320 322
3 322 321 17
3 320 321 322
3 324 323 38
3 325 2 326
3 83 327 328
3 83 329 330
3 41 83 5
3 84 83 41
3 84 331 333
3 333 332 83
3 331 332 333
3 84 334 335
3 85 336 338
3 338 337 84
3 336 337 338
3 85 339 341
3 339 2 340
3 339 340 341
3 85 39 2
3 86 39 85
3 86 18 39
3 43 86 19
3 87 86 43
3 87 18 86
3 87 342 344
3 344 343 18
3 342 343 344
3 346 345 87
3 45 347 349
3 349 348 20
3 347 348 349
3 88 350 352
3 352 351 45
3 350 351 352
3 88 353 354
3 88 355 356
3 89 357 359
3 359 358 88
3 357 358 359
3 89 360 361
3 58 46 3
3 90 46 58
3 90 21 46
3 48 90 7
3 91 90 48
3 91 21 90
3 91 89 21
3 92 89 91
3 92 362 364
3 364 363 89
3 362 363 364
3 92 365 366
3 93 367 369
3 369 368 92
3 367 368 369
3 93 370 371
3 372 93 373
3 374 373 22
3 372 373 374
3 375 93 376
3 378 377 93
3 66 28 0
3 94 28 66
3 94 8 28
3 52 94 11
3 95 94 52
3 95 8 94
3 95 61 8
3 96 61 95
3 96 4 61
3 63 53 1
3 97 53 63
3 97 23 53
3 54 379 381
3 379 97 380
3 379 380 381
3 98 97 54
3 98 23 97
3 98 96 23
3 99 96 98
3 99 4 96
3 99 50 4
3 382 50 383
3 384 383 99
3 382 383 384
3 386 385 50
