ply
format ascii 1.0
element vertex 241
property float x
property float y
property float z
element face 208
property list uchar int vertex_index
end_header
25.632113 89.413521 -42.811924
24.82262 60.057564 -49.763691
29.439291 73.700485 -45.47966
28.110184 57.738396 -48.044163
24.915897 49.992142 -49.442528
22.829159 95.744423 -40.258305
26.109947 75.874786 -47.629223
27.91448 81.965805 -44.419552
24.046295 99.690994 -34.920139
21.533321 52.553974 -50.746738
27.460667 66.965721 -48.12368
30.610626 64.266983 -45.756851
29.563812 56.010357 -46.95565
24.421047 92.742065 -41.551613
24.786673 86.938141 -44.758392
25.997536 83.190941 -45.542343
26.741947 85.835358 -43.793594
25.422731 97.017639 -36.621826
23.058401 60.620899 -50.366348
23.225677 55.969437 -50.322517
27.890471 74.709412 -46.661285
26.971066 71.59964 -47.885418
28.599699 70.30751 -46.901653
29.128727 65.877716 -46.993347
30.116743 69.338753 -45.632694
26.467558 58.791035 -49.01778
25.02733 55.202999 -49.635536
26.644598 53.911701 -48.810814
26.53229 48.700047 -48.551121
25.146719 79.89183 -47.165707
27.003448 79.201065 -46.179169
28.680634 78.055885 -45.06205
21.969336 100.228447 -36.122536
23.457481 97.918961 -37.688511
24.88242 95.20105 -39.116322
26.158886 92.035446 -40.506947
27.386852 88.497841 -41.633953
19.828234 48.715607 -51.051674
23.296026 51.555119 -50.169823
22.653254 65.412933 -50.29285
24.478035 64.582169 -49.761036
25.132185 72.711441 -48.702583
25.786932 68.408546 -48.925125
26.193184 63.576321 -49.061352
27.853582 62.367455 -48.153023
29.4877 60.898407 -46.995319
28.479362 84.655067 -42.539288
29.581429 53.596626 -46.83674
30.279384 55.192351 -46.304901
24.632464 89.86554 -43.243713
24.02693 91.529811 -42.613558
25.02658 91.077793 -42.181769
25.209393 88.175831 -43.785158
24.209744 88.627849 -44.216948
24.632464 89.86554 -43.243713
27.277918 48.03013 -48.043997
27.337508 50.638859 -48.202916
28.083135 49.968942 -47.695791
26.364286 46.254219 -48.408028
27.277918 48.03013 -48.043997
21.774589 96.00169 -40.573187
22.079557 97.120231 -39.388618
24.611081 81.866394 -46.803362
24.127123 80.290501 -47.503302
23.276365 100.856136 -33.980312
24.240558 100.421661 -33.502967
23.007815 99.959721 -35.521338
22.237885 101.124863 -34.58151
23.276365 100.856136 -33.980312
25.826463 94.639152 -38.522465
25.152575 96.109344 -37.869074
26.096618 95.547447 -37.275217
26.464696 93.05635 -39.217777
25.520653 93.618248 -39.811634
25.826463 94.639152 -38.522465
27.016524 91.489182 -39.839626
26.464696 93.05635 -39.217777
20.679625 53.028126 -50.951629
21.477604 54.815321 -50.788902
20.680777 50.63479 -50.899206
19.827081 51.108942 -51.104097
20.679625 53.028126 -50.951629
23.256761 67.254143 -49.968339
22.263441 67.604679 -50.211326
24.169151 66.838761 -49.702433
23.565644 64.997551 -50.026943
23.256761 67.254143 -49.968339
25.621066 74.293114 -48.165903
24.683613 74.637806 -48.552106
25.172494 76.219479 -48.015427
30.742216 61.747806 -45.769598
30.180753 60.063519 -46.388832
30.049163 62.582695 -46.376085
28.687356 86.012058 -41.430439
27.933107 86.576454 -42.08662
28.141101 87.933445 -40.977772
28.853268 54.294014 -47.40518
28.126455 55.158034 -47.949436
28.836998 56.874376 -47.499906
28.853268 54.294014 -47.40518
29.581429 53.596626 -46.83674
23.310485 93.037246 -42.01495
22.514541 94.538425 -41.368296
23.625103 94.243244 -40.904959
23.310485 93.037246 -42.01495
24.02693 91.529811 -42.613558
23.798229 87.275841 -45.120964
24.209744 88.627849 -44.216948
24.431058 85.38955 -45.599705
23.798229 87.275841 -45.120964
25.392105 85.064541 -45.150368
25.03649 83.51595 -45.99168
24.431058 85.38955 -45.599705
25.0055 99.145973 -34.312822
24.240558 100.421661 -33.502967
25.693718 97.809296 -35.163666
24.734513 98.354317 -35.770983
25.0055 99.145973 -34.312822
26.247474 96.499211 -35.954008
25.693718 97.809296 -35.163666
26.096618 95.547447 -37.275217
26.247474 96.499211 -35.954008
22.240144 58.848783 -50.598707
22.136249 61.105152 -50.583149
22.323782 56.523052 -50.576791
22.240144 58.848783 -50.598707
23.142039 58.295168 -50.344432
22.379499 54.261705 -50.534627
21.477604 54.815321 -50.788902
22.323782 56.523052 -50.576791
24.016851 48.314982 -49.693214
24.79849 47.626888 -49.309643
27.393662 53.244686 -48.332762
27.377391 55.825049 -48.427488
28.126455 55.158034 -47.949436
26.588444 51.305874 -48.680968
27.393662 53.244686 -48.332762
27.337508 50.638859 -48.202916
25.606686 46.980841 -48.86394
24.79849 47.626888 -49.309643
25.724094 49.346094 -48.996825
25.606686 46.980841 -48.86394
26.364286 46.254219 -48.408028
21.774589 96.00169 -40.573187
22.514541 94.538425 -41.368296
24.69088 78.228001 -47.783668
24.127123 80.290501 -47.503302
25.628333 77.883308 -47.397465
25.172494 76.219479 -48.015427
24.69088 78.228001 -47.783668
25.572128 81.541385 -46.354025
24.611081 81.866394 -46.803362
25.03649 83.51595 -45.99168
21.191825 101.342568 -35.048077
22.237885 101.124863 -34.58151
20.849339 100.509628 -36.382086
21.191825 101.342568 -35.048077
21.649645 99.362244 -37.320734
20.849339 100.509628 -36.382086
22.393718 98.2075 -38.103721
21.649645 99.362244 -37.320734
22.713408 99.073704 -36.905524
23.14332 96.831692 -38.973408
22.079557 97.120231 -39.388618
22.393718 98.2075 -38.103721
27.630508 89.720379 -40.403129
26.772869 90.266643 -41.07045
27.016524 91.489182 -39.839626
28.141101 87.933445 -40.977772
27.630508 89.720379 -40.403129
18.99487 49.34179 -51.235894
19.827081 51.108942 -51.104097
18.898017 46.95458 -51.200804
18.99487 49.34179 -51.235894
23.206915 49.09647 -50.056862
24.105961 50.77363 -49.806176
24.016851 48.314982 -49.693214
22.421487 49.688303 -50.359526
23.206915 49.09647 -50.056862
21.540134 50.187731 -50.647983
22.414673 52.054547 -50.458281
22.421487 49.688303 -50.359526
20.68759 48.268547 -50.800451
20.680777 50.63479 -50.899206
21.540134 50.187731 -50.647983
19.756494 46.408804 -50.963633
20.68759 48.268547 -50.800451
18.826277 44.647778 -51.112763
18.898017 46.95458 -51.200804
19.756494 46.408804 -50.963633
21.638321 65.697868 -50.492887
22.263441 67.604679 -50.211326
21.933675 63.501169 -50.5464
21.638321 65.697868 -50.492887
22.855828 63.016916 -50.329599
22.136249 61.105152 -50.583149
21.933675 63.501169 -50.5464
24.125839 73.110668 -49.020189
24.683613 74.637806 -48.552106
24.496226 70.903396 -49.173206
24.125839 73.110668 -49.020189
24.8236 68.751949 -49.284477
24.496226 70.903396 -49.173206
25.459558 70.559993 -48.813854
25.132483 66.495357 -49.34308
24.169151 66.838761 -49.702433
24.8236 68.751949 -49.284477
30.218809 57.619494 -46.368997
29.525756 58.454382 -46.975485
30.180753 60.063519 -46.388832
30.279384 55.192351 -46.304901
30.218809 57.619494 -46.368997
29.239507 84.021221 -41.781891
28.687356 86.012058 -41.430439
28.957075 82.804989 -42.821039
29.239507 84.021221 -41.781891
28.674634 81.460358 -43.761172
28.196921 83.310436 -43.47942
28.957075 82.804989 -42.821039
29.057711 79.505398 -44.08242
28.297557 80.010845 -44.740801
28.674634 81.460358 -43.761172
29.455345 77.337383 -44.389692
29.057711 79.505398 -44.08242
29.834674 75.159683 -44.598498
29.059963 75.878185 -45.270855
29.455345 77.337383 -44.389692
30.180334 72.928917 -44.789162
29.834674 75.159683 -44.598498
30.51906 70.748051 -44.865679
29.778017 71.519619 -45.556177
30.180334 72.928917 -44.789162
30.764198 68.397042 -45.031191
30.51906 70.748051 -44.865679
31.01114 65.861156 -45.093269
30.363684 66.802868 -45.694772
30.764198 68.397042 -45.031191
31.255717 63.477198 -45.09155
31.01114 65.861156 -45.093269
30.742216 61.747806 -45.769598
31.255717 63.477198 -45.09155
3 48 47 12
3 0 49 51
3 51 50 13
3 49 50 51
3 0 52 54
3 52 14 53
3 52 53 54
3 0 16 14
3 1 19 18
3 2 22 20
3 2 24 22
3 3 27 25
3 55 28 56
3 55 56 57
3 59 58 28
3 5 60 61
3 62 29 63
3 7 30 15
3 7 31 30
3 8 64 65
3 8 66 68
3 66 32 67
3 66 67 68
3 8 33 32
3 69 34 70
3 71 70 17
3 69 70 71
3 72 35 73
3 74 73 34
3 72 73 74
3 76 75 35
3 9 77 78
3 9 79 81
3 79 37 80
3 79 80 81
3 4 38 26
3 82 39 83
3 84 40 85
3 86 85 39
3 84 85 86
3 6 87 89
3 87 41 88
3 87 88 89
3 10 42 21
3 10 43 42
3 10 44 43
3 11 45 23
3 11 90 92
3 92 91 45
3 90 91 92
3 93 46 94
3 95 94 36
3 93 94 95
3 12 96 98
3 98 97 3
3 96 97 98
3 100 99 12
3 13 101 103
3 103 102 5
3 101 102 103
3 105 104 13
3 14 106 107
3 14 108 109
3 14 110 112
3 110 15 111
3 110 111 112
3 16 15 14
3 16 7 15
3 113 8 114
3 115 17 116
3 117 116 8
3 115 116 117
3 118 17 119
3 121 120 17
3 18 122 123
3 19 124 126
3 126 125 18
3 124 125 126
3 19 127 129
3 127 9 128
3 127 128 129
3 131 130 4
3 20 21 6
3 22 21 20
3 22 10 21
3 22 23 10
3 24 23 22
3 24 11 23
3 25 26 1
3 27 26 25
3 27 4 26
3 132 27 133
3 134 133 3
3 132 133 134
3 28 135 137
3 135 27 136
3 135 136 137
3 28 4 27
3 28 138 140
3 140 139 4
3 138 139 140
3 142 141 28
3 144 143 5
3 29 145 146
3 29 147 149
3 147 6 148
3 147 148 149
3 15 150 152
3 150 29 151
3 150 151 152
3 30 29 15
3 30 6 29
3 30 20 6
3 31 20 30
3 31 2 20
3 32 153 154
3 32 155 156
3 32 157 158
3 33 159 161
3 161 160 32
3 159 160 161
3 33 162 164
3 162 5 163
3 162 163 164
3 17 33 8
3 34 33 17
3 34 5 33
3 34 13 5
3 35 13 34
3 35 0 13
3 35 36 0
3 165 36 166
3 167 166 35
3 165 166 167
3 169 168 36
3 37 170 171
3 37 172 173
3 26 19 1
3 38 19 26
3 38 9 19
3 174 38 175
3 176 175 4
3 174 175 176
3 177 38 178
3 179 9 180
3 181 180 38
3 179 180 181
3 182 37 183
3 184 183 9
3 182 183 184
3 185 37 186
3 189 188 37
3 187 188 189
3 39 190 191
3 39 192 193
3 39 194 196
3 194 18 195
3 194 195 196
3 40 18 39
3 40 1 18
3 41 197 198
3 41 199 200
3 21 41 6
3 42 41 21
3 42 201 203
3 203 202 41
3 201 202 203
3 42 204 206
3 204 40 205
3 204 205 206
3 43 40 42
3 43 1 40
3 43 25 1
3 44 25 43
3 44 3 25
3 23 44 10
3 45 44 23
3 45 3 44
3 45 12 3
3 207 12 208
3 209 208 45
3 207 208 209
3 211 210 12
3 36 16 0
3 46 16 36
3 46 7 16
3 212 46 213
3 214 46 215
3 216 7 217
3 218 217 46
3 216 217 218
3 219 31 220
3 221 220 7
3 219 220 221
3 222 31 223
3 224 2 225
3 226 225 31
3 224 225 226
3 227 2 228
3 229 24 230
3 231 230 2
3 229 230 231
3 232 24 233
3 234 11 235
3 236 235 24
3 234 235 236
3 237 11 238
3 240 239 11
