ply
format ascii 1.0
element vertex 417
property float x
property float y
property float z
element face 394
property list uchar int vertex_index
end_header
-13.316051 36.363949 -35.584911
-19.391895 2.872742 -8.127129
-18.007877 7.659054 -12.466965
-18.0562 13.802598 -18.963219
-18.624992 20.254309 -27.019445
-15.575725 31.472279 -35.687916
-14.810169 34.042225 -40.267891
-11.662385 37.875607 -48.197468
-9.322148 38.728363 -51.628181
-18.287991 8.927508 -9.075715
-18.463007 5.149936 -10.052222
-17.229885 11.084056 -10.922724
-16.230066 16.608232 -15.998266
-16.190016 19.445681 -19.333155
-18.339746 16.929882 -22.7379
-16.212175 22.463911 -23.036602
-16.180943 25.545992 -27.059589
-12.388013 38.535378 -39.677521
-13.58235 36.124573 -44.329529
-20.105057 -0.186176 -9.313561
-16.545025 13.870604 -13.204623
-17.879644 10.739916 -15.518682
-18.595924 23.715982 -31.446669
-16.009592 28.638962 -31.392138
-13.849681 33.982151 -31.40609
-14.432503 33.811165 -35.726913
-15.270519 32.762138 -37.992081
-14.087134 34.980064 -37.828056
-9.16335 40.095531 -49.378063
-7.974351 40.239117 -50.975651
-7.991905 38.897263 -52.979141
-6.601257 40.393776 -52.200508
-17.680931 10.016174 -9.983852
-15.379498 21.401518 -17.92137
-15.278069 22.798264 -19.421021
-16.167105 21.002132 -21.078781
-15.265424 24.079512 -21.217133
-15.2485 25.413963 -23.072367
-11.751978 39.464539 -41.733471
-12.988426 37.199242 -41.910824
-12.313851 38.0256 -44.003769
-20.098532 0.264577 -7.617939
-20.448156 -1.321406 -8.158638
-19.573792 1.341 -8.623466
-18.187748 6.366603 -11.236007
-18.939486 3.784047 -10.903828
-18.899349 4.935702 -12.30174
-18.781252 6.472972 -13.627369
-16.281216 15.923846 -12.44264
-15.955761 17.196974 -13.574436
-17.022732 14.99946 -17.32328
-17.028635 13.557409 -15.774843
-18.021559 12.057032 -17.191223
-18.992441 9.394492 -16.877457
-19.099089 11.037191 -18.608725
-19.350479 12.591399 -20.554586
-18.467791 18.599268 -24.796453
-19.697002 16.089666 -24.651888
-18.647655 21.963923 -29.179874
-15.140961 28.375967 -27.197815
-16.102434 27.15029 -29.202421
-14.987549 29.965441 -29.308411
-14.826483 31.343603 -31.318218
-13.973822 32.790565 -29.121758
-16.868378 29.212368 -35.895966
-16.580814 30.560791 -38.049179
-16.182898 31.903732 -40.397114
-11.384958 38.885056 -45.963177
-10.302217 39.628517 -47.728668
-10.535795 38.438168 -49.948914
-18.82452 5.655047 -8.562175
-18.854284 3.98446 -9.093593
-18.213932 6.96517 -9.51785
-17.812361 7.961078 -10.502017
-17.461205 9.355723 -11.584221
-15.683294 18.643145 -14.938807
-15.497595 19.997566 -16.303665
-16.110556 18.263489 -17.575699
-17.05678 16.529177 -19.037724
-18.243303 15.249807 -20.823168
-17.180286 17.907843 -20.852716
-17.22645 19.573307 -22.790682
-17.295561 21.22258 -24.884769
-17.382967 22.796227 -27.066935
-16.221636 23.984699 -25.035986
-15.170922 26.961756 -25.035849
-12.942736 37.409317 -37.630112
-13.557428 36.205601 -39.878819
-14.224134 35.185528 -42.27549
-12.722005 37.019463 -46.477886
-19.228737 2.400791 -9.719756
-19.854162 1.188882 -10.597087
-16.818712 12.578685 -12.040328
-17.264912 10.547316 -12.837445
-16.34495 15.244954 -14.526538
-17.053362 12.201303 -14.220966
-17.911816 9.189933 -13.990303
-18.882116 7.851509 -15.208751
-19.4585 14.378564 -22.489334
-17.315573 24.415728 -29.045631
-17.225269 26.036341 -31.201534
-17.097431 27.643225 -33.543755
-15.891695 29.970045 -33.542442
-14.70295 32.543152 -33.55238
-13.624011 35.2132 -33.606567
-7.348762 41.115609 -50.604489
-8.002721 40.992205 -49.882183
-6.662215 41.192938 -51.216917
-7.287804 40.316446 -51.588079
-7.348762 41.115609 -50.604489
-14.914136 24.483712 -19.631842
-14.972991 23.86223 -18.782696
-14.907813 25.124336 -20.529898
-15.271746 23.438888 -20.319077
-14.914136 24.483712 -19.631842
-14.848757 25.808464 -21.396235
-14.907813 25.124336 -20.529898
-11.682668 39.085325 -43.866194
-12.032915 38.745069 -42.86862
-11.401731 39.804794 -42.731045
-15.714033 18.918216 -13.752148
-15.913428 18.256023 -13.180716
-19.224495 19.08444 -26.924861
-19.145895 18.256919 -25.813365
-18.546391 19.426789 -25.907949
-19.309719 19.956001 -28.088577
-19.224495 19.08444 -26.924861
-18.636323 21.109116 -28.09966
-19.32105 20.810808 -29.168792
-19.309719 19.956001 -28.088577
-14.571269 30.680327 -28.253683
-15.064255 29.170704 -28.253113
-14.647975 29.88559 -27.198384
-14.064405 32.092889 -28.160356
-14.480685 31.378003 -29.215084
-14.571269 30.680327 -28.253683
-15.165859 33.684374 -41.475212
-15.852224 32.615127 -41.539823
-15.496534 32.972979 -40.332503
-9.73847 40.531166 -47.40744
-10.225985 40.269558 -46.574831
-9.97521 38.065027 -51.998962
-10.582033 37.919929 -51.159329
-9.928971 38.583265 -50.788547
-9.353101 38.103269 -52.820518
-9.97521 38.065027 -51.998962
-7.880894 38.247498 -54.085292
-7.194307 38.914879 -53.559652
-15.190857 21.715492 -16.470864
-15.318465 21.018037 -15.760111
-14.742397 27.935887 -24.167957
-15.209711 26.18786 -24.054108
-14.781186 27.161991 -23.186217
-14.718478 28.513029 -25.12049
-14.742397 27.935887 -24.167957
-14.259322 35.223324 -44.57189
-14.580214 34.753801 -43.544871
-13.903242 35.655051 -43.302509
-20.591981 -1.396086 -9.12017
-20.763531 -1.963701 -8.542708
-20.276606 -0.753791 -8.736099
-20.49118 -0.740105 -9.778996
-20.591981 -1.396086 -9.12017
-19.821286 1.830438 -11.26955
-19.396824 2.486465 -10.750457
-19.363948 3.12802 -11.422921
-20.316611 0.686911 -11.138884
-19.821286 1.830438 -11.26955
-19.517584 8.254974 -16.834975
-19.651449 8.977818 -17.711428
-20.290174 14.994442 -24.573165
-20.397213 15.896663 -25.669444
-19.271221 23.408771 -32.559329
-19.294536 22.54277 -31.382779
-18.548654 24.543526 -32.604384
-19.271221 23.408771 -32.559329
-8.59722 40.920412 -49.083389
-9.169037 40.764673 -48.232138
-8.56885 40.167324 -50.176857
-8.59722 40.920412 -49.083389
-8.002721 40.992205 -49.882183
-6.498983 39.663136 -53.170336
-7.194307 38.914879 -53.559652
-7.296581 39.64552 -52.589824
-17.800167 11.131484 -9.757462
-17.984461 9.471841 -9.529784
-18.103697 10.587151 -9.303394
-17.470694 11.681327 -10.195487
-17.800167 11.131484 -9.757462
-17.245171 12.215267 -10.664923
-17.455408 10.550115 -10.453288
-17.470694 11.681327 -10.195487
-15.023706 23.163857 -18.032871
-15.131809 22.417468 -17.279716
-15.328784 22.099891 -18.671195
-15.023706 23.163857 -18.032871
-14.972991 23.86223 -18.782696
-14.840295 26.47569 -22.323853
-15.256962 24.746738 -22.14475
-14.848757 25.808464 -21.396235
-14.781186 27.161991 -23.186217
-14.840295 26.47569 -22.323853
-12.376351 37.031153 -48.619074
-11.778144 37.405135 -49.451756
-20.273344 -0.528415 -7.888288
-20.700972 -1.868329 -7.656833
-20.526159 -1.075338 -7.386483
-19.343879 3.703848 -12.121876
-19.363948 3.12802 -11.422921
-18.919418 4.359875 -11.602784
-19.361628 4.384328 -12.84977
-19.343879 3.703848 -12.121876
-19.302579 5.152963 -13.512584
-19.361628 4.384328 -12.84977
-18.8403 5.704337 -12.964555
-19.333616 5.975345 -14.333239
-19.302579 5.152963 -13.512584
-16.076155 17.619459 -12.614818
-16.304181 16.921876 -12.135281
-16.118489 16.56041 -13.008538
-16.076155 17.619459 -12.614818
-15.913428 18.256023 -13.180716
-19.704773 9.799167 -18.577062
-19.651449 8.977818 -17.711428
-19.045765 10.215841 -17.743091
-19.791826 10.6671 -19.512101
-19.704773 9.799167 -18.577062
-19.917521 11.444204 -20.485031
-19.791826 10.6671 -19.512101
-19.224784 11.814295 -19.581656
-20.003428 12.413251 -21.535267
-19.917521 11.444204 -20.485031
-19.7605 17.002118 -25.741083
-19.082397 17.344467 -24.72417
-19.145895 18.256919 -25.813365
-20.397213 15.896663 -25.669444
-19.7605 17.002118 -25.741083
-19.320401 21.666741 -30.249381
-19.32105 20.810808 -29.168792
-18.621789 22.839953 -30.313271
-19.294536 22.54277 -31.382779
-19.320401 21.666741 -30.249381
-17.4497 28.833211 -37.104853
-17.593151 28.078235 -35.966797
-17.305919 29.507422 -38.18146
-17.4497 28.833211 -37.104853
-16.724596 29.886579 -36.972572
-17.113599 30.244231 -39.39209
-17.305919 29.507422 -38.18146
-16.914642 30.915701 -40.566057
-17.113599 30.244231 -39.39209
-16.381856 31.232261 -39.223146
-16.609193 31.640363 -41.678719
-16.914642 30.915701 -40.566057
-16.609193 31.640363 -41.678719
-15.852224 32.615127 -41.539823
-10.767356 39.897827 -45.692086
-11.218221 39.515053 -44.845898
-10.843587 39.256787 -46.845923
-10.767356 39.897827 -45.692086
-10.225985 40.269558 -46.574831
-9.732784 39.862024 -48.553365
-9.73847 40.531166 -47.40744
-9.169037 40.764673 -48.232138
-11.214849 37.686415 -50.327478
-11.778144 37.405135 -49.451756
-11.09909 38.156887 -49.073191
-11.214849 37.686415 -50.327478
-10.582033 37.919929 -51.159329
-8.687979 38.18772 -53.495998
-9.353101 38.103269 -52.820518
-8.657027 38.812813 -52.303661
-8.687979 38.18772 -53.495998
-7.880894 38.247498 -54.085292
-15.411314 20.340827 -15.077682
-15.5778 19.641302 -14.434334
-15.590445 19.320355 -15.621236
-15.411314 20.340827 -15.077682
-15.318465 21.018037 -15.760111
-15.438547 20.699542 -17.112517
-15.190857 21.715492 -16.470864
-15.131809 22.417468 -17.279716
-14.703498 29.220135 -26.201473
-15.155942 27.668861 -26.116832
-14.718478 28.513029 -25.12049
-14.647975 29.88559 -27.198384
-14.703498 29.220135 -26.201473
-12.630168 38.200914 -36.634823
-13.129393 36.886633 -36.607512
-12.816826 37.67823 -35.612223
-12.421625 38.682722 -37.579023
-12.630168 38.200914 -36.634823
-12.144263 39.245753 -38.602728
-12.665375 37.972347 -38.653816
-12.421625 38.682722 -37.579023
-11.886688 39.672625 -39.596367
-12.144263 39.245753 -38.602728
-11.56867 40.137206 -40.624342
-12.069996 38.999959 -40.705496
-11.886688 39.672625 -39.596367
-11.236496 40.556487 -41.585178
-11.56867 40.137206 -40.624342
-11.401731 39.804794 -42.731045
-11.236496 40.556487 -41.585178
-20.44533 -0.316094 -7.161943
-20.526159 -1.075338 -7.386483
-20.083263 1.103069 -7.425911
-20.44533 -0.316094 -7.161943
-19.729944 2.407152 -7.680506
-19.745213 1.56866 -7.872534
-20.083263 1.103069 -7.425911
-19.447629 3.800659 -7.931776
-19.729944 2.407152 -7.680506
-19.163941 5.191812 -8.149299
-19.108207 4.263895 -8.344652
-19.447629 3.800659 -7.931776
-18.921776 6.726659 -8.4101
-19.163941 5.191812 -8.149299
-18.653512 8.362889 -8.66687
-18.556255 7.291277 -8.818945
-18.921776 6.726659 -8.4101
-18.495414 9.948082 -8.900778
-18.653512 8.362889 -8.66687
-18.103697 10.587151 -9.303394
-18.495414 9.948082 -8.900778
-14.872841 34.256025 -42.479011
-15.165859 33.684374 -41.475212
-14.517152 34.613877 -41.27169
-14.872841 34.256025 -42.479011
-14.580214 34.753801 -43.544871
-11.849404 38.455328 -44.983473
-11.682668 39.085325 -43.866194
-11.218221 39.515053 -44.845898
-12.906161 36.603081 -47.759283
-12.192195 37.447535 -47.337677
-12.376351 37.031153 -48.619074
-13.386692 36.202305 -46.693014
-12.906161 36.603081 -47.759283
-13.816865 35.75486 -45.618836
-13.152178 36.572018 -45.403707
-13.386692 36.202305 -46.693014
-14.259322 35.223324 -44.57189
-13.816865 35.75486 -45.618836
-20.919964 -2.515421 -7.959491
-20.700972 -1.868329 -7.656833
-20.919964 -2.515421 -7.959491
-20.763531 -1.963701 -8.542708
-20.365733 -0.052576 -10.420758
-20.49118 -0.740105 -9.778996
-19.979609 0.501353 -9.955324
-20.365733 -0.052576 -10.420758
-20.316611 0.686911 -11.138884
-16.985052 12.753221 -11.142062
-17.245171 12.215267 -10.664923
-16.510717 15.173115 -11.90202
-16.304181 16.921876 -12.135281
-16.779466 13.500535 -11.700864
-16.510717 15.173115 -11.90202
-16.549964 14.251265 -12.241484
-17.024299 11.831371 -11.481526
-16.985052 12.753221 -11.142062
-16.779466 13.500535 -11.700864
-15.819527 17.92006 -14.256622
-15.714033 18.918216 -13.752148
-15.5778 19.641302 -14.434334
-19.384048 6.664613 -15.123929
-19.333616 5.975345 -14.333239
-18.831684 7.162241 -14.41806
-19.462421 7.483483 -16.000622
-18.937278 8.623 -16.043104
-19.517584 8.254974 -16.834975
-19.384048 6.664613 -15.123929
-19.462421 7.483483 -16.000622
-20.057438 13.306833 -22.502641
-20.003428 12.413251 -21.535267
-19.40449 13.484981 -21.52196
-20.170924 14.138891 -23.491888
-19.577751 15.234115 -23.570611
-20.290174 14.994442 -24.573165
-20.057438 13.306833 -22.502641
-20.170924 14.138891 -23.491888
-17.863327 25.703705 -32.481817
-18.548654 24.543526 -32.604384
-17.910597 24.876162 -31.324101
-17.799408 26.507147 -33.652927
-17.863327 25.703705 -32.481817
-17.16135 26.839783 -32.372644
-17.707678 27.293663 -34.790691
-17.799408 26.507147 -33.652927
-16.982905 28.427796 -34.71986
-17.593151 28.078235 -35.966797
-17.707678 27.293663 -34.790691
-13.635108 33.670786 -28.223802
-14.064405 32.092889 -28.160356
-13.562057 34.217911 -29.230691
-13.635108 33.670786 -28.223802
-13.499986 34.813704 -30.372857
-13.911752 33.386358 -30.263924
-13.562057 34.217911 -29.230691
-13.385877 35.418171 -31.394534
-13.499986 34.813704 -30.372857
-13.273041 36.033696 -32.494772
-13.736846 34.597676 -32.506328
-13.385877 35.418171 -31.394534
-13.162876 36.516959 -33.585342
-13.273041 36.033696 -32.494772
-13.008896 37.092333 -34.574514
-13.470031 35.788574 -34.595739
-13.162876 36.516959 -33.585342
-12.816826 37.67823 -35.612223
-13.008896 37.092333 -34.574514
-5.985201 41.169174 -51.863764
-6.662215 41.192938 -51.216917
-5.846584 40.377201 -52.729429
-5.985201 41.169174 -51.863764
-6.498983 39.663136 -53.170336
-5.846584 40.377201 -52.729429
3 0 27 25
3 105 29 106
3 107 31 108
3 109 108 29
3 107 108 109
3 110 34 111
3 112 36 113
3 114 113 34
3 112 113 114
3 116 115 36
3 117 40 118
3 119 118 38
3 117 118 119
3 1 43 41
3 2 46 44
3 2 47 46
3 120 49 121
3 3 52 50
3 3 54 52
3 3 55 54
3 4 122 124
3 124 123 56
3 122 123 124
3 4 125 126
3 4 127 129
3 127 58 128
3 127 128 129
3 130 61 131
3 132 131 59
3 130 131 132
3 133 63 134
3 135 134 61
3 133 134 135
3 5 65 64
3 6 66 26
3 6 136 138
3 138 137 66
3 136 137 138
3 139 68 140
3 8 69 28
3 8 141 143
3 143 142 69
3 141 142 143
3 8 144 145
3 147 146 30
3 9 72 70
3 11 73 32
3 11 74 73
3 148 76 149
3 13 77 33
3 13 78 77
3 13 80 78
3 15 81 35
3 15 82 81
3 15 84 82
3 150 85 151
3 152 151 37
3 150 151 152
3 154 153 85
3 17 87 86
3 18 88 39
3 18 155 157
3 157 156 88
3 155 156 157
3 7 89 67
3 19 158 160
3 160 159 42
3 158 159 160
3 19 161 162
3 10 90 71
3 163 91 164
3 165 164 45
3 163 164 165
3 167 166 91
3 20 92 48
3 20 93 92
3 12 94 75
3 21 95 51
3 21 96 95
3 21 97 96
3 169 168 53
3 14 98 79
3 171 170 57
3 22 172 173
3 22 174 175
3 16 99 83
3 23 100 60
3 23 101 100
3 23 102 101
3 24 103 62
3 24 104 103
3 25 26 5
3 27 26 25
3 27 6 26
3 176 28 177
3 29 178 180
3 178 28 179
3 178 179 180
3 29 8 28
3 29 30 8
3 31 30 29
3 31 181 183
3 183 182 30
3 181 182 183
3 184 32 185
3 186 185 9
3 184 185 186
3 187 32 188
3 189 11 190
3 191 190 32
3 189 190 191
3 192 33 193
3 34 194 196
3 194 33 195
3 194 195 196
3 34 13 33
3 34 35 13
3 36 35 34
3 36 15 35
3 36 37 15
3 197 37 198
3 199 198 36
3 197 198 199
3 201 200 37
3 38 39 17
3 40 39 38
3 40 18 39
3 203 202 7
3 41 204 206
3 204 42 205
3 204 205 206
3 43 42 41
3 43 19 42
3 44 45 10
3 46 45 44
3 46 207 209
3 209 208 45
3 207 208 209
3 46 210 211
3 47 212 214
3 214 213 46
3 212 213 214
3 47 215 216
3 217 48 218
3 49 219 221
3 219 48 220
3 219 220 221
3 49 20 48
3 50 51 12
3 52 51 50
3 52 21 51
3 52 53 21
3 54 53 52
3 54 222 224
3 224 223 53
3 222 223 224
3 54 225 226
3 55 227 229
3 229 228 54
3 227 228 229
3 55 230 231
3 56 57 14
3 232 57 233
3 234 233 56
3 232 233 234
3 236 235 57
3 58 237 238
3 58 239 241
3 239 22 240
3 239 240 241
3 59 60 16
3 61 60 59
3 61 23 60
3 61 62 23
3 63 62 61
3 63 24 62
3 64 242 243
3 65 244 246
3 246 245 64
3 244 245 246
3 65 247 248
3 26 65 5
3 66 65 26
3 66 249 251
3 251 250 65
3 249 250 251
3 66 252 253
3 255 254 66
3 256 67 257
3 68 258 260
3 258 67 259
3 258 259 260
3 68 7 67
3 28 261 263
3 261 68 262
3 261 262 263
3 69 68 28
3 69 7 68
3 69 264 266
3 266 265 7
3 264 265 266
3 268 267 69
3 30 269 271
3 271 270 8
3 269 270 271
3 273 272 30
3 70 71 1
3 72 71 70
3 72 10 71
3 32 72 9
3 73 72 32
3 73 10 72
3 73 44 10
3 74 44 73
3 74 2 44
3 274 75 275
3 76 276 278
3 276 75 277
3 276 277 278
3 76 12 75
3 33 279 281
3 279 76 280
3 279 280 281
3 77 76 33
3 77 12 76
3 77 50 12
3 78 50 77
3 78 3 50
3 78 79 3
3 80 79 78
3 80 14 79
3 35 80 13
3 81 80 35
3 81 14 80
3 81 56 14
3 82 56 81
3 82 4 56
3 82 83 4
3 84 83 82
3 84 16 83
3 37 84 15
3 85 84 37
3 85 16 84
3 85 59 16
3 282 59 283
3 284 283 85
3 282 283 284
3 286 285 59
3 287 86 288
3 289 288 0
3 287 288 289
3 290 86 291
3 292 17 293
3 294 293 86
3 292 293 294
3 295 17 296
3 297 38 298
3 299 298 17
3 297 298 299
3 300 38 301
3 303 302 38
3 304 41 305
3 306 41 307
3 308 1 309
3 310 309 41
3 308 309 310
3 311 1 312
3 313 70 314
3 315 314 1
3 313 314 315
3 316 70 317
3 318 9 319
3 320 319 70
3 318 319 320
3 321 9 322
3 324 323 9
3 86 27 0
3 87 27 86
3 87 6 27
3 39 87 17
3 88 87 39
3 88 6 87
3 88 325 327
3 327 326 6
3 325 326 327
3 329 328 88
3 67 330 332
3 330 40 331
3 330 331 332
3 89 40 67
3 89 18 40
3 333 89 334
3 335 334 7
3 333 334 335
3 336 89 337
3 338 18 339
3 340 339 89
3 338 339 340
3 342 341 18
3 42 343 344
3 346 345 42
3 71 43 1
3 90 43 71
3 90 19 43
3 45 90 10
3 91 90 45
3 91 19 90
3 91 347 349
3 349 348 19
3 347 348 349
3 351 350 91
3 352 11 353
3 48 354 355
3 92 356 358
3 358 357 48
3 356 357 358
3 92 359 361
3 359 11 360
3 359 360 361
3 92 74 11
3 93 74 92
3 93 2 74
3 75 362 364
3 362 49 363
3 362 363 364
3 94 49 75
3 94 20 49
3 51 94 12
3 95 94 51
3 95 20 94
3 95 93 20
3 96 93 95
3 96 2 93
3 96 47 2
3 97 47 96
3 97 365 367
3 367 366 47
3 365 366 367
3 53 97 21
3 368 97 369
3 370 369 53
3 368 369 370
3 372 371 97
3 79 55 3
3 98 55 79
3 98 373 375
3 375 374 55
3 373 374 375
3 57 98 14
3 376 98 377
3 378 377 57
3 376 377 378
3 380 379 98
3 83 58 4
3 99 58 83
3 99 22 58
3 60 99 16
3 100 99 60
3 100 22 99
3 100 381 383
3 383 382 22
3 381 382 383
3 101 384 386
3 386 385 100
3 384 385 386
3 101 387 388
3 101 389 391
3 389 64 390
3 389 390 391
3 102 64 101
3 102 5 64
3 62 102 23
3 103 102 62
3 103 5 102
3 103 25 5
3 104 25 103
3 104 0 25
3 392 63 393
3 394 63 395
3 396 24 397
3 398 397 63
3 396 397 398
3 399 24 400
3 401 104 402
3 403 402 24
3 401 402 403
3 404 104 405
3 406 0 407
3 408 407 104
3 406 407 408
3 410 409 0
3 411 31 412
3 413 31 414
3 416 415 31
