ply
format ascii 1.0
element vertex 226
property float x
property float y
property float z
element face 215
property list uchar int vertex_index
end_header
-10.057684 75.500885 -36.069984
-15.100258 75.685143 -28.206007
-8.804253 64.58567 -36.722088
-12.48711 66.273621 -29.889446
-13.47189 84.828743 -28.69005
-9.439204 70.031128 -36.483856
-12.712161 76.065399 -32.195244
-13.857501 71.04628 -29.240585
-11.691688 71.301956 -33.050335
-10.688843 65.955139 -33.353569
-10.54792 80.51181 -34.97044
-13.309158 80.754715 -30.896868
-8.43711 59.540775 -36.999607
-11.176456 61.094589 -30.650217
-9.769308 60.7901 -33.986305
-9.761084 72.735992 -36.335934
-11.407918 75.885155 -34.179047
-12.217752 73.75795 -32.703129
-10.990214 73.304268 -34.569389
-10.55768 70.834579 -34.834972
-12.027311 85.355888 -30.924883
-13.482472 82.954926 -29.825516
-12.11084 83.121323 -32.001137
-11.923061 80.913383 -32.987633
-8.619085 61.997494 -36.771351
-7.887463 61.117905 -38.211536
-7.972935 63.720787 -38.165058
-13.129295 68.877228 -29.736654
-14.034595 68.285751 -27.86471
-12.60647 63.544796 -28.460585
-11.91768 60.868813 -28.798819
-11.798856 63.627026 -30.206062
-9.710503 65.489243 -35.155617
-10.161243 63.302505 -33.690353
-9.373532 62.714607 -35.270397
-9.094725 60.237484 -35.512299
-9.13873 67.315514 -36.552589
-8.323514 69.127014 -38.069057
-13.930139 75.958214 -30.218752
-14.500572 73.472946 -28.846483
-13.448523 73.615318 -30.652956
-12.807647 71.415421 -31.171829
-12.18896 68.932205 -31.472622
-11.604223 66.272835 -31.636324
-11.222514 68.732826 -33.174057
-10.239335 68.154869 -34.791508
-10.35761 78.054276 -35.581688
-15.545347 77.727608 -27.468924
-14.641724 80.258514 -28.730673
-14.280143 78.287498 -29.660641
-13.028385 78.348747 -31.703077
-11.715031 78.448624 -33.678337
-11.330428 58.436722 -29.33025
-10.674875 58.336212 -31.077101
-10.960257 63.580563 -32.02412
-10.451955 60.804565 -32.325623
-10.047321 58.47126 -32.820919
-9.492382 58.213482 -34.283951
-8.878113 57.885883 -35.881119
-9.395574 75.096477 -36.930053
-9.247274 73.714031 -37.063029
-9.909384 74.118438 -36.202959
-11.296239 84.256958 -32.615234
-12.069076 84.238606 -31.46301
-11.254475 85.37424 -32.077107
-11.309238 83.131886 -33.128411
-11.296239 84.256958 -32.615234
-15.348806 74.339306 -27.533176
-15.642796 75.437005 -27.218412
-12.908107 66.127575 -29.013339
-13.2292 67.429378 -28.936943
-12.808203 67.575424 -29.81305
-12.54679 64.909209 -29.175016
-12.967788 64.763162 -28.298908
-12.908107 66.127575 -29.013339
-9.745398 80.298302 -35.995594
-9.650243 79.069535 -36.301218
-10.452765 79.283043 -35.276064
-15.680443 78.808788 -27.024202
-16.094432 77.503228 -26.437829
-14.119594 83.622883 -28.176533
-14.08772 84.563534 -27.569716
-8.130361 59.051226 -37.697769
-8.388611 58.422216 -37.131933
-7.504841 60.406032 -38.970644
-7.494973 61.70608 -38.932838
-14.358944 70.874229 -28.316482
-14.68048 72.087562 -28.11943
-14.179036 72.259613 -29.043534
-14.487896 68.089214 -26.990052
-14.078577 66.843834 -27.133993
-8.388611 58.422216 -37.131933
-8.609113 57.59477 -36.572689
-8.657612 58.713329 -36.440363
-9.137633 72.359916 -37.174788
-8.976693 71.007485 -37.248749
-9.600144 71.38356 -36.409895
-9.137633 72.359916 -37.174788
-9.247274 73.714031 -37.063029
-9.76402 81.553653 -35.648966
-10.527779 81.827129 -34.613062
-11.215349 82.027916 -33.621659
-12.016951 82.017353 -32.494385
-11.309238 83.131886 -33.128411
-10.527779 81.827129 -34.613062
-11.235491 80.712596 -33.979037
-11.215349 82.027916 -33.621659
-7.537708 63.00752 -38.909599
-7.494973 61.70608 -38.932838
-7.930199 62.419346 -38.188297
-13.68185 67.13364 -28.000971
-13.581945 68.58149 -28.800682
-13.2292 67.429378 -28.936943
-14.078577 66.843834 -27.133993
-13.68185 67.13364 -28.000971
-12.979243 63.271372 -27.582965
-12.967788 64.763162 -28.298908
-12.586257 62.05406 -27.830108
-12.979243 63.271372 -27.582965
-12.262075 62.206805 -28.629702
-12.241862 60.716069 -27.999225
-12.586257 62.05406 -27.830108
-13.37144 85.766014 -27.982335
-14.08772 84.563534 -27.569716
-12.64961 86.068814 -29.168683
-13.37144 85.766014 -27.982335
-11.927321 86.332386 -30.286099
-12.7496 85.092315 -29.807467
-12.64961 86.068814 -29.168683
-11.125191 86.472294 -31.502052
-11.927321 86.332386 -30.286099
-11.254475 85.37424 -32.077107
-11.125191 86.472294 -31.502052
-8.596388 66.875343 -37.396568
-8.429149 65.510422 -37.481318
-8.971491 65.950592 -36.637338
-8.188779 67.781093 -38.154802
-8.596388 66.875343 -37.396568
-8.731122 68.221264 -37.310823
-7.736042 68.593418 -38.867937
-8.188779 67.781093 -38.154802
-8.418848 70.555428 -38.041349
-8.881359 69.579071 -37.276457
-8.976693 71.007485 -37.248749
-7.776582 70.040207 -38.845762
-8.418848 70.555428 -38.041349
-7.736042 68.593418 -38.867937
-7.776582 70.040207 -38.845762
-9.590564 77.721683 -36.565134
-9.440601 76.444988 -36.809282
-10.207647 76.77758 -35.825836
-9.590564 77.721683 -36.565134
-9.650243 79.069535 -36.301218
-9.745398 80.298302 -35.995594
-9.76402 81.553653 -35.648966
-15.865341 76.458237 -26.849871
-16.094432 77.503228 -26.437829
-15.322802 76.706376 -27.837466
-15.642796 75.437005 -27.218412
-15.865341 76.458237 -26.849871
-14.124885 82.685975 -28.744266
-14.119594 83.622883 -28.176533
-13.477181 83.891835 -29.257783
-14.704511 81.337769 -28.196844
-14.124885 82.685975 -28.744266
-14.062098 81.60672 -29.278095
-15.228632 80.074241 -27.655076
-14.704511 81.337769 -28.196844
-15.093535 78.993061 -28.099798
-15.680443 78.808788 -27.024202
-15.228632 80.074241 -27.655076
-7.855538 59.83979 -38.303733
-8.130361 59.051226 -37.697769
-8.162287 60.32934 -37.605571
-7.855538 59.83979 -38.303733
-7.504841 60.406032 -38.970644
-8.01349 65.07798 -38.202803
-8.388594 64.153228 -37.443573
-8.429149 65.510422 -37.481318
-7.535229 64.360092 -38.914124
-8.01349 65.07798 -38.202803
-7.537708 63.00752 -38.909599
-7.535229 64.360092 -38.914124
-9.395574 75.096477 -36.930053
-9.440601 76.444988 -36.809282
-15.048963 73.233207 -27.853414
-15.348806 74.339306 -27.533176
-14.800415 74.579044 -28.526245
-15.048963 73.233207 -27.853414
-14.68048 72.087562 -28.11943
-14.447491 69.493965 -27.628544
-14.358944 70.874229 -28.316482
-13.946048 69.666016 -28.552647
-14.447491 69.493965 -27.628544
-14.487896 68.089214 -26.990052
-11.91224 59.418133 -28.22663
-12.241862 60.716069 -27.999225
-11.618614 58.202088 -28.492345
-11.91224 59.418133 -28.22663
-11.624054 59.652768 -29.064535
-11.356204 56.940136 -28.792217
-11.618614 58.202088 -28.492345
-11.084161 57.064743 -29.660805
-11.356204 56.940136 -28.792217
-10.756384 57.014488 -30.53423
-11.084161 57.064743 -29.660805
-11.002651 58.386467 -30.203675
-10.492183 57.064715 -31.370812
-10.756384 57.014488 -30.53423
-10.178406 57.132238 -32.242722
-10.492183 57.064715 -31.370812
-10.361098 58.403736 -31.94901
-9.919666 57.235848 -33.048561
-10.178406 57.132238 -32.242722
-9.642196 57.106959 -33.780077
-9.919666 57.235848 -33.048561
-9.769851 58.342371 -33.552435
-9.369725 57.107544 -34.587523
-9.642196 57.106959 -33.780077
-9.06259 56.943745 -35.386106
-9.369725 57.107544 -34.587523
-9.185247 58.049683 -35.082535
-8.806652 56.81361 -36.117409
-9.06259 56.943745 -35.386106
-8.806652 56.81361 -36.117409
-8.609113 57.59477 -36.572689
3 0 59 61
3 61 60 15
3 59 60 61
3 0 18 16
3 0 15 18
3 62 22 63
3 64 63 20
3 62 63 64
3 66 65 22
3 2 26 24
3 1 67 68
3 3 69 71
3 71 70 27
3 69 70 71
3 3 72 74
3 72 29 73
3 72 73 74
3 3 31 29
3 2 34 32
3 2 24 34
3 5 37 36
3 6 40 38
3 8 41 17
3 8 42 41
3 8 44 42
3 5 45 19
3 5 36 45
3 10 75 77
3 77 76 46
3 75 76 77
3 78 47 79
3 4 80 81
3 11 48 21
3 11 49 48
3 11 50 49
3 10 51 23
3 10 46 51
3 12 82 83
3 85 84 25
3 7 86 88
3 88 87 39
3 86 87 88
3 90 89 28
3 13 52 30
3 13 53 52
3 9 54 43
3 14 55 33
3 14 56 55
3 14 57 56
3 12 58 35
3 12 91 93
3 93 92 58
3 91 92 93
3 15 94 96
3 96 95 5
3 94 95 96
3 98 97 15
3 16 17 6
3 18 17 16
3 18 8 17
3 18 19 8
3 15 19 18
3 15 5 19
3 100 99 10
3 20 21 4
3 22 21 20
3 22 11 21
3 22 23 11
3 101 23 102
3 103 102 22
3 101 102 103
3 104 10 105
3 106 105 23
3 104 105 106
3 24 25 12
3 26 25 24
3 26 107 109
3 109 108 25
3 107 108 109
3 27 28 7
3 110 28 111
3 112 111 27
3 110 111 112
3 114 113 28
3 29 115 116
3 29 117 118
3 29 119 121
3 119 30 120
3 119 120 121
3 31 30 29
3 31 13 30
3 32 33 9
3 34 33 32
3 34 14 33
3 34 35 14
3 24 35 34
3 24 12 35
3 122 4 123
3 124 4 125
3 126 20 127
3 128 127 4
3 126 127 128
3 129 20 130
3 132 131 20
3 36 133 135
3 135 134 2
3 133 134 135
3 37 136 138
3 138 137 36
3 136 137 138
3 37 139 140
3 141 37 142
3 143 142 5
3 141 142 143
3 144 37 145
3 147 146 37
3 38 39 1
3 40 39 38
3 40 7 39
3 17 40 6
3 41 40 17
3 41 7 40
3 41 27 7
3 42 27 41
3 42 3 27
3 42 43 3
3 44 43 42
3 44 9 43
3 19 44 8
3 45 44 19
3 45 9 44
3 45 32 9
3 36 32 45
3 36 2 32
3 46 148 150
3 150 149 0
3 148 149 150
3 152 151 46
3 154 153 10
3 47 155 156
3 47 157 159
3 157 1 158
3 157 158 159
3 21 160 162
3 162 161 4
3 160 161 162
3 48 163 165
3 165 164 21
3 163 164 165
3 48 166 167
3 48 168 170
3 168 47 169
3 168 169 170
3 49 47 48
3 49 1 47
3 49 38 1
3 50 38 49
3 50 6 38
3 23 50 11
3 51 50 23
3 51 6 50
3 51 16 6
3 46 16 51
3 46 0 16
3 25 171 173
3 173 172 12
3 171 172 173
3 175 174 25
3 176 26 177
3 178 177 2
3 176 177 178
3 179 26 180
3 182 181 26
3 184 183 0
3 39 185 187
3 187 186 1
3 185 186 187
3 189 188 39
3 28 190 192
3 192 191 7
3 190 191 192
3 194 193 28
3 30 195 196
3 52 197 199
3 199 198 30
3 197 198 199
3 52 200 201
3 52 202 203
3 53 204 206
3 206 205 52
3 204 205 206
3 53 207 208
3 43 31 3
3 54 31 43
3 54 13 31
3 33 54 9
3 55 54 33
3 55 13 54
3 55 53 13
3 56 53 55
3 56 209 211
3 211 210 53
3 209 210 211
3 56 212 213
3 57 214 216
3 216 215 56
3 214 215 216
3 57 217 218
3 35 57 14
3 58 57 35
3 58 219 221
3 221 220 57
3 219 220 221
3 58 222 223
3 225 224 58
