ply
format ascii 1.0
element vertex 273
property float x
property float y
property float z
element face 233
property list uchar int vertex_index
end_header
-10.481638 85.392593 -33.229332
-3.703894 82.724983 -41.263294
-1.485542 93.430611 -36.870361
-9.898586 89.508171 -30.724237
-6.402965 89.594193 -35.379047
-5.412499 93.887039 -32.055031
-7.148571 68.059822 -39.666817
-7.347888 73.580124 -39.45919
-7.383429 79.283424 -38.865128
-7.174828 84.725716 -37.473694
-2.726098 88.356682 -39.56776
-4.278085 76.959099 -42.077862
-0.051842 97.705978 -33.101227
-7.774937 91.817268 -31.359959
-8.514183 71.983841 -38.013641
-8.733464 74.69207 -37.790123
-10.507637 83.142448 -34.255684
-8.98012 82.595497 -36.327492
-8.749706 85.267235 -35.498844
-4.651441 89.119644 -37.483986
-2.302559 91.007637 -38.193501
0.176132 92.401253 -39.035789
-5.590317 80.994759 -40.208088
-5.787256 78.26725 -40.57375
-2.042501 97.695381 -30.528759
-10.223072 87.588699 -32.07922
-8.608879 87.626839 -34.254837
-8.076806 89.902832 -33.068192
-5.918275 91.831856 -33.902725
-3.462886 93.82486 -34.548588
-8.054045 66.435173 -38.240547
-7.22965 70.9534 -39.622467
-5.951653 72.544525 -41.012646
-1.361966 84.248878 -42.386864
-1.863152 81.314461 -42.960861
-8.823518 77.389091 -37.54858
-8.942876 80.084793 -37.020748
-7.203148 82.117836 -38.389534
-5.339705 83.958374 -39.515793
-6.780218 87.277794 -36.57077
-5.014595 86.543365 -38.665421
-3.215183 85.468063 -40.632065
-0.870078 87.050667 -41.546886
-8.340112 57.303658 -37.264259
-7.344409 76.471634 -39.279064
-5.887982 75.267906 -40.863308
-2.850095 95.878166 -32.57732
-0.983322 95.650551 -34.965904
2.598469 99.2202 -33.460999
1.757009 97.197594 -35.541496
-9.395574 75.096477 -36.930053
-9.247274 73.714031 -37.063029
-1.894051 92.219124 -37.531931
-3.191413 91.262623 -37.19824
-2.782904 92.47411 -36.53667
-11.296239 84.256958 -32.615234
-11.254475 85.37424 -32.077107
-10.494637 84.267521 -33.742508
-11.309238 83.131886 -33.128411
-11.296239 84.256958 -32.615234
-3.792953 81.260166 -41.574549
-4.736164 80.395054 -41.046945
-4.647106 81.859871 -40.735691
-10.862958 88.408528 -30.185776
-10.631581 89.388836 -29.460114
-10.060829 88.548435 -31.401728
-11.025201 87.448791 -30.863268
-10.862958 88.408528 -30.185776
-0.474831 83.458225 -43.172512
-0.134651 84.921302 -42.85704
-9.745398 80.298302 -35.995594
-9.650243 79.069535 -36.301218
-8.130361 59.051226 -37.697769
-8.081862 57.932667 -37.830095
-8.388611 58.422216 -37.131933
-7.123048 66.529609 -39.665003
-7.575785 65.717285 -38.951868
-7.601308 67.247498 -38.953682
-4.302411 75.425098 -42.249102
-5.107359 74.579502 -41.641824
-5.083033 76.113502 -41.470585
-2.028828 79.764156 -43.194512
-0.952435 80.404056 -43.742405
3.922788 99.920693 -33.503293
2.997854 100.084148 -32.315849
2.790125 96.879909 -36.65424
3.117726 97.938438 -35.651619
1.380355 96.114345 -36.444397
2.790125 96.879909 -36.65424
-8.388611 58.422216 -37.131933
-8.609113 57.59477 -36.572689
-8.643545 91.586772 -30.133063
-8.836761 90.66272 -31.042098
-9.705369 90.432224 -29.815202
-7.459125 92.742546 -30.464436
-8.643545 91.586772 -30.133063
-6.277906 93.777432 -30.811972
-6.593718 92.852154 -31.707495
-7.459125 92.742546 -30.464436
-9.705369 90.432224 -29.815202
-10.631581 89.388836 -29.460114
-9.137633 72.359916 -37.174788
-8.976693 71.007485 -37.248749
-8.623824 73.337955 -37.901882
-9.137633 72.359916 -37.174788
-9.247274 73.714031 -37.063029
-9.743879 82.868972 -35.291588
-9.76402 81.553653 -35.648966
-10.527779 81.827129 -34.613062
-4.365854 90.318626 -36.843483
-5.527203 89.356919 -36.431517
-5.241615 90.555901 -35.791013
-3.477 90.06364 -37.838743
-4.365854 90.318626 -36.843483
-3.191413 91.262623 -37.19824
-1.362979 90.442444 -39.26372
-1.574748 89.116967 -39.95085
-2.514328 89.68216 -38.88063
-0.123633 91.139252 -39.684864
-1.362979 90.442444 -39.26372
-1.063214 91.704445 -38.614645
1.204564 91.902141 -40.033915
-0.123633 91.139252 -39.684864
-11.215349 82.027916 -33.621659
-11.309238 83.131886 -33.128411
-10.527779 81.827129 -34.613062
-11.215349 82.027916 -33.621659
-6.611763 67.286911 -40.364979
-6.593273 68.849514 -40.351107
-4.834633 79.0313 -41.229776
-5.688786 79.631005 -40.390919
-4.736164 80.395054 -41.046945
-4.080048 78.377224 -41.981833
-5.032671 77.613174 -41.325806
-4.834633 79.0313 -41.229776
-1.576564 98.497776 -29.437584
-2.896263 97.571945 -29.244205
-0.657814 98.578861 -30.722366
-1.576564 98.497776 -29.437584
0.337515 98.584159 -32.0086
-1.047172 97.70068 -31.814993
-0.657814 98.578861 -30.722366
-4.99927 91.674733 -35.052853
-5.241615 90.555901 -35.791013
-6.16062 90.713025 -34.640886
-3.771576 92.671234 -35.375784
-4.99927 91.674733 -35.052853
-4.690581 92.828358 -34.225656
-2.474214 93.627736 -35.709474
-2.782904 92.47411 -36.53667
-3.771576 92.671234 -35.375784
-11.125191 86.472294 -31.502052
-11.025201 87.448791 -30.863268
-10.352355 86.490646 -32.654276
-11.254475 85.37424 -32.077107
-11.125191 86.472294 -31.502052
-8.596388 66.875343 -37.396568
-8.429149 65.510422 -37.481318
-8.188779 67.781093 -38.154802
-8.596388 66.875343 -37.396568
-7.736042 68.593418 -38.867937
-7.601308 67.247498 -38.953682
-8.188779 67.781093 -38.154802
-8.418848 70.555428 -38.041349
-8.976693 71.007485 -37.248749
-7.776582 70.040207 -38.845762
-8.418848 70.555428 -38.041349
-7.871916 71.468621 -38.818054
-7.18911 69.506611 -39.644642
-7.736042 68.593418 -38.867937
-7.776582 70.040207 -38.845762
-6.633813 70.296303 -40.328932
-6.593273 68.849514 -40.351107
-7.18911 69.506611 -39.644642
-5.994814 71.091865 -41.024022
-6.633813 70.296303 -40.328932
-6.590651 71.748963 -40.317556
-5.299681 71.741035 -41.704494
-5.994814 71.091865 -41.024022
-0.725423 81.991017 -43.459511
-1.612559 82.781669 -42.673862
-0.474831 83.458225 -43.172512
0.185293 81.080612 -44.241055
-0.952435 80.404056 -43.742405
-0.725423 81.991017 -43.459511
-9.590564 77.721683 -36.565134
-9.440601 76.444988 -36.809282
-8.883197 78.736942 -37.284664
-9.590564 77.721683 -36.565134
-9.650243 79.069535 -36.301218
-8.961498 81.340145 -36.67412
-9.745398 80.298302 -35.995594
-9.76402 81.553653 -35.648966
0.111293 86.322197 -42.437051
-0.134651 84.921302 -42.85704
-1.116022 85.649773 -41.966875
-0.646738 88.463959 -40.940413
-1.798088 87.703675 -40.557323
-1.574748 89.116967 -39.95085
0.392491 87.852554 -41.907347
-0.646738 88.463959 -40.940413
0.111293 86.322197 -42.437051
0.392491 87.852554 -41.907347
-8.114589 56.780638 -37.884279
-8.103388 55.865486 -38.019806
-8.328911 56.388506 -37.399786
-8.114589 56.780638 -37.884279
-8.081862 57.932667 -37.830095
-8.01349 65.07798 -38.202803
-8.429149 65.510422 -37.481318
-7.535229 64.360092 -38.914124
-8.01349 65.07798 -38.202803
-7.575785 65.717285 -38.951868
-7.123048 66.529609 -39.665003
-6.611763 67.286911 -40.364979
-8.778491 76.040581 -37.669352
-9.395574 75.096477 -36.930053
-9.440601 76.444988 -36.809282
-5.139195 73.217811 -41.716493
-5.919818 73.906216 -40.937977
-5.107359 74.579502 -41.641824
-5.299681 71.741035 -41.704494
-5.139195 73.217811 -41.716493
-2.872581 80.554905 -42.423332
-3.792953 81.260166 -41.574549
-2.783523 82.019722 -42.112077
-2.872581 80.554905 -42.423332
-2.028828 79.764156 -43.194512
-3.236294 77.586476 -42.753012
-4.080048 78.377224 -41.981833
-3.45686 76.094948 -42.840319
-3.236294 77.586476 -42.753012
-4.302411 75.425098 -42.249102
-3.45686 76.094948 -42.840319
-5.035329 94.834122 -31.059624
-6.277906 93.777432 -30.811972
-3.350329 96.738293 -30.296488
-2.896263 97.571945 -29.244205
-3.754126 95.829685 -31.320768
-3.350329 96.738293 -30.296488
-2.446298 96.786773 -31.55304
-4.131297 94.882602 -32.316175
-5.035329 94.834122 -31.059624
-3.754126 95.829685 -31.320768
1.662671 99.341271 -32.188485
2.062056 100.205219 -31.043336
2.997854 100.084148 -32.315849
1.273313 98.463089 -33.281113
0.337515 98.584159 -32.0086
1.662671 99.341271 -32.188485
3.538456 98.949742 -34.61137
3.922788 99.920693 -33.503293
2.177739 98.208897 -34.501248
3.538456 98.949742 -34.61137
3.117726 97.938438 -35.651619
0.010189 95.340824 -36.156601
0.386844 96.424072 -35.2537
1.380355 96.114345 -36.444397
-0.240921 94.230854 -37.108829
-1.234432 94.540581 -35.918132
0.010189 95.340824 -36.156601
0.589916 93.716175 -38.191544
-0.654705 92.915932 -37.953075
-0.240921 94.230854 -37.108829
1.518375 93.188656 -39.289206
0.589916 93.716175 -38.191544
1.204564 91.902141 -40.033915
1.518375 93.188656 -39.289206
-8.537651 56.522498 -36.808979
-8.806652 56.81361 -36.117409
-8.609113 57.59477 -36.572689
-8.328911 56.388506 -37.399786
-8.537651 56.522498 -36.808979
3 50 15 51
3 0 18 16
3 2 52 54
3 52 20 53
3 52 53 54
3 2 21 20
3 0 55 56
3 0 57 59
3 57 16 58
3 57 58 59
3 1 60 62
3 62 61 22
3 60 61 62
3 3 27 25
3 5 28 13
3 5 29 28
3 3 63 64
3 3 65 67
3 65 25 66
3 65 66 67
3 7 31 14
3 7 32 31
3 69 68 33
3 70 36 71
3 9 37 17
3 9 38 37
3 4 39 26
3 10 40 19
3 10 41 40
3 10 42 41
3 74 73 43
3 72 73 74
3 6 75 77
3 77 76 30
3 75 76 77
3 8 44 35
3 11 45 23
3 11 78 80
3 80 79 45
3 78 79 80
3 82 81 34
3 12 46 24
3 12 47 46
3 83 48 84
3 85 49 86
3 88 87 49
3 89 43 90
3 91 13 92
3 93 92 3
3 91 92 93
3 94 13 95
3 96 5 97
3 98 97 13
3 96 97 98
3 99 3 100
3 101 14 102
3 15 103 105
3 103 14 104
3 103 104 105
3 15 7 14
3 16 106 108
3 106 17 107
3 106 107 108
3 18 17 16
3 18 9 17
3 109 19 110
3 111 110 4
3 109 110 111
3 20 112 114
3 112 19 113
3 112 113 114
3 20 10 19
3 20 115 117
3 117 116 10
3 115 116 117
3 21 118 120
3 120 119 20
3 118 119 120
3 21 121 122
3 16 123 124
3 16 125 126
3 128 127 6
3 22 23 8
3 129 23 130
3 131 130 22
3 129 130 131
3 132 11 133
3 134 133 23
3 132 133 134
3 135 24 136
3 137 24 138
3 139 12 140
3 141 140 24
3 139 140 141
3 25 26 0
3 27 26 25
3 27 4 26
3 13 27 3
3 28 27 13
3 28 4 27
3 28 142 144
3 144 143 4
3 142 143 144
3 29 145 147
3 147 146 28
3 145 146 147
3 29 148 150
3 148 2 149
3 148 149 150
3 25 151 152
3 25 153 155
3 153 0 154
3 153 154 155
3 156 30 157
3 158 30 159
3 160 6 161
3 162 161 30
3 160 161 162
3 14 163 164
3 31 165 167
3 167 166 14
3 165 166 167
3 31 168 170
3 168 6 169
3 168 169 170
3 31 171 173
3 173 172 6
3 171 172 173
3 32 174 176
3 176 175 31
3 174 175 176
3 32 177 178
3 33 34 1
3 179 34 180
3 181 180 33
3 179 180 181
3 184 183 34
3 182 183 184
3 185 35 186
3 36 187 189
3 187 35 188
3 187 188 189
3 36 8 35
3 17 190 192
3 190 36 191
3 190 191 192
3 37 36 17
3 37 8 36
3 37 22 8
3 38 22 37
3 38 1 22
3 26 18 0
3 39 18 26
3 39 9 18
3 19 39 4
3 40 39 19
3 40 9 39
3 40 38 9
3 41 38 40
3 41 1 38
3 41 33 1
3 42 33 41
3 42 193 195
3 195 194 33
3 193 194 195
3 196 42 197
3 198 197 10
3 196 197 198
3 199 42 200
3 202 201 42
3 43 203 205
3 203 204 205
3 207 206 43
3 30 208 209
3 212 211 30
3 210 211 212
3 214 213 6
3 35 215 217
3 215 15 216
3 215 216 217
3 44 15 35
3 44 7 15
3 23 44 8
3 45 44 23
3 45 7 44
3 45 32 7
3 218 32 219
3 220 219 45
3 218 219 220
3 222 221 32
3 34 223 225
3 225 224 1
3 223 224 225
3 227 226 34
3 228 11 229
3 230 11 231
3 233 232 11
3 234 5 235
3 24 236 237
3 46 238 240
3 240 239 24
3 238 239 240
3 46 241 243
3 241 5 242
3 241 242 243
3 46 29 5
3 47 29 46
3 47 2 29
3 48 244 246
3 244 245 246
3 48 247 249
3 247 12 248
3 247 248 249
3 250 48 251
3 49 252 254
3 252 48 253
3 252 253 254
3 49 12 48
3 49 47 12
3 255 47 256
3 257 256 49
3 255 256 257
3 258 2 259
3 260 259 47
3 258 259 260
3 261 21 262
3 263 262 2
3 261 262 263
3 264 21 265
3 267 266 21
3 43 268 270
3 268 269 270
3 43 271 272
