ply
format ascii 1.0
element vertex 241
property float x
property float y
property float z
element face 197
property list uchar int vertex_index
end_header
-24.928791 99.192078 -35.163021
-30.611696 69.632652 -46.147949
-28.706581 86.888481 -42.093388
-26.991142 93.517403 -39.120998
-32.42952 63.566265 -43.809952
-34.001522 65.843948 -39.480652
-32.269669 72.866165 -42.119499
-31.384478 81.168968 -40.056366
-30.016071 78.717819 -44.45285
-23.777267 101.570938 -32.816078
-26.630388 97.501846 -34.455513
-27.635059 94.608315 -36.446823
-25.975426 96.5373 -37.254829
-31.577841 66.644127 -45.045513
-31.404972 61.827423 -45.670513
-30.552885 65.232376 -46.748466
-34.151325 71.680458 -36.113361
-29.418186 87.949234 -39.762043
-30.698605 85.154221 -38.842518
-30.142876 84.170174 -41.155159
-30.755745 80.010902 -42.406883
-29.452816 82.9328 -43.336586
-28.527514 91.650818 -38.057587
-28.03425 90.255226 -40.537834
-33.133934 59.662987 -42.609592
-32.836365 54.718456 -43.078747
-32.177246 58.52346 -44.411606
-31.028494 56.986603 -46.074013
-29.819754 56.030151 -47.457172
-21.644857 102.881653 -33.087387
-22.874008 100.711655 -35.600418
-24.138033 98.190254 -37.751072
-21.983004 99.486519 -38.165245
-33.958977 61.173302 -40.554428
-33.265236 64.722099 -41.82132
-32.374424 68.388268 -43.19455
-31.477873 71.563553 -44.273594
-31.910189 77.132614 -41.122429
-31.255253 75.833107 -43.312508
-30.436171 74.330063 -45.33255
-25.256083 95.369896 -39.691845
-27.189426 88.999664 -42.853165
-25.276122 99.608315 -33.660336
-24.70036 100.797744 -32.486864
-24.353029 100.381508 -33.989549
-25.77959 98.346962 -34.809267
-26.126921 98.763199 -33.306582
-25.276122 99.608315 -33.660336
-30.081659 68.940456 -46.933943
-30.052253 66.740318 -47.234201
-30.58229 67.432514 -46.448207
-33.916369 71.170941 -37.429056
-33.74634 73.371983 -36.769752
-30.654256 58.738754 -46.634355
-31.216733 59.407013 -45.872263
-30.842495 61.159165 -46.432606
-30.049886 58.260528 -47.325935
-30.424124 56.508377 -46.765592
-30.654256 58.738754 -46.634355
-29.432115 57.447313 -47.958588
-30.049886 58.260528 -47.325935
-21.178813 102.330365 -34.465546
-20.512473 103.291184 -33.209255
-21.793389 101.245365 -35.722061
-22.259432 101.796654 -34.343902
-21.178813 102.330365 -34.465546
-21.347887 100.632798 -37.004475
-22.428506 100.099087 -36.882831
-21.793389 101.245365 -35.722061
-34.348955 63.960746 -38.816902
-34.260159 66.414783 -38.321459
-33.980249 63.508625 -40.01754
-34.327682 61.625423 -39.35379
-34.348955 63.960746 -38.816902
-32.322046 70.627217 -42.657024
-32.765663 68.773899 -42.112631
-32.713285 71.012848 -41.575105
-31.5849 81.848186 -38.769573
-31.241964 83.840813 -38.162649
-31.041542 83.161595 -39.449442
-31.894638 79.765392 -39.401499
-31.5849 81.848186 -38.769573
-31.647334 79.150791 -40.589397
-32.157493 77.747215 -39.93453
-31.894638 79.765392 -39.401499
-24.25293 96.146744 -39.900978
-24.697058 96.780075 -38.721458
-23.693905 97.556923 -38.930592
-26.376055 89.820141 -43.173595
-26.775725 90.614632 -42.093699
-32.49276 52.230461 -43.371845
-32.247137 54.128933 -43.978184
-24.127294 101.899608 -31.296281
-23.18374 102.584526 -31.492921
-24.127294 101.899608 -31.296281
-24.70036 100.797744 -32.486864
-26.929326 97.808281 -32.937645
-26.126921 98.763199 -33.306582
-27.414777 96.421959 -34.029506
-26.929326 97.808281 -32.937645
-27.132723 96.055081 -35.451168
-27.917112 94.975194 -35.025161
-27.414777 96.421959 -34.029506
-30.416452 62.861641 -46.971582
-30.842495 61.159165 -46.432606
-30.978929 63.529899 -46.20949
-30.018995 64.424156 -47.423046
-30.416452 62.861641 -46.971582
-30.018995 64.424156 -47.423046
-30.052253 66.740318 -47.234201
-34.33506 69.333039 -36.637814
-34.534264 69.92202 -35.332147
-34.33506 69.333039 -36.637814
-33.916369 71.170941 -37.429056
-33.841467 68.252685 -39.112702
-34.260159 66.414783 -38.321459
-33.579212 67.501739 -40.255682
-33.841467 68.252685 -39.112702
-32.564436 73.447777 -41.01316
-32.713285 71.012848 -41.575105
-30.058395 86.551727 -39.30228
-30.301695 87.103852 -38.029165
-29.661485 88.501358 -38.488928
-34.329944 72.035125 -34.721569
-34.534264 69.92202 -35.332147
-33.927759 73.814346 -35.421667
-34.329944 72.035125 -34.721569
-33.74634 73.371983 -36.769752
-33.927759 73.814346 -35.421667
-28.373788 93.498054 -35.906447
-27.917112 94.975194 -35.025161
-28.820016 92.019306 -36.711828
-28.373788 93.498054 -35.906447
-28.081286 93.129567 -37.252205
-29.21615 90.35215 -37.6367
-28.820016 92.019306 -36.711828
-28.97285 89.800026 -38.909815
-29.661485 88.501358 -38.488928
-29.21615 90.35215 -37.6367
-32.98515 57.190722 -42.844169
-33.316006 55.481232 -42.138768
-33.464791 57.953497 -41.90419
-31.917578 56.031435 -44.644613
-32.247137 54.128933 -43.978184
-32.506805 56.620958 -43.745176
-31.343201 55.263007 -45.475817
-31.917578 56.031435 -44.644613
-31.60287 57.755032 -45.242809
-30.66596 54.500908 -46.264364
-31.343201 55.263007 -45.475817
-30.061591 54.022682 -46.955944
-30.66596 54.500908 -46.264364
-30.424124 56.508377 -46.765592
-29.381608 53.449272 -47.581499
-30.061591 54.022682 -46.955944
-29.124029 55.189973 -48.044298
-29.381608 53.449272 -47.581499
-29.124029 55.189973 -48.044298
-29.432115 57.447313 -47.958588
-20.995458 103.730091 -31.854011
-20.512473 103.291184 -33.209255
-22.117535 103.239883 -31.628576
-20.995458 103.730091 -31.854011
-22.711062 102.226295 -32.951732
-23.18374 102.584526 -31.492921
-22.117535 103.239883 -31.628576
-22.616391 98.205056 -39.137678
-23.693905 97.556923 -38.930592
-23.060519 98.838386 -37.958158
-20.888435 99.997345 -38.16078
-21.347887 100.632798 -37.004475
-21.491138 98.799343 -39.261154
-20.888435 99.997345 -38.16078
-22.616391 98.205056 -39.137678
-21.491138 98.799343 -39.261154
-34.28731 59.205399 -39.832604
-34.327682 61.625423 -39.35379
-33.877312 58.708655 -40.876608
-34.28731 59.205399 -39.832604
-33.546456 60.418144 -41.58201
-33.464791 57.953497 -41.90419
-33.877312 58.708655 -40.876608
-33.211069 66.940815 -41.426016
-33.633379 65.283023 -40.650986
-33.579212 67.501739 -40.255682
-32.81983 66.555183 -42.507935
-33.211069 66.940815 -41.426016
-32.765663 68.773899 -42.112631
-30.884784 85.792908 -37.444048
-30.301695 87.103852 -38.029165
-30.884784 85.792908 -37.444048
-31.241964 83.840813 -38.162649
-32.384696 75.581001 -40.514625
-32.157493 77.747215 -39.93453
-32.089929 74.99939 -41.620964
-32.564436 73.447777 -41.01316
-32.384696 75.581001 -40.514625
-24.905724 94.61861 -40.789152
-24.25293 96.146744 -39.900978
-25.809054 93.799747 -40.513039
-24.905724 94.61861 -40.789152
-26.676583 92.873501 -40.227615
-26.123613 94.443649 -39.406422
-25.809054 93.799747 -40.513039
-27.198137 91.242413 -40.936033
-27.512696 91.886314 -39.829416
-26.676583 92.873501 -40.227615
-27.611838 89.627445 -41.695499
-27.198137 91.242413 -40.936033
-26.775725 90.614632 -42.093699
-26.769925 88.037109 -43.94533
-26.376055 89.820141 -43.173595
-27.580362 87.128967 -43.550117
-26.769925 88.037109 -43.94533
-28.33894 86.073375 -43.170229
-27.948003 87.944073 -42.473276
-27.580362 87.128967 -43.550117
-28.712057 84.095535 -43.791828
-29.079698 84.91064 -42.714987
-28.33894 86.073375 -43.170229
-29.077354 82.129311 -44.312902
-28.712057 84.095535 -43.791828
-29.358982 80.02182 -44.871035
-29.734443 80.82531 -43.894718
-29.077354 82.129311 -44.312902
-29.595928 77.857086 -45.388662
-29.358982 80.02182 -44.871035
-29.805978 75.663208 -45.828512
-30.226121 76.523941 -44.8927
-29.595928 77.857086 -45.388662
-29.965366 73.42067 -46.220802
-29.805978 75.663208 -45.828512
-30.053128 71.071964 -46.628502
-30.523933 71.981358 -45.740249
-29.965366 73.42067 -46.220802
-30.081659 68.940456 -46.933943
-30.053128 71.071964 -46.628502
-33.098074 52.87714 -42.422232
-33.316006 55.481232 -42.138768
-33.098074 52.87714 -42.422232
-32.49276 52.230461 -43.371845
3 0 42 44
3 44 43 9
3 42 43 44
3 0 45 47
3 45 10 46
3 45 46 47
3 0 12 10
3 1 15 13
3 1 48 50
3 50 49 15
3 48 49 50
3 52 51 16
3 2 19 17
3 2 21 19
3 3 22 11
3 3 23 22
3 4 26 24
3 53 27 54
3 55 54 14
3 53 54 55
3 56 28 57
3 58 57 27
3 56 57 58
3 60 59 28
3 61 29 62
3 63 30 64
3 65 64 29
3 63 64 65
3 66 32 67
3 68 67 30
3 66 67 68
3 5 69 70
3 5 71 73
3 71 33 72
3 71 72 73
3 5 34 33
3 6 74 76
3 74 35 75
3 74 75 76
3 6 36 35
3 7 77 79
3 79 78 18
3 77 78 79
3 7 80 81
3 7 82 84
3 82 37 83
3 82 83 84
3 8 38 20
3 8 39 38
3 85 40 86
3 87 86 31
3 85 86 87
3 88 41 89
3 91 90 25
3 9 92 93
3 95 94 9
3 10 96 97
3 10 98 99
3 10 100 102
3 100 11 101
3 100 101 102
3 12 11 10
3 12 3 11
3 13 14 4
3 15 14 13
3 15 103 105
3 105 104 14
3 103 104 105
3 15 106 107
3 109 108 15
3 16 110 111
3 113 112 16
3 114 5 115
3 117 116 5
3 118 6 119
3 17 120 122
3 120 18 121
3 120 121 122
3 19 18 17
3 19 7 18
3 19 20 7
3 21 20 19
3 21 8 20
3 123 16 124
3 125 16 126
3 128 127 16
3 11 129 130
3 22 131 133
3 133 132 11
3 131 132 133
3 22 134 135
3 22 136 138
3 136 17 137
3 136 137 138
3 23 17 22
3 23 2 17
3 24 139 141
3 139 25 140
3 139 140 141
3 26 25 24
3 26 142 144
3 144 143 25
3 142 143 144
3 14 26 4
3 27 26 14
3 27 145 147
3 147 146 26
3 145 146 147
3 27 148 149
3 28 150 152
3 152 151 27
3 150 151 152
3 28 153 154
3 28 155 156
3 158 157 28
3 29 159 160
3 29 161 162
3 29 163 165
3 163 9 164
3 163 164 165
3 30 9 29
3 30 0 9
3 30 31 0
3 32 31 30
3 32 166 168
3 168 167 31
3 166 167 168
3 169 32 170
3 171 32 172
3 174 173 32
3 33 175 176
3 33 177 178
3 33 179 181
3 179 24 180
3 179 180 181
3 34 24 33
3 34 4 24
3 182 34 183
3 184 183 5
3 182 183 184
3 35 185 187
3 185 34 186
3 185 186 187
3 35 4 34
3 35 13 4
3 36 13 35
3 36 1 13
3 18 188 189
3 191 190 18
3 37 192 193
3 37 194 196
3 194 6 195
3 194 195 196
3 20 37 7
3 38 37 20
3 38 6 37
3 38 36 6
3 39 36 38
3 39 1 36
3 31 12 0
3 40 12 31
3 40 3 12
3 197 40 198
3 199 40 200
3 201 3 202
3 203 202 40
3 201 202 203
3 204 23 205
3 206 205 3
3 204 205 206
3 41 207 209
3 207 23 208
3 207 208 209
3 41 2 23
3 210 41 211
3 212 41 213
3 214 2 215
3 216 215 41
3 214 215 216
3 217 21 218
3 219 218 2
3 217 218 219
3 220 21 221
3 222 8 223
3 224 223 21
3 222 223 224
3 225 8 226
3 227 39 228
3 229 228 8
3 227 228 229
3 230 39 231
3 232 1 233
3 234 233 39
3 232 233 234
3 236 235 1
3 25 237 238
3 240 239 25
