ply
format ascii 1.0
element vertex 412
property float x
property float y
property float z
element face 436
property list uchar int vertex_index
end_header
31.200109 -9.470311 2.799803
38.945908 -7.819839 16.255924
38.110451 -0.652609 9.128608
22.518356 0.688836 -5.017037
35.688683 -16.099583 7.158749
27.088085 -1.158599 -1.198447
32.998184 -1.564164 3.360689
35.7878 -9.424891 9.080898
38.208801 -16.130535 15.1835
38.530899 -14.04398 23.067318
27.312773 -7.615458 -2.496353
38.654209 -4.304078 12.584405
36.821781 -5.21656 9.288454
37.69585 -8.889683 12.637546
37.150036 -12.804285 12.183049
38.375916 -12.095333 15.889577
38.534824 -18.436743 22.115524
28.948654 -5.515916 0.69325
26.596697 -4.785892 -1.589813
29.097589 -8.859453 0.043888
21.065975 2.133911 -7.043036
33.540459 -12.99951 4.96361
31.589365 -12.18079 1.587435
29.908033 -1.441556 0.850272
31.657686 -5.744719 3.254996
35.831001 -1.167922 6.095695
34.388554 -5.729676 6.148092
33.605072 -9.759936 5.907718
35.444199 -13.19312 8.483019
37.115028 -16.458595 11.028318
38.939919 -11.015186 19.858425
38.721561 -15.286298 19.16494
24.538118 -0.401967 -3.134582
24.645819 -3.610777 -3.826251
38.845211 -6.061475 14.4444
38.164898 -6.567317 12.686192
38.414509 -8.310732 14.391503
38.091167 -10.510106 14.332631
38.616863 -10.10103 16.136883
30.042128 -7.529512 1.723456
28.852932 -7.266866 0.418169
30.049597 -9.160564 1.349257
21.684855 1.50374 -5.983401
22.117867 -0.007904 -6.548535
22.724457 -0.781831 -5.505849
34.597965 -14.53118 5.980788
33.775177 -14.327919 4.152181
34.995167 -15.913502 5.250151
31.502377 -1.545696 2.095177
30.732576 -3.753663 2.028727
32.263264 -3.841157 3.394451
37.822716 1.443328 7.536306
36.60928 1.318764 5.933776
37.069927 -0.832405 7.557102
36.25042 -7.293064 9.213516
35.66082 -5.395408 7.640886
35.06863 -7.661708 7.569407
33.82225 -7.682422 5.961325
34.67244 -9.58359 7.393773
34.483902 -11.519187 7.115443
35.529255 -11.341099 8.871171
37.700554 -14.523726 13.611208
37.061886 -14.737959 11.691526
37.6744 -16.2633 12.981104
38.798019 -12.504244 21.394291
38.800026 -13.320929 19.638405
38.719547 -14.74004 21.257984
38.732243 -18.804087 20.018343
25.752701 -0.83113 -2.185918
26.78105 -6.240563 -1.963985
25.607763 -4.326816 -2.676103
25.948631 -5.71925 -3.201591
25.222698 -4.96742 -4.345128
26.619293 -6.903749 -3.809939
30.848818 -11.75307 0.082574
38.409847 -2.534293 10.832504
37.497189 -3.046032 9.355732
37.823395 -4.950696 10.999256
37.281315 -7.068265 10.951294
36.787876 -9.093563 10.760617
36.535145 -11.131705 10.7171
37.371082 -10.841258 12.485431
37.829258 -12.560001 14.021667
38.227909 -14.100849 15.564597
38.501205 -16.25515 22.771931
38.126404 -17.911213 24.207748
27.985928 -3.512352 -0.249628
26.669008 -3.058315 -1.359213
27.702845 -5.306517 -0.502575
27.789053 -6.859637 -0.784133
28.072483 -8.140725 -1.245636
38.836246 1.703825 9.164092
39.032433 -0.181984 10.755263
39.178867 -2.013075 12.460893
39.293644 -3.719681 14.315279
39.310135 -5.534596 16.261997
21.661848 0.787009 -7.747064
32.382736 -11.299597 3.888986
31.366171 -11.063798 2.338961
32.570992 -12.70157 3.249016
32.972843 -13.893157 2.492497
28.412109 -1.439984 -0.223123
29.317749 -3.723047 0.853246
30.267679 -5.705458 1.929797
31.364119 -7.722754 3.158725
34.509418 -1.429938 4.748814
36.392445 -3.178347 7.7136
35.098541 -3.503428 6.197574
33.652554 -3.750716 4.710114
33.07336 -5.913497 4.725661
32.598072 -7.843662 4.543016
32.435707 -9.658294 4.369891
33.452827 -11.48678 5.502007
34.431271 -13.109122 6.596252
35.455261 -14.740139 7.80905
36.377048 -13.053329 10.405742
36.327896 -14.81446 9.804356
36.430302 -16.337648 9.069024
39.255688 -7.183044 18.122614
39.023575 -7.9692 21.662672
39.127281 -8.665726 19.876577
38.991837 -9.387856 18.049391
38.77763 -11.60925 17.973093
38.616379 -13.606516 17.608114
38.53907 -15.651011 17.156298
38.702461 -16.772362 20.740364
38.708126 -17.26754 18.676058
38.542107 -17.673302 16.487488
23.426857 0.141065 -4.097725
25.522493 -2.700669 -2.370523
24.437016 -2.150417 -3.421965
23.503845 -1.553699 -4.483349
23.927114 -2.957685 -4.970535
30.345932 -10.543356 0.849554
29.375591 -9.933532 -0.651549
28.608027 -9.299617 -2.007066
22.101605 1.096288 -5.500219
21.610713 2.362194 -5.820222
22.027464 1.954741 -5.33704
32.250281 -1.55493 2.727933
31.947803 -0.322182 2.064038
32.695707 -0.331416 2.696794
38.208164 -16.956105 14.767917
37.940963 -17.022488 13.666719
37.9416 -16.196917 14.082302
38.541773 -12.994932 23.206637
38.334173 -13.772277 23.955109
38.664459 -13.274112 22.230804
38.675333 -12.225064 22.370124
38.541773 -12.994932 23.206637
26.420393 -0.994865 -1.692182
25.994649 0.231976 -2.165488
26.662341 0.068242 -1.671753
37.8564 -17.649911 25.083989
38.122912 -16.799107 24.411868
39.160697 2.996707 9.130837
38.700991 2.765494 8.355845
39.388561 0.054273 11.634621
39.353775 1.043481 10.7713
39.709903 1.279738 11.650658
39.461778 -0.861273 12.487436
39.10565 -1.09753 11.608078
39.388561 0.054273 11.634621
39.497483 -3.414238 15.203342
39.510323 -2.634192 14.255796
39.505728 -4.321695 16.176701
39.30189 -4.627139 15.288638
39.497483 -3.414238 15.203342
20.546457 3.382453 -7.315389
20.873911 3.037933 -6.829002
20.802377 2.56311 -7.609521
20.546457 3.382453 -7.315389
21.363912 1.46046 -7.39505
21.100314 1.889659 -7.961536
20.802377 2.56311 -7.609521
22.469233 -0.595365 -6.939362
22.727626 -1.081125 -6.321703
33.622141 -14.701804 2.94544
33.37401 -14.110538 3.322339
34.023308 -14.919185 3.775282
33.934956 -15.252707 2.510697
33.285658 -14.44406 2.057754
33.622141 -14.701804 2.94544
29.52039 -0.23886 0.284891
30.347521 -0.238383 0.839179
29.160071 -1.44077 0.313575
28.772429 -0.238074 -0.251807
29.52039 -0.23886 0.284891
35.573057 -0.058823 5.343413
35.962196 1.184519 5.262453
36.22014 0.075421 6.014736
35.170209 -1.29893 5.422255
34.912265 -0.189831 4.669973
35.573057 -0.058823 5.343413
37.18114 -17.161328 10.619425
36.838777 -17.100855 9.639778
36.772665 -16.398122 10.048671
39.293646 -6.818435 18.977452
39.394793 -6.074925 18.073899
38.824123 -8.802128 22.524518
38.848686 -7.635807 22.554333
39.0336 -9.840456 19.867501
39.008881 -9.48706 20.762189
38.915199 -10.66179 20.753113
38.726494 -18.172725 18.300587
38.720185 -18.035813 19.3472
38.738552 -18.940999 18.97173
38.643484 -18.375606 17.206302
38.625117 -17.470421 17.581773
38.726494 -18.172725 18.300587
38.579648 -18.547587 16.132036
38.643484 -18.375606 17.206302
24.084218 0.835174 -3.519872
24.704262 0.617692 -3.087541
23.982487 -0.130451 -3.616153
23.528588 1.10669 -4.001444
24.084218 0.835174 -3.519872
24.954744 -4.593064 -4.967723
25.617945 -5.485666 -4.763427
29.729378 -10.497846 -1.032879
30.112205 -10.843301 -0.284488
30.465992 -11.407615 -0.665818
29.345596 -10.180889 -1.710638
28.991809 -9.616574 -1.329308
29.729378 -10.497846 -1.032879
21.183351 2.722847 -6.299185
21.610713 2.362194 -5.820222
21.375415 1.818825 -6.513218
20.873911 3.037933 -6.829002
21.183351 2.722847 -6.299185
23.030921 -1.468088 -5.800361
22.727626 -1.081125 -6.321703
22.421162 -0.394868 -6.027192
34.633303 -15.711976 4.324267
34.023308 -14.919185 3.775282
34.385172 -15.12071 4.701166
31.144693 -0.290453 1.461631
31.947803 -0.322182 2.064038
30.705205 -1.493626 1.472724
30.347521 -0.238383 0.839179
31.144693 -0.290453 1.461631
37.215998 1.381046 6.735041
37.053688 2.486859 5.979926
37.660406 2.549141 6.781192
37.74234 -17.150367 12.639529
37.462654 -17.248015 11.663135
37.394714 -16.360948 12.004711
37.74234 -17.150367 12.639529
37.940963 -17.022488 13.666719
38.844249 -11.406319 21.521046
38.675333 -12.225064 22.370124
38.868969 -11.759715 20.626358
38.915199 -10.66179 20.753113
38.844249 -11.406319 21.521046
38.665901 -19.648611 20.654654
38.633533 -18.620415 21.066934
38.567192 -19.464939 21.703245
38.766546 -19.78755 19.568751
38.665901 -19.648611 20.654654
38.738552 -18.940999 18.97173
38.766546 -19.78755 19.568751
25.311553 0.40311 -2.613208
25.994649 0.231976 -2.165488
25.145409 -0.616549 -2.66025
24.704262 0.617692 -3.087541
25.311553 0.40311 -2.613208
26.316242 -6.453831 -4.495833
25.617945 -5.485666 -4.763427
25.920996 -5.935585 -4.077533
31.552688 -12.574879 0.494718
31.219092 -11.96693 0.835004
31.922961 -12.788739 1.247148
31.206418 -12.254923 -0.372697
31.552688 -12.574879 0.494718
30.465992 -11.407615 -0.665818
31.206418 -12.254923 -0.372697
22.52243 1.641958 -4.889316
22.027464 1.954741 -5.33704
35.866592 -16.756595 6.690368
36.17951 -16.892973 7.70203
33.443176 -0.40496 3.347231
32.695707 -0.331416 2.696794
38.325159 -14.86549 23.841653
38.334173 -13.772277 23.955109
38.310312 -15.971075 23.693959
38.516052 -15.149565 22.919624
38.325159 -14.86549 23.841653
38.313805 -17.083182 23.489839
38.310312 -15.971075 23.693959
38.122912 -16.799107 24.411868
37.891394 -18.78408 24.767032
37.8564 -17.649911 25.083989
38.164376 -19.016979 23.823473
37.891394 -18.78408 24.767032
38.368586 -19.279744 22.777361
38.330614 -18.173978 23.161636
38.164376 -19.016979 23.823473
38.567192 -19.464939 21.703245
38.368586 -19.279744 22.777361
38.194226 2.635246 7.541952
37.660406 2.549141 6.781192
38.329481 1.573576 8.350199
38.194226 2.635246 7.541952
38.700991 2.765494 8.355845
39.255682 1.986385 9.975715
39.160697 2.996707 9.130837
39.580133 3.279268 9.942459
38.93434 0.76092 9.959677
39.255682 1.986385 9.975715
39.353775 1.043481 10.7713
39.452934 -1.780889 13.328603
39.461778 -0.861273 12.487436
39.735845 -0.629086 13.355145
39.236255 -2.866378 13.388086
39.452934 -1.780889 13.328603
39.510323 -2.634192 14.255796
21.46948 1.258331 -8.334355
21.100314 1.889659 -7.961536
22.082622 0.264108 -8.183664
21.46948 1.258331 -8.334355
22.241224 -0.197908 -7.538626
21.889857 0.389552 -7.147799
22.469233 -0.595365 -6.939362
22.082622 0.264108 -8.183664
22.241224 -0.197908 -7.538626
32.6147 -13.644922 1.699679
31.922961 -12.788739 1.247148
32.281104 -13.036974 2.039966
32.6147 -13.644922 1.699679
33.285658 -14.44406 2.057754
35.519835 -16.663555 5.736069
35.341925 -16.006542 6.20445
35.866592 -16.756595 6.690368
35.210712 -16.478542 4.731629
35.519835 -16.663555 5.736069
34.633303 -15.711976 4.324267
35.210712 -16.478542 4.731629
27.349336 -0.050451 -1.228601
26.662341 0.068242 -1.671753
28.011349 -0.191143 -0.740939
28.772429 -0.238074 -0.251807
27.750097 -1.299291 -0.710785
27.349336 -0.050451 -1.228601
28.011349 -0.191143 -0.740939
36.431527 2.435036 5.251201
37.053688 2.486859 5.979926
36.431527 2.435036 5.251201
35.962196 1.184519 5.262453
34.198793 -0.337847 4.041294
34.912265 -0.189831 4.669973
33.753801 -1.497051 4.054752
33.443176 -0.40496 3.347231
34.198793 -0.337847 4.041294
36.55032 -17.012006 8.657167
36.17951 -16.892973 7.70203
36.059492 -16.218615 8.113886
36.55032 -17.012006 8.657167
36.838777 -17.100855 9.639778
37.18114 -17.161328 10.619425
37.462654 -17.248015 11.663135
39.422016 -5.250701 17.143591
39.505728 -4.321695 16.176701
39.282911 -6.35882 17.192305
39.422016 -5.250701 17.143591
39.394793 -6.074925 18.073899
39.102187 -6.883945 21.558549
38.848686 -7.635807 22.554333
39.177589 -7.211513 20.747481
39.102187 -6.883945 21.558549
38.957027 -9.138796 21.655237
38.824123 -8.802128 22.524518
39.075428 -8.317463 20.769624
38.957027 -9.138796 21.655237
39.008881 -9.48706 20.762189
39.229443 -7.559776 19.854433
39.177589 -7.211513 20.747481
39.075428 -8.317463 20.769624
39.191485 -7.924385 18.999595
39.293646 -6.818435 18.977452
39.229443 -7.559776 19.854433
38.374817 -17.727488 15.419911
38.208164 -16.956105 14.767917
38.375454 -16.901919 15.835494
38.374817 -17.727488 15.419911
38.579648 -18.547587 16.132036
22.97668 1.368072 -4.429659
23.528588 1.10669 -4.001444
22.972606 0.41495 -4.557381
22.52243 1.641958 -4.889316
22.97668 1.368072 -4.429659
23.63225 -2.556015 -5.532704
23.030921 -1.468088 -5.800361
23.325786 -1.869758 -5.238192
24.306952 -3.588197 -5.280427
24.574906 -3.962553 -4.657832
24.954744 -4.593064 -4.967723
23.63225 -2.556015 -5.532704
24.306952 -3.588197 -5.280427
28.997035 -9.766773 -2.472521
29.345596 -10.180889 -1.710638
28.280363 -8.931159 -2.718921
28.997035 -9.766773 -2.472521
27.632737 -8.08908 -2.963564
27.9604 -8.457538 -2.25171
28.280363 -8.931159 -2.718921
27.285996 -7.733225 -3.620357
26.966033 -7.259604 -3.153146
27.632737 -8.08908 -2.963564
26.996811 -7.293775 -4.286306
27.285996 -7.733225 -3.620357
26.316242 -6.453831 -4.495833
26.996811 -7.293775 -4.286306
3 1 36 34
3 1 38 36
3 0 41 39
3 3 136 138
3 136 42 137
3 136 137 138
3 3 44 42
3 4 47 45
3 6 139 141
3 139 48 140
3 139 140 141
3 6 50 48
3 2 53 51
3 7 56 54
3 7 58 56
3 7 60 58
3 8 63 61
3 8 142 144
3 144 143 63
3 142 143 144
3 9 145 146
3 9 147 149
3 147 64 148
3 147 148 149
3 9 66 64
3 5 150 152
3 150 68 151
3 150 151 152
3 10 71 69
3 10 73 71
3 11 77 75
3 13 78 35
3 13 79 78
3 13 81 79
3 15 82 37
3 15 83 82
3 153 85 154
3 17 88 86
3 19 89 40
3 19 90 89
3 155 91 156
3 157 92 158
3 157 158 159
3 160 93 161
3 162 161 92
3 160 161 162
3 163 94 164
3 165 95 166
3 167 166 94
3 165 166 167
3 20 168 169
3 20 170 171
3 20 172 174
3 172 96 173
3 172 173 174
3 176 175 43
3 21 99 97
3 177 100 178
3 179 178 46
3 177 178 179
3 182 181 100
3 180 181 182
3 23 183 184
3 23 185 187
3 185 101 186
3 185 186 187
3 23 102 101
3 24 103 49
3 24 104 103
3 25 188 190
3 190 189 52
3 188 189 190
3 25 191 193
3 191 105 192
3 191 192 193
3 12 106 76
3 26 107 55
3 26 108 107
3 26 109 108
3 27 110 57
3 27 111 110
3 27 112 111
3 28 113 59
3 28 114 113
3 14 115 80
3 29 116 62
3 29 117 116
3 29 194 196
3 196 195 117
3 194 195 196
3 197 118 198
3 199 119 200
3 30 201 203
3 201 120 202
3 201 202 203
3 30 121 120
3 30 122 121
3 31 123 65
3 31 124 123
3 16 125 84
3 204 126 205
3 206 205 67
3 204 205 206
3 207 127 208
3 209 208 126
3 207 208 209
3 211 210 127
3 32 212 213
3 32 214 216
3 214 128 215
3 214 215 216
3 18 129 87
3 33 130 70
3 33 131 130
3 33 132 131
3 218 217 72
3 22 133 98
3 219 134 220
3 221 220 74
3 219 220 221
3 222 135 223
3 224 223 134
3 222 223 224
3 34 35 11
3 36 35 34
3 36 13 35
3 36 37 13
3 38 37 36
3 38 15 37
3 39 40 17
3 41 40 39
3 41 19 40
3 42 225 226
3 42 227 229
3 227 20 228
3 227 228 229
3 42 43 20
3 44 43 42
3 44 230 232
3 232 231 43
3 230 231 232
3 45 46 21
3 47 46 45
3 47 233 235
3 235 234 46
3 233 234 235
3 48 236 237
3 48 238 240
3 238 23 239
3 238 239 240
3 48 49 23
3 50 49 48
3 50 24 49
3 51 241 243
3 241 52 242
3 241 242 243
3 53 52 51
3 53 25 52
3 54 55 12
3 56 55 54
3 56 26 55
3 56 57 26
3 58 57 56
3 58 27 57
3 58 59 27
3 60 59 58
3 60 28 59
3 61 62 14
3 63 62 61
3 63 29 62
3 63 244 246
3 246 245 29
3 244 245 246
3 248 247 63
3 64 249 250
3 64 251 253
3 251 30 252
3 251 252 253
3 64 65 30
3 66 65 64
3 66 31 65
3 254 67 255
3 256 255 16
3 254 255 256
3 257 67 258
3 260 259 67
3 68 261 262
3 68 263 265
3 263 32 264
3 263 264 265
3 69 70 18
3 71 70 69
3 71 33 70
3 71 72 33
3 73 72 71
3 73 266 268
3 268 267 72
3 266 267 268
3 269 74 270
3 271 270 22
3 269 270 271
3 272 74 273
3 275 274 74
3 276 3 277
3 279 278 4
3 280 6 281
3 75 76 2
3 77 76 75
3 77 12 76
3 35 77 11
3 78 77 35
3 78 12 77
3 78 54 12
3 79 54 78
3 79 7 54
3 79 80 7
3 81 80 79
3 81 14 80
3 37 81 13
3 82 81 37
3 82 14 81
3 82 61 14
3 83 61 82
3 83 8 61
3 282 9 283
3 284 84 285
3 286 285 9
3 284 285 286
3 85 287 289
3 287 84 288
3 287 288 289
3 85 16 84
3 290 85 291
3 292 85 293
3 294 16 295
3 296 295 85
3 294 295 296
3 298 297 16
3 86 87 5
3 88 87 86
3 88 18 87
3 40 88 17
3 89 88 40
3 89 18 88
3 89 69 18
3 90 69 89
3 90 10 69
3 299 51 300
3 91 301 303
3 301 51 302
3 301 302 303
3 91 2 51
3 304 91 305
3 304 305 306
3 92 307 309
3 307 91 308
3 307 308 309
3 92 2 91
3 92 75 2
3 93 75 92
3 93 11 75
3 310 93 311
3 310 311 312
3 94 313 315
3 313 93 314
3 313 314 315
3 94 11 93
3 94 34 11
3 95 34 94
3 95 1 34
3 96 316 317
3 96 318 319
3 43 96 20
3 320 96 321
3 322 321 43
3 320 321 322
3 324 323 96
3 97 98 0
3 99 98 97
3 99 22 98
3 46 99 21
3 100 99 46
3 100 22 99
3 100 325 327
3 327 326 22
3 325 326 327
3 329 328 100
3 330 47 331
3 332 331 4
3 330 331 332
3 333 47 334
3 336 335 47
3 337 5 338
3 101 339 340
3 101 341 343
3 341 5 342
3 341 342 343
3 101 86 5
3 102 86 101
3 102 17 86
3 49 102 23
3 103 102 49
3 103 17 102
3 103 39 17
3 104 39 103
3 104 0 39
3 52 344 345
3 347 346 52
3 105 348 349
3 105 350 352
3 350 6 351
3 350 351 352
3 76 53 2
3 106 53 76
3 106 25 53
3 55 106 12
3 107 106 55
3 107 25 106
3 107 105 25
3 108 105 107
3 108 6 105
3 108 50 6
3 109 50 108
3 109 24 50
3 57 109 26
3 110 109 57
3 110 24 109
3 110 104 24
3 111 104 110
3 111 0 104
3 111 97 0
3 112 97 111
3 112 21 97
3 59 112 27
3 113 112 59
3 113 21 112
3 113 45 21
3 114 45 113
3 114 4 45
3 80 60 7
3 115 60 80
3 115 28 60
3 62 115 14
3 116 115 62
3 116 28 115
3 116 114 28
3 117 114 116
3 117 4 114
3 117 353 355
3 355 354 4
3 353 354 355
3 357 356 117
3 359 358 29
3 360 95 361
3 118 362 364
3 362 95 363
3 362 363 364
3 118 1 95
3 119 365 366
3 119 367 368
3 369 119 370
3 120 371 373
3 371 119 372
3 371 372 373
3 120 374 376
3 376 375 119
3 374 375 376
3 120 377 379
3 377 118 378
3 377 378 379
3 121 118 120
3 121 1 118
3 121 38 1
3 122 38 121
3 122 15 38
3 65 122 30
3 123 122 65
3 123 15 122
3 123 83 15
3 124 83 123
3 124 8 83
3 84 66 9
3 125 66 84
3 125 31 66
3 67 125 16
3 126 125 67
3 126 31 125
3 126 124 31
3 127 124 126
3 127 8 124
3 127 380 382
3 382 381 8
3 380 381 382
3 384 383 127
3 128 385 386
3 128 387 389
3 387 3 388
3 387 388 389
3 87 68 5
3 129 68 87
3 129 32 68
3 70 129 18
3 130 129 70
3 130 32 129
3 130 128 32
3 131 128 130
3 131 3 128
3 131 44 3
3 132 44 131
3 132 390 392
3 392 391 44
3 390 391 392
3 72 132 33
3 393 132 394
3 395 394 72
3 393 394 395
3 397 396 132
3 98 41 0
3 133 41 98
3 133 19 41
3 74 133 22
3 134 133 74
3 134 19 133
3 134 90 19
3 135 90 134
3 135 10 90
3 398 135 399
3 400 135 401
3 402 10 403
3 404 403 135
3 402 403 404
3 405 73 406
3 407 406 10
3 405 406 407
3 408 73 409
3 411 410 73
