ply
format ascii 1.0
element vertex 413
property float x
property float y
property float z
element face 414
property list uchar int vertex_index
end_header
-33.306313 -9.364587 -17.582508
-33.58823 -22.330196 -3.590874
-28.060505 -15.014726 -5.002098
-32.72282 -16.633415 -10.516335
-34.640598 -1.701307 -25.035797
-35.924957 -26.096584 3.682746
-37.501328 -30.089691 -2.098256
-37.165417 -24.073114 -10.10365
-37.58604 -16.67696 -17.536863
-33.977333 -5.478679 -21.324968
-32.194401 -20.815424 -1.008101
-34.591702 -24.40274 0.021694
-36.687065 -28.429853 1.111183
-35.937847 -26.22089 -2.822922
-37.277473 -27.440422 -6.117321
-35.459194 -23.48773 -6.696714
-32.805031 -13.106665 -13.954384
-35.318722 -16.671288 -14.001791
-35.707573 -12.916404 -17.619143
-30.158056 -9.834822 -13.978119
-30.686367 -6.004763 -17.665159
-30.812309 -18.581591 -4.287061
-32.872047 -19.579983 -7.132265
-30.063107 -16.036192 -7.439783
-29.922323 -13.096654 -10.700305
-31.439205 -2.269812 -21.386208
-38.17207 -36.546329 3.638548
-37.890221 -32.363922 2.275804
-38.179752 -34.252388 -1.088033
-38.25008 -31.6614 -5.29475
-35.201199 -20.23472 -10.35909
-37.328514 -20.503502 -13.939283
-33.61327 -7.367009 -19.472324
-32.767895 -21.5753 -2.219809
-33.434166 -22.597359 -0.550148
-34.132977 -23.577951 -1.74174
-35.260635 -25.424065 -1.296462
-34.850517 -24.275349 -3.217216
-35.652138 -24.920656 -4.751655
-34.489079 -22.908453 -5.162865
-33.092033 -11.312638 -15.78287
-28.577105 -9.855154 -12.321551
-28.605587 -15.990408 -3.578274
-30.027065 -17.896887 -3.043045
-29.474602 -16.872272 -4.60043
-30.424276 -17.465658 -5.795598
-28.979826 -15.657684 -6.055332
-28.440969 -12.884582 -9.098914
-29.944756 -11.505733 -12.265027
-35.707306 -3.351641 -24.922064
-35.967464 -1.281719 -26.944824
-34.988377 0.29642 -27.120441
-31.078365 -4.154015 -19.525454
-37.106266 -29.361513 -0.395852
-37.389874 -30.362064 1.707813
-37.684277 -31.295862 0.06175
-38.053257 -33.356209 0.631082
-37.965092 -32.156586 -1.613181
-38.19717 -32.94096 -3.233292
-37.905991 -30.909506 -3.66909
-37.196831 -25.765842 -8.185977
-37.913692 -27.901981 -7.993477
-37.944172 -26.140572 -10.042842
-37.953297 -24.274128 -11.920617
-32.794415 -18.246538 -8.792809
-34.138119 -20.119362 -8.661911
-33.9958 -18.431499 -10.394508
-36.49958 -16.58993 -15.819702
-36.426765 -18.496611 -14.087229
-37.515255 -18.705273 -15.812498
-26.675222 -13.142764 -5.32043
-27.541313 -13.801698 -6.346776
-36.431923 -6.978242 -23.040106
-35.435841 -5.291259 -23.080763
-34.292133 -3.653412 -23.088083
-32.906647 -21.536171 0.607506
-34.22113 -23.560587 1.29631
-35.315269 -25.455965 1.793755
-36.30838 -27.402769 2.468199
-35.739182 -26.431023 0.56925
-36.257057 -27.351315 -0.760917
-36.79076 -28.073912 -2.431844
-37.343811 -28.821121 -4.019542
-36.567177 -26.797865 -4.376095
-36.427963 -25.416199 -6.347872
-36.282097 -23.741701 -8.346511
-32.804501 -14.993234 -12.24991
-34.097847 -16.71431 -12.276604
-34.128178 -14.860917 -14.007213
-35.400234 -14.73401 -15.758708
-36.698257 -14.759229 -17.581413
-31.672213 -9.634058 -15.678158
-32.055058 -7.690702 -17.637512
-30.376135 -7.865719 -15.851851
-31.410206 -19.715874 -2.653603
-32.21941 -20.420969 -3.945745
-33.17865 -20.97859 -5.449702
-31.782515 -19.164618 -5.607641
-31.500349 -17.857418 -7.213361
-31.395626 -16.406349 -8.955166
-28.619158 -14.259866 -7.617728
-29.920029 -14.549645 -9.12968
-31.348402 -14.77298 -10.691243
-31.403131 -13.151731 -12.335534
-31.501995 -11.396059 -14.014988
-32.435505 -5.764461 -19.542454
-32.787525 -3.820689 -21.429222
-33.114117 -1.811834 -23.367729
-33.471966 0.100996 -25.315054
-37.097389 -29.279148 3.185118
-37.72694 -31.310951 3.966157
-38.113922 -33.314796 4.616249
-38.157425 -34.417007 2.928319
-38.17094 -35.503414 1.261124
-37.88755 -29.509312 -5.79451
-34.216236 -21.525171 -6.877334
-35.223919 -21.813181 -8.525756
-36.247345 -22.13755 -10.18881
-35.294289 -18.549601 -12.235342
-36.305725 -20.33189 -12.181386
-37.211372 -22.245621 -12.095476
-33.459792 -8.365798 -18.527416
-34.207905 -8.224756 -19.463741
-34.054427 -9.223546 -18.518833
-33.940049 -10.218608 -17.616147
-33.832909 -11.192633 -16.716328
-33.199173 -10.338612 -16.682689
-34.054427 -9.223546 -18.518833
-33.940049 -10.218608 -17.616147
-27.883055 -8.982835 -12.378554
-27.771066 -9.72074 -11.552501
-28.333046 -15.502567 -4.290186
-27.950238 -15.086088 -3.786255
-27.677697 -14.598247 -4.498166
-27.771066 -9.72074 -11.552501
-28.493706 -10.635583 -11.480593
-35.8484 -25.455176 4.336206
-35.450437 -25.182432 3.373735
-36.263388 -26.380642 4.694215
-35.8484 -25.455176 4.336206
-36.384142 -27.078242 4.156375
-36.263388 -26.380642 4.694215
-37.983011 -17.641905 -17.567808
-37.947619 -18.656061 -16.705626
-37.550647 -17.691116 -16.674681
-38.061892 -16.601512 -18.488758
-37.983011 -17.641905 -17.567808
-26.015267 -12.181874 -5.485838
-26.32828 -12.691309 -4.859327
-26.440378 -12.580588 -5.95512
-26.015267 -12.181874 -5.485838
-36.334888 -7.947997 -22.188981
-36.904117 -7.879087 -23.031185
-34.706587 -5.384969 -22.202866
-35.244818 -6.211716 -22.156013
-34.515564 -6.305426 -21.278115
-32.550524 -21.175798 -0.200297
-32.23539 -20.583071 0.228439
-31.879267 -20.222698 -0.579364
-35.553903 -13.825207 -16.688925
-34.875486 -13.860964 -15.806485
-35.029156 -12.952161 -16.736702
-36.318741 -12.872492 -18.506583
-36.814083 -13.793905 -18.487718
-36.202915 -13.837816 -17.600278
-27.889721 -13.376141 -7.664103
-28.080236 -14.030782 -6.982252
-27.350798 -13.147057 -7.028626
-32.850691 0.920917 -25.401753
-32.617528 -0.017743 -24.379925
-33.672964 1.086679 -26.38739
-32.850691 0.920917 -25.401753
-38.055563 -37.597658 4.026661
-38.175196 -36.976173 4.874371
-38.104712 -37.086905 2.807478
-38.055563 -37.597658 4.026661
-38.164175 -35.292122 -0.776588
-38.159769 -35.917635 0.39799
-38.175346 -34.877901 0.086545
-38.218694 -34.662964 -1.908688
-38.164175 -35.292122 -0.776588
-38.317244 -32.736748 -5.076578
-38.290789 -33.376528 -4.045849
-38.223625 -32.30118 -4.264021
-38.39206 -31.893524 -6.204693
-38.317244 -32.736748 -5.076578
-38.121885 -28.977031 -7.750929
-38.176321 -28.079342 -8.869109
-37.716198 -21.520167 -13.903589
-37.657627 -22.391226 -12.981686
-37.269943 -21.374561 -13.01738
-34.333533 -7.249591 -20.351793
-34.207905 -8.224756 -19.463741
-33.795302 -6.422844 -20.398646
-34.515564 -6.305426 -21.278115
-34.333533 -7.249591 -20.351793
-33.721386 -12.150278 -15.818566
-33.577885 -13.047292 -14.904323
-32.948532 -12.209651 -14.868627
-33.721386 -12.150278 -15.818566
-33.832909 -11.192633 -16.716328
-35.140678 -11.994516 -17.634464
-35.029156 -12.952161 -16.736702
-35.838569 -11.928031 -18.546771
-35.140678 -11.994516 -17.634464
-28.696652 -8.978437 -13.220142
-29.487128 -8.968271 -14.048426
-29.36758 -9.844988 -13.149835
-28.696652 -8.978437 -13.220142
-27.883055 -8.982835 -12.378554
-28.332187 -15.532739 -3.110092
-27.950238 -15.086088 -3.786255
-28.984067 -16.460112 -2.874302
-28.332187 -15.532739 -3.110092
-29.316326 -16.943648 -3.310659
-29.694806 -17.413351 -2.606687
-28.984067 -16.460112 -2.874302
-27.759244 -12.054662 -9.141029
-27.800626 -12.688499 -8.404696
-28.425638 -12.150297 -9.869274
-27.759244 -12.054662 -9.141029
-29.166315 -12.256333 -10.66997
-29.181646 -12.990618 -9.89961
-28.425638 -12.150297 -9.869274
-29.177532 -11.460873 -11.45233
-29.93354 -12.301194 -11.482666
-29.166315 -12.256333 -10.66997
-29.260931 -10.680443 -12.293289
-29.177532 -11.460873 -11.45233
-28.493706 -10.635583 -11.480593
-36.35264 -3.267601 -25.844534
-36.207865 -4.231973 -24.875014
-36.482719 -2.232641 -26.855914
-36.35264 -3.267601 -25.844534
-35.837385 -2.31668 -25.933444
-36.610003 -1.380128 -27.766618
-36.482719 -2.232641 -26.855914
-36.145758 -0.405135 -27.951731
-36.610003 -1.380128 -27.766618
-35.656214 0.383935 -28.039539
-36.145758 -0.405135 -27.951731
-35.47792 -0.49265 -27.032632
-35.123793 1.278391 -28.173277
-35.656214 0.383935 -28.039539
-30.241763 -4.350167 -18.58417
-30.882366 -5.079389 -18.595306
-30.045764 -5.275541 -17.654023
-30.381335 -3.355759 -19.527759
-30.241763 -4.350167 -18.58417
-30.561755 -2.413657 -20.458136
-31.258785 -3.211914 -20.455831
-30.381335 -3.355759 -19.527759
-38.218142 -35.939746 4.457662
-38.175196 -36.976173 4.874371
-38.191561 -27.198638 -9.893791
-38.176321 -28.079342 -8.869109
-37.928932 -27.021276 -9.018159
-38.255049 -26.301032 -10.925839
-38.191561 -27.198638 -9.893791
-38.259611 -25.367811 -11.864726
-38.255049 -26.301032 -10.925839
-37.948735 -25.20735 -10.98173
-38.327893 -24.488273 -12.807707
-38.259611 -25.367811 -11.864726
-37.888319 -19.710676 -15.770044
-37.794949 -20.60979 -14.833436
-37.421885 -19.604388 -14.875891
-37.888319 -19.710676 -15.770044
-37.947619 -18.656061 -16.705626
-26.985056 -13.662266 -4.657332
-26.32828 -12.691309 -4.859327
-27.367863 -14.078745 -5.161264
-27.677697 -14.598247 -4.498166
-26.985056 -13.662266 -4.657332
-26.873424 -12.910055 -6.468293
-27.108268 -13.472231 -5.833603
-26.440378 -12.580588 -5.95512
-27.350798 -13.147057 -7.028626
-26.873424 -12.910055 -6.468293
-37.032652 -6.887961 -23.9587
-36.904117 -7.879087 -23.031185
-36.570173 -6.045274 -23.934036
-37.032652 -6.887961 -23.9587
-35.742859 -7.055207 -22.135684
-36.334888 -7.947997 -22.188981
-35.933882 -6.13475 -23.060434
-35.742859 -7.055207 -22.135684
-35.244818 -6.211716 -22.156013
-36.072133 -5.201782 -23.954364
-36.570173 -6.045274 -23.934036
-35.933882 -6.13475 -23.060434
-35.571573 -4.32145 -24.001413
-36.207865 -4.231973 -24.875014
-36.072133 -5.201782 -23.954364
-32.718817 -20.920764 1.072272
-32.23539 -20.583071 0.228439
-33.350499 -21.909329 1.450153
-32.718817 -20.920764 1.072272
-34.00774 -22.921537 1.794555
-33.350499 -21.909329 1.450153
-33.563889 -22.548379 0.951908
-34.598524 -23.914434 2.180517
-34.00774 -22.921537 1.794555
-35.145594 -24.862122 2.429239
-34.598524 -23.914434 2.180517
-34.7682 -24.508276 1.545033
-35.620113 -25.776274 2.73825
-35.450437 -25.182432 3.373735
-35.145594 -24.862122 2.429239
-34.239458 -13.924418 -14.930737
-33.466605 -13.983791 -13.980798
-33.577885 -13.047292 -14.904323
-34.764206 -14.797463 -14.88296
-34.239458 -13.924418 -14.930737
-34.875486 -13.860964 -15.806485
-37.250725 -14.716219 -18.499797
-37.694616 -15.675084 -18.477522
-37.142148 -15.718094 -17.559138
-37.250725 -14.716219 -18.499797
-36.814083 -13.793905 -18.487718
-36.318741 -12.872492 -18.506583
-35.838569 -11.928031 -18.546771
-29.596167 -7.98372 -14.985291
-30.267095 -8.850271 -14.914985
-29.487128 -8.968271 -14.048426
-29.6344 -7.048834 -15.810972
-29.596167 -7.98372 -14.985291
-29.789516 -6.118356 -16.717626
-30.531251 -6.935241 -16.758505
-29.6344 -7.048834 -15.810972
-30.045764 -5.275541 -17.654023
-29.789516 -6.118356 -16.717626
-31.479171 -19.833467 -1.306819
-31.879267 -20.222698 -0.579364
-30.395503 -18.374198 -2.324291
-29.694806 -17.413351 -2.606687
-31.087073 -19.283691 -2.12957
-30.395503 -18.374198 -2.324291
-30.718635 -18.80638 -2.848324
-31.802304 -20.265649 -1.830852
-31.479171 -19.833467 -1.306819
-31.087073 -19.283691 -2.12957
-28.530063 -13.572224 -8.358321
-27.889721 -13.376141 -7.664103
-27.800626 -12.688499 -8.404696
-30.810544 -1.43587 -21.493725
-30.561755 -2.413657 -20.458136
-31.601147 -1.203148 -22.415502
-30.810544 -1.43587 -21.493725
-32.438603 -0.974158 -23.406263
-32.276661 -2.040823 -22.376969
-31.601147 -1.203148 -22.415502
-33.293042 -0.855419 -24.341392
-32.438603 -0.974158 -23.406263
-32.617528 -0.017743 -24.379925
-34.431169 1.184391 -27.290084
-34.230171 0.198708 -26.217748
-33.672964 1.086679 -26.38739
-35.123793 1.278391 -28.173277
-34.431169 1.184391 -27.290084
-36.575854 -27.731334 3.549101
-36.384142 -27.078242 4.156375
-36.116669 -26.749676 3.075473
-36.970358 -28.669524 3.907561
-36.575854 -27.731334 3.549101
-36.702884 -28.340958 2.826658
-37.334993 -29.708889 4.304229
-36.970358 -28.669524 3.907561
-37.649769 -30.72479 4.694748
-37.334993 -29.708889 4.304229
-37.412165 -30.295049 3.575638
-37.893585 -31.686935 5.145478
-37.649769 -30.72479 4.694748
-38.087076 -32.688858 5.470524
-37.893585 -31.686935 5.145478
-37.920431 -32.312874 4.291203
-38.213369 -33.672199 5.764105
-38.087076 -32.688858 5.470524
-38.189068 -34.32398 4.946512
-38.213369 -33.672199 5.764105
-38.210819 -34.875085 4.102548
-38.189068 -34.32398 4.946512
-38.135674 -33.865901 3.772284
-38.164748 -35.481668 3.283434
-38.218142 -35.939746 4.457662
-38.210819 -34.875085 4.102548
-38.104147 -36.565447 1.618766
-38.104712 -37.086905 2.807478
-38.171505 -36.024872 2.449836
-38.104147 -36.565447 1.618766
-38.159769 -35.917635 0.39799
-38.227404 -34.00725 -2.981317
-38.218694 -34.662964 -1.908688
-38.188461 -33.596674 -2.160662
-38.227404 -34.00725 -2.981317
-38.290789 -33.376528 -4.045849
-38.108814 -29.780697 -6.651445
-37.900621 -28.705647 -6.893994
-38.121885 -28.977031 -7.750929
-38.290079 -30.856741 -6.401565
-38.068815 -30.585356 -5.54463
-38.108814 -29.780697 -6.651445
-38.39206 -31.893524 -6.204693
-38.290079 -30.856741 -6.401565
-38.028589 -23.405479 -12.894256
-37.582335 -23.259875 -12.008046
-37.657627 -22.391226 -12.981686
-38.327893 -24.488273 -12.807707
-38.028589 -23.405479 -12.894256
-37.716198 -21.520167 -13.903589
-37.794949 -20.60979 -14.833436
-38.061892 -16.601512 -18.488758
-37.694616 -15.675084 -18.477522
3 0 121 123
3 121 32 122
3 121 122 123
3 1 35 33
3 1 37 35
3 1 39 37
3 0 124 126
3 126 125 40
3 124 125 126
3 0 127 128
3 130 129 41
3 2 131 133
3 131 42 132
3 131 132 133
3 2 44 42
3 2 46 44
3 134 41 135
3 4 50 49
3 4 51 50
3 5 136 137
3 5 138 139
3 5 140 141
3 6 55 53
3 6 57 55
3 6 59 57
3 7 62 60
3 7 63 62
3 3 66 64
3 8 69 67
3 8 142 144
3 144 143 69
3 142 143 144
3 8 145 146
3 147 70 148
3 150 149 70
3 151 72 152
3 9 153 155
3 153 73 154
3 153 154 155
3 9 74 73
3 10 156 158
3 156 75 157
3 156 157 158
3 11 76 34
3 11 77 76
3 11 79 77
3 13 80 36
3 13 81 80
3 13 83 81
3 15 84 38
3 15 85 84
3 16 88 86
3 18 159 161
3 159 89 160
3 159 160 161
3 18 90 89
3 18 162 164
3 164 163 90
3 162 163 164
3 19 93 91
3 21 94 43
3 21 95 94
3 21 97 95
3 23 98 45
3 23 99 98
3 165 100 166
3 167 166 71
3 165 166 167
3 24 101 47
3 24 102 101
3 24 103 102
3 19 104 48
3 19 91 104
3 20 105 92
3 25 106 52
3 25 107 106
3 168 108 169
3 171 170 108
3 26 172 173
3 26 174 175
3 12 109 78
3 27 110 54
3 27 111 110
3 27 112 111
3 28 113 56
3 28 176 178
3 178 177 113
3 176 177 178
3 28 179 180
3 29 181 183
3 183 182 58
3 181 182 183
3 29 184 185
3 14 114 82
3 187 186 61
3 22 115 96
3 30 116 65
3 30 117 116
3 17 118 87
3 31 119 68
3 31 120 119
3 31 188 190
3 190 189 120
3 188 189 190
3 32 191 192
3 32 193 195
3 193 9 194
3 193 194 195
3 33 34 10
3 35 34 33
3 35 11 34
3 35 36 11
3 37 36 35
3 37 13 36
3 37 38 13
3 39 38 37
3 39 15 38
3 40 196 198
3 198 197 16
3 196 197 198
3 200 199 40
3 201 18 202
3 204 203 18
3 41 205 207
3 207 206 19
3 205 206 207
3 209 208 41
3 42 210 211
3 42 212 213
3 42 214 216
3 214 43 215
3 214 215 216
3 44 43 42
3 44 21 43
3 44 45 21
3 46 45 44
3 46 23 45
3 217 47 218
3 219 47 220
3 221 24 222
3 223 222 47
3 221 222 223
3 224 48 225
3 226 225 24
3 224 225 226
3 41 227 229
3 227 48 228
3 227 228 229
3 41 19 48
3 49 230 231
3 50 232 234
3 234 233 49
3 232 233 234
3 50 235 236
3 50 237 238
3 51 239 241
3 241 240 50
3 239 240 241
3 51 242 243
3 244 52 245
3 246 245 20
3 244 245 246
3 247 52 248
3 249 25 250
3 251 250 52
3 249 250 251
3 252 26 253
3 53 54 12
3 55 54 53
3 55 27 54
3 55 56 27
3 57 56 55
3 57 28 56
3 57 58 28
3 59 58 57
3 59 29 58
3 60 61 14
3 62 61 60
3 62 254 256
3 256 255 61
3 254 255 256
3 62 257 258
3 63 259 261
3 261 260 62
3 259 260 261
3 63 262 263
3 64 65 22
3 66 65 64
3 66 30 65
3 67 68 17
3 69 68 67
3 69 31 68
3 69 264 266
3 266 265 31
3 264 265 266
3 268 267 69
3 70 269 270
3 70 271 273
3 271 2 272
3 271 272 273
3 70 71 2
3 274 71 275
3 276 275 70
3 274 275 276
3 278 277 71
3 72 279 280
3 72 281 282
3 283 72 284
3 73 285 287
3 285 72 286
3 285 286 287
3 73 288 290
3 290 289 72
3 288 289 290
3 73 291 293
3 291 49 292
3 291 292 293
3 74 49 73
3 74 4 49
3 75 294 295
3 75 296 297
3 34 75 10
3 76 75 34
3 76 298 300
3 300 299 75
3 298 299 300
3 76 301 302
3 77 303 305
3 305 304 76
3 303 304 305
3 77 306 308
3 306 5 307
3 306 307 308
3 77 78 5
3 79 78 77
3 79 12 78
3 36 79 11
3 80 79 36
3 80 12 79
3 80 53 12
3 81 53 80
3 81 6 53
3 81 82 6
3 83 82 81
3 83 14 82
3 38 83 13
3 84 83 38
3 84 14 83
3 84 60 14
3 85 60 84
3 85 7 60
3 86 87 3
3 88 87 86
3 88 17 87
3 309 88 310
3 311 310 16
3 309 310 311
3 89 312 314
3 312 88 313
3 312 313 314
3 89 17 88
3 89 67 17
3 90 67 89
3 90 8 67
3 90 315 317
3 317 316 8
3 315 316 317
3 319 318 90
3 321 320 18
3 91 92 0
3 93 92 91
3 93 20 92
3 322 93 323
3 324 323 19
3 322 323 324
3 325 93 326
3 327 20 328
3 329 328 93
3 327 328 329
3 331 330 20
3 332 10 333
3 43 334 335
3 94 336 338
3 338 337 43
3 336 337 338
3 94 339 341
3 339 10 340
3 339 340 341
3 94 33 10
3 95 33 94
3 95 1 33
3 95 96 1
3 97 96 95
3 97 22 96
3 45 97 21
3 98 97 45
3 98 22 97
3 98 64 22
3 99 64 98
3 99 3 64
3 71 46 2
3 100 46 71
3 100 23 46
3 47 342 344
3 342 100 343
3 342 343 344
3 101 100 47
3 101 23 100
3 101 99 23
3 102 99 101
3 102 3 99
3 102 86 3
3 103 86 102
3 103 16 86
3 48 103 24
3 104 103 48
3 104 16 103
3 104 40 16
3 91 40 104
3 91 0 40
3 92 32 0
3 105 32 92
3 105 9 32
3 52 105 20
3 106 105 52
3 106 9 105
3 106 74 9
3 107 74 106
3 107 4 74
3 345 25 346
3 347 25 348
3 349 107 350
3 351 350 25
3 349 350 351
3 108 352 354
3 352 107 353
3 352 353 354
3 108 4 107
3 108 51 4
3 355 51 356
3 357 356 108
3 355 356 357
3 359 358 51
3 78 360 362
3 362 361 5
3 360 361 362
3 109 363 365
3 365 364 78
3 363 364 365
3 109 366 367
3 54 109 12
3 110 109 54
3 110 368 370
3 370 369 109
3 368 369 370
3 110 371 372
3 111 373 375
3 375 374 110
3 373 374 375
3 111 376 377
3 111 378 379
3 112 380 382
3 382 381 111
3 380 381 382
3 112 383 385
3 383 26 384
3 383 384 385
3 56 112 27
3 113 112 56
3 113 26 112
3 113 386 388
3 388 387 26
3 386 387 388
3 390 389 113
3 58 391 393
3 393 392 28
3 391 392 393
3 395 394 58
3 82 59 6
3 114 59 82
3 114 29 59
3 61 114 14
3 396 114 397
3 398 397 61
3 396 397 398
3 399 29 400
3 401 400 114
3 399 400 401
3 403 402 29
3 96 39 1
3 115 39 96
3 115 15 39
3 65 115 22
3 116 115 65
3 116 15 115
3 116 85 15
3 117 85 116
3 117 7 85
3 87 66 3
3 118 66 87
3 118 30 66
3 68 118 17
3 119 118 68
3 119 30 118
3 119 117 30
3 120 117 119
3 120 7 117
3 120 63 7
3 404 63 405
3 406 405 120
3 404 405 406
3 408 407 63
3 410 409 31
3 412 411 8
