ply
format ascii 1.0
element vertex 577
property float x
property float y
property float z
element face 544
property list uchar int vertex_index
end_header
-19.035164 72.169449 -20.290688
-14.229426 88.202614 -16.397032
-19.792305 77.683273 -14.415194
-15.894688 83.499794 -24.074327
-21.89492 69.595612 -5.315943
-22.066885 65.975075 -12.66338
-19.004997 59.587944 -16.720751
-15.85246 64.37944 -23.019209
-15.447488 86.149582 -20.582376
-12.888869 88.368561 -25.769384
-18.380177 75.601257 -0.814751
-20.668051 70.224541 -0.83631
-19.976002 75.00563 -5.379596
-19.889597 75.147667 -17.594931
-21.348673 71.799477 -13.311667
-20.707226 69.244545 -16.264057
-20.866219 63.287777 -15.079028
-17.604107 68.542824 -22.009205
-16.042833 84.701599 -11.064426
-18.947313 79.363457 -10.289655
-17.477592 83.075348 -15.45489
-18.043848 81.064522 -19.243126
-18.006306 78.039391 -22.133999
-17.197039 74.412445 -24.261696
-15.81554 79.889969 -26.579479
-22.513515 64.84481 -1.261748
-23.368347 63.756958 -5.420521
-21.057508 73.776772 -9.677334
-23.325575 62.245419 -9.051966
-20.654762 56.744801 -13.944818
-13.958344 59.415379 -23.849436
-15.834935 70.027657 -25.490309
-14.122559 65.401917 -26.403276
-12.566044 60.563324 -27.199631
-12.314219 89.958305 -23.974653
-19.238352 75.366272 -3.165451
-18.726467 77.9496 -5.747951
-19.539656 73.771912 -19.087435
-20.376101 72.277168 -16.960701
-19.926653 70.751328 -18.202469
-18.387766 70.473465 -21.258465
-15.059965 86.722534 -13.672577
-16.757576 84.113327 -13.311398
-17.064867 82.335747 -21.575705
-18.172026 79.57122 -20.67626
-17.073925 80.878639 -23.104769
-17.031721 79.02137 -24.219194
-15.966636 81.755737 -25.396528
-21.406223 69.811111 -3.099631
-21.636675 67.664482 -1.142353
-22.295786 67.104195 -3.343911
-23.025717 64.478355 -3.515241
-22.684589 66.759514 -5.421165
-19.503975 78.535561 -12.486132
-20.097431 76.639847 -10.106323
-20.504131 75.72982 -11.886512
-21.78817 68.861893 -12.985924
-21.93696 69.976273 -11.303857
-22.422909 66.914909 -11.005127
-22.952602 65.085121 -9.226655
-22.716724 64.153267 -10.85032
-22.950268 61.109642 -10.615059
-22.324694 62.947586 -12.131008
-20.068932 61.410843 -15.863936
-20.827814 60.02454 -14.44767
-19.845474 58.194256 -15.2747
-19.543245 54.635159 -14.658357
-18.802691 56.339611 -15.927645
-16.635056 63.257915 -21.320906
-15.631886 60.996468 -21.792269
-14.89107 61.934082 -23.414854
-16.185335 75.188866 -26.230818
-16.596291 72.157242 -24.902761
-15.597353 72.993469 -26.860346
-13.329105 65.981529 -28.137232
-13.352017 62.997948 -26.705345
-14.8115 87.427322 -18.72315
-13.62375 88.808495 -21.337885
-14.156043 87.475716 -23.24012
-14.561402 85.909584 -24.896545
-13.270989 86.703285 -27.27462
-11.82733 87.308884 -29.647316
-18.720509 73.087997 1.530401
-19.805124 70.604294 1.414076
-19.657835 72.836617 -0.902528
-20.440155 72.542633 -3.200483
-21.048994 72.20459 -5.339927
-19.922279 76.517921 -16.225636
-20.649185 74.835785 -13.918686
-20.643553 73.647041 -15.44956
-21.094313 70.837112 -14.960418
-21.380365 67.823425 -14.510477
-21.573601 64.587616 -13.922339
-20.864107 66.275253 -15.624177
-20.123369 64.566666 -16.617033
-17.679077 65.507431 -20.735655
-16.795576 66.273018 -22.40317
-18.161274 80.177429 -8.173092
-17.615314 82.080345 -10.7848
-18.23192 81.389519 -12.86313
-18.725861 80.464859 -14.731366
-17.829313 82.198723 -17.43203
-18.979362 79.450531 -16.801128
-18.984482 76.753433 -19.848265
-18.622671 75.226868 -21.243061
-18.145788 73.387741 -22.273649
-17.650948 76.341919 -23.383801
-16.643517 77.278847 -25.406734
-14.767299 82.417023 -27.663015
-17.711185 73.206223 4.005167
-14.229665 87.305679 -11.434115
-20.931101 67.824745 1.122192
-21.870922 65.22113 0.835355
-23.726336 61.650562 -3.839346
-23.923439 60.927864 -5.711459
-19.490252 77.321014 -7.840934
-20.556442 74.631485 -7.637829
-21.540514 71.646935 -7.466649
-21.306416 72.873886 -11.701124
-21.84729 70.908112 -9.436472
-22.311697 68.806465 -7.284722
-23.461605 63.078388 -7.346342
-23.901878 59.953682 -7.447454
-21.613262 61.524765 -13.474925
-21.623964 58.394073 -12.989436
-17.506281 71.493088 -23.115316
-16.764822 69.329475 -23.680523
-15.923971 67.337746 -24.243851
-14.860387 70.702179 -27.392378
-14.941196 67.892677 -26.115395
-14.989541 65.061096 -24.737007
-14.12359 62.551716 -25.041231
-13.236779 59.996063 -25.520069
-12.478397 57.336563 -25.993746
-11.906801 57.967453 -27.65444
-18.065261 79.196453 -5.75729
-18.357772 77.985836 -4.532617
-19.152792 70.691761 -19.802986
-19.598537 69.9827 -18.758877
-19.480909 71.460388 -19.246578
-18.711465 71.321457 -20.774577
-18.829093 69.843769 -20.286875
-19.152792 70.691761 -19.802986
-15.064529 86.996357 -16.192592
-15.479799 86.256317 -14.830365
-14.644696 87.462574 -15.034804
-16.479778 82.91777 -22.825016
-16.422577 83.600872 -21.990301
-15.837488 84.182896 -23.239612
-18.491374 58.534073 -16.978899
-18.390221 56.909906 -16.582346
-18.903844 57.963777 -16.324198
-15.348806 74.339306 -27.533176
-15.891344 74.091168 -26.545582
-15.642796 75.437005 -27.218412
-12.908107 66.127575 -29.013339
-13.2292 67.429378 -28.936943
-12.967788 64.763162 -28.298908
-12.908107 66.127575 -29.013339
-12.624827 90.052315 -21.615309
-13.314442 89.327938 -20.224373
-10.862958 88.408528 -30.185776
-11.595952 88.289193 -28.921654
-10.631581 89.388836 -29.460114
-11.025201 87.448791 -30.863268
-10.862958 88.408528 -30.185776
-19.718681 65.296844 -17.492582
-20.113117 66.13638 -17.00584
-19.684725 63.629019 -17.015866
-19.718681 65.296844 -17.492582
-17.641592 67.025127 -21.37243
-18.084834 66.448857 -20.445722
-18.047349 67.966553 -21.082497
-16.829073 83.390972 -10.924613
-17.221259 82.32386 -9.566695
-16.435018 83.634487 -9.706508
-15.956904 85.488067 -19.278591
-15.63891 86.126937 -18.348978
-15.129494 86.788452 -19.652763
-17.93658 81.631622 -18.337578
-17.354273 82.917816 -18.644526
-17.461541 82.350716 -19.550073
-18.569533 79.606949 -18.82676
-19.03729 78.799954 -17.605761
-18.511605 80.257526 -18.022127
-15.680443 78.808788 -27.024202
-16.094432 77.503228 -26.437829
-16.229529 78.584408 -25.993106
-14.119594 83.622883 -28.176533
-14.735425 83.357674 -27.056199
-17.068617 74.438831 4.052254
-17.273829 73.083755 5.174662
-17.58623 74.413353 2.833104
-17.068617 74.438831 4.052254
-13.318024 88.449649 -11.596063
-13.788239 87.449337 -10.14857
-13.750398 88.225983 -12.879197
-13.318024 88.449649 -11.596063
-22.635035 63.64882 -0.343987
-22.313738 63.836981 0.704565
-22.192219 65.03297 -0.213197
-22.927741 63.489748 -1.518906
-22.635035 63.64882 -0.343987
-22.163007 69.444988 -9.367441
-21.892125 70.442193 -10.370165
-22.207842 68.979069 -10.301134
-22.395211 68.394165 -8.291567
-22.079493 69.857289 -8.360597
-22.163007 69.444988 -9.367441
-22.624925 67.400264 -7.30076
-22.395211 68.394165 -8.291567
-23.449618 60.699995 -9.095471
-23.737769 59.554127 -8.293215
-23.613726 61.09955 -8.24971
-23.022368 59.521742 -10.528306
-22.658761 60.415464 -11.267991
-21.061761 55.926701 -13.303554
-21.546362 56.751337 -12.825863
-21.139363 57.569437 -13.467127
-20.527667 55.027935 -13.711616
-21.061761 55.926701 -13.303554
-18.869158 51.939489 -14.649158
-19.398604 52.890152 -14.370791
-19.013799 53.684496 -14.936724
-13.879697 57.696768 -23.226715
-14.298583 58.974295 -23.049473
-13.550458 58.102147 -24.060623
-13.879697 57.696768 -23.226715
-14.358944 70.874229 -28.316482
-14.68048 72.087562 -28.11943
-14.531878 66.647297 -26.259335
-14.487896 68.089214 -26.990052
-14.078577 66.843834 -27.133993
-11.267629 91.166191 -24.254558
-11.970062 90.62722 -22.933693
-11.65325 90.374744 -25.180059
-11.267629 91.166191 -24.254558
-11.940575 89.579872 -26.077425
-12.601544 89.163433 -24.872018
-11.65325 90.374744 -25.180059
-12.126722 88.819031 -26.982688
-11.940575 89.579872 -26.077425
-18.613715 76.694172 -3.241367
-18.809264 75.483765 -1.990101
-18.184627 76.811665 -2.066018
-18.982409 76.657936 -4.456701
-18.613715 76.694172 -3.241367
-18.357772 77.985836 -4.532617
-20.014759 69.228711 -17.798558
-20.405045 68.475319 -16.829352
-20.31694 69.997937 -17.233263
-20.014759 69.228711 -17.798558
-19.598537 69.9827 -18.758877
-18.439178 68.931873 -20.707127
-18.829093 69.843769 -20.286875
-17.995936 69.508145 -21.633835
-18.047349 67.966553 -21.082497
-18.439178 68.931873 -20.707127
-16.328605 84.951713 -14.649776
-15.90877 85.41793 -13.491988
-15.479799 86.256317 -14.830365
-16.688613 84.432724 -15.721522
-17.117584 83.594337 -14.383144
-16.328605 84.951713 -14.649776
-16.163361 84.893246 -20.219698
-15.613888 85.50779 -21.493636
-16.972051 82.986328 -20.716363
-16.422577 83.600872 -21.990301
-17.554358 81.700134 -20.409416
-17.461541 82.350716 -19.550073
-16.972051 82.986328 -20.716363
-22.450817 67.448387 -10.151769
-22.207842 68.979069 -10.301134
-22.179935 68.445591 -11.154492
-22.687756 66.000015 -10.115891
-22.715663 66.533493 -9.262533
-22.450817 67.448387 -10.151769
-22.345974 61.334436 -12.025965
-22.658761 60.415464 -11.267991
-22.637481 62.028614 -11.373034
-18.643521 54.536722 -15.571368
-19.013799 53.684496 -14.936724
-19.172968 55.487385 -15.293001
-18.234213 55.177194 -16.182695
-18.643521 54.536722 -15.571368
-18.234213 55.177194 -16.182695
-18.390221 56.909906 -16.582346
-16.490851 61.601671 -20.799419
-17.045933 62.758003 -20.522576
-15.989266 60.470948 -21.0351
-16.490851 61.601671 -20.799419
-16.133471 62.127191 -21.556587
-15.492856 59.243916 -21.226579
-15.989266 60.470948 -21.0351
-15.135355 59.76484 -22.02089
-15.492856 59.243916 -21.226579
-14.764947 60.233646 -22.832182
-15.135355 59.76484 -22.02089
-15.261478 61.465275 -22.603561
-14.424707 60.67473 -23.632145
-14.298583 58.974295 -23.049473
-14.764947 60.233646 -22.832182
-13.68185 67.13364 -28.000971
-13.2292 67.429378 -28.936943
-13.725832 65.691723 -27.270254
-14.078577 66.843834 -27.133993
-13.68185 67.13364 -28.000971
-12.979243 63.271372 -27.582965
-13.340561 64.489739 -27.421289
-12.967788 64.763162 -28.298908
-12.586257 62.05406 -27.830108
-12.959031 61.780636 -26.952488
-12.979243 63.271372 -27.582965
-12.241862 60.716069 -27.999225
-12.586257 62.05406 -27.830108
-13.908317 88.637352 -18.917006
-14.520463 87.814968 -17.560091
-13.61728 89.024998 -17.753946
-14.217625 88.117908 -20.030518
-13.908317 88.637352 -18.917006
-13.314442 89.327938 -20.224373
-12.968984 89.3834 -22.656269
-12.624827 90.052315 -21.615309
-11.970062 90.62722 -22.933693
-14.968166 86.170856 -22.822508
-15.613888 85.50779 -21.493636
-14.801766 86.812649 -21.911248
-15.170845 85.38779 -23.65072
-14.968166 86.170856 -22.822508
-14.358722 86.69265 -24.068333
-15.228045 84.704689 -24.485436
-15.837488 84.182896 -23.239612
-15.170845 85.38779 -23.65072
-14.632476 85.103955 -25.672964
-15.299119 83.899059 -25.261855
-15.228045 84.704689 -24.485436
-13.98727 85.500805 -26.862001
-14.632476 85.103955 -25.672964
-13.916196 86.306434 -26.085583
-13.37144 85.766014 -27.982335
-13.98727 85.500805 -26.862001
-12.317782 87.986393 -27.735306
-13.079929 87.535923 -26.522002
-12.126722 88.819031 -26.982688
-12.54916 87.006085 -28.460968
-12.317782 87.986393 -27.735306
-11.595952 88.289193 -28.921654
-12.64961 86.068814 -29.168683
-13.37144 85.766014 -27.982335
-12.54916 87.006085 -28.460968
-11.927321 86.332386 -30.286099
-12.64961 86.068814 -29.168683
-11.125191 86.472294 -31.502052
-11.927321 86.332386 -30.286099
-11.025201 87.448791 -30.863268
-19.262816 71.846146 1.472239
-19.365973 70.604431 2.62718
-18.823666 71.846283 2.685342
-20.483486 66.990673 -16.509411
-20.785666 67.759899 -15.944117
-20.405045 68.475319 -16.829352
-20.493738 65.42096 -16.120605
-20.483486 66.990673 -16.509411
-20.113117 66.13638 -17.00584
-19.657507 62.051108 -16.639317
-20.096151 62.988754 -16.240485
-19.684725 63.629019 -17.015866
-19.12554 61.139658 -17.067725
-19.536964 60.499393 -16.292344
-19.657507 62.051108 -16.639317
-18.637477 60.327224 -17.44513
-19.12554 61.139658 -17.067725
-18.078951 64.833633 -19.883778
-18.084834 66.448857 -20.445722
-17.567943 63.882761 -20.22995
-18.078951 64.833633 -19.883778
-17.157066 64.382673 -21.028281
-17.045933 62.758003 -20.522576
-17.567943 63.882761 -20.22995
-17.494239 81.372402 -8.260841
-17.782664 80.310368 -6.969861
-17.888294 81.128887 -9.478946
-17.494239 81.372402 -8.260841
-17.221259 82.32386 -9.566695
-15.355567 86.608711 -17.355652
-15.064529 86.996357 -16.192592
-14.520463 87.814968 -17.560091
-15.355567 86.608711 -17.355652
-15.63891 86.126937 -18.348978
-16.971956 83.950951 -16.714848
-16.688613 84.432724 -15.721522
-15.956904 85.488067 -19.278591
-16.163361 84.893246 -20.219698
-17.147816 83.512638 -17.703418
-17.354273 82.917816 -18.644526
-17.653453 82.637035 -16.44346
-16.971956 83.950951 -16.714848
-17.147816 83.512638 -17.703418
-19.508749 77.333649 -17.318016
-19.45082 77.984226 -16.513382
-19.03729 78.799954 -17.605761
-19.492408 76.648522 -18.002663
-19.905938 75.832794 -16.910283
-19.508749 77.333649 -17.318016
-18.633623 78.860298 -19.543328
-18.569533 79.606949 -18.82676
-18.107937 80.317871 -19.959693
-19.039851 77.451404 -19.12933
-18.633623 78.860298 -19.543328
-18.578254 78.162327 -20.262262
-19.437039 75.95055 -18.721598
-19.492408 76.648522 -18.002663
-19.039851 77.451404 -19.12933
-15.865341 76.458237 -26.849871
-16.414426 76.233857 -25.818776
-16.094432 77.503228 -26.437829
-15.642796 75.437005 -27.218412
-15.865341 76.458237 -26.849871
-15.335093 83.027031 -25.922956
-15.930662 82.627765 -24.735428
-15.299119 83.899059 -25.261855
-15.366967 82.08638 -26.529772
-15.335093 83.027031 -25.922956
-14.735425 83.357674 -27.056199
-14.124885 82.685975 -28.744266
-14.119594 83.622883 -28.176533
-14.704511 81.337769 -28.196844
-14.124885 82.685975 -28.744266
-15.228632 80.074241 -27.655076
-15.291419 81.153496 -27.121247
-14.704511 81.337769 -28.196844
-15.680443 78.808788 -27.024202
-15.228632 80.074241 -27.655076
-17.902636 71.808189 5.078684
-17.273829 73.083755 5.174662
-18.319004 71.905395 3.922726
-17.902636 71.808189 5.078684
-18.215847 73.14711 2.767784
-18.823666 71.846283 2.685342
-18.319004 71.905395 3.922726
-18.090892 74.35424 1.595721
-18.215847 73.14711 2.767784
-17.58623 74.413353 2.833104
-17.920726 75.61087 0.423145
-18.550343 74.344627 0.357825
-18.090892 74.35424 1.595721
-17.717841 76.865295 -0.793508
-17.920726 75.61087 0.423145
-18.184627 76.811665 -2.066018
-17.717841 76.865295 -0.793508
-15.63057 84.905571 -9.888427
-16.435018 83.634487 -9.706508
-14.723986 86.207611 -10.073272
-13.788239 87.449337 -10.14857
-15.136249 86.003639 -11.24927
-15.63057 84.905571 -9.888427
-14.723986 86.207611 -10.073272
-14.165548 87.93441 -13.998428
-14.644815 87.014106 -12.553346
-13.750398 88.225983 -12.879197
-13.750279 88.67445 -15.360656
-14.644696 87.462574 -15.034804
-14.165548 87.93441 -13.998428
-13.201791 89.483654 -16.602303
-13.750279 88.67445 -15.360656
-13.61728 89.024998 -17.753946
-13.201791 89.483654 -16.602303
-19.924812 69.325672 2.469259
-19.365973 70.604431 2.62718
-20.4878 67.935897 2.323317
-19.924812 69.325672 2.469259
-20.368113 69.214519 1.268134
-21.032552 66.614067 2.087832
-20.4878 67.935897 2.323317
-21.502463 65.31226 1.944414
-21.032552 66.614067 2.087832
-21.401012 66.522937 0.978773
-21.992266 63.950726 1.760259
-21.623807 64.041855 2.869318
-21.502463 65.31226 1.944414
-21.992266 63.950726 1.760259
-22.313738 63.836981 0.704565
-23.183842 63.30652 -2.645653
-22.927741 63.489748 -1.518906
-22.769616 64.661582 -2.388495
-23.534152 61.892624 -2.807705
-23.183842 63.30652 -2.645653
-23.376027 63.064459 -3.677294
-23.90269 60.493089 -2.954422
-23.534152 61.892624 -2.807705
-24.022626 60.293137 -3.966983
-23.90269 60.493089 -2.954422
-24.121178 59.931787 -4.90304
-24.022626 60.293137 -3.966983
-23.824887 61.289213 -4.775403
-24.169948 59.460217 -5.791722
-24.121178 59.931787 -4.90304
-18.44387 79.063514 -6.960522
-18.065261 79.196453 -5.75729
-17.782664 80.310368 -6.969861
-22.811371 66.376789 -6.368982
-22.498143 67.782989 -6.352944
-22.624925 67.400264 -7.30076
-23.15325 64.875511 -6.36866
-23.026468 65.258236 -5.420843
-22.811371 66.376789 -6.368982
-22.945378 65.539592 -8.271727
-22.715663 66.533493 -9.262533
-23.19988 64.536226 -7.33157
-22.945378 65.539592 -8.271727
-23.207103 64.081755 -8.286499
-23.414976 63.417673 -6.383432
-23.15325 64.875511 -6.36866
-23.19988 64.536226 -7.33157
-24.159168 58.973126 -6.65972
-24.169948 59.460217 -5.791722
-23.912658 60.440773 -6.579456
-24.048825 58.585903 -7.544467
-24.159168 58.973126 -6.65972
-24.048825 58.585903 -7.544467
-23.737769 59.554127 -8.293215
-23.261964 60.132107 -9.877018
-23.449618 60.699995 -9.095471
-23.137922 61.677531 -9.833513
-23.261964 60.132107 -9.877018
-23.022368 59.521742 -10.528306
-21.990258 60.623026 -12.697924
-22.345974 61.334436 -12.025965
-21.968978 62.236176 -12.802967
-21.995609 59.05768 -12.455179
-21.990258 60.623026 -12.697924
-21.618613 59.959419 -13.232181
-22.009403 57.3752 -12.295023
-21.995609 59.05768 -12.455179
-22.009403 57.3752 -12.295023
-21.546362 56.751337 -12.825863
-19.971908 53.973114 -14.068385
-20.527667 55.027935 -13.711616
-20.099004 55.68998 -14.301588
-19.971908 53.973114 -14.068385
-19.398604 52.890152 -14.370791
-18.491374 58.534073 -16.978899
-18.637477 60.327224 -17.44513
-15.048963 73.233207 -27.853414
-15.348806 74.339306 -27.533176
-15.22887 71.847824 -27.126362
-15.048963 73.233207 -27.853414
-14.68048 72.087562 -28.11943
-14.447491 69.493965 -27.628544
-14.358944 70.874229 -28.316482
-14.900792 69.297428 -26.753887
-14.447491 69.493965 -27.628544
-14.487896 68.089214 -26.990052
-13.189675 58.392488 -24.895939
-13.550458 58.102147 -24.060623
-13.597562 59.705721 -24.684753
-12.810484 57.062738 -25.132778
-13.189675 58.392488 -24.895939
-12.857588 58.666313 -25.756908
-12.451759 55.729212 -25.433696
-12.810484 57.062738 -25.132778
-12.189229 56.12359 -26.282301
-12.451759 55.729212 -25.433696
-11.903431 56.439036 -27.112648
-12.189229 56.12359 -26.282301
-12.192599 57.652008 -26.824093
-11.644391 56.705501 -27.954312
-11.64102 55.177084 -27.41252
-11.903431 56.439036 -27.112648
-11.91224 59.418133 -28.22663
-12.236422 59.265389 -27.427036
-12.241862 60.716069 -27.999225
-11.618614 58.202088 -28.492345
-11.91224 59.418133 -28.22663
-11.356204 56.940136 -28.792217
-11.644391 56.705501 -27.954312
-11.618614 58.202088 -28.492345
3 135 36 136
3 0 39 37
3 0 137 139
3 139 138 39
3 137 138 139
3 0 140 142
3 140 40 141
3 140 141 142
3 1 143 145
3 145 144 41
3 143 144 145
3 3 146 148
3 146 43 147
3 146 147 148
3 3 45 43
3 3 47 45
3 4 50 48
3 4 52 50
3 2 55 53
3 5 58 56
3 5 60 58
3 5 62 60
3 6 65 63
3 6 67 65
3 6 149 151
3 151 150 67
3 149 150 151
3 7 69 68
3 7 70 69
3 152 73 153
3 154 153 71
3 152 153 154
3 155 74 156
3 158 157 74
3 159 77 160
3 9 78 34
3 9 79 78
3 9 80 79
3 161 81 162
3 161 162 163
3 165 164 81
3 10 84 82
3 12 85 35
3 12 86 85
3 13 89 87
3 15 90 38
3 15 91 90
3 15 93 91
3 166 94 167
3 169 168 94
3 17 170 172
3 170 95 171
3 170 171 172
3 17 96 95
3 18 173 175
3 173 98 174
3 173 174 175
3 20 99 42
3 20 100 99
3 8 176 178
3 178 177 76
3 176 177 178
3 21 179 181
3 179 101 180
3 179 180 181
3 21 102 101
3 21 182 184
3 184 183 102
3 182 183 184
3 22 103 44
3 22 104 103
3 22 106 104
3 24 107 46
3 24 185 187
3 187 186 107
3 185 186 187
3 188 108 189
3 190 109 191
3 193 192 109
3 194 110 195
3 197 196 110
3 11 111 83
3 25 112 49
3 25 198 200
3 200 199 112
3 198 199 200
3 25 201 202
3 26 113 51
3 26 114 113
3 19 115 97
3 27 116 54
3 27 117 116
3 14 118 88
3 203 119 204
3 205 204 57
3 203 204 205
3 206 120 207
3 208 207 119
3 206 207 208
3 210 209 120
3 28 121 59
3 28 122 121
3 28 211 213
3 213 212 122
3 211 212 213
3 215 214 61
3 16 123 92
3 29 124 64
3 29 216 218
3 218 217 124
3 216 217 218
3 29 219 220
3 223 222 66
3 221 222 223
3 30 224 225
3 30 226 227
3 23 125 105
3 31 126 72
3 31 127 126
3 228 128 229
3 32 230 232
3 230 129 231
3 230 231 232
3 32 130 129
3 32 131 130
3 33 132 75
3 33 133 132
3 33 134 133
3 233 34 234
3 235 34 236
3 237 9 238
3 239 238 34
3 237 238 239
3 241 240 9
3 242 35 243
3 244 243 10
3 242 243 244
3 36 245 247
3 245 35 246
3 245 246 247
3 36 12 35
3 37 38 13
3 39 38 37
3 39 15 38
3 39 248 250
3 250 249 15
3 248 249 250
3 252 251 39
3 40 253 254
3 40 255 257
3 255 17 256
3 255 256 257
3 41 42 18
3 258 42 259
3 260 259 41
3 258 259 260
3 261 20 262
3 263 262 42
3 261 262 263
3 265 264 8
3 43 266 267
3 43 268 270
3 268 21 269
3 268 269 270
3 43 44 21
3 45 44 43
3 45 22 44
3 45 46 22
3 47 46 45
3 47 24 46
3 48 49 11
3 50 49 48
3 50 25 49
3 50 51 25
3 52 51 50
3 52 26 51
3 53 54 19
3 55 54 53
3 55 27 54
3 56 57 14
3 58 57 56
3 58 271 273
3 273 272 57
3 271 272 273
3 58 274 276
3 274 59 275
3 274 275 276
3 60 59 58
3 60 28 59
3 60 61 28
3 62 61 60
3 62 277 279
3 279 278 61
3 277 278 279
3 63 64 16
3 65 64 63
3 65 29 64
3 65 66 29
3 67 66 65
3 67 280 282
3 282 281 66
3 280 281 282
3 67 283 284
3 286 285 67
3 68 287 288
3 69 289 291
3 291 290 68
3 289 290 291
3 69 292 293
3 69 294 295
3 70 296 298
3 298 297 69
3 296 297 298
3 70 299 301
3 299 30 300
3 299 300 301
3 71 72 23
3 73 72 71
3 73 31 72
3 74 302 303
3 74 304 306
3 304 32 305
3 304 305 306
3 74 75 32
3 307 75 308
3 309 308 74
3 307 308 309
3 310 33 311
3 312 311 75
3 310 311 312
3 314 313 33
3 315 76 316
3 317 316 1
3 315 316 317
3 77 318 320
3 318 76 319
3 318 319 320
3 77 8 76
3 34 321 323
3 321 77 322
3 321 322 323
3 78 77 34
3 78 8 77
3 78 324 326
3 326 325 8
3 324 325 326
3 79 327 329
3 329 328 78
3 327 328 329
3 79 330 332
3 330 3 331
3 330 331 332
3 79 333 335
3 335 334 3
3 333 334 335
3 80 336 338
3 338 337 79
3 336 337 338
3 80 339 340
3 341 80 342
3 343 342 9
3 341 342 343
3 81 344 346
3 344 80 345
3 344 345 346
3 81 347 349
3 349 348 80
3 347 348 349
3 81 350 351
3 354 353 81
3 352 353 354
3 82 355 357
3 355 83 356
3 355 356 357
3 84 83 82
3 84 11 83
3 35 84 10
3 85 84 35
3 85 11 84
3 85 48 11
3 86 48 85
3 86 4 48
3 87 88 2
3 89 88 87
3 89 14 88
3 38 89 13
3 90 89 38
3 90 14 89
3 90 56 14
3 91 56 90
3 91 5 56
3 91 92 5
3 93 92 91
3 93 16 92
3 358 93 359
3 360 359 15
3 358 359 360
3 94 361 363
3 361 93 362
3 361 362 363
3 94 16 93
3 94 63 16
3 364 63 365
3 366 365 94
3 364 365 366
3 367 6 368
3 369 368 63
3 367 368 369
3 371 370 6
3 95 372 373
3 95 374 375
3 95 376 378
3 376 68 377
3 376 377 378
3 96 68 95
3 96 7 68
3 379 97 380
3 98 381 383
3 381 97 382
3 381 382 383
3 98 19 97
3 42 98 18
3 99 98 42
3 99 19 98
3 99 53 19
3 100 53 99
3 100 2 53
3 76 384 386
3 386 385 1
3 384 385 386
3 388 387 76
3 389 20 390
3 392 391 8
3 101 393 394
3 101 395 397
3 395 20 396
3 395 396 397
3 101 100 20
3 102 100 101
3 102 2 100
3 102 87 2
3 398 87 399
3 400 399 102
3 398 399 400
3 401 13 402
3 403 402 87
3 401 402 403
3 44 404 406
3 406 405 21
3 404 405 406
3 103 407 409
3 409 408 44
3 407 408 409
3 103 410 412
3 410 13 411
3 410 411 412
3 103 37 13
3 104 37 103
3 104 0 37
3 104 105 0
3 106 105 104
3 106 23 105
3 46 106 22
3 107 106 46
3 107 23 106
3 107 71 23
3 413 71 414
3 415 414 107
3 413 414 415
3 417 416 71
3 418 47 419
3 420 419 3
3 418 419 420
3 108 421 423
3 421 47 422
3 421 422 423
3 108 24 47
3 424 108 425
3 426 108 427
3 428 24 429
3 430 429 108
3 428 429 430
3 432 431 24
3 109 433 434
3 109 435 436
3 109 437 439
3 437 82 438
3 437 438 439
3 440 82 441
3 442 441 109
3 440 441 442
3 443 10 444
3 445 444 82
3 443 444 445
3 446 10 447
3 449 448 10
3 450 18 451
3 110 452 453
3 110 454 456
3 454 18 455
3 454 455 456
3 110 41 18
3 457 41 458
3 459 458 110
3 457 458 459
3 460 1 461
3 462 461 41
3 460 461 462
3 463 1 464
3 466 465 1
3 83 467 468
3 111 469 471
3 471 470 83
3 469 470 471
3 111 472 473
3 49 111 11
3 112 111 49
3 112 474 476
3 476 475 111
3 474 475 476
3 112 477 479
3 477 478 479
3 481 480 112
3 51 482 484
3 484 483 25
3 482 483 484
3 113 485 487
3 487 486 51
3 485 486 487
3 113 488 489
3 113 490 491
3 114 492 494
3 494 493 113
3 492 493 494
3 114 495 496
3 97 497 499
3 497 36 498
3 497 498 499
3 115 36 97
3 115 12 36
3 54 115 19
3 116 115 54
3 116 12 115
3 116 86 12
3 117 86 116
3 117 4 86
3 88 55 2
3 118 55 88
3 118 27 55
3 57 118 14
3 119 118 57
3 119 27 118
3 119 117 27
3 120 117 119
3 120 4 117
3 120 52 4
3 500 52 501
3 502 501 120
3 500 501 502
3 503 26 504
3 505 504 52
3 503 504 505
3 59 506 507
3 121 508 510
3 510 509 59
3 508 509 510
3 121 511 513
3 511 26 512
3 511 512 513
3 121 114 26
3 122 114 121
3 122 514 516
3 516 515 114
3 514 515 516
3 122 517 518
3 520 519 122
3 61 521 523
3 523 522 28
3 521 522 523
3 525 524 61
3 92 62 5
3 123 62 92
3 123 526 528
3 528 527 62
3 526 527 528
3 64 123 16
3 124 123 64
3 124 529 531
3 531 530 123
3 529 530 531
3 124 532 533
3 535 534 124
3 66 536 538
3 538 537 29
3 536 537 538
3 540 539 66
3 542 541 6
3 105 40 0
3 125 40 105
3 125 17 40
3 72 125 23
3 126 125 72
3 126 17 125
3 126 96 17
3 127 96 126
3 127 7 96
3 543 73 544
3 128 545 547
3 545 73 546
3 545 546 547
3 128 31 73
3 548 128 549
3 129 550 552
3 550 128 551
3 550 551 552
3 129 31 128
3 129 127 31
3 130 127 129
3 130 7 127
3 130 70 7
3 131 70 130
3 131 30 70
3 75 131 32
3 132 131 75
3 132 30 131
3 132 553 555
3 555 554 30
3 553 554 555
3 133 556 558
3 558 557 132
3 556 557 558
3 133 559 560
3 133 561 562
3 134 563 565
3 565 564 133
3 563 564 565
3 134 566 568
3 566 567 568
3 569 134 570
3 571 570 33
3 569 570 571
3 572 134 573
3 576 575 134
3 574 575 576
