ply
format ascii 1.0
element vertex 186
property float x
property float y
property float z
element face 139
property list uchar int vertex_index
end_header
-19.8785 106.40094 -24.944153
-20.218864 105.556961 -5.037243
-22.590214 103.598114 -30.169764
-17.111832 107.651215 -18.909557
-17.907278 105.147476 -30.911139
-21.396233 106.527 -18.196274
-19.380089 103.700714 -33.331123
-21.512331 105.723122 -8.086608
-22.036242 104.812248 -4.733977
-18.592743 107.213753 -22.065153
-19.350254 107.267334 -18.802067
-20.687073 106.62429 -21.447056
-12.096566 100.834015 -38.044739
-20.825405 106.520271 -11.724869
-21.272257 105.127174 -27.813042
-21.98761 105.520851 -24.582285
-14.778327 107.648026 -19.307344
-16.147934 107.489075 -22.185415
-17.55088 106.967392 -24.907179
-18.942123 105.926758 -28.006252
-20.34606 104.578529 -30.620634
-13.90711 105.866531 -6.344568
-22.624973 103.582008 -1.102595
-17.919142 107.53241 -15.599532
-19.981339 107.070564 -15.239723
-22.406739 105.19022 -7.907823
-22.044522 105.667595 -9.670274
-11.333254 101.487652 -36.893404
-12.696998 101.703762 -36.998474
-19.78929 106.823246 -11.908657
-20.238892 106.493336 -10.249092
-22.917081 103.858722 -28.641241
-22.258102 104.623253 -27.46288
-21.931235 104.362644 -28.991403
-13.512588 107.466152 -19.301329
-14.05957 107.525467 -17.689263
-15.709399 107.250282 -23.75115
-14.882814 107.415562 -22.237136
-16.410872 106.989441 -25.112032
-16.849407 107.228234 -23.546297
-15.709399 107.250282 -23.75115
-17.232078 105.709412 -29.533077
-16.723423 105.257515 -30.89045
-18.424701 105.537117 -29.458695
-17.7495 106.099052 -28.080634
-17.232078 105.709412 -29.533077
-21.178813 102.330365 -34.465546
-20.512473 103.291184 -33.209255
-20.04643 102.739895 -34.587413
-12.69994 105.597527 -6.554772
-13.207216 105.247871 -4.901446
-13.422068 106.165988 -8.067503
-12.69994 105.597527 -6.554772
-20.56023 105.009892 -3.351682
-19.536072 105.285454 -3.58175
-23.173307 103.595169 -2.513954
-22.330607 104.197128 -2.918286
-22.878941 104.210289 -4.329645
-23.421958 102.933281 -0.686014
-23.173307 103.595169 -2.513954
-17.515487 107.591813 -17.254545
-16.733662 107.587097 -15.794659
-16.330007 107.6465 -17.449672
-21.732616 106.343929 -16.478367
-21.025168 106.615711 -15.000092
-20.688786 106.798782 -16.717999
-22.359357 105.537991 -22.928509
-22.963891 104.895207 -24.225546
-24.127294 101.899608 -31.296281
-23.533767 102.913196 -29.973125
-23.18374 102.584526 -31.492921
-17.415536 104.617462 -32.213017
-16.723423 105.257515 -30.89045
-18.151941 103.894081 -33.423009
-18.643684 104.424095 -32.121131
-17.415536 104.617462 -32.213017
-18.825409 103.073398 -34.669694
-18.151941 103.894081 -33.423009
-20.04643 102.739895 -34.587413
-18.825409 103.073398 -34.669694
-22.668695 104.734783 -6.231508
-21.774287 105.267685 -6.410293
-22.406739 105.19022 -7.907823
-22.878941 104.210289 -4.329645
-22.668695 104.734783 -6.231508
-13.399914 100.898247 -38.202846
-14.000346 101.767994 -37.156582
-12.696998 101.703762 -36.998474
-12.867551 99.961204 -39.1879
-13.399914 100.898247 -38.202846
-10.610627 100.566917 -37.839177
-11.333254 101.487652 -36.893404
-11.459256 99.836372 -38.97726
-10.610627 100.566917 -37.839177
-12.230242 98.963562 -40.120422
-12.867551 99.961204 -39.1879
-11.459256 99.836372 -38.97726
-19.287179 105.798233 -5.377797
-19.536072 105.285454 -3.58175
-19.935622 106.01168 -6.905279
-19.287179 105.798233 -5.377797
-20.582355 106.094761 -8.429962
-20.865597 105.640041 -6.561926
-19.935622 106.01168 -6.905279
-21.168868 106.121696 -9.905739
-20.582355 106.094761 -8.429962
-20.238892 106.493336 -10.249092
-21.701059 106.06617 -11.489404
-22.044522 105.667595 -9.670274
-21.168868 106.121696 -9.905739
-22.615779 104.820091 -25.847502
-21.629933 105.324012 -26.197663
-22.258102 104.623253 -27.46288
-22.963891 104.895207 -24.225546
-22.615779 104.820091 -25.847502
-22.917081 103.858722 -28.641241
-23.533767 102.913196 -29.973125
-15.163255 107.644905 -17.648566
-14.05957 107.525467 -17.689263
-15.94508 107.64962 -19.108451
-16.330007 107.6465 -17.449672
-15.163255 107.644905 -17.648566
-14.198011 107.495037 -20.798101
-13.512588 107.466152 -19.301329
-15.463131 107.568551 -20.746379
-14.198011 107.495037 -20.798101
-14.882814 107.415562 -22.237136
-17.053878 106.61937 -26.531098
-16.410872 106.989441 -25.112032
-18.246502 106.447075 -26.456716
-17.053878 106.61937 -26.531098
-17.7495 106.099052 -28.080634
-20.995458 103.730091 -31.854011
-19.863075 104.139622 -31.975879
-20.512473 103.291184 -33.209255
-22.117535 103.239883 -31.628576
-21.468137 104.088322 -30.395199
-20.995458 103.730091 -31.854011
-23.18374 102.584526 -31.492921
-22.117535 103.239883 -31.628576
-14.343758 105.449039 -4.647274
-13.207216 105.247871 -4.901446
-15.010652 105.995143 -6.213058
-14.343758 105.449039 -4.647274
-14.601152 106.348022 -7.963755
-15.010652 105.995143 -6.213058
-14.601152 106.348022 -7.963755
-13.422068 106.165988 -8.067503
-21.468919 104.637535 -3.20005
-20.56023 105.009892 -3.351682
-21.127553 105.184605 -4.88561
-21.763285 104.022415 -1.384359
-21.468919 104.637535 -3.20005
-22.330607 104.197128 -2.918286
-22.061714 103.368629 0.367066
-21.763285 104.022415 -1.384359
-22.921852 102.842247 0.732195
-22.358593 102.628869 2.201856
-22.061714 103.368629 0.367066
-22.921852 102.842247 0.732195
-23.421958 102.933281 -0.686014
-17.205525 107.461822 -14.183469
-16.733662 107.587097 -15.794659
-18.336159 107.329316 -13.845989
-17.205525 107.461822 -14.183469
-19.367258 107.098393 -13.666084
-18.336159 107.329316 -13.845989
-18.95024 107.301487 -15.419628
-20.403372 106.795417 -13.482296
-19.78929 106.823246 -11.908657
-19.367258 107.098393 -13.666084
-21.447201 106.340564 -13.242665
-20.403372 106.795417 -13.482296
-21.025168 106.615711 -15.000092
-21.701059 106.06617 -11.489404
-21.447201 106.340564 -13.242665
-21.709089 106.08971 -21.360895
-21.337342 106.07257 -23.014671
-22.359357 105.537991 -22.928509
-22.063668 106.041065 -19.735504
-21.041653 106.575645 -19.821665
-21.709089 106.08971 -21.360895
-22.341367 105.965038 -17.943673
-22.063668 106.041065 -19.735504
-21.732616 106.343929 -16.478367
-22.341367 105.965038 -17.943673
3 26 25 7
3 0 11 9
3 27 12 28
3 29 13 30
3 2 31 33
3 33 32 14
3 31 32 33
3 34 16 35
3 36 17 37
3 38 18 39
3 40 39 17
3 38 39 40
3 4 41 42
3 4 43 45
3 43 19 44
3 43 44 45
3 4 20 19
3 48 47 6
3 46 47 48
3 49 21 50
3 52 51 21
3 1 53 54
3 55 22 56
3 57 56 8
3 55 56 57
3 59 58 22
3 3 60 62
3 60 23 61
3 60 61 62
3 5 24 10
3 5 63 65
3 65 64 24
3 63 64 65
3 67 66 15
3 70 69 2
3 68 69 70
3 71 4 72
3 73 6 74
3 75 74 4
3 73 74 75
3 76 6 77
3 79 78 6
3 7 8 1
3 80 8 81
3 82 81 7
3 80 81 82
3 84 83 8
3 9 10 3
3 11 10 9
3 11 5 10
3 12 85 87
3 85 86 87
3 12 88 89
3 90 12 91
3 92 12 93
3 96 95 12
3 94 95 96
3 97 1 98
3 99 1 100
3 101 7 102
3 103 102 1
3 101 102 103
3 13 104 106
3 104 7 105
3 104 105 106
3 13 107 109
3 109 108 7
3 107 108 109
3 14 15 0
3 110 15 111
3 112 111 14
3 110 111 112
3 114 113 15
3 116 115 2
3 16 117 118
3 16 119 121
3 119 3 120
3 119 120 121
3 122 16 123
3 17 124 126
3 124 16 125
3 124 125 126
3 17 3 16
3 17 9 3
3 18 9 17
3 18 0 9
3 127 18 128
3 19 129 131
3 129 18 130
3 129 130 131
3 19 0 18
3 19 14 0
3 20 14 19
3 20 2 14
3 6 20 4
3 132 20 133
3 134 133 6
3 132 133 134
3 135 2 136
3 137 136 20
3 135 136 137
3 139 138 2
3 21 140 141
3 21 142 143
3 21 144 145
3 147 146 21
3 8 148 150
3 150 149 1
3 148 149 150
3 22 151 153
3 153 152 8
3 151 152 153
3 22 154 155
3 22 156 158
3 156 157 158
3 160 159 22
3 23 161 162
3 23 163 164
3 10 23 3
3 24 23 10
3 24 165 167
3 167 166 23
3 165 166 167
3 24 168 170
3 168 13 169
3 168 169 170
3 171 13 172
3 173 172 24
3 171 172 173
3 175 174 13
3 15 11 0
3 176 11 177
3 178 177 15
3 176 177 178
3 179 5 180
3 181 180 11
3 179 180 181
3 182 5 183
3 185 184 5
