ply
format ascii 1.0
element vertex 596
property float x
property float y
property float z
element face 594
property list uchar int vertex_index
end_header
-10.136556 -96.101494 -24.153463
-10.531129 -87.559296 -37.855034
-23.801796 -75.73098 -24.93902
-0.580238 -100.491051 -8.514034
-2.49782 -102.116959 -26.627516
-0.95809 -99.236603 -34.288906
-10.308064 -93.674995 -30.995928
-16.699186 -87.438637 -24.742283
-18.611448 -81.799835 -32.498245
-20.003159 -73.459061 -39.426769
-6.981666 -98.920975 -25.467503
-6.212714 -98.573402 -29.210302
-10.333289 -95.218246 -27.273064
-5.823657 -93.87664 -36.327194
-5.578633 -90.007874 -39.349476
-10.728344 -83.214699 -40.653412
1.81953 -103.564156 -13.525885
-3.097589 -100.586922 -13.451803
-20.419228 -81.585022 -24.612211
-21.546309 -78.879913 -28.829062
-23.553974 -71.020821 -36.75145
-20.290768 -68.04528 -42.717564
2.611563 -104.816689 -26.962103
-1.657042 -101.291603 -30.598034
-5.906757 -96.793976 -32.951252
-10.434052 -91.04084 -34.601368
-25.24227 -72.467911 -29.306633
-11.830182 -94.147476 -20.831543
-13.161286 -92.410057 -24.550459
-15.479136 -89.400826 -20.750246
-18.990723 -84.002075 -20.336899
-22.270189 -78.361687 -20.566206
-21.576744 -77.507957 -11.250175
-23.466471 -75.225166 -16.048143
-9.897928 -95.744087 -17.114305
-8.186522 -97.99427 -21.458412
1.120807 -104.618324 -22.608416
-3.961634 -101.469757 -22.27006
-13.919643 -90.553543 -28.0872
-14.472732 -88.062889 -31.839426
-14.946329 -84.845421 -35.3643
-22.805727 -75.110214 -32.780777
-19.36871 -78.088364 -35.99559
-15.45074 -80.579834 -38.731098
-15.622813 -75.745621 -41.756474
-8.793118 -97.379295 -24.736748
-8.593131 -97.250694 -26.489508
-10.147416 -95.859627 -25.582176
-8.035105 -90.909233 -37.192734
-5.645329 -92.091309 -37.915234
-8.224399 -88.639679 -38.786564
-8.191621 -86.659058 -40.068016
-10.70395 -85.386665 -39.319492
3.180239 -103.412788 -10.950101
0.598941 -102.107178 -11.020877
-0.601276 -102.201813 -13.483886
-1.835759 -100.679726 -11.090824
-22.061691 -78.789375 -24.89603
-20.983366 -80.336464 -26.762617
-22.836901 -77.193268 -26.902905
0.080697 -103.63459 -26.764885
0.677643 -103.319412 -28.905088
-1.860321 -101.996124 -28.591955
-8.270576 -96.263908 -30.149776
-6.129204 -97.738663 -31.131516
-8.270308 -95.224236 -32.037449
-8.159814 -94.03978 -33.86618
-10.36563 -92.441185 -32.885384
1.396533 -101.62957 -32.738342
-19.756573 -82.496338 -18.181595
-21.376698 -79.673676 -18.294071
-23.860895 -73.76413 -13.959987
-24.398344 -73.952454 -18.342054
5.858966 -105.890373 -15.516201
3.783697 -105.853683 -22.919361
-6.155303 -99.767136 -21.715399
-14.88046 -90.0868 -24.597361
-13.488619 -91.648651 -26.313354
-15.464643 -88.898247 -26.535988
-16.11002 -86.623817 -30.317049
-16.497889 -85.095375 -32.13995
-14.782145 -86.476616 -33.609962
-16.816711 -83.424828 -33.967274
-25.828165 -70.749535 -31.333752
-24.076193 -73.876152 -31.039982
-24.711088 -71.818359 -33.077278
-21.872114 -72.139557 -38.23156
-21.541618 -74.41613 -36.455814
-19.62336 -75.951347 -37.784683
-17.450085 -79.444809 -37.409939
-17.620592 -77.24292 -39.08226
-15.707624 -78.035034 -40.314842
-17.891094 -74.590431 -40.698994
-4.874846 -100.550201 -25.970016
-4.421638 -100.42691 -27.997015
-6.557737 -98.907082 -27.301277
-8.375423 -96.938271 -28.266239
-10.192053 -94.709595 -29.121645
-3.376241 -96.72924 -35.370251
-3.202791 -95.084595 -36.97179
-5.691044 -87.553223 -40.661739
-8.20812 -84.202438 -41.370625
-2.010781 -101.93795 -15.832516
-4.424887 -100.215012 -15.650555
-18.572491 -84.563293 -24.67745
-17.390522 -86.03418 -26.690254
-19.258316 -83.137505 -26.677191
-19.703693 -81.884903 -28.687464
-20.111769 -80.44722 -30.721659
-23.955524 -68.619019 -38.528343
-22.135139 -69.681572 -39.941753
-20.021545 -71.015076 -41.135414
3.250808 -104.401505 -29.072153
1.151217 -102.697861 -30.825544
-1.078841 -100.589417 -32.41687
-3.985619 -100.031883 -29.936777
-3.604576 -99.302048 -31.871162
-3.460438 -98.161354 -33.672985
-5.801837 -95.504166 -34.697468
-8.223894 -92.545181 -35.497025
-10.516444 -89.313278 -36.329231
-24.614773 -74.049385 -27.11591
-10.919381 -95.279625 -22.723444
-11.484104 -94.537994 -24.312798
-14.292293 -91.062042 -22.634031
-16.106276 -88.497108 -22.745331
-17.226692 -86.814911 -20.653742
-17.901941 -85.776772 -22.669811
-19.640358 -82.988014 -22.549618
-21.429829 -79.961403 -22.591484
-23.077425 -77.052628 -22.796791
-22.572348 -76.335442 -13.744386
-22.028019 -78.00238 -15.958669
-22.917675 -76.821938 -18.282049
-23.770332 -75.579208 -20.510235
-5.516415 -98.664597 -12.956674
-7.928549 -97.71228 -17.48843
-9.04154 -96.961189 -19.35338
-10.047502 -96.143867 -21.125828
-9.255457 -97.035355 -22.988289
4.502385 -105.95018 -24.987249
1.900536 -104.876991 -24.878393
-0.593443 -103.577621 -24.694206
-1.572693 -103.079559 -22.597624
-2.99217 -102.08815 -24.481449
-5.428558 -100.34082 -23.980165
-7.476624 -98.672089 -23.432261
-11.759515 -93.920967 -25.947567
-12.035379 -93.06752 -27.771343
-12.107747 -92.233589 -29.659866
-15.801844 -87.85743 -28.402931
-14.144505 -89.493286 -29.965118
-12.448741 -90.859703 -31.505774
-12.602352 -89.52639 -33.268539
-12.629021 -88.121216 -34.996841
-12.856964 -86.158356 -36.742882
-23.453619 -75.655548 -28.98407
-22.215635 -77.058083 -30.799023
-20.813833 -78.362366 -32.625305
-23.174215 -73.235542 -34.76857
-21.209282 -76.468407 -34.567261
-19.039383 -79.952682 -34.305588
-17.056942 -81.594307 -35.787552
-15.03616 -82.993973 -37.13554
-13.015305 -84.052261 -38.391628
-13.297605 -81.798569 -39.779968
-13.215068 -79.517677 -41.229565
-13.465159 -76.723671 -42.534504
-17.968643 -71.898132 -42.258404
0.009351 -101.299115 -9.767456
1.227311 -101.974773 -9.780276
0.637722 -101.16671 -8.526854
0.334487 -99.723381 -34.434725
1.511799 -100.919865 -33.659443
0.219222 -100.433087 -33.513624
-20.125296 -81.655865 -17.065811
-19.357782 -82.977627 -17.060721
-20.935359 -80.244534 -17.122048
-20.566636 -81.085007 -18.237833
-20.125296 -81.655865 -17.065811
5.618114 -106.217998 -17.895082
6.425471 -106.307846 -16.680846
5.051609 -105.800525 -16.730438
-17.554668 -83.447605 -32.319097
-17.334916 -84.309899 -31.314085
-18.391695 -82.662128 -31.493232
-25.618366 -70.193447 -33.214412
-25.269627 -71.283947 -32.205515
-26.176904 -69.659035 -32.34265
-4.289385 -91.5892 -38.904616
-4.322733 -92.630917 -38.187494
-5.611981 -91.049591 -38.632355
-4.27588 -90.478836 -39.563483
-4.289385 -91.5892 -38.904616
-5.634838 -88.780549 -40.005607
-4.332085 -89.251511 -40.219614
-4.27588 -90.478836 -39.563483
-10.74412 -81.910054 -41.326595
-9.484008 -82.403923 -41.685202
-9.468232 -83.708568 -41.012018
3.137486 -104.152767 -13.398309
3.81784 -104.077084 -12.110416
2.499884 -103.488472 -12.237993
2.504034 -104.179654 -14.591261
3.137486 -104.152767 -13.398309
1.228331 -103.547241 -14.67453
2.504034 -104.179654 -14.591261
-24.083838 -67.429039 -39.360094
-24.985159 -66.792862 -38.703293
-23.173645 -67.960316 -40.066799
-23.045331 -69.150295 -39.235048
-24.083838 -67.429039 -39.360094
-22.233458 -68.365364 -40.770502
-23.173645 -67.960316 -40.066799
2.931185 -104.609097 -28.017128
4.216088 -105.064995 -28.091496
3.896465 -105.272587 -27.036471
-12.197923 -93.730381 -21.769673
-11.742522 -94.296456 -22.715624
-11.374782 -94.71355 -21.777493
-14.885715 -90.231434 -21.692138
-13.99134 -91.446766 -21.653493
-14.584762 -90.616158 -20.711601
-18.108708 -85.408493 -20.49532
-17.66252 -86.032803 -19.485876
-18.544536 -84.626385 -19.327455
-21.850009 -79.161545 -21.578845
-21.019669 -80.626507 -21.561411
-21.439849 -79.826649 -20.548772
-20.895395 -78.812591 -11.277936
-21.120558 -77.987651 -10.029655
-21.337893 -78.343456 -12.499355
-20.895395 -78.812591 -11.277936
-24.528484 -74.135318 -20.655625
-24.084338 -74.765831 -19.426144
-24.84249 -73.321942 -19.571534
-24.194322 -74.904289 -21.755356
-24.528484 -74.135318 -20.655625
-6.620494 -97.718288 -12.866763
-5.977266 -97.898849 -11.690809
-6.050628 -98.555909 -14.182664
-6.620494 -97.718288 -12.866763
-9.362752 -96.055191 -16.107965
-10.437057 -94.939999 -15.984241
-8.913239 -96.728184 -17.301368
-8.378063 -97.039288 -16.295027
-9.362752 -96.055191 -16.107965
-10.938842 -95.145671 -20.978685
-10.542662 -95.493732 -20.05131
-11.434003 -94.495537 -19.904168
5.417844 -106.364208 -23.823885
5.900137 -106.38477 -24.880843
-2.767164 -102.274658 -22.433842
-2.002991 -102.748649 -21.504458
-3.197462 -101.943748 -21.340675
-16.768915 -86.403908 -28.500048
-16.596183 -86.945805 -27.546592
-17.563254 -85.492283 -27.643709
-23.364095 -72.128181 -35.76001
-24.180122 -71.457393 -34.969358
-24.370002 -70.350033 -35.960798
2.517961 -102.627578 -9.744888
3.75188 -103.153706 -9.590957
1.88959 -102.759983 -10.985489
2.517961 -102.627578 -9.744888
1.227311 -101.974773 -9.780276
2.788873 -102.060142 -32.830858
2.626498 -102.649449 -31.884589
2.788873 -102.060142 -32.830858
1.511799 -100.919865 -33.659443
-12.760285 -92.989483 -20.752249
-12.34316 -93.42126 -19.781816
-15.073094 -89.876236 -19.708663
-14.584762 -90.616158 -20.711601
-18.927461 -83.873516 -18.249803
-19.357782 -82.977627 -17.060721
-19.373648 -83.249206 -19.259247
-18.544536 -84.626385 -19.327455
-18.927461 -83.873516 -18.249803
-20.183041 -81.893974 -19.356467
-19.800116 -82.646843 -20.434119
-19.373648 -83.249206 -19.259247
-20.993104 -80.482643 -19.412705
-20.183041 -81.893974 -19.356467
-20.566636 -81.085007 -18.237833
-21.823443 -79.017682 -19.430138
-21.439849 -79.826649 -20.548772
-20.993104 -80.482643 -19.412705
-21.798084 -76.648266 -10.078326
-21.120558 -77.987651 -10.029655
-24.500842 -72.398083 -14.001057
-24.036734 -72.944008 -12.776884
-24.334554 -73.128174 -15.048752
-24.500842 -72.398083 -14.001057
-24.137342 -73.858692 -16.09283
-23.663683 -74.494648 -15.004065
-24.334554 -73.128174 -15.048752
-24.603279 -73.222336 -17.239786
-23.932408 -74.58881 -17.195099
-24.137342 -73.858692 -16.09283
-25.069847 -72.59348 -18.396136
-24.603279 -73.222336 -17.239786
-24.84249 -73.321942 -19.571534
-25.069847 -72.59348 -18.396136
-10.871593 -94.670391 -17.001085
-10.437057 -94.939999 -15.984241
-10.467875 -95.293842 -18.045549
-10.871593 -94.670391 -17.001085
-12.34316 -93.42126 -19.781816
-11.434003 -94.495537 -19.904168
7.125333 -106.267139 -15.297022
7.714044 -106.114532 -13.892684
6.447677 -105.737766 -14.111864
7.125333 -106.267139 -15.297022
6.425471 -106.307846 -16.680846
4.581871 -106.142212 -21.623835
5.0585 -106.31596 -22.789941
3.289343 -105.605919 -21.680877
4.581871 -106.142212 -21.623835
4.087516 -105.894447 -20.38535
1.957898 -104.988239 -21.525404
2.452252 -105.236004 -22.763889
3.289343 -105.605919 -21.680877
-4.354816 -101.099671 -21.102044
-3.197462 -101.943748 -21.340675
-5.45165 -100.24836 -20.824714
-5.058469 -100.618447 -21.99273
-4.354816 -101.099671 -21.102044
-6.590177 -99.31046 -20.694559
-5.45165 -100.24836 -20.824714
-7.605787 -98.424026 -20.566066
-7.170913 -98.880703 -21.586906
-6.590177 -99.31046 -20.694559
-17.140981 -85.074119 -30.402634
-16.923002 -85.787102 -29.457107
-16.303954 -85.859596 -31.228499
-17.140981 -85.074119 -30.402634
-17.334916 -84.309899 -31.314085
-19.283846 -68.504573 -43.159987
-20.372344 -66.531273 -43.474626
-2.071223 -97.22728 -35.654036
-0.862148 -98.480961 -35.113363
-2.167165 -97.982922 -34.829578
-1.984498 -96.404957 -36.454805
-2.071223 -97.22728 -35.654036
-3.289516 -95.906917 -36.17102
-1.888012 -95.578789 -37.167271
-1.984498 -96.404957 -36.454805
-3.101464 -94.12756 -37.715772
-4.42406 -93.587952 -37.443512
-4.322733 -92.630917 -38.187494
-1.888012 -95.578789 -37.167271
-3.101464 -94.12756 -37.715772
-4.401247 -87.9558 -40.824771
-4.332085 -89.251511 -40.219614
-5.685028 -86.274468 -41.250673
-4.401247 -87.9558 -40.824771
-6.943566 -84.599075 -41.605116
-5.685028 -86.274468 -41.250673
-6.949582 -85.877831 -41.016182
-8.244047 -82.868747 -41.952452
-6.943566 -84.599075 -41.605116
-8.244047 -82.868747 -41.952452
-9.484008 -82.403923 -41.685202
4.464179 -103.897789 -10.735409
5.03582 -103.638706 -9.376264
3.75188 -103.153706 -9.590957
4.464179 -103.897789 -10.735409
3.81784 -104.077084 -12.110416
5.157203 -105.315876 -14.393467
6.447677 -105.737766 -14.111864
4.523752 -105.342762 -15.586419
5.157203 -105.315876 -14.393467
5.051609 -105.800525 -16.730438
4.523752 -105.342762 -15.586419
0.017928 -102.86607 -14.65353
1.228331 -103.547241 -14.67453
0.609127 -102.882984 -13.504886
-0.686824 -102.734139 -15.827845
0.017928 -102.86607 -14.65353
-1.306029 -102.069882 -14.658201
-1.408832 -102.544998 -16.98755
-0.686824 -102.734139 -15.827845
-2.61608 -101.755821 -16.944872
-1.408832 -102.544998 -16.98755
-3.823133 -100.894352 -16.853891
-2.61608 -101.755821 -16.944872
-3.217834 -101.076481 -15.741536
-5.054918 -99.953834 -16.747674
-3.823133 -100.894352 -16.853891
-18.497151 -84.043946 -27.637177
-17.563254 -85.492283 -27.643709
-18.324419 -84.585843 -26.683723
-18.719839 -83.417644 -28.642314
-18.497151 -84.043946 -27.637177
-19.481005 -82.511204 -27.682327
-18.937818 -82.704662 -29.587842
-18.719839 -83.417644 -28.642314
-19.141855 -81.985821 -30.60494
-18.937818 -82.704662 -29.587842
-19.907731 -81.166061 -29.704561
-19.361608 -81.123527 -31.609952
-18.391695 -82.662128 -31.493232
-19.141855 -81.985821 -30.60494
-24.523076 -69.317193 -36.91574
-24.370002 -70.350033 -35.960798
-24.723851 -68.116291 -37.804186
-24.985159 -66.792862 -38.703293
-23.754749 -69.81992 -37.639896
-24.523076 -69.317193 -36.91574
-24.723851 -68.116291 -37.804186
-21.176662 -69.032116 -41.367333
-21.078342 -70.348324 -40.538584
-22.233458 -68.365364 -40.770502
-21.311273 -67.547218 -42.158408
-20.156157 -69.530178 -41.926489
-21.176662 -69.032116 -41.367333
-21.308526 -66.261471 -42.95352
-21.311273 -67.547218 -42.158408
-20.372344 -66.531273 -43.474626
-21.308526 -66.261471 -42.95352
4.580842 -104.805504 -29.101539
5.546121 -105.468994 -28.120882
4.216088 -105.064995 -28.091496
3.553636 -104.035416 -30.051495
4.580842 -104.805504 -29.101539
2.50384 -103.183594 -30.92819
3.553636 -104.035416 -30.051495
2.201013 -103.549683 -29.948849
1.273875 -102.163715 -31.781943
2.626498 -102.649449 -31.884589
2.50384 -103.183594 -30.92819
-0.053493 -100.225529 -7.203266
0.637722 -101.16671 -8.526854
-25.046926 -73.349835 -26.141531
-24.208284 -74.890183 -26.027465
-24.640438 -74.190632 -25.053086
-25.435875 -72.543892 -27.210824
-25.046926 -73.349835 -26.141531
-25.749623 -71.753155 -28.306185
-24.928522 -73.258648 -28.211272
-25.435875 -72.543892 -27.210824
-26.142736 -70.828644 -29.367173
-25.749623 -71.753155 -28.306185
-26.435684 -69.969456 -30.380733
-25.535218 -71.608723 -30.320193
-26.142736 -70.828644 -29.367173
-26.761428 -69.037781 -31.448402
-26.435684 -69.969456 -30.380733
-27.368947 -68.257702 -30.495382
-26.176904 -69.659035 -32.34265
-26.761428 -69.037781 -31.448402
0.334487 -99.723381 -34.434725
-0.862148 -98.480961 -35.113363
-12.024884 -93.92564 -23.510301
-11.201742 -94.908809 -23.518121
-11.742522 -94.296456 -22.715624
-12.863475 -92.861671 -23.629131
-12.322695 -93.474025 -24.431629
-12.024884 -93.92564 -23.510301
-12.197923 -93.730381 -21.769673
-12.760285 -92.989483 -20.752249
-13.428978 -92.187664 -22.670918
-13.99134 -91.446766 -21.653493
-13.72679 -91.73605 -23.592245
-12.863475 -92.861671 -23.629131
-13.428978 -92.187664 -22.670918
-15.938663 -88.646084 -19.661002
-15.073094 -89.876236 -19.708663
-16.812441 -87.353127 -19.61275
-17.66252 -86.032803 -19.485876
-16.352914 -88.107868 -20.701994
-15.938663 -88.646084 -19.661002
-16.812441 -87.353127 -19.61275
-20.124933 -82.139813 -21.540478
-19.31554 -83.495045 -21.443258
-19.800116 -82.646843 -20.434119
-20.535094 -81.474709 -22.570551
-20.124933 -82.139813 -21.540478
-21.019669 -80.626507 -21.561411
-22.234099 -76.205135 -11.341185
-21.798084 -76.648266 -10.078326
-23.376174 -74.333222 -12.696091
-24.036734 -72.944008 -12.776884
-22.731901 -75.618877 -12.58829
-23.376174 -74.333222 -12.696091
-23.216622 -75.049786 -13.852187
-22.074546 -76.9217 -12.497281
-22.234099 -76.205135 -11.341185
-22.731901 -75.618877 -12.58829
-21.835695 -77.757199 -13.746461
-21.337893 -78.343456 -12.499355
-22.074546 -76.9217 -12.497281
-21.56353 -78.590667 -14.853602
-21.835695 -77.757199 -13.746461
-22.300184 -77.168911 -14.851527
-21.261019 -79.408886 -15.954348
-21.56353 -78.590667 -14.853602
-21.702359 -78.838028 -17.12637
-20.935359 -80.244534 -17.122048
-21.261019 -79.408886 -15.954348
-23.847868 -75.640999 -22.898634
-23.423879 -76.315918 -21.653513
-24.194322 -74.904289 -21.755356
-24.210054 -74.980175 -23.969749
-23.439611 -76.391804 -23.867905
-23.847868 -75.640999 -22.898634
-24.640438 -74.190632 -25.053086
-24.210054 -74.980175 -23.969749
-1.229328 -99.566605 -7.247359
-0.053493 -100.225529 -7.203266
-1.797726 -99.737053 -8.533111
-1.229328 -99.566605 -7.247359
-2.425486 -99.83139 -9.821506
-1.207998 -100.585388 -9.802429
-1.797726 -99.737053 -8.533111
-2.970632 -99.875515 -10.987395
-2.425486 -99.83139 -9.821506
-3.601548 -99.829113 -12.167884
-2.466674 -100.633324 -12.271313
-2.970632 -99.875515 -10.987395
-4.810961 -98.867951 -11.920319
-5.977266 -97.898849 -11.690809
-4.307002 -99.62576 -13.204238
-3.601548 -99.829113 -12.167884
-4.810961 -98.867951 -11.920319
-5.504864 -99.331116 -15.529605
-4.970651 -99.439805 -14.303615
-6.050628 -98.555909 -14.182664
-5.054918 -99.953834 -16.747674
-5.504864 -99.331116 -15.529605
-7.256695 -98.07975 -16.448543
-8.378063 -97.039288 -16.295027
-6.80675 -98.702469 -17.666612
-7.256695 -98.07975 -16.448543
-7.4768 -98.283032 -18.581074
-6.80675 -98.702469 -17.666612
-8.033296 -97.907486 -19.513549
-7.4768 -98.283032 -18.581074
-8.485045 -97.336735 -18.420905
-8.614031 -97.47773 -20.405896
-7.605787 -98.424026 -20.566066
-8.033296 -97.907486 -19.513549
-10.039682 -95.902393 -19.165087
-9.469734 -96.352638 -18.233843
-10.467875 -95.293842 -18.045549
-9.544521 -96.552528 -20.239604
-10.039682 -95.902393 -19.165087
-10.542662 -95.493732 -20.05131
4.841876 -105.839333 -26.049045
5.900137 -106.38477 -24.880843
3.556974 -105.383434 -25.974676
3.896465 -105.272587 -27.036471
4.841876 -105.839333 -26.049045
4.143041 -105.901932 -23.953305
5.417844 -106.364208 -23.823885
5.0585 -106.31596 -22.789941
0.598972 -104.288826 -21.532432
1.957898 -104.988239 -21.525404
1.436062 -104.658741 -20.44942
-0.747778 -103.519443 -21.527036
-2.002991 -102.748649 -21.504458
-0.225943 -103.848941 -22.60302
0.598972 -104.288826 -21.532432
-0.747778 -103.519443 -21.527036
-15.955932 -87.240623 -29.35999
-16.768915 -86.403908 -28.500048
-16.923002 -85.787102 -29.457107
-24.948559 -70.748802 -34.123712
-25.618366 -70.193447 -33.214412
-23.942652 -72.52695 -33.922924
-24.948559 -70.748802 -34.123712
-24.180122 -71.457393 -34.969358
-11.987482 -80.061543 -41.614672
-10.74412 -81.910054 -41.326595
-11.971706 -81.366188 -40.941489
-12.112527 -78.664539 -42.267141
-11.987482 -80.061543 -41.614672
-13.340114 -78.120674 -41.882035
-12.233209 -77.207051 -42.860338
-12.112527 -78.664539 -42.267141
-18.122784 -70.430999 -42.930407
-19.129706 -69.971706 -42.487984
-19.283846 -68.504573 -43.159987
-16.888151 -72.341388 -42.713166
-18.122784 -70.430999 -42.930407
-15.715236 -74.265133 -42.4622
-16.795728 -73.821877 -42.007439
-16.888151 -72.341388 -42.713166
-14.636409 -74.754158 -42.851215
-14.543986 -76.234646 -42.145489
-15.715236 -74.265133 -42.4622
-13.438707 -75.365478 -43.15379
-14.636409 -74.754158 -42.851215
-12.233209 -77.207051 -42.860338
-13.438707 -75.365478 -43.15379
3 0 47 45
3 1 50 48
3 1 52 50
3 3 169 171
3 169 54 170
3 169 170 171
3 3 56 54
3 2 59 57
3 4 62 60
3 6 65 63
3 6 67 65
3 5 172 174
3 174 173 68
3 172 173 174
3 175 69 176
3 177 70 178
3 179 178 69
3 177 178 179
3 182 181 73
3 180 181 182
3 7 78 76
3 8 183 185
3 183 80 184
3 183 184 185
3 8 82 80
3 186 85 187
3 188 187 83
3 186 187 188
3 9 88 86
3 9 90 88
3 9 92 90
3 10 95 93
3 12 96 46
3 12 97 96
3 13 99 98
3 14 189 191
3 191 190 49
3 189 190 191
3 14 192 193
3 14 194 196
3 194 100 195
3 194 195 196
3 15 101 51
3 15 197 199
3 199 198 101
3 197 198 199
3 16 200 202
3 202 201 53
3 200 201 202
3 16 203 204
3 16 205 206
3 17 102 55
3 17 103 102
3 18 106 104
3 19 107 58
3 19 108 107
3 207 109 208
3 209 110 210
3 211 210 109
3 209 210 211
3 213 212 110
3 22 214 216
3 214 112 215
3 214 215 216
3 23 113 61
3 23 114 113
3 11 115 94
3 24 116 64
3 24 117 116
3 24 118 117
3 25 119 66
3 25 120 119
3 27 217 219
3 219 218 122
3 217 218 219
3 29 220 222
3 220 124 221
3 220 221 222
3 29 125 124
3 30 223 225
3 223 126 224
3 223 224 225
3 30 127 126
3 30 128 127
3 31 226 228
3 226 129 227
3 226 227 228
3 31 130 129
3 32 229 230
3 32 231 232
3 33 131 71
3 33 132 131
3 33 133 132
3 233 134 234
3 235 234 72
3 233 234 235
3 237 236 134
3 238 135 239
3 241 240 135
3 34 242 243
3 34 244 246
3 244 136 245
3 244 245 246
3 34 137 136
3 27 247 249
3 247 138 248
3 247 248 249
3 27 122 138
3 250 140 251
3 36 141 74
3 36 142 141
3 37 252 254
3 252 143 253
3 252 253 254
3 37 144 143
3 37 145 144
3 35 146 75
3 35 139 146
3 28 147 123
3 38 148 77
3 38 149 148
3 255 150 256
3 257 256 105
3 255 256 257
3 39 151 79
3 39 152 151
3 39 153 152
3 40 154 81
3 40 155 154
3 26 156 121
3 41 157 84
3 41 158 157
3 20 258 260
3 258 159 259
3 258 259 260
3 42 160 87
3 42 161 160
3 42 162 161
3 43 163 89
3 43 164 163
3 43 165 164
3 44 166 91
3 44 167 166
3 21 168 111
3 45 46 10
3 47 46 45
3 47 12 46
3 48 49 13
3 50 49 48
3 50 14 49
3 50 51 14
3 52 51 50
3 52 15 51
3 261 53 262
3 54 263 265
3 263 53 264
3 263 264 265
3 54 16 53
3 54 55 16
3 56 55 54
3 56 17 55
3 57 58 18
3 59 58 57
3 59 19 58
3 60 61 22
3 62 61 60
3 62 23 61
3 63 64 11
3 65 64 63
3 65 24 64
3 65 66 24
3 67 66 65
3 67 25 66
3 68 266 267
3 269 268 68
3 271 270 27
3 272 29 273
3 69 274 275
3 69 276 278
3 276 30 277
3 276 277 278
3 69 279 281
3 281 280 30
3 279 280 281
3 70 282 284
3 284 283 69
3 282 283 284
3 70 285 287
3 285 31 286
3 285 286 287
3 288 32 289
3 290 71 291
3 292 71 293
3 294 33 295
3 296 295 71
3 294 295 296
3 297 72 298
3 299 298 33
3 297 298 299
3 300 72 301
3 303 302 72
3 304 34 305
3 307 306 34
3 308 27 309
3 73 310 312
3 310 311 312
3 314 313 73
3 315 74 316
3 317 74 318
3 317 318 319
3 320 36 321
3 322 321 74
3 320 321 322
3 323 37 324
3 325 75 326
3 327 326 37
3 325 326 327
3 328 75 329
3 330 35 331
3 332 331 75
3 330 331 332
3 76 77 28
3 78 77 76
3 78 38 77
3 333 79 334
3 80 335 337
3 335 79 336
3 335 336 337
3 80 39 79
3 80 81 39
3 82 81 80
3 82 40 81
3 83 84 26
3 85 84 83
3 85 41 84
3 86 87 20
3 88 87 86
3 88 42 87
3 88 89 42
3 90 89 88
3 90 43 89
3 90 91 43
3 92 91 90
3 92 44 91
3 339 338 21
3 93 94 4
3 95 94 93
3 95 11 94
3 46 95 10
3 96 95 46
3 96 11 95
3 96 63 11
3 97 63 96
3 97 6 63
3 98 340 342
3 342 341 5
3 340 341 342
3 99 343 345
3 345 344 98
3 343 344 345
3 99 346 347
3 49 99 13
3 348 99 349
3 350 349 49
3 348 349 350
3 352 351 99
3 100 353 354
3 100 355 356
3 51 100 14
3 101 100 51
3 101 357 359
3 359 358 100
3 357 358 359
3 101 360 361
3 363 362 101
3 53 364 366
3 364 365 366
3 368 367 53
3 369 73 370
3 371 73 372
3 374 373 73
3 55 375 377
3 377 376 16
3 375 376 377
3 102 378 380
3 380 379 55
3 378 379 380
3 102 381 382
3 102 383 384
3 103 385 387
3 387 386 102
3 385 386 387
3 103 388 389
3 104 105 7
3 106 105 104
3 106 390 392
3 392 391 105
3 390 391 392
3 58 106 18
3 107 106 58
3 107 393 395
3 395 394 106
3 393 394 395
3 107 396 397
3 108 398 400
3 400 399 107
3 398 399 400
3 108 401 403
3 401 8 402
3 401 402 403
3 404 20 405
3 109 406 407
3 109 408 410
3 408 20 409
3 408 409 410
3 109 86 20
3 110 86 109
3 110 9 86
3 110 111 9
3 411 111 412
3 413 412 110
3 411 412 413
3 414 21 415
3 416 415 111
3 414 415 416
3 417 21 418
3 420 419 21
3 112 421 423
3 421 422 423
3 112 424 425
3 61 112 22
3 113 112 61
3 113 426 428
3 428 427 112
3 426 427 428
3 113 429 431
3 429 68 430
3 429 430 431
3 114 68 113
3 114 5 68
3 94 62 4
3 115 62 94
3 115 23 62
3 64 115 11
3 116 115 64
3 116 23 115
3 116 114 23
3 117 114 116
3 117 5 114
3 117 98 5
3 118 98 117
3 118 13 98
3 66 118 24
3 119 118 66
3 119 13 118
3 119 48 13
3 120 48 119
3 120 1 48
3 432 3 433
3 434 121 435
3 436 435 2
3 434 435 436
3 437 121 438
3 439 26 440
3 441 440 121
3 439 440 441
3 442 26 443
3 444 83 445
3 446 445 26
3 444 445 446
3 447 83 448
3 447 448 449
3 451 450 83
3 453 452 5
3 122 123 0
3 454 123 455
3 456 455 122
3 454 455 456
3 457 28 458
3 459 458 123
3 457 458 459
3 461 460 27
3 124 462 463
3 124 464 466
3 464 28 465
3 464 465 466
3 124 76 28
3 125 76 124
3 125 7 76
3 467 29 468
3 126 469 470
3 126 471 473
3 471 29 472
3 471 472 473
3 126 125 29
3 127 125 126
3 127 7 125
3 127 104 7
3 128 104 127
3 128 18 104
3 474 128 475
3 476 475 30
3 474 475 476
3 129 477 479
3 477 128 478
3 477 478 479
3 129 18 128
3 129 57 18
3 130 57 129
3 130 2 57
3 480 32 481
3 71 482 483
3 131 484 486
3 486 485 71
3 484 485 486
3 131 487 489
3 487 32 488
3 487 488 489
3 131 490 492
3 492 491 32
3 490 491 492
3 132 493 495
3 495 494 131
3 493 494 495
3 132 496 497
3 132 498 500
3 498 70 499
3 498 499 500
3 133 70 132
3 133 31 70
3 72 133 33
3 134 133 72
3 134 31 133
3 134 130 31
3 501 130 502
3 503 502 134
3 501 502 503
3 504 2 505
3 506 505 130
3 504 505 506
3 508 507 2
3 509 3 510
3 511 3 512
3 513 56 514
3 515 514 3
3 513 514 515
3 516 56 517
3 518 17 519
3 520 519 56
3 518 519 520
3 135 521 522
3 135 523 525
3 523 17 524
3 523 524 525
3 135 103 17
3 526 103 527
3 528 527 135
3 526 527 528
3 530 529 103
3 136 531 532
3 136 533 534
3 136 535 536
3 137 537 539
3 539 538 136
3 537 538 539
3 137 540 542
3 540 35 541
3 540 541 542
3 543 137 544
3 545 544 34
3 543 544 545
3 138 546 548
3 546 137 547
3 546 547 548
3 138 35 137
3 138 139 35
3 122 139 138
3 122 0 139
3 140 549 550
3 140 551 553
3 551 22 552
3 551 552 553
3 74 554 556
3 554 140 555
3 554 555 556
3 141 140 74
3 141 22 140
3 141 60 22
3 142 60 141
3 142 4 60
3 557 36 558
3 557 558 559
3 143 560 561
3 143 562 564
3 562 36 563
3 562 563 564
3 143 142 36
3 144 142 143
3 144 4 142
3 144 93 4
3 145 93 144
3 145 10 93
3 75 145 37
3 146 145 75
3 146 10 145
3 146 45 10
3 139 45 146
3 139 0 45
3 123 47 0
3 147 47 123
3 147 12 47
3 77 147 28
3 148 147 77
3 148 12 147
3 148 97 12
3 149 97 148
3 149 6 97
3 105 78 7
3 150 78 105
3 150 38 78
3 79 565 567
3 565 150 566
3 565 566 567
3 151 150 79
3 151 38 150
3 151 149 38
3 152 149 151
3 152 6 149
3 152 67 6
3 153 67 152
3 153 25 67
3 81 153 39
3 154 153 81
3 154 25 153
3 154 120 25
3 155 120 154
3 155 1 120
3 121 59 2
3 156 59 121
3 156 19 59
3 84 156 26
3 157 156 84
3 157 19 156
3 157 108 19
3 158 108 157
3 158 8 108
3 568 85 569
3 159 570 572
3 570 85 571
3 570 571 572
3 159 41 85
3 87 159 20
3 160 159 87
3 160 41 159
3 160 158 41
3 161 158 160
3 161 8 158
3 161 82 8
3 162 82 161
3 162 40 82
3 89 162 42
3 163 162 89
3 163 40 162
3 163 155 40
3 164 155 163
3 164 1 155
3 164 52 1
3 165 52 164
3 165 15 52
3 91 165 43
3 166 165 91
3 166 15 165
3 166 573 575
3 575 574 15
3 573 574 575
3 167 576 578
3 578 577 166
3 576 577 578
3 167 579 580
3 111 92 9
3 168 92 111
3 168 44 92
3 581 168 582
3 583 582 21
3 581 582 583
3 584 168 585
3 586 44 587
3 588 587 168
3 586 587 588
3 589 167 590
3 591 590 44
3 589 590 591
3 592 167 593
3 595 594 167
