ply
format ascii 1.0
element vertex 227
property float x
property float y
property float z
element face 193
property list uchar int vertex_index
end_header
9.239076 84.473328 -35.549667
9.969376 72.493362 -36.617069
7.836184 89.890572 -34.014908
12.199725 85.435196 -31.366041
0.901946 97.88591 -33.10598
3.156641 93.284851 -36.154034
4.94303 88.032715 -38.164284
6.106113 82.130722 -39.39415
12.784333 80.159531 -32.535862
9.868639 78.563698 -36.366791
6.900828 75.840775 -39.828461
8.444037 56.622944 -40.077496
13.499846 85.768913 -29.078981
3.556507 96.217896 -32.334934
1.989529 95.768272 -34.76622
4.643645 94.011894 -33.847271
8.629421 87.242928 -34.897785
6.376739 89.117935 -36.172241
7.069806 86.199028 -37.077915
5.512233 85.198349 -38.935577
7.776976 83.446457 -37.443836
11.340413 73.50444 -34.83849
11.405004 76.592873 -34.719532
10.006016 75.526993 -36.492275
8.301946 77.455704 -38.210041
8.612201 74.189507 -38.189869
7.329795 72.656219 -39.71381
8.754991 70.87587 -38.166779
9.297739 57.983368 -38.091148
7.00878 92.205574 -32.897308
9.35943 90.146751 -31.782835
10.135335 87.735771 -32.742027
10.786044 85.190384 -33.413513
10.085354 69.203743 -36.396954
-0.736078 97.288574 -35.605427
0.397974 94.947678 -37.114521
5.564444 91.604057 -35.182186
4.391695 80.798378 -41.183262
12.523868 82.924767 -32.107792
11.123285 82.461555 -34.070824
11.401007 79.582405 -34.406445
9.616091 81.421928 -36.099239
8.135296 80.541512 -37.855385
6.520761 79.091919 -39.697483
14.112438 85.767158 -27.909951
13.134421 86.978607 -28.594234
5.302102 94.26474 -32.656995
4.100076 95.114895 -33.091102
4.758532 95.367741 -31.900827
9.662976 58.74579 -37.236553
9.178832 59.638498 -38.09173
9.720558 57.197539 -37.297264
9.662976 58.74579 -37.236553
10.034164 90.254879 -30.569958
8.861579 91.341251 -31.149518
11.16753 86.585484 -32.054034
10.818554 87.878056 -31.635313
11.850749 86.727768 -30.94732
0.082934 97.587242 -34.355704
-1.306388 98.275486 -34.795257
-0.487376 98.574154 -33.545534
2.297617 92.863877 -37.249466
0.918284 93.69529 -37.729709
1.777308 94.116264 -36.634278
4.46106 89.395283 -37.771574
5.177914 89.937893 -36.775553
5.659885 88.575325 -37.168262
3.671635 88.844288 -38.776798
4.46106 89.395283 -37.771574
4.03102 87.425812 -39.206459
3.671635 88.844288 -38.776798
5.036373 82.993046 -40.045388
4.739433 84.52686 -39.816101
5.809173 83.664535 -39.164864
5.248904 81.46455 -40.288706
4.179164 82.326874 -40.939943
5.036373 82.993046 -40.045388
12.654101 81.542149 -32.321827
13.28419 81.886727 -31.364494
13.414422 80.504109 -31.578529
5.936026 76.759816 -40.575676
5.745993 78.385388 -40.510187
6.710795 77.466347 -39.762972
6.206106 75.012215 -40.592085
5.936026 76.759816 -40.575676
6.662577 71.779785 -40.49271
7.384457 70.982261 -39.775842
9.377267 66.894241 -37.328369
9.444125 68.536515 -37.284491
10.018496 67.56147 -36.440832
7.860455 57.41542 -40.826223
8.332583 58.166392 -39.909843
8.111504 55.826849 -40.947741
7.860455 57.41542 -40.826223
8.675038 55.039966 -40.220465
8.111504 55.826849 -40.947741
12.500809 86.894627 -29.80379
13.134421 86.978607 -28.594234
12.849785 85.602055 -30.222511
11.850749 86.727768 -30.94732
12.500809 86.894627 -29.80379
13.499727 79.09499 -31.703167
13.414422 80.504109 -31.578529
11.372708 75.048656 -34.779011
12.077084 75.554558 -33.838475
12.044788 74.010342 -33.897953
8.097055 70.092087 -39.002327
7.384457 70.982261 -39.775842
8.042393 71.766044 -38.940295
8.759434 58.846604 -38.916669
8.640526 60.501734 -38.917251
9.178832 59.638498 -38.09173
8.870888 57.303156 -39.084322
8.332583 58.166392 -39.909843
8.759434 58.846604 -38.916669
9.386388 56.496115 -38.276342
8.959537 55.815903 -39.269516
8.870888 57.303156 -39.084322
9.386388 56.496115 -38.276342
9.720558 57.197539 -37.297264
7.686254 92.370663 -31.706755
6.484669 93.36158 -32.182014
8.184105 91.176163 -32.340072
7.686254 92.370663 -31.706755
8.861579 91.341251 -31.149518
10.430601 89.083545 -31.155717
10.034164 90.254879 -30.569958
9.747383 88.941261 -32.262431
10.430601 89.083545 -31.155717
10.818554 87.878056 -31.635313
11.918081 72.508381 -33.957014
12.044788 74.010342 -33.897953
11.291132 72.041828 -34.82617
11.918081 72.508381 -33.957014
10.605614 71.536289 -35.71546
10.654895 72.998901 -35.727779
11.291132 72.041828 -34.82617
10.663602 69.89148 -35.605402
10.027365 70.848553 -36.507012
10.605614 71.536289 -35.71546
10.594314 68.288391 -35.568539
10.663602 69.89148 -35.605402
10.018496 67.56147 -36.440832
10.594314 68.288391 -35.568539
0.175674 98.866669 -32.272266
-0.487376 98.574154 -33.545534
1.636351 98.015644 -31.885853
0.175674 98.866669 -32.272266
2.963631 97.181637 -31.50033
2.229226 97.051903 -32.720457
1.636351 98.015644 -31.885853
4.229238 96.349789 -31.071768
2.963631 97.181637 -31.50033
3.636363 97.31353 -30.237164
4.758532 95.367741 -31.900827
4.229238 96.349789 -31.071768
-2.160744 97.913395 -36.023573
-1.306388 98.275486 -34.795257
-1.5668 96.777324 -36.821815
-2.160744 97.913395 -36.023573
-0.999774 95.606876 -37.576363
-1.5668 96.777324 -36.821815
-0.169052 96.118126 -36.359974
-0.391325 94.305065 -38.254107
-0.999774 95.606876 -37.576363
-0.391325 94.305065 -38.254107
0.918284 93.69529 -37.729709
5.826213 93.108734 -33.37229
5.302102 94.26474 -32.656995
6.484669 93.36158 -32.182014
4.771767 91.180954 -36.280525
5.970591 90.360996 -35.677214
5.177914 89.937893 -36.775553
3.567865 92.021351 -36.766449
4.360543 92.444454 -35.66811
4.771767 91.180954 -36.280525
2.297617 92.863877 -37.249466
3.567865 92.021351 -36.766449
4.315621 86.008629 -39.592106
4.03102 87.425812 -39.206459
5.227632 86.615532 -38.549931
4.315621 86.008629 -39.592106
4.739433 84.52686 -39.816101
3.3619 81.416332 -41.815109
4.179164 82.326874 -40.939943
3.65944 79.833603 -41.9589
3.3619 81.416332 -41.815109
14.34899 84.555946 -28.409556
14.112438 85.767158 -27.909951
13.707963 84.5209 -29.501638
14.34899 84.555946 -28.409556
13.057903 84.354042 -30.645168
12.849785 85.602055 -30.222511
13.707963 84.5209 -29.501638
13.219974 83.098827 -31.016044
13.28419 81.886727 -31.364494
12.361797 84.179981 -31.736916
13.057903 84.354042 -30.645168
13.219974 83.098827 -31.016044
12.810278 78.798974 -32.677597
13.499727 79.09499 -31.703167
12.120614 77.015645 -33.769432
12.077084 75.554558 -33.838475
12.118615 78.510411 -33.612888
12.120614 77.015645 -33.769432
11.403005 78.087639 -34.562989
12.09267 79.870968 -33.471153
12.810278 78.798974 -32.677597
12.118615 78.510411 -33.612888
4.68146 79.238617 -41.253076
5.456228 79.945149 -40.440372
5.745993 78.385388 -40.510187
3.949204 78.273842 -42.028715
3.65944 79.833603 -41.9589
4.68146 79.238617 -41.253076
6.42059 73.419937 -40.534759
6.206106 75.012215 -40.592085
7.115311 74.248497 -39.771135
6.42059 73.419937 -40.534759
6.662577 71.779785 -40.49271
8.778944 69.372578 -38.169404
9.420172 70.039806 -37.281866
9.444125 68.536515 -37.284491
8.097055 70.092087 -39.002327
8.778944 69.372578 -38.169404
8.675038 55.039966 -40.220465
8.959537 55.815903 -39.269516
3 44 12 45
3 46 15 47
3 48 47 13
3 46 47 48
3 0 18 16
3 0 20 18
3 1 23 21
3 1 25 23
3 1 27 25
3 49 28 50
3 52 51 28
3 53 30 54
3 3 55 57
3 55 31 56
3 55 56 57
3 3 32 31
3 4 58 60
3 58 34 59
3 58 59 60
3 5 35 14
3 5 61 63
3 63 62 35
3 61 62 63
3 2 36 29
3 6 64 66
3 66 65 17
3 64 65 66
3 6 67 68
3 6 69 70
3 7 71 73
3 73 72 19
3 71 72 73
3 7 74 76
3 74 37 75
3 74 75 76
3 8 77 79
3 77 38 78
3 77 78 79
3 8 39 38
3 9 40 22
3 9 41 40
3 9 42 41
3 10 43 24
3 10 80 82
3 82 81 43
3 80 81 82
3 10 83 84
3 86 85 26
3 89 88 33
3 87 88 89
3 11 90 91
3 11 92 93
3 11 94 95
3 12 96 97
3 12 98 100
3 98 3 99
3 98 99 100
3 13 14 4
3 15 14 13
3 15 5 14
3 16 17 2
3 18 17 16
3 18 6 17
3 18 19 6
3 20 19 18
3 20 7 19
3 101 8 102
3 21 103 105
3 103 22 104
3 103 104 105
3 23 22 21
3 23 9 22
3 23 24 9
3 25 24 23
3 25 10 24
3 25 26 10
3 27 26 25
3 27 106 108
3 108 107 26
3 106 107 108
3 28 109 111
3 109 110 111
3 28 112 114
3 112 11 113
3 112 113 114
3 28 115 117
3 117 116 11
3 115 116 117
3 119 118 28
3 120 29 121
3 30 122 124
3 122 29 123
3 122 123 124
3 30 2 29
3 125 30 126
3 31 127 129
3 127 30 128
3 127 128 129
3 31 2 30
3 31 16 2
3 32 16 31
3 32 0 16
3 130 21 131
3 132 21 133
3 134 1 135
3 136 135 21
3 134 135 136
3 137 33 138
3 139 138 1
3 137 138 139
3 140 33 141
3 143 142 33
3 144 4 145
3 146 4 147
3 148 13 149
3 150 149 4
3 148 149 150
3 151 13 152
3 151 152 153
3 155 154 13
3 34 156 157
3 34 158 159
3 14 34 4
3 35 34 14
3 35 160 162
3 162 161 34
3 160 161 162
3 35 163 164
3 166 165 35
3 29 167 169
3 167 15 168
3 167 168 169
3 36 15 29
3 36 5 15
3 17 36 2
3 170 36 171
3 172 171 17
3 170 171 172
3 173 5 174
3 175 174 36
3 173 174 175
3 177 176 5
3 19 178 180
3 180 179 6
3 178 179 180
3 182 181 19
3 37 183 184
3 37 185 186
3 187 12 188
3 189 12 190
3 191 3 192
3 193 192 12
3 191 192 193
3 38 194 195
3 38 196 198
3 196 3 197
3 196 197 198
3 38 32 3
3 39 32 38
3 39 0 32
3 199 8 200
3 22 201 202
3 40 203 205
3 205 204 22
3 203 204 205
3 40 206 208
3 206 8 207
3 206 207 208
3 40 39 8
3 41 39 40
3 41 0 39
3 41 20 0
3 42 20 41
3 42 7 20
3 24 42 9
3 43 42 24
3 43 7 42
3 43 37 7
3 209 37 210
3 211 210 43
3 209 210 211
3 214 213 37
3 212 213 214
3 26 215 217
3 217 216 10
3 215 216 217
3 219 218 26
3 33 27 1
3 220 27 221
3 222 221 33
3 220 221 222
3 224 223 27
3 226 225 11
