ply
format ascii 1.0
element vertex 477
property float x
property float y
property float z
element face 436
property list uchar int vertex_index
end_header
15.157025 36.98386 -52.012749
23.752235 23.350485 -38.523067
19.173136 20.260698 -28.658756
31.323774 10.515637 -31.216887
20.39777 31.158201 -45.793301
19.537027 13.339046 -22.03451
8.721534 39.164883 -55.98106
25.133251 15.203015 -30.633701
20.485817 25.994606 -37.014313
19.068977 30.151377 -40.286522
22.353867 27.379463 -42.285053
25.628757 25.264891 -43.905144
12.026461 38.521164 -54.48978
22.09338 10.308691 -22.046072
22.196037 13.67132 -25.934597
25.190578 11.195137 -26.316114
21.553907 21.4835 -33.383591
17.287556 34.05043 -43.662697
17.862413 34.577801 -49.20908
19.42083 10.597263 -18.446175
19.41856 16.504137 -25.31613
21.974676 17.406845 -29.618822
24.695646 19.155222 -34.581291
28.282274 12.854434 -30.941963
27.865175 16.952135 -35.228767
27.11717 21.120329 -39.650032
22.127918 24.477425 -37.709782
21.522276 26.53911 -39.544903
23.159948 25.330137 -40.40004
23.96979 26.28056 -43.111294
24.792486 24.195648 -41.06308
13.874243 38.234241 -50.724979
13.622409 37.866772 -53.434055
19.951641 22.910383 -32.544498
20.363384 20.796787 -30.988771
19.673874 30.770187 -43.016453
18.255657 32.183098 -42.130978
18.746679 32.601986 -44.820572
17.642385 34.316444 -46.448692
19.180346 32.95718 -47.511467
19.520361 33.279083 -50.283253
20.826921 31.768414 -48.764004
19.393126 9.331918 -16.686668
20.717873 8.831404 -18.373735
20.591246 7.576759 -16.548811
19.545048 14.855602 -23.757275
23.640038 14.344808 -28.217287
22.097754 15.480796 -27.749407
23.489656 16.203379 -30.049482
23.444567 18.113663 -32.052517
24.927778 17.060698 -32.470375
29.869276 11.8139 -31.2337
30.682852 16.92709 -38.10511
29.47027 15.974754 -35.637115
29.15543 17.941158 -37.736217
27.570478 19.007421 -37.418026
28.060644 22.197983 -42.322823
18.961226 27.323032 -35.820499
18.435442 29.503881 -37.663242
19.873419 28.010212 -38.629059
20.641115 28.693207 -41.273342
21.372601 29.350899 -44.002613
21.952753 30.107162 -46.956348
23.091494 28.267294 -45.222
10.400208 38.988537 -55.246399
20.737499 11.751369 -21.96261
20.848688 13.333374 -23.914371
22.188324 11.844989 -23.914734
23.618986 12.468911 -26.167717
25.122061 13.186759 -28.426937
31.305401 12.680673 -33.620773
19.605026 25.02919 -34.290104
21.080328 23.621603 -35.096451
22.698002 22.433542 -36.001812
16.555622 35.835896 -53.410309
15.036654 36.725086 -54.594097
31.353216 8.351406 -28.916761
32.802326 7.153602 -29.19853
32.775536 9.145329 -31.287979
15.231706 37.125206 -49.344135
16.313305 35.678055 -45.214493
16.396404 35.895073 -47.85957
16.595188 35.844021 -50.612274
18.050156 34.703033 -52.04068
19.455776 11.952368 -20.239605
20.721228 10.285841 -20.187672
20.860252 3.809629 -11.738295
20.778837 4.945787 -13.287456
20.740295 6.164931 -14.92329
13.423029 37.323723 -55.943264
11.635878 37.799961 -56.795284
8.178365 37.905441 -58.015503
19.295418 18.317987 -26.954556
20.789867 15.005111 -25.654247
20.659441 16.802553 -27.355831
20.503557 18.676767 -29.04557
21.793085 19.39608 -31.466534
23.047857 20.258156 -33.946384
24.226883 21.341768 -36.61134
26.734922 11.924504 -28.529984
29.745249 13.908037 -33.478275
28.19692 14.872567 -33.133556
26.560402 16.035738 -32.92276
26.268265 18.065527 -34.958107
25.893593 20.148279 -37.048664
25.44245 22.292202 -39.251328
26.443382 23.292225 -41.902256
19.06441 21.256352 -29.450389
18.523832 21.091237 -28.329518
19.76826 20.528742 -29.823763
19.659534 21.524396 -30.615396
19.06441 21.256352 -29.450389
19.396691 8.729069 -15.834084
18.847862 9.725854 -15.963529
19.995752 7.851489 -15.765156
19.992186 8.454339 -16.617739
19.396691 8.729069 -15.834084
8.152764 39.812123 -55.306486
8.966155 39.719143 -54.942905
7.879333 39.136103 -56.251386
8.152764 39.812123 -55.306486
19.541038 14.097324 -22.895893
18.949927 14.896801 -22.821377
18.945916 14.138523 -21.959995
30.596525 11.164769 -31.225293
29.873486 10.705941 -30.028186
30.600735 10.056809 -30.019779
29.663815 18.451346 -38.990007
29.919141 17.434124 -37.920664
30.427526 17.944311 -39.174453
28.902461 18.995363 -38.842329
29.663815 18.451346 -38.990007
25.173668 26.24046 -44.963864
24.344184 26.748295 -44.566938
24.799273 25.772725 -43.508219
26.012638 25.692158 -45.280874
25.173668 26.24046 -44.963864
11.405504 39.218237 -53.687055
12.168671 38.858719 -53.239481
11.213334 38.754851 -54.868089
10.592377 39.451923 -54.065365
11.405504 39.218237 -53.687055
24.404782 11.832024 -26.241915
23.6541 11.540717 -25.178421
24.439895 10.90383 -25.25262
19.045034 24.795343 -33.009175
18.873266 25.876425 -33.832255
16.524817 35.731036 -54.807035
17.365285 35.264381 -54.056399
31.338331 7.355487 -27.857654
30.578573 7.977654 -27.772596
33.473795 7.486303 -30.363847
33.398255 6.414622 -29.145125
33.4604 8.482166 -31.408571
32.788931 8.149465 -30.243254
33.473795 7.486303 -30.363847
33.406779 9.552217 -32.512727
33.4604 8.482166 -31.408571
15.134224 37.260137 -47.968879
14.571365 37.874513 -48.686607
18.37088 30.958143 -39.838847
18.054112 30.634394 -38.527206
18.752209 29.827629 -38.974882
17.099497 33.862827 -42.286718
17.583548 32.929161 -41.520859
17.771606 33.116764 -42.896838
16.625928 34.844914 -43.057957
17.099497 33.862827 -42.286718
16.80043 34.864243 -44.438595
16.138803 35.658726 -43.833855
16.625928 34.844914 -43.057957
19.562237 33.447313 -51.683478
20.312949 32.76423 -50.960673
22.196724 30.417533 -48.416718
22.744151 29.609476 -47.446735
18.858248 11.521733 -18.545833
18.832514 10.94672 -17.675623
19.438303 11.274815 -19.34289
18.875721 12.199286 -19.442548
18.858248 11.521733 -18.545833
21.403914 8.794165 -19.290684
21.392859 8.030605 -18.352352
21.442366 2.923364 -11.605353
20.900157 3.312615 -10.964149
21.402178 4.653479 -13.978576
21.409772 4.032421 -13.16515
21.382908 5.263051 -14.796493
20.759566 5.555359 -14.105373
21.402178 4.653479 -13.978576
21.377285 6.009123 -15.737897
21.382908 5.263051 -14.796493
14.063166 36.833603 -56.637569
14.229841 37.024405 -55.268681
14.869979 36.534284 -55.962986
11.425487 37.342726 -57.953874
12.283707 37.262432 -57.604132
10.74946 37.893301 -57.145513
11.425487 37.342726 -57.953874
7.947844 37.192349 -58.989952
8.804845 37.362364 -58.814276
7.323102 37.739727 -58.190573
7.947844 37.192349 -58.989952
18.820094 17.239036 -25.103678
18.877578 16.423353 -24.367578
19.356989 17.411062 -26.135343
18.758523 18.145961 -25.922891
18.820094 17.239036 -25.103678
27.508598 12.389469 -29.735974
27.588833 11.40267 -28.721409
28.36251 11.867635 -29.927399
27.497092 13.400429 -30.837859
26.723416 12.935465 -29.63187
27.508598 12.389469 -29.735974
30.374523 14.361287 -34.647247
30.525325 13.294355 -33.549524
31.154598 13.747606 -34.718496
27.682272 23.197492 -43.417881
28.526163 22.618601 -43.656971
13.092562 38.715257 -51.35708
13.235992 38.984447 -50.04776
12.966645 38.531523 -52.711619
13.092562 38.715257 -51.35708
13.748326 38.050506 -52.079517
12.824435 38.193968 -53.961917
12.168671 38.858719 -53.239481
12.966645 38.531523 -52.711619
22.891296 10.460607 -23.117598
22.817837 9.65068 -22.121696
25.193095 10.258926 -25.287364
24.439895 10.90383 -25.25262
19.453662 22.581194 -31.39326
19.218342 23.735939 -32.136373
20.157512 21.853585 -31.766634
19.453662 22.581194 -31.39326
19.659534 21.524396 -30.615396
20.966228 32.008896 -50.201048
20.312949 32.76423 -50.960673
20.173641 32.523748 -49.523629
18.818662 10.314047 -16.79587
18.847862 9.725854 -15.963529
19.406978 9.96459 -17.566422
18.832514 10.94672 -17.675623
18.818662 10.314047 -16.79587
21.329545 7.403282 -17.43989
21.392859 8.030605 -18.352352
20.65456 8.204081 -17.461273
18.940823 15.599086 -23.58815
18.949927 14.896801 -22.821377
19.481804 15.679869 -24.536703
18.877578 16.423353 -24.367578
18.940823 15.599086 -23.58815
29.156011 11.347368 -30.073267
29.873486 10.705941 -30.028186
29.075775 12.334167 -31.087832
28.36251 11.867635 -29.927399
29.156011 11.347368 -30.073267
30.076561 16.450922 -36.871113
30.237033 15.394646 -35.726667
30.843324 15.870814 -36.960665
28.109985 19.528495 -38.683234
28.362954 18.47429 -37.577122
28.902461 18.995363 -38.842329
27.883331 20.584949 -39.799237
27.343824 20.063875 -38.534029
28.109985 19.528495 -38.683234
28.355068 21.123776 -41.135632
27.588907 21.659156 -40.986428
27.883331 20.584949 -39.799237
28.870903 21.605933 -42.478044
28.355068 21.123776 -41.135632
28.526163 22.618601 -43.656971
28.870903 21.605933 -42.478044
18.619946 20.067398 -27.551289
18.523832 21.091237 -28.329518
18.698334 28.413457 -36.74187
18.012602 29.285899 -36.307951
18.275494 28.195475 -35.386579
23.313522 28.689542 -46.579561
22.744151 29.609476 -47.446735
22.522123 29.187228 -46.089174
23.905036 27.741662 -45.622292
23.530642 27.273927 -44.166647
24.344184 26.748295 -44.566938
23.313522 28.689542 -46.579561
23.905036 27.741662 -45.622292
9.805492 39.63097 -54.575575
10.592377 39.451923 -54.065365
9.560871 39.07671 -55.613729
8.966155 39.719143 -54.942905
9.805492 39.63097 -54.575575
22.938769 11.228756 -24.051929
22.140852 11.07684 -22.980403
22.891296 10.460607 -23.117598
22.903655 12.15695 -25.041225
22.938769 11.228756 -24.051929
23.6541 11.540717 -25.178421
31.978041 11.96835 -33.549833
31.314588 11.598155 -32.41883
31.987227 10.885832 -32.34789
31.879787 13.138671 -34.805519
31.978041 11.96835 -33.549833
31.154598 13.747606 -34.718496
31.879787 13.138671 -34.805519
31.422136 16.327403 -38.211872
30.843324 15.870814 -36.960665
31.204991 17.333329 -39.308729
31.422136 16.327403 -38.211872
30.427526 17.944311 -39.174453
31.204991 17.333329 -39.308729
18.551366 27.023346 -34.597452
18.275494 28.195475 -35.386579
19.283126 26.176111 -35.055301
18.551366 27.023346 -34.597452
18.873266 25.876425 -33.832255
19.778333 23.969786 -33.417301
19.045034 24.795343 -33.009175
19.218342 23.735939 -32.136373
15.765332 36.17563 -55.398929
15.796138 36.280491 -54.002203
16.524817 35.731036 -54.807035
14.869979 36.534284 -55.962986
15.765332 36.17563 -55.398929
30.615455 8.974694 -28.869717
30.578573 7.977654 -27.772596
31.338495 9.433522 -30.066824
30.600735 10.056809 -30.019779
30.615455 8.974694 -28.869717
32.759315 6.096314 -28.06011
33.398255 6.414622 -29.145125
32.062886 6.756585 -27.998538
32.759315 6.096314 -28.06011
32.077771 7.752504 -29.057645
31.338331 7.355487 -27.857654
32.062886 6.756585 -27.998538
32.713109 10.200678 -32.383436
31.987227 10.885832 -32.34789
32.049655 9.830483 -31.252433
32.713109 10.200678 -32.383436
33.406779 9.552217 -32.512727
13.892633 38.429031 -49.377029
13.235992 38.984447 -50.04776
14.552975 37.679723 -50.034557
13.892633 38.429031 -49.377029
14.571365 37.874513 -48.686607
17.738269 30.386204 -37.122293
18.012602 29.285899 -36.307951
17.738269 30.386204 -37.122293
18.054112 30.634394 -38.527206
17.96422 31.974003 -40.761074
18.37088 30.958143 -39.838847
18.662317 31.167237 -41.20875
17.96422 31.974003 -40.761074
17.583548 32.929161 -41.520859
15.638602 36.540751 -44.596802
16.138803 35.658726 -43.833855
15.675023 36.536562 -45.904058
15.638602 36.540751 -44.596802
15.716573 36.645071 -47.226597
15.675023 36.536562 -45.904058
16.354855 35.786564 -46.537031
15.814055 36.510139 -48.601852
15.134224 37.260137 -47.968879
15.716573 36.645071 -47.226597
18.112552 34.69795 -53.371584
17.365285 35.264381 -54.056399
17.302889 35.269464 -52.725494
18.827134 34.159288 -52.562191
18.785259 33.991058 -51.161967
19.562237 33.447313 -51.683478
18.112552 34.69795 -53.371584
18.827134 34.159288 -52.562191
21.633808 31.248159 -49.320546
21.389837 30.937788 -47.860176
22.196724 30.417533 -48.416718
20.966228 32.008896 -50.201048
21.633808 31.248159 -49.320546
18.933521 13.50017 -21.166257
18.945916 14.138523 -21.959995
18.892896 12.806831 -20.268805
18.875721 12.199286 -19.442548
19.496401 12.645707 -21.137058
18.933521 13.50017 -21.166257
18.892896 12.806831 -20.268805
21.405591 9.521384 -20.197652
20.719551 9.558622 -19.280704
21.403914 8.794165 -19.290684
22.091667 9.532809 -21.126852
21.407304 10.297266 -21.116872
21.405591 9.521384 -20.197652
22.817837 9.65068 -22.121696
22.091667 9.532809 -21.126852
20.366122 4.31653 -11.180191
20.900157 3.312615 -10.964149
20.25318 4.833718 -11.840518
20.366122 4.31653 -11.180191
21.45048 3.464342 -12.39057
21.442366 2.923364 -11.605353
20.819544 4.377708 -12.512875
21.45048 3.464342 -12.39057
21.409772 4.032421 -13.16515
20.212472 5.401797 -12.615099
20.25318 4.833718 -11.840518
20.819544 4.377708 -12.512875
20.15043 5.950836 -13.383228
20.212472 5.401797 -12.615099
20.131158 6.560408 -14.201144
20.15043 5.950836 -13.383228
20.759566 5.555359 -14.105373
20.070276 7.145575 -14.952395
20.131158 6.560408 -14.201144
20.665771 6.870845 -15.736051
19.995752 7.851489 -15.765156
20.070276 7.145575 -14.952395
21.302761 6.715037 -16.550658
20.665771 6.870845 -15.736051
21.377285 6.009123 -15.737897
21.329545 7.403282 -17.43989
21.302761 6.715037 -16.550658
13.177282 37.024313 -57.178122
14.063166 36.833603 -56.637569
12.529453 37.561842 -56.369274
13.177282 37.024313 -57.178122
12.283707 37.262432 -57.604132
10.131625 38.487589 -56.371071
11.018043 38.394249 -56.020842
10.74946 37.893301 -57.145513
9.292288 38.575762 -56.738401
9.560871 39.07671 -55.613729
10.131625 38.487589 -56.371071
9.020703 37.946041 -57.755623
8.804845 37.362364 -58.814276
8.449949 38.535162 -56.998282
9.292288 38.575762 -56.738401
9.020703 37.946041 -57.755623
7.607748 38.506382 -57.268608
7.879333 39.136103 -56.251386
8.449949 38.535162 -56.998282
7.607748 38.506382 -57.268608
7.323102 37.739727 -58.190573
18.681088 19.096042 -26.699189
18.758523 18.145961 -25.922891
19.234277 19.289343 -27.806656
18.619946 20.067398 -27.551289
18.681088 19.096042 -26.699189
26.038525 10.622128 -26.467883
25.193095 10.258926 -25.287364
26.810696 10.986811 -27.574818
27.588833 11.40267 -28.721409
25.96275 11.559821 -27.423049
26.038525 10.622128 -26.467883
26.810696 10.986811 -27.574818
25.916985 13.566592 -29.580346
25.928491 12.555632 -28.47846
26.723416 12.935465 -29.63187
25.922581 14.57472 -30.683728
25.127656 14.194887 -29.530319
25.916985 13.566592 -29.580346
29.60776 14.941396 -34.557695
30.374523 14.361287 -34.647247
30.237033 15.394646 -35.726667
27.454415 14.409496 -31.933656
27.497092 13.400429 -30.837859
28.239597 13.863501 -32.037759
26.636156 14.991081 -31.828257
27.454415 14.409496 -31.933656
27.378661 15.454152 -33.028158
25.846826 15.619376 -31.77823
25.922581 14.57472 -30.683728
26.636156 14.991081 -31.828257
26.873641 23.744613 -43.207598
27.252013 22.745104 -42.112539
27.682272 23.197492 -43.417881
26.466328 24.730946 -44.209041
26.036069 24.278558 -42.9037
26.873641 23.744613 -43.207598
26.012638 25.692158 -45.280874
26.466328 24.730946 -44.209041
3 1 28 26
3 1 30 28
3 0 32 31
3 2 107 108
3 2 109 111
3 109 34 110
3 109 110 111
3 4 37 35
3 4 39 37
3 4 41 39
3 112 42 113
3 114 44 115
3 116 115 42
3 114 115 116
3 6 117 118
3 6 119 120
3 5 121 123
3 121 45 122
3 121 122 123
3 7 48 46
3 7 50 48
3 3 124 126
3 124 51 125
3 124 125 126
3 127 54 128
3 129 128 52
3 127 128 129
3 131 130 54
3 8 59 57
3 10 60 27
3 10 61 60
3 10 63 61
3 11 132 134
3 134 133 29
3 132 133 134
3 11 135 136
3 12 137 138
3 12 139 141
3 139 64 140
3 139 140 141
3 13 67 65
3 15 142 144
3 142 68 143
3 142 143 144
3 15 69 68
3 145 71 146
3 16 72 33
3 16 73 72
3 148 147 74
3 149 76 150
3 151 77 152
3 153 78 154
3 155 154 77
3 153 154 155
3 157 156 78
3 158 79 159
3 9 160 162
3 162 161 58
3 160 161 162
3 17 163 165
3 165 164 36
3 163 164 165
3 17 166 167
3 17 168 170
3 168 80 169
3 168 169 170
3 18 81 38
3 18 82 81
3 18 83 82
3 172 171 40
3 174 173 62
3 19 175 176
3 19 177 179
3 177 84 178
3 177 178 179
3 19 85 84
3 181 180 43
3 182 86 183
3 184 87 185
3 186 88 187
3 188 187 87
3 186 187 188
3 190 189 88
3 191 89 192
3 193 192 75
3 191 192 193
3 194 90 195
3 197 196 90
3 198 91 199
3 201 200 91
3 20 202 203
3 20 204 206
3 204 92 205
3 204 205 206
3 14 93 66
3 21 94 47
3 21 95 94
3 21 96 95
3 22 97 49
3 22 98 97
3 23 207 209
3 207 99 208
3 207 208 209
3 23 210 212
3 212 211 99
3 210 211 212
3 213 100 214
3 215 214 70
3 213 214 215
3 24 101 53
3 24 102 101
3 24 103 102
3 25 104 55
3 25 105 104
3 25 106 105
3 217 216 56
3 26 27 8
3 28 27 26
3 28 10 27
3 28 29 10
3 30 29 28
3 30 11 29
3 31 218 219
3 32 220 222
3 222 221 31
3 220 221 222
3 32 223 225
3 223 12 224
3 223 224 225
3 227 226 13
3 228 15 229
3 230 33 231
3 34 232 234
3 232 33 233
3 232 233 234
3 34 16 33
3 35 36 9
3 37 36 35
3 37 17 36
3 37 38 17
3 39 38 37
3 39 18 38
3 39 40 18
3 41 40 39
3 41 235 237
3 237 236 40
3 235 236 237
3 42 238 239
3 42 240 242
3 240 19 241
3 240 241 242
3 42 43 19
3 44 43 42
3 44 243 245
3 245 244 43
3 243 244 245
3 45 246 247
3 45 248 250
3 248 20 249
3 248 249 250
3 46 47 14
3 48 47 46
3 48 21 47
3 48 49 21
3 50 49 48
3 50 22 49
3 51 251 252
3 51 253 255
3 253 23 254
3 253 254 255
3 52 256 258
3 256 53 257
3 256 257 258
3 54 53 52
3 54 24 53
3 54 55 24
3 259 55 260
3 261 260 54
3 259 260 261
3 262 25 263
3 264 263 55
3 262 263 264
3 265 56 266
3 267 266 25
3 265 266 267
3 268 56 269
3 271 270 56
3 272 2 273
3 57 274 276
3 274 58 275
3 274 275 276
3 59 58 57
3 59 9 58
3 27 59 8
3 60 59 27
3 60 9 59
3 60 35 9
3 61 35 60
3 61 4 35
3 61 62 4
3 63 62 61
3 63 277 279
3 279 278 62
3 277 278 279
3 29 63 10
3 280 63 281
3 282 281 29
3 280 281 282
3 284 283 63
3 64 285 286
3 64 287 289
3 287 6 288
3 287 288 289
3 65 66 5
3 67 66 65
3 67 14 66
3 290 67 291
3 292 291 13
3 290 291 292
3 68 293 295
3 293 67 294
3 293 294 295
3 68 14 67
3 68 46 14
3 69 46 68
3 69 7 46
3 296 70 297
3 298 297 3
3 296 297 298
3 299 70 300
3 302 301 70
3 303 52 304
3 305 52 306
3 308 307 52
3 309 57 310
3 71 311 313
3 311 57 312
3 311 312 313
3 71 8 57
3 33 314 316
3 314 71 315
3 314 315 316
3 72 71 33
3 72 8 71
3 72 26 8
3 73 26 72
3 73 1 26
3 74 75 0
3 317 75 318
3 319 318 74
3 317 318 319
3 321 320 75
3 76 322 323
3 76 324 326
3 324 3 325
3 324 325 326
3 77 327 328
3 77 329 330
3 77 331 333
3 331 76 332
3 331 332 333
3 78 76 77
3 78 3 76
3 78 334 336
3 336 335 3
3 334 335 336
3 338 337 78
3 339 31 340
3 79 341 343
3 341 31 342
3 341 342 343
3 79 0 31
3 58 344 345
3 347 346 58
3 36 348 350
3 350 349 9
3 348 349 350
3 352 351 36
3 80 353 354
3 80 355 356
3 38 80 17
3 81 80 38
3 81 357 359
3 359 358 80
3 357 358 359
3 81 360 362
3 360 79 361
3 360 361 362
3 82 79 81
3 82 0 79
3 82 74 0
3 83 74 82
3 83 363 365
3 365 364 74
3 363 364 365
3 40 83 18
3 366 83 367
3 368 367 40
3 366 367 368
3 370 369 83
3 62 41 4
3 371 41 372
3 373 372 62
3 371 372 373
3 375 374 41
3 376 5 377
3 84 378 379
3 84 380 382
3 380 5 381
3 380 381 382
3 84 65 5
3 85 65 84
3 85 13 65
3 43 85 19
3 383 85 384
3 385 384 43
3 383 384 385
3 386 13 387
3 388 387 85
3 386 387 388
3 390 389 13
3 86 391 392
3 86 393 394
3 395 86 396
3 87 397 399
3 397 86 398
3 397 398 399
3 87 400 402
3 402 401 86
3 400 401 402
3 87 403 404
3 88 405 407
3 407 406 87
3 405 406 407
3 88 408 409
3 88 410 412
3 410 44 411
3 410 411 412
3 413 44 414
3 415 414 88
3 413 414 415
3 417 416 44
3 75 32 0
3 89 32 75
3 89 12 32
3 418 89 419
3 90 420 422
3 420 89 421
3 420 421 422
3 90 12 89
3 90 64 12
3 423 64 424
3 425 424 90
3 423 424 425
3 426 6 427
3 428 427 64
3 426 427 428
3 91 429 430
3 91 431 433
3 431 6 432
3 431 432 433
3 91 434 436
3 436 435 6
3 434 435 436
3 438 437 91
3 92 439 440
3 92 441 443
3 441 2 442
3 441 442 443
3 66 45 5
3 93 45 66
3 93 20 45
3 47 93 14
3 94 93 47
3 94 20 93
3 94 92 20
3 95 92 94
3 95 2 92
3 95 34 2
3 96 34 95
3 96 16 34
3 49 96 21
3 97 96 49
3 97 16 96
3 97 73 16
3 98 73 97
3 98 1 73
3 444 15 445
3 99 446 447
3 99 448 450
3 448 15 449
3 448 449 450
3 99 69 15
3 451 69 452
3 453 452 99
3 451 452 453
3 454 7 455
3 456 455 69
3 454 455 456
3 70 51 3
3 100 51 70
3 100 23 51
3 53 457 459
3 457 100 458
3 457 458 459
3 101 100 53
3 101 23 100
3 101 460 462
3 462 461 23
3 460 461 462
3 102 463 465
3 465 464 101
3 463 464 465
3 102 466 468
3 466 7 467
3 466 467 468
3 102 50 7
3 103 50 102
3 103 22 50
3 55 103 24
3 104 103 55
3 104 22 103
3 104 98 22
3 105 98 104
3 105 1 98
3 105 30 1
3 106 30 105
3 106 11 30
3 56 106 25
3 469 106 470
3 471 470 56
3 469 470 471
3 472 11 473
3 474 473 106
3 472 473 474
3 476 475 11
