ply
format ascii 1.0
element vertex 514
property float x
property float y
property float z
element face 476
property list uchar int vertex_index
end_header
-17.518099 -86.510826 23.807789
-14.265622 -93.330376 13.217782
-15.463054 -105.253357 -7.340064
-6.116774 -91.205261 11.610236
-10.867319 -99.412415 2.218378
-6.291302 -103.33226 -8.486573
3.267058 -97.277924 -8.975891
-6.48677 -106.161041 -16.973696
-20.752586 -85.490341 23.987207
-19.327646 -89.343277 19.099689
-4.124206 -86.63089 16.419106
-8.075419 -88.333252 17.021263
-16.802374 -96.689102 8.392347
-12.845732 -96.710205 7.519037
-15.257839 -99.994003 2.843173
2.868836 -92.875671 0.793316
0.770129 -97.083694 -4.3232
-1.37715 -100.678131 -8.907367
-3.908505 -99.850021 -3.992502
-12.029211 -89.638779 17.688686
-15.866362 -89.941818 18.648777
-0.339501 -84.666565 16.190458
-1.902687 -89.26403 11.116406
-3.996443 -93.810524 6.179995
-10.416962 -92.73909 12.295582
-8.451479 -95.627571 6.768939
-6.112347 -97.951721 1.358117
-8.719423 -101.740929 -3.17672
1.010076 -100.666069 -13.64746
-4.006949 -103.959503 -13.26213
-7.939332 -106.874275 -18.320955
-9.094199 -86.877052 19.754707
-18.068645 -98.076263 5.959574
-16.107285 -98.432518 5.547693
-17.366598 -99.895325 3.032289
0.672978 -94.439499 0.683679
1.904275 -94.990768 -1.831446
-1.482029 -98.484116 -4.131856
-18.352308 -84.652069 26.439749
-16.683348 -84.660881 26.488136
-14.90249 -88.09285 21.144352
-16.635166 -88.180496 21.341049
-18.721285 -91.181709 16.585331
-5.147994 -89.00647 13.965924
-3.149048 -88.120735 13.669392
-3.952642 -90.351257 11.19644
-2.932927 -91.685745 8.474055
-5.095767 -92.606201 8.841105
-13.292128 -91.482697 15.610081
-11.266647 -91.163475 15.076377
-12.319373 -93.101738 12.786457
-11.87146 -98.086983 4.893762
-10.654531 -96.356224 7.003964
-9.472711 -97.581863 4.381485
-7.274163 -96.853302 4.039747
-8.460331 -98.782593 1.766624
-7.394283 -99.845047 -0.815919
-9.812329 -100.638283 -0.472933
2.24718 -99.004364 -11.44257
-3.753938 -102.087128 -8.748746
-2.732686 -102.492996 -11.256813
-5.124846 -103.685898 -10.723489
-6.364041 -105.037994 -12.671062
-4.159854 -105.022659 -17.437407
-5.523981 -105.886215 -19.109644
-20.050329 -84.311981 26.311066
-19.136368 -86.099342 24.056784
-18.481009 -87.922211 21.549595
-20.093378 -87.389656 21.599236
-20.944273 -88.604927 19.034683
-17.518013 -105.001137 -7.204816
-3.31744 -84.29068 18.924057
-5.291974 -85.114723 19.336012
-6.054072 -87.451057 16.761475
-7.087618 -89.763687 14.332277
-15.542757 -95.071686 10.860429
-13.513172 -95.046448 10.359493
-14.845695 -96.744392 8.110745
-14.101925 -98.349197 5.331278
-13.101516 -99.784233 2.631133
-12.150612 -101.201057 -0.17686
5.09041 -91.228706 0.823478
4.142495 -93.225838 -1.630421
3.110531 -95.333687 -4.273074
2.128168 -97.168877 -6.583265
0.967411 -99.038475 -8.906091
-0.193065 -98.847855 -6.584625
-2.720372 -100.418465 -6.468906
-5.136182 -101.659645 -6.212933
-19.781507 -97.453331 6.274178
-10.996767 -87.541306 20.080627
-12.950107 -87.945442 20.581238
-13.962584 -89.732574 18.43482
-15.146972 -91.68557 15.919973
-17.628981 -89.738739 19.007435
-17.020414 -91.70591 16.100983
3.934412 -90.640434 3.416719
-0.610599 -93.619659 3.416801
1.674891 -83.472359 16.309813
-2.218762 -85.676018 16.252939
-1.047873 -86.846687 13.787071
0.089496 -88.047165 11.221143
-0.704974 -90.324348 8.599986
-1.724772 -92.642212 6.009581
-2.82992 -94.906624 3.459706
-10.080403 -89.078415 17.339134
-9.288564 -90.609871 14.658748
-8.217362 -92.011131 11.943481
-11.496668 -94.854721 9.753918
-9.409108 -94.215248 9.506427
-7.189454 -93.464218 9.126081
-6.289961 -94.828957 6.445815
-4.997177 -95.910843 3.746554
-3.929815 -97.061111 0.947416
-4.987892 -98.976883 -1.352737
-6.378362 -100.828903 -3.414489
-8.711285 -104.226517 -8.096743
-0.219313 -102.160339 -15.879264
-0.290234 -100.891022 -11.357056
-1.577128 -102.527824 -13.608433
-2.615663 -103.763756 -15.685635
-5.199602 -105.168625 -15.191465
-9.6117 -86.130085 21.141507
-8.630876 -85.737968 20.978725
-18.310147 -99.642349 3.167871
-17.717621 -98.985794 4.495932
-18.661171 -98.732819 4.631514
-17.894177 -100.50145 1.826105
-18.310147 -99.642349 3.167871
0.118696 -95.479919 -0.515839
-0.454207 -95.098191 0.773926
-16.686094 -86.478267 23.79278
-16.268719 -85.553295 25.132953
-17.100724 -85.585853 25.147962
-17.076633 -87.345661 22.574419
-16.244628 -87.313102 22.55941
-16.686094 -86.478267 23.79278
-15.832866 -105.676319 -8.540425
-14.804267 -105.694069 -8.500982
-14.304593 -105.219967 -7.444114
-14.968956 -104.709614 -6.161865
-14.804267 -105.694069 -8.500982
-14.304593 -105.219967 -7.444114
4.461735 -96.269722 -9.0278
3.867072 -96.301922 -7.814964
3.91331 -97.176437 -10.220251
4.461735 -96.269722 -9.0278
2.757119 -98.141144 -10.209231
3.403371 -98.039658 -11.45359
3.91331 -97.176437 -10.220251
-6.916978 -104.044495 -9.463107
-6.33375 -104.221314 -10.581565
-5.708074 -103.509079 -9.605031
-7.530273 -106.699528 -19.385704
-8.752306 -107.085518 -18.893861
-20.401457 -84.901161 25.149137
-20.791103 -83.977207 26.206426
-21.142232 -84.566387 25.044497
-21.634282 -88.052838 18.986723
-21.261533 -87.5564 20.294075
-21.379225 -89.059403 17.842326
-21.634282 -88.052838 18.986723
-5.806773 -84.434326 20.6359
-4.846212 -83.983444 20.490801
-7.064745 -87.892155 16.891369
-6.577886 -86.77832 18.065765
-7.58856 -87.219417 18.195659
-14.83121 -100.691147 1.557707
-13.753049 -100.586262 1.451687
-14.179678 -99.889118 2.737153
-20.55984 -97.046398 6.296968
-20.093615 -96.459015 7.661736
-13.436469 -87.120838 21.981037
-12.469716 -86.918068 21.785069
-17.615119 -92.412526 14.94437
-17.870849 -91.44381 16.343157
-18.465555 -92.150425 15.186543
-16.661423 -92.54034 14.824233
-17.615119 -92.412526 14.94437
-20.093615 -96.459015 7.661736
-19.263286 -96.831524 7.533152
4.298922 -89.571231 4.815107
4.971839 -89.821003 3.54814
-0.143596 -92.537731 4.683116
0.516709 -92.930763 3.372847
-17.827466 -105.361786 -8.499369
-18.438457 -104.708958 -7.127405
0.667695 -84.069462 16.250135
1.009112 -82.911744 17.542212
0.001916 -83.508847 17.482535
0.302911 -85.18726 14.997138
1.310107 -84.590157 15.056815
0.667695 -84.069462 16.250135
-8.05735 -102.179939 -4.547618
-6.886819 -101.723927 -4.666503
-7.548893 -101.284916 -3.295605
-11.575214 -101.826233 -1.586129
-12.703706 -101.992088 -1.383566
-9.814607 -104.509407 -7.909191
-9.277291 -103.824562 -6.835031
-9.242028 -104.854198 -9.113709
-9.814607 -104.509407 -7.909191
1.600125 -100.503578 -14.863877
2.272321 -99.698666 -13.850115
0.395381 -101.413204 -14.763362
0.98543 -101.250713 -15.979779
1.600125 -100.503578 -14.863877
-6.921204 -105.590878 -13.655818
-7.472696 -105.48399 -12.551268
-8.287425 -106.908116 -17.277774
-7.213051 -106.517658 -17.647326
-7.561144 -106.551499 -16.604144
-8.921577 -107.14822 -17.847954
-8.287425 -106.908116 -17.277774
-8.752306 -107.085518 -18.893861
-8.921577 -107.14822 -17.847954
-21.483507 -85.05286 23.820665
-21.142232 -84.566387 25.044497
-21.165689 -85.999108 22.770337
-21.483507 -85.05286 23.820665
-8.09795 -86.491318 19.56238
-8.630876 -85.737968 20.978725
-8.584809 -87.605152 18.387985
-7.58856 -87.219417 18.195659
-8.09795 -86.491318 19.56238
-16.91485 -100.659149 1.73239
-15.86047 -100.708489 1.637833
-16.312219 -99.944664 2.937731
-16.91485 -100.659149 1.73239
-17.894177 -100.50145 1.826105
0.734344 -95.755554 -1.773401
1.288626 -94.715134 -0.573883
0.118696 -95.479919 -0.515839
0.167271 -96.802017 -3.019278
1.337202 -96.037231 -3.077323
0.734344 -95.755554 -1.773401
-0.958808 -97.502228 -2.923606
-0.35595 -97.783905 -4.227528
0.167271 -96.802017 -3.019278
-2.110764 -98.193509 -2.891885
-0.958808 -97.502228 -2.923606
-3.324002 -98.876461 -2.822208
-2.695267 -99.167068 -4.062179
-2.110764 -98.193509 -2.891885
-17.952526 -83.817795 27.697485
-18.782827 -83.761799 27.657534
-17.118046 -83.822201 27.721679
-17.952526 -83.817795 27.697485
-17.517828 -84.656475 26.463943
-16.228904 -83.810044 27.61352
-17.118046 -83.822201 27.721679
-15.799221 -84.62386 26.338681
-16.228904 -83.810044 27.61352
-15.799221 -84.62386 26.338681
-16.268719 -85.553295 25.132953
-15.37829 -87.269279 22.461061
-14.412661 -87.194542 22.262594
-15.768828 -88.136673 21.242701
-15.37829 -87.269279 22.461061
-16.244628 -87.313102 22.55941
-19.523942 -90.848461 16.639277
-19.024466 -90.262493 17.84251
-19.827123 -89.929245 17.896456
-19.277652 -91.811283 15.358477
-19.523942 -90.848461 16.639277
-18.465555 -92.150425 15.186543
-19.277652 -91.811283 15.358477
-0.887467 -84.026249 17.446415
0.001916 -83.508847 17.482535
2.890874 -98.867813 -12.74767
3.403371 -98.039658 -11.45359
1.628628 -99.835217 -12.545015
2.272321 -99.698666 -13.850115
2.890874 -98.867813 -12.74767
-6.953348 -104.897362 -11.555351
-5.744444 -104.361946 -11.697275
-6.33375 -104.221314 -10.581565
-7.472696 -105.48399 -12.551268
-6.953348 -104.897362 -11.555351
-3.63866 -104.821003 -18.598839
-2.88072 -104.272594 -17.754988
-4.320723 -105.252781 -19.434957
-3.63866 -104.821003 -18.598839
-4.841918 -105.454437 -18.273525
-5.02626 -105.619583 -20.232301
-4.320723 -105.252781 -19.434957
-6.322597 -106.205498 -19.780048
-6.731656 -106.380245 -18.7153
-7.530273 -106.699528 -19.385704
-5.02626 -105.619583 -20.232301
-6.322597 -106.205498 -19.780048
-20.42257 -83.397991 27.466932
-20.791103 -83.977207 26.206426
-19.631838 -83.591755 27.593193
-20.42257 -83.397991 27.466932
-19.201318 -84.482025 26.375408
-18.782827 -83.761799 27.657534
-19.631838 -83.591755 27.593193
-20.836086 -86.948765 21.576352
-20.422982 -86.439999 22.793222
-21.165689 -85.999108 22.770337
-20.518825 -87.997292 20.31696
-20.836086 -86.948765 21.576352
-21.261533 -87.5564 20.294075
-20.635436 -89.56007 17.863954
-19.827123 -89.929245 17.896456
-20.135959 -88.974102 19.067186
-20.635436 -89.56007 17.863954
-21.379225 -89.059403 17.842326
-17.033766 -104.539715 -5.977962
-16.490533 -105.127247 -7.27244
-16.006287 -104.665825 -6.045585
-18.097501 -104.286857 -5.80447
-17.033766 -104.539715 -5.977962
-18.438457 -104.708958 -7.127405
-18.097501 -104.286857 -5.80447
-3.858945 -83.571422 20.284824
-2.942629 -83.143768 20.14582
-4.304707 -84.702701 19.130035
-3.858945 -83.571422 20.284824
-4.846212 -83.983444 20.490801
-6.196837 -85.610153 19.353033
-5.806773 -84.434326 20.6359
-5.673023 -86.28289 18.048744
-6.196837 -85.610153 19.353033
-6.577886 -86.77832 18.065765
-13.277597 -101.294674 0.047691
-12.626064 -100.492645 1.227137
-13.753049 -100.586262 1.451687
-12.703706 -101.992088 -1.383566
-13.277597 -101.294674 0.047691
-14.83121 -100.691147 1.557707
-15.86047 -100.708489 1.637833
-16.006287 -104.665825 -6.045585
-14.968956 -104.709614 -6.161865
5.731283 -91.320011 -0.369671
6.110771 -90.327396 1.016635
5.257325 -92.318577 -1.59662
5.731283 -91.320011 -0.369671
4.616453 -92.227272 -0.403471
4.728528 -93.318859 -2.790393
5.257325 -92.318577 -1.59662
4.212546 -94.372783 -4.11172
4.728528 -93.318859 -2.790393
3.626513 -94.279763 -2.951748
3.788809 -95.329803 -5.463555
4.212546 -94.372783 -4.11172
3.297627 -96.247399 -6.61865
3.788809 -95.329803 -5.463555
2.61935 -96.251282 -5.42817
2.697613 -97.2234 -7.779578
3.867072 -96.301922 -7.814964
3.297627 -96.247399 -6.61865
-20.355708 -97.993725 4.92101
-19.517602 -98.421353 4.788816
-20.355708 -97.993725 4.92101
-20.55984 -97.046398 6.296968
-11.493046 -86.716 21.534764
-10.562984 -86.462212 21.304467
-11.973437 -87.743374 20.330932
-11.493046 -86.716 21.534764
-12.469716 -86.918068 21.785069
-13.926298 -88.019146 20.862795
-13.436469 -87.120838 21.981037
-14.412661 -87.194542 22.262594
-15.724702 -92.53017 14.733728
-16.083693 -91.69574 16.010478
-16.661423 -92.54034 14.824233
-15.284028 -93.352574 13.382632
-14.706297 -92.507973 14.568877
-15.724702 -92.53017 14.733728
-15.922595 -94.223229 12.203955
-14.90419 -94.201031 12.039105
-15.284028 -93.352574 13.382632
-16.530687 -95.016102 10.962647
-15.922595 -94.223229 12.203955
-17.160495 -95.82481 9.728606
-16.172566 -95.880394 9.626388
-16.530687 -95.016102 10.962647
-17.77372 -96.44941 8.592236
-17.160495 -95.82481 9.728606
-18.406855 -97.14299 7.37585
-17.43551 -97.382683 7.17596
-17.77372 -96.44941 8.592236
-18.925076 -97.764797 6.116876
-18.406855 -97.14299 7.37585
-19.263286 -96.831524 7.533152
-19.517602 -98.421353 4.788816
-18.661171 -98.732819 4.631514
-18.925076 -97.764797 6.116876
5.549838 -90.115139 2.25152
6.110771 -90.327396 1.016635
4.512411 -90.93457 2.120099
5.549838 -90.115139 2.25152
4.971839 -89.821003 3.54814
3.224544 -90.370048 4.665158
4.298922 -89.571231 4.815107
2.789214 -91.44115 3.372806
3.224544 -90.370048 4.665158
2.256426 -92.558769 2.061104
3.401624 -91.758052 2.105018
2.789214 -91.44115 3.372806
1.158497 -93.340683 2.006286
1.770907 -93.657585 0.738498
2.256426 -92.558769 2.061104
0.031189 -94.029579 2.05024
1.158497 -93.340683 2.006286
0.516709 -92.930763 3.372847
-1.095995 -94.688271 2.140487
-0.454207 -95.098191 0.773926
0.031189 -94.029579 2.05024
-16.860346 -105.550209 -8.472801
-15.832866 -105.676319 -8.540425
-16.490533 -105.127247 -7.27244
-16.860346 -105.550209 -8.472801
-17.827466 -105.361786 -8.499369
1.997745 -82.35421 17.587305
1.009112 -82.911744 17.542212
2.676569 -82.899845 16.355545
1.997745 -82.35421 17.587305
2.314014 -84.020187 15.066407
2.676569 -82.899845 16.355545
2.314014 -84.020187 15.066407
1.310107 -84.590157 15.056815
-2.376436 -83.838306 18.813215
-2.942629 -83.143768 20.14582
-1.827097 -84.530975 17.477656
-2.376436 -83.838306 18.813215
-2.768101 -84.983349 17.588498
-1.279131 -85.171291 16.221699
-0.887467 -84.026249 17.446415
-1.827097 -84.530975 17.477656
-0.051275 -86.277321 13.795444
0.302911 -85.18726 14.997138
-0.693687 -85.756626 14.988764
0.517409 -86.87756 12.51248
-0.051275 -86.277321 13.795444
-0.479189 -87.446926 12.504107
1.13074 -87.452789 11.204483
0.517409 -86.87756 12.51248
0.747259 -88.560093 9.906568
1.13074 -87.452789 11.204483
0.350024 -89.698684 8.59599
0.747259 -88.560093 9.906568
-0.307739 -89.185756 9.910564
-0.190783 -90.890075 7.274708
0.350024 -89.698684 8.59599
-0.700682 -92.049008 5.979506
-0.190783 -90.890075 7.274708
-1.214873 -91.48328 7.304783
-1.167685 -93.130935 4.713191
-0.143596 -92.537731 4.683116
-0.700682 -92.049008 5.979506
-2.205656 -95.331753 2.16194
-1.095995 -94.688271 2.140487
-1.72026 -94.263141 3.438254
-10.045483 -87.209179 19.917667
-9.6117 -86.130085 21.141507
-10.562984 -86.462212 21.304467
-2.755603 -96.408997 0.905795
-2.205656 -95.331753 2.16194
-3.379868 -95.983868 2.203561
-3.334657 -97.482006 -0.352249
-2.755603 -96.408997 0.905795
-3.863696 -98.439892 -1.502326
-3.334657 -97.482006 -0.352249
-4.458854 -98.018997 -0.202661
-4.448199 -99.413452 -2.67262
-3.324002 -98.876461 -2.822208
-3.863696 -98.439892 -1.502326
-6.265729 -102.139297 -6.065725
-5.757272 -101.244274 -4.813711
-6.886819 -101.723927 -4.666503
-6.84329 -102.975605 -7.202545
-5.713742 -102.495953 -7.349753
-6.265729 -102.139297 -6.065725
-10.406073 -101.544846 -1.734166
-10.981471 -100.91967 -0.324896
-11.575214 -101.826233 -1.586129
-9.85962 -102.096169 -3.08606
-9.265876 -101.189606 -1.824826
-10.406073 -101.544846 -1.734166
-9.28136 -102.581768 -4.37502
-9.85962 -102.096169 -3.08606
-8.05735 -102.179939 -4.547618
-9.28136 -102.581768 -4.37502
-8.053281 -103.422733 -7.00763
-9.277291 -103.824562 -6.835031
-7.501294 -103.779389 -8.291658
-6.84329 -102.975605 -7.202545
-8.053281 -103.422733 -7.00763
-8.12697 -104.491623 -9.268192
-6.916978 -104.044495 -9.463107
-7.501294 -103.779389 -8.291658
-8.12697 -104.491623 -9.268192
-9.242028 -104.854198 -9.113709
0.359895 -101.930363 -17.014459
0.98543 -101.250713 -15.979779
-0.91045 -102.841434 -16.975917
0.359895 -101.930363 -17.014459
-2.108624 -103.643143 -16.879102
-0.91045 -102.841434 -16.975917
-1.417488 -102.962047 -15.782449
-3.387759 -104.393208 -16.561521
-2.88072 -104.272594 -17.754988
-2.108624 -103.643143 -16.879102
-6.338985 -105.656193 -14.91602
-5.781821 -105.103309 -13.931264
-6.921204 -105.590878 -13.655818
-6.982569 -106.152401 -15.807135
-5.843186 -105.664833 -16.08258
-6.338985 -105.656193 -14.91602
-7.561144 -106.551499 -16.604144
-6.982569 -106.152401 -15.807135
3 122 31 123
3 124 34 125
3 126 125 32
3 124 125 126
3 128 127 34
3 130 129 35
3 0 39 38
3 0 131 133
3 133 132 39
3 131 132 133
3 0 134 136
3 134 41 135
3 134 135 136
3 2 137 138
3 3 45 43
3 3 47 45
3 1 50 48
3 4 53 51
3 4 55 53
3 4 57 55
3 2 139 140
3 2 141 142
3 6 143 144
3 6 145 146
3 6 147 149
3 147 58 148
3 147 148 149
3 5 61 59
3 5 150 152
3 152 151 61
3 150 151 152
3 7 64 63
3 154 153 30
3 8 155 157
3 155 65 156
3 155 156 157
3 8 66 65
3 8 68 66
3 158 69 159
3 161 160 69
3 162 72 163
3 11 164 166
3 164 73 165
3 164 165 166
3 11 74 73
3 12 77 75
3 14 78 33
3 14 79 78
3 14 167 169
3 169 168 79
3 167 168 169
3 15 82 81
3 16 83 36
3 16 84 83
3 16 86 84
3 18 87 37
3 18 88 87
3 171 170 89
3 172 91 173
3 20 92 40
3 20 93 92
3 9 94 67
3 174 95 175
3 176 175 42
3 174 175 176
3 178 177 95
3 179 89 180
3 181 96 182
3 183 97 184
3 186 185 70
3 21 187 189
3 187 98 188
3 187 188 189
3 21 190 192
3 192 191 98
3 190 191 192
3 10 99 71
3 22 100 44
3 22 101 100
3 22 102 101
3 23 103 46
3 23 104 103
3 19 105 90
3 24 106 49
3 24 107 106
3 13 108 76
3 25 109 52
3 25 110 109
3 25 111 110
3 26 112 54
3 26 113 112
3 26 114 113
3 27 115 56
3 27 193 195
3 195 194 115
3 193 194 195
3 197 196 80
3 198 116 199
3 201 200 116
3 28 202 203
3 28 204 206
3 204 117 205
3 204 205 206
3 17 118 85
3 29 119 60
3 29 120 119
3 29 121 120
3 208 207 62
3 209 30 210
3 211 210 7
3 209 210 211
3 212 30 213
3 215 214 30
3 216 8 217
3 219 218 8
3 31 220 221
3 31 222 224
3 222 11 223
3 222 223 224
3 32 33 12
3 34 33 32
3 34 14 33
3 34 225 227
3 227 226 14
3 225 226 227
3 229 228 34
3 35 36 15
3 230 36 231
3 232 231 35
3 230 231 232
3 233 16 234
3 235 234 36
3 233 234 235
3 236 37 237
3 238 237 16
3 236 237 238
3 239 37 240
3 241 18 242
3 243 242 37
3 241 242 243
3 38 244 245
3 39 246 248
3 248 247 38
3 246 247 248
3 39 249 250
3 39 251 252
3 254 253 39
3 255 40 256
3 41 257 259
3 257 40 258
3 257 258 259
3 41 20 40
3 260 42 261
3 262 261 9
3 260 261 262
3 263 42 264
3 266 265 42
3 267 21 268
3 43 44 10
3 45 44 43
3 45 22 44
3 45 46 22
3 47 46 45
3 47 23 46
3 48 49 19
3 50 49 48
3 50 24 49
3 51 52 13
3 53 52 51
3 53 25 52
3 53 54 25
3 55 54 53
3 55 26 54
3 55 56 26
3 57 56 55
3 57 27 56
3 58 269 270
3 58 271 273
3 271 28 272
3 271 272 273
3 59 60 17
3 61 60 59
3 61 29 60
3 61 62 29
3 274 62 275
3 276 275 61
3 274 275 276
3 278 277 62
3 63 279 280
3 64 281 283
3 283 282 63
3 281 282 283
3 64 284 285
3 30 64 7
3 286 64 287
3 288 287 30
3 286 287 288
3 290 289 64
3 65 291 292
3 65 293 294
3 65 295 297
3 295 38 296
3 295 296 297
3 66 38 65
3 66 0 38
3 66 67 0
3 68 67 66
3 68 9 67
3 298 68 299
3 300 299 8
3 298 299 300
3 69 301 303
3 301 68 302
3 301 302 303
3 69 9 68
3 69 304 306
3 306 305 9
3 304 305 306
3 308 307 69
3 309 70 310
3 311 310 2
3 309 310 311
3 312 70 313
3 315 314 70
3 316 71 317
3 72 318 320
3 318 71 319
3 318 319 320
3 72 10 71
3 321 72 322
3 73 323 325
3 323 72 324
3 323 324 325
3 73 10 72
3 73 43 10
3 74 43 73
3 74 3 43
3 75 76 1
3 77 76 75
3 77 13 76
3 33 77 12
3 78 77 33
3 78 13 77
3 78 51 13
3 79 51 78
3 79 4 51
3 79 80 4
3 326 80 327
3 328 327 79
3 326 327 328
3 330 329 80
3 332 331 14
3 333 2 334
3 81 335 336
3 82 337 339
3 339 338 81
3 337 338 339
3 82 340 341
3 36 82 15
3 83 82 36
3 83 342 344
3 344 343 82
3 342 343 344
3 83 345 346
3 84 347 349
3 349 348 83
3 347 348 349
3 84 350 352
3 350 6 351
3 350 351 352
3 84 85 6
3 86 85 84
3 86 17 85
3 37 86 16
3 87 86 37
3 87 17 86
3 87 59 17
3 88 59 87
3 88 5 59
3 89 353 354
3 356 355 89
3 357 90 358
3 91 359 361
3 359 90 360
3 359 360 361
3 91 19 90
3 40 362 364
3 362 91 363
3 362 363 364
3 92 91 40
3 92 19 91
3 92 48 19
3 93 48 92
3 93 1 48
3 67 41 0
3 94 41 67
3 94 20 41
3 42 94 9
3 95 94 42
3 95 20 94
3 95 93 20
3 365 93 366
3 367 366 95
3 365 366 367
3 368 1 369
3 370 369 93
3 368 369 370
3 371 75 372
3 373 372 1
3 371 372 373
3 374 75 375
3 376 12 377
3 378 377 75
3 376 377 378
3 379 12 380
3 381 32 382
3 383 382 12
3 381 382 383
3 89 384 386
3 384 32 385
3 384 385 386
3 89 387 389
3 389 388 32
3 387 388 389
3 390 81 391
3 96 392 394
3 392 81 393
3 392 393 394
3 96 15 81
3 395 96 396
3 397 96 398
3 399 15 400
3 401 400 96
3 399 400 401
3 402 35 403
3 404 403 15
3 402 403 404
3 97 405 407
3 405 35 406
3 405 406 407
3 97 408 410
3 410 409 35
3 408 409 410
3 70 411 413
3 413 412 2
3 411 412 413
3 415 414 70
3 98 416 417
3 98 418 419
3 98 420 421
3 423 422 98
3 71 424 425
3 99 426 428
3 428 427 71
3 426 427 428
3 99 429 431
3 429 21 430
3 429 430 431
3 44 99 10
3 100 99 44
3 100 21 99
3 100 432 434
3 434 433 21
3 432 433 434
3 101 435 437
3 437 436 100
3 435 436 437
3 101 438 439
3 101 440 441
3 102 442 444
3 444 443 101
3 442 443 444
3 102 445 446
3 46 102 22
3 103 102 46
3 103 447 449
3 449 448 102
3 447 448 449
3 103 450 452
3 450 97 451
3 450 451 452
3 104 97 103
3 104 453 455
3 455 454 97
3 453 454 455
3 90 456 458
3 456 31 457
3 456 457 458
3 105 31 90
3 105 11 31
3 49 105 19
3 106 105 49
3 106 11 105
3 106 74 11
3 107 74 106
3 107 3 74
3 76 50 1
3 108 50 76
3 108 24 50
3 52 108 13
3 109 108 52
3 109 24 108
3 109 107 24
3 110 107 109
3 110 3 107
3 110 47 3
3 111 47 110
3 111 23 47
3 54 111 25
3 112 111 54
3 112 23 111
3 112 104 23
3 113 104 112
3 113 459 461
3 461 460 104
3 459 460 461
3 113 462 463
3 114 464 466
3 466 465 113
3 464 465 466
3 114 467 469
3 467 18 468
3 467 468 469
3 56 114 26
3 115 114 56
3 115 18 114
3 115 88 18
3 470 88 471
3 472 471 115
3 470 471 472
3 473 5 474
3 475 474 88
3 473 474 475
3 80 57 4
3 476 57 477
3 478 477 80
3 476 477 478
3 479 27 480
3 481 480 57
3 479 480 481
3 482 27 483
3 485 484 27
3 116 486 487
3 116 488 490
3 488 5 489
3 488 489 490
3 116 491 493
3 493 492 5
3 491 492 493
3 495 494 116
3 117 496 497
3 117 498 499
3 85 58 6
3 118 58 85
3 118 28 58
3 60 118 17
3 119 118 60
3 119 28 118
3 119 117 28
3 120 117 119
3 120 500 502
3 502 501 117
3 500 501 502
3 120 503 505
3 503 63 504
3 503 504 505
3 121 63 120
3 121 7 63
3 62 121 29
3 506 121 507
3 508 507 62
3 506 507 508
3 509 7 510
3 511 510 121
3 509 510 511
3 513 512 7
