ply
format ascii 1.0
element vertex 528
property float x
property float y
property float z
element face 581
property list uchar int vertex_index
end_header
24.247095 9.638888 -4.673269
36.641014 8.518458 3.185251
19.403397 11.557962 -7.448521
30.506926 8.720724 -1.543802
14.912522 27.145908 -13.550119
17.993128 24.871023 -9.890773
22.841383 22.780428 -7.356618
27.097025 33.681446 -6.503922
28.686516 20.817019 -4.745104
34.4482 19.220753 -0.701542
21.550123 10.362241 -6.022833
20.652552 5.955794 -6.309343
22.810778 4.799997 -4.66835
33.766495 8.313269 0.670713
31.733643 3.285143 0.777332
34.752598 3.399236 3.130344
14.030133 27.68243 -15.970418
14.633996 33.832996 -15.24724
17.843542 32.29187 -11.312805
19.956491 31.024811 -9.837499
20.195299 23.925512 -8.576906
22.465805 29.823826 -8.515133
29.441832 32.465351 -4.554312
27.885345 27.209789 -5.75702
30.521465 26.198639 -4.016378
31.658659 19.966854 -2.9762
38.94191 8.641575 6.243279
37.498096 3.654954 6.026077
17.789938 12.889524 -9.063014
27.339838 9.001128 -3.196563
25.488531 3.909325 -3.038204
28.357309 3.459891 -1.378173
15.551583 20.460873 -12.190374
16.006306 33.133785 -13.100468
16.233707 26.167818 -11.553545
16.806643 19.147751 -10.227717
18.472181 18.176514 -8.689671
20.740166 17.124336 -7.336986
23.358868 15.938428 -6.108847
25.056267 28.352016 -7.230484
25.649744 21.550053 -6.135771
26.35968 14.932059 -4.804254
29.64995 14.371533 -3.264957
32.714741 13.963493 -1.440982
35.647717 13.823578 0.923218
36.686092 18.63166 1.968557
38.001537 13.48786 3.795793
22.841787 10.05877 -5.360593
22.104624 7.656668 -5.391988
23.378239 7.180956 -4.663148
35.205048 8.411438 1.816845
34.286911 5.88457 1.845213
35.76506 5.882321 3.172767
21.075941 37.710609 -10.471559
19.998117 34.848824 -10.518187
21.101271 33.993126 -9.788115
21.158579 30.271452 -9.147262
22.289156 33.329746 -9.106336
29.922716 29.357824 -4.388476
39.711094 8.702167 7.750458
39.197086 6.28582 7.552872
18.522884 12.340609 -8.23081
19.08622 9.341042 -7.725604
21.536572 3.220647 -5.657043
20.681847 3.941954 -6.614969
28.902306 8.605126 -2.360826
27.737858 6.169209 -2.363871
29.401955 5.827757 -1.401584
32.39323 0.901332 2.032899
30.78701 0.964791 0.828085
14.413662 27.303732 -14.695873
17.892742 28.661987 -10.586285
16.917854 29.112263 -11.398066
17.047232 25.554241 -10.695632
16.414507 22.440378 -10.907844
17.251343 22.165356 -10.062655
17.563465 18.670429 -9.429261
18.160326 21.506798 -9.304261
21.493464 23.340128 -7.949327
20.396177 20.431572 -7.968085
21.703032 19.992001 -7.365677
22.038139 16.492252 -6.7021
22.990953 19.388012 -6.7912
24.926086 31.752016 -7.653121
26.183228 31.098637 -6.942495
28.272305 24.051191 -5.301985
26.826921 24.562695 -6.036682
27.151794 21.078035 -5.466533
25.937727 18.148092 -5.513575
27.512602 17.930315 -4.853378
27.984238 14.677717 -4.08987
29.108881 17.384121 -4.059056
33.124584 19.70632 -1.88588
32.256737 16.95969 -2.24197
33.690865 16.805107 -1.192468
34.172058 13.979621 -0.394431
35.06953 16.323895 0.047039
37.610821 18.431486 3.562331
37.427723 16.051382 2.857065
38.301151 15.6707 4.331423
26.236597 1.295082 -2.145058
24.870405 1.63735 -3.040499
20.415445 11.143226 -6.736683
19.936834 8.781098 -6.913162
20.967751 8.007919 -6.110141
21.677273 5.260693 -5.460317
22.526503 2.595079 -4.761594
32.185516 8.377358 -0.446914
31.029858 5.818552 -0.447948
32.692749 5.772476 0.663872
33.328022 3.314257 1.947869
33.888168 0.754244 3.333774
13.821352 30.66926 -16.865604
14.228806 30.786993 -15.532023
14.744718 30.535023 -14.345993
18.894434 31.728544 -10.534172
18.920471 27.893948 -9.832981
19.040581 24.4172 -9.208545
20.140493 27.474514 -9.154814
21.340458 26.886616 -8.543849
22.615452 26.073952 -7.919016
28.282009 33.133183 -5.593186
27.585581 30.469646 -6.09158
28.779995 29.75717 -5.275954
29.274269 26.623016 -4.899852
29.714304 23.465197 -4.468679
30.167566 20.243294 -3.912253
31.086224 23.111755 -3.56686
32.475849 22.755232 -2.481858
33.730434 22.179741 -1.324572
37.871464 8.641675 4.622924
37.114998 6.075465 4.559154
38.285854 6.147512 6.084343
38.565735 3.827164 7.547598
19.875908 6.448666 -7.124324
20.026939 4.630994 -7.587741
25.738052 9.110221 -3.930309
24.818535 6.602633 -3.866493
26.274675 6.293883 -3.109717
26.911406 3.552381 -2.201324
27.610588 1.057697 -1.258756
30.009371 3.331115 -0.365439
29.132748 0.963836 -0.280491
36.253773 3.551307 4.568626
35.315113 1.050275 4.591131
16.035353 17.117704 -11.649257
15.278348 33.586891 -14.121778
15.355659 30.224279 -13.297274
16.836117 32.61171 -12.16998
16.025896 29.61937 -12.351117
15.517015 26.530586 -12.485919
16.122335 19.636623 -11.166677
16.569969 16.465635 -10.611567
17.226845 16.005323 -9.656914
17.998785 15.385346 -8.81402
18.91157 14.86362 -8.05164
19.196918 20.92815 -8.613367
19.543169 17.598213 -7.979899
19.901121 14.422801 -7.392573
21.076744 13.758564 -6.709657
22.342155 13.183116 -6.067821
23.658747 12.65385 -5.446149
23.663521 32.660614 -8.366446
23.781929 29.182272 -7.875296
24.020077 25.675276 -7.324283
26.460953 27.921152 -6.540779
25.395061 25.009134 -6.695793
24.165472 22.254913 -6.793735
24.422136 18.702602 -6.163783
24.749077 15.417619 -5.504853
25.206629 12.259515 -4.762065
26.781961 11.805683 -4.033105
28.422337 11.721244 -3.298103
29.967579 11.415853 -2.482389
30.702097 17.141705 -3.205956
31.181591 14.241516 -2.431258
31.703632 11.244583 -1.483003
33.331478 11.129239 -0.400931
34.800919 11.209645 0.705628
36.196381 11.077176 2.020424
34.859695 21.643021 -0.098147
35.943939 21.364697 1.39703
35.590714 19.016365 0.528894
36.309967 16.278839 1.359302
36.948921 13.610269 2.359555
37.424633 11.129517 3.384004
38.454811 11.08395 4.837113
24.073168 4.35317 -3.878107
23.630318 2.072315 -3.905163
21.68076 35.435325 -9.728938
21.088606 35.851867 -10.129837
21.668095 37.294067 -10.07066
22.274703 35.103635 -9.388049
21.695214 33.661436 -9.447226
21.68076 35.435325 -9.728938
39.848662 7.657708 8.466322
40.007366 8.793919 8.534199
21.610713 2.362194 -5.820222
22.027464 1.954741 -5.33704
31.947803 -0.322182 2.064038
32.695707 -0.331416 2.696794
14.804884 25.567313 -13.769588
14.555454 25.646225 -14.342465
14.663092 27.22482 -14.122996
15.042816 25.477832 -13.197716
14.804884 25.567313 -13.769588
26.949812 35.349767 -6.637333
27.349531 36.72953 -6.266462
27.496744 35.061208 -6.13305
26.490243 34.110043 -6.928039
26.34303 35.778364 -7.06145
26.949812 35.349767 -6.637333
26.640127 32.390042 -6.723209
26.033344 32.818638 -7.147325
26.490243 34.110043 -6.928039
37.982191 18.143776 4.349266
37.56942 19.461298 4.037604
37.94079 19.173588 4.82454
38.327356 16.763383 4.733812
37.955986 17.051093 3.946877
37.982191 18.143776 4.349266
38.658119 15.584799 5.14509
38.327356 16.763383 4.733812
25.994649 0.231976 -2.165488
26.662341 0.068242 -1.671753
13.765402 32.311631 -17.328448
13.696985 30.723185 -17.568716
14.431401 32.309995 -15.389632
14.155305 32.281844 -16.015373
14.3579 33.804845 -15.872981
29.170825 33.964479 -4.649416
29.636995 33.678787 -4.058922
28.861921 32.799267 -5.073749
28.590913 34.298395 -5.168853
29.170825 33.964479 -4.649416
32.719202 23.922708 -2.152664
32.111729 24.178746 -2.744267
33.346495 23.634962 -1.574021
33.103141 22.467486 -1.903215
32.719202 23.922708 -2.152664
39.025442 4.058377 8.322589
38.881411 5.056492 7.550235
39.341117 5.287705 8.325226
39.160697 2.996707 9.130837
38.700991 2.765494 8.355845
39.025442 4.058377 8.322589
17.791021 11.813745 -9.319409
17.47627 13.193209 -9.541281
20.546457 3.382453 -7.315389
20.354393 4.286474 -7.101355
20.873911 3.037933 -6.829002
20.802377 2.56311 -7.609521
20.28286 3.811651 -7.881874
20.546457 3.382453 -7.315389
29.52039 -0.23886 0.284891
29.959879 0.964314 0.273797
30.347521 -0.238383 0.839179
28.772429 -0.238074 -0.251807
29.52039 -0.23886 0.284891
35.573057 -0.058823 5.343413
35.962196 1.184519 5.262453
34.912265 -0.189831 4.669973
35.573057 -0.058823 5.343413
14.066195 26.160199 -16.239429
13.911731 27.654024 -16.629212
15.561125 19.227483 -12.495384
15.324585 19.503528 -13.073629
15.315043 20.736918 -12.768619
15.793468 18.789288 -11.919816
15.80301 17.555898 -12.224826
15.561125 19.227483 -12.495384
15.642327 33.360338 -13.611123
15.610615 35.02474 -14.060754
15.974594 34.798187 -13.550099
17.33983 32.45179 -11.741392
17.324338 34.205815 -12.137429
17.82805 34.045895 -11.708842
16.000357 24.64859 -11.676683
15.642012 24.829974 -12.14287
15.875361 26.349202 -12.019732
24.199218 33.9457 -8.233085
23.567701 34.398463 -8.636978
34.97081 22.789 0.379725
34.457211 23.154964 -0.312613
36.315016 19.998179 1.682793
36.346029 21.245342 2.118116
36.717106 19.878824 2.403879
24.084218 0.835174 -3.519872
24.250362 1.854833 -3.472831
24.704262 0.617692 -3.087541
23.528588 1.10669 -4.001444
24.084218 0.835174 -3.519872
14.595883 35.42483 -15.749613
14.3579 33.804845 -15.872981
14.319786 35.396679 -16.375355
20.537029 36.279716 -10.494873
19.968257 36.606192 -10.8947
20.507168 38.037084 -10.871386
29.969412 32.063783 -4.015804
29.636995 33.678787 -4.058922
30.209854 30.510019 -3.932886
29.682274 30.911587 -4.471394
29.969412 32.063783 -4.015804
30.542386 28.981968 -3.829277
30.209854 30.510019 -3.932886
30.84176 27.402375 -3.643228
30.222091 27.778232 -4.202427
30.542386 28.981968 -3.829277
31.134538 25.90045 -3.511526
30.84176 27.402375 -3.643228
39.591657 6.449535 8.367529
39.45409 7.493994 7.651665
39.848662 7.657708 8.466322
39.341117 5.287705 8.325226
39.591657 6.449535 8.367529
18.451242 11.181366 -8.418939
18.08477 11.455824 -8.835041
18.156411 12.615067 -8.646912
18.732911 9.681583 -8.166336
18.451242 11.181366 -8.418939
18.804552 10.840826 -7.978207
19.121287 8.320147 -7.883549
18.732911 9.681583 -8.166336
21.183351 2.722847 -6.299185
21.109209 3.581301 -6.136006
21.610713 2.362194 -5.820222
20.873911 3.037933 -6.829002
21.183351 2.722847 -6.299185
31.144693 -0.290453 1.461631
31.59012 0.933061 1.430492
31.947803 -0.322182 2.064038
30.347521 -0.238383 0.839179
31.144693 -0.290453 1.461631
37.053688 2.486859 5.979926
37.660406 2.549141 6.781192
14.364529 25.895933 -14.986676
14.172764 26.085282 -15.623949
14.221898 27.493081 -15.333146
14.364529 25.895933 -14.986676
14.555454 25.646225 -14.342465
15.362347 22.135315 -12.517843
15.315043 20.736918 -12.768619
16.419138 34.764727 -13.081571
15.974594 34.798187 -13.550099
25.404774 33.145328 -7.502638
24.8305 33.4914 -7.876422
25.554657 31.425327 -7.297808
25.404774 33.145328 -7.502638
26.033344 32.818638 -7.147325
37.17947 19.778737 3.200766
37.56942 19.461298 4.037604
37.148457 18.531573 2.765444
36.717106 19.878824 2.403879
37.17947 19.778737 3.200766
38.596702 14.470584 4.842512
38.446895 13.379164 4.574696
38.151344 14.57928 4.063608
38.596702 14.470584 4.842512
38.658119 15.584799 5.14509
25.311553 0.40311 -2.613208
25.553501 1.466216 -2.592779
25.994649 0.231976 -2.165488
24.704262 0.617692 -3.087541
25.311553 0.40311 -2.613208
22.52243 1.641958 -4.889316
22.027464 1.954741 -5.33704
22.031537 2.907863 -5.209319
33.443176 -0.40496 3.347231
32.695707 -0.331416 2.696794
33.140699 0.827788 2.683337
13.80734 29.147439 -17.076805
13.696985 30.723185 -17.568716
13.925742 29.175845 -16.418011
13.911731 27.654024 -16.629212
13.80734 29.147439 -17.076805
13.951578 32.222977 -16.682163
13.765402 32.311631 -17.328448
14.025079 30.728127 -16.198813
13.951578 32.222977 -16.682163
14.155305 32.281844 -16.015373
18.345817 33.71499 -11.281147
17.82805 34.045895 -11.708842
19.423105 34.993468 -10.883838
19.968257 36.606192 -10.8947
18.871263 33.433328 -10.891831
19.423105 34.993468 -10.883838
19.446275 33.288684 -10.526179
18.368988 32.010207 -10.923489
18.345817 33.71499 -11.281147
18.871263 33.433328 -10.891831
28.089236 34.787077 -5.677682
28.590913 34.298395 -5.168853
27.689517 33.407314 -6.048554
27.496744 35.061208 -6.13305
28.089236 34.787077 -5.677682
31.416917 24.357008 -3.286767
30.803845 24.655197 -3.791619
31.134538 25.90045 -3.511526
31.781036 22.933493 -3.024359
31.416917 24.357008 -3.286767
32.111729 24.178746 -2.744267
38.194226 2.635246 7.541952
37.660406 2.549141 6.781192
38.031915 3.741059 6.786837
38.194226 2.635246 7.541952
38.700991 2.765494 8.355845
21.076971 39.442127 -10.814481
20.507168 38.037084 -10.871386
21.65096 38.968857 -10.36267
21.076971 39.442127 -10.814481
21.668095 37.294067 -10.07066
21.65096 38.968857 -10.36267
17.791021 11.813745 -9.319409
18.08477 11.455824 -8.835041
19.51613 6.873959 -7.582909
19.121287 8.320147 -7.883549
19.481064 7.894854 -7.424964
19.591646 5.965123 -7.814618
19.51613 6.873959 -7.582909
19.951423 5.53983 -7.356032
19.752464 5.055709 -8.101619
19.591646 5.965123 -7.814618
19.752464 5.055709 -8.101619
20.28286 3.811651 -7.881874
27.349336 -0.050451 -1.228601
26.662341 0.068242 -1.671753
26.923592 1.176389 -1.701907
28.011349 -0.191143 -0.740939
28.371668 1.010767 -0.769624
28.772429 -0.238074 -0.251807
27.349336 -0.050451 -1.228601
28.011349 -0.191143 -0.740939
36.431527 2.435036 5.251201
36.875934 3.60313 5.297351
37.053688 2.486859 5.979926
35.784443 2.300791 4.579878
36.431527 2.435036 5.251201
35.962196 1.184519 5.262453
34.198793 -0.337847 4.041294
34.601641 0.902259 3.962452
34.912265 -0.189831 4.669973
33.443176 -0.40496 3.347231
34.198793 -0.337847 4.041294
14.066195 26.160199 -16.239429
14.172764 26.085282 -15.623949
16.123853 16.052884 -11.954248
15.80301 17.555898 -12.224826
16.336625 15.655674 -11.37088
16.123853 16.052884 -11.954248
14.919553 35.447805 -15.193832
14.595883 35.42483 -15.749613
15.241729 35.324753 -14.631101
15.610615 35.02474 -14.060754
14.956172 33.709944 -14.684509
14.919553 35.447805 -15.193832
15.241729 35.324753 -14.631101
16.834043 34.503689 -12.616328
17.324338 34.205815 -12.137429
16.421211 32.872748 -12.635224
16.419138 34.764727 -13.081571
16.834043 34.503689 -12.616328
15.345063 25.170172 -12.665616
15.042816 25.477832 -13.197716
15.214768 26.838247 -13.018019
15.345063 25.170172 -12.665616
15.642012 24.829974 -12.14287
15.659296 21.795117 -11.995097
15.362347 22.135315 -12.517843
16.090758 22.78487 -11.353832
16.000357 24.64859 -11.676683
16.324107 24.304098 -11.230695
15.944672 21.382993 -11.483249
16.090758 22.78487 -11.353832
16.268421 21.0385 -11.037261
15.836959 20.048748 -11.678525
15.659296 21.795117 -11.995097
15.944672 21.382993 -11.483249
16.603933 15.32964 -10.852035
16.336625 15.655674 -11.37088
16.302661 16.791669 -11.130412
16.866285 14.981264 -10.315558
16.603933 15.32964 -10.852035
17.194723 14.751109 -9.838231
16.866285 14.981264 -10.315558
16.898407 16.235479 -10.134241
17.508392 14.447423 -9.359964
17.47627 13.193209 -9.541281
17.194723 14.751109 -9.838231
22.880518 34.733029 -9.006923
22.274703 35.103635 -9.388049
22.976338 32.99518 -8.736391
22.880518 34.733029 -9.006923
23.567701 34.398463 -8.636978
24.294804 32.206315 -8.009783
24.199218 33.9457 -8.233085
24.8305 33.4914 -7.876422
33.89258 23.423324 -0.925825
33.346495 23.634962 -1.574021
34.295065 21.911381 -0.71136
33.89258 23.423324 -0.925825
34.457211 23.154964 -0.312613
35.925863 22.467164 1.892961
36.346029 21.245342 2.118116
35.512932 22.649838 1.127313
35.925863 22.467164 1.892961
35.401817 21.503859 0.649442
34.97081 22.789 0.379725
35.512932 22.649838 1.127313
38.673533 12.177209 5.095357
38.228174 12.285905 4.316453
38.446895 13.379164 4.574696
38.899881 11.029946 5.647308
38.673533 12.177209 5.095357
39.143431 9.808759 6.35039
38.69836 9.862762 5.540196
38.899881 11.029946 5.647308
39.528023 9.839055 7.10398
39.326502 8.671871 6.996868
39.143431 9.808759 6.35039
39.865176 9.847643 7.940976
39.528023 9.839055 7.10398
40.007366 8.793919 8.534199
39.865176 9.847643 7.940976
22.97668 1.368072 -4.429659
23.078411 2.333697 -4.333379
23.528588 1.10669 -4.001444
22.52243 1.641958 -4.889316
22.97668 1.368072 -4.429659
3 0 49 47
3 1 52 50
3 189 55 190
3 191 190 53
3 189 190 191
3 192 57 193
3 194 193 55
3 192 193 194
3 196 195 59
3 2 62 61
3 198 197 63
3 3 67 65
3 200 199 68
3 4 201 203
3 203 202 70
3 201 202 203
3 4 204 205
3 5 73 71
3 5 75 73
3 5 77 75
3 6 80 78
3 6 82 80
3 7 206 208
3 206 207 208
3 7 209 211
3 209 210 211
3 7 212 214
3 212 84 213
3 212 213 214
3 8 87 85
3 8 89 87
3 8 91 89
3 9 94 92
3 9 96 94
3 215 97 216
3 215 216 217
3 218 99 219
3 220 219 97
3 218 219 220
3 222 221 99
3 224 223 100
3 10 104 102
3 12 105 48
3 12 106 105
3 13 109 107
3 15 110 51
3 15 111 110
3 225 112 226
3 17 227 229
3 227 113 228
3 227 228 229
3 17 114 113
3 19 115 54
3 19 116 115
3 19 118 116
3 21 119 56
3 21 120 119
3 22 230 231
3 22 232 234
3 232 121 233
3 232 233 234
3 22 123 121
3 24 124 58
3 24 125 124
3 24 127 125
3 235 128 236
3 237 129 238
3 239 238 128
3 237 238 239
3 26 132 130
3 240 133 241
3 242 241 60
3 240 241 242
3 245 244 133
3 243 244 245
3 28 246 247
3 11 134 103
3 248 135 249
3 250 249 64
3 248 249 250
3 253 252 135
3 251 252 253
3 29 138 136
3 31 139 66
3 31 140 139
3 14 141 108
3 254 142 255
3 256 255 69
3 254 255 256
3 258 257 142
3 27 143 131
3 259 144 260
3 262 261 144
3 16 263 264
3 32 265 267
3 265 266 267
3 32 268 270
3 268 145 269
3 268 269 270
3 33 271 273
3 271 146 272
3 271 272 273
3 33 147 146
3 18 274 276
3 274 148 275
3 274 275 276
3 34 149 72
3 34 150 149
3 34 277 279
3 279 278 150
3 277 278 279
3 35 151 74
3 35 152 151
3 35 153 152
3 36 154 76
3 36 155 154
3 20 156 117
3 37 157 79
3 37 158 157
3 37 159 158
3 38 160 81
3 38 161 160
3 280 162 281
3 39 163 83
3 39 164 163
3 23 165 122
3 40 166 86
3 40 167 166
3 40 168 167
3 41 169 88
3 41 170 169
3 41 171 170
3 42 172 90
3 42 173 172
3 25 174 126
3 43 175 93
3 43 176 175
3 43 177 176
3 44 178 95
3 44 179 178
3 282 180 283
3 45 284 286
3 284 181 285
3 284 285 286
3 45 182 181
3 45 183 182
3 46 184 98
3 46 185 184
3 46 186 185
3 30 187 137
3 287 188 288
3 289 288 101
3 287 288 289
3 291 290 188
3 47 48 10
3 49 48 47
3 49 12 48
3 50 51 13
3 52 51 50
3 52 15 51
3 292 17 293
3 292 293 294
3 53 295 297
3 295 54 296
3 295 296 297
3 55 54 53
3 55 19 54
3 55 56 19
3 57 56 55
3 57 21 56
3 298 22 299
3 300 58 301
3 302 301 22
3 300 301 302
3 303 58 304
3 305 24 306
3 307 306 58
3 305 306 307
3 309 308 24
3 59 60 26
3 310 60 311
3 312 311 59
3 310 311 312
3 314 313 60
3 61 315 317
3 317 316 28
3 315 316 317
3 62 318 320
3 320 319 61
3 318 319 320
3 62 321 322
3 63 64 11
3 323 64 324
3 325 324 63
3 323 324 325
3 327 326 64
3 65 66 29
3 67 66 65
3 67 31 66
3 68 69 14
3 328 69 329
3 330 329 68
3 328 329 330
3 332 331 69
3 334 333 27
3 70 335 337
3 337 336 16
3 335 336 337
3 339 338 70
3 340 32 341
3 342 33 343
3 71 72 18
3 73 72 71
3 73 34 72
3 73 74 34
3 75 74 73
3 75 35 74
3 75 76 35
3 77 76 75
3 77 36 76
3 78 79 20
3 80 79 78
3 80 37 79
3 80 81 37
3 82 81 80
3 82 38 81
3 344 83 345
3 84 346 348
3 346 83 347
3 346 347 348
3 84 39 83
3 85 86 23
3 87 86 85
3 87 40 86
3 87 88 40
3 89 88 87
3 89 41 88
3 89 90 41
3 91 90 89
3 91 42 90
3 92 93 25
3 94 93 92
3 94 43 93
3 94 95 43
3 96 95 94
3 96 44 95
3 97 349 350
3 97 351 353
3 351 45 352
3 351 352 353
3 97 98 45
3 99 98 97
3 99 46 98
3 99 354 356
3 356 355 46
3 354 355 356
3 358 357 99
3 100 101 30
3 359 101 360
3 361 360 100
3 359 360 361
3 363 362 101
3 102 103 2
3 104 103 102
3 104 11 103
3 48 104 10
3 105 104 48
3 105 11 104
3 105 63 11
3 106 63 105
3 106 364 366
3 366 365 63
3 364 365 366
3 107 108 3
3 109 108 107
3 109 14 108
3 51 109 13
3 110 109 51
3 110 14 109
3 110 68 14
3 111 68 110
3 111 367 369
3 369 368 68
3 367 368 369
3 112 370 371
3 112 372 374
3 372 16 373
3 372 373 374
3 375 112 376
3 113 377 379
3 377 112 378
3 377 378 379
3 113 16 112
3 113 70 16
3 114 70 113
3 114 4 70
3 380 18 381
3 54 382 383
3 115 384 386
3 386 385 54
3 384 385 386
3 115 387 389
3 387 18 388
3 387 388 389
3 115 71 18
3 116 71 115
3 116 5 71
3 116 117 5
3 118 117 116
3 118 20 117
3 56 118 19
3 119 118 56
3 119 20 118
3 119 78 20
3 120 78 119
3 120 6 78
3 121 390 391
3 121 392 394
3 392 7 393
3 392 393 394
3 121 122 7
3 123 122 121
3 123 23 122
3 58 123 22
3 124 123 58
3 124 23 123
3 124 85 23
3 125 85 124
3 125 8 85
3 125 126 8
3 127 126 125
3 127 25 126
3 395 127 396
3 397 396 24
3 395 396 397
3 128 398 400
3 398 127 399
3 398 399 400
3 128 25 127
3 128 92 25
3 129 92 128
3 129 9 92
3 130 131 1
3 132 131 130
3 132 27 131
3 60 132 26
3 133 132 60
3 133 27 132
3 133 401 403
3 403 402 27
3 401 402 403
3 405 404 133
3 406 53 407
3 408 53 409
3 411 410 53
3 413 412 28
3 103 62 2
3 134 62 103
3 134 414 416
3 416 415 62
3 414 415 416
3 64 134 11
3 135 134 64
3 135 417 419
3 419 418 134
3 417 418 419
3 135 420 421
3 423 422 135
3 136 137 0
3 138 137 136
3 138 30 137
3 66 138 29
3 139 138 66
3 139 30 138
3 139 100 30
3 140 100 139
3 140 424 426
3 426 425 100
3 424 425 426
3 108 67 3
3 141 67 108
3 141 31 67
3 69 141 14
3 142 141 69
3 142 31 141
3 142 140 31
3 427 140 428
3 429 428 142
3 427 428 429
3 431 430 140
3 131 52 1
3 143 52 131
3 143 15 52
3 432 143 433
3 434 433 27
3 432 433 434
3 144 435 437
3 435 143 436
3 435 436 437
3 144 15 143
3 144 111 15
3 438 111 439
3 440 439 144
3 438 439 440
3 442 441 111
3 444 443 16
3 145 445 446
3 145 447 448
3 449 17 450
3 146 451 452
3 146 453 455
3 453 17 454
3 453 454 455
3 146 114 17
3 147 114 146
3 147 4 114
3 148 456 457
3 148 458 460
3 458 33 459
3 458 459 460
3 72 148 18
3 149 148 72
3 149 33 148
3 149 147 33
3 150 147 149
3 150 4 147
3 150 461 463
3 463 462 4
3 461 462 463
3 465 464 150
3 466 32 467
3 74 468 470
3 470 469 34
3 468 469 470
3 151 471 473
3 473 472 74
3 471 472 473
3 151 474 476
3 474 32 475
3 474 475 476
3 151 145 32
3 152 145 151
3 152 477 479
3 479 478 145
3 477 478 479
3 152 480 481
3 153 482 484
3 484 483 152
3 482 483 484
3 153 485 487
3 485 28 486
3 485 486 487
3 76 153 35
3 154 153 76
3 154 28 153
3 154 61 28
3 155 61 154
3 155 2 61
3 117 77 5
3 156 77 117
3 156 36 77
3 79 156 20
3 157 156 79
3 157 36 156
3 157 155 36
3 158 155 157
3 158 2 155
3 158 102 2
3 159 102 158
3 159 10 102
3 81 159 37
3 160 159 81
3 160 10 159
3 160 47 10
3 161 47 160
3 161 0 47
3 488 57 489
3 162 490 492
3 490 57 491
3 490 491 492
3 162 21 57
3 83 493 495
3 493 162 494
3 493 494 495
3 163 162 83
3 163 21 162
3 163 120 21
3 164 120 163
3 164 6 120
3 122 84 7
3 165 84 122
3 165 39 84
3 86 165 23
3 166 165 86
3 166 39 165
3 166 164 39
3 167 164 166
3 167 6 164
3 167 82 6
3 168 82 167
3 168 38 82
3 88 168 40
3 169 168 88
3 169 38 168
3 169 161 38
3 170 161 169
3 170 0 161
3 170 136 0
3 171 136 170
3 171 29 136
3 90 171 41
3 172 171 90
3 172 29 171
3 172 65 29
3 173 65 172
3 173 3 65
3 126 91 8
3 174 91 126
3 174 42 91
3 93 174 25
3 175 174 93
3 175 42 174
3 175 173 42
3 176 173 175
3 176 3 173
3 176 107 3
3 177 107 176
3 177 13 107
3 95 177 43
3 178 177 95
3 178 13 177
3 178 50 13
3 179 50 178
3 179 1 50
3 496 129 497
3 180 498 500
3 498 129 499
3 498 499 500
3 180 9 129
3 181 501 502
3 181 503 504
3 181 505 507
3 505 180 506
3 505 506 507
3 182 180 181
3 182 9 180
3 182 96 9
3 183 96 182
3 183 44 96
3 98 183 45
3 184 183 98
3 184 44 183
3 184 179 44
3 185 179 184
3 185 1 179
3 185 130 1
3 186 130 185
3 186 26 130
3 508 186 509
3 510 509 46
3 508 509 510
3 511 186 512
3 513 26 514
3 515 514 186
3 513 514 515
3 516 59 517
3 518 517 26
3 516 517 518
3 519 59 520
3 522 521 59
3 137 49 0
3 187 49 137
3 187 12 49
3 101 187 30
3 188 187 101
3 188 12 187
3 188 106 12
3 523 106 524
3 525 524 188
3 523 524 525
3 527 526 106
