ply
format ascii 1.0
element vertex 556
property float x
property float y
property float z
element face 546
property list uchar int vertex_index
end_header
-23.364277 -83.397156 23.408726
-26.28582 -85.588722 1.693339
-24.186289 -64.952263 -4.181255
-21.346092 -91.557503 14.151481
-24.680716 -94.317986 3.511598
-25.253162 -85.318695 12.746408
-22.689062 -102.222488 -7.022058
-26.263781 -94.329269 -7.546952
-25.985506 -76.332664 9.627645
-25.192341 -75.358421 -1.152298
-22.324291 -87.500748 18.938763
-23.708393 -89.00341 13.810966
-24.340614 -84.614464 18.264668
-17.526117 -102.651947 -2.017383
-19.3589 -104.416779 -7.049994
-25.978977 -90.167053 2.773947
-25.771439 -94.566742 -2.009389
-26.461424 -90.088371 -2.653966
-26.311277 -84.88755 -3.782234
-25.205795 -71.016357 2.373727
-24.487024 -69.954086 -2.694212
-23.782494 -68.946075 -7.45398
-23.444208 -63.552124 -8.600219
-13.256799 -102.783119 -2.590271
-20.405722 -95.464699 9.049294
-22.380814 -97.361916 3.798123
-23.228161 -93.151299 8.950747
-25.014954 -89.957352 8.294302
-25.915646 -85.686722 7.248753
-18.209824 -93.119141 13.787756
-24.010569 -98.46051 -1.662234
-25.044569 -98.726006 -7.184369
-25.566565 -80.896317 16.760914
-25.877567 -81.171135 11.313988
-26.017191 -80.953911 5.869428
-25.675634 -75.918907 4.152712
-25.893723 -80.360764 0.30563
-22.856333 -85.395645 21.266615
-23.372515 -86.259796 18.719637
-23.845657 -84.136276 20.833061
-22.214428 -84.615379 23.654123
-21.578793 -86.507874 21.553467
-19.554323 -102.063538 -1.80112
-26.237331 -87.861603 2.302618
-26.264339 -90.306763 0.030295
-26.407736 -87.88028 -0.50786
-26.480066 -87.345795 -3.140842
-26.328568 -85.149673 -0.920218
-24.580334 -65.412254 -1.786505
-24.657997 -68.096275 -1.0421
-24.296713 -67.488289 -3.344265
-24.138882 -69.514717 -5.066866
-23.935095 -66.999146 -5.662582
-23.577492 -66.412888 -7.906157
-23.806934 -64.341751 -6.466584
-16.463102 -101.422974 0.432492
-20.887318 -93.562309 11.596823
-21.951147 -94.626381 8.784482
-22.23 -92.626457 11.420653
-24.591566 -87.331856 13.33229
-24.439075 -89.399445 11.133822
-25.125507 -87.597961 10.704863
-25.579269 -87.800873 7.968442
-25.595064 -85.630058 10.072493
-20.326599 -90.515213 16.693224
-19.834019 -92.440857 14.131624
-19.333769 -94.340057 11.485061
-21.68548 -103.803703 -9.610712
-22.033255 -103.89473 -12.468111
-23.139887 -102.391327 -9.823745
-23.276196 -98.011917 1.052763
-24.452297 -96.329994 0.952235
-26.073423 -94.594521 -4.773139
-25.471464 -96.840736 -4.737193
-25.782484 -96.629456 -7.243268
-25.283627 -98.558075 -9.878201
-26.266056 -94.171951 -10.43273
-25.333969 -80.730583 19.544703
-26.07513 -76.479652 12.234706
-25.971485 -78.713463 13.066381
-25.979616 -78.920692 10.304541
-25.9741 -81.03717 8.665721
-25.960457 -78.64019 7.799326
-25.11735 -73.020309 0.54602
-25.425175 -73.470406 3.221106
-25.450516 -75.598412 1.534515
-25.770113 -78.302391 2.400026
-25.568666 -77.806114 -0.273203
-25.732471 -79.858711 -2.213901
-25.322384 -77.371239 -3.022276
-14.474858 -104.165871 -4.983667
-21.814177 -89.513878 16.649969
-22.618916 -90.475227 13.984048
-23.03071 -88.330879 16.352739
-24.054724 -86.691742 16.124928
-24.82699 -85.048325 15.446054
-16.549519 -104.078293 -4.751107
-18.676989 -103.572578 -4.404124
-20.44521 -102.925484 -4.472763
-22.00038 -101.789894 -4.157516
-25.465246 -92.385941 3.151803
-25.296185 -94.518723 0.762825
-25.899761 -92.423988 0.565724
-26.220503 -92.482155 -2.280395
-26.434809 -92.16671 -5.064223
-26.49749 -91.91468 -7.966772
-26.551643 -89.681458 -5.419557
-26.464832 -87.134331 -5.987218
-24.856821 -70.413864 -0.152948
-24.816957 -72.566353 -1.762675
-24.862209 -74.608162 -3.615596
-24.468746 -72.072403 -4.304205
-14.404581 -101.38829 0.272241
-15.442706 -102.791069 -2.124578
-21.338173 -96.639465 6.319758
-23.47768 -91.119072 11.349792
-24.260681 -91.683212 8.598739
-24.896593 -92.200165 5.820482
-25.56616 -90.132874 5.465075
-25.961283 -87.959373 5.078304
-26.139063 -85.575531 4.569509
-24.225042 -62.274002 -4.87895
-16.302433 -93.374771 13.547482
-17.518616 -94.960518 11.064866
-18.745066 -96.209717 8.792126
-22.206108 -103.640999 -14.986362
-21.893049 -99.42054 0.882389
-22.765472 -99.998917 -1.706917
-23.446198 -100.485535 -4.494142
-25.002867 -96.721954 -1.862615
-24.646084 -98.668343 -4.506105
-24.014097 -100.597565 -7.077854
-24.351067 -100.60968 -9.838076
-24.680872 -82.531319 20.302347
-25.06604 -82.788872 17.603888
-25.383183 -83.048874 14.829978
-25.90638 -78.854225 15.738256
-25.756014 -80.942749 13.949438
-25.636402 -83.381897 12.104535
-25.873917 -83.414612 9.303265
-26.035402 -83.301361 6.717061
-26.138334 -83.311783 3.942008
-25.912201 -73.968964 8.624833
-25.690176 -73.710556 5.973733
-25.854925 -76.32106 6.789882
-25.888685 -78.493073 5.036905
-25.997507 -80.808678 3.025608
-26.150696 -82.948105 1.268945
-26.099752 -82.632095 -1.588946
-23.835375 -61.779442 -7.047138
-22.789352 -84.006268 23.531424
-22.53314 -83.620709 24.7222
-23.108065 -83.011597 24.599502
-22.187271 -103.013095 -8.316385
-21.435911 -103.615398 -8.270933
-21.937702 -102.824791 -6.976606
-24.566507 -95.32399 2.231917
-24.074345 -96.180889 2.232462
-24.188555 -95.174885 3.512144
-26.087149 -95.365032 -8.733934
-25.8465 -96.515126 -8.582092
-26.023133 -95.479363 -7.39511
-26.264919 -94.25061 -8.989841
-26.088286 -95.286373 -10.176823
-26.087149 -95.365032 -8.733934
-14.304593 -105.219967 -7.444114
-13.810495 -104.676224 -6.265916
-14.968956 -104.709614 -6.161865
-21.634282 -88.052838 18.986723
-21.261533 -87.5564 20.294075
-21.951542 -87.004311 20.246115
-22.069234 -88.507313 17.794366
-21.379225 -89.059403 17.842326
-21.634282 -88.052838 18.986723
-20.825212 -102.095246 -3.120396
-19.999766 -102.494511 -3.136941
-20.379769 -101.664272 -1.784575
-21.602797 -101.527451 -2.962773
-21.222795 -102.357689 -4.315139
-20.825212 -102.095246 -3.120396
-26.257197 -84.682556 -5.070491
-26.333975 -85.805947 -6.172983
-26.388055 -86.010941 -4.884726
-23.96091 -70.28529 -7.094969
-24.139104 -70.569611 -5.901413
-23.960688 -69.230396 -6.260423
-23.788378 -69.930763 -8.248815
-23.96091 -70.28529 -7.094969
-23.606367 -68.568264 -8.575846
-23.788378 -69.930763 -8.248815
-23.324937 -64.536075 -9.354726
-23.391579 -65.966457 -9.007696
-23.51085 -64.982506 -8.253188
-23.268372 -63.154131 -9.591121
-23.324937 -64.536075 -9.354726
-14.83121 -100.691147 1.557707
-13.753049 -100.586262 1.451687
-20.871948 -96.052082 7.684526
-20.55984 -97.046398 6.296968
-20.093615 -96.459015 7.661736
-23.031712 -94.251317 7.641553
-22.393204 -94.988857 7.558421
-22.589654 -93.88884 8.867615
-23.592175 -93.558491 7.544155
-23.031712 -94.251317 7.641553
-17.615119 -92.412526 14.94437
-18.465555 -92.150425 15.186543
-17.256129 -93.246956 13.667619
-16.661423 -92.54034 14.824233
-17.615119 -92.412526 14.94437
-20.093615 -96.459015 7.661736
-19.263286 -96.831524 7.533152
-19.575394 -95.837208 8.92071
-18.747909 -105.069607 -8.421958
-17.827466 -105.361786 -8.499369
-18.438457 -104.708958 -7.127405
-22.806503 -102.954231 -13.777572
-22.119681 -103.767865 -13.727237
-22.720076 -103.081097 -12.518446
-22.808961 -102.800308 -15.120738
-22.806503 -102.954231 -13.777572
-22.136932 -98.391228 2.340256
-21.411479 -98.977329 2.225116
-21.655361 -97.948017 3.682983
-24.882678 -99.488228 -11.186012
-25.282756 -98.449002 -11.320201
-26.462091 -91.733882 -9.264534
-26.506361 -90.628368 -8.080998
-24.874884 -81.492501 21.21959
-24.486173 -82.321419 21.540292
-26.02024 -77.705792 15.33313
-26.022451 -77.815677 16.675738
-25.864398 -72.740917 8.138939
-25.992507 -72.905034 9.428765
-25.369637 -71.15559 3.721824
-25.300315 -69.902618 3.187882
-25.854456 -81.015339 -3.203215
-25.640886 -79.71352 -3.532024
-24.960712 -75.719219 -4.471969
-24.727253 -74.498795 -4.844374
-24.133421 -60.728459 -6.195507
-24.030209 -62.026722 -5.963044
-24.328254 -60.975739 -5.111413
-12.128308 -102.617264 -2.792835
-11.575214 -101.826233 -1.586129
-12.703706 -101.992088 -1.383566
-21.873153 -84.128906 24.877955
-22.53314 -83.620709 24.7222
-21.483507 -85.05286 23.820665
-21.142232 -84.566387 25.044497
-21.873153 -84.128906 24.877955
-21.896611 -85.561627 22.603795
-21.165689 -85.999108 22.770337
-21.483507 -85.05286 23.820665
-18.98804 -101.585556 -0.590599
-18.54022 -102.357743 -1.909252
-17.973937 -101.879761 -0.698731
-19.89885 -101.241955 -0.485669
-18.98804 -101.585556 -0.590599
-20.379769 -101.664272 -1.784575
-19.89885 -101.241955 -0.485669
-24.619166 -66.754265 -1.414303
-24.811637 -67.011539 -0.197899
-24.772806 -65.669529 -0.570101
-16.91485 -100.659149 1.73239
-15.86047 -100.708489 1.637833
-17.442429 -101.265274 0.526207
-16.91485 -100.659149 1.73239
-17.973937 -101.879761 -0.698731
-16.994609 -102.037461 -0.792446
-17.442429 -101.265274 0.526207
-19.523942 -90.848461 16.639277
-19.827123 -89.929245 17.896456
-19.277652 -91.811283 15.358477
-19.523942 -90.848461 16.639277
-20.080309 -91.478035 15.412424
-19.021922 -92.779999 13.95969
-18.465555 -92.150425 15.186543
-19.277652 -91.811283 15.358477
-19.676448 -104.673222 -8.350013
-20.272621 -103.921937 -6.990574
-20.839738 -104.366684 -9.630373
-21.435911 -103.615398 -8.270933
-21.117903 -104.436222 -10.867665
-20.839738 -104.366684 -9.630373
-21.859367 -103.849216 -11.039411
-21.291791 -104.481735 -12.296365
-21.117903 -104.436222 -10.867665
-23.273392 -102.329396 -11.196264
-22.720076 -103.081097 -12.518446
-22.586571 -103.143028 -11.145928
-23.486295 -97.02185 2.282726
-22.828505 -97.686916 2.425443
-23.038604 -96.69685 3.655406
-23.864247 -97.170955 1.002499
-23.486295 -97.02185 2.282726
-24.074345 -96.180889 2.232462
-25.597072 -97.479435 -9.899559
-25.533055 -97.593766 -8.560735
-25.8465 -96.515126 -8.582092
-25.282756 -98.449002 -11.320201
-25.597072 -97.479435 -9.899559
-26.051516 -95.137795 -11.618009
-26.088286 -95.286373 -10.176823
-26.20566 -93.875518 -11.725894
-26.051516 -95.137795 -11.618009
-25.520891 -79.612965 20.382392
-25.201432 -80.592132 20.840768
-25.575269 -79.744377 19.064941
-25.520891 -79.612965 20.382392
-25.691567 -79.827244 17.673047
-25.450267 -80.81345 18.152808
-25.575269 -79.744377 19.064941
-26.023308 -77.596558 12.650543
-26.052793 -77.635411 13.997193
-26.104615 -76.518505 13.581356
-25.435842 -78.469784 -3.936212
-25.640886 -79.71352 -3.532024
-25.527428 -78.614975 -2.618088
-13.370557 -104.07941 -5.156916
-12.761527 -103.388035 -3.960218
-13.865828 -103.474495 -3.786969
-13.370557 -104.07941 -5.156916
-13.810495 -104.676224 -6.265916
-20.836086 -86.948765 21.576352
-21.165689 -85.999108 22.770337
-20.836086 -86.948765 21.576352
-21.261533 -87.5564 20.294075
-20.635436 -89.56007 17.863954
-19.827123 -89.929245 17.896456
-21.070388 -90.014545 16.671596
-20.635436 -89.56007 17.863954
-21.379225 -89.059403 17.842326
-17.033766 -104.539715 -5.977962
-16.006287 -104.665825 -6.045585
-18.097501 -104.286857 -5.80447
-17.033766 -104.539715 -5.977962
-17.613254 -103.825435 -4.577616
-19.017944 -103.994678 -5.727059
-18.438457 -104.708958 -7.127405
-18.097501 -104.286857 -5.80447
-20.815776 -103.176289 -5.701958
-20.272621 -103.921937 -6.990574
-19.902055 -103.671132 -5.761378
-21.593361 -102.608494 -5.544335
-20.815776 -103.176289 -5.701958
-21.222795 -102.357689 -4.315139
-22.344721 -102.006191 -5.589787
-21.937702 -102.824791 -6.976606
-21.593361 -102.608494 -5.544335
-26.533437 -89.511757 -6.807391
-26.506361 -90.628368 -8.080998
-26.524566 -90.798069 -6.693164
-26.490032 -88.238193 -7.091222
-26.533437 -89.511757 -6.807391
-26.508237 -88.407894 -5.703387
-26.398687 -86.894322 -7.304627
-26.490032 -88.238193 -7.091222
-26.398687 -86.894322 -7.304627
-26.333975 -85.805947 -6.172983
-26.166012 -75.360897 13.032791
-26.104615 -76.518505 13.581356
-26.090081 -75.29147 11.790451
-26.166012 -75.360897 13.032791
-26.045269 -75.217975 10.486921
-26.030318 -76.406158 10.931175
-26.090081 -75.29147 11.790451
-25.123514 -69.656909 1.939678
-25.300315 -69.902618 3.187882
-24.849615 -68.196868 0.231764
-24.811637 -67.011539 -0.197899
-24.949027 -69.355663 0.67634
-24.849615 -68.196868 0.231764
-24.757409 -69.25507 -0.597524
-25.031308 -70.715111 1.11039
-25.123514 -69.656909 1.939678
-24.949027 -69.355663 0.67634
-24.530521 -73.230915 -5.188678
-24.727253 -74.498795 -4.844374
-24.665478 -73.340283 -3.9599
-24.304036 -71.848454 -5.520082
-24.303814 -70.79356 -4.685536
-24.139104 -70.569611 -5.901413
-24.530521 -73.230915 -5.188678
-24.304036 -71.848454 -5.520082
-23.503865 -67.301671 -8.801934
-23.606367 -68.568264 -8.575846
-23.679993 -67.679481 -7.680068
-23.503865 -67.301671 -8.801934
-23.391579 -65.966457 -9.007696
-13.277597 -101.294674 0.047691
-13.753049 -100.586262 1.451687
-13.83069 -102.085704 -1.159015
-12.703706 -101.992088 -1.383566
-13.277597 -101.294674 0.047691
-15.433841 -101.405632 0.352367
-14.83121 -100.691147 1.557707
-15.86047 -100.708489 1.637833
-16.006287 -104.665825 -6.045585
-14.968956 -104.709614 -6.161865
-15.512189 -104.122082 -4.867387
-21.134041 -97.586792 4.9438
-20.55984 -97.046398 6.296968
-21.859493 -97.00069 5.058941
-21.655361 -97.948017 3.682983
-21.134041 -97.586792 4.9438
-22.086717 -95.995399 6.326059
-21.64466 -95.632923 7.55212
-22.393204 -94.988857 7.558421
-22.608038 -96.356625 5.065241
-21.859493 -97.00069 5.058941
-22.086717 -95.995399 6.326059
-23.038604 -96.69685 3.655406
-22.608038 -96.356625 5.065241
-24.318453 -94.141835 4.82458
-24.188555 -95.174885 3.512144
-24.108435 -92.824447 7.368151
-23.592175 -93.558491 7.544155
-23.744421 -92.417255 8.774743
-24.426392 -93.082924 5.979023
-24.108435 -92.824447 7.368151
-24.578637 -91.941688 7.209611
-24.788654 -93.259075 4.66604
-24.318453 -94.141835 4.82458
-24.426392 -93.082924 5.979023
-24.807851 -64.420342 -0.883614
-24.772806 -65.669529 -0.570101
-24.601424 -64.130663 -2.152465
-24.807851 -64.420342 -0.883614
-24.404401 -63.900667 -3.34984
-24.383311 -65.182259 -2.98388
-24.601424 -64.130663 -2.152465
-24.423777 -62.561537 -3.698688
-24.205665 -63.613133 -4.530102
-24.404401 -63.900667 -3.34984
-24.527839 -61.278448 -3.959804
-24.423777 -62.561537 -3.698688
-24.328254 -60.975739 -5.111413
-24.527839 -61.278448 -3.959804
-15.724702 -92.53017 14.733728
-16.661423 -92.54034 14.824233
-15.284028 -93.352574 13.382632
-15.724702 -92.53017 14.733728
-15.922595 -94.223229 12.203955
-15.284028 -93.352574 13.382632
-16.530687 -95.016102 10.962647
-15.922595 -94.223229 12.203955
-16.910525 -94.167644 12.306174
-17.160495 -95.82481 9.728606
-16.530687 -95.016102 10.962647
-17.77372 -96.44941 8.592236
-17.160495 -95.82481 9.728606
-18.131841 -95.585117 9.928496
-18.406855 -97.14299 7.37585
-17.77372 -96.44941 8.592236
-18.406855 -97.14299 7.37585
-19.263286 -96.831524 7.533152
-23.827875 -82.754337 23.093482
-23.660058 -82.394627 24.31698
-23.660058 -82.394627 24.31698
-23.108065 -83.011597 24.599502
-18.747909 -105.069607 -8.421958
-19.676448 -104.673222 -8.350013
-21.339565 -104.505814 -13.651346
-21.291791 -104.481735 -12.296365
-21.425992 -104.378949 -14.910472
-21.339565 -104.505814 -13.651346
-22.119681 -103.767865 -13.727237
-21.454531 -104.193993 -16.187294
-21.425992 -104.378949 -14.910472
-22.083369 -103.486992 -16.390452
-21.331792 -104.039986 -17.591384
-21.454531 -104.193993 -16.187294
-22.083369 -103.486992 -16.390452
-22.808961 -102.800308 -15.120738
-21.068213 -99.920456 0.856086
-21.411479 -98.977329 2.225116
-21.549132 -100.342773 -0.44282
-21.068213 -99.920456 0.856086
-21.985343 -100.631962 -1.737473
-21.549132 -100.342773 -0.44282
-22.329261 -99.709729 -0.412264
-22.382926 -100.894406 -2.932217
-21.602797 -101.527451 -2.962773
-21.985343 -100.631962 -1.737473
-23.878982 -101.438572 -11.203429
-23.273392 -102.329396 -11.196264
-23.745477 -101.500504 -9.83091
-24.416398 -100.51403 -11.165949
-24.817347 -99.583877 -9.858138
-24.882678 -99.488228 -11.186012
-23.878982 -101.438572 -11.203429
-24.416398 -100.51403 -11.165949
-26.346373 -92.862518 -10.497512
-26.381773 -93.043316 -9.199751
-26.462091 -91.733882 -9.264534
-26.20566 -93.875518 -11.725894
-26.346373 -92.862518 -10.497512
-24.068565 -83.123897 21.80565
-23.604967 -83.766716 22.120894
-23.827875 -82.754337 23.093482
-24.263264 -83.333798 20.567704
-24.068565 -83.123897 21.80565
-24.486173 -82.321419 21.540292
-25.007421 -81.630951 19.923525
-24.874884 -81.492501 21.21959
-25.201432 -80.592132 20.840768
-25.861475 -78.806198 17.161718
-26.022451 -77.815677 16.675738
-25.736472 -79.875271 16.249585
-25.691567 -79.827244 17.673047
-25.861475 -78.806198 17.161718
-25.938932 -78.783844 14.402318
-26.02024 -77.705792 15.33313
-26.052793 -77.635411 13.997193
-26.008617 -74.036125 9.985515
-25.992507 -72.905034 9.428765
-25.948853 -75.150814 9.126239
-26.045269 -75.217975 10.486921
-26.008617 -74.036125 9.985515
-25.479328 -72.382614 4.145513
-25.369637 -71.15559 3.721824
-25.315485 -72.243381 2.797416
-25.611828 -72.50269 5.521826
-25.479328 -72.382614 4.145513
-25.557676 -73.590481 4.597419
-25.753386 -72.611714 6.813389
-25.611828 -72.50269 5.521826
-25.801189 -73.83976 7.299283
-25.864398 -72.740917 8.138939
-25.753386 -72.611714 6.813389
-26.038097 -82.402031 -2.890737
-25.916111 -81.245403 -1.901423
-25.854456 -81.015339 -3.203215
-26.143859 -83.529758 -3.987381
-26.205514 -83.759823 -2.68559
-26.038097 -82.402031 -2.890737
-26.257197 -84.682556 -5.070491
-26.143859 -83.529758 -3.987381
-25.190799 -77.100758 -4.175308
-25.092296 -75.9897 -3.318936
-24.960712 -75.719219 -4.471969
-25.435842 -78.469784 -3.936212
-25.190799 -77.100758 -4.175308
-23.931082 -60.406088 -7.295142
-24.133421 -60.728459 -6.195507
-23.660666 -61.285136 -8.073199
-23.931082 -60.406088 -7.295142
-23.465083 -62.171476 -8.849739
-23.639792 -62.665783 -7.823678
-23.660666 -61.285136 -8.073199
-23.289247 -61.773483 -9.840642
-23.268372 -63.154131 -9.591121
-23.465083 -62.171476 -8.849739
-12.128308 -102.617264 -2.792835
-12.761527 -103.388035 -3.960218
3 0 39 37
3 0 150 152
3 150 40 151
3 150 151 152
3 0 37 40
3 1 45 43
3 1 47 45
3 2 50 48
3 2 52 50
3 2 54 52
3 3 58 56
3 5 61 59
3 5 63 61
3 3 65 64
3 3 56 65
3 6 153 155
3 153 67 154
3 153 154 155
3 6 69 67
3 4 156 158
3 156 71 157
3 156 157 158
3 7 74 72
3 7 159 161
3 161 160 74
3 159 160 161
3 7 162 164
3 162 76 163
3 162 163 164
3 8 80 78
3 8 82 80
3 9 85 83
3 9 87 85
3 9 89 87
3 167 166 90
3 165 166 167
3 10 93 91
3 12 94 38
3 12 95 94
3 10 168 170
3 170 169 41
3 168 169 170
3 10 171 173
3 171 91 172
3 171 172 173
3 13 97 96
3 174 98 175
3 176 175 42
3 174 175 176
3 177 99 178
3 179 178 98
3 177 178 179
3 15 102 100
3 17 103 44
3 17 104 103
3 17 106 104
3 18 107 46
3 18 180 182
3 182 181 107
3 180 181 182
3 20 108 49
3 20 109 108
3 20 111 109
3 21 183 185
3 185 184 51
3 183 184 185
3 21 186 187
3 21 188 189
3 22 190 192
3 192 191 53
3 190 191 192
3 22 193 194
3 195 112 196
3 13 113 55
3 13 96 113
3 24 197 199
3 197 114 198
3 197 198 199
3 26 200 202
3 202 201 57
3 200 201 202
3 26 203 204
3 11 115 92
3 27 116 60
3 27 117 116
3 27 118 117
3 28 119 62
3 28 120 119
3 29 205 206
3 29 207 209
3 207 122 208
3 207 208 209
3 29 123 122
3 24 124 66
3 24 210 212
3 212 211 124
3 210 211 212
3 14 213 215
3 213 214 215
3 216 125 217
3 218 217 68
3 216 217 218
3 220 219 125
3 25 221 223
3 221 126 222
3 221 222 223
3 30 127 70
3 30 128 127
3 16 129 101
3 31 130 73
3 31 131 130
3 31 132 131
3 225 224 75
3 227 226 105
3 228 133 229
3 32 134 77
3 32 135 134
3 230 136 231
3 33 137 79
3 33 138 137
3 33 139 138
3 34 140 81
3 34 141 140
3 232 142 233
3 19 234 235
3 35 143 84
3 35 144 143
3 35 145 144
3 36 146 86
3 36 147 146
3 36 148 147
3 237 236 88
3 239 238 110
3 240 149 241
3 242 241 121
3 240 241 242
3 23 243 245
3 243 244 245
3 37 38 10
3 39 38 37
3 39 12 38
3 40 246 247
3 40 248 250
3 248 249 250
3 40 251 253
3 251 41 252
3 251 252 253
3 37 41 40
3 37 10 41
3 254 42 255
3 256 255 13
3 254 255 256
3 257 42 258
3 260 259 42
3 43 44 15
3 45 44 43
3 45 17 44
3 45 46 17
3 47 46 45
3 47 18 46
3 48 261 263
3 261 49 262
3 261 262 263
3 50 49 48
3 50 20 49
3 50 51 20
3 52 51 50
3 52 21 51
3 52 53 21
3 54 53 52
3 54 22 53
3 264 55 265
3 266 55 267
3 268 13 269
3 270 269 55
3 268 269 270
3 56 57 24
3 58 57 56
3 58 26 57
3 59 60 11
3 61 60 59
3 61 27 60
3 61 62 27
3 63 62 61
3 63 28 62
3 64 271 272
3 65 273 275
3 275 274 64
3 273 274 275
3 65 276 278
3 276 29 277
3 276 277 278
3 65 66 29
3 56 66 65
3 56 24 66
3 280 279 14
3 67 281 282
3 67 283 284
3 67 285 287
3 285 68 286
3 285 286 287
3 69 68 67
3 69 288 290
3 290 289 68
3 288 289 290
3 291 70 292
3 293 292 25
3 291 292 293
3 71 294 296
3 294 70 295
3 294 295 296
3 71 30 70
3 72 73 16
3 74 73 72
3 74 31 73
3 74 75 31
3 297 75 298
3 299 298 74
3 297 298 299
3 301 300 75
3 76 302 303
3 76 304 305
3 306 77 307
3 308 77 309
3 310 32 311
3 312 311 77
3 310 311 312
3 78 313 315
3 313 79 314
3 313 314 315
3 80 79 78
3 80 33 79
3 80 81 33
3 82 81 80
3 82 34 81
3 83 84 19
3 85 84 83
3 85 35 84
3 85 86 35
3 87 86 85
3 87 36 86
3 87 88 36
3 89 88 87
3 89 316 318
3 318 317 88
3 316 317 318
3 90 319 321
3 321 320 23
3 319 320 321
3 323 322 90
3 91 92 3
3 93 92 91
3 93 11 92
3 38 93 10
3 94 93 38
3 94 11 93
3 94 59 11
3 95 59 94
3 95 5 59
3 41 324 325
3 327 326 41
3 328 64 329
3 91 330 332
3 330 64 331
3 330 331 332
3 91 3 64
3 96 333 334
3 97 335 337
3 337 336 96
3 335 336 337
3 97 338 340
3 338 14 339
3 338 339 340
3 42 97 13
3 98 97 42
3 98 14 97
3 98 341 343
3 343 342 14
3 341 342 343
3 99 344 346
3 346 345 98
3 344 345 346
3 99 347 349
3 347 6 348
3 347 348 349
3 100 101 4
3 102 101 100
3 102 16 101
3 44 102 15
3 103 102 44
3 103 16 102
3 103 72 16
3 104 72 103
3 104 7 72
3 104 105 7
3 106 105 104
3 106 350 352
3 352 351 105
3 350 351 352
3 46 106 17
3 107 106 46
3 107 353 355
3 355 354 106
3 353 354 355
3 107 356 357
3 359 358 107
3 360 78 361
3 362 78 363
3 364 8 365
3 366 365 78
3 364 365 366
3 367 19 368
3 49 369 370
3 108 371 373
3 373 372 49
3 371 372 373
3 108 374 376
3 374 19 375
3 374 375 376
3 108 83 19
3 109 83 108
3 109 9 83
3 109 110 9
3 111 110 109
3 111 377 379
3 379 378 110
3 377 378 379
3 51 111 20
3 380 111 381
3 382 381 51
3 380 381 382
3 384 383 111
3 53 385 387
3 387 386 21
3 385 386 387
3 389 388 53
3 112 390 391
3 112 392 394
3 392 23 393
3 392 393 394
3 55 395 397
3 395 112 396
3 395 396 397
3 113 112 55
3 113 23 112
3 113 90 23
3 96 90 113
3 96 398 400
3 400 399 90
3 398 399 400
3 114 401 402
3 114 403 405
3 403 25 404
3 403 404 405
3 57 114 24
3 406 114 407
3 408 407 57
3 406 407 408
3 409 25 410
3 411 410 114
3 409 410 411
3 413 412 25
3 414 4 415
3 92 58 3
3 115 58 92
3 115 26 58
3 60 115 11
3 116 115 60
3 116 26 115
3 116 416 418
3 418 417 26
3 416 417 418
3 117 419 421
3 421 420 116
3 419 420 421
3 117 422 424
3 422 4 423
3 422 423 424
3 117 100 4
3 118 100 117
3 118 15 100
3 62 118 27
3 119 118 62
3 119 15 118
3 119 43 15
3 120 43 119
3 120 1 43
3 425 48 426
3 427 48 428
3 429 2 430
3 431 430 48
3 429 430 431
3 432 121 433
3 434 433 2
3 432 433 434
3 435 121 436
3 438 437 121
3 122 439 440
3 122 441 442
3 122 443 444
3 123 445 447
3 447 446 122
3 445 446 447
3 123 448 449
3 66 123 29
3 124 123 66
3 124 450 452
3 452 451 123
3 450 451 452
3 124 453 454
3 456 455 124
3 458 457 0
3 459 0 460
3 462 461 14
3 68 463 464
3 125 465 467
3 467 466 68
3 465 466 467
3 125 468 469
3 125 470 472
3 470 471 472
3 474 473 125
3 126 475 476
3 126 477 478
3 70 126 25
3 127 126 70
3 127 479 481
3 481 480 126
3 479 480 481
3 127 482 484
3 482 99 483
3 482 483 484
3 128 99 127
3 128 6 99
3 101 71 4
3 129 71 101
3 129 30 71
3 73 129 16
3 130 129 73
3 130 30 129
3 130 128 30
3 131 128 130
3 131 6 128
3 131 69 6
3 132 69 131
3 132 485 487
3 487 486 69
3 485 486 487
3 75 132 31
3 488 132 489
3 490 489 75
3 488 489 490
3 492 491 132
3 105 76 7
3 493 76 494
3 495 494 105
3 493 494 495
3 497 496 76
3 498 39 499
3 500 499 0
3 498 499 500
3 133 501 503
3 501 39 502
3 501 502 503
3 133 12 39
3 77 504 506
3 504 133 505
3 504 505 506
3 134 133 77
3 134 12 133
3 134 95 12
3 135 95 134
3 135 5 95
3 136 507 508
3 136 509 511
3 509 32 510
3 509 510 511
3 79 512 514
3 512 136 513
3 512 513 514
3 137 136 79
3 137 32 136
3 137 135 32
3 138 135 137
3 138 5 135
3 138 63 5
3 139 63 138
3 139 28 63
3 81 139 33
3 140 139 81
3 140 28 139
3 140 120 28
3 141 120 140
3 141 1 120
3 142 515 516
3 142 517 519
3 517 8 518
3 517 518 519
3 84 520 522
3 522 521 19
3 520 521 522
3 143 523 525
3 525 524 84
3 523 524 525
3 143 526 527
3 143 528 530
3 528 142 529
3 528 529 530
3 144 142 143
3 144 8 142
3 144 82 8
3 145 82 144
3 145 34 82
3 86 145 35
3 146 145 86
3 146 34 145
3 146 141 34
3 147 141 146
3 147 1 141
3 147 47 1
3 148 47 147
3 148 18 47
3 88 148 36
3 531 148 532
3 533 532 88
3 531 532 533
3 534 18 535
3 536 535 148
3 534 535 536
3 538 537 18
3 110 89 9
3 539 89 540
3 541 540 110
3 539 540 541
3 543 542 89
3 121 54 2
3 149 54 121
3 149 22 54
3 544 149 545
3 546 149 547
3 548 22 549
3 550 549 149
3 548 549 550
3 553 552 22
3 551 552 553
3 555 554 23
