ply
format ascii 1.0
element vertex 616
property float x
property float y
property float z
element face 658
property list uchar int vertex_index
end_header
-6.843683 -10.74527 -62.383541
-11.479445 -64.831635 -47.242298
-6.289782 11.187957 -70.022224
-11.201054 -34.686432 -54.878345
-3.60207 -49.729492 -48.395729
-11.644792 -50.290253 -50.716774
-6.76012 -0.361538 -66.780869
-20.432407 -62.292732 -45.57317
-20.368896 -48.652779 -51.138393
-9.220489 -20.672253 -59.134983
2.803171 -47.152935 -45.388348
-4.264316 -33.963917 -52.170731
-7.210773 -57.835186 -48.236122
-11.607743 -57.617226 -48.996864
-9.500757 9.080718 -71.096199
-9.549664 2.792621 -69.19696
-6.547618 5.488169 -68.749542
-19.797119 -41.395226 -53.808765
-14.323195 -13.193902 -63.818836
4.000534 -55.181374 -43.922779
-7.596438 -42.351303 -51.507252
-4.120605 -41.74136 -50.164047
-7.471737 -34.704556 -53.489567
-7.051416 -27.35829 -55.643158
-10.347265 -27.411209 -57.004536
0.615734 -56.685314 -45.567657
-3.047069 -57.825245 -46.971611
-7.676212 -49.933796 -49.852737
-11.653677 -42.263355 -52.795467
-6.850972 -5.937109 -64.513565
-9.40145 -3.326544 -66.758804
-8.864308 -9.341716 -63.934467
-16.001539 -63.777351 -46.796658
-24.603632 -54.302795 -47.051357
-20.528307 -55.74474 -48.374836
-16.064484 -56.799313 -49.111538
-15.908419 -49.393059 -51.333698
-15.596308 -42.041618 -53.544415
-15.008171 -34.774292 -55.77737
-18.035213 -26.700003 -59.047825
-14.14992 -27.223017 -58.221031
-12.654007 -20.124052 -60.543137
-10.916285 -14.121056 -62.532845
-7.965026 -15.035209 -60.989983
1.780784 -39.488113 -47.077805
-0.235076 -48.601665 -46.975304
-0.895213 -40.709908 -48.668201
-1.398603 -33.27002 -50.595955
-4.035622 -26.768621 -54.203163
-6.255561 -20.72658 -57.71521
-9.180356 -65.132454 -47.167278
-9.184661 -61.739174 -47.874416
-11.580535 -61.177593 -48.155846
-9.328588 11.915546 -71.626671
-7.84172 10.107585 -70.668625
-7.947641 7.299314 -70.019516
-6.479364 8.455018 -69.549652
-9.501333 -38.589851 -53.173077
-7.715682 -38.388531 -52.560455
-9.30738 -34.803902 -54.193569
-9.043592 -31.335777 -55.170906
-10.8951 -30.995068 -55.965652
-2.788043 -61.6273 -46.394554
-9.472733 -53.914165 -49.492229
-7.463145 -53.843575 -49.023716
-9.630426 -49.951298 -50.38229
-9.657154 -46.075939 -51.289444
-11.738124 -46.125443 -51.780319
-4.79875 -6.682404 -62.819904
-8.030794 1.473084 -68.123993
-9.461782 -0.169651 -68.05896
-8.077904 -1.498571 -66.986488
-8.072165 -4.611405 -65.690643
-6.858318 -3.296299 -65.641991
-20.45392 -65.017265 -44.231689
-18.385418 -62.720352 -46.366329
-22.475016 -51.540051 -49.374207
-20.33695 -52.337257 -49.776516
-18.278963 -56.257652 -48.874928
-18.378965 -52.583817 -50.132149
-16.174675 -53.058712 -50.23698
-18.196682 -49.007175 -51.347927
-17.738365 -41.501339 -53.841896
-17.446541 -38.018055 -54.988239
-15.524817 -38.269047 -54.722
-17.038942 -34.176601 -56.257977
-17.333475 -23.007454 -60.383163
-16.086992 -26.858742 -58.740253
-15.351362 -23.562218 -59.850536
-13.380198 -23.822151 -59.296257
-14.506966 -20.124405 -61.016026
-12.573621 -13.600041 -63.237255
-11.443507 -10.864321 -64.116325
-9.879335 -11.402729 -63.385937
-10.312817 -8.479524 -64.827156
4.737559 -50.149864 -43.826588
4.09701 -46.172024 -44.586105
3.485872 -42.429024 -45.397106
2.166007 -43.02977 -46.310101
-1.617856 -53.342098 -46.987194
0.150432 -52.655785 -46.237511
-1.917423 -49.201855 -47.723881
-4.254978 -37.88015 -51.139179
-2.412089 -41.393795 -49.382904
-2.683875 -37.336884 -50.431309
-1.241956 -36.769386 -49.690746
-2.819561 -33.577686 -51.445652
-2.800595 -29.899485 -52.442337
-4.107867 -30.397272 -53.107018
-8.282699 -24.007294 -57.426285
-6.681116 -23.853331 -56.726383
-7.767795 -20.665674 -58.50082
-7.186303 -17.832533 -59.39785
-8.60975 -17.556103 -60.175407
-4.678249 -17.630632 -58.009796
-4.761484 -61.883659 -46.963612
-7.070065 -61.655396 -47.549168
-9.481711 -57.739536 -48.713139
-11.67665 -53.977001 -49.841969
-12.776244 14.85146 -72.782883
-10.964426 13.311333 -72.31134
-11.168496 10.484849 -71.871552
-11.118714 7.582562 -71.153954
-11.081817 4.42388 -70.18895
-9.447683 6.055997 -70.244644
-8.077204 4.386619 -69.179787
-6.749812 2.59266 -67.890617
-20.173035 -44.924473 -52.51709
-15.353804 -16.356434 -62.709679
3.339926 -51.178654 -44.645798
-5.726311 -46.193874 -49.924606
-4.021502 -45.531746 -49.334194
-5.877804 -42.027924 -50.890232
-6.000678 -38.075043 -51.915955
-5.822442 -34.385689 -52.840714
-5.688683 -30.941902 -53.796352
-7.36434 -31.027212 -54.566246
-8.661219 -27.641798 -56.262844
-9.90476 -23.840937 -58.158379
-6.083777 13.911029 -70.266907
-1.16364 -57.328369 -46.30019
-3.508082 -53.624573 -47.743881
-5.180735 -57.659626 -47.708118
-5.352994 -53.984669 -48.355747
-5.622126 -50.166546 -49.115814
-7.689856 -46.148842 -50.66507
-9.616334 -42.317627 -52.212742
-11.411883 -38.582523 -53.771549
-5.567104 0.854044 -66.502876
-5.706857 -2.09557 -65.432915
-5.750908 -4.875681 -64.297531
-5.857636 -7.635052 -63.170193
-6.86904 -8.702463 -63.309917
-5.995003 -10.341696 -62.063797
-10.994002 1.043265 -68.978058
-10.907389 -2.14277 -67.711525
-10.639251 -5.376387 -66.281097
-9.194623 -6.529078 -65.30925
-7.931568 -7.52239 -64.358017
-7.703669 -10.111396 -63.095947
-13.858095 -64.278328 -47.124767
-22.596664 -58.327919 -46.249352
-22.653791 -54.869938 -47.838688
-20.533926 -59.068707 -46.975609
-18.277325 -59.673912 -47.617489
-16.049492 -60.083256 -48.06144
-13.781921 -60.974552 -48.12307
-13.899952 -57.245865 -49.145401
-13.990225 -53.549141 -50.131645
-13.831257 -49.823128 -51.120155
-17.983139 -45.441158 -52.535282
-15.914693 -45.547909 -52.492146
-13.752273 -45.930809 -52.181141
-13.604139 -42.133579 -53.239819
-13.447295 -38.471313 -54.301701
-13.110537 -34.467857 -55.482433
-16.494661 -30.525164 -57.469593
-14.590939 -30.857952 -57.025776
-12.691176 -30.773354 -56.596489
-12.194607 -27.286283 -57.670605
-11.64592 -23.797041 -58.792408
-10.89261 -20.702879 -59.752899
-13.522465 -16.667446 -62.186558
-11.803748 -17.151613 -61.511784
-10.193501 -17.575851 -60.797485
-9.39581 -14.555834 -61.80608
-8.528319 -12.065496 -62.57098
-7.328245 -12.475909 -61.840508
4.506823 -41.14513 -44.642262
2.913307 -38.59074 -46.278206
1.326275 -35.482399 -48.061417
2.522916 -56.273613 -44.648689
1.799828 -52.060284 -45.44521
1.335036 -48.027939 -46.187626
-2.157278 -45.446445 -48.467297
-0.571574 -44.62833 -47.777279
0.942492 -44.173409 -46.95948
0.424161 -40.064941 -47.954445
0.189342 -36.320454 -48.798466
-0.097388 -32.614124 -49.770565
-1.494761 -29.625389 -51.589207
-2.762808 -26.368622 -53.473381
-5.473346 -27.277382 -54.871563
-5.161162 -23.751949 -55.936134
-4.852588 -20.710621 -56.893307
-5.879116 -17.862352 -58.678337
-6.677036 -15.049882 -60.344715
-10.329901 -64.982045 -47.204788
-9.024276 -67.021012 -46.738014
-10.17382 -66.870602 -46.775524
-7.065751 10.647771 -70.345425
-7.780883 11.516536 -70.887051
-7.004914 12.056722 -70.56385
-2.581168 -63.60996 -46.093556
-1.503056 -63.473119 -45.742876
-19.348492 -64.195423 -45.269385
-19.359249 -65.557689 -44.598644
-20.443164 -63.654998 -44.902429
-19.408912 -62.506542 -45.969749
-18.324998 -64.409233 -45.665964
-19.348492 -64.195423 -45.269385
-20.352923 -50.495018 -50.457454
-21.347092 -50.255098 -50.290581
-21.363065 -48.412859 -50.971519
-18.242278 -36.020792 -55.709261
-18.506422 -37.730856 -55.103443
-18.038479 -34.100065 -56.34413
-17.242742 -36.097328 -55.623108
-18.242278 -36.020792 -55.709261
-16.883505 -21.390757 -60.952913
-17.850892 -21.098751 -61.184326
-15.892449 -21.668139 -60.686599
-16.342419 -23.284836 -60.11685
-16.883505 -21.390757 -60.952913
-15.47025 -19.949232 -61.269345
-14.929164 -21.843311 -60.433281
-15.892449 -21.668139 -60.686599
-11.684438 -9.246205 -64.887962
-12.325391 -10.560894 -64.473137
-11.119093 -8.053806 -65.243378
-10.878162 -9.671923 -64.471741
-11.684438 -9.246205 -64.887962
-4.15109 -19.055553 -57.068998
-4.082884 -17.442993 -57.635774
-6.925662 -63.512978 -47.204705
-5.79753 -63.740857 -46.947619
-10.075695 14.08107 -72.126968
-10.963798 14.738965 -72.432796
4.740469 -54.719206 -43.501084
5.040942 -56.713997 -43.210285
3.67023 -53.180014 -44.284289
4.410165 -52.717846 -43.862593
4.740469 -54.719206 -43.501084
-6.03377 15.195595 -70.302925
-6.83401 14.857551 -70.777432
-2.105354 -57.576807 -46.635901
-0.994575 -59.321731 -46.009783
-1.936289 -59.57017 -46.345494
-4.946708 1.247764 -66.165367
-5.452203 2.309134 -66.946441
-5.177324 -3.069483 -64.631863
-5.110069 -1.673557 -65.152332
-5.19935 -4.459539 -64.064171
-5.728883 -3.485626 -64.865223
-5.177324 -3.069483 -64.631863
-5.430477 -8.545955 -62.468544
-5.328193 -7.158728 -62.995048
-4.901034 -8.069631 -62.293399
-5.499161 -9.899277 -61.915346
-5.926319 -8.988374 -62.616995
-5.430477 -8.545955 -62.468544
-13.756501 13.900423 -72.735337
-12.860335 13.34339 -72.599022
-14.819393 -65.771206 -46.4165
-16.045345 -65.331104 -46.196444
-14.929817 -64.027839 -46.960712
-13.747671 -66.021694 -46.580555
-14.819393 -65.771206 -46.4165
-24.627865 -55.873817 -46.218302
-25.571496 -53.945311 -46.59442
-23.600148 -56.315357 -46.650355
-23.624381 -57.886379 -45.817299
-24.627865 -55.873817 -46.218302
-19.00977 -26.481126 -59.181568
-18.617309 -24.824425 -59.808434
-18.291204 -28.57902 -58.370842
-19.00977 -26.481126 -59.181568
-17.264937 -28.612583 -58.258709
-17.520928 -30.4916 -57.581726
-18.291204 -28.57902 -58.370842
4.822749 -43.016558 -44.254021
5.360718 -42.545013 -43.801743
1.569325 -56.479463 -45.108173
2.707281 -58.201128 -44.405115
1.75369 -58.406978 -44.864599
-3.936238 -25.164721 -54.682451
-3.299831 -24.964721 -54.31756
-3.399215 -26.568621 -53.838272
-7.985986 -66.999786 -46.693304
-9.024276 -67.021012 -46.738014
-7.980808 -65.251507 -47.01376
-7.985986 -66.999786 -46.693304
-9.182509 -63.435814 -47.520847
-7.98296 -63.554867 -47.367328
-7.980808 -65.251507 -47.01376
-8.524318 12.420517 -71.366073
-9.257776 13.383177 -71.784633
-8.585154 11.011565 -71.147648
-8.524318 12.420517 -71.366073
-7.780883 11.516536 -70.887051
4.305574 -57.284903 -43.610868
5.040942 -56.713997 -43.210285
-1.806776 -61.471197 -46.056965
-1.503056 -63.473119 -45.742876
-2.917556 -59.726273 -46.683082
-1.936289 -59.57017 -46.345494
-1.806776 -61.471197 -46.056965
-4.246145 -6.399779 -62.464453
-4.72327 -5.362901 -63.325357
-4.377766 -7.712664 -62.020275
-4.246145 -6.399779 -62.464453
-4.901034 -8.069631 -62.293399
-4.377766 -7.712664 -62.020275
-19.365422 -66.990566 -43.917049
-19.283846 -68.504573 -43.159987
-20.372344 -66.531273 -43.474626
-19.365422 -66.990566 -43.917049
-19.359249 -65.557689 -44.598644
-17.237285 -64.802605 -45.981279
-18.324998 -64.409233 -45.665964
-17.193479 -63.248852 -46.581494
-16.045345 -65.331104 -46.196444
-17.237285 -64.802605 -45.981279
-25.598358 -52.276646 -47.466557
-25.571496 -53.945311 -46.59442
-22.416125 -49.856495 -50.089427
-23.467385 -49.516621 -49.845356
-21.405983 -51.938654 -49.575361
-22.416125 -49.856495 -50.089427
-21.347092 -50.255098 -50.290581
-18.652334 -39.472498 -54.530271
-18.767742 -41.448283 -53.82533
-19.681711 -39.419442 -54.513706
-17.592453 -39.759697 -54.415067
-18.652334 -39.472498 -54.530271
-18.506422 -37.730856 -55.103443
-18.266441 -22.97815 -60.476103
-17.850892 -21.098751 -61.184326
-17.684344 -24.853728 -59.715494
-18.617309 -24.824425 -59.808434
-18.266441 -22.97815 -60.476103
-12.890448 -11.928755 -64.033602
-13.448408 -13.396971 -63.528045
-13.765235 -11.725685 -64.324392
-12.008564 -12.232181 -63.67679
-12.890448 -11.928755 -64.033602
-12.325391 -10.560894 -64.473137
5.330445 -49.603323 -43.428348
5.746458 -51.715 -43.038542
5.010171 -47.614403 -43.808107
5.330445 -49.603323 -43.428348
4.417285 -48.160944 -44.206347
4.617843 -45.530005 -44.225943
5.010171 -47.614403 -43.808107
3.791441 -44.300524 -44.991606
4.312273 -43.658504 -44.631443
4.617843 -45.530005 -44.225943
-4.534009 -16.07098 -58.556555
-4.082884 -17.442993 -57.635774
-5.105557 -16.274694 -58.870458
-4.534009 -16.07098 -58.556555
-4.643239 -63.854988 -46.65484
-3.567888 -63.73814 -46.378084
-5.915774 -61.769528 -47.25639
-4.643239 -63.854988 -46.65484
-5.79753 -63.740857 -46.947619
-8.127363 -61.697285 -47.711792
-6.925662 -63.512978 -47.204705
-7.98296 -63.554867 -47.367328
-11.869707 15.509028 -72.668568
-12.76314 16.213157 -72.82201
-11.870335 14.081397 -72.547111
-11.869707 15.509028 -72.668568
-10.963798 14.738965 -72.432796
-11.954426 12.573327 -72.36325
-12.860335 13.34339 -72.599022
-11.870335 14.081397 -72.547111
-10.146507 12.61344 -71.969006
-10.075695 14.08107 -72.126968
-9.257776 13.383177 -71.784633
-12.056461 11.160085 -72.143356
-11.954426 12.573327 -72.36325
-11.066461 11.898091 -72.091446
-12.050586 9.614689 -71.818466
-12.056461 11.160085 -72.143356
-12.025696 8.163545 -71.459667
-12.050586 9.614689 -71.818466
-11.143605 9.033705 -71.512753
-11.959996 6.643568 -71.033066
-12.025696 8.163545 -71.459667
-11.100265 6.003221 -70.671452
-11.941547 5.064227 -70.550564
-11.959996 6.643568 -71.033066
-21.390102 -64.747463 -43.710583
-20.372344 -66.531273 -43.474626
-21.308526 -66.261471 -42.95352
-21.503059 -63.237783 -44.463175
-21.390102 -64.747463 -43.710583
-21.492302 -61.875517 -45.133915
-20.443164 -63.654998 -44.902429
-21.503059 -63.237783 -44.463175
-21.302802 -46.578216 -51.709396
-21.363065 -48.412859 -50.971519
-21.204871 -44.714063 -52.398745
-20.270965 -46.788626 -51.827742
-21.302802 -46.578216 -51.709396
-21.100261 -42.829966 -53.141749
-21.204871 -44.714063 -52.398745
-20.912303 -41.065342 -53.787586
-19.985077 -43.159849 -53.162928
-21.100261 -42.829966 -53.141749
-20.6772 -39.375903 -54.456032
-20.912303 -41.065342 -53.787586
-19.681711 -39.419442 -54.513706
-20.6772 -39.375903 -54.456032
-16.323989 -16.03266 -62.985354
-15.893669 -18.065247 -62.116171
-15.729398 -14.46553 -63.545872
-16.323989 -16.03266 -62.985354
-15.214094 -12.884264 -64.10045
-14.8385 -14.775168 -63.264257
-15.729398 -14.46553 -63.545872
-14.639073 -11.411123 -64.62565
-15.214094 -12.884264 -64.10045
-13.765235 -11.725685 -64.324392
-14.639073 -11.411123 -64.62565
5.108981 -52.203451 -43.452988
5.746458 -51.715 -43.038542
4.038742 -50.664259 -44.236193
5.108981 -52.203451 -43.452988
4.410165 -52.717846 -43.862593
-6.901912 13.418258 -70.686192
-6.83401 14.857551 -70.777432
-6.18678 12.549493 -70.144565
-7.004914 12.056722 -70.56385
-6.901912 13.418258 -70.686192
0.901016 -58.864136 -45.235725
1.75369 -58.406978 -44.864599
2.038972 -60.5858 -44.532667
0.011329 -59.185663 -45.601991
-0.994575 -59.321731 -46.009783
-0.273953 -57.006842 -45.933923
0.901016 -58.864136 -45.235725
0.011329 -59.185663 -45.601991
-3.774764 -61.755479 -46.679083
-2.581168 -63.60996 -46.093556
-3.567888 -63.73814 -46.378084
-11.391654 -66.506917 -46.790486
-10.17382 -66.870602 -46.775524
-5.347653 14.183088 -69.733326
-6.03377 15.195595 -70.302925
-5.437728 12.922415 -69.663929
-5.347653 14.183088 -69.733326
-5.540731 11.56088 -69.541587
-6.18678 12.549493 -70.144565
-5.437728 12.922415 -69.663929
-5.635822 10.217674 -69.360305
-5.540731 11.56088 -69.541587
-5.730613 8.851204 -69.12402
-6.384573 9.821487 -69.785938
-5.635822 10.217674 -69.360305
-5.818122 7.559859 -68.859642
-5.730613 8.851204 -69.12402
-5.852248 6.076435 -68.459587
-6.513491 6.971594 -69.149597
-5.818122 7.559859 -68.859642
-5.94246 4.626196 -68.069774
-5.852248 6.076435 -68.459587
-6.043557 3.178442 -67.640312
-6.648715 4.040414 -68.32008
-5.94246 4.626196 -68.069774
-6.158458 1.723352 -67.196747
-6.043557 3.178442 -67.640312
-5.452203 2.309134 -66.946441
-5.040192 -0.19875 -65.687313
-4.946708 1.247764 -66.165367
-5.63698 -0.620763 -65.967895
-5.040192 -0.19875 -65.687313
-5.110069 -1.673557 -65.152332
-5.274829 -5.779043 -63.558718
-5.19935 -4.459539 -64.064171
-4.72327 -5.362901 -63.325357
-13.768182 15.385119 -72.860912
-12.76314 16.213157 -72.82201
-13.768182 15.385119 -72.860912
-13.756501 13.900423 -72.735337
-11.854923 3.368666 -69.982101
-11.941547 5.064227 -70.550564
-11.811015 1.678359 -69.376655
-11.854923 3.368666 -69.982101
-11.037909 2.733572 -69.583504
-11.749709 0.041694 -68.761349
-11.811015 1.678359 -69.376655
-11.706402 -1.551324 -68.128083
-11.749709 0.041694 -68.761349
-10.950696 -0.549752 -68.344791
-11.607451 -3.206188 -67.44358
-11.706402 -1.551324 -68.128083
-11.473382 -4.822996 -66.728366
-11.607451 -3.206188 -67.44358
-10.77332 -3.759578 -66.996311
-11.28231 -6.502237 -65.970348
-11.473382 -4.822996 -66.728366
-10.476034 -6.927955 -65.554126
-11.119093 -8.053806 -65.243378
-11.28231 -6.502237 -65.970348
-12.580979 -66.230263 -46.73172
-13.747671 -66.021694 -46.580555
-12.66877 -64.554981 -47.183532
-11.391654 -66.506917 -46.790486
-12.580979 -66.230263 -46.73172
-22.57443 -59.893111 -45.472006
-23.624381 -57.886379 -45.817299
-21.514536 -60.310326 -45.911261
-21.492302 -61.875517 -45.133915
-22.57443 -59.893111 -45.472006
-24.582729 -52.600071 -47.885666
-25.598358 -52.276646 -47.466557
-23.51842 -51.218699 -49.047091
-23.467385 -49.516621 -49.845356
-23.607808 -52.883642 -48.279331
-23.51842 -51.218699 -49.047091
-22.564403 -53.204994 -48.606448
-23.628712 -54.586366 -47.445023
-24.582729 -52.600071 -47.885666
-23.607808 -52.883642 -48.279331
-17.793068 -32.317318 -56.975918
-18.038479 -34.100065 -56.34413
-16.766801 -32.350882 -56.863785
-17.793068 -32.317318 -56.975918
-17.520928 -30.4916 -57.581726
-14.930385 -18.24042 -61.862853
-15.47025 -19.949232 -61.269345
-15.893669 -18.065247 -62.116171
5.006224 -40.636005 -44.194769
5.360718 -42.545013 -43.801743
4.225305 -39.239563 -45.043469
5.006224 -40.636005 -44.194769
3.996347 -41.787077 -45.019684
4.822749 -43.016558 -44.254021
4.312273 -43.658504 -44.631443
3.428546 -37.962368 -45.861441
4.225305 -39.239563 -45.043469
3.710065 -39.867935 -45.460234
2.694445 -36.703693 -46.703718
3.428546 -37.962368 -45.861441
1.900929 -35.149523 -47.595323
2.694445 -36.703693 -46.703718
2.119791 -37.036569 -47.169811
1.197948 -33.616574 -48.49861
1.900929 -35.149523 -47.595323
3.566765 -57.831023 -43.973823
2.707281 -58.201128 -44.405115
3.261725 -55.727493 -44.285734
4.305574 -57.284903 -43.610868
3.566765 -57.831023 -43.973823
0.486116 -32.182437 -49.353184
1.197948 -33.616574 -48.49861
0.614444 -34.048261 -48.915991
-0.205641 -30.764653 -50.282404
0.377863 -30.332966 -49.865023
0.486116 -32.182437 -49.353184
-0.904327 -29.270285 -51.191725
-0.205641 -30.764653 -50.282404
-0.796075 -31.119756 -50.679886
-1.538802 -27.762107 -52.140379
-0.904327 -29.270285 -51.191725
-2.172826 -26.133723 -53.082466
-1.538802 -27.762107 -52.140379
-2.128785 -27.997006 -52.531294
-2.70189 -24.709715 -53.963793
-2.172826 -26.133723 -53.082466
-2.70189 -24.709715 -53.963793
-3.299831 -24.964721 -54.31756
-4.499009 -23.656385 -55.548936
-3.936238 -25.164721 -54.682451
-4.598392 -25.260285 -55.069648
-4.344722 -22.13572 -56.027523
-4.499009 -23.656385 -55.548936
-5.006875 -22.231285 -56.414721
-4.238259 -20.595548 -56.510754
-4.344722 -22.13572 -56.027523
-4.765419 -19.170626 -57.451552
-4.15109 -19.055553 -57.068998
-4.238259 -20.595548 -56.510754
-5.70599 -16.390554 -59.204729
-5.105557 -16.274694 -58.870458
-5.278683 -17.746492 -58.344066
-6.10495 -14.984319 -60.037918
-5.70599 -16.390554 -59.204729
-6.278076 -16.456117 -59.511526
-6.454691 -13.764356 -60.795901
-6.10495 -14.984319 -60.037918
-6.780295 -12.477369 -61.543797
-6.454691 -13.764356 -60.795901
-7.002641 -13.762895 -61.092612
-7.085964 -11.610589 -62.112025
-6.538015 -11.612049 -61.815314
-6.780295 -12.477369 -61.543797
-5.594849 -11.273928 -61.380198
-5.499161 -9.899277 -61.915346
-6.113675 -11.410262 -61.655442
-5.594849 -11.273928 -61.380198
-6.538015 -11.612049 -61.815314
-6.419343 -10.543483 -62.223669
-6.113675 -11.410262 -61.655442
3 1 207 209
3 207 50 208
3 207 208 209
3 1 52 50
3 2 210 212
3 210 54 211
3 210 211 212
3 2 56 54
3 3 59 57
3 3 61 59
3 213 62 214
3 5 65 63
3 5 67 65
3 6 71 69
3 6 73 71
3 7 215 217
3 217 216 74
3 215 216 217
3 7 218 220
3 218 75 219
3 218 219 220
3 8 221 223
3 221 77 222
3 221 222 223
3 8 79 77
3 8 81 79
3 224 83 225
3 226 85 227
3 228 227 83
3 226 227 228
3 229 86 230
3 231 88 232
3 233 232 86
3 231 232 233
3 234 90 235
3 236 235 88
3 234 235 236
3 237 92 238
3 239 94 240
3 241 240 92
3 239 240 241
3 10 96 95
3 10 98 96
3 4 101 99
3 11 104 102
3 11 106 104
3 11 108 106
3 9 111 109
3 9 113 111
3 242 114 243
3 244 116 245
3 13 117 51
3 13 118 117
3 246 120 247
3 14 121 53
3 14 122 121
3 14 124 122
3 16 125 55
3 16 126 125
3 19 248 249
3 19 250 252
3 250 129 251
3 250 251 252
3 20 132 130
3 22 133 58
3 22 134 133
3 22 136 134
3 24 137 60
3 24 138 137
3 253 139 254
3 26 255 257
3 255 140 256
3 255 256 257
3 26 141 140
3 12 142 115
3 27 143 64
3 27 144 143
3 27 145 144
3 28 146 66
3 28 147 146
3 258 148 259
3 260 149 261
3 262 150 263
3 264 263 149
3 262 263 264
3 265 151 266
3 267 266 68
3 265 266 267
3 268 153 269
3 270 269 151
3 268 269 270
3 272 271 119
3 15 154 123
3 30 155 70
3 30 156 155
3 30 157 156
3 29 158 72
3 29 152 158
3 32 273 274
3 32 275 277
3 275 160 276
3 275 276 277
3 33 278 279
3 33 280 282
3 280 161 281
3 280 281 282
3 34 162 76
3 34 163 162
3 34 164 163
3 35 165 78
3 35 166 165
3 35 167 166
3 36 168 80
3 36 169 168
3 17 170 127
3 37 171 82
3 37 172 171
3 37 173 172
3 38 174 84
3 38 175 174
3 39 283 284
3 39 285 286
3 39 287 289
3 287 176 288
3 287 288 289
3 40 177 87
3 40 178 177
3 40 179 178
3 41 180 89
3 41 181 180
3 18 182 128
3 42 183 91
3 42 184 183
3 42 185 184
3 31 186 93
3 31 159 186
3 290 188 291
3 44 189 97
3 44 190 189
3 25 292 294
3 292 191 293
3 292 293 294
3 45 192 100
3 45 193 192
3 21 194 131
3 46 195 103
3 46 196 195
3 46 197 196
3 47 198 105
3 47 199 198
3 47 200 199
3 48 201 107
3 48 295 297
3 297 296 201
3 295 296 297
3 23 202 135
3 49 203 110
3 49 204 203
3 49 205 204
3 43 206 112
3 43 187 206
3 50 298 299
3 50 300 301
3 50 302 304
3 302 51 303
3 302 303 304
3 52 51 50
3 52 13 51
3 305 53 306
3 54 307 309
3 307 53 308
3 307 308 309
3 54 14 53
3 54 55 14
3 56 55 54
3 56 16 55
3 310 19 311
3 57 58 20
3 59 58 57
3 59 22 58
3 59 60 22
3 61 60 59
3 61 24 60
3 62 312 313
3 62 314 316
3 314 26 315
3 314 315 316
3 63 64 12
3 65 64 63
3 65 27 64
3 65 66 27
3 67 66 65
3 67 28 66
3 317 68 318
3 319 68 320
3 322 321 68
3 69 70 15
3 71 70 69
3 71 30 70
3 71 72 30
3 73 72 71
3 73 29 72
3 74 323 325
3 323 324 325
3 327 326 74
3 75 328 329
3 75 330 332
3 330 32 331
3 330 331 332
3 333 33 334
3 335 76 336
3 77 337 339
3 337 76 338
3 337 338 339
3 77 34 76
3 77 78 34
3 79 78 77
3 79 35 78
3 79 80 35
3 81 80 79
3 81 36 80
3 340 82 341
3 342 341 17
3 340 341 342
3 83 343 345
3 343 82 344
3 343 344 345
3 83 37 82
3 83 84 37
3 85 84 83
3 85 38 84
3 86 346 347
3 86 348 350
3 348 39 349
3 348 349 350
3 86 87 39
3 88 87 86
3 88 40 87
3 88 89 40
3 90 89 88
3 90 41 89
3 351 91 352
3 353 352 18
3 351 352 353
3 92 354 356
3 354 91 355
3 354 355 356
3 92 42 91
3 92 93 42
3 94 93 92
3 94 31 93
3 95 357 358
3 96 359 361
3 361 360 95
3 359 360 361
3 96 362 363
3 96 364 366
3 364 97 365
3 364 365 366
3 98 97 96
3 98 44 97
3 99 100 25
3 101 100 99
3 101 45 100
3 102 103 21
3 104 103 102
3 104 46 103
3 104 105 46
3 106 105 104
3 106 47 105
3 106 107 47
3 108 107 106
3 108 48 107
3 109 110 23
3 111 110 109
3 111 49 110
3 111 112 49
3 113 112 111
3 113 43 112
3 114 367 368
3 114 369 370
3 371 115 372
3 116 373 375
3 373 115 374
3 373 374 375
3 116 12 115
3 51 376 378
3 376 116 377
3 376 377 378
3 117 116 51
3 117 12 116
3 117 63 12
3 118 63 117
3 118 5 63
3 379 119 380
3 120 381 383
3 381 119 382
3 381 382 383
3 120 384 386
3 386 385 119
3 384 385 386
3 53 387 389
3 387 120 388
3 387 388 389
3 121 120 53
3 121 390 392
3 392 391 120
3 390 391 392
3 121 393 394
3 122 395 397
3 397 396 121
3 395 396 397
3 122 398 399
3 122 400 402
3 400 123 401
3 400 401 402
3 124 123 122
3 124 15 123
3 55 124 14
3 125 124 55
3 125 15 124
3 125 69 15
3 126 69 125
3 126 6 69
3 403 74 404
3 403 404 405
3 406 74 407
3 408 7 409
3 410 409 74
3 408 409 410
3 411 8 412
3 413 127 414
3 415 414 8
3 413 414 415
3 416 127 417
3 418 17 419
3 420 419 127
3 418 419 420
3 421 17 422
3 424 423 17
3 425 128 426
3 427 128 428
3 429 18 430
3 431 430 128
3 429 430 431
3 432 18 433
3 435 434 18
3 436 95 437
3 129 438 440
3 438 95 439
3 438 439 440
3 129 10 95
3 130 131 4
3 132 131 130
3 132 21 131
3 58 132 20
3 133 132 58
3 133 21 132
3 133 102 21
3 134 102 133
3 134 11 102
3 134 135 11
3 136 135 134
3 136 23 135
3 60 136 22
3 137 136 60
3 137 23 136
3 137 109 23
3 138 109 137
3 138 9 109
3 139 441 442
3 139 443 445
3 443 2 444
3 443 444 445
3 446 25 447
3 446 447 448
3 140 449 450
3 140 451 453
3 451 25 452
3 451 452 453
3 140 99 25
3 141 99 140
3 141 4 99
3 115 454 456
3 454 62 455
3 454 455 456
3 142 62 115
3 142 26 62
3 64 142 12
3 143 142 64
3 143 26 142
3 143 141 26
3 144 141 143
3 144 4 141
3 144 130 4
3 145 130 144
3 145 20 130
3 66 145 27
3 146 145 66
3 146 20 145
3 146 57 20
3 147 57 146
3 147 3 57
3 457 1 458
3 459 139 460
3 461 139 462
3 463 2 464
3 465 464 139
3 463 464 465
3 466 2 467
3 468 56 469
3 470 469 2
3 468 469 470
3 471 56 472
3 473 16 474
3 475 474 56
3 473 474 475
3 476 16 477
3 478 126 479
3 480 479 16
3 478 479 480
3 148 481 483
3 481 126 482
3 481 482 483
3 148 6 126
3 484 148 485
3 149 486 488
3 486 148 487
3 486 487 488
3 149 6 148
3 149 73 6
3 150 73 149
3 150 29 73
3 68 489 491
3 489 150 490
3 489 490 491
3 151 150 68
3 151 29 150
3 151 152 29
3 153 152 151
3 153 0 152
3 119 492 493
3 495 494 119
3 123 496 497
3 154 498 500
3 500 499 123
3 498 499 500
3 154 501 502
3 70 154 15
3 155 154 70
3 155 503 505
3 505 504 154
3 503 504 505
3 155 506 507
3 156 508 510
3 510 509 155
3 508 509 510
3 156 511 512
3 156 513 515
3 513 94 514
3 513 514 515
3 157 94 156
3 157 31 94
3 72 157 30
3 158 157 72
3 158 31 157
3 158 159 31
3 152 159 158
3 152 0 159
3 160 516 517
3 160 518 520
3 518 1 519
3 518 519 520
3 161 521 522
3 161 523 525
3 523 7 524
3 523 524 525
3 526 33 527
3 76 528 529
3 162 530 532
3 532 531 76
3 530 531 532
3 162 533 535
3 533 33 534
3 533 534 535
3 162 161 33
3 163 161 162
3 163 7 161
3 163 75 7
3 164 75 163
3 164 32 75
3 78 164 34
3 165 164 78
3 165 32 164
3 165 160 32
3 166 160 165
3 166 1 160
3 166 52 1
3 167 52 166
3 167 13 52
3 80 167 35
3 168 167 80
3 168 13 167
3 168 118 13
3 169 118 168
3 169 5 118
3 127 81 8
3 170 81 127
3 170 36 81
3 82 170 17
3 171 170 82
3 171 36 170
3 171 169 36
3 172 169 171
3 172 5 169
3 172 67 5
3 173 67 172
3 173 28 67
3 84 173 37
3 174 173 84
3 174 28 173
3 174 147 28
3 175 147 174
3 175 3 147
3 536 85 537
3 176 538 540
3 538 85 539
3 538 539 540
3 176 38 85
3 87 176 39
3 177 176 87
3 177 38 176
3 177 175 38
3 178 175 177
3 178 3 175
3 178 61 3
3 179 61 178
3 179 24 61
3 89 179 40
3 180 179 89
3 180 24 179
3 180 138 24
3 181 138 180
3 181 9 138
3 128 541 543
3 541 90 542
3 541 542 543
3 182 90 128
3 182 41 90
3 91 182 18
3 183 182 91
3 183 41 182
3 183 181 41
3 184 181 183
3 184 9 181
3 184 113 9
3 185 113 184
3 185 43 113
3 93 185 42
3 186 185 93
3 186 43 185
3 186 187 43
3 159 187 186
3 159 0 187
3 188 544 545
3 188 546 547
3 97 548 550
3 548 188 549
3 548 549 550
3 189 188 97
3 189 551 553
3 553 552 188
3 551 552 553
3 189 554 555
3 190 556 558
3 558 557 189
3 556 557 558
3 190 559 560
3 191 561 562
3 191 563 565
3 563 19 564
3 563 564 565
3 100 191 25
3 192 191 100
3 192 19 191
3 192 129 19
3 193 129 192
3 193 10 129
3 131 101 4
3 194 101 131
3 194 45 101
3 103 194 21
3 195 194 103
3 195 45 194
3 195 193 45
3 196 193 195
3 196 10 193
3 196 98 10
3 197 98 196
3 197 44 98
3 105 197 46
3 198 197 105
3 198 44 197
3 198 190 44
3 199 190 198
3 199 566 568
3 568 567 190
3 566 567 568
3 199 569 571
3 569 570 571
3 200 572 574
3 574 573 199
3 572 573 574
3 200 575 576
3 107 200 47
3 201 200 107
3 201 577 579
3 579 578 200
3 577 578 579
3 201 580 581
3 583 582 201
3 135 108 11
3 202 108 135
3 202 48 108
3 110 202 23
3 203 202 110
3 203 48 202
3 203 584 586
3 586 585 48
3 584 585 586
3 204 587 589
3 589 588 203
3 587 588 589
3 204 590 591
3 204 592 594
3 592 114 593
3 592 593 594
3 205 114 204
3 205 595 597
3 597 596 114
3 595 596 597
3 112 205 49
3 206 205 112
3 206 598 600
3 600 599 205
3 598 599 600
3 206 601 602
3 187 603 605
3 605 604 206
3 603 604 605
3 187 606 608
3 606 0 607
3 606 607 608
3 609 153 610
3 611 153 612
3 613 0 614
3 615 614 153
3 613 614 615
