ply
format ascii 1.0
element vertex 481
property float x
property float y
property float z
element face 473
property list uchar int vertex_index
end_header
26.94492 -89.023651 2.690539
26.52174 -78.315964 3.661978
26.854525 -81.101952 13.171919
25.425764 -82.031235 22.771566
26.934315 -95.853271 -8.393005
24.839863 -90.451897 12.027068
24.624594 -98.461449 0.070719
23.304192 -76.120277 36.762051
24.324377 -69.629898 -4.588876
25.23971 -71.385612 -0.768934
26.898689 -83.860626 3.414801
26.478859 -81.894333 -1.079211
27.026905 -87.196182 -1.725302
27.163862 -90.702621 -7.055215
27.058867 -92.673782 -2.755681
23.441442 -85.830673 21.802263
25.001375 -86.432777 17.407383
23.043219 -90.02459 16.193739
19.342726 -100.674713 2.303876
22.517044 -98.1614 4.345421
22.052872 -101.780922 -1.9054
24.234276 -101.702904 -6.162905
26.8985 -79.966324 8.435533
26.810709 -85.055527 8.100346
21.369745 -84.526756 26.041298
23.713406 -63.121479 -7.709377
25.792192 -76.571976 -0.732241
26.354601 -81.97644 18.018692
26.178581 -86.071556 12.771084
26.197439 -90.235931 7.300366
22.797338 -94.163254 10.352521
24.825815 -94.490349 6.169168
26.295786 -94.003693 1.615647
26.165855 -97.614792 -4.314251
25.665848 -100.558197 -10.154267
26.979176 -86.425385 3.107061
26.948692 -85.56031 0.765136
27.064224 -88.328064 0.404296
27.139688 -90.079353 -2.124676
27.002197 -90.998825 0.08448
22.138176 -87.426117 21.125759
23.22953 -87.948669 18.992729
20.710011 -101.384636 0.22722
26.993479 -77.969177 10.791114
26.926149 -80.569351 10.914803
26.891983 -82.462921 8.352679
26.788939 -83.231209 10.645012
23.511276 -65.367371 -7.931517
23.858671 -66.205612 -6.30085
24.515278 -72.10173 -4.754565
26.311291 -75.574333 3.760835
25.921938 -74.736649 1.503746
26.182175 -77.370117 1.39245
26.532558 -83.583504 -3.498438
26.114813 -80.846474 -3.3057
27.162439 -93.310249 -7.789117
27.127131 -92.087715 -9.596391
27.04854 -94.785172 -10.381851
26.752047 -97.100227 -11.267365
25.956476 -82.085609 20.365084
24.932783 -88.393845 14.707877
25.661648 -86.31543 15.152015
25.619164 -88.504021 12.21826
26.165749 -88.18544 10.098989
25.588608 -90.421188 9.72554
20.037001 -94.765068 11.676256
21.557156 -93.67865 12.380935
23.675303 -98.375435 2.264613
23.783443 -96.4776 5.264622
24.786219 -96.543587 3.036191
25.623032 -94.418198 3.889304
25.571447 -96.328346 1.015232
26.247904 -95.871208 -1.175417
25.536695 -97.980087 -1.934592
25.043999 -101.222252 -8.113061
24.541506 -102.64785 -11.375639
25.183088 -101.762085 -13.319915
23.931252 -103.660934 -14.399288
24.250471 -67.249466 -4.564541
24.701426 -67.904427 -2.619664
24.76366 -70.509819 -2.801721
25.006351 -72.890556 -2.668801
26.732582 -81.140709 3.50395
26.459679 -79.969635 1.307963
26.730106 -82.74614 1.151529
26.794088 -84.540665 -1.237729
26.895561 -86.396889 -3.860899
27.126305 -89.107498 -4.306539
27.188408 -91.813026 -5.017727
27.027109 -94.42112 -5.610729
24.589737 -83.987709 22.270126
25.24782 -84.256119 19.934
24.337103 -86.171608 19.580456
24.122591 -88.330513 16.831755
23.928291 -90.397781 14.171774
20.993364 -99.488152 3.509475
22.242458 -100.095047 1.229018
23.508297 -100.172668 -0.812577
24.54723 -100.052689 -3.000256
23.286032 -101.731056 -3.791811
26.618401 -76.43026 6.011265
26.85696 -77.203758 8.456559
26.757555 -79.124062 5.993119
26.870213 -81.877609 5.822849
26.914646 -84.488899 5.815577
26.856319 -87.173943 5.484096
23.744249 -83.782669 24.360657
22.436079 -85.32003 23.907949
23.862968 -68.596954 -6.472901
25.47961 -73.995491 -0.738328
25.327175 -75.660332 -2.903433
26.117773 -79.230576 -1.03931
25.724775 -78.361153 -3.117739
26.954466 -90.819214 -11.504936
26.655319 -81.649277 15.640709
25.774462 -84.296989 17.706568
26.22933 -84.13488 15.304484
26.599874 -83.53994 12.954305
26.560684 -85.734932 10.363034
26.580589 -87.690048 7.879776
26.67536 -89.537048 5.064516
21.736158 -91.56546 15.391705
22.80267 -92.207054 13.281756
23.926449 -92.357704 11.296082
23.858953 -94.444489 8.312241
24.884535 -92.426865 9.075903
25.621599 -92.342545 6.943536
26.251787 -92.114899 4.535643
26.720304 -91.531868 2.365491
26.74749 -93.399796 -0.384517
26.733213 -95.1558 -3.282437
26.637119 -96.874474 -6.46164
25.299795 -99.779839 -5.046141
25.965693 -99.175934 -7.179214
26.455929 -98.28186 -9.258206
26.146322 -99.507339 -12.164742
22.048215 -88.456672 19.69427
21.434137 -88.046479 20.759932
26.890337 -80.835651 12.043361
26.988883 -79.449883 12.067712
26.953071 -79.716183 13.19627
24.099894 -65.446872 -5.423094
23.931787 -65.020424 -6.252052
24.431348 -72.830082 -5.76078
24.681351 -73.326103 -4.764649
26.354458 -83.032498 -4.53928
26.581791 -84.439297 -4.730876
25.69112 -82.058422 21.568325
26.055822 -81.037353 21.597618
25.790467 -81.010166 22.80086
20.696486 -95.193226 10.623488
19.926446 -95.799106 10.120454
23.84185 -103.507122 -11.947847
24.137757 -102.918339 -10.331778
23.536724 -104.013664 -13.459671
24.236379 -103.154392 -12.887463
23.84185 -103.507122 -11.947847
23.182259 -104.41711 -14.955036
23.536724 -104.013664 -13.459671
23.703355 -76.407822 35.704983
23.962156 -75.321609 36.918875
23.040623 -77.222279 35.40032
23.703355 -76.407822 35.704983
24.946622 -67.048798 -1.609019
24.718252 -66.686741 -2.658946
25.001685 -70.947715 -1.785328
24.94825 -69.705342 -1.769401
25.186274 -70.143238 -0.753008
20.168045 -100.081433 2.906675
20.319838 -99.107899 4.539011
19.494519 -99.701179 3.936211
26.713369 -75.473122 7.21169
26.55591 -75.090439 5.99397
23.8709 -82.723557 25.727283
24.246107 -82.902424 24.61215
21.902912 -84.923393 24.974623
22.612412 -84.339557 25.162346
22.079245 -83.94292 26.22902
21.184977 -85.570091 24.634047
21.718144 -85.966728 23.567372
21.902912 -84.923393 24.974623
23.495382 -63.646849 -8.502948
23.613232 -62.661164 -8.380562
23.34952 -65.91803 -8.723621
23.49664 -66.504071 -8.024492
25.724552 -79.150757 -4.246601
25.919794 -79.603814 -3.21172
25.919571 -80.393417 -4.340582
25.49062 -77.822445 -4.127965
25.724552 -79.150757 -4.246601
27.075691 -90.029739 -8.019671
27.063118 -89.326995 -6.800807
26.973208 -92.173401 -11.979789
27.040799 -91.453464 -10.550664
27.059541 -92.807651 -11.025517
26.876373 -91.412861 -12.901007
26.973208 -92.173401 -11.979789
26.583486 -80.724475 18.121641
26.46273 -80.794616 19.32187
26.50496 -81.812859 16.829701
26.733845 -80.560894 16.93265
26.583486 -80.724475 18.121641
21.035801 -92.213589 14.904234
21.114665 -91.166179 16.422542
22.582153 -97.132973 5.941749
21.893369 -97.928589 5.34048
25.363855 -101.276543 -14.259968
24.802084 -102.276646 -14.88354
23.879691 -61.999489 -7.686404
24.004807 -62.345753 -6.92836
23.613232 -62.661164 -8.380562
23.879691 -61.999489 -7.686404
23.572197 -75.016735 38.062857
23.962156 -75.321609 36.918875
25.413467 -70.549671 0.298477
25.186274 -70.143238 -0.753008
22.593892 -88.717949 18.627755
22.683853 -87.687393 20.059244
22.048215 -88.456672 19.69427
22.500737 -89.755909 17.22826
23.136375 -88.986629 17.593234
22.593892 -88.717949 18.627755
19.768619 -101.895832 -0.285413
20.026369 -101.029674 1.265548
19.084976 -101.54087 0.752915
20.482081 -102.187935 -1.270277
19.768619 -101.895832 -0.285413
21.153512 -102.386078 -2.336587
21.381442 -101.582779 -0.83909
20.482081 -102.187935 -1.270277
21.870323 -102.54113 -3.433224
21.153512 -102.386078 -2.336587
27.022548 -78.149796 12.005868
27.08118 -76.886699 11.911798
26.959814 -79.269264 10.852958
27.022548 -78.149796 12.005868
26.988883 -79.449883 12.067712
21.647616 -83.500572 27.341959
22.079245 -83.94292 26.22902
23.758089 -64.601304 -7.067385
23.612341 -64.244425 -7.820447
23.859154 -63.478358 -6.956315
23.684973 -65.786492 -7.116183
23.758089 -64.601304 -7.067385
23.931787 -65.020424 -6.252052
23.670338 -66.923191 -7.209158
23.49664 -66.504071 -8.024492
23.684973 -65.786492 -7.116183
24.277795 -71.580616 -5.666175
24.182344 -70.3447 -5.583331
24.419827 -70.865814 -4.671721
24.277795 -71.580616 -5.666175
24.431348 -72.830082 -5.76078
26.116615 -75.155491 2.63229
26.015197 -73.797364 2.551527
26.209874 -74.216206 3.680072
26.145585 -81.663983 -4.442911
26.323686 -82.214989 -3.402069
26.354458 -83.032498 -4.53928
25.919571 -80.393417 -4.340582
26.145585 -81.663983 -4.442911
27.020246 -94.15638 -11.418246
27.059541 -92.807651 -11.025517
27.087835 -93.436443 -9.989121
26.923184 -95.442322 -11.864052
27.020246 -94.15638 -11.418246
26.774937 -96.59985 -12.306809
26.923184 -95.442322 -11.864052
26.900294 -95.9427 -10.824608
26.53613 -97.817661 -12.791103
26.774937 -96.59985 -12.306809
26.263668 -80.849201 20.495066
26.055822 -81.037353 21.597618
26.155538 -82.031025 19.191888
26.46273 -80.794616 19.32187
26.263668 -80.849201 20.495066
20.797078 -94.221859 12.028595
20.9463 -93.270184 13.398849
20.186222 -93.813392 13.046509
21.456563 -94.650017 10.975827
20.797078 -94.221859 12.028595
20.696486 -95.193226 10.623488
22.076654 -94.892319 9.96162
22.177247 -93.920952 11.366728
21.456563 -94.650017 10.975827
24.389004 -102.20554 -8.700489
24.639138 -101.462578 -7.137983
23.984143 -102.445866 -7.725411
24.792752 -101.935051 -9.74435
24.389004 -102.20554 -8.700489
24.137757 -102.918339 -10.331778
24.176166 -103.22607 -15.423227
24.802084 -102.276646 -14.88354
24.55717 -102.71151 -13.859602
23.468729 -104.074039 -15.92341
24.176166 -103.22607 -15.423227
23.468729 -104.074039 -15.92341
23.182259 -104.41711 -14.955036
23.859154 -63.478358 -6.956315
24.004807 -62.345753 -6.92836
26.920119 -80.063786 14.412768
26.953071 -79.716183 13.19627
24.492775 -66.359261 -3.631384
24.295794 -65.968799 -4.554939
24.475949 -67.576946 -3.592103
24.492775 -66.359261 -3.631384
24.718252 -66.686741 -2.658946
24.917133 -68.402646 -1.678373
24.946622 -67.048798 -1.609019
24.732543 -69.207123 -2.710693
24.917133 -68.402646 -1.678373
24.94825 -69.705342 -1.769401
24.926888 -73.720516 -3.721767
24.681351 -73.326103 -4.764649
24.760814 -72.496143 -3.711683
26.763292 -85.84599 -4.912107
26.581791 -84.439297 -4.730876
26.71406 -84.990196 -3.679669
26.928967 -87.174129 -5.203648
26.763292 -85.84599 -4.912107
27.044339 -88.529434 -5.426469
26.928967 -87.174129 -5.203648
27.010933 -87.752194 -4.083719
27.145083 -89.905059 -5.680877
27.063118 -89.326995 -6.800807
27.044339 -88.529434 -5.426469
21.131529 -98.591965 4.922508
20.319838 -99.107899 4.539011
21.755204 -98.824776 3.927448
21.893369 -97.928589 5.34048
21.131529 -98.591965 4.922508
22.486903 -102.516197 -4.37643
22.669452 -101.755989 -2.848606
21.870323 -102.54113 -3.433224
23.095126 -102.486576 -5.374389
22.486903 -102.516197 -4.37643
23.569249 -102.4725 -6.559936
23.760154 -101.71698 -4.977358
23.095126 -102.486576 -5.374389
23.984143 -102.445866 -7.725411
23.569249 -102.4725 -6.559936
26.402355 -74.662475 4.868755
26.209874 -74.216206 3.680072
26.464846 -76.002296 4.88605
26.402355 -74.662475 4.868755
26.55591 -75.090439 5.99397
27.011616 -76.624077 10.769102
27.08118 -76.886699 11.911798
26.943357 -76.241367 9.601824
27.011616 -76.624077 10.769102
26.92522 -77.586467 9.623836
26.832648 -75.859871 8.434337
26.943357 -76.241367 9.601824
26.73768 -76.817009 7.233912
26.713369 -75.473122 7.21169
26.832648 -75.859871 8.434337
19.346492 -94.318161 12.560015
20.186222 -93.813392 13.046509
19.193202 -95.299537 11.090457
19.346492 -94.318161 12.560015
19.926446 -95.799106 10.120454
19.193202 -95.299537 11.090457
18.578506 -100.183639 3.337346
19.494519 -99.701179 3.936211
18.403702 -101.031857 1.860154
18.578506 -100.183639 3.337346
19.084976 -101.54087 0.752915
18.403702 -101.031857 1.860154
25.567695 -80.941353 23.974414
25.790467 -81.010166 22.80086
25.086865 -82.026707 23.817605
25.567695 -80.941353 23.974414
24.668851 -83.004944 23.566885
25.007751 -83.009472 22.520846
25.086865 -82.026707 23.817605
24.166993 -83.885189 23.315392
24.668851 -83.004944 23.566885
24.246107 -82.902424 24.61215
23.266497 -83.570877 25.3887
23.8709 -82.723557 25.727283
23.090164 -84.55135 24.134303
23.266497 -83.570877 25.3887
22.612412 -84.339557 25.162346
21.569192 -87.019772 22.176277
22.287128 -86.373074 22.516854
21.718144 -85.966728 23.567372
21.434137 -88.046479 20.759932
21.569192 -87.019772 22.176277
22.886767 -75.690929 37.86907
23.572197 -75.016735 38.062857
22.620763 -76.783741 36.461315
22.886767 -75.690929 37.86907
23.040623 -77.222279 35.40032
22.620763 -76.783741 36.461315
20.891987 -84.053108 27.007165
21.647616 -83.500572 27.341959
20.629902 -85.081703 25.605096
20.891987 -84.053108 27.007165
20.152144 -84.608055 26.570963
21.184977 -85.570091 24.634047
20.629902 -85.081703 25.605096
23.394317 -64.769795 -8.614018
23.495382 -63.646849 -8.502948
23.612341 -64.244425 -7.820447
23.394317 -64.769795 -8.614018
23.34952 -65.91803 -8.723621
24.054571 -66.727539 -5.432695
24.099894 -65.446872 -5.423094
24.295794 -65.968799 -4.554939
23.672486 -68.118862 -7.295184
23.670338 -66.923191 -7.209158
23.860819 -67.401283 -6.386876
23.95164 -69.828228 -6.525343
24.093672 -69.113426 -5.530888
24.182344 -70.3447 -5.583331
23.732866 -69.232849 -7.364161
23.95164 -69.828228 -6.525343
23.672486 -68.118862 -7.295184
23.732866 -69.232849 -7.364161
25.469366 -71.805179 0.301153
25.413467 -70.549671 0.298477
25.81048 -73.480698 1.437493
26.015197 -73.797364 2.551527
25.589316 -73.110119 0.316456
25.81048 -73.480698 1.437493
25.700774 -74.36607 0.382709
25.35966 -72.690551 -0.753631
25.469366 -71.805179 0.301153
25.589316 -73.110119 0.316456
25.0873 -75.105404 -3.839083
24.926888 -73.720516 -3.721767
25.166763 -74.275444 -2.786117
25.291821 -76.472035 -4.020811
25.525975 -77.010742 -3.010586
25.49062 -77.822445 -4.127965
25.0873 -75.105404 -3.839083
25.291821 -76.472035 -4.020811
27.057325 -90.722286 -9.29026
27.075691 -90.029739 -8.019671
27.145497 -91.395168 -8.325803
26.970993 -90.088036 -10.244532
27.057325 -90.722286 -9.29026
27.040799 -91.453464 -10.550664
26.831035 -89.491139 -11.261888
26.970993 -90.088036 -10.244532
26.805238 -90.127266 -12.504749
26.831035 -89.491139 -11.261888
26.805238 -90.127266 -12.504749
26.876373 -91.412861 -12.901007
26.820515 -80.337448 15.647163
26.733845 -80.560894 16.93265
26.754922 -81.375614 14.406314
26.920119 -80.063786 14.412768
26.820515 -80.337448 15.647163
21.847206 -90.526344 16.827243
21.114665 -91.166179 16.422542
22.389688 -90.795025 15.792722
22.500737 -89.755909 17.22826
21.847206 -90.526344 16.827243
21.646657 -92.622055 13.88632
21.035801 -92.213589 14.904234
20.9463 -93.270184 13.398849
22.7223 -95.1339 8.945299
22.076654 -94.892319 9.96162
23.215353 -96.291073 6.40135
22.582153 -97.132973 5.941749
23.150243 -97.3195 4.805022
23.253108 -95.274518 7.925159
23.215353 -96.291073 6.40135
23.821198 -95.461044 6.788431
23.328145 -94.303871 9.332381
22.7223 -95.1339 8.945299
23.253108 -95.274518 7.925159
26.233268 -99.021217 -13.239791
26.53613 -97.817661 -12.791103
26.449185 -98.303783 -11.716054
25.845472 -100.149169 -13.682382
25.664705 -100.634712 -12.742328
25.363855 -101.276543 -14.259968
26.233268 -99.021217 -13.239791
25.845472 -100.149169 -13.682382
3 0 37 35
3 0 39 37
3 137 136 40
3 2 138 140
3 138 44 139
3 138 139 140
3 2 46 44
3 141 48 142
3 144 143 49
3 1 52 50
3 146 145 53
3 4 57 55
3 4 58 57
3 3 147 149
3 147 59 148
3 147 148 149
3 5 62 60
3 5 64 62
3 151 150 65
3 6 69 67
3 6 71 69
3 6 73 71
3 152 75 153
3 154 77 155
3 156 155 75
3 154 155 156
3 158 157 77
3 7 159 160
3 7 161 162
3 163 79 164
3 9 165 167
3 165 80 166
3 165 166 167
3 9 81 80
3 10 84 82
3 12 85 36
3 12 86 85
3 12 87 86
3 14 88 38
3 14 89 88
3 15 92 90
3 17 93 41
3 17 94 93
3 18 168 170
3 168 95 169
3 168 169 170
3 20 96 42
3 20 97 96
3 20 99 97
3 171 100 172
3 22 101 43
3 22 102 101
3 22 103 102
3 23 104 45
3 23 105 104
3 173 106 174
3 24 175 177
3 175 107 176
3 175 176 177
3 24 178 180
3 180 179 107
3 178 179 180
3 25 181 182
3 184 183 47
3 8 108 78
3 26 109 51
3 26 110 109
3 11 111 83
3 185 112 186
3 187 186 54
3 185 186 187
3 189 188 112
3 13 190 191
3 192 113 193
3 194 193 56
3 192 193 194
3 196 195 113
3 27 197 198
3 27 199 201
3 199 114 200
3 199 200 201
3 16 115 91
3 28 116 61
3 28 117 116
3 28 118 117
3 29 119 63
3 29 120 119
3 202 121 203
3 30 122 66
3 30 123 122
3 19 204 205
3 31 124 68
3 31 125 124
3 31 126 125
3 32 127 70
3 32 128 127
3 32 129 128
3 33 130 72
3 33 131 130
3 21 132 98
3 34 133 74
3 34 134 133
3 34 135 134
3 207 206 76
3 25 208 209
3 25 210 211
3 212 7 213
3 214 9 215
3 35 36 10
3 37 36 35
3 37 12 36
3 37 38 12
3 39 38 37
3 39 14 38
3 40 41 15
3 216 41 217
3 218 217 40
3 216 217 218
3 219 17 220
3 221 220 41
3 219 220 221
3 222 42 223
3 224 223 18
3 222 223 224
3 225 42 226
3 227 20 228
3 229 228 42
3 227 228 229
3 231 230 20
3 232 43 233
3 44 234 236
3 234 43 235
3 234 235 236
3 44 22 43
3 44 45 22
3 46 45 44
3 46 23 45
3 237 24 238
3 239 47 240
3 241 240 25
3 239 240 241
3 48 242 244
3 242 47 243
3 242 243 244
3 48 245 247
3 247 246 47
3 245 246 247
3 49 248 250
3 250 249 8
3 248 249 250
3 252 251 49
3 50 253 255
3 253 51 254
3 253 254 255
3 52 51 50
3 52 26 51
3 53 54 11
3 256 54 257
3 258 257 53
3 256 257 258
3 260 259 54
3 55 56 13
3 57 56 55
3 57 261 263
3 263 262 56
3 261 262 263
3 57 264 265
3 58 266 268
3 268 267 57
3 266 267 268
3 58 269 270
3 59 271 272
3 59 273 275
3 273 27 274
3 273 274 275
3 60 61 16
3 62 61 60
3 62 28 61
3 62 63 28
3 64 63 62
3 64 29 63
3 65 276 278
3 276 66 277
3 276 277 278
3 279 66 280
3 281 280 65
3 279 280 281
3 282 30 283
3 284 283 66
3 282 283 284
3 67 68 19
3 69 68 67
3 69 31 68
3 69 70 31
3 71 70 69
3 71 32 70
3 71 72 32
3 73 72 71
3 73 33 72
3 285 74 286
3 287 286 21
3 285 286 287
3 75 288 290
3 288 74 289
3 288 289 290
3 75 34 74
3 75 76 34
3 77 76 75
3 77 291 293
3 293 292 76
3 291 292 293
3 77 294 295
3 297 296 77
3 298 25 299
3 300 2 301
3 302 78 303
3 79 304 306
3 304 78 305
3 304 305 306
3 79 8 78
3 307 79 308
3 80 309 311
3 309 79 310
3 309 310 311
3 80 8 79
3 80 49 8
3 81 49 80
3 81 312 314
3 314 313 49
3 312 313 314
3 82 83 1
3 84 83 82
3 84 11 83
3 36 84 10
3 85 84 36
3 85 11 84
3 85 53 11
3 86 53 85
3 86 315 317
3 317 316 53
3 315 316 317
3 86 318 319
3 87 320 322
3 322 321 86
3 320 321 322
3 87 323 325
3 323 13 324
3 323 324 325
3 38 87 12
3 88 87 38
3 88 13 87
3 88 55 13
3 89 55 88
3 89 4 55
3 90 91 3
3 92 91 90
3 92 16 91
3 41 92 15
3 93 92 41
3 93 16 92
3 93 60 16
3 94 60 93
3 94 5 60
3 95 326 327
3 95 328 330
3 328 19 329
3 328 329 330
3 42 95 18
3 96 95 42
3 96 19 95
3 96 67 19
3 97 67 96
3 97 6 67
3 97 98 6
3 99 98 97
3 99 21 98
3 331 99 332
3 333 332 20
3 331 332 333
3 334 99 335
3 336 21 337
3 338 337 99
3 336 337 338
3 340 339 21
3 341 50 342
3 100 343 345
3 343 50 344
3 343 344 345
3 100 1 50
3 43 346 347
3 101 348 350
3 350 349 43
3 348 349 350
3 101 351 352
3 101 353 355
3 353 100 354
3 353 354 355
3 102 100 101
3 102 1 100
3 102 82 1
3 103 82 102
3 103 10 82
3 45 103 22
3 104 103 45
3 104 10 103
3 104 35 10
3 105 35 104
3 105 0 35
3 356 65 357
3 358 65 359
3 361 360 65
3 362 18 363
3 364 18 365
3 367 366 18
3 368 3 369
3 370 3 371
3 372 90 373
3 374 373 3
3 372 373 374
3 106 375 377
3 375 90 376
3 375 376 377
3 106 15 90
3 378 106 379
3 107 380 382
3 380 106 381
3 380 381 382
3 107 15 106
3 107 40 15
3 383 40 384
3 385 384 107
3 383 384 385
3 387 386 40
3 388 7 389
3 390 7 391
3 393 392 7
3 394 24 395
3 396 24 397
3 396 397 398
3 400 399 24
3 47 401 403
3 403 402 25
3 401 402 403
3 405 404 47
3 78 406 408
3 406 48 407
3 406 407 408
3 108 48 78
3 108 409 411
3 411 410 48
3 409 410 411
3 412 108 413
3 414 413 8
3 412 413 414
3 415 108 416
3 418 417 108
3 419 9 420
3 51 421 422
3 109 423 425
3 425 424 51
3 423 424 425
3 109 426 428
3 426 9 427
3 426 427 428
3 109 81 9
3 110 81 109
3 110 429 431
3 431 430 81
3 429 430 431
3 83 52 1
3 111 52 83
3 111 26 52
3 54 111 11
3 112 111 54
3 112 26 111
3 112 110 26
3 432 110 433
3 434 433 112
3 432 433 434
3 436 435 110
3 56 437 439
3 439 438 13
3 437 438 439
3 113 440 442
3 442 441 56
3 440 441 442
3 113 443 444
3 113 445 446
3 448 447 113
3 114 449 450
3 114 451 453
3 451 2 452
3 451 452 453
3 91 59 3
3 115 59 91
3 115 27 59
3 61 115 16
3 116 115 61
3 116 27 115
3 116 114 27
3 117 114 116
3 117 2 114
3 117 46 2
3 118 46 117
3 118 23 46
3 63 118 28
3 119 118 63
3 119 23 118
3 119 105 23
3 120 105 119
3 120 0 105
3 121 454 455
3 121 456 458
3 456 17 457
3 456 457 458
3 66 459 461
3 459 121 460
3 459 460 461
3 122 121 66
3 122 17 121
3 122 94 17
3 123 94 122
3 123 5 94
3 462 30 463
3 68 464 466
3 466 465 19
3 464 465 466
3 124 467 469
3 469 468 68
3 467 468 469
3 124 470 472
3 470 30 471
3 470 471 472
3 124 123 30
3 125 123 124
3 125 5 123
3 125 64 5
3 126 64 125
3 126 29 64
3 70 126 31
3 127 126 70
3 127 29 126
3 127 120 29
3 128 120 127
3 128 0 120
3 128 39 0
3 129 39 128
3 129 14 39
3 72 129 32
3 130 129 72
3 130 14 129
3 130 89 14
3 131 89 130
3 131 4 89
3 98 73 6
3 132 73 98
3 132 33 73
3 74 132 21
3 133 132 74
3 133 33 132
3 133 131 33
3 134 131 133
3 134 4 131
3 134 58 4
3 135 58 134
3 135 473 475
3 475 474 58
3 473 474 475
3 76 135 34
3 476 135 477
3 478 477 76
3 476 477 478
3 480 479 135
