ply
format ascii 1.0
element vertex 373
property float x
property float y
property float z
element face 375
property list uchar int vertex_index
end_header
25.29129 43.441563 12.326591
25.823698 54.93568 -2.441801
25.648823 49.074089 4.82505
28.418846 42.980377 -2.256566
29.871418 38.420071 3.787259
25.855656 47.091255 -7.729711
22.100956 57.598915 -14.359391
25.490911 46.317787 8.302843
27.613411 43.819984 4.249182
27.817257 41.100574 7.766978
25.29887 53.709343 -8.520334
26.376532 51.378014 -5.463036
28.344809 38.882763 -4.846082
25.842941 51.926197 1.16939
27.085135 48.761185 -2.233202
27.439148 46.279339 0.972162
29.191891 40.838833 0.668763
24.440023 57.893322 0.902806
23.973482 54.639217 4.943289
23.447901 51.613113 8.915195
23.050562 48.48608 12.924674
23.84799 55.637146 -11.456809
24.129107 49.017929 -10.119138
27.329922 45.01899 -5.0907
26.468983 40.559093 -7.078228
25.414719 44.83984 10.268475
26.59181 43.675014 8.145424
26.590441 42.342163 9.947253
27.756599 39.944672 9.751551
25.733603 56.20327 -4.331831
25.933788 54.456272 -5.802798
25.75794 50.542355 2.933995
26.635607 49.058334 1.014436
26.615812 47.76823 2.809225
28.701376 41.131886 4.055698
28.521675 42.351337 2.343
29.535343 39.652267 2.227862
23.782919 60.824291 0.675362
23.560894 59.037178 2.768548
24.256138 56.173096 2.895938
23.213331 57.409275 4.956363
21.464985 55.419216 10.970531
22.652393 54.298683 8.803704
22.295998 52.706249 11.056684
23.304626 49.985744 10.775428
22.119396 50.978294 13.045856
23.6609 58.803326 -12.277047
24.405993 57.766575 -10.653813
25.624657 50.511749 -7.989911
24.853962 51.222992 -9.371945
25.034159 48.063473 -8.920063
24.288727 45.724792 -9.540741
25.20896 44.752117 -8.517473
27.732899 45.849308 -2.318344
27.299459 47.206047 -3.806404
27.92128 43.944172 -3.747542
27.419052 39.749889 -6.020877
26.802599 37.018089 -6.770744
25.695454 38.120605 -7.692201
25.541544 47.688591 6.624672
26.595728 46.453068 4.529945
26.637396 44.989647 6.256862
27.712917 42.465958 5.992639
28.843407 39.982605 5.710956
30.054192 37.441982 5.436491
29.010548 38.693619 7.476652
29.095125 37.476833 9.361247
25.170849 58.918949 -7.917707
25.017904 56.92128 -9.05599
25.541145 55.70171 -7.372662
25.88072 52.512695 -7.047668
26.251516 49.322342 -6.706703
29.169872 39.820263 -2.44979
28.577095 40.818111 -3.642381
25.907213 53.351974 -0.747345
26.563311 50.461506 -0.655454
27.328457 47.39851 -0.724955
28.073044 44.601231 -0.691259
27.569986 44.956432 2.591153
28.338732 43.436836 0.719962
28.923843 41.594913 -0.906583
29.739634 38.807507 -1.024694
25.280773 57.793556 -2.707179
24.580065 59.489479 -1.038467
25.201517 56.475124 -0.761632
25.178875 54.721115 1.029742
24.961784 53.310257 3.044455
24.77495 51.813755 4.952556
22.878527 55.92963 6.947329
23.761009 53.094528 6.795432
24.591503 50.364723 6.814883
24.462074 48.882603 8.607644
24.283264 47.46138 10.569777
24.138914 46.024681 12.534514
22.913879 46.960453 14.870406
24.015907 44.518509 14.575269
22.976723 56.695415 -12.957232
23.104712 53.379608 -12.06764
24.643721 54.490063 -9.946038
24.046196 52.396137 -10.687588
23.201443 50.218281 -11.319223
26.766167 50.195015 -3.817081
26.838831 48.254715 -5.250027
26.653486 46.243656 -6.372164
27.841303 41.950832 -4.943255
27.026741 42.897949 -6.214925
26.161036 43.87616 -7.373199
25.472124 41.543915 -8.075027
25.924655 42.226288 12.087843
26.57423 41.676588 10.898173
25.940866 42.891863 11.136922
26.019663 54.133719 -3.266911
25.974615 54.767514 -4.211927
25.77865 55.569475 -3.386816
30.237344 37.688757 2.90034
30.069307 38.304855 2.120642
29.703381 39.036169 3.007561
30.419412 37.173654 3.738376
30.237344 37.688757 2.90034
23.050708 59.65352 3.722337
23.21067 60.522911 2.644329
22.876926 58.839569 4.816244
23.387113 58.223226 3.862455
23.050708 59.65352 3.722337
21.729971 53.208416 12.101018
21.880491 54.062732 11.013607
21.314464 54.564899 12.057941
21.64167 52.344438 13.095603
22.207697 51.842271 12.05127
21.729971 53.208416 12.101018
24.57488 58.831976 -10.144425
24.288312 59.393948 -11.012753
26.949812 35.349767 -6.637333
27.349531 36.72953 -6.266462
26.34303 35.778364 -7.06145
26.949812 35.349767 -6.637333
21.691188 56.238153 -14.442685
21.660719 57.871963 -14.993731
22.132714 55.8561 -13.847112
21.691188 56.238153 -14.442685
28.474409 37.99062 10.489325
28.425862 38.710752 9.556399
27.805146 39.224539 10.684477
29.124906 36.840032 10.331733
28.474409 37.99062 10.489325
25.523397 56.645765 -6.724668
25.355997 57.310329 -7.645185
25.338248 58.254385 -6.99719
29.180517 38.767345 -3.071785
29.567395 38.304873 -2.425173
30.711174 36.095633 5.313801
30.155884 36.851921 6.345158
24.99942 59.298208 -2.869809
25.249064 58.554548 -3.66549
22.317068 56.494291 7.964671
22.482169 57.344328 6.93548
22.866782 46.144241 15.875352
22.351574 47.381882 15.934913
23.417796 44.92327 15.727784
23.464893 45.739481 14.722838
22.866782 46.144241 15.875352
23.713227 47.898825 -10.361626
23.249395 48.499 -10.961669
23.665275 49.618105 -10.719181
23.827241 44.422234 -9.749917
24.371737 43.998169 -9.274417
26.925651 49.4781 -3.025142
26.605944 51.03669 -3.136588
26.765428 50.319775 -2.344648
25.131498 38.429132 -8.121277
25.215184 36.675695 -7.895962
22.058228 59.185857 -14.856272
21.660719 57.871963 -14.993731
27.15731 40.477842 10.800323
27.17352 41.143417 9.849402
26.57423 41.676588 10.898173
27.805146 39.224539 10.684477
27.15731 40.477842 10.800323
25.833695 55.329771 -5.067315
25.719718 56.023046 -5.939736
25.619625 56.896546 -5.204252
26.074708 53.894014 -4.94741
25.833695 55.329771 -5.067315
25.974615 54.767514 -4.211927
26.29608 52.354886 -4.777529
26.15516 52.917143 -5.632917
26.074708 53.894014 -4.94741
29.860495 38.803892 1.35633
29.688768 39.397175 0.576781
29.363617 40.24555 1.448313
29.860495 38.803892 1.35633
30.069307 38.304855 2.120642
23.321683 61.416467 1.597736
23.479458 62.186915 0.518971
23.671906 59.930734 1.721955
23.321683 61.416467 1.597736
23.21067 60.522911 2.644329
22.058689 54.858949 9.887117
22.204002 55.678817 8.892858
21.610298 56.239084 9.976272
23.915765 59.912323 -11.82437
23.55285 60.441168 -12.724656
24.033447 58.284951 -11.46543
23.915765 59.912323 -11.82437
24.288312 59.393948 -11.012753
24.831853 43.511831 -8.762783
24.371737 43.998169 -9.274417
24.748843 45.238455 -9.029107
27.657758 38.09543 -5.891528
27.881931 39.316326 -5.433479
28.120636 37.661867 -5.30413
27.110826 38.383989 -6.39581
27.657758 38.09543 -5.891528
27.349531 36.72953 -6.266462
25.789458 36.329622 -7.522178
26.249026 37.569347 -7.231472
26.34303 35.778364 -7.06145
25.215184 36.675695 -7.895962
25.789458 36.329622 -7.522178
29.634062 37.477739 7.365238
30.155884 36.851921 6.345158
29.53237 38.067801 6.456571
29.67635 36.869346 8.307536
29.634062 37.477739 7.365238
29.052836 38.085226 8.41895
29.763622 36.255226 9.247176
29.67635 36.869346 8.307536
29.763622 36.255226 9.247176
29.124906 36.840032 10.331733
21.065077 56.716301 10.965338
21.610298 56.239084 9.976272
20.864495 55.958862 12.044524
21.065077 56.716301 10.965338
21.314464 54.564899 12.057941
20.864495 55.958862 12.044524
25.094377 57.920114 -8.486849
24.880835 58.409329 -9.345513
24.957308 59.408163 -8.776372
25.737467 55.078991 -6.58773
25.523397 56.645765 -6.724668
25.719718 56.023046 -5.939736
28.884128 39.266269 -3.66808
28.873483 40.319187 -3.046086
29.180517 38.767345 -3.071785
28.767986 38.298595 -4.269931
28.460952 39.850437 -4.244231
28.884128 39.266269 -3.66808
28.622314 37.173186 -4.795301
28.767986 38.298595 -4.269931
28.120636 37.661867 -5.30413
28.622314 37.173186 -4.795301
26.176467 52.61517 -1.60172
26.134709 53.407022 -2.448948
25.865455 54.143827 -1.594573
26.504516 51.169936 -1.555775
26.176467 52.61517 -1.60172
26.235262 51.90674 -0.701399
26.824223 49.611345 -1.444328
26.765428 50.319775 -2.344648
26.504516 51.169936 -1.555775
29.852276 37.798495 -1.712625
29.567395 38.304873 -2.425173
29.454753 39.313885 -1.737242
29.96264 38.381512 -0.269948
29.465762 39.82317 -0.177965
29.688768 39.397175 0.576781
30.169343 37.401154 -1.043978
29.96264 38.381512 -0.269948
29.852276 37.798495 -1.712625
30.169343 37.401154 -1.043978
30.5108 36.68461 4.562991
30.419412 37.173654 3.738376
29.962805 37.931027 4.611875
30.5108 36.68461 4.562991
30.711174 36.095633 5.313801
24.978502 60.443439 -8.22392
24.957308 59.408163 -8.776372
25.119913 59.794975 -7.273792
24.978502 60.443439 -8.22392
25.338248 58.254385 -6.99719
25.119913 59.794975 -7.273792
25.475479 57.759405 -4.477816
25.619625 56.896546 -5.204252
25.507188 56.998413 -3.519505
25.475479 57.759405 -4.477816
25.249064 58.554548 -3.66549
23.901034 61.589447 -0.403659
23.479458 62.186915 0.518971
24.299607 60.922041 -1.260573
23.901034 61.589447 -0.403659
24.181492 60.156885 -0.181553
24.649066 60.146169 -2.035454
24.299607 60.922041 -1.260573
24.930419 58.641518 -1.872823
24.99942 59.298208 -2.869809
24.649066 60.146169 -2.035454
22.64957 58.08415 5.939997
22.876926 58.839569 4.816244
23.045929 56.669453 5.951846
22.64957 58.08415 5.939997
22.482169 57.344328 6.93548
22.76546 55.114156 7.875516
22.317068 56.494291 7.964671
22.204002 55.678817 8.892858
21.478704 51.539186 14.21201
21.64167 52.344438 13.095603
21.992957 50.275116 14.040989
21.478704 51.539186 14.21201
22.45854 49.029009 13.980398
22.584979 49.732187 12.985265
21.992957 50.275116 14.040989
22.390199 48.266196 14.953264
22.351574 47.381882 15.934913
22.982221 47.723267 13.89754
22.45854 49.029009 13.980398
22.390199 48.266196 14.953264
24.025931 43.648058 15.55277
23.417796 44.92327 15.727784
24.656928 43.240509 14.3553
24.025931 43.648058 15.55277
25.294619 42.702036 13.230961
24.653599 43.980036 13.45093
24.656928 43.240509 14.3553
25.924655 42.226288 12.087843
25.294619 42.702036 13.230961
22.471363 58.756223 -14.119819
22.058228 59.185857 -14.856272
23.251335 59.358429 -13.078647
23.55285 60.441168 -12.724656
22.909247 58.304474 -13.41874
23.251335 59.358429 -13.078647
23.318812 57.74937 -12.61714
22.53884 57.147165 -13.658311
22.471363 58.756223 -14.119819
22.909247 58.304474 -13.41874
22.570597 55.40435 -13.146033
22.132714 55.8561 -13.847112
22.53884 57.147165 -13.658311
22.634591 53.746446 -12.701237
22.570597 55.40435 -13.146033
23.040717 55.037511 -12.512436
22.642569 52.067083 -12.262646
22.634591 53.746446 -12.701237
24.711948 57.343928 -9.854902
24.57488 58.831976 -10.144425
24.880835 58.409329 -9.345513
22.690935 50.48642 -11.888437
22.642569 52.067083 -12.262646
23.153078 51.798944 -11.693431
22.729917 48.865471 -11.481017
22.690935 50.48642 -11.888437
22.729917 48.865471 -11.481017
23.249395 48.499 -10.961669
23.793036 46.252256 -10.072428
23.713227 47.898825 -10.361626
24.208917 47.371361 -9.82994
23.793036 46.252256 -10.072428
23.827241 44.422234 -9.749917
26.019663 54.133719 -3.266911
26.134709 53.407022 -2.448948
26.490897 51.763386 -3.954551
26.605944 51.03669 -3.136588
26.57135 50.786514 -4.640059
26.29608 52.354886 -4.777529
26.490897 51.763386 -3.954551
24.963435 41.90773 -8.541559
24.831853 43.511831 -8.762783
25.340542 43.148016 -8.29625
25.019834 40.140787 -8.31269
25.583789 39.83226 -7.883614
25.131498 38.429132 -8.121277
24.963435 41.90773 -8.541559
25.019834 40.140787 -8.31269
3 0 27 25
3 0 108 110
3 110 109 27
3 108 109 110
3 1 111 113
3 113 112 29
3 111 112 113
3 2 33 31
3 4 36 34
3 4 114 116
3 116 115 36
3 114 115 116
3 4 117 118
3 119 38 120
3 121 40 122
3 123 122 38
3 121 122 123
3 124 43 125
3 126 125 41
3 124 125 126
3 127 45 128
3 129 128 43
3 127 128 129
3 130 47 131
3 5 50 48
3 5 52 50
3 3 55 53
3 132 57 133
3 135 134 57
3 6 136 137
3 6 138 139
3 7 61 59
3 9 62 26
3 9 63 62
3 9 65 63
3 140 66 141
3 142 141 28
3 140 141 142
3 144 143 66
3 145 69 146
3 147 146 67
3 145 146 147
3 11 70 30
3 11 71 70
3 149 148 72
3 13 75 74
3 15 76 32
3 15 77 76
3 8 78 60
3 16 79 35
3 16 80 79
3 16 81 80
3 151 150 64
3 152 82 153
3 17 83 37
3 17 84 83
3 17 85 84
3 18 86 39
3 18 87 86
3 154 88 155
3 19 89 42
3 19 90 89
3 19 91 90
3 20 92 44
3 20 93 92
3 156 94 157
3 158 95 159
3 160 159 94
3 158 159 160
3 21 96 46
3 21 97 96
3 10 98 68
3 22 99 49
3 22 100 99
3 22 161 163
3 163 162 100
3 161 162 163
3 165 164 51
3 14 166 168
3 166 101 167
3 166 167 168
3 23 102 54
3 23 103 102
3 12 104 73
3 24 105 56
3 24 106 105
3 24 107 106
3 170 169 58
3 171 6 172
3 25 26 7
3 27 26 25
3 27 9 26
3 27 28 9
3 173 28 174
3 175 174 27
3 173 174 175
3 177 176 28
3 29 178 180
3 178 30 179
3 178 179 180
3 181 30 182
3 183 182 29
3 181 182 183
3 184 11 185
3 186 185 30
3 184 185 186
3 31 32 13
3 33 32 31
3 33 15 32
3 34 35 8
3 36 35 34
3 36 16 35
3 36 187 189
3 189 188 16
3 187 188 189
3 191 190 36
3 192 37 193
3 38 194 196
3 194 37 195
3 194 195 196
3 38 17 37
3 38 39 17
3 40 39 38
3 40 18 39
3 41 197 199
3 197 42 198
3 197 198 199
3 43 42 41
3 43 19 42
3 43 44 19
3 45 44 43
3 45 20 44
3 200 46 201
3 47 202 204
3 202 46 203
3 202 203 204
3 47 21 46
3 48 49 10
3 50 49 48
3 50 22 49
3 50 51 22
3 52 51 50
3 52 205 207
3 207 206 51
3 205 206 207
3 53 54 14
3 55 54 53
3 55 23 54
3 208 56 209
3 210 209 12
3 208 209 210
3 57 211 213
3 211 56 212
3 211 212 213
3 57 24 56
3 57 58 24
3 214 58 215
3 216 215 57
3 214 215 216
3 218 217 58
3 59 60 2
3 61 60 59
3 61 8 60
3 26 61 7
3 62 61 26
3 62 8 61
3 62 34 8
3 63 34 62
3 63 4 34
3 63 64 4
3 65 64 63
3 65 219 221
3 221 220 64
3 219 220 221
3 28 65 9
3 66 65 28
3 66 222 224
3 224 223 65
3 222 223 224
3 66 225 226
3 228 227 66
3 229 41 230
3 231 41 232
3 234 233 41
3 67 235 237
3 235 68 236
3 235 236 237
3 69 68 67
3 69 10 68
3 30 238 240
3 238 69 239
3 238 239 240
3 70 69 30
3 70 10 69
3 70 48 10
3 71 48 70
3 71 5 48
3 72 73 3
3 241 73 242
3 243 242 72
3 241 242 243
3 244 12 245
3 246 245 73
3 244 245 246
3 247 12 248
3 250 249 12
3 74 251 253
3 253 252 1
3 251 252 253
3 75 254 256
3 256 255 74
3 254 255 256
3 75 257 259
3 257 14 258
3 257 258 259
3 32 75 13
3 76 75 32
3 76 14 75
3 76 53 14
3 77 53 76
3 77 3 53
3 60 33 2
3 78 33 60
3 78 15 33
3 35 78 8
3 79 78 35
3 79 15 78
3 79 77 15
3 80 77 79
3 80 3 77
3 80 72 3
3 81 72 80
3 81 260 262
3 262 261 72
3 260 261 262
3 263 81 264
3 265 264 16
3 263 264 265
3 266 81 267
3 269 268 81
3 64 270 272
3 272 271 4
3 270 271 272
3 274 273 64
3 275 67 276
3 277 67 278
3 280 279 67
3 281 29 282
3 82 283 285
3 283 29 284
3 283 284 285
3 82 1 29
3 37 286 287
3 83 288 290
3 290 289 37
3 288 289 290
3 83 291 292
3 83 293 295
3 293 82 294
3 293 294 295
3 84 82 83
3 84 1 82
3 84 74 1
3 85 74 84
3 85 13 74
3 39 85 17
3 86 85 39
3 86 13 85
3 86 31 13
3 87 31 86
3 87 2 31
3 296 40 297
3 88 298 300
3 298 40 299
3 298 299 300
3 88 18 40
3 42 301 303
3 301 88 302
3 301 302 303
3 89 88 42
3 89 18 88
3 89 87 18
3 90 87 89
3 90 2 87
3 90 59 2
3 91 59 90
3 91 7 59
3 44 91 19
3 92 91 44
3 92 7 91
3 92 25 7
3 93 25 92
3 93 0 25
3 304 45 305
3 306 45 307
3 308 20 309
3 310 309 45
3 308 309 310
3 94 311 312
3 94 313 315
3 313 20 314
3 313 314 315
3 94 93 20
3 95 93 94
3 95 0 93
3 316 95 317
3 318 95 319
3 320 0 321
3 322 321 95
3 320 321 322
3 324 323 0
3 325 6 326
3 46 327 328
3 96 329 331
3 331 330 46
3 329 330 331
3 96 332 334
3 332 6 333
3 332 333 334
3 96 335 337
3 337 336 6
3 335 336 337
3 97 338 340
3 340 339 96
3 338 339 340
3 97 341 342
3 68 343 345
3 343 47 344
3 343 344 345
3 98 47 68
3 98 21 47
3 49 98 10
3 99 98 49
3 99 21 98
3 99 97 21
3 100 97 99
3 100 346 348
3 348 347 97
3 346 347 348
3 100 349 350
3 352 351 100
3 51 353 355
3 355 354 22
3 353 354 355
3 357 356 51
3 359 358 1
3 101 360 361
3 101 362 364
3 362 11 363
3 362 363 364
3 54 101 14
3 102 101 54
3 102 11 101
3 102 71 11
3 103 71 102
3 103 5 71
3 73 55 3
3 104 55 73
3 104 23 55
3 56 104 12
3 105 104 56
3 105 23 104
3 105 103 23
3 106 103 105
3 106 5 103
3 106 52 5
3 107 52 106
3 107 365 367
3 367 366 52
3 365 366 367
3 58 107 24
3 368 107 369
3 370 369 58
3 368 369 370
3 372 371 107
