ply
format ascii 1.0
element vertex 195
property float x
property float y
property float z
element face 155
property list uchar int vertex_index
end_header
21.892311 105.857269 -24.42738
19.729342 100.79081 -36.641636
15.134345 107.876694 -15.206799
20.35747 106.472404 -5.498381
19.636169 107.620972 -12.664471
17.612066 106.482368 -26.575649
20.844637 103.924156 -31.065535
18.616478 107.674088 -19.998938
20.425798 105.501152 -1.680492
19.986107 106.284775 -25.660662
19.385883 105.353096 -28.921421
21.530464 104.929199 -28.01405
21.545986 106.970299 -11.546319
21.138018 107.266403 -15.293294
21.835703 106.403915 -7.751238
22.05892 105.491425 -3.620948
22.255428 104.426651 -0.028684
17.473017 107.942818 -14.013098
20.053936 107.178444 -9.138577
21.329954 98.49604 -38.518932
20.414314 102.456688 -33.973618
22.506435 102.021278 -33.040485
15.770249 107.161621 -24.186796
18.224152 107.200233 -23.473938
20.257277 106.956154 -22.379871
19.103346 107.818481 -16.242113
20.690374 107.262383 -18.962648
22.379145 106.258278 -21.091949
13.988185 107.677105 -15.627527
14.274638 107.622627 -13.896635
14.961012 107.847481 -16.865411
13.988185 107.677105 -15.627527
16.053201 107.929955 -16.371119
14.961012 107.847481 -16.865411
22.258243 106.66932 -12.725993
22.414907 106.451352 -10.801463
18.585099 100.749786 -36.992666
17.69667 101.672264 -36.015486
18.840913 101.713288 -35.664456
21.507421 104.320385 1.015651
21.340613 104.963902 -0.854588
20.592607 104.857636 0.189747
22.315433 103.705074 1.97541
21.507421 104.320385 1.015651
20.205703 106.825424 -7.318479
19.249283 107.090545 -7.95731
19.40105 106.737526 -6.137212
21.774589 96.00169 -40.573187
21.024986 97.377499 -39.703501
22.079557 97.120231 -39.388618
17.330156 105.933559 -28.163781
16.37113 106.383132 -26.960477
19.782536 104.015255 -31.527449
19.053159 104.729725 -30.455392
20.11526 104.638626 -29.993478
20.629475 103.190422 -32.519576
19.567375 103.281521 -32.98149
19.782536 104.015255 -31.527449
23.276365 100.856136 -33.980312
23.470629 101.586803 -32.563141
24.240558 100.421661 -33.502967
22.237885 101.124863 -34.58151
23.276365 100.856136 -33.980312
14.837639 107.293201 -22.902878
14.498926 106.957206 -24.494259
18.420315 107.437161 -21.736438
17.30678 107.446922 -22.321385
17.502943 107.68385 -20.583886
21.64962 106.885151 -18.262238
20.914196 107.264393 -17.127971
21.873442 106.887161 -16.42756
22.494006 106.383099 -19.326888
21.534759 106.760331 -20.027299
21.64962 106.885151 -18.262238
23.391177 105.871834 -18.643134
23.276317 105.747013 -20.408195
22.494006 106.383099 -19.326888
19.542426 105.821217 -2.423871
20.391634 105.986778 -3.589437
19.508262 106.306843 -4.332816
19.69907 105.205471 -0.466859
19.542426 105.821217 -2.423871
20.592607 104.857636 0.189747
19.69907 105.205471 -0.466859
19.508262 106.306843 -4.332816
19.40105 106.737526 -6.137212
17.794268 107.828652 -18.767189
17.502943 107.68385 -20.583886
22.054258 106.817372 -14.59948
21.342002 107.118351 -13.419806
22.258243 106.66932 -12.725993
21.873442 106.887161 -16.42756
22.054258 106.817372 -14.59948
22.652401 105.071045 -25.571422
22.821786 105.403225 -23.910725
22.60436 105.861282 -6.938782
22.559765 106.16816 -8.903923
22.715968 105.405037 -4.873637
22.60436 105.861282 -6.938782
21.947311 105.94767 -5.686093
22.901158 104.863213 -2.959603
22.715968 105.405037 -4.873637
22.999412 104.330826 -1.163471
22.901158 104.863213 -2.959603
22.157174 104.959038 -1.824816
22.982544 103.767899 0.798669
22.999412 104.330826 -1.163471
23.042549 103.046322 2.802764
22.982544 103.767899 0.798669
22.315433 103.705074 1.97541
15.442671 107.777508 -13.435365
14.274638 107.622627 -13.896635
16.612007 107.81057 -12.838515
16.303681 107.909756 -14.609948
15.442671 107.777508 -13.435365
17.705907 107.77071 -12.152019
16.612007 107.81057 -12.838515
18.787483 107.609787 -11.477706
18.554593 107.781895 -13.338784
17.705907 107.77071 -12.152019
18.996367 107.388523 -9.714759
19.249283 107.090545 -7.95731
19.845053 107.399708 -10.901524
18.787483 107.609787 -11.477706
18.996367 107.388523 -9.714759
22.559765 106.16816 -8.903923
22.414907 106.451352 -10.801463
21.690844 106.687107 -9.648779
20.27076 98.544037 -38.890537
19.470453 99.691421 -37.951889
20.529648 99.643425 -37.580284
20.27076 98.544037 -38.890537
21.024986 97.377499 -39.703501
18.217064 105.368923 -29.336667
17.330156 105.933559 -28.163781
18.498974 105.917732 -27.748535
18.217064 105.368923 -29.336667
19.053159 104.729725 -30.455392
19.183399 102.546227 -34.330447
19.567375 103.281521 -32.98149
20.071828 101.623749 -35.307627
18.840913 101.713288 -35.664456
19.183399 102.546227 -34.330447
22.471477 104.60701 -27.364757
21.711388 105.393234 -26.220715
22.652401 105.071045 -25.571422
22.247785 104.106346 -29.045828
22.471477 104.60701 -27.364757
21.904871 103.603825 -30.57157
21.187551 104.426677 -29.539793
22.247785 104.106346 -29.045828
22.73577 102.652386 -31.559045
23.470629 101.586803 -32.563141
21.675536 102.972717 -32.05301
21.904871 103.603825 -30.57157
22.73577 102.652386 -31.559045
21.191825 101.342568 -35.048077
21.460375 102.238983 -33.507052
22.237885 101.124863 -34.58151
20.849339 100.509628 -36.382086
20.071828 101.623749 -35.307627
21.191825 101.342568 -35.048077
21.649645 99.362244 -37.320734
20.529648 99.643425 -37.580284
20.849339 100.509628 -36.382086
22.393718 98.2075 -38.103721
21.649645 99.362244 -37.320734
22.079557 97.120231 -39.388618
22.393718 98.2075 -38.103721
15.450222 106.722759 -25.766051
14.498926 106.957206 -24.494259
16.691157 106.821994 -25.381222
16.37113 106.383132 -26.960477
15.450222 106.722759 -25.766051
16.079828 107.427616 -22.677815
14.837639 107.293201 -22.902878
16.9972 107.180927 -23.830367
16.079828 107.427616 -22.677815
17.30678 107.446922 -22.321385
17.222537 107.963017 -15.774269
16.053201 107.929955 -16.371119
16.303681 107.909756 -14.609948
18.037701 107.900848 -16.888776
17.222537 107.963017 -15.774269
18.288182 107.88065 -15.127605
18.859912 107.746285 -18.120525
17.794268 107.828652 -18.767189
18.037701 107.900848 -16.888776
23.065203 105.60373 -22.243009
22.821786 105.403225 -23.910725
22.135728 106.057773 -22.759664
23.065203 105.60373 -22.243009
23.276317 105.747013 -20.408195
18.585099 100.749786 -36.992666
19.470453 99.691421 -37.951889
3 0 11 9
3 2 28 29
3 2 30 31
3 2 32 33
3 35 34 12
3 1 36 38
3 36 37 38
3 3 15 14
3 39 16 40
3 41 40 8
3 39 40 41
3 43 42 16
3 3 44 46
3 44 18 45
3 44 45 46
3 3 14 18
3 49 48 19
3 47 48 49
3 5 50 51
3 6 52 54
3 54 53 10
3 52 53 54
3 6 55 57
3 55 20 56
3 55 56 57
3 58 21 59
3 58 59 60
3 62 61 21
3 63 22 64
3 7 65 67
3 65 23 66
3 65 66 67
3 7 24 23
3 4 25 17
3 68 26 69
3 70 69 13
3 68 69 70
3 71 27 72
3 73 72 26
3 71 72 73
3 76 75 27
3 74 75 76
3 77 8 78
3 79 78 3
3 77 78 79
3 80 8 81
3 83 82 8
3 84 3 85
3 9 10 5
3 11 10 9
3 11 6 10
3 86 7 87
3 12 13 4
3 88 13 89
3 90 89 12
3 88 89 90
3 92 91 13
3 94 93 0
3 14 95 96
3 15 97 99
3 99 98 14
3 97 98 99
3 15 100 101
3 8 15 3
3 16 15 8
3 16 102 104
3 104 103 15
3 102 103 104
3 16 105 106
3 109 108 16
3 107 108 109
3 110 2 111
3 112 17 113
3 114 113 2
3 112 113 114
3 115 17 116
3 117 4 118
3 119 118 17
3 117 118 119
3 18 120 121
3 18 122 124
3 122 4 123
3 122 123 124
3 18 12 4
3 14 12 18
3 14 125 127
3 127 126 12
3 125 126 127
3 19 128 130
3 130 129 1
3 128 129 130
3 132 131 19
3 10 133 135
3 135 134 5
3 133 134 135
3 137 136 10
3 20 138 139
3 20 140 142
3 140 1 141
3 140 141 142
3 143 11 144
3 145 144 0
3 143 144 145
3 146 11 147
3 148 6 149
3 150 149 11
3 148 149 150
3 21 151 152
3 21 153 155
3 153 6 154
3 153 154 155
3 21 20 6
3 156 20 157
3 158 157 21
3 156 157 158
3 159 1 160
3 161 160 20
3 159 160 161
3 162 19 163
3 164 163 1
3 162 163 164
3 165 19 166
3 168 167 19
3 22 169 170
3 22 171 173
3 171 5 172
3 171 172 173
3 174 22 175
3 23 176 178
3 176 22 177
3 176 177 178
3 23 5 22
3 23 9 5
3 24 9 23
3 24 0 9
3 17 179 181
3 181 180 2
3 179 180 181
3 25 182 184
3 184 183 17
3 182 183 184
3 25 185 187
3 185 7 186
3 185 186 187
3 13 25 4
3 26 25 13
3 26 7 25
3 26 24 7
3 27 24 26
3 27 0 24
3 27 188 190
3 190 189 0
3 188 189 190
3 192 191 27
3 194 193 1
