ply
format ascii 1.0
element vertex 357
property float x
property float y
property float z
element face 338
property list uchar int vertex_index
end_header
-6.765751 57.933113 -51.214153
0.875525 56.505856 -48.405788
-2.588588 69.591805 -47.832043
4.989321 65.589211 -42.956364
4.265379 55.067822 -46.316799
-0.035233 74.596062 -45.54747
1.459051 67.766273 -45.625999
4.116498 72.26107 -42.846466
-8.055686 51.529736 -52.235268
-0.016295 41.389221 -54.516262
-2.77343 57.507832 -49.964939
-4.419386 51.644806 -51.651707
-0.663879 51.397968 -50.684605
-4.837725 63.73138 -49.765312
-0.89635 62.946926 -47.997246
2.83093 61.306297 -45.772587
5.962517 59.373276 -43.065521
7.43912 69.308304 -39.837875
7.898922 63.009655 -39.753983
-5.509336 45.429459 -52.966743
5.707916 54.519516 -44.999008
-0.802972 77.830536 -45.443863
1.487339 76.815414 -44.156261
2.172731 73.369881 -44.231239
3.63671 75.616867 -42.758476
-8.854052 57.915665 -51.70216
-9.372482 54.745644 -52.085327
-7.464293 54.656776 -51.781967
-0.850833 56.864525 -49.247398
-1.838057 54.337364 -50.298935
-0.002713 53.951817 -49.62112
-3.669834 73.042976 -47.846539
-4.952454 70.354095 -48.856533
-3.85927 66.930542 -48.866806
-2.902917 63.516415 -48.951756
-1.675629 66.032867 -47.906422
3.278093 66.772705 -44.358532
2.261515 64.489944 -45.584328
4.005712 63.462837 -44.282703
4.478739 60.499096 -44.448063
5.5135 62.447922 -42.923752
8.221128 59.709839 -39.742191
-10.856547 41.36956 -52.930569
-9.254285 41.639378 -53.140289
-3.271542 48.723854 -52.092716
-5.020429 48.700668 -52.323765
-3.848085 45.791393 -52.873352
2.617516 55.982441 -47.386379
1.7049 53.487949 -48.858639
-2.277843 75.542801 -46.706951
-1.370771 72.234001 -46.742443
-0.511213 68.755745 -46.783844
0.777063 71.206596 -45.557487
2.792701 70.03476 -44.256187
4.612225 68.933914 -42.852779
-9.949242 51.505085 -52.413765
-8.644605 48.232346 -52.62648
-1.512718 40.844452 -54.519749
-4.744949 57.6731 -50.659588
-5.581295 54.71954 -51.36887
-3.641996 54.516178 -50.873699
-2.55652 51.512772 -51.238144
0.962275 51.032234 -50.157211
1.639277 41.785622 -54.41877
-7.971127 61.218315 -51.144226
-7.001198 64.352554 -50.476158
-5.831938 60.820461 -50.5476
-3.739344 60.518024 -49.819103
-1.803137 60.214417 -48.999966
0.073874 59.767139 -48.069016
0.347067 65.481926 -46.778484
1.025079 62.423561 -46.893536
1.821054 58.957714 -47.12318
3.532964 58.239052 -45.946468
5.017063 57.427269 -44.725395
6.521947 56.192669 -43.293571
4.971225 77.678856 -41.322891
5.511384 74.183655 -41.355709
5.995358 70.903351 -41.27161
6.151231 67.663025 -41.453907
8.802896 67.869286 -38.172028
7.687576 66.17173 -39.748405
6.503319 64.367264 -41.448715
6.948599 61.206802 -41.370113
7.276873 58.207897 -41.574951
7.778971 55.030754 -41.817986
-12.453017 41.038631 -52.69096
-6.137774 51.605961 -51.96748
-6.773894 48.332733 -52.530323
-7.271711 45.035702 -52.990875
-4.205596 42.682953 -53.6012
-5.823723 42.262897 -53.506073
-7.542405 41.825809 -53.350666
6.063328 53.069769 -45.266886
6.393633 53.869368 -44.375755
2.207261 77.842121 -43.4454
1.100742 78.417908 -44.097438
3.281947 77.242847 -42.746507
2.562024 76.21614 -43.457369
2.207261 77.842121 -43.4454
-9.090191 43.193602 -53.043295
-9.958835 43.174145 -52.991264
-3.026858 45.90826 -52.797373
-3.559814 47.257624 -52.483034
-2.738587 47.374491 -52.407055
3.810607 54.094948 -47.094053
2.986675 54.552257 -47.628843
3.441448 55.525132 -46.851589
-0.764506 41.116836 -54.518006
-1.310516 42.250386 -54.008108
-0.562304 42.52277 -54.006365
-1.037602 50.099859 -51.204962
-1.983923 50.157261 -51.481731
-1.6102 51.45537 -50.961374
1.75507 50.923677 -49.787033
1.333588 52.260092 -49.507925
2.126383 52.151535 -49.137747
2.462804 41.899254 -54.315901
1.912438 42.920136 -53.736379
2.13405 40.86405 -55.038252
2.462804 41.899254 -54.315901
-8.610347 62.852497 -51.141083
-9.029008 61.224626 -51.40025
-5.919461 64.041967 -50.120735
-6.501581 65.832595 -50.10108
-5.419844 65.522008 -49.745657
5.936026 76.759816 -40.575676
5.745993 78.385388 -40.510187
6.206106 75.012215 -40.592085
5.241305 75.931255 -41.3393
5.936026 76.759816 -40.575676
6.717239 70.105828 -40.554743
6.662577 71.779785 -40.49271
7.384457 70.982261 -39.775842
9.377267 66.894241 -37.328369
9.444125 68.536515 -37.284491
7.793249 64.590693 -39.751194
8.296125 65.38163 -38.938341
8.401798 63.800593 -38.94113
7.860455 57.41542 -40.826223
7.749001 58.958868 -40.658571
8.332583 58.166392 -39.909843
8.111504 55.826849 -40.947741
7.527922 56.619326 -41.696468
7.860455 57.41542 -40.826223
8.342506 54.243871 -41.09071
8.111504 55.826849 -40.947741
-12.405962 42.777879 -52.703825
-13.26114 42.680843 -52.620468
-10.919113 39.667581 -52.928526
-10.132857 39.851938 -53.100205
-3.620359 41.462807 -54.006918
-3.436463 42.916176 -53.604669
-6.036264 40.78079 -53.699709
-5.223532 40.965668 -53.852577
-6.895606 40.562246 -53.622006
-6.683064 42.044353 -53.42837
-6.036264 40.78079 -53.699709
-7.667056 40.305445 -53.477026
-6.895606 40.562246 -53.622006
5.354491 53.454188 -45.871702
4.633223 53.728341 -46.530597
4.986648 54.793669 -45.657904
5.354491 53.454188 -45.871702
6.063328 53.069769 -45.266886
-0.044414 78.925468 -44.741239
-1.188352 79.465553 -45.312494
0.342183 77.322975 -44.800062
-0.044414 78.925468 -44.741239
1.100742 78.417908 -44.097438
-9.113267 56.330654 -51.893743
-10.08773 56.437382 -52.061432
-9.828515 58.022392 -51.869849
-0.235625 40.121156 -55.044787
0.51584 40.405834 -55.102951
-4.845957 73.305389 -48.340828
-4.10303 74.667228 -47.782137
-5.487267 71.960949 -48.845825
-4.845957 73.305389 -48.340828
-4.311144 71.698535 -48.351536
-6.092837 70.599395 -49.284846
-5.487267 71.960949 -48.845825
-5.477209 68.833366 -49.291268
-6.092837 70.599395 -49.284846
-4.930617 67.121589 -49.296404
-5.477209 68.833366 -49.291268
-4.405862 68.642319 -48.861669
-4.348497 65.330961 -49.316059
-5.419844 65.522008 -49.745657
-4.930617 67.121589 -49.296404
8.097055 70.092087 -39.002327
7.384457 70.982261 -39.775842
8.479423 62.151642 -38.923147
8.401798 63.800593 -38.94113
8.640526 60.501734 -38.917251
8.060025 61.359747 -39.748087
8.479423 62.151642 -38.923147
8.759434 58.846604 -38.916669
8.640526 60.501734 -38.917251
8.332583 58.166392 -39.909843
8.759434 58.846604 -38.916669
-10.759965 43.039236 -52.886404
-11.607727 42.943344 -52.823629
-10.055416 41.504469 -53.035429
-10.759965 43.039236 -52.886404
-9.958835 43.174145 -52.991264
-9.331726 39.986847 -53.205065
-10.132857 39.851938 -53.100205
-10.055416 41.504469 -53.035429
2.530367 53.305011 -48.364973
2.161208 54.735195 -48.122509
2.986675 54.552257 -47.628843
2.126383 52.151535 -49.137747
2.530367 53.305011 -48.364973
3.810607 54.094948 -47.094053
4.633223 53.728341 -46.530597
-1.970528 78.397369 -45.976793
-1.188352 79.465553 -45.312494
-2.707963 77.253502 -46.608337
-1.970528 78.397369 -45.976793
-1.540407 76.686668 -46.075407
-3.407034 75.917141 -47.212343
-2.707963 77.253502 -46.608337
-2.973838 74.292889 -47.276745
-4.10303 74.667228 -47.782137
-3.407034 75.917141 -47.212343
-10.327979 54.70558 -52.205319
-10.08773 56.437382 -52.061432
-10.616359 53.085301 -52.369537
-10.327979 54.70558 -52.205319
-9.660862 53.125365 -52.249546
-10.887978 51.288576 -52.482046
-10.616359 53.085301 -52.369537
-10.133506 49.787295 -52.543183
-10.887978 51.288576 -52.482046
-9.481188 48.150925 -52.64954
-10.133506 49.787295 -52.543183
-9.296924 49.868716 -52.520122
-8.785351 46.490086 -52.78639
-9.481188 48.150925 -52.64954
-2.090025 41.996926 -54.063944
-1.310516 42.250386 -54.008108
-2.27392 40.543556 -54.466192
-2.090025 41.996926 -54.063944
-0.983836 39.848772 -55.04653
-0.764506 41.116836 -54.518006
-0.235625 40.121156 -55.044787
-1.704683 39.445894 -54.97077
-0.983836 39.848772 -55.04653
-2.27392 40.543556 -54.466192
-1.704683 39.445894 -54.97077
-2.341434 48.762802 -51.909018
-2.914031 50.118313 -51.66543
-1.983923 50.157261 -51.481731
-2.738587 47.374491 -52.407055
-2.341434 48.762802 -51.909018
1.473527 49.761482 -50.468437
1.75507 50.923677 -49.787033
0.622669 49.785494 -50.76818
1.473527 49.761482 -50.468437
-0.190408 49.968361 -51.031878
0.149198 51.215101 -50.420908
0.622669 49.785494 -50.76818
-1.037602 50.099859 -51.204962
-0.190408 49.968361 -51.031878
0.267451 42.517906 -53.99064
-0.562304 42.52277 -54.006365
1.095236 42.716106 -53.941895
1.912438 42.920136 -53.736379
0.811491 41.587421 -54.467516
0.267451 42.517906 -53.99064
1.095236 42.716106 -53.941895
1.343626 40.604034 -55.054205
0.51584 40.405834 -55.102951
0.811491 41.587421 -54.467516
1.343626 40.604034 -55.054205
2.13405 40.86405 -55.038252
-9.470471 59.573301 -51.679216
-9.828515 58.022392 -51.869849
-8.412589 59.56699 -51.423193
-9.470471 59.573301 -51.679216
-9.029008 61.224626 -51.40025
-7.606732 66.002102 -50.471639
-6.501581 65.832595 -50.10108
-8.125382 64.419616 -50.807049
-7.606732 66.002102 -50.471639
-7.486162 62.785434 -50.810192
-8.610347 62.852497 -51.141083
-8.125382 64.419616 -50.807049
6.800649 54.705944 -43.523037
6.393633 53.869368 -44.375755
6.114931 55.356093 -44.14629
4.68146 79.238617 -41.253076
5.745993 78.385388 -40.510187
3.949204 78.273842 -42.028715
4.68146 79.238617 -41.253076
4.303967 76.647862 -42.040684
3.281947 77.242847 -42.746507
3.949204 78.273842 -42.028715
6.42059 73.419937 -40.534759
6.206106 75.012215 -40.592085
5.753371 72.543503 -41.313659
6.42059 73.419937 -40.534759
6.662577 71.779785 -40.49271
8.778944 69.372578 -38.169404
9.444125 68.536515 -37.284491
8.121008 68.588795 -39.004951
8.097055 70.092087 -39.002327
8.778944 69.372578 -38.169404
8.853786 66.230408 -38.150152
9.377267 66.894241 -37.328369
8.245236 67.020508 -38.960217
8.853786 66.230408 -38.150152
8.296125 65.38163 -38.938341
7.429161 54.124987 -42.785244
6.800649 54.705944 -43.523037
7.150459 55.611711 -42.555779
8.0582 53.52817 -42.046383
7.429161 54.124987 -42.785244
8.0582 53.52817 -42.046383
8.342506 54.243871 -41.09071
-13.23551 40.876184 -52.556625
-13.26114 42.680843 -52.620468
-12.448683 39.274607 -52.64106
-13.23551 40.876184 -52.556625
-11.654782 41.204096 -52.810764
-12.405962 42.777879 -52.703825
-11.607727 42.943344 -52.823629
-11.717347 39.502117 -52.808721
-11.654782 41.204096 -52.810764
-10.919113 39.667581 -52.928526
-12.448683 39.274607 -52.64106
-11.717347 39.502117 -52.808721
-8.098904 44.891764 -52.968588
-8.785351 46.490086 -52.78639
-7.958158 46.634024 -52.808678
-3.257708 44.470396 -53.240746
-3.026858 45.90826 -52.797373
-4.026841 44.237173 -53.237276
-3.257708 44.470396 -53.240746
-3.436463 42.916176 -53.604669
-4.414468 41.175696 -53.90014
-3.620359 41.462807 -54.006918
-5.01466 42.472925 -53.553636
-4.414468 41.175696 -53.90014
-5.223532 40.965668 -53.852577
-8.234251 43.286817 -53.148483
-8.098904 44.891764 -52.968588
-7.407058 43.430756 -53.170771
-8.398345 41.732594 -53.245477
-9.090191 43.193602 -53.043295
-8.234251 43.286817 -53.148483
-8.522996 40.212229 -53.371837
-8.398345 41.732594 -53.245477
-7.667056 40.305445 -53.477026
-9.331726 39.986847 -53.205065
-8.522996 40.212229 -53.371837
3 94 93 20
3 95 22 96
3 97 24 98
3 99 98 22
3 97 98 99
3 0 27 25
3 1 30 28
3 2 32 31
3 2 33 32
3 2 35 33
3 3 38 36
3 3 40 38
3 100 43 101
3 102 46 103
3 104 103 44
3 102 103 104
3 4 105 107
3 107 106 47
3 105 106 107
3 5 49 21
3 5 50 49
3 5 52 50
3 7 53 23
3 7 54 53
3 8 55 26
3 8 56 55
3 9 108 110
3 108 57 109
3 108 109 110
3 10 60 58
3 12 61 29
3 12 111 113
3 113 112 61
3 111 112 113
3 114 62 115
3 116 115 48
3 114 115 116
3 117 63 118
3 120 119 63
3 121 64 122
3 13 123 125
3 123 65 124
3 123 124 125
3 13 66 65
3 13 67 66
3 14 68 34
3 14 69 68
3 6 70 51
3 15 71 37
3 15 72 71
3 15 73 72
3 16 74 39
3 16 75 74
3 126 76 127
3 128 77 129
3 130 129 76
3 128 129 130
3 17 131 133
3 131 78 132
3 131 132 133
3 17 79 78
3 134 80 135
3 18 136 138
3 136 81 137
3 136 137 138
3 18 82 81
3 18 83 82
3 139 84 140
3 141 140 41
3 139 140 141
3 142 85 143
3 144 143 84
3 142 143 144
3 146 145 85
3 147 86 148
3 150 149 42
3 11 87 59
3 19 88 45
3 19 89 88
3 151 90 152
3 153 91 154
3 155 92 156
3 157 156 91
3 155 156 157
3 159 158 92
3 20 160 162
3 162 161 4
3 160 161 162
3 164 163 20
3 165 21 166
3 22 167 169
3 167 21 168
3 167 168 169
3 22 5 21
3 22 23 5
3 24 23 22
3 24 7 23
3 25 170 172
3 170 26 171
3 170 171 172
3 27 26 25
3 27 8 26
3 174 173 9
3 28 29 10
3 30 29 28
3 30 12 29
3 31 175 176
3 32 177 179
3 179 178 31
3 177 178 179
3 32 180 181
3 32 182 183
3 33 184 186
3 186 185 32
3 184 185 186
3 33 187 189
3 187 13 188
3 187 188 189
3 33 34 13
3 35 34 33
3 35 14 34
3 36 37 6
3 38 37 36
3 38 15 37
3 38 39 15
3 40 39 38
3 40 16 39
3 190 17 191
3 192 18 193
3 194 41 195
3 196 195 18
3 194 195 196
3 197 41 198
3 200 199 41
3 201 42 202
3 43 203 205
3 203 42 204
3 203 204 205
3 43 206 208
3 208 207 42
3 206 207 208
3 44 45 11
3 46 45 44
3 46 19 45
3 47 48 1
3 209 48 210
3 211 210 47
3 209 210 211
3 213 212 48
3 215 214 4
3 21 216 217
3 49 218 220
3 220 219 21
3 218 219 220
3 49 221 222
3 49 223 225
3 223 31 224
3 223 224 225
3 50 31 49
3 50 2 31
3 50 51 2
3 52 51 50
3 52 6 51
3 23 52 5
3 53 52 23
3 53 6 52
3 53 36 6
3 54 36 53
3 54 3 36
3 26 226 227
3 55 228 230
3 230 229 26
3 228 229 230
3 55 231 232
3 55 233 234
3 56 235 237
3 237 236 55
3 235 236 237
3 56 238 239
3 57 240 241
3 57 242 243
3 244 57 245
3 246 245 9
3 244 245 246
3 247 57 248
3 250 249 57
3 58 59 0
3 60 59 58
3 60 11 59
3 29 60 10
3 61 60 29
3 61 11 60
3 61 44 11
3 251 44 252
3 253 252 61
3 251 252 253
3 255 254 44
3 48 30 1
3 62 30 48
3 62 12 30
3 256 62 257
3 258 62 259
3 260 12 261
3 262 261 62
3 260 261 262
3 264 263 12
3 265 9 266
3 63 267 268
3 63 269 271
3 269 9 270
3 269 270 271
3 63 272 274
3 274 273 9
3 272 273 274
3 276 275 63
3 277 25 278
3 64 279 281
3 279 25 280
3 279 280 281
3 64 0 25
3 65 282 283
3 65 284 285
3 65 286 288
3 286 64 287
3 286 287 288
3 66 64 65
3 66 0 64
3 66 58 0
3 67 58 66
3 67 10 58
3 34 67 13
3 68 67 34
3 68 10 67
3 68 28 10
3 69 28 68
3 69 1 28
3 51 35 2
3 70 35 51
3 70 14 35
3 37 70 6
3 71 70 37
3 71 14 70
3 71 69 14
3 72 69 71
3 72 1 69
3 72 47 1
3 73 47 72
3 73 4 47
3 39 73 15
3 74 73 39
3 74 4 73
3 74 20 4
3 75 20 74
3 75 289 291
3 291 290 20
3 289 290 291
3 76 292 293
3 76 294 295
3 76 296 298
3 296 24 297
3 296 297 298
3 77 24 76
3 77 7 24
3 299 77 300
3 78 301 303
3 301 77 302
3 301 302 303
3 78 7 77
3 78 54 7
3 79 54 78
3 79 3 54
3 80 304 305
3 80 306 308
3 306 17 307
3 306 307 308
3 309 80 310
3 81 311 313
3 311 80 312
3 311 312 313
3 81 17 80
3 81 79 17
3 82 79 81
3 82 3 79
3 82 40 3
3 83 40 82
3 83 16 40
3 41 83 18
3 84 83 41
3 84 16 83
3 84 75 16
3 85 75 84
3 85 314 316
3 316 315 75
3 314 315 316
3 85 317 318
3 320 319 85
3 86 321 322
3 86 323 324
3 42 325 327
3 325 86 326
3 325 326 327
3 328 86 329
3 330 329 42
3 328 329 330
3 332 331 86
3 59 27 0
3 87 27 59
3 87 8 27
3 45 87 11
3 88 87 45
3 88 8 87
3 88 56 8
3 89 56 88
3 89 333 335
3 335 334 56
3 333 334 335
3 336 46 337
3 90 338 340
3 338 46 339
3 338 339 340
3 90 19 46
3 341 90 342
3 91 343 345
3 343 90 344
3 343 344 345
3 91 19 90
3 91 89 19
3 92 89 91
3 92 346 348
3 348 347 89
3 346 347 348
3 92 349 351
3 349 43 350
3 349 350 351
3 352 43 353
3 354 353 92
3 352 353 354
3 356 355 43
