ply
format ascii 1.0
element vertex 230
property float x
property float y
property float z
element face 209
property list uchar int vertex_index
end_header
8.068407 -106.496765 -26.862942
9.305859 -104.359985 -7.274822
23.142195 -104.366394 -12.520055
14.941969 -107.783859 -16.144697
13.528371 -106.939674 -25.92083
19.496836 -106.79863 -14.569916
17.028271 -106.424858 -10.203042
14.259993 -104.842834 -5.923816
21.233299 -105.860313 -18.66185
16.937471 -107.568161 -20.446619
11.904139 -107.84864 -22.002497
12.322142 -106.703316 -11.825753
9.54961 -107.3647 -17.382526
6.333303 -106.778236 -22.660522
10.813178 -106.864502 -26.553596
8.706732 -105.822113 -28.856512
19.287006 -105.742355 -9.257984
17.887228 -105.275253 -7.047871
23.734009 -103.188828 -9.287918
22.433266 -105.173286 -15.510783
17.310493 -107.468399 -15.398019
18.415262 -107.327644 -17.437475
16.044741 -107.845985 -18.464344
14.37619 -107.895363 -21.248823
13.42686 -107.992859 -19.013405
11.869246 -104.770767 -6.66754
13.304401 -105.862999 -8.799057
8.3917 -106.643906 -15.077843
6.991976 -106.725319 -17.84549
8.121883 -107.274323 -20.124725
5.380045 -106.43074 -20.328308
21.422829 -105.772491 -13.576972
20.497671 -105.875801 -11.390107
18.386219 -106.750832 -12.320333
16.066742 -107.24939 -13.173309
6.890789 -103.826508 -7.948816
5.181368 -105.728485 -27.11084
16.42178 -104.575439 -5.03845
12.660426 -103.613586 -3.779226
20.569849 -106.426666 -16.545891
19.268938 -106.883797 -19.464859
15.389393 -107.419662 -23.281807
12.84868 -107.548241 -24.030035
10.078869 -107.341171 -24.568773
15.670832 -105.798248 -8.123006
14.698797 -106.734512 -11.087778
13.546637 -107.389473 -13.99631
9.763679 -106.339165 -12.437372
10.937304 -107.192818 -14.754261
12.207331 -107.740791 -16.830616
10.821257 -107.798737 -19.682859
9.196856 -107.49865 -22.277464
7.297889 -106.819359 -24.774437
18.169634 -104.610672 -5.503227
18.904711 -104.84441 -6.487246
23.84185 -103.507122 -11.947847
24.137757 -102.918339 -10.331778
23.438102 -103.777611 -10.903986
23.536724 -104.013664 -13.459671
23.84185 -103.507122 -11.947847
22.787731 -104.76984 -14.015419
23.182259 -104.41711 -14.955036
23.536724 -104.013664 -13.459671
10.079429 -105.01015 -8.395633
11.361123 -105.215542 -8.091992
10.587553 -104.565376 -6.971181
5.618114 -106.217998 -17.895082
6.425471 -106.307846 -16.680846
4.812149 -106.070709 -19.136491
6.186011 -106.578029 -19.086899
5.618114 -106.217998 -17.895082
4.087516 -105.894447 -20.38535
4.812149 -106.070709 -19.136491
13.74251 -106.442284 -26.928793
14.778042 -106.751209 -25.667437
20.832813 -105.287994 -9.767581
21.390955 -105.259323 -10.832505
6.319454 -104.104649 -9.234766
5.607155 -103.360566 -8.090314
4.216088 -105.064995 -28.091496
3.896465 -105.272587 -27.036471
11.908881 -102.833778 -2.612631
12.954731 -102.873607 -2.229379
11.492418 -103.517323 -4.162608
11.908881 -102.833778 -2.612631
21.550117 -105.38192 -19.607184
22.119752 -105.173729 -18.054692
20.568683 -105.965653 -20.198377
21.550117 -105.38192 -19.607184
17.357428 -107.256801 -21.428178
18.523162 -106.91462 -20.937298
18.103204 -107.225979 -19.955739
16.163432 -107.493911 -21.864213
16.583389 -107.182552 -22.845772
17.357428 -107.256801 -21.428178
8.400033 -105.962162 -12.572449
9.068165 -105.772549 -11.306129
5.417844 -106.364208 -23.823885
5.900137 -106.38477 -24.880843
6.815596 -106.798798 -23.717479
11.120354 -106.450435 -27.531083
12.47795 -106.488022 -27.2147
12.170775 -106.902088 -26.237213
10.067131 -105.929241 -28.682541
11.120354 -106.450435 -27.531083
9.759955 -106.343308 -27.705054
8.956336 -105.312629 -29.795151
10.067131 -105.929241 -28.682541
19.604601 -105.077961 -7.592302
20.22748 -105.221272 -8.701519
18.587117 -105.508804 -8.152928
19.604601 -105.077961 -7.592302
18.904711 -104.84441 -6.487246
24.389004 -102.20554 -8.700489
23.984143 -102.445866 -7.725411
24.389004 -102.20554 -8.700489
24.137757 -102.918339 -10.331778
22.719735 -104.830215 -16.479158
23.182259 -104.41711 -14.955036
21.833282 -105.5168 -17.086317
22.119752 -105.173729 -18.054692
22.719735 -104.830215 -16.479158
12.078701 -105.761657 -9.15775
12.586824 -105.316883 -7.733299
11.361123 -105.215542 -8.091992
11.587571 -106.181816 -10.671098
12.813271 -106.283158 -10.312405
12.078701 -105.761657 -9.15775
7.125333 -106.267139 -15.297022
7.714044 -106.114532 -13.892684
7.691838 -106.684613 -16.461666
7.125333 -106.267139 -15.297022
6.425471 -106.307846 -16.680846
4.581871 -106.142212 -21.623835
5.0585 -106.31596 -22.789941
5.856674 -106.604488 -21.494415
4.581871 -106.142212 -21.623835
4.087516 -105.894447 -20.38535
13.74251 -106.442284 -26.928793
12.47795 -106.488022 -27.2147
23.319115 -103.215462 -8.122443
23.984143 -102.445866 -7.725411
23.009124 -103.915836 -9.78141
23.319115 -103.215462 -8.122443
22.713217 -104.504619 -11.397479
23.438102 -103.777611 -10.903986
23.009124 -103.915836 -9.78141
21.853534 -105.207668 -11.925937
22.282512 -105.069443 -13.048513
22.713217 -104.504619 -11.397479
20.96025 -105.824146 -12.483539
21.853534 -105.207668 -11.925937
21.390955 -105.259323 -10.832505
19.892339 -105.809078 -10.324046
20.832813 -105.287994 -9.767581
20.22748 -105.221272 -8.701519
7.63172 -104.516221 -9.061851
8.839255 -104.782959 -8.724854
8.098324 -104.093246 -7.611819
7.63172 -104.516221 -9.061851
6.319454 -104.104649 -9.234766
5.546121 -105.468994 -28.120882
6.989641 -105.853134 -27.996933
6.624887 -106.112625 -26.986891
5.546121 -105.468994 -28.120882
4.216088 -105.064995 -28.091496
16.727041 -103.83274 -3.438964
17.43691 -104.260765 -4.498517
15.677704 -104.008567 -3.883347
16.727041 -103.83274 -3.438964
14.596811 -104.142265 -4.32603
15.340886 -104.709136 -5.481133
15.677704 -104.008567 -3.883347
13.797027 -103.527641 -3.253735
12.954731 -102.873607 -2.229379
13.460209 -104.22821 -4.851521
14.596811 -104.142265 -4.32603
13.797027 -103.527641 -3.253735
11.096829 -104.095913 -5.606764
12.264836 -104.192177 -5.223383
11.492418 -103.517323 -4.162608
9.815135 -103.890522 -5.910405
10.587553 -104.565376 -6.971181
11.096829 -104.095913 -5.606764
8.635108 -103.614632 -6.118605
9.815135 -103.890522 -5.910405
7.427573 -103.347893 -6.455602
8.098324 -104.093246 -7.611819
8.635108 -103.614632 -6.118605
6.222265 -103.012055 -6.720478
7.427573 -103.347893 -6.455602
5.607155 -103.360566 -8.090314
6.222265 -103.012055 -6.720478
7.308803 -105.515808 -28.993718
8.38757 -106.159439 -27.859727
6.989641 -105.853134 -27.996933
7.687944 -105.114716 -29.915422
7.308803 -105.515808 -28.993718
8.956336 -105.312629 -29.795151
7.687944 -105.114716 -29.915422
19.586502 -106.477395 -20.599882
20.568683 -105.965653 -20.198377
20.251118 -106.372055 -19.063355
19.586502 -106.477395 -20.599882
18.523162 -106.91462 -20.937298
15.708554 -106.991203 -24.347926
16.583389 -107.182552 -22.845772
14.458882 -107.179668 -24.601318
14.778042 -106.751209 -25.667437
15.708554 -106.991203 -24.347926
17.154504 -104.925346 -6.04316
18.169634 -104.610672 -5.503227
17.43691 -104.260765 -4.498517
10.079429 -105.01015 -8.395633
8.839255 -104.782959 -8.724854
10.308339 -105.999741 -10.976907
9.068165 -105.772549 -11.306129
11.04291 -106.521241 -12.131563
11.587571 -106.181816 -10.671098
10.308339 -105.999741 -10.976907
9.077689 -106.491535 -13.757607
8.400033 -105.962162 -12.572449
7.714044 -106.114532 -13.892684
4.841876 -105.839333 -26.049045
6.239629 -106.273922 -25.942639
5.900137 -106.38477 -24.880843
3.896465 -105.272587 -27.036471
4.841876 -105.839333 -26.049045
5.417844 -106.364208 -23.823885
5.0585 -106.31596 -22.789941
3 0 15 14
3 53 17 54
3 2 55 57
3 57 56 18
3 55 56 57
3 2 58 59
3 2 60 62
3 60 19 61
3 60 61 62
3 3 22 20
3 3 24 22
3 1 63 65
3 65 64 25
3 63 64 65
3 66 28 67
3 68 30 69
3 70 69 28
3 68 69 70
3 72 71 30
3 4 73 74
3 75 32 76
3 6 33 16
3 6 34 33
3 78 77 35
3 80 79 36
3 81 38 82
3 84 83 38
3 8 85 86
3 8 87 88
3 5 39 31
3 9 40 21
3 9 89 91
3 91 90 40
3 89 90 91
3 9 92 94
3 92 41 93
3 92 93 94
3 10 42 23
3 10 43 42
3 7 44 37
3 11 45 26
3 11 46 45
3 95 47 96
3 12 48 27
3 12 49 48
3 12 50 49
3 13 51 29
3 13 52 51
3 13 97 99
3 99 98 52
3 97 98 99
3 14 100 102
3 102 101 4
3 100 101 102
3 15 103 105
3 105 104 14
3 103 104 105
3 15 106 107
3 108 16 109
3 17 110 112
3 110 16 111
3 110 111 112
3 17 6 16
3 18 113 114
3 116 115 18
3 19 117 118
3 19 119 121
3 119 8 120
3 119 120 121
3 20 21 5
3 22 21 20
3 22 9 21
3 22 23 9
3 24 23 22
3 24 10 23
3 25 26 7
3 122 26 123
3 124 123 25
3 122 123 124
3 125 11 126
3 127 126 26
3 125 126 127
3 128 27 129
3 28 130 132
3 130 27 131
3 130 131 132
3 28 12 27
3 28 29 12
3 30 29 28
3 30 13 29
3 30 133 135
3 135 134 13
3 133 134 135
3 137 136 30
3 139 138 4
3 140 18 141
3 142 18 143
3 144 2 145
3 146 145 18
3 144 145 146
3 147 31 148
3 149 148 2
3 147 148 149
3 32 150 152
3 150 31 151
3 150 151 152
3 32 5 31
3 16 153 155
3 153 32 154
3 153 154 155
3 33 32 16
3 33 5 32
3 33 20 5
3 34 20 33
3 34 3 20
3 35 156 158
3 158 157 1
3 156 157 158
3 160 159 35
3 36 161 163
3 163 162 0
3 161 162 163
3 165 164 36
3 166 37 167
3 168 37 169
3 170 7 171
3 172 171 37
3 170 171 172
3 38 173 174
3 38 175 177
3 175 7 176
3 175 176 177
3 38 25 7
3 178 25 179
3 180 179 38
3 178 179 180
3 181 1 182
3 183 182 25
3 181 182 183
3 184 1 185
3 186 35 187
3 188 187 1
3 186 187 188
3 189 35 190
3 192 191 35
3 193 15 194
3 195 194 0
3 193 194 195
3 196 15 197
3 199 198 15
3 31 19 2
3 39 19 31
3 39 8 19
3 21 39 5
3 40 39 21
3 40 8 39
3 40 200 202
3 202 201 8
3 200 201 202
3 204 203 40
3 41 205 206
3 41 207 209
3 207 4 208
3 207 208 209
3 23 41 9
3 42 41 23
3 42 4 41
3 42 14 4
3 43 14 42
3 43 0 14
3 37 210 212
3 210 17 211
3 210 211 212
3 44 17 37
3 44 6 17
3 26 44 7
3 45 44 26
3 45 6 44
3 45 34 6
3 46 34 45
3 46 3 34
3 214 213 1
3 47 215 216
3 47 217 219
3 217 11 218
3 217 218 219
3 27 220 222
3 220 47 221
3 220 221 222
3 48 47 27
3 48 11 47
3 48 46 11
3 49 46 48
3 49 3 46
3 49 24 3
3 50 24 49
3 50 10 24
3 29 50 12
3 51 50 29
3 51 10 50
3 51 43 10
3 52 43 51
3 52 0 43
3 52 36 0
3 223 36 224
3 225 224 52
3 223 224 225
3 227 226 36
3 229 228 13
