ply
format ascii 1.0
element vertex 298
property float x
property float y
property float z
element face 276
property list uchar int vertex_index
end_header
-17.923731 45.438148 -13.953789
-12.425122 54.121861 -24.873646
-14.465016 35.458904 -15.865112
-14.900738 50.609085 -18.703987
-21.764774 39.745575 -10.673367
-17.490927 38.197914 -12.931623
-15.91251 40.720615 -14.79933
-14.559677 43.410576 -17.164331
-16.285452 48.088737 -16.163521
-24.010702 36.718414 -9.429921
-17.45681 62.258091 -19.724245
-13.420305 45.363052 -19.803753
-13.653937 52.631321 -21.55051
-19.298061 35.260773 -11.402924
-19.688702 42.520374 -12.161512
-18.484352 52.733833 -15.215091
-16.901487 55.529472 -17.816648
-15.353825 57.491364 -20.660889
-17.659845 41.897511 -13.459181
-16.683155 39.506409 -13.811818
-16.854191 43.215263 -14.403956
-16.092882 44.685192 -15.49412
-17.084568 46.709709 -14.987539
-18.490591 67.390282 -20.155788
-12.41248 50.859859 -23.85203
-11.900061 54.910618 -26.570856
-15.055541 34.152512 -14.696052
-13.9672 36.915478 -17.111568
-14.684041 47.096119 -17.935284
-13.94795 44.398041 -18.466822
-14.043346 48.258385 -19.336161
-13.439619 48.981102 -20.741711
-14.252924 51.683689 -20.107439
-21.586914 36.015961 -10.441039
-20.35763 33.745182 -10.726745
-20.503605 37.280502 -11.057575
-19.473169 38.744396 -11.768594
-20.653734 40.965454 -11.389849
-17.665735 54.014778 -16.437744
-17.977751 57.480202 -17.237047
-16.346647 59.945427 -20.277931
-14.638823 58.533211 -22.24951
-17.326473 34.137619 -12.40717
-16.535057 35.682106 -13.27213
-15.780096 36.771187 -14.192282
-15.063786 38.049023 -15.301553
-14.460845 39.53228 -16.50481
-15.213411 41.902962 -15.878244
-15.341282 45.762302 -16.650867
-15.591695 49.429035 -17.373459
-22.879477 38.247314 -10.019423
-13.925947 40.594639 -17.715031
-13.390189 41.711315 -19.158764
-12.904797 46.531006 -21.36405
-12.942358 50.311569 -22.288612
-13.04883 53.629486 -23.192368
-18.28299 36.457561 -12.13089
-18.509975 40.276424 -12.572555
-18.731424 43.855881 -13.021114
-24.140589 40.154114 -9.402534
-22.969656 41.7262 -10.129949
-21.899641 43.048851 -10.861853
-20.955971 44.621494 -11.626888
-19.908154 46.009136 -12.544272
-18.996605 47.529789 -13.517964
-18.126448 48.959507 -14.575479
-17.372152 50.39817 -15.667619
-16.551231 51.795357 -16.964273
-15.870951 53.159771 -18.248013
-16.161358 56.657784 -19.17783
-15.152761 54.169891 -19.610638
-14.459661 55.075455 -21.057835
-13.801051 55.978157 -22.603994
-13.142571 56.788914 -24.271809
-12.174961 52.908343 -25.212513
-12.16864 51.277341 -24.701705
-12.418801 52.49086 -24.362838
-12.162592 54.516239 -25.722251
-11.91243 53.302721 -26.061118
-12.174961 52.908343 -25.212513
-14.511302 33.665458 -15.612011
-14.806565 33.012262 -15.02748
-14.760279 34.805708 -15.280582
-14.277013 34.315 -16.231499
-14.511302 33.665458 -15.612011
-14.216108 36.187191 -16.48834
-14.028105 35.043288 -16.854727
-14.277013 34.315 -16.231499
-18.491374 58.534073 -16.978899
-18.390221 56.909906 -16.582346
-23.40297 35.690134 -9.635424
-24.061932 35.053431 -9.347161
-23.44509 37.482864 -9.724672
-22.837358 36.454584 -9.930175
-23.40297 35.690134 -9.635424
-18.084834 66.448857 -20.445722
-18.047349 67.966553 -21.082497
-13.174046 44.20575 -20.243424
-13.158987 42.379881 -19.92093
-13.405247 43.537183 -19.481259
-13.162551 45.947029 -20.583901
-12.916291 44.789727 -21.023573
-13.174046 44.20575 -20.243424
-19.247607 33.367086 -11.182402
-19.777392 32.60929 -10.844312
-19.827846 34.502978 -11.064834
-18.749285 33.982428 -11.522775
-19.247607 33.367086 -11.182402
-18.790526 35.859167 -11.766907
-18.24175 34.580821 -11.886758
-18.749285 33.982428 -11.522775
-24.111857 41.766167 -9.402036
-24.660532 40.930775 -9.02559
-23.526391 42.55221 -9.765743
-23.555122 40.940157 -9.766241
-24.111857 41.766167 -9.402036
-22.024478 44.760326 -10.912393
-22.49327 44.053341 -10.513133
-21.552643 45.546648 -11.294911
-21.427806 43.835172 -11.24437
-22.024478 44.760326 -10.912393
-20.040803 47.849516 -12.759743
-20.511084 46.982238 -12.236642
-19.585028 48.609842 -13.246589
-19.452379 46.769463 -13.031118
-20.040803 47.849516 -12.759743
-18.869158 51.939489 -14.649158
-19.013799 53.684496 -14.936724
-18.3054 50.84667 -14.895285
-18.690205 50.052326 -14.329352
-18.869158 51.939489 -14.649158
-17.344619 60.631138 -19.217565
-17.863384 61.662298 -18.946877
-13.879697 57.696768 -23.226715
-14.219937 57.255684 -22.426752
-14.298583 58.974295 -23.049473
-13.550458 58.102147 -24.060623
-13.471811 56.383536 -23.437902
-13.879697 57.696768 -23.226715
-24.661434 36.054884 -9.12333
-24.061932 35.053431 -9.347161
-18.880505 68.302177 -19.735537
-18.902292 66.708652 -19.26196
-18.439178 68.931873 -20.707127
-18.880505 68.302177 -19.735537
-18.047349 67.966553 -21.082497
-18.439178 68.931873 -20.707127
-12.199013 49.565886 -24.263047
-12.432734 49.207621 -23.38563
-12.199013 49.565886 -24.263047
-12.16864 51.277341 -24.701705
-11.68714 53.553763 -26.875051
-11.91243 53.302721 -26.061118
-11.64102 55.177084 -27.41252
-11.68714 53.553763 -26.875051
-15.081792 32.182825 -14.440842
-15.380161 33.554574 -14.188035
-15.081792 32.182825 -14.440842
-14.806565 33.012262 -15.02748
-13.830605 35.638206 -17.508651
-14.028105 35.043288 -16.854727
-13.724224 37.552544 -17.831991
-13.830605 35.638206 -17.508651
-20.972272 34.880572 -10.583892
-20.968969 33.07814 -10.414475
-21.58361 34.213529 -10.271622
-18.643521 54.536722 -15.571368
-19.013799 53.684496 -14.936724
-18.234213 55.177194 -16.182695
-18.075043 53.374305 -15.826417
-18.643521 54.536722 -15.571368
-17.821743 55.74749 -16.837395
-18.234213 55.177194 -16.182695
-18.390221 56.909906 -16.582346
-16.490851 61.601671 -20.799419
-16.901729 61.101759 -20.001088
-17.045933 62.758003 -20.522576
-15.989266 60.470948 -21.0351
-16.490851 61.601671 -20.799419
-15.492856 59.243916 -21.226579
-15.850236 58.718395 -20.46941
-15.989266 60.470948 -21.0351
-15.135355 59.76484 -22.02089
-14.996324 58.012287 -21.455199
-15.492856 59.243916 -21.226579
-14.764947 60.233646 -22.832182
-15.135355 59.76484 -22.02089
-14.298583 58.974295 -23.049473
-14.764947 60.233646 -22.832182
-16.878743 32.94456 -12.588408
-17.284393 32.221008 -12.162325
-16.483035 33.716803 -13.020889
-16.878743 32.94456 -12.588408
-16.930765 34.909863 -12.83965
-16.119919 34.31937 -13.476074
-16.483035 33.716803 -13.020889
-15.742439 34.863911 -13.936151
-16.119919 34.31937 -13.476074
-16.157576 36.226647 -13.732206
-15.417818 35.461849 -14.444167
-15.380161 33.554574 -14.188035
-15.742439 34.863911 -13.936151
-22.191076 35.338907 -10.140983
-21.58361 34.213529 -10.271622
-22.233196 37.131637 -10.230231
-22.191076 35.338907 -10.140983
-22.837358 36.454584 -9.930175
-17.967818 63.208963 -19.378073
-17.863384 61.662298 -18.946877
-18.484708 65.775059 -19.593844
-18.902292 66.708652 -19.26196
-18.484708 65.775059 -19.593844
-18.084834 66.448857 -20.445722
-17.567943 63.882761 -20.22995
-17.967818 63.208963 -19.378073
-17.045933 62.758003 -20.522576
-17.567943 63.882761 -20.22995
-13.703598 39.392125 -18.133722
-13.724224 37.552544 -17.831991
-13.946573 38.755059 -17.4133
-13.435719 39.950463 -18.855589
-13.703598 39.392125 -18.133722
-13.658068 41.152977 -18.436898
-13.224581 40.494724 -19.604881
-13.435719 39.950463 -18.855589
-13.224581 40.494724 -19.604881
-13.158987 42.379881 -19.92093
-12.707453 45.202648 -21.806783
-12.916291 44.789727 -21.023573
-12.678892 47.043194 -22.14164
-12.707453 45.202648 -21.806783
-12.697672 48.933476 -22.603921
-12.678892 47.043194 -22.14164
-12.923578 48.421287 -21.826331
-12.677419 50.585714 -23.070321
-12.432734 49.207621 -23.38563
-12.697672 48.933476 -22.603921
-20.354353 31.90402 -10.512168
-20.968969 33.07814 -10.414475
-20.354353 31.90402 -10.512168
-19.777392 32.60929 -10.844312
-17.763492 33.420851 -12.024898
-17.284393 32.221008 -12.162325
-17.804732 35.29759 -12.26903
-17.763492 33.420851 -12.024898
-18.24175 34.580821 -11.886758
-24.650413 37.567881 -9.094368
-24.661434 36.054884 -9.12333
-24.715356 39.28573 -9.080675
-24.660532 40.930775 -9.02559
-24.075646 38.436264 -9.416227
-24.650413 37.567881 -9.094368
-24.715356 39.28573 -9.080675
-23.028278 43.392015 -10.147181
-23.526391 42.55221 -9.765743
-22.434649 42.387525 -10.495901
-23.028278 43.392015 -10.147181
-22.49327 44.053341 -10.513133
-21.034993 46.288417 -11.77795
-21.552643 45.546648 -11.294911
-20.432063 45.315315 -12.08558
-21.034993 46.288417 -11.77795
-20.511084 46.982238 -12.236642
-19.125284 49.337467 -13.800595
-19.585028 48.609842 -13.246589
-18.561526 48.244648 -14.046722
-19.125284 49.337467 -13.800595
-18.690205 50.052326 -14.329352
-18.123855 59.273353 -17.703277
-18.491374 58.534073 -16.978899
-17.605089 58.242193 -17.973965
-18.123855 59.273353 -17.703277
-17.066958 57.266829 -18.263766
-17.439619 56.504837 -17.526848
-17.605089 58.242193 -17.973965
-16.789538 59.474806 -19.494408
-17.344619 60.631138 -19.217565
-16.901729 61.101759 -20.001088
-16.696893 57.830984 -18.944357
-16.789538 59.474806 -19.494408
-16.254002 58.301606 -19.72788
-16.531422 56.093628 -18.497239
-17.066958 57.266829 -18.263766
-16.696893 57.830984 -18.944357
-13.189675 58.392488 -24.895939
-13.550458 58.102147 -24.060623
-12.810484 57.062738 -25.132778
-13.189675 58.392488 -24.895939
-12.451759 55.729212 -25.433696
-12.783846 55.455388 -24.572727
-12.810484 57.062738 -25.132778
-12.189229 56.12359 -26.282301
-12.162592 54.516239 -25.722251
-12.451759 55.729212 -25.433696
-11.903431 56.439036 -27.112648
-12.189229 56.12359 -26.282301
-11.64102 55.177084 -27.41252
-11.903431 56.439036 -27.112648
3 0 20 18
3 0 22 20
3 1 74 76
3 76 75 24
3 74 75 76
3 1 77 79
3 77 25 78
3 77 78 79
3 2 80 82
3 82 81 26
3 80 81 82
3 2 83 84
3 2 85 87
3 85 27 86
3 85 86 87
3 3 30 28
3 3 32 30
3 4 35 33
3 4 37 35
3 88 39 89
3 5 43 42
3 6 44 19
3 6 45 44
3 6 47 45
3 8 48 21
3 8 49 48
3 9 90 91
3 9 92 94
3 92 50 93
3 92 93 94
3 96 95 23
3 7 51 46
3 11 52 29
3 11 97 99
3 99 98 52
3 97 98 99
3 11 100 102
3 100 53 101
3 100 101 102
3 12 54 31
3 12 55 54
3 13 103 105
3 105 104 34
3 103 104 105
3 13 106 107
3 13 108 110
3 108 56 109
3 108 109 110
3 14 57 36
3 14 58 57
3 111 59 112
3 113 60 114
3 115 114 59
3 113 114 115
3 116 61 117
3 118 62 119
3 120 119 61
3 118 119 120
3 121 63 122
3 123 64 124
3 125 124 63
3 123 124 125
3 15 126 127
3 15 128 130
3 128 65 129
3 128 129 130
3 15 66 65
3 16 67 38
3 16 68 67
3 10 131 132
3 17 69 40
3 17 70 69
3 17 71 70
3 133 72 134
3 135 134 41
3 133 134 135
3 136 73 137
3 138 137 72
3 136 137 138
3 18 19 5
3 20 19 18
3 20 6 19
3 20 21 6
3 22 21 20
3 22 8 21
3 139 9 140
3 141 23 142
3 143 23 144
3 146 145 23
3 24 147 148
3 150 149 24
3 25 151 152
3 25 153 154
3 26 155 156
3 158 157 26
3 27 159 160
3 27 161 162
3 28 29 7
3 30 29 28
3 30 11 29
3 30 31 11
3 32 31 30
3 32 12 31
3 33 163 165
3 163 34 164
3 163 164 165
3 35 34 33
3 35 13 34
3 35 36 13
3 37 36 35
3 37 14 36
3 166 15 167
3 168 38 169
3 170 169 15
3 168 169 170
3 39 171 173
3 171 38 172
3 171 172 173
3 39 16 38
3 174 40 175
3 176 175 10
3 174 175 176
3 177 40 178
3 179 17 180
3 181 180 40
3 179 180 181
3 182 41 183
3 184 183 17
3 182 183 184
3 185 41 186
3 188 187 41
3 42 189 190
3 43 191 193
3 193 192 42
3 191 192 193
3 43 194 195
3 19 43 5
3 44 43 19
3 44 196 198
3 198 197 43
3 196 197 198
3 44 199 201
3 199 26 200
3 199 200 201
3 45 26 44
3 45 2 26
3 45 46 2
3 47 46 45
3 47 7 46
3 21 47 6
3 48 47 21
3 48 7 47
3 48 28 7
3 49 28 48
3 49 3 28
3 202 33 203
3 50 204 206
3 204 33 205
3 204 205 206
3 50 4 33
3 207 10 208
3 23 209 210
3 212 211 23
3 213 10 214
3 216 215 10
3 46 27 2
3 51 27 46
3 51 217 219
3 219 218 27
3 217 218 219
3 29 51 7
3 52 51 29
3 52 220 222
3 222 221 51
3 220 221 222
3 52 223 224
3 226 225 52
3 53 227 228
3 53 229 230
3 31 53 11
3 54 53 31
3 54 231 233
3 233 232 53
3 231 232 233
3 54 234 236
3 234 24 235
3 234 235 236
3 55 24 54
3 55 1 24
3 34 237 238
3 240 239 34
3 241 42 242
3 56 243 245
3 243 42 244
3 243 244 245
3 56 5 42
3 36 56 13
3 57 56 36
3 57 5 56
3 57 18 5
3 58 18 57
3 58 0 18
3 246 9 247
3 59 248 249
3 59 250 252
3 250 9 251
3 250 251 252
3 59 50 9
3 60 50 59
3 60 4 50
3 253 60 254
3 61 255 257
3 255 60 256
3 255 256 257
3 61 4 60
3 61 37 4
3 62 37 61
3 62 14 37
3 258 62 259
3 63 260 262
3 260 62 261
3 260 261 262
3 63 14 62
3 63 58 14
3 64 58 63
3 64 0 58
3 263 64 264
3 65 265 267
3 265 64 266
3 265 266 267
3 65 0 64
3 65 22 0
3 66 22 65
3 66 8 22
3 38 66 15
3 67 66 38
3 67 8 66
3 67 49 8
3 68 49 67
3 68 3 49
3 268 39 269
3 270 39 271
3 272 16 273
3 274 273 39
3 272 273 274
3 40 275 277
3 277 276 10
3 275 276 277
3 69 278 280
3 280 279 40
3 278 279 280
3 69 281 283
3 281 16 282
3 281 282 283
3 69 68 16
3 70 68 69
3 70 3 68
3 70 32 3
3 71 32 70
3 71 12 32
3 41 71 17
3 72 71 41
3 72 12 71
3 72 55 12
3 73 55 72
3 73 1 55
3 284 73 285
3 286 73 287
3 288 1 289
3 290 289 73
3 288 289 290
3 291 25 292
3 293 292 1
3 291 292 293
3 294 25 295
3 297 296 25
