ply
format ascii 1.0
element vertex 226
property float x
property float y
property float z
element face 180
property list uchar int vertex_index
end_header
35.545082 47.15015 -39.475239
24.343889 40.110817 -48.778278
37.259338 44.001583 -36.112453
28.023546 47.360214 -47.536873
30.814995 44.391586 -45.072807
33.287678 41.019852 -42.080727
21.145306 42.764221 -50.338455
38.35157 48.520649 -32.640305
34.594498 49.269203 -41.078224
33.502506 46.117702 -42.404476
34.49271 44.131592 -40.908718
24.681082 45.261635 -49.176758
23.117804 46.637821 -49.943901
22.737225 41.496101 -49.638958
29.076736 40.882362 -46.034321
38.712849 49.928509 -30.543085
36.435947 45.65023 -37.807835
35.487514 42.451775 -39.256317
26.196281 43.808392 -48.264935
17.697323 40.734245 -51.220325
30.956474 49.24614 -45.416641
32.318535 47.643089 -43.920433
32.072376 42.59103 -43.636356
21.546947 47.821487 -50.549229
19.684755 44.102001 -50.875591
29.402214 45.70153 -46.392567
27.528822 41.895893 -47.244884
25.758102 38.496262 -47.83289
38.489983 44.500114 -32.88982
38.893055 45.82655 -31.019344
39.188442 47.268593 -28.963215
36.325054 50.438694 -37.937187
37.171982 48.440914 -36.148109
37.931477 46.25647 -34.395958
23.270634 38.32465 -49.036512
22.467301 39.017292 -49.466852
23.540557 40.803459 -49.208618
36.842039 42.488868 -36.826883
36.430343 43.313192 -37.674574
36.847642 44.825907 -36.960144
27.277918 48.03013 -48.043997
28.083135 49.968942 -47.695791
27.109913 45.584303 -47.900904
26.364286 46.254219 -48.408028
27.277918 48.03013 -48.043997
16.773349 39.082971 -51.385864
17.500104 38.321228 -51.112232
32.911146 49.436346 -43.308703
32.317211 50.143284 -44.065668
32.509202 39.202269 -42.625603
31.901551 39.987858 -43.403418
32.680027 41.805441 -42.858542
34.923288 40.844532 -39.858418
35.449693 40.213864 -39.011975
20.188883 41.005093 -50.503414
19.458607 41.673983 -50.771982
20.415031 43.433111 -50.607023
27.395375 39.478342 -46.977758
28.302779 41.389128 -46.639602
28.169331 38.971576 -46.372476
26.510015 37.778526 -47.271761
26.643462 40.196078 -47.538887
27.395375 39.478342 -46.977758
39.068113 49.350169 -28.63589
38.950646 48.598551 -29.75315
38.830316 50.680127 -29.425825
39.314346 47.745148 -27.827608
39.068113 49.350169 -28.63589
36.631369 51.667829 -37.050714
36.240972 52.733356 -37.879335
37.054833 50.66894 -36.156176
36.748518 49.439804 -37.042648
36.631369 51.667829 -37.050714
38.141524 47.388559 -33.518131
37.80829 48.483875 -34.400465
38.018337 49.615965 -33.522638
37.271362 41.841774 -35.946869
37.623394 43.21114 -35.268391
28.811295 49.271555 -47.127352
28.083135 49.968942 -47.695791
34.048502 47.693452 -41.74135
33.503131 48.673653 -42.550724
34.049127 50.249403 -41.887598
23.899443 45.949728 -49.560329
24.016851 48.314982 -49.693214
24.79849 47.626888 -49.309643
21.734797 39.748638 -49.841566
20.938837 40.382698 -50.191315
21.941266 42.130161 -49.988707
21.734797 39.748638 -49.841566
22.467301 39.017292 -49.466852
29.769445 40.063547 -45.350876
29.945866 42.636974 -45.553564
30.638575 41.818159 -44.870119
28.828609 38.135622 -45.770861
29.769445 40.063547 -45.350876
28.169331 38.971576 -46.372476
28.828609 38.135622 -45.770861
38.415701 51.263416 -31.387738
38.53221 49.224579 -31.591695
38.235062 50.559486 -32.436348
38.56003 52.062199 -30.24561
38.415701 51.263416 -31.387738
38.830316 50.680127 -29.425825
38.56003 52.062199 -30.24561
38.235062 50.559486 -32.436348
38.018337 49.615965 -33.522638
35.956127 41.713965 -38.398815
35.961731 44.051002 -38.532076
36.430343 43.313192 -37.674574
35.449693 40.213864 -39.011975
35.956127 41.713965 -38.398815
36.842039 42.488868 -36.826883
37.271362 41.841774 -35.946869
25.606686 46.980841 -48.86394
24.79849 47.626888 -49.309643
25.438682 44.535013 -48.720847
25.606686 46.980841 -48.86394
26.364286 46.254219 -48.408028
16.894721 41.214037 -51.441011
17.832562 42.963899 -51.285129
16.894721 41.214037 -51.441011
16.773349 39.082971 -51.385864
31.63618 50.944809 -44.813772
30.975715 51.810242 -45.535397
31.637504 48.444615 -44.668537
31.63618 50.944809 -44.813772
32.317211 50.143284 -44.065668
32.91052 46.880396 -43.162455
32.911146 49.436346 -43.308703
33.503131 48.673653 -42.550724
31.267265 40.917881 -44.151893
30.638575 41.818159 -44.870119
31.443686 43.491308 -44.354581
31.267265 40.917881 -44.151893
31.901551 39.987858 -43.403418
34.425886 41.68444 -40.684618
34.990112 43.291683 -40.082518
34.923288 40.844532 -39.858418
33.82337 40.12857 -41.270623
33.890194 42.575722 -41.494723
34.425886 41.68444 -40.684618
33.088875 38.589067 -41.896215
33.82337 40.12857 -41.270623
32.509202 39.202269 -42.625603
33.088875 38.589067 -41.896215
23.206915 49.09647 -50.056862
24.016851 48.314982 -49.693214
22.421487 49.688303 -50.359526
23.206915 49.09647 -50.056862
22.332375 47.229654 -50.246565
21.540134 50.187731 -50.647983
22.421487 49.688303 -50.359526
20.68759 48.268547 -50.800451
21.540134 50.187731 -50.647983
19.756494 46.408804 -50.963633
20.68759 48.268547 -50.800451
20.615851 45.961744 -50.71241
18.826277 44.647778 -51.112763
19.756494 46.408804 -50.963633
18.691039 42.418123 -51.047958
17.832562 42.963899 -51.285129
18.826277 44.647778 -51.112763
18.464892 39.990105 -50.944349
18.691039 42.418123 -51.047958
19.458607 41.673983 -50.771982
17.500104 38.321228 -51.112232
18.464892 39.990105 -50.944349
20.188883 41.005093 -50.503414
20.938837 40.382698 -50.191315
30.27776 50.214518 -46.067236
30.975715 51.810242 -45.535397
29.50063 48.442213 -46.555199
30.27776 50.214518 -46.067236
30.179344 47.473835 -45.904604
28.71288 46.530872 -46.96472
28.811295 49.271555 -47.127352
29.50063 48.442213 -46.555199
25.408337 35.899764 -47.616864
26.510015 37.778526 -47.271761
24.702651 36.758645 -48.126549
25.408337 35.899764 -47.616864
23.995545 37.565922 -48.599243
25.050995 39.303539 -48.305584
24.702651 36.758645 -48.126549
23.270634 38.32465 -49.036512
23.995545 37.565922 -48.599243
38.671919 43.293064 -32.283633
38.474379 42.903822 -33.009478
38.873455 43.956282 -31.348395
38.671919 43.293064 -32.283633
38.691519 45.163332 -31.954582
39.085583 44.435122 -30.293506
38.873455 43.956282 -31.348395
39.233277 45.156143 -29.265441
39.085583 44.435122 -30.293506
39.040748 46.547572 -29.99128
39.385592 45.724203 -28.214422
39.233277 45.156143 -29.265441
39.385592 45.724203 -28.214422
39.314346 47.745148 -27.827608
34.508669 51.816118 -41.200403
34.049127 50.249403 -41.887598
35.029217 50.825521 -40.322781
34.508669 51.816118 -41.200403
35.504509 49.765995 -39.521288
35.06979 48.209677 -40.276731
35.029217 50.825521 -40.322781
35.894495 51.410267 -38.752262
36.240972 52.733356 -37.879335
35.935068 48.794422 -38.706213
35.504509 49.765995 -39.521288
35.894495 51.410267 -38.752262
37.428543 49.576098 -35.27654
37.054833 50.66894 -36.156176
37.55173 47.348692 -35.272033
37.428543 49.576098 -35.27654
37.80829 48.483875 -34.400465
37.959463 44.338583 -34.410143
37.623394 43.21114 -35.268391
37.595408 45.129026 -35.254205
38.238717 43.460405 -33.657074
37.959463 44.338583 -34.410143
38.21073 45.378292 -33.642889
38.474379 42.903822 -33.009478
38.238717 43.460405 -33.657074
3 0 10 8
3 1 13 11
3 1 34 36
3 36 35 13
3 34 35 36
3 2 37 39
3 39 38 16
3 37 38 39
3 3 40 41
3 3 42 44
3 42 18 43
3 42 43 44
3 46 45 19
3 47 21 48
3 5 22 9
3 5 49 51
3 51 50 22
3 49 50 51
3 53 52 17
3 6 23 12
3 6 24 23
3 6 54 56
3 56 55 24
3 54 55 56
3 4 25 20
3 57 26 58
3 59 58 14
3 57 58 59
3 60 27 61
3 62 61 26
3 60 61 62
3 7 29 28
3 63 30 64
3 65 64 15
3 63 64 65
3 67 66 30
3 68 31 69
3 70 32 71
3 72 71 31
3 70 71 72
3 7 73 75
3 73 33 74
3 73 74 75
3 7 28 33
3 77 76 2
3 78 3 79
3 8 80 82
3 80 9 81
3 80 81 82
3 10 9 8
3 10 5 9
3 11 83 85
3 83 12 84
3 83 84 85
3 13 12 11
3 13 6 12
3 13 86 88
3 88 87 6
3 86 87 88
3 90 89 13
3 91 14 92
3 93 92 4
3 91 92 93
3 94 14 95
3 97 96 14
3 98 15 99
3 100 99 7
3 98 99 100
3 101 15 102
3 104 103 15
3 105 7 106
3 16 17 0
3 107 17 108
3 109 108 16
3 107 108 109
3 111 110 17
3 113 112 2
3 114 11 115
3 18 116 118
3 116 11 117
3 116 117 118
3 18 1 11
3 19 119 120
3 122 121 19
3 123 20 124
3 21 125 127
3 125 20 126
3 125 126 127
3 21 4 20
3 9 128 130
3 128 21 129
3 128 129 130
3 22 21 9
3 22 4 21
3 22 131 133
3 133 132 4
3 131 132 133
3 135 134 22
3 17 10 0
3 136 10 137
3 138 137 17
3 136 137 138
3 139 5 140
3 141 140 10
3 139 140 141
3 142 5 143
3 145 144 5
3 12 146 147
3 23 148 150
3 150 149 12
3 148 149 150
3 23 151 152
3 23 153 154
3 24 155 157
3 157 156 23
3 155 156 157
3 24 158 159
3 24 160 162
3 160 19 161
3 160 161 162
3 163 19 164
3 165 164 24
3 163 164 165
3 167 166 19
3 169 168 6
3 20 170 171
3 25 172 174
3 174 173 20
3 172 173 174
3 25 175 177
3 175 3 176
3 175 176 177
3 14 25 4
3 26 25 14
3 26 3 25
3 26 18 3
3 27 18 26
3 27 1 18
3 178 27 179
3 180 27 181
3 182 1 183
3 184 183 27
3 182 183 184
3 186 185 1
3 28 187 188
3 29 189 191
3 191 190 28
3 189 190 191
3 29 192 193
3 15 29 7
3 30 29 15
3 30 194 196
3 196 195 29
3 194 195 196
3 30 197 198
3 200 199 30
3 201 8 202
3 203 8 204
3 205 0 206
3 207 206 8
3 205 206 207
3 31 208 209
3 31 210 212
3 210 0 211
3 210 211 212
3 31 16 0
3 32 16 31
3 32 2 16
3 213 32 214
3 33 215 217
3 215 32 216
3 215 216 217
3 33 2 32
3 33 218 220
3 220 219 2
3 218 219 220
3 28 221 223
3 223 222 33
3 221 222 223
3 28 224 225
