ply
format ascii 1.0
element vertex 935
property float x
property float y
property float z
element face 971
property list uchar int vertex_index
end_header
-20.491482 -70.482437 12.900571
-25.16872 -56.253098 26.075338
-35.786701 -43.277035 20.051643
-12.766424 -65.522766 29.761169
-27.498064 -47.885513 30.29166
-30.96493 -50.367477 23.137405
-21.196325 -52.287697 32.073872
-18.85857 -77.224236 3.743697
-23.434107 -68.189117 2.256902
-16.963409 -69.923317 22.262154
-15.18876 -77.921196 13.478166
-22.52566 -63.81876 20.230902
-25.109913 -62.664818 10.161342
-27.884697 -56.969296 17.029402
-14.825514 -55.848644 33.822205
-19.077785 -61.389969 28.371344
-3.991147 -78.475258 21.557755
-28.20936 -43.878731 31.664782
-30.291883 -45.397324 29.220285
-19.684063 -73.804207 8.439642
-21.167767 -72.875641 3.310316
-21.908773 -69.651794 7.750471
-18.903002 -70.663979 17.689867
-16.038322 -74.007416 18.181486
-17.983549 -74.311752 13.506019
-17.042963 -78.0084 8.755372
-23.833128 -60.194496 23.247107
-25.264084 -60.346825 18.771765
-26.754641 -56.944942 21.809433
-33.551647 -46.972687 21.595568
-12.924501 -52.296238 35.933598
-23.308544 -54.558453 29.548283
-20.126123 -56.923706 30.483059
-22.235357 -58.789383 27.332396
-20.962685 -63.065495 24.604332
-24.687418 -69.210152 -7.316487
-27.523331 -58.704865 8.215512
-26.363373 -61.219803 4.762958
-28.778736 -57.003357 2.803868
1.02781 -76.24366 26.267
-10.71738 -62.393917 32.723217
-7.653258 -63.786068 33.252838
-9.594017 -67.21064 30.020718
-7.41392 -76.677887 22.109728
-26.513111 -52.16663 28.325857
-28.17454 -53.396786 24.637085
-32.107094 -46.42466 25.912924
-24.334984 -50.248634 31.220142
-25.041176 -66.465782 -3.106242
-14.971702 -68.144516 26.214178
-11.645136 -70.294083 26.473492
-13.953752 -72.548782 22.551977
-12.946303 -76.937111 18.122652
-21.458265 -67.181198 16.689079
-22.731258 -66.723831 11.761
-23.879786 -63.641113 15.283465
-26.406662 -59.870857 13.627431
-28.839619 -56.289505 11.958484
-29.509544 -53.756241 20.24544
-30.495937 -53.494175 15.241746
-10.100848 -53.862808 37.012077
-11.831042 -57.370716 34.664604
-13.911208 -60.684147 32.128437
-17.890717 -54.048119 33.031868
-16.974771 -58.923752 31.387299
-15.850789 -63.71133 29.183262
-17.948921 -65.823151 25.600191
-19.899439 -66.785309 21.580553
-25.523722 -63.850594 0.951156
-27.224144 -61.765274 -4.371099
-29.250834 -59.189922 -9.70512
-8.504879 -72.072227 26.316921
-5.237975 -73.543556 26.158257
-2.075928 -74.902924 26.071005
-0.723555 -79.910118 21.380772
-29.551363 -42.691601 31.206131
-20.102331 -72.079643 10.752866
-20.743073 -71.870506 8.194816
-21.182184 -70.203293 10.324494
-19.767414 -70.650368 15.251424
-18.479481 -72.497597 15.546447
-19.331064 -72.378777 13.139159
-18.882761 -74.074371 11.067651
-24.450005 -58.264996 24.783661
-25.237003 -58.590904 22.687149
-25.962767 -56.752083 24.051783
-34.753021 -45.046638 20.928299
-36.244583 -43.209984 17.636999
-24.241158 -55.521526 27.958008
-22.725975 -56.73867 28.520321
-23.686008 -57.488506 26.804346
-23.081999 -59.535831 25.455631
-28.75481 -56.730389 7.434288
-28.084639 -57.98156 5.545244
-29.270298 -56.033943 4.64732
0.250813 -73.710663 28.499346
-11.646009 -64.155281 31.235577
-10.160877 -64.987274 31.365606
-11.192869 -66.518967 29.828888
-27.03356 -49.989273 29.407742
-28.005367 -50.767578 27.816273
-28.591608 -48.704792 28.79409
-31.536337 -43.92926 28.693848
-31.307096 -45.878563 27.65309
-32.557396 -44.376144 26.975971
-33.340916 -44.921761 25.066978
-33.727291 -42.717842 26.29192
-26.411894 -46.923309 31.492367
-24.835108 -47.893116 31.958988
-25.871124 -49.148529 30.79014
-25.509115 -51.27594 29.864683
-22.292559 -70.593559 2.820699
-23.096376 -69.747475 0.236805
-23.936007 -68.84201 -2.417841
-24.156891 -67.475502 -0.369687
-15.927352 -69.186211 24.31303
-14.39698 -70.350517 24.529099
-15.575109 -71.140953 22.522932
-15.627682 -75.938263 15.944575
-14.537652 -75.463501 18.286001
-14.135033 -77.391647 16.039101
-12.569847 -78.881439 15.816228
-17.95426 -77.699455 6.309853
-22.033566 -65.472351 18.413639
-22.730072 -65.337967 16.003857
-23.335644 -63.693043 17.748606
-26.571136 -58.643784 18.024744
-25.870579 -60.154411 16.338676
-27.131756 -58.422729 15.415279
-27.599237 -58.124233 12.695867
-28.314064 -56.789154 14.530756
-29.586998 -51.942795 23.874224
-28.873425 -53.701134 22.493481
-30.222784 -52.156998 21.75004
-31.36215 -51.945942 16.982344
-13.900056 -54.030087 34.897373
-12.461774 -54.866734 35.318794
-13.346302 -56.518372 34.270966
-12.785734 -59.180256 33.409298
-14.314528 -58.346203 33.05088
-19.489279 -53.124996 32.602512
-19.6595 -59.106167 29.499714
-18.536673 -57.80389 31.037886
-18.136675 -60.184608 29.939917
-16.514666 -61.275574 30.349148
-17.44417 -62.547665 28.86231
-16.962069 -64.755112 27.540197
-18.542589 -63.581551 27.079575
-21.75536 -63.588314 22.501944
-20.362671 -65.021835 23.148285
-21.263882 -65.341911 20.835489
-20.704163 -67.101982 19.229513
-23.398926 -66.159477 9.166524
-24.540545 -64.104744 8.316545
-25.982422 -62.377029 2.786768
-26.651953 -61.633167 0.027815
-26.343327 -62.820045 -1.650876
-11.19171 -72.672401 24.432011
-10.133987 -71.288925 26.330309
-9.661907 -73.500916 24.40712
-6.320217 -75.286232 24.016361
-4.636004 -75.870644 24.054274
-3.655777 -74.368179 25.947613
-3.054983 -76.771194 23.737928
-1.360098 -77.419159 23.777672
-2.282485 -79.036575 21.647644
-27.931589 -45.814461 31.02319
-29.018129 -46.645287 29.724621
-29.307438 -44.638161 30.549328
-30.535831 -43.444454 30.03973
-19.263605 -75.504135 6.1908
-20.433777 -73.403183 5.845697
-21.579556 -71.124039 5.596
-22.674105 -68.971252 4.933665
-17.982233 -70.384621 20.064583
-16.491257 -72.005241 20.271893
-17.492882 -72.436333 17.936544
-17.133175 -74.236816 15.774312
-16.5748 -76.180504 13.642829
-17.580059 -76.067558 11.182757
-18.434731 -75.921783 8.597299
-23.157217 -62.023731 21.823572
-23.917021 -62.123257 19.402962
-24.577847 -60.3974 21.05311
-26.015266 -58.617622 20.405827
-27.377655 -57.020191 19.463083
-13.457898 -49.834114 36.376038
-14.430919 -51.629784 35.380306
-15.400354 -53.448757 34.383572
-22.351713 -53.551758 30.825649
-20.622156 -54.558571 31.392689
-21.692345 -55.779167 30.035757
-21.216099 -58.013325 28.9611
-20.655094 -60.201393 27.816689
-20.065685 -62.312122 26.599506
-21.571001 -60.981438 26.039742
-22.36912 -61.591652 24.10778
-26.247675 -60.789207 9.16764
-25.626581 -62.179394 7.458509
-26.817041 -60.119099 6.497345
-27.558023 -59.102226 3.788991
-28.213959 -58.211967 1.277575
-9.733917 -60.669403 34.131191
-8.267233 -61.299637 34.500771
-9.203177 -63.262222 32.890102
-8.57452 -65.675545 31.565491
-7.973225 -68.108208 29.981533
-9.114195 -75.872253 22.185541
-25.848656 -54.178249 27.318857
-26.739391 -54.741879 25.419029
-27.415785 -52.770145 26.675549
-28.824266 -51.546597 25.892311
-30.001656 -47.347626 28.213957
-30.792917 -47.973888 26.582865
-31.658291 -48.338352 24.566601
-32.881954 -46.809315 23.819277
-34.057716 -45.097519 23.131559
-35.190575 -43.269474 22.313223
-23.2271 -48.916718 32.366318
-22.739782 -51.215931 31.699047
-23.853319 -52.34296 30.465805
-24.852428 -53.401371 29.010521
-24.845863 -67.858307 -5.179274
-13.79548 -67.040131 28.015516
-12.313542 -67.893112 28.194624
-13.320715 -69.359253 26.311665
-12.786846 -71.564713 24.535429
-12.279982 -73.68187 22.656324
-14.973601 -73.364159 20.522171
-13.475327 -74.757904 20.394152
-11.902051 -75.972343 20.296206
-20.998333 -68.803864 14.747504
-22.153877 -66.999069 14.160406
-23.354422 -65.102303 13.377618
-24.535555 -63.170605 12.725153
-24.567989 -62.007313 16.98765
-25.131296 -61.758873 14.522038
-25.753756 -61.251286 11.78094
-26.945223 -59.392864 10.839304
-28.128504 -57.54401 10.193412
-27.394007 -55.235683 23.393894
-28.168886 -55.282738 21.141991
-28.638203 -55.447994 18.756069
-30.065969 -53.642914 17.866129
-29.207956 -55.217426 16.161709
-29.726957 -54.813553 13.559959
-11.540985 -53.232735 36.384037
-10.989176 -55.703587 35.775471
-10.375362 -58.038193 35.108257
-11.248683 -59.842155 33.829269
-12.243814 -61.672867 32.417538
-13.249756 -63.14064 31.07889
-16.415596 -54.962234 33.398216
-18.974909 -55.524914 31.884245
-17.496641 -56.421791 32.283669
-15.913081 -57.434673 32.657425
-15.442316 -59.939644 31.717793
-14.874017 -62.18961 30.776848
-14.334961 -64.634422 29.501068
-15.417838 -65.998817 27.744415
-16.513659 -67.019897 25.917078
-17.46365 -67.948463 23.917458
-19.490694 -64.45887 25.144949
-18.916811 -66.480522 23.648117
-18.504299 -68.378616 21.90797
-19.442459 -68.696434 19.652126
-20.247036 -68.886238 17.221035
-23.035223 -67.478271 7.139532
-23.761057 -66.742531 4.370765
-24.87199 -64.540718 3.5732
-24.435722 -66.085373 1.665049
-25.267893 -65.114494 -1.084869
-26.112339 -64.086197 -3.595548
-26.999849 -63.088367 -6.25663
-29.974047 -54.983692 2.001979
-28.968538 -57.189857 -1.460869
-28.185335 -60.604271 -7.107281
-10.613407 -68.851868 28.261885
-9.002326 -69.678246 28.269226
-7.950288 -74.4189 24.251728
-6.849127 -72.811592 26.268206
-1.129136 -73.199806 28.249325
-0.538789 -75.678215 26.004622
0.273352 -78.089409 23.847916
0.973312 -80.58622 21.467165
0.122389 -82.331467 19.08873
-35.525869 -44.140488 19.328825
-35.009029 -45.025289 19.767153
-35.269861 -44.161836 20.489971
-36.015642 -43.24351 18.844321
-35.75481 -44.106962 18.121503
-35.525869 -44.140488 19.328825
-29.599592 -55.461758 5.616079
-29.012554 -56.382166 6.040804
-29.341848 -55.809981 7.009563
-0.090593 -72.498066 29.538474
0.627015 -72.772412 29.731593
-32.657686 -43.375839 27.502578
-32.046867 -44.152702 27.83491
-32.147157 -43.152397 28.361517
-33.242634 -42.546688 27.160553
-33.142343 -43.546993 26.633946
-32.657686 -43.375839 27.502578
-19.253622 -77.032464 2.383939
-18.649101 -78.08263 2.503674
-14.454976 -78.652729 13.50335
-13.928113 -78.387955 14.783818
-14.661897 -77.656421 14.758633
-14.904438 -78.889328 12.312837
-14.454976 -78.652729 13.50335
-18.204114 -78.310166 3.778686
-17.751959 -78.547775 5.061764
-18.406415 -77.461846 5.026775
-18.649101 -78.08263 2.503674
-18.204114 -78.310166 3.778686
-20.342802 -52.706347 32.338192
-19.807173 -51.876784 32.891661
-20.660696 -51.458134 32.627341
-24.825229 -63.384781 9.238943
-24.246319 -64.370491 9.643445
-24.531003 -63.650528 10.565843
-27.228374 -60.489452 -0.263381
-26.858455 -60.97711 1.040661
-27.060685 -61.089006 -1.203876
-27.228374 -60.489452 -0.263381
-10.194949 -74.233799 23.342512
-10.426808 -73.086658 24.419565
-10.95985 -73.819541 23.354957
-4.313575 -77.172951 22.806014
-5.157186 -76.775349 22.899755
-4.834758 -78.077656 21.651496
-30.621529 -42.438324 30.385432
-30.043597 -43.068027 30.62293
-30.129295 -42.061898 30.968632
-31.112333 -42.736919 29.782039
-30.621529 -42.438324 30.385432
-27.478164 -44.339379 31.904012
-27.735396 -43.288353 32.120792
-28.070474 -44.846596 31.343986
-27.339279 -45.307243 31.583216
-27.478164 -44.339379 31.904012
-33.237705 -47.830336 20.861521
-32.913593 -47.852063 21.98942
-13.745479 -48.634686 36.542208
-13.046844 -48.943123 36.866028
-15.185142 -51.198542 35.154823
-14.70661 -50.32855 35.600528
-15.66986 -52.108029 34.656456
-14.915636 -52.539271 34.881939
-15.185142 -51.198542 35.154823
-24.547066 -69.975632 -8.312998
-24.090795 -70.512424 -7.124275
1.818986 -76.563339 26.423063
1.377718 -75.320019 27.494382
1.45668 -77.45166 25.196034
1.818986 -76.563339 26.423063
-29.12247 -50.528681 26.511928
-28.414817 -51.157088 26.854292
-28.71302 -50.139172 27.473909
-29.56064 -50.749304 25.563283
-29.12247 -50.528681 26.511928
-34.27032 -44.082529 23.794733
-33.699316 -45.00964 24.099269
-33.911921 -43.99465 24.762442
-34.83675 -43.168506 23.385565
-34.624145 -44.183497 22.722391
-34.27032 -44.082529 23.794733
-21.03311 -73.630455 2.107834
-20.600562 -73.99633 3.415618
-25.499893 -65.915897 -4.3868
-25.402237 -66.61216 -5.423316
-24.94352 -67.162045 -4.142758
-12.160508 -77.533493 18.074349
-11.638382 -77.051109 19.161127
-12.424177 -76.454727 19.209429
-11.733137 -79.569572 15.697321
-12.295336 -79.958397 14.528483
-16.32191 -78.970639 8.772239
-16.622395 -77.976276 9.99226
-29.09086 -55.994175 10.633112
-28.735302 -56.621427 9.750576
-28.484061 -56.916758 11.075948
-9.413113 -54.227169 37.31583
-9.76711 -52.940447 37.604754
-9.808523 -55.166105 36.64631
-9.413113 -54.227169 37.31583
-12.232743 -52.764487 36.158817
-11.800134 -51.909138 36.665487
-12.491892 -51.440889 36.440268
-17.359268 -53.248396 33.543425
-18.168154 -52.809231 33.323707
-17.153157 -54.505177 33.215042
-16.621708 -53.705454 33.726598
-17.359268 -53.248396 33.543425
-22.507706 -67.457779 10.799566
-22.166271 -67.698211 12.037439
-23.575664 -66.447853 6.75835
-23.217074 -66.818874 8.153028
-23.757516 -65.788456 7.771846
-23.938581 -66.079983 5.373966
-23.39814 -67.110401 5.755148
-23.575664 -66.447853 6.75835
-25.797691 -62.276792 5.108987
-25.429295 -62.756588 6.456762
-25.994977 -61.699599 6.110734
-30.594346 -53.944954 1.558536
-30.24487 -54.497183 2.947456
-29.56771 -56.10176 -1.892144
-29.174345 -56.679321 -0.592686
-28.718084 -59.897097 -8.406201
-28.726987 -59.44527 -7.396393
-29.259737 -58.738096 -8.695312
-28.633131 -60.483759 -9.24702
-28.100381 -61.190933 -7.9481
-28.718084 -59.897097 -8.406201
-29.176403 -59.802046 -10.590566
-28.633131 -60.483759 -9.24702
-7.232344 -62.952074 34.000439
-7.539331 -61.708858 34.624405
-7.960245 -62.542852 33.876804
-7.961113 -71.215793 27.310868
-8.209836 -70.018803 28.287021
-8.753602 -70.875236 27.293073
-5.549437 -72.342929 27.173913
-6.355013 -71.976947 27.228887
-6.043551 -73.177574 26.213231
-4.720775 -72.696857 27.163709
-5.549437 -72.342929 27.173913
-2.393963 -73.688946 27.136187
-3.183888 -73.421573 27.07449
-2.865852 -74.635551 26.009309
-1.602532 -74.051365 27.160165
-1.920567 -72.837387 28.225347
-2.393963 -73.688946 27.136187
0.49602 -83.575279 17.857078
-0.349597 -83.196705 17.879748
0.969647 -82.735714 19.06492
0.49602 -83.575279 17.857078
-29.031783 -42.328789 31.67973
-28.880361 -43.285166 31.435457
-28.360782 -42.922354 31.909055
-29.550991 -41.78805 31.511784
-29.031783 -42.328789 31.67973
-30.129295 -42.061898 30.968632
-29.550991 -41.78805 31.511784
-28.360782 -42.922354 31.909055
-27.735396 -43.288353 32.120792
-34.463436 -45.93272 20.139982
-33.862749 -46.895744 20.473616
-34.152334 -46.009663 21.261933
-34.463436 -45.93272 20.139982
-35.009029 -45.025289 19.767153
-35.941374 -44.070888 16.861157
-35.75481 -44.106962 18.121503
-36.415611 -43.123178 16.393785
-35.941374 -44.070888 16.861157
-25.129966 -68.733398 -8.577233
-25.255968 -67.950966 -7.549334
0.98922 -74.05352 28.610555
0.627015 -72.772412 29.731593
0.639311 -74.977161 27.383173
1.377718 -75.320019 27.494382
0.98922 -74.05352 28.610555
-29.006141 -49.107778 27.962818
-28.71302 -50.139172 27.473909
-28.298488 -49.736185 28.305181
-34.105108 -42.892691 25.374913
-33.911921 -43.99465 24.762442
-33.534104 -43.819801 25.679449
-25.623501 -47.408213 31.725678
-25.032574 -46.802193 32.258585
-25.820967 -46.317289 32.025275
-22.166198 -71.297905 1.742678
-21.603802 -72.438946 1.987486
-21.730163 -71.7346 3.065507
-22.568106 -70.874863 0.450731
-22.166198 -71.297905 1.742678
-22.694468 -70.170517 1.528752
-22.961062 -70.537929 -0.92845
-22.568106 -70.874863 0.450731
-23.516191 -69.294742 -1.090518
-23.380878 -70.085197 -2.255773
-22.961062 -70.537929 -0.92845
-13.145519 -79.132851 14.672382
-13.35244 -78.136543 15.927664
-13.928113 -78.387955 14.783818
-12.295336 -79.958397 14.528483
-13.145519 -79.132851 14.672382
-17.273415 -78.731136 6.310681
-16.817766 -78.885608 7.53344
-17.498612 -77.853927 7.532612
-17.273415 -78.731136 6.310681
-17.751959 -78.547775 5.061764
-31.998974 -51.054758 16.566719
-31.753708 -51.178368 17.779261
-31.576386 -51.815466 15.688806
-31.998974 -51.054758 16.566719
-31.14328 -52.589582 14.818506
-30.929043 -52.720059 16.112045
-31.576386 -51.815466 15.688806
-30.723275 -53.290298 13.943773
-31.14328 -52.589582 14.818506
-10.418871 -52.583832 37.281366
-9.76711 -52.940447 37.604754
-18.967435 -52.34767 33.109029
-19.807173 -51.876784 32.891661
-18.689998 -53.586557 32.81719
-18.168154 -52.809231 33.323707
-18.967435 -52.34767 33.109029
-23.67551 -65.397858 10.068435
-23.065092 -66.441654 10.463762
-23.341676 -65.680035 11.365672
-23.969735 -65.13211 8.741535
-23.67551 -65.397858 10.068435
-24.246319 -64.370491 9.643445
-24.328325 -64.761089 7.346856
-23.757516 -65.788456 7.771846
-23.969735 -65.13211 8.741535
-26.523689 -61.349041 2.420138
-26.172897 -61.798416 3.774863
-26.714165 -60.770428 3.408233
-26.317187 -62.005098 1.407291
-26.523689 -61.349041 2.420138
-26.858455 -60.97711 1.040661
-26.906372 -61.682446 -2.043221
-26.49764 -62.226606 -0.811531
-27.060685 -61.089006 -1.203876
-27.346781 -61.15506 -3.403333
-26.783735 -62.292659 -3.010988
-26.906372 -61.682446 -2.043221
-29.793771 -58.000179 -9.985976
-29.259737 -58.738096 -8.695312
-29.772171 -58.475448 -10.906739
-29.793771 -58.000179 -9.985976
-6.910008 -64.189062 33.322947
-7.393194 -65.05847 32.470284
-5.999293 -76.483143 22.880799
-6.867069 -75.982059 23.063045
-6.546144 -77.17897 21.927482
-5.47811 -75.578438 24.035317
-5.999293 -76.483143 22.880799
-5.157186 -76.775349 22.899755
-31.612586 -42.979322 29.109099
-31.036084 -43.686857 29.366789
-31.112333 -42.736919 29.782039
-32.147157 -43.152397 28.361517
-31.612586 -42.979322 29.109099
-26.579431 -45.861668 31.817805
-25.820967 -46.317289 32.025275
-27.171741 -46.368885 31.257779
-26.579431 -45.861668 31.817805
-27.339279 -45.307243 31.583216
-19.64848 -75.310577 4.855861
-19.445963 -76.170628 3.632309
-19.061087 -76.364186 4.967249
-20.233567 -74.260101 4.683309
-19.64848 -75.310577 4.855861
-19.848691 -74.453659 6.018249
-20.800772 -73.139412 4.578006
-20.600562 -73.99633 3.415618
-20.233567 -74.260101 4.683309
-16.388314 -77.062329 12.435989
-15.695294 -77.932674 12.353657
-15.88178 -77.05085 13.560498
-16.890943 -77.005855 11.205953
-16.388314 -77.062329 12.435989
-17.07743 -76.124031 12.412793
-17.311511 -77.037979 9.969064
-16.622395 -77.976276 9.99226
-16.890943 -77.005855 11.205953
-31.308554 -50.380022 22.030394
-31.620235 -49.549458 22.760339
-33.237705 -47.830336 20.861521
-33.862749 -46.895744 20.473616
-12.758591 -50.209828 36.661488
-13.046844 -48.943123 36.866028
-13.191199 -51.065176 36.154818
-12.491892 -51.440889 36.440268
-12.758591 -50.209828 36.661488
-14.220099 -49.430715 36.098394
-13.745479 -48.634686 36.542208
-13.944408 -50.731949 35.878172
-14.220099 -49.430715 36.098394
-14.70661 -50.32855 35.600528
-24.547066 -69.975632 -8.312998
-25.129966 -68.733398 -8.577233
-27.31149 -59.71164 2.92125
-26.714165 -60.770428 3.408233
-26.960698 -60.161015 4.275975
-27.639458 -59.26651 1.665541
-27.31149 -59.71164 2.92125
-27.885991 -58.657097 2.533283
-28.009377 -58.778852 0.361498
-27.639458 -59.26651 1.665541
-9.000575 -60.98452 34.315981
-8.599317 -60.101948 34.978878
-9.33266 -59.786831 34.794088
-7.853825 -66.003208 31.626611
-7.393194 -65.05847 32.470284
-8.113889 -64.730806 32.409165
-7.553178 -67.21954 30.834632
-7.853825 -66.003208 31.626611
-8.273872 -66.891876 30.773512
-7.179784 -68.428539 30.02971
-7.553178 -67.21954 30.834632
-9.641364 -76.555347 21.104127
-9.921093 -75.419467 22.231722
-8.777035 -77.02858 21.053697
-9.641364 -76.555347 21.104127
-7.926898 -77.431397 21.01579
-8.264057 -76.27507 22.147635
-8.777035 -77.02858 21.053697
-7.098829 -77.859936 20.932488
-7.926898 -77.431397 21.01579
-6.546144 -77.17897 21.927482
-7.098829 -77.859936 20.932488
-4.544076 -79.29562 20.420136
-4.834758 -78.077656 21.651496
-3.636701 -79.69677 20.35532
-4.544076 -79.29562 20.420136
-29.942006 -50.947403 24.55424
-29.205632 -51.744696 24.883268
-29.56064 -50.749304 25.563283
-30.630972 -50.159744 24.18583
-30.275964 -51.155136 23.505814
-29.942006 -50.947403 24.55424
-29.711165 -48.429195 27.672752
-29.006141 -49.107778 27.962818
-29.296632 -48.026209 28.504024
-30.106795 -48.742327 26.857205
-29.711165 -48.429195 27.672752
-30.397286 -47.660757 27.398411
-30.544965 -48.96295 25.90856
-30.106795 -48.742327 26.857205
-30.977652 -49.145181 24.900428
-30.544965 -48.96295 25.90856
-31.225604 -48.15612 25.574733
-31.311611 -49.352914 23.852003
-30.630972 -50.159744 24.18583
-30.977652 -49.145181 24.900428
-31.966915 -48.534895 23.474936
-31.620235 -49.549458 22.760339
-31.311611 -49.352914 23.852003
-32.578747 -47.770376 23.101275
-31.966915 -48.534895 23.474936
-32.270122 -47.573833 24.192939
-33.216801 -46.891001 22.707422
-32.913593 -47.852063 21.98942
-32.578747 -47.770376 23.101275
-21.405901 -51.067282 32.427076
-20.660696 -51.458134 32.627341
-24.293087 -47.249922 32.435951
-25.032574 -46.802193 32.258585
-23.489083 -47.761723 32.639616
-24.293087 -47.249922 32.435951
-24.031104 -48.404917 32.162653
-22.684354 -48.223809 32.827717
-23.489083 -47.761723 32.639616
-22.421288 -49.381793 32.5733
-22.684354 -48.223809 32.827717
-22.17763 -50.531399 32.239664
-22.421288 -49.381793 32.5733
-22.983441 -50.066325 32.032682
-21.968054 -51.751814 31.88646
-21.405901 -51.067282 32.427076
-22.17763 -50.531399 32.239664
-19.253622 -77.032464 2.383939
-19.445963 -76.170628 3.632309
-21.03311 -73.630455 2.107834
-21.603802 -72.438946 1.987486
-24.222883 -69.750157 -6.055631
-24.090795 -70.512424 -7.124275
-23.847177 -69.566085 -3.606308
-23.380878 -70.085197 -2.255773
-24.302105 -69.074234 -4.987024
-23.847177 -69.566085 -3.606308
-24.390935 -68.350158 -3.798558
-24.766641 -68.534229 -6.247881
-24.222883 -69.750157 -6.055631
-24.302105 -69.074234 -4.987024
-25.335191 -67.275043 -6.480727
-25.255968 -67.950966 -7.549334
-24.766641 -68.534229 -6.247881
-25.335191 -67.275043 -6.480727
-25.402237 -66.61216 -5.423316
-11.503986 -74.324276 22.467113
-10.95985 -73.819541 23.354957
-11.735846 -73.177135 23.544168
-11.315021 -75.469513 21.287054
-11.503986 -74.324276 22.467113
-12.091017 -74.827106 21.476265
-11.035291 -76.605392 20.15946
-11.315021 -75.469513 21.287054
-11.035291 -76.605392 20.15946
-11.638382 -77.051109 19.161127
-11.972279 -78.505657 16.921138
-12.160508 -77.533493 18.074349
-12.758075 -77.909275 16.96944
-11.972279 -78.505657 16.921138
-11.733137 -79.569572 15.697321
-14.904438 -78.889328 12.312837
-15.695294 -77.932674 12.353657
-16.32191 -78.970639 8.772239
-16.817766 -78.885608 7.53344
-21.299808 -68.738228 13.530691
-21.046383 -69.577515 12.607225
-20.744908 -69.643151 13.824037
-21.877581 -67.835831 13.237143
-21.299808 -68.738228 13.530691
-21.576105 -67.901466 14.453955
-22.442568 -66.86145 12.960703
-22.166271 -67.698211 12.037439
-21.877581 -67.835831 13.237143
-23.653258 -64.86927 12.173982
-23.341676 -65.680035 11.365672
-23.04284 -65.913067 12.569309
-24.243824 -63.903422 11.847749
-23.653258 -64.86927 12.173982
-23.944989 -64.136454 13.051386
-24.822734 -62.917711 11.443248
-24.531003 -63.650528 10.565843
-24.243824 -63.903422 11.847749
-29.048455 -56.214617 8.371014
-28.441657 -57.1372 8.81385
-28.735302 -56.621427 9.750576
-29.341848 -55.809981 7.009563
-29.048455 -56.214617 8.371014
-30.937481 -51.274783 21.336712
-30.593857 -51.262237 22.443722
-31.308554 -50.380022 22.030394
-30.526784 -52.12048 20.668012
-30.937481 -51.274783 21.336712
-30.170164 -52.920101 19.915712
-29.866164 -52.95662 20.99774
-30.526784 -52.12048 20.668012
-31.096467 -52.014952 18.284165
-31.753708 -51.178368 17.779261
-30.448377 -52.863438 18.726057
-31.096467 -52.014952 18.284165
-30.714059 -52.794428 17.424236
-29.787757 -53.699578 19.055785
-30.170164 -52.920101 19.915712
-30.448377 -52.863438 18.726057
-30.338785 -53.949987 13.10288
-30.111447 -54.153864 14.400852
-30.723275 -53.290298 13.943773
-29.912323 -54.637298 12.243249
-30.338785 -53.949987 13.10288
-29.468654 -55.375275 11.442512
-29.283288 -55.551529 12.759221
-29.912323 -54.637298 12.243249
-29.09086 -55.994175 10.633112
-29.468654 -55.375275 11.442512
-11.138939 -52.268795 36.967346
-11.800134 -51.909138 36.665487
-10.820916 -53.547771 36.698057
-10.418871 -52.583832 37.281366
-11.138939 -52.268795 36.967346
-10.252688 -56.086495 36.028008
-9.808523 -55.166105 36.64631
-10.545012 -54.783197 36.393774
-9.945781 -57.253798 35.694401
-10.252688 -56.086495 36.028008
-10.682269 -56.87089 35.441864
-9.653382 -58.471226 35.282621
-9.945781 -57.253798 35.694401
-10.05464 -59.353798 34.619724
-9.33266 -59.786831 34.794088
-9.653382 -58.471226 35.282621
-16.114087 -52.948715 34.219276
-15.66986 -52.108029 34.656456
-15.907975 -54.205495 33.890894
-16.114087 -52.948715 34.219276
-16.621708 -53.705454 33.726598
-33.78124 -41.698237 26.855813
-33.242634 -42.546688 27.160553
-34.253128 -41.835933 25.952623
-33.78124 -41.698237 26.855813
-34.105108 -42.892691 25.374913
-34.253128 -41.835933 25.952623
-35.355761 -42.270611 22.987884
-34.83675 -43.168506 23.385565
-35.667051 -42.385939 21.90801
-35.355761 -42.270611 22.987884
-35.965114 -42.389719 20.77722
-35.488638 -43.273255 21.182433
-35.667051 -42.385939 21.90801
-36.225916 -42.376288 19.666996
-35.965114 -42.389719 20.77722
-36.454857 -42.342762 18.459674
-36.015642 -43.24351 18.844321
-36.225916 -42.376288 19.666996
-36.650793 -42.296095 17.281757
-36.454857 -42.342762 18.459674
-36.415611 -43.123178 16.393785
-36.650793 -42.296095 17.281757
-21.391734 -69.437942 11.319187
-20.836833 -70.342865 11.612533
-21.046383 -69.577515 12.607225
-21.733168 -69.19751 10.081313
-21.391734 -69.437942 11.319187
-22.096463 -68.921761 8.794301
-21.545479 -69.927543 9.037482
-21.733168 -69.19751 10.081313
-22.841539 -67.175602 9.502328
-22.507706 -67.457779 10.799566
-23.065092 -66.441654 10.463762
-22.659688 -67.834999 8.488832
-22.841539 -67.175602 9.502328
-23.217074 -66.818874 8.153028
-22.471998 -68.565033 7.445002
-22.096463 -68.921761 8.794301
-22.659688 -67.834999 8.488832
-24.886277 -63.719263 6.88578
-25.083563 -63.142069 7.887527
-25.429295 -62.756588 6.456762
-24.328325 -64.761089 7.346856
-24.886277 -63.719263 6.88578
-25.607215 -62.855406 4.120891
-25.797691 -62.276792 5.108987
-26.172897 -61.798416 3.774863
-25.051999 -63.93725 4.514107
-25.607215 -62.855406 4.120891
-25.427206 -63.458873 3.179984
-24.494048 -64.979076 4.975184
-25.051999 -63.93725 4.514107
-24.316524 -65.641625 3.971982
-23.938581 -66.079983 5.373966
-24.494048 -64.979076 4.975184
-26.035475 -64.726105 -4.631453
-25.499893 -65.915897 -4.3868
-25.576757 -65.27599 -3.350895
-26.47923 -64.22719 -5.961994
-26.035475 -64.726105 -4.631453
-26.556094 -63.587282 -4.926089
-26.955213 -63.69681 -7.314626
-26.47923 -64.22719 -5.961994
-29.892996 -55.022309 4.270126
-29.599592 -55.461758 5.616079
-29.622172 -55.508817 3.324649
-29.892996 -55.022309 4.270126
-30.24487 -54.497183 2.947456
-30.289142 -54.513729 0.69761
-30.594346 -53.944954 1.558536
-29.677099 -55.576239 1.138738
-30.289142 -54.513729 0.69761
-29.079444 -56.586071 1.539683
-29.376391 -55.993524 2.402923
-29.677099 -55.576239 1.138738
-28.797055 -57.190376 0.776536
-28.496347 -57.607662 2.040722
-29.079444 -56.586071 1.539683
-28.591248 -57.700912 -0.091647
-28.797055 -57.190376 0.776536
-29.174345 -56.679321 -0.592686
-28.386666 -58.267797 -1.007723
-28.009377 -58.778852 0.361498
-28.591248 -57.700912 -0.091647
-29.385885 -56.611179 -2.779158
-29.56771 -56.10176 -1.892144
-28.788339 -57.76721 -2.415231
-29.385885 -56.611179 -2.779158
-28.386666 -58.267797 -1.007723
-28.788339 -57.76721 -2.415231
-27.790662 -60.60152 -4.750781
-27.346781 -61.15506 -3.403333
-28.271257 -60.021019 -6.118872
-28.726987 -59.44527 -7.396393
-27.704739 -61.184772 -5.73919
-27.790662 -60.60152 -4.750781
-28.271257 -60.021019 -6.118872
-27.507638 -62.432981 -7.522775
-27.592592 -61.846319 -6.681956
-28.100381 -61.190933 -7.9481
-26.955213 -63.69681 -7.314626
-27.507638 -62.432981 -7.522775
-29.176403 -59.802046 -10.590566
-29.772171 -58.475448 -10.906739
-7.883285 -60.45072 35.190838
-8.599317 -60.101948 34.978878
-7.883285 -60.45072 35.190838
-7.539331 -61.708858 34.624405
-7.232344 -62.952074 34.000439
-6.910008 -64.189062 33.322947
-7.695286 -69.233784 29.143174
-8.487775 -68.893227 29.12538
-8.209836 -70.018803 28.287021
-7.179784 -68.428539 30.02971
-7.695286 -69.233784 29.143174
-9.388051 -74.686585 23.29633
-10.194949 -74.233799 23.342512
-9.921093 -75.419467 22.231722
-7.133237 -71.585476 27.28651
-7.961113 -71.215793 27.310868
-7.677003 -72.44191 26.292563
-7.133237 -71.585476 27.28651
-6.355013 -71.976947 27.228887
-3.929676 -73.109169 27.058387
-4.720775 -72.696857 27.163709
-4.446876 -73.955867 26.052935
-3.929676 -73.109169 27.058387
-3.183888 -73.421573 27.07449
-1.49011 -72.01075 29.23487
-1.920567 -72.837387 28.225347
-0.780567 -72.242638 29.413463
-1.49011 -72.01075 29.23487
-0.439161 -73.455234 28.374336
-0.090593 -72.498066 29.538474
-0.780567 -72.242638 29.413463
1.079451 -78.374535 23.986493
1.45668 -77.45166 25.196034
0.650581 -77.166535 25.057458
1.429431 -79.62294 22.796117
1.079451 -78.374535 23.986493
0.623332 -79.337815 22.657541
1.749363 -80.852905 21.602657
1.429431 -79.62294 22.796117
-2.78237 -79.977429 20.400264
-3.136816 -78.755916 21.602699
-3.636701 -79.69677 20.35532
-1.921543 -80.364231 20.338773
-2.78237 -79.977429 20.400264
-1.142078 -80.801002 20.205337
-1.50302 -79.473346 21.514208
-1.921543 -80.364231 20.338773
-0.719106 -82.011677 19.059316
-0.349597 -83.196705 17.879748
-0.300583 -81.120792 20.234751
-1.142078 -80.801002 20.205337
-0.719106 -82.011677 19.059316
1.395108 -81.86309 20.254137
0.547851 -81.458844 20.277948
0.969647 -82.735714 19.06492
1.749363 -80.852905 21.602657
1.395108 -81.86309 20.254137
3 0 78 76
3 0 81 79
3 0 76 81
3 1 85 83
3 2 286 288
3 288 287 86
3 286 287 288
3 2 289 291
3 289 87 290
3 289 290 291
3 1 90 88
3 1 83 90
3 292 94 293
3 294 293 92
3 292 293 294
3 295 95 296
3 3 98 96
3 4 101 99
3 297 104 298
3 299 298 102
3 297 298 299
3 300 106 301
3 302 301 104
3 300 301 302
3 4 109 107
3 4 99 109
3 7 303 304
3 8 112 111
3 8 114 112
3 9 117 115
3 10 120 118
3 10 305 307
3 307 306 120
3 305 306 307
3 10 308 309
3 7 310 312
3 312 311 122
3 310 311 312
3 7 313 314
3 11 125 123
3 13 128 126
3 13 130 128
3 5 133 131
3 14 137 135
3 14 139 137
3 6 315 317
3 315 140 316
3 315 316 317
3 15 143 141
3 15 145 143
3 15 147 145
3 11 150 148
3 11 123 150
3 12 318 320
3 318 153 319
3 318 319 320
3 321 155 322
3 324 323 155
3 325 159 326
3 327 326 157
3 325 326 327
3 16 328 330
3 328 161 329
3 328 329 330
3 16 163 161
3 16 165 163
3 17 168 166
3 331 169 332
3 333 332 75
3 331 332 333
3 335 334 169
3 17 336 337
3 17 338 340
3 338 166 339
3 338 339 340
3 19 171 170
3 21 172 77
3 21 173 172
3 22 176 174
3 24 177 80
3 24 178 177
3 24 179 178
3 19 180 82
3 19 170 180
3 26 183 181
3 28 184 84
3 28 185 184
3 29 341 342
3 343 186 344
3 345 187 346
3 347 188 348
3 349 348 187
3 347 348 349
3 31 191 189
3 33 192 89
3 33 193 192
3 33 195 193
3 26 196 91
3 26 181 196
3 35 350 351
3 36 199 197
3 38 200 93
3 38 201 200
3 39 352 353
3 39 354 355
3 40 204 202
3 42 205 97
3 42 206 205
3 44 210 208
3 356 211 357
3 358 357 100
3 356 357 358
3 360 359 211
3 18 212 167
3 46 213 103
3 46 214 213
3 46 215 214
3 361 216 362
3 363 362 105
3 361 362 363
3 364 217 365
3 366 365 216
3 364 365 366
3 47 218 108
3 47 219 218
3 47 220 219
3 44 221 110
3 44 208 221
3 20 367 368
3 48 222 113
3 48 369 371
3 371 370 222
3 369 370 371
3 49 225 223
3 51 226 116
3 51 227 226
3 23 228 175
3 52 229 119
3 52 230 229
3 52 372 374
3 374 373 230
3 372 373 374
3 376 375 121
3 25 377 378
3 53 232 231
3 55 233 124
3 55 234 233
3 27 235 182
3 56 236 127
3 56 237 236
3 56 238 237
3 57 239 129
3 57 379 381
3 381 380 239
3 379 380 381
3 45 240 209
3 58 241 132
3 58 242 241
3 59 243 134
3 59 244 243
3 59 245 244
3 60 382 383
3 60 384 385
3 30 386 388
3 386 246 387
3 386 387 388
3 61 247 136
3 61 248 247
3 61 249 248
3 62 250 138
3 62 251 250
3 63 389 390
3 63 391 393
3 391 252 392
3 391 392 393
3 32 253 190
3 64 254 142
3 64 255 254
3 64 256 255
3 65 257 144
3 65 258 257
3 65 259 258
3 66 260 146
3 66 261 260
3 34 262 194
3 67 263 149
3 67 264 263
3 67 265 264
3 53 266 151
3 53 231 266
3 54 394 395
3 396 267 397
3 398 397 152
3 396 397 398
3 399 268 400
3 401 400 267
3 399 400 401
3 37 402 404
3 404 403 198
3 402 403 404
3 68 269 154
3 68 270 269
3 68 271 270
3 69 272 156
3 69 273 272
3 405 274 406
3 407 275 408
3 70 409 411
3 409 276 410
3 409 410 411
3 70 412 414
3 414 413 276
3 412 413 414
3 70 415 416
3 41 417 419
3 419 418 203
3 417 418 419
3 50 277 224
3 71 278 158
3 71 420 422
3 422 421 278
3 420 421 422
3 43 279 207
3 72 280 160
3 72 423 425
3 425 424 280
3 423 424 425
3 72 426 427
3 73 428 430
3 430 429 162
3 428 429 430
3 73 431 433
3 431 281 432
3 431 432 433
3 73 282 281
3 74 283 164
3 74 284 283
3 434 285 435
3 437 436 285
3 438 75 439
3 440 439 17
3 438 439 440
3 441 75 442
3 444 443 75
3 445 17 446
3 76 77 19
3 78 77 76
3 78 21 77
3 79 80 22
3 81 80 79
3 81 24 80
3 81 82 24
3 76 82 81
3 76 19 82
3 83 84 26
3 85 84 83
3 85 28 84
3 86 447 449
3 449 448 29
3 447 448 449
3 451 450 86
3 87 452 453
3 87 454 455
3 88 89 31
3 90 89 88
3 90 33 89
3 90 91 33
3 83 91 90
3 83 26 91
3 457 456 35
3 92 93 36
3 94 93 92
3 94 38 93
3 95 458 459
3 95 460 462
3 460 39 461
3 460 461 462
3 96 97 40
3 98 97 96
3 98 42 97
3 99 100 44
3 101 100 99
3 101 463 465
3 465 464 100
3 463 464 465
3 102 103 18
3 104 103 102
3 104 46 103
3 104 105 46
3 106 105 104
3 106 466 468
3 468 467 105
3 466 467 468
3 107 469 471
3 469 108 470
3 469 470 471
3 109 108 107
3 109 47 108
3 109 110 47
3 99 110 109
3 99 44 110
3 111 472 474
3 474 473 20
3 472 473 474
3 112 475 477
3 477 476 111
3 475 476 477
3 112 478 479
3 112 480 482
3 480 113 481
3 480 481 482
3 114 113 112
3 114 48 113
3 115 116 49
3 117 116 115
3 117 51 116
3 118 119 23
3 120 119 118
3 120 52 119
3 120 121 52
3 483 121 484
3 485 484 120
3 483 484 485
3 487 486 121
3 122 488 490
3 490 489 25
3 488 489 490
3 492 491 122
3 123 124 53
3 125 124 123
3 125 55 124
3 126 127 27
3 128 127 126
3 128 56 127
3 128 129 56
3 130 129 128
3 130 57 129
3 131 132 45
3 133 132 131
3 133 58 132
3 493 134 494
3 495 134 496
3 497 59 498
3 499 498 134
3 497 498 499
3 501 500 59
3 502 60 503
3 135 136 30
3 137 136 135
3 137 61 136
3 137 138 61
3 139 138 137
3 139 62 138
3 140 504 505
3 140 506 508
3 506 63 507
3 506 507 508
3 141 142 32
3 143 142 141
3 143 64 142
3 143 144 64
3 145 144 143
3 145 65 144
3 145 146 65
3 147 146 145
3 147 66 146
3 148 149 34
3 150 149 148
3 150 67 149
3 150 151 67
3 123 151 150
3 123 53 151
3 509 152 510
3 511 510 54
3 509 510 511
3 153 512 514
3 512 152 513
3 512 513 514
3 153 515 517
3 517 516 152
3 515 516 517
3 518 154 519
3 520 519 37
3 518 519 520
3 155 521 523
3 521 154 522
3 521 522 523
3 155 68 154
3 155 156 68
3 524 156 525
3 526 525 155
3 524 525 526
3 527 69 528
3 529 528 156
3 527 528 529
3 530 70 531
3 533 532 70
3 535 534 41
3 157 158 50
3 159 158 157
3 159 71 158
3 536 160 537
3 538 537 43
3 536 537 538
3 161 539 541
3 539 160 540
3 539 540 541
3 161 72 160
3 161 162 72
3 163 162 161
3 163 73 162
3 163 164 73
3 165 164 163
3 165 74 164
3 166 167 4
3 168 167 166
3 168 18 167
3 75 168 17
3 169 168 75
3 169 18 168
3 169 102 18
3 542 102 543
3 544 543 169
3 542 543 544
3 546 545 102
3 547 107 548
3 166 549 551
3 549 107 550
3 549 550 551
3 166 4 107
3 170 552 554
3 554 553 7
3 552 553 554
3 171 555 557
3 557 556 170
3 555 556 557
3 171 558 560
3 558 20 559
3 558 559 560
3 77 171 19
3 172 171 77
3 172 20 171
3 172 111 20
3 173 111 172
3 173 8 111
3 174 175 9
3 176 175 174
3 176 23 175
3 80 176 22
3 177 176 80
3 177 23 176
3 177 118 23
3 178 118 177
3 178 10 118
3 178 561 563
3 563 562 10
3 561 562 563
3 179 564 566
3 566 565 178
3 564 565 566
3 179 567 569
3 567 25 568
3 567 568 569
3 82 179 24
3 180 179 82
3 180 25 179
3 180 122 25
3 170 122 180
3 170 7 122
3 181 182 11
3 183 182 181
3 183 27 182
3 84 183 26
3 184 183 84
3 184 27 183
3 184 126 27
3 185 126 184
3 185 13 126
3 571 570 5
3 573 572 29
3 186 574 575
3 186 576 578
3 576 30 577
3 576 577 578
3 579 186 580
3 187 581 583
3 581 186 582
3 581 582 583
3 187 30 186
3 187 135 30
3 188 135 187
3 188 14 135
3 189 190 6
3 191 190 189
3 191 32 190
3 89 191 31
3 192 191 89
3 192 32 191
3 192 141 32
3 193 141 192
3 193 15 141
3 193 194 15
3 195 194 193
3 195 34 194
3 91 195 33
3 196 195 91
3 196 34 195
3 196 148 34
3 181 148 196
3 181 11 148
3 585 584 35
3 197 198 12
3 199 198 197
3 199 37 198
3 93 199 36
3 200 199 93
3 200 37 199
3 200 586 588
3 588 587 37
3 586 587 588
3 201 589 591
3 591 590 200
3 589 590 591
3 201 592 593
3 202 594 596
3 594 203 595
3 594 595 596
3 204 203 202
3 204 41 203
3 97 204 40
3 205 204 97
3 205 41 204
3 205 597 599
3 599 598 41
3 597 598 599
3 206 600 602
3 602 601 205
3 600 601 602
3 206 603 604
3 605 207 606
3 607 207 608
3 609 43 610
3 611 610 207
3 609 610 611
3 612 43 613
3 615 614 43
3 616 16 617
3 619 618 16
3 208 209 1
3 210 209 208
3 210 45 209
3 100 210 44
3 211 210 100
3 211 45 210
3 211 131 45
3 620 131 621
3 622 621 211
3 620 621 622
3 623 5 624
3 625 624 131
3 623 624 625
3 167 101 4
3 212 101 167
3 212 626 628
3 628 627 101
3 626 627 628
3 103 212 18
3 213 212 103
3 213 629 631
3 631 630 212
3 629 630 631
3 213 632 633
3 214 634 636
3 636 635 213
3 634 635 636
3 214 637 639
3 637 5 638
3 637 638 639
3 214 640 642
3 642 641 5
3 640 641 642
3 215 643 645
3 645 644 214
3 643 644 645
3 215 646 648
3 646 29 647
3 646 647 648
3 105 215 46
3 216 215 105
3 216 29 215
3 216 86 29
3 217 86 216
3 217 2 86
3 649 6 650
3 108 651 652
3 218 653 655
3 655 654 108
3 653 654 655
3 218 656 657
3 218 658 659
3 219 660 662
3 662 661 218
3 660 661 662
3 219 663 665
3 663 6 664
3 663 664 665
3 219 189 6
3 220 189 219
3 220 31 189
3 110 220 47
3 221 220 110
3 221 31 220
3 221 88 31
3 208 88 221
3 208 1 88
3 667 666 7
3 669 668 20
3 670 35 671
3 113 672 673
3 222 674 676
3 676 675 113
3 674 675 676
3 222 677 679
3 677 35 678
3 677 678 679
3 222 680 682
3 682 681 35
3 680 681 682
3 684 683 222
3 223 224 3
3 225 224 223
3 225 50 224
3 116 225 49
3 226 225 116
3 226 50 225
3 226 157 50
3 227 157 226
3 227 685 687
3 687 686 157
3 685 686 687
3 175 117 9
3 228 117 175
3 228 51 117
3 119 228 23
3 229 228 119
3 229 51 228
3 229 227 51
3 230 227 229
3 230 688 690
3 690 689 227
3 688 689 690
3 230 691 692
3 694 693 230
3 121 695 697
3 697 696 52
3 695 696 697
3 699 698 121
3 701 700 10
3 703 702 25
3 231 704 706
3 706 705 0
3 704 705 706
3 232 707 709
3 709 708 231
3 707 708 709
3 232 710 712
3 710 54 711
3 710 711 712
3 124 232 53
3 233 232 124
3 233 54 232
3 233 713 715
3 715 714 54
3 713 714 715
3 234 716 718
3 718 717 233
3 716 717 718
3 234 719 721
3 719 12 720
3 719 720 721
3 182 125 11
3 235 125 182
3 235 55 125
3 127 235 27
3 236 235 127
3 236 55 235
3 236 234 55
3 237 234 236
3 237 12 234
3 237 197 12
3 238 197 237
3 238 36 197
3 129 238 56
3 239 238 129
3 239 36 238
3 239 92 36
3 722 92 723
3 724 723 239
3 722 723 724
3 726 725 92
3 209 85 1
3 240 85 209
3 240 28 85
3 132 240 45
3 241 240 132
3 241 28 240
3 241 185 28
3 242 185 241
3 242 13 185
3 727 133 728
3 729 728 5
3 727 728 729
3 730 133 731
3 732 58 733
3 734 733 133
3 732 733 734
3 134 735 736
3 243 737 739
3 739 738 134
3 737 738 739
3 243 740 742
3 740 58 741
3 740 741 742
3 243 242 58
3 244 242 243
3 244 13 242
3 244 130 13
3 245 130 244
3 245 57 130
3 743 245 744
3 745 744 59
3 743 744 745
3 746 245 747
3 748 57 749
3 750 749 245
3 748 749 750
3 752 751 57
3 246 753 754
3 246 755 757
3 755 60 756
3 755 756 757
3 136 246 30
3 247 246 136
3 247 60 246
3 247 758 760
3 760 759 60
3 758 759 760
3 248 761 763
3 763 762 247
3 761 762 763
3 248 764 765
3 248 766 768
3 766 202 767
3 766 767 768
3 249 202 248
3 249 40 202
3 138 249 61
3 250 249 138
3 250 40 249
3 250 96 40
3 251 96 250
3 251 3 96
3 769 188 770
3 252 771 773
3 771 188 772
3 771 772 773
3 252 14 188
3 190 140 6
3 253 140 190
3 253 63 140
3 142 253 32
3 254 253 142
3 254 63 253
3 254 252 63
3 255 252 254
3 255 14 252
3 255 139 14
3 256 139 255
3 256 62 139
3 144 256 64
3 257 256 144
3 257 62 256
3 257 251 62
3 258 251 257
3 258 3 251
3 258 223 3
3 259 223 258
3 259 49 223
3 146 259 65
3 260 259 146
3 260 49 259
3 260 115 49
3 261 115 260
3 261 9 115
3 194 147 15
3 262 147 194
3 262 66 147
3 149 262 34
3 263 262 149
3 263 66 262
3 263 261 66
3 264 261 263
3 264 9 261
3 264 174 9
3 265 174 264
3 265 22 174
3 151 265 67
3 266 265 151
3 266 22 265
3 266 79 22
3 231 79 266
3 231 0 79
3 774 106 775
3 776 106 777
3 779 778 106
3 780 217 781
3 782 217 783
3 784 2 785
3 786 785 217
3 784 785 786
3 787 2 788
3 789 87 790
3 791 790 2
3 789 790 791
3 792 87 793
3 795 794 87
3 796 78 797
3 798 797 0
3 796 797 798
3 799 78 800
3 801 21 802
3 803 802 78
3 801 802 803
3 152 804 806
3 806 805 54
3 804 805 806
3 267 807 809
3 809 808 152
3 807 808 809
3 267 810 812
3 810 21 811
3 810 811 812
3 267 173 21
3 268 173 267
3 268 8 173
3 198 153 12
3 813 153 814
3 815 814 198
3 813 814 815
3 817 816 153
3 154 818 820
3 820 819 37
3 818 819 820
3 269 821 823
3 823 822 154
3 821 822 823
3 269 824 825
3 269 826 828
3 826 268 827
3 826 827 828
3 270 268 269
3 270 8 268
3 270 114 8
3 271 114 270
3 271 48 114
3 156 271 68
3 272 271 156
3 272 48 271
3 272 829 831
3 831 830 48
3 829 830 831
3 273 832 834
3 834 833 272
3 832 833 834
3 273 835 836
3 837 94 838
3 274 839 841
3 839 94 840
3 839 840 841
3 274 38 94
3 842 274 843
3 844 274 845
3 846 38 847
3 848 847 274
3 846 847 848
3 849 201 850
3 851 850 38
3 849 850 851
3 275 852 854
3 852 201 853
3 852 853 854
3 275 855 857
3 857 856 201
3 855 856 857
3 858 275 859
3 860 275 861
3 863 862 275
3 864 69 865
3 276 866 867
3 276 868 870
3 868 69 869
3 868 869 870
3 276 273 69
3 871 273 872
3 873 872 276
3 871 872 873
3 875 874 273
3 877 876 70
3 203 878 879
3 881 880 203
3 883 882 41
3 224 98 3
3 277 98 224
3 277 42 98
3 158 277 50
3 278 277 158
3 278 42 277
3 278 206 42
3 884 206 885
3 886 885 278
3 884 885 886
3 888 887 206
3 207 889 891
3 889 159 890
3 889 890 891
3 279 159 207
3 279 71 159
3 160 279 43
3 280 279 160
3 280 71 279
3 280 892 894
3 894 893 71
3 892 893 894
3 896 895 280
3 162 897 899
3 899 898 72
3 897 898 899
3 901 900 162
3 281 902 903
3 281 904 905
3 281 906 908
3 906 95 907
3 906 907 908
3 282 95 281
3 282 39 95
3 164 282 73
3 283 282 164
3 283 39 282
3 283 909 911
3 911 910 39
3 909 910 911
3 284 912 914
3 914 913 283
3 912 913 914
3 284 915 916
3 917 165 918
3 919 918 16
3 917 918 919
3 920 165 921
3 922 74 923
3 924 923 165
3 922 923 924
3 285 925 926
3 285 927 929
3 927 74 928
3 927 928 929
3 285 284 74
3 930 284 931
3 932 931 285
3 930 931 932
3 934 933 284
