ply
format ascii 1.0
element vertex 775
property float x
property float y
property float z
element face 807
property list uchar int vertex_index
end_header
19.607821 -9.392749 -65.605782
25.885391 12.901059 -70.331955
27.748724 -50.834244 -46.198147
32.113571 -17.100584 -59.008057
19.218931 23.310106 -72.269218
23.351063 -66.266602 -40.207859
17.538254 -63.814774 -45.53101
36.448921 -5.256531 -58.734932
37.065498 -21.950941 -52.438225
10.864136 20.285072 -72.447449
17.200987 12.291487 -72.650742
22.898739 1.457074 -69.116684
32.113583 -52.85273 -39.548855
35.547741 -37.839806 -46.011456
30.892057 -34.223248 -52.399582
25.727671 -12.853556 -63.383682
30.48975 -1.073428 -65.342247
14.557706 -61.259823 -47.250092
7.805839 22.812798 -70.49559
22.542471 18.77574 -71.88781
18.293835 18.186838 -73.109123
21.403652 13.221372 -72.132568
20.324045 7.077155 -71.174805
24.37088 7.073595 -70.170547
35.92836 -47.055702 -34.905865
28.083681 -59.535767 -39.85675
30.091444 -52.281441 -43.113457
33.972427 -45.630245 -42.836975
31.950472 -44.540043 -46.210323
33.436302 -36.449947 -49.348881
29.502285 -42.636364 -49.250134
34.668114 -11.356591 -59.116707
33.698982 -3.117537 -62.362423
31.651331 -8.788216 -62.323772
28.288628 -7.03097 -64.677353
28.830105 -14.950172 -61.546738
26.940033 18.080448 -69.445061
37.040668 -13.404509 -55.751751
14.843111 22.177109 -73.008018
16.160059 6.120474 -71.138039
19.002815 0.968042 -69.462723
21.11084 -4.583806 -67.361458
19.495026 -15.325809 -63.141148
25.675638 -66.314034 -36.640617
29.768562 -59.855511 -36.145889
33.204552 -53.543365 -35.559166
35.270535 -46.513367 -39.087589
36.83567 -39.206902 -42.446362
38.031841 -31.474669 -45.590549
36.51329 -29.862684 -49.340591
34.382202 -27.779234 -52.791004
31.740557 -25.922327 -55.593208
27.999498 -31.772766 -54.93578
28.707493 -23.474199 -58.148159
25.632677 -20.553526 -60.325909
22.468559 -18.006666 -61.901386
22.292202 -10.866738 -64.822174
29.768728 12.012524 -67.697067
32.067852 4.689155 -65.258591
28.552561 6.129224 -68.059029
26.763741 0.452781 -67.652771
24.713245 -5.416555 -66.441727
24.217447 15.891437 -71.25914
22.116257 16.039993 -72.122536
23.643719 13.232411 -71.392044
22.943487 10.353755 -71.266449
25.108635 10.102015 -70.419189
34.867279 -50.468887 -33.101627
26.647997 -54.892033 -44.751038
27.936766 -55.461929 -43.235565
28.972239 -51.470539 -44.816891
31.052164 -48.578938 -44.585232
30.044765 -47.461239 -46.259705
30.759689 -43.622879 -47.815693
28.563442 -47.008072 -47.655571
33.450893 -14.005194 -59.239178
33.139454 -10.187976 -60.809769
31.909554 -12.976199 -60.70089
30.321888 -11.895532 -62.00779
30.490187 -16.137774 -60.317783
19.188473 -64.567314 -44.462936
38.081738 -18.644064 -52.233353
38.076599 -14.467805 -53.767605
37.185268 -17.595953 -54.069225
36.131088 -16.393431 -55.862682
36.025879 -20.738588 -54.26413
9.221377 21.485275 -71.599068
7.569617 20.17709 -70.74926
8.882803 18.921959 -71.63134
16.943966 22.896322 -72.802017
17.706259 15.273244 -73.035255
16.07946 17.664856 -73.290001
15.537998 14.6678 -73.038788
15.155934 11.655742 -72.511459
16.61862 9.472047 -72.062286
21.689037 4.353676 -70.209328
19.712488 4.08278 -70.414299
20.983828 1.413973 -69.435036
20.133587 -1.629363 -68.500046
21.932076 -1.605262 -68.308235
14.679812 -3.811411 -67.43058
16.010542 -6.296233 -66.612495
22.131191 -69.608421 -38.824654
24.700874 -66.093849 -38.592308
30.093027 -56.348267 -39.716576
28.983376 -59.813484 -38.020496
30.925734 -56.414246 -38.01152
31.53533 -56.73315 -35.927208
32.668713 -53.413391 -37.57449
34.277332 -50.089268 -37.394257
33.75457 -49.838402 -39.248631
34.698872 -42.052441 -44.408627
35.478233 -42.485828 -42.677288
36.236477 -38.587696 -44.297421
37.529099 -35.372566 -43.92709
36.908474 -34.628716 -45.836403
37.362427 -30.781147 -47.445267
35.992432 -34.008961 -47.744385
32.23307 -35.250206 -50.98349
33.975307 -32.134979 -51.063679
32.778732 -31.031019 -52.596134
33.123787 -27.048977 -54.16663
31.332939 -29.892118 -54.095356
25.863834 -34.951981 -54.377789
26.374949 -30.526773 -56.027863
28.379372 -27.481709 -56.598316
27.158607 -21.931217 -59.342041
20.625593 -20.488239 -61.016075
20.941641 -16.703972 -62.554642
19.223537 -18.788105 -61.705647
31.626343 11.014199 -65.988663
32.123539 -2.080468 -63.946957
32.986767 0.85626 -63.843174
31.275679 1.932207 -65.473106
30.365316 5.838687 -66.807907
29.580635 2.719475 -66.794373
27.612946 3.23903 -67.988892
28.747688 -0.374093 -66.522072
27.116428 -9.888318 -64.104568
26.492752 -6.049039 -65.697884
25.306492 -9.116512 -64.932793
23.523939 -8.176571 -65.680847
23.929554 -11.928989 -64.143974
16.07761 -62.680134 -46.445267
13.234561 -65.571053 -46.069195
37.969826 -22.592335 -50.717686
9.572066 24.084385 -71.215691
11.039246 22.782238 -72.168518
20.931973 20.99007 -72.235733
18.692289 20.966219 -72.863876
20.370443 18.505741 -72.659012
19.890051 15.681136 -72.733261
19.264727 12.785802 -72.525658
18.859592 9.892452 -72.038788
20.890469 10.090434 -71.75795
22.346956 7.179839 -70.796684
23.69669 4.158694 -69.688644
36.815907 -43.716702 -36.627182
25.753479 -62.717823 -40.240311
26.857952 -59.341408 -41.616245
29.065042 -56.003696 -41.545025
31.159212 -52.723843 -41.343784
33.086769 -49.243927 -41.248978
32.193409 -48.775024 -43.048676
32.99527 -45.163841 -44.604057
33.869907 -41.162849 -46.160355
34.52541 -37.139961 -47.81456
32.765583 -40.539299 -47.751808
31.615898 -39.444412 -49.350616
30.186077 -38.551544 -50.804634
35.626282 -8.191032 -59.07132
35.144917 -3.974267 -60.664051
34.306477 -7.111215 -60.752548
32.881584 -6.204051 -62.254906
31.186708 -5.005483 -63.808205
29.487879 -3.963211 -65.106041
29.914116 -7.938358 -63.60688
28.669271 -11.076525 -63.078331
27.280945 -13.743756 -62.584877
24.667879 18.631979 -70.854576
26.321981 15.765289 -70.104721
37.570992 -6.553785 -56.727051
36.842754 -9.472034 -57.187603
35.953426 -12.198713 -57.512581
34.84108 -15.382644 -57.556198
33.515812 -18.572008 -57.452484
13.103064 23.788528 -72.47612
12.756059 21.28813 -72.873337
16.593758 20.325466 -73.208191
14.364849 19.696732 -73.22686
12.357868 18.475513 -72.93972
12.674148 7.654695 -71.167068
15.61688 2.816735 -70.036163
18.178402 6.866772 -71.338684
17.645729 3.522296 -70.347931
17.037081 0.259995 -69.222221
18.352209 -2.096395 -68.397041
19.471348 -4.691329 -67.42141
18.846392 -7.597072 -66.305588
20.385851 -7.411275 -66.356758
19.587528 -11.849392 -64.591675
26.8741 -62.993263 -38.320953
27.773767 -63.133369 -36.35577
28.490009 -63.139786 -34.360302
30.408901 -59.820995 -34.103825
33.646889 -53.437988 -33.377525
34.692402 -50.218502 -35.32933
35.637718 -46.967823 -37.01186
36.566429 -43.428593 -38.566628
34.667152 -46.217312 -40.98391
36.129211 -42.935974 -40.690201
37.285656 -39.937473 -40.295113
37.939438 -36.257698 -41.918343
37.737972 -26.781799 -49.036591
36.922554 -25.849354 -50.821693
35.063446 -33.038177 -49.474491
35.518314 -28.922586 -51.078964
35.832661 -24.903648 -52.648933
34.667114 -23.722582 -54.364014
33.352913 -22.880184 -55.808857
31.946968 -21.492786 -57.343552
28.772173 -37.487926 -52.105415
27.385489 -36.101147 -53.348068
29.460598 -33.240383 -53.646049
29.870333 -28.858303 -55.350533
30.336588 -24.515476 -56.97345
30.498053 -20.357914 -58.623478
28.895578 -19.244892 -59.8134
27.292568 -17.769354 -60.991299
25.783278 -16.625029 -61.874847
24.096712 -19.255665 -61.16785
24.212074 -15.46303 -62.67749
22.513399 -14.430454 -63.355141
20.988541 -13.112321 -64.03154
20.825848 -9.853436 -65.370132
28.411558 15.165916 -68.65892
27.933945 12.350042 -69.080772
34.534531 -0.110267 -62.090397
33.721233 3.792339 -63.505493
32.804859 7.304097 -64.745438
31.060152 8.423479 -66.498329
29.105152 9.121027 -68.089653
27.224487 9.583654 -69.312004
26.492895 6.721782 -69.242821
25.608347 3.969526 -69.017921
24.910152 1.056279 -68.475304
27.63847 -3.217019 -66.208427
25.775747 -2.512399 -67.115738
23.866495 -1.894935 -67.842773
22.869965 -4.853596 -67.02784
21.896641 -7.571875 -66.159561
34.341013 -51.957223 -32.195717
34.902518 -50.464067 -32.00875
18.363363 -64.191044 -44.996973
17.732769 -66.236435 -44.375968
16.90766 -65.860165 -44.910005
18.923496 -62.198606 -45.645308
19.748606 -62.574877 -45.111271
18.363363 -64.191044 -44.996973
18.095064 -61.745562 -46.170206
18.923496 -62.198606 -45.645308
10.642522 18.894233 -72.386066
9.651855 18.212677 -71.978012
9.873469 19.603516 -72.039395
18.081449 23.103214 -72.535618
17.172781 24.052827 -72.427132
18.310264 24.259719 -72.160732
14.971967 -2.152828 -68.11829
14.030709 -2.637499 -67.77969
15.627492 -3.400574 -67.706654
14.971967 -2.152828 -68.11829
25.607625 -29.823671 -56.518919
25.3042 -32.074294 -55.688143
26.579697 -28.407996 -56.841248
25.607625 -29.823671 -56.518919
19.763846 -21.641015 -60.548338
20.432973 -22.591458 -60.175936
19.062818 -20.790948 -60.893124
19.924565 -19.638172 -61.360861
19.763846 -21.641015 -60.548338
32.463189 10.531274 -65.054993
31.843159 12.30677 -65.621258
36.181207 -3.312769 -59.450544
36.759481 -3.771242 -58.501597
12.65411 -67.557594 -45.511398
13.995354 -66.291241 -45.633285
38.323622 -23.150015 -49.722763
38.431272 -21.197633 -50.397667
10.52966 24.630993 -71.431622
9.71254 25.285796 -70.836796
11.26325 23.97992 -71.908035
10.305656 23.433312 -71.692104
10.52966 24.630993 -71.431622
36.381811 -45.665008 -34.657769
35.924627 -47.258152 -33.852775
36.372134 -45.386202 -35.766523
36.825585 -43.995508 -35.518427
36.381811 -45.665008 -34.657769
26.261217 -59.006502 -42.446352
25.668458 -60.926749 -41.721492
25.803956 18.356214 -70.149818
24.961518 19.729942 -70.464389
26.097595 19.454176 -69.759632
15.880591 -59.752655 -47.504477
16.640543 -60.462811 -47.102064
15.317658 -61.969978 -46.847679
38.047419 -7.189298 -55.669323
37.83722 -5.216935 -56.421181
37.451045 -12.058521 -55.506412
37.969011 -12.59017 -54.51434
37.558633 -13.936157 -54.759678
36.941711 -11.438271 -56.469677
37.352089 -10.092284 -56.224339
37.451045 -12.058521 -55.506412
34.849342 -17.408171 -56.771166
35.486084 -15.888037 -56.70944
35.494346 -17.913564 -55.924408
34.186708 -19.002852 -56.719309
34.178446 -16.977326 -57.504341
34.849342 -17.408171 -56.771166
7.040348 21.978507 -70.057148
7.125103 23.273232 -69.847286
6.817868 19.324015 -70.211182
7.442324 18.710731 -70.704548
13.973088 22.982819 -72.742069
14.133436 24.214883 -72.448986
15.003459 23.409174 -72.714935
14.169115 18.224721 -73.183701
15.222155 18.680794 -73.258431
15.026421 17.208783 -73.215271
13.165624 17.614111 -73.040131
13.361358 19.086123 -73.08329
14.169115 18.224721 -73.183701
12.18176 17.081217 -72.81633
13.165624 17.614111 -73.040131
12.940542 9.223226 -71.630912
11.978917 8.606946 -71.252594
15.177975 5.749532 -70.936223
15.383647 7.334019 -71.42939
15.888469 4.468604 -70.587101
14.906385 4.097663 -70.385285
15.177975 5.749532 -70.936223
16.651689 -7.392539 -66.231887
16.880956 -5.72671 -66.916183
18.298882 -6.377129 -66.76273
18.069615 -8.042959 -66.078434
25.00448 -67.945412 -35.824179
24.566701 -67.865319 -36.831909
26.093979 -66.308781 -35.651727
25.00448 -67.945412 -35.824179
32.693139 -54.996876 -34.730654
31.858528 -56.591768 -34.914675
32.369941 -55.138258 -35.743187
33.42572 -53.490676 -34.468345
32.914307 -54.944187 -33.639833
32.693139 -54.996876 -34.730654
38.275917 -31.888825 -44.566263
38.024546 -33.837774 -43.734533
37.78047 -33.423617 -44.75882
38.480201 -30.038187 -45.326898
38.275917 -31.888825 -44.566263
38.252571 -29.492708 -46.337856
38.480201 -30.038187 -45.326898
27.685313 -38.986477 -51.950599
28.37034 -39.659982 -51.323864
23.282635 -18.631166 -61.534618
23.146021 -20.610461 -60.744009
22.331944 -19.985961 -61.110777
29.090143 13.58922 -68.177993
29.400386 14.753037 -67.823135
30.078972 13.176341 -67.342208
35.394087 -48.964745 -32.950657
34.902518 -50.464067 -32.00875
35.397819 -48.762294 -34.003746
35.924627 -47.258152 -33.852775
35.394087 -48.964745 -32.950657
27.292381 -55.176981 -43.993302
26.800624 -57.066763 -43.256012
26.156239 -56.781815 -44.013749
27.113667 19.262144 -69.020489
26.097595 19.454176 -69.759632
18.510889 -66.536083 -43.856361
17.732769 -66.236435 -44.375968
19.925692 -64.887921 -43.865654
18.510889 -66.536083 -43.856361
20.470693 -63.017275 -44.513592
19.925692 -64.887921 -43.865654
20.470693 -63.017275 -44.513592
19.748606 -62.574877 -45.111271
15.13943 -59.0719 -47.864933
13.832836 -60.512285 -47.553326
38.079169 -16.555934 -53.000479
38.454125 -15.187342 -52.759003
38.456694 -17.275472 -51.991877
35.441742 -20.086143 -55.125132
35.494346 -17.913564 -55.924408
36.078484 -18.566009 -55.063406
8.098917 18.083165 -71.145588
7.442324 18.710731 -70.704548
8.22621 19.549525 -71.1903
8.790571 17.456355 -71.535598
8.098917 18.083165 -71.145588
8.790571 17.456355 -71.535598
9.651855 18.212677 -71.978012
16.053887 23.76878 -72.611935
17.172781 24.052827 -72.427132
15.893539 22.536715 -72.905018
15.003459 23.409174 -72.714935
16.053887 23.76878 -72.611935
14.755689 15.710255 -73.089664
15.026421 17.208783 -73.215271
15.808729 16.166328 -73.164395
14.51857 14.163626 -72.875442
14.755689 15.710255 -73.089664
14.327538 12.657597 -72.611778
14.51857 14.163626 -72.875442
15.346966 13.161771 -72.775124
14.181435 11.22375 -72.303108
14.327538 12.657597 -72.611778
14.881584 10.101653 -72.1161
14.181435 11.22375 -72.303108
15.612927 9.009805 -71.891514
14.881584 10.101653 -72.1161
15.887277 10.563894 -72.286873
16.389339 7.79626 -71.600163
15.383647 7.334019 -71.42939
15.612927 9.009805 -71.891514
13.830317 -4.481365 -66.989224
14.030709 -2.637499 -67.77969
14.482385 -5.669398 -66.631584
13.830317 -4.481365 -66.989224
15.345177 -5.053822 -67.021537
15.14775 -6.91181 -66.222542
14.482385 -5.669398 -66.631584
16.292857 -4.642985 -67.297611
15.345177 -5.053822 -67.021537
15.627492 -3.400574 -67.706654
16.880956 -5.72671 -66.916183
16.292857 -4.642985 -67.297611
22.794477 -69.512512 -37.923928
21.510956 -71.214035 -38.115138
24.079319 -67.755226 -37.807755
22.794477 -69.512512 -37.923928
23.416033 -67.851135 -38.708481
25.188256 -66.203942 -37.616462
24.566701 -67.865319 -36.831909
24.079319 -67.755226 -37.807755
25.048642 -34.286898 -54.863106
24.724792 -36.441114 -54.094801
26.119391 -32.739377 -55.202826
25.048642 -34.286898 -54.863106
25.3042 -32.074294 -55.688143
27.581909 -26.885464 -57.126475
27.377161 -29.004241 -56.31309
26.579697 -28.407996 -56.841248
27.745969 -24.881709 -57.901396
28.543433 -25.477954 -57.373238
27.581909 -26.885464 -57.126475
26.971526 -24.110218 -58.498337
27.93305 -22.702708 -58.7451
27.745969 -24.881709 -57.901396
26.28229 -23.355522 -58.996286
26.971526 -24.110218 -58.498337
25.519325 -22.666677 -59.48822
26.395642 -21.242372 -59.833975
26.28229 -23.355522 -58.996286
21.410461 -21.226748 -60.668121
20.432973 -22.591458 -60.175936
21.547076 -19.247453 -61.458731
22.331944 -19.985961 -61.110777
21.410461 -21.226748 -60.668121
31.007779 12.677179 -66.488007
31.843159 12.30677 -65.621258
30.697536 11.513362 -66.842865
30.078972 13.176341 -67.342208
31.007779 12.677179 -66.488007
16.147201 -65.413102 -45.364193
16.90766 -65.860165 -44.910005
15.416878 -64.845782 -45.821321
16.807932 -63.247454 -45.988139
16.147201 -65.413102 -45.364193
14.656085 -64.125594 -46.257231
15.416878 -64.845782 -45.821321
13.995354 -66.291241 -45.633285
11.84271 -67.06416 -45.796869
12.65411 -67.557594 -45.511398
12.446577 -64.920949 -46.368212
11.84271 -67.06416 -45.796869
13.108149 -62.765333 -46.958661
13.896133 -63.415438 -46.659644
12.446577 -64.920949 -46.368212
13.832836 -60.512285 -47.553326
13.108149 -62.765333 -46.958661
38.487229 -19.223498 -51.155501
38.456694 -17.275472 -51.991877
38.025782 -20.618199 -51.47552
38.487229 -19.223498 -51.155501
38.431272 -21.197633 -50.397667
7.933073 23.968693 -70.237881
7.125103 23.273232 -69.847286
8.816187 24.604487 -70.597931
9.71254 25.285796 -70.836796
8.688952 23.448591 -70.855641
7.933073 23.968693 -70.237881
8.816187 24.604487 -70.597931
37.243739 -42.27067 -36.430839
36.825585 -43.995508 -35.518427
37.211163 -41.980385 -37.461878
37.243739 -42.27067 -36.430839
25.116222 -62.614956 -41.033525
24.552271 -64.492213 -40.224085
23.915014 -64.389346 -41.0173
26.305715 -61.029616 -40.928278
25.116222 -62.614956 -41.033525
25.668458 -60.926749 -41.721492
27.397359 -57.401668 -42.425905
26.261217 -59.006502 -42.446352
26.800624 -57.066763 -43.256012
19.448455 24.408203 -71.806206
18.310264 24.259719 -72.160732
20.332154 23.384421 -71.852154
19.448455 24.408203 -71.806206
21.188675 22.224403 -71.835411
20.075452 22.150088 -72.252476
20.332154 23.384421 -71.852154
21.989598 21.10926 -71.761692
21.188675 22.224403 -71.835411
22.794846 20.002095 -71.58773
21.737222 19.882905 -72.061771
21.989598 21.10926 -71.761692
23.857551 19.930215 -71.071113
24.961518 19.729942 -70.464389
23.605175 18.70386 -71.371193
22.794846 20.002095 -71.58773
23.857551 19.930215 -71.071113
20.86397 -71.186741 -38.97515
21.510956 -71.214035 -38.115138
21.51382 -69.408608 -39.685637
20.86397 -71.186741 -38.97515
22.123756 -67.737698 -40.377239
22.741127 -67.937511 -39.516256
21.51382 -69.408608 -39.685637
22.736491 -65.939972 -41.057163
22.123756 -67.737698 -40.377239
23.915014 -64.389346 -41.0173
22.736491 -65.939972 -41.057163
25.472359 -56.471052 -44.736182
26.156239 -56.781815 -44.013749
26.031092 -54.426094 -45.448103
25.472359 -56.471052 -44.736182
26.581455 -52.397199 -46.171657
27.19836 -52.863138 -45.474592
26.031092 -54.426094 -45.448103
26.976154 -50.526062 -46.867798
26.581455 -52.397199 -46.171657
17.364742 -61.178242 -46.627335
18.095064 -61.745562 -46.170206
16.807932 -63.247454 -45.988139
17.364742 -61.178242 -46.627335
16.640543 -60.462811 -47.102064
15.880591 -59.752655 -47.504477
15.13943 -59.0719 -47.864933
37.320517 -4.419869 -57.497656
37.83722 -5.216935 -56.421181
37.009957 -5.905158 -57.730992
36.759481 -3.771242 -58.501597
37.320517 -4.419869 -57.497656
38.418041 -13.089289 -53.486485
38.454125 -15.187342 -52.759003
38.418041 -13.089289 -53.486485
37.969011 -12.59017 -54.51434
37.716207 -8.633159 -55.994062
38.047419 -7.189298 -55.669323
37.206873 -8.01291 -56.957327
37.716207 -8.633159 -55.994062
37.352089 -10.092284 -56.224339
6.922237 20.660654 -70.183983
7.040348 21.978507 -70.057148
7.687728 21.494944 -70.622425
6.922237 20.660654 -70.183983
6.817868 19.324015 -70.211182
13.333971 25.050795 -72.07341
14.133436 24.214883 -72.448986
12.295159 24.483064 -72.061836
13.333971 25.050795 -72.07341
12.071155 23.285383 -72.322319
11.26325 23.97992 -71.908035
12.295159 24.483064 -72.061836
11.389387 17.989454 -72.632202
10.642522 18.894233 -72.386066
11.611002 19.380292 -72.693585
11.389387 17.989454 -72.632202
12.18176 17.081217 -72.81633
11.79566 6.88784 -70.697925
11.978917 8.606946 -71.252594
12.560474 5.8813 -70.577568
11.79566 6.88784 -70.697925
13.640691 8.101129 -71.443905
12.940542 9.223226 -71.630912
13.435019 6.516643 -70.950737
13.640691 8.101129 -71.443905
12.560474 5.8813 -70.577568
13.435019 6.516643 -70.950737
14.708015 2.268082 -69.726334
14.906385 4.097663 -70.385285
15.440501 1.161245 -69.421081
14.708015 2.268082 -69.726334
16.150602 -0.117125 -69.014111
15.440501 1.161245 -69.421081
16.326981 1.538365 -69.629192
16.806126 -1.364871 -68.602474
16.150602 -0.117125 -69.014111
17.46369 -2.543066 -68.189884
16.806126 -1.364871 -68.602474
17.694645 -0.9182 -68.809631
18.05179 -3.626791 -67.808457
17.46369 -2.543066 -68.189884
18.611359 -4.924257 -67.320641
18.05179 -3.626791 -67.808457
18.911778 -3.393862 -67.909225
19.15887 -6.144201 -66.863499
18.298882 -6.377129 -66.76273
18.611359 -4.924257 -67.320641
15.839346 -8.050631 -65.861061
15.14775 -6.91181 -66.222542
15.839346 -8.050631 -65.861061
16.651689 -7.392539 -66.231887
18.647948 -8.980711 -65.737454
18.069615 -8.042959 -66.078434
19.227107 -8.49491 -65.955685
19.028662 -9.878549 -65.387551
18.647948 -8.980711 -65.737454
18.317642 -20.032249 -61.145821
19.062818 -20.790948 -60.893124
18.497248 -17.994264 -61.98802
18.317642 -20.032249 -61.145821
18.632993 -16.263115 -62.70577
19.359282 -17.056957 -62.423398
18.497248 -17.994264 -61.98802
18.812916 -14.424624 -63.484302
18.632993 -16.263115 -62.70577
18.859167 -12.686415 -64.209566
19.541277 -13.587601 -63.866411
18.812916 -14.424624 -63.484302
19.018515 -11.10687 -64.880497
18.859167 -12.686415 -64.209566
19.028662 -9.878549 -65.387551
19.597675 -10.621071 -65.098728
19.018515 -11.10687 -64.880497
27.143043 -64.718448 -35.509304
26.093979 -66.308781 -35.651727
26.724702 -64.723702 -36.498193
27.501165 -64.721657 -34.51157
27.143043 -64.718448 -35.509304
28.131888 -63.136578 -35.358036
27.90036 -64.555844 -33.501566
27.501165 -64.721657 -34.51157
28.850564 -62.947871 -33.32793
27.90036 -64.555844 -33.501566
29.81001 -61.288475 -33.199692
28.850564 -62.947871 -33.32793
29.449455 -61.48039 -34.232063
30.661523 -59.713022 -33.102869
29.81001 -61.288475 -33.199692
31.295313 -58.135691 -34.002983
30.972116 -58.277073 -35.015517
31.858528 -56.591768 -34.914675
30.661523 -59.713022 -33.102869
31.295313 -58.135691 -34.002983
33.056185 -54.968374 -32.581294
32.914307 -54.944187 -33.639833
33.730818 -53.441774 -32.333665
33.056185 -54.968374 -32.581294
34.257084 -51.953437 -33.239576
34.341013 -51.957223 -32.195717
33.730818 -53.441774 -32.333665
37.086424 -41.836331 -38.431601
37.211163 -41.980385 -37.461878
36.691168 -43.572648 -37.596905
37.446038 -40.09077 -39.295844
37.086424 -41.836331 -38.431601
36.926043 -41.683033 -39.43087
37.746557 -38.476356 -40.067341
37.446038 -40.09077 -39.295844
38.073448 -36.636469 -40.878956
37.746557 -38.476356 -40.067341
37.612547 -38.097585 -41.106728
38.364218 -34.753132 -41.701193
38.073448 -36.636469 -40.878956
38.229715 -34.28034 -42.73016
37.734268 -35.815132 -42.922716
38.024546 -33.837774 -43.734533
38.364218 -34.753132 -41.701193
38.229715 -34.28034 -42.73016
37.917864 -29.145947 -47.265215
38.252571 -29.492708 -46.337856
37.697134 -31.127908 -46.517908
38.105637 -27.146273 -48.060877
37.917864 -29.145947 -47.265215
37.550199 -28.781473 -48.240929
38.207695 -25.244747 -48.882216
38.105637 -27.146273 -48.060877
37.853899 -24.687067 -49.877139
38.323622 -23.150015 -49.722763
38.207695 -25.244747 -48.882216
34.76236 -21.578139 -55.175074
35.441742 -20.086143 -55.125132
35.346497 -22.230585 -54.314072
34.105259 -21.15694 -55.897496
34.76236 -21.578139 -55.175074
34.010013 -23.301383 -55.086436
33.434362 -20.726096 -56.630671
34.186708 -19.002852 -56.719309
34.105259 -21.15694 -55.897496
27.383513 -48.612976 -47.59651
28.156083 -48.921158 -46.926859
26.976154 -50.526062 -46.867798
27.922832 -46.51339 -48.303507
27.383513 -48.612976 -47.59651
28.392254 -44.327535 -49.100789
29.032863 -44.822218 -48.452853
27.922832 -46.51339 -48.303507
28.735396 -42.234201 -49.896224
28.392254 -44.327535 -49.100789
29.077292 -40.191792 -50.673474
29.844181 -40.593954 -50.027384
28.735396 -42.234201 -49.896224
29.479125 -38.019735 -51.455025
29.077292 -40.191792 -50.673474
28.37034 -39.659982 -51.323864
25.492373 -37.200592 -53.578434
24.724792 -36.441114 -54.094801
26.253201 -37.775175 -53.063574
25.492373 -37.200592 -53.578434
26.624662 -35.526564 -53.862928
26.991971 -38.293087 -52.571926
26.253201 -37.775175 -53.063574
28.078831 -36.794536 -52.726742
27.685313 -38.986477 -51.950599
26.991971 -38.293087 -52.571926
24.703439 -22.079316 -59.88971
25.519325 -22.666677 -59.48822
23.935456 -21.430385 -60.31068
23.146021 -20.610461 -60.744009
24.864694 -19.904595 -60.74688
24.703439 -22.079316 -59.88971
23.935456 -21.430385 -60.31068
27.951461 17.816762 -68.6391
27.113667 19.262144 -69.020489
28.687224 16.359496 -68.246029
29.400386 14.753037 -67.823135
27.675795 16.623182 -69.05199
27.951461 17.816762 -68.6391
28.687224 16.359496 -68.246029
35.529206 -2.671637 -60.415104
36.181207 -3.312769 -59.450544
35.796919 -4.615399 -59.699492
35.224013 -0.739637 -61.128277
35.529206 -2.671637 -60.415104
34.839724 -2.042267 -61.377224
34.849343 1.253007 -61.860416
35.224013 -0.739637 -61.128277
34.442694 3.204309 -62.567965
34.849343 1.253007 -61.860416
34.127882 1.841036 -62.797945
34.008544 5.153141 -63.22945
34.442694 3.204309 -62.567965
33.550358 6.909019 -63.849422
34.008544 5.153141 -63.22945
33.263046 5.548218 -64.125465
33.052447 8.676223 -64.43338
33.550358 6.909019 -63.849422
32.215601 9.159148 -65.367051
32.463189 10.531274 -65.054993
33.052447 8.676223 -64.43338
3 1 64 62
3 1 66 64
3 251 67 252
3 2 70 68
3 2 72 70
3 2 74 72
3 3 77 75
3 3 79 77
3 6 253 255
3 253 80 254
3 253 254 255
3 6 256 258
3 258 257 80
3 256 257 258
3 6 259 260
3 8 83 81
3 8 85 83
3 9 88 86
3 9 261 263
3 263 262 88
3 261 262 263
3 4 264 266
3 264 89 265
3 264 265 266
3 10 92 90
3 10 93 92
3 10 94 93
3 11 97 95
3 11 99 97
3 267 100 268
3 270 269 100
3 5 103 102
3 12 106 104
3 12 108 106
3 12 110 108
3 13 113 111
3 13 115 113
3 13 117 115
3 14 120 118
3 14 122 120
3 271 124 272
3 274 273 124
3 275 127 276
3 277 129 278
3 279 278 127
3 277 278 279
3 280 130 281
3 7 282 283
3 16 133 131
3 16 135 133
3 16 137 135
3 15 140 138
3 15 142 140
3 284 144 285
3 286 145 287
3 288 146 289
3 290 147 291
3 292 291 146
3 290 291 292
3 19 150 148
3 21 151 63
3 21 152 151
3 21 154 152
3 23 155 65
3 23 156 155
3 24 293 294
3 24 295 297
3 295 157 296
3 295 296 297
3 298 159 299
3 26 160 69
3 26 161 160
3 26 163 161
3 28 164 71
3 28 165 164
3 28 167 165
3 30 168 73
3 30 169 168
3 31 172 170
3 33 173 76
3 33 174 173
3 33 176 174
3 35 177 78
3 35 178 177
3 36 300 302
3 300 179 301
3 300 301 302
3 36 180 179
3 17 303 305
3 305 304 143
3 303 304 305
3 306 181 307
3 37 308 310
3 310 309 82
3 308 309 310
3 37 311 313
3 311 182 312
3 311 312 313
3 37 183 182
3 314 184 315
3 316 315 84
3 314 315 316
3 317 185 318
3 319 318 184
3 317 318 319
3 18 320 321
3 323 322 87
3 38 324 326
3 324 186 325
3 324 325 326
3 38 187 186
3 20 188 149
3 327 189 328
3 329 328 91
3 327 328 329
3 330 190 331
3 332 331 189
3 330 331 332
3 334 333 190
3 335 191 336
3 39 337 338
3 39 339 341
3 339 192 340
3 339 340 341
3 22 193 153
3 40 194 96
3 40 195 194
3 40 196 195
3 41 197 98
3 41 199 197
3 343 342 101
3 344 198 345
3 43 346 347
3 43 348 349
3 25 201 158
3 44 202 105
3 44 203 202
3 44 204 203
3 45 350 352
3 352 351 107
3 350 351 352
3 45 353 355
3 353 205 354
3 353 354 355
3 45 206 205
3 46 207 109
3 46 208 207
3 27 209 162
3 47 210 112
3 47 211 210
3 47 212 211
3 48 356 358
3 358 357 114
3 356 357 358
3 48 359 360
3 48 361 362
3 49 213 116
3 49 214 213
3 29 215 166
3 50 216 119
3 50 217 216
3 50 218 217
3 51 219 121
3 51 220 219
3 363 221 364
3 52 222 123
3 52 223 222
3 52 224 223
3 53 225 125
3 53 226 225
3 53 227 226
3 54 228 126
3 54 229 228
3 55 365 367
3 365 230 366
3 365 366 367
3 55 231 230
3 55 232 231
3 42 233 128
3 42 200 233
3 57 368 370
3 368 235 369
3 368 369 370
3 57 236 235
3 32 237 171
3 58 238 132
3 58 239 238
3 58 240 239
3 59 241 134
3 59 242 241
3 59 243 242
3 60 244 136
3 60 245 244
3 34 246 175
3 61 247 139
3 61 248 247
3 61 249 248
3 56 250 141
3 56 234 250
3 62 63 19
3 64 63 62
3 64 21 63
3 64 65 21
3 66 65 64
3 66 23 65
3 67 371 372
3 67 373 375
3 373 24 374
3 373 374 375
3 68 376 378
3 376 69 377
3 376 377 378
3 70 69 68
3 70 26 69
3 70 71 26
3 72 71 70
3 72 28 71
3 72 73 28
3 74 73 72
3 74 30 73
3 75 76 31
3 77 76 75
3 77 33 76
3 77 78 33
3 79 78 77
3 79 35 78
3 379 36 380
3 80 381 382
3 80 383 384
3 80 385 386
3 388 387 80
3 390 389 17
3 81 391 393
3 391 82 392
3 391 392 393
3 83 82 81
3 83 37 82
3 83 84 37
3 85 84 83
3 85 394 396
3 396 395 84
3 394 395 396
3 86 87 18
3 88 87 86
3 88 397 399
3 399 398 87
3 397 398 399
3 88 400 401
3 403 402 88
3 89 404 405
3 89 406 408
3 406 38 407
3 406 407 408
3 90 91 20
3 92 91 90
3 92 409 411
3 411 410 91
3 409 410 411
3 92 412 413
3 93 414 416
3 416 415 92
3 414 415 416
3 93 417 418
3 93 419 420
3 94 421 423
3 423 422 93
3 421 422 423
3 94 424 426
3 424 39 425
3 424 425 426
3 95 96 22
3 97 96 95
3 97 40 96
3 97 98 40
3 99 98 97
3 99 41 98
3 100 427 428
3 100 429 430
3 100 431 433
3 431 101 432
3 431 432 433
3 434 101 435
3 436 435 100
3 434 435 436
3 438 437 101
3 102 439 440
3 103 441 443
3 443 442 102
3 441 442 443
3 103 444 446
3 444 43 445
3 444 445 446
3 104 105 25
3 106 105 104
3 106 44 105
3 106 107 44
3 108 107 106
3 108 45 107
3 108 109 45
3 110 109 108
3 110 46 109
3 111 112 27
3 113 112 111
3 113 47 112
3 113 114 47
3 115 114 113
3 115 48 114
3 115 116 48
3 117 116 115
3 117 49 116
3 118 119 29
3 120 119 118
3 120 50 119
3 120 121 50
3 122 121 120
3 122 51 121
3 447 123 448
3 124 449 451
3 449 123 450
3 449 450 451
3 124 52 123
3 124 125 52
3 452 125 453
3 454 453 124
3 452 453 454
3 455 53 456
3 457 456 125
3 455 456 457
3 458 126 459
3 460 459 53
3 458 459 460
3 461 126 462
3 463 54 464
3 465 464 126
3 463 464 465
3 127 466 467
3 127 468 470
3 468 55 469
3 468 469 470
3 127 128 55
3 129 128 127
3 129 42 128
3 130 471 472
3 130 473 475
3 473 57 474
3 473 474 475
3 131 132 32
3 133 132 131
3 133 58 132
3 133 134 58
3 135 134 133
3 135 59 134
3 135 136 59
3 137 136 135
3 137 60 136
3 138 139 34
3 140 139 138
3 140 61 139
3 140 141 61
3 142 141 140
3 142 56 141
3 476 6 477
3 478 143 479
3 480 479 6
3 478 479 480
3 144 481 483
3 481 143 482
3 481 482 483
3 144 17 143
3 484 144 485
3 486 144 487
3 488 17 489
3 490 489 144
3 488 489 490
3 492 491 17
3 493 81 494
3 145 495 497
3 495 81 496
3 495 496 497
3 145 8 81
3 498 18 499
3 146 500 501
3 146 502 504
3 502 18 503
3 502 503 504
3 146 86 18
3 147 86 146
3 147 9 86
3 148 149 4
3 150 149 148
3 150 20 149
3 63 150 19
3 151 150 63
3 151 20 150
3 151 90 20
3 152 90 151
3 152 10 90
3 152 153 10
3 154 153 152
3 154 22 153
3 65 154 21
3 155 154 65
3 155 22 154
3 155 95 22
3 156 95 155
3 156 11 95
3 157 505 506
3 157 507 508
3 509 158 510
3 511 510 5
3 509 510 511
3 159 512 514
3 512 158 513
3 512 513 514
3 159 25 158
3 69 515 517
3 515 159 516
3 515 516 517
3 160 159 69
3 160 25 159
3 160 104 25
3 161 104 160
3 161 12 104
3 161 162 12
3 163 162 161
3 163 27 162
3 71 163 26
3 164 163 71
3 164 27 163
3 164 111 27
3 165 111 164
3 165 13 111
3 165 166 13
3 167 166 165
3 167 29 166
3 73 167 28
3 168 167 73
3 168 29 167
3 168 118 29
3 169 118 168
3 169 14 118
3 170 171 7
3 172 171 170
3 172 32 171
3 76 172 31
3 173 172 76
3 173 32 172
3 173 131 32
3 174 131 173
3 174 16 131
3 174 175 16
3 176 175 174
3 176 34 175
3 78 176 33
3 177 176 78
3 177 34 176
3 177 138 34
3 178 138 177
3 178 15 138
3 518 4 519
3 520 4 521
3 522 148 523
3 524 523 4
3 522 523 524
3 525 148 526
3 527 19 528
3 529 528 148
3 527 528 529
3 179 530 531
3 179 532 534
3 532 19 533
3 532 533 534
3 179 62 19
3 180 62 179
3 180 1 62
3 535 102 536
3 537 102 538
3 539 5 540
3 541 540 102
3 539 540 541
3 542 5 543
3 545 544 5
3 546 68 547
3 548 68 549
3 550 2 551
3 552 551 68
3 550 551 552
3 554 553 2
3 143 555 557
3 557 556 6
3 555 556 557
3 559 558 143
3 561 560 17
3 181 562 563
3 181 564 566
3 564 7 565
3 564 565 566
3 82 567 568
3 570 569 82
3 571 181 572
3 182 573 575
3 573 181 574
3 573 574 575
3 182 7 181
3 182 170 7
3 183 170 182
3 183 31 170
3 84 183 37
3 184 183 84
3 184 31 183
3 184 75 31
3 185 75 184
3 185 3 75
3 87 576 578
3 578 577 18
3 576 577 578
3 580 579 87
3 186 581 582
3 186 583 584
3 186 585 587
3 585 147 586
3 585 586 587
3 187 147 186
3 187 9 147
3 149 89 4
3 188 89 149
3 188 38 89
3 91 188 20
3 189 188 91
3 189 38 188
3 189 187 38
3 190 187 189
3 190 9 187
3 190 588 590
3 590 589 9
3 588 589 590
3 592 591 190
3 191 593 594
3 191 595 596
3 597 191 598
3 599 191 600
3 602 601 191
3 192 603 604
3 192 605 606
3 153 94 10
3 193 94 153
3 193 39 94
3 96 193 22
3 194 193 96
3 194 39 193
3 194 192 39
3 195 192 194
3 195 607 609
3 609 608 192
3 607 608 609
3 195 610 611
3 196 612 614
3 614 613 195
3 612 613 614
3 196 615 616
3 98 196 40
3 197 196 98
3 197 617 619
3 619 618 196
3 617 618 619
3 197 620 622
3 620 198 621
3 620 621 622
3 199 198 197
3 199 0 198
3 101 623 624
3 626 625 101
3 198 627 628
3 198 629 631
3 629 0 630
3 629 630 631
3 632 129 633
3 634 129 635
3 636 42 637
3 638 637 129
3 636 637 638
3 639 42 640
3 641 200 642
3 643 642 42
3 641 642 643
3 644 200 645
3 646 0 647
3 648 647 200
3 646 647 648
3 158 103 5
3 201 103 158
3 201 43 103
3 105 201 25
3 202 201 105
3 202 43 201
3 202 649 651
3 651 650 43
3 649 650 651
3 203 652 654
3 654 653 202
3 652 653 654
3 203 655 656
3 203 657 658
3 204 659 661
3 661 660 203
3 659 660 661
3 204 662 663
3 107 204 44
3 664 204 665
3 666 665 107
3 664 665 666
3 668 667 204
3 205 669 670
3 205 671 672
3 205 673 675
3 673 67 674
3 673 674 675
3 206 67 205
3 206 24 67
3 109 206 45
3 207 206 109
3 207 24 206
3 207 157 24
3 208 157 207
3 208 676 678
3 678 677 157
3 676 677 678
3 162 110 12
3 209 110 162
3 209 46 110
3 112 209 27
3 210 209 112
3 210 46 209
3 210 208 46
3 211 208 210
3 211 679 681
3 681 680 208
3 679 680 681
3 211 682 683
3 212 684 686
3 686 685 211
3 684 685 686
3 212 687 688
3 114 212 47
3 689 212 690
3 691 690 114
3 689 690 691
3 693 692 212
3 116 694 696
3 696 695 48
3 694 695 696
3 213 697 699
3 699 698 116
3 697 698 699
3 213 700 701
3 213 702 704
3 702 145 703
3 702 703 704
3 214 145 213
3 214 8 145
3 166 117 13
3 215 117 166
3 215 49 117
3 119 215 29
3 216 215 119
3 216 49 215
3 216 214 49
3 217 214 216
3 217 8 214
3 217 85 8
3 218 85 217
3 218 705 707
3 707 706 85
3 705 706 707
3 121 218 50
3 219 218 121
3 219 708 710
3 710 709 218
3 708 709 710
3 219 711 713
3 711 185 712
3 711 712 713
3 220 185 219
3 220 3 185
3 714 74 715
3 716 715 2
3 714 715 716
3 717 74 718
3 719 30 720
3 721 720 74
3 719 720 721
3 722 30 723
3 724 169 725
3 726 725 30
3 724 725 726
3 221 727 729
3 727 169 728
3 727 728 729
3 221 14 169
3 123 730 731
3 222 732 734
3 734 733 123
3 732 733 734
3 222 735 736
3 222 737 739
3 737 221 738
3 737 738 739
3 223 221 222
3 223 14 221
3 223 122 14
3 224 122 223
3 224 51 122
3 125 224 52
3 225 224 125
3 225 51 224
3 225 220 51
3 226 220 225
3 226 3 220
3 226 79 3
3 227 79 226
3 227 35 79
3 126 227 53
3 228 227 126
3 228 35 227
3 228 178 35
3 229 178 228
3 229 15 178
3 740 54 741
3 230 742 743
3 230 744 746
3 744 54 745
3 744 745 746
3 230 229 54
3 231 229 230
3 231 15 229
3 231 142 15
3 232 142 231
3 232 56 142
3 128 232 55
3 233 232 128
3 233 56 232
3 233 234 56
3 200 234 233
3 200 0 234
3 747 36 748
3 235 749 750
3 235 751 753
3 751 36 752
3 751 752 753
3 235 180 36
3 236 180 235
3 236 1 180
3 171 754 756
3 756 755 7
3 754 755 756
3 237 757 759
3 759 758 171
3 757 758 759
3 237 760 761
3 132 237 32
3 238 237 132
3 238 762 764
3 764 763 237
3 762 763 764
3 238 765 766
3 239 767 769
3 769 768 238
3 767 768 769
3 239 770 771
3 239 772 774
3 772 130 773
3 772 773 774
3 240 130 239
3 240 57 130
3 134 240 58
3 241 240 134
3 241 57 240
3 241 236 57
3 242 236 241
3 242 1 236
3 242 66 1
3 243 66 242
3 243 23 66
3 136 243 59
3 244 243 136
3 244 23 243
3 244 156 23
3 245 156 244
3 245 11 156
3 175 137 16
3 246 137 175
3 246 60 137
3 139 246 34
3 247 246 139
3 247 60 246
3 247 245 60
3 248 245 247
3 248 11 245
3 248 99 11
3 249 99 248
3 249 41 99
3 141 249 61
3 250 249 141
3 250 41 249
3 250 199 41
3 234 199 250
3 234 0 199
