ply
format ascii 1.0
element vertex 628
property float x
property float y
property float z
element face 619
property list uchar int vertex_index
end_header
23.715256 -72.367905 -15.474648
8.292495 -95.001648 -18.426027
18.294693 -79.099602 -34.138062
-1.601586 -103.52253 -18.072569
2.895946 -99.579781 -27.007856
16.919661 -84.011948 -17.351959
22.104193 -76.273903 -25.493099
13.188255 -88.939308 -26.858818
7.685016 -91.253311 -34.549564
-4.52854 -105.352951 -21.354959
26.428782 -66.695969 -14.689404
28.79034 -63.010532 -18.92079
26.161314 -68.709404 -19.651012
15.070443 -71.774887 -43.054119
15.469126 -86.381912 -22.243086
10.76591 -92.408165 -22.767445
-0.556996 -100.59864 -30.105888
5.265937 -95.991028 -30.92898
15.840882 -83.422676 -7.643093
20.525904 -77.855659 -29.94315
24.612293 -71.583359 -29.260714
23.051771 -72.491745 -33.439953
3.377088 -99.730598 -18.349476
5.921105 -97.601181 -22.914206
0.516593 -102.174438 -22.608046
15.724746 -79.268028 -37.808018
20.89072 -72.819649 -37.405621
20.627153 -78.05249 -16.474716
22.983088 -74.669159 -20.450842
19.525682 -80.417 -21.332428
15.772902 -84.417488 -30.613451
8.306421 -94.541962 -27.213413
10.871836 -90.258865 -31.135477
13.322678 -85.230133 -34.579205
10.132023 -85.451828 -37.821529
23.986267 -70.274147 -10.204516
21.837481 -73.062729 -5.538847
21.261639 -75.69706 -11.045291
18.128838 -81.177673 -12.073897
14.503583 -86.599838 -12.908927
10.462972 -91.773712 -13.742796
25.678474 -70.236252 -24.562843
25.118294 -69.510941 -14.986058
26.361528 -67.674324 -17.223398
25.020105 -70.415031 -17.520441
10.646975 -92.361099 -18.324572
11.883144 -91.046211 -20.493414
9.529012 -93.822456 -20.630737
19.440319 -78.63829 -32.049412
21.697147 -75.344818 -31.857836
20.720789 -75.858078 -33.741543
0.939102 -101.700386 -18.149654
2.154998 -100.947998 -20.540892
-0.391738 -102.86908 -20.286495
-6.284165 -105.927917 -22.733286
-3.691148 -104.629753 -23.665916
14.104653 -79.459236 -39.193298
16.965193 -76.102577 -39.1703
16.277065 -67.905556 -44.289001
17.833305 -68.504852 -43.249786
18.801405 -81.066231 -16.817284
20.007652 -79.436417 -18.852571
18.137707 -82.432999 -19.538263
14.483176 -87.60083 -24.546782
16.667393 -84.593636 -24.408291
15.558591 -85.850563 -26.61834
14.468409 -86.810509 -28.714935
4.359415 -98.81958 -24.975027
7.089041 -96.220184 -25.136724
5.541693 -97.26049 -27.214584
6.521762 -93.746422 -32.741646
8.11679 -93.189224 -31.173687
9.300132 -90.912971 -32.936089
12.129522 -87.799576 -32.93549
10.453364 -88.401299 -34.656628
11.803939 -85.410103 -36.327053
9.039617 -88.33802 -36.24369
20.471882 -75.726028 -6.122604
21.600725 -74.320671 -8.326447
20.175508 -76.991539 -8.780652
19.745361 -78.415703 -11.43501
18.726351 -79.548973 -9.32486
14.049194 -85.901939 -8.005527
15.263936 -84.916153 -10.207376
13.372685 -87.54776 -10.795903
11.238386 -90.161766 -10.948423
3.534567 -98.731262 -14.05277
22.632225 -75.46788 -23.09421
24.386555 -72.422211 -22.435818
23.962822 -73.224174 -24.981594
26.019854 -68.759766 -30.991749
26.555178 -68.389397 -28.781849
-3.117465 -104.619347 -19.760271
-8.711135 -106.826279 -21.724455
28.760384 -62.161102 -16.622694
27.584227 -64.969154 -16.877981
27.585575 -65.736107 -19.255476
27.512278 -66.462296 -21.622158
14.756147 -67.011429 -45.197376
16.166517 -85.351723 -19.893585
13.125701 -89.50116 -22.596809
12.013547 -90.744431 -24.850052
1.196796 -100.261002 -28.593063
4.071251 -97.892723 -29.076189
2.433947 -98.389008 -30.634794
18.020544 -79.243896 -4.245612
17.474966 -80.917999 -7.157985
21.216982 -77.353386 -27.787317
23.293398 -74.115013 -27.414692
22.627337 -74.680618 -29.676561
23.922586 -72.077438 -31.328295
25.260424 -69.219391 -33.002384
5.774169 -97.567749 -18.554779
7.087677 -96.446419 -20.795265
4.621442 -98.829239 -20.688709
3.297669 -99.982513 -22.728134
1.841033 -100.927475 -24.729956
-2.01924 -103.911514 -22.00956
0.146125 -101.725487 -26.477427
-1.566878 -102.197945 -28.03455
17.074371 -79.283714 -36.062885
19.596809 -76.135895 -35.698902
18.401325 -76.066238 -37.588867
19.596748 -72.76506 -39.125645
20.896448 -69.208794 -40.546619
16.507362 -72.452957 -41.924126
19.383648 -68.94989 -42.006378
22.121918 -65.613342 -41.906467
22.145823 -75.288582 -15.709308
23.433336 -73.456734 -17.896551
21.846567 -76.330986 -18.426727
21.317543 -77.527519 -20.962931
20.743635 -78.544395 -23.349962
17.518753 -83.462769 -21.999548
18.837978 -81.465019 -23.847012
18.222921 -81.14093 -30.273985
17.057547 -81.844757 -32.392143
8.511967 -94.953316 -22.899157
9.622242 -93.551872 -24.947657
10.818671 -91.791481 -27.064262
6.980443 -95.209457 -29.249887
9.643164 -92.457283 -29.252613
12.091396 -89.700005 -29.071993
13.408051 -87.339493 -30.926413
14.644856 -84.907761 -32.638752
15.774158 -82.30912 -34.406845
14.483971 -82.356888 -36.290154
12.903685 -82.582596 -37.805027
25.204535 -68.525826 -12.498131
23.880695 -71.270729 -12.723876
22.969828 -71.560829 -7.829396
22.646027 -72.97731 -10.445544
22.515951 -74.00415 -13.229556
20.881016 -77.025154 -13.659873
19.332655 -79.730499 -14.191824
17.603743 -82.57151 -14.824482
17.074009 -82.233978 -9.813203
16.406734 -83.83918 -12.380869
15.737069 -85.343613 -15.03654
9.45041 -93.414322 -16.171442
7.059344 -95.934555 -16.166784
4.609113 -98.293709 -16.255331
2.190173 -100.341087 -16.080294
24.622719 -71.674568 -19.925697
25.909058 -69.628242 -22.112616
27.329134 -67.171562 -24.081055
25.2113 -70.961082 -26.980335
21.942652 -72.878937 -35.506855
24.333321 -69.57679 -35.00774
-5.860008 -105.491619 -23.895418
-7.141692 -106.021309 -23.396544
14.833146 -77.657989 -39.857899
13.444192 -79.08551 -39.897165
17.732769 -66.236435 -44.375968
16.90766 -65.860165 -44.910005
19.758367 -77.017002 -6.394742
19.940585 -76.305031 -4.964918
19.61018 -77.649757 -7.723766
20.323695 -76.358784 -7.451628
19.758367 -77.017002 -6.394742
18.885601 -78.928474 -7.99587
19.45093 -78.270256 -9.052756
19.61018 -77.649757 -7.723766
12.758642 -87.938771 -9.564516
13.71094 -86.72485 -9.400715
13.096896 -87.11586 -8.169328
11.691492 -89.245773 -9.640776
12.305536 -88.854763 -10.872163
12.758642 -87.938771 -9.564516
26.9767 -67.163944 -30.800463
26.665282 -67.365834 -31.817289
-9.138208 -107.06152 -20.59561
-7.916174 -106.67553 -21.087454
27.006504 -65.832561 -15.783692
27.591174 -64.48135 -15.670304
27.013451 -65.344758 -14.576016
13.414904 -68.277783 -45.075489
14.094356 -68.95805 -44.637457
12.65411 -67.557594 -45.511398
13.995354 -66.291241 -45.633285
13.414904 -68.277783 -45.075489
17.478224 -79.685875 -3.071938
18.272283 -78.409172 -2.781042
17.239263 -80.484409 -4.529559
17.478224 -79.685875 -3.071938
-2.277158 -103.766155 -23.976406
-3.158072 -104.086895 -24.768812
-1.239435 -102.634762 -26.174568
-0.358522 -102.314022 -25.382161
-2.095937 -102.870991 -26.953129
-0.710376 -101.961716 -27.255989
-1.239435 -102.634762 -26.174568
29.341636 -61.614948 -18.725651
29.326657 -61.190233 -17.576603
28.775362 -62.585817 -17.771742
18.910209 -72.664642 -39.866826
18.280971 -74.433819 -39.147972
17.594431 -74.3334 -39.889153
19.560059 -70.886509 -40.577313
20.246598 -70.986927 -39.836132
18.910209 -72.664642 -39.866826
15.788902 -72.113922 -42.489123
15.229941 -73.911225 -41.866064
14.511481 -73.57219 -42.431061
20.02328 -67.079208 -42.637375
18.608477 -68.727371 -42.628082
19.248109 -66.85669 -43.259079
21.392415 -65.410934 -42.587419
20.752783 -67.281616 -41.956423
20.02328 -67.079208 -42.637375
22.636429 -63.767182 -42.633703
21.392415 -65.410934 -42.587419
18.336818 -82.078518 -25.076491
17.752685 -83.029327 -24.127651
17.251525 -83.642827 -25.357131
19.430265 -80.49039 -24.796198
18.336818 -82.078518 -25.076491
16.997912 -82.779209 -30.443718
17.530898 -82.378151 -29.461864
16.305889 -84.01643 -29.631597
10.754514 -83.859985 -38.534964
12.140345 -82.425369 -38.526713
11.517854 -84.017212 -37.813278
24.595401 -69.399986 -11.351323
25.201216 -68.073757 -11.184954
24.592082 -68.947918 -10.038147
21.968055 -72.432663 -4.219791
21.474025 -73.016041 -3.084623
21.343452 -73.646107 -4.403679
22.483006 -71.758457 -5.392259
22.61358 -71.128391 -4.073202
21.968055 -72.432663 -4.219791
22.403655 -72.311779 -6.684121
23.04918 -71.007507 -6.537534
22.483006 -71.758457 -5.392259
14.148698 -87.332482 -14.210267
14.765441 -86.704369 -15.274074
15.120326 -85.971726 -13.972734
11.100442 -91.247356 -14.832082
11.448594 -90.557041 -13.526245
9.956691 -92.594017 -14.957119
10.594161 -92.067661 -16.046405
11.100442 -91.247356 -14.832082
6.415895 -96.310104 -15.038923
7.625974 -95.089203 -14.951601
5.19078 -97.489682 -15.083196
5.834229 -97.114132 -16.211058
6.415895 -96.310104 -15.038923
1.600125 -100.503578 -14.863877
2.86237 -99.536175 -15.066532
2.272321 -99.698666 -13.850115
0.98543 -101.250713 -15.979779
1.600125 -100.503578 -14.863877
26.75766 -68.151196 -27.643247
27.468216 -66.775219 -28.624287
25.00448 -67.945412 -35.824179
23.895543 -69.496696 -36.01547
25.422821 -67.940159 -34.835289
25.00448 -67.945412 -35.824179
11.265059 -91.703655 -19.408993
12.384654 -90.321324 -19.234389
11.766569 -90.978768 -18.149968
0.106348 -99.549656 -31.11609
-1.327606 -100.520947 -30.800126
-4.5635 -104.842537 -24.361733
-4.987656 -105.278835 -23.199601
-5.860008 -105.491619 -23.895418
-3.158072 -104.086895 -24.768812
-4.5635 -104.842537 -24.361733
29.438097 -61.863987 -19.915152
28.852761 -63.259039 -20.151136
16.263416 -75.97966 -39.8464
15.534923 -77.780907 -39.181799
14.833146 -77.657989 -39.857899
17.594431 -74.3334 -39.889153
16.263416 -75.97966 -39.8464
18.510889 -66.536083 -43.856361
17.055185 -68.205204 -43.769393
17.732769 -66.236435 -44.375968
19.248109 -66.85669 -43.259079
18.510889 -66.536083 -43.856361
16.697124 -84.27129 -26.462156
17.251525 -83.642827 -25.357131
16.112992 -85.222099 -25.513315
16.198733 -84.732968 -27.634042
16.697124 -84.27129 -26.462156
15.653642 -85.212941 -28.682339
16.198733 -84.732968 -27.634042
15.0135 -86.330536 -27.666638
15.120655 -85.613999 -29.664193
16.305889 -84.01643 -29.631597
15.653642 -85.212941 -28.682339
24.109067 -69.586235 -8.877648
24.592082 -68.947918 -10.038147
20.660652 -74.977756 -4.695558
19.940585 -76.305031 -4.964918
21.154682 -74.394379 -5.830725
21.343452 -73.646107 -4.403679
20.660652 -74.977756 -4.695558
12.90345 -88.444065 -12.052798
13.468899 -87.970104 -13.10931
13.938134 -87.073799 -11.852415
11.836301 -89.751068 -12.129058
12.90345 -88.444065 -12.052798
12.305536 -88.854763 -10.872163
10.850679 -90.967739 -12.34561
11.448594 -90.557041 -13.526245
11.836301 -89.751068 -12.129058
4.047064 -97.903107 -12.75869
4.653507 -97.708458 -13.981916
2.890874 -98.867813 -12.74767
4.047064 -97.903107 -12.75869
3.403371 -98.039658 -11.45359
2.272321 -99.698666 -13.850115
2.890874 -98.867813 -12.74767
27.244362 -66.97876 -29.695513
26.287516 -68.574581 -29.886799
26.9767 -67.163944 -30.800463
27.468216 -66.775219 -28.624287
27.244362 -66.97876 -29.695513
22.174242 -71.118126 -37.214411
21.510956 -71.214035 -38.115138
-3.63866 -104.821003 -18.598839
-2.359526 -104.070939 -18.91642
-2.88072 -104.272594 -17.754988
-4.320723 -105.252781 -19.434957
-3.63866 -104.821003 -18.598839
-5.02626 -105.619583 -20.232301
-3.823002 -104.986149 -20.557615
-4.320723 -105.252781 -19.434957
-5.824877 -105.938866 -20.902706
-5.02626 -105.619583 -20.232301
-6.322597 -106.205498 -19.780048
-6.702689 -106.226349 -21.59187
-5.406352 -105.640434 -22.044123
-5.824877 -105.938866 -20.902706
-7.49765 -106.377098 -22.22887
-6.702689 -106.226349 -21.59187
-7.916174 -106.67553 -21.087454
-8.355177 -106.470489 -22.892129
-7.141692 -106.021309 -23.396544
-7.49765 -106.377098 -22.22887
28.179252 -63.077324 -15.542661
28.646706 -61.832745 -15.309414
28.172306 -63.565128 -16.750338
28.179252 -63.077324 -15.542661
27.591174 -64.48135 -15.670304
28.250379 -64.621826 -20.31848
28.852761 -63.259039 -20.151136
28.187957 -64.37332 -19.088133
28.21373 -64.984921 -21.501821
28.250379 -64.621826 -20.31848
27.548927 -66.099201 -20.438817
28.165441 -65.338173 -22.698425
28.21373 -64.984921 -21.501821
13.694723 -73.155815 -42.994575
14.511481 -73.57219 -42.431061
14.251504 -71.339779 -43.565828
13.694723 -73.155815 -42.994575
14.854816 -69.405113 -44.183269
15.673754 -69.840222 -43.67156
14.251504 -71.339779 -43.565828
15.516606 -67.458493 -44.743189
14.854816 -69.405113 -44.183269
14.094356 -68.95805 -44.637457
16.147201 -65.413102 -45.364193
16.90766 -65.860165 -44.910005
15.516606 -67.458493 -44.743189
15.416878 -64.845782 -45.821321
16.147201 -65.413102 -45.364193
15.416878 -64.845782 -45.821321
13.995354 -66.291241 -45.633285
15.601194 -86.049809 -18.860315
16.543089 -84.681836 -18.622772
15.977767 -85.379921 -17.589502
15.096422 -86.826321 -20.04721
15.601194 -86.049809 -18.860315
14.747727 -87.341415 -21.22196
15.817821 -85.866817 -21.068336
15.096422 -86.826321 -20.04721
12.954736 -89.673565 -20.347124
12.384654 -90.321324 -19.234389
13.576014 -88.901039 -21.398822
12.954736 -89.673565 -20.347124
12.504423 -90.273685 -21.545112
14.297413 -87.941536 -22.419947
14.747727 -87.341415 -21.22196
13.576014 -88.901039 -21.398822
1.601819 -98.44484 -31.380543
0.938475 -99.493824 -30.370341
0.106348 -99.549656 -31.11609
3.106302 -97.266053 -31.604612
1.601819 -98.44484 -31.380543
4.522297 -96.067062 -31.751705
3.849942 -97.190018 -30.781887
3.106302 -97.266053 -31.604612
5.150209 -94.94476 -32.658038
5.893849 -94.868725 -31.835313
4.522297 -96.067062 -31.751705
5.756763 -93.74612 -33.551232
5.150209 -94.94476 -32.658038
6.338391 -92.499565 -34.455191
7.103389 -92.499866 -33.645605
5.756763 -93.74612 -33.551232
6.915543 -91.172542 -35.312325
6.338391 -92.499565 -34.455191
18.714916 -78.063964 -4.026423
18.272283 -78.409172 -2.781042
18.532698 -78.775936 -5.456247
18.714916 -78.063964 -4.026423
17.747755 -80.080948 -5.701799
18.259909 -79.612988 -6.912433
18.532698 -78.775936 -5.456247
16.966473 -81.321461 -5.985746
17.747755 -80.080948 -5.701799
17.239263 -80.484409 -4.529559
16.149431 -82.573799 -6.2283
16.657924 -82.170337 -7.400539
16.966473 -81.321461 -5.985746
15.27158 -83.819618 -6.435199
16.149431 -82.573799 -6.2283
14.375736 -85.059249 -6.616416
14.945038 -84.662307 -7.82431
15.27158 -83.819618 -6.435199
13.438827 -86.272095 -6.807699
14.375736 -85.059249 -6.616416
13.096896 -87.11586 -8.169328
13.438827 -86.272095 -6.807699
26.285567 -67.595646 -32.822607
26.665282 -67.365834 -31.817289
25.640139 -68.989578 -31.997066
-1.441204 -103.407036 -23.148228
-2.855194 -104.270634 -22.837738
-2.277158 -103.766155 -23.976406
-0.173288 -102.538498 -23.447471
-0.751324 -103.042976 -22.308803
-1.441204 -103.407036 -23.148228
0.488932 -101.915016 -24.508426
1.178813 -101.550956 -23.669001
-0.173288 -102.538498 -23.447471
0.993579 -101.326481 -25.603692
0.488932 -101.915016 -24.508426
-0.358522 -102.314022 -25.382161
-2.965745 -103.005154 -27.677329
-2.095937 -102.870991 -26.953129
-2.506087 -102.301732 -28.707225
-2.965745 -103.005154 -27.677329
-2.001146 -101.502079 -29.742894
-1.061937 -101.398292 -29.070219
-2.506087 -102.301732 -28.707225
-2.771756 -101.424385 -30.437132
-1.327606 -100.520947 -30.800126
-2.001146 -101.502079 -29.742894
29.239684 -60.829843 -16.384611
28.646706 -61.832745 -15.309414
29.239684 -60.829843 -16.384611
29.326657 -61.190233 -17.576603
29.341636 -61.614948 -18.725651
29.438097 -61.863987 -19.915152
20.86397 -71.186741 -38.97515
21.510956 -71.214035 -38.115138
20.243734 -72.792355 -38.265633
21.51382 -69.408608 -39.685637
20.86397 -71.186741 -38.97515
20.246598 -70.986927 -39.836132
22.123756 -67.737698 -40.377239
21.51382 -69.408608 -39.685637
16.0345 -74.15485 -41.223313
15.229941 -73.911225 -41.866064
17.365516 -72.50859 -41.266066
16.0345 -74.15485 -41.223313
18.803659 -70.757057 -41.307192
17.365516 -72.50859 -41.266066
17.945505 -70.701424 -41.965252
20.140048 -69.079342 -41.276499
19.560059 -70.886509 -40.577313
18.803659 -70.757057 -41.307192
22.736491 -65.939972 -41.057163
22.123756 -67.737698 -40.377239
21.509183 -67.411068 -41.226543
23.300441 -64.062715 -41.866603
22.736491 -65.939972 -41.057163
23.300441 -64.062715 -41.866603
22.636429 -63.767182 -42.633703
20.383094 -79.030079 -24.547673
19.790807 -80.004707 -23.598487
19.430265 -80.49039 -24.796198
21.063372 -77.894833 -25.619242
21.423914 -77.409149 -24.421531
20.383094 -79.030079 -24.547673
20.619767 -78.434574 -26.766351
21.660587 -76.813645 -26.640208
21.063372 -77.894833 -25.619242
20.164876 -78.920547 -27.926676
20.619767 -78.434574 -26.766351
19.819337 -79.171684 -29.004593
20.871443 -77.604523 -28.865234
20.164876 -78.920547 -27.926676
18.667845 -80.814319 -29.170011
17.530898 -82.378151 -29.461864
19.374412 -79.498295 -30.108567
19.819337 -79.171684 -29.004593
18.667845 -80.814319 -29.170011
12.740829 -80.863689 -39.220848
13.504169 -81.020916 -38.499162
12.140345 -82.425369 -38.526713
13.444192 -79.08551 -39.897165
12.740829 -80.863689 -39.220848
7.592843 -89.714897 -36.159388
8.362317 -89.795665 -35.396627
6.915543 -91.172542 -35.312325
8.183746 -88.262135 -36.953182
7.592843 -89.714897 -36.159388
8.72995 -86.819039 -37.742102
9.58582 -86.894924 -37.032609
8.183746 -88.262135 -36.953182
9.334136 -85.307408 -38.443415
8.72995 -86.819039 -37.742102
10.754514 -83.859985 -38.534964
9.334136 -85.307408 -38.443415
26.411273 -66.250088 -13.397956
27.013451 -65.344758 -14.576016
25.799149 -67.165017 -12.30232
25.201216 -68.073757 -11.184954
25.816659 -67.610897 -13.593768
26.411273 -66.250088 -13.397956
25.799149 -67.165017 -12.30232
23.600848 -70.229576 -7.690088
23.04918 -71.007507 -6.537534
23.478048 -70.917488 -9.016956
24.109067 -69.586235 -8.877648
23.600848 -70.229576 -7.690088
18.100659 -80.233486 -8.241422
18.885601 -78.928474 -7.99587
18.259909 -79.612988 -6.912433
15.38647 -86.045754 -16.431793
15.977767 -85.379921 -17.589502
16.328365 -84.677781 -16.19425
15.38647 -86.045754 -16.431793
14.765441 -86.704369 -15.274074
14.148698 -87.332482 -14.210267
13.468899 -87.970104 -13.10931
11.192443 -91.54105 -17.122969
11.766569 -90.978768 -18.149968
10.048692 -92.88771 -17.248007
11.192443 -91.54105 -17.122969
10.594161 -92.067661 -16.046405
10.589754 -90.52525 -9.783793
11.691492 -89.245773 -9.640776
10.189152 -91.370705 -11.117928
10.589754 -90.52525 -9.783793
9.801445 -92.176678 -12.515114
10.850679 -90.967739 -12.34561
10.189152 -91.370705 -11.117928
9.327789 -93.008781 -13.739607
9.801445 -92.176678 -12.515114
8.821507 -93.829087 -14.95393
9.956691 -92.594017 -14.957119
9.327789 -93.008781 -13.739607
8.254877 -94.674439 -16.169113
8.821507 -93.829087 -14.95393
7.625974 -95.089203 -14.951601
4.07184 -98.512485 -15.154051
5.19078 -97.489682 -15.083196
4.653507 -97.708458 -13.981916
0.359895 -101.930363 -17.014459
1.564638 -101.020736 -17.114974
0.98543 -101.250713 -15.979779
-0.91045 -102.841434 -16.975917
-0.331242 -102.611458 -18.111111
0.359895 -101.930363 -17.014459
-2.108624 -103.643143 -16.879102
-0.91045 -102.841434 -16.975917
-2.88072 -104.272594 -17.754988
-2.108624 -103.643143 -16.879102
-9.951833 -107.122731 -21.012034
-9.138208 -107.06152 -20.59561
-9.589104 -106.851963 -22.190894
-9.951833 -107.122731 -21.012034
-8.355177 -106.470489 -22.892129
-9.589104 -106.851963 -22.190894
28.073869 -65.692806 -23.927874
28.165441 -65.338173 -22.698425
27.420706 -66.816929 -22.851606
26.085721 -69.437038 -26.742489
25.883239 -69.67524 -27.881092
26.75766 -68.151196 -27.643247
26.319308 -69.074623 -25.533743
25.444887 -70.598667 -25.771589
26.085721 -69.437038 -26.742489
27.144638 -67.542278 -25.292849
26.503804 -68.703907 -24.321949
26.319308 -69.074623 -25.533743
27.984469 -65.975631 -25.133164
27.144638 -67.542278 -25.292849
28.073869 -65.692806 -23.927874
27.984469 -65.975631 -25.133164
22.700208 -71.14777 -36.265028
21.416686 -72.849293 -36.456238
22.174242 -71.118126 -37.214411
23.137987 -71.227863 -35.257297
22.700208 -71.14777 -36.265028
23.895543 -69.496696 -36.01547
25.886372 -67.76146 -33.832611
24.796872 -69.39809 -34.005062
25.422821 -67.940159 -34.835289
26.285567 -67.595646 -32.822607
25.886372 -67.76146 -33.832611
3 0 44 42
3 1 47 45
3 2 50 48
3 3 53 51
3 170 169 54
3 172 171 56
3 174 173 58
3 5 62 60
3 7 65 63
3 7 66 65
3 4 69 67
3 8 72 70
3 8 74 72
3 8 76 74
3 175 77 176
3 177 79 178
3 179 178 77
3 177 178 179
3 180 81 181
3 182 181 79
3 180 181 182
3 183 84 184
3 185 184 82
3 183 184 185
3 186 85 187
3 188 187 84
3 186 187 188
3 6 89 87
3 190 189 90
3 191 93 192
3 10 193 195
3 193 95 194
3 193 194 195
3 12 96 43
3 12 97 96
3 196 98 197
3 200 199 98
3 198 199 200
3 15 100 46
3 15 101 100
3 16 104 102
3 201 105 202
3 204 203 105
3 19 109 107
3 21 110 49
3 21 111 110
3 22 114 112
3 24 115 52
3 24 116 115
3 9 117 92
3 206 205 55
3 207 118 208
3 209 119 210
3 211 210 118
3 209 210 211
3 11 212 214
3 214 213 94
3 212 213 214
3 25 122 120
3 215 123 216
3 217 216 57
3 215 216 217
3 218 124 219
3 220 219 123
3 218 219 220
3 13 221 223
3 221 125 222
3 221 222 223
3 224 126 225
3 226 225 59
3 224 225 226
3 227 127 228
3 229 228 126
3 227 228 229
3 231 230 127
3 27 130 128
3 29 131 61
3 29 132 131
3 14 133 99
3 232 134 233
3 234 233 64
3 232 233 234
3 236 235 134
3 30 237 239
3 237 135 238
3 237 238 239
3 30 136 135
3 23 137 113
3 31 138 68
3 31 139 138
3 17 140 103
3 32 141 71
3 32 142 141
3 32 143 142
3 33 144 73
3 33 145 144
3 33 146 145
3 34 147 75
3 34 240 242
3 242 241 147
3 240 241 242
3 35 243 245
3 243 148 244
3 243 244 245
3 35 149 148
3 36 246 248
3 246 247 248
3 36 249 251
3 249 250 251
3 36 252 254
3 252 150 253
3 252 253 254
3 37 151 78
3 37 152 151
3 37 153 152
3 38 154 80
3 38 155 154
3 18 156 106
3 39 157 83
3 39 158 157
3 39 255 257
3 257 256 158
3 255 256 257
3 40 258 259
3 40 260 262
3 260 159 261
3 260 261 262
3 263 160 264
3 265 161 266
3 267 266 160
3 265 266 267
3 268 162 269
3 270 269 86
3 268 269 270
3 272 271 162
3 28 163 129
3 41 164 88
3 41 165 164
3 20 166 108
3 274 273 91
3 26 167 121
3 275 168 276
3 278 277 168
3 42 43 10
3 44 43 42
3 44 12 43
3 45 279 281
3 279 46 280
3 279 280 281
3 47 46 45
3 47 15 46
3 283 282 16
3 48 49 19
3 50 49 48
3 50 21 49
3 51 52 22
3 53 52 51
3 53 24 52
3 54 55 9
3 284 55 285
3 286 285 54
3 284 285 286
3 288 287 55
3 290 289 11
3 56 57 25
3 291 57 292
3 293 292 56
3 291 292 293
3 295 294 57
3 58 59 13
3 296 59 297
3 298 297 58
3 296 297 298
3 300 299 59
3 60 61 27
3 62 61 60
3 62 29 61
3 63 64 14
3 65 64 63
3 65 301 303
3 303 302 64
3 301 302 303
3 65 304 305
3 66 306 308
3 308 307 65
3 306 307 308
3 66 309 311
3 309 30 310
3 309 310 311
3 67 68 23
3 69 68 67
3 69 31 68
3 70 71 17
3 72 71 70
3 72 32 71
3 72 73 32
3 74 73 72
3 74 33 73
3 74 75 33
3 76 75 74
3 76 34 75
3 312 35 313
3 77 314 315
3 77 316 318
3 316 36 317
3 316 317 318
3 77 78 36
3 79 78 77
3 79 37 78
3 79 80 37
3 81 80 79
3 81 38 80
3 82 83 18
3 84 83 82
3 84 39 83
3 84 319 321
3 321 320 39
3 319 320 321
3 85 322 324
3 324 323 84
3 322 323 324
3 85 325 327
3 325 40 326
3 325 326 327
3 328 86 329
3 330 86 331
3 330 331 332
3 334 333 86
3 87 88 28
3 89 88 87
3 89 41 88
3 90 91 20
3 335 91 336
3 337 336 90
3 335 336 337
3 339 338 91
3 341 340 26
3 342 92 343
3 344 343 3
3 342 343 344
3 345 92 346
3 347 9 348
3 349 348 92
3 347 348 349
3 350 9 351
3 350 351 352
3 353 54 354
3 355 354 9
3 353 354 355
3 93 356 358
3 356 54 357
3 356 357 358
3 93 359 361
3 361 360 54
3 359 360 361
3 362 94 363
3 95 364 366
3 364 94 365
3 364 365 366
3 95 11 94
3 43 95 10
3 96 95 43
3 96 11 95
3 96 367 369
3 369 368 11
3 367 368 369
3 97 370 372
3 372 371 96
3 370 371 372
3 97 373 374
3 375 13 376
3 377 13 378
3 379 58 380
3 381 380 13
3 379 380 381
3 98 382 384
3 382 58 383
3 382 383 384
3 98 385 387
3 387 386 58
3 385 386 387
3 98 388 389
3 391 390 98
3 392 99 393
3 394 393 5
3 392 393 394
3 395 99 396
3 397 14 398
3 399 398 99
3 397 398 399
3 46 400 401
3 100 402 404
3 404 403 46
3 402 403 404
3 100 405 407
3 405 14 406
3 405 406 407
3 100 63 14
3 101 63 100
3 101 7 63
3 102 103 4
3 104 103 102
3 104 17 103
3 408 104 409
3 410 409 16
3 408 409 410
3 411 104 412
3 413 17 414
3 415 414 104
3 413 414 415
3 416 70 417
3 418 417 17
3 416 417 418
3 419 70 420
3 421 8 422
3 423 422 70
3 421 422 423
3 425 424 8
3 105 426 427
3 105 428 429
3 105 430 432
3 430 106 431
3 430 431 432
3 433 106 434
3 435 434 105
3 433 434 435
3 436 18 437
3 438 437 106
3 436 437 438
3 439 18 440
3 441 82 442
3 443 442 18
3 441 442 443
3 444 82 445
3 447 446 82
3 107 108 6
3 109 108 107
3 109 20 108
3 49 109 19
3 110 109 49
3 110 20 109
3 110 90 20
3 111 90 110
3 111 448 450
3 450 449 90
3 448 449 450
3 112 113 1
3 114 113 112
3 114 23 113
3 52 114 22
3 115 114 52
3 115 23 114
3 115 67 23
3 116 67 115
3 116 4 67
3 92 53 3
3 117 53 92
3 117 24 53
3 55 117 9
3 451 117 452
3 453 452 55
3 451 452 453
3 454 24 455
3 456 455 117
3 454 455 456
3 457 116 458
3 459 458 24
3 457 458 459
3 118 460 462
3 460 116 461
3 460 461 462
3 118 4 116
3 118 102 4
3 119 102 118
3 119 16 102
3 463 119 464
3 465 119 466
3 467 16 468
3 469 468 119
3 467 468 469
3 472 471 16
3 470 471 472
3 94 473 474
3 476 475 94
3 478 477 11
3 120 121 2
3 122 121 120
3 122 26 121
3 57 122 25
3 123 122 57
3 123 26 122
3 123 479 481
3 481 480 26
3 479 480 481
3 124 482 484
3 484 483 123
3 482 483 484
3 124 485 486
3 125 487 488
3 125 489 490
3 59 125 13
3 126 125 59
3 126 491 493
3 493 492 125
3 491 492 493
3 126 494 496
3 494 124 495
3 494 495 496
3 127 124 126
3 127 497 499
3 499 498 124
3 497 498 499
3 127 500 501
3 503 502 127
3 128 129 0
3 130 129 128
3 130 28 129
3 61 130 27
3 131 130 61
3 131 28 130
3 131 87 28
3 132 87 131
3 132 6 87
3 99 62 5
3 133 62 99
3 133 29 62
3 64 133 14
3 134 133 64
3 134 29 133
3 134 132 29
3 504 132 505
3 506 505 134
3 504 505 506
3 507 6 508
3 509 508 132
3 507 508 509
3 510 107 511
3 512 511 6
3 510 511 512
3 513 107 514
3 515 19 516
3 517 516 107
3 515 516 517
3 135 518 519
3 135 520 522
3 520 19 521
3 520 521 522
3 135 48 19
3 136 48 135
3 136 2 48
3 113 47 1
3 137 47 113
3 137 15 47
3 68 137 23
3 138 137 68
3 138 15 137
3 138 101 15
3 139 101 138
3 139 7 101
3 103 69 4
3 140 69 103
3 140 31 69
3 71 140 17
3 141 140 71
3 141 31 140
3 141 139 31
3 142 139 141
3 142 7 139
3 142 66 7
3 143 66 142
3 143 30 66
3 73 143 32
3 144 143 73
3 144 30 143
3 144 136 30
3 145 136 144
3 145 2 136
3 145 120 2
3 146 120 145
3 146 25 120
3 75 146 33
3 147 146 75
3 147 25 146
3 147 56 25
3 523 56 524
3 525 524 147
3 523 524 525
3 527 526 56
3 528 76 529
3 530 529 8
3 528 529 530
3 531 76 532
3 533 34 534
3 535 534 76
3 533 534 535
3 536 34 537
3 539 538 34
3 540 10 541
3 148 542 543
3 148 544 546
3 544 10 545
3 544 545 546
3 148 42 10
3 149 42 148
3 149 0 42
3 150 547 548
3 150 549 551
3 549 35 550
3 549 550 551
3 78 150 36
3 151 150 78
3 151 35 150
3 151 149 35
3 152 149 151
3 152 0 149
3 152 128 0
3 153 128 152
3 153 27 128
3 80 153 37
3 154 153 80
3 154 27 153
3 154 60 27
3 155 60 154
3 155 5 60
3 106 552 554
3 552 81 553
3 552 553 554
3 156 81 106
3 156 38 81
3 83 156 18
3 157 156 83
3 157 38 156
3 157 155 38
3 158 155 157
3 158 5 155
3 158 555 557
3 557 556 5
3 555 556 557
3 559 558 158
3 561 560 39
3 562 45 563
3 159 564 566
3 564 45 565
3 564 565 566
3 159 1 45
3 567 85 568
3 569 85 570
3 571 40 572
3 573 572 85
3 571 572 573
3 574 40 575
3 576 159 577
3 578 577 40
3 576 577 578
3 160 579 581
3 579 159 580
3 579 580 581
3 160 1 159
3 160 112 1
3 161 112 160
3 161 22 112
3 86 582 584
3 582 161 583
3 582 583 584
3 162 161 86
3 162 22 161
3 162 51 22
3 585 51 586
3 587 586 162
3 585 586 587
3 588 3 589
3 590 589 51
3 588 589 590
3 591 3 592
3 594 593 3
3 595 93 596
3 597 93 598
3 600 599 93
3 129 44 0
3 163 44 129
3 163 12 44
3 88 163 28
3 164 163 88
3 164 12 163
3 164 97 12
3 165 97 164
3 165 601 603
3 603 602 97
3 601 602 603
3 108 89 6
3 166 89 108
3 166 41 89
3 91 166 20
3 604 166 605
3 606 605 91
3 604 605 606
3 607 41 608
3 609 608 166
3 607 608 609
3 610 165 611
3 612 611 41
3 610 611 612
3 613 165 614
3 616 615 165
3 121 50 2
3 167 50 121
3 167 21 50
3 617 167 618
3 619 618 26
3 617 618 619
3 168 620 622
3 620 167 621
3 620 621 622
3 168 21 167
3 168 111 21
3 623 111 624
3 625 624 168
3 623 624 625
3 627 626 111
