ply
format ascii 1.0
element vertex 464
property float x
property float y
property float z
element face 477
property list uchar int vertex_index
end_header
35.251774 74.728706 -29.485252
33.986862 77.297798 -3.607514
32.001419 89.708946 -25.27212
34.891945 78.149864 -17.150377
37.730816 56.991535 -31.88072
37.309849 64.000656 -9.015941
35.919476 62.233814 3.785294
34.214092 56.881264 16.166777
36.657757 66.092178 -30.737013
38.014523 60.375942 -26.90686
36.687061 69.010109 -25.347551
34.467392 78.351204 -10.585112
36.09425 71.548927 -13.021619
35.605537 71.166519 -6.558722
36.675217 63.683426 -2.730758
34.975819 70.017479 0.173495
33.6036 64.767365 13.428356
33.679958 79.489433 -33.351173
35.054012 71.127975 -34.803547
36.178795 62.327629 -35.637371
33.503757 51.229603 -42.696972
33.677296 82.797043 -27.553072
35.20657 76.87793 -23.473619
33.604973 84.124329 -21.292713
33.304699 84.646027 -14.40182
32.926422 84.017014 -7.198544
31.947773 87.476837 -31.479958
36.515285 70.676376 -19.415249
37.73782 63.866566 -15.331475
37.64864 55.829624 0.960853
31.446367 89.033737 -3.861928
33.461067 75.197563 3.536027
34.353146 67.700417 6.714783
35.130203 59.750206 10.012327
35.225212 57.209541 -39.582165
36.937683 52.896965 -36.164242
35.98859 70.364426 -30.241577
36.744541 67.438286 -28.197266
36.032642 71.723618 -27.423742
34.225994 78.022629 -7.15813
34.998035 74.998993 -8.448271
34.777664 74.354836 -5.135904
35.328487 70.546402 -3.172059
34.502705 73.703392 -1.824459
34.508133 77.079956 -31.546761
34.364853 75.477341 -34.20475
35.182793 73.091354 -32.31126
35.860332 68.717712 -32.906887
32.858891 86.352684 -26.534008
33.652386 83.651932 -24.466658
32.831413 87.102814 -23.143023
32.510002 87.56456 -12.73467
33.096695 84.549156 -10.716907
32.307915 87.420204 -9.251736
31.137665 91.921402 -27.051855
31.024529 90.875404 -30.391237
31.983112 88.796631 -28.485193
32.875526 85.102722 -29.745951
38.118553 52.598324 -32.232391
38.407211 54.195889 -29.948135
38.059029 61.484848 -24.13755
35.079475 77.589317 -20.325422
35.910515 73.657623 -21.533669
35.692108 74.595032 -18.485397
36.687927 67.943893 -11.017351
36.950058 67.681404 -14.246972
37.545795 64.051407 -12.247738
37.872463 60.311001 -7.266107
36.307774 63.065525 0.57737
37.195091 59.749397 -0.921485
36.778316 59.22274 2.262865
37.242393 54.986336 4.085454
36.398186 58.275005 5.239622
32.544037 76.073418 8.778028
32.732857 77.826698 5.196697
33.203629 73.990273 6.787739
33.906593 71.448586 5.263692
33.601963 70.149796 8.529138
33.916985 60.921635 14.81
34.31427 62.520214 11.654436
34.689579 58.310608 13.111275
35.517952 55.588852 11.448936
34.84066 61.943539 -39.546837
36.957729 59.846523 -33.8386
36.641998 57.445164 -35.928757
37.414169 55.164314 -34.056297
37.685104 50.711281 -34.404972
32.038017 90.117867 -21.732052
37.252731 61.46109 -31.396265
37.963135 58.623947 -29.369631
37.386333 63.090336 -28.881775
37.367191 64.879997 -26.134258
37.336048 66.006813 -23.305721
34.65992 78.539909 -13.948483
35.515148 74.864128 -15.097593
35.312035 74.84951 -11.733521
35.847164 71.543709 -9.736718
36.457474 67.646317 -7.7565
37.006176 63.973358 -5.889335
36.10923 67.515923 -4.391239
35.79937 66.962425 -1.216169
35.494114 65.947479 2.056111
34.817635 69.180954 -36.957321
35.321682 64.503387 -37.514629
35.674328 66.62825 -35.293503
36.500786 64.280174 -33.22192
34.469872 78.879616 -28.709417
35.23978 76.041801 -26.611242
34.461525 79.910599 -25.738579
34.436264 80.480591 -22.52887
34.282665 81.144852 -19.357969
33.498737 84.420387 -17.987503
34.109486 81.456238 -15.903296
33.866589 81.679634 -12.388849
33.694511 81.315926 -9.07971
33.499916 80.586014 -5.41211
32.828926 83.655945 -32.527763
33.738804 81.160744 -30.611113
38.58762 55.642117 -27.51631
35.945286 73.081223 -24.66501
36.615986 70.045616 -22.4195
37.249771 66.882614 -20.45496
36.358719 71.071007 -16.31179
37.161415 67.245941 -17.569387
37.917953 63.220501 -18.318943
37.566807 60.098263 -4.136116
38.047813 56.22533 -2.176297
31.528028 90.056534 -7.654775
32.121979 86.902679 -5.646619
32.704193 83.408348 -3.647305
33.197815 80.081924 -1.806683
32.997044 78.864143 1.745546
33.721203 76.445557 -0.113533
34.171696 72.804245 1.848241
34.645592 69.061966 3.506626
35.079632 65.143478 5.31889
33.960979 66.508125 10.029053
34.719131 63.827847 8.499495
35.536598 61.230743 6.772254
34.42284 54.363033 -41.322582
35.463936 52.38184 -39.567337
35.780922 59.815563 -37.750633
36.156891 55.028019 -37.821484
32.121302 88.919208 -12.018496
32.180724 89.03371 -13.779982
32.020258 88.847031 -10.277029
32.408958 87.492382 -10.993203
32.121302 88.919208 -12.018496
38.371747 59.759378 -23.180402
38.018013 62.093781 -22.724114
37.712183 62.207737 -9.685792
37.830156 62.233112 -11.301691
37.427822 64.026032 -10.631839
37.591156 62.155828 -8.141024
37.99349 60.36291 -8.810875
37.712183 62.207737 -9.685792
32.742987 74.219475 9.52503
32.402174 75.353093 10.56633
33.072783 73.177903 8.529885
32.873833 75.031846 7.782884
32.742987 74.219475 9.52503
33.271949 71.257664 9.400585
33.402796 72.070034 7.658438
33.072783 73.177903 8.529885
34.603426 55.615559 15.310634
34.841169 56.330231 13.782883
34.451836 57.595936 14.639026
34.364065 54.681713 16.817836
34.603426 55.615559 15.310634
34.619619 64.376173 -39.376028
34.365553 62.815943 -40.359644
33.566811 78.688606 -34.645077
33.18094 80.741215 -34.270641
34.59018 72.356777 -35.74334
34.2456 74.53146 -35.443941
34.709432 73.302658 -34.504148
34.935823 70.154465 -35.880434
34.471991 71.383266 -36.820227
34.59018 72.356777 -35.74334
32.911146 49.436346 -43.308703
32.317211 50.143284 -44.065668
32.909822 51.93654 -43.453938
32.400898 88.817532 -20.771383
31.972357 90.379338 -20.063183
33.401718 84.533207 -16.194662
33.070594 86.073689 -17.226415
32.973575 86.186509 -15.433573
31.418554 88.508651 -32.389973
30.956932 90.207935 -31.845613
31.486151 89.17612 -30.935598
31.893055 86.646766 -32.933929
31.418554 88.508651 -32.389973
32.38835 85.566391 -32.003861
32.333632 84.736321 -33.457832
31.893055 86.646766 -32.933929
38.127428 61.755913 -15.83491
38.217495 61.43288 -17.328644
37.827886 63.543533 -16.825209
38.084705 54.058525 0.233963
38.284292 54.256378 -1.334612
37.848226 56.027477 -0.607722
37.891219 53.71121 1.777262
38.084705 54.058525 0.233963
37.471333 52.874979 4.826242
37.029352 54.498691 5.543876
31.123537 90.577595 -4.695066
31.088638 90.035717 -2.794354
31.487198 89.545136 -5.758351
31.164367 91.088993 -6.59149
31.123537 90.577595 -4.695066
32.598297 82.930664 -1.826937
32.342492 84.644036 -2.800065
32.845108 81.267452 -0.906627
32.951004 81.745136 -2.726994
32.598297 82.930664 -1.826937
33.78229 65.637745 11.728704
33.601814 67.537914 11.087426
33.423125 66.667534 12.787078
35.555927 58.364649 9.185595
35.759124 59.104917 7.565558
35.3334 60.490474 8.392291
35.940984 54.219454 10.654511
35.671882 53.50404 12.203499
34.824026 55.786287 -40.452374
34.32221 56.707611 -41.311594
34.723396 58.130865 -40.441386
36.631369 51.667829 -37.050714
36.240972 52.733356 -37.879335
36.547287 53.962492 -36.992863
37.054833 50.66894 -36.156176
36.631369 51.667829 -37.050714
37.80829 48.483875 -34.400465
38.018337 49.615965 -33.522638
33.503131 48.673653 -42.550724
34.049127 50.249403 -41.887598
32.576227 87.645775 -14.599998
32.180724 89.03371 -13.779982
32.90735 86.105294 -13.568245
32.973575 86.186509 -15.433573
32.576227 87.645775 -14.599998
31.081097 91.398403 -28.721546
30.584691 92.340351 -29.736535
30.641259 92.86335 -28.066844
38.415701 51.263416 -31.387738
38.235062 50.559486 -32.436348
38.56003 52.062199 -30.24561
38.415701 51.263416 -31.387738
38.262882 53.397106 -31.090263
38.677498 52.813817 -29.12835
38.56003 52.062199 -30.24561
38.352536 59.265543 -24.628106
38.330282 58.71109 -26.012761
38.036776 60.930395 -25.522205
38.352536 59.265543 -24.628106
38.371747 59.759378 -23.180402
37.975046 61.933785 -12.857042
38.071058 61.841364 -14.39891
37.641807 63.958986 -13.789606
37.975046 61.933785 -12.857042
37.830156 62.233112 -11.301691
38.284264 58.375379 -7.836659
37.99349 60.36291 -8.810875
38.13256 58.399634 -6.316577
38.284264 58.375379 -7.836659
36.607248 56.143026 6.12096
37.029352 54.498691 5.543876
36.82029 56.630671 4.662538
31.369965 88.532062 -1.978036
31.088638 90.035717 -2.794354
31.713579 87.45673 -2.907376
31.369965 88.532062 -1.978036
32.217275 77.250042 9.680815
32.402174 75.353093 10.56633
32.319989 78.007779 7.900027
32.217275 77.250042 9.680815
32.638447 76.950058 6.987363
32.414399 78.884418 6.109362
32.319989 78.007779 7.900027
35.255356 54.969353 12.951714
35.103766 56.94973 12.280105
34.841169 56.330231 13.782883
35.671882 53.50404 12.203499
35.255356 54.969353 12.951714
34.531121 60.497864 -40.423721
34.365553 62.815943 -40.359644
35.032936 59.57654 -39.564501
34.723396 58.130865 -40.441386
34.531121 60.497864 -40.423721
38.235062 50.559486 -32.436348
38.018337 49.615965 -33.522638
37.901829 51.654803 -33.318681
31.599234 91.40804 -22.684388
32.019718 89.913407 -23.502086
31.580934 91.203579 -24.454422
31.601451 91.592098 -20.982827
31.599234 91.40804 -22.684388
31.972357 90.379338 -20.063183
31.601451 91.592098 -20.982827
30.672375 93.369725 -26.405544
30.641259 92.86335 -28.066844
31.149057 92.309807 -25.34429
30.672375 93.369725 -26.405544
31.580934 91.203579 -24.454422
31.569542 90.815174 -26.161988
31.149057 92.309807 -25.34429
37.656522 64.354763 -22.3082
38.018013 62.093781 -22.724114
37.697539 63.74583 -23.721635
33.280628 65.787918 14.364025
33.423125 66.667534 12.787078
33.422604 63.85626 15.084669
33.280628 65.787918 14.364025
33.579296 61.933396 15.775491
33.760292 62.8445 14.119178
33.422604 63.85626 15.084669
33.724146 59.970122 16.381338
33.579296 61.933396 15.775491
33.872699 57.949936 17.059726
34.065539 58.901449 15.488388
33.724146 59.970122 16.381338
33.667473 56.964698 18.545528
34.008865 55.896027 17.65258
33.872699 57.949936 17.059726
33.909258 76.68256 -35.071865
33.566811 78.688606 -34.645077
34.022405 77.483387 -33.777962
33.909258 76.68256 -35.071865
34.2456 74.53146 -35.443941
34.307555 70.222488 -37.970122
34.471991 71.383266 -36.820227
34.608107 67.99488 -38.08127
34.307555 70.222488 -37.970122
35.069659 66.842171 -37.235975
34.86013 65.656097 -38.359924
34.608107 67.99488 -38.08127
32.911146 49.436346 -43.308703
33.503131 48.673653 -42.550724
32.797596 87.310005 -21.476868
32.434715 88.610341 -22.437537
32.400898 88.817532 -20.771383
33.184376 85.820763 -20.551713
33.218193 85.613572 -22.217868
32.797596 87.310005 -21.476868
33.131258 85.968792 -18.899108
33.070594 86.073689 -17.226415
33.551855 84.272358 -19.640108
33.184376 85.820763 -20.551713
33.131258 85.968792 -18.899108
30.454729 91.860096 -31.279942
30.014891 93.325043 -30.62524
30.584691 92.340351 -29.736535
30.454729 91.860096 -31.279942
30.956932 90.207935 -31.845613
32.755425 82.824471 -33.858936
32.333632 84.736321 -33.457832
33.254442 81.572689 -32.939468
33.18094 80.741215 -34.270641
32.755425 82.824471 -33.858936
38.767702 53.53693 -27.912438
38.677498 52.813817 -29.12835
38.497416 54.919003 -28.732222
38.616831 56.344178 -26.317486
38.301071 58.009029 -27.211585
38.330282 58.71109 -26.012761
38.867109 54.040619 -26.653203
38.616831 56.344178 -26.317486
38.767702 53.53693 -27.912438
38.867109 54.040619 -26.653203
37.613384 64.792664 -20.882819
37.656522 64.354763 -22.3082
37.29291 66.444714 -21.88034
37.947475 62.961607 -19.814811
37.613384 64.792664 -20.882819
37.583862 65.051558 -19.386952
38.250358 61.232706 -18.831468
37.947475 62.961607 -19.814811
38.250358 61.232706 -18.831468
38.217495 61.43288 -17.328644
38.127428 61.755913 -15.83491
38.071058 61.841364 -14.39891
37.979732 58.293265 -4.751582
38.13256 58.399634 -6.316577
37.719635 60.204632 -5.701111
38.220236 56.356798 -3.771672
37.979732 58.293265 -4.751582
37.80731 58.161797 -3.156207
38.465772 54.340446 -2.790179
38.220236 56.356798 -3.771672
38.465772 54.340446 -2.790179
38.284292 54.256378 -1.334612
37.688095 53.289566 3.339563
37.891219 53.71121 1.777262
37.445516 55.40798 2.523154
37.688095 53.289566 3.339563
37.471333 52.874979 4.826242
31.220406 91.437481 -8.59508
31.164367 91.088993 -6.59149
31.630314 90.165196 -9.478549
31.220406 91.437481 -8.59508
31.917972 88.738369 -8.453255
32.020258 88.847031 -10.277029
31.630314 90.165196 -9.478549
32.051385 86.391201 -3.799722
31.784173 87.968208 -4.754274
31.713579 87.45673 -2.907376
32.413086 85.155514 -4.646962
32.051385 86.391201 -3.799722
32.342492 84.644036 -2.800065
32.503715 79.628654 4.323535
32.414399 78.884418 6.109362
32.635809 80.147377 2.597959
32.503715 79.628654 4.323535
32.864951 78.34542 3.471122
32.744723 80.658561 0.869488
32.635809 80.147377 2.597959
33.09743 79.473033 -0.030568
32.845108 81.267452 -0.906627
32.744723 80.658561 0.869488
33.422306 69.358749 10.337468
33.271949 71.257664 9.400585
33.781471 68.32896 9.279096
33.422306 69.358749 10.337468
33.601814 67.537914 11.087426
36.189919 57.627049 6.799243
35.967392 59.752874 6.005938
35.759124 59.104917 7.565558
36.607248 56.143026 6.12096
36.189919 57.627049 6.799243
35.749802 56.283972 9.903899
35.555927 58.364649 9.185595
35.324078 57.669529 10.730632
35.749802 56.283972 9.903899
35.940984 54.219454 10.654511
34.158838 53.696476 18.303638
34.364065 54.681713 16.817836
34.008865 55.896027 17.65258
33.427965 53.759546 -42.79365
32.909822 51.93654 -43.453938
33.887507 55.326262 -42.106454
34.32221 56.707611 -41.311594
33.963299 52.796318 -42.009777
33.427965 53.759546 -42.79365
33.887507 55.326262 -42.106454
34.508669 51.816118 -41.200403
34.049127 50.249403 -41.887598
33.963299 52.796318 -42.009777
35.029217 50.825521 -40.322781
34.508669 51.816118 -41.200403
34.943388 53.372436 -40.444959
35.504509 49.765995 -39.521288
35.029217 50.825521 -40.322781
35.081171 63.223463 -38.530733
34.619619 64.376173 -39.376028
34.86013 65.656097 -38.359924
35.894495 51.410267 -38.752262
35.810413 53.704929 -38.694411
36.240972 52.733356 -37.879335
35.504509 49.765995 -39.521288
35.894495 51.410267 -38.752262
37.428543 49.576098 -35.27654
37.054833 50.66894 -36.156176
37.311394 51.804123 -35.284607
37.428543 49.576098 -35.27654
37.80829 48.483875 -34.400465
3 0 38 36
3 1 41 39
3 1 43 41
3 0 46 44
3 0 36 46
3 2 50 48
3 143 51 144
3 145 53 146
3 147 146 51
3 145 146 147
3 2 56 54
3 2 48 56
3 4 59 58
3 149 148 60
3 3 63 61
3 5 66 64
3 5 150 152
3 152 151 66
3 150 151 152
3 5 153 155
3 153 67 154
3 153 154 155
3 6 70 68
3 6 72 70
3 156 73 157
3 158 75 159
3 160 159 73
3 158 159 160
3 161 77 162
3 163 162 75
3 161 162 163
3 7 80 78
3 7 164 166
3 166 165 80
3 164 165 166
3 7 167 168
3 169 82 170
3 4 85 83
3 4 58 85
3 8 90 88
3 10 91 37
3 10 92 91
3 11 95 93
3 13 96 40
3 13 97 96
3 13 99 97
3 15 100 42
3 15 101 100
3 17 171 172
3 18 173 175
3 175 174 45
3 173 174 175
3 18 176 178
3 176 102 177
3 176 177 178
3 18 104 102
3 8 105 47
3 8 88 105
3 20 179 181
3 179 180 181
3 21 108 106
3 23 109 49
3 23 110 109
3 183 182 87
3 24 184 186
3 184 111 185
3 184 185 186
3 24 112 111
3 24 113 112
3 25 114 52
3 25 115 114
3 26 187 189
3 189 188 55
3 187 188 189
3 26 190 191
3 26 192 194
3 192 116 193
3 192 193 194
3 21 117 57
3 21 106 117
3 9 118 89
3 22 119 107
3 27 120 62
3 27 121 120
3 12 122 94
3 28 123 65
3 28 124 123
3 28 195 197
3 197 196 124
3 195 196 197
3 14 125 98
3 29 126 69
3 29 198 200
3 200 199 126
3 198 199 200
3 29 201 202
3 204 203 71
3 30 205 206
3 30 207 209
3 207 127 208
3 207 208 209
3 30 128 127
3 210 129 211
3 212 130 213
3 214 213 129
3 212 213 214
3 31 131 74
3 31 132 131
3 31 133 132
3 32 134 76
3 32 135 134
3 16 215 217
3 215 136 216
3 215 216 217
3 33 137 79
3 33 138 137
3 33 218 220
3 220 219 138
3 218 219 220
3 222 221 81
3 34 223 225
3 223 139 224
3 223 224 225
3 34 140 139
3 19 141 103
3 35 142 84
3 35 226 228
3 228 227 142
3 226 227 228
3 35 229 230
3 232 231 86
3 36 37 8
3 38 37 36
3 38 10 37
3 39 40 11
3 41 40 39
3 41 13 40
3 41 42 13
3 43 42 41
3 43 15 42
3 44 45 17
3 46 45 44
3 46 18 45
3 46 47 18
3 36 47 46
3 36 8 47
3 234 233 20
3 48 49 21
3 50 49 48
3 50 23 49
3 51 235 236
3 51 237 239
3 237 24 238
3 237 238 239
3 51 52 24
3 53 52 51
3 53 25 52
3 54 240 242
3 240 55 241
3 240 241 242
3 56 55 54
3 56 26 55
3 56 57 26
3 48 57 56
3 48 21 57
3 58 243 244
3 59 245 247
3 247 246 58
3 245 246 247
3 59 248 249
3 60 250 252
3 252 251 9
3 250 251 252
3 254 253 60
3 61 62 22
3 63 62 61
3 63 27 62
3 64 65 12
3 66 65 64
3 66 28 65
3 66 255 257
3 257 256 28
3 255 256 257
3 259 258 66
3 67 260 261
3 67 262 263
3 68 69 14
3 70 69 68
3 70 29 69
3 70 71 29
3 72 71 70
3 72 264 266
3 266 265 71
3 264 265 266
3 267 30 268
3 270 269 30
3 73 271 272
3 73 273 274
3 73 275 277
3 275 74 276
3 275 276 277
3 75 74 73
3 75 31 74
3 75 76 31
3 77 76 75
3 77 32 76
3 78 79 16
3 80 79 78
3 80 33 79
3 80 81 33
3 278 81 279
3 280 279 80
3 278 279 280
3 282 281 81
3 82 283 284
3 82 285 287
3 285 34 286
3 285 286 287
3 83 84 19
3 85 84 83
3 85 35 84
3 85 86 35
3 58 86 85
3 58 288 290
3 290 289 86
3 288 289 290
3 291 87 292
3 293 292 2
3 291 292 293
3 294 87 295
3 297 296 87
3 298 54 299
3 300 54 301
3 302 2 303
3 304 303 54
3 302 303 304
3 88 89 4
3 90 89 88
3 90 9 89
3 37 90 8
3 91 90 37
3 91 9 90
3 91 60 9
3 92 60 91
3 92 305 307
3 307 306 60
3 305 306 307
3 93 94 3
3 95 94 93
3 95 12 94
3 40 95 11
3 96 95 40
3 96 12 95
3 96 64 12
3 97 64 96
3 97 5 64
3 97 98 5
3 99 98 97
3 99 14 98
3 42 99 13
3 100 99 42
3 100 14 99
3 100 68 14
3 101 68 100
3 101 6 68
3 308 16 309
3 310 16 311
3 312 78 313
3 314 313 16
3 312 313 314
3 315 78 316
3 317 7 318
3 319 318 78
3 317 318 319
3 322 321 7
3 320 321 322
3 45 323 325
3 325 324 17
3 323 324 325
3 327 326 45
3 102 328 329
3 102 330 331
3 102 332 334
3 332 103 333
3 332 333 334
3 104 103 102
3 104 19 103
3 47 104 18
3 105 104 47
3 105 19 104
3 105 83 19
3 88 83 105
3 88 4 83
3 336 335 20
3 106 107 0
3 108 107 106
3 108 22 107
3 49 108 21
3 109 108 49
3 109 22 108
3 109 61 22
3 110 61 109
3 110 3 61
3 87 50 2
3 337 50 338
3 339 338 87
3 337 338 339
3 340 23 341
3 342 341 50
3 340 341 342
3 111 343 344
3 111 345 347
3 345 23 346
3 345 346 347
3 111 110 23
3 112 110 111
3 112 3 110
3 112 93 3
3 113 93 112
3 113 11 93
3 52 113 24
3 114 113 52
3 114 11 113
3 114 39 11
3 115 39 114
3 115 1 39
3 55 348 350
3 348 349 350
3 352 351 55
3 116 353 354
3 116 355 357
3 355 17 356
3 355 356 357
3 57 116 26
3 117 116 57
3 117 17 116
3 117 44 17
3 106 44 117
3 106 0 44
3 89 59 4
3 118 59 89
3 118 358 360
3 360 359 59
3 358 359 360
3 361 118 362
3 363 362 9
3 361 362 363
3 364 118 365
3 367 366 118
3 107 38 0
3 119 38 107
3 119 10 38
3 62 119 22
3 120 119 62
3 120 10 119
3 120 92 10
3 121 92 120
3 121 368 370
3 370 369 92
3 368 369 370
3 94 63 3
3 122 63 94
3 122 27 63
3 65 122 12
3 123 122 65
3 123 27 122
3 123 121 27
3 124 121 123
3 124 371 373
3 373 372 121
3 371 372 373
3 124 374 375
3 377 376 124
3 379 378 28
3 98 67 5
3 125 67 98
3 125 380 382
3 382 381 67
3 380 381 382
3 69 125 14
3 126 125 69
3 126 383 385
3 385 384 125
3 383 384 385
3 126 386 387
3 389 388 126
3 71 390 392
3 392 391 29
3 390 391 392
3 394 393 71
3 127 395 396
3 127 397 398
3 127 399 401
3 399 53 400
3 399 400 401
3 128 53 127
3 128 25 53
3 402 128 403
3 404 403 30
3 402 403 404
3 129 405 407
3 405 128 406
3 405 406 407
3 129 25 128
3 129 115 25
3 130 115 129
3 130 1 115
3 74 408 409
3 131 410 412
3 412 411 74
3 410 411 412
3 131 413 414
3 131 415 417
3 415 130 416
3 415 416 417
3 132 130 131
3 132 1 130
3 132 43 1
3 133 43 132
3 133 15 43
3 76 133 31
3 134 133 76
3 134 15 133
3 134 101 15
3 135 101 134
3 135 6 101
3 418 77 419
3 136 420 422
3 420 77 421
3 420 421 422
3 136 32 77
3 79 136 16
3 137 136 79
3 137 32 136
3 137 135 32
3 138 135 137
3 138 6 135
3 138 72 6
3 423 72 424
3 425 424 138
3 423 424 425
3 427 426 72
3 81 428 430
3 430 429 33
3 428 429 430
3 432 431 81
3 435 434 7
3 433 434 435
3 436 20 437
3 139 438 439
3 139 440 442
3 440 20 441
3 440 441 442
3 139 443 445
3 445 444 20
3 443 444 445
3 140 446 448
3 448 447 139
3 446 447 448
3 140 449 450
3 103 451 453
3 451 82 452
3 451 452 453
3 141 82 103
3 141 34 82
3 84 141 19
3 142 141 84
3 142 34 141
3 142 140 34
3 454 140 455
3 456 455 142
3 454 455 456
3 458 457 140
3 86 459 461
3 461 460 35
3 459 460 461
3 463 462 86
