ply
format ascii 1.0
element vertex 350
property float x
property float y
property float z
element face 343
property list uchar int vertex_index
end_header
36.380753 -16.852034 -6.507609
32.872856 -14.245028 -0.198012
37.520035 -20.652073 2.194935
30.806204 -4.644537 -14.712835
31.179241 -10.439335 -7.2523
35.991665 -11.142068 -14.883523
38.243729 -21.913918 6.814953
38.865883 -24.191956 3.531689
33.933887 -0.501202 -22.882032
34.601757 -15.723945 -3.056746
31.869938 -12.611794 -3.758626
34.039494 -13.558611 -7.037203
33.759628 -10.97555 -10.860397
36.059704 -14.158927 -10.740893
35.544403 -17.517063 0.938881
36.887379 -19.003666 -2.309286
30.99024 -1.366521 -18.518305
33.666615 -4.397654 -18.617477
30.083166 -11.06216 -1.414209
28.889065 -9.394645 -4.435842
30.803797 -7.71546 -10.905394
33.587582 -7.826108 -14.707968
38.823254 -23.631927 7.634671
35.517715 -16.313976 -4.778018
34.207371 -14.636628 -5.00782
35.28548 -15.271496 -6.610488
35.118542 -13.979519 -8.746316
36.130333 -15.481776 -8.609755
36.991531 -15.927976 -10.468889
37.113861 -17.211685 -8.466282
37.0294 -19.711012 3.728611
36.009415 -18.131071 2.953403
36.623131 -19.084919 1.413575
36.21851 -18.290365 -0.689253
37.236782 -19.971041 -0.11782
37.765392 -20.725082 -1.786217
38.029102 -21.631163 0.61812
29.373497 -3.200797 -14.666385
29.338476 -1.524053 -16.51383
30.805223 -3.023487 -16.528172
32.346436 -2.797054 -18.600826
32.232407 -4.465924 -16.673977
32.256557 -13.396688 0.906861
31.564018 -12.756776 -0.827969
31.508467 -11.596935 -5.538148
30.4086 -11.010021 -4.191706
29.923933 -9.922524 -5.790039
28.414881 -8.335271 -5.990682
29.6283 -8.854866 -7.348307
29.421282 -7.615558 -9.056066
30.975056 -9.175795 -9.036223
34.931061 -11.096721 -12.810285
33.571262 -9.379892 -12.751411
34.861557 -9.49787 -14.748445
34.797642 -7.803616 -16.625099
37.883034 -21.327885 4.518665
38.301662 -22.387978 2.870424
38.570026 -23.046827 5.221735
39.022858 -24.742945 5.920394
32.538971 0.933119 -22.610739
32.722466 2.965865 -24.839523
33.901363 1.535102 -24.833057
29.304518 -4.767179 -12.730738
33.676079 -15.017994 -1.527719
32.385506 -13.5397 -2.06269
33.315483 -14.221663 -3.342432
32.974293 -13.207182 -5.24352
32.648708 -12.046646 -7.03265
32.476601 -10.776908 -8.957334
33.82056 -12.356906 -8.801375
34.950165 -12.63171 -10.629207
36.002617 -12.730323 -12.777512
33.598473 -14.994964 1.623011
34.816689 -16.51 2.268439
34.249893 -15.858527 0.266155
35.019402 -16.654537 -1.026852
35.773666 -17.280024 -2.687052
36.611908 -18.003956 -4.394805
37.300152 -18.482481 -6.367082
37.541229 -19.718456 -4.087935
32.716305 5.039026 -26.92169
31.132612 0.487781 -20.603096
32.485741 -0.986466 -20.625315
33.755901 -2.414797 -20.761011
34.950485 -4.157696 -20.711836
30.904634 -11.92305 -2.469889
29.386044 -10.233929 -2.937976
27.9527 -8.562702 -3.430776
27.374329 -7.683801 -4.762673
29.258173 -6.261288 -10.759839
30.753246 -6.234203 -12.756239
32.307041 -9.35221 -10.833715
32.244331 -7.85813 -12.732289
32.194767 -6.216066 -14.653023
34.84148 -6.024108 -18.631809
35.990465 -10.326536 -15.868595
35.425411 -9.504438 -15.801056
35.426611 -10.319969 -14.815984
36.440281 -11.220902 -15.83177
35.990465 -10.326536 -15.868595
37.846592 -21.062775 6.380312
38.065618 -21.292426 7.492525
38.063382 -21.620901 5.666809
37.666245 -20.769759 5.232168
37.846592 -21.062775 6.380312
39.088083 -24.980926 7.132692
38.923056 -24.187436 6.777532
38.988281 -24.425418 7.989831
39.143915 -25.635172 6.388957
39.088083 -24.980926 7.132692
28.593443 -4.750521 -11.85068
28.526775 -4.01191 -12.703769
36.505944 -14.337911 -11.686414
36.4774 -13.623609 -12.704723
36.03116 -13.444625 -11.759203
37.346702 -16.101865 -11.47887
37.400318 -16.858887 -10.393978
33.934956 -15.252707 2.510697
33.285658 -14.44406 2.057754
37.990236 -21.050707 -2.769398
38.087137 -21.552495 -1.573739
38.762277 -23.789512 2.288555
38.480167 -22.887523 1.957923
38.583772 -23.289967 3.201056
33.369503 4.291026 -26.946797
32.719386 4.002446 -25.880606
33.372583 3.254446 -25.905713
30.25452 -0.651703 -18.476233
29.428638 -0.730469 -17.473995
30.164358 -1.445287 -17.516067
31.061426 -0.43937 -19.560701
30.325707 0.275448 -19.518628
30.25452 -0.651703 -18.476233
29.729378 -10.497846 -1.032879
30.465992 -11.407615 -0.665818
29.345596 -10.180889 -1.710638
29.729378 -10.497846 -1.032879
27.739555 -7.584774 -6.113796
28.299072 -7.795435 -6.824628
33.55818 -6.98198 -15.631161
32.861773 -6.176959 -15.603689
32.891174 -7.021087 -14.680495
35.382191 -6.851446 -18.687538
34.819561 -6.913862 -17.628454
35.360272 -7.7412 -17.684183
35.427542 -5.955847 -19.699498
35.382191 -6.851446 -18.687538
37.59876 -18.757151 -7.281287
37.671002 -19.377893 -6.167631
38.397762 -22.135196 7.946319
38.065618 -21.292426 7.492525
38.687525 -22.9942 8.356177
38.533491 -22.772922 7.224812
38.397762 -22.135196 7.946319
38.9056 -23.806343 8.806708
38.687525 -22.9942 8.356177
38.988281 -24.425418 7.989831
38.9056 -23.806343 8.806708
34.51729 -0.294146 -23.887328
34.491355 -1.327141 -22.850532
37.461483 -17.500742 -9.392674
37.400318 -16.858887 -10.393978
37.052696 -16.56983 -9.467586
36.519407 -18.921042 3.341007
36.255844 -18.365606 4.024002
36.765837 -19.155576 4.411606
38.218992 -22.005536 -0.371571
38.087137 -21.552495 -1.573739
37.897247 -21.178123 -0.584048
38.947307 -24.628762 2.629387
39.021879 -25.072046 3.892047
29.355987 -2.362425 -15.590107
28.598782 -1.651898 -15.541049
28.616292 -2.49027 -14.617327
31.552688 -12.574879 0.494718
31.922961 -12.788739 1.247148
31.206418 -12.254923 -0.372697
31.552688 -12.574879 0.494718
31.910288 -13.076732 0.039446
30.823592 -11.909468 -1.121089
30.465992 -11.407615 -0.665818
31.206418 -12.254923 -0.372697
28.905781 -8.055232 -7.50344
28.299072 -7.795435 -6.824628
29.021591 -8.595069 -6.669494
29.524791 -8.235212 -8.202186
28.802272 -7.435578 -8.357319
28.905781 -8.055232 -7.50344
35.393454 -8.657311 -16.739382
34.8296 -8.650743 -15.686772
35.425411 -9.504438 -15.801056
35.360272 -7.7412 -17.684183
35.393454 -8.657311 -16.739382
37.239428 -19.961322 4.837141
36.765837 -19.155576 4.411606
37.456217 -20.519448 4.123638
37.239428 -19.961322 4.837141
37.666245 -20.769759 5.232168
39.100367 -25.34754 5.0864
39.021879 -25.072046 3.892047
38.94437 -24.46745 4.726042
39.100367 -25.34754 5.0864
39.143915 -25.635172 6.388957
32.630719 1.949492 -23.725131
31.938882 2.694589 -23.718891
31.847134 1.678216 -22.604499
33.962032 2.539064 -25.90248
33.372583 3.254446 -25.905713
33.311915 2.250484 -24.83629
34.501028 0.724006 -24.862841
33.917625 0.51695 -23.857544
34.51729 -0.294146 -23.887328
34.544286 1.718819 -25.894491
34.501028 0.724006 -24.862841
33.962032 2.539064 -25.90248
34.544286 1.718819 -25.894491
28.561264 -3.228719 -13.671592
28.616292 -2.49027 -14.617327
29.339008 -3.983988 -13.698562
28.561264 -3.228719 -13.671592
28.526775 -4.01191 -12.703769
36.452936 -12.789818 -13.816347
36.44746 -11.995691 -14.869353
35.997141 -11.936196 -13.830517
36.452936 -12.789818 -13.816347
36.4774 -13.623609 -12.704723
36.971857 -15.222435 -11.550411
36.505944 -14.337911 -11.686414
36.525618 -15.043451 -10.604891
36.971857 -15.222435 -11.550411
37.346702 -16.101865 -11.47887
32.6147 -13.644922 1.699679
31.922961 -12.788739 1.247148
32.927515 -14.195826 1.264936
32.6147 -13.644922 1.699679
33.285658 -14.44406 2.057754
35.717836 -17.587327 3.583255
36.255844 -18.365606 4.024002
35.121473 -16.776792 3.240773
35.717836 -17.587327 3.583255
35.413052 -17.320535 2.610921
34.544064 -16.010225 2.833411
35.121473 -16.776792 3.240773
34.207581 -15.752482 1.945725
33.934956 -15.252707 2.510697
34.544064 -16.010225 2.833411
37.79154 -19.995881 -5.028058
37.671002 -19.377893 -6.167631
37.42069 -19.100468 -5.227508
37.878155 -20.547393 -3.920256
37.653311 -20.221769 -2.937076
37.990236 -21.050707 -2.769398
37.79154 -19.995881 -5.028058
37.878155 -20.547393 -3.920256
38.343887 -22.509116 0.83177
38.165382 -22.009571 1.744272
38.480167 -22.887523 1.957923
38.218992 -22.005536 -0.371571
38.343887 -22.509116 0.83177
38.762277 -23.789512 2.288555
38.947307 -24.628762 2.629387
31.986054 3.617426 -24.705478
31.938882 2.694589 -23.718891
31.982974 4.654006 -25.746561
31.986054 3.617426 -24.705478
32.719386 4.002446 -25.880606
32.019875 5.699297 -26.860118
31.982974 4.654006 -25.746561
33.355244 5.357334 -28.006705
33.369503 4.291026 -26.946797
32.759315 6.096314 -28.06011
33.355244 5.357334 -28.006705
32.019875 5.699297 -26.860118
32.759315 6.096314 -28.06011
28.603431 -0.852411 -16.458746
28.598782 -1.651898 -15.541049
28.603431 -0.852411 -16.458746
29.428638 -0.730469 -17.473995
30.355682 1.169695 -20.498317
30.325707 0.275448 -19.518628
31.143955 1.455547 -21.600677
30.355682 1.169695 -20.498317
31.835791 0.71045 -21.606918
31.847134 1.678216 -22.604499
31.143955 1.455547 -21.600677
34.402363 -2.283938 -21.790022
34.491355 -1.327141 -22.850532
33.844894 -1.458 -21.821521
34.999655 -3.155387 -21.765435
34.402363 -2.283938 -21.790022
34.353193 -3.286246 -20.736424
35.507939 -4.057955 -21.733311
34.999655 -3.155387 -21.765435
28.997035 -9.766773 -2.472521
29.345596 -10.180889 -1.710638
29.734605 -10.648045 -2.176093
28.280363 -8.931159 -2.718921
28.997035 -9.766773 -2.472521
28.669372 -9.398315 -3.184376
27.632737 -8.08908 -2.963564
28.280363 -8.931159 -2.718921
27.285996 -7.733225 -3.620357
27.632737 -8.08908 -2.963564
26.996811 -7.293775 -4.286306
27.285996 -7.733225 -3.620357
27.663514 -8.123252 -4.096725
26.69376 -6.843856 -4.9722
26.996811 -7.293775 -4.286306
27.219279 -7.259039 -5.499792
27.894605 -8.009536 -5.376677
27.739555 -7.584774 -6.113796
26.69376 -6.843856 -4.9722
27.219279 -7.259039 -5.499792
28.658985 -6.808865 -9.134725
28.802272 -7.435578 -8.357319
28.57743 -6.13173 -9.986611
28.658985 -6.808865 -9.134725
29.339728 -6.938423 -9.907953
28.57027 -5.497576 -10.86523
28.57743 -6.13173 -9.986611
29.281346 -5.514233 -11.745289
28.593443 -4.750521 -11.85068
28.57027 -5.497576 -10.86523
32.880593 -5.301888 -16.614165
32.213587 -5.340995 -15.6635
32.861773 -6.176959 -15.603689
33.597696 -5.267753 -17.585915
32.949511 -4.431789 -17.645727
32.880593 -5.301888 -16.614165
34.16321 -6.970734 -16.589726
33.55818 -6.98198 -15.631161
34.192612 -7.814862 -15.666533
34.185129 -6.08098 -17.593082
34.16321 -6.970734 -16.589726
34.819561 -6.913862 -17.628454
34.254047 -5.210881 -18.624643
33.597696 -5.267753 -17.585915
34.185129 -6.08098 -17.593082
35.482044 -5.022641 -20.739511
34.895983 -5.090902 -19.671823
35.427542 -5.955847 -19.699498
35.507939 -4.057955 -21.733311
35.482044 -5.022641 -20.739511
36.440281 -11.220902 -15.83177
36.44746 -11.995691 -14.869353
37.505615 -18.121753 -8.330887
37.207006 -17.847083 -7.416682
37.59876 -18.757151 -7.281287
37.461483 -17.500742 -9.392674
37.505615 -18.121753 -8.330887
3 0 25 23
3 0 27 25
3 0 29 27
3 2 32 30
3 2 34 32
3 2 36 34
3 3 39 37
3 3 41 39
3 1 43 42
3 4 46 44
3 4 48 46
3 4 50 48
3 5 53 51
3 5 95 97
3 97 96 53
3 95 96 97
3 5 98 99
3 6 100 101
3 6 102 104
3 102 55 103
3 102 103 104
3 6 57 55
3 105 58 106
3 107 106 22
3 105 106 107
3 109 108 58
3 8 61 59
3 110 62 111
3 9 65 63
3 11 66 24
3 11 67 66
3 11 69 67
3 13 70 26
3 13 71 70
3 13 112 114
3 114 113 71
3 112 113 114
3 116 115 28
3 117 72 118
3 14 73 31
3 14 74 73
3 14 75 74
3 15 76 33
3 15 77 76
3 15 79 77
3 120 119 35
3 7 121 123
3 123 122 56
3 121 122 123
3 124 80 125
3 126 125 60
3 124 125 126
3 16 127 129
3 129 128 38
3 127 128 129
3 16 130 132
3 130 81 131
3 130 131 132
3 16 82 81
3 17 83 40
3 17 84 83
3 18 133 134
3 18 135 136
3 10 85 64
3 19 86 45
3 19 87 86
3 19 88 87
3 138 137 47
3 20 89 49
3 20 90 89
3 12 91 68
3 21 92 52
3 21 93 92
3 21 139 141
3 141 140 93
3 139 140 141
3 142 94 143
3 144 143 54
3 142 143 144
3 146 145 94
3 148 147 78
3 149 6 150
3 151 22 152
3 153 152 6
3 151 152 153
3 154 22 155
3 157 156 22
3 159 158 8
3 23 24 9
3 25 24 23
3 25 11 24
3 25 26 11
3 27 26 25
3 27 13 26
3 27 28 13
3 29 28 27
3 29 160 162
3 162 161 28
3 160 161 162
3 30 163 165
3 163 31 164
3 163 164 165
3 32 31 30
3 32 14 31
3 32 33 14
3 34 33 32
3 34 15 33
3 34 35 15
3 36 35 34
3 36 166 168
3 168 167 35
3 166 167 168
3 170 169 7
3 37 171 173
3 171 38 172
3 171 172 173
3 39 38 37
3 39 16 38
3 39 40 16
3 41 40 39
3 41 17 40
3 42 174 175
3 43 176 178
3 178 177 42
3 176 177 178
3 43 179 181
3 179 18 180
3 179 180 181
3 44 45 10
3 46 45 44
3 46 19 45
3 46 47 19
3 48 47 46
3 48 182 184
3 184 183 47
3 182 183 184
3 48 185 187
3 185 49 186
3 185 186 187
3 50 49 48
3 50 20 49
3 51 52 12
3 53 52 51
3 53 21 52
3 53 54 21
3 188 54 189
3 190 189 53
3 188 189 190
3 192 191 54
3 193 30 194
3 55 195 197
3 195 30 196
3 195 196 197
3 55 2 30
3 55 56 2
3 57 56 55
3 57 7 56
3 22 57 6
3 58 57 22
3 58 7 57
3 58 198 200
3 200 199 7
3 198 199 200
3 202 201 58
3 59 203 205
3 203 60 204
3 203 204 205
3 61 60 59
3 61 206 208
3 208 207 60
3 206 207 208
3 209 61 210
3 211 210 8
3 209 210 211
3 212 61 213
3 215 214 61
3 216 37 217
3 62 218 220
3 218 37 219
3 218 219 220
3 62 3 37
3 63 64 1
3 65 64 63
3 65 10 64
3 24 65 9
3 66 65 24
3 66 10 65
3 66 44 10
3 67 44 66
3 67 4 44
3 67 68 4
3 69 68 67
3 69 12 68
3 26 69 11
3 70 69 26
3 70 12 69
3 70 51 12
3 71 51 70
3 71 5 51
3 71 221 223
3 223 222 5
3 221 222 223
3 225 224 71
3 28 226 228
3 228 227 13
3 226 227 228
3 230 229 28
3 231 42 232
3 72 233 235
3 233 42 234
3 233 234 235
3 72 1 42
3 31 236 237
3 73 238 240
3 240 239 31
3 238 239 240
3 73 241 242
3 73 243 245
3 243 72 244
3 243 244 245
3 74 72 73
3 74 1 72
3 74 63 1
3 75 63 74
3 75 9 63
3 33 75 14
3 76 75 33
3 76 9 75
3 76 23 9
3 77 23 76
3 77 0 23
3 77 78 0
3 79 78 77
3 79 246 248
3 248 247 78
3 246 247 248
3 35 79 15
3 249 79 250
3 251 250 35
3 249 250 251
3 253 252 79
3 56 36 2
3 254 36 255
3 256 255 56
3 254 255 256
3 258 257 36
3 260 259 7
3 60 261 262
3 80 263 265
3 265 264 60
3 263 264 265
3 80 266 267
3 268 80 269
3 270 80 271
3 273 272 80
3 38 274 275
3 277 276 38
3 81 278 279
3 81 280 281
3 81 282 284
3 282 59 283
3 282 283 284
3 82 59 81
3 82 8 59
3 40 82 16
3 83 82 40
3 83 8 82
3 83 285 287
3 287 286 8
3 285 286 287
3 84 288 290
3 290 289 83
3 288 289 290
3 84 291 292
3 64 43 1
3 85 43 64
3 85 18 43
3 45 85 10
3 86 85 45
3 86 18 85
3 86 293 295
3 295 294 18
3 293 294 295
3 87 296 298
3 298 297 86
3 296 297 298
3 87 299 300
3 87 301 302
3 88 303 305
3 305 304 87
3 303 304 305
3 88 306 307
3 47 88 19
3 308 88 309
3 310 309 47
3 308 309 310
3 312 311 88
3 49 313 314
3 89 315 317
3 317 316 49
3 315 316 317
3 89 318 319
3 89 320 322
3 320 62 321
3 320 321 322
3 90 62 89
3 90 3 62
3 68 50 4
3 91 50 68
3 91 20 50
3 52 91 12
3 92 91 52
3 92 20 91
3 92 90 20
3 93 90 92
3 93 3 90
3 93 41 3
3 323 41 324
3 325 324 93
3 323 324 325
3 326 17 327
3 328 327 41
3 326 327 328
3 54 329 331
3 331 330 21
3 329 330 331
3 94 332 334
3 334 333 54
3 332 333 334
3 94 335 337
3 335 17 336
3 335 336 337
3 94 84 17
3 338 84 339
3 340 339 94
3 338 339 340
3 342 341 84
3 344 343 5
3 78 29 0
3 345 29 346
3 347 346 78
3 345 346 347
3 349 348 29
