ply
format ascii 1.0
element vertex 234
property float x
property float y
property float z
element face 206
property list uchar int vertex_index
end_header
28.037899 -33.74474 54.355572
23.470007 -33.060814 69.955742
27.062794 -23.812483 68.241486
27.063559 -34.268852 63.492409
28.130913 -27.950592 52.507671
28.034277 -26.898037 47.699665
28.092503 -32.801418 49.310463
25.064476 -23.441971 71.003448
25.451115 -28.699968 69.379601
27.087461 -29.049854 66.117683
25.666807 -33.993824 67.149429
28.192005 -28.864904 57.145351
27.930573 -29.172211 62.021481
27.776018 -34.278877 59.093758
28.087137 -31.003412 53.330231
28.068043 -30.49844 51.027451
28.074928 -33.356361 51.771534
24.282211 -28.334387 70.641205
24.480156 -30.88887 69.778831
25.551821 -31.390188 68.345825
24.666958 -33.496426 68.730278
23.60623 -35.646805 68.991928
28.070095 -29.412012 46.156322
28.040157 -26.074076 45.302891
26.250999 -23.646353 69.672768
27.696852 -24.006117 66.503654
27.066669 -31.635185 64.899933
27.603485 -29.129402 64.126724
27.525721 -31.762981 62.85297
27.845558 -31.619434 60.625179
27.508293 -34.212402 61.320164
28.051928 -29.934273 48.483654
23.736511 -23.038511 71.948196
24.083059 -25.698977 71.336075
25.374023 -26.14506 70.156586
26.310808 -26.494184 68.813118
27.067125 -26.493649 67.277817
26.354404 -29.123198 67.83474
26.458313 -31.493044 66.657822
26.466431 -34.14962 65.415817
28.180723 -28.547768 54.906284
28.080204 -31.362169 55.747768
24.765293 -20.693413 71.625076
27.66507 -26.511042 65.375282
28.06369 -26.417294 63.297501
28.128592 -29.0252 59.619366
28.015436 -31.537476 58.182598
27.943745 -34.180363 56.756813
23.975082 -31.974842 69.867287
23.866596 -30.667496 70.3022
23.361522 -31.753469 70.390656
28.093843 -29.000222 45.101255
28.124815 -30.531073 45.406525
26.994594 -22.449827 68.737602
26.588696 -22.366763 69.453243
26.656897 -23.729418 68.957127
27.373898 -22.496116 67.923962
26.994594 -22.449827 68.737602
27.379823 -23.9093 67.37257
27.690928 -22.592934 67.055046
27.373898 -22.496116 67.923962
27.066884 -35.521847 62.767903
27.289251 -35.493622 61.68178
27.285926 -34.240627 62.406287
28.099646 -27.728629 51.282873
28.15407 -26.504086 52.068813
28.110164 -32.628759 48.142458
28.089877 -31.195186 47.729053
28.072215 -31.367846 48.897058
23.53036 -26.803156 71.433613
23.362407 -25.564393 71.711228
25.697899 -35.231104 66.556381
26.097712 -35.309002 65.689575
26.066619 -34.071722 66.282623
28.040621 -25.353843 47.229944
28.065158 -25.632479 48.464024
28.048065 -24.47836 44.95736
28.068705 -25.768642 44.281912
28.186364 -28.706336 56.025818
28.262622 -27.242032 55.590895
28.268263 -27.4006 56.710428
28.097525 -27.8613 61.530699
28.164084 -26.483842 62.168709
27.997132 -27.794753 62.659491
28.029583 -29.098706 60.820424
28.196534 -27.787795 60.329642
28.097525 -27.8613 61.530699
27.768221 -35.514623 58.34882
27.852085 -35.465367 57.180347
27.859882 -34.22962 57.925286
23.767623 -29.390255 70.733387
23.629936 -28.120861 71.086178
24.381183 -29.611629 70.210018
23.767623 -29.390255 70.733387
23.866596 -30.667496 70.3022
24.700109 -34.814842 68.189235
25.200034 -35.063541 67.398811
25.166882 -33.745125 67.939853
24.169745 -35.890032 68.320061
24.700109 -34.814842 68.189235
24.136594 -34.571616 68.861103
23.646192 -37.030533 68.436172
24.169745 -35.890032 68.320061
28.078874 -27.331254 44.67454
28.055126 -27.743044 45.729607
28.093843 -29.000222 45.101255
28.107421 -27.025821 43.65356
28.068705 -25.768642 44.281912
28.078874 -27.331254 44.67454
28.278426 -27.522116 57.91654
28.268263 -27.4006 56.710428
26.10272 -22.367823 70.107365
25.509459 -22.265632 70.772705
25.657737 -23.544162 70.338108
26.10272 -22.367823 70.107365
26.588696 -22.366763 69.453243
27.956062 -22.652065 66.142047
27.690928 -22.592934 67.055046
27.938071 -23.884381 65.512073
27.956062 -22.652065 66.142047
27.499281 -35.529915 60.547541
27.633144 -35.563152 59.434338
27.642156 -34.245639 60.206961
27.499281 -35.529915 60.547541
27.289251 -35.493622 61.68178
28.051329 -27.202351 48.87887
28.065158 -25.632479 48.464024
28.068212 -29.002553 50.542763
28.099646 -27.728629 51.282873
28.099478 -29.224516 51.767561
28.060154 -28.72047 49.270865
28.068212 -29.002553 50.542763
28.059985 -30.216356 49.755553
28.043102 -28.416155 48.09166
28.051329 -27.202351 48.87887
28.060154 -28.72047 49.270865
28.09896 -30.934056 46.565387
28.061011 -29.673143 47.319988
28.089877 -31.195186 47.729053
28.124815 -30.531073 45.406525
28.09896 -30.934056 46.565387
23.189134 -24.23416 72.017288
23.036009 -22.86138 72.226959
23.909785 -24.368744 71.642135
23.189134 -24.23416 72.017288
23.362407 -25.564393 71.711228
24.182635 -27.016682 70.98864
23.53036 -26.803156 71.433613
23.629936 -28.120861 71.086178
26.478357 -35.449764 64.741894
26.776921 -35.50938 63.78019
26.764995 -34.209236 64.454113
26.478357 -35.449764 64.741894
26.097712 -35.309002 65.689575
25.697899 -35.231104 66.556381
25.200034 -35.063541 67.398811
22.775044 -32.800459 70.413678
23.361522 -31.753469 70.390656
22.848792 -34.08173 70.017174
22.775044 -32.800459 70.413678
28.043561 -24.941863 46.031557
28.040621 -25.353843 47.229944
28.037217 -26.486057 46.501278
28.043561 -24.941863 46.031557
28.048065 -24.47836 44.95736
28.052703 -34.947374 53.506332
27.994488 -35.173811 54.75379
28.201291 -26.745847 53.229622
28.15407 -26.504086 52.068813
28.226196 -27.044435 54.428928
28.262622 -27.242032 55.590895
28.155818 -28.24918 53.706978
28.201291 -26.745847 53.229622
28.226196 -27.044435 54.428928
23.526214 -21.719775 72.171852
22.825711 -21.542645 72.450615
23.036009 -22.86138 72.226959
24.040605 -20.547226 72.010292
23.526214 -21.719775 72.171852
24.250902 -21.865962 71.786636
24.509677 -19.346991 71.890709
24.040605 -20.547226 72.010292
25.359867 -20.891353 71.083519
24.914884 -22.067692 71.314262
25.509459 -22.265632 70.772705
25.180839 -19.490683 71.43523
25.359867 -20.891353 71.083519
24.925224 -18.144261 71.700863
24.509677 -19.346991 71.890709
25.180839 -19.490683 71.43523
27.922179 -25.136844 64.947888
27.938071 -23.884381 65.512073
27.680961 -25.258579 65.939468
28.12149 -25.08997 63.908997
27.922179 -25.136844 64.947888
27.86438 -26.464168 64.336391
28.255231 -25.086292 62.792837
28.12149 -25.08997 63.908997
28.255231 -25.086292 62.792837
28.164084 -26.483842 62.168709
28.24672 -27.602265 59.153548
28.196534 -27.787795 60.329642
28.160299 -28.945052 58.382358
28.278426 -27.522116 57.91654
28.24672 -27.602265 59.153548
27.947411 -35.391622 55.954411
27.994488 -35.173811 54.75379
27.990822 -33.962552 55.556193
27.947411 -35.391622 55.954411
27.852085 -35.465367 57.180347
27.768221 -35.514623 58.34882
27.633144 -35.563152 59.434338
27.066884 -35.521847 62.767903
26.776921 -35.50938 63.78019
22.916904 -35.374725 69.535267
23.538118 -34.353809 69.473835
22.848792 -34.08173 70.017174
23.027639 -36.707184 69.027737
22.916904 -35.374725 69.535267
23.0676 -38.090912 68.471981
23.646192 -37.030533 68.436172
23.027639 -36.707184 69.027737
28.071217 -34.753185 52.214314
28.056413 -33.55055 53.063553
28.052703 -34.947374 53.506332
28.102797 -34.526314 51.017702
28.071217 -34.753185 52.214314
28.111584 -34.248842 49.787166
28.083716 -33.07889 50.540999
28.102797 -34.526314 51.017702
28.141359 -34.051584 48.5493
28.111584 -34.248842 49.787166
28.110164 -32.628759 48.142458
28.141359 -34.051584 48.5493
3 0 16 14
3 1 48 50
3 48 18 49
3 48 49 50
3 1 20 18
3 1 21 20
3 52 51 22
3 2 53 55
3 55 54 24
3 53 54 55
3 2 56 57
3 2 58 60
3 58 25 59
3 58 59 60
3 3 28 26
3 3 30 28
3 3 61 63
3 63 62 30
3 61 62 63
3 4 64 65
3 6 31 15
3 6 66 68
3 68 67 31
3 66 67 68
3 69 33 70
3 8 34 17
3 8 35 34
3 8 37 35
3 10 38 19
3 10 39 38
3 10 71 73
3 73 72 39
3 71 72 73
3 5 74 75
3 77 76 23
3 11 78 80
3 78 40 79
3 78 79 80
3 11 41 40
3 7 42 32
3 9 43 36
3 12 44 27
3 12 81 83
3 83 82 44
3 81 82 83
3 12 84 86
3 84 45 85
3 84 85 86
3 13 46 29
3 13 47 46
3 13 87 89
3 89 88 47
3 87 88 89
3 14 15 4
3 16 15 14
3 16 6 15
3 90 17 91
3 18 92 94
3 92 17 93
3 92 93 94
3 18 8 17
3 18 19 8
3 20 19 18
3 20 10 19
3 20 95 97
3 97 96 10
3 95 96 97
3 21 98 100
3 100 99 20
3 98 99 100
3 21 101 102
3 22 23 5
3 103 23 104
3 105 104 22
3 103 104 105
3 108 107 23
3 106 107 108
3 109 11 110
3 24 111 113
3 113 112 7
3 111 112 113
3 115 114 24
3 25 116 117
3 25 118 119
3 26 27 9
3 28 27 26
3 28 12 27
3 28 29 12
3 30 29 28
3 30 13 29
3 30 120 122
3 122 121 13
3 120 121 122
3 124 123 30
3 125 5 126
3 15 127 129
3 129 128 4
3 127 128 129
3 31 130 132
3 132 131 15
3 130 131 132
3 31 133 135
3 133 5 134
3 133 134 135
3 31 22 5
3 136 22 137
3 138 137 31
3 136 137 138
3 140 139 22
3 141 32 142
3 33 143 145
3 143 32 144
3 143 144 145
3 33 7 32
3 17 146 148
3 146 33 147
3 146 147 148
3 34 33 17
3 34 7 33
3 34 24 7
3 35 24 34
3 35 2 24
3 35 36 2
3 37 36 35
3 37 9 36
3 19 37 8
3 38 37 19
3 38 9 37
3 38 26 9
3 39 26 38
3 39 3 26
3 39 149 151
3 151 150 3
3 149 150 151
3 153 152 39
3 155 154 10
3 156 1 157
3 159 158 1
3 23 160 162
3 162 161 5
3 160 161 162
3 164 163 23
3 166 165 0
3 167 4 168
3 40 169 170
3 40 171 173
3 171 4 172
3 171 172 173
3 40 14 4
3 41 14 40
3 41 0 14
3 32 174 176
3 174 175 176
3 42 177 179
3 179 178 32
3 177 178 179
3 42 180 181
3 182 42 183
3 184 183 7
3 182 183 184
3 185 42 186
3 189 188 42
3 187 188 189
3 36 25 2
3 43 25 36
3 43 190 192
3 192 191 25
3 190 191 192
3 27 43 9
3 44 43 27
3 44 193 195
3 195 194 43
3 193 194 195
3 44 196 197
3 199 198 44
3 45 200 201
3 45 202 204
3 202 11 203
3 202 203 204
3 29 45 12
3 46 45 29
3 46 11 45
3 46 41 11
3 47 41 46
3 47 0 41
3 47 205 207
3 207 206 0
3 205 206 207
3 209 208 47
3 211 210 13
3 213 212 3
3 214 21 215
3 216 215 1
3 214 215 216
3 217 21 218
3 221 220 21
3 219 220 221
3 222 16 223
3 224 223 0
3 222 223 224
3 225 16 226
3 227 6 228
3 229 228 16
3 227 228 229
3 230 6 231
3 233 232 6
