ply
format ascii 1.0
element vertex 685
property float x
property float y
property float z
element face 749
property list uchar int vertex_index
end_header
9.554511 8.075827 -70.306602
6.733288 -21.913244 -57.417297
-2.884538 -57.549728 -44.318584
16.068132 -40.252865 -53.615582
-4.579156 -45.625961 -44.407036
3.057129 -39.254333 -50.354649
0.38532 -28.850594 -50.804909
21.987591 -46.646782 -50.853413
15.264122 -0.494245 -68.806
8.444925 -5.943151 -64.610107
13.444701 -14.923699 -62.546486
6.784005 -49.827591 -49.415119
10.959805 -31.836931 -55.518749
18.9021 -22.793791 -60.080601
24.8403 -29.120569 -57.009975
-1.714025 -37.096523 -47.613861
6.177349 -2.114428 -64.755943
8.979717 1.260642 -67.753761
11.687537 -3.086766 -67.057777
12.4468 4.107905 -69.988068
1.827839 -54.057178 -46.934647
5.09691 -30.57962 -53.699284
7.097048 -35.729259 -53.045143
8.777035 -26.831591 -56.532738
12.412229 -23.045351 -59.037655
10.117143 -18.293949 -60.231071
25.664482 -58.671597 -43.276459
19.035744 -43.696529 -52.434822
23.585749 -37.930248 -53.811813
20.670744 -34.879635 -55.424686
21.786877 -26.258224 -58.631618
17.777033 -31.291735 -56.784306
-3.911883 -51.66251 -44.358181
0.247922 -48.342819 -47.145363
-0.910508 -42.824429 -47.39175
1.570055 -34.047184 -50.684971
3.416296 -25.558735 -54.17783
22.88903 -57.499294 -45.882118
24.780582 -49.137985 -48.799194
19.818455 -55.50359 -48.069241
16.792009 -52.575684 -49.724289
13.970145 -49.30135 -50.766426
10.216121 14.571643 -71.984024
13.973381 16.75271 -73.140541
13.206937 10.791758 -72.094757
17.751371 -5.157186 -67.219872
4.820261 -17.243498 -57.919807
5.750049 -9.19916 -61.632618
7.778534 -13.745371 -61.080441
10.916636 -10.413039 -63.747574
14.284958 -7.527386 -65.832588
16.96113 -11.658252 -64.498337
9.086836 -54.36895 -48.939476
11.473126 -45.518597 -51.529053
4.75309 -44.73962 -49.840061
9.055471 -40.765041 -52.2798
13.364879 -36.351845 -54.576813
14.957343 -27.261711 -57.975075
16.020559 -19.132427 -61.28178
26.598454 -40.485027 -51.795784
8.0249 6.475955 -69.068947
7.794404 3.257789 -67.860863
9.354028 4.651549 -69.147461
10.673654 2.726273 -68.988991
10.917172 6.120985 -70.228783
0.281168 -58.451004 -45.666817
-0.543482 -55.513336 -45.700871
5.924092 -26.152817 -55.529606
6.920376 -28.525734 -55.208832
7.669884 -24.310488 -56.989151
9.391181 -22.519838 -58.330372
8.420417 -20.092274 -58.878487
17.474382 -42.163548 -53.025089
19.749537 -39.361832 -53.879433
18.372089 -37.687775 -54.528343
19.111776 -33.531048 -55.993645
16.889463 -35.846832 -55.13018
-5.872509 -52.672245 -42.954582
-4.352693 -48.686481 -44.341534
-2.356387 -47.093464 -45.8587
-2.776134 -44.15942 -45.93425
-0.568431 -32.889679 -49.21014
-0.108983 -35.705635 -49.13435
0.971148 -31.293394 -50.835293
2.553969 -29.582937 -52.443626
1.894538 -27.229998 -52.526093
20.308739 -60.582439 -45.759605
21.207172 -56.640972 -47.092377
18.651875 -59.67635 -46.809402
15.721155 -56.883976 -48.479774
14.286835 -55.33313 -49.066299
15.452662 -50.875393 -50.33342
12.794396 -53.827404 -49.474178
8.69834 15.990751 -71.439857
10.420907 17.503395 -72.324684
13.499143 13.659451 -72.712097
14.607234 8.547564 -71.720741
3.439029 -19.156656 -56.151154
7.292809 -4.068388 -64.737686
7.051794 -7.766675 -63.087414
6.617887 -11.627822 -61.270111
8.208015 -9.972773 -62.825352
9.387981 -12.095975 -62.482315
9.734975 -8.125635 -64.279411
13.381606 -1.463587 -68.128799
12.980823 -5.151319 -66.547867
16.575172 -2.989737 -67.982727
5.346334 -54.23542 -48.111568
6.537027 -56.510445 -47.976276
7.823985 -52.256229 -49.153854
10.131048 -50.053638 -50.128834
9.148494 -47.508476 -50.554096
1.626958 -44.079948 -48.608829
2.568639 -46.480339 -48.576138
3.772247 -42.156319 -50.017494
8.989397 -33.63028 -54.349937
8.071516 -38.321777 -52.650246
10.039312 -36.126534 -53.899845
11.209859 -38.490673 -53.485329
12.14874 -34.195538 -55.040752
14.310564 -31.876041 -56.226074
12.971775 -29.731743 -56.721954
12.915442 -18.960501 -60.768799
14.202544 -21.045616 -60.21114
14.753943 -16.991606 -61.949707
16.494299 -15.100729 -63.000267
15.222467 -13.234303 -63.593697
23.248127 -48.191212 -49.844685
25.695551 -44.89365 -50.263573
24.275347 -43.633789 -51.353214
24.23345 -33.621815 -55.348423
26.784445 -26.289219 -57.654633
25.405973 -24.779827 -58.650532
20.240353 -24.694677 -59.335796
22.19533 -21.965256 -60.320168
-3.085865 -41.418121 -45.978622
-3.351477 -38.434525 -45.984768
-2.123996 -34.419418 -47.523533
-1.040462 -30.320833 -49.117676
7.532007 -0.42677 -66.330643
8.725087 -2.221824 -66.269264
9.991348 -4.330706 -65.966614
10.34918 -0.630186 -67.59919
11.988064 0.549106 -68.581657
13.79915 1.719429 -69.416504
2.913883 -56.455856 -46.951649
4.288744 -51.982033 -48.205414
4.105123 -34.789661 -51.997036
4.989758 -37.714027 -51.639008
6.013562 -33.152027 -53.363853
7.829635 -31.351505 -54.661076
9.879539 -29.056679 -56.134983
11.817808 -27.253681 -57.324623
10.654131 -24.766039 -57.904034
11.196833 -20.739254 -59.606697
11.776877 -16.582741 -61.442326
24.478964 -62.512089 -41.82674
20.384369 -45.476707 -51.637829
22.72595 -42.260281 -52.346973
21.284252 -40.844341 -53.166439
21.971169 -36.479103 -54.676167
22.788231 -32.036945 -56.244526
23.328238 -27.984489 -57.757011
21.209846 -30.685802 -56.955624
19.799265 -29.040844 -57.651985
18.299976 -26.990986 -58.415894
8.190425 9.906129 -70.115952
-5.520941 -55.718002 -42.979004
-3.252798 -54.292408 -44.473579
-1.245034 -52.795891 -45.727772
-1.860472 -49.915653 -45.785557
-0.379221 -45.598507 -47.266052
1.036837 -41.121704 -48.876022
-1.313932 -39.925663 -47.551521
0.330239 -38.432556 -48.95723
2.220126 -36.747993 -50.483742
3.319237 -32.153351 -52.267712
4.274629 -27.901854 -54.049484
4.993495 -23.817327 -55.781727
23.15094 -61.921021 -43.360939
24.296722 -58.050072 -44.721325
25.414186 -53.960155 -46.145168
26.203585 -50.21788 -47.537449
23.775311 -53.606384 -47.255119
22.342728 -52.340801 -48.458328
20.789097 -51.141479 -49.461407
17.203476 -58.245487 -47.758862
18.349556 -54.115433 -48.961815
19.311781 -49.985107 -50.228905
17.920269 -48.198322 -51.028065
16.504154 -46.522827 -51.641525
15.112739 -44.835297 -52.132511
8.454092 12.992461 -70.915245
9.820934 11.402649 -71.260742
12.005651 15.68692 -72.69294
11.597817 12.632896 -72.122688
11.283685 9.559198 -71.33812
14.195891 5.378591 -70.734406
4.232501 -21.392334 -56.069374
5.702363 -19.705376 -57.63929
5.309532 -13.267262 -59.73978
6.282584 -15.681278 -59.488796
7.269623 -17.940706 -59.176003
8.836547 -16.204605 -60.580193
10.497057 -14.3471 -61.963619
12.12452 -12.723837 -63.139534
11.341002 -6.665893 -65.465897
12.573281 -8.974834 -64.839996
13.922001 -11.152685 -64.230782
15.66815 -9.80503 -65.109627
17.292837 -8.488846 -65.85128
18.449503 -10.364349 -65.169319
7.638885 -58.757885 -47.749413
10.28518 -56.344437 -48.65358
11.563787 -51.821327 -49.894703
12.638331 -47.501801 -51.156498
13.798998 -42.640766 -52.68235
1.061433 -51.084671 -47.081593
3.364985 -49.24321 -48.377678
5.690564 -47.264706 -49.631397
5.99103 -40.263908 -51.386536
6.947749 -42.643188 -51.129894
8.008877 -45.365128 -50.787418
10.374434 -42.868744 -52.036835
12.544366 -40.742317 -53.073925
14.77583 -38.104649 -54.203793
15.605727 -33.777695 -55.739498
16.272509 -29.468578 -57.336975
16.972197 -25.328871 -58.958233
13.692744 -25.160751 -58.527248
15.570946 -23.24168 -59.58844
17.411747 -21.276392 -60.585995
17.77096 -17.200422 -62.270393
18.130806 -13.523439 -63.827457
27.282223 -46.018707 -48.951443
27.968506 -41.832039 -50.542313
25.120913 -39.449203 -52.779079
23.7742 -23.605106 -59.45351
-3.611348 -59.498486 -43.752719
-3.918548 -57.991568 -43.712776
-2.43511 -58.795364 -44.403002
-3.611348 -59.498486 -43.752719
-1.71401 -56.531532 -45.009727
-1.264582 -57.777168 -45.094145
-2.43511 -58.795364 -44.403002
-5.37694 -47.630107 -43.645722
-5.428256 -46.078825 -43.646942
-4.465924 -47.156221 -44.374285
-5.263708 -49.160367 -43.612971
-5.37694 -47.630107 -43.645722
18.923496 -62.198606 -45.645308
19.748606 -62.574877 -45.111271
18.095064 -61.745562 -46.170206
19.480307 -60.129395 -46.284503
18.923496 -62.198606 -45.645308
12.931082 -56.925878 -48.638405
13.697401 -57.548939 -48.46143
12.184863 -56.173016 -48.842344
13.540616 -54.580267 -49.270239
12.931082 -56.925878 -48.638405
10.642522 18.894233 -72.386066
9.651855 18.212677 -71.978012
14.971967 -2.152828 -68.11829
14.030709 -2.637499 -67.77969
14.322864 -0.978916 -68.467399
15.919647 -1.741991 -68.394363
15.627492 -3.400574 -67.706654
14.971967 -2.152828 -68.11829
25.607625 -29.823671 -56.518919
25.3042 -32.074294 -55.688143
24.536875 -31.371192 -56.179199
25.812373 -27.704894 -57.332304
26.579697 -28.407996 -56.841248
25.607625 -29.823671 -56.518919
19.763846 -21.641015 -60.548338
20.432973 -22.591458 -60.175936
19.571227 -23.744234 -59.708199
19.062818 -20.790948 -60.893124
19.763846 -21.641015 -60.548338
-4.089739 -38.908915 -45.212168
-4.04283 -40.526592 -45.213017
-2.251424 -33.024097 -47.506649
-2.855459 -34.999958 -46.707543
-1.709658 -30.974805 -48.30372
-1.582229 -32.370126 -48.320605
-2.251424 -33.024097 -47.506649
26.261217 -59.006502 -42.446352
25.668458 -60.926749 -41.721492
25.071723 -60.591843 -42.5516
7.533893 10.619573 -69.86227
7.434576 9.064329 -69.411678
21.906926 -63.564774 -43.314656
22.636429 -63.767182 -42.633703
23.592876 -57.774683 -45.301721
23.024817 -59.758654 -44.642786
22.320971 -59.483265 -45.223183
15.880591 -59.752655 -47.504477
16.640543 -60.462811 -47.102064
14.169115 18.224721 -73.183701
15.026421 17.208783 -73.215271
13.165624 17.614111 -73.040131
14.169115 18.224721 -73.183701
12.989516 16.219815 -72.916741
12.18176 17.081217 -72.81633
13.165624 17.614111 -73.040131
12.940542 9.223226 -71.630912
11.978917 8.606946 -71.252594
12.245311 10.175478 -71.716439
15.177975 5.749532 -70.936223
14.401563 6.963077 -71.227574
15.383647 7.334019 -71.42939
14.906385 4.097663 -70.385285
15.177975 5.749532 -70.936223
5.595189 -2.950934 -63.950333
5.667463 -1.098232 -64.726647
5.249605 -8.231355 -61.595447
5.848117 -7.436798 -62.403034
5.088264 -10.115502 -60.737501
5.249605 -8.231355 -61.595447
5.52979 -11.233211 -60.686199
4.868005 -12.149553 -59.791082
5.088264 -10.115502 -60.737501
17.522104 -6.823016 -66.535576
16.651689 -7.392539 -66.231887
16.880956 -5.72671 -66.916183
18.298882 -6.377129 -66.76273
18.069615 -8.042959 -66.078434
17.522104 -6.823016 -66.535576
27.685313 -38.986477 -51.950599
28.37034 -39.659982 -51.323864
27.28348 -41.158533 -51.169049
23.146021 -20.610461 -60.744009
22.331944 -19.985961 -61.110777
7.909652 4.866872 -68.464905
7.165879 4.196015 -67.766666
7.281128 5.805098 -68.370709
-0.852256 -59.246002 -45.077118
-0.468215 -60.622196 -45.084839
-0.131157 -56.98217 -45.683844
-0.852256 -59.246002 -45.077118
-1.264582 -57.777168 -45.094145
26.800624 -57.066763 -43.256012
26.156239 -56.781815 -44.013749
-6.023617 -51.15325 -42.919494
-6.790499 -53.186878 -42.224115
-5.112601 -50.679363 -43.648058
-6.023617 -51.15325 -42.919494
-5.263708 -49.160367 -43.612971
21.030826 -61.024838 -45.161926
19.748606 -62.574877 -45.111271
21.598885 -59.040866 -45.820861
22.320971 -59.483265 -45.223183
21.030826 -61.024838 -45.161926
14.414561 -58.324362 -48.168167
15.13943 -59.0719 -47.864933
13.832836 -60.512285 -47.553326
15.003995 -56.108553 -48.773037
14.414561 -58.324362 -48.168167
13.697401 -57.548939 -48.46143
8.790571 17.456355 -71.535598
8.006686 16.617561 -71.049847
9.559624 16.747073 -71.882271
8.790571 17.456355 -71.535598
9.651855 18.212677 -71.978012
14.755689 15.710255 -73.089664
15.026421 17.208783 -73.215271
14.51857 14.163626 -72.875442
13.736262 15.206081 -72.926319
14.755689 15.710255 -73.089664
14.327538 12.657597 -72.611778
14.51857 14.163626 -72.875442
14.181435 11.22375 -72.303108
13.35304 12.225604 -72.403427
14.327538 12.657597 -72.611778
14.881584 10.101653 -72.1161
13.907086 9.669661 -71.907749
14.181435 11.22375 -72.303108
15.612927 9.009805 -71.891514
14.881584 10.101653 -72.1161
15.383647 7.334019 -71.42939
15.612927 9.009805 -71.891514
3.081781 -17.942394 -56.188505
2.774676 -19.907773 -55.295723
3.716929 -17.171567 -57.057213
3.081781 -17.942394 -56.188505
4.407545 -16.214987 -57.94154
4.129645 -18.200077 -57.03548
3.716929 -17.171567 -57.057213
6.619497 -4.871412 -63.955568
6.061768 -3.894432 -63.964697
6.735079 -3.091408 -64.746814
6.49899 -6.720555 -63.130432
6.619497 -4.871412 -63.955568
7.172301 -5.917531 -63.91255
6.400921 -8.482917 -62.360016
5.848117 -7.436798 -62.403034
6.49899 -6.720555 -63.130432
13.830317 -4.481365 -66.989224
13.181214 -3.307453 -67.338333
14.030709 -2.637499 -67.77969
14.482385 -5.669398 -66.631584
13.632891 -6.339353 -66.190227
13.830317 -4.481365 -66.989224
15.14775 -6.91181 -66.222542
14.482385 -5.669398 -66.631584
16.292857 -4.642985 -67.297611
15.627492 -3.400574 -67.706654
17.163272 -4.073462 -67.601299
16.880956 -5.72671 -66.916183
16.292857 -4.642985 -67.297611
5.941681 -55.372932 -48.043922
5.246568 -57.70879 -47.421478
4.651221 -56.571277 -47.489124
25.048642 -34.286898 -54.863106
24.724792 -36.441114 -54.094801
23.909599 -35.776032 -54.580118
25.048642 -34.286898 -54.863106
25.3042 -32.074294 -55.688143
27.581909 -26.885464 -57.126475
26.579697 -28.407996 -56.841248
27.745969 -24.881709 -57.901396
27.581909 -26.885464 -57.126475
26.971526 -24.110218 -58.498337
27.745969 -24.881709 -57.901396
26.28229 -23.355522 -58.996286
26.971526 -24.110218 -58.498337
26.095209 -25.534523 -58.152582
25.519325 -22.666677 -59.48822
26.28229 -23.355522 -58.996286
21.410461 -21.226748 -60.668121
21.217841 -23.329966 -59.827982
20.432973 -22.591458 -60.175936
22.331944 -19.985961 -61.110777
21.410461 -21.226748 -60.668121
-4.65667 -44.12231 -44.42415
-5.428256 -46.078825 -43.646942
-3.910025 -42.01839 -45.209944
-3.832511 -43.522041 -45.192829
-4.65667 -44.12231 -44.42415
-3.218671 -39.926323 -45.981695
-3.910025 -42.01839 -45.209944
-4.04283 -40.526592 -45.213017
-3.469199 -37.007511 -45.93816
-4.089739 -38.908915 -45.212168
-2.737737 -36.426972 -46.754151
-3.469199 -37.007511 -45.93816
-2.855459 -34.999958 -46.707543
6.327906 -0.268748 -65.572395
5.667463 -1.098232 -64.726647
7.136433 2.417361 -67.124855
7.165879 4.196015 -67.766666
7.005235 0.575081 -66.359745
7.136433 2.417361 -67.124855
7.663206 1.415509 -67.095753
6.854678 -1.270599 -65.543293
6.327906 -0.268748 -65.572395
7.005235 0.575081 -66.359745
0.805295 -59.599375 -45.704602
-0.468215 -60.622196 -45.084839
2.121652 -58.601801 -46.347018
0.805295 -59.599375 -45.704602
1.597525 -57.45343 -46.309233
3.434995 -57.681495 -46.909165
2.121652 -58.601801 -46.347018
4.130108 -55.345638 -47.531609
4.651221 -56.571277 -47.489124
3.434995 -57.681495 -46.909165
25.116222 -62.614956 -41.033525
23.915014 -64.389346 -41.0173
25.116222 -62.614956 -41.033525
25.668458 -60.926749 -41.721492
26.261217 -59.006502 -42.446352
26.800624 -57.066763 -43.256012
7.351814 7.349243 -68.888176
7.281128 5.805098 -68.370709
8.107662 8.191042 -69.592449
7.351814 7.349243 -68.888176
7.434576 9.064329 -69.411678
-6.688136 -54.697186 -42.254423
-6.790499 -53.186878 -42.224115
-6.512352 -56.220064 -42.266634
-6.688136 -54.697186 -42.254423
-5.696725 -54.195123 -42.966793
-6.279547 -57.722471 -42.352274
-6.512352 -56.220064 -42.266634
-5.23675 -57.075705 -43.042986
-5.995356 -59.080174 -42.416256
-6.279547 -57.722471 -42.352274
-4.102678 -56.362908 -43.790273
-5.23675 -57.075705 -43.042986
-4.386869 -55.005205 -43.726292
-3.068668 -55.921068 -44.396082
-3.918548 -57.991568 -43.712776
-4.102678 -56.362908 -43.790273
23.300441 -64.062715 -41.866603
23.915014 -64.389346 -41.0173
22.736491 -65.939972 -41.057163
23.814952 -62.216555 -42.59384
23.300441 -64.062715 -41.866603
22.636429 -63.767182 -42.633703
22.451926 -61.694129 -43.962593
21.906926 -63.564774 -43.314656
23.723831 -59.985546 -44.041132
22.451926 -61.694129 -43.962593
23.024817 -59.758654 -44.642786
25.472359 -56.471052 -44.736182
26.156239 -56.781815 -44.013749
24.980602 -58.360834 -43.998892
26.031092 -54.426094 -45.448103
25.472359 -56.471052 -44.736182
24.855454 -56.005114 -45.433246
26.581455 -52.397199 -46.171657
26.031092 -54.426094 -45.448103
25.808886 -52.089017 -46.841308
26.976154 -50.526062 -46.867798
26.581455 -52.397199 -46.171657
17.364742 -61.178242 -46.627335
18.095064 -61.745562 -46.170206
17.927675 -58.960918 -47.284132
17.364742 -61.178242 -46.627335
16.640543 -60.462811 -47.102064
16.462315 -57.564731 -48.119318
15.880591 -59.752655 -47.504477
15.13943 -59.0719 -47.864933
7.924016 15.193091 -70.878597
8.006686 16.617561 -71.049847
7.801892 13.693946 -70.616291
7.924016 15.193091 -70.878597
8.576216 14.491606 -71.177551
7.665727 12.162738 -70.261917
7.801892 13.693946 -70.616291
8.322259 11.449295 -70.515598
7.533893 10.619573 -69.86227
7.665727 12.162738 -70.261917
11.389387 17.989454 -72.632202
10.642522 18.894233 -72.386066
11.213279 16.595157 -72.508812
11.389387 17.989454 -72.632202
12.18176 17.081217 -72.81633
11.79566 6.88784 -70.697925
11.100428 7.840091 -70.783452
11.978917 8.606946 -71.252594
12.560474 5.8813 -70.577568
11.681986 5.114445 -70.108426
11.79566 6.88784 -70.697925
13.640691 8.101129 -71.443905
12.940542 9.223226 -71.630912
13.907086 9.669661 -71.907749
13.435019 6.516643 -70.950737
13.640691 8.101129 -71.443905
14.401563 6.963077 -71.227574
13.321345 4.743248 -70.361237
12.560474 5.8813 -70.577568
13.435019 6.516643 -70.950737
14.708015 2.268082 -69.726334
13.997521 3.54901 -70.075455
14.906385 4.097663 -70.385285
15.440501 1.161245 -69.421081
14.531636 0.612592 -69.111252
14.708015 2.268082 -69.726334
16.150602 -0.117125 -69.014111
15.440501 1.161245 -69.421081
16.806126 -1.364871 -68.602474
15.919647 -1.741991 -68.394363
16.150602 -0.117125 -69.014111
17.46369 -2.543066 -68.189884
16.806126 -1.364871 -68.602474
18.05179 -3.626791 -67.808457
17.163272 -4.073462 -67.601299
17.46369 -2.543066 -68.189884
18.611359 -4.924257 -67.320641
18.05179 -3.626791 -67.808457
18.298882 -6.377129 -66.76273
18.611359 -4.924257 -67.320641
-1.166078 -28.954233 -49.143696
-1.709658 -30.974805 -48.30372
-1.835273 -29.608205 -48.32974
-0.508447 -28.27053 -50.017823
-1.166078 -28.954233 -49.143696
0.204444 -27.53541 -50.861439
-0.327571 -29.585714 -49.961292
-0.508447 -28.27053 -50.017823
0.862956 -26.824694 -51.703936
0.204444 -27.53541 -50.861439
1.617565 -26.014396 -52.564527
1.139929 -28.040296 -51.665501
0.862956 -26.824694 -51.703936
2.303018 -25.259367 -53.399542
1.617565 -26.014396 -52.564527
3.063897 -24.423735 -54.22541
2.655417 -26.394366 -53.351962
2.303018 -25.259367 -53.399542
3.075264 -21.222696 -55.212072
2.774676 -19.907773 -55.295723
3.471999 -22.340535 -55.171183
3.075264 -21.222696 -55.212072
3.835765 -20.274495 -56.110264
3.824399 -23.475535 -55.123602
3.063897 -24.423735 -54.22541
3.471999 -22.340535 -55.171183
5.595189 -2.950934 -63.950333
6.061768 -3.894432 -63.964697
4.652181 -14.226869 -58.851526
4.868005 -12.149553 -59.791082
5.064896 -15.25538 -58.829794
4.407545 -16.214987 -57.94154
4.652181 -14.226869 -58.851526
15.839346 -8.050631 -65.861061
14.976554 -8.666208 -65.471108
15.14775 -6.91181 -66.222542
16.480494 -9.146938 -65.480454
15.839346 -8.050631 -65.861061
16.651689 -7.392539 -66.231887
18.647948 -8.980711 -65.737454
17.87117 -9.426597 -65.5103
18.069615 -8.042959 -66.078434
19.028662 -9.878549 -65.387551
18.647948 -8.980711 -65.737454
5.77184 -58.884987 -47.3544
5.246568 -57.70879 -47.421478
6.322769 -60.008707 -47.240969
5.77184 -58.884987 -47.3544
7.087956 -57.634165 -47.862844
6.997312 -60.954468 -47.201998
6.322769 -60.008707 -47.240969
8.271695 -59.844429 -47.604639
6.997312 -60.954468 -47.201998
9.594843 -58.637705 -48.056723
8.271695 -59.844429 -47.604639
8.962032 -57.551161 -48.201496
10.930255 -57.431532 -48.432045
9.594843 -58.637705 -48.056723
11.539788 -55.085921 -49.063879
12.184863 -56.173016 -48.842344
10.930255 -57.431532 -48.432045
18.317642 -20.032249 -61.145821
19.062818 -20.790948 -60.893124
18.156923 -22.035092 -60.333298
18.497248 -17.994264 -61.98802
18.317642 -20.032249 -61.145821
17.591353 -19.238407 -61.428194
18.632993 -16.263115 -62.70577
18.497248 -17.994264 -61.98802
18.812916 -14.424624 -63.484302
18.632993 -16.263115 -62.70577
17.950883 -15.36193 -63.048925
18.859167 -12.686415 -64.209566
18.812916 -14.424624 -63.484302
19.018515 -11.10687 -64.880497
18.859167 -12.686415 -64.209566
18.290154 -11.943894 -64.498388
19.028662 -9.878549 -65.387551
19.018515 -11.10687 -64.880497
27.383513 -48.612976 -47.59651
26.976154 -50.526062 -46.867798
27.922832 -46.51339 -48.303507
27.383513 -48.612976 -47.59651
26.742904 -48.118294 -48.244446
28.392254 -44.327535 -49.100789
27.922832 -46.51339 -48.303507
28.735396 -42.234201 -49.896224
28.392254 -44.327535 -49.100789
27.625364 -43.925373 -49.746878
29.077292 -40.191792 -50.673474
28.735396 -42.234201 -49.896224
29.077292 -40.191792 -50.673474
28.37034 -39.659982 -51.323864
25.492373 -37.200592 -53.578434
24.353331 -38.689725 -53.295446
24.724792 -36.441114 -54.094801
26.253201 -37.775175 -53.063574
25.492373 -37.200592 -53.578434
26.991971 -38.293087 -52.571926
25.859684 -39.967115 -52.287431
26.253201 -37.775175 -53.063574
27.685313 -38.986477 -51.950599
26.991971 -38.293087 -52.571926
24.703439 -22.079316 -59.88971
25.519325 -22.666677 -59.48822
24.590086 -24.192467 -59.052021
23.935456 -21.430385 -60.31068
22.984765 -22.785181 -59.886839
23.146021 -20.610461 -60.744009
24.703439 -22.079316 -59.88971
23.935456 -21.430385 -60.31068
3 0 62 60
3 0 64 62
3 2 238 239
3 2 240 241
3 2 242 244
3 242 66 243
3 242 243 244
3 1 69 67
3 1 71 69
3 3 74 72
3 3 76 74
3 4 245 246
3 4 247 249
3 247 78 248
3 247 248 249
3 4 80 78
3 6 83 81
3 6 85 83
3 250 86 251
3 252 88 253
3 254 253 86
3 252 253 254
3 255 90 256
3 257 92 258
3 259 258 90
3 257 258 259
3 260 94 261
3 9 99 98
3 9 101 99
3 9 103 101
3 8 262 264
3 264 263 104
3 262 263 264
3 8 265 267
3 265 106 266
3 265 266 267
3 11 109 107
3 11 111 109
3 5 114 112
3 12 117 115
3 12 119 117
3 12 121 119
3 10 124 122
3 10 126 124
3 7 129 127
3 14 268 270
3 270 269 130
3 268 269 270
3 14 271 273
3 271 131 272
3 271 272 273
3 14 132 131
3 13 274 276
3 276 275 133
3 274 275 276
3 13 277 278
3 279 136 280
3 281 137 282
3 283 138 284
3 285 284 137
3 283 284 285
3 17 139 61
3 17 140 139
3 17 142 140
3 19 143 63
3 19 144 143
3 20 145 65
3 20 146 145
3 21 149 147
3 23 150 68
3 23 151 150
3 23 153 151
3 25 154 70
3 25 155 154
3 26 286 288
3 288 287 156
3 286 287 288
3 27 159 157
3 29 160 73
3 29 161 160
3 29 163 161
3 31 164 75
3 31 165 164
3 289 166 290
3 32 167 77
3 32 168 167
3 32 170 168
3 34 171 79
3 34 172 171
3 15 173 135
3 35 174 82
3 35 175 174
3 35 176 175
3 36 177 84
3 36 178 177
3 291 179 292
3 37 293 295
3 293 180 294
3 293 294 295
3 37 181 180
3 37 183 181
3 39 184 87
3 39 185 184
3 296 186 297
3 40 187 89
3 40 188 187
3 40 189 188
3 41 190 91
3 41 191 190
3 42 192 93
3 42 193 192
3 43 298 299
3 43 300 301
3 43 302 304
3 302 194 303
3 302 303 304
3 44 195 95
3 44 196 195
3 44 305 307
3 307 306 196
3 305 306 307
3 308 197 309
3 310 309 96
3 308 309 310
3 312 311 197
3 46 198 97
3 46 199 198
3 16 313 314
3 47 315 316
3 47 317 318
3 47 319 321
3 319 200 320
3 319 320 321
3 48 201 100
3 48 202 201
3 48 203 202
3 49 204 102
3 49 205 204
3 18 206 141
3 50 207 105
3 50 208 207
3 50 209 208
3 45 322 324
3 322 210 323
3 322 323 324
3 45 325 327
3 327 326 210
3 325 326 327
3 52 212 108
3 52 213 212
3 52 214 213
3 53 215 110
3 53 216 215
3 33 217 169
3 54 218 113
3 54 219 218
3 22 220 148
3 55 221 116
3 55 222 221
3 55 223 222
3 56 224 118
3 56 225 224
3 56 226 225
3 57 227 120
3 57 228 227
3 24 229 152
3 58 230 123
3 58 231 230
3 58 232 231
3 51 233 125
3 51 211 233
3 38 234 182
3 59 235 128
3 59 328 330
3 330 329 235
3 328 329 330
3 28 236 158
3 30 237 162
3 332 331 134
3 60 333 335
3 333 61 334
3 333 334 335
3 62 61 60
3 62 17 61
3 62 63 17
3 64 63 62
3 64 19 63
3 336 65 337
3 66 338 340
3 338 65 339
3 338 339 340
3 66 20 65
3 67 68 21
3 69 68 67
3 69 23 68
3 69 70 23
3 71 70 69
3 71 25 70
3 342 341 26
3 72 73 27
3 74 73 72
3 74 29 73
3 74 75 29
3 76 75 74
3 76 31 75
3 343 77 344
3 78 345 347
3 345 77 346
3 345 346 347
3 78 32 77
3 78 79 32
3 80 79 78
3 80 34 79
3 81 82 15
3 83 82 81
3 83 35 82
3 83 84 35
3 85 84 83
3 85 36 84
3 86 348 349
3 86 350 352
3 350 37 351
3 350 351 352
3 86 87 37
3 88 87 86
3 88 39 87
3 353 89 354
3 353 354 355
3 90 356 358
3 356 89 357
3 356 357 358
3 90 40 89
3 90 91 40
3 92 91 90
3 92 41 91
3 359 93 360
3 94 361 363
3 361 93 362
3 361 362 363
3 94 42 93
3 364 43 365
3 366 95 367
3 368 367 43
3 366 367 368
3 369 95 370
3 371 44 372
3 373 372 95
3 371 372 373
3 374 96 375
3 376 375 44
3 374 375 376
3 377 96 378
3 380 379 96
3 381 97 382
3 383 97 384
3 385 46 386
3 387 386 97
3 385 386 387
3 98 388 390
3 390 389 16
3 388 389 390
3 99 391 393
3 393 392 98
3 391 392 393
3 99 394 396
3 394 47 395
3 394 395 396
3 99 100 47
3 101 100 99
3 101 48 100
3 101 102 48
3 103 102 101
3 103 49 102
3 104 105 18
3 397 105 398
3 399 398 104
3 397 398 399
3 400 50 401
3 402 401 105
3 400 401 402
3 404 403 50
3 106 405 406
3 106 407 409
3 407 45 408
3 407 408 409
3 107 410 412
3 410 108 411
3 410 411 412
3 109 108 107
3 109 52 108
3 109 110 52
3 111 110 109
3 111 53 110
3 112 113 33
3 114 113 112
3 114 54 113
3 115 116 22
3 117 116 115
3 117 55 116
3 117 118 55
3 119 118 117
3 119 56 118
3 119 120 56
3 121 120 119
3 121 57 120
3 122 123 24
3 124 123 122
3 124 58 123
3 124 125 58
3 126 125 124
3 126 51 125
3 127 128 38
3 129 128 127
3 129 59 128
3 130 413 415
3 415 414 28
3 413 414 415
3 417 416 130
3 131 418 419
3 131 420 421
3 131 422 423
3 132 424 426
3 426 425 131
3 424 425 426
3 132 427 428
3 133 134 30
3 429 134 430
3 431 430 133
3 429 430 431
3 433 432 134
3 434 4 435
3 436 135 437
3 438 437 4
3 436 437 438
3 136 439 441
3 439 135 440
3 439 440 441
3 136 15 135
3 442 136 443
3 137 444 446
3 444 136 445
3 444 445 446
3 137 15 136
3 137 81 15
3 138 81 137
3 138 6 81
3 447 16 448
3 61 449 450
3 139 451 453
3 453 452 61
3 451 452 453
3 139 454 456
3 454 16 455
3 454 455 456
3 139 98 16
3 140 98 139
3 140 9 98
3 140 141 9
3 142 141 140
3 142 18 141
3 63 142 17
3 143 142 63
3 143 18 142
3 143 104 18
3 144 104 143
3 144 8 104
3 65 457 458
3 145 459 461
3 461 460 65
3 459 460 461
3 145 462 463
3 145 464 466
3 464 107 465
3 464 465 466
3 146 107 145
3 146 11 107
3 147 148 5
3 149 148 147
3 149 22 148
3 68 149 21
3 150 149 68
3 150 22 149
3 150 115 22
3 151 115 150
3 151 12 115
3 151 152 12
3 153 152 151
3 153 24 152
3 70 153 23
3 154 153 70
3 154 24 153
3 154 122 24
3 155 122 154
3 155 10 122
3 156 467 468
3 470 469 156
3 472 471 26
3 157 158 7
3 159 158 157
3 159 28 158
3 73 159 27
3 160 159 73
3 160 28 159
3 160 130 28
3 161 130 160
3 161 14 130
3 161 162 14
3 163 162 161
3 163 30 162
3 75 163 29
3 164 163 75
3 164 30 163
3 164 133 30
3 165 133 164
3 165 13 133
3 473 60 474
3 166 475 477
3 475 60 476
3 475 476 477
3 166 0 60
3 77 478 479
3 167 480 482
3 482 481 77
3 480 481 482
3 167 483 484
3 167 485 487
3 485 486 487
3 168 488 490
3 490 489 167
3 488 489 490
3 168 491 493
3 491 2 492
3 491 492 493
3 168 169 2
3 170 169 168
3 170 33 169
3 79 170 32
3 171 170 79
3 171 33 170
3 171 112 33
3 172 112 171
3 172 5 112
3 135 80 4
3 173 80 135
3 173 34 80
3 82 173 15
3 174 173 82
3 174 34 173
3 174 172 34
3 175 172 174
3 175 5 172
3 175 147 5
3 176 147 175
3 176 21 147
3 84 176 35
3 177 176 84
3 177 21 176
3 177 67 21
3 178 67 177
3 178 1 67
3 494 156 495
3 494 495 496
3 179 497 499
3 497 156 498
3 497 498 499
3 179 26 156
3 500 179 501
3 180 502 504
3 502 179 503
3 502 503 504
3 180 26 179
3 180 505 507
3 507 506 26
3 505 506 507
3 181 508 510
3 510 509 180
3 508 509 510
3 181 511 512
3 181 513 515
3 513 182 514
3 513 514 515
3 183 182 181
3 183 38 182
3 87 183 37
3 184 183 87
3 184 38 183
3 184 127 38
3 185 127 184
3 185 7 127
3 516 88 517
3 186 518 520
3 518 88 519
3 518 519 520
3 186 39 88
3 89 521 523
3 521 186 522
3 521 522 523
3 187 186 89
3 187 39 186
3 187 185 39
3 188 185 187
3 188 7 185
3 188 157 7
3 189 157 188
3 189 27 157
3 91 189 40
3 190 189 91
3 190 27 189
3 190 72 27
3 191 72 190
3 191 3 72
3 93 524 525
3 192 526 528
3 528 527 93
3 526 527 528
3 192 529 530
3 192 531 533
3 531 166 532
3 531 532 533
3 193 166 192
3 193 0 166
3 534 94 535
3 194 536 538
3 536 94 537
3 536 537 538
3 194 42 94
3 95 194 43
3 195 194 95
3 195 42 194
3 195 193 42
3 196 193 195
3 196 0 193
3 196 64 0
3 539 64 540
3 541 540 196
3 539 540 541
3 542 19 543
3 544 543 64
3 542 543 544
3 96 545 547
3 547 546 44
3 545 546 547
3 197 548 550
3 550 549 96
3 548 549 550
3 197 551 553
3 551 19 552
3 551 552 553
3 197 144 19
3 554 144 555
3 556 555 197
3 554 555 556
3 557 8 558
3 559 558 144
3 557 558 559
3 560 8 561
3 562 106 563
3 564 563 8
3 562 563 564
3 565 106 566
3 567 45 568
3 569 568 106
3 567 568 569
3 570 45 571
3 573 572 45
3 574 138 575
3 574 575 576
3 577 138 578
3 579 6 580
3 581 580 138
3 579 580 581
3 582 6 583
3 584 85 585
3 586 585 6
3 584 585 586
3 587 85 588
3 589 36 590
3 591 590 85
3 589 590 591
3 97 592 593
3 198 594 596
3 596 595 97
3 594 595 596
3 198 597 599
3 597 36 598
3 597 598 599
3 198 178 36
3 199 178 198
3 199 1 178
3 601 600 16
3 200 602 603
3 200 604 606
3 604 46 605
3 604 605 606
3 100 200 47
3 201 200 100
3 201 46 200
3 201 199 46
3 202 199 201
3 202 1 199
3 202 71 1
3 203 71 202
3 203 25 71
3 102 203 48
3 204 203 102
3 204 25 203
3 204 155 25
3 205 155 204
3 205 10 155
3 141 103 9
3 206 103 141
3 206 49 103
3 105 206 18
3 207 206 105
3 207 49 206
3 207 205 49
3 208 205 207
3 208 10 205
3 208 126 10
3 209 126 208
3 209 51 126
3 607 209 608
3 609 608 50
3 607 608 609
3 210 610 612
3 610 209 611
3 610 611 612
3 210 51 209
3 210 211 51
3 613 211 614
3 615 614 210
3 613 614 615
3 617 616 211
3 108 618 619
3 212 620 622
3 622 621 108
3 620 621 622
3 212 623 624
3 212 625 626
3 213 627 629
3 629 628 212
3 627 628 629
3 213 630 631
3 213 632 634
3 632 92 633
3 632 633 634
3 214 92 213
3 214 41 92
3 110 214 52
3 215 214 110
3 215 41 214
3 215 191 41
3 216 191 215
3 216 3 191
3 169 66 2
3 217 66 169
3 217 20 66
3 113 217 33
3 218 217 113
3 218 20 217
3 218 146 20
3 219 146 218
3 219 11 146
3 148 114 5
3 220 114 148
3 220 54 114
3 116 220 22
3 221 220 116
3 221 54 220
3 221 219 54
3 222 219 221
3 222 11 219
3 222 111 11
3 223 111 222
3 223 53 111
3 118 223 55
3 224 223 118
3 224 53 223
3 224 216 53
3 225 216 224
3 225 3 216
3 225 76 3
3 226 76 225
3 226 31 76
3 120 226 56
3 227 226 120
3 227 31 226
3 227 165 31
3 228 165 227
3 228 13 165
3 152 121 12
3 229 121 152
3 229 57 121
3 123 229 24
3 230 229 123
3 230 57 229
3 230 228 57
3 231 228 230
3 231 13 228
3 231 635 637
3 637 636 13
3 635 636 637
3 232 638 640
3 640 639 231
3 638 639 640
3 232 641 642
3 125 232 58
3 233 232 125
3 233 643 645
3 645 644 232
3 643 644 645
3 233 646 647
3 211 648 650
3 650 649 233
3 648 649 650
3 211 651 652
3 182 653 654
3 234 655 657
3 657 656 182
3 655 656 657
3 234 658 659
3 128 234 38
3 235 234 128
3 235 660 662
3 662 661 234
3 660 661 662
3 235 663 664
3 666 665 235
3 158 129 7
3 236 129 158
3 236 59 129
3 667 236 668
3 669 668 28
3 667 668 669
3 670 236 671
3 672 59 673
3 674 673 236
3 672 673 674
3 676 675 59
3 162 132 14
3 237 132 162
3 237 677 679
3 679 678 132
3 677 678 679
3 134 237 30
3 680 237 681
3 682 681 134
3 680 681 682
3 684 683 237
