ply
format ascii 1.0
element vertex 450
property float x
property float y
property float z
element face 428
property list uchar int vertex_index
end_header
15.770384 19.823299 -21.647617
16.637897 14.193645 -11.092503
17.589762 29.067917 -34.95266
20.06815 4.045437 -9.326323
14.753637 37.472233 -41.211712
15.576838 17.085634 -16.251871
19.400257 8.12622 -14.9815
15.273171 23.466028 -23.47094
16.698603 23.728895 -27.252743
17.205872 19.597523 -24.599867
15.901013 15.705831 -13.546598
17.28134 12.324363 -15.566113
17.489849 10.650105 -12.690426
12.59774 39.734653 -49.370541
9.624811 41.331745 -51.713696
15.168272 33.333366 -33.039062
16.03688 28.409618 -30.050537
18.485043 24.561495 -31.728247
18.187336 8.668803 -10.156691
19.156353 7.299252 -8.041495
12.710616 40.868866 -44.33905
15.036742 37.395069 -46.593624
16.356121 33.426601 -38.076279
15.559017 18.467215 -19.05599
17.325132 16.647635 -21.845013
17.253422 14.378525 -18.777065
19.646107 5.857807 -11.942741
15.545788 21.310804 -22.408566
16.192823 21.389696 -24.076124
16.351789 19.627478 -22.872217
16.212353 14.988063 -12.259239
16.666588 13.034801 -13.10327
16.922676 12.321252 -11.799616
12.310881 39.196274 -51.989182
15.005258 30.74239 -29.151543
15.386925 28.252796 -27.951511
17.874529 21.921776 -28.00028
17.591269 24.055183 -29.463293
18.955683 22.252005 -30.242022
18.379601 10.022124 -8.607068
13.775928 39.296471 -42.827259
13.857929 38.983917 -45.433525
14.963898 37.403446 -43.979111
16.286312 31.093664 -33.973938
15.719032 33.477089 -35.578976
17.041096 31.268528 -36.581345
15.486334 17.929113 -17.674999
16.304306 16.377657 -18.777014
16.35218 15.413348 -17.360813
18.302597 10.11979 -15.240389
18.244198 11.296176 -16.905071
19.078606 6.283673 -9.784349
18.775032 7.154504 -10.990305
19.871992 4.823431 -10.622087
9.210777 40.273403 -53.904751
8.03511 41.830597 -52.555729
7.583994 40.459362 -54.631912
18.354805 14.938001 -21.885479
18.336597 16.342569 -23.419025
15.017047 25.7784 -24.618792
15.695475 25.833874 -26.645046
15.957536 23.537985 -25.345364
16.946207 21.581692 -25.874153
18.066757 19.874098 -26.443823
14.408243 37.745361 -38.713966
15.722299 16.303753 -14.832928
16.36735 14.660743 -15.927656
16.503851 13.753873 -14.467749
17.436422 11.269319 -14.102243
18.351774 9.137512 -13.672262
21.277113 1.729652 -8.921646
20.940063 2.815601 -10.190002
11.314211 41.552402 -48.12801
9.949978 42.393517 -49.420147
11.093491 40.729912 -50.544327
10.784547 39.91531 -52.884331
15.651365 30.838766 -31.55899
16.838945 28.616817 -32.469662
16.438026 25.968742 -28.694178
17.184593 26.491869 -31.005571
18.141506 26.72366 -33.374405
17.162601 13.496894 -10.019548
17.313669 11.481401 -10.643981
17.792105 10.737965 -9.575804
18.596823 7.997897 -9.050905
19.477989 5.480424 -8.615496
20.53878 2.992309 -8.176007
12.686348 40.303417 -46.844608
13.911024 38.623821 -48.029079
14.708333 35.613155 -34.691128
15.190147 35.565742 -37.361382
15.617129 35.519581 -39.741993
17.672783 31.764908 -39.391171
16.911438 33.675224 -40.91074
15.9643 35.639397 -42.453217
15.13402 21.136513 -20.925602
15.646318 19.228035 -20.527197
14.96555 20.644585 -19.509972
14.857209 20.282162 -18.096081
14.903612 19.679321 -16.747414
15.051956 19.001766 -15.30711
15.240808 18.645809 -13.964992
15.570667 17.994093 -12.800394
14.819618 23.130459 -21.726257
16.419107 18.308096 -21.679235
16.371529 17.289221 -20.292524
17.280674 15.448832 -20.287537
18.330015 13.661294 -20.298004
17.275352 13.285766 -17.206757
18.295666 12.446203 -18.645491
17.794098 9.657481 -11.390041
18.552258 8.106492 -12.344067
19.522022 6.955884 -13.478999
17.253048 18.051128 -23.205515
18.221628 17.973936 -24.891226
15.092428 28.171351 -26.907291
14.929557 29.493011 -27.49732
19.06441 21.256352 -29.450389
18.415106 22.086891 -29.121151
18.523832 21.091237 -28.329518
19.659534 21.524396 -30.615396
19.06441 21.256352 -29.450389
14.264782 38.384352 -42.019486
13.686602 39.499128 -41.530005
14.175456 38.58701 -40.722231
19.396691 8.729069 -15.834084
18.847862 9.725854 -15.963529
18.851427 9.123005 -15.110945
19.995752 7.851489 -15.765156
19.396691 8.729069 -15.834084
8.152764 39.812123 -55.306486
8.397386 40.366383 -54.268332
8.966155 39.719143 -54.942905
7.310562 39.783343 -55.576813
8.152764 39.812123 -55.306486
18.949927 14.896801 -22.821377
18.945916 14.138523 -21.959995
14.26062 37.81071 -37.43988
13.940654 38.835583 -38.216688
21.730812 1.312129 -9.4536
21.890255 0.73543 -8.770955
11.405504 39.218237 -53.687055
11.547714 39.555792 -52.436757
12.168671 38.858719 -53.239481
10.592377 39.451923 -54.065365
11.405504 39.218237 -53.687055
19.045034 24.795343 -33.009175
18.873266 25.876425 -33.832255
18.313274 25.642578 -32.551326
17.791021 11.813745 -9.319409
17.477353 12.11743 -9.797676
17.47627 13.193209 -9.541281
20.802377 2.56311 -7.609521
20.28286 3.811651 -7.881874
21.100314 1.889659 -7.961536
20.802377 2.56311 -7.609521
12.200536 41.950397 -43.734572
12.69508 41.182054 -43.027889
12.148899 41.5501 -44.966696
12.200536 41.950397 -43.734572
12.698482 40.586141 -45.591829
12.136765 41.267376 -46.219475
12.148899 41.5501 -44.966696
15.134224 37.260137 -47.968879
14.571365 37.874513 -48.686607
14.473883 38.009445 -47.311352
14.938302 34.47326 -33.865095
14.487023 35.669456 -33.48182
14.716992 34.529562 -32.655787
18.37088 30.958143 -39.838847
18.054112 30.634394 -38.527206
17.099497 33.862827 -42.286718
17.583548 32.929161 -41.520859
16.625928 34.844914 -43.057957
16.437869 34.657311 -41.681978
17.099497 33.862827 -42.286718
16.138803 35.658726 -43.833855
16.625928 34.844914 -43.057957
14.722382 21.875349 -19.83852
15.049785 20.890549 -20.217787
14.806617 22.121313 -20.546335
14.611877 21.313188 -17.6796
14.618253 21.461863 -18.38957
14.635079 21.011768 -17.005266
14.88041 19.980742 -17.421748
14.611877 21.313188 -17.6796
14.887892 20.228902 -14.966758
14.784679 20.3794 -15.598967
14.982318 20.050923 -14.295699
15.146382 18.823788 -14.636051
14.887892 20.228902 -14.966758
15.561125 19.227483 -12.495384
15.324585 19.503528 -13.073629
15.80301 17.555898 -12.224826
15.561125 19.227483 -12.495384
14.649415 23.118286 -20.946662
14.48925 24.359689 -21.410463
14.806617 22.121313 -20.546335
14.976819 22.133486 -21.32593
14.649415 23.118286 -20.946662
18.858248 11.521733 -18.545833
18.269932 11.871189 -17.775281
18.832514 10.94672 -17.675623
18.875721 12.199286 -19.442548
18.858248 11.521733 -18.545833
20.900157 3.312615 -10.964149
21.482272 2.42635 -10.831206
9.044633 42.238889 -51.071381
9.207217 42.769776 -49.924606
9.787394 41.862631 -50.566921
7.504566 42.694637 -51.969166
7.232337 41.921146 -52.955951
18.820094 17.239036 -25.103678
18.279113 17.158252 -24.155126
18.877578 16.423353 -24.367578
18.758523 18.145961 -25.922891
18.820094 17.239036 -25.103678
13.092562 38.715257 -51.35708
12.454311 39.465463 -50.679862
13.235992 38.984447 -50.04776
12.966645 38.531523 -52.711619
13.092562 38.715257 -51.35708
12.168671 38.858719 -53.239481
12.966645 38.531523 -52.711619
14.738724 30.737808 -28.097336
14.58118 32.082203 -28.779884
15.196091 29.497593 -28.551527
14.738724 30.737808 -28.097336
14.929557 29.493011 -27.49732
19.453662 22.581194 -31.39326
19.218342 23.735939 -32.136373
18.720363 23.40675 -30.985135
19.453662 22.581194 -31.39326
19.659534 21.524396 -30.615396
18.451242 11.181366 -8.418939
18.08477 11.455824 -8.835041
18.732911 9.681583 -8.166336
18.451242 11.181366 -8.418939
19.121287 8.320147 -7.883549
18.767977 8.660688 -8.324281
18.732911 9.681583 -8.166336
13.227736 40.395857 -42.271994
13.686602 39.499128 -41.530005
13.243272 40.082668 -43.583154
12.69508 41.182054 -43.027889
13.227736 40.395857 -42.271994
18.818662 10.314047 -16.79587
18.273398 10.707983 -16.07273
18.847862 9.725854 -15.963529
18.832514 10.94672 -17.675623
18.818662 10.314047 -16.79587
7.006779 41.235529 -53.994043
7.232337 41.921146 -52.955951
7.809552 41.144979 -53.59382
6.745341 40.472566 -54.882351
7.006779 41.235529 -53.994043
6.745341 40.472566 -54.882351
7.310562 39.783343 -55.576813
18.940823 15.599086 -23.58815
18.345701 15.640285 -22.652252
18.949927 14.896801 -22.821377
18.877578 16.423353 -24.367578
18.940823 15.599086 -23.58815
15.356261 25.806137 -25.631919
15.246703 26.96189 -26.254058
14.907489 26.934153 -25.240931
18.619946 20.067398 -27.551289
18.523832 21.091237 -28.329518
17.970643 20.897937 -27.222051
14.002759 38.723574 -39.473358
13.940654 38.835583 -38.216688
14.58094 37.608797 -39.962839
14.175456 38.58701 -40.722231
14.002759 38.723574 -39.473358
18.012602 29.285899 -36.307951
18.275494 28.195475 -35.386579
21.562287 1.855103 -10.087778
21.108588 2.272626 -9.555824
21.730812 1.312129 -9.4536
21.482272 2.42635 -10.831206
21.562287 1.855103 -10.087778
10.632095 41.97296 -48.774079
10.114444 42.902388 -48.213215
10.79656 42.481831 -47.567147
9.805492 39.63097 -54.575575
9.997662 40.094357 -53.394541
10.592377 39.451923 -54.065365
8.966155 39.719143 -54.942905
9.805492 39.63097 -54.575575
14.921185 33.251981 -31.837724
14.716992 34.529562 -32.655787
14.839678 31.956494 -29.893964
14.58118 32.082203 -28.779884
15.162731 32.004682 -31.097687
14.839678 31.956494 -29.893964
15.328311 30.790578 -30.355266
15.409819 32.086066 -32.299026
14.921185 33.251981 -31.837724
15.162731 32.004682 -31.097687
15.5412 27.043335 -27.298279
15.092428 28.171351 -26.907291
15.246703 26.96189 -26.254058
18.551366 27.023346 -34.597452
18.275494 28.195475 -35.386579
17.865634 27.895789 -34.163533
18.551366 27.023346 -34.597452
18.873266 25.876425 -33.832255
19.045034 24.795343 -33.009175
19.218342 23.735939 -32.136373
18.085853 10.380045 -9.091436
17.791021 11.813745 -9.319409
18.08477 11.455824 -8.835041
19.51613 6.873959 -7.582909
19.121287 8.320147 -7.883549
19.591646 5.965123 -7.814618
19.51613 6.873959 -7.582909
19.752464 5.055709 -8.101619
19.317171 6.389838 -8.328495
19.591646 5.965123 -7.814618
20.008384 4.236366 -8.395751
19.752464 5.055709 -8.101619
20.28286 3.811651 -7.881874
21.46948 1.258331 -8.334355
20.907947 2.360981 -8.548827
21.100314 1.889659 -7.961536
21.890255 0.73543 -8.770955
21.46948 1.258331 -8.334355
11.450696 41.891869 -46.861176
10.79656 42.481831 -47.567147
12.00028 40.927909 -47.486309
11.450696 41.891869 -46.861176
12.136765 41.267376 -46.219475
13.892633 38.429031 -49.377029
13.235992 38.984447 -50.04776
13.254382 39.179237 -48.69981
13.892633 38.429031 -49.377029
14.571365 37.874513 -48.686607
14.22687 36.947321 -34.220985
14.487023 35.669456 -33.48182
14.410666 36.744608 -35.428461
14.22687 36.947321 -34.220985
14.651573 36.720901 -36.763588
14.410666 36.744608 -35.428461
14.94924 35.589449 -36.026255
14.799195 36.655552 -38.037674
14.26062 37.81071 -37.43988
14.651573 36.720901 -36.763588
17.738269 30.386204 -37.122293
17.315429 30.168222 -35.767003
18.012602 29.285899 -36.307951
17.356939 31.516718 -37.986258
17.738269 30.386204 -37.122293
18.054112 30.634394 -38.527206
17.96422 31.974003 -40.761074
18.37088 30.958143 -39.838847
17.29211 32.720066 -40.150955
17.96422 31.974003 -40.761074
17.583548 32.929161 -41.520859
15.638602 36.540751 -44.596802
15.464099 36.521422 -43.216164
16.138803 35.658726 -43.833855
15.675023 36.536562 -45.904058
15.00032 37.399258 -45.286367
15.638602 36.540751 -44.596802
15.716573 36.645071 -47.226597
15.675023 36.536562 -45.904058
15.134224 37.260137 -47.968879
15.716573 36.645071 -47.226597
14.672423 21.643074 -19.096515
14.722382 21.875349 -19.83852
14.911379 20.463373 -18.803027
14.672423 21.643074 -19.096515
14.618253 21.461863 -18.38957
14.710507 20.718178 -16.319119
14.635079 21.011768 -17.005266
14.977784 19.340544 -16.027262
14.710507 20.718178 -16.319119
14.784679 20.3794 -15.598967
15.159655 19.829386 -13.655928
14.982318 20.050923 -14.295699
15.405738 18.319951 -13.382693
15.159655 19.829386 -13.655928
15.324585 19.503528 -13.073629
16.123853 16.052884 -11.954248
15.89151 16.491078 -12.529817
15.80301 17.555898 -12.224826
16.336625 15.655674 -11.37088
16.425125 14.590854 -11.675871
16.123853 16.052884 -11.954248
16.603933 15.32964 -10.852035
16.336625 15.655674 -11.37088
16.866285 14.981264 -10.315558
16.900249 13.84527 -10.556026
16.603933 15.32964 -10.852035
17.194723 14.751109 -9.838231
16.866285 14.981264 -10.315558
17.47627 13.193209 -9.541281
17.194723 14.751109 -9.838231
14.627868 27.041254 -24.257685
14.907489 26.934153 -25.240931
14.755403 25.733587 -23.676678
14.627868 27.041254 -24.257685
14.883465 24.577401 -23.102752
15.145109 24.622214 -24.044866
14.755403 25.733587 -23.676678
14.656689 24.409616 -22.23041
14.48925 24.359689 -21.410463
15.046394 23.298243 -22.598599
14.883465 24.577401 -23.102752
14.656689 24.409616 -22.23041
18.933521 13.50017 -21.166257
18.945916 14.138523 -21.959995
18.34241 14.299647 -21.091741
18.892896 12.806831 -20.268805
18.312841 13.053749 -19.471747
18.875721 12.199286 -19.442548
18.933521 13.50017 -21.166257
18.892896 12.806831 -20.268805
20.366122 4.31653 -11.180191
20.406028 3.819516 -10.406045
20.900157 3.312615 -10.964149
20.25318 4.833718 -11.840518
19.759049 5.340619 -11.282414
20.366122 4.31653 -11.180191
20.212472 5.401797 -12.615099
20.25318 4.833718 -11.840518
20.15043 5.950836 -13.383228
19.584065 6.406846 -12.71087
20.212472 5.401797 -12.615099
20.131158 6.560408 -14.201144
20.15043 5.950836 -13.383228
20.070276 7.145575 -14.952395
19.46114 7.541052 -14.230249
20.131158 6.560408 -14.201144
19.995752 7.851489 -15.765156
20.070276 7.145575 -14.952395
9.45019 43.39629 -48.77966
10.114444 42.902388 -48.213215
9.45019 43.39629 -48.77966
9.207217 42.769776 -49.924606
8.249783 42.488315 -51.492397
9.044633 42.238889 -51.071381
8.82996 41.581171 -52.134712
8.249783 42.488315 -51.492397
7.504566 42.694637 -51.969166
18.681088 19.096042 -26.699189
18.144192 18.924017 -25.667524
18.758523 18.145961 -25.922891
18.619946 20.067398 -27.551289
18.681088 19.096042 -26.699189
3 0 29 27
3 1 32 30
3 115 35 116
3 117 38 118
3 119 118 36
3 117 118 119
3 121 120 38
3 4 122 124
3 122 40 123
3 122 123 124
3 4 42 40
3 2 45 43
3 5 48 46
3 6 125 127
3 127 126 49
3 125 126 127
3 6 128 129
3 3 53 51
3 130 56 131
3 132 131 54
3 130 131 132
3 134 133 56
3 136 135 57
3 7 61 59
3 9 62 28
3 9 63 62
3 137 64 138
3 10 67 65
3 12 68 31
3 12 69 68
3 140 139 70
3 13 74 72
3 141 75 142
3 143 142 33
3 141 142 143
3 145 144 75
3 16 76 34
3 16 77 76
3 8 78 60
3 17 79 37
3 17 80 79
3 17 146 148
3 148 147 80
3 146 147 148
3 149 83 150
3 151 150 81
3 149 150 151
3 19 84 39
3 19 85 84
3 152 86 153
3 155 154 86
3 20 156 157
3 20 158 159
3 20 160 162
3 160 87 161
3 160 161 162
3 21 88 41
3 21 163 165
3 165 164 88
3 163 164 165
3 15 166 168
3 166 89 167
3 166 167 168
3 22 90 44
3 22 91 90
3 169 92 170
3 171 93 172
3 173 94 174
3 175 174 93
3 173 174 175
3 177 176 94
3 178 97 179
3 180 179 95
3 178 179 180
3 181 98 182
3 183 99 184
3 185 184 98
3 183 184 185
3 186 100 187
3 188 101 189
3 190 189 100
3 188 189 190
3 191 102 192
3 194 193 102
3 195 103 196
3 197 95 198
3 199 198 103
3 197 198 199
3 23 105 96
3 25 106 47
3 25 107 106
3 11 108 66
3 200 109 201
3 202 201 50
3 200 201 202
3 204 203 109
3 18 110 82
3 26 111 52
3 26 112 111
3 206 205 71
3 14 207 209
3 209 208 73
3 207 208 209
3 211 210 55
3 24 113 104
3 212 114 213
3 214 213 58
3 212 213 214
3 216 215 114
3 27 28 7
3 29 28 27
3 29 9 28
3 30 31 10
3 32 31 30
3 32 12 31
3 217 33 218
3 219 218 13
3 217 218 219
3 220 33 221
3 223 222 33
3 224 34 225
3 35 226 228
3 226 34 227
3 226 227 228
3 35 16 34
3 36 37 8
3 38 37 36
3 38 17 37
3 38 229 231
3 231 230 17
3 229 230 231
3 233 232 38
3 234 39 235
3 236 39 237
3 238 19 239
3 240 239 39
3 238 239 240
3 40 241 242
3 40 243 245
3 243 20 244
3 243 244 245
3 40 41 20
3 42 41 40
3 42 21 41
3 43 44 15
3 45 44 43
3 45 22 44
3 46 47 23
3 48 47 46
3 48 25 47
3 49 50 11
3 246 50 247
3 248 247 49
3 246 247 248
3 250 249 50
3 51 52 18
3 53 52 51
3 53 26 52
3 54 55 14
3 56 55 54
3 56 251 253
3 253 252 55
3 251 252 253
3 56 254 255
3 257 256 56
3 57 58 24
3 258 58 259
3 260 259 57
3 258 259 260
3 262 261 58
3 59 263 265
3 263 60 264
3 263 264 265
3 61 60 59
3 61 8 60
3 28 61 7
3 62 61 28
3 62 8 61
3 62 36 8
3 63 36 62
3 63 266 268
3 268 267 36
3 266 267 268
3 64 269 270
3 64 271 273
3 271 4 272
3 271 272 273
3 275 274 2
3 65 66 5
3 67 66 65
3 67 11 66
3 31 67 10
3 68 67 31
3 68 11 67
3 68 49 11
3 69 49 68
3 69 6 49
3 70 71 3
3 276 71 277
3 278 277 70
3 276 277 278
3 280 279 71
3 72 281 283
3 281 73 282
3 281 282 283
3 74 73 72
3 74 14 73
3 33 74 13
3 75 74 33
3 75 14 74
3 75 54 14
3 284 54 285
3 286 285 75
3 284 285 286
3 288 287 54
3 289 15 290
3 34 291 292
3 76 293 295
3 295 294 34
3 293 294 295
3 76 296 298
3 296 15 297
3 296 297 298
3 76 43 15
3 77 43 76
3 77 2 43
3 60 299 301
3 299 35 300
3 299 300 301
3 78 35 60
3 78 16 35
3 37 78 8
3 79 78 37
3 79 16 78
3 79 77 16
3 80 77 79
3 80 2 77
3 80 302 304
3 304 303 2
3 302 303 304
3 306 305 80
3 308 307 17
3 81 82 1
3 83 82 81
3 83 18 82
3 39 309 311
3 309 83 310
3 309 310 311
3 84 83 39
3 84 18 83
3 84 51 18
3 85 51 84
3 85 3 51
3 312 19 313
3 314 19 315
3 316 85 317
3 318 317 19
3 316 317 318
3 86 319 321
3 319 85 320
3 319 320 321
3 86 3 85
3 86 70 3
3 322 70 323
3 324 323 86
3 322 323 324
3 326 325 70
3 327 72 328
3 87 329 331
3 329 72 330
3 329 330 331
3 87 13 72
3 41 87 20
3 88 87 41
3 88 13 87
3 88 332 334
3 334 333 13
3 332 333 334
3 336 335 88
3 89 337 338
3 89 339 340
3 44 89 15
3 90 89 44
3 90 341 343
3 343 342 89
3 341 342 343
3 90 344 346
3 344 64 345
3 344 345 346
3 91 64 90
3 91 4 64
3 347 45 348
3 349 348 2
3 347 348 349
3 92 350 352
3 350 45 351
3 350 351 352
3 92 22 45
3 353 92 354
3 93 355 357
3 355 92 356
3 355 356 357
3 93 22 92
3 93 91 22
3 94 91 93
3 94 4 91
3 94 42 4
3 358 42 359
3 360 359 94
3 358 359 360
3 361 21 362
3 363 362 42
3 361 362 363
3 364 21 365
3 367 366 21
3 95 96 0
3 97 96 95
3 97 23 96
3 368 97 369
3 98 370 372
3 370 97 371
3 370 371 372
3 98 23 97
3 98 46 23
3 99 46 98
3 99 5 46
3 373 99 374
3 100 375 377
3 375 99 376
3 375 376 377
3 100 5 99
3 100 65 5
3 101 65 100
3 101 10 65
3 378 101 379
3 102 380 382
3 380 101 381
3 380 381 382
3 102 10 101
3 102 30 10
3 383 30 384
3 385 384 102
3 383 384 385
3 386 1 387
3 388 387 30
3 386 387 388
3 389 1 390
3 391 81 392
3 393 392 1
3 391 392 393
3 394 81 395
3 397 396 81
3 398 59 399
3 400 59 401
3 402 7 403
3 404 403 59
3 402 403 404
3 103 405 406
3 103 407 409
3 407 7 408
3 407 408 409
3 103 27 7
3 95 27 103
3 95 0 27
3 96 104 0
3 105 104 96
3 105 24 104
3 47 105 23
3 106 105 47
3 106 24 105
3 106 57 24
3 107 57 106
3 107 410 412
3 412 411 57
3 410 411 412
3 66 48 5
3 108 48 66
3 108 25 48
3 50 108 11
3 109 108 50
3 109 25 108
3 109 107 25
3 413 107 414
3 415 414 109
3 413 414 415
3 417 416 107
3 82 32 1
3 110 32 82
3 110 12 32
3 52 110 18
3 111 110 52
3 111 12 110
3 111 69 12
3 112 69 111
3 112 6 69
3 71 53 3
3 418 53 419
3 420 419 71
3 418 419 420
3 421 26 422
3 423 422 53
3 421 422 423
3 424 26 425
3 426 112 427
3 428 427 26
3 426 427 428
3 429 112 430
3 431 6 432
3 433 432 112
3 431 432 433
3 435 434 6
3 73 436 437
3 439 438 73
3 55 440 442
3 442 441 14
3 440 441 442
3 444 443 55
3 104 29 0
3 113 29 104
3 113 9 29
3 58 113 24
3 114 113 58
3 114 9 113
3 114 63 9
3 445 63 446
3 447 446 114
3 445 446 447
3 449 448 63
