ply
format ascii 1.0
element vertex 707
property float x
property float y
property float z
element face 756
property list uchar int vertex_index
end_header
-5.021052 -33.927101 -44.134991
-16.575109 -62.446892 -32.293568
-15.756681 -87.258865 -34.401756
-18.20752 -47.9744 -26.23209
-22.330656 -85.880119 -26.576414
-10.660212 -48.886456 -38.201885
-10.898592 -61.805645 -38.74511
-21.292746 -73.068146 -25.844028
-19.339605 -60.029488 -25.888914
-14.979403 -49.184036 -32.005592
-9.805895 -36.817955 -37.712406
-11.188544 -96.053123 -34.735035
-17.252865 -75.573921 -33.167027
-9.450857 -73.842491 -39.524006
-7.698593 -41.340847 -41.149689
-7.791169 -47.397781 -41.401192
-4.828001 -39.383305 -44.439568
-2.378853 -31.628777 -47.489765
-16.703354 -48.825539 -29.008694
-14.497495 -43.310581 -31.828531
-12.360336 -43.123436 -34.952835
-12.124 -37.494144 -34.596733
-18.422976 -92.716064 -31.165417
-16.227722 -97.03656 -31.5135
-13.880604 -92.295906 -34.755791
-8.352298 -90.145943 -37.872581
-19.138731 -68.089226 -29.188356
-19.742313 -74.656525 -29.597338
-17.125031 -68.918205 -32.614697
-7.038153 -59.72694 -41.725544
-6.058072 -65.70858 -41.930836
-4.316864 -71.051247 -42.32341
-20.95747 -50.173771 -20.51984
-19.747822 -52.296391 -23.178526
-19.726803 -46.359829 -23.542246
-19.704453 -87.303192 -30.573189
-13.646776 -55.960278 -35.294994
-14.111869 -62.310497 -35.530373
-10.865894 -55.092682 -38.526669
-7.708489 -53.701511 -41.493649
-20.253742 -66.519852 -25.957144
-18.286215 -61.740097 -29.058355
-18.598183 -53.901291 -26.079086
-17.352793 -55.226883 -29.075733
-15.778894 -55.703659 -32.100464
-12.905939 -49.157032 -35.200829
-10.15792 -42.502815 -38.007824
-7.408796 -35.598553 -40.959377
-13.471564 -100.640549 -31.046885
-7.836256 -98.723083 -34.104084
-21.990774 -79.724236 -26.280697
-19.916735 -81.190826 -30.187141
-16.767408 -81.77935 -33.855625
-14.207091 -68.971558 -35.942856
-13.712633 -75.351883 -36.547565
-12.593347 -81.036415 -37.18689
-7.656379 -79.027176 -40.08329
-6.363271 -37.759575 -42.57954
-6.305643 -40.581055 -42.797871
-4.982109 -36.600807 -44.26125
-3.586921 -35.580498 -45.891552
-3.727951 -32.854588 -45.798321
-13.224238 -40.284054 -33.331291
-17.147179 -90.014519 -32.883121
-14.826644 -89.755798 -34.718559
-12.475408 -89.266037 -36.257881
-13.451009 -86.817162 -36.082664
-17.8643 -65.282333 -30.818516
-18.291666 -68.793037 -30.864559
-16.811989 -65.693512 -32.542168
-6.567098 -62.842327 -41.830254
-3.738294 -64.447723 -43.215878
-21.169771 -47.306866 -20.684996
-20.39086 -48.391689 -22.015455
-20.511677 -45.737732 -22.247477
-20.9013 -89.543068 -28.85808
-21.166494 -86.690285 -28.603838
-12.212186 -52.471405 -36.671833
-12.287104 -55.396145 -36.939537
-10.743895 -51.842186 -38.40757
-6.277355 -46.531689 -42.886848
-7.81196 -50.458946 -41.431019
-6.174724 -49.634254 -42.884407
-19.79497 -63.290821 -25.875294
-19.333326 -64.218704 -27.509958
-18.892067 -60.979908 -27.40773
-19.025873 -50.150982 -24.712029
-19.126862 -52.905552 -24.699474
-18.291239 -50.702911 -26.262653
-15.901281 -49.258873 -30.47345
-16.954227 -51.942314 -29.091892
-16.19173 -52.327755 -30.584137
-16.595594 -55.446129 -30.604361
-15.362678 -52.463013 -32.058372
-14.340109 -52.360714 -33.6735
-13.970863 -49.172031 -33.610291
-11.082416 -39.891201 -36.307491
-11.277216 -42.96944 -36.498878
-9.95146 -39.502735 -37.862514
-8.691544 -38.927059 -39.553383
-8.608869 -36.270897 -39.339989
-13.739519 -96.609589 -33.298012
-14.909193 -98.852348 -31.448956
-12.269703 -98.48996 -33.029701
-10.705009 -99.925659 -32.658581
-9.45142 -97.592186 -34.514778
-6.650359 -96.111801 -35.8843
-8.219408 -94.853714 -36.219997
-22.195551 -75.246323 -24.108192
-22.640213 -78.529495 -24.180038
-21.720446 -76.546204 -26.009121
-18.659367 -75.442909 -31.385361
-19.893919 -78.0215 -29.895489
-18.58736 -78.567101 -31.772825
-18.54052 -81.857162 -31.987946
-17.160315 -78.94812 -33.435112
-12.57311 -62.12352 -37.176888
-14.073483 -65.492851 -35.855618
-12.482464 -65.465096 -37.4123
-11.570338 -74.66349 -38.146584
-13.214932 -78.23436 -36.884254
-11.003132 -77.717873 -38.388958
-10.13306 -80.154655 -38.731964
-8.51925 -76.390923 -39.88578
-9.190685 -45.134857 -39.634136
-9.248404 -48.113167 -39.834526
-7.834178 -44.455067 -41.217522
-6.249998 -43.432846 -42.926018
-4.734184 -42.61866 -44.441265
-19.764133 -59.137276 -24.360815
-17.327513 -45.275162 -27.653221
-17.442654 -48.30669 -27.639412
-16.471994 -45.820679 -29.056816
-15.623482 -46.100319 -30.447001
-14.668897 -46.108089 -31.954475
-13.718508 -46.249756 -33.451618
-13.381064 -43.062782 -33.441982
-12.135638 -40.041344 -34.828419
-10.946214 -37.21376 -36.165707
-19.578358 -94.747108 -29.368839
-18.566141 -96.969032 -29.538586
-17.352131 -94.989922 -31.458075
-15.098165 -94.728622 -33.247536
-12.480987 -94.083038 -34.961243
-9.648604 -93.262138 -36.436401
-11.138363 -91.284439 -36.456924
-9.617765 -88.325668 -37.841232
-20.268089 -70.715614 -27.561176
-20.66787 -73.997719 -27.673836
-19.484419 -71.43634 -29.370575
-18.502384 -72.161011 -31.147856
-17.237831 -72.322845 -32.894176
-8.953876 -60.792675 -40.333176
-10.671221 -64.756172 -38.942528
-8.433457 -67.033607 -40.459522
-7.640601 -69.857513 -40.786942
-6.866558 -72.703033 -41.002407
-5.288561 -68.683594 -42.095444
-20.866425 -53.096149 -20.329636
-20.354792 -54.16256 -21.690708
-20.301014 -51.210346 -21.891764
-19.693048 -49.357285 -23.337734
-18.940317 -47.174927 -24.895828
-18.19297 -44.984974 -26.26166
-20.258919 -92.115814 -29.293579
-19.128727 -89.990479 -30.970417
-17.828505 -87.365814 -32.5947
-15.145644 -59.127144 -33.76886
-15.379721 -62.259693 -33.958847
-13.839079 -58.964676 -35.468739
-12.401284 -58.601009 -37.116325
-10.959164 -58.574551 -38.6105
-9.333726 -51.29047 -39.937172
-9.3461 -54.693581 -40.041553
-9.319484 -57.93121 -40.090019
-7.503763 -56.722126 -41.554264
-21.72337 -72.083908 -24.040312
-20.784771 -69.742653 -25.860188
-19.797867 -67.414299 -27.545923
-18.722483 -64.865105 -29.108154
-17.431574 -61.931854 -30.771881
-19.855761 -55.189487 -23.158684
-19.421455 -56.128521 -24.508331
-18.932062 -57.064636 -26.018909
-17.667038 -51.552795 -27.634098
-17.988943 -54.584671 -27.579657
-18.369772 -57.557789 -27.531097
-17.802464 -58.348122 -29.027931
-17.100025 -58.796234 -30.554188
-16.119091 -58.921116 -32.268578
-14.754063 -55.711182 -33.705235
-13.321709 -52.480186 -35.183395
-11.812364 -49.03389 -36.709999
-12.603438 -46.142879 -35.109131
-11.528109 -45.903446 -36.614483
-10.437547 -45.758015 -38.088734
-9.018455 -42.021435 -39.499084
-7.593148 -38.433243 -41.005962
-6.199083 -34.804794 -42.581364
-21.40106 -54.922878 -18.591015
-21.501579 -52.068554 -18.831944
-21.726021 -49.185959 -19.047895
-8.602911 -33.759052 -39.087196
-7.353154 -33.072819 -40.792984
-6.247518 -32.245003 -42.315331
-5.051833 -31.228228 -43.973289
-3.864786 -30.350607 -45.628448
-2.595378 -29.043751 -47.385132
-17.04343 -102.426788 -27.111557
-17.428446 -99.120293 -29.425869
-16.050364 -100.797462 -29.362593
-14.420262 -102.347008 -29.082808
-11.603975 -101.896851 -30.764645
-8.757571 -100.961372 -32.225353
-6.770678 -91.832916 -37.78109
-22.933664 -81.659401 -24.430567
-22.192379 -82.875366 -26.479107
-20.899126 -77.223534 -28.012869
-21.098984 -80.533249 -28.23456
-21.142494 -83.652725 -28.508629
-19.904095 -84.220032 -30.362686
-18.264381 -84.722946 -32.297852
-16.277 -84.561882 -34.204288
-15.57011 -65.808731 -34.196873
-15.7354 -69.11348 -34.355015
-15.742469 -72.372185 -34.606426
-15.713305 -75.570984 -34.790451
-14.735068 -81.560982 -35.619049
-14.189392 -84.224419 -35.864094
-11.957954 -83.700714 -37.365536
-5.963199 -75.064865 -41.228783
-20.963181 -45.173832 -21.590929
-20.840724 -46.522299 -21.466237
-21.292229 -45.958399 -20.809689
-22.319631 -87.366485 -26.633371
-22.836747 -86.812023 -25.572187
-21.748575 -86.285202 -27.590126
-21.73755 -87.771569 -27.647084
-22.319631 -87.366485 -26.633371
-5.37694 -47.630107 -43.645722
-6.22604 -48.082971 -42.885627
-5.428256 -46.078825 -43.646942
-5.263708 -49.160367 -43.612971
-5.37694 -47.630107 -43.645722
-19.567287 -61.660155 -25.882104
-20.004848 -62.901483 -25.049265
-19.777165 -61.270817 -25.056075
-10.510597 -74.25299 -38.835295
-10.772958 -72.789592 -38.733881
-9.713218 -72.379093 -39.422592
-4.089739 -38.908915 -45.212168
-4.04283 -40.526592 -45.213017
-4.781092 -41.000982 -44.440416
-2.251424 -33.024097 -47.506649
-2.855459 -34.999958 -46.707543
-2.982887 -33.604637 -46.690658
-1.709658 -30.974805 -48.30372
-2.251424 -33.024097 -47.506649
-19.962028 -58.776179 -23.637873
-20.130668 -60.284031 -23.569384
-16.392528 -44.354039 -29.100188
-16.899753 -45.547921 -28.355018
-16.820288 -44.08128 -28.39839
-15.060488 -44.70545 -31.137766
-15.496391 -44.50466 -30.481146
-14.933397 -43.109791 -31.171911
-14.489384 -93.512264 -34.001663
-15.691092 -93.625706 -33.156454
-15.082311 -92.409347 -33.910582
-10.213826 -87.230396 -37.765514
-11.046587 -88.795852 -37.049556
-11.642648 -87.700581 -36.973838
-8.959459 -86.708652 -38.424274
-10.213826 -87.230396 -37.765514
-7.832674 -61.75164 -41.095949
-8.790535 -62.284508 -40.399765
-7.996014 -60.259808 -41.02936
-3.238602 -65.736755 -43.307
-2.477946 -63.620555 -43.859369
-18.270943 -43.63558 -26.231436
-18.631346 -44.609493 -25.580992
-17.777418 -43.806486 -26.940499
-18.270943 -43.63558 -26.231436
-21.084754 -91.832271 -28.194178
-20.80927 -93.182305 -28.289955
-21.837464 -71.408062 -23.152995
-22.119502 -73.051956 -23.120103
-20.723837 -67.68829 -25.014917
-20.441046 -66.068814 -25.123311
-20.519256 -68.131253 -25.908666
-20.989351 -69.29969 -24.966439
-20.723837 -67.68829 -25.014917
-21.690455 -54.199806 -17.88792
-21.635172 -55.683179 -17.716018
-21.924568 -54.960107 -17.012923
-21.740715 -52.772644 -18.008385
-21.45132 -53.495716 -18.711479
-21.690455 -54.199806 -17.88792
-22.161815 -48.444401 -18.36415
-21.966966 -49.902209 -18.27025
-21.875699 -47.721388 -19.191726
-22.161815 -48.444401 -18.36415
-8.002914 -32.155214 -39.821136
-8.560344 -32.422722 -39.070966
-7.378036 -31.812098 -40.674031
-7.978033 -33.415936 -39.94009
-8.002914 -32.155214 -39.821136
-5.671411 -30.553957 -43.06296
-6.272526 -31.029657 -42.201494
-5.073569 -30.045569 -43.891939
-5.649676 -31.736615 -43.14431
-5.671411 -30.553957 -43.06296
-3.302993 -28.497093 -46.461557
-3.870113 -29.009028 -45.616727
-2.668289 -27.843665 -47.339899
-3.230082 -29.697179 -46.50679
-3.302993 -28.497093 -46.461557
-17.776848 -101.603466 -27.162732
-18.159405 -102.336399 -26.017572
-6.867065 -99.12524 -33.823415
-7.327723 -100.244384 -32.88405
-8.296914 -99.842228 -33.164718
-6.395935 -98.022343 -34.654821
-6.867065 -99.12524 -33.823415
-5.068873 -95.348945 -36.380825
-5.909535 -94.732727 -36.664001
-11.587458 -66.726029 -38.206843
-10.57561 -66.333023 -38.996055
-13.915155 -73.863361 -36.356266
-12.93166 -73.52203 -37.160154
-14.712969 -75.461433 -35.669008
-14.915491 -73.972912 -35.477709
-13.915155 -73.863361 -36.356266
-14.562881 -77.052105 -35.831629
-15.563217 -77.161655 -34.953072
-14.712969 -75.461433 -35.669008
-8.506196 -80.861332 -39.480686
-9.744536 -81.425072 -38.805023
-8.89472 -79.590915 -39.407627
-7.190958 -80.271241 -40.133146
-8.506196 -80.861332 -39.480686
-14.382323 -41.809443 -31.867093
-14.933397 -43.109791 -31.171911
-13.745694 -40.296179 -32.618473
-13.860867 -41.797317 -32.579911
-14.382323 -41.809443 -31.867093
-13.24764 -38.963617 -33.22024
-13.745694 -40.296179 -32.618473
-12.69752 -37.568663 -33.852961
-12.674119 -38.889099 -33.964012
-13.24764 -38.963617 -33.22024
-16.715599 -91.268654 -32.974247
-17.353497 -92.619427 -32.115395
-17.785077 -91.365292 -32.024269
-15.555332 -91.139294 -33.891965
-16.715599 -91.268654 -32.974247
-15.986912 -89.885159 -33.80084
-14.353624 -91.025852 -34.737175
-15.082311 -92.409347 -33.910582
-15.555332 -91.139294 -33.891965
-12.130448 -86.476143 -36.88623
-11.642648 -87.700581 -36.973838
-12.963209 -88.041599 -36.170272
-5.759828 -60.637867 -42.468611
-6.802625 -61.284633 -41.777899
-5.995356 -59.080174 -42.416256
-5.452628 -62.144785 -42.508555
-5.759828 -60.637867 -42.468611
-5.198115 -63.577911 -42.558846
-6.312585 -64.275453 -41.880545
-5.452628 -62.144785 -42.508555
-4.038226 -62.947483 -43.201366
-4.898183 -65.078151 -42.573357
-5.198115 -63.577911 -42.558846
-2.861987 -62.244361 -43.851648
-4.038226 -62.947483 -43.201366
-2.477946 -63.620555 -43.859369
-2.861987 -62.244361 -43.851648
-21.604952 -89.19796 -27.774204
-21.405945 -90.545898 -27.976428
-21.033897 -88.116677 -28.730959
-21.604952 -89.19796 -27.774204
-21.73755 -87.771569 -27.647084
-6.023617 -51.15325 -42.919494
-6.790499 -53.186878 -42.224115
-6.941607 -51.667883 -42.189028
-6.023617 -51.15325 -42.919494
-5.263708 -49.160367 -43.612971
-20.211661 -64.454298 -25.082386
-20.004848 -62.901483 -25.049265
-20.024356 -64.905337 -25.916219
-20.441046 -66.068814 -25.123311
-20.211661 -64.454298 -25.082386
-6.694059 -94.103683 -36.83185
-5.909535 -94.732727 -36.664001
-7.434883 -95.482757 -36.052149
-7.004892 -89.476975 -38.445045
-7.652575 -88.489429 -38.516857
-22.417882 -76.887909 -24.144115
-22.843515 -77.879452 -23.140801
-22.621184 -76.237865 -23.104878
-11.860512 -73.177833 -37.959663
-10.772958 -72.789592 -38.733881
-12.641485 -75.007687 -37.347074
-12.93166 -73.52203 -37.160154
-11.860512 -73.177833 -37.959663
-3.829294 -72.290627 -42.389313
-3.041974 -70.291043 -42.912058
-22.772145 -85.284339 -25.514227
-22.836747 -86.812023 -25.572187
-4.65667 -44.12231 -44.42415
-5.428256 -46.078825 -43.646942
-5.505769 -44.575175 -43.664057
-3.910025 -42.01839 -45.209944
-4.65667 -44.12231 -44.42415
-3.910025 -42.01839 -45.209944
-4.04283 -40.526592 -45.213017
-3.469199 -37.007511 -45.93816
-4.089739 -38.908915 -45.212168
-4.207461 -37.481901 -45.16556
-3.469199 -37.007511 -45.93816
-2.855459 -34.999958 -46.707543
-19.989429 -60.824711 -24.292026
-20.130668 -60.284031 -23.569384
-19.551869 -59.583382 -25.124865
-19.777165 -61.270817 -25.056075
-19.989429 -60.824711 -24.292026
-15.920647 -44.36484 -29.786054
-16.392528 -44.354039 -29.100188
-16.047738 -45.960499 -29.751908
-15.920647 -44.36484 -29.786054
-15.496391 -44.50466 -30.481146
-19.072249 -95.85807 -29.453713
-19.610101 -96.837978 -28.415625
-20.116209 -95.727016 -28.330751
-16.818075 -93.756356 -32.261724
-17.887553 -93.852993 -31.311746
-17.353497 -92.619427 -32.115395
-16.225148 -94.859272 -32.352806
-16.818075 -93.756356 -32.261724
-15.691092 -93.625706 -33.156454
-8.285309 -87.579292 -38.501182
-7.652575 -88.489429 -38.516857
-8.985031 -89.235805 -37.856906
-8.285309 -87.579292 -38.501182
-8.959459 -86.708652 -38.424274
-9.649207 -64.266256 -39.704441
-9.812548 -62.774424 -39.637852
-8.790535 -62.284508 -40.399765
-10.57561 -66.333023 -38.996055
-9.649207 -64.266256 -39.704441
-7.597146 -63.309333 -41.148304
-7.832674 -61.75164 -41.095949
-6.802625 -61.284633 -41.777899
-8.530326 -65.404973 -40.462938
-7.597146 -63.309333 -41.148304
-7.500278 -64.937967 -41.144888
-9.456729 -67.471741 -39.754553
-8.530326 -65.404973 -40.462938
-9.204518 -68.974651 -39.89035
-9.456729 -67.471741 -39.754553
-8.80809 -70.386604 -40.05406
-9.204518 -68.974651 -39.89035
-8.037029 -68.44556 -40.623232
-8.545729 -71.850002 -40.155474
-9.713218 -72.379093 -39.422592
-8.80809 -70.386604 -40.05406
-4.013736 -67.854691 -42.746783
-4.513427 -66.565658 -42.655661
-3.238602 -65.736755 -43.307
-3.527887 -69.038517 -42.860765
-4.802713 -69.867421 -42.209427
-4.013736 -67.854691 -42.746783
-3.041974 -70.291043 -42.912058
-3.527887 -69.038517 -42.860765
-20.610608 -53.629354 -21.010172
-20.643425 -55.124832 -20.857544
-20.899242 -54.591627 -20.177008
-20.669371 -44.412478 -22.270297
-20.963181 -45.173832 -21.590929
-20.216689 -44.71207 -22.928211
-20.669371 -44.412478 -22.270297
-19.824252 -45.023119 -23.575596
-20.11924 -46.04878 -22.894861
-20.216689 -44.71207 -22.928211
-19.398263 -45.296921 -24.221285
-19.824252 -45.023119 -23.575596
-19.00502 -45.70447 -24.898076
-19.33356 -46.767378 -24.219037
-19.398263 -45.296921 -24.221285
-18.566643 -46.07995 -25.578744
-19.00502 -45.70447 -24.898076
-18.631346 -44.609493 -25.580992
-17.34469 -43.95158 -27.636279
-17.760241 -45.130068 -26.95744
-17.777418 -43.806486 -26.940499
-16.820288 -44.08128 -28.39839
-17.34469 -43.95158 -27.636279
-20.468989 -94.497951 -28.327585
-20.116209 -95.727016 -28.330751
-19.918639 -93.431461 -29.331209
-20.468989 -94.497951 -28.327585
-20.80927 -93.182305 -28.289955
-20.580109 -90.829441 -29.07583
-21.084754 -91.832271 -28.194178
-21.405945 -90.545898 -27.976428
-6.688136 -54.697186 -42.254423
-7.606126 -55.211819 -41.523956
-6.790499 -53.186878 -42.224115
-6.512352 -56.220064 -42.266634
-6.688136 -54.697186 -42.254423
-6.279547 -57.722471 -42.352274
-7.270958 -58.224533 -41.639904
-6.512352 -56.220064 -42.266634
-5.995356 -59.080174 -42.416256
-6.279547 -57.722471 -42.352274
-22.355593 -74.633163 -23.154043
-22.621184 -76.237865 -23.104878
-21.95946 -73.665115 -24.074252
-22.355593 -74.633163 -23.154043
-22.119502 -73.051956 -23.120103
-21.458651 -70.470318 -24.056501
-21.837464 -71.408062 -23.152995
-21.25407 -70.91328 -24.95025
-21.458651 -70.470318 -24.056501
-20.989351 -69.29969 -24.966439
-20.428307 -55.630112 -21.605982
-20.643425 -55.124832 -20.857544
-20.178792 -56.143575 -22.33997
-20.428307 -55.630112 -21.605982
-20.105277 -54.676023 -22.424696
-20.007842 -56.802284 -23.036807
-20.178792 -56.143575 -22.33997
-19.790689 -57.271801 -23.71163
-20.007842 -56.802284 -23.036807
-19.638608 -55.659004 -23.833507
-19.592794 -57.632898 -24.434573
-19.962028 -58.776179 -23.637873
-19.790689 -57.271801 -23.71163
-21.410457 -56.309017 -18.477023
-21.635172 -55.683179 -17.716018
-21.166559 -55.504992 -19.307697
-21.410457 -56.309017 -18.477023
-21.133743 -54.009513 -19.460325
-20.899242 -54.591627 -20.177008
-21.166559 -55.504992 -19.307697
-21.854745 -51.343506 -18.162275
-21.740715 -52.772644 -18.008385
-21.6138 -50.627257 -18.93992
-21.854745 -51.343506 -18.162275
-21.966966 -49.902209 -18.27025
-21.597574 -46.781841 -20.010276
-21.447896 -48.246412 -19.866446
-21.875699 -47.721388 -19.191726
-21.720031 -45.433374 -20.134968
-21.292229 -45.958399 -20.809689
-21.597574 -46.781841 -20.010276
-12.127914 -36.229139 -34.549233
-12.69752 -37.568663 -33.852961
-12.701435 -36.303657 -33.80546
-11.543183 -36.140422 -35.284603
-12.127914 -36.229139 -34.549233
-10.95429 -36.000231 -36.06909
-11.535107 -37.353952 -35.38122
-11.543183 -36.140422 -35.284603
-10.361622 -35.751314 -36.839291
-10.95429 -36.000231 -36.06909
-9.791462 -35.553411 -37.61264
-10.376054 -37.015857 -36.939056
-10.361622 -35.751314 -36.839291
-9.189971 -34.02396 -38.300035
-8.560344 -32.422722 -39.070966
-9.204403 -35.288503 -38.399801
-9.791462 -35.553411 -37.61264
-9.189971 -34.02396 -38.300035
-6.825344 -31.443566 -41.440321
-7.378036 -31.812098 -40.674031
-6.800336 -32.658911 -41.554158
-6.825344 -31.443566 -41.440321
-6.272526 -31.029657 -42.201494
-4.463636 -29.447839 -44.789148
-5.073569 -30.045569 -43.891939
-4.45831 -30.789417 -44.800868
-4.463636 -29.447839 -44.789148
-3.870113 -29.009028 -45.616727
-2.070047 -27.091903 -48.240814
-2.668289 -27.843665 -47.339899
-1.943536 -28.315692 -48.277424
-2.070047 -27.091903 -48.240814
-1.835273 -29.608205 -48.32974
-2.487115 -30.336264 -47.437449
-1.943536 -28.315692 -48.277424
-1.709658 -30.974805 -48.30372
-1.835273 -29.608205 -48.32974
-17.328063 -103.154407 -25.967654
-18.159405 -102.336399 -26.017572
-16.143126 -103.141815 -27.006769
-16.427759 -103.869434 -25.862865
-17.328063 -103.154407 -25.967654
-19.122369 -97.901268 -28.436143
-19.610101 -96.837978 -28.415625
-18.553521 -98.976899 -28.379784
-19.122369 -97.901268 -28.436143
-17.997293 -98.044663 -29.482228
-17.969355 -99.950219 -28.319888
-18.553521 -98.976899 -28.379784
-17.280314 -100.788803 -28.28825
-17.969355 -99.950219 -28.319888
-16.739405 -99.958877 -29.394231
-16.546897 -101.612125 -28.237075
-17.776848 -101.603466 -27.162732
-17.280314 -100.788803 -28.28825
-14.831542 -103.101925 -27.992394
-16.143126 -103.141815 -27.006769
-15.731846 -102.386898 -28.097183
-13.543746 -102.989059 -28.822651
-14.831542 -103.101925 -27.992394
-12.135603 -102.763981 -29.66357
-13.543746 -102.989059 -28.822651
-13.012118 -102.121929 -29.923727
-10.790224 -102.412128 -30.428621
-12.135603 -102.763981 -29.66357
-9.367022 -101.944389 -31.158975
-10.790224 -102.412128 -30.428621
-10.180773 -101.429112 -31.494999
-7.896636 -101.32827 -31.881754
-8.506087 -102.311287 -30.815376
-9.367022 -101.944389 -31.158975
-7.896636 -101.32827 -31.881754
-7.327723 -100.244384 -32.88405
-5.802986 -96.716701 -35.54493
-6.395935 -98.022343 -34.654821
-7.243308 -97.417442 -34.994192
-5.802986 -96.716701 -35.54493
-5.068873 -95.348945 -36.380825
-5.969695 -92.593284 -37.612397
-6.694059 -94.103683 -36.83185
-7.495043 -93.343315 -37.000543
-6.214082 -90.320461 -38.399299
-7.561488 -90.989429 -37.826836
-7.004892 -89.476975 -38.445045
-5.308101 -90.995102 -38.338995
-6.214082 -90.320461 -38.399299
-5.969695 -92.593284 -37.612397
-5.308101 -90.995102 -38.338995
-23.046625 -79.438076 -23.218703
-22.843515 -77.879452 -23.140801
-23.193351 -81.003029 -23.343967
-23.046625 -79.438076 -23.218703
-22.786938 -80.094448 -24.305302
-23.381727 -82.596908 -23.383253
-23.193351 -81.003029 -23.343967
-23.073649 -83.17398 -24.441304
-23.381727 -82.596908 -23.383253
-22.703007 -83.781963 -25.465573
-23.073649 -83.17398 -24.441304
-22.563021 -82.267383 -25.454837
-22.261518 -84.377742 -26.52776
-22.772145 -85.284339 -25.514227
-22.703007 -83.781963 -25.465573
-12.49308 -67.08049 -37.441728
-11.576842 -65.110634 -38.177414
-11.587458 -66.726029 -38.206843
-13.355393 -68.833721 -36.707006
-13.344777 -67.218327 -36.677578
-12.49308 -67.08049 -37.441728
-14.162384 -70.673199 -36.053911
-13.355393 -68.833721 -36.707006
-14.930073 -72.373513 -35.385696
-14.97478 -70.671872 -35.274641
-14.162384 -70.673199 -36.053911
-15.727887 -73.971585 -34.698438
-14.930073 -72.373513 -35.385696
-14.915491 -73.972912 -35.477709
-16.286722 -78.850223 -34.275402
-16.43681 -77.259552 -34.112781
-15.563217 -77.161655 -34.953072
-16.090269 -80.265839 -34.485658
-16.963862 -80.363735 -33.645369
-16.286722 -78.850223 -34.275402
-14.31403 -78.493343 -35.999973
-14.562881 -77.052105 -35.831629
-13.463783 -76.793121 -36.715909
-15.074098 -80.156655 -35.36737
-14.31403 -78.493343 -35.999973
-13.975 -79.897671 -36.251651
-15.751238 -81.670166 -34.737337
-16.090269 -80.265839 -34.485658
-15.074098 -80.156655 -35.36737
-11.383921 -84.917919 -37.527666
-12.130448 -86.476143 -36.88623
-12.704481 -85.258938 -36.7241
-10.656983 -83.198101 -38.121809
-11.045507 -81.927684 -38.04875
-9.744536 -81.425072 -38.805023
-11.383921 -84.917919 -37.527666
-10.656983 -83.198101 -38.121809
-4.652462 -74.297436 -41.841999
-5.140032 -73.058056 -41.776097
-3.829294 -72.290627 -42.389313
-5.538021 -76.319512 -41.27133
-4.652462 -74.297436 -41.841999
-6.384611 -78.300667 -40.698583
-6.809789 -77.04602 -40.656036
-5.538021 -76.319512 -41.27133
-7.190958 -80.271241 -40.133146
-6.384611 -78.300667 -40.698583
3 0 59 57
3 0 61 59
3 2 64 63
3 2 66 64
3 1 69 67
3 231 74 232
3 233 232 72
3 231 232 233
3 4 234 235
3 4 236 238
3 236 76 237
3 236 237 238
3 5 79 77
3 239 82 240
3 241 240 80
3 239 240 241
3 243 242 82
3 8 244 246
3 244 83 245
3 244 245 246
3 8 85 83
3 3 88 86
3 9 91 89
3 9 93 91
3 9 95 93
3 10 98 96
3 10 100 98
3 11 103 101
3 11 105 103
3 11 107 105
3 7 110 108
3 12 113 111
3 12 115 113
3 6 118 116
3 13 247 249
3 247 119 248
3 247 248 249
3 13 121 119
3 13 123 121
3 14 126 124
3 16 127 58
3 16 128 127
3 16 250 252
3 252 251 128
3 250 251 252
3 17 253 255
3 255 254 60
3 253 254 255
3 17 256 257
3 258 129 259
3 260 132 261
3 262 261 130
3 260 261 262
3 19 263 265
3 263 133 264
3 263 264 265
3 19 134 133
3 19 136 134
3 21 137 62
3 21 138 137
3 22 141 139
3 24 266 268
3 266 142 267
3 266 267 268
3 24 143 142
3 24 145 143
3 269 146 270
3 271 270 65
3 269 270 271
3 273 272 146
3 26 149 147
3 28 150 68
3 28 151 150
3 29 274 276
3 276 275 152
3 274 275 276
3 30 154 70
3 30 155 154
3 30 157 155
3 278 277 71
3 32 160 158
3 34 161 73
3 34 162 161
3 279 163 280
3 282 281 163
3 283 164 284
3 35 165 75
3 35 166 165
3 36 169 167
3 38 170 78
3 38 171 170
3 15 172 125
3 39 173 81
3 39 174 173
3 39 175 174
3 285 176 286
3 40 287 288
3 40 289 291
3 289 177 290
3 289 290 291
3 40 178 177
3 41 179 84
3 41 180 179
3 33 181 159
3 42 182 87
3 42 183 182
3 18 184 131
3 43 185 90
3 43 186 185
3 43 187 186
3 44 188 92
3 44 189 188
3 44 190 189
3 45 191 94
3 45 192 191
3 20 193 135
3 46 194 97
3 46 195 194
3 46 196 195
3 47 197 99
3 47 198 197
3 292 199 293
3 292 293 294
3 295 200 296
3 297 296 199
3 295 296 297
3 298 201 299
3 301 300 201
3 302 202 303
3 304 203 305
3 306 305 202
3 304 305 306
3 307 204 308
3 309 205 310
3 311 310 204
3 309 310 311
3 312 206 313
3 314 207 315
3 316 315 206
3 314 315 316
3 317 208 318
3 23 209 140
3 48 210 102
3 48 211 210
3 48 212 211
3 49 213 104
3 49 319 321
3 321 320 213
3 319 320 321
3 49 322 323
3 325 324 106
3 25 214 144
3 50 215 109
3 50 216 215
3 27 217 148
3 51 218 112
3 51 219 218
3 51 220 219
3 52 221 114
3 52 222 221
3 37 223 168
3 53 224 117
3 53 225 224
3 327 326 153
3 54 328 329
3 54 330 332
3 330 226 331
3 330 331 332
3 54 333 335
3 335 334 226
3 333 334 335
3 55 227 120
3 55 228 227
3 55 229 228
3 56 336 338
3 338 337 122
3 336 337 338
3 56 339 340
3 31 230 156
3 57 58 14
3 59 58 57
3 59 16 58
3 59 60 16
3 61 60 59
3 61 17 60
3 341 19 342
3 343 62 344
3 345 344 19
3 343 344 345
3 346 62 347
3 348 21 349
3 350 349 62
3 348 349 350
3 63 351 353
3 353 352 22
3 351 352 353
3 64 354 356
3 356 355 63
3 354 355 356
3 64 357 359
3 357 24 358
3 357 358 359
3 64 65 24
3 66 65 64
3 66 360 362
3 362 361 65
3 360 361 362
3 67 68 26
3 69 68 67
3 69 28 68
3 363 70 364
3 365 364 29
3 363 364 365
3 366 70 367
3 368 30 369
3 370 369 70
3 368 369 370
3 371 71 372
3 373 372 30
3 371 372 373
3 374 71 375
3 377 376 71
3 72 73 32
3 74 73 72
3 74 34 73
3 378 75 379
3 76 380 382
3 380 75 381
3 380 381 382
3 76 35 75
3 77 78 36
3 79 78 77
3 79 38 78
3 80 81 15
3 82 81 80
3 82 39 81
3 82 383 385
3 385 384 39
3 383 384 385
3 387 386 82
3 83 388 389
3 83 390 392
3 390 40 391
3 390 391 392
3 83 84 40
3 85 84 83
3 85 41 84
3 86 87 33
3 88 87 86
3 88 42 87
3 89 90 18
3 91 90 89
3 91 43 90
3 91 92 43
3 93 92 91
3 93 44 92
3 93 94 44
3 95 94 93
3 95 45 94
3 96 97 20
3 98 97 96
3 98 46 97
3 98 99 46
3 100 99 98
3 100 47 99
3 101 102 23
3 103 102 101
3 103 48 102
3 103 104 48
3 105 104 103
3 105 49 104
3 105 106 49
3 107 106 105
3 107 393 395
3 395 394 106
3 393 394 395
3 397 396 25
3 108 398 400
3 398 109 399
3 398 399 400
3 110 109 108
3 110 50 109
3 111 112 27
3 113 112 111
3 113 51 112
3 113 114 51
3 115 114 113
3 115 52 114
3 116 117 37
3 118 117 116
3 118 53 117
3 119 401 402
3 119 403 405
3 403 54 404
3 403 404 405
3 119 120 54
3 121 120 119
3 121 55 120
3 121 122 55
3 123 122 121
3 123 56 122
3 407 406 31
3 408 4 409
3 124 125 5
3 126 125 124
3 126 15 125
3 58 126 14
3 127 126 58
3 127 15 126
3 127 80 15
3 128 80 127
3 128 410 412
3 412 411 80
3 410 411 412
3 128 413 414
3 416 415 128
3 60 417 419
3 419 418 16
3 417 418 419
3 421 420 60
3 129 422 423
3 129 424 426
3 424 8 425
3 424 425 426
3 130 131 3
3 132 131 130
3 132 18 131
3 427 132 428
3 133 429 431
3 429 132 430
3 429 430 431
3 133 18 132
3 133 89 18
3 134 89 133
3 134 9 89
3 134 135 9
3 136 135 134
3 136 20 135
3 62 136 19
3 137 136 62
3 137 20 136
3 137 96 20
3 138 96 137
3 138 10 96
3 139 432 434
3 432 140 433
3 432 433 434
3 141 140 139
3 141 23 140
3 435 141 436
3 437 436 22
3 435 436 437
3 142 438 440
3 438 141 439
3 438 439 440
3 142 23 141
3 142 101 23
3 143 101 142
3 143 11 101
3 143 144 11
3 145 144 143
3 145 25 144
3 65 145 24
3 146 145 65
3 146 25 145
3 146 441 443
3 443 442 25
3 441 442 443
3 445 444 146
3 147 148 7
3 149 148 147
3 149 27 148
3 68 149 26
3 150 149 68
3 150 27 149
3 150 111 27
3 151 111 150
3 151 12 111
3 152 153 6
3 446 153 447
3 448 447 152
3 446 447 448
3 450 449 153
3 70 451 453
3 453 452 29
3 451 452 453
3 154 454 456
3 456 455 70
3 454 455 456
3 154 457 458
3 154 459 460
3 155 461 463
3 463 462 154
3 461 462 463
3 155 464 466
3 464 13 465
3 464 465 466
3 155 156 13
3 157 156 155
3 157 31 156
3 71 157 30
3 467 157 468
3 469 468 71
3 467 468 469
3 470 31 471
3 472 471 157
3 470 471 472
3 474 473 31
3 158 475 477
3 475 159 476
3 475 476 477
3 160 159 158
3 160 33 159
3 73 160 32
3 161 160 73
3 161 33 160
3 161 86 33
3 162 86 161
3 162 3 86
3 478 74 479
3 480 74 481
3 482 34 483
3 484 483 74
3 482 483 484
3 485 34 486
3 487 162 488
3 489 488 34
3 487 488 489
3 163 490 492
3 490 162 491
3 490 491 492
3 163 3 162
3 163 130 3
3 493 130 494
3 495 494 163
3 493 494 495
3 497 496 130
3 498 139 499
3 164 500 502
3 500 139 501
3 500 501 502
3 164 22 139
3 75 503 505
3 503 164 504
3 503 504 505
3 165 164 75
3 165 22 164
3 165 63 22
3 166 63 165
3 166 2 63
3 167 168 1
3 169 168 167
3 169 37 168
3 78 169 36
3 170 169 78
3 170 37 169
3 170 116 37
3 171 116 170
3 171 6 116
3 125 79 5
3 172 79 125
3 172 38 79
3 81 172 15
3 173 172 81
3 173 38 172
3 173 171 38
3 174 171 173
3 174 6 171
3 174 152 6
3 175 152 174
3 175 29 152
3 506 175 507
3 508 507 39
3 506 507 508
3 509 175 510
3 511 29 512
3 513 512 175
3 511 512 513
3 515 514 29
3 516 108 517
3 176 518 520
3 518 108 519
3 518 519 520
3 176 7 108
3 521 176 522
3 177 523 525
3 523 176 524
3 523 524 525
3 177 7 176
3 177 147 7
3 178 147 177
3 178 26 147
3 84 178 40
3 179 178 84
3 179 26 178
3 179 67 26
3 180 67 179
3 180 1 67
3 159 526 527
3 181 528 530
3 530 529 159
3 528 529 530
3 181 531 532
3 87 181 33
3 182 181 87
3 182 533 535
3 535 534 181
3 533 534 535
3 182 536 538
3 536 129 537
3 536 537 538
3 183 129 182
3 183 8 129
3 131 88 3
3 184 88 131
3 184 42 88
3 90 184 18
3 185 184 90
3 185 42 184
3 185 183 42
3 186 183 185
3 186 8 183
3 186 85 8
3 187 85 186
3 187 41 85
3 92 187 43
3 188 187 92
3 188 41 187
3 188 180 41
3 189 180 188
3 189 1 180
3 189 167 1
3 190 167 189
3 190 36 167
3 94 190 44
3 191 190 94
3 191 36 190
3 191 77 36
3 192 77 191
3 192 5 77
3 135 95 9
3 193 95 135
3 193 45 95
3 97 193 20
3 194 193 97
3 194 45 193
3 194 192 45
3 195 192 194
3 195 5 192
3 195 124 5
3 196 124 195
3 196 14 124
3 99 196 46
3 197 196 99
3 197 14 196
3 197 57 14
3 198 57 197
3 198 0 57
3 199 539 540
3 199 541 542
3 199 543 545
3 543 158 544
3 543 544 545
3 200 158 199
3 200 32 158
3 546 200 547
3 201 548 550
3 548 200 549
3 548 549 550
3 201 32 200
3 201 72 32
3 551 72 552
3 553 552 201
3 551 552 553
3 556 555 72
3 554 555 556
3 557 21 558
3 557 558 559
3 560 21 561
3 562 138 563
3 564 563 21
3 562 563 564
3 565 138 566
3 567 10 568
3 569 568 138
3 567 568 569
3 202 570 571
3 202 572 574
3 572 10 573
3 572 573 574
3 202 100 10
3 203 100 202
3 203 47 100
3 575 203 576
3 204 577 579
3 577 203 578
3 577 578 579
3 204 47 203
3 204 198 47
3 205 198 204
3 205 0 198
3 580 205 581
3 206 582 584
3 582 205 583
3 582 583 584
3 206 0 205
3 206 61 0
3 207 61 206
3 207 17 61
3 585 207 586
3 587 207 588
3 589 17 590
3 591 590 207
3 589 590 591
3 593 592 17
3 208 594 595
3 208 596 598
3 596 597 598
3 140 599 600
3 209 601 603
3 603 602 140
3 601 602 603
3 209 604 605
3 102 209 23
3 210 209 102
3 210 606 608
3 608 607 209
3 606 607 608
3 210 609 611
3 609 208 610
3 609 610 611
3 211 208 210
3 211 612 614
3 614 613 208
3 612 613 614
3 211 615 616
3 212 617 619
3 619 618 211
3 617 618 619
3 212 620 621
3 104 212 48
3 213 212 104
3 213 622 624
3 624 623 212
3 622 623 624
3 213 625 627
3 625 626 627
3 629 628 213
3 106 630 632
3 632 631 49
3 630 631 632
3 634 633 106
3 144 107 11
3 214 107 144
3 214 635 637
3 637 636 107
3 635 636 637
3 638 214 639
3 640 639 25
3 638 639 640
3 641 214 642
3 644 643 214
3 109 645 646
3 215 647 649
3 649 648 109
3 647 648 649
3 215 650 651
3 215 652 653
3 216 654 656
3 656 655 215
3 654 655 656
3 216 657 659
3 657 4 658
3 657 658 659
3 148 110 7
3 217 110 148
3 217 50 110
3 112 217 27
3 218 217 112
3 218 50 217
3 218 216 50
3 219 216 218
3 219 4 216
3 219 76 4
3 220 76 219
3 220 35 76
3 114 220 51
3 221 220 114
3 221 35 220
3 221 166 35
3 222 166 221
3 222 2 166
3 168 69 1
3 223 69 168
3 223 28 69
3 117 223 37
3 224 223 117
3 224 28 223
3 224 151 28
3 225 151 224
3 225 12 151
3 153 118 6
3 660 118 661
3 662 661 153
3 660 661 662
3 663 53 664
3 665 664 118
3 663 664 665
3 666 53 667
3 668 225 669
3 670 669 53
3 668 669 670
3 226 671 673
3 671 225 672
3 671 672 673
3 226 12 225
3 226 115 12
3 674 115 675
3 676 675 226
3 674 675 676
3 677 52 678
3 679 678 115
3 677 678 679
3 120 680 682
3 682 681 54
3 680 681 682
3 227 683 685
3 685 684 120
3 683 684 685
3 227 686 688
3 686 52 687
3 686 687 688
3 227 222 52
3 228 222 227
3 228 2 222
3 228 66 2
3 229 66 228
3 229 689 691
3 691 690 66
3 689 690 691
3 122 229 55
3 692 229 693
3 694 693 122
3 692 693 694
3 696 695 229
3 156 123 13
3 230 123 156
3 230 56 123
3 697 230 698
3 699 698 31
3 697 698 699
3 700 230 701
3 702 56 703
3 704 703 230
3 702 703 704
3 706 705 56
