ply
format ascii 1.0
element vertex 414
property float x
property float y
property float z
element face 409
property list uchar int vertex_index
end_header
-1.088017 -79.792175 -43.532417
7.855089 -79.010498 -40.830818
9.72654 -101.70636 -34.078468
-0.520756 -91.619301 -39.965099
-11.001259 -77.69043 -43.186172
-6.426416 -72.700928 -45.408051
-1.73701 -73.077301 -44.709534
-6.781259 -65.37056 -46.860241
14.586184 -104.587967 -29.646275
9.205939 -104.803146 -30.733791
-0.573233 -96.072983 -37.362751
-5.679011 -84.995712 -41.839607
6.49202 -71.121994 -41.80257
3.856463 -103.669327 -31.030836
4.165641 -86.246147 -41.361771
3.534955 -79.681328 -42.491314
2.698662 -72.485641 -43.400784
1.789033 -64.980858 -44.320984
14.676105 -100.97435 -32.834839
9.903337 -97.442581 -36.644398
4.475083 -101.046852 -34.621716
4.850385 -97.174904 -37.524044
4.762329 -92.296753 -39.678894
-0.823787 -86.014946 -42.043507
-6.004094 -79.255928 -43.774742
-11.123042 -71.487617 -45.373695
-16.037224 -69.874748 -44.38171
-8.868196 -68.909569 -46.30875
-6.791616 -68.867119 -46.21933
11.427529 -106.036369 -28.50857
5.79713 -67.195511 -42.30468
1.476408 -83.367432 -42.462181
3.930389 -83.197395 -41.931606
1.41458 -80.154213 -43.014462
-2.082812 -69.388306 -45.260876
0.418884 -72.727486 -44.168541
0.225655 -69.180878 -44.571678
2.212024 -68.793121 -43.858849
-0.218069 -65.318939 -45.091198
-0.825509 -61.315094 -45.719376
12.353367 -103.371925 -31.928507
12.271796 -101.504158 -33.551876
12.226271 -99.25325 -34.971485
9.905636 -99.776924 -35.409241
4.181213 -102.490715 -32.923374
1.627065 -100.210159 -34.580544
-0.42621 -94.079094 -38.701927
2.10867 -96.680313 -37.612022
2.14809 -94.52726 -38.843281
4.862638 -94.820648 -38.697739
2.033328 -92.031097 -39.963215
1.981451 -89.233543 -40.957081
-0.516142 -88.956726 -41.073612
-8.279974 -81.535057 -42.534279
-5.947546 -82.149307 -42.86507
-8.486318 -78.594826 -43.583405
-8.754559 -75.393188 -44.576591
-11.018495 -74.744629 -44.306595
-18.276924 -68.963867 -43.602409
-18.264578 -66.098114 -44.965599
-16.089151 -66.884857 -45.59623
8.310672 -82.360535 -40.418266
10.376194 -81.530396 -39.447105
13.670065 -79.520462 -37.423168
-3.833673 -76.211472 -44.519989
-1.334983 -76.621651 -44.116459
-4.078916 -72.765564 -45.184956
-4.40976 -69.274391 -45.808556
-4.524995 -65.826317 -46.346069
16.425116 -105.468903 -27.246523
13.95665 -105.944893 -27.936756
11.883516 -104.849754 -30.338013
9.572403 -103.416359 -32.48661
-0.766206 -97.725319 -35.93782
-3.000137 -93.170525 -38.459755
-2.973127 -90.949799 -39.777489
-3.11145 -88.358376 -40.987804
-10.759895 -80.605408 -41.999779
7.065114 -74.978462 -41.381111
9.519958 -77.758293 -40.027882
5.910875 -105.209503 -29.130924
6.85334 -89.269562 -40.059319
6.591212 -86.123589 -40.696289
6.093514 -82.686996 -41.298622
5.690963 -79.178207 -41.764179
0.749159 -76.46859 -43.667942
3.0146 -76.006126 -43.01355
5.238058 -75.62394 -42.181332
4.533722 -71.737343 -42.697124
4.048013 -67.947609 -43.123352
3.546649 -63.962856 -43.591965
1.186299 -61.042957 -44.903793
16.819601 -103.935768 -28.989017
14.693469 -98.86647 -34.002487
6.669156 -104.407318 -30.974333
6.961601 -103.194847 -32.719872
7.159545 -101.551613 -34.432056
2.066098 -98.645241 -36.185349
4.75334 -99.242828 -36.186031
7.32696 -99.615738 -35.932053
7.451573 -97.437386 -37.179874
7.428234 -95.081421 -38.231319
7.10275 -92.290977 -39.241299
4.423502 -89.289993 -40.627422
1.706067 -86.387085 -41.772945
-0.999648 -83.000717 -42.846344
-3.290149 -85.550964 -42.063587
-3.43031 -82.726189 -42.953884
-3.694414 -79.411659 -43.815746
-6.333854 -75.93679 -44.650303
-8.734094 -72.284569 -45.465984
-11.303862 -68.182198 -46.338673
-15.807659 -72.784645 -43.167927
-13.412255 -74.007286 -43.773075
-13.564655 -70.854942 -44.958305
-13.637247 -67.76506 -46.036343
12.087263 -80.644897 -38.478718
-9.024276 -67.021012 -46.738014
-10.17382 -66.870602 -46.775524
6.605985 -66.636185 -41.875585
5.54072 -65.228327 -42.521574
-1.074318 -67.38675 -45.182118
-0.928579 -69.284592 -44.916277
-2.228552 -67.490464 -45.526717
-1.29618 -65.45578 -45.441878
0.003793 -67.249909 -44.831438
-1.074318 -67.38675 -45.182118
-1.503056 -63.473119 -45.742876
-1.29618 -65.45578 -45.441878
0.334487 -99.723381 -34.434725
1.511799 -100.919865 -33.659443
-19.348492 -64.195423 -45.269385
-19.359249 -65.557689 -44.598644
-18.324998 -64.409233 -45.665964
-19.348492 -64.195423 -45.269385
-6.925662 -63.512978 -47.204705
-5.79753 -63.740857 -46.947619
-5.653127 -65.598439 -46.603155
13.74251 -106.442284 -26.928793
14.992182 -106.253818 -26.675401
-4.289385 -91.5892 -38.904616
-4.322733 -92.630917 -38.187494
-4.27588 -90.478836 -39.563483
-2.986632 -92.060162 -39.118622
-4.289385 -91.5892 -38.904616
-4.332085 -89.251511 -40.219614
-4.27588 -90.478836 -39.563483
-10.74412 -81.910054 -41.326595
-9.484008 -82.403923 -41.685202
7.720992 -72.710594 -41.108673
8.007539 -74.638828 -40.897943
6.778567 -73.050228 -41.591841
-0.994575 -59.321731 -46.009783
-1.936289 -59.57017 -46.345494
15.881624 -101.597428 -31.620048
14.674378 -101.913303 -32.125699
15.843077 -100.619072 -32.314405
15.881624 -101.597428 -31.620048
14.684787 -99.92041 -33.418663
15.85176 -99.565132 -32.898229
15.843077 -100.619072 -32.314405
11.136256 -97.238487 -36.285553
12.297722 -98.143822 -35.449096
11.064804 -98.347915 -35.807941
9.847563 -96.159142 -37.159092
11.136256 -97.238487 -36.285553
-14.819393 -65.771206 -46.4165
-14.863199 -67.324959 -45.816287
-16.045345 -65.331104 -46.196444
-13.747671 -66.021694 -46.580555
-14.819393 -65.771206 -46.4165
11.76092 -78.842254 -38.6969
10.803611 -79.201595 -39.2533
10.477267 -77.398953 -39.471481
14.04733 -81.308792 -37.157353
14.711813 -80.546112 -36.640482
-7.985986 -66.999786 -46.693304
-7.829906 -68.888344 -46.26404
-9.024276 -67.021012 -46.738014
-7.980808 -65.251507 -47.01376
-6.786437 -67.11884 -46.539786
-7.985986 -66.999786 -46.693304
-7.98296 -63.554867 -47.367328
-7.980808 -65.251507 -47.01376
11.120354 -106.450435 -27.531083
12.47795 -106.488022 -27.2147
10.067131 -105.929241 -28.682541
11.120354 -106.450435 -27.531083
8.956336 -105.312629 -29.795151
10.316734 -105.419758 -29.621181
10.067131 -105.929241 -28.682541
6.974637 -68.69315 -41.622032
7.322082 -70.656391 -41.370977
6.144575 -69.158752 -42.053625
6.974637 -68.69315 -41.622032
6.605985 -66.636185 -41.875585
-1.806776 -61.471197 -46.056965
-0.521789 -63.317017 -45.405287
-1.503056 -63.473119 -45.742876
-1.936289 -59.57017 -46.345494
-1.806776 -61.471197 -46.056965
13.513009 -103.112091 -31.672533
14.629418 -103.720112 -30.531417
13.469776 -103.979946 -30.787391
13.472224 -102.178207 -32.484217
13.513009 -103.112091 -31.672533
12.312582 -102.438041 -32.740192
13.473951 -101.239254 -33.193358
14.674378 -101.913303 -32.125699
13.472224 -102.178207 -32.484217
2.788873 -102.060142 -32.830858
4.018838 -103.080021 -31.977105
2.626498 -102.649449 -31.884589
2.904139 -101.350437 -33.751959
2.788873 -102.060142 -32.830858
1.511799 -100.919865 -33.659443
-19.365422 -66.990566 -43.917049
-19.283846 -68.504573 -43.159987
-18.270751 -67.530991 -44.284004
-19.365422 -66.990566 -43.917049
-19.359249 -65.557689 -44.598644
-17.237285 -64.802605 -45.981279
-17.176865 -66.491485 -45.280914
-18.324998 -64.409233 -45.665964
-16.045345 -65.331104 -46.196444
-17.237285 -64.802605 -45.981279
9.640667 -83.685627 -39.680568
8.514146 -83.974956 -40.18652
10.673428 -83.270557 -39.194988
9.640667 -83.685627 -39.680568
9.343433 -81.945465 -39.932686
11.610445 -82.893726 -38.682755
10.673428 -83.270557 -39.194988
13.237637 -77.620674 -37.701555
12.552321 -78.280037 -38.169124
14.228555 -78.617501 -36.975341
13.237637 -77.620674 -37.701555
14.711813 -80.546112 -36.640482
14.228555 -78.617501 -36.975341
-3.449643 -65.709469 -46.069313
-2.228552 -67.490464 -45.526717
-3.303903 -67.607312 -45.803472
-4.643239 -63.854988 -46.65484
-3.449643 -65.709469 -46.069313
-4.643239 -63.854988 -46.65484
-5.79753 -63.740857 -46.947619
-6.925662 -63.512978 -47.204705
-7.98296 -63.554867 -47.367328
16.226415 -106.015823 -26.330284
17.350794 -105.71825 -25.888562
15.190883 -105.706898 -27.591639
16.226415 -106.015823 -26.330284
14.992182 -106.253818 -26.675401
12.692089 -105.990631 -28.222663
13.74251 -106.442284 -26.928793
12.47795 -106.488022 -27.2147
-2.071223 -97.22728 -35.654036
-0.862148 -98.480961 -35.113363
-1.984498 -96.404957 -36.454805
-2.071223 -97.22728 -35.654036
-1.888012 -95.578789 -37.167271
-0.66972 -96.899151 -36.650286
-1.984498 -96.404957 -36.454805
-3.101464 -94.12756 -37.715772
-4.322733 -92.630917 -38.187494
-1.786685 -94.621754 -37.911253
-1.888012 -95.578789 -37.167271
-3.101464 -94.12756 -37.715772
-4.401247 -87.9558 -40.824771
-3.042288 -89.654088 -40.382646
-4.332085 -89.251511 -40.219614
-5.685028 -86.274468 -41.250673
-4.395231 -86.677044 -41.413705
-4.401247 -87.9558 -40.824771
-6.943566 -84.599075 -41.605116
-5.685028 -86.274468 -41.250673
-8.244047 -82.868747 -41.952452
-6.979492 -83.265384 -42.186943
-6.943566 -84.599075 -41.605116
-9.519934 -81.070233 -42.267029
-8.244047 -82.868747 -41.952452
-9.484008 -82.403923 -41.685202
9.234961 -76.028743 -40.221329
8.292536 -76.368377 -40.704496
8.007539 -74.638828 -40.897943
10.477267 -77.398953 -39.471481
9.234961 -76.028743 -40.221329
7.720992 -72.710594 -41.108673
7.322082 -70.656391 -41.370977
5.546121 -105.468994 -28.120882
6.989641 -105.853134 -27.996933
4.580842 -104.805504 -29.101539
5.546121 -105.468994 -28.120882
3.553636 -104.035416 -30.051495
4.883669 -104.439415 -30.08088
4.580842 -104.805504 -29.101539
2.50384 -103.183594 -30.92819
3.553636 -104.035416 -30.051495
2.626498 -102.649449 -31.884589
2.50384 -103.183594 -30.92819
8.047592 -89.174667 -39.666719
8.174065 -90.644424 -39.324175
7.916528 -87.601681 -39.985205
8.047592 -89.174667 -39.666719
6.722276 -87.696575 -40.377804
7.654416 -85.856483 -40.325531
7.916528 -87.601681 -39.985205
7.405567 -84.138187 -40.626698
7.654416 -85.856483 -40.325531
6.342363 -84.405293 -40.997456
7.202093 -82.523765 -40.858444
8.514146 -83.974956 -40.18652
7.405567 -84.138187 -40.626698
4.41548 -63.611999 -43.165216
5.54072 -65.228327 -42.521574
4.671889 -65.579183 -42.948323
3.219148 -62.045749 -43.876753
4.41548 -63.611999 -43.165216
2.038972 -60.5858 -44.532667
3.219148 -62.045749 -43.876753
2.366474 -62.502907 -44.247879
0.901016 -58.864136 -45.235725
2.038972 -60.5858 -44.532667
0.011329 -59.185663 -45.601991
0.180395 -61.179026 -45.311584
-0.994575 -59.321731 -46.009783
0.901016 -58.864136 -45.235725
0.011329 -59.185663 -45.601991
17.524209 -105.070256 -26.840739
17.350794 -105.71825 -25.888562
17.721451 -104.303688 -27.711987
17.524209 -105.070256 -26.840739
16.622358 -104.702336 -28.11777
17.956395 -103.523674 -28.409377
17.721451 -104.303688 -27.711987
15.746126 -103.394013 -30.202788
15.702892 -104.261867 -29.317646
14.629418 -103.720112 -30.531417
16.953372 -103.078136 -29.697136
15.746126 -103.394013 -30.202788
17.956395 -103.523674 -28.409377
16.953372 -103.078136 -29.697136
15.681551 -98.378388 -33.594887
15.85176 -99.565132 -32.898229
14.636587 -97.570458 -34.552384
15.681551 -98.378388 -33.594887
13.531322 -97.950432 -34.964597
13.45987 -99.05986 -34.486986
12.297722 -98.143822 -35.449096
14.636587 -97.570458 -34.552384
13.531322 -97.950432 -34.964597
7.308803 -105.515808 -28.993718
6.989641 -105.853134 -27.996933
7.687944 -105.114716 -29.915422
7.308803 -105.515808 -28.993718
6.290015 -104.808411 -30.052629
7.937548 -104.605232 -30.854062
8.956336 -105.312629 -29.795151
7.687944 -105.114716 -29.915422
0.430429 -98.967739 -35.259182
0.334487 -99.723381 -34.434725
-0.862148 -98.480961 -35.113363
8.610012 -94.978562 -37.952552
9.847563 -96.159142 -37.159092
8.665786 -96.262001 -37.437859
8.44727 -93.583339 -38.457543
8.610012 -94.978562 -37.952552
7.265492 -93.686199 -38.736309
8.29877 -92.155132 -38.915165
8.44727 -93.583339 -38.457543
6.978045 -90.78027 -39.650309
8.174065 -90.644424 -39.324175
8.29877 -92.155132 -38.915165
-11.391654 -66.506917 -46.790486
-10.17382 -66.870602 -46.775524
-10.086029 -68.545884 -46.323712
-11.987482 -80.061543 -41.614672
-10.74412 -81.910054 -41.326595
-12.112527 -78.664539 -42.267141
-11.987482 -80.061543 -41.614672
-12.233209 -77.207051 -42.860338
-10.880577 -79.147919 -42.592975
-12.112527 -78.664539 -42.267141
-18.122784 -70.430999 -42.930407
-19.283846 -68.504573 -43.159987
-16.888151 -72.341388 -42.713166
-18.122784 -70.430999 -42.930407
-17.042292 -70.874256 -43.385168
-15.715236 -74.265133 -42.4622
-16.888151 -72.341388 -42.713166
-14.636409 -74.754158 -42.851215
-15.715236 -74.265133 -42.4622
-13.438707 -75.365478 -43.15379
-14.636409 -74.754158 -42.851215
-14.609957 -73.395965 -43.470501
-12.206757 -75.848858 -43.479624
-12.233209 -77.207051 -42.860338
-13.438707 -75.365478 -43.15379
-12.580979 -66.230263 -46.73172
-12.470555 -67.973629 -46.187508
-13.747671 -66.021694 -46.580555
-11.391654 -66.506917 -46.790486
-12.580979 -66.230263 -46.73172
12.465979 -82.450977 -38.198561
11.610445 -82.893726 -38.682755
11.231728 -81.087647 -38.962912
12.878664 -80.082679 -37.950943
11.76092 -78.842254 -38.6969
12.552321 -78.280037 -38.169124
13.25593 -81.871009 -37.685128
12.878664 -80.082679 -37.950943
14.04733 -81.308792 -37.157353
12.465979 -82.450977 -38.198561
13.25593 -81.871009 -37.685128
3 118 117 27
3 120 119 30
3 0 33 31
3 121 36 122
3 123 122 34
3 121 122 123
3 124 38 125
3 126 125 36
3 124 125 126
3 128 127 38
3 2 41 40
3 2 43 41
3 129 45 130
3 3 48 46
3 3 50 48
3 3 52 50
3 4 55 53
3 4 57 55
3 131 59 132
3 134 133 59
3 1 62 61
3 5 66 64
3 7 67 28
3 7 68 67
3 7 135 137
3 137 136 68
3 135 136 137
3 138 70 139
3 9 71 29
3 9 72 71
3 140 74 141
3 142 75 143
3 144 143 74
3 142 143 144
3 146 145 75
3 147 77 148
3 12 149 151
3 151 150 78
3 149 150 151
3 14 82 81
3 15 83 32
3 15 84 83
3 6 85 65
3 16 86 35
3 16 87 86
3 16 88 87
3 17 89 37
3 17 90 89
3 17 91 90
3 153 152 39
3 8 92 69
3 18 154 155
3 18 156 157
3 18 158 160
3 158 93 159
3 158 159 160
3 19 161 163
3 163 162 42
3 161 162 163
3 19 164 165
3 13 94 80
3 20 95 44
3 20 96 95
3 10 97 73
3 21 98 47
3 21 99 98
3 21 100 99
3 22 101 49
3 22 102 101
3 22 103 102
3 23 104 51
3 23 105 104
3 11 106 76
3 24 107 54
3 24 108 107
3 24 109 108
3 25 110 56
3 25 111 110
3 26 112 58
3 26 113 112
3 26 114 113
3 166 115 167
3 168 167 60
3 166 167 168
3 170 169 115
3 171 116 172
3 173 172 79
3 171 172 173
3 175 174 63
3 27 28 5
3 176 28 177
3 178 177 27
3 176 177 178
3 179 7 180
3 181 180 28
3 179 180 181
3 183 182 7
3 184 29 185
3 186 29 187
3 188 9 189
3 190 189 29
3 188 189 190
3 30 191 193
3 193 192 12
3 191 192 193
3 195 194 30
3 31 32 14
3 33 32 31
3 33 15 32
3 34 35 6
3 36 35 34
3 36 16 35
3 36 37 16
3 38 37 36
3 38 17 37
3 38 39 17
3 196 39 197
3 198 197 38
3 196 197 198
3 200 199 39
3 40 201 203
3 203 202 8
3 201 202 203
3 41 204 206
3 206 205 40
3 204 205 206
3 41 207 209
3 207 18 208
3 207 208 209
3 41 42 18
3 43 42 41
3 43 19 42
3 210 44 211
3 212 211 13
3 210 211 212
3 45 213 215
3 213 44 214
3 213 214 215
3 45 20 44
3 46 47 10
3 48 47 46
3 48 21 47
3 48 49 21
3 50 49 48
3 50 22 49
3 50 51 22
3 52 51 50
3 52 23 51
3 53 54 11
3 55 54 53
3 55 24 54
3 55 56 24
3 57 56 55
3 57 25 56
3 216 58 217
3 59 218 220
3 218 58 219
3 218 219 220
3 59 26 58
3 59 60 26
3 221 60 222
3 223 222 59
3 221 222 223
3 225 224 60
3 61 226 227
3 62 228 230
3 230 229 61
3 228 229 230
3 62 231 232
3 233 63 234
3 235 63 236
3 238 237 63
3 64 65 0
3 66 65 64
3 66 6 65
3 28 66 5
3 67 66 28
3 67 6 66
3 67 34 6
3 68 34 67
3 68 239 241
3 241 240 34
3 239 240 241
3 68 242 243
3 245 244 68
3 247 246 7
3 248 69 249
3 70 250 252
3 250 69 251
3 250 251 252
3 70 8 69
3 29 253 255
3 253 70 254
3 253 254 255
3 71 70 29
3 71 8 70
3 71 40 8
3 72 40 71
3 72 2 40
3 256 73 257
3 258 73 259
3 260 10 261
3 262 261 73
3 260 261 262
3 74 263 264
3 74 265 267
3 265 10 266
3 265 266 267
3 74 46 10
3 75 46 74
3 75 3 46
3 75 76 3
3 268 76 269
3 270 269 75
3 268 269 270
3 271 11 272
3 273 272 76
3 271 272 273
3 274 11 275
3 276 53 277
3 278 277 11
3 276 277 278
3 77 279 281
3 279 53 280
3 279 280 281
3 77 4 53
3 78 79 1
3 282 79 283
3 284 283 78
3 282 283 284
3 286 285 79
3 288 287 12
3 289 80 290
3 291 80 292
3 293 13 294
3 295 294 80
3 293 294 295
3 296 13 297
3 299 298 13
3 81 300 301
3 82 302 304
3 304 303 81
3 302 303 304
3 82 305 306
3 32 82 14
3 83 82 32
3 83 307 309
3 309 308 82
3 307 308 309
3 83 310 312
3 310 61 311
3 310 311 312
3 84 61 83
3 84 1 61
3 65 33 0
3 85 33 65
3 85 15 33
3 35 85 6
3 86 85 35
3 86 15 85
3 86 84 15
3 87 84 86
3 87 1 84
3 87 78 1
3 88 78 87
3 88 12 78
3 37 88 16
3 89 88 37
3 89 12 88
3 89 30 12
3 90 30 89
3 90 313 315
3 315 314 30
3 313 314 315
3 90 316 317
3 91 318 320
3 320 319 90
3 318 319 320
3 91 321 322
3 39 91 17
3 323 91 324
3 325 324 39
3 323 324 325
3 327 326 91
3 69 328 329
3 92 330 332
3 332 331 69
3 330 331 332
3 92 333 334
3 335 92 336
3 337 336 8
3 335 336 337
3 338 92 339
3 341 340 92
3 93 342 343
3 93 344 345
3 42 93 18
3 346 93 347
3 348 347 42
3 346 347 348
3 350 349 93
3 80 351 352
3 94 353 355
3 355 354 80
3 353 354 355
3 94 356 358
3 356 9 357
3 356 357 358
3 44 94 13
3 95 94 44
3 95 9 94
3 95 72 9
3 96 72 95
3 96 2 72
3 73 359 361
3 359 45 360
3 359 360 361
3 97 45 73
3 97 20 45
3 47 97 10
3 98 97 47
3 98 20 97
3 98 96 20
3 99 96 98
3 99 2 96
3 99 43 2
3 100 43 99
3 100 19 43
3 49 100 21
3 101 100 49
3 101 19 100
3 101 362 364
3 364 363 19
3 362 363 364
3 102 365 367
3 367 366 101
3 365 366 367
3 102 368 369
3 102 370 372
3 370 81 371
3 370 371 372
3 103 81 102
3 103 14 81
3 51 103 22
3 104 103 51
3 104 14 103
3 104 31 14
3 105 31 104
3 105 0 31
3 76 52 3
3 106 52 76
3 106 23 52
3 54 106 11
3 107 106 54
3 107 23 106
3 107 105 23
3 108 105 107
3 108 0 105
3 108 64 0
3 109 64 108
3 109 5 64
3 56 109 24
3 110 109 56
3 110 5 109
3 110 27 5
3 111 27 110
3 111 373 375
3 375 374 27
3 373 374 375
3 376 77 377
3 378 77 379
3 380 4 381
3 382 381 77
3 380 381 382
3 58 383 384
3 112 385 387
3 387 386 58
3 385 386 387
3 112 388 389
3 112 390 391
3 113 392 394
3 394 393 112
3 392 393 394
3 113 395 397
3 395 4 396
3 395 396 397
3 113 57 4
3 114 57 113
3 114 25 57
3 60 114 26
3 115 114 60
3 115 25 114
3 115 111 25
3 398 111 399
3 400 399 115
3 398 399 400
3 402 401 111
3 79 62 1
3 116 62 79
3 116 403 405
3 405 404 62
3 403 404 405
3 63 406 408
3 406 116 407
3 406 407 408
3 409 116 410
3 411 410 63
3 409 410 411
3 413 412 116
