ply
format ascii 1.0
element vertex 247
property float x
property float y
property float z
element face 222
property list uchar int vertex_index
end_header
-4.812918 100.537796 -34.648285
2.927184 78.868828 -42.734539
-11.170296 94.5709 -43.564941
-0.069029 90.939568 -40.453804
-8.08468 98.08506 -39.607094
-5.611251 93.150742 -42.355576
-2.397522 96.266075 -38.038204
-7.368177 103.862915 -30.361727
-10.569942 102.141289 -35.742069
-1.573732 81.100571 -45.181126
-3.438832 87.516159 -44.149368
1.554945 85.231987 -42.016834
-1.953897 101.583389 -29.390995
-6.565625 99.591782 -37.164726
-5.20122 97.385757 -38.785698
-3.585411 98.538216 -36.441719
-6.073048 102.305885 -32.635136
-8.941618 103.16851 -33.155777
-7.754945 101.548775 -35.194767
-9.124689 100.29982 -37.633614
0.714144 80.020401 -44.038616
-9.880106 91.858109 -44.834846
-2.876049 92.14872 -41.51115
-4.553672 90.471786 -43.365757
-1.862305 89.58345 -42.343525
-1.012326 86.521942 -43.194019
0.56773 88.185745 -41.481819
-12.318698 97.043877 -41.974586
0.957488 99.945847 -28.814053
-3.296084 103.022484 -27.115334
-9.574767 96.497841 -41.634228
-8.388419 94.134415 -42.93713
-6.616509 95.764893 -40.978249
-3.97139 94.800453 -40.315868
-1.180624 93.662453 -39.393692
-13.297431 102.573509 -35.952209
-10.821947 98.83873 -39.909782
-4.056903 82.121529 -46.228901
-5.575337 79.728851 -47.501678
-3.138084 78.964203 -46.509724
-7.176699 91.272682 -44.152035
-2.553651 84.332214 -44.827305
0.011444 83.368294 -43.630444
2.332106 82.034286 -42.446957
-3.134941 101.092484 -32.098366
-1.876697 99.262398 -33.985088
-0.550598 99.847427 -31.438551
2.370756 98.145378 -30.665726
-5.951679 104.226471 -27.417257
-4.642682 102.817795 -29.964161
1.438593 92.442902 -38.344898
3.97909 90.757851 -37.378864
2.400241 89.655861 -39.389313
3.11901 86.818909 -40.248634
3.966633 83.85537 -40.696625
2.207261 77.842121 -43.4454
1.100742 78.417908 -44.097438
1.820664 79.444615 -43.386578
3.281947 77.242847 -42.746507
2.207261 77.842121 -43.4454
-10.525201 93.214505 -44.199894
-11.24168 92.055252 -45.085188
-11.886775 93.411648 -44.450235
-12.537771 94.713051 -43.750811
-13.111971 95.94954 -42.955633
-11.744497 95.807389 -42.769763
-11.886775 93.411648 -44.450235
-12.537771 94.713051 -43.750811
-8.785585 104.25439 -30.555977
-8.06769 104.532768 -29.083348
-11.148714 102.959007 -34.589556
-10.334552 103.472618 -33.296409
-9.75578 102.654899 -34.448923
-11.933687 102.357399 -35.847139
-12.512459 103.175117 -34.694626
-11.148714 102.959007 -34.589556
-11.333254 101.487652 -36.893404
-12.696998 101.703762 -36.998474
-11.933687 102.357399 -35.847139
-4.782102 87.918518 -44.625763
-5.339522 89.396332 -44.233958
-3.996252 88.993972 -43.757563
-4.277662 86.36026 -44.983362
-4.782102 87.918518 -44.625763
-2.996242 85.924186 -44.488337
-3.835072 84.768287 -45.32233
-4.277662 86.36026 -44.983362
3.080684 98.147438 -29.339411
1.664122 99.045613 -29.73989
2.374049 99.047673 -28.413575
3.636363 97.31353 -30.237164
3.080684 98.147438 -29.339411
-5.230702 104.189247 -25.977518
-6.606129 104.77166 -26.124193
-6.255375 78.321999 -48.069866
-5.055782 78.010166 -47.609707
-1.306388 98.275486 -34.795257
-0.487376 98.574154 -33.545534
2.297617 92.863877 -37.249466
0.918284 93.69529 -37.729709
4.46106 89.395283 -37.771574
5.177914 89.937893 -36.775553
3.671635 88.844288 -38.776798
3.189665 90.206856 -38.384089
4.46106 89.395283 -37.771574
4.03102 87.425812 -39.206459
2.759625 88.237385 -39.818973
3.671635 88.844288 -38.776798
5.036373 82.993046 -40.045388
4.739433 84.52686 -39.816101
4.179164 82.326874 -40.939943
5.036373 82.993046 -40.045388
-0.044414 78.925468 -44.741239
-1.188352 79.465553 -45.312494
-0.429794 80.560486 -44.609871
-0.044414 78.925468 -44.741239
1.100742 78.417908 -44.097438
-10.737586 90.619984 -45.690098
-11.24168 92.055252 -45.085188
-9.367064 90.500389 -45.329046
-10.737586 90.619984 -45.690098
-13.669039 97.08775 -42.137596
-12.978617 98.066136 -41.152824
-13.669039 97.08775 -42.137596
-13.111971 95.94954 -42.955633
0.284647 100.703026 -27.74513
-0.498204 100.764618 -29.102524
-1.171046 101.521797 -28.033601
1.666782 99.841706 -27.488919
0.284647 100.703026 -27.74513
2.374049 99.047673 -28.413575
1.666782 99.841706 -27.488919
-2.503152 102.855339 -25.753792
-3.902905 103.587254 -25.826557
-1.84214 102.241344 -26.895771
-2.503152 102.855339 -25.753792
-1.171046 101.521797 -28.033601
-2.624991 102.302937 -28.253165
-1.84214 102.241344 -26.895771
-9.572306 103.907188 -31.953002
-8.785585 104.25439 -30.555977
-8.154898 103.515713 -31.758752
-9.572306 103.907188 -31.953002
-10.334552 103.472618 -33.296409
-13.88398 103.337108 -34.750772
-12.512459 103.175117 -34.694626
-14.539371 102.613129 -36.019299
-13.88398 103.337108 -34.750772
-14.000346 101.767994 -37.156582
-14.539371 102.613129 -36.019299
-14.000346 101.767994 -37.156582
-12.696998 101.703762 -36.998474
-10.610627 100.566917 -37.839177
-11.333254 101.487652 -36.893404
-9.847316 101.220554 -36.687842
-11.459256 99.836372 -38.97726
-10.610627 100.566917 -37.839177
-9.973318 99.569275 -38.771698
-12.230242 98.963562 -40.120422
-11.459256 99.836372 -38.97726
-11.570322 97.941304 -40.942184
-12.978617 98.066136 -41.152824
-12.230242 98.963562 -40.120422
-4.81612 80.92519 -46.86529
-6.138933 81.353794 -47.336967
-5.379716 82.550133 -46.700578
-3.837155 77.627842 -47.113729
-5.055782 78.010166 -47.609707
-4.356711 79.346527 -47.005701
-1.970528 78.397369 -45.976793
-2.355908 80.032387 -45.845425
-1.188352 79.465553 -45.312494
-2.707963 77.253502 -46.608337
-1.970528 78.397369 -45.976793
-3.837155 77.627842 -47.113729
-2.707963 77.253502 -46.608337
-8.01536 90.207676 -44.98764
-9.367064 90.500389 -45.329046
-8.528403 91.565395 -44.49344
-6.651036 89.796779 -44.627097
-5.865185 90.872234 -43.758896
-5.339522 89.396332 -44.233958
-8.01536 90.207676 -44.98764
-6.651036 89.796779 -44.627097
-4.586698 83.662945 -46.023128
-5.379716 82.550133 -46.700578
-3.305277 83.226871 -45.528103
-4.586698 83.662945 -46.023128
-3.835072 84.768287 -45.32233
0.175674 98.866669 -32.272266
-0.487376 98.574154 -33.545534
-1.213647 99.554913 -32.711819
1.636351 98.015644 -31.885853
0.175674 98.866669 -32.272266
0.910079 98.996402 -31.052138
2.963631 97.181637 -31.50033
1.636351 98.015644 -31.885853
2.963631 97.181637 -31.50033
3.636363 97.31353 -30.237164
-7.35944 104.714546 -27.611114
-6.606129 104.77166 -26.124193
-6.659928 104.044693 -28.889492
-8.06769 104.532768 -29.083348
-7.35944 104.714546 -27.611114
-4.623882 103.624478 -27.266295
-5.230702 104.189247 -25.977518
-3.902905 103.587254 -25.826557
-6.800892 79.957088 -47.94309
-6.138933 81.353794 -47.336967
-6.800892 79.957088 -47.94309
-6.255375 78.321999 -48.069866
-2.160744 97.913395 -36.023573
-2.731054 98.900307 -35.213403
-1.306388 98.275486 -34.795257
-1.5668 96.777324 -36.821815
-2.991467 97.402146 -37.239961
-2.160744 97.913395 -36.023573
-0.999774 95.606876 -37.576363
-1.5668 96.777324 -36.821815
-0.391325 94.305065 -38.254107
-1.789073 94.964264 -38.715948
-0.999774 95.606876 -37.576363
0.128985 93.052678 -38.869295
-0.391325 94.305065 -38.254107
0.918284 93.69529 -37.729709
4.771767 91.180954 -36.280525
5.177914 89.937893 -36.775553
3.567865 92.021351 -36.766449
4.771767 91.180954 -36.280525
2.708842 91.600377 -37.861881
2.297617 92.863877 -37.249466
3.567865 92.021351 -36.766449
4.315621 86.008629 -39.592106
4.03102 87.425812 -39.206459
3.542821 85.33714 -40.472629
4.315621 86.008629 -39.592106
4.739433 84.52686 -39.816101
3.3619 81.416332 -41.815109
3.149369 82.944828 -41.571791
4.179164 82.326874 -40.939943
3.65944 79.833603 -41.9589
2.629645 80.451557 -42.590748
3.3619 81.416332 -41.815109
3.949204 78.273842 -42.028715
3.65944 79.833603 -41.9589
3.281947 77.242847 -42.746507
3.949204 78.273842 -42.028715
3 0 15 13
3 0 18 16
3 0 13 18
3 1 55 57
3 57 56 20
3 55 56 57
3 1 58 59
3 2 60 62
3 60 21 61
3 60 61 62
3 3 24 22
3 3 26 24
3 2 63 65
3 65 64 27
3 63 64 65
3 2 66 67
3 4 32 30
3 6 33 14
3 6 34 33
3 7 68 69
3 8 70 72
3 72 71 17
3 70 71 72
3 8 73 75
3 73 35 74
3 73 74 75
3 8 76 78
3 78 77 35
3 76 77 78
3 4 36 19
3 4 30 36
3 9 39 37
3 5 40 31
3 10 79 81
3 81 80 23
3 79 80 81
3 10 82 83
3 10 84 86
3 84 41 85
3 84 85 86
3 11 42 25
3 11 43 42
3 12 46 44
3 87 47 88
3 89 88 28
3 87 88 89
3 91 90 47
3 92 48 93
3 12 49 29
3 12 44 49
3 95 94 38
3 97 96 45
3 98 50 99
3 100 51 101
3 102 52 103
3 104 103 51
3 102 103 104
3 105 53 106
3 107 106 52
3 105 106 107
3 108 54 109
3 111 110 54
3 13 14 4
3 15 14 13
3 15 6 14
3 16 17 7
3 18 17 16
3 18 8 17
3 18 19 8
3 13 19 18
3 13 4 19
3 20 112 114
3 114 113 9
3 112 113 114
3 116 115 20
3 21 117 118
3 21 119 120
3 22 23 5
3 24 23 22
3 24 10 23
3 24 25 10
3 26 25 24
3 26 11 25
3 27 121 122
3 124 123 27
3 125 28 126
3 127 126 12
3 125 126 127
3 128 28 129
3 131 130 28
3 132 29 133
3 134 29 135
3 136 12 137
3 138 137 29
3 136 137 138
3 30 31 2
3 32 31 30
3 32 5 31
3 14 32 4
3 33 32 14
3 33 5 32
3 33 22 5
3 34 22 33
3 34 3 22
3 17 139 141
3 141 140 7
3 139 140 141
3 143 142 17
3 35 144 145
3 35 146 147
3 35 148 149
3 151 150 35
3 19 152 154
3 154 153 8
3 152 153 154
3 36 155 157
3 157 156 19
3 155 156 157
3 36 158 159
3 36 160 162
3 160 27 161
3 160 161 162
3 30 27 36
3 30 2 27
3 37 163 165
3 163 38 164
3 163 164 165
3 39 38 37
3 39 166 168
3 168 167 38
3 166 167 168
3 169 39 170
3 171 170 9
3 169 170 171
3 172 39 173
3 175 174 39
3 31 21 2
3 40 21 31
3 40 176 178
3 178 177 21
3 176 177 178
3 23 40 5
3 179 40 180
3 181 180 23
3 179 180 181
3 183 182 40
3 184 37 185
3 41 186 188
3 186 37 187
3 186 187 188
3 41 9 37
3 25 41 10
3 42 41 25
3 42 9 41
3 42 20 9
3 43 20 42
3 43 1 20
3 44 45 0
3 46 45 44
3 46 189 191
3 191 190 45
3 189 190 191
3 28 46 12
3 47 46 28
3 47 192 194
3 194 193 46
3 192 193 194
3 47 195 196
3 198 197 47
3 48 199 200
3 48 201 203
3 201 7 202
3 201 202 203
3 29 204 206
3 204 48 205
3 204 205 206
3 49 48 29
3 49 7 48
3 49 16 7
3 44 16 49
3 44 0 16
3 38 207 208
3 210 209 38
3 45 15 0
3 211 15 212
3 213 212 45
3 211 212 213
3 214 6 215
3 216 215 15
3 214 215 216
3 217 6 218
3 219 34 220
3 221 220 6
3 219 220 221
3 50 222 224
3 222 34 223
3 222 223 224
3 50 3 34
3 51 225 226
3 51 227 228
3 51 229 231
3 229 50 230
3 229 230 231
3 52 50 51
3 52 3 50
3 52 26 3
3 53 26 52
3 53 11 26
3 232 53 233
3 54 234 236
3 234 53 235
3 234 235 236
3 54 11 53
3 54 43 11
3 237 43 238
3 239 238 54
3 237 238 239
3 240 1 241
3 242 241 43
3 240 241 242
3 243 1 244
3 246 245 1
