ply
format ascii 1.0
element vertex 469
property float x
property float y
property float z
element face 416
property list uchar int vertex_index
end_header
6.71544 -90.80027 12.810859
20.730097 -88.66684 20.394104
18.45204 -103.946091 -3.958584
14.020739 -91.408318 16.246325
19.815891 -96.833145 8.564652
12.459198 -98.9534 4.453597
4.244252 -105.710678 -17.944674
10.502793 -91.340057 14.456697
13.335861 -95.291672 10.424591
9.303032 -95.111969 8.619412
5.405323 -94.311111 7.394632
21.167955 -104.700188 -8.145055
7.036388 -105.585159 -12.707526
17.551046 -90.633789 18.288141
20.335443 -92.861717 14.416763
16.845915 -94.594048 12.416327
16.364214 -98.395279 6.49726
15.446519 -101.934677 0.28699
6.372864 -101.067184 -2.611961
18.285086 -86.530235 24.153614
14.938189 -87.47007 22.107159
11.575616 -87.564949 20.126755
7.893029 -87.004333 18.331787
2.842339 -89.746735 11.812254
8.66953 -91.213882 13.496856
9.893643 -93.225006 11.570768
7.944204 -92.98793 10.72721
7.350469 -94.749016 7.976014
5.909659 -92.497604 10.137292
21.958254 -89.487228 18.262781
20.254152 -102.991234 -2.767775
21.687775 -103.301338 -4.961048
19.922195 -104.413567 -5.92662
15.788897 -91.180939 17.20532
17.26502 -92.692955 15.275525
15.469049 -93.161308 14.27794
12.78385 -97.083839 7.517138
14.764626 -97.017143 8.335466
14.368296 -98.790726 5.427238
15.853587 -100.280121 3.297647
13.798676 -100.61824 2.208992
13.249037 -102.133629 -0.679531
7.359897 -99.912979 0.113867
5.049132 -99.246834 -0.347741
3.927185 -100.312149 -3.14881
17.104103 -85.146805 26.024597
16.608959 -87.188568 23.047678
15.498302 -85.456764 25.130835
12.053413 -85.723427 22.889526
9.744467 -87.412834 19.097404
1.869632 -87.352249 14.181757
21.35597 -95.621384 9.57072
10.853 -105.660316 -9.516443
2.794988 -105.358154 -20.442392
12.329015 -91.487717 15.307596
13.714231 -93.370056 13.356758
11.802374 -93.376045 12.429012
11.300409 -95.253326 9.518431
10.86274 -97.154915 6.490369
10.27626 -98.883331 3.504695
8.780804 -96.948059 5.652579
6.755521 -96.472122 5.145557
4.500126 -95.767937 4.75315
19.646313 -98.727646 5.568547
21.269693 -97.695778 6.33554
22.284239 -104.642845 -10.274902
8.372651 -105.205933 -10.174886
5.748119 -104.38279 -10.520716
4.455441 -104.741379 -13.270732
19.142925 -89.808273 19.354237
20.493172 -90.766899 17.453379
18.923754 -91.913239 16.317648
18.655983 -93.871254 13.443774
18.349403 -95.834007 10.504658
15.14784 -95.112762 11.326884
16.585836 -96.535492 9.439753
18.157316 -97.927246 7.25674
17.814287 -99.692566 4.370816
17.464678 -101.389 1.416432
17.032303 -103.090042 -1.839478
14.933629 -103.441696 -2.728243
10.324411 -103.421059 -4.545989
9.558949 -100.350586 0.704423
8.831062 -101.762283 -2.215405
7.964358 -102.869278 -4.962388
5.553742 -102.197601 -5.49214
21.000208 -86.613426 23.226795
19.890059 -85.63665 25.168894
19.511461 -87.705956 22.293329
17.851374 -88.541901 21.28894
16.3111 -89.257378 20.066072
14.500979 -89.47213 19.143475
13.816111 -85.565269 24.186989
13.257843 -87.60775 21.092009
12.739014 -89.515724 18.208704
11.048181 -89.523201 17.198641
9.132096 -89.286247 16.278299
7.477905 -89.027145 15.524429
5.579556 -88.526367 14.932711
3.718962 -88.028122 14.412292
4.744067 -90.254463 12.295531
4.098916 -92.019875 9.66488
22.647263 -96.104546 7.538077
21.344175 -89.077034 19.328443
22.048215 -88.456672 19.69427
21.434137 -88.046479 20.759932
19.353096 -103.468662 -3.36318
19.540689 -102.699131 -1.78291
18.639634 -103.176559 -2.378315
18.169634 -104.610672 -5.503227
18.904711 -104.84441 -6.487246
19.187117 -104.179829 -4.942602
12.096099 -99.711693 3.038628
12.765837 -100.544113 1.916325
13.128937 -99.78582 3.331295
4.305392 -98.184292 0.857855
5.436573 -98.533726 1.082046
3.86748 -98.78249 -0.463772
4.305392 -98.184292 0.857855
16.542821 -84.341972 27.003982
17.379534 -84.13932 27.499214
15.739921 -84.496952 26.557101
16.301202 -85.301784 25.577716
16.542821 -84.341972 27.003982
20.58593 -96.227265 9.067686
20.696486 -95.193226 10.623488
19.926446 -95.799106 10.120454
10.079429 -105.01015 -8.395633
11.361123 -105.215542 -8.091992
5.618114 -106.217998 -17.895082
5.051609 -105.800525 -16.730438
4.812149 -106.070709 -19.136491
5.618114 -106.217998 -17.895082
3.51962 -105.534416 -19.193533
4.087516 -105.894447 -20.38535
4.812149 -106.070709 -19.136491
20.319838 -99.107899 4.539011
19.494519 -99.701179 3.936211
22.036088 -103.971142 -7.551011
22.295998 -103.271717 -5.959008
21.427865 -104.000763 -6.553051
21.726097 -104.671516 -9.209979
22.59423 -103.94247 -8.615934
22.036088 -103.971142 -7.551011
20.832813 -105.287994 -9.767581
21.390955 -105.259323 -10.832505
21.726097 -104.671516 -9.209979
5.03582 -103.638706 -9.376264
6.319454 -104.104649 -9.234766
3.137486 -104.152767 -13.398309
3.81784 -104.077084 -12.110416
3.82199 -104.768265 -14.463684
3.137486 -104.152767 -13.398309
12.954731 -102.873607 -2.229379
12.203187 -102.0938 -1.062784
10.740873 -102.737515 -2.996012
11.492418 -103.517323 -4.162608
8.832214 -99.444042 1.762716
9.917604 -99.616959 2.104559
9.19087 -98.710414 3.162852
3.440571 -100.749806 -4.479297
2.709894 -99.767582 -3.22224
21.184977 -85.570091 24.634047
21.718144 -85.966728 23.567372
19.087573 -86.083443 24.661254
19.380686 -85.032238 26.152043
18.5782 -85.47903 25.644402
13.19301 -84.618511 25.088048
14.021108 -84.592114 25.630218
5.045248 -87.330269 16.03744
5.900258 -87.588642 16.279093
21.035801 -92.213589 14.904234
21.114665 -91.166179 16.422542
20.414307 -91.814308 15.935071
22.582153 -97.132973 5.941749
21.958478 -96.900162 6.936808
21.893369 -97.928589 5.34048
8.400033 -105.962162 -12.572449
9.068165 -105.772549 -11.306129
7.704519 -105.395546 -11.441206
22.593892 -88.717949 18.627755
22.048215 -88.456672 19.69427
22.500737 -89.755909 17.22826
22.593892 -88.717949 18.627755
20.482081 -102.187935 -1.270277
19.540689 -102.699131 -1.78291
21.153512 -102.386078 -2.336587
20.482081 -102.187935 -1.270277
20.970963 -103.146286 -3.864412
21.870323 -102.54113 -3.433224
21.153512 -102.386078 -2.336587
19.604601 -105.077961 -7.592302
20.22748 -105.221272 -8.701519
20.545075 -104.556877 -7.035837
19.604601 -105.077961 -7.592302
18.904711 -104.84441 -6.487246
12.491018 -101.301807 0.472064
13.523857 -101.375934 0.76473
12.765837 -100.544113 1.916325
12.203187 -102.0938 -1.062784
12.491018 -101.301807 0.472064
6.591956 -98.866799 1.31285
7.732689 -99.225239 1.467438
6.204515 -99.579907 -0.116937
6.591956 -98.866799 1.31285
5.436573 -98.533726 1.082046
3.306507 -99.315147 -1.864306
4.488158 -99.779492 -1.748276
3.86748 -98.78249 -0.463772
2.709894 -99.767582 -3.22224
3.306507 -99.315147 -1.864306
17.987708 -84.787316 26.579894
17.379534 -84.13932 27.499214
17.694595 -85.83852 25.089106
18.5782 -85.47903 25.644402
17.987708 -84.787316 26.579894
11.504043 -84.676983 23.885295
12.311661 -84.69759 24.439317
11.197668 -85.640346 22.401521
11.504043 -84.676983 23.885295
10.958769 -86.561107 21.020135
11.814515 -86.644188 21.50814
11.197668 -85.640346 22.401521
10.043195 -86.48505 20.50546
10.660042 -87.488891 19.61208
10.958769 -86.561107 21.020135
9.168228 -86.287769 20.114741
10.043195 -86.48505 20.50546
8.242508 -86.083518 19.731932
8.818748 -87.208584 18.714596
9.168228 -86.287769 20.114741
0.931463 -86.949913 14.166182
1.369642 -86.08567 15.403591
1.402748 -88.159104 12.944194
0.931463 -86.949913 14.166182
1.889101 -89.356347 11.759442
2.355986 -88.549492 12.997006
1.402748 -88.159104 12.944194
2.406973 -90.502854 10.599123
1.889101 -89.356347 11.759442
20.9463 -93.270184 13.398849
20.186222 -93.813392 13.046509
21.456563 -94.650017 10.975827
20.696486 -95.193226 10.623488
22.076654 -94.892319 9.96162
21.456563 -94.650017 10.975827
12.078701 -105.761657 -9.15775
11.361123 -105.215542 -8.091992
11.587571 -106.181816 -10.671098
12.078701 -105.761657 -9.15775
7.714044 -106.114532 -13.892684
6.447677 -105.737766 -14.111864
3.289343 -105.605919 -21.680877
4.087516 -105.894447 -20.38535
1.957898 -104.988239 -21.525404
3.289343 -105.605919 -21.680877
8.443142 -97.742779 4.236794
9.19087 -98.710414 3.162852
9.528532 -97.915695 4.578637
7.4305 -97.50481 3.983283
8.443142 -97.742779 4.236794
7.768162 -96.710091 5.399068
6.289767 -97.14637 3.828695
7.4305 -97.50481 3.983283
5.16207 -96.794277 3.632491
6.289767 -97.14637 3.828695
5.627823 -96.12003 4.949353
4.030889 -96.444844 3.408301
5.16207 -96.794277 3.632491
21.131529 -98.591965 4.922508
20.458003 -98.211712 5.952044
20.319838 -99.107899 4.539011
21.893369 -97.928589 5.34048
21.131529 -98.591965 4.922508
22.486903 -102.516197 -4.37643
21.870323 -102.54113 -3.433224
22.486903 -102.516197 -4.37643
22.295998 -103.271717 -5.959008
23.009124 -103.915836 -9.78141
22.59423 -103.94247 -8.615934
22.713217 -104.504619 -11.397479
23.009124 -103.915836 -9.78141
21.853534 -105.207668 -11.925937
22.713217 -104.504619 -11.397479
21.853534 -105.207668 -11.925937
21.390955 -105.259323 -10.832505
20.832813 -105.287994 -9.767581
20.22748 -105.221272 -8.701519
7.63172 -104.516221 -9.061851
8.839255 -104.782959 -8.724854
7.060385 -104.794362 -10.347801
7.63172 -104.516221 -9.061851
6.319454 -104.104649 -9.234766
4.464179 -103.897789 -10.735409
5.03582 -103.638706 -9.376264
5.10178 -104.562084 -11.895724
4.464179 -103.897789 -10.735409
3.81784 -104.077084 -12.110416
5.157203 -105.315876 -14.393467
6.447677 -105.737766 -14.111864
5.745914 -105.163269 -12.989129
5.157203 -105.315876 -14.393467
3.82199 -104.768265 -14.463684
3.716395 -105.252915 -16.800655
5.051609 -105.800525 -16.730438
2.970061 -105.120521 -17.9864
3.716395 -105.252915 -16.800655
19.346492 -94.318161 12.560015
20.186222 -93.813392 13.046509
19.495713 -93.366485 13.930269
19.193202 -95.299537 11.090457
19.346492 -94.318161 12.560015
18.502693 -94.852631 11.974216
19.082647 -96.333576 9.534655
19.926446 -95.799106 10.120454
19.193202 -95.299537 11.090457
18.578506 -100.183639 3.337346
19.494519 -99.701179 3.936211
18.7303 -99.210106 4.969682
18.403702 -101.031857 1.860154
18.578506 -100.183639 3.337346
17.639482 -100.540783 2.893624
18.145952 -101.898014 0.309193
18.403702 -101.031857 1.860154
17.929765 -102.748535 -1.318762
18.145952 -101.898014 0.309193
17.24849 -102.239521 -0.211523
17.742171 -103.518067 -2.899031
18.639634 -103.176559 -2.378315
17.929765 -102.748535 -1.318762
16.727041 -103.83274 -3.438964
17.43691 -104.260765 -4.498517
17.742171 -103.518067 -2.899031
15.677704 -104.008567 -3.883347
16.727041 -103.83274 -3.438964
15.982966 -103.265869 -2.28386
14.596811 -104.142265 -4.32603
15.677704 -104.008567 -3.883347
13.797027 -103.527641 -3.253735
14.091333 -102.787662 -1.703887
12.954731 -102.873607 -2.229379
14.596811 -104.142265 -4.32603
13.797027 -103.527641 -3.253735
11.096829 -104.095913 -5.606764
11.492418 -103.517323 -4.162608
9.815135 -103.890522 -5.910405
11.096829 -104.095913 -5.606764
11.00463 -99.676659 2.564177
12.096099 -99.711693 3.038628
11.367729 -98.918365 3.979146
10.645974 -100.410286 1.164041
11.00463 -99.676659 2.564177
9.917604 -99.616959 2.104559
10.358142 -101.202278 -0.370807
10.645974 -100.410286 1.164041
8.459423 -100.131783 0.409145
8.832214 -99.444042 1.762716
7.732689 -99.225239 1.467438
9.994199 -101.908127 -1.83072
10.358142 -101.202278 -0.370807
9.195006 -101.056434 -0.755491
9.577737 -102.591671 -3.380697
10.740873 -102.737515 -2.996012
9.994199 -101.908127 -1.83072
8.635108 -103.614632 -6.118605
9.815135 -103.890522 -5.910405
9.144384 -103.145168 -4.754188
7.427573 -103.347893 -6.455602
8.635108 -103.614632 -6.118605
6.222265 -103.012055 -6.720478
7.427573 -103.347893 -6.455602
6.75905 -102.53344 -5.227264
4.938631 -102.546112 -6.861976
6.222265 -103.012055 -6.720478
4.25385 -101.692532 -5.650962
4.740463 -101.254875 -4.320475
3.440571 -100.749806 -4.479297
4.938631 -102.546112 -6.861976
4.25385 -101.692532 -5.650962
21.569192 -87.019772 22.176277
21.718144 -85.966728 23.567372
20.865153 -87.640133 21.810449
21.434137 -88.046479 20.759932
21.569192 -87.019772 22.176277
20.152144 -84.608055 26.570963
19.380686 -85.032238 26.152043
20.629902 -85.081703 25.605096
20.152144 -84.608055 26.570963
20.445134 -86.125038 24.197845
21.184977 -85.570091 24.634047
20.629902 -85.081703 25.605096
14.862203 -84.537861 26.102141
15.739921 -84.496952 26.557101
14.657207 -85.511017 24.658912
14.862203 -84.537861 26.102141
14.021108 -84.592114 25.630218
12.934762 -85.644348 23.538258
13.19301 -84.618511 25.088048
12.311661 -84.69759 24.439317
7.347005 -85.829643 19.388293
8.242508 -86.083518 19.731932
7.056995 -86.827625 17.978631
7.347005 -85.829643 19.388293
6.849433 -87.839031 16.574952
7.685467 -88.015739 16.928108
7.056995 -86.827625 17.978631
6.52873 -88.776756 15.22857
6.849433 -87.839031 16.574952
5.900258 -87.588642 16.279093
2.292997 -86.466068 15.457515
1.369642 -86.08567 15.403591
3.217662 -86.804004 15.572783
2.292997 -86.466068 15.457515
2.794297 -87.690185 14.297024
4.11495 -87.081146 15.77723
3.217662 -86.804004 15.572783
4.649259 -88.277244 14.672501
5.045248 -87.330269 16.03744
4.11495 -87.081146 15.77723
3.035262 -91.639423 9.525436
3.470627 -90.883305 10.738567
2.406973 -90.502854 10.599123
3.662685 -92.785225 8.375666
3.035262 -91.639423 9.525436
4.315888 -93.930843 7.240541
4.75212 -93.165493 8.529756
3.662685 -92.785225 8.375666
3.863289 -94.659256 5.919801
4.952725 -95.039524 6.073891
4.315888 -93.930843 7.240541
3.398471 -95.336689 4.65473
3.863289 -94.659256 5.919801
4.030889 -96.444844 3.408301
3.398471 -95.336689 4.65473
21.847206 -90.526344 16.827243
21.225713 -90.127063 17.85808
21.114665 -91.166179 16.422542
22.500737 -89.755909 17.22826
21.847206 -90.526344 16.827243
21.035801 -92.213589 14.904234
20.9463 -93.270184 13.398849
22.7223 -95.1339 8.945299
22.076654 -94.892319 9.96162
22.001616 -95.862965 8.554398
23.215353 -96.291073 6.40135
22.582153 -97.132973 5.941749
23.253108 -95.274518 7.925159
23.215353 -96.291073 6.40135
22.7223 -95.1339 8.945299
23.253108 -95.274518 7.925159
18.169634 -104.610672 -5.503227
17.43691 -104.260765 -4.498517
9.612825 -105.433124 -9.845665
10.079429 -105.01015 -8.395633
8.839255 -104.782959 -8.724854
10.308339 -105.999741 -10.976907
9.612825 -105.433124 -9.845665
9.068165 -105.772549 -11.306129
11.587571 -106.181816 -10.671098
10.308339 -105.999741 -10.976907
8.400033 -105.962162 -12.572449
7.714044 -106.114532 -13.892684
2.245429 -104.94426 -19.235259
3.51962 -105.534416 -19.193533
2.970061 -105.120521 -17.9864
1.436062 -104.658741 -20.44942
2.245429 -104.94426 -19.235259
1.957898 -104.988239 -21.525404
1.436062 -104.658741 -20.44942
3 0 26 24
3 0 28 26
3 1 103 105
3 103 29 104
3 103 104 105
3 2 106 108
3 106 30 107
3 106 107 108
3 2 32 30
3 2 109 111
3 111 110 32
3 109 110 111
3 3 35 33
3 5 38 36
3 5 40 38
3 5 112 114
3 114 113 40
3 112 113 114
3 115 43 116
3 118 117 43
3 119 45 120
3 121 47 122
3 123 122 45
3 121 122 123
3 4 124 126
3 124 51 125
3 124 125 126
3 127 52 128
3 6 129 130
3 6 131 132
3 6 133 135
3 133 53 134
3 133 134 135
3 7 56 54
3 9 57 25
3 9 58 57
3 9 60 58
3 10 61 27
3 10 62 61
3 137 136 63
3 11 138 140
3 140 139 31
3 138 139 140
3 11 141 143
3 141 65 142
3 141 142 143
3 11 144 146
3 146 145 65
3 144 145 146
3 147 67 148
3 149 68 150
3 152 151 68
3 13 71 69
3 15 72 34
3 15 73 72
3 8 74 55
3 16 75 37
3 16 76 75
3 16 77 76
3 17 78 39
3 17 79 78
3 17 80 79
3 154 153 41
3 155 81 156
3 157 82 158
3 159 158 59
3 157 158 159
3 18 83 42
3 18 84 83
3 18 85 84
3 161 160 44
3 162 86 163
3 19 164 166
3 164 87 165
3 164 165 166
3 19 88 87
3 19 89 88
3 20 90 46
3 20 91 90
3 167 92 168
3 21 93 48
3 21 94 93
3 21 95 94
3 22 96 49
3 22 97 96
3 169 98 170
3 23 99 50
3 23 100 99
3 23 101 100
3 14 171 173
3 173 172 70
3 171 172 173
3 174 102 175
3 176 175 64
3 174 175 176
3 12 177 179
3 179 178 66
3 177 178 179
3 24 25 7
3 26 25 24
3 26 9 25
3 26 27 9
3 28 27 26
3 28 10 27
3 29 180 181
3 29 182 183
3 30 184 185
3 30 186 187
3 30 188 190
3 188 31 189
3 188 189 190
3 32 31 30
3 32 11 31
3 32 191 193
3 193 192 11
3 191 192 193
3 195 194 32
3 33 34 13
3 35 34 33
3 35 15 34
3 36 37 8
3 38 37 36
3 38 16 37
3 38 39 16
3 40 39 38
3 40 17 39
3 40 41 17
3 196 41 197
3 198 197 40
3 196 197 198
3 200 199 41
3 201 42 202
3 43 203 205
3 203 42 204
3 203 204 205
3 43 18 42
3 43 44 18
3 206 44 207
3 208 207 43
3 206 207 208
3 210 209 44
3 45 211 212
3 45 213 215
3 213 19 214
3 213 214 215
3 45 46 19
3 47 46 45
3 47 20 46
3 216 48 217
3 218 48 219
3 220 21 221
3 222 221 48
3 220 221 222
3 223 49 224
3 225 224 21
3 223 224 225
3 226 49 227
3 228 22 229
3 230 229 49
3 228 229 230
3 231 50 232
3 233 50 234
3 235 23 236
3 237 236 50
3 235 236 237
3 239 238 23
3 241 240 14
3 51 242 243
3 51 244 245
3 52 246 247
3 52 248 249
3 251 250 12
3 53 252 253
3 53 254 255
3 54 55 3
3 56 55 54
3 56 8 55
3 25 56 7
3 57 56 25
3 57 8 56
3 57 36 8
3 58 36 57
3 58 5 36
3 58 59 5
3 60 59 58
3 60 256 258
3 258 257 59
3 256 257 258
3 27 60 9
3 61 60 27
3 61 259 261
3 261 260 60
3 259 260 261
3 61 262 263
3 62 264 266
3 266 265 61
3 264 265 266
3 62 267 268
3 63 64 4
3 269 64 270
3 271 270 63
3 269 270 271
3 273 272 64
3 31 274 275
3 277 276 31
3 65 278 279
3 65 280 281
3 65 282 283
3 285 284 65
3 287 286 11
3 288 66 289
3 67 290 292
3 290 66 291
3 290 291 292
3 67 12 66
3 293 67 294
3 68 295 297
3 295 67 296
3 295 296 297
3 68 12 67
3 68 298 300
3 300 299 12
3 298 299 300
3 302 301 68
3 303 6 304
3 306 305 6
3 69 70 1
3 71 70 69
3 71 14 70
3 34 71 13
3 72 71 34
3 72 14 71
3 72 307 309
3 309 308 14
3 307 308 309
3 73 310 312
3 312 311 72
3 310 311 312
3 73 313 315
3 313 4 314
3 313 314 315
3 55 35 3
3 74 35 55
3 74 15 35
3 37 74 8
3 75 74 37
3 75 15 74
3 75 73 15
3 76 73 75
3 76 4 73
3 76 63 4
3 77 63 76
3 77 316 318
3 318 317 63
3 316 317 318
3 39 77 16
3 78 77 39
3 78 319 321
3 321 320 77
3 319 320 321
3 78 322 323
3 79 324 326
3 326 325 78
3 324 325 326
3 79 327 329
3 327 2 328
3 327 328 329
3 79 330 332
3 332 331 2
3 330 331 332
3 80 333 335
3 335 334 79
3 333 334 335
3 80 336 337
3 41 80 17
3 338 80 339
3 340 339 41
3 338 339 340
3 342 341 80
3 81 343 344
3 81 345 346
3 59 347 349
3 349 348 5
3 347 348 349
3 82 350 352
3 352 351 59
3 350 351 352
3 82 353 354
3 42 355 357
3 355 82 356
3 355 356 357
3 83 82 42
3 83 358 360
3 360 359 82
3 358 359 360
3 83 361 363
3 361 81 362
3 361 362 363
3 84 81 83
3 84 364 366
3 366 365 81
3 364 365 366
3 84 367 368
3 85 369 371
3 371 370 84
3 369 370 371
3 85 372 373
3 44 85 18
3 374 85 375
3 376 375 44
3 374 375 376
3 378 377 85
3 86 379 380
3 86 381 383
3 381 1 382
3 381 382 383
3 87 384 385
3 87 386 387
3 87 388 390
3 388 86 389
3 388 389 390
3 88 86 87
3 88 1 86
3 88 69 1
3 89 69 88
3 89 13 69
3 46 89 19
3 90 89 46
3 90 13 89
3 90 33 13
3 91 33 90
3 91 3 33
3 391 47 392
3 92 393 395
3 393 47 394
3 393 394 395
3 92 20 47
3 48 396 398
3 396 92 397
3 396 397 398
3 93 92 48
3 93 20 92
3 93 91 20
3 94 91 93
3 94 3 91
3 94 54 3
3 95 54 94
3 95 7 54
3 49 95 21
3 96 95 49
3 96 7 95
3 96 24 7
3 97 24 96
3 97 0 24
3 399 22 400
3 401 22 402
3 403 97 404
3 405 404 22
3 403 404 405
3 98 406 408
3 406 97 407
3 406 407 408
3 98 0 97
3 50 409 410
3 99 411 413
3 413 412 50
3 411 412 413
3 99 414 415
3 99 416 418
3 416 98 417
3 416 417 418
3 100 98 99
3 100 0 98
3 100 28 0
3 101 28 100
3 101 10 28
3 419 101 420
3 421 420 23
3 419 420 421
3 422 101 423
3 424 10 425
3 426 425 101
3 424 425 426
3 427 62 428
3 429 428 10
3 427 428 429
3 430 62 431
3 433 432 62
3 70 29 1
3 434 29 435
3 436 435 70
3 434 435 436
3 438 437 29
3 440 439 14
3 64 51 4
3 102 51 64
3 102 441 443
3 443 442 51
3 441 442 443
3 444 102 445
3 446 102 447
3 449 448 102
3 451 450 2
3 66 452 454
3 452 52 453
3 452 453 454
3 455 52 456
3 457 456 66
3 455 456 457
3 459 458 52
3 461 460 12
3 462 53 463
3 464 463 6
3 462 463 464
3 465 53 466
3 468 467 53
