ply
format ascii 1.0
element vertex 673
property float x
property float y
property float z
element face 711
property list uchar int vertex_index
end_header
33.974335 -22.29842 20.886658
27.849581 -41.851936 -12.872649
19.460794 -35.967686 -27.964001
28.945545 -28.682827 36.169899
30.450136 -45.620106 3.771632
23.400646 -51.765026 -18.603907
36.584541 -19.749786 12.602581
34.187229 -32.794403 3.863836
33.552994 -34.407307 12.772553
24.56238 -39.256119 -20.639332
29.604414 -14.397416 34.468029
31.026176 -25.521042 28.425035
31.740616 -36.802692 21.136841
30.491474 -47.552307 12.481263
33.322235 -30.799561 -5.403019
29.683142 -43.779404 -4.638562
35.382965 -21.024178 16.931101
35.064598 -27.582048 12.72595
34.119644 -28.335255 16.925949
29.277662 -35.453976 -13.460328
27.381844 -34.329094 -17.670345
26.425766 -40.592293 -16.819839
22.289967 -50.241726 -21.904734
28.442852 -23.637499 39.064934
29.175957 -21.833649 35.176369
30.295212 -19.907303 31.567774
29.838181 -27.1752 32.175602
31.392347 -42.443401 16.873192
32.34119 -39.297249 3.805891
32.148197 -38.313004 -0.512878
30.064226 -44.973446 -0.532168
22.192923 -31.73815 -25.598616
26.37813 -47.975124 -12.204312
25.373251 -46.833282 -15.951728
37.306957 -18.964251 7.964729
35.979649 -25.583157 3.611015
35.783794 -26.365383 8.231239
34.03297 -33.631683 8.427565
32.309242 -40.169319 8.41226
17.379654 -39.698597 -30.032179
24.932831 -33.128338 -21.820173
22.304073 -37.809669 -24.249537
24.037256 -45.470123 -19.61463
22.246288 -43.991093 -23.216719
20.021055 -42.115612 -26.681282
31.728838 -17.807615 28.056768
32.49411 -23.713829 24.614931
31.60264 -31.055868 24.87591
32.850925 -29.76342 20.983223
32.687004 -35.680317 17.051748
31.914778 -41.406208 12.596824
30.581156 -46.507332 8.186147
30.59948 -36.461582 -9.410638
33.954544 -31.922722 -0.725114
31.60796 -37.355885 -4.930292
28.899755 -42.872055 -8.89602
27.158449 -48.855785 -8.468848
34.538067 -18.34815 20.77087
34.692825 -21.749527 18.908791
34.73103 -24.898167 16.96513
34.103897 -25.384352 18.983583
28.593338 -38.528828 -13.215096
27.804094 -38.048683 -15.235498
27.163055 -41.378143 -14.843853
28.665306 -26.157694 37.681774
28.739868 -22.847355 37.182095
29.033983 -25.249914 35.646721
29.508404 -24.508762 33.657639
29.360149 -27.902363 34.086304
31.32476 -42.702011 3.757414
31.226494 -42.228409 1.576911
30.261072 -45.361206 1.60872
29.149281 -47.832176 -0.594887
29.373827 -48.233788 1.57425
20.795809 -33.859024 -26.768446
37.237011 -16.156733 12.232774
37.669376 -15.635006 9.992383
36.977856 -19.569475 10.24658
36.553646 -22.781061 8.198047
36.255363 -23.172352 10.584237
34.280399 -31.208855 12.734976
34.679066 -30.474985 10.570134
33.800491 -34.192635 10.489032
33.128117 -37.121815 8.262529
32.987156 -37.430534 10.656374
16.547457 -41.739803 -30.999741
25.96694 -36.745113 -19.158575
26.19235 -33.779503 -19.795567
24.817108 -36.063927 -21.155403
23.503078 -35.47237 -23.144209
23.508736 -38.429657 -22.456171
24.297705 -49.410587 -17.296534
24.777792 -46.160824 -17.745737
23.754704 -48.543362 -19.075043
22.246763 -47.143532 -22.621958
21.335327 -46.282696 -24.351988
21.163351 -43.168472 -24.997602
20.332556 -45.358818 -26.004982
19.144764 -44.262833 -27.73498
30.692245 -22.613098 29.977278
30.990198 -18.834585 29.783884
31.398664 -21.631502 28.151449
32.131248 -20.807047 26.379284
31.735815 -24.706959 26.498917
31.254753 -37.393257 23.187166
31.179281 -34.562557 25.056236
31.714636 -34.118538 22.991096
32.232925 -30.473278 22.853346
32.275597 -33.529713 20.963116
32.842556 -32.652042 19.113817
32.211723 -36.336933 19.069344
31.010258 -45.047199 14.696083
31.678877 -41.923466 14.661827
31.161106 -44.619183 12.464441
31.305691 -44.040005 10.368873
30.49976 -47.250607 10.294646
31.412113 -33.339188 -9.513145
31.991711 -33.816429 -7.309455
35.154175 -29.066341 3.798532
35.030781 -28.86203 1.478652
34.192131 -32.16378 1.7256
30.910721 -41.131069 -2.717758
31.876879 -37.905079 -2.869771
30.609795 -40.639442 -4.934379
30.182789 -40.336754 -7.057629
29.285952 -43.479084 -6.765782
28.032038 -45.88628 -8.684818
28.399048 -46.370453 -6.626885
36.026768 -20.309496 14.842434
35.84901 -23.669178 12.725397
35.340073 -24.210604 14.869024
34.640163 -27.89234 14.850358
33.878143 -31.536198 14.973412
28.422806 -34.809761 -15.564109
26.953741 -37.466881 -17.167065
25.590096 -39.868164 -18.698154
22.897108 -51.002113 -20.268705
28.884487 -19.307274 36.650948
29.653927 -20.929121 33.465733
30.036818 -23.640734 31.863588
30.405008 -26.233526 30.283609
30.483013 -41.197845 25.30895
30.838423 -40.844505 23.204653
31.265781 -40.064766 21.098257
31.644657 -39.612106 19.0714
31.090235 -42.913628 19.085094
30.811588 -45.50053 17.003685
33.239834 -36.181519 3.735108
33.23756 -35.520096 1.552463
32.233849 -38.932079 1.574798
31.095629 -41.676731 -0.613701
29.956615 -44.245342 -2.515646
28.705404 -46.837624 -4.592784
28.981041 -47.177509 -2.681294
27.063635 -45.088772 -12.591047
26.57453 -44.282005 -14.490727
25.905823 -47.36409 -14.14996
23.88727 -52.299625 -16.80759
28.418005 -27.277382 39.639145
28.657692 -29.644958 38.124798
38.021347 -14.833365 7.771235
37.481113 -18.535967 5.676906
36.71117 -22.438553 5.8156
35.932827 -26.006802 5.873126
35.076248 -29.608335 5.951861
35.454254 -27.067793 10.472225
34.896698 -30.17745 8.222679
34.147388 -33.241547 6.058037
33.252544 -36.559887 6.121084
32.293114 -39.961349 6.009466
31.451294 -42.913303 6.083328
18.357813 -37.887463 -29.013542
33.755188 -19.083277 22.637241
23.634109 -32.558327 -23.675737
22.179892 -34.781487 -24.978306
20.872143 -36.836746 -26.209419
25.869738 -43.650383 -16.520096
25.108717 -43.010796 -18.400393
24.245596 -42.421883 -20.226137
23.078619 -47.736965 -20.854067
23.153423 -44.781055 -21.507366
23.278286 -41.553505 -22.078821
22.204939 -40.920933 -23.828941
21.047274 -39.852859 -25.578518
19.787031 -38.892834 -27.262495
18.81596 -41.002125 -28.281618
17.92997 -42.95763 -29.326683
17.156937 -45.125889 -30.3629
30.575157 -16.110685 31.345572
32.95369 -19.950277 24.468594
33.239925 -23.08238 22.716713
28.934444 -32.059151 36.561703
29.263309 -31.221903 34.547543
29.692074 -30.719902 32.460117
30.164976 -29.66045 30.605402
30.72146 -29.090542 28.640221
30.985546 -31.86331 26.898989
31.368286 -28.210587 26.665966
32.057606 -27.457605 24.686195
32.74107 -26.874805 22.750132
33.444683 -26.202557 20.78684
33.480991 -29.148462 18.969831
33.378864 -32.166977 16.990089
33.107018 -35.242306 14.893708
32.031998 -39.138458 16.896536
32.398544 -38.532246 14.856899
32.729095 -37.932598 12.786251
32.151215 -40.734661 10.512744
31.402889 -43.477345 8.262374
30.527617 -46.077114 5.87074
29.55352 -48.608948 3.650033
30.696718 -32.731346 -11.79077
30.000816 -35.972889 -11.42217
29.126173 -39.433975 -11.248112
33.767075 -31.174288 -2.977525
33.074371 -35.082874 -0.702487
32.834255 -34.621277 -2.90017
32.481239 -34.190483 -5.083608
31.087751 -37.172451 -7.172688
29.813156 -39.562599 -9.12514
28.426571 -42.382648 -10.863597
27.581997 -45.493073 -10.652847
26.783024 -48.431049 -10.37763
27.478479 -49.309689 -6.535113
19.356305 -34.523783 -28.273987
20.023812 -33.469452 -27.676209
20.128301 -34.913355 -27.366224
36.910776 -17.95326 12.417677
36.952963 -16.338031 13.430065
36.626728 -18.134557 13.614969
15.857492 -41.062077 -31.78678
16.176649 -42.737064 -31.491254
20.987572 -47.459673 -24.830124
21.426414 -47.813015 -24.000829
20.486186 -46.997734 -25.656621
20.833942 -45.820757 -25.178485
20.987572 -47.459673 -24.830124
19.949105 -46.369568 -26.539996
20.486186 -46.997734 -25.656621
29.47439 -13.224912 35.129492
29.357822 -14.978804 35.29098
29.762518 -12.527036 34.275391
29.47439 -13.224912 35.129492
29.902203 -13.970836 33.624792
29.762518 -12.527036 34.275391
33.039766 -30.618583 -6.577192
33.71097 -29.128274 -5.552848
32.656973 -32.307995 -6.356237
32.374505 -32.127017 -7.530411
33.039766 -30.618583 -6.577192
35.698744 -19.025726 16.869562
35.328594 -19.416804 17.888573
35.704866 -20.666837 15.886768
36.020646 -18.668385 15.825228
35.698744 -19.025726 16.869562
28.850234 -35.131868 -14.512218
29.129456 -33.571099 -14.753045
29.556884 -33.893206 -13.701155
28.490979 -21.895387 38.764519
28.364168 -22.47843 39.73116
29.26401 -20.00216 35.005838
29.118274 -18.738972 35.743128
29.030222 -20.570462 35.913658
29.414942 -21.381385 34.321051
29.502994 -19.549896 34.15052
29.26401 -20.00216 35.005838
30.333518 -42.82464 25.388279
30.311431 -41.578714 26.317641
30.804547 -42.193123 22.178975
30.649312 -42.433208 23.284267
31.018225 -41.803253 21.125777
31.052102 -40.454635 22.151455
30.804547 -42.193123 22.178975
30.930453 -43.227684 20.119196
31.178008 -41.489197 20.091676
31.018225 -41.803253 21.125777
30.528213 -47.134672 16.905003
30.701733 -45.79367 17.981659
30.601959 -46.792259 15.836209
30.528213 -47.134672 16.905003
28.597503 -48.983617 -1.621541
28.705355 -49.265867 -0.600839
22.216473 -30.390564 -25.89788
23.055027 -30.669836 -24.853293
24.104493 -52.496384 -15.917676
24.345643 -51.125743 -16.158347
28.418444 -28.77771 39.991789
28.321842 -27.554621 40.739841
28.538288 -29.961498 39.234616
28.537849 -28.46117 38.881971
28.418444 -28.77771 39.991789
17.106945 -38.14689 -30.40525
17.596024 -37.241324 -29.895931
17.868733 -38.79303 -29.522861
33.557026 -17.62968 23.534304
33.998201 -17.195636 22.563361
27.584295 -32.812143 -17.917448
28.175239 -32.992407 -16.817018
25.77142 -31.991207 -20.983431
26.401179 -32.316789 -19.971128
25.56259 -33.45392 -20.80787
25.14642 -31.621659 -21.974722
25.77142 -31.991207 -20.983431
24.28347 -32.843333 -22.747955
24.497059 -31.336653 -22.902504
25.14642 -31.621659 -21.974722
18.133766 -44.637298 -29.080818
18.537367 -43.610231 -28.530831
18.741163 -45.2899 -28.284966
17.747249 -45.721428 -29.598926
17.543453 -44.041759 -29.844791
18.133766 -44.637298 -29.080818
30.435184 -18.008994 31.456673
30.238424 -16.645117 32.234956
30.098451 -18.543426 32.346057
31.52559 -16.498425 28.808421
31.15627 -17.01191 29.671979
31.359518 -18.3211 28.920326
31.944051 -16.037701 27.87685
31.52559 -16.498425 28.808421
32.130428 -17.469409 27.135112
31.944051 -16.037701 27.87685
28.931677 -33.586087 36.841556
28.801116 -32.391765 37.647217
29.40826 -32.570025 33.739199
29.231116 -32.937211 34.813091
29.622643 -32.319025 32.695486
29.477691 -30.970903 33.50383
29.40826 -32.570025 33.739199
30.309855 -31.062101 29.731952
30.075086 -31.36499 30.720256
30.588096 -30.777147 28.749362
30.443218 -29.375496 29.622812
30.309855 -31.062101 29.731952
29.150205 -50.077303 3.715394
29.631346 -48.807239 4.763485
29.020139 -49.906289 2.589635
29.150205 -50.077303 3.715394
31.420794 -31.374932 -10.831408
31.050042 -31.110081 -11.923022
35.941159 -25.371665 2.430446
36.381293 -23.731769 3.487443
34.402951 -30.190534 -0.757011
34.941069 -28.660189 0.344873
34.492662 -30.392376 0.376769
33.86081 -31.548505 -1.85132
34.309216 -29.816318 -1.883216
34.402951 -30.190534 -0.757011
26.573588 -50.069131 -9.308733
26.385875 -49.856763 -10.263124
26.970737 -48.643417 -9.423239
27.623295 -49.533424 -5.554512
28.091942 -48.073656 -5.563949
28.236757 -48.297392 -4.583347
34.906145 -18.078789 19.808457
34.789493 -16.409516 20.722431
34.983524 -19.779478 18.877418
34.906145 -18.078789 19.808457
34.615446 -20.048839 19.83983
35.037895 -21.386852 17.919946
35.328594 -19.416804 17.888573
34.983524 -19.779478 18.877418
28.817628 -49.466673 0.483729
28.705355 -49.265867 -0.600839
29.261554 -48.032982 0.489681
20.702647 -32.435687 -27.139988
21.401204 -31.37525 -26.555073
21.494366 -32.798587 -26.183531
20.702647 -32.435687 -27.139988
20.023812 -33.469452 -27.676209
25.854096 -49.08778 -12.924572
26.029261 -49.38361 -12.033513
37.251906 -14.395573 13.290954
36.952963 -16.338031 13.430065
37.524599 -14.174892 12.186731
37.251906 -14.395573 13.290954
37.453193 -15.895869 11.112578
37.740781 -13.914029 11.066536
37.524599 -14.174892 12.186731
16.199551 -40.077812 -31.38915
16.615649 -39.057209 -30.905369
16.963555 -40.7192 -30.51596
16.199551 -40.077812 -31.38915
15.857492 -41.062077 -31.78678
21.882133 -48.243433 -23.135814
22.268365 -48.692629 -22.263346
21.903734 -49.79253 -22.777202
21.791045 -46.713114 -23.486973
21.882133 -48.243433 -23.135814
21.426414 -47.813015 -24.000829
19.355208 -45.821576 -27.404995
19.73866 -44.810825 -26.869981
19.949105 -46.369568 -26.539996
18.741163 -45.2899 -28.284966
19.355208 -45.821576 -27.404995
31.217017 -35.977907 24.121701
31.001501 -36.306442 25.050487
31.039237 -37.721792 24.115952
32.084705 -31.888396 -8.632255
31.778492 -31.678853 -9.692595
31.701912 -33.577809 -8.4113
32.084705 -31.888396 -8.632255
32.374505 -32.127017 -7.530411
36.347842 -18.414412 14.734896
36.020646 -18.668385 15.825228
36.305655 -20.029641 13.722508
36.626728 -18.134557 13.614969
36.347842 -18.414412 14.734896
28.69572 -33.23274 -15.763901
29.129456 -33.571099 -14.753045
27.902325 -34.569428 -16.617227
28.175239 -32.992407 -16.817018
28.69572 -33.23274 -15.763901
22.831947 -52.514831 -19.91876
23.148877 -51.38357 -19.436306
23.083715 -52.896288 -19.086361
22.573602 -52.21035 -20.778315
22.831947 -52.514831 -19.91876
22.270031 -51.830157 -21.596329
22.593538 -50.62192 -21.08672
22.573602 -52.21035 -20.778315
21.966132 -51.387361 -22.444437
22.270031 -51.830157 -21.596329
21.903734 -49.79253 -22.777202
21.966132 -51.387361 -22.444437
28.639487 -21.500315 37.823099
28.490979 -21.895387 38.764519
28.59136 -23.242427 38.123514
28.711796 -19.730275 37.557526
28.639487 -21.500315 37.823099
28.812178 -21.077314 36.916522
28.790192 -17.927251 37.305024
28.711796 -19.730275 37.557526
28.997858 -17.433733 36.382439
28.790192 -17.927251 37.305024
28.997858 -17.433733 36.382439
29.118274 -18.738972 35.743128
29.478238 -16.284043 34.651668
29.357822 -14.978804 35.29098
29.753052 -15.788483 33.796184
29.478238 -16.284043 34.651668
29.777809 -19.054336 33.295036
29.502994 -19.549896 34.15052
29.97457 -20.418212 32.516754
30.098451 -18.543426 32.346057
29.777809 -19.054336 33.295036
30.436834 -39.884844 26.246205
30.311431 -41.578714 26.317641
30.653367 -39.624086 25.176845
30.436834 -39.884844 26.246205
30.471607 -42.609879 24.336416
30.333518 -42.82464 25.388279
30.660718 -41.021175 24.256802
30.471607 -42.609879 24.336416
30.649312 -42.433208 23.284267
30.831072 -39.447416 24.124696
30.653367 -39.624086 25.176845
30.660718 -41.021175 24.256802
31.046588 -39.118881 23.195909
31.039237 -37.721792 24.115952
30.831072 -39.447416 24.124696
30.841057 -44.50022 19.022364
30.930453 -43.227684 20.119196
30.950912 -44.207079 18.04439
30.841057 -44.50022 19.022364
30.701733 -45.79367 17.981659
30.701294 -46.565593 14.682408
30.910923 -45.273865 15.849884
30.601959 -46.792259 15.836209
30.441902 -47.818147 13.574998
30.750866 -46.299753 13.588673
30.701294 -46.565593 14.682408
33.972983 -29.252761 -4.282917
33.71097 -29.128274 -5.552848
28.374575 -48.467334 -3.627602
28.236757 -48.297392 -4.583347
28.843223 -47.007566 -3.637039
28.513383 -48.656284 -2.664745
29.065161 -47.504842 -1.63809
28.597503 -48.983617 -1.621541
28.374575 -48.467334 -3.627602
28.513383 -48.656284 -2.664745
22.216473 -30.390564 -25.89788
21.401204 -31.37525 -26.555073
25.617943 -48.782263 -13.897396
26.141976 -47.669607 -13.177136
25.854096 -49.08778 -12.924572
25.35492 -48.657976 -14.829531
25.617943 -48.782263 -13.897396
25.088634 -48.392572 -15.730415
25.639537 -47.098686 -15.050844
25.35492 -48.657976 -14.829531
24.55086 -49.681224 -16.402819
24.835478 -48.121934 -16.624131
25.088634 -48.392572 -15.730415
24.092488 -50.855106 -17.052062
24.55086 -49.681224 -16.402819
24.345643 -51.125743 -16.158347
23.718385 -53.669914 -16.471462
24.104493 -52.496384 -15.917676
23.536838 -53.462549 -17.323963
23.718385 -53.669914 -16.471462
23.293526 -53.19525 -18.222122
23.643958 -52.032325 -17.705748
23.536838 -53.462549 -17.323963
23.083715 -52.896288 -19.086361
23.293526 -53.19525 -18.222122
28.337666 -24.166138 40.071741
28.364168 -22.47843 39.73116
28.325243 -25.986079 40.358846
28.321842 -27.554621 40.739841
28.430428 -25.45744 39.35204
28.337666 -24.166138 40.071741
28.325243 -25.986079 40.358846
37.976624 -13.536113 9.947356
37.740781 -13.914029 11.066536
38.152609 -13.135293 8.836782
37.976624 -13.536113 9.947356
37.845361 -15.234186 8.881809
38.314018 -12.908876 7.608953
38.152609 -13.135293 8.836782
38.092764 -14.737034 6.539237
38.314018 -12.908876 7.608953
37.822647 -16.588335 5.492072
38.092764 -14.737034 6.539237
37.75123 -16.684666 6.72407
37.503356 -18.333551 4.470028
37.822647 -16.588335 5.492072
37.132024 -20.208174 4.520388
37.503356 -18.333551 4.470028
36.747053 -22.159467 4.589735
37.132024 -20.208174 4.520388
37.096142 -20.48726 5.746253
36.34541 -24.010855 4.713307
36.381293 -23.731769 3.487443
36.747053 -22.159467 4.589735
18.179765 -36.321632 -29.351979
18.731255 -35.361744 -28.827208
18.909304 -36.927574 -28.488771
18.179765 -36.321632 -29.351979
17.596024 -37.241324 -29.895931
17.106945 -38.14689 -30.40525
16.615649 -39.057209 -30.905369
34.389641 -16.828073 21.630175
34.789493 -16.409516 20.722431
34.146627 -18.715713 21.704055
34.389641 -16.828073 21.630175
33.998201 -17.195636 22.563361
26.989548 -32.537348 -18.980059
27.584295 -32.812143 -17.917448
26.787097 -34.054299 -18.732956
26.989548 -32.537348 -18.980059
26.401179 -32.316789 -19.971128
23.775619 -31.079924 -23.891854
24.497059 -31.336653 -22.902504
22.913516 -32.148238 -24.637177
23.055027 -30.669836 -24.853293
23.775619 -31.079924 -23.891854
16.481389 -44.430107 -31.172833
16.176649 -42.737064 -31.491254
16.852197 -43.432846 -30.68132
17.45807 -46.81044 -30.055248
17.747249 -45.721428 -29.598926
16.815214 -46.069378 -30.872315
17.45807 -46.81044 -30.055248
16.481389 -44.430107 -31.172833
16.815214 -46.069378 -30.872315
29.902203 -13.970836 33.624792
29.753052 -15.788483 33.796184
30.387575 -14.827471 32.063564
30.238424 -16.645117 32.234956
30.758575 -14.247224 31.163665
30.387575 -14.827471 32.063564
30.948749 -15.64996 30.452823
30.782677 -17.472635 30.564728
31.15627 -17.01191 29.671979
30.758575 -14.247224 31.163665
30.948749 -15.64996 30.452823
32.331632 -18.969125 26.29637
32.130428 -17.469409 27.135112
31.930043 -19.307331 27.218026
32.742854 -18.54074 25.341026
32.331632 -18.969125 26.29637
32.542469 -20.378662 25.423939
33.156277 -18.06318 24.44998
32.742854 -18.54074 25.341026
33.354439 -19.516777 23.552917
33.557026 -17.62968 23.534304
33.156277 -18.06318 24.44998
28.66274 -31.184669 38.428764
28.538288 -29.961498 39.234616
28.796068 -30.852055 37.34325
28.66274 -31.184669 38.428764
28.801116 -32.391765 37.647217
29.066683 -33.355835 35.820172
28.931677 -33.586087 36.841556
29.098876 -31.640527 35.554623
29.066683 -33.355835 35.820172
29.231116 -32.937211 34.813091
29.838636 -31.894716 31.647613
29.622643 -32.319025 32.695486
29.928525 -30.190176 31.532759
29.838636 -31.894716 31.647613
30.075086 -31.36499 30.720256
30.922693 -34.977308 26.038159
31.001501 -36.306442 25.050487
30.825826 -33.627685 26.959535
30.922693 -34.977308 26.038159
31.082414 -33.212933 25.977612
30.72014 -32.163531 27.878746
30.825826 -33.627685 26.959535
30.853503 -30.476926 27.769605
30.588096 -30.777147 28.749362
30.72014 -32.163531 27.878746
30.153494 -49.127229 12.496606
30.441902 -47.818147 13.574998
30.144808 -48.864872 11.363167
30.153494 -49.127229 12.496606
30.148951 -48.714022 10.269859
30.495617 -47.401457 11.387954
30.144808 -48.864872 11.363167
30.121657 -48.448576 9.105182
30.148951 -48.714022 10.269859
30.162354 -48.076938 8.050932
30.540458 -46.878969 9.240396
30.121657 -48.448576 9.105182
30.145164 -47.756431 7.031543
30.162354 -48.076938 8.050932
30.118395 -47.541322 5.873839
30.554386 -46.292223 7.028443
30.145164 -47.756431 7.031543
30.040568 -47.343031 4.760387
30.118395 -47.541322 5.873839
29.631346 -48.807239 4.763485
28.930293 -49.718708 1.551744
29.463673 -48.421368 2.612141
29.020139 -49.906289 2.589635
28.817628 -49.466673 0.483729
28.930293 -49.718708 1.551744
30.266413 -32.531891 -12.866376
31.050042 -31.110081 -11.923022
29.98719 -34.092661 -12.625549
29.556884 -33.893206 -13.701155
30.266413 -32.531891 -12.866376
31.054416 -33.035267 -10.651957
31.420794 -31.374932 -10.831408
31.778492 -31.678853 -9.692595
35.466724 -27.011101 1.364264
35.941159 -25.371665 2.430446
35.505215 -27.222594 2.544834
35.466724 -27.011101 1.364264
34.941069 -28.660189 0.344873
34.195403 -29.440124 -3.07017
34.309216 -29.816318 -1.883216
33.544655 -30.986925 -4.190272
33.972983 -29.252761 -4.282917
34.195403 -29.440124 -3.07017
26.231708 -49.611572 -11.120171
26.029261 -49.38361 -12.033513
26.580577 -48.203086 -11.290971
26.231708 -49.611572 -11.120171
26.385875 -49.856763 -10.263124
27.052003 -50.665039 -6.531407
27.623295 -49.533424 -5.554512
26.89273 -50.490141 -7.453914
27.052003 -50.665039 -6.531407
26.732715 -50.263189 -8.420782
27.318464 -49.082737 -7.501981
26.89273 -50.490141 -7.453914
26.573588 -50.069131 -9.308733
26.732715 -50.263189 -8.420782
19.356305 -34.523783 -28.273987
18.731255 -35.361744 -28.827208
3 0 58 57
3 0 60 58
3 1 63 61
3 3 66 64
3 3 68 66
3 4 71 69
3 4 73 71
3 2 224 226
3 226 225 74
3 224 225 226
3 6 227 229
3 227 75 228
3 227 228 229
3 6 77 75
3 6 79 77
3 8 82 80
3 8 84 82
3 231 230 85
3 9 88 86
3 9 90 88
3 5 93 91
3 232 95 233
3 234 97 235
3 236 235 95
3 234 235 236
3 238 237 97
3 10 239 240
3 10 241 242
3 10 243 244
3 11 101 99
3 11 103 101
3 12 106 104
3 12 108 106
3 12 110 108
3 13 113 111
3 13 115 113
3 14 245 246
3 14 247 249
3 247 117 248
3 247 248 249
3 7 120 118
3 15 123 121
3 15 125 123
3 15 127 125
3 16 250 251
3 16 252 254
3 252 128 253
3 252 253 254
3 16 130 128
3 18 131 59
3 18 132 131
3 19 255 257
3 255 133 256
3 255 256 257
3 21 134 62
3 21 135 134
3 23 258 259
3 24 137 65
3 24 260 262
3 262 261 137
3 260 261 262
3 24 263 265
3 263 138 264
3 263 264 265
3 26 139 67
3 26 140 139
3 266 141 267
3 268 142 269
3 270 143 271
3 272 271 142
3 270 271 272
3 273 145 274
3 275 274 143
3 273 274 275
3 276 146 277
3 279 278 146
3 28 149 147
3 30 150 70
3 30 151 150
3 30 153 151
3 281 280 72
3 31 282 283
3 32 156 154
3 284 157 285
3 286 158 287
3 288 159 289
3 290 289 158
3 288 289 290
3 34 160 76
3 34 161 160
3 34 162 161
3 36 163 78
3 36 164 163
3 17 165 129
3 37 166 81
3 37 167 166
3 37 168 167
3 38 169 83
3 38 170 169
3 39 291 293
3 293 292 171
3 291 292 293
3 294 172 295
3 20 296 297
3 40 298 300
3 300 299 87
3 298 299 300
3 40 301 302
3 40 303 305
3 303 173 304
3 303 304 305
3 41 174 89
3 41 175 174
3 33 176 155
3 42 177 92
3 42 178 177
3 22 179 136
3 43 180 94
3 43 181 180
3 43 182 181
3 44 183 96
3 44 184 183
3 44 185 184
3 306 186 307
3 308 307 98
3 306 307 308
3 309 187 310
3 311 310 186
3 309 310 311
3 25 312 314
3 312 188 313
3 312 313 314
3 45 315 317
3 317 316 100
3 315 316 317
3 45 318 319
3 45 320 321
3 46 189 102
3 46 190 189
3 322 191 323
3 324 192 325
3 326 193 327
3 328 327 192
3 326 327 328
3 329 194 330
3 331 195 332
3 333 332 194
3 331 332 333
3 47 196 105
3 47 197 196
3 47 198 197
3 48 199 107
3 48 200 199
3 48 201 200
3 49 202 109
3 49 203 202
3 27 204 144
3 50 205 112
3 50 206 205
3 50 207 206
3 51 208 114
3 51 209 208
3 334 210 335
3 337 336 210
3 338 211 339
3 52 212 116
3 52 213 212
3 35 340 341
3 53 342 344
3 344 343 119
3 342 343 344
3 53 345 347
3 345 214 346
3 345 346 347
3 29 215 148
3 54 216 122
3 54 217 216
3 54 218 217
3 55 219 124
3 55 220 219
3 55 221 220
3 56 222 126
3 56 348 350
3 350 349 222
3 348 349 350
3 351 223 352
3 353 352 152
3 351 352 353
3 57 354 355
3 58 356 358
3 358 357 57
3 356 357 358
3 58 359 361
3 359 16 360
3 359 360 361
3 58 59 16
3 60 59 58
3 60 18 59
3 61 62 19
3 63 62 61
3 63 21 62
3 64 65 23
3 66 65 64
3 66 24 65
3 66 67 24
3 68 67 66
3 68 26 67
3 69 70 28
3 71 70 69
3 71 30 70
3 71 72 30
3 73 72 71
3 73 362 364
3 364 363 72
3 362 363 364
3 74 365 367
3 367 366 31
3 365 366 367
3 369 368 74
3 371 370 32
3 75 372 373
3 75 374 375
3 75 376 378
3 376 76 377
3 376 377 378
3 77 76 75
3 77 34 76
3 77 78 34
3 79 78 77
3 79 36 78
3 80 81 17
3 82 81 80
3 82 37 81
3 82 83 37
3 84 83 82
3 84 38 83
3 85 379 381
3 381 380 39
3 379 380 381
3 383 382 85
3 86 87 20
3 88 87 86
3 88 40 87
3 88 89 40
3 90 89 88
3 90 41 89
3 91 92 33
3 93 92 91
3 93 42 92
3 384 94 385
3 386 385 22
3 384 385 386
3 95 387 389
3 387 94 388
3 387 388 389
3 95 43 94
3 95 96 43
3 97 96 95
3 97 44 96
3 97 98 44
3 390 98 391
3 392 391 97
3 390 391 392
3 394 393 98
3 99 100 25
3 101 100 99
3 101 45 100
3 101 102 45
3 103 102 101
3 103 46 102
3 104 395 397
3 395 105 396
3 395 396 397
3 106 105 104
3 106 47 105
3 106 107 47
3 108 107 106
3 108 48 107
3 108 109 48
3 110 109 108
3 110 49 109
3 111 112 27
3 113 112 111
3 113 50 112
3 113 114 50
3 115 114 113
3 115 51 114
3 398 116 399
3 117 400 402
3 400 116 401
3 400 401 402
3 117 52 116
3 118 119 35
3 120 119 118
3 120 53 119
3 121 122 29
3 123 122 121
3 123 54 122
3 123 124 54
3 125 124 123
3 125 55 124
3 125 126 55
3 127 126 125
3 127 56 126
3 128 403 404
3 128 405 407
3 405 6 406
3 405 406 407
3 128 129 6
3 130 129 128
3 130 17 129
3 59 130 16
3 131 130 59
3 131 17 130
3 131 80 17
3 132 80 131
3 132 8 80
3 133 408 409
3 133 410 412
3 410 20 411
3 410 411 412
3 62 133 19
3 134 133 62
3 134 20 133
3 134 86 20
3 135 86 134
3 135 9 86
3 413 136 414
3 415 414 5
3 413 414 415
3 416 136 417
3 418 22 419
3 420 419 136
3 418 419 420
3 421 22 422
3 424 423 22
3 65 425 427
3 427 426 23
3 425 426 427
3 137 428 430
3 430 429 65
3 428 429 430
3 137 431 432
3 137 433 434
3 436 435 137
3 437 10 438
3 440 439 10
3 138 441 442
3 138 443 445
3 443 25 444
3 443 444 445
3 67 138 24
3 139 138 67
3 139 25 138
3 139 99 25
3 140 99 139
3 140 11 99
3 141 446 447
3 141 448 449
3 450 141 451
3 142 452 454
3 452 141 453
3 452 453 454
3 142 455 457
3 457 456 141
3 455 456 457
3 142 458 460
3 458 104 459
3 458 459 460
3 143 104 142
3 143 12 104
3 143 144 12
3 145 144 143
3 145 27 144
3 461 145 462
3 146 463 465
3 463 145 464
3 463 464 465
3 146 27 145
3 146 111 27
3 466 111 467
3 468 467 146
3 466 467 468
3 469 13 470
3 471 470 111
3 469 470 471
3 472 14 473
3 147 148 7
3 149 148 147
3 149 29 148
3 70 149 28
3 150 149 70
3 150 29 149
3 150 121 29
3 151 121 150
3 151 15 121
3 151 152 15
3 153 152 151
3 153 474 476
3 476 475 152
3 474 475 476
3 72 153 30
3 477 153 478
3 479 478 72
3 477 478 479
3 481 480 153
3 483 482 31
3 154 155 1
3 156 155 154
3 156 33 155
3 484 156 485
3 486 485 32
3 484 485 486
3 487 156 488
3 489 33 490
3 491 490 156
3 489 490 491
3 492 91 493
3 494 493 33
3 492 493 494
3 157 495 497
3 495 91 496
3 495 496 497
3 157 5 91
3 498 157 499
3 500 157 501
3 502 5 503
3 504 503 157
3 502 503 504
3 506 505 5
3 507 23 508
3 158 509 510
3 158 511 513
3 511 23 512
3 511 512 513
3 158 64 23
3 159 64 158
3 159 3 64
3 76 514 515
3 160 516 518
3 518 517 76
3 516 517 518
3 160 519 520
3 160 521 522
3 161 523 525
3 525 524 160
3 523 524 525
3 161 526 527
3 161 528 529
3 162 530 532
3 532 531 161
3 530 531 532
3 162 533 535
3 533 35 534
3 533 534 535
3 78 162 34
3 163 162 78
3 163 35 162
3 163 118 35
3 164 118 163
3 164 7 118
3 129 79 6
3 165 79 129
3 165 36 79
3 81 165 17
3 166 165 81
3 166 36 165
3 166 164 36
3 167 164 166
3 167 7 164
3 167 147 7
3 168 147 167
3 168 28 147
3 83 168 37
3 169 168 83
3 169 28 168
3 169 69 28
3 170 69 169
3 170 4 69
3 171 536 538
3 538 537 2
3 536 537 538
3 540 539 171
3 542 541 39
3 543 57 544
3 172 545 547
3 545 57 546
3 545 546 547
3 172 0 57
3 87 548 550
3 550 549 20
3 548 549 550
3 552 551 87
3 173 553 554
3 173 555 557
3 555 31 556
3 555 556 557
3 89 173 40
3 174 173 89
3 174 31 173
3 174 74 31
3 175 74 174
3 175 2 74
3 155 63 1
3 176 63 155
3 176 21 63
3 92 176 33
3 177 176 92
3 177 21 176
3 177 135 21
3 178 135 177
3 178 9 135
3 136 93 5
3 179 93 136
3 179 42 93
3 94 179 22
3 180 179 94
3 180 42 179
3 180 178 42
3 181 178 180
3 181 9 178
3 181 90 9
3 182 90 181
3 182 41 90
3 96 182 43
3 183 182 96
3 183 41 182
3 183 175 41
3 184 175 183
3 184 2 175
3 184 171 2
3 185 171 184
3 185 39 171
3 98 185 44
3 186 185 98
3 186 39 185
3 186 85 39
3 187 85 186
3 187 558 560
3 560 559 85
3 558 559 560
3 561 187 562
3 563 187 564
3 566 565 187
3 568 567 10
3 188 569 570
3 188 571 572
3 100 188 25
3 573 188 574
3 575 574 100
3 573 574 575
3 577 576 188
3 102 578 580
3 580 579 45
3 578 579 580
3 189 581 583
3 583 582 102
3 581 582 583
3 189 584 585
3 189 586 588
3 586 172 587
3 586 587 588
3 190 172 189
3 190 0 172
3 589 159 590
3 191 591 593
3 591 159 592
3 591 592 593
3 191 3 159
3 594 191 595
3 192 596 598
3 596 191 597
3 596 597 598
3 192 3 191
3 192 68 3
3 193 68 192
3 193 26 68
3 599 193 600
3 194 601 603
3 601 193 602
3 601 602 603
3 194 26 193
3 194 140 26
3 195 140 194
3 195 11 140
3 105 604 605
3 196 606 608
3 608 607 105
3 606 607 608
3 196 609 610
3 196 611 613
3 611 195 612
3 611 612 613
3 197 195 196
3 197 11 195
3 197 103 11
3 198 103 197
3 198 46 103
3 107 198 47
3 199 198 107
3 199 46 198
3 199 190 46
3 200 190 199
3 200 0 190
3 200 60 0
3 201 60 200
3 201 18 60
3 109 201 48
3 202 201 109
3 202 18 201
3 202 132 18
3 203 132 202
3 203 8 132
3 144 110 12
3 204 110 144
3 204 49 110
3 112 204 27
3 205 204 112
3 205 49 204
3 205 203 49
3 206 203 205
3 206 8 203
3 206 84 8
3 207 84 206
3 207 38 84
3 114 207 50
3 208 207 114
3 208 38 207
3 208 170 38
3 209 170 208
3 209 4 170
3 614 13 615
3 616 13 617
3 618 115 619
3 620 619 13
3 618 619 620
3 621 115 622
3 623 51 624
3 625 624 115
3 623 624 625
3 626 51 627
3 628 209 629
3 630 629 51
3 628 629 630
3 210 631 633
3 631 209 632
3 631 632 633
3 210 4 209
3 210 73 4
3 634 73 635
3 636 635 210
3 634 635 636
3 638 637 73
3 211 639 640
3 211 641 643
3 641 19 642
3 641 642 643
3 116 644 646
3 644 211 645
3 644 645 646
3 212 211 116
3 212 19 211
3 212 61 19
3 213 61 212
3 213 1 61
3 119 647 649
3 649 648 35
3 647 648 649
3 651 650 119
3 214 652 653
3 214 654 656
3 654 14 655
3 654 655 656
3 148 120 7
3 215 120 148
3 215 53 120
3 122 215 29
3 216 215 122
3 216 53 215
3 216 214 53
3 217 214 216
3 217 14 214
3 217 117 14
3 218 117 217
3 218 52 117
3 124 218 54
3 219 218 124
3 219 52 218
3 219 213 52
3 220 213 219
3 220 1 213
3 220 154 1
3 221 154 220
3 221 32 154
3 126 221 55
3 222 221 126
3 222 32 221
3 222 657 659
3 659 658 32
3 657 658 659
3 661 660 222
3 152 127 15
3 223 127 152
3 223 56 127
3 662 223 663
3 664 223 665
3 666 56 667
3 668 667 223
3 666 667 668
3 670 669 56
3 672 671 2
